<svg height="792" width="612" xmlns="http://www.w3.org/2000/svg"><path d="M306 396 C 307 396 308 397 309 398  C 305 403 300 408 296 413  C 284 414 274 414 264 414  C 248 425 233 435 217 446  C 214 454 210 463 207 473  C 203 481 198 489 196 499  C 185 497 175 495 164 493 M164 493 C 165 495 166 496 167 497  C 147 506 127 512 105 517  C 97 515 89 512 80 511  C 82 512 85 513 86 514  C 66 516 45 518 25 519  C 24 519 22 519 21 518  C 13 523 5 528 -2 533  C 4 535 10 538 15 545 M15 545 C 5 550 -3 556 -11 565  C -20 571 -29 576 -38 583 M-38 583 C -50 584 -63 584 -75 585  C -68 592 -59 592 -50 591  C -46 598 -40 601 -32 603  C -39 614 -42 626 -48 638 M-48 638 C -54 638 -59 642 -64 646  C -61 647 -58 648 -55 649  C -64 649 -73 650 -82 650  C -80 652 -78 654 -76 656  C -78 655 -80 653 -82 652  C -86 650 -90 647 -94 645 M-94 645 C -97 645 -101 644 -104 643 M-104 643 C -104 635 -104 627 -104 619  C -100 622 -96 625 -92 628  C -79 639 -66 650 -52 660 M-52 660 C -57 662 -62 665 -66 666  C -67 668 -67 670 -67 672  C -63 670 -59 666 -54 663 M-54 663 C -61 658 -66 652 -76 653  C -59 652 -43 651 -26 649  C -22 652 -18 655 -14 658  C -16 658 -18 659 -20 659  C -20 660 -20 660 -20 661 M-20 661 C -26 665 -32 668 -39 672  C -40 671 -42 671 -44 670  C -53 673 -65 671 -71 664  C -65 662 -61 666 -62 671  C -52 707 -41 743 -31 779 M-31 779 C -37 779 -44 779 -50 780  C -56 782 -61 784 -66 787  C -69 790 -71 793 -73 796  C -76 800 -78 804 -80 808  C -79 807 -78 807 -76 807  C -60 805 -43 804 -26 803  C -30 806 -34 810 -40 809  C -39 810 -37 812 -35 813  C -33 814 -32 816 -31 817  C -32 817 -33 817 -34 816  C -41 822 -45 829 -49 837  C -44 841 -39 845 -32 847  C -32 854 -27 858 -20 855  C -20 855 -21 855 -21 855  C -30 856 -39 856 -48 856  C -53 857 -59 858 -65 859  C -81 860 -98 862 -115 863  C -119 861 -123 859 -126 857  C -132 857 -136 852 -141 848 M-141 848 C -133 854 -124 855 -115 851 M-115 851 C -102 850 -90 850 -77 849  C -73 852 -69 854 -64 855  C -73 857 -81 859 -90 861 M-90 861 C -90 861 -90 860 -90 860 M-90 860 C -97 859 -104 859 -112 858  C -113 864 -118 868 -122 872 M-122 872 C -128 873 -133 875 -136 880 M-136 880 C -143 880 -150 881 -157 881  C -162 883 -168 884 -174 886  C -181 892 -187 900 -195 906  C -202 904 -207 900 -213 896  C -200 895 -188 894 -175 894  C -184 895 -194 894 -204 895 M-204 895 C -210 897 -216 899 -223 900  C -222 901 -221 902 -219 902  C -232 904 -242 912 -254 916  C -259 912 -264 908 -270 907  C -275 904 -281 902 -284 897  C -275 897 -265 897 -256 896  C -262 896 -269 897 -275 897  C -279 901 -283 905 -284 911  C -281 907 -281 899 -284 896  C -292 897 -299 898 -306 904  C -308 907 -309 911 -311 915  C -322 915 -334 916 -345 916  C -344 917 -343 918 -342 919 M-342 919 C -344 919 -345 919 -348 920  C -336 929 -324 939 -312 948  C -312 949 -312 950 -312 950  C -320 952 -329 952 -338 953  C -348 957 -359 960 -369 965  C -378 965 -388 966 -397 966  C -401 963 -405 962 -411 963  C -413 961 -415 959 -418 956  C -419 960 -421 963 -423 967  C -431 977 -439 987 -448 996  C -440 996 -433 995 -425 995  C -420 999 -415 1000 -409 999  C -412 1000 -415 1002 -419 1003  C -429 1003 -440 1003 -451 1001  C -458 1001 -465 1002 -472 1002  C -463 1000 -458 995 -453 988  C -455 998 -461 1005 -468 1011  C -478 1020 -484 1033 -493 1044  C -500 1052 -508 1060 -514 1067  C -514 1072 -514 1075 -517 1079  C -519 1079 -520 1079 -522 1078  C -527 1076 -531 1072 -536 1071  C -549 1072 -561 1073 -574 1073  C -574 1072 -575 1070 -576 1069  C -584 1068 -589 1073 -595 1077  C -600 1075 -605 1078 -609 1079  C -620 1090 -626 1104 -634 1116  C -630 1121 -626 1125 -619 1126  C -621 1127 -622 1128 -625 1128  C -623 1128 -622 1128 -620 1127  C -628 1128 -635 1128 -643 1128  C -646 1135 -649 1141 -655 1147  C -655 1148 -656 1149 -657 1150  C -653 1153 -649 1154 -643 1154  C -637 1151 -633 1146 -629 1140  C -638 1144 -645 1151 -650 1159  C -659 1169 -660 1187 -651 1197  C -654 1199 -656 1201 -658 1203  C -651 1205 -645 1208 -640 1214  C -649 1217 -657 1222 -663 1229  C -668 1232 -673 1229 -678 1228  C -672 1230 -668 1233 -663 1237  C -669 1238 -676 1233 -680 1227  C -661 1242 -642 1257 -623 1273  C -627 1273 -632 1272 -636 1273  C -641 1273 -645 1274 -650 1274  C -655 1277 -658 1281 -660 1285 M-660 1285 C -669 1300 -683 1310 -696 1321  C -701 1321 -706 1322 -711 1322 M-711 1322 C -717 1317 -723 1312 -732 1313  C -736 1303 -740 1301 -750 1304  C -747 1304 -745 1308 -742 1310  C -738 1306 -739 1300 -739 1294  C -744 1290 -751 1289 -758 1289  C -765 1289 -771 1292 -778 1295  C -765 1294 -752 1294 -740 1293  C -749 1294 -759 1297 -767 1304  C -776 1313 -782 1325 -795 1327  C -800 1337 -805 1346 -811 1356  C -817 1353 -825 1351 -829 1344  C -838 1354 -849 1361 -859 1370  C -859 1368 -859 1365 -859 1363  C -852 1363 -845 1362 -837 1362  C -840 1360 -843 1358 -845 1356  C -848 1359 -851 1360 -854 1362  C -857 1368 -860 1374 -863 1380  C -858 1382 -854 1386 -848 1387  C -841 1394 -833 1397 -823 1395  C -829 1390 -835 1386 -843 1387  C -841 1389 -839 1390 -837 1392  C -837 1393 -836 1394 -836 1395  C -845 1396 -855 1396 -864 1397  C -867 1398 -870 1402 -869 1406  C -870 1406 -870 1406 -871 1407  C -872 1404 -872 1402 -873 1400  C -879 1399 -886 1399 -892 1398  C -899 1402 -906 1406 -914 1410  C -916 1410 -917 1410 -919 1411  C -915 1410 -911 1411 -907 1411  C -902 1426 -897 1441 -893 1456  C -895 1456 -897 1452 -899 1451  C -899 1452 -898 1453 -898 1453  C -896 1453 -894 1453 -892 1453  C -888 1456 -884 1460 -878 1460  C -881 1464 -884 1466 -887 1468  C -892 1465 -896 1461 -901 1460  C -910 1467 -919 1476 -927 1484  C -929 1492 -935 1494 -941 1497  C -922 1513 -903 1528 -883 1544  C -893 1547 -903 1550 -913 1551  C -915 1552 -918 1553 -920 1554  C -934 1551 -948 1546 -962 1547  C -962 1548 -963 1548 -963 1548  C -967 1546 -972 1543 -975 1541  C -987 1542 -998 1542 -1010 1543  C -1009 1544 -1009 1545 -1008 1546  C -996 1545 -985 1545 -973 1544  C -992 1559 -1011 1573 -1028 1591  C -1028 1590 -1029 1589 -1030 1589  C -1019 1589 -1007 1588 -995 1587  C -1006 1588 -1017 1589 -1028 1590  C -1031 1588 -1031 1586 -1029 1584  C -1041 1585 -1054 1585 -1066 1586  C -1073 1591 -1080 1595 -1088 1597  C -1093 1598 -1098 1598 -1103 1598  C -1112 1599 -1120 1599 -1128 1600  C -1124 1601 -1123 1604 -1126 1608  C -1127 1608 -1127 1609 -1128 1609  C -1121 1607 -1117 1600 -1117 1593  C -1116 1593 -1115 1593 -1115 1593  C -1127 1594 -1139 1594 -1151 1595  C -1153 1598 -1157 1601 -1156 1606  C -1164 1613 -1172 1621 -1180 1628  C -1187 1638 -1196 1648 -1204 1658  C -1212 1658 -1221 1659 -1229 1659  C -1230 1662 -1231 1664 -1228 1666  C -1224 1669 -1220 1672 -1216 1675  C -1223 1682 -1230 1690 -1238 1698 M-1238 1698 C -1243 1704 -1251 1707 -1258 1711  C -1256 1717 -1255 1722 -1254 1728  C -1256 1727 -1258 1725 -1261 1723  C -1278 1724 -1294 1726 -1311 1727  C -1317 1734 -1324 1741 -1333 1745 M-1333 1745 C -1340 1746 -1346 1751 -1352 1755  C -1358 1756 -1362 1756 -1366 1757  C -1364 1765 -1362 1772 -1355 1778  C -1333 1776 -1312 1775 -1290 1773  C -1288 1774 -1286 1775 -1283 1776  C -1281 1776 -1279 1775 -1276 1774  C -1282 1778 -1289 1781 -1293 1788  C -1291 1793 -1285 1795 -1281 1797  C -1263 1796 -1246 1795 -1228 1794  C -1222 1800 -1214 1803 -1207 1809  C -1201 1814 -1195 1816 -1187 1814  C -1191 1812 -1195 1810 -1198 1808  C -1193 1814 -1187 1818 -1180 1820  C -1183 1818 -1186 1815 -1188 1813  C -1182 1819 -1175 1821 -1166 1820  C -1178 1821 -1191 1822 -1203 1823  C -1209 1825 -1214 1829 -1220 1832  C -1221 1832 -1223 1833 -1224 1834  C -1211 1834 -1198 1833 -1186 1833  C -1192 1833 -1199 1833 -1206 1834  C -1204 1835 -1202 1836 -1201 1838 M-1201 1838 C -1202 1838 -1205 1838 -1206 1839  C -1200 1843 -1198 1849 -1197 1855  C -1199 1856 -1201 1855 -1203 1856  C -1203 1857 -1203 1857 -1203 1857  C -1205 1857 -1207 1855 -1209 1855  C -1208 1856 -1206 1856 -1205 1857  C -1208 1860 -1207 1864 -1203 1867  C -1194 1866 -1187 1869 -1181 1877  C -1192 1878 -1203 1878 -1213 1878  C -1225 1885 -1237 1893 -1247 1904 M-1247 1904 C -1255 1908 -1264 1914 -1273 1917  C -1275 1921 -1277 1925 -1279 1929  C -1291 1935 -1302 1941 -1314 1947  C -1316 1948 -1318 1949 -1320 1950  C -1318 1952 -1316 1954 -1314 1956  C -1325 1957 -1337 1958 -1348 1958  C -1348 1958 -1348 1957 -1348 1957  C -1340 1963 -1332 1970 -1324 1976  C -1319 1976 -1314 1975 -1309 1975  C -1312 1975 -1315 1973 -1318 1971 M-1318 1971 C -1312 1971 -1305 1970 -1299 1970  C -1301 1970 -1303 1970 -1306 1970  C -1307 1972 -1306 1975 -1306 1977  C -1310 1978 -1314 1979 -1316 1983  C -1318 1985 -1319 1988 -1319 1990  C -1324 1987 -1330 1985 -1333 1979  C -1323 1978 -1312 1978 -1302 1977  C -1294 1976 -1286 1977 -1278 1976  C -1275 1975 -1271 1976 -1267 1976  C -1273 1976 -1277 1977 -1282 1977  C -1281 1979 -1278 1978 -1276 1979  C -1277 1981 -1277 1983 -1278 1984 M-1278 1984 C -1281 1984 -1284 1986 -1287 1987  C -1286 1986 -1286 1986 -1285 1986  C -1288 1985 -1291 1984 -1295 1983  C -1300 1977 -1306 1974 -1313 1972  C -1305 1999 -1297 2026 -1289 2052  C -1283 2053 -1279 2058 -1274 2061  C -1279 2065 -1285 2067 -1287 2074  C -1285 2074 -1283 2074 -1282 2073  C -1280 2075 -1277 2076 -1275 2077 M-1275 2077 C -1276 2076 -1276 2075 -1277 2074  C -1277 2074 -1276 2074 -1275 2074  C -1275 2074 -1275 2075 -1275 2075  C -1294 2074 -1312 2073 -1331 2072  C -1340 2071 -1348 2067 -1357 2065  C -1347 2064 -1337 2064 -1327 2064  C -1322 2066 -1319 2070 -1313 2072  C -1325 2072 -1338 2073 -1350 2074  C -1348 2078 -1346 2083 -1347 2088  C -1349 2088 -1351 2089 -1353 2089  C -1349 2102 -1345 2115 -1341 2128  C -1341 2128 -1341 2129 -1342 2129  C -1340 2131 -1339 2132 -1338 2133  C -1345 2134 -1349 2129 -1354 2126  C -1359 2129 -1364 2133 -1369 2135  C -1376 2134 -1384 2134 -1391 2133  C -1401 2134 -1410 2134 -1420 2135  C -1425 2139 -1430 2143 -1435 2148  C -1435 2149 -1435 2150 -1435 2151  C -1430 2151 -1424 2151 -1419 2150  C -1426 2143 -1434 2141 -1444 2142  C -1444 2143 -1443 2143 -1443 2143  C -1453 2149 -1458 2159 -1465 2169  C -1455 2202 -1445 2236 -1435 2270 M-1435 2270 C -1431 2271 -1428 2272 -1425 2273  C -1431 2283 -1438 2292 -1446 2300  C -1455 2292 -1466 2292 -1477 2294  C -1480 2294 -1484 2295 -1488 2295 M-1488 2295 C -1496 2294 -1504 2296 -1510 2301  C -1510 2300 -1510 2300 -1510 2299 M-1510 2299 C -1507 2297 -1505 2296 -1502 2294  C -1511 2299 -1514 2308 -1520 2315  C -1522 2316 -1524 2318 -1527 2319  C -1528 2319 -1530 2318 -1531 2318  C -1543 2318 -1555 2319 -1567 2319 M-1567 2319 C -1578 2320 -1589 2323 -1600 2327 M-1600 2327 C -1606 2321 -1605 2313 -1598 2309 M-1599 2309 C -1604 2309 -1609 2310 -1614 2310  C -1604 2309 -1595 2309 -1584 2309  C -1593 2309 -1603 2310 -1612 2310  C -1610 2316 -1608 2322 -1606 2329  C -1608 2328 -1609 2328 -1610 2327 M-1610 2327 C -1620 2328 -1630 2327 -1640 2328  C -1649 2332 -1657 2337 -1663 2345 M-1663 2345 C -1663 2345 -1663 2346 -1663 2347 M-1663 2347 C -1663 2346 -1663 2346 -1663 2345  C -1665 2345 -1667 2345 -1669 2346  C -1674 2355 -1679 2365 -1683 2374  C -1685 2374 -1687 2375 -1689 2375 M-1689 2375 C -1688 2383 -1688 2391 -1687 2399  C -1688 2400 -1688 2401 -1688 2402 M-1688 2402 C -1683 2398 -1678 2393 -1674 2389  C -1684 2392 -1694 2395 -1704 2398 M-1704 2398 C -1685 2397 -1665 2395 -1645 2394 M-1645 2394 C -1647 2405 -1651 2416 -1650 2428  C -1643 2427 -1639 2432 -1633 2436  C -1634 2435 -1635 2434 -1635 2433 Z"/>
</svg>