<svg height="792" width="612" xmlns="http://www.w3.org/2000/svg"><path d="M147 603 C 152 603 157 602 163 602  C 175 601 188 600 200 599  C 217 598 233 597 250 596  C 256 595 261 595 267 595  C 284 594 302 593 319 592  C 339 590 358 589 378 588  C 400 586 421 584 443 583  C 455 582 468 581 480 581  C 497 579 513 578 530 577  C 537 576 543 576 550 576  C 557 575 564 575 572 574  C 572 566 572 558 572 550  C 551 551 531 553 510 554  C 498 555 486 556 474 557  C 462 557 449 559 437 560  C 432 560 427 560 422 561  C 409 561 397 562 384 563  C 367 564 351 565 334 566  C 329 567 324 567 319 567  C 306 568 294 569 281 569  C 264 571 248 572 231 573  C 226 574 221 574 216 574  C 203 575 191 576 178 576  C 167 577 157 578 145 579  C 146 587 146 595 147 603 Z"/>
<path d="M20 196 C 30 230 40 264 50 298  C 61 333 71 369 82 405  C 86 420 91 435 95 451  C 97 456 98 462 100 468  C 104 481 108 494 112 507  C 120 533 128 560 136 587  C 137 593 139 599 141 605  C 141 606 141 607 141 609 Z"/>
<path d="M409 255 C 401 253 392 250 384 249  C 378 248 372 247 366 247  C 347 246 328 245 310 244  C 299 244 288 244 278 242  C 270 240 263 240 256 240  C 248 239 243 243 237 247  C 230 252 223 256 216 259  C 205 262 195 264 185 267  C 179 269 174 273 168 276  C 161 280 153 284 146 287  C 141 290 138 294 136 299  C 131 308 126 318 120 328  C 113 338 110 351 104 362  C 102 368 99 374 96 380 Z"/>
<path d="M568 469 C 561 468 553 468 546 467  C 537 465 529 462 520 460  C 518 459 514 461 511 462  C 501 465 492 468 482 469  C 474 470 469 475 463 479  C 447 490 431 500 416 510  C 403 513 393 520 381 525  C 372 528 360 525 353 519  C 348 513 348 505 355 500  C 359 498 363 494 368 491  C 371 492 374 492 378 494  C 382 495 383 498 380 502  C 376 507 371 513 367 517  C 359 518 355 513 351 510 Z"/>
<path d="M-74 434 C -62 444 -50 453 -39 463  C -20 478 -1 493 18 509  C 31 519 44 530 57 541  C 76 557 96 572 115 588  C 123 594 131 601 139 608  C 140 609 141 610 143 611 Z"/>
<path d="M480 366 C 475 366 471 365 466 366  C 460 366 455 368 449 369  C 438 370 427 373 416 377  C 411 378 405 380 400 382  C 391 385 383 390 377 397  C 369 407 361 417 352 426  C 342 437 335 451 327 463  C 326 464 325 465 324 466 Z"/>
<path d="M541 214 C 534 214 527 217 521 220  C 501 228 480 235 459 239  C 451 241 442 241 433 243  C 423 244 414 246 406 254 Z"/>
<path d="M561 323 C 559 322 557 321 555 321  C 544 319 533 317 522 315  C 509 312 495 307 480 308  C 477 309 473 307 470 307  C 461 306 454 308 448 313  C 440 319 434 326 426 332  C 421 337 414 340 408 344  C 396 350 385 356 373 362  C 364 366 356 371 347 375  C 338 379 331 385 326 393  C 317 408 303 418 290 429  C 285 433 280 437 275 442  C 273 443 272 444 269 444  C 257 444 245 445 233 446  C 228 446 220 441 217 435  C 229 434 240 434 252 433  C 252 433 252 432 252 432  C 246 427 240 422 231 422  C 221 423 211 423 201 424  C 201 424 200 424 199 425 Z"/>
<path d="M323 315 C 318 318 313 322 307 324  C 301 327 295 328 288 329  C 280 331 273 331 267 338  C 261 343 254 347 246 350  C 236 356 227 362 219 371  C 213 378 206 385 198 389  C 189 393 186 403 179 410  C 179 410 179 410 179 411 Z"/>
<path d="M426 438 C 419 438 414 442 409 446  C 391 462 371 475 355 493  C 348 501 341 509 333 516  C 331 519 328 521 325 522  C 320 525 315 523 310 521  C 308 521 307 520 305 520 Z"/>
<path d="M190 330 C 184 330 177 331 171 331  C 169 331 168 332 167 334  C 160 339 156 347 151 354  C 148 361 145 367 140 373  C 137 375 136 379 134 383  C 131 392 128 401 125 410  C 123 416 118 420 115 425 Z"/>
<path d="M354 332 C 347 336 341 339 337 346  C 335 348 334 350 334 353  C 332 360 326 363 320 365  C 314 367 308 370 303 373  C 291 380 279 388 269 398  C 260 408 259 427 268 437  C 270 439 273 440 275 441 Z"/>
<path d="M250 282 C 241 288 231 293 223 300  C 213 307 205 316 197 324  C 187 334 181 347 172 358  C 165 368 156 378 149 388  C 146 391 143 395 141 399  C 141 400 141 401 141 402 Z"/>
<path d="M304 417 C 303 415 302 413 302 411  C 298 401 293 399 284 402  C 281 403 277 404 274 406  C 271 407 269 411 270 415  C 272 423 274 430 281 436 Z"/>
<path d="M100 464 C 110 463 119 463 130 462  C 129 461 128 460 128 459  C 128 458 127 459 127 459  C 118 450 108 450 97 453 Z"/>
<path d="M491 409 C 486 411 482 413 477 415  C 467 418 456 421 446 426  C 437 430 429 435 423 443  C 414 453 402 460 392 469  C 384 476 376 483 368 491 Z"/>
<path d="M181 268 C 175 266 171 270 166 271  C 158 272 149 274 141 277  C 137 278 133 279 130 283  C 128 286 125 288 121 290  C 113 294 106 300 98 305  C 95 306 93 307 91 309  C 89 310 86 312 84 314  C 80 318 76 321 70 321 Z"/>
<path d="M150 504 C 151 503 152 503 153 503  C 162 502 171 502 181 501  C 190 501 197 504 203 512  C 203 513 205 513 206 514  C 212 514 216 519 221 522  C 221 522 221 523 221 524  C 210 525 198 525 187 526  C 187 526 186 527 186 527  C 192 532 197 536 204 538 Z"/>
<path d="M130 463 C 137 465 144 468 148 474  C 149 475 151 475 152 476  C 158 478 162 481 166 485  C 166 485 166 486 166 486  C 154 487 143 487 131 488  C 131 488 131 489 131 489  C 135 492 139 495 143 498  C 144 499 144 499 145 499  C 158 498 171 498 183 497 Z"/>
<path d="M325 467 C 319 476 312 485 304 494  C 300 497 296 502 296 508  C 295 515 301 519 307 516  C 313 513 318 508 322 503  C 325 498 325 493 324 487  C 321 486 318 485 315 484 Z"/>
<path d="M216 469 C 209 467 203 463 198 458  C 198 458 198 457 198 457  C 210 456 222 456 234 455  C 234 455 234 454 234 454  C 227 449 221 443 212 444  C 203 445 193 445 183 446  C 183 446 182 446 181 447 Z"/>
<path d="M167 449 C 165 446 162 444 160 442  C 156 439 152 438 147 439  C 138 440 130 440 122 440  C 120 440 118 441 116 441 Z"/>
<path d="M235 419 C 234 418 232 418 231 417  C 225 412 219 409 211 409  C 200 410 189 411 179 411  C 169 420 164 432 150 434  C 146 434 143 434 139 434 Z"/>
<path d="M217 441 C 216 441 214 440 214 440  C 206 433 198 430 188 432  C 180 432 171 433 163 433 Z"/>
<path d="M171 477 C 173 478 175 480 177 482  C 181 486 186 487 191 486  C 201 485 211 485 222 484 Z"/>
<path d="M159 432 C 161 433 163 434 164 436  C 171 443 180 443 189 443  C 196 442 204 442 212 442  C 212 442 213 441 214 441 Z"/>
<path d="M180 412 C 183 414 187 417 191 420  C 192 420 192 421 193 421  C 206 420 219 420 232 419 Z"/>
<path d="M250 531 C 251 532 251 533 252 533  C 257 536 261 540 266 541  C 269 542 271 546 274 548  C 279 552 284 553 291 552  C 298 551 307 551 315 551  C 316 551 318 550 320 550 Z"/>
<path d="M148 474 C 138 475 129 475 119 476  C 117 476 115 476 113 476  C 118 482 124 486 131 488 Z"/>
<path d="M240 536 C 230 537 221 537 211 538  C 209 538 207 538 204 538  C 205 539 206 541 207 542  C 213 547 221 549 230 549  C 239 548 249 548 259 547 Z"/>
<path d="M203 512 C 193 513 184 513 174 514  C 172 514 170 514 168 514  C 173 520 179 524 186 526 Z"/>
<path d="M125 289 C 120 298 116 308 111 317  C 107 326 102 334 100 343  C 98 354 95 365 95 377  C 95 382 95 385 92 389  C 91 391 91 394 91 396 Z"/>
<path d="M195 494 C 202 501 210 504 221 502  C 224 501 228 502 232 501  C 234 501 237 500 239 500  C 239 499 239 499 240 499  C 241 501 243 503 245 505 Z"/>
<path d="M91 426 C 93 426 96 427 98 428  C 99 429 100 430 101 431  C 107 435 113 438 121 436  C 124 435 129 436 133 436  C 135 435 136 435 138 435 Z"/>
<path d="M129 428 C 137 426 142 421 147 414  C 150 410 149 403 146 399  C 136 405 131 415 124 425  C 118 425 111 426 104 426  C 102 426 100 427 98 428 Z"/>
<path d="M91 418 C 98 415 103 409 103 402  C 103 400 103 397 102 395  C 102 393 101 391 100 391  C 99 390 96 391 95 392  C 93 396 91 400 89 404  C 88 406 87 407 87 409 Z"/>
<path d="M305 327 C 305 327 305 328 306 329  C 312 332 314 338 315 345  C 315 346 315 347 316 348  C 318 353 320 357 319 363  C 318 363 319 364 319 365 Z"/>
<path d="M236 496 C 233 494 233 492 235 490  C 240 485 244 481 249 477  C 251 475 254 473 257 472  C 263 470 267 474 266 479  C 264 488 258 496 251 501  C 249 503 247 503 245 504 Z"/>
<path d="M85 312 C 79 312 74 315 70 320  C 67 323 68 327 72 329  C 80 335 89 336 99 333  C 100 332 101 332 103 332 Z"/>
<path d="M233 491 C 221 492 208 492 196 493  C 195 493 193 493 192 493 Z"/>
<path d="M204 473 C 203 472 203 470 202 470  C 198 467 194 463 188 462  C 186 461 184 458 182 457  C 177 454 173 451 169 449  C 163 450 159 450 155 451  C 148 451 141 452 134 452  C 130 452 127 450 124 448  C 120 446 116 443 112 441 Z"/>
<path d="M302 540 C 293 540 284 541 275 541  C 273 541 271 542 269 542 Z"/>
<path d="M323 551 C 321 549 318 547 316 546  C 312 544 308 542 305 540  C 302 538 299 535 296 533  C 291 528 285 527 278 528  C 270 529 262 529 255 529  C 253 529 252 530 249 530  C 243 527 236 525 232 518  C 231 517 230 517 229 517  C 222 516 218 511 213 507 Z"/>
<path d="M225 485 C 222 483 220 481 217 479  C 213 477 209 475 206 473  C 200 474 196 474 192 474  C 185 475 178 476 171 476  C 169 476 167 475 166 474  C 161 472 155 470 153 464 Z"/>
<path d="M265 516 C 256 516 247 517 238 517  C 236 517 234 518 232 518 Z"/>
<path d="M186 461 C 181 462 177 462 172 463  C 166 463 159 463 153 464  C 151 464 149 463 148 463  C 143 460 137 458 134 453 Z"/>
<path d="M271 445 C 264 453 256 461 250 467  C 238 468 228 468 218 469  C 217 469 217 470 217 470  C 221 475 226 478 232 480  C 234 480 236 480 238 480 Z"/>
<path d="M192 427 C 183 427 174 428 165 428 Z"/>
<path d="M244 505 C 233 505 221 506 210 507 Z"/>
<path d="M271 444 C 265 439 259 435 252 434 Z"/>
<path d="M258 508 C 264 514 273 517 280 523  C 281 524 282 526 284 527 Z"/>
<path d="M222 525 C 229 527 236 530 240 536  C 241 537 244 537 246 538  C 250 541 254 544 258 547 Z"/>
<path d="M175 417 C 182 417 186 422 192 426  C 193 426 194 427 195 428 Z"/>
<path d="M187 497 C 185 496 183 495 182 494  C 177 491 173 487 167 487 Z"/>
<path d="M179 446 C 181 448 183 449 185 451  C 189 454 193 456 198 457 Z"/>
<path d="M196 424 C 198 425 200 426 202 428  C 206 431 211 434 216 435 Z"/>
<path d="M251 465 C 246 460 241 457 234 456 Z"/>
<path d="M334 335 C 329 338 322 341 321 348 Z"/>
<path d="M147 503 C 149 504 151 506 153 507  C 157 509 161 513 167 514 Z"/>
<path d="M247 469 C 245 472 243 475 241 478  C 238 481 235 484 236 489 Z"/>
<path d="M323 326 C 321 329 319 333 317 336 Z"/>
<path d="M126 425 C 128 430 133 431 138 434 Z"/>
<path d="M434 330 C 432 331 429 332 427 333 Z"/>
<path d="M315 310 C 314 312 314 314 314 316 Z"/>
<path d="M103 473 C 106 474 109 475 112 476 Z"/>
<path d="M237 492 C 236 495 235 497 238 499 Z"/>
</svg>