<svg height="1024" width="1024" xmlns="http://www.w3.org/2000/svg"><path d="M1024 512 C 512 511 640 754 512 1024 M512 1024 C 444 1441 672 1354 862 1509 M862 1509 C 891 1515 888 1498 897 1485 M897 1485 C 944 1437 896 1435 896 1389 M896 1389 C 837 1276 767 1346 723 1329 M723 1329 C 732 1263 681 1273 667 1254 M667 1254 C 674 1250 664 1231 670 1223 M670 1223 C 683 1289 729 1263 749 1276 M749 1276 C 795 1378 846 1318 898 1318 M898 1318 C 948 1301 915 1273 930 1250 M930 1250 C 940 1007 755 1158 697 997 M697 997 C 792 954 720 912 750 859 M750 859 C 814 800 737 793 755 724 M755 724 C 799 820 811 730 895 776 M895 776 C 968 832 970 764 1023 759 M1023 759 C 1079 832 1099 766 1152 776 M1152 776 C 1249 820 1257 737 1292 724 M1292 724 C 1232 789 1301 819 1298 859 M1298 859 C 1255 954 1337 934 1350 997 M1350 997 C 1107 1006 1232 1180 1116 1250 M1116 1250 C 1086 1314 1142 1297 1151 1344 M1151 1344 C 1080 1414 1151 1441 1150 1485 M1150 1485 C 1155 1515 1164 1506 1186 1509 M1186 1509 C 1603 1442 1448 1258 1536 1024 M1536 1024 C 1536 511 1293 640 1024 512  C 1024 512 1024 512 1024 512 Z"/>
</svg>