<?xml version="1.0" encoding="utf-8"?>
<!-- Generator: Adobe Illustrator 16.0.0, SVG Export Plug-In . SVG Version: 6.00 Build 0)  -->
<!DOCTYPE svg PUBLIC "-//W3C//DTD SVG 1.1//EN" "http://www.w3.org/Graphics/SVG/1.1/DTD/svg11.dtd">
<svg version="1.1" id="Layer_1" xmlns="http://www.w3.org/2000/svg" xmlns:xlink="http://www.w3.org/1999/xlink" x="0px" y="0px"
	 width="841.89px" height="595.28px" viewBox="0 0 841.89 595.28" enable-background="new 0 0 841.89 595.28" xml:space="preserve">
<path fill-rule="evenodd" clip-rule="evenodd" fill="none" stroke="#000000" stroke-width="2" stroke-linecap="round" stroke-linejoin="round" stroke-miterlimit="10" d="
	M257.04,513.641c3.44,1.76,6.865,3.55,10.323,5.273c6.148,3.063,12.362,5.998,18.465,9.148c7.568,3.907,14.949,8.188,22.603,11.913
	c6.406,3.116,13.125,5.581,19.634,8.497c3.744,1.677,7.472,3.296,11.524,4.101c0.477,0.094,0.81,0.907,1.21,1.387"/>
<path fill-rule="evenodd" clip-rule="evenodd" fill="none" stroke="#000000" stroke-width="2" stroke-linecap="round" stroke-linejoin="round" stroke-miterlimit="10" d="
	M425.04,41.32c2.8,0.8,5.769,1.248,8.358,2.487c3.448,1.649,6.807,3.646,9.839,5.969c6.348,4.863,12.594,9.899,17.55,16.274
	c2.632,3.384,5.134,6.87,7.691,10.311c0.172,0.231,0.472,0.487,0.459,0.718c-0.306,5.567,3.936,7.635,7.701,10.083
	c7.125,4.632,14.177,9.382,21.384,13.882c5.038,3.146,8.653,7.379,11.012,12.758c1.152,2.626,2.275,5.266,3.339,7.929
	c0.192,0.483,0.027,1.109,0.027,1.669"/>
<path fill-rule="evenodd" clip-rule="evenodd" fill="none" stroke="#000000" stroke-width="2" stroke-linecap="round" stroke-linejoin="round" stroke-miterlimit="10" d="
	M333.6,422.44c0.772,1.063,1.544,2.124,2.541,3.494c-2.918,4.228-5.52,9.061-9.12,12.975c-6.416,6.975-11.611,14.748-16.715,22.642
	c-2.156,3.335-4.271,6.729-6.772,9.796c-1.768,2.167-2.04,4.495-2.089,7.014c-0.172,8.8-0.326,17.6-0.484,26.4
	c-0.04,2.239,0.67,4.301,1.693,6.232c4.518,8.534,10.376,16.05,17.233,22.84c2.13,2.108,3.731,4.745,5.829,6.893
	c2.568,2.628,5.404,4.994,8.124,7.475"/>
<path fill-rule="evenodd" clip-rule="evenodd" fill="none" stroke="#000000" stroke-width="2" stroke-linecap="round" stroke-linejoin="round" stroke-miterlimit="10" d="
	M504.48,170.92c3.84,1.44,7.693,2.845,11.512,4.339c1.327,0.52,2.646,1.143,3.832,1.924c2.928,1.929,5.705,4.089,8.67,5.954
	c6.758,4.249,11.673,10.275,16.286,16.597c1.331,1.824,2.498,3.782,3.595,5.759c0.847,1.53,1.436,3.2,2.196,4.78
	c0.422,0.876,0.704,2.276,2.148,0.966"/>
<path fill-rule="evenodd" clip-rule="evenodd" fill="none" stroke="#000000" stroke-width="2" stroke-linecap="round" stroke-linejoin="round" stroke-miterlimit="10" d="
	M473.76,337.96c0,0.08,0.035,0.196-0.005,0.235c-6.52,6.282-9.137,14.877-13.081,22.623c-4.369,8.578-8.502,17.271-13.292,25.635
	c-3.077,5.373-5.815,10.941-8.937,16.287c-3.368,5.769-7.003,11.382-10.527,17.059c-0.948,1.527-1.918,3.042-2.878,4.562"/>
<path fill-rule="evenodd" clip-rule="evenodd" fill="none" stroke="#000000" stroke-width="2" stroke-linecap="round" stroke-linejoin="round" stroke-miterlimit="10" d="
	M465.6,471.88c2.881,3.44,5.806,6.844,8.631,10.328c5.81,7.162,13.123,12.666,20.154,18.49c2.572,2.129,5.072,4.365,7.431,6.727
	c2.894,2.898,6.226,4.974,10.104,6.216"/>
<path fill-rule="evenodd" clip-rule="evenodd" fill="none" stroke="#000000" stroke-width="2" stroke-linecap="round" stroke-linejoin="round" stroke-miterlimit="10" d="
	M339.6,84.521c-1.349,1.124-2.698,2.248-3.986,3.321c7,5.247,14.167,9.883,20.443,15.513c7.396,6.633,14.022,14.126,20.983,21.245
	c0.633,0.647,1.182,1.465,1.946,1.869c0.754,0.398,1.732,0.372,2.613,0.532"/>
<path fill-rule="evenodd" clip-rule="evenodd" fill="none" stroke="#000000" stroke-width="2" stroke-linecap="round" stroke-linejoin="round" stroke-miterlimit="10" d="
	M550.8,252.521c-0.64,2.32-0.915,4.827-1.989,6.924c-3.113,6.079-6.45,12.125-11.274,17.013c-4.091,4.145-8.728,7.752-13.14,11.579
	c-2.059,1.785-4.075,3.634-6.259,5.254c-2.311,1.715-4.316,3.984-7.658,3.952c-1.355-0.013-2.782,0.75-4.066,1.384
	c-3.06,1.51-6.371,1.396-9.615,1.62c-2.469,0.172-4.958,0.034-7.438,0.034"/>
<path fill-rule="evenodd" clip-rule="evenodd" fill="none" stroke="#000000" stroke-width="2" stroke-linecap="round" stroke-linejoin="round" stroke-miterlimit="10" d="
	M378,37.96c0,0.32-0.098,0.88,0.014,0.925c5.365,2.184,8.268,7.299,12.68,10.629c6.819,5.148,13.191,10.936,20.274,15.673
	c5.505,3.682,9.434,8.691,13.764,13.394c1.326,1.44,1.445,3.625,0.048,5.443c-0.089,0.116-0.46,0.015-0.7,0.015"/>
<path fill-rule="evenodd" clip-rule="evenodd" fill="none" stroke="#000000" stroke-width="2" stroke-linecap="round" stroke-linejoin="round" stroke-miterlimit="10" d="
	M379.92,335.08c-2,0.16-4.002,0.293-5.999,0.493c-0.808,0.081-1.597,0.336-2.402,0.462c-2.638,0.414-5.267,0.965-7.922,1.168
	c-3.989,0.304-8.005,0.252-11.994,0.559c-2.257,0.173-4.479,0.782-6.725,1.15c-1.602,0.264-3.217,0.453-4.826,0.676
	c-0.082,0.21-0.165,0.421-0.247,0.631c2.091,1.567,4.201,3.11,6.271,4.706c5.69,4.387,11.457,8.682,17.016,13.229
	c5.089,4.163,10.011,8.537,14.878,12.959c2.171,1.972,4.271,4.116,5.958,6.498c1.547,2.186,3.554,2.583,5.831,2.572
	c6.721-0.03,13.446-0.342,20.158-0.155c4.81,0.134,9.612,0.816,14.396,1.418c1.516,0.19,2.821,0.442,3.872-0.985
	c0.217-0.295,0.773-0.34,1.174-0.5"/>
<path fill-rule="evenodd" clip-rule="evenodd" fill="none" stroke="#000000" stroke-width="2" stroke-linecap="round" stroke-linejoin="round" stroke-miterlimit="10" d="
	M213.36,416.681c-0.32,2-0.72,3.991-0.939,6.002c-0.251,2.31-0.424,4.636-0.487,6.958c-0.268,9.922-0.68,19.847,0.235,29.759
	c0.089,0.967,0.394,1.916,0.454,2.882c0.134,2.156,0.151,4.32,0.276,6.478c0.028,0.488,0.155,1.125,0.482,1.417
	c4.528,4.036,9.278,7.841,13.61,12.074c4.771,4.663,9.164,9.715,13.729,14.589c3.753,4.007,7.488,8.031,11.314,11.968
	c0.548,0.564,1.565,0.674,2.365,0.993"/>
<path fill-rule="evenodd" clip-rule="evenodd" fill="none" stroke="#000000" stroke-width="2" stroke-linecap="round" stroke-linejoin="round" stroke-miterlimit="10" d="
	M502.32,171.4c-2.801-0.4-5.594-1.075-8.401-1.141c-5.275-0.125-10.577,0.395-15.832,0.075c-3.366-0.205-6.82,1.883-10.104-0.348
	c-0.182-0.124-0.65,0.078-0.938,0.222c-4.77,2.407-9.508,4.799-13.234,8.844c-4.675,5.075-9.629,9.892-14.34,14.935
	c-1.86,1.992-3.453,4.247-5.055,6.463c-2.221,3.076-4.335,6.229-6.495,9.349"/>
<path fill-rule="evenodd" clip-rule="evenodd" fill="none" stroke="#000000" stroke-width="2" stroke-linecap="round" stroke-linejoin="round" stroke-miterlimit="10" d="
	M548.64,341.8c0.4,5.44,1.09,10.879,1.129,16.321c0.051,7.197-0.428,14.398-0.638,21.6c-0.069,2.397-0.011,4.8-0.011,7.199"/>
<path fill-rule="evenodd" clip-rule="evenodd" fill="none" stroke="#000000" stroke-width="2" stroke-linecap="round" stroke-linejoin="round" stroke-miterlimit="10" d="
	M168.72,253.96c0,0.32-0.114,0.86,0.017,0.928c3.982,2.063,5.889,6.126,8.858,9.158c5.858,5.981,11.725,11.957,17.511,18.008
	c3.834,4.009,7.532,8.148,11.295,12.226c1.382,1.497,2.776,2.983,4.161,4.472c1.059-0.421,1.929-0.766,2.798-1.111"/>
<path fill-rule="evenodd" clip-rule="evenodd" fill="none" stroke="#000000" stroke-width="2" stroke-linecap="round" stroke-linejoin="round" stroke-miterlimit="10" d="
	M255.12,382.12c2.4,3.04,4.709,6.157,7.217,9.105c6.91,8.123,13.849,16.222,20.887,24.233c3.135,3.567,6.539,6.897,9.813,10.344
	c0.896,0.944,1.762,1.918,2.643,2.878"/>
<path fill-rule="evenodd" clip-rule="evenodd" fill="none" stroke="#000000" stroke-width="2" stroke-linecap="round" stroke-linejoin="round" stroke-miterlimit="10" d="
	M169.68,424.601c2.099-1.012,3.15,0.82,4.183,1.38c0.236,1.77,0.611,3.198,0.587,4.619c-0.157,9.332-0.849,18.617-2.316,27.849
	c-0.36,2.264-0.064,4.632-0.05,6.952c0.009,1.416,0.756,1.966,2.156,1.937c2.719-0.057,5.441-0.079,8.159,0.001
	c2.722,0.08,5.462,0.139,8.156,0.497c5.167,0.689,10.248-0.235,15.366-0.495c1.033-0.053,2.079,0.203,3.119,0.203
	s2.08-0.143,3.12-0.223"/>
<path fill-rule="evenodd" clip-rule="evenodd" fill="none" stroke="#000000" stroke-width="2" stroke-linecap="round" stroke-linejoin="round" stroke-miterlimit="10" d="
	M506.4,168.04c-1.761,1.68-3.476,3.41-5.289,5.031c-4.913,4.391-8.581,9.842-12.675,14.919c-3.693,4.58-7.106,9.389-10.574,14.147
	c-0.793,1.088-1.312,2.379-1.939,3.585c-0.621,1.192,0.27,3.699,1.428,4.336c0.85,0.468,1.783,0.959,2.381,1.686
	c3.578,4.353,7.153,8.712,10.569,13.191c5.246,6.882,9.434,14.426,13.475,22.057c1.341,2.532,2.832,4.988,4.343,7.425
	c0.205,0.33,0.922,0.343,1.401,0.503c0-0.48,0-0.96,0-1.44"/>
<path fill-rule="evenodd" clip-rule="evenodd" fill="none" stroke="#000000" stroke-width="2" stroke-linecap="round" stroke-linejoin="round" stroke-miterlimit="10" d="
	M337.92,385.48c2.24,1.92,4.494,3.824,6.717,5.763c6.967,6.072,13.9,12.184,20.89,18.229c5.323,4.604,10.691,9.155,16.1,13.655
	c0.678,0.563,1.732,0.674,2.613,0.993"/>
<path fill-rule="evenodd" clip-rule="evenodd" fill="none" stroke="#000000" stroke-width="2" stroke-linecap="round" stroke-linejoin="round" stroke-miterlimit="10" d="
	M509.52,255.4c-0.96,2.16-1.866,4.345-2.89,6.475c-2.851,5.934-5.874,11.789-8.597,17.78c-3.024,6.654-5.754,13.442-8.687,20.139
	c-2.01,4.591-4.116,9.141-6.235,13.682c-1.877,4.021-3.831,8.005-5.751,12.005s-3.804,8.019-5.788,11.985
	c-0.449,0.896-1.104,1.942-1.936,2.317c-0.758,0.343-2.357,0.578-2.117-1.343"/>
<path fill-rule="evenodd" clip-rule="evenodd" fill="none" stroke="#000000" stroke-width="2" stroke-linecap="round" stroke-linejoin="round" stroke-miterlimit="10" d="
	M254.16,127c0.16,2.88,0.333,5.759,0.473,8.64c0.046,0.955,0.007,1.915,0.007,2.873c4.713,4.165,9.511,8.499,14.411,12.714
	c7.399,6.367,14.882,12.638,22.299,18.984c1.589,1.36,3.033,2.887,4.578,4.299c0.588,0.537,1.271,0.97,1.912,1.45"/>
<path fill-rule="evenodd" clip-rule="evenodd" fill="none" stroke="#000000" stroke-width="2" stroke-linecap="round" stroke-linejoin="round" stroke-miterlimit="10" d="
	M297.6,172.6c5.446,7.438,11.431,14.414,18.008,20.872c4.539,4.456,8.655,9.33,14.334,12.588c2.842,1.63,5.086,4.301,7.651,6.546
	c0.327-0.164,0.793-0.582,1.288-0.617c3.996-0.29,8.01-0.391,11.993-0.792c2.424-0.244,4.808-0.899,7.203-1.403
	c1.426-0.3,2.671-0.143,4.125,0.363c1.57,0.546,3.483,0.031,5.235,0.152c1.45,0.1,2.882,0.451,4.322,0.691"/>
<path fill-rule="evenodd" clip-rule="evenodd" fill="none" stroke="#000000" stroke-width="2" stroke-linecap="round" stroke-linejoin="round" stroke-miterlimit="10" d="
	M245.28,126.76c-7.2,8.88-14.546,17.646-21.54,26.686c-3.697,4.779-6.775,10.037-10.147,15.069
	c-0.346,0.517-0.792,0.965-1.193,1.445"/>
<path fill-rule="evenodd" clip-rule="evenodd" fill="none" stroke="#000000" stroke-width="2" stroke-linecap="round" stroke-linejoin="round" stroke-miterlimit="10" d="
	M513.6,297.16c2.961,3.04,5.938,6.063,8.877,9.123c9.449,9.832,18.914,19.648,28.277,29.561c0.981,1.038,1.326,2.677,1.966,4.036"/>
<path fill-rule="evenodd" clip-rule="evenodd" fill="none" stroke="#000000" stroke-width="2" stroke-linecap="round" stroke-linejoin="round" stroke-miterlimit="10" d="
	M550.32,430.12c-1.098-0.66-1.871-0.85-2.93,0.44c-4.605,5.613-9.534,10.965-14.073,16.63c-5.281,6.591-10.251,13.431-15.424,20.109
	c-0.854,1.104-2.054,1.94-3.094,2.9"/>
<path fill-rule="evenodd" clip-rule="evenodd" fill="none" stroke="#000000" stroke-width="2" stroke-linecap="round" stroke-linejoin="round" stroke-miterlimit="10" d="
	M251.52,171.16c-6.16,5.52-12.475,10.879-18.431,16.611c-4.725,4.546-8.911,9.646-13.523,14.315c-3.1,3.138-6.562,5.915-9.795,8.926
	c-2.773,2.583-5.474,5.245-8.166,7.913c-4.419,4.381-9.053,8.578-13.139,13.252c-4.606,5.27-8.706,10.982-13.026,16.502"/>
<path fill-rule="evenodd" clip-rule="evenodd" fill="none" stroke="#000000" stroke-width="2" stroke-linecap="round" stroke-linejoin="round" stroke-miterlimit="10" d="
	M507.12,300.521c0.16,3.199,0.373,6.398,0.47,9.6c0.27,8.88,0.073,17.801,0.936,26.62c0.345,3.526,0.615,7.045,0.75,10.58
	c0.18,4.72,0.42,9.439,0.458,14.16c0.04,4.799-0.146,9.6-0.201,14.4c-0.009,0.799,0.208,1.599,0.218,2.399
	c0.052,4.262,0.151,8.491,0.862,12.738c0.426,2.542-0.291,5.26-0.357,7.902c-0.201,7.999-0.257,16.002-0.522,23.998
	c-0.175,5.285-0.968,10.57-0.838,15.839c0.146,5.851,1.241,11.672,1.516,17.525c0.215,4.563,1.852,9.043,0.823,13.685
	c-0.094,0.424,0.148,1.231,0.468,1.39c3.836,1.907,5.494,5.885,8.374,8.688c4.258,4.143,8.486,8.314,12.725,12.476
	c4.562,4.479,9.081,9,13.699,13.42c1.802,1.724,3.821,3.22,5.741,4.82"/>
<path fill-rule="evenodd" clip-rule="evenodd" fill="none" stroke="#000000" stroke-width="2" stroke-linecap="round" stroke-linejoin="round" stroke-miterlimit="10" d="
	M300.72,369.641c-1.897,3.966-1.161,8.338-1.701,11.996c1.313,2.35,2.327,4.512,3.647,6.466c3.927,5.81,7.699,11.756,12.045,17.241
	c5.136,6.481,10.805,12.54,16.261,18.766c0.219,0.249,0.627,0.331,0.947,0.491"/>
<path fill-rule="evenodd" clip-rule="evenodd" fill="none" stroke="#000000" stroke-width="2" stroke-linecap="round" stroke-linejoin="round" stroke-miterlimit="10" d="
	M297.12,254.68c2.179,10.895,0.75,21.922,1.239,32.878c0.144,3.211,0.761,6.402,1.161,9.602"/>
<path fill-rule="evenodd" clip-rule="evenodd" fill="none" stroke="#000000" stroke-width="2" stroke-linecap="round" stroke-linejoin="round" stroke-miterlimit="10" d="
	M212.64,381.4c1.354-0.854,2.389-0.145,3.356,0.724c4.088,3.671,8.244,7.271,12.227,11.054c8.534,8.104,16.979,16.301,25.451,24.469
	c0.366,0.353,0.917,0.791,0.92,1.194c0.018,2.079-0.013,4.172-0.257,6.232c-0.072,0.608-0.9,1.125-1.376,1.688
	c-0.404,0.477-0.801,0.96-1.201,1.439"/>
<path fill-rule="evenodd" clip-rule="evenodd" fill="none" stroke="#000000" stroke-width="2" stroke-linecap="round" stroke-linejoin="round" stroke-miterlimit="10" d="
	M510.48,127c-0.985-0.196-1.971-0.392-3.553-0.707c1.016,4.213,1.791,8.018,2.865,11.737c1.443,4.999,3.565,9.719,1.052,15.187
	c-1.624,3.535-2.045,7.623-3.005,11.462"/>
<path fill-rule="evenodd" clip-rule="evenodd" fill="none" stroke="#000000" stroke-width="2" stroke-linecap="round" stroke-linejoin="round" stroke-miterlimit="10" d="
	M427.2,420.28c-1.92,0.24-3.929,0.2-5.743,0.773c-5.021,1.588-10.193,1.999-15.378,2.323c-4.393,0.274-8.797,0.389-13.199,0.487
	c-2.958,0.066-4.783-0.719-6.881-2.783c0.415-0.207,0.768-0.384,1.122-0.561"/>
<path fill-rule="evenodd" clip-rule="evenodd" fill="none" stroke="#000000" stroke-width="2" stroke-linecap="round" stroke-linejoin="round" stroke-miterlimit="10" d="
	M342,217.96c0.16,2.96,0.406,5.918,0.463,8.88c0.134,6.959,0.005,13.928,0.325,20.877c0.178,3.871-1.312,7.051-3.243,10.047
	c-2.161,3.354-4.652,6.511-7.167,9.617c-3.429,4.234-6.831,8.516-10.58,12.458c-6.001,6.311-12.23,12.408-18.469,18.488
	c-1.665,1.623-2.237,3.165-1.992,5.563c0.389,3.801-0.059,7.678,0.136,11.508c0.461,9.035-1.391,17.909-1.69,26.883
	c-0.197,5.916-0.2,11.839-0.256,17.759c-0.035,3.68-0.006,7.36-0.006,11.04"/>
<path fill-rule="evenodd" clip-rule="evenodd" fill="none" stroke="#000000" stroke-width="2" stroke-linecap="round" stroke-linejoin="round" stroke-miterlimit="10" d="
	M468.48,343.96c-0.48,0.16-1.068,0.194-1.425,0.499c-6.808,5.813-13.865,11.332-19.977,17.943
	c-3.373,3.65-7.174,6.903-10.754,10.364c-1.951,1.887-3.832,3.847-5.771,5.748c-1.01,0.991-0.991,1.89-0.001,2.892
	c4.095,4.146,8.166,8.314,12.246,12.474"/>
<path fill-rule="evenodd" clip-rule="evenodd" fill="none" stroke="#000000" stroke-width="2" stroke-linecap="round" stroke-linejoin="round" stroke-miterlimit="10" d="
	M253.2,427c-0.08,4.4-0.193,8.8-0.231,13.2c-0.041,4.72-0.069,9.441,0.011,14.16c0.058,3.441,0.314,6.879,0.452,10.32
	c0.047,1.191-0.063,2.433,1.688,2.399"/>
<path fill-rule="evenodd" clip-rule="evenodd" fill="none" stroke="#000000" stroke-width="2" stroke-linecap="round" stroke-linejoin="round" stroke-miterlimit="10" d="
	M339.12,384.28c-6.8-3.813-12.069-9.503-17.717-14.688c-6.665-6.118-12.996-12.601-19.498-18.897
	c-0.53-0.514-1.265-0.815-1.905-1.215"/>
<path fill-rule="evenodd" clip-rule="evenodd" fill="none" stroke="#000000" stroke-width="2" stroke-linecap="round" stroke-linejoin="round" stroke-miterlimit="10" d="
	M255.36,85.72c-2.219,2.486-1.762,5.727-2.364,8.647c-1.315,6.376-2.494,12.782-3.612,19.197c-0.61,3.497-0.983,7.036-1.463,10.556"
	/>
<path fill-rule="evenodd" clip-rule="evenodd" fill="none" stroke="#000000" stroke-width="2" stroke-linecap="round" stroke-linejoin="round" stroke-miterlimit="10" d="
	M424.8,84.521c0.08,0.56,0.236,1.121,0.228,1.68c-0.057,3.92-0.413,7.859-0.142,11.754c0.208,2.99,1.247,5.916,1.822,8.889
	c0.848,4.391,1.601,8.8,2.421,13.196c0.181,0.971,0.471,1.922,0.711,2.882"/>
<path fill-rule="evenodd" clip-rule="evenodd" fill="none" stroke="#000000" stroke-width="2" stroke-linecap="round" stroke-linejoin="round" stroke-miterlimit="10" d="
	M425.04,212.2c-0.48,2.48-0.711,5.042-1.5,7.42c-1.114,3.359-0.975,6.697-0.671,10.101c0.143,1.594,0.124,3.203,0.262,4.798
	c0.195,2.244,0.416,4.488,0.724,6.719c0.337,2.449,1.053,4.877,1.099,7.324c0.036,1.872-0.349,3.94-1.178,5.606
	c-3.144,6.315-5.656,13.056-10.311,18.464c-4.053,4.709-8.564,9.027-12.914,13.479c-1.7,1.739-3.48,3.403-5.29,5.028
	c-0.514,0.461-1.245,0.699-1.904,0.972c-0.865,0.358-1.948,0.431-2.604,1.006c-3.188,2.798-7.24,3.348-11.088,4.215
	c-4.816,1.085-9.72,1.964-14.632,2.378c-4.204,0.355-8.474-0.03-12.712-0.164c-2.642-0.083-5.286-0.246-7.919-0.479
	c-3.989-0.354-7.669-1.773-11.021-3.859c-5.003-3.113-9.246-7.159-13.221-11.487"/>
<path fill-rule="evenodd" clip-rule="evenodd" fill="none" stroke="#000000" stroke-width="2" stroke-linecap="round" stroke-linejoin="round" stroke-miterlimit="10" d="
	M511.68,471.641c-0.407,8.875-1.5,17.728-0.745,26.642c0.242,2.866,0.241,5.758,0.229,8.638c-0.004,0.801-0.444,1.601-0.684,2.4"/>
<path fill-rule="evenodd" clip-rule="evenodd" fill="none" stroke="#000000" stroke-width="2" stroke-linecap="round" stroke-linejoin="round" stroke-miterlimit="10" d="
	M467.28,422.92c0.16,2.48,0.427,4.959,0.458,7.44c0.069,5.6-0.103,11.203,0.056,16.799c0.167,5.845,0.612,11.681,0.921,17.521
	c0.067,1.281-0.293,2.611,0.274,3.826c0.225,0.481,0.771,0.813,1.171,1.214"/>
<path fill-rule="evenodd" clip-rule="evenodd" fill="none" stroke="#000000" stroke-width="2" stroke-linecap="round" stroke-linejoin="round" stroke-miterlimit="10" d="
	M253.92,344.92c0.56,3.601,1.39,7.183,1.622,10.804c0.44,6.867,0.577,13.756,0.749,20.638c0.04,1.595-0.291,3.199-0.451,4.799"/>
<path fill-rule="evenodd" clip-rule="evenodd" fill="none" stroke="#000000" stroke-width="2" stroke-linecap="round" stroke-linejoin="round" stroke-miterlimit="10" d="
	M190.8,386.44c4.001,8.036,8.198,15.947,13.396,23.311c2.415,3.42,4.349,7.179,6.538,10.761c0.379,0.621,0.946,1.129,1.426,1.688"/>
<path fill-rule="evenodd" clip-rule="evenodd" fill="none" stroke="#000000" stroke-width="2" stroke-linecap="round" stroke-linejoin="round" stroke-miterlimit="10" d="
	M214.08,302.92c-0.16,1.36-0.424,2.718-0.463,4.081c-0.198,6.959-0.464,13.92-0.434,20.879c0.012,2.722,0.727,5.441,1.142,8.159
	c0.123,0.806,0.314,1.602,0.474,2.401"/>
<path fill-rule="evenodd" clip-rule="evenodd" fill="none" stroke="#000000" stroke-width="2" stroke-linecap="round" stroke-linejoin="round" stroke-miterlimit="10" d="
	M124.56,345.16c-1.615,3.836-0.536,7.84-0.684,11.762c-0.16,4.233-0.005,8.479-0.044,12.719c-0.043,4.64,0.387,9.367-0.351,13.9
	c-1.264,7.764-0.742,15.539-1.005,23.302c-0.13,3.825,0.603,7.639,2.032,11.298c0.704,1.802,0.853,3.819,1.252,5.739"/>
<path fill-rule="evenodd" clip-rule="evenodd" fill="none" stroke="#000000" stroke-width="2" stroke-linecap="round" stroke-linejoin="round" stroke-miterlimit="10" d="
	M547.68,386.92c0.561,14.16,1.12,28.32,1.681,42.48"/>
<path fill-rule="evenodd" clip-rule="evenodd" fill="none" stroke="#000000" stroke-width="2" stroke-linecap="round" stroke-linejoin="round" stroke-miterlimit="10" d="
	M547.44,210.76c4.404,4.275,5.671,9.746,6.011,15.599c0.265,4.563,0.718,9.117,0.922,13.682c0.183,4.059,0.063,8.118-1.413,11.999"
	/>
<path fill-rule="evenodd" clip-rule="evenodd" fill="none" stroke="#000000" stroke-width="2" stroke-linecap="round" stroke-linejoin="round" stroke-miterlimit="10" d="
	M285.84,52.36c-4.16,4.32-8.375,8.588-12.466,12.973c-5.099,5.465-10.099,11.022-15.126,16.554
	c-0.536,0.589-1.089,1.215-1.425,1.924c-1.079,2.273-1.041,2.291-2.662,0.229"/>
<path fill-rule="evenodd" clip-rule="evenodd" fill="none" stroke="#000000" stroke-width="2" stroke-linecap="round" stroke-linejoin="round" stroke-miterlimit="10" d="
	M549.6,430.36c-0.16,0.88-0.486,1.767-0.453,2.639c0.273,7.202,0.577,14.403,0.946,21.601c0.254,4.963,0.724,9.917,0.917,14.882
	c0.152,3.914-0.123,7.846,0.063,11.758c0.371,7.845,0.904,15.683,1.427,23.52c0.112,1.688,0.461,3.361,0.701,5.041"/>
<path fill-rule="evenodd" clip-rule="evenodd" fill="none" stroke="#000000" stroke-width="2" stroke-linecap="round" stroke-linejoin="round" stroke-miterlimit="10" d="
	M169.92,256.36c-0.24,1.2-0.643,2.394-0.692,3.601c-0.224,5.438-0.341,10.879-0.515,16.319c-0.031,0.961-0.257,1.925-0.215,2.879
	c0.2,4.562,0.502,9.119,0.664,13.682c0.028,0.79-0.442,1.599-0.682,2.398"/>
<path fill-rule="evenodd" clip-rule="evenodd" fill="none" stroke="#000000" stroke-width="2" stroke-linecap="round" stroke-linejoin="round" stroke-miterlimit="10" d="
	M300.72,80.2c-1.585,2.25-3.735,2.354-6.25,1.984c-2.114-0.311-4.325-0.224-6.468-0.034c-6.248,0.555-12.478,1.313-18.725,1.867
	c-4.069,0.36-8.158,0.503-12.238,0.743"/>
<path fill-rule="evenodd" clip-rule="evenodd" fill="none" stroke="#000000" stroke-width="2" stroke-linecap="round" stroke-linejoin="round" stroke-miterlimit="10" d="
	M483.12,117.64c-0.24,0.48-0.354,1.194-0.74,1.402c-2.521,1.354-5.114,2.57-7.654,3.888c-1.649,0.854-2.003,2.791-0.711,4.297
	c2.509,2.924,5.156,5.729,7.655,8.662c5.154,6.05,10.225,12.172,15.397,18.207c0.763,0.889,1.893,1.463,2.853,2.184"/>
<path fill-rule="evenodd" clip-rule="evenodd" fill="none" stroke="#000000" stroke-width="2" stroke-linecap="round" stroke-linejoin="round" stroke-miterlimit="10" d="
	M467.04,296.92c-0.48,0.16-1.022,0.554-1.431,0.445c-8.38-2.243-16.46-5.241-23.247-10.817c-2.736-2.248-5.174-4.931-7.396-7.698
	c-0.868-1.082-1.324-2.617-0.997-4.523c0.359-2.096-0.686-4.469-1.267-6.683c-1.056-4.017-2.212-8.008-3.36-12
	c-0.104-0.359-0.462-0.646-0.702-0.965"/>
<path fill-rule="evenodd" clip-rule="evenodd" fill="none" stroke="#000000" stroke-width="2" stroke-linecap="round" stroke-linejoin="round" stroke-miterlimit="10" d="
	M256.08,384.761c-0.24,3.199-0.589,6.396-0.698,9.601c-0.233,6.877-0.33,13.76-0.521,20.639c-0.02,0.724-0.301,1.44-0.461,2.16"/>
<path fill-rule="evenodd" clip-rule="evenodd" fill="none" stroke="#000000" stroke-width="2" stroke-linecap="round" stroke-linejoin="round" stroke-miterlimit="10" d="
	M344.88,37c-0.96-0.32-1.923-0.923-2.879-0.912c-4.721,0.055-9.472-0.014-14.152,0.504c-6.033,0.667-12.006,1.858-18.009,2.801
	c-1.352,0.212-2.727,0.515-4.078,0.456c-6.522-0.281-10.541,4.247-15.121,7.712"/>
<path fill-rule="evenodd" clip-rule="evenodd" fill="none" stroke="#000000" stroke-width="2" stroke-linecap="round" stroke-linejoin="round" stroke-miterlimit="10" d="
	M443.28,394.36c6,6.16,12.052,12.271,17.978,18.501c2.85,2.997,5.479,6.205,8.163,9.355c0.378,0.442,0.499,1.104,0.739,1.663"/>
<path fill-rule="evenodd" clip-rule="evenodd" fill="none" stroke="#000000" stroke-width="2" stroke-linecap="round" stroke-linejoin="round" stroke-miterlimit="10" d="
	M172.8,344.2c-0.667,0.766-1.335,1.531-1.987,2.278c1.179,2.893,2.261,6.026,3.701,8.985c3.255,6.691,6.687,13.296,10.046,19.937
	c0.323,0.639,0.641,1.28,0.96,1.92"/>
<path fill-rule="evenodd" clip-rule="evenodd" fill="none" stroke="#000000" stroke-width="2" stroke-linecap="round" stroke-linejoin="round" stroke-miterlimit="10" d="
	M242.16,437.8c-4.08,4.16-8.16,8.32-12.24,12.48c-4.16,4.24-8.34,8.461-12.464,12.735c-0.905,0.938-1.616,2.064-2.416,3.104"/>
<path fill-rule="evenodd" clip-rule="evenodd" fill="none" stroke="#000000" stroke-width="2" stroke-linecap="round" stroke-linejoin="round" stroke-miterlimit="10" d="
	M420.72,36.76c-3.36-0.16-6.721-0.471-10.08-0.447c-6,0.042-11.999,0.354-18,0.43c-7.04,0.089-14.022,1.313-21.133,0.36
	c-5.129-0.687-10.386-0.485-15.587-0.552c-2.078-0.026-4.176,0.184-6.23,0.508c-0.699,0.111-1.29,0.902-1.93,1.382"/>
<path fill-rule="evenodd" clip-rule="evenodd" fill="none" stroke="#000000" stroke-width="2" stroke-linecap="round" stroke-linejoin="round" stroke-miterlimit="10" d="
	M299.04,382.84c-0.08,0.641-0.222,1.279-0.231,1.921c-0.172,12.56-0.408,25.119-0.464,37.68c-0.044,9.92,0.25,19.841,0.167,29.76
	c-0.042,4.962-0.633,9.918-0.88,14.882c-0.056,1.109,0.431,2.239,0.425,3.358c-0.038,8.24-0.073,16.481-0.244,24.72
	c-0.088,4.243-0.456,8.48-0.69,12.721c-0.026,0.481-0.003,0.965-0.003,1.68c1.593,0,2.957,0,4.32,0"/>
<path fill-rule="evenodd" clip-rule="evenodd" fill="none" stroke="#000000" stroke-width="2" stroke-linecap="round" stroke-linejoin="round" stroke-miterlimit="10" d="
	M211.92,379.24c0.4,5.6,0.862,11.196,1.183,16.801c0.32,5.596,0.498,11.199,0.737,16.799"/>
<path fill-rule="evenodd" clip-rule="evenodd" fill="none" stroke="#000000" stroke-width="2" stroke-linecap="round" stroke-linejoin="round" stroke-miterlimit="10" d="
	M292.32,74.68c-3.44,0.64-6.861,1.417-10.324,1.89c-6.113,0.836-11.302,4.18-17.023,6.069c-0.576,0.19-0.973,0.921-1.453,1.401"/>
<path fill-rule="evenodd" clip-rule="evenodd" fill="none" stroke="#000000" stroke-width="2" stroke-linecap="round" stroke-linejoin="round" stroke-miterlimit="10" d="
	M422.64,236.92c-2.479-3.2-5.081-6.314-7.412-9.62c-3.683-5.222-8.664-8.788-14.188-11.741c-2.294-1.227-4.415-2.8-7.195-2.966
	c-0.517-0.031-0.965-1.193-1.445-1.833"/>
<path fill-rule="evenodd" clip-rule="evenodd" fill="none" stroke="#000000" stroke-width="2" stroke-linecap="round" stroke-linejoin="round" stroke-miterlimit="10" d="
	M476.4,209.8c-0.24,0.16-0.482,0.462-0.72,0.458c-3.121-0.048-6.24-0.14-9.36-0.218c-3.28-0.082-6.563-0.291-9.84-0.211
	c-5.442,0.132-10.881,0.451-16.32,0.691"/>
<path fill-rule="evenodd" clip-rule="evenodd" fill="none" stroke="#000000" stroke-width="2" stroke-linecap="round" stroke-linejoin="round" stroke-miterlimit="10" d="
	M255.6,209.08c-3.538,2.242-4.62,5.659-4.556,9.6c0.147,9.12,0.212,18.243,0.509,27.359c0.237,7.285,0.838,14.558,1.148,21.842
	c0.327,7.676,0.478,15.36,0.753,23.039c0.076,2.123,0.32,4.239,0.487,6.362c0.54,0.039,1.1,0.078,1.66,0.118"/>
<path fill-rule="evenodd" clip-rule="evenodd" fill="none" stroke="#000000" stroke-width="2" stroke-linecap="round" stroke-linejoin="round" stroke-miterlimit="10" d="
	M323.28,231.88c-5.2,4.88-10.375,9.787-15.611,14.628c-2.414,2.231-4.885,4.412-7.454,6.46c-1.418,1.13-3.006,1.67-5.039,1.075
	c-1.885-0.552-3.976-0.404-5.976-0.563"/>
<path fill-rule="evenodd" clip-rule="evenodd" fill="none" stroke="#000000" stroke-width="2" stroke-linecap="round" stroke-linejoin="round" stroke-miterlimit="10" d="
	M167.28,383.561c-1.466,3.58-0.959,7.347-0.917,11.039c0.043,3.683,0.464,7.359,0.67,11.041c0.268,4.799,0.511,9.599,0.701,14.4
	c0.028,0.713-0.294,1.439-0.454,2.159"/>
<path fill-rule="evenodd" clip-rule="evenodd" fill="none" stroke="#000000" stroke-width="2" stroke-linecap="round" stroke-linejoin="round" stroke-miterlimit="10" d="
	M149.52,318.28c-6.988,8.653-14.102,17.197-21.84,25.2"/>
<path fill-rule="evenodd" clip-rule="evenodd" fill="none" stroke="#000000" stroke-width="2" stroke-linecap="round" stroke-linejoin="round" stroke-miterlimit="10" d="
	M254.16,467.32c-0.24,3.68-0.553,7.357-0.685,11.041c-0.054,1.513,0.373,3.036,0.429,4.56c0.273,7.358,0.499,14.72,0.733,22.079
	c0.092,2.88,0.202,5.761,0.207,8.641c0.001,0.56-0.445,1.12-0.685,1.68"/>
<path fill-rule="evenodd" clip-rule="evenodd" fill="none" stroke="#000000" stroke-width="2" stroke-linecap="round" stroke-linejoin="round" stroke-miterlimit="10" d="
	M506.4,128.2c-1.34,2.767-0.732,5.747-0.995,8.637c-0.523,5.771-1.245,11.523-1.886,17.283"/>
<path fill-rule="evenodd" clip-rule="evenodd" fill="none" stroke="#000000" stroke-width="2" stroke-linecap="round" stroke-linejoin="round" stroke-miterlimit="10" d="
	M416.16,329.561c0.32-0.4,0.639-1.146,0.96-1.147c3.36-0.006,6.727,0.007,10.076,0.238c1.302,0.09,2.545,0.835,3.849,1.126
	c1.474,0.33,2.933,0.494,4.119,1.657c0.447,0.439,1.411,0.316,2.113,0.534c3.286,1.021,6.583,2.015,9.826,3.158
	c0.674,0.238,1.137,1.073,1.696,1.634"/>
<path fill-rule="evenodd" clip-rule="evenodd" fill="none" stroke="#000000" stroke-width="2" stroke-linecap="round" stroke-linejoin="round" stroke-miterlimit="10" d="
	M465.84,341.32c-2.56,0-5.121,0.037-7.679-0.032c-0.486-0.014-1.123-0.324-1.415-0.707c-2.145-2.807-5.081-3.689-8.426-3.571
	c-3.281,0.116-6.56,0.335-9.841,0.465c-3.979,0.157-8.044-0.473-11.795,1.621c-0.542,0.303-1.908,0.021-2.301-0.467
	c-1.234-1.532-2.935-2.001-4.624-2.589"/>
<path fill-rule="evenodd" clip-rule="evenodd" fill="none" stroke="#000000" stroke-width="2" stroke-linecap="round" stroke-linejoin="round" stroke-miterlimit="10" d="
	M413.28,330.761c-2.64-0.08-5.295-0.375-7.917-0.191c-4.252,0.298-8.498,0.815-12.712,1.464c-0.956,0.146-1.771,1.207-2.651,1.847"
	/>
<path fill-rule="evenodd" clip-rule="evenodd" fill="none" stroke="#000000" stroke-width="2" stroke-linecap="round" stroke-linejoin="round" stroke-miterlimit="10" d="
	M188.88,321.641c-3.52,3.6-7,7.239-10.573,10.786c-2.49,2.471-4.949,5.021-7.727,7.135c-1.638,1.247-2.072,2.617-2.097,4.398
	c-0.016,1.2-0.003,2.4-0.003,3.921c0.85-0.567,1.385-0.924,1.92-1.28"/>
<path fill-rule="evenodd" clip-rule="evenodd" fill="none" stroke="#000000" stroke-width="2" stroke-linecap="round" stroke-linejoin="round" stroke-miterlimit="10" d="
	M126.24,423.88c4.88-2.8,9.688-5.739,14.689-8.303c1.268-0.648,3.21-0.375,4.739-0.045c4.511,0.974,9.07,1.9,13.421,3.395
	c3.836,1.316,7.809,2.557,11.07,5.193"/>
<path fill-rule="evenodd" clip-rule="evenodd" fill="none" stroke="#000000" stroke-width="2" stroke-linecap="round" stroke-linejoin="round" stroke-miterlimit="10" d="
	M211.44,298.84c-0.8,0.881-1.566,1.794-2.405,2.635c-6.23,6.25-12.475,12.485-18.715,18.726"/>
<path fill-rule="evenodd" clip-rule="evenodd" fill="none" stroke="#000000" stroke-width="2" stroke-linecap="round" stroke-linejoin="round" stroke-miterlimit="10" d="
	M281.28,226.36c-1.68,1.76-3.256,3.635-5.059,5.259c-6.271,5.654-12.64,11.199-18.919,16.845c-0.888,0.798-1.482,1.921-2.55,3.343
	c10.545,1.377,20.555,1.865,30.608,1.673"/>
<path fill-rule="evenodd" clip-rule="evenodd" fill="none" stroke="#000000" stroke-width="2" stroke-linecap="round" stroke-linejoin="round" stroke-miterlimit="10" d="
	M253.68,300.521c-6.32,5.84-12.783,11.535-18.914,17.567c-4.635,4.561-8.809,9.588-13.264,14.336
	c-1.895,2.019-4.063,3.781-5.946,5.811c-0.854,0.921-1.8,2.172-1.88,3.331c-0.675,9.751-1.324,19.504-0.128,29.281
	c0.406,3.32,0.212,6.714,0.292,10.073"/>
<path fill-rule="evenodd" clip-rule="evenodd" fill="none" stroke="#000000" stroke-width="2" stroke-linecap="round" stroke-linejoin="round" stroke-miterlimit="10" d="
	M211.68,169.72c1.697,1.179,0.334,2.756,0.377,4.083c0.067,2.067-0.739,4.149-0.821,6.238c-0.26,6.636-0.286,13.282-0.552,19.917
	c-0.106,2.648-0.662,5.276-0.89,7.924c-0.067,0.78,0.285,1.597,0.445,2.397"/>
<path fill-rule="evenodd" clip-rule="evenodd" fill="none" stroke="#000000" stroke-width="2" stroke-linecap="round" stroke-linejoin="round" stroke-miterlimit="10" d="
	M400.8,128.92c1.04,0.32,2.06,0.765,3.124,0.938c4.712,0.77,9.42,1.636,14.165,2.097c1.95,0.189,3.992-0.556,5.992-0.876"/>
<path fill-rule="evenodd" clip-rule="evenodd" fill="none" stroke="#000000" stroke-width="2" stroke-linecap="round" stroke-linejoin="round" stroke-miterlimit="10" d="
	M476.88,122.68c1.12,1.2,2.218,2.422,3.368,3.592c0.674,0.686,1.375,1.372,2.166,1.908c1.064,0.722,2.254,1.256,3.341,1.949
	c3.372,2.148,5.437,5.477,7.683,8.634c3.882,5.454,7.363,11.145,10.081,17.279c0.812,1.834,1.743,3.634,2.345,5.537
	c0.321,1.019,0.057,2.222,0.057,3.342"/>
<path fill-rule="evenodd" clip-rule="evenodd" fill="none" stroke="#000000" stroke-width="2" stroke-linecap="round" stroke-linejoin="round" stroke-miterlimit="10" d="
	M425.76,127.96c-0.319-0.24-0.68-0.728-0.954-0.684c-6.225,0.992-12.489,0.152-18.726,0.44c-2.106,0.097-4.214-0.226-6.275,0.771
	c-0.827,0.4-2.044-0.013-3.084-0.046c-2.56-0.083-5.123-0.255-7.679-0.193c-0.967,0.023-1.921,0.592-2.881,0.912"/>
<path fill-rule="evenodd" clip-rule="evenodd" fill="none" stroke="#000000" stroke-width="2" stroke-linecap="round" stroke-linejoin="round" stroke-miterlimit="10" d="
	M425.28,248.92c2.234,1.753,2.857,3.903,2.249,6.739c-0.338,1.573,0.185,3.347,0.399,5.02c0.526,4.085,1.486,8.063,3.374,11.75
	c0.571,1.116,1.417,2.092,2.138,3.131"/>
<path fill-rule="evenodd" clip-rule="evenodd" fill="none" stroke="#000000" stroke-width="2" stroke-linecap="round" stroke-linejoin="round" stroke-miterlimit="10" d="
	M508.32,137.32c-0.48,5.2-0.922,10.404-1.461,15.598c-0.192,1.854-0.619,3.682-0.939,5.522"/>
<path fill-rule="evenodd" clip-rule="evenodd" fill="none" stroke="#000000" stroke-width="2" stroke-linecap="round" stroke-linejoin="round" stroke-miterlimit="10" d="
	M483.36,129.4c0.479,1.2,0.745,2.554,1.477,3.573c3.031,4.224,6.289,8.286,9.29,12.53c1.778,2.514,3.259,5.242,4.824,7.902
	c1.163,1.975,2.314,3.962,3.35,6.004c0.992,1.956,0.525,3.975,0.052,5.998c-0.195,0.834-0.032,1.752-0.032,2.632"/>
<path fill-rule="evenodd" clip-rule="evenodd" fill="none" stroke="#000000" stroke-width="2" stroke-linecap="round" stroke-linejoin="round" stroke-miterlimit="10" d="
	M427.92,340.601c0.88,0.239,1.758,0.679,2.641,0.688c5.919,0.062,11.84,0.013,17.76,0.043c1.92,0.01,3.84,0.2,5.76,0.203
	c0.72,0.001,1.439-0.294,2.16-0.454"/>
<path fill-rule="evenodd" clip-rule="evenodd" fill="none" stroke="#000000" stroke-width="2" stroke-linecap="round" stroke-linejoin="round" stroke-miterlimit="10" d="
	M395.52,291.4c3.2,0.72,6.432,1.326,9.589,2.2c2.138,0.592,4.2,1.493,6.244,2.376c2.763,1.195,5.476,2.506,8.644,3.967
	c0.326-1.364,0.524-2.194,0.723-3.023"/>
<path fill-rule="evenodd" clip-rule="evenodd" fill="none" stroke="#000000" stroke-width="2" stroke-linecap="round" stroke-linejoin="round" stroke-miterlimit="10" d="
	M168.72,347.8c-1.073,2.287-3.337,3.406-5.083,4.993c-5.161,4.691-10.517,9.167-15.797,13.728"/>
<path fill-rule="evenodd" clip-rule="evenodd" fill="none" stroke="#000000" stroke-width="2" stroke-linecap="round" stroke-linejoin="round" stroke-miterlimit="10" d="
	M226.32,238.12c-4,3.52-7.977,7.067-12.01,10.548c-1.936,1.671-3.895,2.683-3.324,6.286c0.777,4.904-0.137,10.052,0.023,15.084
	c0.186,5.847,0.724,11.684,1.166,17.521c0.14,1.848,0.464,3.681,0.704,5.521"/>
<path fill-rule="evenodd" clip-rule="evenodd" fill="none" stroke="#000000" stroke-width="2" stroke-linecap="round" stroke-linejoin="round" stroke-miterlimit="10" d="
	M435.12,279.64c-0.641,2.72-1.271,5.442-1.922,8.16c-1.048,4.375-3.646,7.372-7.911,8.9c-0.254,0.091-0.407,0.46-0.607,0.701"/>
<path fill-rule="evenodd" clip-rule="evenodd" fill="none" stroke="#000000" stroke-width="2" stroke-linecap="round" stroke-linejoin="round" stroke-miterlimit="10" d="
	M506.64,126.04c-1.279-0.24-2.563-0.692-3.839-0.678c-3.281,0.036-6.56,0.329-9.841,0.423c-2.718,0.077-5.443-0.067-8.158,0.06
	c-0.973,0.045-1.922,0.596-2.882,0.916"/>
<path fill-rule="evenodd" clip-rule="evenodd" fill="none" stroke="#000000" stroke-width="2" stroke-linecap="round" stroke-linejoin="round" stroke-miterlimit="10" d="
	M425.52,213.64c6.888,0.548,13.745,0.862,20.654-0.149c3.121-0.457,6.386,0.118,9.586,0.139c5.76,0.037,11.521,0.01,17.28,0.01"/>
<path fill-rule="evenodd" clip-rule="evenodd" fill="none" stroke="#000000" stroke-width="2" stroke-linecap="round" stroke-linejoin="round" stroke-miterlimit="10" d="
	M254.88,140.2c-0.4,7.36-1.034,14.718-1.098,22.081c-0.031,3.515,1.206,7.023,1.511,10.565c0.197,2.289-0.285,4.632-0.407,6.954
	c-0.337,6.399-0.805,12.798-0.893,19.201c-0.038,2.794,0.726,5.599,1.126,8.399"/>
<path fill-rule="evenodd" clip-rule="evenodd" fill="none" stroke="#000000" stroke-width="2" stroke-linecap="round" stroke-linejoin="round" stroke-miterlimit="10" d="
	M274.8,322.601c-5.6,5.04-11.2,10.08-16.8,15.12"/>
<path fill-rule="evenodd" clip-rule="evenodd" fill="none" stroke="#000000" stroke-width="2" stroke-linecap="round" stroke-linejoin="round" stroke-miterlimit="10" d="
	M168,349.721c0.16,1.359,0.473,2.722,0.455,4.079c-0.11,8.241-0.282,16.48-0.474,24.72c-0.021,0.884-0.301,1.761-0.461,2.641"/>
<path fill-rule="evenodd" clip-rule="evenodd" fill="none" stroke="#000000" stroke-width="2" stroke-linecap="round" stroke-linejoin="round" stroke-miterlimit="10" d="
	M164.88,301.48c-4.8,5.28-9.6,10.56-14.4,15.84"/>
<path fill-rule="evenodd" clip-rule="evenodd" fill="none" stroke="#000000" stroke-width="2" stroke-linecap="round" stroke-linejoin="round" stroke-miterlimit="10" d="
	M427.92,127.24c6.641-0.32,13.278-0.855,19.921-0.898c6.478-0.042,12.959,0.418,19.439,0.659"/>
<path fill-rule="evenodd" clip-rule="evenodd" fill="none" stroke="#000000" stroke-width="2" stroke-linecap="round" stroke-linejoin="round" stroke-miterlimit="10" d="
	M440.4,333.88c-0.801,0.16-1.599,0.446-2.4,0.459c-3.359,0.052-6.722,0.083-10.079-0.005c-1.669-0.044-3.117,0.276-4.321,1.466"/>
<path fill-rule="evenodd" clip-rule="evenodd" fill="none" stroke="#000000" stroke-width="2" stroke-linecap="round" stroke-linejoin="round" stroke-miterlimit="10" d="
	M274.32,299.32c-0.88-0.16-1.801-0.574-2.633-0.438c-4.98,0.812-9.482-1.25-14.167-2.202"/>
<path fill-rule="evenodd" clip-rule="evenodd" fill="none" stroke="#000000" stroke-width="2" stroke-linecap="round" stroke-linejoin="round" stroke-miterlimit="10" d="
	M407.52,338.681c0.8,0.56,1.563,1.531,2.407,1.608c3.584,0.328,7.192,0.449,10.794,0.513c0.955,0.017,1.919-0.441,2.879-0.682"/>
<path fill-rule="evenodd" clip-rule="evenodd" fill="none" stroke="#000000" stroke-width="2" stroke-linecap="round" stroke-linejoin="round" stroke-miterlimit="10" d="
	M467.28,297.64c0.16,0.16,0.349,0.48,0.476,0.457c4.236-0.776,7.881,1.957,12.004,1.986c2.882,0.021,5.76,0.438,8.641,0.678"/>
<path fill-rule="evenodd" clip-rule="evenodd" fill="none" stroke="#000000" stroke-width="2" stroke-linecap="round" stroke-linejoin="round" stroke-miterlimit="10" d="
	M309.36,111.4c-4.4,4.56-8.811,9.109-13.174,13.704c-0.277,0.292-0.186,0.936-0.266,1.416"/>
<path fill-rule="evenodd" clip-rule="evenodd" fill="none" stroke="#000000" stroke-width="2" stroke-linecap="round" stroke-linejoin="round" stroke-miterlimit="10" d="
	M406.8,211.48c-0.48-0.56-0.91-1.545-1.448-1.608c-2.702-0.316-5.431-0.498-8.152-0.512c-1.647-0.008-3.562-0.717-4.821,1.146
	c-0.076,0.111-0.459,0.018-0.699,0.014c-4.48-0.08-8.96-0.167-13.44-0.229c-0.398-0.005-0.8,0.146-1.2,0.229
	c-1.52,0.319-3.04,0.64-4.56,0.96"/>
<path fill-rule="evenodd" clip-rule="evenodd" fill="none" stroke="#000000" stroke-width="2" stroke-linecap="round" stroke-linejoin="round" stroke-miterlimit="10" d="
	M453.36,208.12c-3.601,0-7.2,0.027-10.8-0.014c-1.254-0.014-2.389,0.065-2.86,1.461c-0.064,0.191,0.14,0.473,0.22,0.713"/>
<path fill-rule="evenodd" clip-rule="evenodd" fill="none" stroke="#000000" stroke-width="2" stroke-linecap="round" stroke-linejoin="round" stroke-miterlimit="10" d="
	M376.56,209.08c-0.96-0.4-1.914-1.122-2.881-1.142c-3.437-0.069-6.881,0.06-10.317,0.223c-0.574,0.027-1.122,0.599-1.682,0.918"/>
<path fill-rule="evenodd" clip-rule="evenodd" fill="none" stroke="#000000" stroke-width="2" stroke-linecap="round" stroke-linejoin="round" stroke-miterlimit="10" d="
	M419.76,299.561c-0.24,4.399-0.403,8.806-0.74,13.198c-0.394,5.127-0.94,10.241-1.42,15.361"/>
<path fill-rule="evenodd" clip-rule="evenodd" fill="none" stroke="#000000" stroke-width="2" stroke-linecap="round" stroke-linejoin="round" stroke-miterlimit="10" d="
	M299.04,176.2c-1.158,7.74-0.861,15.513-0.453,23.279c0.156,2.968,0.613,5.921,0.933,8.881"/>
<path fill-rule="evenodd" clip-rule="evenodd" fill="none" stroke="#000000" stroke-width="2" stroke-linecap="round" stroke-linejoin="round" stroke-miterlimit="10" d="
	M393.12,208.6c-0.48-0.4-0.945-1.125-1.442-1.148c-3.836-0.174-7.678-0.221-11.518-0.271c-0.238-0.003-0.479,0.299-0.72,0.459"/>
<path fill-rule="evenodd" clip-rule="evenodd" fill="none" stroke="#000000" stroke-width="2" stroke-linecap="round" stroke-linejoin="round" stroke-miterlimit="10" d="
	M269.52,457c-4.4,4.4-8.8,8.801-13.2,13.2"/>
<path fill-rule="evenodd" clip-rule="evenodd" fill="none" stroke="#000000" stroke-width="2" stroke-linecap="round" stroke-linejoin="round" stroke-miterlimit="10" d="
	M427.44,329.561c-0.801,0.16-1.596,0.424-2.401,0.461c-2.798,0.129-5.602,0.131-8.397,0.294c-0.654,0.039-1.282,0.524-1.922,0.805"
	/>
<path fill-rule="evenodd" clip-rule="evenodd" fill="none" stroke="#000000" stroke-width="2" stroke-linecap="round" stroke-linejoin="round" stroke-miterlimit="10" d="
	M371.28,212.44c-0.32,0.16-0.639,0.458-0.96,0.459c-4.959,0.03-9.92,0.03-14.88,0c-0.321-0.001-0.64-0.299-0.96-0.459"/>
<path fill-rule="evenodd" clip-rule="evenodd" fill="none" stroke="#000000" stroke-width="2" stroke-linecap="round" stroke-linejoin="round" stroke-miterlimit="10" d="
	M139.2,373.721c-3.28,2.96-6.526,5.959-9.867,8.849c-0.715,0.618-1.828,2.039-2.613-0.089"/>
<path fill-rule="evenodd" clip-rule="evenodd" fill="none" stroke="#000000" stroke-width="2" stroke-linecap="round" stroke-linejoin="round" stroke-miterlimit="10" d="
	M439.44,210.04c-3.28,0.56-6.576,1.048-9.827,1.741c-0.65,0.138-1.134,1.059-1.693,1.619"/>
<path fill-rule="evenodd" clip-rule="evenodd" fill="none" stroke="#000000" stroke-width="2" stroke-linecap="round" stroke-linejoin="round" stroke-miterlimit="10" d="
	M415.92,335.32c-1.351,1.504-3.054,1.976-5.041,1.947c-2.398-0.034-4.799,0.174-7.2,0.188c-0.719,0.004-1.485-0.189-2.151-0.475
	c-2.149-0.917-4.274-0.99-6.494-0.236c-2.485,0.844-4.764-0.133-5.875-2.384"/>
<path fill-rule="evenodd" clip-rule="evenodd" fill="none" stroke="#000000" stroke-width="2" stroke-linecap="round" stroke-linejoin="round" stroke-miterlimit="10" d="
	M439.44,337.96c0.26,1.38,1.249,1.429,2.398,1.465c2.563,0.08,5.121,0.295,7.681,0.455"/>
<path fill-rule="evenodd" clip-rule="evenodd" fill="none" stroke="#000000" stroke-width="2" stroke-linecap="round" stroke-linejoin="round" stroke-miterlimit="10" d="
	M335.28,88.6c-2.88,2.8-5.76,5.6-8.64,8.4"/>
<path fill-rule="evenodd" clip-rule="evenodd" fill="none" stroke="#000000" stroke-width="2" stroke-linecap="round" stroke-linejoin="round" stroke-miterlimit="10" d="
	M295.92,300.521c-2.88-0.16-5.76-0.32-8.64-0.48"/>
<path fill-rule="evenodd" clip-rule="evenodd" fill="none" stroke="#000000" stroke-width="2" stroke-linecap="round" stroke-linejoin="round" stroke-miterlimit="10" d="
	M415.44,211c-2.64,0.24-5.282,0.46-7.918,0.733c-0.729,0.075-1.441,0.307-2.162,0.467"/>
<path fill-rule="evenodd" clip-rule="evenodd" fill="none" stroke="#000000" stroke-width="2" stroke-linecap="round" stroke-linejoin="round" stroke-miterlimit="10" d="
	M147.36,367c-2.56,2.08-5.12,4.16-7.68,6.24"/>
<path fill-rule="evenodd" clip-rule="evenodd" fill="none" stroke="#000000" stroke-width="2" stroke-linecap="round" stroke-linejoin="round" stroke-miterlimit="10" d="
	M419.76,332.92c2.278-1.462,4.799-0.519,7.202-0.695c2.552-0.188,5.118-0.185,7.678-0.265"/>
<path fill-rule="evenodd" clip-rule="evenodd" fill="none" stroke="#000000" stroke-width="2" stroke-linecap="round" stroke-linejoin="round" stroke-miterlimit="10" d="
	M394.32,337.24c1.417,2.426,3.843,2.946,6.72,1.44"/>
<path fill-rule="evenodd" clip-rule="evenodd" fill="none" stroke="#000000" stroke-width="2" stroke-linecap="round" stroke-linejoin="round" stroke-miterlimit="10" d="
	M415.68,334.12c-2.48-0.08-4.96-0.16-7.44-0.24"/>
<path fill-rule="evenodd" clip-rule="evenodd" fill="none" stroke="#000000" stroke-width="2" stroke-linecap="round" stroke-linejoin="round" stroke-miterlimit="10" d="
	M339.84,216.28c-2,1.84-4,3.68-6,5.52"/>
<path fill-rule="evenodd" clip-rule="evenodd" fill="none" stroke="#000000" stroke-width="2" stroke-linecap="round" stroke-linejoin="round" stroke-miterlimit="10" d="
	M283.44,299.32c-2.24,0-4.48,0-6.72,0"/>
<path fill-rule="evenodd" clip-rule="evenodd" fill="none" stroke="#000000" stroke-width="2" stroke-linecap="round" stroke-linejoin="round" stroke-miterlimit="10" d="
	M404.88,212.44c-2.24,0.32-4.48,0.64-6.72,0.96"/>
<path fill-rule="evenodd" clip-rule="evenodd" fill="none" stroke="#000000" stroke-width="2" stroke-linecap="round" stroke-linejoin="round" stroke-miterlimit="10" d="
	M366,338.681c2.08,1.379,4.16,0.784,6.24,0"/>
<path fill-rule="evenodd" clip-rule="evenodd" fill="none" stroke="#000000" stroke-width="2" stroke-linecap="round" stroke-linejoin="round" stroke-miterlimit="10" d="
	M186.48,378.761c1.12,2.08,2.24,4.159,3.36,6.239"/>
<path fill-rule="evenodd" clip-rule="evenodd" fill="none" stroke="#000000" stroke-width="2" stroke-linecap="round" stroke-linejoin="round" stroke-miterlimit="10" d="
	M250.8,429.16c-2.08,2.08-4.16,4.16-6.24,6.24"/>
<path fill-rule="evenodd" clip-rule="evenodd" fill="none" stroke="#000000" stroke-width="2" stroke-linecap="round" stroke-linejoin="round" stroke-miterlimit="10" d="
	M291.6,307.24c-1.6,1.601-3.2,3.2-4.8,4.8"/>
<path fill-rule="evenodd" clip-rule="evenodd" fill="none" stroke="#000000" stroke-width="2" stroke-linecap="round" stroke-linejoin="round" stroke-miterlimit="10" d="
	M412.32,210.521c-1.758-0.789-3.506-1.641-5.52-0.96"/>
<path fill-rule="evenodd" clip-rule="evenodd" fill="none" stroke="#000000" stroke-width="2" stroke-linecap="round" stroke-linejoin="round" stroke-miterlimit="10" d="
	M299.28,167.56c-0.08,1.76-0.16,3.521-0.24,5.28"/>
<path fill-rule="evenodd" clip-rule="evenodd" fill="none" stroke="#000000" stroke-width="2" stroke-linecap="round" stroke-linejoin="round" stroke-miterlimit="10" d="
	M374.16,337.721c1.76,0.928,3.52,1.228,5.28,0"/>
<path fill-rule="evenodd" clip-rule="evenodd" fill="none" stroke="#000000" stroke-width="2" stroke-linecap="round" stroke-linejoin="round" stroke-miterlimit="10" d="
	M288.48,436.12c-1.84,2.16-3.68,4.32-5.52,6.48"/>
<path fill-rule="evenodd" clip-rule="evenodd" fill="none" stroke="#000000" stroke-width="2" stroke-linecap="round" stroke-linejoin="round" stroke-miterlimit="10" d="
	M297.6,427c-2.24,2.24-4.48,4.48-6.72,6.721"/>
<path fill-rule="evenodd" clip-rule="evenodd" fill="none" stroke="#000000" stroke-width="2" stroke-linecap="round" stroke-linejoin="round" stroke-miterlimit="10" d="
	M468.48,121.72c0.159,0.16,0.333,0.309,0.478,0.482c2.486,2.988,5.015,3.672,8.882,2.398"/>
<path fill-rule="evenodd" clip-rule="evenodd" fill="none" stroke="#000000" stroke-width="2" stroke-linecap="round" stroke-linejoin="round" stroke-miterlimit="10" d="
	M457.2,338.681c2.239,0.079,4.479,0.16,6.72,0.239"/>
<path fill-rule="evenodd" clip-rule="evenodd" fill="none" stroke="#000000" stroke-width="2" stroke-linecap="round" stroke-linejoin="round" stroke-miterlimit="10" d="
	M171.36,250.84c-0.56,1.44-1.12,2.88-1.68,4.32"/>
<path fill-rule="evenodd" clip-rule="evenodd" fill="none" stroke="#000000" stroke-width="2" stroke-linecap="round" stroke-linejoin="round" stroke-miterlimit="10" d="
	M343.44,212.2c-0.034,2.072-2.13,2.356-3.12,3.6"/>
<path fill-rule="evenodd" clip-rule="evenodd" fill="none" stroke="#000000" stroke-width="2" stroke-linecap="round" stroke-linejoin="round" stroke-miterlimit="10" d="
	M248.4,216.04c-0.96,0.96-1.92,1.92-2.88,2.88"/>
<path fill-rule="evenodd" clip-rule="evenodd" fill="none" stroke="#000000" stroke-width="2" stroke-linecap="round" stroke-linejoin="round" stroke-miterlimit="10" d="
	M438.96,339.16c-1.28,0-2.56,0-3.84,0"/>
<path fill-rule="evenodd" clip-rule="evenodd" fill="none" stroke="#000000" stroke-width="2" stroke-linecap="round" stroke-linejoin="round" stroke-miterlimit="10" d="
	M211.68,300.04c1.28,1.04,2.56,2.08,3.84,3.12"/>
<path fill-rule="evenodd" clip-rule="evenodd" fill="none" stroke="#000000" stroke-width="2" stroke-linecap="round" stroke-linejoin="round" stroke-miterlimit="10" d="
	M280.56,300.04c-1.28-0.08-2.56-0.159-3.84-0.24"/>
<path fill-rule="evenodd" clip-rule="evenodd" fill="none" stroke="#000000" stroke-width="2" stroke-linecap="round" stroke-linejoin="round" stroke-miterlimit="10" d="
	M302.16,295.24c-1.52,1.92-3.021,3.856-4.596,5.729c-0.126,0.15-0.764-0.13-1.164-0.209"/>
<path fill-rule="evenodd" clip-rule="evenodd" fill="none" stroke="#000000" stroke-width="2" stroke-linecap="round" stroke-linejoin="round" stroke-miterlimit="10" d="
	M300.24,40.12c-1.037-0.115-2.073-0.229-3.36-0.373c0,1.011,0,1.892,0,2.773"/>
<path fill-rule="evenodd" clip-rule="evenodd" fill="none" stroke="#000000" stroke-width="2" stroke-linecap="round" stroke-linejoin="round" stroke-miterlimit="10" d="
	M507.36,168.28c-0.08,1.12-0.16,2.24-0.24,3.36"/>
<path fill-rule="evenodd" clip-rule="evenodd" fill="none" stroke="#000000" stroke-width="2" stroke-linecap="round" stroke-linejoin="round" stroke-miterlimit="10" d="
	M254.88,419.08c2.077,0.731,3.05,3.275,5.52,3.36"/>
<path fill-rule="evenodd" clip-rule="evenodd" fill="none" stroke="#000000" stroke-width="2" stroke-linecap="round" stroke-linejoin="round" stroke-miterlimit="10" d="
	M295.92,211.72c0.641,0.479,1.282,0.958,2.085,1.558c-1.047,0.785-2.046,1.534-3.045,2.282"/>
<path fill-rule="evenodd" clip-rule="evenodd" fill="none" stroke="#000000" stroke-width="2" stroke-linecap="round" stroke-linejoin="round" stroke-miterlimit="10" d="
	M503.28,162.521c0.822,1.878,3.684,2.249,3.526,5.049c-0.032,0.586,2.063,1.292,3.131,1.915c0.105-0.336,0.204-0.65,0.303-0.964"/>
<path fill-rule="evenodd" clip-rule="evenodd" fill="none" stroke="#000000" stroke-width="2" stroke-linecap="round" stroke-linejoin="round" stroke-miterlimit="10" d="
	M214.08,294.28c-0.16,2.24-0.32,4.48-0.48,6.72"/>
<path fill-rule="evenodd" clip-rule="evenodd" fill="none" stroke="#000000" stroke-width="2" stroke-linecap="round" stroke-linejoin="round" stroke-miterlimit="10" d="
	M323.76,99.88c-0.96,0.8-1.92,1.6-2.88,2.4"/>
<path fill-rule="evenodd" clip-rule="evenodd" fill="none" stroke="#000000" stroke-width="2" stroke-linecap="round" stroke-linejoin="round" stroke-miterlimit="10" d="
	M257.76,421.96c-1.04,0.881-2.08,1.76-3.12,2.641"/>
<path fill-rule="evenodd" clip-rule="evenodd" fill="none" stroke="#000000" stroke-width="2" stroke-linecap="round" stroke-linejoin="round" stroke-miterlimit="10" d="
	M511.2,509.32c0.16,0.96,0.32,1.92,0.479,2.88"/>
<path fill-rule="evenodd" clip-rule="evenodd" fill="none" stroke="#000000" stroke-width="2" stroke-linecap="round" stroke-linejoin="round" stroke-miterlimit="10" d="
	M286.8,299.8c-0.96-0.079-1.92-0.159-2.88-0.239"/>
<path fill-rule="evenodd" clip-rule="evenodd" fill="none" stroke="#000000" stroke-width="2" stroke-linecap="round" stroke-linejoin="round" stroke-miterlimit="10" d="
	M288.72,253.24c-0.96,0-1.92,0-2.88,0"/>
<path fill-rule="evenodd" clip-rule="evenodd" fill="none" stroke="#000000" stroke-width="2" stroke-linecap="round" stroke-linejoin="round" stroke-miterlimit="10" d="
	M288.72,253.72c-0.96,0-1.92,0-2.88,0"/>
<path fill-rule="evenodd" clip-rule="evenodd" fill="none" stroke="#000000" stroke-width="2" stroke-linecap="round" stroke-linejoin="round" stroke-miterlimit="10" d="
	M278.4,447.16c-1.04,1.2-2.08,2.4-3.12,3.601"/>
<path fill-rule="evenodd" clip-rule="evenodd" fill="none" stroke="#000000" stroke-width="2" stroke-linecap="round" stroke-linejoin="round" stroke-miterlimit="10" d="
	M289.68,48.521c-0.8,0.8-1.6,1.6-2.4,2.4"/>
<path fill-rule="evenodd" clip-rule="evenodd" fill="none" stroke="#000000" stroke-width="2" stroke-linecap="round" stroke-linejoin="round" stroke-miterlimit="10" d="
	M487.68,126.521c0.32,0.88,0.641,1.76,0.96,2.64"/>
<path fill-rule="evenodd" clip-rule="evenodd" fill="none" stroke="#000000" stroke-width="2" stroke-linecap="round" stroke-linejoin="round" stroke-miterlimit="10" d="
	M327.12,228.04c-0.8,0.8-1.6,1.6-2.4,2.4"/>
<path fill-rule="evenodd" clip-rule="evenodd" fill="none" stroke="#000000" stroke-width="2" stroke-linecap="round" stroke-linejoin="round" stroke-miterlimit="10" d="
	M299.76,211.24c-0.64,0.56-1.28,1.12-1.92,1.68"/>
<path fill-rule="evenodd" clip-rule="evenodd" fill="none" stroke="#000000" stroke-width="2" stroke-linecap="round" stroke-linejoin="round" stroke-miterlimit="10" d="
	M406.32,333.4c-0.8-0.16-1.6-0.32-2.4-0.48"/>
<path fill-rule="evenodd" clip-rule="evenodd" fill="none" stroke="#000000" stroke-width="2" stroke-linecap="round" stroke-linejoin="round" stroke-miterlimit="10" d="
	M554.64,510.761c-0.426-0.28-0.853-0.56-1.435-0.941c-2.143,1.851,0.504,2.175,1.195,3.101"/>
<path fill-rule="evenodd" clip-rule="evenodd" fill="none" stroke="#000000" stroke-width="2" stroke-linecap="round" stroke-linejoin="round" stroke-miterlimit="10" d="
	M249.36,123.4c-1.28,0.96-2.56,1.92-3.84,2.88"/>
<path fill-rule="evenodd" clip-rule="evenodd" fill="none" stroke="#000000" stroke-width="2" stroke-linecap="round" stroke-linejoin="round" stroke-miterlimit="10" d="
	M273.84,452.2c-0.48,0.641-0.96,1.28-1.44,1.92"/>
<path fill-rule="evenodd" clip-rule="evenodd" fill="none" stroke="#000000" stroke-width="2" stroke-linecap="round" stroke-linejoin="round" stroke-miterlimit="10" d="
	M283.44,299.8c-0.64,0.08-1.28,0.16-1.92,0.24"/>
<path fill-rule="evenodd" clip-rule="evenodd" fill="none" stroke="#000000" stroke-width="2" stroke-linecap="round" stroke-linejoin="round" stroke-miterlimit="10" d="
	M445.68,212.92c-0.64-0.08-1.279-0.16-1.92-0.24"/>
<path fill-rule="evenodd" clip-rule="evenodd" fill="none" stroke="#000000" stroke-width="2" stroke-linecap="round" stroke-linejoin="round" stroke-miterlimit="10" d="
	M425.28,335.32c0.56,0.08,1.12,0.16,1.68,0.24"/>
<path fill-rule="evenodd" clip-rule="evenodd" fill="none" stroke="#000000" stroke-width="2" stroke-linecap="round" stroke-linejoin="round" stroke-miterlimit="10" d="
	M428.64,331c-0.56,0.16-1.12,0.32-1.68,0.48"/>
<path fill-rule="evenodd" clip-rule="evenodd" fill="none" stroke="#000000" stroke-width="2" stroke-linecap="round" stroke-linejoin="round" stroke-miterlimit="10" d="
	M551.04,254.2c0.56,0.08,1.12,0.16,1.68,0.24"/>
<path fill-rule="evenodd" clip-rule="evenodd" fill="none" stroke="#000000" stroke-width="2" stroke-linecap="round" stroke-linejoin="round" stroke-miterlimit="10" d="
	M211.92,339.4c0.56,0.4,1.12,0.8,1.68,1.2"/>
<path fill-rule="evenodd" clip-rule="evenodd" fill="none" stroke="#000000" stroke-width="2" stroke-linecap="round" stroke-linejoin="round" stroke-miterlimit="10" d="
	M424.32,253.72c0.8,0.16,1.6,0.32,2.399,0.48"/>
<path fill-rule="evenodd" clip-rule="evenodd" fill="none" stroke="#000000" stroke-width="2" stroke-linecap="round" stroke-linejoin="round" stroke-miterlimit="10" d="
	M168.24,297.64c0.4,0,0.8,0,1.2,0c-0.08-0.32-0.16-0.64-0.24-0.96"/>
</svg>
