<?xml version="1.0" encoding="utf-8"?>
<!-- Generator: Adobe Illustrator 16.0.0, SVG Export Plug-In . SVG Version: 6.00 Build 0)  -->
<!DOCTYPE svg PUBLIC "-//W3C//DTD SVG 1.1//EN" "http://www.w3.org/Graphics/SVG/1.1/DTD/svg11.dtd">
<svg version="1.1" id="Layer_1" xmlns="http://www.w3.org/2000/svg" xmlns:xlink="http://www.w3.org/1999/xlink" x="0px" y="0px"
	 width="754.624px" height="565.911px" viewBox="0 0 754.624 565.911" enable-background="new 0 0 754.624 565.911"
	 xml:space="preserve">
<path fill-rule="evenodd" clip-rule="evenodd" fill="none" stroke="#000000" stroke-width="2" stroke-linecap="round" stroke-linejoin="round" stroke-miterlimit="10" d="
	M386.141,280.663c-4.815,0.841-9.641,1.631-14.444,2.534c-6.658,1.251-13.299,2.601-19.952,3.881
	c-4.887,0.941-9.772,1.898-14.677,2.741c-5.721,0.982-11.445,1.985-17.2,2.729c-6.017,0.778-12.08,1.189-18.107,1.892
	c-5.744,0.67-11.464,1.537-17.201,2.264c-4.581,0.58-9.163,1.176-13.76,1.58c-2.964,0.26-5.961,0.14-8.939,0.275
	c-3.977,0.182-7.949,0.614-11.924,0.626c-3.515,0.01-7.041-0.319-10.545-0.663c-3.527-0.345-7.024-1.131-10.553-1.288
	c-4.192-0.188-8.438-0.208-12.6,0.251c-4.169,0.459-8.23,1.878-12.399,2.374c-6.544,0.777-13.131,1.384-19.715,1.584
	c-4.572,0.139-9.17-0.507-13.754-0.838c-3.824-0.276-7.698-1.116-11.445-0.72c-2.239,0.237-4.591,1.015-6.902,1.133
	c-7.626,0.387-15.156-0.235-22.476-2.679c-4.296-1.433-8.725-2.26-13.292-2.085"/>
<path fill-rule="evenodd" clip-rule="evenodd" fill="none" stroke="#000000" stroke-width="2" stroke-linecap="round" stroke-linejoin="round" stroke-miterlimit="10" d="
	M384.076,264.611c-2.522,0.306-5.05,0.572-7.564,0.932c-1.616,0.23-3.212,0.599-4.817,0.902c-6.879,1.3-13.755,2.612-20.638,3.896
	c-7.696,1.435-15.317,3.252-23.151,3.978c-3.329,0.308-6.558,1.572-9.873,2.188c-4.718,0.877-9.455,1.701-14.215,2.286
	c-6.173,0.758-12.372,1.334-18.572,1.83c-2.196,0.176-4.444-0.309-6.644-0.151c-5.894,0.424-11.77,1.411-17.66,1.465
	c-6.422,0.06-12.765,1.755-19.278,0.42c-4.8-0.984-9.759-1.227-14.661-1.651c-1.429-0.124-2.901,0.263-4.353,0.416"/>
<path fill-rule="evenodd" clip-rule="evenodd" fill="none" stroke="#000000" stroke-width="2" stroke-linecap="round" stroke-linejoin="round" stroke-miterlimit="10" d="
	M372.841,373.07c2.751,4.738,5.49,9.485,8.259,14.214c2.734,4.673,5.539,9.305,8.242,13.995c5.228,9.07,10.603,18.053,15.199,27.482
	c2.35,4.821,5.259,9.373,7.976,14.011c5.249,8.958,10.54,17.891,15.82,26.829c0.106,0.181,0.3,0.31,0.453,0.462"/>
<path fill-rule="evenodd" clip-rule="evenodd" fill="none" stroke="#000000" stroke-width="2" stroke-linecap="round" stroke-linejoin="round" stroke-miterlimit="10" d="
	M486.114,337.07c1.224,5.962,2.403,11.933,3.691,17.88c0.471,2.171,1.14,4.306,1.826,6.421c1.073,3.308,2.699,4.549,6.177,4.562
	c2.063,0.007,4.127-0.285,6.191-0.427c2.369-0.163,4.746-0.241,7.106-0.477c4.057-0.404,8.106-0.879,12.153-1.37
	c2.07-0.251,4.12-0.737,6.195-0.864c1.628-0.1,2.168-0.77,2.575-2.322c1.642-6.263,0.482-12.548,0.36-18.815
	c-0.067-3.444-0.518-6.886-0.897-10.317c-0.175-1.569-0.489-2.721-2.706-3.11c-4.091-0.719-8.077-1.176-12.18-0.352
	c-1.734,0.349-3.512,0.479-5.27,0.708"/>
<path fill-rule="evenodd" clip-rule="evenodd" fill="none" stroke="#000000" stroke-width="2" stroke-linecap="round" stroke-linejoin="round" stroke-miterlimit="10" d="
	M325.834,294.42c0.841,0.994,2.071,1.857,2.454,3.004c1.571,4.7,4.311,8.766,7.027,12.764c3.103,4.569,5.519,9.475,8.234,14.237
	c2.314,4.061,5.293,7.737,7.7,11.75c3.432,5.722,6.559,11.626,9.911,17.396c3.529,6.075,7.17,12.085,10.763,18.123"/>
<path fill-rule="evenodd" clip-rule="evenodd" fill="none" stroke="#000000" stroke-width="2" stroke-linecap="round" stroke-linejoin="round" stroke-miterlimit="10" d="
	M386.141,298.089c-0.153-0.076-0.326-0.244-0.456-0.216c-6.255,1.356-12.727,1.911-18.57,4.814
	c-3.934,1.953-4.544,3.481-3.431,8.698c1.471,6.892,3.035,13.763,4.583,20.638c0.164,0.73,0.483,1.426,0.816,2.383
	c2.676-1.072,5.094-2.36,7.672-3.006c4.837-1.211,9.767-2.053,14.661-3.04c0.528-0.106,1.251,0.039,1.575-0.264
	c2.483-2.321,5.704-2.363,8.745-2.935c1.64-0.308,2.504-1.348,2.291-2.997c-0.462-3.592-0.853-7.194-1.401-10.772
	c-0.321-2.085-0.893-4.132-1.352-6.195"/>
<path fill-rule="evenodd" clip-rule="evenodd" fill="none" stroke="#000000" stroke-width="2" stroke-linecap="round" stroke-linejoin="round" stroke-miterlimit="10" d="
	M444.611,239.618c2.446-0.688,4.894-1.369,7.337-2.066c1.838-0.524,3.659-1.109,5.507-1.591c1.936-0.505,2.518-2.052,3.24-3.666
	c1.969-4.399,4.09-8.73,6.161-13.083c0.514-1.081,1.154-2.108,1.581-3.22c0.599-1.559,1.07-3.116,3.233-3.008
	c0.369,0.018,0.816-0.366,1.137-0.662c4.444-4.114,8.8-8.329,13.327-12.351c4.838-4.298,5.68-9.529,4.634-15.626
	c-1.035-6.035-3.315-11.579-5.521-17.205c-1.338-3.412-2.193-7.012-3.259-10.529c-1.225-4.042-2.099-4.966-6.88-5.043
	c-0.382-0.006-0.765-0.001-1.146-0.001"/>
<path fill-rule="evenodd" clip-rule="evenodd" fill="none" stroke="#000000" stroke-width="2" stroke-linecap="round" stroke-linejoin="round" stroke-miterlimit="10" d="
	M408.611,266.675c-3.513,0.338-4.998,1.911-5.408,6.887c-0.505,6.116-2.476,11.812-3.998,17.647
	c-2.733,10.476-5.543,20.933-8.222,31.423c-0.762,2.984-0.604,3.024,2.494,3.892c0.232,0.065,0.459,0.151,0.688,0.229"/>
<path fill-rule="evenodd" clip-rule="evenodd" fill="none" stroke="#000000" stroke-width="2" stroke-linecap="round" stroke-linejoin="round" stroke-miterlimit="10" d="
	M631.49,265.529c-6.038,0.535-12.075,1.084-18.115,1.601c-4.736,0.405-9.494,0.624-14.211,1.191
	c-4.837,0.583-9.622,1.591-14.454,2.223c-4.568,0.597-9.174,0.899-13.753,1.422c-3.296,0.376-6.571,0.926-9.862,1.352
	c-2.671,0.345-5.343,0.737-8.026,0.901c-6.187,0.38-12.383,0.593-18.569,0.973c-1.39,0.085-2.754,0.58-4.13,0.885"/>
<path fill-rule="evenodd" clip-rule="evenodd" fill="none" stroke="#000000" stroke-width="2" stroke-linecap="round" stroke-linejoin="round" stroke-miterlimit="10" d="
	M506.752,138.268c-1.925-0.101-2.254-1.206-2.368-2.976c-0.169-2.618-0.849-5.201-1.298-7.801c-0.172-0.991-0.47-1.999-0.399-2.976
	c0.039-0.56,0.622-1.191,1.13-1.543c0.167-0.116,1.207,0.482,1.278,0.861c0.697,3.729,1.377,7.467,1.856,11.229
	c0.445,3.498,1.124,7.07,0.823,10.533c-0.363,4.175,1.809,7.818,1.592,11.939c-0.203,3.875,0.544,7.791,0.554,11.689
	c0.013,5.579-0.403,11.16-0.385,16.739c0.029,8.484-0.106,16.997,0.531,25.444c0.669,8.873,0.798,17.729,0.834,26.606
	c0.009,2.064,0.426,4.13,0.395,6.19c-0.027,1.837-0.421,3.669-0.643,5.504c-0.092,0.763-0.22,1.528-0.222,2.293
	c-0.019,6.268,0.077,12.537-0.032,18.802c-0.138,7.874-0.563,15.745-0.625,23.619c-0.049,6.189,0.266,12.382,0.417,18.572
	c0.079,3.211,0.134,6.422,0.235,9.631c0.133,4.204,0.303,8.407,0.45,12.611c0.02,0.535,0.205,1.202-0.04,1.577
	c-0.49,0.753,0.497,2.459-1.33,2.294c-1.172-0.105-2.125-0.461-2.357-2.027c-0.268-1.798-1.009-3.524-1.543-5.283"/>
<path fill-rule="evenodd" clip-rule="evenodd" fill="none" stroke="#000000" stroke-width="2" stroke-linecap="round" stroke-linejoin="round" stroke-miterlimit="10" d="
	M472.356,340.739c-3.363,1.069-6.706,2.208-10.094,3.193c-4.95,1.439-9.939,2.741-14.897,4.149
	c-8.262,2.348-16.539,4.645-24.757,7.136c-4.946,1.5-9.793,3.33-14.685,5.012"/>
<path fill-rule="evenodd" clip-rule="evenodd" fill="none" stroke="#000000" stroke-width="2" stroke-linecap="round" stroke-linejoin="round" stroke-miterlimit="10" d="
	M390.955,197.885c-0.229,6.726-0.443,13.453-0.694,20.178c-0.113,3.059-0.447,6.116-0.422,9.172
	c0.056,6.727,0.28,13.452,0.425,20.179c0.026,1.222,0.004,2.446,0.004,3.669c0,4.356-0.088,8.715,0.022,13.069
	c0.133,5.2,0.437,10.396,0.665,15.593"/>
<path fill-rule="evenodd" clip-rule="evenodd" fill="none" stroke="#000000" stroke-width="2" stroke-linecap="round" stroke-linejoin="round" stroke-miterlimit="10" d="
	M469.834,210.726c-4.433-0.764-8.842-1.925-13.305-2.193c-5.631-0.338-11.307,0.074-16.963,0.122
	c-4.127,0.036-8.258-0.096-12.38,0.048c-2.302,0.08-4.855,0.042-6.804,1.029c-1.845,0.934-1.778,3.517-1.665,5.579
	c0.161,2.908,0.487,5.808,0.633,8.716c0.03,0.599-0.307,1.301-0.669,1.819c-1.841,2.634-2.56,5.661-3.19,8.727
	c-0.691,3.362-1.377,6.726-2.064,10.089"/>
<path fill-rule="evenodd" clip-rule="evenodd" fill="none" stroke="#000000" stroke-width="2" stroke-linecap="round" stroke-linejoin="round" stroke-miterlimit="10" d="
	M139.185,118.548c0.229,2.828,0.469,5.655,0.686,8.484c0.541,7.031,1.064,14.064,1.61,21.095c0.368,4.74,0.739,9.48,1.149,14.217
	c0.59,6.804,1.216,13.605,1.829,20.408c0.764,8.484,1.641,16.96,2.244,25.456c0.286,4.031-0.01,8.099,0.064,12.149
	c0.086,4.664,0.257,9.327,0.451,13.987c0.274,6.574,0.545,13.15,0.928,19.719c0.286,4.897,0.805,9.781,1.108,14.678
	c0.246,3.969,0.299,7.949,0.49,11.921c0.077,1.609,0.293,3.211,0.446,4.816"/>
<path fill-rule="evenodd" clip-rule="evenodd" fill="none" stroke="#000000" stroke-width="2" stroke-linecap="round" stroke-linejoin="round" stroke-miterlimit="10" d="
	M377.886,127.032c2.072-3.302,4.082-6.635,4.811-10.548c0.184-0.988,0.416-1.984,0.439-2.98c0.037-1.629,1.071-1.347,1.838-0.884
	c2.248,1.357,4.694,9.428,3.671,11.883c-0.181,0.435-0.515,0.932-0.912,1.128c-2.941,1.456-2.271,4.01-2.054,6.446
	c0.24,2.674,0.569,5.346,0.67,8.026c0.288,7.641,0.691,15.287,0.65,22.929c-0.043,7.95-0.63,15.896-0.832,23.848
	c-0.139,5.423-0.116,10.854-0.003,16.279c0.124,5.964,0.399,11.926,0.679,17.885c0.146,3.138,0.579,6.266,0.643,9.402
	c0.109,5.348,0.146,10.703,0.002,16.05c-0.191,7.188-0.667,14.368-0.855,21.556c-0.106,4.046,0.12,8.101,0.196,12.152"/>
<path fill-rule="evenodd" clip-rule="evenodd" fill="none" stroke="#000000" stroke-width="2" stroke-linecap="round" stroke-linejoin="round" stroke-miterlimit="10" d="
	M436.815,162.803c-3.058,5.197-6.136,10.383-9.16,15.599c-0.993,1.714-1.944,3.466-2.742,5.276
	c-1.451,3.291-0.702,6.165,1.539,8.969c2.412,3.019,5.58,5.372,7.283,9.077c0.76,1.653,2.908,2.683,4.477,3.932
	c0.233,0.186,0.743,0.026,1.126,0.026"/>
<path fill-rule="evenodd" clip-rule="evenodd" fill="none" stroke="#000000" stroke-width="2" stroke-linecap="round" stroke-linejoin="round" stroke-miterlimit="10" d="
	M455.389,167.618c0.345,5.609-0.86,11.041-1.8,16.516c-0.638,3.714-1.006,7.479-1.396,11.231c-0.444,4.274-0.778,8.559-1.16,12.839"
	/>
<path fill-rule="evenodd" clip-rule="evenodd" fill="none" stroke="#000000" stroke-width="2" stroke-linecap="round" stroke-linejoin="round" stroke-miterlimit="10" d="
	M249.478,39.21c-0.611-0.229-1.205-0.557-1.837-0.672c-4.503-0.819-8.88,0.334-13.297,0.894c-6.264,0.793-12.537,1.518-18.801,2.306
	c-6.5,0.818-12.975,1.908-19.497,2.451c-6.432,0.537-12.908,0.742-19.27-1.029c-1.277-0.355-2.755,0.092-4.109-0.078
	c-4.29-0.54-8.548-1.488-12.849-1.725c-4.183-0.23-8.42,0.036-12.603,0.418c-6.588,0.603-13.151,1.481-19.722,2.265
	c-0.319,0.038-0.613,0.291-0.919,0.444"/>
<path fill-rule="evenodd" clip-rule="evenodd" fill="none" stroke="#000000" stroke-width="2" stroke-linecap="round" stroke-linejoin="round" stroke-miterlimit="10" d="
	M471.21,120.153c1.8,6.42,0.913,12.853-0.054,19.253c-0.251,1.66-0.813,3.512-1.849,4.767c-2.778,3.368-1.729,6.853-0.808,10.364
	c0.255,0.968,0.346,1.674-0.251,2.547c-2.645,3.867-5.353,7.702-7.745,11.723c-0.893,1.5-1.21,3.449-1.408,5.236
	c-0.854,7.709-1.566,15.436-2.332,23.155c-0.303,3.058-0.611,6.115-0.917,9.172"/>
<path fill-rule="evenodd" clip-rule="evenodd" fill="none" stroke="#000000" stroke-width="2" stroke-linecap="round" stroke-linejoin="round" stroke-miterlimit="10" d="
	M504.229,150.191c0,3.439,0.028,6.879-0.007,10.319c-0.048,4.51-0.033,9.024-0.252,13.527c-0.257,5.28-0.881,10.543-1.084,15.824
	c-0.348,9.015-0.381,18.042-0.767,27.054c-0.203,4.75-0.977,9.473-1.292,14.221c-0.203,3.044,0.1,6.12-0.07,9.167
	c-0.26,4.669-0.792,9.323-1.093,13.991c-0.192,2.974-0.253,5.961-0.225,8.941c0.021,2.218,0.315,4.432,0.424,6.65
	c0.183,3.744,0.214,7.498,0.492,11.233c0.354,4.747,0.925,9.477,1.341,14.22c0.354,4.046,0.515,8.112,0.955,12.148
	c0.486,4.447,1.193,8.87,1.807,13.303c0.455,3.287,0.931,6.571,1.351,9.862c0.036,0.282-0.281,0.609-0.434,0.914
	c-0.306-0.152-0.72-0.229-0.895-0.475c-0.357-0.502-0.586-1.095-1.071-2.051c-5.163,1.609-10.339,3.136-15.437,4.89
	c-0.931,0.32-2.829,0.709-1.859,2.681"/>
<path fill-rule="evenodd" clip-rule="evenodd" fill="none" stroke="#000000" stroke-width="2" stroke-linecap="round" stroke-linejoin="round" stroke-miterlimit="10" d="
	M406.318,360.229c-3.516,1.299-6.945,2.971-10.567,3.813c-5.908,1.374-11.344,3.912-16.949,6.045
	c-2.826,1.076-5.655,2.142-8.483,3.212"/>
<path fill-rule="evenodd" clip-rule="evenodd" fill="none" stroke="#000000" stroke-width="2" stroke-linecap="round" stroke-linejoin="round" stroke-miterlimit="10" d="
	M437.045,262.548c-0.612,2.369-0.88,4.903-1.916,7.069c-1.514,3.166-1.14,6.407-1.324,9.667c-0.164,2.913-0.789,5.807-0.846,8.716
	c-0.132,6.745-0.237,13.508,1.11,20.176c0.711,3.519,1.206,7.032,2.86,10.377c1.247,2.521-0.418,9.549-4.464,11.196
	c-2.788,1.134-5.521,2.404-8.258,3.661c-1.552,0.712-2.997,1.723-4.606,2.23c-1.917,0.605-3.947,0.955-5.952,1.11
	c-0.566,0.044-1.663-0.915-1.753-1.527c-0.484-3.295-2.507-6.002-3.285-9.161"/>
<path fill-rule="evenodd" clip-rule="evenodd" fill="none" stroke="#000000" stroke-width="2" stroke-linecap="round" stroke-linejoin="round" stroke-miterlimit="10" d="
	M472.356,292.356c-1.2,1.621-2.401,3.242-3.595,4.854c0.58,2.934,1.299,5.901,1.728,8.909c0.521,3.649,0.72,7.344,1.206,10.998
	c0.346,2.603,0.532,2.656,3.184,2.519c0.461-0.023,0.917-0.146,1.146-0.184c0-3.253-0.04-6.462,0.01-9.669
	c0.07-4.607-0.282-9.141-1.824-13.535c-0.438-1.253-0.631-2.592-0.938-3.892"/>
<path fill-rule="evenodd" clip-rule="evenodd" fill="none" stroke="#000000" stroke-width="2" stroke-linecap="round" stroke-linejoin="round" stroke-miterlimit="10" d="
	M601.911,269.885c0.306,0.917,0.736,1.813,0.896,2.755c1.131,6.629,4.167,12.545,6.913,18.563c2.609,5.721,4.535,11.68,6.406,17.662
	"/>
<path fill-rule="evenodd" clip-rule="evenodd" fill="none" stroke="#000000" stroke-width="2" stroke-linecap="round" stroke-linejoin="round" stroke-miterlimit="10" d="
	M405.172,268.739c0.535,0.153,1.242,0.604,1.577,0.41c2.115-1.225,1.785,0.495,1.596,1.417c-1.927,9.414-3.721,18.863-5.985,28.197
	c-2.242,9.239-4.983,18.358-7.506,27.53"/>
<path fill-rule="evenodd" clip-rule="evenodd" fill="none" stroke="#000000" stroke-width="2" stroke-linecap="round" stroke-linejoin="round" stroke-miterlimit="10" d="
	M323.083,231.363c-0.382,4.892-0.741,9.785-1.155,14.674c-0.259,3.061-0.671,6.11-0.892,9.174
	c-0.297,4.123-0.476,8.253-0.705,12.381"/>
<path fill-rule="evenodd" clip-rule="evenodd" fill="none" stroke="#000000" stroke-width="2" stroke-linecap="round" stroke-linejoin="round" stroke-miterlimit="10" d="
	M115.796,284.331c1.605,0.153,3.208,0.326,4.815,0.455c4.891,0.393,9.791,1.146,14.672,1.046c5.042-0.104,10.071,0.992,15.162-0.248
	c2.759-0.672,5.783-0.323,8.688-0.315c2.262,0.007,4.396-0.243,6.447-1.347c0.834-0.449,1.982-0.568,2.951-0.472
	c5.435,0.538,10.844,1.45,16.288,1.732c6.788,0.354,13.605,0.398,20.403,0.246c6.808-0.153,13.606-0.726,20.41-1.081
	c0.758-0.039,1.528,0.138,2.292,0.214"/>
<path fill-rule="evenodd" clip-rule="evenodd" fill="none" stroke="#000000" stroke-width="2" stroke-linecap="round" stroke-linejoin="round" stroke-miterlimit="10" d="
	M420.306,172.204c-2.813,3.909-6.366,7.212-8.567,11.653c-2.229,4.494-2.627,9.083,1.207,12.905
	c2.564,2.556,4.952,5.295,7.331,8.029c0.51,0.586,0.641,1.502,0.946,2.267"/>
<path fill-rule="evenodd" clip-rule="evenodd" fill="none" stroke="#000000" stroke-width="2" stroke-linecap="round" stroke-linejoin="round" stroke-miterlimit="10" d="
	M388.892,125.656c0.459,1.07,1.251,2.12,1.318,3.213c0.288,4.731,0.467,9.474,0.495,14.213c0.065,11.006-0.025,22.013,0.042,33.019
	c0.03,5.045,0.324,10.089,0.419,15.135c0.038,2.061-0.134,4.127-0.211,6.19"/>
<path fill-rule="evenodd" clip-rule="evenodd" fill="none" stroke="#000000" stroke-width="2" stroke-linecap="round" stroke-linejoin="round" stroke-miterlimit="10" d="
	M612.917,26.37c-3.35,0.644-6.699,0.496-10.093,0.286c-3.959-0.244-7.955-0.233-11.917-0.012c-4.826,0.27-9.632,0.893-14.45,1.316
	c-1.138,0.1-2.293-0.026-3.438,0.022c-3.059,0.13-6.141,0.623-9.168,0.387c-7.641-0.595-15.129,1.213-22.705,1.157
	c-6.881-0.051-13.758-0.569-20.638-0.841c-0.528-0.021-1.069,0.283-1.604,0.436"/>
<path fill-rule="evenodd" clip-rule="evenodd" fill="none" stroke="#000000" stroke-width="2" stroke-linecap="round" stroke-linejoin="round" stroke-miterlimit="10" d="
	M541.834,67.644c0,6.955,0.058,13.911-0.014,20.866c-0.098,9.555-0.219,19.11-0.476,28.662c-0.124,4.591-0.563,9.174-0.89,13.759
	c-0.442,6.192-0.718,12.405-1.431,18.567c-0.641,5.535-1.818,11.006-2.675,16.519c-0.412,2.658-0.694,5.342-0.922,8.024
	c-0.502,5.882-1.19,11.764-1.326,17.656c-0.181,7.867,0.18,15.744,0.141,23.616c-0.039,7.95-0.118,15.906-0.507,23.844
	c-0.174,3.537-1.121,7.041-1.803,10.543c-0.071,0.366-0.723,0.62-1.104,0.925"/>
<path fill-rule="evenodd" clip-rule="evenodd" fill="none" stroke="#000000" stroke-width="2" stroke-linecap="round" stroke-linejoin="round" stroke-miterlimit="10" d="
	M614.98,305.656c-7.872,2.675-15.747,5.343-23.616,8.028c-3.98,1.358-7.962,2.718-11.914,4.154
	c-0.688,0.249-1.233,0.888-1.845,1.346"/>
<path fill-rule="evenodd" clip-rule="evenodd" fill="none" stroke="#000000" stroke-width="2" stroke-linecap="round" stroke-linejoin="round" stroke-miterlimit="10" d="
	M434.752,275.618c1.258-3.335,3.105-6.3,5.479-8.964c0.477-0.536,1.072-1.542,0.871-2.011c-1.315-3.062-2.331-6.394-5.662-8.057
	c-3.603-1.798-6.843-0.449-9.815,1.446c-1.404,0.895-2.361,2.509-3.479,3.833c-2.067,2.448-4.57,4.135-7.803,4.572
	c-0.525,0.071-1.102-0.107-1.599,0.03c-2.127,0.587-4.004,0.494-5.518-2.553c1.276-3.551,2.831-7.843,4.357-12.146
	c0.29-0.819,0.358-1.729,0.723-2.507c0.515-1.097,1.327-1.906,2.726-1.617"/>
<path fill-rule="evenodd" clip-rule="evenodd" fill="none" stroke="#000000" stroke-width="2" stroke-linecap="round" stroke-linejoin="round" stroke-miterlimit="10" d="
	M581.503,317.351c0.488,1.096,0.208,2.159-0.727,2.682c-0.55,0.307-1.622,0.147-2.23-0.2c-2.401-1.373-4.695-0.248-6.887,0.329
	c-5.703,1.505-11.318,3.336-16.987,4.974c-3.651,1.056-7.332,2.007-11.007,2.98c-0.354,0.094-0.755,0.012-1.299-0.438
	c0.434-0.309,0.868-0.617,1.303-0.926"/>
<path fill-rule="evenodd" clip-rule="evenodd" fill="none" stroke="#000000" stroke-width="2" stroke-linecap="round" stroke-linejoin="round" stroke-miterlimit="10" d="
	M531.745,285.478c-0.652-3.048-1.305-6.097-2.018-9.428c-3.646,0.23-7.466,0.441-11.28,0.727c-2.146,0.161-4.281,0.446-6.422,0.675"
	/>
<path fill-rule="evenodd" clip-rule="evenodd" fill="none" stroke="#000000" stroke-width="2" stroke-linecap="round" stroke-linejoin="round" stroke-miterlimit="10" d="
	M567.516,291.439c3.483,6.805,4.928,14.376,8.031,21.322c0.726,1.623,1.523,3.213,2.287,4.818"/>
<path fill-rule="evenodd" clip-rule="evenodd" fill="none" stroke="#000000" stroke-width="2" stroke-linecap="round" stroke-linejoin="round" stroke-miterlimit="10" d="
	M464.561,260.255c0.229,8.102,0.46,16.204,0.678,24.306c0.004,0.15-0.143,0.306-0.219,0.459"/>
<path fill-rule="evenodd" clip-rule="evenodd" fill="none" stroke="#000000" stroke-width="2" stroke-linecap="round" stroke-linejoin="round" stroke-miterlimit="10" d="
	M452.179,146.981c-2.079,0.215-2.625,2.023-3.399,3.461c-0.673,1.251-1.439,2.112-2.768,2.778c-4.923,2.471-5.534,4.069-3.912,9.35
	c0.546,1.778,1.181,3.531,1.831,5.274c1.153,3.094,1.307,3.15,4.35,2.068c0.456-0.162,0.917-0.307,1.376-0.46"/>
<path fill-rule="evenodd" clip-rule="evenodd" fill="none" stroke="#000000" stroke-width="2" stroke-linecap="round" stroke-linejoin="round" stroke-miterlimit="10" d="
	M445.987,152.713c-6.751-4.351-12.875-1.49-15.638,4.795c-1.262,2.869-3.012,5.523-4.541,8.274"/>
<path fill-rule="evenodd" clip-rule="evenodd" fill="none" stroke="#000000" stroke-width="2" stroke-linecap="round" stroke-linejoin="round" stroke-miterlimit="10" d="
	M626.217,247.414c-3.21,0.688-6.463,1.222-9.621,2.1c-4.834,1.343-9.792,0.899-14.681,1.378c-4.375,0.428-8.705,1.303-13.078,1.757
	c-3.343,0.347-6.735,0.208-10.082,0.529c-5.133,0.491-10.248,1.167-15.365,1.81c-4.591,0.577-9.159,1.368-13.763,1.787
	c-5.258,0.479-10.559,0.504-15.813,1.008c-3.617,0.347-7.169,1.392-10.787,1.719c-3.336,0.302-6.721,0.064-10.084,0.064"/>
<path fill-rule="evenodd" clip-rule="evenodd" fill="none" stroke="#000000" stroke-width="2" stroke-linecap="round" stroke-linejoin="round" stroke-miterlimit="10" d="
	M453.439,259.567c0.268,1.682,0.455,3.38,0.817,5.042c1.184,5.435,2.406,10.862,3.681,16.277c0.19,0.81,0.737,1.535,1.12,2.299"/>
<path fill-rule="evenodd" clip-rule="evenodd" fill="none" stroke="#000000" stroke-width="2" stroke-linecap="round" stroke-linejoin="round" stroke-miterlimit="10" d="
	M138.268,63.287c0.076,13.452,0.103,26.905,0.257,40.356c0.051,4.435,0.431,8.867,0.66,13.3"/>
<path fill-rule="evenodd" clip-rule="evenodd" fill="none" stroke="#000000" stroke-width="2" stroke-linecap="round" stroke-linejoin="round" stroke-miterlimit="10" d="
	M460.204,260.255c0.13,7.934,0.855,15.811,2.293,23.618"/>
<path fill-rule="evenodd" clip-rule="evenodd" fill="none" stroke="#000000" stroke-width="2" stroke-linecap="round" stroke-linejoin="round" stroke-miterlimit="10" d="
	M474.649,166.701c0.688,2.751,1.354,5.509,2.069,8.253c1.14,4.371,1.856,8.837,1.037,13.281c-0.387,2.099-1.643,4.168-2.929,5.943
	c-2.419,3.34-5.162,6.445-7.731,9.679c-0.549,0.692-0.93,1.519-1.389,2.283"/>
<path fill-rule="evenodd" clip-rule="evenodd" fill="none" stroke="#000000" stroke-width="2" stroke-linecap="round" stroke-linejoin="round" stroke-miterlimit="10" d="
	M472.127,27.975c-7.643,0.229-15.286,0.458-22.93,0.688"/>
<path fill-rule="evenodd" clip-rule="evenodd" fill="none" stroke="#000000" stroke-width="2" stroke-linecap="round" stroke-linejoin="round" stroke-miterlimit="10" d="
	M619.338,115.337c0.229,9.937,0.494,19.872,0.676,29.809c0.137,7.49,0.204,14.981,0.226,22.471
	c0.012,4.127-0.289,8.259-0.174,12.381c0.132,4.667,0.817,9.326,0.818,13.988c0.002,6.649-0.417,13.299-0.622,19.949
	c-0.114,3.667-0.034,7.345-0.266,11.004c-0.345,5.434-0.892,10.855-1.344,16.282c-0.096,1.145-0.155,2.293-0.232,3.439"/>
<path fill-rule="evenodd" clip-rule="evenodd" fill="none" stroke="#000000" stroke-width="2" stroke-linecap="round" stroke-linejoin="round" stroke-miterlimit="10" d="
	M415.032,266.446c-0.535,3.516-1.132,7.024-1.585,10.55c-0.333,2.585-0.448,5.198-0.716,7.793
	c-0.433,4.206-0.996,8.401-1.334,12.615c-0.189,2.356-0.034,4.74-0.034,7.335c1.682,0,3.175,0.196,4.566-0.095
	c0.577-0.12,1.267-1.247,1.342-1.975c0.49-4.735,1.871-9.382,1.456-14.214c-0.045-0.518,0.278-1.067,0.432-1.603"/>
<path fill-rule="evenodd" clip-rule="evenodd" fill="none" stroke="#000000" stroke-width="2" stroke-linecap="round" stroke-linejoin="round" stroke-miterlimit="10" d="
	M539.541,302.904c1.605,5.351,3.214,10.7,4.813,16.052c0.548,1.831,1.072,3.668,1.607,5.503"/>
<path fill-rule="evenodd" clip-rule="evenodd" fill="none" stroke="#000000" stroke-width="2" stroke-linecap="round" stroke-linejoin="round" stroke-miterlimit="10" d="
	M236.866,171.287c-0.458,6.65-0.971,13.296-1.361,19.95c-0.444,7.563-0.769,15.134-1.167,22.7c-0.109,2.066-0.299,4.127-0.452,6.191
	"/>
<path fill-rule="evenodd" clip-rule="evenodd" fill="none" stroke="#000000" stroke-width="2" stroke-linecap="round" stroke-linejoin="round" stroke-miterlimit="10" d="
	M390.727,279.975c-1.383,0.086-2.766,0.173-4.447,0.279c0.188,5.381,0.416,10.576,0.527,15.773c0.051,2.366-0.155,4.737-0.194,7.107
	c-0.012,0.763,0.14,1.528,0.216,2.293"/>
<path fill-rule="evenodd" clip-rule="evenodd" fill="none" stroke="#000000" stroke-width="2" stroke-linecap="round" stroke-linejoin="round" stroke-miterlimit="10" d="
	M469.605,145.376c1.087,0.938,0.571,2.344,0.986,3.412c0.837,2.154,2.098,4.141,3.131,6.224c0.592,1.194,1.243,2.401,1.553,3.679
	c0.185,0.759,0.034,1.896-0.441,2.47c-3.039,3.661-6.211,7.213-8.818,10.205c-3.082,0.543-3.65-1.415-4.665-2.83"/>
<path fill-rule="evenodd" clip-rule="evenodd" fill="none" stroke="#000000" stroke-width="2" stroke-linecap="round" stroke-linejoin="round" stroke-miterlimit="10" d="
	M470.522,271.261c0.458,2.14,1.035,4.263,1.349,6.424c0.485,3.348,0.852,6.717,1.143,10.088c0.111,1.283-0.122,2.596-0.198,3.896"/>
<path fill-rule="evenodd" clip-rule="evenodd" fill="none" stroke="#000000" stroke-width="2" stroke-linecap="round" stroke-linejoin="round" stroke-miterlimit="10" d="
	M621.172,7.567c-0.152,4.204-0.343,8.407-0.445,12.612c-0.068,2.826-0.014,5.656-0.014,8.484"/>
<path fill-rule="evenodd" clip-rule="evenodd" fill="none" stroke="#000000" stroke-width="2" stroke-linecap="round" stroke-linejoin="round" stroke-miterlimit="10" d="
	M444.611,336.841c-0.554-0.734-1.106-1.469-1.66-2.203c-0.234,0.014-0.469,0.027-0.703,0.042c-0.358,2.249-0.746,4.494-1.068,6.748
	c-0.319,2.241,1.734,4.333,0.493,7.05c-0.677-1.013-1.162-1.738-1.647-2.465"/>
<path fill-rule="evenodd" clip-rule="evenodd" fill="none" stroke="#000000" stroke-width="2" stroke-linecap="round" stroke-linejoin="round" stroke-miterlimit="10" d="
	M472.815,228.153c1.432,0.956,1.689,2.443,1.331,3.887c-0.566,2.283-0.237,4.822-1.979,6.812c-0.426,0.487-0.715,1.627-0.44,2.109
	c2.018,3.534-0.195,7.063,0.11,10.586c0.13,1.498-0.533,3.047-0.59,4.583c-0.058,1.56-0.652,2.785-1.643,3.896"/>
<path fill-rule="evenodd" clip-rule="evenodd" fill="none" stroke="#000000" stroke-width="2" stroke-linecap="round" stroke-linejoin="round" stroke-miterlimit="10" d="
	M418.472,268.51c-0.077,3.821-0.665,7.73-0.033,11.431c0.365,2.135,0.928,4.25,0.95,6.454"/>
<path fill-rule="evenodd" clip-rule="evenodd" fill="none" stroke="#000000" stroke-width="2" stroke-linecap="round" stroke-linejoin="round" stroke-miterlimit="10" d="
	M633.325,299.007c-6.308,1.287-11.999,4.229-17.886,6.649"/>
<path fill-rule="evenodd" clip-rule="evenodd" fill="none" stroke="#000000" stroke-width="2" stroke-linecap="round" stroke-linejoin="round" stroke-miterlimit="10" d="
	M495.975,26.828c-4.356,0.076-8.721,0.031-13.068,0.27c-3.145,0.173-6.27,0.724-9.403,1.105"/>
<path fill-rule="evenodd" clip-rule="evenodd" fill="none" stroke="#000000" stroke-width="2" stroke-linecap="round" stroke-linejoin="round" stroke-miterlimit="10" d="
	M498.727,261.86c-4.51-0.306-9.018-0.646-13.529-0.906c-3.59-0.207-7.184-0.373-10.777-0.445c-1.758-0.036-3.52,0.183-5.044,0.272
	c0,4.366-0.237,8.587,0.063,12.769c0.336,4.682,1.162,9.329,1.759,13.993c0.018,0.141-0.141,0.304-0.218,0.457"/>
<path fill-rule="evenodd" clip-rule="evenodd" fill="none" stroke="#000000" stroke-width="2" stroke-linecap="round" stroke-linejoin="round" stroke-miterlimit="10" d="
	M421.452,264.382c0.153,0.535,0.569,1.163,0.418,1.591c-1.556,4.396-1.952,8.926-1.817,13.543c0.018,0.606-0.282,1.222-0.435,1.833"
	/>
<path fill-rule="evenodd" clip-rule="evenodd" fill="none" stroke="#000000" stroke-width="2" stroke-linecap="round" stroke-linejoin="round" stroke-miterlimit="10" d="
	M627.593,279.057c1.212,5.858,3.396,11.401,5.503,16.968"/>
<path fill-rule="evenodd" clip-rule="evenodd" fill="none" stroke="#000000" stroke-width="2" stroke-linecap="round" stroke-linejoin="round" stroke-miterlimit="10" d="
	M233.885,222.42c-0.382,5.962-0.74,11.925-1.153,17.885c-0.429,6.193-1.1,12.376-1.313,18.576
	c-0.191,5.57,0.098,11.157,0.171,16.737c0.009,0.688,0.001,1.376,0.001,2.064"/>
<path fill-rule="evenodd" clip-rule="evenodd" fill="none" stroke="#000000" stroke-width="2" stroke-linecap="round" stroke-linejoin="round" stroke-miterlimit="10" d="
	M348.535,293.045c3.725,5.085,6.813,10.529,9.458,16.254c0.611,1.323,1.931,2.319,2.924,3.466"/>
<path fill-rule="evenodd" clip-rule="evenodd" fill="none" stroke="#000000" stroke-width="2" stroke-linecap="round" stroke-linejoin="round" stroke-miterlimit="10" d="
	M517.987,28.663c-4.586-0.382-9.17-0.798-13.759-1.132c-2.211-0.161-4.433-0.154-6.648-0.263c-0.236-0.012-0.459-0.287-0.688-0.439"
	/>
<path fill-rule="evenodd" clip-rule="evenodd" fill="none" stroke="#000000" stroke-width="2" stroke-linecap="round" stroke-linejoin="round" stroke-miterlimit="10" d="
	M391.873,264.611c4.034,0.524,8.019,1.614,12.155,0.937c1.097-0.179,2.261-0.17,2.52,1.356"/>
<path fill-rule="evenodd" clip-rule="evenodd" fill="none" stroke="#000000" stroke-width="2" stroke-linecap="round" stroke-linejoin="round" stroke-miterlimit="10" d="
	M441.86,205.682c0.764-3.287,1.453-6.594,2.334-9.849c0.303-1.117,0.05-1.673-0.963-1.817c-0.873-0.125-1.855-0.196-2.067,1.116
	c-0.433,2.68-0.903,5.353-1.37,8.026c-0.384,2.203-0.975,2.542,2.295,2.565c2.447,0.017,4.889,0.469,7.339,0.635
	c5.042,0.342,10.089,0.609,15.133,0.937c1.531,0.1,3.117,0.104,4.557,0.547c0.563,0.174,0.955,1.397,1.133,2.206
	c0.191,0.875,0.043,1.825,0.043,2.742"/>
<path fill-rule="evenodd" clip-rule="evenodd" fill="none" stroke="#000000" stroke-width="2" stroke-linecap="round" stroke-linejoin="round" stroke-miterlimit="10" d="
	M441.631,266.675c0.688,1.987,1.624,3.927,2.013,5.971c0.852,4.479,1.421,9.01,2.116,13.519c0.448,2.906,0.78,5.839,1.411,8.706
	c0.663,3.011,3.061,4.941,5.042,7.084c0.285,0.308,1.051,0.308,1.568,0.242c4.815-0.604,9.251-2.358,13.537-4.555
	c0.334-0.171,0.758-0.165,1.141-0.241"/>
<path fill-rule="evenodd" clip-rule="evenodd" fill="none" stroke="#000000" stroke-width="2" stroke-linecap="round" stroke-linejoin="round" stroke-miterlimit="10" d="
	M435.21,315.516c-4.076,2.221-8.348,3.758-13.069,3.66c-0.613-0.013-1.224-0.144-1.835-0.221"/>
<path fill-rule="evenodd" clip-rule="evenodd" fill="none" stroke="#000000" stroke-width="2" stroke-linecap="round" stroke-linejoin="round" stroke-miterlimit="10" d="
	M389.809,333.172c0.765,3.058,1.387,6.159,2.33,9.16c1.104,3.513,2.864,6.702,5.695,9.184"/>
<path fill-rule="evenodd" clip-rule="evenodd" fill="none" stroke="#000000" stroke-width="2" stroke-linecap="round" stroke-linejoin="round" stroke-miterlimit="10" d="
	M470.98,213.478c0.688,3.745,1.506,7.474,1.987,11.246c0.149,1.172,1.082,3.251-1.528,3.43"/>
<path fill-rule="evenodd" clip-rule="evenodd" fill="none" stroke="#000000" stroke-width="2" stroke-linecap="round" stroke-linejoin="round" stroke-miterlimit="10" d="
	M379.261,333.859c2.37,4.815,4.739,9.631,7.108,14.446"/>
<path fill-rule="evenodd" clip-rule="evenodd" fill="none" stroke="#000000" stroke-width="2" stroke-linecap="round" stroke-linejoin="round" stroke-miterlimit="10" d="
	M419.618,286.854c0.306,1.452,0.85,2.899,0.878,4.357c0.157,8.253,0.468,16.52,0.142,24.759c-0.144,3.633-1.817,7.104-4.19,10.126
	c-1.733,2.208-3.097,4.707-4.626,7.076"/>
<path fill-rule="evenodd" clip-rule="evenodd" fill="none" stroke="#000000" stroke-width="2" stroke-linecap="round" stroke-linejoin="round" stroke-miterlimit="10" d="
	M448.968,245.351c0.688,2.446,1.327,4.907,2.079,7.333c0.612,1.973,1.125,4.035,2.122,5.811c0.817,1.455,3.139,1.538,4.266,0.369
	c3.716-3.854,7.454-7.693,10.975-11.721c1.372-1.57,2.189-3.625,3.26-5.46"/>
<path fill-rule="evenodd" clip-rule="evenodd" fill="none" stroke="#000000" stroke-width="2" stroke-linecap="round" stroke-linejoin="round" stroke-miterlimit="10" d="
	M139.644,15.822c-0.382,4.433-0.913,8.86-1.105,13.301c-0.191,4.425-0.042,8.864-0.042,13.297"/>
<path fill-rule="evenodd" clip-rule="evenodd" fill="none" stroke="#000000" stroke-width="2" stroke-linecap="round" stroke-linejoin="round" stroke-miterlimit="10" d="
	M382.7,115.108c-0.764,0.611-1.703,1.096-2.258,1.859c-1.331,1.833-2.554,3.755-3.67,5.726c-0.501,0.883-1.033,2.039-0.869,2.947
	c0.333,1.846,1.037,3.508,0.563,5.561c-0.167,0.726,1.802,1.944,2.795,2.938"/>
<path fill-rule="evenodd" clip-rule="evenodd" fill="none" stroke="#000000" stroke-width="2" stroke-linecap="round" stroke-linejoin="round" stroke-miterlimit="10" d="
	M495.516,276.535c-2.063,0.458-4.12,0.952-6.195,1.355c-0.662,0.129-1.372-0.003-2.059,0.024c-3.67,0.145-7.338,0.302-11.007,0.455"
	/>
<path fill-rule="evenodd" clip-rule="evenodd" fill="none" stroke="#000000" stroke-width="2" stroke-linecap="round" stroke-linejoin="round" stroke-miterlimit="10" d="
	M489.096,335.924c-4.434,1.299-8.869,2.588-13.297,3.908c-0.785,0.234-1.531,0.602-2.296,0.907"/>
<path fill-rule="evenodd" clip-rule="evenodd" fill="none" stroke="#000000" stroke-width="2" stroke-linecap="round" stroke-linejoin="round" stroke-miterlimit="10" d="
	M450.114,306.114c0.918,3.975,1.835,7.949,2.752,11.924"/>
<path fill-rule="evenodd" clip-rule="evenodd" fill="none" stroke="#000000" stroke-width="2" stroke-linecap="round" stroke-linejoin="round" stroke-miterlimit="10" d="
	M419.618,225.401c1.129,1.063,1.472,2.235,1.474,3.898c0.006,3.634,0.973,7.144,2.883,10.318"/>
<path fill-rule="evenodd" clip-rule="evenodd" fill="none" stroke="#000000" stroke-width="2" stroke-linecap="round" stroke-linejoin="round" stroke-miterlimit="10" d="
	M458.599,284.79c-1.911,0.917-3.786,1.921-5.742,2.727c-1.941,0.8-3.965,1.4-5.952,2.089"/>
<path fill-rule="evenodd" clip-rule="evenodd" fill="none" stroke="#000000" stroke-width="2" stroke-linecap="round" stroke-linejoin="round" stroke-miterlimit="10" d="
	M376.051,127.49c-2.064,1.465-2.723,3.911-1.605,5.962c0.802,1.473,2.805,2.122,4.355,1.371c2.191-1.062,3.765-2.779,5.061-4.801
	c0.285-0.444,0.75-0.773,1.132-1.156"/>
<path fill-rule="evenodd" clip-rule="evenodd" fill="none" stroke="#000000" stroke-width="2" stroke-linecap="round" stroke-linejoin="round" stroke-miterlimit="10" d="
	M502.166,124.28c-0.765,0.611-1.743,1.083-2.252,1.861c-1.346,2.06-2.976,4.131-3.552,6.433c-0.442,1.765-0.961,3.398-1.706,5.031
	c-0.163,0.356,0.252,1.269,0.658,1.537c1.223,0.805,2.57,1.418,3.87,2.106"/>
<path fill-rule="evenodd" clip-rule="evenodd" fill="none" stroke="#000000" stroke-width="2" stroke-linecap="round" stroke-linejoin="round" stroke-miterlimit="10" d="
	M494.599,295.108c0.306,0.993,0.647,1.978,0.91,2.982c0.859,3.282,1.722,6.564,2.471,9.872c0.063,0.281-0.706,0.751-1.088,1.133"/>
<path fill-rule="evenodd" clip-rule="evenodd" fill="none" stroke="#000000" stroke-width="2" stroke-linecap="round" stroke-linejoin="round" stroke-miterlimit="10" d="
	M468.917,102.268c-0.688,0.382-1.661,0.592-2.013,1.177c-1.394,2.313-3.72,2.991-6.021,3.604c-3.123,0.833-5.392,2.989-7.702,4.949
	c-0.901,0.764-0.883,2.644-1.217,4.031c-0.161,0.667-0.168,1.372-0.244,2.06"/>
<path fill-rule="evenodd" clip-rule="evenodd" fill="none" stroke="#000000" stroke-width="2" stroke-linecap="round" stroke-linejoin="round" stroke-miterlimit="10" d="
	M346.013,296.255c0.841,1.987,1.629,3.999,2.539,5.954c0.763,1.642,1.665,3.218,2.506,4.823"/>
<path fill-rule="evenodd" clip-rule="evenodd" fill="none" stroke="#000000" stroke-width="2" stroke-linecap="round" stroke-linejoin="round" stroke-miterlimit="10" d="
	M445.987,238.93c-1.893-6.002-7.838-8.031-13.273-5.448c-5.193,2.469-9.667,5.993-13.123,10.703c-0.496,0.676-1.4,1.036-2.023,1.638
	c-0.816,0.787-1.572,1.643-2.299,2.515c-0.974,1.171-1.179,3.103-3.218,3.204"/>
<path fill-rule="evenodd" clip-rule="evenodd" fill="none" stroke="#000000" stroke-width="2" stroke-linecap="round" stroke-linejoin="round" stroke-miterlimit="10" d="
	M462.497,307.032c0.917,3.362,1.834,6.726,2.751,10.089"/>
<path fill-rule="evenodd" clip-rule="evenodd" fill="none" stroke="#000000" stroke-width="2" stroke-linecap="round" stroke-linejoin="round" stroke-miterlimit="10" d="
	M748.662,12.611c2.153-0.205,4.307-0.41,6.421-0.612c0-1.987,0-3.439,0-4.891"/>
<path fill-rule="evenodd" clip-rule="evenodd" fill="none" stroke="#000000" stroke-width="2" stroke-linecap="round" stroke-linejoin="round" stroke-miterlimit="10" d="
	M747.975,3.21c-2.094-1.357-4.471-1.726-6.88-1.806c-1.692-0.056-2.666,1.144-3.438,2.494"/>
<path fill-rule="evenodd" clip-rule="evenodd" fill="none" stroke="#000000" stroke-width="2" stroke-linecap="round" stroke-linejoin="round" stroke-miterlimit="10" d="
	M624.611,268.28c0.841,3.287,1.682,6.573,2.522,9.86"/>
<path fill-rule="evenodd" clip-rule="evenodd" fill="none" stroke="#000000" stroke-width="2" stroke-linecap="round" stroke-linejoin="round" stroke-miterlimit="10" d="
	M541.146,42.42c-0.076,3.21-0.153,6.42-0.229,9.63"/>
<path fill-rule="evenodd" clip-rule="evenodd" fill="none" stroke="#000000" stroke-width="2" stroke-linecap="round" stroke-linejoin="round" stroke-miterlimit="10" d="
	M421.452,227.694c1.3,1.834,2.696,3.609,3.86,5.526c0.667,1.097,0.955,2.423,1.414,3.646"/>
<path fill-rule="evenodd" clip-rule="evenodd" fill="none" stroke="#000000" stroke-width="2" stroke-linecap="round" stroke-linejoin="round" stroke-miterlimit="10" d="
	M542.293,328.356c-3.21,0.765-6.42,1.529-9.631,2.293"/>
<path fill-rule="evenodd" clip-rule="evenodd" fill="none" stroke="#000000" stroke-width="2" stroke-linecap="round" stroke-linejoin="round" stroke-miterlimit="10" d="
	M437.503,205.911c-2.675,0.382-5.339,0.924-8.028,1.107c-3.505,0.239-7.029,0.193-10.545,0.269"/>
<path fill-rule="evenodd" clip-rule="evenodd" fill="none" stroke="#000000" stroke-width="2" stroke-linecap="round" stroke-linejoin="round" stroke-miterlimit="10" d="
	M325.834,198.344c-0.153,3.058-0.306,6.115-0.458,9.172"/>
<path fill-rule="evenodd" clip-rule="evenodd" fill="none" stroke="#000000" stroke-width="2" stroke-linecap="round" stroke-linejoin="round" stroke-miterlimit="10" d="
	M643.644,264.382c-3.058,0.382-6.115,0.764-9.172,1.146"/>
<path fill-rule="evenodd" clip-rule="evenodd" fill="none" stroke="#000000" stroke-width="2" stroke-linecap="round" stroke-linejoin="round" stroke-miterlimit="10" d="
	M240.076,133.223c-0.305,3.057-0.611,6.115-0.917,9.172"/>
<path fill-rule="evenodd" clip-rule="evenodd" fill="none" stroke="#000000" stroke-width="2" stroke-linecap="round" stroke-linejoin="round" stroke-miterlimit="10" d="
	M457.911,238.242c-2.828,1.987-5.682,3.94-8.467,5.985c-0.726,0.533-1.24,1.353-1.852,2.041"/>
<path fill-rule="evenodd" clip-rule="evenodd" fill="none" stroke="#000000" stroke-width="2" stroke-linecap="round" stroke-linejoin="round" stroke-miterlimit="10" d="
	M440.942,303.821c-0.877-1.628-1.754-3.256-2.862-5.312c-0.386,0.785-0.791,1.222-0.775,1.642c0.143,3.829,1.461,7.295,3.408,10.549
	"/>
<path fill-rule="evenodd" clip-rule="evenodd" fill="none" stroke="#000000" stroke-width="2" stroke-linecap="round" stroke-linejoin="round" stroke-miterlimit="10" d="
	M458.828,335.007c0.688,2.293,1.401,4.578,2.047,6.883c0.185,0.658,0.17,1.371,0.246,2.06"/>
<path fill-rule="evenodd" clip-rule="evenodd" fill="none" stroke="#000000" stroke-width="2" stroke-linecap="round" stroke-linejoin="round" stroke-miterlimit="10" d="
	M504.917,138.038c-0.869,1.616-0.964,3.194-0.555,5.066c0.431,1.969,0.097,4.106,0.097,6.17"/>
<path fill-rule="evenodd" clip-rule="evenodd" fill="none" stroke="#000000" stroke-width="2" stroke-linecap="round" stroke-linejoin="round" stroke-miterlimit="10" d="
	M448.28,152.255c2.623,2.342,3.022,5.907,4.771,8.74c0.652,1.056,1.174,2.444,1.09,3.635c-0.088,1.254-0.97,2.453-1.505,3.676"/>
<path fill-rule="evenodd" clip-rule="evenodd" fill="none" stroke="#000000" stroke-width="2" stroke-linecap="round" stroke-linejoin="round" stroke-miterlimit="10" d="
	M450.344,119.236c-1.364,2.713-2.229,5.481-0.917,8.484"/>
<path fill-rule="evenodd" clip-rule="evenodd" fill="none" stroke="#000000" stroke-width="2" stroke-linecap="round" stroke-linejoin="round" stroke-miterlimit="10" d="
	M438.191,343.72c-0.847-1.124-1.692-2.247-2.673-3.549c-0.753,3.232,1.033,7.251,3.59,8.594"/>
<path fill-rule="evenodd" clip-rule="evenodd" fill="none" stroke="#000000" stroke-width="2" stroke-linecap="round" stroke-linejoin="round" stroke-miterlimit="10" d="
	M450.573,334.548c0.076,1.605,0.259,3.214,0.193,4.813c-0.047,1.154-0.423,2.295-0.652,3.441"/>
<path fill-rule="evenodd" clip-rule="evenodd" fill="none" stroke="#000000" stroke-width="2" stroke-linecap="round" stroke-linejoin="round" stroke-miterlimit="10" d="
	M383.389,115.567c1.07,1.834,2.138,3.67,3.211,5.502c0.451,0.769,0.916,1.529,1.375,2.294"/>
<path fill-rule="evenodd" clip-rule="evenodd" fill="none" stroke="#000000" stroke-width="2" stroke-linecap="round" stroke-linejoin="round" stroke-miterlimit="10" d="
	M459.975,285.478c-0.136-0.464-0.271-0.928-0.404-1.383c2.449-0.326,7.759,1.602,10.034,3.677c0.999,0.911,1.988,1.834,2.981,2.751"
	/>
<path fill-rule="evenodd" clip-rule="evenodd" fill="none" stroke="#000000" stroke-width="2" stroke-linecap="round" stroke-linejoin="round" stroke-miterlimit="10" d="
	M568.892,312.306c0.229,0.076,0.65,0.134,0.66,0.232c0.307,3.079,2.743,4.666,4.614,6.646"/>
<path fill-rule="evenodd" clip-rule="evenodd" fill="none" stroke="#000000" stroke-width="2" stroke-linecap="round" stroke-linejoin="round" stroke-miterlimit="10" d="
	M570.268,286.854c1.528,2.599,3.058,5.197,4.586,7.796"/>
<path fill-rule="evenodd" clip-rule="evenodd" fill="none" stroke="#000000" stroke-width="2" stroke-linecap="round" stroke-linejoin="round" stroke-miterlimit="10" d="
	M460.204,129.325c-1.376-0.229-2.751-0.464-4.128-0.686c-1.303-0.21-2.607-0.407-3.718-0.58c0.235,1.943,0.628,4.007,0.699,6.083
	c0.078,2.292-0.004,4.559,1.16,6.662c0.244,0.442,0.374,1.122,0.223,1.582c-1.244,3.763-2.564,7.501-3.881,11.241
	c-0.041,0.116-0.292,0.158-0.445,0.234"/>
<path fill-rule="evenodd" clip-rule="evenodd" fill="none" stroke="#000000" stroke-width="2" stroke-linecap="round" stroke-linejoin="round" stroke-miterlimit="10" d="
	M335.924,105.019c-0.153,1.146,0.073,2.581-0.535,3.381c-1.406,1.852-1.467,3.934-1.758,6.02"/>
<path fill-rule="evenodd" clip-rule="evenodd" fill="none" stroke="#000000" stroke-width="2" stroke-linecap="round" stroke-linejoin="round" stroke-miterlimit="10" d="
	M468.459,144.688c-1.759,0.306-3.541,0.513-5.269,0.94c-2.749,0.678-4.958-0.13-6.901-2.07c-0.421-0.42-1.054-0.628-1.589-0.934"/>
<path fill-rule="evenodd" clip-rule="evenodd" fill="none" stroke="#000000" stroke-width="2" stroke-linecap="round" stroke-linejoin="round" stroke-miterlimit="10" d="
	M427.644,240.764c-1.758,0.917-3.498,1.872-5.283,2.733c-0.71,0.342-1.52,0.477-2.284,0.706"/>
<path fill-rule="evenodd" clip-rule="evenodd" fill="none" stroke="#000000" stroke-width="2" stroke-linecap="round" stroke-linejoin="round" stroke-miterlimit="10" d="
	M461.351,254.293c-2.522,1.452-5.045,2.905-7.567,4.357"/>
<path fill-rule="evenodd" clip-rule="evenodd" fill="none" stroke="#000000" stroke-width="2" stroke-linecap="round" stroke-linejoin="round" stroke-miterlimit="10" d="
	M374.675,142.854c-0.077,2.446-0.153,4.892-0.229,7.337"/>
<path fill-rule="evenodd" clip-rule="evenodd" fill="none" stroke="#000000" stroke-width="2" stroke-linecap="round" stroke-linejoin="round" stroke-miterlimit="10" d="
	M540.917,3.898c0,2.217,0,4.433,0,6.65c0,2.522,0,5.044,0,7.567"/>
<path fill-rule="evenodd" clip-rule="evenodd" fill="none" stroke="#000000" stroke-width="2" stroke-linecap="round" stroke-linejoin="round" stroke-miterlimit="10" d="
	M495.745,150.191c0.076,2.446,0.153,4.892,0.229,7.338"/>
<path fill-rule="evenodd" clip-rule="evenodd" fill="none" stroke="#000000" stroke-width="2" stroke-linecap="round" stroke-linejoin="round" stroke-miterlimit="10" d="
	M540.917,19.949c0,3.21,0,6.42,0,9.63"/>
<path fill-rule="evenodd" clip-rule="evenodd" fill="none" stroke="#000000" stroke-width="2" stroke-linecap="round" stroke-linejoin="round" stroke-miterlimit="10" d="
	M141.019,0.688c-0.306,2.904-0.611,5.809-0.917,8.713"/>
<path fill-rule="evenodd" clip-rule="evenodd" fill="none" stroke="#000000" stroke-width="2" stroke-linecap="round" stroke-linejoin="round" stroke-miterlimit="10" d="
	M507.439,148.815c-1.543,0.406-3.085,0.812-4.938,1.299c-1.367-2.591-4.141-3.274-6.986-3.821"/>
<path fill-rule="evenodd" clip-rule="evenodd" fill="none" stroke="#000000" stroke-width="2" stroke-linecap="round" stroke-linejoin="round" stroke-miterlimit="10" d="
	M619.108,106.624c0.076,2.599,0.152,5.198,0.229,7.796"/>
<path fill-rule="evenodd" clip-rule="evenodd" fill="none" stroke="#000000" stroke-width="2" stroke-linecap="round" stroke-linejoin="round" stroke-miterlimit="10" d="
	M466.166,318.955c0.382,1.3,0.773,2.597,1.145,3.898c0.847,2.979,1.683,5.962,2.523,8.942"/>
<path fill-rule="evenodd" clip-rule="evenodd" fill="none" stroke="#000000" stroke-width="2" stroke-linecap="round" stroke-linejoin="round" stroke-miterlimit="10" d="
	M240.994,121.299c-0.153,2.293-0.306,4.586-0.458,6.879"/>
<path fill-rule="evenodd" clip-rule="evenodd" fill="none" stroke="#000000" stroke-width="2" stroke-linecap="round" stroke-linejoin="round" stroke-miterlimit="10" d="
	M401.962,353.351c1.677,2.554,3.354,5.108,5.031,7.663c0.323-0.172,0.646-0.343,0.97-0.514c-0.931-2.23-1.86-4.461-2.791-6.691"/>
<path fill-rule="evenodd" clip-rule="evenodd" fill="none" stroke="#000000" stroke-width="2" stroke-linecap="round" stroke-linejoin="round" stroke-miterlimit="10" d="
	M408.841,314.828c0.993,3.516,1.987,7.032,2.98,10.548"/>
<path fill-rule="evenodd" clip-rule="evenodd" fill="none" stroke="#000000" stroke-width="2" stroke-linecap="round" stroke-linejoin="round" stroke-miterlimit="10" d="
	M359.083,289.376c0.688,2.217,1.375,4.433,2.063,6.649"/>
<path fill-rule="evenodd" clip-rule="evenodd" fill="none" stroke="#000000" stroke-width="2" stroke-linecap="round" stroke-linejoin="round" stroke-miterlimit="10" d="
	M434.063,139.644c-0.152,2.216-0.306,4.433-0.458,6.649"/>
<path fill-rule="evenodd" clip-rule="evenodd" fill="none" stroke="#000000" stroke-width="2" stroke-linecap="round" stroke-linejoin="round" stroke-miterlimit="10" d="
	M470.752,334.089c0.716,2.89,1.44,5.775,3.21,8.255"/>
<path fill-rule="evenodd" clip-rule="evenodd" fill="none" stroke="#000000" stroke-width="2" stroke-linecap="round" stroke-linejoin="round" stroke-miterlimit="10" d="
	M498.038,309.325c0.535,2.14,1.07,4.28,1.605,6.42"/>
<path fill-rule="evenodd" clip-rule="evenodd" fill="none" stroke="#000000" stroke-width="2" stroke-linecap="round" stroke-linejoin="round" stroke-miterlimit="10" d="
	M490.93,284.561c0.611,2.14,1.223,4.28,1.835,6.42"/>
<path fill-rule="evenodd" clip-rule="evenodd" fill="none" stroke="#000000" stroke-width="2" stroke-linecap="round" stroke-linejoin="round" stroke-miterlimit="10" d="
	M636.306,26.37c-2.293-0.153-4.59-0.477-6.878-0.424c-5.2,0.12-10.396,0.424-15.594,0.653"/>
<path fill-rule="evenodd" clip-rule="evenodd" fill="none" stroke="#000000" stroke-width="2" stroke-linecap="round" stroke-linejoin="round" stroke-miterlimit="10" d="
	M342.803,290.98c2.751,3.669,5.503,7.338,8.254,11.007"/>
<path fill-rule="evenodd" clip-rule="evenodd" fill="none" stroke="#000000" stroke-width="2" stroke-linecap="round" stroke-linejoin="round" stroke-miterlimit="10" d="
	M470.293,105.019c2.184,1.288,2.132,3.827,3.21,5.732"/>
<path fill-rule="evenodd" clip-rule="evenodd" fill="none" stroke="#000000" stroke-width="2" stroke-linecap="round" stroke-linejoin="round" stroke-miterlimit="10" d="
	M403.108,339.363c-1.033-1.182-2.066-2.363-3.395-3.882c-0.119,1.187-0.197,1.961-0.274,2.735"/>
<path fill-rule="evenodd" clip-rule="evenodd" fill="none" stroke="#000000" stroke-width="2" stroke-linecap="round" stroke-linejoin="round" stroke-miterlimit="10" d="
	M451.261,118.204c2.193,2.431,2.26,2.453,1.35,5.151c-0.496,1.472-0.541,2.891-0.203,4.365"/>
<path fill-rule="evenodd" clip-rule="evenodd" fill="none" stroke="#000000" stroke-width="2" stroke-linecap="round" stroke-linejoin="round" stroke-miterlimit="10" d="
	M327.21,186.879c-0.153,1.987-0.306,3.975-0.458,5.962"/>
<path fill-rule="evenodd" clip-rule="evenodd" fill="none" stroke="#000000" stroke-width="2" stroke-linecap="round" stroke-linejoin="round" stroke-miterlimit="10" d="
	M380.866,140.102c0.382,1.987,0.765,3.974,1.146,5.961"/>
<path fill-rule="evenodd" clip-rule="evenodd" fill="none" stroke="#000000" stroke-width="2" stroke-linecap="round" stroke-linejoin="round" stroke-miterlimit="10" d="
	M440.025,321.02c0.917,1.91,1.835,3.821,2.752,5.732"/>
<path fill-rule="evenodd" clip-rule="evenodd" fill="none" stroke="#000000" stroke-width="2" stroke-linecap="round" stroke-linejoin="round" stroke-miterlimit="10" d="
	M138.268,42.879c0,3.21,0,6.42,0,9.631"/>
<path fill-rule="evenodd" clip-rule="evenodd" fill="none" stroke="#000000" stroke-width="2" stroke-linecap="round" stroke-linejoin="round" stroke-miterlimit="10" d="
	M650.98,244.204c-1.91,0.229-3.821,0.459-5.732,0.688"/>
<path fill-rule="evenodd" clip-rule="evenodd" fill="none" stroke="#000000" stroke-width="2" stroke-linecap="round" stroke-linejoin="round" stroke-miterlimit="10" d="
	M433.376,201.783c-1.758,1.605-3.516,3.21-5.274,4.815"/>
<path fill-rule="evenodd" clip-rule="evenodd" fill="none" stroke="#000000" stroke-width="2" stroke-linecap="round" stroke-linejoin="round" stroke-miterlimit="10" d="
	M749.121,4.127c-0.306,1.911-0.611,3.822-0.917,5.732"/>
<path fill-rule="evenodd" clip-rule="evenodd" fill="none" stroke="#000000" stroke-width="2" stroke-linecap="round" stroke-linejoin="round" stroke-miterlimit="10" d="
	M388.662,352.892c1.146,1.911,2.293,3.822,3.439,5.732"/>
<path fill-rule="evenodd" clip-rule="evenodd" fill="none" stroke="#000000" stroke-width="2" stroke-linecap="round" stroke-linejoin="round" stroke-miterlimit="10" d="
	M500.331,139.414c-0.841,1.452-1.498,3.066-2.586,4.3c-0.734,0.832-2.077,1.125-3.143,1.669c-0.031,0.016-0.031,0.161,0.003,0.218
	c0.053,0.09,0.146,0.156,0.223,0.233"/>
<path fill-rule="evenodd" clip-rule="evenodd" fill="none" stroke="#000000" stroke-width="2" stroke-linecap="round" stroke-linejoin="round" stroke-miterlimit="10" d="
	M358.395,323.083c0.994,2.522,1.976,5.049,2.987,7.564c0.344,0.855,0.758,1.684,1.141,2.524"/>
<path fill-rule="evenodd" clip-rule="evenodd" fill="none" stroke="#000000" stroke-width="2" stroke-linecap="round" stroke-linejoin="round" stroke-miterlimit="10" d="
	M465.937,105.478c2.094,0.626,3.437,1.898,3.94,4.118c0.203,0.898,0.875,1.691,1.333,2.532"/>
<path fill-rule="evenodd" clip-rule="evenodd" fill="none" stroke="#000000" stroke-width="2" stroke-linecap="round" stroke-linejoin="round" stroke-miterlimit="10" d="
	M454.472,162.803c0.993,0.382,1.989,0.759,2.98,1.147c1.189,0.466,1.542,0.328,2.293-0.918"/>
<path fill-rule="evenodd" clip-rule="evenodd" fill="none" stroke="#000000" stroke-width="2" stroke-linecap="round" stroke-linejoin="round" stroke-miterlimit="10" d="
	M405.86,307.49c0.076,0.765-0.028,1.61,0.271,2.274c0.447,0.99,1.181,1.854,1.792,2.771"/>
<path fill-rule="evenodd" clip-rule="evenodd" fill="none" stroke="#000000" stroke-width="2" stroke-linecap="round" stroke-linejoin="round" stroke-miterlimit="10" d="
	M464.331,108.229c1.488,1.421,3.393,1.476,5.274,1.605"/>
<path fill-rule="evenodd" clip-rule="evenodd" fill="none" stroke="#000000" stroke-width="2" stroke-linecap="round" stroke-linejoin="round" stroke-miterlimit="10" d="
	M401.732,301.3c0.917,0.767,1.834,0.971,2.932-0.333c1.148,1.814,2.204,3.481,3.26,5.147"/>
<path fill-rule="evenodd" clip-rule="evenodd" fill="none" stroke="#000000" stroke-width="2" stroke-linecap="round" stroke-linejoin="round" stroke-miterlimit="10" d="
	M473.732,115.337c-0.771,1.567-1.541,3.135-2.579,5.246c-0.762-2.47-2.802-3.507-2.849-5.931c-0.015-0.783-1.797-2.094-2.836-2.16
	c-1.464-0.095-2.902,0.979-3.622,2.406c-0.558,1.104-0.435,2.178,0.603,3.238c0.985,1.006,1.576,2.399,2.341,3.622"/>
<path fill-rule="evenodd" clip-rule="evenodd" fill="none" stroke="#000000" stroke-width="2" stroke-linecap="round" stroke-linejoin="round" stroke-miterlimit="10" d="
	M396.459,295.338c-1.759-0.076-3.517-0.153-5.274-0.229"/>
<path fill-rule="evenodd" clip-rule="evenodd" fill="none" stroke="#000000" stroke-width="2" stroke-linecap="round" stroke-linejoin="round" stroke-miterlimit="10" d="
	M138.268,55.032c-0.076,2.217-0.153,4.433-0.229,6.65"/>
<path fill-rule="evenodd" clip-rule="evenodd" fill="none" stroke="#000000" stroke-width="2" stroke-linecap="round" stroke-linejoin="round" stroke-miterlimit="10" d="
	M522.573,303.363c0.535,0.993,0.995,2.038,1.625,2.967c0.724,1.069,1.386,0.133,2.044-0.216"/>
<path fill-rule="evenodd" clip-rule="evenodd" fill="none" stroke="#000000" stroke-width="2" stroke-linecap="round" stroke-linejoin="round" stroke-miterlimit="10" d="
	M489.096,278.37c0.458,1.758,0.917,3.516,1.376,5.274"/>
<path fill-rule="evenodd" clip-rule="evenodd" fill="none" stroke="#000000" stroke-width="2" stroke-linecap="round" stroke-linejoin="round" stroke-miterlimit="10" d="
	M406.089,342.803c1.529,1.682,3.058,3.363,4.586,5.044"/>
<path fill-rule="evenodd" clip-rule="evenodd" fill="none" stroke="#000000" stroke-width="2" stroke-linecap="round" stroke-linejoin="round" stroke-miterlimit="10" d="
	M488.866,148.127c-0.994,1.758-1.987,3.516-2.98,5.274"/>
<path fill-rule="evenodd" clip-rule="evenodd" fill="none" stroke="#000000" stroke-width="2" stroke-linecap="round" stroke-linejoin="round" stroke-miterlimit="10" d="
	M444.153,312.535c0.534,1.682,1.069,3.363,1.604,5.045"/>
<path fill-rule="evenodd" clip-rule="evenodd" fill="none" stroke="#000000" stroke-width="2" stroke-linecap="round" stroke-linejoin="round" stroke-miterlimit="10" d="
	M157.529,299.465c-1.526-1.065-3.187-1.542-5.045-1.146"/>
<path fill-rule="evenodd" clip-rule="evenodd" fill="none" stroke="#000000" stroke-width="2" stroke-linecap="round" stroke-linejoin="round" stroke-miterlimit="10" d="
	M238.242,155.236c-0.077,1.681-0.153,3.363-0.229,5.044"/>
<path fill-rule="evenodd" clip-rule="evenodd" fill="none" stroke="#000000" stroke-width="2" stroke-linecap="round" stroke-linejoin="round" stroke-miterlimit="10" d="
	M456.994,337.3c0.611,1.681,1.223,3.362,1.834,5.044"/>
<path fill-rule="evenodd" clip-rule="evenodd" fill="none" stroke="#000000" stroke-width="2" stroke-linecap="round" stroke-linejoin="round" stroke-miterlimit="10" d="
	M472.356,119.236c2.103,0.482,2.485,2.079,2.522,3.898"/>
<path fill-rule="evenodd" clip-rule="evenodd" fill="none" stroke="#000000" stroke-width="2" stroke-linecap="round" stroke-linejoin="round" stroke-miterlimit="10" d="
	M457.452,116.484c-1.682,0.153-3.363,0.306-5.045,0.459"/>
<path fill-rule="evenodd" clip-rule="evenodd" fill="none" stroke="#000000" stroke-width="2" stroke-linecap="round" stroke-linejoin="round" stroke-miterlimit="10" d="
	M547.338,320.331c0.535,0.917,1.029,1.861,1.614,2.745c0.864,1.308,1.592,0.576,2.283-0.223"/>
<path fill-rule="evenodd" clip-rule="evenodd" fill="none" stroke="#000000" stroke-width="2" stroke-linecap="round" stroke-linejoin="round" stroke-miterlimit="10" d="
	M439.108,28.663c-2.752,0-5.503,0-8.255,0"/>
<path fill-rule="evenodd" clip-rule="evenodd" fill="none" stroke="#000000" stroke-width="2" stroke-linecap="round" stroke-linejoin="round" stroke-miterlimit="10" d="
	M377.427,128.408c1.528,1.261,3.058,2.522,4.586,3.783"/>
<path fill-rule="evenodd" clip-rule="evenodd" fill="none" stroke="#000000" stroke-width="2" stroke-linecap="round" stroke-linejoin="round" stroke-miterlimit="10" d="
	M451.032,128.866c-0.612,2.063-1.216,4.13-1.848,6.187c-0.056,0.183-0.293,0.31-0.445,0.463"/>
<path fill-rule="evenodd" clip-rule="evenodd" fill="none" stroke="#000000" stroke-width="2" stroke-linecap="round" stroke-linejoin="round" stroke-miterlimit="10" d="
	M403.566,302.217c0.459,1.604,0.918,3.21,1.376,4.815"/>
<path fill-rule="evenodd" clip-rule="evenodd" fill="none" stroke="#000000" stroke-width="2" stroke-linecap="round" stroke-linejoin="round" stroke-miterlimit="10" d="
	M541.376,56.637c0.152,1.987,0.306,3.975,0.458,5.962"/>
<path fill-rule="evenodd" clip-rule="evenodd" fill="none" stroke="#000000" stroke-width="2" stroke-linecap="round" stroke-linejoin="round" stroke-miterlimit="10" d="
	M496.434,134.828c0.534,0.382,1.286,0.647,1.567,1.167c1.232,2.275,3.441,3.218,5.54,4.336"/>
<path fill-rule="evenodd" clip-rule="evenodd" fill="none" stroke="#000000" stroke-width="2" stroke-linecap="round" stroke-linejoin="round" stroke-miterlimit="10" d="
	M461.809,133.682c-0.152,0.535-0.218,1.117-0.475,1.596c-0.729,1.357,0.061,1.785,1.163,2.073"/>
<path fill-rule="evenodd" clip-rule="evenodd" fill="none" stroke="#000000" stroke-width="2" stroke-linecap="round" stroke-linejoin="round" stroke-miterlimit="10" d="
	M454.93,110.981c0.53,1.696,0.192,3.218-0.917,4.586"/>
<path fill-rule="evenodd" clip-rule="evenodd" fill="none" stroke="#000000" stroke-width="2" stroke-linecap="round" stroke-linejoin="round" stroke-miterlimit="10" d="
	M351.975,303.363c1.223,1.528,2.446,3.057,3.669,4.586"/>
<path fill-rule="evenodd" clip-rule="evenodd" fill="none" stroke="#000000" stroke-width="2" stroke-linecap="round" stroke-linejoin="round" stroke-miterlimit="10" d="
	M324.917,209.809c-0.153,2.751-0.306,5.503-0.458,8.254"/>
<path fill-rule="evenodd" clip-rule="evenodd" fill="none" stroke="#000000" stroke-width="2" stroke-linecap="round" stroke-linejoin="round" stroke-miterlimit="10" d="
	M450.344,143.312c-0.076,1.529-0.152,3.057-0.229,4.586"/>
<path fill-rule="evenodd" clip-rule="evenodd" fill="none" stroke="#000000" stroke-width="2" stroke-linecap="round" stroke-linejoin="round" stroke-miterlimit="10" d="
	M564.765,283.644c0.458,1.528,0.917,3.057,1.376,4.586"/>
<path fill-rule="evenodd" clip-rule="evenodd" fill="none" stroke="#000000" stroke-width="2" stroke-linecap="round" stroke-linejoin="round" stroke-miterlimit="10" d="
	M545.732,290.293c0.459,1.528,0.917,3.058,1.376,4.586"/>
<path fill-rule="evenodd" clip-rule="evenodd" fill="none" stroke="#000000" stroke-width="2" stroke-linecap="round" stroke-linejoin="round" stroke-miterlimit="10" d="
	M562.242,275.847c0.382,1.529,0.764,3.057,1.146,4.586"/>
<path fill-rule="evenodd" clip-rule="evenodd" fill="none" stroke="#000000" stroke-width="2" stroke-linecap="round" stroke-linejoin="round" stroke-miterlimit="10" d="
	M478.089,296.484c0.612,1.375,1.224,2.751,1.835,4.127"/>
<path fill-rule="evenodd" clip-rule="evenodd" fill="none" stroke="#000000" stroke-width="2" stroke-linecap="round" stroke-linejoin="round" stroke-miterlimit="10" d="
	M459.287,114.191c-1.052,1.014-1.89,2.057-1.189,3.688c0.143,0.332-0.321,0.888-0.405,1.359c-0.259,1.447-0.996,3.078-0.582,4.315
	c0.723,2.164,0.041,4.167,0.112,6.23"/>
<path fill-rule="evenodd" clip-rule="evenodd" fill="none" stroke="#000000" stroke-width="2" stroke-linecap="round" stroke-linejoin="round" stroke-miterlimit="10" d="
	M446.904,239.618c0.611,1.452,1.223,2.905,1.835,4.357"/>
<path fill-rule="evenodd" clip-rule="evenodd" fill="none" stroke="#000000" stroke-width="2" stroke-linecap="round" stroke-linejoin="round" stroke-miterlimit="10" d="
	M352.433,318.038c0.612,1.376,1.223,2.752,1.834,4.128"/>
<path fill-rule="evenodd" clip-rule="evenodd" fill="none" stroke="#000000" stroke-width="2" stroke-linecap="round" stroke-linejoin="round" stroke-miterlimit="10" d="
	M239.159,143.312c-0.153,1.376-0.306,2.751-0.458,4.127"/>
<path fill-rule="evenodd" clip-rule="evenodd" fill="none" stroke="#000000" stroke-width="2" stroke-linecap="round" stroke-linejoin="round" stroke-miterlimit="10" d="
	M468.459,260.484c-2.031-1.649-4.461-0.309-6.662-0.87c-1.311-0.333-2.739-0.2-4.115-0.276"/>
<path fill-rule="evenodd" clip-rule="evenodd" fill="none" stroke="#000000" stroke-width="2" stroke-linecap="round" stroke-linejoin="round" stroke-miterlimit="10" d="
	M540.688,30.038c0.077,1.376,0.153,2.752,0.229,4.127"/>
<path fill-rule="evenodd" clip-rule="evenodd" fill="none" stroke="#000000" stroke-width="2" stroke-linecap="round" stroke-linejoin="round" stroke-miterlimit="10" d="
	M408.382,302.446c0.306,1.375,0.612,2.751,0.918,4.127"/>
<path fill-rule="evenodd" clip-rule="evenodd" fill="none" stroke="#000000" stroke-width="2" stroke-linecap="round" stroke-linejoin="round" stroke-miterlimit="10" d="
	M564.306,304.28c0.306,2.446,0.611,4.892,0.917,7.338"/>
<path fill-rule="evenodd" clip-rule="evenodd" fill="none" stroke="#000000" stroke-width="2" stroke-linecap="round" stroke-linejoin="round" stroke-miterlimit="10" d="
	M249.707,20.866c-0.076,1.376-0.153,2.751-0.229,4.127"/>
<path fill-rule="evenodd" clip-rule="evenodd" fill="none" stroke="#000000" stroke-width="2" stroke-linecap="round" stroke-linejoin="round" stroke-miterlimit="10" d="
	M468.459,336.841c0,0.917,0.067,1.843-0.043,2.746c-0.031,0.263-0.569,0.464-0.875,0.693"/>
<path fill-rule="evenodd" clip-rule="evenodd" fill="none" stroke="#000000" stroke-width="2" stroke-linecap="round" stroke-linejoin="round" stroke-miterlimit="10" d="
	M551.924,318.038c0,1.223,0,2.446,0,3.669"/>
<path fill-rule="evenodd" clip-rule="evenodd" fill="none" stroke="#000000" stroke-width="2" stroke-linecap="round" stroke-linejoin="round" stroke-miterlimit="10" d="
	M456.076,314.141c0.611,1.299,1.223,2.598,1.835,3.897"/>
<path fill-rule="evenodd" clip-rule="evenodd" fill="none" stroke="#000000" stroke-width="2" stroke-linecap="round" stroke-linejoin="round" stroke-miterlimit="10" d="
	M465.248,125.197c-0.366-1.223-1.51-2.502,0.019-3.644c0.735-0.549,2.836,1.163,3.157,2.734c0.316,1.552,2.074,2.731,1.182,4.579"/>
<path fill-rule="evenodd" clip-rule="evenodd" fill="none" stroke="#000000" stroke-width="2" stroke-linecap="round" stroke-linejoin="round" stroke-miterlimit="10" d="
	M515.694,290.522c1.07,1.834,2.141,3.669,3.21,5.503"/>
<path fill-rule="evenodd" clip-rule="evenodd" fill="none" stroke="#000000" stroke-width="2" stroke-linecap="round" stroke-linejoin="round" stroke-miterlimit="10" d="
	M368.255,135.745c-1.146,0.994-2.293,1.987-3.439,2.981"/>
<path fill-rule="evenodd" clip-rule="evenodd" fill="none" stroke="#000000" stroke-width="2" stroke-linecap="round" stroke-linejoin="round" stroke-miterlimit="10" d="
	M653.732,262.548c-1.223,0.153-2.446,0.306-3.669,0.458"/>
<path fill-rule="evenodd" clip-rule="evenodd" fill="none" stroke="#000000" stroke-width="2" stroke-linecap="round" stroke-linejoin="round" stroke-miterlimit="10" d="
	M618.879,98.37c0,1.223,0,2.446,0,3.668"/>
<path fill-rule="evenodd" clip-rule="evenodd" fill="none" stroke="#000000" stroke-width="2" stroke-linecap="round" stroke-linejoin="round" stroke-miterlimit="10" d="
	M464.102,141.249c-1.758,0.153-3.516,0.306-5.273,0.458"/>
<path fill-rule="evenodd" clip-rule="evenodd" fill="none" stroke="#000000" stroke-width="2" stroke-linecap="round" stroke-linejoin="round" stroke-miterlimit="10" d="
	M754.166,12.153c-0.153,1.223-0.307,2.446-0.459,3.669"/>
<path fill-rule="evenodd" clip-rule="evenodd" fill="none" stroke="#000000" stroke-width="2" stroke-linecap="round" stroke-linejoin="round" stroke-miterlimit="10" d="
	M463.414,128.866c1.146,0.076,2.293,0.153,3.439,0.229"/>
<path fill-rule="evenodd" clip-rule="evenodd" fill="none" stroke="#000000" stroke-width="2" stroke-linecap="round" stroke-linejoin="round" stroke-miterlimit="10" d="
	M372.611,342.803c0.612,2.14,1.223,4.28,1.834,6.42"/>
<path fill-rule="evenodd" clip-rule="evenodd" fill="none" stroke="#000000" stroke-width="2" stroke-linecap="round" stroke-linejoin="round" stroke-miterlimit="10" d="
	M390.268,139.185c-1.146,0.153-2.293,0.306-3.439,0.459"/>
<path fill-rule="evenodd" clip-rule="evenodd" fill="none" stroke="#000000" stroke-width="2" stroke-linecap="round" stroke-linejoin="round" stroke-miterlimit="10" d="
	M374.217,346.242c0.841,0.993,1.681,1.987,2.522,2.98"/>
<path fill-rule="evenodd" clip-rule="evenodd" fill="none" stroke="#000000" stroke-width="2" stroke-linecap="round" stroke-linejoin="round" stroke-miterlimit="10" d="
	M380.866,354.727c0.765,1.069,1.528,2.14,2.293,3.21"/>
<path fill-rule="evenodd" clip-rule="evenodd" fill="none" stroke="#000000" stroke-width="2" stroke-linecap="round" stroke-linejoin="round" stroke-miterlimit="10" d="
	M324,220.815c0,1.07,0,2.14,0,3.21"/>
<path fill-rule="evenodd" clip-rule="evenodd" fill="none" stroke="#000000" stroke-width="2" stroke-linecap="round" stroke-linejoin="round" stroke-miterlimit="10" d="
	M471.439,152.484c-0.817,0.821-1.124,2.323-2.752,2.064"/>
<path fill-rule="evenodd" clip-rule="evenodd" fill="none" stroke="#000000" stroke-width="2" stroke-linecap="round" stroke-linejoin="round" stroke-miterlimit="10" d="
	M393.248,340.051c0.612,1.07,1.224,2.141,1.835,3.21"/>
<path fill-rule="evenodd" clip-rule="evenodd" fill="none" stroke="#000000" stroke-width="2" stroke-linecap="round" stroke-linejoin="round" stroke-miterlimit="10" d="
	M461.351,117.172c-0.994,0.382-1.987,0.764-2.981,1.146"/>
<path fill-rule="evenodd" clip-rule="evenodd" fill="none" stroke="#000000" stroke-width="2" stroke-linecap="round" stroke-linejoin="round" stroke-miterlimit="10" d="
	M456.765,123.822c-0.841,0.764-1.682,1.529-2.522,2.293"/>
<path fill-rule="evenodd" clip-rule="evenodd" fill="none" stroke="#000000" stroke-width="2" stroke-linecap="round" stroke-linejoin="round" stroke-miterlimit="10" d="
	M448.968,131.618c-0.534,0.994-1.069,1.987-1.604,2.981"/>
<path fill-rule="evenodd" clip-rule="evenodd" fill="none" stroke="#000000" stroke-width="2" stroke-linecap="round" stroke-linejoin="round" stroke-miterlimit="10" d="
	M412.051,245.351c1.586-0.422,3.17-0.816,4.586,0.458"/>
<path fill-rule="evenodd" clip-rule="evenodd" fill="none" stroke="#000000" stroke-width="2" stroke-linecap="round" stroke-linejoin="round" stroke-miterlimit="10" d="
	M488.179,330.42c0.306,0.994,0.611,1.988,0.917,2.981"/>
<path fill-rule="evenodd" clip-rule="evenodd" fill="none" stroke="#000000" stroke-width="2" stroke-linecap="round" stroke-linejoin="round" stroke-miterlimit="10" d="
	M238.701,148.815c-0.153,1.834-0.306,3.668-0.458,5.503"/>
<path fill-rule="evenodd" clip-rule="evenodd" fill="none" stroke="#000000" stroke-width="2" stroke-linecap="round" stroke-linejoin="round" stroke-miterlimit="10" d="
	M493.682,324c0.076,0.917,0.152,1.834,0.229,2.752"/>
<path fill-rule="evenodd" clip-rule="evenodd" fill="none" stroke="#000000" stroke-width="2" stroke-linecap="round" stroke-linejoin="round" stroke-miterlimit="10" d="
	M541.605,63.516c0.076,0.917,0.152,1.834,0.229,2.751"/>
<path fill-rule="evenodd" clip-rule="evenodd" fill="none" stroke="#000000" stroke-width="2" stroke-linecap="round" stroke-linejoin="round" stroke-miterlimit="10" d="
	M485.886,288.229c-0.61-0.634-1.221-1.269-1.83-1.902c-0.19,0.106-0.382,0.212-0.572,0.318c0.113,1.14,0.226,2.279,0.338,3.418"/>
<path fill-rule="evenodd" clip-rule="evenodd" fill="none" stroke="#000000" stroke-width="2" stroke-linecap="round" stroke-linejoin="round" stroke-miterlimit="10" d="
	M463.185,114.191c1.236,1.75,3.207,0.929,4.815,1.376"/>
<path fill-rule="evenodd" clip-rule="evenodd" fill="none" stroke="#000000" stroke-width="2" stroke-linecap="round" stroke-linejoin="round" stroke-miterlimit="10" d="
	M522.573,321.707c0.153,0.917,0.306,1.834,0.459,2.752"/>
<path fill-rule="evenodd" clip-rule="evenodd" fill="none" stroke="#000000" stroke-width="2" stroke-linecap="round" stroke-linejoin="round" stroke-miterlimit="10" d="
	M588.382,278.14c-0.076,0.917-0.152,1.834-0.229,2.751"/>
<path fill-rule="evenodd" clip-rule="evenodd" fill="none" stroke="#000000" stroke-width="2" stroke-linecap="round" stroke-linejoin="round" stroke-miterlimit="10" d="
	M438.649,318.038c0.306,0.917,0.612,1.835,0.917,2.752"/>
<path fill-rule="evenodd" clip-rule="evenodd" fill="none" stroke="#000000" stroke-width="2" stroke-linecap="round" stroke-linejoin="round" stroke-miterlimit="10" d="
	M588.382,276.764c0.535,0.765,1.07,1.529,1.605,2.293"/>
<path fill-rule="evenodd" clip-rule="evenodd" fill="none" stroke="#000000" stroke-width="2" stroke-linecap="round" stroke-linejoin="round" stroke-miterlimit="10" d="
	M473.503,112.127c0.153,0.076,0.447,0.188,0.438,0.224c-0.507,2.021,1.172,3.46,1.396,5.279"/>
<path fill-rule="evenodd" clip-rule="evenodd" fill="none" stroke="#000000" stroke-width="2" stroke-linecap="round" stroke-linejoin="round" stroke-miterlimit="10" d="
	M454.7,327.21c0.153,0.917,0.306,1.835,0.459,2.752"/>
<path fill-rule="evenodd" clip-rule="evenodd" fill="none" stroke="#000000" stroke-width="2" stroke-linecap="round" stroke-linejoin="round" stroke-miterlimit="10" d="
	M465.707,320.102c-1.63,0.1-0.617,1.373-0.917,2.064"/>
<path fill-rule="evenodd" clip-rule="evenodd" fill="none" stroke="#000000" stroke-width="2" stroke-linecap="round" stroke-linejoin="round" stroke-miterlimit="10" d="
	M465.02,115.567c0.651,1.86,1.08,3.747,0.688,5.732"/>
<path fill-rule="evenodd" clip-rule="evenodd" fill="none" stroke="#000000" stroke-width="2" stroke-linecap="round" stroke-linejoin="round" stroke-miterlimit="10" d="
	M536.79,297.401c0.306,0.917,0.611,1.834,0.917,2.752"/>
<path fill-rule="evenodd" clip-rule="evenodd" fill="none" stroke="#000000" stroke-width="2" stroke-linecap="round" stroke-linejoin="round" stroke-miterlimit="10" d="
	M243.287,90.573c0,0.917,0,1.834,0,2.751"/>
<path fill-rule="evenodd" clip-rule="evenodd" fill="none" stroke="#000000" stroke-width="2" stroke-linecap="round" stroke-linejoin="round" stroke-miterlimit="10" d="
	M418.242,226.089c-0.879-0.34-1.748-0.578-2.522,0.229"/>
<path fill-rule="evenodd" clip-rule="evenodd" fill="none" stroke="#000000" stroke-width="2" stroke-linecap="round" stroke-linejoin="round" stroke-miterlimit="10" d="
	M489.096,333.859c0.382,1.605,0.765,3.211,1.146,4.815"/>
<path fill-rule="evenodd" clip-rule="evenodd" fill="none" stroke="#000000" stroke-width="2" stroke-linecap="round" stroke-linejoin="round" stroke-miterlimit="10" d="
	M237.325,166.242c0,1.375,0,2.751,0,4.127"/>
<path fill-rule="evenodd" clip-rule="evenodd" fill="none" stroke="#000000" stroke-width="2" stroke-linecap="round" stroke-linejoin="round" stroke-miterlimit="10" d="
	M391.185,336.841c0.535,0.765,1.07,1.528,1.605,2.293"/>
<path fill-rule="evenodd" clip-rule="evenodd" fill="none" stroke="#000000" stroke-width="2" stroke-linecap="round" stroke-linejoin="round" stroke-miterlimit="10" d="
	M328.127,178.166c0,0.764,0,1.529,0,2.293"/>
<path fill-rule="evenodd" clip-rule="evenodd" fill="none" stroke="#000000" stroke-width="2" stroke-linecap="round" stroke-linejoin="round" stroke-miterlimit="10" d="
	M330.42,146.063c0,0.765,0,1.529,0,2.293"/>
<path fill-rule="evenodd" clip-rule="evenodd" fill="none" stroke="#000000" stroke-width="2" stroke-linecap="round" stroke-linejoin="round" stroke-miterlimit="10" d="
	M540.917,36.458c0,1.682,0,3.363,0,5.044"/>
<path fill-rule="evenodd" clip-rule="evenodd" fill="none" stroke="#000000" stroke-width="2" stroke-linecap="round" stroke-linejoin="round" stroke-miterlimit="10" d="
	M558.573,279.975c0.076,0.764,0.152,1.529,0.229,2.293"/>
<path fill-rule="evenodd" clip-rule="evenodd" fill="none" stroke="#000000" stroke-width="2" stroke-linecap="round" stroke-linejoin="round" stroke-miterlimit="10" d="
	M752.102,13.07c-0.075,0.535-0.151,1.07-0.261,1.834c-0.879,0-1.8,0-2.72,0"/>
<path fill-rule="evenodd" clip-rule="evenodd" fill="none" stroke="#000000" stroke-width="2" stroke-linecap="round" stroke-linejoin="round" stroke-miterlimit="10" d="
	M567.287,275.389c0.229,0.764,0.458,1.529,0.688,2.293"/>
<path fill-rule="evenodd" clip-rule="evenodd" fill="none" stroke="#000000" stroke-width="2" stroke-linecap="round" stroke-linejoin="round" stroke-miterlimit="10" d="
	M455.159,317.58c0,0.764,0,1.528,0,2.293"/>
<path fill-rule="evenodd" clip-rule="evenodd" fill="none" stroke="#000000" stroke-width="2" stroke-linecap="round" stroke-linejoin="round" stroke-miterlimit="10" d="
	M618.879,102.956c0,0.764,0,1.529,0,2.293"/>
<path fill-rule="evenodd" clip-rule="evenodd" fill="none" stroke="#000000" stroke-width="2" stroke-linecap="round" stroke-linejoin="round" stroke-miterlimit="10" d="
	M436.815,280.433c0.306,1.07,0.611,2.14,0.917,3.21"/>
<path fill-rule="evenodd" clip-rule="evenodd" fill="none" stroke="#000000" stroke-width="2" stroke-linecap="round" stroke-linejoin="round" stroke-miterlimit="10" d="
	M362.063,297.859c0.306,0.765,0.612,1.529,0.917,2.294"/>
<path fill-rule="evenodd" clip-rule="evenodd" fill="none" stroke="#000000" stroke-width="2" stroke-linecap="round" stroke-linejoin="round" stroke-miterlimit="10" d="
	M739.49,2.293c0.153,0.688,0.306,1.376,0.459,2.063"/>
<path fill-rule="evenodd" clip-rule="evenodd" fill="none" stroke="#000000" stroke-width="2" stroke-linecap="round" stroke-linejoin="round" stroke-miterlimit="10" d="
	M746.141,5.962c-0.841,0.536-2.372,0.38-2.064,2.063c-0.306,0-0.611,0-0.917,0"/>
<path fill-rule="evenodd" clip-rule="evenodd" fill="none" stroke="#000000" stroke-width="2" stroke-linecap="round" stroke-linejoin="round" stroke-miterlimit="10" d="
	M752.79,17.656c-0.233,0.611,1.631,1.223,0,1.834"/>
<path fill-rule="evenodd" clip-rule="evenodd" fill="none" stroke="#000000" stroke-width="2" stroke-linecap="round" stroke-linejoin="round" stroke-miterlimit="10" d="
	M541.376,53.656c0,0.688,0,1.375,0,2.063"/>
<path fill-rule="evenodd" clip-rule="evenodd" fill="none" stroke="#000000" stroke-width="2" stroke-linecap="round" stroke-linejoin="round" stroke-miterlimit="10" d="
	M446.446,336.841c0.229,0.688,0.458,1.376,0.688,2.063"/>
<path fill-rule="evenodd" clip-rule="evenodd" fill="none" stroke="#000000" stroke-width="2" stroke-linecap="round" stroke-linejoin="round" stroke-miterlimit="10" d="
	M413.656,338.904c0.229,0.688,0.458,1.376,0.688,2.063"/>
<path fill-rule="evenodd" clip-rule="evenodd" fill="none" stroke="#000000" stroke-width="2" stroke-linecap="round" stroke-linejoin="round" stroke-miterlimit="10" d="
	M474.191,122.904c-0.688,0-1.376,0-2.064,0"/>
<path fill-rule="evenodd" clip-rule="evenodd" fill="none" stroke="#000000" stroke-width="2" stroke-linecap="round" stroke-linejoin="round" stroke-miterlimit="10" d="
	M647.541,263.694c-0.688,0.076-1.375,0.153-2.063,0.229"/>
<path fill-rule="evenodd" clip-rule="evenodd" fill="none" stroke="#000000" stroke-width="2" stroke-linecap="round" stroke-linejoin="round" stroke-miterlimit="10" d="
	M323.542,227.694c-0.077,0.688-0.153,1.376-0.229,2.063"/>
<path fill-rule="evenodd" clip-rule="evenodd" fill="none" stroke="#000000" stroke-width="2" stroke-linecap="round" stroke-linejoin="round" stroke-miterlimit="10" d="
	M522.573,282.726c0.459,1.223,0.917,2.446,1.376,3.668"/>
<path fill-rule="evenodd" clip-rule="evenodd" fill="none" stroke="#000000" stroke-width="2" stroke-linecap="round" stroke-linejoin="round" stroke-miterlimit="10" d="
	M590.904,310.242c-0.611,0.306-1.223,0.611-1.834,0.917"/>
<path fill-rule="evenodd" clip-rule="evenodd" fill="none" stroke="#000000" stroke-width="2" stroke-linecap="round" stroke-linejoin="round" stroke-miterlimit="10" d="
	M407.465,314.828c0.459,0.306,0.917,0.611,1.376,0.917"/>
<path fill-rule="evenodd" clip-rule="evenodd" fill="none" stroke="#000000" stroke-width="2" stroke-linecap="round" stroke-linejoin="round" stroke-miterlimit="10" d="
	M464.79,228.382c-0.611-0.306-1.223-0.612-1.835-0.917"/>
<path fill-rule="evenodd" clip-rule="evenodd" fill="none" stroke="#000000" stroke-width="2" stroke-linecap="round" stroke-linejoin="round" stroke-miterlimit="10" d="
	M533.58,289.146c0.152,0.611,0.306,1.223,0.458,1.834"/>
<path fill-rule="evenodd" clip-rule="evenodd" fill="none" stroke="#000000" stroke-width="2" stroke-linecap="round" stroke-linejoin="round" stroke-miterlimit="10" d="
	M576.229,296.484c0.306,0.611,0.611,1.223,0.917,1.834"/>
<path fill-rule="evenodd" clip-rule="evenodd" fill="none" stroke="#000000" stroke-width="2" stroke-linecap="round" stroke-linejoin="round" stroke-miterlimit="10" d="
	M546.42,325.376c0.307,1.07,0.612,2.14,0.918,3.21"/>
<path fill-rule="evenodd" clip-rule="evenodd" fill="none" stroke="#000000" stroke-width="2" stroke-linecap="round" stroke-linejoin="round" stroke-miterlimit="10" d="
	M387.287,350.141c0.305,0.611,0.611,1.223,0.917,1.834"/>
<path fill-rule="evenodd" clip-rule="evenodd" fill="none" stroke="#000000" stroke-width="2" stroke-linecap="round" stroke-linejoin="round" stroke-miterlimit="10" d="
	M531.745,290.063c0.153,0.611,0.306,1.223,0.459,1.835"/>
<path fill-rule="evenodd" clip-rule="evenodd" fill="none" stroke="#000000" stroke-width="2" stroke-linecap="round" stroke-linejoin="round" stroke-miterlimit="10" d="
	M570.727,316.892c-0.612,0.383-1.224,0.765-1.835,1.146"/>
<path fill-rule="evenodd" clip-rule="evenodd" fill="none" stroke="#000000" stroke-width="2" stroke-linecap="round" stroke-linejoin="round" stroke-miterlimit="10" d="
	M242.828,99.745c0,0.612,0,1.223,0,1.834"/>
<path fill-rule="evenodd" clip-rule="evenodd" fill="none" stroke="#000000" stroke-width="2" stroke-linecap="round" stroke-linejoin="round" stroke-miterlimit="10" d="
	M241.452,116.255c-0.076,0.611-0.153,1.223-0.229,1.834"/>
<path fill-rule="evenodd" clip-rule="evenodd" fill="none" stroke="#000000" stroke-width="2" stroke-linecap="round" stroke-linejoin="round" stroke-miterlimit="10" d="
	M440.942,312.076c0.306,0.459,0.612,0.917,0.918,1.376"/>
<path fill-rule="evenodd" clip-rule="evenodd" fill="none" stroke="#000000" stroke-width="2" stroke-linecap="round" stroke-linejoin="round" stroke-miterlimit="10" d="
	M443.235,309.783c0.459,0.153,0.918,0.306,1.376,0.459"/>
<path fill-rule="evenodd" clip-rule="evenodd" fill="none" stroke="#000000" stroke-width="2" stroke-linecap="round" stroke-linejoin="round" stroke-miterlimit="10" d="
	M323.771,225.172c-0.076,0.535-0.153,1.07-0.229,1.605"/>
<path fill-rule="evenodd" clip-rule="evenodd" fill="none" stroke="#000000" stroke-width="2" stroke-linecap="round" stroke-linejoin="round" stroke-miterlimit="10" d="
	M627.134,290.522c-0.459,0.152-0.917,0.306-1.376,0.458"/>
<path fill-rule="evenodd" clip-rule="evenodd" fill="none" stroke="#000000" stroke-width="2" stroke-linecap="round" stroke-linejoin="round" stroke-miterlimit="10" d="
	M447.821,340.51c0.306,0.458,0.612,0.917,0.918,1.376"/>
<path fill-rule="evenodd" clip-rule="evenodd" fill="none" stroke="#000000" stroke-width="2" stroke-linecap="round" stroke-linejoin="round" stroke-miterlimit="10" d="
	M403.566,339.821c0.383,0.535,0.765,1.07,1.146,1.605"/>
<path fill-rule="evenodd" clip-rule="evenodd" fill="none" stroke="#000000" stroke-width="2" stroke-linecap="round" stroke-linejoin="round" stroke-miterlimit="10" d="
	M139.644,11.236c-0.077,1.07-0.153,2.14-0.229,3.21"/>
<path fill-rule="evenodd" clip-rule="evenodd" fill="none" stroke="#000000" stroke-width="2" stroke-linecap="round" stroke-linejoin="round" stroke-miterlimit="10" d="
	M754.968,19.261c0.422-1.463-0.339-1.301-1.261-0.917"/>
</svg>
