<?xml version="1.0" encoding="utf-8"?>
<!-- Generator: Adobe Illustrator 16.0.0, SVG Export Plug-In . SVG Version: 6.00 Build 0)  -->
<!DOCTYPE svg PUBLIC "-//W3C//DTD SVG 1.1//EN" "http://www.w3.org/Graphics/SVG/1.1/DTD/svg11.dtd">
<svg version="1.1" id="Layer_1" xmlns="http://www.w3.org/2000/svg" xmlns:xlink="http://www.w3.org/1999/xlink" x="0px" y="0px"
	 width="595.2px" height="841.68px" viewBox="0 0 595.2 841.68" enable-background="new 0 0 595.2 841.68" xml:space="preserve">
<path fill-rule="evenodd" clip-rule="evenodd" fill="none" stroke="#000000" stroke-width="2" stroke-linecap="round" stroke-linejoin="round" stroke-miterlimit="10" d="
	M210.72,164.64c0.24,1.68,0.329,3.398,0.746,5.033c1.697,6.656,3.615,13.257,5.218,19.935c1.45,6.04,2.668,12.137,3.854,18.236
	c1.049,5.395,2.563,10.626,4.167,15.889c1.947,6.386,3.575,12.921,4.628,19.605c1.175,7.452,3.393,14.739,5.144,22.102
	c1.769,7.438,3.49,14.888,5.296,22.316c0.88,3.619,1.938,7.195,2.859,10.805c1.467,5.753,2.713,11.569,4.377,17.264
	c1.61,5.507,3.619,10.898,5.489,16.328c0.182,0.527,0.544,1.049,0.953,1.434c7.594,7.145,14.742,14.704,21.638,22.528
	c3.883,4.405,8.294,8.341,12.419,12.535c1.826,1.855,3.528,3.832,5.293,5.747c0.383,0.416,0.729,1.003,1.209,1.168
	c2.284,0.786,1.442,1.864,0.483,3.166c-3.399,4.611-6.734,9.27-10.096,13.908c-1.163,1.604-1.227,2.979-0.067,4.842
	c3.312,5.321,6.368,10.805,9.38,16.304c0.647,1.181,0.688,2.694,1.008,4.054"/>
<path fill-rule="evenodd" clip-rule="evenodd" fill="none" stroke="#000000" stroke-width="2" stroke-linecap="round" stroke-linejoin="round" stroke-miterlimit="10" d="
	M465.36,247.92c-0.24,0.16-0.712,0.386-0.688,0.471c1.804,6.33,3.578,12.67,5.506,18.964c2.192,7.159,4.635,14.209,8.086,20.914
	c3.333,6.476,4.782,13.65,6.779,20.61c2.178,7.591,4.144,15.239,7.156,22.577c1.97,4.794,3.554,9.746,5.321,14.624
	c2.233,6.162,4.393,12.354,6.762,18.464c0.938,2.421,2.419,4.627,3.528,6.99c0.489,1.041,0.669,2.227,0.988,3.347"/>
<path fill-rule="evenodd" clip-rule="evenodd" fill="none" stroke="#000000" stroke-width="2" stroke-linecap="round" stroke-linejoin="round" stroke-miterlimit="10" d="
	M334.8,248.4c1.12,3.68,2.094,7.413,3.396,11.027c1.691,4.694,3.677,9.28,5.474,13.937c1.567,4.062,3.006,8.173,4.587,12.229
	c0.949,2.436,2.076,4.801,3.101,7.208c3.732,8.767,7.581,17.477,10.363,26.627c2.693,8.856,5.726,17.61,8.598,26.413
	c3.367,10.318,6.768,20.625,10.042,30.972c0.628,1.987,1.392,2.538,3.642,2.504c6.234-0.096,12.477,0.461,18.719,0.548
	c2.075,0.029,4.149-0.708,6.242-0.87c2.067-0.16,4.159,0.02,6.236-0.047c3.602-0.116,7.208-0.211,10.799-0.495
	c3.45-0.272,6.875-0.849,10.324-1.147c2.469-0.213,4.959-0.161,7.438-0.272c2.961-0.133,5.92-0.313,8.88-0.474"/>
<path fill-rule="evenodd" clip-rule="evenodd" fill="none" stroke="#000000" stroke-width="2" stroke-linecap="round" stroke-linejoin="round" stroke-miterlimit="10" d="
	M177.12,62.64c1.44,5.2,2.828,10.415,4.333,15.596c1.865,6.416,3.763,12.824,5.77,19.197c1.321,4.197,2.845,8.332,4.3,12.486
	c3.112,8.883,6.2,17.774,9.374,26.635c1.588,4.433,3.493,8.756,4.982,13.22c1.473,4.416,2.677,8.927,3.839,13.438
	c0.374,1.451,1.292,1.217,2.203,1.176c6.641-0.297,13.282-0.596,19.92-0.958c4.883-0.267,9.759-0.663,14.641-0.943
	c10.159-0.583,20.317-1.18,30.48-1.666c5.754-0.275,11.52-0.492,17.279-0.468c10.641,0.045,21.28,0.331,31.92,0.419
	c2.959,0.024,5.919-0.339,8.881-0.415c0.634-0.017,1.279,0.442,1.919,0.683"/>
<path fill-rule="evenodd" clip-rule="evenodd" fill="none" stroke="#000000" stroke-width="2" stroke-linecap="round" stroke-linejoin="round" stroke-miterlimit="10" d="
	M335.28,248.64c0.88-0.16,1.754-0.405,2.641-0.466c3.998-0.273,7.998-0.506,11.999-0.731c4.399-0.247,8.674-1.493,13.216-0.834
	c3.762,0.544,7.664,0.085,11.504,0.117c7.44,0.061,14.881,0.142,22.32,0.24c3.521,0.047,7.04,0.167,10.561,0.212
	c0.318,0.004,0.64-0.297,1.12-0.536c1.603,1.784,1.828,4.122,2.508,6.309c3.216,10.34,6.664,20.609,9.766,30.982
	c2.156,7.209,3.525,14.667,5.908,21.792c2.328,6.958,5.523,13.624,8.288,20.438c1.81,4.46,3.625,8.922,5.27,13.444
	c3.426,9.416,6.775,18.86,10.079,28.32c1.017,2.912,1.781,5.912,2.661,8.872"/>
<path fill-rule="evenodd" clip-rule="evenodd" fill="none" stroke="#000000" stroke-width="2" stroke-linecap="round" stroke-linejoin="round" stroke-miterlimit="10" d="
	M167.28,503.28c0.4,1.68,0.558,3.467,1.242,5.021c2.941,6.684,5.957,13.337,9.106,19.925c2.175,4.55,4.672,8.943,6.919,13.46
	c4.047,8.137,7.912,16.365,12.047,24.456c3.029,5.928,6.339,11.713,9.583,17.527c0.928,1.663,2.063,3.21,3.103,4.811"/>
<path fill-rule="evenodd" clip-rule="evenodd" fill="none" stroke="#000000" stroke-width="2" stroke-linecap="round" stroke-linejoin="round" stroke-miterlimit="10" d="
	M211.92,291.6c-6.16-0.8-12.331-1.529-18.476-2.425c-4.02-0.586-7.988-1.887-12.008-2.024c-5.971-0.203-11.521,0.671-16.47,5.242
	c-4.594,4.244-8.885,8.672-12.486,13.665c-5.038,6.985-10.298,13.86-13.578,21.999c-2.338,5.802-5.325,11.339-7.824,17.08
	c-1.563,3.592-2.57,7.427-4.161,11.004c-2.428,5.458-3.559,11.242-3.903,17.067c-0.261,4.413-0.971,8.781-1.067,13.192
	c-0.06,2.717,0.212,5.44,0.199,8.16c-0.032,6.48-0.204,12.96-0.198,19.44c0.003,2.96,0.317,5.919,0.443,8.881
	c0.061,1.438-0.036,2.881,0.019,4.319c0.22,5.761,0.518,11.519,0.697,17.28c0.15,4.798,0.183,9.6,0.25,14.399
	c0.025,1.84,0.004,3.68,0.004,5.521"/>
<path fill-rule="evenodd" clip-rule="evenodd" fill="none" stroke="#000000" stroke-width="2" stroke-linecap="round" stroke-linejoin="round" stroke-miterlimit="10" d="
	M349.2,66c1.76,7.36,3.317,14.776,5.347,22.062c1.498,5.375,3.581,10.59,5.46,15.856c3.503,9.818,7.389,19.488,10.405,29.495
	c2.427,8.057,5.688,15.86,8.529,23.794c0.528,1.474,0.818,3.034,1.219,4.553"/>
<path fill-rule="evenodd" clip-rule="evenodd" fill="none" stroke="#000000" stroke-width="2" stroke-linecap="round" stroke-linejoin="round" stroke-miterlimit="10" d="
	M251.52,523.68c3.727,5.97,6.908,12.273,11.729,17.548c7.536,8.244,13.771,17.505,20.189,26.613
	c4.564,6.477,9.119,12.961,13.701,19.425c0.08,0.113,0.46,0.015,0.7,0.015"/>
<path fill-rule="evenodd" clip-rule="evenodd" fill="none" stroke="#000000" stroke-width="2" stroke-linecap="round" stroke-linejoin="round" stroke-miterlimit="10" d="
	M252.72,374.64c-0.158,1.994-1.576,2.224-3.12,2.151c-6.241-0.298-12.48-0.647-18.721-0.936c-1.107-0.051-2.515-0.439-2.649,1.569
	c2.633,3.205,6.32,5.146,9.849,7.297c3.924,2.393,7.829,4.818,11.774,7.176c0.542,0.324,1.267,0.342,1.906,0.502"/>
<path fill-rule="evenodd" clip-rule="evenodd" fill="none" stroke="#000000" stroke-width="2" stroke-linecap="round" stroke-linejoin="round" stroke-miterlimit="10" d="
	M464.4,505.44c-3.521,3.119-7.289,6.004-10.509,9.408c-6.888,7.281-13.438,14.88-20.235,22.25c-3.142,3.407-6.536,6.581-9.816,9.861
	"/>
<path fill-rule="evenodd" clip-rule="evenodd" fill="none" stroke="#000000" stroke-width="2" stroke-linecap="round" stroke-linejoin="round" stroke-miterlimit="10" d="
	M294.72,418.32c2.632,1.825,4.458,4.358,6.257,6.948c2.976,4.285,6.026,8.52,9.127,12.714c0.8,1.082,0.86,1.872-0.006,2.914
	c-1.35,1.622-2.543,3.373-3.865,5.019c-3.42,4.257-6.828,8.523-10.342,12.702c-1.006,1.196-0.993,2.232,0.047,3.122
	c5.498,4.707,10.786,9.701,17.048,13.417c1.518,0.901,3.613,0.924,4.053,3.165c0.079,0.399,0.15,0.801,0.26,1.388
	c-3.789,4.115-7.633,8.353-11.549,12.522c-2.827,3.01-5.783,5.898-8.603,8.915c-0.586,0.626-0.827,1.574-1.227,2.374"/>
<path fill-rule="evenodd" clip-rule="evenodd" fill="none" stroke="#000000" stroke-width="2" stroke-linecap="round" stroke-linejoin="round" stroke-miterlimit="10" d="
	M506.16,505.92c2.116-1.253,4.333-0.155,6.48-0.166c7.039-0.036,14.079,0.296,21.119,0.391c5.68,0.076,11.36-0.015,17.04,0.025
	c4.32,0.03,8.641,0.15,12.96,0.23"/>
<path fill-rule="evenodd" clip-rule="evenodd" fill="none" stroke="#000000" stroke-width="2" stroke-linecap="round" stroke-linejoin="round" stroke-miterlimit="10" d="
	M209.88,460.8c-0.28,3.36-0.535,6.723-0.85,10.079c-0.188,2.005-0.639,3.998-0.677,6.002c-0.099,5.118-0.081,10.239-0.022,15.359
	c0.099,8.671,3.396,15.765,10.554,20.874c2.854,2.036,5.495,4.852,8.688,5.837c7.607,2.349,15.361,4.887,23.463,4.409
	c8.648-0.509,17.285-0.242,25.925-0.413c4.401-0.087,8.8-0.445,13.2-0.433c5.6,0.017,11.199,0.35,16.8,0.422
	c3.519,0.046,7.04-0.137,10.56-0.217"/>
<path fill-rule="evenodd" clip-rule="evenodd" fill="none" stroke="#000000" stroke-width="2" stroke-linecap="round" stroke-linejoin="round" stroke-miterlimit="10" d="
	M336.48,460.8c1.342,0.129,0.963,1.153,0.946,1.92c-0.041,2.001-0.272,4.005-0.205,6c0.267,7.841,0.695,15.679,0.899,23.521
	c0.079,3.033-0.137,6.096-0.499,9.111c-0.193,1.602,0.089,2.121,1.736,2.199c6.884,0.325,13.758,0.872,20.643,1.137
	c5.994,0.23,11.999,0.196,17.999,0.261c0.399,0.004,0.797-0.192,1.2-0.222c1.313-0.093,2.485,1.158,2.146,2.389
	c-1.682,6.11-0.862,12.308-0.711,18.483c0.104,4.24,0.187,8.48,0.237,12.721c0.037,3.119,0.007,6.239,0.007,9.359"/>
<path fill-rule="evenodd" clip-rule="evenodd" fill="none" stroke="#000000" stroke-width="2" stroke-linecap="round" stroke-linejoin="round" stroke-miterlimit="10" d="
	M423.12,544.56c-0.854,1.064,0.271,1.766,0.463,2.645c1.651,7.536,5.785,13.9,9.634,20.386c3.116,5.25,6.388,10.407,9.581,15.611
	c0.976,1.591,1.922,3.199,2.882,4.799"/>
<path fill-rule="evenodd" clip-rule="evenodd" fill="none" stroke="#000000" stroke-width="2" stroke-linecap="round" stroke-linejoin="round" stroke-miterlimit="10" d="
	M453.36,377.28c3.829,13.443,7.659,26.886,11.485,40.315c7.313-0.25,14.564-0.895,21.878-0.551
	c6.143,0.289,12.316-0.109,18.477-0.135c0.824-0.003,2.225-0.643,2.16,1.171"/>
<path fill-rule="evenodd" clip-rule="evenodd" fill="none" stroke="#000000" stroke-width="2" stroke-linecap="round" stroke-linejoin="round" stroke-miterlimit="10" d="
	M424.8,546.72c2.08,0,4.164-0.076,6.239,0.017c4.163,0.186,8.319,0.511,12.481,0.689c3.517,0.15,7.041,0.141,10.559,0.264
	c3.282,0.115,6.568,0.514,9.838,0.393c1.892-0.07,2.205,1.338,2.834,2.271c3.621,5.372,6.957,10.938,10.643,16.263
	c4.498,6.499,9.236,12.831,13.912,19.205c0.282,0.385,0.935,0.499,1.414,0.738"/>
<path fill-rule="evenodd" clip-rule="evenodd" fill="none" stroke="#000000" stroke-width="2" stroke-linecap="round" stroke-linejoin="round" stroke-miterlimit="10" d="
	M187.92,440.88c4.846-2.086,8.939,0.175,9.328,5.282c0.188,2.466,0.2,4.972-0.004,7.435c-0.357,4.311-4.853,8.514-9.324,8.604
	c-4.796,0.097-9.605-0.012-14.396-0.263c-1.541-0.081-3.086-0.8-4.539-1.433c-0.474-0.207-0.941-1.065-0.941-1.625
	c0.004-4.8,0.2-9.601,0.159-14.399c-0.019-2.162-0.502-4.315-0.668-6.481c-0.22-2.876-0.369-5.758-0.482-8.64
	c-0.069-1.757-0.013-3.52-0.013-5.279c0-1.837,0-3.675,0-6.073c4.523,0.635,8.544,0.987,12.47,1.801
	c5.936,1.23,4.556,2.013,10.663-0.567c0.127-2.036,0.236-4.12,0.392-6.201c0.305-4.081,0.695-8.157,0.912-12.242
	c0.052-0.984-0.437-1.998-0.677-2.998"/>
<path fill-rule="evenodd" clip-rule="evenodd" fill="none" stroke="#000000" stroke-width="2" stroke-linecap="round" stroke-linejoin="round" stroke-miterlimit="10" d="
	M209.76,163.92c-1.84,0.16-3.677,0.413-5.52,0.464c-7.279,0.2-14.561,0.495-21.839,0.442c-5.042-0.037-10.077-0.691-15.122-0.874
	c-4.314-0.156-8.64-0.092-12.958-0.018c-6.001,0.103-12,0.393-18,0.445c-8.959,0.078-17.92-0.029-26.879,0.042
	c-4.161,0.033-8.322,0.463-12.48,0.415c-4.882-0.056-9.76-0.453-14.641-0.661c-0.795-0.034-1.599,0.145-2.399,0.224"/>
<path fill-rule="evenodd" clip-rule="evenodd" fill="none" stroke="#000000" stroke-width="2" stroke-linecap="round" stroke-linejoin="round" stroke-miterlimit="10" d="
	M505.2,505.92c-1.92-0.24-3.834-0.569-5.762-0.704c-7.437-0.519-14.873-1.117-22.32-1.399c-4.068-0.155-8.158,0.264-12.238,0.424"/>
<path fill-rule="evenodd" clip-rule="evenodd" fill="none" stroke="#000000" stroke-width="2" stroke-linecap="round" stroke-linejoin="round" stroke-miterlimit="10" d="
	M482.16,543.84c-0.8-1.6-1.625-3.188-2.393-4.804c-0.676-1.423-1.147-2.963-1.973-4.288c-0.644-1.034-0.563-1.665,0.278-2.436
	c5.134-4.705,10.265-9.413,15.357-14.162c1.819-1.697,3.532-3.508,5.288-5.271c2.315-2.325,4.625-4.655,7.1-7.147
	c2.064,3.718,4.133,7.327,6.089,10.995c2.374,4.452,4.6,8.982,6.992,13.423c1.495,2.776,3.181,5.45,4.78,8.171"/>
<path fill-rule="evenodd" clip-rule="evenodd" fill="none" stroke="#000000" stroke-width="2" stroke-linecap="round" stroke-linejoin="round" stroke-miterlimit="10" d="
	M555.6,459.6c-4.319,0.32-8.637,0.859-12.96,0.912c-7.598,0.093-15.199-0.164-22.8-0.165c-2.96-0.001-5.919,0.391-8.88,0.427
	c-3.119,0.038-6.24-0.196-9.36-0.196c-3.119,0-6.242,0.088-9.359,0.237c-3.763,0.18-7.52,0.478-11.28,0.702
	c-4.239,0.254-8.478,0.606-12.721,0.697c-7.998,0.171-16,0.272-23.999,0.239c-6.48-0.027-12.96-0.332-19.44-0.427
	c-1.738-0.026-2.668-0.627-2.64-2.427"/>
<path fill-rule="evenodd" clip-rule="evenodd" fill="none" stroke="#000000" stroke-width="2" stroke-linecap="round" stroke-linejoin="round" stroke-miterlimit="10" d="
	M464.64,504.72c1.28,3.12,2.492,6.271,3.855,9.354c2.346,5.305,4.755,10.581,7.212,15.834c0.452,0.968,1.253,1.772,1.893,2.652"/>
<path fill-rule="evenodd" clip-rule="evenodd" fill="none" stroke="#000000" stroke-width="2" stroke-linecap="round" stroke-linejoin="round" stroke-miterlimit="10" d="
	M209.52,332.88c-4.48,3.84-8.933,7.713-13.45,11.508c-2.745,2.306-5.592,4.489-8.388,6.735c-0.528,0.423-1.027,0.883-1.897,1.635
	c5.767,5.383,11.389,10.636,17.017,15.88c2.071,1.93,4.072,3.948,6.265,5.729c1.867,1.517,1.166,2.811-0.042,4.098
	c-1.701,1.815-3.586,3.461-5.249,5.309c-4.208,4.677-8.336,9.425-12.496,14.146"/>
<path fill-rule="evenodd" clip-rule="evenodd" fill="none" stroke="#000000" stroke-width="2" stroke-linecap="round" stroke-linejoin="round" stroke-miterlimit="10" d="
	M294,503.76c1.499-0.103,2.701,0.24,3.892,1.387c1.634,1.574,3.706,2.681,5.453,4.151c4.208,3.544,8.339,7.178,12.493,10.784
	c1.318,1.145,2.312,2.483,2.402,4.318"/>
<path fill-rule="evenodd" clip-rule="evenodd" fill="none" stroke="#000000" stroke-width="2" stroke-linecap="round" stroke-linejoin="round" stroke-miterlimit="10" d="
	M338.4,503.76c-0.16,5.44-0.345,10.88-0.473,16.32c-0.115,4.879-0.135,9.761-0.266,14.64c-0.046,1.683-0.382,3.357-0.442,5.041
	c-0.08,2.237-0.02,4.479-0.02,6.72"/>
<path fill-rule="evenodd" clip-rule="evenodd" fill="none" stroke="#000000" stroke-width="2" stroke-linecap="round" stroke-linejoin="round" stroke-miterlimit="10" d="
	M316.8,478.08c-1.52,0.4-3.019,0.967-4.564,1.164c-2.864,0.365-5.762,0.454-8.634,0.773c-2.889,0.321-5.762,0.782-8.642,1.183"/>
<path fill-rule="evenodd" clip-rule="evenodd" fill="none" stroke="#000000" stroke-width="2" stroke-linecap="round" stroke-linejoin="round" stroke-miterlimit="10" d="
	M397.68,416.4c6.24-0.08,12.489,0.02,18.717-0.302c4.223-0.218,8.324,0.526,12.483,0.778c6.88,0.417,13.756,1.001,20.642,1.138
	c4.953,0.1,9.918-0.414,14.879-0.654"/>
<path fill-rule="evenodd" clip-rule="evenodd" fill="none" stroke="#000000" stroke-width="2" stroke-linecap="round" stroke-linejoin="round" stroke-miterlimit="10" d="
	M337.44,461.04c8.479-0.08,16.96-0.121,25.439-0.256c4.481-0.071,8.96-0.31,13.44-0.46c0.959-0.031,1.935-0.108,2.876,0.021
	c1.311,0.181,2.245,0.818,2.176,2.375c-0.058,1.277,0.033,2.562-0.021,3.839c-0.133,3.121-0.302,6.241-0.474,9.36
	c-0.313,5.681-0.717,11.357-0.931,17.041c-0.144,3.835-0.027,7.679-0.027,11.52"/>
<path fill-rule="evenodd" clip-rule="evenodd" fill="none" stroke="#000000" stroke-width="2" stroke-linecap="round" stroke-linejoin="round" stroke-miterlimit="10" d="
	M507.84,417.36c0.88-0.16,1.761-0.462,2.641-0.458c6.88,0.04,13.76,0.135,20.64,0.228c0.241,0.003,0.479,0.15,0.72,0.23"/>
<path fill-rule="evenodd" clip-rule="evenodd" fill="none" stroke="#000000" stroke-width="2" stroke-linecap="round" stroke-linejoin="round" stroke-miterlimit="10" d="
	M477.12,534c-2.24,2.48-4.604,4.861-6.677,7.475c-1.423,1.793-2.423,3.829-4.546,5.102c-0.905,0.543-1.178,2.144-1.737,3.264"/>
<path fill-rule="evenodd" clip-rule="evenodd" fill="none" stroke="#000000" stroke-width="2" stroke-linecap="round" stroke-linejoin="round" stroke-miterlimit="10" d="
	M444.72,503.76c0.48-0.24,0.968-0.702,1.439-0.686c5.602,0.188,11.201,0.433,16.8,0.703c0.646,0.031,1.281,0.303,1.921,0.463"/>
<path fill-rule="evenodd" clip-rule="evenodd" fill="none" stroke="#000000" stroke-width="2" stroke-linecap="round" stroke-linejoin="round" stroke-miterlimit="10" d="
	M464.64,248.04c-7.76,0.04-15.521,0.203-23.279,0.075c-4.884-0.08-9.758-0.66-14.642-0.877c-1.52-0.067-3.333-1.42-4.559,0.682"/>
<path fill-rule="evenodd" clip-rule="evenodd" fill="none" stroke="#000000" stroke-width="2" stroke-linecap="round" stroke-linejoin="round" stroke-miterlimit="10" d="
	M562.32,163.44c-8.24,0.32-16.479,0.793-24.721,0.903c-5.036,0.067-10.078-0.52-15.12-0.625c-2.716-0.057-5.44,0.435-8.159,0.417
	c-15.761-0.108-31.521-0.287-47.28-0.461c-3.12-0.034-6.24-0.153-9.36-0.233"/>
<path fill-rule="evenodd" clip-rule="evenodd" fill="none" stroke="#000000" stroke-width="2" stroke-linecap="round" stroke-linejoin="round" stroke-miterlimit="10" d="
	M464.88,375.12c-0.911,1.463-2.379,1.414-3.84,1.446c-2.641,0.058-5.28,0.154-7.92,0.233"/>
<path fill-rule="evenodd" clip-rule="evenodd" fill="none" stroke="#000000" stroke-width="2" stroke-linecap="round" stroke-linejoin="round" stroke-miterlimit="10" d="
	M465.36,375.84c1.68-0.08,3.36-0.238,5.04-0.225c5.2,0.04,10.4,0.223,15.6,0.198c3.44-0.016,6.879-0.357,10.32-0.435
	c3.519-0.08,7.04-0.018,10.56-0.018c0.88,0,2.178-0.361,2.555,0.074c0.834,0.963,1.205,2.326,1.766,3.526"/>
<path fill-rule="evenodd" clip-rule="evenodd" fill="none" stroke="#000000" stroke-width="2" stroke-linecap="round" stroke-linejoin="round" stroke-miterlimit="10" d="
	M422.4,247.44c-1.761-0.24-3.523-0.696-5.279-0.668c-2.563,0.041-5.121,0.429-7.681,0.668"/>
<path fill-rule="evenodd" clip-rule="evenodd" fill="none" stroke="#000000" stroke-width="2" stroke-linecap="round" stroke-linejoin="round" stroke-miterlimit="10" d="
	M465.36,418.08c0.72,1.52,1.439,3.04,2.159,4.56"/>
<path fill-rule="evenodd" clip-rule="evenodd" fill="none" stroke="#000000" stroke-width="2" stroke-linecap="round" stroke-linejoin="round" stroke-miterlimit="10" d="
	M595.44,0.72c-1.44,0-2.881,0-4.32,0"/>
<path fill-rule="evenodd" clip-rule="evenodd" fill="none" stroke="#000000" stroke-width="2" stroke-linecap="round" stroke-linejoin="round" stroke-miterlimit="10" d="
	M124.8,164.16c-0.241-0.612,0.744-2.247-1.2-1.44"/>
</svg>
