<?xml version="1.0" encoding="utf-8"?>
<!-- Generator: Adobe Illustrator 16.0.0, SVG Export Plug-In . SVG Version: 6.00 Build 0)  -->
<!DOCTYPE svg PUBLIC "-//W3C//DTD SVG 1.1//EN" "http://www.w3.org/Graphics/SVG/1.1/DTD/svg11.dtd">
<svg version="1.1" id="Layer_1" xmlns="http://www.w3.org/2000/svg" xmlns:xlink="http://www.w3.org/1999/xlink" x="0px" y="0px"
	 width="595.2px" height="841.68px" viewBox="0 0 595.2 841.68" enable-background="new 0 0 595.2 841.68" xml:space="preserve">
<path fill-rule="evenodd" clip-rule="evenodd" fill="none" stroke="#000000" stroke-width="2" stroke-linecap="round" stroke-linejoin="round" stroke-miterlimit="10" d="
	M341.28,626.64c-2.41-1.895-2.904-4.739-3.579-7.444c-1.425-5.711,0.916-10.859,2.639-16.068c1.096-3.314,2.504-6.528,3.547-9.857
	c1.139-3.638-0.605-6.851-5.245-7.003c-6.614-0.217-13.059,0.76-19.429,2.271c-2.752,0.652-5.32,0.462-7.931-0.304
	c-3.202-0.94-3.794-0.691-4.795,2.409c-1.787,5.538-1.346,11.039,0.203,16.565c0.884,3.154,1.436,6.4,2.197,9.59
	c1.434,6.009-0.559,11.065-4.339,15.593c-2.881,3.451-5.458,7.247-5.36,11.766c0.083,3.855,1.119,7.792,2.327,11.499
	c1.959,6.012,4.524,11.823,6.602,17.8c1.333,3.837,0.699,8.293-4.048,9.544c-4.353,1.147-8.328,0.871-12.066-2.515
	c-4.847-4.39-8.599-9.652-12.892-14.477c-1.466-1.648-3.083-3.162-4.535-4.822c-1.199-1.37-2.637-2.708-3.309-4.333
	c-2.548-6.169-7.249-10.564-11.827-15.093c-1.293-1.279-2.601-2.554-2.641-4.56"/>
<path fill-rule="evenodd" clip-rule="evenodd" fill="none" stroke="#000000" stroke-width="2" stroke-linecap="round" stroke-linejoin="round" stroke-miterlimit="10" d="
	M264.72,123.12c0.551-3.425-1.908-5.463-3.896-7.383c-8.994-8.69-18.086-17.285-27.352-25.684c-3.792-3.438-7.931-6.58-12.252-9.318
	c-3.212-2.034-7.158-2.177-10.98-2.277c-5.922-0.155-11.857-0.835-17.755-0.577c-4.666,0.204-9.447,0.415-13.941,2.24
	c-2.227,0.904-4.624,1.249-6.944,0.04"/>
<path fill-rule="evenodd" clip-rule="evenodd" fill="none" stroke="#000000" stroke-width="2" stroke-linecap="round" stroke-linejoin="round" stroke-miterlimit="10" d="
	M133.2,121.44c-0.058,2.896-0.979,5.24-3.321,7.246c-7.704,6.599-15.28,13.349-22.824,20.131
	c-4.803,4.317-9.931,8.355-13.441,13.912c-2.998,4.746-4.271,9.999-4.614,15.589c-0.412,6.714,0.795,13.181,2.156,19.692
	c1.539,7.357,3.615,14.638,3.203,22.313c-0.347,6.47-0.608,12.964-0.431,19.436c0.119,4.374,0.557,8.817,2.311,12.963
	c2.171,5.133,6.742,7.139,11.522,8.879"/>
<path fill-rule="evenodd" clip-rule="evenodd" fill="none" stroke="#000000" stroke-width="2" stroke-linecap="round" stroke-linejoin="round" stroke-miterlimit="10" d="
	M99.36,258.24c-0.24,1.76-0.553,3.514-0.707,5.281c-0.647,7.391,1.087,14.377,3.287,21.378c3.396,10.81,8.376,20.857,14.295,30.415
	c4.106,6.63,9.077,12.694,14.563,18.288c3.129,3.191,6.37,6.287,9.307,9.646c1.437,1.643,2.274,3.804,3.426,5.706
	c0.413,0.681,0.949,1.286,1.429,1.926"/>
<path fill-rule="evenodd" clip-rule="evenodd" fill="none" stroke="#000000" stroke-width="2" stroke-linecap="round" stroke-linejoin="round" stroke-miterlimit="10" d="
	M174.24,316.56c-4.104,5.18-9.404,9.097-14.957,12.349c-7.546,4.42-10.326,11.399-12.726,19.065
	c-1.512,4.83-1.019,9.586-0.905,14.427c0.118,5.021,0.206,10.075-3.083,14.406c-1.903,2.505-4.312,3.945-7.426,4.654
	c-1.729,0.394-3.243,1.788-4.818,2.786c-2.099,1.33-4.16,2.721-6.247,4.068c-0.784,0.506-1.607,0.949-2.396,1.447
	c-4.749,2.995-10.063,5.041-14.194,9.084c-5.759,5.635-11.358,11.291-14.912,18.723c-2.05,4.287-5.703,7.411-9.558,10.078
	c-10.917,7.554-22.598,14.068-31.903,23.787c-2.723,2.844-4.469,6.071-4.838,10.081c-0.237,2.579,0.12,4.979,2.009,6.674
	c2.456,2.206,5.088,4.293,7.904,6.002c6.65,4.036,13.28,8.171,18.837,13.585c3.924,3.823,7.188,8.394,10.355,12.905
	c3.353,4.776,2.49,9.899,0.049,14.833c-3.836,7.754-10.618,11.732-18.462,14.429c-7.386,2.539-13.94,6.363-18.229,13.188
	c-2.284,3.637-3.854,7.478-3.199,11.997c0.298,2.063,1.328,3.474,2.705,4.786c3.092,2.948,6.99,4.494,10.78,6.277
	c5.762,2.711,12.05,4.299,17.105,8.548c2.766,2.325,4.187,5.148,5.275,8.445c1.919,5.813,4.382,11.457,6.081,17.328
	c0.824,2.848,0.58,6.047,0.561,9.086c-0.029,4.562-0.397,9.12-0.393,13.681c0.002,1.92,0.691,3.829,0.888,5.762
	c0.613,6.009,4.989,8.263,9.858,10.081c5.28,1.973,10.287,0.582,15.1-1.492c4.891-2.106,9.762-4.141,15.143-4.479
	c0.946-0.06,1.918,0.288,2.878,0.448"/>
<path fill-rule="evenodd" clip-rule="evenodd" fill="none" stroke="#000000" stroke-width="2" stroke-linecap="round" stroke-linejoin="round" stroke-miterlimit="10" d="
	M132,633.36c3.291-0.106,6.119,0.973,8.394,3.365c1.95,2.052,3.914,4.097,5.752,6.246c4.171,4.878,9.896,7.721,14.922,11.471
	c3.076,2.294,5.288,5.161,7.2,8.421c3.201,5.458,7.444,9.934,12.916,13.242c3.578,2.164,7.581,2.824,11.544,3.256
	c6.368,0.693,12.788,1.094,19.193,1.195c3.673,0.059,7.362-0.688,11.038-1.125c3.634-0.433,4.955-3.622,4.887-6.714
	c-0.091-4.146-1.769-7.64-3.742-11.005c-1.733-2.957-3.87-5.689-5.961-8.419c-3.075-4.013-3.831-8.649-3.477-13.446
	c0.115-1.552-0.699-3.556,1.094-4.808"/>
<path fill-rule="evenodd" clip-rule="evenodd" fill="none" stroke="#000000" stroke-width="2" stroke-linecap="round" stroke-linejoin="round" stroke-miterlimit="10" d="
	M136.32,198c-1.949,1.181-1.344,3.345-1.885,5.051c-0.85,2.679-1.473,5.43-2.202,8.147c-0.025,0.095-0.226,0.165-0.223,0.241
	c0.227,4.915-3.362,8.695-3.907,13.434c-0.736,6.403-0.637,12.541,1.569,18.786c1.169,3.311,1.907,6.518,4.969,8.579
	c2.632,1.771,5.328,3.454,7.906,5.299c3.251,2.328,6.843,4.386,9.512,7.276c3.989,4.321,7.226,9.327,10.921,13.93
	c4.071,5.071,7.99,10.327,12.572,14.904c2.921,2.919,7.036,4.605,10.425,7.103c7.15,5.268,13.579,11.328,19.23,18.203
	c4.271,5.194,9.162,9.923,12.427,15.871c1.77,3.223,3.395,6.595,4.529,10.08c1.564,4.807,5.088,7.968,8.509,11.22
	c3.121,2.967,6.586,5.568,9.793,8.451c5.484,4.93,11.113,9.547,17.712,13.059c4.792,2.55,9.647,3.653,14.94,3.771
	c2.166,0.048,4.312,0.744,6.483,0.882c3.752,0.239,7.519,0.373,11.278,0.348c1.682-0.012,3.395-0.388,5.029-0.834
	c1.333-0.365,2.559-1.11,3.854-1.631c1.103-0.444,2.236-0.809,3.356-1.209"/>
<path fill-rule="evenodd" clip-rule="evenodd" fill="none" stroke="#000000" stroke-width="2" stroke-linecap="round" stroke-linejoin="round" stroke-miterlimit="10" d="
	M427.92,592.56c-2.416,2.074-5.011,0.812-7.428,0.193c-6.994-1.787-13.92-3.84-20.896-5.695c-4.114-1.094-8.171-0.74-11.973,1.227
	c-0.799,0.414-1.775,1.345-1.86,2.125c-0.358,3.271-0.298,6.451,2.289,9.138c5.96,6.188,13.217,10.326,20.896,13.919
	c6.256,2.927,12.358,6.189,17.743,10.569c2.254,1.833,3.696,4.382,4.577,7.168c1.07,3.386,0.487,3.563-2.292,6.333
	c-2.904,2.896-5.785,1.325-8.73,1.043c-0.521-0.05-0.966-0.899-1.446-1.379"/>
<path fill-rule="evenodd" clip-rule="evenodd" fill="none" stroke="#000000" stroke-width="2" stroke-linecap="round" stroke-linejoin="round" stroke-miterlimit="10" d="
	M333.36,332.64c0.902,1.253,2.244,0.871,3.354,0.682c6.089-1.04,10.562,1.453,14.733,5.713c2.992,3.055,4.39,6.022,4.122,10.413
	c-0.389,6.375-3.128,11.824-5.384,17.522c-1.183,2.984-2.068,6.083-3.168,9.103c-0.339,0.931-1.181,1.723-1.354,2.66
	c-0.197,1.069-0.24,2.441,0.288,3.277c0.384,0.605,2.104,1.06,2.717,0.703c2.602-1.513,5.469-1.233,8.216-1.547
	c5.503-0.629,11.032-1.036,16.556-1.474c4.41-0.35,8.819,0.757,12.613,2.396c3.653,1.58,6.724,5.024,7.756,9.361
	c1.302,5.474,0.189,10.571-2.283,15.635c-2.024,4.143-3.161,8.751-1.686,13.372c0.637,1.994,1.816,4.085,3.349,5.469
	c3.459,3.125,7.32,5.801,10.962,8.728c3.321,2.67,6.581,5.415,9.846,8.153c5.278,4.426,10.021,9.372,14.15,14.886
	c2.168,2.895,3.254,6.178,2.856,9.826c-0.063,0.589-0.5,1.231-0.944,1.663c-1.056,1.026-2.091,2.223-3.379,2.815
	c-1.088,0.499-3.024,0.824-3.712,0.225c-2.769-2.413-6.268-2.778-9.458-3.953c-6.653-2.448-13.615-3.045-20.628-2.819
	c-1.459,0.047-2.894,1.171-4.321,1.838c-5.901,2.759-7.608,9.436-4.503,14.843c2.312,4.026,1.515,7.982,0.646,12.029
	c-0.814,3.791,0.115,7.693,2.933,8.52c3.717,1.091,7.326,3.305,11.478,2.261c0.603-0.151,1.126-0.616,1.686-0.937"/>
<path fill-rule="evenodd" clip-rule="evenodd" fill="none" stroke="#000000" stroke-width="2" stroke-linecap="round" stroke-linejoin="round" stroke-miterlimit="10" d="
	M260.16,423.36c0.56,5.439,1.378,10.868,1.61,16.322c0.251,5.907,1.063,11.86-0.19,17.753c-0.431,2.027-1.013,4.034-1.68,5.997
	c-0.973,2.861-2.927,4.201-5.979,4.328c-1.76,0.074-3.52,0.159-5.28,0.239"/>
<path fill-rule="evenodd" clip-rule="evenodd" fill="none" stroke="#000000" stroke-width="2" stroke-linecap="round" stroke-linejoin="round" stroke-miterlimit="10" d="
	M169.44,77.28c-1.12-0.8-2.132-1.986-3.378-2.334c-5.959-1.667-11.921-3.436-17.997-4.543c-7.79-1.42-15.71-1.273-23.489,0.242
	c-3.139,0.611-6.264,1.84-9.1,3.345c-5.189,2.751-10.796,4.092-16.344,5.735c-3.827,1.133-7.736,2.296-11.225,4.164
	c-2.511,1.344-4.492,3.773-6.523,5.896c-2.897,3.027-5.486,6.355-8.455,9.306c-5.577,5.544-11.235,11.015-17.052,16.304
	c-2.695,2.45-5.904,4.385-7.599,7.746c-0.789,1.564-1.139,3.348-1.738,5.013c-0.104,0.289-0.461,0.487-0.701,0.727"/>
<path fill-rule="evenodd" clip-rule="evenodd" fill="none" stroke="#000000" stroke-width="2" stroke-linecap="round" stroke-linejoin="round" stroke-miterlimit="10" d="
	M332.64,301.68c1.521,0.8,2.988,1.727,4.569,2.379c9.59,3.957,11.357,15.499,4.485,21.303c-2.122,1.792-4.776,3.13-7.04,4.768
	c-3.401,2.461-6.524,5.517-9.115,8.828c-2.536,3.242-4.228,7.141-6.348,10.717c-2.524,4.26-5.276,8.396-7.619,12.753
	c-1.86,3.46-3.218,7.188-4.873,10.762c-0.509,1.101-1.118,2.219-1.929,3.103c-1.734,1.892-0.905,4.206-1.09,6.274
	c-0.613,6.861-0.838,13.755-1.295,20.632c-0.325,4.885-0.808,9.759-1.165,14.642c-0.064,0.87-0.1,1.877,0.266,2.616
	c0.995,2.016,0.144,2.702-1.72,3.17c-3.463,0.867-6.853,2.059-10.343,2.77c-1.356,0.276-2.955,0.533-4.386-0.787
	c-0.728-0.672-2.313-0.498-3.518-0.554c-4.77-0.223-9.389-1.019-13.959-2.535c-1.754-0.582-3.959,0.214-5.96,0.352
	c-0.717,0.049-1.537,0.233-2.144-0.029c-3.598-1.559-7.298-1.224-11.06-0.981c-2.38,0.153-4.795-0.349-7.197-0.396
	c-2.158-0.042-4.32,0.134-6.479,0.215c-4.24,0.159-8.484,0.257-12.718,0.517c-1.295,0.079-2.563,0.601-3.842,0.923
	c-7.137,1.802-14.096,1.156-21.149-0.859c-4.406-1.26-9.08-1.638-13.66-2.192c-1.145-0.138-2.429,0.473-3.585,0.91
	c-4.094,1.545-5.17,1.005-5.981-3.383c-0.35-1.892-0.579-3.834-0.596-5.755c-0.046-5.199,0.005-10.401,0.109-15.6
	c0.055-2.722,0.297-5.44,0.462-8.16c0.374-6.136,0.903-12.244,2.382-18.244c1.944-7.889,0.942-15.664-1.463-23.263
	c-1.893-5.982-1.968-11.842,0.029-17.776c1.338-3.98,2.577-7.995,3.833-12.002c0.062-0.196-0.142-0.475-0.222-0.714"/>
<path fill-rule="evenodd" clip-rule="evenodd" fill="none" stroke="#000000" stroke-width="2" stroke-linecap="round" stroke-linejoin="round" stroke-miterlimit="10" d="
	M272.88,122.88c-1.36,0-2.72,0.002-4.08,0c-1.776-0.003-3.546,0.018-5.485,1.086c0.842,1.187,1.354,2.231,2.148,2.971
	c3.58,3.332,6.13,7.397,8.658,11.519c1.121,1.827,2.676,3.388,4.041,5.064c5.488,6.74,11.797,12.616,18.984,17.484
	c4.008,2.715,5.217,6.839,6.169,11.086c0.918,4.092,1.201,8.213,0.628,12.484c-0.614,4.579-0.372,9.269-0.604,13.905
	c-0.109,2.167-0.387,4.332-0.719,6.478c-0.292,1.885-0.509,3.418,1.152,5.11c4.362,4.441,8.315,9.282,12.567,13.836
	c5.443,5.831,10.904,11.656,16.587,17.251c3.187,3.137,6.861,5.775,10.255,8.708c0.848,0.732,1.459,1.738,2.18,2.618"/>
<path fill-rule="evenodd" clip-rule="evenodd" fill="none" stroke="#000000" stroke-width="2" stroke-linecap="round" stroke-linejoin="round" stroke-miterlimit="10" d="
	M391.44,551.52c-1.651,6.735,2.828,10.422,7.238,13.871c6.085,4.758,12.526,9.06,18.646,13.775c3.084,2.376,5.935,5.103,8.606,7.938
	c1.06,1.125,1.303,2.998,2.018,4.481c0.217,0.449,0.771,0.734,1.172,1.094"/>
<path fill-rule="evenodd" clip-rule="evenodd" fill="none" stroke="#000000" stroke-width="2" stroke-linecap="round" stroke-linejoin="round" stroke-miterlimit="10" d="
	M386.88,641.04c1.668,1.378,1.212,3.282,1.174,5.039c-0.027,1.283-0.444,2.563-0.429,3.841c0.076,6.26-1.172,12.364-2.267,18.465
	c-0.396,2.204-2.011,4.031-4.003,5.288c-1.578,0.995-3.106,2.464-4.818,2.749c-2.063,0.344-4.394-0.029-6.435-0.656
	c-2.934-0.902-5.74-2.347-8.898-2.045c-1.861,0.178-3.69,0.734-5.521,1.173c-0.66,0.157-1.266,0.543-1.927,0.694
	c-4.239,0.968-6.766-0.604-8.643-5.266c-1.237-3.075-1.315-6.177-0.506-9.37c0.21-0.827,0.298-1.863-0.014-2.613
	c-1.437-3.453,0.136-6.727,0.921-9.819c1.164-4.584,0.54-8.758-0.895-12.993c-0.689-2.037-1.451-4.071-2.414-5.99
	c-1.198-2.389-0.271-4.699,0.103-6.965c0.417-2.53,1.37-4.972,2.091-7.451"/>
<path fill-rule="evenodd" clip-rule="evenodd" fill="none" stroke="#000000" stroke-width="2" stroke-linecap="round" stroke-linejoin="round" stroke-miterlimit="10" d="
	M263.76,123.84c-3.177-1.646-6.493-1.113-9.842-0.742c-7.833,0.868-15.664,1.844-23.522,2.338c-4.692,0.295-9.462,0.02-14.146-0.479
	c-3.644-0.388-7.303-1.232-10.788-2.379c-6.432-2.118-12.898-2.371-19.457-1.121c-9.128,1.741-17.365,5.455-24.481,11.504
	c-4.41,3.749-8.992,7.321-13.153,11.329c-4.921,4.741-8.939,10.274-11.749,16.536c-1.064,2.372-2.274,4.358-4.333,6.031
	c-2.543,2.065-2.866,7.817-0.44,10.172c1.377,1.338,2.131,2.875,2.465,4.429c0.969,4.507,1.519,9.103,2.253,13.66
	c0.246,1.525,0.784,3.041,0.782,4.561c-0.003,2.4-0.137,4.842-0.611,7.187c-0.417,2.061-1.21,4.098-2.167,5.977
	c-0.472,0.928-1.689,1.476-2.569,2.196"/>
<path fill-rule="evenodd" clip-rule="evenodd" fill="none" stroke="#000000" stroke-width="2" stroke-linecap="round" stroke-linejoin="round" stroke-miterlimit="10" d="
	M260.64,379.68c-0.16,0.48-0.45,0.957-0.46,1.44c-0.105,5.133-3.899,6.914-7.637,9.222c-5.683,3.508-10.056,8.446-10.541,15.503
	c-0.342,4.979,2.327,8.712,6.375,11.547c1.422,0.996,2.583,2.367,3.863,3.567"/>
<path fill-rule="evenodd" clip-rule="evenodd" fill="none" stroke="#000000" stroke-width="2" stroke-linecap="round" stroke-linejoin="round" stroke-miterlimit="10" d="
	M216,550.32c-0.243,1.548,0.914,2.135,1.913,2.889c7.613,5.743,15.222,11.492,22.801,17.279c3.705,2.829,8.152,3.076,12.478,3.875
	c2.126,0.392,4.311,0.965,6.204,1.961c1.579,0.831,2.323,2.409,1.523,4.491c-1.655,4.309-2.38,8.845-2.945,13.421
	c-0.8,6.479,0.458,12.531,3.923,17.968c2.616,4.104,4.067,8.546,4.146,13.237c0.063,3.817-0.858,7.791-4.263,10.234
	c-1.305,0.937-3.291,0.925-5.022,1.358c-5.114-3.966-10.245-7.964-16.53-9.87c-4.457-1.352-8.89-3.318-13.661-2.866
	c-5.847,0.553-9.394,2.006-10.856,8.812c-0.26,1.212,0.047,1.736,1.011,2.171"/>
<path fill-rule="evenodd" clip-rule="evenodd" fill="none" stroke="#000000" stroke-width="2" stroke-linecap="round" stroke-linejoin="round" stroke-miterlimit="10" d="
	M112.8,267.84c-0.68,2.445,1.059,4.202,2.251,5.688c4.576,5.7,9.444,11.171,14.326,16.618c5.903,6.586,13.901,9.226,22.022,11.9
	c5.466,1.8,10.989,3.103,16.613,3.869c5.305,0.723,10.709,0.711,16.067,1.06c0.966,0.063,1.921,0.306,2.881,0.466"/>
<path fill-rule="evenodd" clip-rule="evenodd" fill="none" stroke="#000000" stroke-width="2" stroke-linecap="round" stroke-linejoin="round" stroke-miterlimit="10" d="
	M129.84,217.68c-1.888-1.02-3.665-0.195-5.527,0.209c-7.348,1.596-13.116,5.494-17.523,11.543c-2.619,3.595-3.6,7.73-4.043,12.011
	c-0.595,5.746,0.665,11.062,4.015,15.864c0.593,0.85,0.634,2.07,1.012,3.088c0.336,0.904,0.683,1.834,1.211,2.629
	c0.786,1.182,1.658,2.332,2.646,3.347c0.55,0.565,1.454,0.767,2.121,1.241c1.865,1.326,3.661,2.748,5.534,4.061
	c6.266,4.394,13.184,7.158,20.875,7.126c5.101-0.021,9.916-1.905,14.63-3.784c1.187-0.473,2.25-1.255,3.37-1.895"/>
<path fill-rule="evenodd" clip-rule="evenodd" fill="none" stroke="#000000" stroke-width="2" stroke-linecap="round" stroke-linejoin="round" stroke-miterlimit="10" d="
	M254.4,504c2.195,0.409,4.504,0.27,5.819,2.851c1.424,2.798,0.415,5.217-0.846,7.432c-1.904,3.346-4.33,6.39-6.392,9.651
	c-2.23,3.527-4.943,6.625-8.449,8.822c-5.253,3.291-10.679,6.308-16.069,9.374c-0.673,0.383-1.63,0.605-2.375,0.466
	c-3.254-0.608-5.654,1.236-8.149,2.718c-1.308,0.775-2.413,1.894-3.463,3.02c0.587,1.528,1.393,2.124,2.464,1.476
	c3.016-1.829,5.947-3.797,8.886-5.748c0.259-0.172,0.333-0.621,0.493-0.94"/>
<path fill-rule="evenodd" clip-rule="evenodd" fill="none" stroke="#000000" stroke-width="2" stroke-linecap="round" stroke-linejoin="round" stroke-miterlimit="10" d="
	M302.88,310.56c2.558,0.1,4.304,1.495,5.509,3.606c2.38,4.167,5.125,7.896,9.062,10.886c3.679,2.793,7.682,3.926,12.064,4.51
	c1.236,0.165,2.405,0.838,3.605,1.278"/>
<path fill-rule="evenodd" clip-rule="evenodd" fill="none" stroke="#000000" stroke-width="2" stroke-linecap="round" stroke-linejoin="round" stroke-miterlimit="10" d="
	M267.36,422.16c1.6-1.04,3.232-2.034,4.794-3.129c4.651-3.263,7.806-7.512,7.333-13.422c-0.165-2.058-1.255-4.334-2.598-5.95
	c-4.418-5.317-9.959-8.591-17.209-8.246c-3.207,0.153-5.781,1.066-6.958,4.346"/>
<path fill-rule="evenodd" clip-rule="evenodd" fill="none" stroke="#000000" stroke-width="2" stroke-linecap="round" stroke-linejoin="round" stroke-miterlimit="10" d="
	M136.32,163.2c3.28-0.16,6.566-0.525,9.839-0.436c6.084,0.166,12.187,0.355,18.232,1.004c3.731,0.401,7.37,1.671,11.049,2.551"/>
<path fill-rule="evenodd" clip-rule="evenodd" fill="none" stroke="#000000" stroke-width="2" stroke-linecap="round" stroke-linejoin="round" stroke-miterlimit="10" d="
	M259.44,195.6c0.88-0.88,1.989-1.63,2.583-2.672c0.78-1.367-0.015-2.681-0.608-4.071c-2.389-5.6-6.985-7.213-12.531-7.705
	c-5.263-0.466-10.426,0.024-15.606,0.754c-0.706,0.1-1.442-0.036-2.157,0.024c-1.523,0.126-3.136,0.044-4.536,0.542
	c-1.51,0.537-2.95,0.056-4.331,0.266c-2.453,0.372-4.893,1.151-7.2,2.098c-7.141,2.93-12.786,7.889-17.743,13.671
	c-0.768,0.896-1.119,2.149-1.762,3.438c2.173,0.652,4.116,1.221,6.05,1.818c4.643,1.432,9.288,2.856,13.917,4.329
	c1.542,0.49,3.323,0.166,4.631,1.608c0.361,0.398,1.539-0.004,2.332,0.072c3.042,0.292,6.077,0.842,9.122,0.9
	c5.036,0.097,10.079-0.172,15.119-0.156c1.521,0.005,3.04,0.444,4.56,0.684"/>
<path fill-rule="evenodd" clip-rule="evenodd" fill="none" stroke="#000000" stroke-width="2" stroke-linecap="round" stroke-linejoin="round" stroke-miterlimit="10" d="
	M302.64,282.96c2.348-0.714,4.694-1.429,7.318-2.228c1.451,1.906,3.796,0.725,5.883,0.741c4.75,0.036,9.276,1.086,13.667,2.721
	c3.185,1.186,6.295,2.598,9.354,4.083c1.542,0.749,3.094,1.686,4.298,2.883c2.736,2.72,1.306,6.662-2.598,7.652
	c-2.628,0.667-5.24,1.231-7.746,2.503c-1.75,0.889-4.1,0.819-6.176,0.788c-2.295-0.035-3.72,1.131-5.041,2.697"/>
<path fill-rule="evenodd" clip-rule="evenodd" fill="none" stroke="#000000" stroke-width="2" stroke-linecap="round" stroke-linejoin="round" stroke-miterlimit="10" d="
	M248.52,467.28c0.215,1.515-0.997,0.999-1.555,0.923c-4.809-0.655-9.596-1.477-14.408-2.102c-4.467-0.58-8.953-1.025-13.441-1.41
	c-0.608-0.053-1.498,0.424-1.879,0.936c-2.222,2.983-2.853,6.36-2.487,10.058c0.203,2.053-0.213,4.159-0.141,6.233
	c0.031,0.891,0.592,1.762,0.912,2.642"/>
<path fill-rule="evenodd" clip-rule="evenodd" fill="none" stroke="#000000" stroke-width="2" stroke-linecap="round" stroke-linejoin="round" stroke-miterlimit="10" d="
	M388.32,655.2c1.862,1.799,1.083,4.244,1.047,6.237c-0.057,3.051-0.934,6.14-1.814,9.108c-1.177,3.961-4.004,6.327-8.12,6.925
	c-0.749,0.108-1.593-0.431-2.393-0.671"/>
<path fill-rule="evenodd" clip-rule="evenodd" fill="none" stroke="#000000" stroke-width="2" stroke-linecap="round" stroke-linejoin="round" stroke-miterlimit="10" d="
	M301.2,249.84c0.399,0.48,0.715,1.245,1.214,1.394c3.253,0.97,6.552,1.785,9.825,2.69c7.619,2.108,15.25,4.246,23.274,2.841
	c2.592-0.454,5.304-0.88,7.424-2.633c1.457-1.205,3.058-1.482,4.822-1.413"/>
<path fill-rule="evenodd" clip-rule="evenodd" fill="none" stroke="#000000" stroke-width="2" stroke-linecap="round" stroke-linejoin="round" stroke-miterlimit="10" d="
	M130.56,383.04c-2.08,0-4.213-0.294-6.229,0.065c-3.439,0.615-6.821,1.115-10.335,0.681c-5.347-0.66-10.715-1.163-16.077-1.7
	c-3.517-0.352-7.039-0.897-10.56-0.904c-4.719-0.009-9.487,0.08-14.149,0.735c-7.735,1.086-14.492-1.304-20.83-5.215
	c-1.375-0.848-2.374-2.825-2.866-4.484c-1.394-4.703-1.363-9.516-0.613-14.387c0.473-3.072,0.282-6.24,0.561-9.349
	c0.388-4.328,1.047-8.633,1.385-12.964c0.312-3.988,0.364-7.997,0.51-11.998c0.25-6.88,0.497-13.76,0.719-20.64
	c0.287-8.853-0.275-17.635-1.608-26.41c-0.989-6.507-1.507-13.1-1.934-19.673c-0.289-4.461,0.103-8.963-0.089-13.435
	c-0.361-8.405-0.903-16.803-1.42-25.2c-0.144-2.326-0.544-4.636-0.69-6.962c-0.367-5.837-0.774-11.676-0.936-17.521
	c-0.12-4.314,0.005-8.645,0.23-12.957c0.276-5.287,0.799-10.56,1.162-15.842c0.285-4.157,0.658-8.318,0.685-12.479
	c0.031-4.799-0.305-9.6-0.401-14.401c-0.013-0.635,0.445-1.279,0.685-1.919"/>
<path fill-rule="evenodd" clip-rule="evenodd" fill="none" stroke="#000000" stroke-width="2" stroke-linecap="round" stroke-linejoin="round" stroke-miterlimit="10" d="
	M428.16,540.48c3.435,1.297,4.627,4.274,5.479,7.45c0.13,0.482-0.098,1.329-0.468,1.635c-3.322,2.748-6.609,5.317-11.509,3.936
	c-4.962-1.397-10.043-2.404-15.108-3.392c-4.906-0.956-9.807-1.173-14.65,0.647c-1.878,0.705-3.864,1.136-4.996,2.941
	c-0.639,1.021-0.988,2.222-1.468,3.342"/>
<path fill-rule="evenodd" clip-rule="evenodd" fill="none" stroke="#000000" stroke-width="2" stroke-linecap="round" stroke-linejoin="round" stroke-miterlimit="10" d="
	M175.44,251.28c-0.16,0.4-0.486,0.814-0.455,1.198c0.353,4.273-2.055,7.391-4.346,10.561c-2.933,4.059-6.975,6.843-11.039,9.601"/>
<path fill-rule="evenodd" clip-rule="evenodd" fill="none" stroke="#000000" stroke-width="2" stroke-linecap="round" stroke-linejoin="round" stroke-miterlimit="10" d="
	M336.72,329.76c1.601,0.24,3.199,0.491,4.801,0.718c5.056,0.718,9.634,2.152,12.544,6.923c0.949,1.556,1.101,2.825,0.416,4.359"/>
<path fill-rule="evenodd" clip-rule="evenodd" fill="none" stroke="#000000" stroke-width="2" stroke-linecap="round" stroke-linejoin="round" stroke-miterlimit="10" d="
	M302.16,251.52c0.435,6.465,0.876,12.906,3.563,18.977c1.446,3.268,2.517,6.704,3.757,10.063"/>
<path fill-rule="evenodd" clip-rule="evenodd" fill="none" stroke="#000000" stroke-width="2" stroke-linecap="round" stroke-linejoin="round" stroke-miterlimit="10" d="
	M425.52,533.04c0.641-1.12,1.444-2.18,1.886-3.373c0.841-2.275,2.266-4.71,2.032-6.93c-0.506-4.816,0.009-9.897-2.274-14.398
	c-1.735-3.42-5.204-4.502-8.609-4.728c-5.257-0.348-10.554-0.066-15.833-0.118c-0.803-0.008-1.591-0.437-2.402-0.562
	c-2.36-0.362-4.775-1.202-6.958,0.588"/>
<path fill-rule="evenodd" clip-rule="evenodd" fill="none" stroke="#000000" stroke-width="2" stroke-linecap="round" stroke-linejoin="round" stroke-miterlimit="10" d="
	M224.4,183.36c-0.88,1.2-1.651,2.502-2.659,3.582c-3.706,3.967-4.03,8.973-4.241,13.941c-0.104,2.465,0.42,4.957,0.66,7.437"/>
<path fill-rule="evenodd" clip-rule="evenodd" fill="none" stroke="#000000" stroke-width="2" stroke-linecap="round" stroke-linejoin="round" stroke-miterlimit="10" d="
	M403.92,634.56c-0.56-0.56-1.062-1.521-1.689-1.613c-3.66-0.535-7.351-0.867-11.03-1.265c-0.158-0.017-0.326-0.03-0.479,0.003
	c-1.741,0.376-3.615,2.056-3.072,2.842c0.967,1.399,2.458,0.584,3.793,0.545c3.276-0.096,6.563-0.125,9.838-0.006
	c3.444,0.126,6.887,0.391,10.318,0.723c1.615,0.156,3.192,0.802,4.805,0.89c2.792,0.152,5.604-0.07,8.395,0.097
	c1.14,0.069,2.243,0.745,3.363,1.146"/>
<path fill-rule="evenodd" clip-rule="evenodd" fill="none" stroke="#000000" stroke-width="2" stroke-linecap="round" stroke-linejoin="round" stroke-miterlimit="10" d="
	M215.76,500.88c0.24,0.48,0.711,0.977,0.678,1.438c-0.111,1.551,0.15,2.933,1.249,4.076c0.273,0.284,0.602,0.619,0.958,0.703
	c1.587,0.373,3.182,0.822,4.797,0.952c4.153,0.333,8.317,0.522,12.478,0.744c1.166,0.063,2.245,0.271,3.394,0.615
	c1.71,0.512,3.645,0.312,5.486,0.342c2.399,0.04,4.828-0.222,7.193,0.066c3.213,0.392,5.424,2.196,6.007,5.584"/>
<path fill-rule="evenodd" clip-rule="evenodd" fill="none" stroke="#000000" stroke-width="2" stroke-linecap="round" stroke-linejoin="round" stroke-miterlimit="10" d="
	M261.84,166.56c-5.92-0.4-11.839-0.803-17.76-1.199c-3.68-0.246-7.36-0.673-11.04-0.679c-6.625-0.011-13.062,1.356-19.448,3.046
	c-3.06,0.81-6.111,1.542-9.327,1.925c-3.867,0.459-7.545,2.507-11.305,3.867"/>
<path fill-rule="evenodd" clip-rule="evenodd" fill="none" stroke="#000000" stroke-width="2" stroke-linecap="round" stroke-linejoin="round" stroke-miterlimit="10" d="
	M254.16,503.28c-1.68,0.479-3.35,1-5.042,1.432c-3.688,0.94-7.597,1.212-10.798,3.608"/>
<path fill-rule="evenodd" clip-rule="evenodd" fill="none" stroke="#000000" stroke-width="2" stroke-linecap="round" stroke-linejoin="round" stroke-miterlimit="10" d="
	M220.56,210.24c0.221,2.49,2.415,3.226,4.098,3.48c3.621,0.548,7.341,0.535,11.022,0.565c2.398,0.02,4.807-0.216,7.198-0.467
	c2.09-0.219,4.239-0.375,6.223-1c2.481-0.783,4.887-1.892,7.188-3.118c0.988-0.526,1.816-1.596,2.39-2.604
	c0.952-1.673,1.702-3.472,2.426-5.262c0.931-2.305,0.117-4.817-1.905-6.234"/>
<path fill-rule="evenodd" clip-rule="evenodd" fill="none" stroke="#000000" stroke-width="2" stroke-linecap="round" stroke-linejoin="round" stroke-miterlimit="10" d="
	M216,478.8c1.201,1.731,1.179,3.771,0.51,5.485c-0.813,2.083-0.508,4.011-0.273,6.035c0.334,2.879,0.696,5.756,0.922,8.643
	c0.048,0.618-0.438,1.277-0.678,1.917"/>
<path fill-rule="evenodd" clip-rule="evenodd" fill="none" stroke="#000000" stroke-width="2" stroke-linecap="round" stroke-linejoin="round" stroke-miterlimit="10" d="
	M428.16,519.36c-1.962,2.508-3.537,5.25-4.017,8.409c-0.216,1.423-0.025,3.058,0.485,4.404c0.69,1.819,3.07,8.485,3.313,10.223
	c0.104,0.739,0.372,1.487,0.714,2.155c0.994,1.943,2.063,3.849,3.104,5.769"/>
<path fill-rule="evenodd" clip-rule="evenodd" fill="none" stroke="#000000" stroke-width="2" stroke-linecap="round" stroke-linejoin="round" stroke-miterlimit="10" d="
	M231.6,182.4c-0.002,1.311-0.809,1.819-1.888,2.455c-3.613,2.126-7.138,4.432-9.152,8.346"/>
<path fill-rule="evenodd" clip-rule="evenodd" fill="none" stroke="#000000" stroke-width="2" stroke-linecap="round" stroke-linejoin="round" stroke-miterlimit="10" d="
	M241.2,196.56c-1.609,0.495-3.3,0.864-4.08,2.64"/>
<path fill-rule="evenodd" clip-rule="evenodd" fill="none" stroke="#000000" stroke-width="2" stroke-linecap="round" stroke-linejoin="round" stroke-miterlimit="10" d="
	M387.6,635.28c-1.161,1.024-1.576,2.288-1.462,3.842c0.146,1.998-1.446,3.944-0.22,5.999c0.331,0.554,0.643,1.119,0.962,1.679"/>
<path fill-rule="evenodd" clip-rule="evenodd" fill="none" stroke="#000000" stroke-width="2" stroke-linecap="round" stroke-linejoin="round" stroke-miterlimit="10" d="
	M343.2,656.64c-1.791,3.975-2.312,8.162-2.173,12.48c0.105,3.287,1.445,5.501,4.35,6.426c0.849,0.271,1.903-0.106,2.863-0.186"/>
<path fill-rule="evenodd" clip-rule="evenodd" fill="none" stroke="#000000" stroke-width="2" stroke-linecap="round" stroke-linejoin="round" stroke-miterlimit="10" d="
	M255.12,627.84c0.08,2.48,0.16,4.96,0.24,7.44"/>
<path fill-rule="evenodd" clip-rule="evenodd" fill="none" stroke="#000000" stroke-width="2" stroke-linecap="round" stroke-linejoin="round" stroke-miterlimit="10" d="
	M292.56,424.8c-2.4-1.167-4.8-1.391-7.2,0"/>
<path fill-rule="evenodd" clip-rule="evenodd" fill="none" stroke="#000000" stroke-width="2" stroke-linecap="round" stroke-linejoin="round" stroke-miterlimit="10" d="
	M217.44,499.92c1.2,2.32,2.4,4.64,3.6,6.96"/>
<path fill-rule="evenodd" clip-rule="evenodd" fill="none" stroke="#000000" stroke-width="2" stroke-linecap="round" stroke-linejoin="round" stroke-miterlimit="10" d="
	M117.36,392.88c-0.32,0.56-0.528,1.243-0.981,1.657c-1.3,1.187-2.699,2.263-4.059,3.383"/>
<path fill-rule="evenodd" clip-rule="evenodd" fill="none" stroke="#000000" stroke-width="2" stroke-linecap="round" stroke-linejoin="round" stroke-miterlimit="10" d="
	M206.4,169.92c-0.72,0.56-1.443,1.116-2.159,1.681c-0.804,0.635-1.601,1.279-2.401,1.919"/>
<path fill-rule="evenodd" clip-rule="evenodd" fill="none" stroke="#000000" stroke-width="2" stroke-linecap="round" stroke-linejoin="round" stroke-miterlimit="10" d="
	M192.48,306.72c-1.466,1.444-3.088,2.064-5.04,0.96"/>
<path fill-rule="evenodd" clip-rule="evenodd" fill="none" stroke="#000000" stroke-width="2" stroke-linecap="round" stroke-linejoin="round" stroke-miterlimit="10" d="
	M133.44,166.32c0.24,0.88,0.67,1.757,0.683,2.641c0.033,2.239-0.09,4.481-0.221,6.718c-0.042,0.727-0.301,1.441-0.461,2.161"/>
<path fill-rule="evenodd" clip-rule="evenodd" fill="none" stroke="#000000" stroke-width="2" stroke-linecap="round" stroke-linejoin="round" stroke-miterlimit="10" d="
	M185.76,312.24c-0.417-0.605-0.834-1.21-1.217-1.765c-1.185,0.399-2.144,0.722-3.103,1.044"/>
<path fill-rule="evenodd" clip-rule="evenodd" fill="none" stroke="#000000" stroke-width="2" stroke-linecap="round" stroke-linejoin="round" stroke-miterlimit="10" d="
	M46.68,129.12c0.2,2.32,0.4,4.64,0.6,6.96"/>
<path fill-rule="evenodd" clip-rule="evenodd" fill="none" stroke="#000000" stroke-width="2" stroke-linecap="round" stroke-linejoin="round" stroke-miterlimit="10" d="
	M347.52,377.28c1.2,1.36,2.4,2.72,3.601,4.08"/>
<path fill-rule="evenodd" clip-rule="evenodd" fill="none" stroke="#000000" stroke-width="2" stroke-linecap="round" stroke-linejoin="round" stroke-miterlimit="10" d="
	M427.2,470.88c-1.789-1.253-3.636-1.188-5.521-0.24"/>
<path fill-rule="evenodd" clip-rule="evenodd" fill="none" stroke="#000000" stroke-width="2" stroke-linecap="round" stroke-linejoin="round" stroke-miterlimit="10" d="
	M181.92,307.44c-0.32,1.2-0.64,2.4-0.96,3.6"/>
<path fill-rule="evenodd" clip-rule="evenodd" fill="none" stroke="#000000" stroke-width="2" stroke-linecap="round" stroke-linejoin="round" stroke-miterlimit="10" d="
	M180.72,416.4c0.56,1.12,1.12,2.24,1.68,3.36"/>
<path fill-rule="evenodd" clip-rule="evenodd" fill="none" stroke="#000000" stroke-width="2" stroke-linecap="round" stroke-linejoin="round" stroke-miterlimit="10" d="
	M173.76,336c0.727,0.104,1.975-0.417,1.44,1.2"/>
<path fill-rule="evenodd" clip-rule="evenodd" fill="none" stroke="#000000" stroke-width="2" stroke-linecap="round" stroke-linejoin="round" stroke-miterlimit="10" d="
	M259.44,184.56c0.88,0.24,1.76,0.48,2.64,0.72"/>
<path fill-rule="evenodd" clip-rule="evenodd" fill="none" stroke="#000000" stroke-width="2" stroke-linecap="round" stroke-linejoin="round" stroke-miterlimit="10" d="
	M216.72,420.72c0.16,0.72,0.32,1.44,0.48,2.16"/>
<path fill-rule="evenodd" clip-rule="evenodd" fill="none" stroke="#000000" stroke-width="2" stroke-linecap="round" stroke-linejoin="round" stroke-miterlimit="10" d="
	M343.44,678.24c0.319-0.24,0.64-0.48,0.96-0.721c-0.32-0.159-0.641-0.319-0.96-0.479"/>
</svg>
