<?xml version="1.0" encoding="utf-8"?>
<!-- Generator: Adobe Illustrator 16.0.0, SVG Export Plug-In . SVG Version: 6.00 Build 0)  -->
<!DOCTYPE svg PUBLIC "-//W3C//DTD SVG 1.1//EN" "http://www.w3.org/Graphics/SVG/1.1/DTD/svg11.dtd">
<svg version="1.1" id="Layer_1" xmlns="http://www.w3.org/2000/svg" xmlns:xlink="http://www.w3.org/1999/xlink" x="0px" y="0px"
	 width="595.2px" height="841.68px" viewBox="0 0 595.2 841.68" enable-background="new 0 0 595.2 841.68" xml:space="preserve">
<path fill-rule="evenodd" clip-rule="evenodd" fill="none" stroke="#000000" stroke-width="2" stroke-linecap="round" stroke-linejoin="round" stroke-miterlimit="10" d="
	M209.88,75.48c4.6,4.12,9.378,8.061,13.748,12.413c4.007,3.992,7.641,8.369,11.316,12.682c4.789,5.621,9.195,11.591,14.247,16.959
	c5.615,5.967,11.535,11.699,17.745,17.042c9.635,8.292,19.103,16.772,27.197,26.553c4.755,5.747,8.601,12.284,12.529,18.667
	c2.637,4.285,4.854,8.852,6.982,13.42c2.949,6.331,5.561,12.818,8.457,19.174c3.518,7.718,7.143,15.387,10.8,23.04
	c1.402,2.936,3.154,5.709,4.484,8.674c0.677,1.508,1.07,3.027-0.352,4.832c-5.596,7.1-11.699,13.707-18.039,20.136
	c-4.49,4.553-8.661,9.418-12.998,14.124c-2.454,2.664-4.943,5.296-7.448,7.912c-0.389,0.407-0.947,0.652-1.427,0.972"/>
<path fill-rule="evenodd" clip-rule="evenodd" fill="none" stroke="#000000" stroke-width="2" stroke-linecap="round" stroke-linejoin="round" stroke-miterlimit="10" d="
	M293.76,630.96c-3.12,3.36-6.106,6.858-9.399,10.039c-3.015,2.912-6.225,5.665-9.588,8.164
	c-8.041,5.977-15.467,12.518-21.113,20.903c-1.31,1.946-2.867,3.727-4.208,5.451c5.345,9.031,10.329,17.847,14.348,27.186
	c1.014,2.354,2.622,4.445,3.783,6.746c5.24,10.38,10.386,20.807,15.63,31.185c2.727,5.396,5.587,10.727,8.387,16.086"/>
<path fill-rule="evenodd" clip-rule="evenodd" fill="none" stroke="#000000" stroke-width="2" stroke-linecap="round" stroke-linejoin="round" stroke-miterlimit="10" d="
	M166.08,504.24c-0.64,0.16-1.277,0.444-1.92,0.458c-2.559,0.053-5.126,0.145-7.678-0.002c-7.204-0.413-14.398-1.003-21.604-1.381
	c-2.628-0.139-5.282,0.245-7.916,0.146c-1.054-0.04-2.323-0.48-3.083-1.184c-4.401-4.072-8.545-8.429-13.031-12.401
	c-6.456-5.717-12.443-11.979-19.617-16.882c-1.652-1.129-2.837-2.919-4.365-4.258c-4.521-3.965-9.032-7.947-13.685-11.753
	c-5.932-4.853-10.962-10.493-15.621-16.553c-4.049-5.267-8.475-10.242-12.661-15.406c-1.479-1.824-2.701-3.854-4.124-5.726
	c-0.398-0.523-1.095-0.819-1.655-1.219"/>
<path fill-rule="evenodd" clip-rule="evenodd" fill="none" stroke="#000000" stroke-width="2" stroke-linecap="round" stroke-linejoin="round" stroke-miterlimit="10" d="
	M212.16,548.4c1.92,2.56,3.664,5.279,5.802,7.642c3.033,3.351,6.152,6.683,9.6,9.587c7.348,6.19,14.249,12.73,20.473,20.113
	c4.862,5.768,10.836,10.587,16.182,15.96c4.429,4.451,8.569,9.191,13.013,13.627c3.283,3.277,6.685,6.479,10.331,9.338
	c4.488,3.518,8.645,7.336,12.438,11.573"/>
<path fill-rule="evenodd" clip-rule="evenodd" fill="none" stroke="#000000" stroke-width="2" stroke-linecap="round" stroke-linejoin="round" stroke-miterlimit="10" d="
	M459.84,624.96c1.701,1.659,3.401,3.319,5.18,5.055c-5.509,6.748-10.807,13.472-17.797,18.84
	c-4.932,3.787-9.021,8.717-13.264,13.342c-3.112,3.393-5.551,7.354-9.822,9.668c-1.487,0.807-2.367,2.642-2.815,4.67
	c-0.537,2.431-2.034,4.637-2.987,6.991c-2.863,7.068-6.758,13.59-10.574,20.154c-3.117,5.361-6.4,10.635-9.305,16.109
	c-2.043,3.85-3.509,8.002-5.354,11.963c-1.918,4.118-4.03,8.145-5.969,12.254c-2.137,4.533-4.274,9.072-6.194,13.698
	c-0.622,1.5-1.4,2.366-2.938,2.616"/>
<path fill-rule="evenodd" clip-rule="evenodd" fill="none" stroke="#000000" stroke-width="2" stroke-linecap="round" stroke-linejoin="round" stroke-miterlimit="10" d="
	M400.08,653.28c-3.36-3.601-6.688-7.231-10.091-10.79c-2.424-2.534-4.871-5.057-7.467-7.408c-1.066-0.966-2.251-1.709-4.09-0.602
	c-3.761,2.265-7.781,4.103-11.716,6.072c-3.433,1.719-6.446,3.987-9.116,6.728c-2.227,2.285-2.234,2.738,0.002,5.038
	c6.073,6.246,12.152,12.486,18.24,18.72c2.497,2.557,2.539,2.796,0.959,6.243c-2.967,6.477-5.909,12.965-8.886,19.437
	c-2.139,4.65-4.312,9.284-6.478,13.922c-1.833,3.923-3.623,7.868-5.535,11.752c-1.597,3.241-3.442,6.361-4.989,9.625
	c-1.059,2.234-1.629,4.704-2.709,6.927c-2.204,4.536-4.585,8.987-6.934,13.452c-1.15,2.187-2.375,4.334-3.619,6.469
	c-0.115,0.199-0.612,0.176-0.933,0.256"/>
<path fill-rule="evenodd" clip-rule="evenodd" fill="none" stroke="#000000" stroke-width="2" stroke-linecap="round" stroke-linejoin="round" stroke-miterlimit="10" d="
	M315.36,394.56c0.8,1.12,1.502,2.328,2.416,3.345c5.487,6.109,10.973,12.223,16.577,18.223c1.527,1.635,2.386,3.248,2.419,5.551
	c0.071,5.042,0.65,10.083,0.596,15.119c-0.042,3.924-0.853,7.834-1.089,11.764c-0.192,3.188-0.311,6.426,0.016,9.592
	c0.728,7.041,1.402,14.046,0.476,21.132c-0.318,2.438,0.026,4.957-0.066,7.434c-0.186,4.962-0.31,9.935-0.781,14.873
	c-0.185,1.925,0.157,3.319,1.516,4.568c6.003,5.517,12.048,10.99,17.985,16.575c4.162,3.914,8.129,8.034,12.271,11.968
	c3.366,3.197,6.982,6.137,10.277,9.403c5.222,5.178,10.46,10.361,15.346,15.85c8.852,9.944,17.688,19.911,27.713,28.681
	c4.059,3.55,8.148,7.026,11.962,10.85c3.036,3.044,6.367,5.793,9.566,8.673"/>
<path fill-rule="evenodd" clip-rule="evenodd" fill="none" stroke="#000000" stroke-width="2" stroke-linecap="round" stroke-linejoin="round" stroke-miterlimit="10" d="
	M209.28,459.36c-0.32,0.8-0.452,1.765-0.989,2.374c-5.874,6.681-11.762,13.351-17.744,19.934
	c-6.663,7.332-13.433,14.566-20.142,21.856c-1.508,1.639-3.779,1.301-4.565-0.725"/>
<path fill-rule="evenodd" clip-rule="evenodd" fill="none" stroke="#000000" stroke-width="2" stroke-linecap="round" stroke-linejoin="round" stroke-miterlimit="10" d="
	M229.2,181.2c0.32,0.64,0.473,1.502,0.985,1.886c6.683,5.009,12.138,11.222,17.532,17.521c1.349,1.575,3.266,2.649,4.741,4.133
	c3.11,3.13,6.185,6.304,9.118,9.6c2.831,3.182,5.384,6.609,8.204,9.801c3.598,4.073,7.134,8.237,11.081,11.953
	c3.635,3.422,7.759,6.331,11.715,9.405c0.938,0.729,2.065,1.219,3.105,1.819"/>
<path fill-rule="evenodd" clip-rule="evenodd" fill="none" stroke="#000000" stroke-width="2" stroke-linecap="round" stroke-linejoin="round" stroke-miterlimit="10" d="
	M320.64,660c1.649-0.401,2.703,0.819,3.55,1.727c3.48,3.729,7.164,7.372,9.962,11.585c1.372,2.065,2.659,4.888,1.208,8.085
	c-3.215,7.084-5.579,14.576-9.086,21.499c-3.073,6.067-7.173,11.624-10.927,17.336c-6.593,10.031-13.376,19.938-19.828,30.059
	c-1.569,2.463-2.31,5.507-3.125,8.371c-0.327,1.149,1.346,2.46,0.166,3.819"/>
<path fill-rule="evenodd" clip-rule="evenodd" fill="none" stroke="#000000" stroke-width="2" stroke-linecap="round" stroke-linejoin="round" stroke-miterlimit="10" d="
	M211.2,549.12c0.16-0.56,0.6-1.241,0.422-1.655c-0.377-0.874-1.079-1.609-1.728-2.515c-1.302,1.216-1.742,1.853-0.873,2.984
	c3.963,5.167,7.792,10.438,11.794,15.573c6.597,8.467,13.723,16.455,21.824,23.533c1.686,1.473,3.361,2.959,5.041,4.439"/>
<path fill-rule="evenodd" clip-rule="evenodd" fill="none" stroke="#000000" stroke-width="2" stroke-linecap="round" stroke-linejoin="round" stroke-miterlimit="10" d="
	M82.56,75.6c0.338,0.973,0.3,1.636-0.678,2.451c-2.604,2.17-4.978,4.616-7.493,6.897c-1.136,1.03-2.288,2.111-3.607,2.86
	c-5.199,2.952-9.194,7.238-13.185,11.549c-4.229,4.57-8.528,9.077-12.697,13.701c-2.18,2.418-4.316,4.919-5.301,8.142"/>
<path fill-rule="evenodd" clip-rule="evenodd" fill="none" stroke="#000000" stroke-width="2" stroke-linecap="round" stroke-linejoin="round" stroke-miterlimit="10" d="
	M253.2,374.88c6.08,8.16,11.867,16.563,18.345,24.393c4.158,5.025,9.282,9.264,14.08,13.74c2.003,1.869,4.151,3.655,6.935,4.347"/>
<path fill-rule="evenodd" clip-rule="evenodd" fill="none" stroke="#000000" stroke-width="2" stroke-linecap="round" stroke-linejoin="round" stroke-miterlimit="10" d="
	M79.92,375.12c0.32-0.24,0.923-0.486,0.918-0.719c-0.106-5.441-0.252-10.882-0.453-16.32c-0.071-1.923-0.321-3.839-0.462-5.761
	c-0.176-2.399-0.525-4.807-0.435-7.198c0.125-3.288,0.53-6.57,0.929-9.84c0.401-3.29,0.946-6.562,1.422-9.842
	c1.04-7.163,1.948-14.329,1.459-21.601c-0.193-2.873-0.315-5.764-0.218-8.638c0.089-2.636-0.227-5.005-2.171-6.99
	c-0.438-0.446-0.666-1.237-0.725-1.894c-0.497-5.596-0.428-11.194-0.04-16.799c0.316-4.555,0.46-9.122,0.75-13.678
	c0.163-2.565,0.431-5.125,0.729-7.678c0.08-0.688,0.446-1.342,0.857-2.513c-1.029-0.955-2.379-2.24-3.764-3.486
	c-3.831-3.449-7.665-6.896-11.52-10.32c-5.509-4.893-11.231-9.565-16.49-14.712c-3.554-3.478-6.446-7.629-9.691-11.431
	c-0.467-0.547-1.256-0.82-1.896-1.22"/>
<path fill-rule="evenodd" clip-rule="evenodd" fill="none" stroke="#000000" stroke-width="2" stroke-linecap="round" stroke-linejoin="round" stroke-miterlimit="10" d="
	M82.56,201.84c7.226,5.138,13.142,11.66,18.924,18.271c6.317,7.223,12.336,14.705,18.535,22.032c0.98,1.158,2.271,2.049,3.318,3.157
	c0.489,0.518,0.742,1.259,1.102,1.899"/>
<path fill-rule="evenodd" clip-rule="evenodd" fill="none" stroke="#000000" stroke-width="2" stroke-linecap="round" stroke-linejoin="round" stroke-miterlimit="10" d="
	M166.08,417.6c2,2,4.246,3.811,5.953,6.036c4.937,6.433,11.063,11.658,16.817,17.274c3.52,3.437,6.666,7.253,10.14,10.739
	c2.156,2.164,4.482,4.212,6.98,5.958c1.354,0.945,3.032,1.254,4.995,1.188c4.704-0.159,9.435,0.491,14.155,0.799
	c0.717,0.046,1.44-0.012,2.159,0.009c5.36,0.155,10.72,0.338,16.081,0.462c1.198,0.027,2.415-0.301,3.596-0.19
	c2.092,0.197,4.164,0.606,6.244,0.926"/>
<path fill-rule="evenodd" clip-rule="evenodd" fill="none" stroke="#000000" stroke-width="2" stroke-linecap="round" stroke-linejoin="round" stroke-miterlimit="10" d="
	M123.6,375.12c2.96,2.32,5.988,4.559,8.867,6.976c8.335,6.998,16.389,14.307,23.513,22.562c3.158,3.659,6.075,7.523,9.158,11.248
	c0.752,0.908,0.827,1.614,0.274,2.683c-0.425,0.823-0.522,1.895-0.509,2.852c0.121,9.201,0.216,18.403,0.505,27.6
	c0.088,2.81,0.852,5.592,1.117,8.404c0.182,1.933-0.432,3.955,0.754,5.757"/>
<path fill-rule="evenodd" clip-rule="evenodd" fill="none" stroke="#000000" stroke-width="2" stroke-linecap="round" stroke-linejoin="round" stroke-miterlimit="10" d="
	M251.76,418.8c-0.854-1.307,0.328-1.874,0.816-2.474c6.752,8.246,13.553,16.5,20.288,24.807c1.943,2.396,3.55,5.074,5.571,7.396
	c2.821,3.241,5.81,6.348,8.879,9.356c1.407,1.38,2.445,3.299,4.537,3.832c0.488,0.124,1.109-0.277,1.669-0.438"/>
<path fill-rule="evenodd" clip-rule="evenodd" fill="none" stroke="#000000" stroke-width="2" stroke-linecap="round" stroke-linejoin="round" stroke-miterlimit="10" d="
	M298.32,291.84c6.56,7.12,13.162,14.202,19.666,21.373c4.949,5.457,9.777,11.024,14.646,16.554c0.452,0.514,0.712,1.229,1.225,1.652
	c1.562,1.289,2.629,2.853,3.103,4.822"/>
<path fill-rule="evenodd" clip-rule="evenodd" fill="none" stroke="#000000" stroke-width="2" stroke-linecap="round" stroke-linejoin="round" stroke-miterlimit="10" d="
	M189.36,118.32c1.175,5.517,3.54,10.579,6.003,15.599c3.106,6.327,6.242,12.639,9.354,18.963c1.533,3.114,3.06,6.231,4.542,9.369
	c0.192,0.408,0.101,0.95,0.141,1.43"/>
<path fill-rule="evenodd" clip-rule="evenodd" fill="none" stroke="#000000" stroke-width="2" stroke-linecap="round" stroke-linejoin="round" stroke-miterlimit="10" d="
	M40.08,289.44c0.32,2.32,0.974,4.651,0.896,6.958c-0.219,6.566-0.455,13.155-1.227,19.671c-0.607,5.127-1.1,10.18-0.96,15.373
	c0.244,9.111-0.083,18.238-0.144,27.357c-0.032,4.72-0.03,9.44,0.024,14.16c0.007,0.617-0.665,1.849,0.93,1.681"/>
<path fill-rule="evenodd" clip-rule="evenodd" fill="none" stroke="#000000" stroke-width="2" stroke-linecap="round" stroke-linejoin="round" stroke-miterlimit="10" d="
	M254.88,336.96c6.24,6.16,12.405,12.398,18.741,18.458c6.79,6.495,13.809,12.75,20.541,19.302c0.965,0.939,1.315,2.993,1.202,4.474
	c-0.455,5.934-1.283,11.838-1.82,17.768c-0.507,5.59-0.878,11.195-1.186,16.8c-0.083,1.506,0.283,3.038,0.443,4.558"/>
<path fill-rule="evenodd" clip-rule="evenodd" fill="none" stroke="#000000" stroke-width="2" stroke-linecap="round" stroke-linejoin="round" stroke-miterlimit="10" d="
	M313.68,723.84c0.881,1.92,1.766,3.838,2.639,5.761c1.524,3.358,3.045,6.718,4.561,10.08c1.045,2.317,2.196,4.596,3.097,6.969
	c1.793,4.722,4.63,8.787,7.735,12.686c0.455,0.571,1.323,0.813,2.369,1.421c0-0.974,0-1.545,0-2.116"/>
<path fill-rule="evenodd" clip-rule="evenodd" fill="none" stroke="#000000" stroke-width="2" stroke-linecap="round" stroke-linejoin="round" stroke-miterlimit="10" d="
	M337.68,336.24c-0.319,0.32-0.927,0.649-0.917,0.958c0.182,5.762,0.415,11.522,0.684,17.281c0.294,6.321,0.608,12.642,0.968,18.959
	c0.127,2.236-0.606,2.752-2.662,2.457c-3.169-0.455-6.391-0.706-9.593-0.739c-5.519-0.056-11.048,0.339-16.556,0.124
	c-3.457-0.136-6.879-1.073-10.326-1.586c-1.488-0.222-3.124-1.013-4.317,0.705"/>
<path fill-rule="evenodd" clip-rule="evenodd" fill="none" stroke="#000000" stroke-width="2" stroke-linecap="round" stroke-linejoin="round" stroke-miterlimit="10" d="
	M226.92,245.64c1.64,3,3.207,6.042,4.936,8.991c3.024,5.155,6.055,10.316,10.541,14.413c3.218,2.94,6.418,5.901,9.59,8.89
	c0.574,0.541,0.973,1.266,1.453,1.906"/>
<path fill-rule="evenodd" clip-rule="evenodd" fill="none" stroke="#000000" stroke-width="2" stroke-linecap="round" stroke-linejoin="round" stroke-miterlimit="10" d="
	M211.68,120c4.88,5.2,9.84,10.327,14.612,15.625c3.343,3.711,6.407,7.673,9.644,11.481c0.708,0.832,1.392,2.042,2.863,1.213"/>
<path fill-rule="evenodd" clip-rule="evenodd" fill="none" stroke="#000000" stroke-width="2" stroke-linecap="round" stroke-linejoin="round" stroke-miterlimit="10" d="
	M169.68,117.84c0,0.24,0.084,0.646-0.013,0.695c-1.954,0.993-1.63,3.042-1.824,4.595c-0.557,4.451-0.645,8.957-1.067,13.427
	c-0.364,3.851-1.071,7.672-1.379,11.525c-0.325,4.066-0.372,8.156-0.494,12.238c-0.012,0.395,0.297,0.799,0.457,1.199"/>
<path fill-rule="evenodd" clip-rule="evenodd" fill="none" stroke="#000000" stroke-width="2" stroke-linecap="round" stroke-linejoin="round" stroke-miterlimit="10" d="
	M125.4,76.8c3.72,4.64,7.427,9.291,11.164,13.917c4.466,5.531,8.957,11.042,13.437,16.563"/>
<path fill-rule="evenodd" clip-rule="evenodd" fill="none" stroke="#000000" stroke-width="2" stroke-linecap="round" stroke-linejoin="round" stroke-miterlimit="10" d="
	M351.6,731.76c1.92,1.92,3.91,3.776,5.747,5.772c5.716,6.207,11.377,12.464,17.05,18.711c1.144,1.259,2.378,2.466,3.322,3.865
	c0.775,1.15-0.158,1.432-1.159,1.411"/>
<path fill-rule="evenodd" clip-rule="evenodd" fill="none" stroke="#000000" stroke-width="2" stroke-linecap="round" stroke-linejoin="round" stroke-miterlimit="10" d="
	M126.48,119.28c-0.32,0.08-0.921,0.166-0.92,0.239c0.116,5.816-1.685,11.357-2.39,17.046c-0.799,6.443-1.845,12.931-0.497,19.427
	c0.425,2.044,1.247,4.007,1.887,6.007"/>
<path fill-rule="evenodd" clip-rule="evenodd" fill="none" stroke="#000000" stroke-width="2" stroke-linecap="round" stroke-linejoin="round" stroke-miterlimit="10" d="
	M168.48,77.28c4.092,6.538,6.814,13.888,11.766,19.915c1.801,2.192,3.697,4.306,5.495,6.5c0.371,0.453,0.499,1.104,0.739,1.665"/>
<path fill-rule="evenodd" clip-rule="evenodd" fill="none" stroke="#000000" stroke-width="2" stroke-linecap="round" stroke-linejoin="round" stroke-miterlimit="10" d="
	M125.52,77.52c-6.32,6.64-12.614,13.305-18.978,19.903c-1.726,1.79-3.663,3.376-5.502,5.057"/>
<path fill-rule="evenodd" clip-rule="evenodd" fill="none" stroke="#000000" stroke-width="2" stroke-linecap="round" stroke-linejoin="round" stroke-miterlimit="10" d="
	M273.36,267.6c0.155-1.253-0.204-2.243-1.182-3.139c-3.087-2.828-6.166-5.674-9.115-8.643c-2.193-2.208-4.268-4.549-6.233-6.962
	c-1.358-1.667-3.094-1.498-4.828-1.399c-6.678,0.379-13.335,0.612-19.929-0.944c-1.306-0.308-2.712-0.193-4.072-0.272"/>
<path fill-rule="evenodd" clip-rule="evenodd" fill="none" stroke="#000000" stroke-width="2" stroke-linecap="round" stroke-linejoin="round" stroke-miterlimit="10" d="
	M355.92,649.2c-1.631-0.084-2.429-1.193-3.409-2.359c-2.657-3.16-5.446-6.227-8.387-9.125c-2.056-2.026-4.403-3.769-6.712-5.52
	c-0.594-0.45-1.528-0.453-2.1-0.317c-6.712,7.806-13.613,15.333-18.992,24.041"/>
<path fill-rule="evenodd" clip-rule="evenodd" fill="none" stroke="#000000" stroke-width="2" stroke-linecap="round" stroke-linejoin="round" stroke-miterlimit="10" d="
	M79.44,117.36c-5.04,5.52-10.032,11.084-15.133,16.547c-5.059,5.418-10.449,10.542-15.272,16.156
	c-3.5,4.074-6.314,8.736-9.434,13.137"/>
<path fill-rule="evenodd" clip-rule="evenodd" fill="none" stroke="#000000" stroke-width="2" stroke-linecap="round" stroke-linejoin="round" stroke-miterlimit="10" d="
	M104.88,271.44c-5.2,4.48-10.316,9.063-15.642,13.389c-2.063,1.676-4.598,2.771-6.918,4.131"/>
<path fill-rule="evenodd" clip-rule="evenodd" fill="none" stroke="#000000" stroke-width="2" stroke-linecap="round" stroke-linejoin="round" stroke-miterlimit="10" d="
	M104.64,141.84c-2.24,2.48-4.425,5.012-6.731,7.429c-4.843,5.076-9.749,10.091-14.629,15.131"/>
<path fill-rule="evenodd" clip-rule="evenodd" fill="none" stroke="#000000" stroke-width="2" stroke-linecap="round" stroke-linejoin="round" stroke-miterlimit="10" d="
	M294.24,336c-3.778,1.661-7.686,0.902-11.515,0.439c-6.738-0.814-13.428-2.035-20.173-2.764c-2.75-0.297-5.592,0.245-8.392,0.405"/>
<path fill-rule="evenodd" clip-rule="evenodd" fill="none" stroke="#000000" stroke-width="2" stroke-linecap="round" stroke-linejoin="round" stroke-miterlimit="10" d="
	M413.52,664.8c0.3,2.139,1.355,3.714,3.073,5.099c1.431,1.153,2.613,2.719,3.595,4.295c0.767,1.231,1.662,1.548,2.933,1.406"/>
<path fill-rule="evenodd" clip-rule="evenodd" fill="none" stroke="#000000" stroke-width="2" stroke-linecap="round" stroke-linejoin="round" stroke-miterlimit="10" d="
	M41.04,246.96c-0.24,0.08-0.692,0.167-0.689,0.239c0.125,3.681,0.396,7.36,0.422,11.041c0.033,4.559-0.167,9.12-0.204,13.68
	c-0.041,4.96-0.058,9.921,0.017,14.879c0.027,1.771,0.165,1.769-1.466,2.401"/>
<path fill-rule="evenodd" clip-rule="evenodd" fill="none" stroke="#000000" stroke-width="2" stroke-linecap="round" stroke-linejoin="round" stroke-miterlimit="10" d="
	M83.4,203.04c-0.44,2.24-1.195,4.472-1.255,6.722c-0.13,4.875,0.118,9.758,0.167,14.638c0.038,3.68,0.007,7.36,0.007,11.04
	c0,2.24,0.047,4.482-0.033,6.719c-0.021,0.568-0.447,1.122-0.687,1.681"/>
<path fill-rule="evenodd" clip-rule="evenodd" fill="none" stroke="#000000" stroke-width="2" stroke-linecap="round" stroke-linejoin="round" stroke-miterlimit="10" d="
	M292.08,635.28c3.52,3.359,6.571,7.541,10.672,9.884c5.873,3.354,9.893,8.646,15.219,12.477c1.24,0.893,2.284,2.019,2.795,3.763
	c0.428,1.459,1.919,2.628,3.002,3.87c2.457,2.82,4.88,5.677,7.474,8.367c0.859,0.891,2.198,1.319,3.318,1.959"/>
<path fill-rule="evenodd" clip-rule="evenodd" fill="none" stroke="#000000" stroke-width="2" stroke-linecap="round" stroke-linejoin="round" stroke-miterlimit="10" d="
	M80.4,375.36c0.16,4.4,0.189,8.81,0.519,13.197c0.295,3.934,1.019,7.834,1.359,11.767c0.164,1.899-0.154,3.835-0.191,5.756
	c-0.1,5.28-0.162,10.56-0.256,15.84c-0.007,0.401-0.15,0.8-0.23,1.2"/>
<path fill-rule="evenodd" clip-rule="evenodd" fill="none" stroke="#000000" stroke-width="2" stroke-linecap="round" stroke-linejoin="round" stroke-miterlimit="10" d="
	M289.2,460.8c-1.04,0.08-2.079,0.194-3.121,0.234c-4.479,0.174-8.963,0.522-13.438,0.436c-5.364-0.105-10.72-0.624-16.083-0.883
	c-1.166-0.057-2.54-0.441-3.358,0.933"/>
<path fill-rule="evenodd" clip-rule="evenodd" fill="none" stroke="#000000" stroke-width="2" stroke-linecap="round" stroke-linejoin="round" stroke-miterlimit="10" d="
	M253.2,416.16c2.96-0.16,5.922-0.484,8.879-0.437c3.363,0.053,6.739,0.291,10.077,0.71c5.375,0.676,10.713,1.66,16.089,2.324
	c2.369,0.293,4.795,0.123,7.195,0.163"/>
<path fill-rule="evenodd" clip-rule="evenodd" fill="none" stroke="#000000" stroke-width="2" stroke-linecap="round" stroke-linejoin="round" stroke-miterlimit="10" d="
	M300.48,636.12c0.079,0.76-0.097,1.696,0.285,2.249c1.489,2.156,3.197,4.16,4.727,6.291c0.423,0.589,0.508,1.42,0.748,2.14"/>
<path fill-rule="evenodd" clip-rule="evenodd" fill="none" stroke="#000000" stroke-width="2" stroke-linecap="round" stroke-linejoin="round" stroke-miterlimit="10" d="
	M84.24,119.28c-1.6,0.24-3.197,0.506-4.802,0.707C78.808,120.066,78.16,120,77.52,120"/>
<path fill-rule="evenodd" clip-rule="evenodd" fill="none" stroke="#000000" stroke-width="2" stroke-linecap="round" stroke-linejoin="round" stroke-miterlimit="10" d="
	M59.76,138c-2.08,1.12-4.16,2.24-6.24,3.36"/>
<path fill-rule="evenodd" clip-rule="evenodd" fill="none" stroke="#000000" stroke-width="2" stroke-linecap="round" stroke-linejoin="round" stroke-miterlimit="10" d="
	M38.64,374.88c0,1.68,0,3.36,0,5.04"/>
<path fill-rule="evenodd" clip-rule="evenodd" fill="none" stroke="#000000" stroke-width="2" stroke-linecap="round" stroke-linejoin="round" stroke-miterlimit="10" d="
	M293.28,417.12c0.88-0.08,1.76-0.16,2.64-0.24"/>
<path fill-rule="evenodd" clip-rule="evenodd" fill="none" stroke="#000000" stroke-width="2" stroke-linecap="round" stroke-linejoin="round" stroke-miterlimit="10" d="
	M252.96,373.2c0.466,1.633-0.963,2.318-1.68,3.36"/>
</svg>
