<?xml version="1.0" encoding="utf-8"?>
<!-- Generator: Adobe Illustrator 16.0.0, SVG Export Plug-In . SVG Version: 6.00 Build 0)  -->
<!DOCTYPE svg PUBLIC "-//W3C//DTD SVG 1.1//EN" "http://www.w3.org/Graphics/SVG/1.1/DTD/svg11.dtd">
<svg version="1.1" id="Layer_1" xmlns="http://www.w3.org/2000/svg" xmlns:xlink="http://www.w3.org/1999/xlink" x="0px" y="0px"
	 width="513.631px" height="684.688px" viewBox="0 0 513.631 684.688" enable-background="new 0 0 513.631 684.688"
	 xml:space="preserve">
<path fill="none" stroke="#000000" stroke-width="2" stroke-linecap="round" stroke-linejoin="round" stroke-miterlimit="10" d="
	M198.344,223.796c3.745,1.07,7.562,1.942,11.219,3.258c5.021,1.808,9.014,4.847,12.044,9.515c3.34,5.146,4.708,10.723,5.958,16.555
	c1.106,5.158,2.813,10.2,5.819,14.725c2.711,4.08,3.786,8.545,2.417,13.523c-0.508,1.848,0.055,3.963-0.107,5.937
	c-0.521,6.35,0.693,12.557,1.413,18.803c0.555,4.821,1.307,9.623,1.772,14.452c0.166,1.728-0.114,3.536-0.438,5.263
	c-0.641,3.424-1.017,6.81-0.723,10.33c0.319,3.828-1.171,7.317-3.165,10.53c-1.273,2.051-2.918,3.887-4.06,6
	c-1.349,2.495-3.485,3.7-6.019,4.295c-2.604,0.61-4.903,1.606-6.644,3.702c-1.844,2.221-4.173,3.26-7.105,3.273
	c-1.276,0.006-2.738,0.011-3.549,1.721c-0.331,0.696-2.027,1.333-2.843,1.099c-2.149-0.62-4.152-1.742-6.221-2.648
	c-2.289-1.004-4.505-2.438-6.899-2.864c-2.707-0.482-5.18-1.472-7.006-3.186c-2.953-2.771-6.702-3.203-10.17-4.499
	c-0.838-0.313-2.067-0.362-2.455-0.962c-1.723-2.658-4.653-3.125-7.194-4.271c-0.635-0.286-1.538-0.177-2.269-0.02
	c-2.917,0.631-5.834,1.279-8.712,2.063c-2.4,0.654-4.703,1.706-7.125,2.224c-3.399,0.726-6.853,1.284-10.312,1.621
	c-8.856,0.86-17.726,1.606-26.597,2.308c-5.113,0.403-10.256,0.473-15.357,0.98c-4.76,0.475-9.49,1.283-14.219,2.029
	c-4.977,0.785-9.943,1.646-14.905,2.519c-3.676,0.646-7.357,1.284-11.004,2.072c-7.503,1.624-14.98,3.366-22.477,5.019
	c-3.044,0.671-6.129,1.162-9.163,1.874c-1.568,0.367-3.064,1.04-4.593,1.575"/>
<path fill="none" stroke="#000000" stroke-width="2" stroke-linecap="round" stroke-linejoin="round" stroke-miterlimit="10" d="
	M138.726,152.025c-0.458-0.382-0.951-1.126-1.37-1.087c-2.521,0.234-5.22-0.165-7.347,1.771c-2.201,2.004-4.372,4.048-6.673,5.933
	c-0.986,0.808-2.255,1.277-3.415,1.863c-2.847,1.439-5.453,3.148-6.389,6.433c-0.334,1.171-0.453,2.436-0.467,3.661
	c-0.052,4.736-0.021,9.474-0.021,14.158c-2.512,1.074-4.771,2.163-7.116,3.017c-4.445,1.619-6.357,5.122-6.318,9.423
	c0.047,5.331-1.76,10.163-3.11,15.125c-1.529,5.621-3.377,11.155-4.978,16.757c-0.441,1.545-0.5,3.2-0.718,4.807
	c-0.541,3.974-0.62,8.081-1.731,11.887c-1.154,3.95-0.283,7.11,1.996,10.098c1.169,1.533,2.634,2.873,4.107,4.135
	c3.176,2.722,7.07,2.105,10.242,0.792c6.046-2.502,12.194-3.529,18.633-3.535c3.867-0.004,6.888-1.914,9.124-4.841
	c2.05-2.685,4.315-5.024,7.139-6.869c0.655-0.428,1.088-1.196,1.623-1.808"/>
<path fill="none" stroke="#000000" stroke-width="2" stroke-linecap="round" stroke-linejoin="round" stroke-miterlimit="10" d="
	M511.566,429.938c-2.172,8.803-6.265,16.725-10.664,24.598c-2.674,4.78-4.236,10.181-6.306,15.3
	c-2.681,6.633-6.516,12.643-10.037,18.832c-2.479,4.359-4.31,9.087-6.744,13.475c-3.025,5.453-6.438,10.69-9.57,16.085
	c-3.887,6.688-7.598,13.479-11.502,20.157c-2.719,4.649-5.588,9.214-8.489,13.753c-0.99,1.55-0.845,2.821,0.254,4.146
	c0.624,0.754,1.152,1.602,1.853,2.273c1.37,1.319,2.017,2.659,0.691,4.39c-0.146,0.191-0.09,0.615-0.009,0.897
	c0.792,2.794-0.144,4.809-2.506,6.463c-1.672,1.172-3.112,2.685-4.605,4.098c-1.379,1.306-2.559,2.663-4.824,2.624
	c-1.137-0.021-2.291,1.111-3.438,1.725"/>
<path fill="none" stroke="#000000" stroke-width="2" stroke-linecap="round" stroke-linejoin="round" stroke-miterlimit="10" d="
	M443.235,462.955c-1.3,0.077-2.623,0.02-3.895,0.252c-7.27,1.33-14.501,2.887-21.794,4.065c-9.069,1.466-18.252,2.294-27.26,4.043
	c-7.632,1.481-15.308,1.356-22.954,1.609c-6.604,0.218-13.273-0.256-19.719-2.164c-3.041-0.898-6.161-1.552-9.146-2.598
	c-1.283-0.45-2.314-1.616-3.462-2.457"/>
<path fill="none" stroke="#000000" stroke-width="2" stroke-linecap="round" stroke-linejoin="round" stroke-miterlimit="10" d="
	M175.185,202.242c-0.068,4.733,0.906,9.611-1.846,13.979c-0.609,0.967-1.248,1.967-2.071,2.739
	c-4.776,4.475-9.671,8.825-14.398,13.35c-1.898,1.817-3.419,3.928-4.254,6.588c-0.483,1.54-0.397,2.701,0.586,3.669
	c1.913,1.883,3.051,4.1,3.65,6.677c0.656,2.823,2.424,4.471,5.242,5.344c1.793,0.556,3.612,1.507,5.015,2.742
	c2.404,2.117,5.061,3.523,8.05,4.601c1.812,0.653,2.869,0.223,3.68-1.228c2.336-4.18,4.746-8.328,6.862-12.619
	c3.781-7.664,7.219-15.5,11.099-23.113c2.063-4.048,4.152-8.026,5.471-12.404c1.862-6.181,1.135-11.501-3.881-16.11
	c-3.973-3.65-7.536-7.746-11.281-11.644"/>
<path fill="none" stroke="#000000" stroke-width="2" stroke-linecap="round" stroke-linejoin="round" stroke-miterlimit="10" d="
	M91.032,201.554c-1.987-1.146-3.965-2.31-5.964-3.435c-2.206-1.242-4.587-2.237-6.611-3.722c-3.171-2.328-6.287-1.604-8.07,0.73
	c-1.717,2.248-3.477,4.465-5.286,6.64c-0.476,0.571-1.138,1.164-1.824,1.355c-4.362,1.213-7.822,3.997-11.428,6.496
	c-1.311,0.908-2.71,2.062-3.39,3.438c-1.772,3.587-4.723,6.004-7.666,8.418c-3.958,3.247-8.107,6.259-12.118,9.443
	c-2.31,1.834-5.138,2.127-7.782,3.042c-4.048,1.4-8.175,2.866-9.734,7.696c-0.496,1.537-1.696,3.024-2.947,4.102
	c-2.708,2.334-4.091,5.408-5.453,8.538c-0.725,1.666-1.382,3.36-2.07,5.042"/>
<path fill="none" stroke="#000000" stroke-width="2" stroke-linecap="round" stroke-linejoin="round" stroke-miterlimit="10" d="
	M110.751,521.886c-2.369,0.993-4.67,2.244-7.13,2.897c-1.875,0.497-3.954,0.319-5.939,0.291c-2.358-0.035-4.226,0.987-5.47,2.796
	c-4.406,6.407-7.638,13.409-9.861,20.854c-0.597,1.999-0.987,4.104-1.137,6.185c-0.26,3.625-2.043,6.478-4.433,8.906
	c-4.623,4.699-9.351,9.308-14.218,13.753c-2.79,2.548-4.337,5.623-4.698,9.219c-0.171,1.71,0.126,3.716,0.907,5.229
	c2.902,5.62,7.024,10.273,12.342,13.747c0.951,0.621,2.368,1.487,3.408-0.181"/>
<path fill="none" stroke="#000000" stroke-width="2" stroke-linecap="round" stroke-linejoin="round" stroke-miterlimit="10" d="
	M217.834,372.611c0.153,0.075,0.321,0.132,0.457,0.231c7.488,5.591,13.544,12.271,16.029,21.559c0.766,2.862,1.63,5.789,1.735,8.711
	c0.082,2.271-0.897,4.595-1.491,6.872c-1.917,7.354-6.367,13.356-10.552,19.483c-3.528,5.165-7.276,10.183-10.708,15.408
	c-1.259,1.916-1.976,4.212-2.791,6.391c-2.461,6.582-6.669,12.05-11.054,17.396c-0.532,0.647-1.497,0.943-2.262,1.4"/>
<path fill="none" stroke="#000000" stroke-width="2" stroke-linecap="round" stroke-linejoin="round" stroke-miterlimit="10" d="
	M163.261,564.306c-1.998,3.493,0.202,6.475,1.465,9.362c1.532,3.504,2.487,7.027,2.672,10.815c0.184,3.748,0.409,7.493,0.689,11.234
	c0.299,4.011,2.541,7.358,3.918,10.996c2.099,5.547,4.414,11.014,6.612,16.523c0.618,1.551,1.582,2.669,3.214,3.219
	c3.298,1.11,6.542,2.396,9.87,3.405c7.449,2.261,13.568,0.142,18.324-5.948c1.382-1.771,2.611-3.659,3.911-5.494"/>
<path fill="none" stroke="#000000" stroke-width="2" stroke-linecap="round" stroke-linejoin="round" stroke-miterlimit="10" d="
	M345.325,304.51c0.382,2.904,0.729,5.814,1.152,8.712c0.78,5.327,3.508,9.894,5.674,14.7c2.224,4.938,4.065,10.051,5.984,15.121
	c0.434,1.146,0.325,2.494,0.745,3.647c1.847,5.067,3.767,10.109,5.716,15.14c1.201,3.102,2.963,5.835,4.922,8.568
	c2.733,3.812,4.959,8.056,6.914,12.337c1.812,3.964,2.98,8.22,4.434,12.348"/>
<path fill="none" stroke="#000000" stroke-width="2" stroke-linecap="round" stroke-linejoin="round" stroke-miterlimit="10" d="
	M318.955,217.834c4.065-0.342,7.157,1.264,10.17,4.041c3.79,3.494,5.635,7.875,7.226,12.48c0.924,2.679,2.606,4.811,4.414,6.846
	c2.826,3.185,5.756,6.257,7.325,10.335c0.753,1.956,2.005,3.593,3.892,4.578c4.508,2.354,7.215,6.433,9.523,10.616
	c1.993,3.61,4.773,4.862,8.577,5.281c3.624,0.399,7.188,1.337,10.785,1.995c3.729,0.682,7.411,0.805,11.247,0.337
	c6.298-0.768,12.662-1.006,19.025-0.145c3.021,0.409,6.109,0.317,9.166,0.51c4.357,0.276,8.71,0.78,13.07,0.853
	c3.358,0.056,6.767-0.15,10.076-0.701c3.413-0.568,6.471,0.487,9.645,1.207c1.594,0.361,3.211,0.605,4.813,0.93
	c3.279,0.665,5.813,2.567,7.519,5.301c2.133,3.416,3.408,7.208,4.243,11.191c0.552,2.637-1.072,4.465-1.688,6.659
	c-0.831,2.968-3.433,2.734-5.719,2.979c-6.57,0.703-13.139,1.465-19.722,2.033c-3.27,0.282-6.588,0.008-9.852,0.321
	c-2.702,0.26-5.334,1.221-8.036,1.5c-4.031,0.417-8.099,0.481-12.147,0.742c-4.281,0.275-8.563,0.598-12.841,0.914
	c-1.76,0.131-3.515,0.349-5.274,0.445c-3.36,0.188-6.726,0.325-10.088,0.466c-3.897,0.164-7.804,0.222-11.691,0.505
	c-1.473,0.108-2.891,0.818-4.364,1.072c-1.274,0.22-2.604,0.327-3.892,0.229c-2.76-0.209-5.524-0.473-8.246-0.946
	c-0.98-0.171-2.066-0.819-2.728-1.578c-5.226-5.997-11.448-10.831-17.952-15.286c-4.166-2.854-6.264-6.959-8.57-11.218
	c-2.594-4.788-3.176-10.43-6.74-14.755c-3.044-3.692-6.146-7.276-10.572-9.375c-1.91-0.907-3.201-2.177-3.74-4.348
	c-0.236-0.953-1.233-1.766-2-2.529c-2.336-2.327-4.727-4.598-7.097-6.891"/>
<path fill="none" stroke="#000000" stroke-width="2" stroke-linecap="round" stroke-linejoin="round" stroke-miterlimit="10" d="
	M323.771,282.268c-0.535,3.134-1.394,6.253-1.533,9.404c-0.252,5.645-0.348,11.327,0.013,16.959
	c0.317,4.97,1.376,9.894,3.594,14.447c1.87,3.842,4.028,7.558,5.679,11.488c3.213,7.653,6.168,15.417,9.213,23.142
	c0.871,2.205,1.687,4.431,2.527,6.647"/>
<path fill="none" stroke="#000000" stroke-width="2" stroke-linecap="round" stroke-linejoin="round" stroke-miterlimit="10" d="
	M86.446,372.382c-0.458,2.446-0.851,4.907-1.401,7.332c-0.319,1.407-0.887,2.759-1.352,4.133c-1.714,5.07-0.45,9.631,2.284,13.994
	c4.045,6.454,9.222,11.961,14.465,17.411c2.772,2.881,5.536,5.787,8.498,8.468c5.82,5.266,12.831,8.581,19.925,11.721
	c2.598,1.147,5.189,2.313,7.804,3.422c0.481,0.203,1.063,0.171,1.598,0.247"/>
<path fill="none" stroke="#000000" stroke-width="2" stroke-linecap="round" stroke-linejoin="round" stroke-miterlimit="10" d="
	M379.72,399.898c-3.158,4.147-7.701,6.387-12.162,8.692c-4.464,2.308-8.992,4.486-13.522,6.66
	c-5.333,2.56-10.587,5.328-16.073,7.511c-8.001,3.185-16.169,3.476-24.292,0.097c-0.901-0.375-1.991-0.535-2.965-0.449
	c-2.351,0.207-4.308-0.463-5.965-2.104"/>
<path fill="none" stroke="#000000" stroke-width="2" stroke-linecap="round" stroke-linejoin="round" stroke-miterlimit="10" d="
	M94.701,370.089c-0.688,3.059-1.736,6.088-1.968,9.18c-0.262,3.484-0.182,7.102,0.482,10.518c0.571,2.939,1.935,5.807,3.363,8.484
	c5.195,9.743,12.652,17.57,21.29,24.318c6.228,4.865,12.554,9.606,18.781,14.474c2.303,1.801,4.447,3.805,6.664,5.716"/>
<path fill="none" stroke="#000000" stroke-width="2" stroke-linecap="round" stroke-linejoin="round" stroke-miterlimit="10" d="
	M143.771,443.007c2.828,3.058,5.767,6.022,8.421,9.226c0.862,1.04,1.016,2.688,1.433,4.075c1.191,3.97,1.189,7.946,0.015,11.925
	c-0.063,0.211,0.002,0.457-0.01,0.686c-0.15,2.981-0.289,5.963-0.46,8.942c-0.293,5.122-0.814,10.24-0.847,15.363
	c-0.026,3.974,0.418,7.964,0.888,11.918c0.438,3.689,0.979,7.394,1.85,10.999c1.078,4.465,3.551,8.374,5.703,12.383
	c2.215,4.124,4.118,8.243,4.397,13.078c0.345,5.978,1.157,11.929,1.772,17.89c0.258,2.495,3.109,4.278,5.735,3.686
	c1.431-0.323,2.901-0.476,4.353-0.704"/>
<path fill="none" stroke="#000000" stroke-width="2" stroke-linecap="round" stroke-linejoin="round" stroke-miterlimit="10" d="
	M69.478,369.401c-2.904,0.458-5.828,0.819-8.709,1.395c-8.571,1.706-17.133,3.456-25.683,5.267
	c-8.038,1.703-16.054,3.502-24.079,5.265c-3.441,0.756-6.879,1.526-10.319,2.292"/>
<path fill="none" stroke="#000000" stroke-width="2" stroke-linecap="round" stroke-linejoin="round" stroke-miterlimit="10" d="
	M71.771,312.764c-8.645,0.849-17.38,1.167-25.677,4.141c-2.778,0.995-5.526,2.082-8.254,3.208c-4.375,1.807-5.821,5.813-6.779,9.874
	c-0.453,1.921,0.038,4.136,0.441,6.148c0.145,0.722,1.199,1.584,1.993,1.791c2.941,0.767,6.04,1.009,8.897,1.981
	c2.359,0.803,5.102,1.862,6.531,3.698c2.223,2.854,5.043,4.285,8.192,4.815c3.603,0.606,6.44,2.425,9.387,4.232
	c0.346,0.212,0.759,0.313,1.142,0.467"/>
<path fill="none" stroke="#000000" stroke-width="2" stroke-linecap="round" stroke-linejoin="round" stroke-miterlimit="10" d="
	M167.618,351.516c-1.223,0.459-2.427,0.977-3.672,1.364c-2.816,0.878-5.62,1.833-8.489,2.494c-2.786,0.643-5.646,0.967-8.476,1.413
	c-2.979,0.471-5.96,0.926-8.942,1.377c-4.585,0.693-9.17,1.391-13.758,2.062c-4.813,0.704-9.624,1.427-14.448,2.052
	c-3.045,0.395-6.129,0.514-9.166,0.963c-3.839,0.567-7.647,1.348-11.469,2.034c-0.458,0.082-0.917,0.152-1.375,0.229"/>
<path fill="none" stroke="#000000" stroke-width="2" stroke-linecap="round" stroke-linejoin="round" stroke-miterlimit="10" d="
	M163.032,370.318c1.07,0.075,2.147,0.271,3.209,0.207c3.38-0.202,6.625,0.197,9.63,1.859c3.294,1.821,6.795,1.27,10.07,0.377
	c5.483-1.494,10.749-0.679,16.074,0.528c2.895,0.656,5.811,1.213,8.71,1.849c2.291,0.503,4.404,0.377,6.201-1.373
	c0.763-0.742,1.057-1.438,0.222-2.303c-1.992-2.06-3.976-4.126-5.963-6.189"/>
<path fill="none" stroke="#000000" stroke-width="2" stroke-linecap="round" stroke-linejoin="round" stroke-miterlimit="10" d="
	M498.727,410.675c-4.142-1.19-7.6-3.909-11.902-4.906c-6.609-1.529-13.169-3.279-19.972-3.543
	c-7.866-0.303-15.742-0.397-23.616-0.479c-12.306-0.127-24.612-0.104-36.917-0.267c-7.492-0.102-14.981-0.413-22.471-0.69
	c-1-0.037-1.988-0.433-2.981-0.662"/>
<path fill="none" stroke="#000000" stroke-width="2" stroke-linecap="round" stroke-linejoin="round" stroke-miterlimit="10" d="
	M153.401,521.197c-1.605,3.516-2.915,7.208-4.88,10.51c-3.516,5.908-5.975,12.25-8.398,18.619c-1.405,3.695-2.708,4.164-6.249,2.356
	c-5.274-2.688-9.808-6.07-13.021-11.087c-0.401-0.627-0.625-1.366-0.93-2.056"/>
<path fill="none" stroke="#000000" stroke-width="2" stroke-linecap="round" stroke-linejoin="round" stroke-miterlimit="10" d="
	M333.401,182.293c0.382,2.981,0.998,5.955,1.082,8.944c0.091,3.176,1.131,6.016,2.082,8.956c1.127,3.475,1.817,7.042,1.935,10.761
	c0.219,6.971-0.257,14.008,1.531,20.873c0.149,0.573,0.02,1.218,0.02,1.83"/>
<path fill="none" stroke="#000000" stroke-width="2" stroke-linecap="round" stroke-linejoin="round" stroke-miterlimit="10" d="
	M318.955,156.153c-0.841,1.452-1.794,2.852-2.501,4.366c-2.271,4.866-4.566,9.727-6.643,14.678
	c-2.354,5.621-2.598,11.674-3.27,17.64c-0.533,4.741-1.043,9.553-4.546,13.312c-0.076,0.082-0.011,0.297-0.011,0.45"/>
<path fill="none" stroke="#000000" stroke-width="2" stroke-linecap="round" stroke-linejoin="round" stroke-miterlimit="10" d="
	M318.038,146.981c-1.094,9.203-4.898,17.169-11.01,24.074c-4.381,4.953-8.601,10.052-11.406,16.079
	c-1.533,3.295-2.501,6.854-3.725,10.293"/>
<path fill="none" stroke="#000000" stroke-width="2" stroke-linecap="round" stroke-linejoin="round" stroke-miterlimit="10" d="
	M325.146,284.102c0.15,6.079,2.127,11.811,3.487,17.645c1.824,7.815,5.476,14.921,9.063,22.054
	c1.723,3.418,2.813,7.155,4.188,10.747"/>
<path fill="none" stroke="#000000" stroke-width="2" stroke-linecap="round" stroke-linejoin="round" stroke-miterlimit="10" d="
	M119.694,189.63c1.038,5.214,0.501,10.452-0.329,15.577c-0.699,4.315-0.145,8.213,1.446,12.181
	c2.507,6.253,6.402,11.064,12.858,13.548c1.004,0.386,2.068,1.015,2.722,1.836c1.99,2.498,4.654,2.776,7.365,2.195
	c2.691-0.577,5.706-0.081,8.022-2.02c0.946-0.792,1.699-1.813,2.54-2.73"/>
<path fill="none" stroke="#000000" stroke-width="2" stroke-linecap="round" stroke-linejoin="round" stroke-miterlimit="10" d="
	M149.732,367.566c-2.252-2.243-5.164-2.412-8.023-2.252c-5.807,0.325-11.099,2.652-16.529,4.492
	c-4.578,1.553-9.237,3.181-13.988,3.816c-5.918,0.793-11.89,0.496-16.56-4.387c-0.737-0.771-2.375-0.908-3.602-0.921
	c-1.372-0.017-2.661-0.326-3.136-1.469c-0.603-1.45-1.615-1.272-2.591-1.088c-4.064,0.773-8.076,1.935-12.169,2.396
	c-2.75,0.311-3.898,1.711-4.57,3.998c-0.785,2.669-1.732,5.312-2.248,8.032c-0.663,3.498,1.894,5.438,5.219,4.106
	c3.547-1.418,6.875-3.063,9.238-6.364c1.588-2.219,3.81-3.975,5.639-6.034c0.514-0.578,0.638-1.503,0.951-2.265
	c0.221-0.538,0.457-1.07,0.686-1.604"/>
<path fill="none" stroke="#000000" stroke-width="2" stroke-linecap="round" stroke-linejoin="round" stroke-miterlimit="10" d="
	M338.446,151.567c0.129,2.713-1.338,4.897-2.57,7.082c-1.318,2.335-3.079,4.416-4.521,6.687c-1.941,3.06-3.121,6.368-3.01,10.079
	c0.133,4.508,0.275,9.021,0.206,13.528c-0.056,3.595-0.424,7.185-0.651,10.777"/>
<path fill="none" stroke="#000000" stroke-width="2" stroke-linecap="round" stroke-linejoin="round" stroke-miterlimit="10" d="
	M294.649,131.618c-3.871-0.529-7.012,1.395-9.815,3.498c-8.337,6.25-14.353,14.465-18.819,23.801
	c-3.043,6.355-5.701,12.895-8.802,19.219c-1.398,2.852-3.455,5.38-5.213,8.055"/>
<path fill="none" stroke="#000000" stroke-width="2" stroke-linecap="round" stroke-linejoin="round" stroke-miterlimit="10" d="
	M330.879,152.025c-2.868,3.472-4.647,7.353-5.098,11.918c-0.343,3.466-1.384,6.863-1.726,10.329
	c-0.397,4.044,0.719,7.97,1.489,11.93c0.868,4.459,1.282,9.007,1.894,13.517"/>
<path fill="none" stroke="#000000" stroke-width="2" stroke-linecap="round" stroke-linejoin="round" stroke-miterlimit="10" d="
	M314.369,133.682c-1.528-0.077-3.122-0.467-4.572-0.166c-3.284,0.683-5.485,2.7-6.216,6.125c-0.313,1.467-0.746,2.909-1.137,4.359
	c-1.928,7.158-6.418,12.873-10.525,18.817c-2.107,3.05-3.995,6.253-5.982,9.387"/>
<path fill="none" stroke="#000000" stroke-width="2" stroke-linecap="round" stroke-linejoin="round" stroke-miterlimit="10" d="
	M191.465,505.146c1.146,2.293,2.415,4.533,3.412,6.891c1.631,3.854,2.994,7.823,4.635,11.674c2.547,5.979,4.035,12.237,5.254,18.582
	c0.294,1.53,0.61,3.058,0.916,4.586"/>
<path fill="none" stroke="#000000" stroke-width="2" stroke-linecap="round" stroke-linejoin="round" stroke-miterlimit="10" d="
	M150.191,474.879c-2.708,5.248-7.218,8.95-11.243,13.063c-3.175,3.244-6.399,6.44-9.626,9.634
	c-4.956,4.904-9.964,9.756-14.875,14.705c-0.952,0.96-1.556,2.267-2.32,3.413"/>
<path fill="none" stroke="#000000" stroke-width="2" stroke-linecap="round" stroke-linejoin="round" stroke-miterlimit="10" d="
	M186.42,408.611c0.153,0.535,0.155,1.196,0.481,1.586c3.781,4.497,6.807,9.436,8.919,14.924c1.592,4.136,2.752,8.364,2.752,12.841
	c0,4.586,0.179,9.181-0.052,13.755c-0.212,4.217-0.866,8.41-1.323,12.614c-0.158,1.452-0.371,2.901-0.449,4.357
	c-0.412,7.719-0.992,15.433-0.04,23.161c0.336,2.729,0.196,5.518,0.519,8.248c0.58,4.904,1.345,9.787,2.033,14.68"/>
<path fill="none" stroke="#000000" stroke-width="2" stroke-linecap="round" stroke-linejoin="round" stroke-miterlimit="10" d="
	M321.248,213.019c-2.347-3.162-5.656-4.692-9.404-5.249c-7.413-1.102-14.848-1.304-22.233,0.223
	c-3.539,0.732-7.059,1.583-10.547,2.522c-5.732,1.542-11.594,2.844-16.717,5.989c-3.209,1.97-6.153,4.373-9.195,6.61
	c-1.385,1.019-1.875,2.434-1.61,4.121"/>
<path fill="none" stroke="#000000" stroke-width="2" stroke-linecap="round" stroke-linejoin="round" stroke-miterlimit="10" d="
	M317.351,160.28c-0.229,4.356-0.449,8.714-0.691,13.07c-0.133,2.371-0.411,4.738-0.436,7.109c-0.09,8.801-0.396,17.614,0.901,26.369
	c0.125,0.845,0.302,1.682,0.455,2.523"/>
<path fill="none" stroke="#000000" stroke-width="2" stroke-linecap="round" stroke-linejoin="round" stroke-miterlimit="10" d="
	M71.312,241.452c1.877,7.15,0.438,13.805-2.977,20.181c-2.798,5.224-3.455,10.957-3.916,16.735
	c-0.056,0.696-0.292,1.377-0.445,2.065"/>
<path fill="none" stroke="#000000" stroke-width="2" stroke-linecap="round" stroke-linejoin="round" stroke-miterlimit="10" d="
	M251.312,225.401c-3.295,2.904-5.152,6.563-6.518,10.745c-1.64,5.021-3.396,9.966-4.621,15.134
	c-0.729,3.076-2.628,5.927-4.305,8.696c-0.558,0.921-2.059,1.272-3.129,1.883"/>
<path fill="none" stroke="#000000" stroke-width="2" stroke-linecap="round" stroke-linejoin="round" stroke-miterlimit="10" d="
	M299.235,157.529c1.727,3.287,1.502,6.439,0.064,9.887c-3.259,7.816-8.306,14.431-13.365,21.068
	c-0.527,0.693-1.051,1.392-1.606,2.062c-1.818,2.187-1.872,3.142-0.218,5.5c0.244,0.349,0.604,0.618,0.908,0.923"/>
<path fill="none" stroke="#000000" stroke-width="2" stroke-linecap="round" stroke-linejoin="round" stroke-miterlimit="10" d="
	M145.376,161.197c4.052-0.656,7.879,2.035,9.152,6.655c2.059,7.471,3.979,14.979,5.996,22.462c0.357,1.327,0.903,2.603,1.361,3.902"
	/>
<path fill="none" stroke="#000000" stroke-width="2" stroke-linecap="round" stroke-linejoin="round" stroke-miterlimit="10" d="
	M332.942,182.293c-0.534,2.981-1.183,5.947-1.578,8.946c-0.563,4.266-0.98,8.554-1.389,12.838c-0.231,2.438-0.302,4.892-0.479,7.336
	c-0.117,1.607-0.3,3.21-0.451,4.816"/>
<path fill="none" stroke="#000000" stroke-width="2" stroke-linecap="round" stroke-linejoin="round" stroke-miterlimit="10" d="
	M72,310.242c-0.644-2.772-0.394-5.158,1.454-7.678c1.001-1.365,0.595-3.866,0.567-5.852c-0.024-1.685-0.389-3.368-0.654-5.044
	c-0.242-1.529-0.559-2.929-1.786-4.168c-3.481-3.513-7.184-6.651-11.474-9.186c-4.161-2.458-8.637-2.769-13.085-2.128
	c-3.94,0.567-7.463-0.068-11.029-1.471c-1.797-0.707-3.663-1.24-5.497-1.851"/>
<path fill="none" stroke="#000000" stroke-width="2" stroke-linecap="round" stroke-linejoin="round" stroke-miterlimit="10" d="
	M164.178,165.554c1.758,1.911,3.749,3.66,5.22,5.77c2.235,3.207,1.927,7.112,1.799,10.736c-0.176,4.981-0.972,9.94-1.529,14.906
	c-0.053,0.47-0.292,0.918-0.445,1.377"/>
<path fill="none" stroke="#000000" stroke-width="2" stroke-linecap="round" stroke-linejoin="round" stroke-miterlimit="10" d="
	M152.943,358.854c-0.211,3.1,2.249,6.582,5.96,6.696c6.105,0.188,12.085-0.845,18.119-1.389c3.733-0.336,7.496-0.651,11.236,0.179
	c1.505,0.333,3.053,0.477,4.582,0.705"/>
<path fill="none" stroke="#000000" stroke-width="2" stroke-linecap="round" stroke-linejoin="round" stroke-miterlimit="10" d="
	M213.478,264.382c-2.751,3.287-5.333,6.736-8.298,9.818c-3.609,3.752-4.238,8.292-4.318,13.112c-0.05,2.981-0.169,5.961-0.217,8.943
	c-0.036,2.216-0.007,4.433-0.007,6.649"/>
<path fill="none" stroke="#000000" stroke-width="2" stroke-linecap="round" stroke-linejoin="round" stroke-miterlimit="10" d="
	M215.312,614.063c-1.529-0.841-3.104-1.606-4.576-2.537c-2.938-1.857-5.669-4.106-8.76-5.642c-3.921-1.947-8.243-2.141-12.575-1.455
	c-1.601,0.253-3.209,0.462-4.814,0.691"/>
<path fill="none" stroke="#000000" stroke-width="2" stroke-linecap="round" stroke-linejoin="round" stroke-miterlimit="10" d="
	M139.644,164.866c-2.981,0.382-6.146,0.264-8.896,1.273c-3.442,1.262-5.312,4.628-6.362,7.933c-1.194,3.758-1.294,7.862-3.75,11.22
	c-0.182,0.249-0.024,0.747-0.024,1.129"/>
<path fill="none" stroke="#000000" stroke-width="2" stroke-linecap="round" stroke-linejoin="round" stroke-miterlimit="10" d="
	M142.624,263.006c-2.545-0.673-4.889-1.51-7.614,0.152c-4.973,3.033-5.825,8.169-1.551,11.994c2.465,2.207,5.305,3.561,8.477,3.221
	c-0.627,5.02-1.268,9.841-1.811,14.674c-0.152,1.358-0.034,2.749-0.021,4.125c0.089,9.35-0.715,18.609-2.769,27.742
	c-0.109,0.486-0.443,0.921-0.672,1.379"/>
<path fill="none" stroke="#000000" stroke-width="2" stroke-linecap="round" stroke-linejoin="round" stroke-miterlimit="10" d="
	M154.777,368.255c6.716,1.716,11.23,5.541,13.672,12.33c1.61,4.478,4.448,8.552,7.006,12.638c2.563,4.094,5.329,8.077,8.271,11.905
	c1.428,1.859,3.47,3.241,5.211,4.864c0.87,0.811,1.687,1.677,2.527,2.518"/>
<path fill="none" stroke="#000000" stroke-width="2" stroke-linecap="round" stroke-linejoin="round" stroke-miterlimit="10" d="
	M291.438,198.115c-3.744,0.382-7.502,0.679-11.231,1.17c-3.836,0.505-7.651,1.172-11.466,1.823
	c-1.846,0.314-3.672,0.751-5.506,1.135c-5.596,1.172-11.03,2.882-15.532,6.495c-1.816,1.457-3.024,3.705-4.397,5.671
	c-1.018,1.458-1.854,3.043-2.771,4.572"/>
<path fill="none" stroke="#000000" stroke-width="2" stroke-linecap="round" stroke-linejoin="round" stroke-miterlimit="10" d="
	M163.72,177.937c1.792,2.543,3.983,4.88,4.132,8.254c0.131,2.982,0.253,5.965,0.476,8.941c0.104,1.385,0.5,2.746,0.649,4.13
	c0.155,1.444,0.189,2.902,0.24,4.355c0.035,0.992,0.007,1.987,0.007,2.98"/>
<path fill="none" stroke="#000000" stroke-width="2" stroke-linecap="round" stroke-linejoin="round" stroke-miterlimit="10" d="
	M192.382,158.904c1.052,6.956,0.748,13.738-3.021,19.925c-1.119,1.838-2.67,3.425-4.125,5.036c-0.279,0.308-1.331,0.428-1.506,0.212
	c-0.36-0.443-0.368-1.172-0.521-1.784"/>
<path fill="none" stroke="#000000" stroke-width="2" stroke-linecap="round" stroke-linejoin="round" stroke-miterlimit="10" d="
	M77.274,301.987c0.458,2.751,0.69,5.564,1.421,8.241c1.742,6.383,3.41,12.813,6.834,18.587c-0.069,3.544,3.071,4.648,5.033,6.659
	c0.756,0.775,1.387,1.672,2.075,2.513"/>
<path fill="none" stroke="#000000" stroke-width="2" stroke-linecap="round" stroke-linejoin="round" stroke-miterlimit="10" d="
	M196.51,152.484c-0.841-1.911-2.113-3.75-2.44-5.746c-0.934-5.688-4.38-9.403-8.771-12.63c-1.989-1.462-3.894-2.954-6.446-3.158
	c-0.677-0.054-1.375,0.133-2.062,0.209"/>
<path fill="none" stroke="#000000" stroke-width="2" stroke-linecap="round" stroke-linejoin="round" stroke-miterlimit="10" d="
	M0.688,321.707c1.605,2.293,3.402,4.478,4.765,6.907c1.624,2.894,4.576,3.425,7.177,4.515c3.932,1.646,8.113,2.434,12.364,2.795"/>
<path fill="none" stroke="#000000" stroke-width="2" stroke-linecap="round" stroke-linejoin="round" stroke-miterlimit="10" d="
	M355.185,392.561c-1.527,0.307-3.086,0.511-4.58,0.937c-6.1,1.733-12.067,3.76-17.688,6.811c-4.067,2.208-8.304,1.768-12.354-0.407"
	/>
<path fill="none" stroke="#000000" stroke-width="2" stroke-linecap="round" stroke-linejoin="round" stroke-miterlimit="10" d="
	M188.484,153.401c-0.096,5.92-1.46,11.36-5.969,15.584c-0.633,0.594-1.304,1.39-2.07,1.547c-1.482,0.304-3.103,0.476-4.538,0.145
	c-0.452-0.104-0.493-1.989-0.723-3.06"/>
<path fill="none" stroke="#000000" stroke-width="2" stroke-linecap="round" stroke-linejoin="round" stroke-miterlimit="10" d="
	M110.522,517.758c3.363,6.344,6.721,12.69,10.094,19.029c0.579,1.088,1.137,2.204,1.873,3.181c0.268,0.354,1.027,0.338,1.562,0.491"
	/>
<path fill="none" stroke="#000000" stroke-width="2" stroke-linecap="round" stroke-linejoin="round" stroke-miterlimit="10" d="
	M195.134,135.516c-4.701-4.461-10.42-7.041-16.508-8.946c-2.098-0.657-4.158-0.893-6.199,0.22c-0.567,0.31-1.216,0.471-1.828,0.7"/>
<path fill="none" stroke="#000000" stroke-width="2" stroke-linecap="round" stroke-linejoin="round" stroke-miterlimit="10" d="
	M329.731,292.815c4.549,7.145,5.836,15.756,10.318,22.93"/>
<path fill="none" stroke="#000000" stroke-width="2" stroke-linecap="round" stroke-linejoin="round" stroke-miterlimit="10" d="
	M282.269,171.745c-0.6,4.81-2.521,9.343-5.646,12.708c-4.189,4.514-9.613,7.633-16.139,7.914c-0.76,0.033-1.528-0.13-2.293-0.216
	c-2.52-0.282-3.588,0.411-4.585,2.982"/>
<path fill="none" stroke="#000000" stroke-width="2" stroke-linecap="round" stroke-linejoin="round" stroke-miterlimit="10" d="
	M188.025,323.313c-2.836,1.53-5.623,1.243-8.035-0.677c-2.942-2.342-5.935-4.621-8.938-6.885c-4.406-3.322-9.668-4.303-14.906-5.248
	c-2.335-0.42-4.733-0.491-7.103-0.72"/>
<path fill="none" stroke="#000000" stroke-width="2" stroke-linecap="round" stroke-linejoin="round" stroke-miterlimit="10" d="
	M123.134,331.796c-0.688-0.229-1.434-0.758-2.054-0.638c-3.075,0.596-5.982-0.299-8.956-0.717
	c-3.886-0.547-7.793-0.938-11.691-1.397"/>
<path fill="none" stroke="#000000" stroke-width="2" stroke-linecap="round" stroke-linejoin="round" stroke-miterlimit="10" d="
	M477.859,285.937c0.307,3.516,0.739,7.027,0.857,10.55c0.051,1.517-0.391,3.112-0.904,4.567c-0.479,1.355-1.655,1.77-3.166,1.662
	c-2.205-0.156-4.431-0.04-6.646-0.04"/>
<path fill="none" stroke="#000000" stroke-width="2" stroke-linecap="round" stroke-linejoin="round" stroke-miterlimit="10" d="
	M174.497,141.937c0.458,0.688,0.791,1.522,1.396,2.04c4.308,3.685,3.46,8.242,2.268,12.863c-0.755,2.926-2.159,5.268-5.498,5.734"/>
<path fill="none" stroke="#000000" stroke-width="2" stroke-linecap="round" stroke-linejoin="round" stroke-miterlimit="10" d="
	M196.051,472.586c-2.369,2.676-4.646,5.439-7.131,8.004c-3.271,3.376-6.697,6.602-10.07,9.878c-1.047,1.018-2.137,1.991-3.207,2.984
	"/>
<path fill="none" stroke="#000000" stroke-width="2" stroke-linecap="round" stroke-linejoin="round" stroke-miterlimit="10" d="
	M239.618,187.567c-2.468-1.382-5.487-0.598-6.062,2.318c-1.026,5.207-4.832,8.493-7.47,12.584c-0.591,0.917-1.31,1.792-0.685,2.982"
	/>
<path fill="none" stroke="#000000" stroke-width="2" stroke-linecap="round" stroke-linejoin="round" stroke-miterlimit="10" d="
	M228.153,204.306c-5.502,3.018-8.974,7.663-11.026,13.522c-1.282,3.66-1.321,7.458-1.585,11.243"/>
<path fill="none" stroke="#000000" stroke-width="2" stroke-linecap="round" stroke-linejoin="round" stroke-miterlimit="10" d="
	M146.063,312.077c-3.782-0.194-6.55,2.604-5.936,6.187c0.567,3.308,1.352,6.577,2.036,9.865c0.156,0.749,0.289,1.503,0.501,2.616
	c-2.108-0.75-3.179,0.444-4.417,1.488c-2.961,2.494-5.792,5.217-9.611,6.443"/>
<path fill="none" stroke="#000000" stroke-width="2" stroke-linecap="round" stroke-linejoin="round" stroke-miterlimit="10" d="
	M204.306,557.886c-2.217,6.345-4.418,12.693-6.666,19.025c-0.34,0.959-0.901,1.841-1.359,2.758"/>
<path fill="none" stroke="#000000" stroke-width="2" stroke-linecap="round" stroke-linejoin="round" stroke-miterlimit="10" d="
	M45.86,250.395c1.07,0.841,2.109,1.725,3.215,2.515c4.912,3.506,7.924,8.553,10.979,13.55c0.833,1.363,1.398,2.891,2.086,4.343"/>
<path fill="none" stroke="#000000" stroke-width="2" stroke-linecap="round" stroke-linejoin="round" stroke-miterlimit="10" d="
	M109.834,567.516c-3.363,6.191-6.719,12.388-10.097,18.569c-0.559,1.022-1.215,1.991-1.827,2.985"/>
<path fill="none" stroke="#000000" stroke-width="2" stroke-linecap="round" stroke-linejoin="round" stroke-miterlimit="10" d="
	M64.663,325.146c-1.07,0.457-2.222,0.79-3.184,1.416c-0.744,0.484-1.509,1.238-1.81,2.043c-0.771,2.063-1.77,3.721-3.667,5.097
	c-3.247,2.354-5.547,5.624-7.16,9.33"/>
<path fill="none" stroke="#000000" stroke-width="2" stroke-linecap="round" stroke-linejoin="round" stroke-miterlimit="10" d="
	M157.529,131.389c-3.357,3.411-6.954,6.369-11.676,7.853c-3.622,1.139-6.931,2.972-8.532,6.81c-0.072,0.174-0.582,0.166-0.887,0.242
	"/>
<path fill="none" stroke="#000000" stroke-width="2" stroke-linecap="round" stroke-linejoin="round" stroke-miterlimit="10" d="
	M147.898,311.618c0.612,2.063,1.154,4.15,1.85,6.186c1.131,3.307,0.701,6.548,0.057,9.879c-0.279,1.445,0.233,3.043,0.386,4.572"/>
<path fill="none" stroke="#000000" stroke-width="2" stroke-linecap="round" stroke-linejoin="round" stroke-miterlimit="10" d="
	M143.312,263.465c0.688,0.382,1.349,0.828,2.068,1.136c3.382,1.449,5.354,6.292,3.894,9.642c-1.221,2.8-3.939,4.291-7.051,3.905
	c1.114-9.23-0.171-18.697,2.694-27.752"/>
<path fill="none" stroke="#000000" stroke-width="2" stroke-linecap="round" stroke-linejoin="round" stroke-miterlimit="10" d="
	M202.471,310.93c-1.299-0.305-2.588-0.668-3.9-0.905c-3.984-0.726-6.718,1.261-9.201,4.089c-2.064,2.351-4.402,4.46-6.619,6.677"/>
<path fill="none" stroke="#000000" stroke-width="2" stroke-linecap="round" stroke-linejoin="round" stroke-miterlimit="10" d="
	M133.452,221.044c3.954,1.316,7.871,2.702,12.165,1.417c1.375-0.412,2.889-0.395,4.346-0.486c1.451-0.09,2.532,0.431,2.75,2.05"/>
<path fill="none" stroke="#000000" stroke-width="2" stroke-linecap="round" stroke-linejoin="round" stroke-miterlimit="10" d="
	M149.274,130.471c-6.783-0.016-12.919,1.808-17.106,7.406c-1.934,2.585-3.835,5.141-6.01,7.538
	c-1.931,2.128-2.142,5.548-0.806,8.305c0.997-1.083,1.912-2.077,2.826-3.07"/>
<path fill="none" stroke="#000000" stroke-width="2" stroke-linecap="round" stroke-linejoin="round" stroke-miterlimit="10" d="
	M287.541,170.37c0,1.681,0.351,3.456-0.067,5.026c-1.139,4.282-3.732,7.656-7.257,10.354c-1.457,1.117-2.765,2.428-4.141,3.651"/>
<path fill="none" stroke="#000000" stroke-width="2" stroke-linecap="round" stroke-linejoin="round" stroke-miterlimit="10" d="
	M243.745,184.356c-1.079,1.3-1.66,2.9-3.614,3.594c-1.007,0.357-2.157,2.021-1.659,3.744c0.426,1.473,2.707,3.072,4.585,3.209
	c2.14,0.157,4.281,0.307,6.42,0.46"/>
<path fill="none" stroke="#000000" stroke-width="2" stroke-linecap="round" stroke-linejoin="round" stroke-miterlimit="10" d="
	M146.063,170.828c1.3,1.911,2.643,3.793,3.89,5.738c3.144,4.899,4.806,10.445,6.957,15.788c1.05,2.608,2.835,4.92,4.287,7.366"/>
<path fill="none" stroke="#000000" stroke-width="2" stroke-linecap="round" stroke-linejoin="round" stroke-miterlimit="10" d="
	M327.669,200.178c-0.229,5.503-0.454,11.007-0.693,16.509c-0.039,0.919-0.146,1.835-0.224,2.752"/>
<path fill="none" stroke="#000000" stroke-width="2" stroke-linecap="round" stroke-linejoin="round" stroke-miterlimit="10" d="
	M268.51,168.994c-1.987,4.127-3.86,8.315-5.995,12.364c-1.863,3.529-4.515,6.364-7.945,8.577c-1.745,1.125-3.709,2.468-3.946,4.97"
	/>
<path fill="none" stroke="#000000" stroke-width="2" stroke-linecap="round" stroke-linejoin="round" stroke-miterlimit="10" d="
	M80.943,305.197c-0.065,6.006,1.575,11.578,4.093,16.983c1.562,3.354,2.801,6.857,4.136,10.313c0.119,0.307-0.127,0.754-0.203,1.136
	"/>
<path fill="none" stroke="#000000" stroke-width="2" stroke-linecap="round" stroke-linejoin="round" stroke-miterlimit="10" d="
	M279.058,171.745c-0.152,1.223,0.035,2.634-0.519,3.636c-2.312,4.185-5.195,7.911-9.084,10.848c-2.636,1.99-5.74,0.892-8.524,1.755
	c-1.067,0.331-2.281,0.194-3.428,0.271"/>
<path fill="none" stroke="#000000" stroke-width="2" stroke-linecap="round" stroke-linejoin="round" stroke-miterlimit="10" d="
	M283.185,195.134c-2.979,0-6.028,0.401-8.928-0.089c-5.006-0.847-9.939-0.528-14.921-0.157c-2.362,0.176-4.741,0.292-7.106,0.215
	c-3.051-0.099-3.514,0.885-4.455,4.025c1.951-0.193,3.835-0.144,5.588-0.602c3.901-1.019,6.504,0.56,8.496,3.716"/>
<path fill="none" stroke="#000000" stroke-width="2" stroke-linecap="round" stroke-linejoin="round" stroke-miterlimit="10" d="
	M188.713,297.86c-5.984,5.561-12.258,10.835-17.197,17.427"/>
<path fill="none" stroke="#000000" stroke-width="2" stroke-linecap="round" stroke-linejoin="round" stroke-miterlimit="10" d="
	M94.242,594.114c-1.966,2.646-4.875,4.042-7.563,5.739c-3.458,2.188-6.883,4.427-10.323,6.644"/>
<path fill="none" stroke="#000000" stroke-width="2" stroke-linecap="round" stroke-linejoin="round" stroke-miterlimit="10" d="
	M175.644,201.783c0.611-0.993,1.494-1.914,1.787-2.993c1.257-4.633,2.436-9.292,3.438-13.985c0.378-1.77,0.479-3.707,0.172-5.474
	c-0.177-1.019-1.273-2.149-2.252-2.639c-0.458-0.229-1.616,0.939-2.457,1.474"/>
<path fill="none" stroke="#000000" stroke-width="2" stroke-linecap="round" stroke-linejoin="round" stroke-miterlimit="10" d="
	M136.663,170.14c-1.146,1.223-2.116,2.71-3.473,3.619c-3.963,2.656-6.997,6.151-9.848,9.893c-1.872,2.457-3.988,4.727-5.922,7.139
	c-0.724,0.904-1.241,1.973-1.853,2.966"/>
<path fill="none" stroke="#000000" stroke-width="2" stroke-linecap="round" stroke-linejoin="round" stroke-miterlimit="10" d="
	M92.178,342.344c0.533,0.309,1.065,0.616,1.896,1.098c0.68-1.775,1.259-3.537,2.021-5.216c1.229-2.707,2.952-5.247,3.798-8.059
	c1.529-5.077-0.191-6.849-5.414-5.894c-2.063,0.377-3.983,1.083-6.003-0.221c-0.54-0.348-1.495-0.053-2.259-0.053"/>
<path fill="none" stroke="#000000" stroke-width="2" stroke-linecap="round" stroke-linejoin="round" stroke-miterlimit="10" d="
	M61.223,334.548c1.907,1.924,3.954,3.479,6.616,4.448c3.107,1.13,5.353,3.701,7.599,6.101c0.737,0.789,1.456,1.597,2.433,2.669
	c2.23-1.698,4.371-3.331,6.512-4.963"/>
<path fill="none" stroke="#000000" stroke-width="2" stroke-linecap="round" stroke-linejoin="round" stroke-miterlimit="10" d="
	M352.204,158.904c-0.153,3.363-0.247,6.73-0.495,10.087c-0.074,1.011-0.304,2.233-0.935,2.937c-1.699,1.898-1.221,4.807-3.317,6.55
	c-0.533,0.443-0.222,1.905-0.298,2.898"/>
<path fill="none" stroke="#000000" stroke-width="2" stroke-linecap="round" stroke-linejoin="round" stroke-miterlimit="10" d="
	M242.37,209.351c-1.834,1.375-3.537,2.994-5.529,4.08c-5.063,2.759-7.347,2.292-10.98-1.787"/>
<path fill="none" stroke="#000000" stroke-width="2" stroke-linecap="round" stroke-linejoin="round" stroke-miterlimit="10" d="
	M216.688,275.389c-1.464,3.477-4.266,5.824-7.143,7.979c-2.792,2.091-4.784,4.752-6.615,7.614"/>
<path fill="none" stroke="#000000" stroke-width="2" stroke-linecap="round" stroke-linejoin="round" stroke-miterlimit="10" d="
	M135.975,194.217c0.875,5.625,1.246,11.186-2.064,16.28"/>
<path fill="none" stroke="#000000" stroke-width="2" stroke-linecap="round" stroke-linejoin="round" stroke-miterlimit="10" d="
	M348.994,150.879c-1.483,2.936-3.935,5.036-6.121,7.403c-2.124,2.3-5.255,3.755-6.247,7.047c-0.036,0.119,0.139,0.301,0.215,0.454"
	/>
<path fill="none" stroke="#000000" stroke-width="2" stroke-linecap="round" stroke-linejoin="round" stroke-miterlimit="10" d="
	M168.994,214.854c-4.678,4.036-7.776,9.543-12.955,13.232c-2.487,1.772-5.063,3.197-7.67,4.675c-0.544,0.309-0.93,0.896-1.388,1.354
	"/>
<path fill="none" stroke="#000000" stroke-width="2" stroke-linecap="round" stroke-linejoin="round" stroke-miterlimit="10" d="
	M329.503,140.561c-2.087-5.513-6.813-6.747-11.925-7.326c-0.755-0.085-1.527-0.012-2.291-0.012"/>
<path fill="none" stroke="#000000" stroke-width="2" stroke-linecap="round" stroke-linejoin="round" stroke-miterlimit="10" d="
	M351.058,152.943c-3.137,4.417-7.236,7.892-11.238,11.461c-0.203,0.182-0.437,0.384-0.688,0.451
	c-3.08,0.812-3.499,3.444-4.423,5.948c-1.334,3.613-2.23,7.184-1.536,11.032"/>
<path fill="none" stroke="#000000" stroke-width="2" stroke-linecap="round" stroke-linejoin="round" stroke-miterlimit="10" d="
	M195.134,400.127c0.873,1.498,1.096,3.017,1.009,4.82c-0.165,3.424,0.213,6.874,0.367,10.313"/>
<path fill="none" stroke="#000000" stroke-width="2" stroke-linecap="round" stroke-linejoin="round" stroke-miterlimit="10" d="
	M171.745,382.7c3.516,2.521,6.999,5.093,10.564,7.544c1.431,0.982,3.041,1.705,4.57,2.546"/>
<path fill="none" stroke="#000000" stroke-width="2" stroke-linecap="round" stroke-linejoin="round" stroke-miterlimit="10" d="
	M336.61,129.325c-3.457-2.635-7.514-3.664-11.693-4.353c-1.066-0.176-2.141-0.309-3.21-0.462"/>
<path fill="none" stroke="#000000" stroke-width="2" stroke-linecap="round" stroke-linejoin="round" stroke-miterlimit="10" d="
	M246.726,200.178c-2.751,0.535-5.507,1.049-8.253,1.612c-2.071,0.424-4.129,0.911-6.192,1.369"/>
<path fill="none" stroke="#000000" stroke-width="2" stroke-linecap="round" stroke-linejoin="round" stroke-miterlimit="10" d="
	M280.435,152.943c-3.518,4.739-7.033,9.478-10.549,14.216"/>
<path fill="none" stroke="#000000" stroke-width="2" stroke-linecap="round" stroke-linejoin="round" stroke-miterlimit="10" d="
	M134.14,157.07c-2.522,0.993-5.136,1.806-7.545,3.024c-3.427,1.733-6.455,4.124-7.514,8.003c-0.574,2.102-0.503,4.412-0.507,6.629
	c-0.006,3.927-0.427,7.911,1.12,11.694"/>
<path fill="none" stroke="#000000" stroke-width="2" stroke-linecap="round" stroke-linejoin="round" stroke-miterlimit="10" d="
	M135.975,329.274c0.351-1.896,0.23-3.542-2.063-4.132c-2.608-0.67-5.161,0.248-6.877,2.528c-0.855,1.136-1.684,2.292-2.524,3.438"/>
<path fill="none" stroke="#000000" stroke-width="2" stroke-linecap="round" stroke-linejoin="round" stroke-miterlimit="10" d="
	M341.427,130.242c2.752,3.057,5.559,6.068,8.223,9.2c0.822,0.967,1.256,2.265,1.867,3.412"/>
<path fill="none" stroke="#000000" stroke-width="2" stroke-linecap="round" stroke-linejoin="round" stroke-miterlimit="10" d="
	M155.465,340.28c-1.758-0.458-3.496-1.029-5.278-1.352c-3.041-0.549-6.099-1.05-9.171-1.369c-2.873-0.299-4.534,2.062-6.646,3.408"
	/>
<path fill="none" stroke="#000000" stroke-width="2" stroke-linecap="round" stroke-linejoin="round" stroke-miterlimit="10" d="
	M159.822,132.764c-1.695,3.838-3.311,7.747-6.899,10.291c-0.704,0.499-1.662,0.639-2.502,0.945"/>
<path fill="none" stroke="#000000" stroke-width="2" stroke-linecap="round" stroke-linejoin="round" stroke-miterlimit="10" d="
	M166.471,140.561c0.299,5.075-0.436,6.154-5.018,8.312c-0.95,0.447-1.556,1.624-2.32,2.465"/>
<path fill="none" stroke="#000000" stroke-width="2" stroke-linecap="round" stroke-linejoin="round" stroke-miterlimit="10" d="
	M174.038,186.42c0.382,1.299,1.03,2.59,1.071,3.9c0.04,1.289-0.528,2.598-0.844,3.896c-0.373,1.531-0.762,3.058-1.144,4.586"/>
<path fill="none" stroke="#000000" stroke-width="2" stroke-linecap="round" stroke-linejoin="round" stroke-miterlimit="10" d="
	M247.644,199.261c-0.153,0.688-0.306,1.375-0.459,2.063c0.612,0,1.263,0.139,1.828-0.022c3.594-1.028,6.708-0.229,9.407,2.315"/>
<path fill="none" stroke="#000000" stroke-width="2" stroke-linecap="round" stroke-linejoin="round" stroke-miterlimit="10" d="
	M184.586,153.86c-0.44,4.122-1.15,8.136-4.597,10.993c-0.219,0.182-0.6,0.167-0.906,0.243"/>
<path fill="none" stroke="#000000" stroke-width="2" stroke-linecap="round" stroke-linejoin="round" stroke-miterlimit="10" d="
	M258.19,204.076c-1.528,1.453-3.046,2.917-4.594,4.347c-0.32,0.296-0.976,0.388-1.094,0.713c-0.287,0.792-0.35,1.666-0.502,2.507
	c0.764-0.077,1.534-0.122,2.29-0.247c0.248-0.041,0.461-0.288,0.691-0.441"/>
<path fill="none" stroke="#000000" stroke-width="2" stroke-linecap="round" stroke-linejoin="round" stroke-miterlimit="10" d="
	M288.229,149.732c-1.156,4.254-3.371,7.958-5.963,11.465"/>
<path fill="none" stroke="#000000" stroke-width="2" stroke-linecap="round" stroke-linejoin="round" stroke-miterlimit="10" d="
	M68.102,323.313c1.758,0,3.528,0.127,5.271-0.033c2.037-0.188,3.624,0.484,5.057,1.857c1.796,1.723,3.629,3.409,5.516,5.029
	c0.465,0.399,1.201,0.484,1.813,0.713"/>
<path fill="none" stroke="#000000" stroke-width="2" stroke-linecap="round" stroke-linejoin="round" stroke-miterlimit="10" d="
	M284.331,195.822c1.605,0.306,3.221,0.563,4.813,0.926c3.904,0.889,7.801,1.82,11.695,2.747c0.848,0.201,1.684,0.455,2.523,0.684"/>
<path fill="none" stroke="#000000" stroke-width="2" stroke-linecap="round" stroke-linejoin="round" stroke-miterlimit="10" d="
	M161.656,347.618c-2.37-1.146-4.646-2.958-7.127-3.309c-5.935-0.834-11.804-2.365-17.867-2.219
	c-0.684,0.018-1.375-0.283-2.063-0.436"/>
<path fill="none" stroke="#000000" stroke-width="2" stroke-linecap="round" stroke-linejoin="round" stroke-miterlimit="10" d="
	M204.306,556.51c-2.369-0.077-4.96,0.421-7.049-0.384c-2.31-0.89-4.076-0.04-6.01,0.43c-1.406,0.343-2.593,0.753-4.166,0.271
	c-2.367-0.729-9.116,3.18-9.79,5.43c-0.204,0.682,0.14,1.516,0.18,2.28c0.166,3.133,0.311,6.268,0.464,9.401"/>
<path fill="none" stroke="#000000" stroke-width="2" stroke-linecap="round" stroke-linejoin="round" stroke-miterlimit="10" d="
	M207.057,553.528c-3.057,0.306-6.122,0.558-9.166,0.961c-0.651,0.086-1.229,0.721-1.84,1.104"/>
<path fill="none" stroke="#000000" stroke-width="2" stroke-linecap="round" stroke-linejoin="round" stroke-miterlimit="10" d="
	M28.663,271.49c0.417,0.25,0.833,0.499,1.781,1.065c-5.083,0.682-8.884,2.559-11.412,6.501"/>
<path fill="none" stroke="#000000" stroke-width="2" stroke-linecap="round" stroke-linejoin="round" stroke-miterlimit="10" d="
	M133.223,191.694c-2.537-0.177-4.63-1.549-6.9-2.471c-1.103-0.448-2.425-0.357-3.648-0.51"/>
<path fill="none" stroke="#000000" stroke-width="2" stroke-linecap="round" stroke-linejoin="round" stroke-miterlimit="10" d="
	M155.465,128.866c-3.439,2.063-6.879,4.127-10.318,6.191"/>
<path fill="none" stroke="#000000" stroke-width="2" stroke-linecap="round" stroke-linejoin="round" stroke-miterlimit="10" d="
	M339.134,165.325c0,2.522,0.047,5.046-0.01,7.567c-0.121,5.351-0.174,10.708-0.5,16.048c-0.165,2.693-0.866,5.354-1.324,8.029"/>
<path fill="none" stroke="#000000" stroke-width="2" stroke-linecap="round" stroke-linejoin="round" stroke-miterlimit="10" d="
	M188.025,557.427c-2.522,1.3-5.018,2.657-7.589,3.852c-0.537,0.25-1.354-0.105-2.042-0.183"/>
<path fill="none" stroke="#000000" stroke-width="2" stroke-linecap="round" stroke-linejoin="round" stroke-miterlimit="10" d="
	M115.108,194.217c-1.805,3.612-4.115,6.993-5.045,11.006"/>
<path fill="none" stroke="#000000" stroke-width="2" stroke-linecap="round" stroke-linejoin="round" stroke-miterlimit="10" d="
	M467.541,281.121c1.242,1.124,2.705,1.332,4.352,1.451c1.857,0.133,3.675,0.842,5.51,1.301"/>
<path fill="none" stroke="#000000" stroke-width="2" stroke-linecap="round" stroke-linejoin="round" stroke-miterlimit="10" d="
	M134.14,341.427c-3.822-0.535-7.643-1.069-11.465-1.604"/>
<path fill="none" stroke="#000000" stroke-width="2" stroke-linecap="round" stroke-linejoin="round" stroke-miterlimit="10" d="
	M189.172,168.535c-0.841,1.681-1.762,3.328-2.502,5.053c-0.95,2.214-2.634,2.812-4.835,2.514"/>
<path fill="none" stroke="#000000" stroke-width="2" stroke-linecap="round" stroke-linejoin="round" stroke-miterlimit="10" d="
	M308.866,128.178c-2.385-1.145-4.822-1.327-7.346-0.479c-0.252,0.084-0.604-0.131-0.91-0.208"/>
<path fill="none" stroke="#000000" stroke-width="2" stroke-linecap="round" stroke-linejoin="round" stroke-miterlimit="10" d="
	M171.057,316.433c-2.17,2.413-3.728,5.074-3.439,8.484"/>
<path fill="none" stroke="#000000" stroke-width="2" stroke-linecap="round" stroke-linejoin="round" stroke-miterlimit="10" d="
	M142.624,330.879c2.828,1.605,5.656,3.21,8.484,4.815"/>
<path fill="none" stroke="#000000" stroke-width="2" stroke-linecap="round" stroke-linejoin="round" stroke-miterlimit="10" d="
	M339.362,173.121c2.822,0.089,4.562,2.343,6.871,3.455c0.584,0.281,1.078,0.749,1.613,1.131"/>
<path fill="none" stroke="#000000" stroke-width="2" stroke-linecap="round" stroke-linejoin="round" stroke-miterlimit="10" d="
	M178.624,191.465c-1.726,1.249-2.714,2.905-3.01,5.041c-0.13,0.941-0.582,1.838-0.888,2.756"/>
<path fill="none" stroke="#000000" stroke-width="2" stroke-linecap="round" stroke-linejoin="round" stroke-miterlimit="10" d="
	M266.675,196.968c-2.751,0.382-5.503,0.764-8.255,1.146"/>
<path fill="none" stroke="#000000" stroke-width="2" stroke-linecap="round" stroke-linejoin="round" stroke-miterlimit="10" d="
	M300.382,126.803c-1.375,0.764-2.76,1.514-4.124,2.297c-1.159,0.666-2.296,1.371-3.442,2.059"/>
<path fill="none" stroke="#000000" stroke-width="2" stroke-linecap="round" stroke-linejoin="round" stroke-miterlimit="10" d="
	M154.089,343.49c-2.314-1.766-4.807-2.708-7.808-2.12c-0.767,0.149-1.67-0.402-2.511-0.631"/>
<path fill="none" stroke="#000000" stroke-width="2" stroke-linecap="round" stroke-linejoin="round" stroke-miterlimit="10" d="
	M346.931,181.146c-0.765-0.535-1.701-0.933-2.26-1.632c-1.408-1.762-3.188-2.278-5.309-2.037"/>
<path fill="none" stroke="#000000" stroke-width="2" stroke-linecap="round" stroke-linejoin="round" stroke-miterlimit="10" d="
	M506.063,418.93c2.574,1.833,3.688,4.668,5.046,7.338"/>
<path fill="none" stroke="#000000" stroke-width="2" stroke-linecap="round" stroke-linejoin="round" stroke-miterlimit="10" d="
	M279.976,163.949c-1.988,2.446-3.976,4.892-5.963,7.337"/>
<path fill="none" stroke="#000000" stroke-width="2" stroke-linecap="round" stroke-linejoin="round" stroke-miterlimit="10" d="
	M80.025,321.478c-0.458-0.229-0.924-0.445-1.375-0.689c-3.071-1.663-4.088-0.676-4.816,2.065"/>
<path fill="none" stroke="#000000" stroke-width="2" stroke-linecap="round" stroke-linejoin="round" stroke-miterlimit="10" d="
	M148.356,214.166c-0.841-0.229-1.686-0.444-2.521-0.692c-0.836-0.249-1.661-0.531-2.709-0.869c-0.268,0.824-0.5,1.536-0.731,2.249"
	/>
<path fill="none" stroke="#000000" stroke-width="2" stroke-linecap="round" stroke-linejoin="round" stroke-miterlimit="10" d="
	M149.274,357.938c-0.618,0.858-0.011,1.438,0.456,2.064c1.536,2.059,3.06,4.125,4.588,6.189"/>
<path fill="none" stroke="#000000" stroke-width="2" stroke-linecap="round" stroke-linejoin="round" stroke-miterlimit="10" d="
	M96.306,336.611c-0.414-0.581-0.829-1.162-1.462-2.051c-1.497,2.711-2.611,4.712-3.048,7.299c-0.44,2.604-2.125,4.999-3.24,7.433
	c-1.037-0.306-1.802-0.531-2.567-0.757"/>
<path fill="none" stroke="#000000" stroke-width="2" stroke-linecap="round" stroke-linejoin="round" stroke-miterlimit="10" d="
	M325.834,141.478c-1.933-1.548-4.21-1.157-6.42-1.146"/>
<path fill="none" stroke="#000000" stroke-width="2" stroke-linecap="round" stroke-linejoin="round" stroke-miterlimit="10" d="
	M261.858,202.701c-0.764,1.452-1.492,2.924-2.305,4.349c-0.462,0.807-1.058,1.536-1.593,2.301"/>
<path fill="none" stroke="#000000" stroke-width="2" stroke-linecap="round" stroke-linejoin="round" stroke-miterlimit="10" d="
	M179.083,178.624c-1.223,2.14-2.446,4.28-3.669,6.42"/>
<path fill="none" stroke="#000000" stroke-width="2" stroke-linecap="round" stroke-linejoin="round" stroke-miterlimit="10" d="
	M344.866,184.356c-0.993,0.917-1.887,1.998-3.016,2.697c-0.82,0.508-1.953,0.513-2.947,0.743"/>
<path fill="none" stroke="#000000" stroke-width="2" stroke-linecap="round" stroke-linejoin="round" stroke-miterlimit="10" d="
	M239.847,253.834c-0.076,1.987-0.153,3.974-0.229,5.962"/>
<path fill="none" stroke="#000000" stroke-width="2" stroke-linecap="round" stroke-linejoin="round" stroke-miterlimit="10" d="
	M139.644,216.229c-0.459-0.765-1.091-1.477-1.341-2.304c-0.597-1.976-1.802-1.798-3.245-1.136"/>
<path fill="none" stroke="#000000" stroke-width="2" stroke-linecap="round" stroke-linejoin="round" stroke-miterlimit="10" d="
	M318.038,203.389c0.939,1.876,2.203,3.678,1.376,5.962"/>
<path fill="none" stroke="#000000" stroke-width="2" stroke-linecap="round" stroke-linejoin="round" stroke-miterlimit="10" d="
	M251.771,188.255c-2.522,0.229-5.044,0.458-7.567,0.688"/>
<path fill="none" stroke="#000000" stroke-width="2" stroke-linecap="round" stroke-linejoin="round" stroke-miterlimit="10" d="
	M155.694,190.548c-1.911,0.458-3.822,0.917-5.732,1.376"/>
<path fill="none" stroke="#000000" stroke-width="2" stroke-linecap="round" stroke-linejoin="round" stroke-miterlimit="10" d="
	M318.955,124.051c-1.834-0.153-3.668-0.306-5.503-0.458"/>
<path fill="none" stroke="#000000" stroke-width="2" stroke-linecap="round" stroke-linejoin="round" stroke-miterlimit="10" d="
	M155.694,157.07c-0.326-2.447-2.167-2.796-4.127-2.981"/>
<path fill="none" stroke="#000000" stroke-width="2" stroke-linecap="round" stroke-linejoin="round" stroke-miterlimit="10" d="
	M348.306,191.924c-1.024-2.783-0.93-5.359,0.607-8.071c1.033-1.824,1.367-4.066,1.887-6.153c0.234-0.942-0.249-1.611-1.348-1.598"/>
<path fill="none" stroke="#000000" stroke-width="2" stroke-linecap="round" stroke-linejoin="round" stroke-miterlimit="10" d="
	M265.3,181.834c-1.459,1.825-0.891,3.561,0.229,5.274"/>
<path fill="none" stroke="#000000" stroke-width="2" stroke-linecap="round" stroke-linejoin="round" stroke-miterlimit="10" d="
	M347.39,192.841c-1.07-0.306-2.127-0.7-3.218-0.877c-0.497-0.081-1.063,0.266-1.599,0.419"/>
<path fill="none" stroke="#000000" stroke-width="2" stroke-linecap="round" stroke-linejoin="round" stroke-miterlimit="10" d="
	M179.542,185.274c-0.535,0.229-1.246,0.317-1.568,0.717c-0.658,0.818-1.107,1.805-1.642,2.722"/>
<path fill="none" stroke="#000000" stroke-width="2" stroke-linecap="round" stroke-linejoin="round" stroke-miterlimit="10" d="
	M184.356,141.707c0.382,1.605,0.765,3.21,1.146,4.815"/>
<path fill="none" stroke="#000000" stroke-width="2" stroke-linecap="round" stroke-linejoin="round" stroke-miterlimit="10" d="
	M133.682,141.019c-0.955,1.732-1.888,2.043-4.127,1.376"/>
<path fill="none" stroke="#000000" stroke-width="2" stroke-linecap="round" stroke-linejoin="round" stroke-miterlimit="10" d="
	M129.325,332.025c-1.416,1.249-2.457,3.152-4.815,2.751"/>
<path fill="none" stroke="#000000" stroke-width="2" stroke-linecap="round" stroke-linejoin="round" stroke-miterlimit="10" d="
	M154.318,350.828c0.306,1.528,0.612,3.058,0.917,4.586"/>
<path fill="none" stroke="#000000" stroke-width="2" stroke-linecap="round" stroke-linejoin="round" stroke-miterlimit="10" d="
	M155.465,345.325c-0.153,1.528-0.306,3.057-0.458,4.586"/>
<path fill="none" stroke="#000000" stroke-width="2" stroke-linecap="round" stroke-linejoin="round" stroke-miterlimit="10" d="
	M163.949,149.732c-1.084,1.626-2.602,1.877-4.357,1.376"/>
<path fill="none" stroke="#000000" stroke-width="2" stroke-linecap="round" stroke-linejoin="round" stroke-miterlimit="10" d="
	M335.007,146.981c-1.07,1.375-2.141,2.751-3.211,4.127"/>
<path fill="none" stroke="#000000" stroke-width="2" stroke-linecap="round" stroke-linejoin="round" stroke-miterlimit="10" d="
	M150.65,151.108c2.79-2.423,4.365-2.419,7.343-0.008c0.26,0.21,0.605,0.313,0.911,0.466"/>
<path fill="none" stroke="#000000" stroke-width="2" stroke-linecap="round" stroke-linejoin="round" stroke-miterlimit="10" d="
	M136.433,327.439c1.299,0.993,2.599,1.986,3.898,2.98"/>
<path fill="none" stroke="#000000" stroke-width="2" stroke-linecap="round" stroke-linejoin="round" stroke-miterlimit="10" d="
	M96.535,364.127c-0.535,1.452-1.07,2.905-1.605,4.357"/>
<path fill="none" stroke="#000000" stroke-width="2" stroke-linecap="round" stroke-linejoin="round" stroke-miterlimit="10" d="
	M340.28,192.841c-0.535,1.376-1.07,2.751-1.605,4.127"/>
<path fill="none" stroke="#000000" stroke-width="2" stroke-linecap="round" stroke-linejoin="round" stroke-miterlimit="10" d="
	M250.166,188.255c-0.655-3.3-2.943-4.242-5.962-4.127"/>
<path fill="none" stroke="#000000" stroke-width="2" stroke-linecap="round" stroke-linejoin="round" stroke-miterlimit="10" d="
	M121.07,333.401c0.688-0.383,1.431-0.691,2.053-1.16c1.911-1.439,3.203-1.188,4.367,0.931"/>
<path fill="none" stroke="#000000" stroke-width="2" stroke-linecap="round" stroke-linejoin="round" stroke-miterlimit="10" d="
	M249.937,188.943c-0.688,1.146-1.376,2.293-2.064,3.439"/>
<path fill="none" stroke="#000000" stroke-width="2" stroke-linecap="round" stroke-linejoin="round" stroke-miterlimit="10" d="
	M307.49,124.51c-1.07,0.153-2.14,0.306-3.21,0.458"/>
<path fill="none" stroke="#000000" stroke-width="2" stroke-linecap="round" stroke-linejoin="round" stroke-miterlimit="10" d="
	M122.675,159.592c-0.153,1.07-0.306,2.14-0.458,3.21"/>
<path fill="none" stroke="#000000" stroke-width="2" stroke-linecap="round" stroke-linejoin="round" stroke-miterlimit="10" d="
	M145.605,205.223c0.917,1.375,1.834,2.751,2.751,4.127"/>
<path fill="none" stroke="#000000" stroke-width="2" stroke-linecap="round" stroke-linejoin="round" stroke-miterlimit="10" d="
	M134.599,337.758c-0.764,0.994-1.529,1.987-2.293,2.981"/>
<path fill="none" stroke="#000000" stroke-width="2" stroke-linecap="round" stroke-linejoin="round" stroke-miterlimit="10" d="
	M272.179,173.121c-0.765,1.07-1.529,2.14-2.293,3.21"/>
<path fill="none" stroke="#000000" stroke-width="2" stroke-linecap="round" stroke-linejoin="round" stroke-miterlimit="10" d="
	M153.63,337.07c1.187,1.657,3.092,3.021,2.284,5.5c-0.083,0.252-0.296,0.462-0.449,0.689"/>
<path fill="none" stroke="#000000" stroke-width="2" stroke-linecap="round" stroke-linejoin="round" stroke-miterlimit="10" d="
	M118.318,169.452c-0.506,1.039-0.952,2.072,0.229,2.981"/>
<path fill="none" stroke="#000000" stroke-width="2" stroke-linecap="round" stroke-linejoin="round" stroke-miterlimit="10" d="
	M133.682,139.644c-0.994,0.306-1.987,0.611-2.981,0.917"/>
<path fill="none" stroke="#000000" stroke-width="2" stroke-linecap="round" stroke-linejoin="round" stroke-miterlimit="10" d="
	M268.968,177.249c-0.764,0.917-1.527,1.834-2.293,2.751"/>
<path fill="none" stroke="#000000" stroke-width="2" stroke-linecap="round" stroke-linejoin="round" stroke-miterlimit="10" d="
	M33.249,272.178c-0.917,0.077-1.834,0.153-2.752,0.229"/>
<path fill="none" stroke="#000000" stroke-width="2" stroke-linecap="round" stroke-linejoin="round" stroke-miterlimit="10" d="
	M253.605,195.592c0.229,0.841,0.458,1.682,0.688,2.522"/>
<path fill="none" stroke="#000000" stroke-width="2" stroke-linecap="round" stroke-linejoin="round" stroke-miterlimit="10" d="
	M130.013,220.586c-1.128-0.058-1.663,0.477-1.605,1.605"/>
<path fill="none" stroke="#000000" stroke-width="2" stroke-linecap="round" stroke-linejoin="round" stroke-miterlimit="10" d="
	M193.758,398.752c-0.764-0.153-1.528-0.306-2.293-0.459"/>
<path fill="none" stroke="#000000" stroke-width="2" stroke-linecap="round" stroke-linejoin="round" stroke-miterlimit="10" d="
	M285.021,173.58c-0.153,0.764-0.307,1.529-0.459,2.293"/>
<path fill="none" stroke="#000000" stroke-width="2" stroke-linecap="round" stroke-linejoin="round" stroke-miterlimit="10" d="
	M245.58,184.586c0.306,0.611,0.612,1.223,0.917,1.834"/>
<path fill="none" stroke="#000000" stroke-width="2" stroke-linecap="round" stroke-linejoin="round" stroke-miterlimit="10" d="
	M179.542,395.541c-0.229,0.535-0.458,1.07-0.688,1.605"/>
<path fill="none" stroke="#000000" stroke-width="2" stroke-linecap="round" stroke-linejoin="round" stroke-miterlimit="10" d="
	M32.79,268.51c0.458,0.306,0.917,0.611,1.375,0.917"/>
</svg>
