<?xml version="1.0" encoding="utf-8"?>
<!-- Generator: Adobe Illustrator 16.0.0, SVG Export Plug-In . SVG Version: 6.00 Build 0)  -->
<!DOCTYPE svg PUBLIC "-//W3C//DTD SVG 1.1//EN" "http://www.w3.org/Graphics/SVG/1.1/DTD/svg11.dtd">
<svg version="1.1" id="Layer_1" xmlns="http://www.w3.org/2000/svg" xmlns:xlink="http://www.w3.org/1999/xlink" x="0px" y="0px"
	 width="692.484px" height="519.134px" viewBox="0 0 692.484 519.134" enable-background="new 0 0 692.484 519.134"
	 xml:space="preserve">
<path fill-rule="evenodd" clip-rule="evenodd" fill="none" stroke="#000000" stroke-width="2" stroke-linecap="round" stroke-linejoin="round" stroke-miterlimit="10" d="
	M409.07,217.605c1.07,2.256,0.092,4.562-0.352,6.624c-1.43,6.641-2.651,13.321-4.011,19.974c-0.735,3.599-1.839,7.156-2.187,10.788
	c-0.271,2.838-0.617,5.663-1.045,8.47c-1.009,6.625-1.046,13.354-2.233,19.959c-0.228,1.263-0.033,2.602-0.033,4.007
	c-0.822,0-1.442,0-2.181,0c-0.499-3.492,0.531-7.055,0.419-10.665c-0.068-2.192,0.264-4.429,0.42-6.645
	c0.227-3.234,0.659-6.442,1.233-9.652c0.456-2.548,0.794-5.181,0.969-7.781c0.218-3.242,0.855-6.412,1.229-9.624
	c0.109-0.937,0.424-1.837-0.026-2.755"/>
<path fill-rule="evenodd" clip-rule="evenodd" fill="none" stroke="#000000" stroke-width="2" stroke-linecap="round" stroke-linejoin="round" stroke-miterlimit="10" d="
	M227.924,259.796c-0.228,24.167,1.65,48.215,3.849,72.384c-1.803,1.004-2.292,1.133-4.308,0.974
	c0.004-6.865,0.033-13.759-0.688-20.619"/>
<path fill-rule="evenodd" clip-rule="evenodd" fill="none" stroke="#000000" stroke-width="2" stroke-linecap="round" stroke-linejoin="round" stroke-miterlimit="10" d="
	M253.605,262.089c-1.456,14.422-0.16,28.901-0.977,43.348c-1.895-0.104-3.245-0.542-3.687-2.977
	c-0.969-5.336-1.216-10.677-1.069-16.065"/>
<path fill-rule="evenodd" clip-rule="evenodd" fill="none" stroke="#000000" stroke-width="2" stroke-linecap="round" stroke-linejoin="round" stroke-miterlimit="10" d="
	M307.949,204.994c-3.287-0.346-6.572-0.062-9.86-0.042c-8.177,0.05-16.357-0.218-24.535-0.159c-8.718,0.063-17.435,0.34-26.14,0.889
	"/>
<path fill-rule="evenodd" clip-rule="evenodd" fill="none" stroke="#000000" stroke-width="2" stroke-linecap="round" stroke-linejoin="round" stroke-miterlimit="10" d="
	M160.739,239.159c-0.199,3.835,0.937,7.443,2.102,10.994c1.723,5.25,6.196,7.737,10.734,10.111c6.06,3.17,12.432,2.98,18.793,1.533
	c4.419-1.005,7.551-4.114,10.081-7.75c1.052-1.511,1.857-3.194,2.774-4.799"/>
<path fill-rule="evenodd" clip-rule="evenodd" fill="none" stroke="#000000" stroke-width="2" stroke-linecap="round" stroke-linejoin="round" stroke-miterlimit="10" d="
	M388.662,257.962c-1.456,2.504-0.77,5.367-1.325,8.036c-1.002,4.819-0.931,9.766-1.172,14.665c-0.146,2.977-0.119,5.962-0.207,8.943
	c-0.219,7.41-0.327,14.828-0.236,22.24c0.073,5.895,0.477,11.786,1.081,17.659c0.156,1.512,0.111,3.055-0.293,4.496
	c1.389,0.651,2.45-0.035,3.531,0.052c0.807,0.064,0.983-0.642,0.912-1.34c-0.66-6.497,0.233-12.999-0.058-19.488
	c-0.103-2.288-0.183-4.592-0.348-6.885c-0.429-5.963,0.358-11.919,0.541-17.878c0.095-3.123,0.178-6.271,0.325-9.405"/>
<path fill-rule="evenodd" clip-rule="evenodd" fill="none" stroke="#000000" stroke-width="2" stroke-linecap="round" stroke-linejoin="round" stroke-miterlimit="10" d="
	M402.649,232.051c1.628-0.489,1.795-2.23,1.716-3.2c-0.243-2.959,1.22-5.3,2.218-7.792c1.36-3.397,3.059-6.667,3.62-10.334
	c0.205-1.34-0.243-2.082-1.814-2.332c-9.428-1.503-18.928-1.711-28.439-1.793"/>
<path fill-rule="evenodd" clip-rule="evenodd" fill="none" stroke="#000000" stroke-width="2" stroke-linecap="round" stroke-linejoin="round" stroke-miterlimit="10" d="
	M171.287,226.318c1.208,2.022,0.413,4.104,0.253,6.193c-0.369,4.827-0.98,9.692,1.574,14.219c2.752,4.878,8.859,6.676,14.016,4.398
	c4.234-1.871,7.866-4.557,11.444-7.384"/>
<path fill-rule="evenodd" clip-rule="evenodd" fill="none" stroke="#000000" stroke-width="2" stroke-linecap="round" stroke-linejoin="round" stroke-miterlimit="10" d="
	M157.07,219.898c-1.025,2.314-1.108,4.993-3.136,6.956c-0.677,0.655-0.545,2.187-0.542,3.363c0.019,7.337-0.072,14.677,0.071,22.011
	c0.032,1.659-0.141,3.438,0.492,5.098c1.304-0.153,2.172-1.102,3.488-1.211c0.859,2.435,0.622,5.121,1.46,7.579"/>
<path fill-rule="evenodd" clip-rule="evenodd" fill="none" stroke="#000000" stroke-width="2" stroke-linecap="round" stroke-linejoin="round" stroke-miterlimit="10" d="
	M164.178,260.942c-1.894,0.528-3.201,2.084-5.013,2.828c-0.987,0.404-1.294,1.782-1.389,2.906c-0.146,1.752-0.057,3.529-0.279,5.269
	c-0.243,1.904,0.682,2.784,2.325,3.211c8.253,2.146,16.473,4.444,24.789,6.313c2.155,0.483,4.522,0.735,6.857,0.636
	c1.145-0.05,1.873-0.789,2.856-0.998c-0.815-1.435,0.179-2.616,0.581-3.885"/>
<path fill-rule="evenodd" clip-rule="evenodd" fill="none" stroke="#000000" stroke-width="2" stroke-linecap="round" stroke-linejoin="round" stroke-miterlimit="10" d="
	M216,309.325c2.037,2.884,2.425,5.944,0.909,9.168c-0.833,1.771-2.746,2.721-4.568,2.04c-5.233-1.956-10.71-3.19-15.838-5.461
	c-4.021-1.781-4.345-2.34-2.968-6.434c0.703-2.09,1.067-4.143,0.995-6.425c-0.179-5.647,0.111-11.31,0.111-16.966
	c0-1.167,0.977-2.24,0.264-3.439"/>
<path fill-rule="evenodd" clip-rule="evenodd" fill="none" stroke="#000000" stroke-width="2" stroke-linecap="round" stroke-linejoin="round" stroke-miterlimit="10" d="
	M224.255,260.484c-0.372-0.061-0.636,0.282-0.662,0.462c-0.796,5.474-4.647,9.379-7.115,13.994
	c-3.079,5.756-7.192,10.899-10.039,16.762c-1.521,3.133-2.836,6.472-3.039,10.057c-0.197,3.482,0.784,4.532,4.56,5.999
	c2.777,1.08,5.566,1.228,8.497,1.315c3.448,0.103,6.98,0.458,10.092,2.315"/>
<path fill-rule="evenodd" clip-rule="evenodd" fill="none" stroke="#000000" stroke-width="2" stroke-linecap="round" stroke-linejoin="round" stroke-miterlimit="10" d="
	M192.382,283.644c0.138,8.431-0.467,16.83-1.18,25.22c-0.104,1.233-0.579,2.477-0.788,3.688c-0.236,1.368-0.832,1.731-1.925,1.557
	c-0.906-0.145-1.169-0.904-1.162-1.803c0.03-3.675,0.042-7.339,0.414-11.012c0.299-2.955-0.022-5.959,0.271-8.938
	c0.232-2.357-1.988-1.794-2.985-1.96c-3.789-0.63-7.624-1.058-11.438-1.556c-2.601-0.34-5.244-0.52-7.83-1.212
	c-1.444-0.388-3.17-0.389-4.699,0.442c-0.368,8.029,0.324,16.176-0.498,24.217c-1.356,0.1-1.79-0.083-1.93-1.122
	c-0.373-2.757-0.185-5.512-0.158-8.261c0.039-3.976,0.554-7.964,0.341-11.919c-0.168-3.135-0.288-6.268-0.393-9.405
	c-0.073-2.188,0.389-4.291,0.71-6.421"/>
<path fill-rule="evenodd" clip-rule="evenodd" fill="none" stroke="#000000" stroke-width="2" stroke-linecap="round" stroke-linejoin="round" stroke-miterlimit="10" d="
	M218.981,271.949c2.295,3.057,1.193,6.734,1.766,10.101c0.785,4.603,0.541,9.313,0.745,13.977c0.08,1.832,0.8,3.224,2.544,3.867
	c0.751,0.278,1.356,0.59,1.348,1.405c-0.028,2.795,1.346,5.423,0.94,8.256c-0.036,0.252,0.042,0.525-0.235,0.688"/>
<path fill-rule="evenodd" clip-rule="evenodd" fill="none" stroke="#000000" stroke-width="2" stroke-linecap="round" stroke-linejoin="round" stroke-miterlimit="10" d="
	M223.567,262.777c1.139,1.015,0.912,2.377,0.913,3.669c0.008,9.095,0.004,18.19,0.004,27.286"/>
<path fill-rule="evenodd" clip-rule="evenodd" fill="none" stroke="#000000" stroke-width="2" stroke-linecap="round" stroke-linejoin="round" stroke-miterlimit="10" d="
	M305.197,260.942c-1.579,0.982-3.635,0.916-5.006,0.545c-5.648-1.528-11.297-1.313-17.008-1.021
	c-4.123,0.211-8.254-0.38-12.381,0.019"/>
<path fill-rule="evenodd" clip-rule="evenodd" fill="none" stroke="#000000" stroke-width="2" stroke-linecap="round" stroke-linejoin="round" stroke-miterlimit="10" d="
	M297.401,224.025c-0.753,1.133-0.01,2.054,0.468,2.976c1.317,2.541,1.238,2.739-0.684,4.833c-3.064,3.338-7.072,5.179-11.038,7.057
	c-1.383,0.654-2.523,2.095-4.338,1.644"/>
<path fill-rule="evenodd" clip-rule="evenodd" fill="none" stroke="#000000" stroke-width="2" stroke-linecap="round" stroke-linejoin="round" stroke-miterlimit="10" d="
	M404.025,227.465c-1.345,0.755-1.773,2.275-1.736,3.437c0.086,2.707-1.193,4.926-1.931,7.341c-1.378,4.519-4.075,8.447-5.738,12.839
	c-0.423,1.118-0.945,2.204-0.913,3.441"/>
<path fill-rule="evenodd" clip-rule="evenodd" fill="none" stroke="#000000" stroke-width="2" stroke-linecap="round" stroke-linejoin="round" stroke-miterlimit="10" d="
	M190.548,274.93c-0.058,1.032-0.885,0.765-1.371,0.662c-5.635-1.184-11.264-2.386-16.966-3.233c-1.091-0.163-2.151-0.05-3.218-0.18"
	/>
<path fill-rule="evenodd" clip-rule="evenodd" fill="none" stroke="#000000" stroke-width="2" stroke-linecap="round" stroke-linejoin="round" stroke-miterlimit="10" d="
	M241.911,213.937c-0.956,3.138-2.108,6.135-4.557,8.514c-1.238,1.203-2.169,2.721-3.239,4.097"/>
<path fill-rule="evenodd" clip-rule="evenodd" fill="none" stroke="#000000" stroke-width="2" stroke-linecap="round" stroke-linejoin="round" stroke-miterlimit="10" d="
	M347.618,258.879c0,0.077,0.015,0.216-0.002,0.22c-3.521,0.825-6.771,2.446-10.541,2.632c-5.197,0.257-10.472-0.501-15.624,0.951
	c-0.573,0.161-1.729,0.192-2.496-0.364"/>
<path fill-rule="evenodd" clip-rule="evenodd" fill="none" stroke="#000000" stroke-width="2" stroke-linecap="round" stroke-linejoin="round" stroke-miterlimit="10" d="
	M387.975,258.879c-0.726,0.017-1.498,0.102-2.056-0.467c-1.271-1.298-2.88-0.717-4.112-0.369c-3.403,0.961-6.815,1.561-10.342,1.516
	c-1.246-0.016-2.313,0.438-3.473,0.827c-1.703,0.572-3.523,1.753-5.47,0.557"/>
<path fill-rule="evenodd" clip-rule="evenodd" fill="none" stroke="#000000" stroke-width="2" stroke-linecap="round" stroke-linejoin="round" stroke-miterlimit="10" d="
	M296.713,224.713c-1.724,0.124-3.091,1.147-4.582,1.844c-4.067,1.901-8.117,3.848-12.395,5.239c-0.8,0.26-1.289,0.678-1.597,1.401"
	/>
<path fill-rule="evenodd" clip-rule="evenodd" fill="none" stroke="#000000" stroke-width="2" stroke-linecap="round" stroke-linejoin="round" stroke-miterlimit="10" d="
	M230.446,300.611c0.841,0.229,1.7,0.407,2.519,0.698c1.812,0.644,2.98,1.732,2.775,3.89c-0.161,1.691,0.533,3.319,0.486,5.044
	c-0.044,1.625-0.422,2.262-1.868,1.791c-0.992-0.322-1.999-0.575-2.994-0.875"/>
<path fill-rule="evenodd" clip-rule="evenodd" fill="none" stroke="#000000" stroke-width="2" stroke-linecap="round" stroke-linejoin="round" stroke-miterlimit="10" d="
	M380.866,256.815c-0.587-0.605-1.348-0.488-2.063-0.451c-5.451,0.279-10.895,0.638-16.283,1.583
	c-0.593,0.104-1.22,0.014-1.832,0.014"/>
<path fill-rule="evenodd" clip-rule="evenodd" fill="none" stroke="#000000" stroke-width="2" stroke-linecap="round" stroke-linejoin="round" stroke-miterlimit="10" d="
	M246.497,260.713c-3.163,0.743-6.069,0.428-9.242-0.724c-2.257-0.82-5.146-1.034-7.712-0.572c-1.526,0.275-3.305-0.632-4.749,1.169
	c-1.443-2.691-3.631-4.498-5.584-6.522"/>
<path fill-rule="evenodd" clip-rule="evenodd" fill="none" stroke="#000000" stroke-width="2" stroke-linecap="round" stroke-linejoin="round" stroke-miterlimit="10" d="
	M357.937,258.65c-1.813-0.583-3.684-0.158-5.503-0.146c-1.913,0.013-3.813,0.214-5.735-0.068c-2.617-0.383-5.191,0.353-7.791,0.501
	c-1.991,0.114-3.981,0.217-5.964,0.145c-2.699-0.098-5.368,0.157-8.021,0.522c-1.176,0.162-2.269,0.228-3.453,0.008
	c-1.173-0.218-2.41-0.06-3.202,1.101"/>
<path fill-rule="evenodd" clip-rule="evenodd" fill="none" stroke="#000000" stroke-width="2" stroke-linecap="round" stroke-linejoin="round" stroke-miterlimit="10" d="
	M186.42,291.21c-0.06,4.747-1.046,9.45-0.682,14.217c0.061,0.787-0.466,1.988,1.14,1.834"/>
<path fill-rule="evenodd" clip-rule="evenodd" fill="none" stroke="#000000" stroke-width="2" stroke-linecap="round" stroke-linejoin="round" stroke-miterlimit="10" d="
	M288.229,262.318c-2.34-0.997-4.892-0.796-7.068-0.102c-2.591,0.828-5.095,0.406-7.61,0.492c-3.506,0.119-7.029-0.233-10.545-0.392
	c-3.287-0.147-6.572-0.337-9.86-0.439c-1.143-0.036-1.838-0.384-1.834-1.623"/>
<path fill-rule="evenodd" clip-rule="evenodd" fill="none" stroke="#000000" stroke-width="2" stroke-linecap="round" stroke-linejoin="round" stroke-miterlimit="10" d="
	M185.503,204.306c-1.397,2.046-3.51,2.185-5.73,2.328c-3.184,0.206-6.339,0.45-9.403-0.723"/>
<path fill-rule="evenodd" clip-rule="evenodd" fill="none" stroke="#000000" stroke-width="2" stroke-linecap="round" stroke-linejoin="round" stroke-miterlimit="10" d="
	M318.038,262.318c-3.046,0.385-6.072,1.005-9.174,0.475c-1.347-0.229-2.573,0.67-3.896,0.656c-5.289-0.056-10.557,0.435-15.825,0.56
	c-2.839,0.067-5.914,0.564-8.71-0.773"/>
<path fill-rule="evenodd" clip-rule="evenodd" fill="none" stroke="#000000" stroke-width="2" stroke-linecap="round" stroke-linejoin="round" stroke-miterlimit="10" d="
	M198.115,221.274c-1.455,1.641-1.267,3.847-1.713,5.761c-0.481,2.067-0.714,4.258-1.079,6.385c-0.354,2.072,0.109,3.988,0.461,5.976
	c0.264,1.491,0.789,2.488,2.321,3.002c2.351,0.788,3.771,2.651,4.803,4.797c0.383,0.796,1.082,1.221,1.626,1.824"/>
<path fill-rule="evenodd" clip-rule="evenodd" fill="none" stroke="#000000" stroke-width="2" stroke-linecap="round" stroke-linejoin="round" stroke-miterlimit="10" d="
	M200.637,223.108c-1.388-0.313-0.71,0.953-0.638,1.125c1.036,2.439,1.245,5.088,2.09,7.695c2.204-1.213,4.422-2.434,6.714-3.695
	c-2.553-6.124-4.742-12.249-6.791-18.424"/>
<path fill-rule="evenodd" clip-rule="evenodd" fill="none" stroke="#000000" stroke-width="2" stroke-linecap="round" stroke-linejoin="round" stroke-miterlimit="10" d="
	M368.255,259.796c-2.157-1.106-4.23-0.346-6.159,0.528c-0.791,0.359-1.672,0.607-2.318,0.547c-5.019-0.469-9.932,0.764-14.911,0.765
	c-0.875,0-1.744,0.03-2.522-0.464"/>
<path fill-rule="evenodd" clip-rule="evenodd" fill="none" stroke="#000000" stroke-width="2" stroke-linecap="round" stroke-linejoin="round" stroke-miterlimit="10" d="
	M211.873,283.414c1.399,1.336,1.307,3.2,1.31,4.815c0.008,5.047,0.467,10.109-0.554,15.147c-0.328,1.618-0.528,3.59,1.308,4.802"/>
<path fill-rule="evenodd" clip-rule="evenodd" fill="none" stroke="#000000" stroke-width="2" stroke-linecap="round" stroke-linejoin="round" stroke-miterlimit="10" d="
	M202.013,284.102c-1.216,4.938-1.917,10.023-4.141,14.669c-0.9,1.88-1.31,4.035-2.968,5.51"/>
<path fill-rule="evenodd" clip-rule="evenodd" fill="none" stroke="#000000" stroke-width="2" stroke-linecap="round" stroke-linejoin="round" stroke-miterlimit="10" d="
	M247.414,267.593c0,4.586,0,9.172,0,13.758"/>
<path fill-rule="evenodd" clip-rule="evenodd" fill="none" stroke="#000000" stroke-width="2" stroke-linecap="round" stroke-linejoin="round" stroke-miterlimit="10" d="
	M271.261,262.318c-0.068-1.632-1.379-2.081-2.519-2.01c-4.946,0.311-9.772-1.261-14.673-0.899c-2.367,0.175-4.918-0.384-7.114,1.075
	"/>
<path fill-rule="evenodd" clip-rule="evenodd" fill="none" stroke="#000000" stroke-width="2" stroke-linecap="round" stroke-linejoin="round" stroke-miterlimit="10" d="
	M164.637,288.688c-0.624,3.414-0.755,6.855-0.707,10.319c0.03,2.173,0.515,3.074,2.543,3.104c0.602,0.01,1.222,0.488,1.842,0.074
	c0.645-2.306,0.412-4.7,0.45-7.077"/>
<path fill-rule="evenodd" clip-rule="evenodd" fill="none" stroke="#000000" stroke-width="2" stroke-linecap="round" stroke-linejoin="round" stroke-miterlimit="10" d="
	M310.242,260.942c-0.153-0.076-0.313-0.23-0.458-0.218c-3.525,0.31-7.002-1.556-10.548-0.24"/>
<path fill-rule="evenodd" clip-rule="evenodd" fill="none" stroke="#000000" stroke-width="2" stroke-linecap="round" stroke-linejoin="round" stroke-miterlimit="10" d="
	M197.197,170.828c0.803,0.977,0.885,2.057,0.346,3.249c-2.905,0.994-2.947,0.999-2.607,4.085c0.075,0.682-0.207,1.232-0.238,1.839
	c-0.061,1.219-0.09,2.356,0.854,3.473c2.21,2.614,1.491,5.524-1.569,7.065c-0.58,0.292-1.218,0.467-1.83,0.697"/>
<path fill-rule="evenodd" clip-rule="evenodd" fill="none" stroke="#000000" stroke-width="2" stroke-linecap="round" stroke-linejoin="round" stroke-miterlimit="10" d="
	M222.191,225.63c-4.001,1.028-8.108,1.493-12.153,2.293c-0.382,0.075-0.764,0.153-1.146,0.229"/>
<path fill-rule="evenodd" clip-rule="evenodd" fill="none" stroke="#000000" stroke-width="2" stroke-linecap="round" stroke-linejoin="round" stroke-miterlimit="10" d="
	M166.701,187.337c-3.812-1.263-4.777,0.389-5.704,3.22c-0.314,0.959-0.815,1.723-1.376,2.533c-1.243,1.794-1.047,3.858,0.7,4.712
	c1.238,0.604,1.949,1.608,2.94,2.376"/>
<path fill-rule="evenodd" clip-rule="evenodd" fill="none" stroke="#000000" stroke-width="2" stroke-linecap="round" stroke-linejoin="round" stroke-miterlimit="10" d="
	M248.331,259.108c-2.54-0.807-5.242-0.178-7.804-0.889c-0.589-0.164-1.33-0.181-1.827,0.43"/>
<path fill-rule="evenodd" clip-rule="evenodd" fill="none" stroke="#000000" stroke-width="2" stroke-linecap="round" stroke-linejoin="round" stroke-miterlimit="10" d="
	M219.669,236.637c0.03,2.339-1.71,3.656-3.257,4.75c-2.753,1.947-4.567,4.737-6.426,7.303c-1.143,1.578-1.818,3.701-3.092,5.423
	c-0.514,0.695-1.499,1.866-0.29,2.926c1.685,1.479,0.705,2.633-0.479,3.658c-1.234,1.069-2.615,1.968-3.87,3.015
	c-0.565,0.473-1.195,0.85-1.84,0.645c-3.501-1.116-4.754,1.604-6.131,3.74c-0.718,1.113-1.385,2.354-1.903,3.624"/>
<path fill-rule="evenodd" clip-rule="evenodd" fill="none" stroke="#000000" stroke-width="2" stroke-linecap="round" stroke-linejoin="round" stroke-miterlimit="10" d="
	M397.605,246.038c0.561,0.797,0.465,1.789,0.174,2.5c-0.66,1.613-1.423,3.188-2.008,4.838c-0.308,0.867-0.793,1.491-1.835,1.375"/>
<path fill-rule="evenodd" clip-rule="evenodd" fill="none" stroke="#000000" stroke-width="2" stroke-linecap="round" stroke-linejoin="round" stroke-miterlimit="10" d="
	M228.841,232.968c-2.7-0.93-5.074-0.502-7.12,1.594c-0.932,0.955-1.837,1.755-3.413,1.96c-1.589,0.207-2.459,2.027-3.684,3.095"/>
<path fill-rule="evenodd" clip-rule="evenodd" fill="none" stroke="#000000" stroke-width="2" stroke-linecap="round" stroke-linejoin="round" stroke-miterlimit="10" d="
	M391.873,268.51c0,3.057,0,6.114,0,9.172"/>
<path fill-rule="evenodd" clip-rule="evenodd" fill="none" stroke="#000000" stroke-width="2" stroke-linecap="round" stroke-linejoin="round" stroke-miterlimit="10" d="
	M205.911,256.586c-2.916,0.852-6.425,4.604-6.649,7.108"/>
<path fill-rule="evenodd" clip-rule="evenodd" fill="none" stroke="#000000" stroke-width="2" stroke-linecap="round" stroke-linejoin="round" stroke-miterlimit="10" d="
	M183.21,192.841c-2.758,1.131-5.351,2.774-8.484,2.751"/>
<path fill-rule="evenodd" clip-rule="evenodd" fill="none" stroke="#000000" stroke-width="2" stroke-linecap="round" stroke-linejoin="round" stroke-miterlimit="10" d="
	M227.006,250.854c0.509,0.961-0.17,1.744-0.49,2.509c-0.847,2.026-0.908,3.987,0.031,5.975"/>
<path fill-rule="evenodd" clip-rule="evenodd" fill="none" stroke="#000000" stroke-width="2" stroke-linecap="round" stroke-linejoin="round" stroke-miterlimit="10" d="
	M173.809,164.178c-1.661,0.064-2.723,1.138-3.648,2.309c-0.769,0.973-0.465,2.164,0.258,2.917c0.652,0.679,1.532,0.244,2.256-0.397
	c1.624-1.436,1.426-3.179,1.165-5.063c-0.335-2.416,2.603-5.4,5.014-5.27"/>
<path fill-rule="evenodd" clip-rule="evenodd" fill="none" stroke="#000000" stroke-width="2" stroke-linecap="round" stroke-linejoin="round" stroke-miterlimit="10" d="
	M158.904,196.968c-1.586,1.139-2.203,2.631-1.855,4.59c0.227,1.279,0.512,2.524,0.094,3.916c-0.339,1.131-0.391,2.502,0.386,3.647"
	/>
<path fill-rule="evenodd" clip-rule="evenodd" fill="none" stroke="#000000" stroke-width="2" stroke-linecap="round" stroke-linejoin="round" stroke-miterlimit="10" d="
	M157.758,212.79c0.303,0.868,1.057,1.58,1.657,1.987c1.806,1.223,1.474,2.698,0.837,4.192c-0.805,1.886-2.239,0.508-3.471,0.669
	c0.226-1.795,1.36-2.787,2.353-3.867"/>
<path fill-rule="evenodd" clip-rule="evenodd" fill="none" stroke="#000000" stroke-width="2" stroke-linecap="round" stroke-linejoin="round" stroke-miterlimit="10" d="
	M173.35,179.083c0.229,0.153,0.267,0.298,0.235,0.459c-0.539,2.806,0.331,5.76-0.543,8.458c-0.78,2.409-0.263,4.427,0.79,6.434
	c1.134,2.161,0.108,5.608-2.081,6.675c-0.961,0.469-1.51,0.048-1.949-0.705c-0.525-0.9-1-1.831-1.497-2.748"/>
<path fill-rule="evenodd" clip-rule="evenodd" fill="none" stroke="#000000" stroke-width="2" stroke-linecap="round" stroke-linejoin="round" stroke-miterlimit="10" d="
	M170.828,201.554c-0.554,2.758-1.993,4.296-5.041,4.444c-1.518,0.074-2.53,1.473-2.751,3.124c-0.258,1.931-0.744,3.765-2.068,5.273"
	/>
<path fill-rule="evenodd" clip-rule="evenodd" fill="none" stroke="#000000" stroke-width="2" stroke-linecap="round" stroke-linejoin="round" stroke-miterlimit="10" d="
	M310.127,261.401c0.843-1.481,1.89,0.178,2.881-0.189c1.297-0.481,2.724-0.435,4.111-0.523c1.12-0.072,1.405,0.455,1.377,1.4"/>
<path fill-rule="evenodd" clip-rule="evenodd" fill="none" stroke="#000000" stroke-width="2" stroke-linecap="round" stroke-linejoin="round" stroke-miterlimit="10" d="
	M280.433,236.866c-0.778-0.083-1.512-0.02-2.323-0.392c-1.248-0.572-3.146,0.582-3.409,1.768c-0.347,1.567,0.708,3.326,2.295,3.394
	c1.691,0.073,3.774,1.269,4.833-1.322c0.598-1.462,0.502-4.348-0.233-5.294c-0.745-0.958-1.483-0.765-2.31-0.217"/>
<path fill-rule="evenodd" clip-rule="evenodd" fill="none" stroke="#000000" stroke-width="2" stroke-linecap="round" stroke-linejoin="round" stroke-miterlimit="10" d="
	M188.255,160.28c1.481,2.789,4.335,3.705,6.879,5.044"/>
<path fill-rule="evenodd" clip-rule="evenodd" fill="none" stroke="#000000" stroke-width="2" stroke-linecap="round" stroke-linejoin="round" stroke-miterlimit="10" d="
	M217.146,250.395c-2.058-0.768-4.104-1.321-5.959,0.461c-0.494,0.474-1.08,0.104-1.608,0.227"/>
<path fill-rule="evenodd" clip-rule="evenodd" fill="none" stroke="#000000" stroke-width="2" stroke-linecap="round" stroke-linejoin="round" stroke-miterlimit="10" d="
	M160.051,222.191c-0.33,2.438-0.201,4.891-0.229,7.338"/>
<path fill-rule="evenodd" clip-rule="evenodd" fill="none" stroke="#000000" stroke-width="2" stroke-linecap="round" stroke-linejoin="round" stroke-miterlimit="10" d="
	M201.554,235.032c0.368,2.644,0.856,5.313-1.605,7.338"/>
<path fill-rule="evenodd" clip-rule="evenodd" fill="none" stroke="#000000" stroke-width="2" stroke-linecap="round" stroke-linejoin="round" stroke-miterlimit="10" d="
	M243.745,262.318c2.446,0.759,4.892,0.743,7.338,0"/>
<path fill-rule="evenodd" clip-rule="evenodd" fill="none" stroke="#000000" stroke-width="2" stroke-linecap="round" stroke-linejoin="round" stroke-miterlimit="10" d="
	M169.682,288.688c-0.229,1.835,0.207,4.32-0.823,5.371c-2.329,2.378-0.857,5.281-1.929,7.699"/>
<path fill-rule="evenodd" clip-rule="evenodd" fill="none" stroke="#000000" stroke-width="2" stroke-linecap="round" stroke-linejoin="round" stroke-miterlimit="10" d="
	M212.561,239.389c-1.38,2.239-3.717,3.733-4.769,6.445c0.129,0.713,0.71,1.366,1.559,1.81"/>
<path fill-rule="evenodd" clip-rule="evenodd" fill="none" stroke="#000000" stroke-width="2" stroke-linecap="round" stroke-linejoin="round" stroke-miterlimit="10" d="
	M184.815,158.675c-0.229-0.153-0.199-0.388-0.245-0.447c-2.132-2.756-3.557-2.695-5.602,0.389c1.91,1.738,4.369,0.998,6.534,1.434"
	/>
<path fill-rule="evenodd" clip-rule="evenodd" fill="none" stroke="#000000" stroke-width="2" stroke-linecap="round" stroke-linejoin="round" stroke-miterlimit="10" d="
	M194.904,175.185c-0.448-0.886-0.978-1.623-0.286-2.785c0.754-1.267,1.094-2.686,0.608-4.35c-0.343-1.176,0.129-2.586,0.554-3.885
	c0.684-2.092-0.46-3.814-2.481-4.114"/>
<path fill-rule="evenodd" clip-rule="evenodd" fill="none" stroke="#000000" stroke-width="2" stroke-linecap="round" stroke-linejoin="round" stroke-miterlimit="10" d="
	M193.07,194.217c0.902,0.606,1.268,1.596,1.567,2.534c0.266,0.835,0.024,1.941-0.687,2.327c-0.83,0.45-1.785,1.733-2.944,0.412"/>
<path fill-rule="evenodd" clip-rule="evenodd" fill="none" stroke="#000000" stroke-width="2" stroke-linecap="round" stroke-linejoin="round" stroke-miterlimit="10" d="
	M169.911,169.682c-3.487,1.946-3.871,2.818-2.522,5.732"/>
<path fill-rule="evenodd" clip-rule="evenodd" fill="none" stroke="#000000" stroke-width="2" stroke-linecap="round" stroke-linejoin="round" stroke-miterlimit="10" d="
	M159.592,255.439c1.333,2.036,0.144,4.593,1.376,6.649"/>
<path fill-rule="evenodd" clip-rule="evenodd" fill="none" stroke="#000000" stroke-width="2" stroke-linecap="round" stroke-linejoin="round" stroke-miterlimit="10" d="
	M165.325,177.937c0.017,1.401,0.279,2.713-1.338,3.728c-2.101,1.318-1.464,3.474-0.955,5.444"/>
<path fill-rule="evenodd" clip-rule="evenodd" fill="none" stroke="#000000" stroke-width="2" stroke-linecap="round" stroke-linejoin="round" stroke-miterlimit="10" d="
	M219.898,292.815c-2.145,0.093-4.076,1.147-6.191,1.376"/>
<path fill-rule="evenodd" clip-rule="evenodd" fill="none" stroke="#000000" stroke-width="2" stroke-linecap="round" stroke-linejoin="round" stroke-miterlimit="10" d="
	M392.102,255.669c-2.03,0.56-4.282-0.076-6.19,1.146"/>
<path fill-rule="evenodd" clip-rule="evenodd" fill="none" stroke="#000000" stroke-width="2" stroke-linecap="round" stroke-linejoin="round" stroke-miterlimit="10" d="
	M168.764,288.459c-0.801,1.91-1.009,3.913-0.917,5.961"/>
<path fill-rule="evenodd" clip-rule="evenodd" fill="none" stroke="#000000" stroke-width="2" stroke-linecap="round" stroke-linejoin="round" stroke-miterlimit="10" d="
	M212.561,230.675c0.356,0.407,0.608,0.847,1.123,1.183c2.285,1.494,2.28,1.601,0.936,3.858c-0.906,1.521-2.658,3.009,0.205,4.419
	c0.366,0.18,0.335,1.164,0.488,1.775"/>
<path fill-rule="evenodd" clip-rule="evenodd" fill="none" stroke="#000000" stroke-width="2" stroke-linecap="round" stroke-linejoin="round" stroke-miterlimit="10" d="
	M201.554,232.051c-2.075,1.08-3.627,3.01-5.962,3.669"/>
<path fill-rule="evenodd" clip-rule="evenodd" fill="none" stroke="#000000" stroke-width="2" stroke-linecap="round" stroke-linejoin="round" stroke-miterlimit="10" d="
	M185.274,160.51c-1.77,2.609-4.658,3.432-7.337,4.586"/>
<path fill-rule="evenodd" clip-rule="evenodd" fill="none" stroke="#000000" stroke-width="2" stroke-linecap="round" stroke-linejoin="round" stroke-miterlimit="10" d="
	M317.58,260.025c-1.987-0.381-3.975-0.381-5.962,0"/>
<path fill-rule="evenodd" clip-rule="evenodd" fill="none" stroke="#000000" stroke-width="2" stroke-linecap="round" stroke-linejoin="round" stroke-miterlimit="10" d="
	M164.637,254.751c-0.913,3.651,0.035,7.341-0.229,11.006"/>
<path fill-rule="evenodd" clip-rule="evenodd" fill="none" stroke="#000000" stroke-width="2" stroke-linecap="round" stroke-linejoin="round" stroke-miterlimit="10" d="
	M278.37,236.408c0.778-1.348,0.563-2.498-0.711-3.429c-2.857,1.328-3.401,2.189-2.729,4.346"/>
<path fill-rule="evenodd" clip-rule="evenodd" fill="none" stroke="#000000" stroke-width="2" stroke-linecap="round" stroke-linejoin="round" stroke-miterlimit="10" d="
	M360.229,257.732c-1.835-0.498-3.669-0.301-5.503,0"/>
<path fill-rule="evenodd" clip-rule="evenodd" fill="none" stroke="#000000" stroke-width="2" stroke-linecap="round" stroke-linejoin="round" stroke-miterlimit="10" d="
	M202.701,234.115c-2.293,1.07-4.586,2.14-6.879,3.21"/>
<path fill-rule="evenodd" clip-rule="evenodd" fill="none" stroke="#000000" stroke-width="2" stroke-linecap="round" stroke-linejoin="round" stroke-miterlimit="10" d="
	M174.038,164.178c0.764,0.222,1.462-0.542,2.311-0.029c0.976,0.591,2.056,0.906,0.924,2.341c-0.552,0.7-0.73,1.612-0.254,2.503
	c1.903,0.291,3.82,0.222,5.733,0.229"/>
<path fill-rule="evenodd" clip-rule="evenodd" fill="none" stroke="#000000" stroke-width="2" stroke-linecap="round" stroke-linejoin="round" stroke-miterlimit="10" d="
	M224.943,294.649c-0.11,1.757,0.247,3.533-0.229,5.274"/>
<path fill-rule="evenodd" clip-rule="evenodd" fill="none" stroke="#000000" stroke-width="2" stroke-linecap="round" stroke-linejoin="round" stroke-miterlimit="10" d="
	M296.713,261.172c-1.788,1.076-3.795,0.964-5.73,0.869c-1.392-0.068-2.553,0.04-3.442,1.194"/>
<path fill-rule="evenodd" clip-rule="evenodd" fill="none" stroke="#000000" stroke-width="2" stroke-linecap="round" stroke-linejoin="round" stroke-miterlimit="10" d="
	M160.739,229.07c0,2.904,0,5.809,0,8.713"/>
<path fill-rule="evenodd" clip-rule="evenodd" fill="none" stroke="#000000" stroke-width="2" stroke-linecap="round" stroke-linejoin="round" stroke-miterlimit="10" d="
	M195.134,276.765c2.18,1.063,4.696,0.892,6.917,1.987c1.11,0.548,1.399,1.105,1.338,2.14"/>
<path fill-rule="evenodd" clip-rule="evenodd" fill="none" stroke="#000000" stroke-width="2" stroke-linecap="round" stroke-linejoin="round" stroke-miterlimit="10" d="
	M199.261,203.847c-0.715-1.999-2.184-3.2-4.127-3.898"/>
<path fill-rule="evenodd" clip-rule="evenodd" fill="none" stroke="#000000" stroke-width="2" stroke-linecap="round" stroke-linejoin="round" stroke-miterlimit="10" d="
	M172.433,177.019c-0.458-0.306-0.968-0.557-1.367-0.927c-1.475-1.37-3.027-1.205-4.333,0.044c-1.246,1.193-2.692,2.151-3.766,3.586
	c-0.749,1-0.606,1.683-0.165,2.571"/>
<path fill-rule="evenodd" clip-rule="evenodd" fill="none" stroke="#000000" stroke-width="2" stroke-linecap="round" stroke-linejoin="round" stroke-miterlimit="10" d="
	M159.592,220.127c-0.011,1.949-1.682,3.615-3.429,3.168c-1.526-0.39-3.022-0.724-4.597-0.646"/>
<path fill-rule="evenodd" clip-rule="evenodd" fill="none" stroke="#000000" stroke-width="2" stroke-linecap="round" stroke-linejoin="round" stroke-miterlimit="10" d="
	M200.866,290.522c1.605,0.382,3.21,0.764,4.815,1.146"/>
<path fill-rule="evenodd" clip-rule="evenodd" fill="none" stroke="#000000" stroke-width="2" stroke-linecap="round" stroke-linejoin="round" stroke-miterlimit="10" d="
	M167.618,186.65c-1.344,2.402-1.22,3.606,0.446,5.742c0.715,0.917,0.799,2.081,0.929,3.201c0.107,0.917-0.606,1.754-1.144,1.74
	c-0.912-0.025-2.092-0.327-2.066-1.74c0.016-0.846-0.084-1.703,0.229-2.522"/>
<path fill-rule="evenodd" clip-rule="evenodd" fill="none" stroke="#000000" stroke-width="2" stroke-linecap="round" stroke-linejoin="round" stroke-miterlimit="10" d="
	M161.885,211.873c-2.294,0.635-4.852,0.196-6.706,2.477c-2.035,2.502-1.766,3.956,1.432,4.861"/>
<path fill-rule="evenodd" clip-rule="evenodd" fill="none" stroke="#000000" stroke-width="2" stroke-linecap="round" stroke-linejoin="round" stroke-miterlimit="10" d="
	M176.79,173.58c-0.871,1.27-0.741,3.54-3.21,3.21"/>
<path fill-rule="evenodd" clip-rule="evenodd" fill="none" stroke="#000000" stroke-width="2" stroke-linecap="round" stroke-linejoin="round" stroke-miterlimit="10" d="
	M160.51,198.344c-0.673,1.427-1.315,2.871-2.293,4.127"/>
<path fill-rule="evenodd" clip-rule="evenodd" fill="none" stroke="#000000" stroke-width="2" stroke-linecap="round" stroke-linejoin="round" stroke-miterlimit="10" d="
	M219.898,225.401c0.243,2.394-0.47,3.292-3.447,3.6c-1.012,0.104-1.917,0.274-2.733,0.774c-1.185,0.725-2.295,0.886-3.699,0.513
	c-1.086-0.289-2.574-0.476-3.176,1.081c-0.363,0.939-1.272,0.627-1.804,0.98c-0.688,0.457-1.515,0.708-2.139,1.336
	c0.177,0.985-0.067,2.164,1.297,2.844c0.954-1.239,1.925-2.417,2.172-4.02"/>
<path fill-rule="evenodd" clip-rule="evenodd" fill="none" stroke="#000000" stroke-width="2" stroke-linecap="round" stroke-linejoin="round" stroke-miterlimit="10" d="
	M192.382,168.306c-1.675-0.746-3.223-0.642-4.586,0.688"/>
<path fill-rule="evenodd" clip-rule="evenodd" fill="none" stroke="#000000" stroke-width="2" stroke-linecap="round" stroke-linejoin="round" stroke-miterlimit="10" d="
	M185.732,159.822c2.37,0,4.739,0,7.108,0"/>
<path fill-rule="evenodd" clip-rule="evenodd" fill="none" stroke="#000000" stroke-width="2" stroke-linecap="round" stroke-linejoin="round" stroke-miterlimit="10" d="
	M185.732,185.732c-2.031,2.103-2.037,2.105-4.215,1.823c1.118-1.368,2.057-2.755,4.233-2.111c0.778,0.23,1.659-0.41,2.275-1.088"/>
<path fill-rule="evenodd" clip-rule="evenodd" fill="none" stroke="#000000" stroke-width="2" stroke-linecap="round" stroke-linejoin="round" stroke-miterlimit="10" d="
	M172.204,170.828c0.249,1.795-0.796,2.906-2.063,3.898"/>
<path fill-rule="evenodd" clip-rule="evenodd" fill="none" stroke="#000000" stroke-width="2" stroke-linecap="round" stroke-linejoin="round" stroke-miterlimit="10" d="
	M170.599,170.37c-0.331,1.5-1.707,2.537-1.834,4.127"/>
<path fill-rule="evenodd" clip-rule="evenodd" fill="none" stroke="#000000" stroke-width="2" stroke-linecap="round" stroke-linejoin="round" stroke-miterlimit="10" d="
	M378.573,206.14c-1.38-0.008-2.764,0.07-4.127-0.229"/>
<path fill-rule="evenodd" clip-rule="evenodd" fill="none" stroke="#000000" stroke-width="2" stroke-linecap="round" stroke-linejoin="round" stroke-miterlimit="10" d="
	M251.083,260.942c-1.376,0.505-2.752,0.86-4.127,0"/>
<path fill-rule="evenodd" clip-rule="evenodd" fill="none" stroke="#000000" stroke-width="2" stroke-linecap="round" stroke-linejoin="round" stroke-miterlimit="10" d="
	M185.503,176.331c-0.612,1.308-0.125,2.86-0.917,4.127"/>
<path fill-rule="evenodd" clip-rule="evenodd" fill="none" stroke="#000000" stroke-width="2" stroke-linecap="round" stroke-linejoin="round" stroke-miterlimit="10" d="
	M153.172,219.21c-2.504,3.32-2.303,4.876,0.917,7.108"/>
<path fill-rule="evenodd" clip-rule="evenodd" fill="none" stroke="#000000" stroke-width="2" stroke-linecap="round" stroke-linejoin="round" stroke-miterlimit="10" d="
	M193.529,157.299c1.59,0.129,2.532,0.729,1.834,2.522"/>
<path fill-rule="evenodd" clip-rule="evenodd" fill="none" stroke="#000000" stroke-width="2" stroke-linecap="round" stroke-linejoin="round" stroke-miterlimit="10" d="
	M170.599,180.917c-0.857,0.902-1.307,2.106-2.496,2.797c-1.081,0.628-0.329,1.776-0.251,2.713c1.792,0.145,2.957,1.332,4.123,2.516"
	/>
<path fill-rule="evenodd" clip-rule="evenodd" fill="none" stroke="#000000" stroke-width="2" stroke-linecap="round" stroke-linejoin="round" stroke-miterlimit="10" d="
	M190.089,191.236c-1.222-0.089-2.4-0.895-3.669-0.229"/>
<path fill-rule="evenodd" clip-rule="evenodd" fill="none" stroke="#000000" stroke-width="2" stroke-linecap="round" stroke-linejoin="round" stroke-miterlimit="10" d="
	M163.72,188.943c1.244,1.15-0.702,2.499,0.229,3.668"/>
<path fill-rule="evenodd" clip-rule="evenodd" fill="none" stroke="#000000" stroke-width="2" stroke-linecap="round" stroke-linejoin="round" stroke-miterlimit="10" d="
	M322.166,260.484c-1.178,0.483-2.342,1.027-3.668,0.917"/>
<path fill-rule="evenodd" clip-rule="evenodd" fill="none" stroke="#000000" stroke-width="2" stroke-linecap="round" stroke-linejoin="round" stroke-miterlimit="10" d="
	M163.032,253.376c-1.619,0.964-3.3,1.807-5.044,2.522"/>
<path fill-rule="evenodd" clip-rule="evenodd" fill="none" stroke="#000000" stroke-width="2" stroke-linecap="round" stroke-linejoin="round" stroke-miterlimit="10" d="
	M177.019,169.452c-1.255,2.456-2.693,2.581-5.274,0.458"/>
<path fill-rule="evenodd" clip-rule="evenodd" fill="none" stroke="#000000" stroke-width="2" stroke-linecap="round" stroke-linejoin="round" stroke-miterlimit="10" d="
	M201.096,223.337c1.146,0.963,1.973,2.182,2.751,3.439"/>
<path fill-rule="evenodd" clip-rule="evenodd" fill="none" stroke="#000000" stroke-width="2" stroke-linecap="round" stroke-linejoin="round" stroke-miterlimit="10" d="
	M197.885,277.911c-0.556,1.391-2.182,1.623-2.981,2.751"/>
<path fill-rule="evenodd" clip-rule="evenodd" fill="none" stroke="#000000" stroke-width="2" stroke-linecap="round" stroke-linejoin="round" stroke-miterlimit="10" d="
	M394.166,254.981c0.357,1.259-0.172,2.266-0.918,3.21"/>
<path fill-rule="evenodd" clip-rule="evenodd" fill="none" stroke="#000000" stroke-width="2" stroke-linecap="round" stroke-linejoin="round" stroke-miterlimit="10" d="
	M174.497,171.745c0.103,2.344-1.438,4.219-1.834,6.42"/>
<path fill-rule="evenodd" clip-rule="evenodd" fill="none" stroke="#000000" stroke-width="2" stroke-linecap="round" stroke-linejoin="round" stroke-miterlimit="10" d="
	M213.478,232.051c-0.458,0.994-0.917,1.987-1.375,2.981"/>
<path fill-rule="evenodd" clip-rule="evenodd" fill="none" stroke="#000000" stroke-width="2" stroke-linecap="round" stroke-linejoin="round" stroke-miterlimit="10" d="
	M171.287,184.127c0.038,1.155-1.186,1.825-1.146,2.981"/>
<path fill-rule="evenodd" clip-rule="evenodd" fill="none" stroke="#000000" stroke-width="2" stroke-linecap="round" stroke-linejoin="round" stroke-miterlimit="10" d="
	M166.93,192.382c-3.252-0.037-4.904,1.445-4.607,4.817c0.012,0.139-0.285,0.304-0.438,0.457"/>
<path fill-rule="evenodd" clip-rule="evenodd" fill="none" stroke="#000000" stroke-width="2" stroke-linecap="round" stroke-linejoin="round" stroke-miterlimit="10" d="
	M207.516,268.051c0.165,1.074-1.083,1.678-0.917,2.752"/>
<path fill-rule="evenodd" clip-rule="evenodd" fill="none" stroke="#000000" stroke-width="2" stroke-linecap="round" stroke-linejoin="round" stroke-miterlimit="10" d="
	M160.28,204.535c-0.917,0.476-1.834,0.197-2.751,0"/>
<path fill-rule="evenodd" clip-rule="evenodd" fill="none" stroke="#000000" stroke-width="2" stroke-linecap="round" stroke-linejoin="round" stroke-miterlimit="10" d="
	M207.745,246.268c-1.205,0.44-1.481,1.725-2.293,2.522"/>
<path fill-rule="evenodd" clip-rule="evenodd" fill="none" stroke="#000000" stroke-width="2" stroke-linecap="round" stroke-linejoin="round" stroke-miterlimit="10" d="
	M179.542,159.592c-0.593,1.89-3.19,2.196-3.439,4.357"/>
<path fill-rule="evenodd" clip-rule="evenodd" fill="none" stroke="#000000" stroke-width="2" stroke-linecap="round" stroke-linejoin="round" stroke-miterlimit="10" d="
	M205.682,272.637c0.24,0.983-0.699,1.769-0.458,2.752"/>
<path fill-rule="evenodd" clip-rule="evenodd" fill="none" stroke="#000000" stroke-width="2" stroke-linecap="round" stroke-linejoin="round" stroke-miterlimit="10" d="
	M194.675,276.535c-0.847-0.51-1.812-0.549-2.751-0.688"/>
<path fill-rule="evenodd" clip-rule="evenodd" fill="none" stroke="#000000" stroke-width="2" stroke-linecap="round" stroke-linejoin="round" stroke-miterlimit="10" d="
	M192.611,162.803c1.017-1.493,0.698-3.316,0.552-4.802c-0.218-2.208-1.648-0.772-2.615-0.243"/>
<path fill-rule="evenodd" clip-rule="evenodd" fill="none" stroke="#000000" stroke-width="2" stroke-linecap="round" stroke-linejoin="round" stroke-miterlimit="10" d="
	M198.115,178.624c0.55,0.841,0.851,1.682,0,2.522"/>
<path fill-rule="evenodd" clip-rule="evenodd" fill="none" stroke="#000000" stroke-width="2" stroke-linecap="round" stroke-linejoin="round" stroke-miterlimit="10" d="
	M216.458,229.299c0.371,1.397,0.121,2.588-1.146,3.439"/>
<path fill-rule="evenodd" clip-rule="evenodd" fill="none" stroke="#000000" stroke-width="2" stroke-linecap="round" stroke-linejoin="round" stroke-miterlimit="10" d="
	M163.72,182.981c0.806,0.454,1.634,0.681,2.511,0.182c0.383-1.357,0.344-2.899,1.466-4.167c0.94,0.408,1.917,0.832,2.987,1.296
	c0.504-0.628,1.012-1.263,1.52-1.897"/>
<path fill-rule="evenodd" clip-rule="evenodd" fill="none" stroke="#000000" stroke-width="2" stroke-linecap="round" stroke-linejoin="round" stroke-miterlimit="10" d="
	M164.408,270.344c0.258,0.93,1.19,0.961,1.834,1.376"/>
<path fill-rule="evenodd" clip-rule="evenodd" fill="none" stroke="#000000" stroke-width="2" stroke-linecap="round" stroke-linejoin="round" stroke-miterlimit="10" d="
	M211.185,230.904c0.089,0.672-0.644,1.139-0.458,1.834"/>
<path fill-rule="evenodd" clip-rule="evenodd" fill="none" stroke="#000000" stroke-width="2" stroke-linecap="round" stroke-linejoin="round" stroke-miterlimit="10" d="
	M208.663,230.675c-0.077,0.535-0.153,1.07-0.229,1.605"/>
<path fill-rule="evenodd" clip-rule="evenodd" fill="none" stroke="#000000" stroke-width="2" stroke-linecap="round" stroke-linejoin="round" stroke-miterlimit="10" d="
	M360.229,258.191c-0.825,0.644-2.097,0.394-2.752,1.376"/>
<path fill-rule="evenodd" clip-rule="evenodd" fill="none" stroke="#000000" stroke-width="2" stroke-linecap="round" stroke-linejoin="round" stroke-miterlimit="10" d="
	M172.663,183.439c-1.07,0.124-2.14,1.002-3.21,0"/>
</svg>
