<?xml version="1.0" encoding="utf-8"?>
<!-- Generator: Adobe Illustrator 16.0.0, SVG Export Plug-In . SVG Version: 6.00 Build 0)  -->
<!DOCTYPE svg PUBLIC "-//W3C//DTD SVG 1.1//EN" "http://www.w3.org/Graphics/SVG/1.1/DTD/svg11.dtd">
<svg version="1.1" id="Layer_1" xmlns="http://www.w3.org/2000/svg" xmlns:xlink="http://www.w3.org/1999/xlink" x="0px" y="0px"
	 width="841.89px" height="595.281px" viewBox="0 0 841.89 595.281" enable-background="new 0 0 841.89 595.281"
	 xml:space="preserve">
<g>
	<path fill="none" stroke="#000000" stroke-width="2" stroke-linecap="round" stroke-linejoin="round" stroke-miterlimit="10" d="
		M212.4,422.681c-0.72,0.479-1.618,0.818-2.13,1.463c-3.02,3.793-6.2,7.492-8.852,11.533c-4.186,6.381-9.037,12.225-13.66,18.264
		c-6.311,8.24-12.018,16.941-18.096,25.367c-5.354,7.422-10.982,14.646-16.26,22.123c-3.503,4.961-6.664,10.172-9.867,15.338
		c-4.142,6.684-8.336,13.342-12.192,20.188c-2.188,3.885-3.73,8.131-5.595,12.199c-0.312,0.68-0.788,1.285-1.188,1.926"/>
	<path fill="none" stroke="#000000" stroke-width="2" stroke-linecap="round" stroke-linejoin="round" stroke-miterlimit="10" d="
		M687.361,425.32c0.23,2.088-0.59,3.467-2.047,5.141c-3.779,4.344-6.998,9.178-10.434,13.82
		c-4.084,5.518-8.035,11.139-12.266,16.541c-11.689,14.934-23.443,29.82-35.289,44.633c-3.465,4.332-7.25,8.418-11.025,12.488
		c-5.199,5.604-9.27,11.998-13.143,18.52c-1.844,3.104-3.809,6.186-4.682,9.799c-0.131,0.541-1.463,1.283-2.063,1.146
		c-5.369-1.225-10.727-0.412-16.098-0.201c-2.713,0.107-5.438-0.189-8.158-0.189s-5.439,0.18-8.16,0.219
		c-12,0.174-24.002,0.25-35.998,0.52c-5.445,0.121-10.885,0.564-16.316,0.984c-0.594,0.047-1.125,0.9-1.686,1.381"/>
	<path fill="none" stroke="#000000" stroke-width="2" stroke-linecap="round" stroke-linejoin="round" stroke-miterlimit="10" d="
		M309.84,331.24c2.955-0.828,4.617,1.553,6.417,2.961c3.964,3.1,7.552,6.676,11.358,9.98c1.506,1.311,3.156,2.459,4.79,3.611
		c6.762,4.764,13.44,9.652,19.398,15.404c2.913,2.813,5.989,3.59,9.887,2.646c7.413-1.795,14.017-5.119,19.895-9.9
		c3.041-2.477,3.379-6.094,0.681-8.072c-1.037-0.76-2.656-0.896-4.03-0.979c-1.345-0.082-2.728,0.205-4.075,0.438
		c-4.501,0.779-8.409-0.92-12.237-2.898c-4.101-2.121-8.039-4.615-12.285-6.375c-3.321-1.375-6.799-2.41-9.775-4.453
		c-2.911-1.996-5.772-4.117-8.396-6.477c-6.848-6.152-14.045-11.801-22.112-16.281c-3.059-1.699-6.265-2.539-9.844-1.975
		c-2.198,0.346-4.477,0.145-6.711,0.303c-3.764,0.27-7.53,0.551-11.276,0.982c-1.546,0.178-3.028,0.871-4.574,1.102
		c-0.501,0.074-1.454-0.484-1.574-0.924c-0.12-0.441,0.411-1.27,0.884-1.629c6.37-4.838,12.863-9.52,19.138-14.479
		c2.419-1.913,4.362-4.427,6.522-6.667"/>
	<path fill="none" stroke="#000000" stroke-width="2" stroke-linecap="round" stroke-linejoin="round" stroke-miterlimit="10" d="
		M552.24,421.72c-3.602,0-7.201-0.029-10.799,0.008c-4.16,0.047-8.322,0.129-12.48,0.238c-5.041,0.135-10.084,0.232-15.119,0.492
		c-7.924,0.41-15.842,0.951-23.762,1.418c-5.68,0.336-11.355,0.76-17.041,0.938c-8.557,0.266-17.119,0.486-25.678,0.473
		c-11.521-0.021-23.041-0.396-34.562-0.41c-9.359-0.012-18.72,0.299-28.08,0.439c-6.88,0.104-13.765,0.037-20.639,0.281
		c-6.247,0.225-12.481,0.768-18.722,1.162c-2.719,0.17-5.438,0.428-8.16,0.459c-5.919,0.07-11.843,0.145-17.759-0.01
		c-7.443-0.191-14.883-0.564-22.319-0.963c-1.613-0.086-3.189-0.758-4.805-0.895c-3.191-0.268-6.398-0.342-9.597-0.514
		c-5.84-0.313-11.677-0.729-17.521-0.916c-2.632-0.086-5.279,0.404-7.919,0.402c-2.595-0.002-3.159-0.615-3.36-2.846"/>
	<path fill="none" stroke="#000000" stroke-width="2" stroke-linecap="round" stroke-linejoin="round" stroke-miterlimit="10" d="
		M269.04,146.44c-1.04-0.24-2.07-0.609-3.123-0.69c-1.668-0.128-3.106-0.209-4.674,1.289c-1.73,1.653-4.408,2.283-6.584,3.515
		c-1.07,0.606-2.355,1.375-2.828,2.399c-2.139,4.643-5.532,8.434-8.222,12.693c-0.072,0.115-0.009,0.314-0.009,0.672
		c2.125,3.337-0.328,6-1.647,8.937c-1.13,2.517-3.328,4.609-3.158,7.666c0.036,0.638-0.261,1.485,0.049,1.886
		c1.901,2.467,0.681,4.884-0.083,7.221c-0.958,2.933-2.171,5.785-3.333,8.648c-0.666,1.64-0.74,3.065,0.423,4.616
		c0.49,0.653,0.559,1.996,0.247,2.805c-0.95,2.465-1.955,4.966-3.365,7.181c-1.248,1.961-0.882,3.844,0.388,4.993
		c2.239,2.025,2.144,4.206,1.327,6.559c-1.209,3.484-1.798,6.656,0.852,9.964c0.757,0.945-0.113,3.257-0.359,4.924
		c-0.228,1.534-0.339,3.182-1.006,4.531c-1.009,2.04-0.187,3.647,1.087,4.762c1.713,1.499,2.622,3.153,3.112,5.338
		c0.681,3.035,1.77,3.466,4.746,2.41c0.406-0.144,0.8-0.318,1.201-0.478"/>
	<path fill="none" stroke="#000000" stroke-width="2" stroke-linecap="round" stroke-linejoin="round" stroke-miterlimit="10" d="
		M251.28,233.32c0.08,0.8,0.377,1.65,0.207,2.392c-1.624,7.053-3.355,14.081-4.997,21.13c-1.17,5.028-2.204,10.088-3.383,15.114
		c-1.055,4.495-2.302,8.946-3.324,13.448c-0.91,4.008,0.938,7.994,4.793,10.045c5.462,2.906,11.034,5.605,16.75,8.49
		c1.031-1.914,2.183-4.123,3.407-6.293c0.602-1.067,1.062-2.362,2.627-2.407"/>
	<path fill="none" stroke="#000000" stroke-width="2" stroke-linecap="round" stroke-linejoin="round" stroke-miterlimit="10" d="
		M467.16,549.88c-1-0.479-2.01-1.395-2.998-1.373c-8.883,0.205-17.762,0.594-26.643,0.883c-4.158,0.137-8.324,0.072-12.479,0.281
		c-3.287,0.166-6.56,0.627-9.841,0.924c-2.958,0.268-5.917,0.549-8.881,0.707c-3.036,0.162-6.079,0.238-9.119,0.244
		c-5.04,0.01-10.081-0.104-15.12-0.078c-1.121,0.006-2.238,0.533-3.36,0.545c-5.679,0.061-11.367,0.207-17.037-0.033
		c-4.173-0.176-8.317-0.957-12.484-1.361c-4.072-0.396-8.154-0.855-12.239-0.936c-7.517-0.148-15.041-0.154-22.558-0.002
		c-4.564,0.096-9.134,0.971-13.676,0.803c-3.582-0.135-7.033,0.576-10.563,0.65c-4.805,0.104-9.599,0.631-14.402,0.881
		c-1.592,0.082-3.215-0.02-4.795-0.238c-3.506-0.482-6.887,0.211-10.334,0.664c-3.392,0.447-6.873,0.367-10.309,0.285
		c-3.844-0.092-7.678-0.504-11.521-0.674c-8.158-0.359-16.405-0.041-24.452-1.166c-6.413-0.896-12.912-0.193-19.236-1.689
		c-1.061-0.252-2.232-0.012-3.352-0.039c-6.08-0.152-12.163-0.508-18.239-0.424c-6.563,0.09-13.123,0.543-19.68,0.924
		c-3.925,0.229-7.86,0.475-11.755,0.982c-4.104,0.539-8.16,1.436-12.248,2.107c-2.388,0.393-4.798,0.652-7.198,0.973"/>
	<path fill="none" stroke="#000000" stroke-width="2" stroke-linecap="round" stroke-linejoin="round" stroke-miterlimit="10" d="
		M687.121,429.4c-0.16,2-0.303,4.002-0.484,6c-0.221,2.4-0.512,4.797-0.709,7.199c-0.424,5.199-0.76,10.404-1.219,15.6
		c-0.76,8.645-1.678,17.273-2.359,25.924c-0.541,6.869-0.752,13.764-1.26,20.635c-0.289,3.92-0.154,7.854-0.65,11.77
		c-0.494,3.896-0.766,7.83-0.957,11.756c-0.082,1.668,0.457,3.363,0.402,5.037c-0.133,4.164-0.516,8.318-0.643,12.482
		c-0.039,1.291-0.801,3.086,1.396,3.6"/>
	<path fill="none" stroke="#000000" stroke-width="2" stroke-linecap="round" stroke-linejoin="round" stroke-miterlimit="10" d="
		M265.92,243.16c-2,6.8-4.108,13.571-5.963,20.41c-1.31,4.829-2.433,9.722-3.329,14.643c-0.426,2.338,0.569,4.587,2.098,6.462
		c1.975,2.421,3.986,4.812,5.997,7.203c1.022,1.215,2.122,2.367,3.107,3.61c1.882,2.374,1.007,5-0.096,7.139
		c-1.287,2.494-3.187,4.598-5.813,6.189c-2,1.213-4.081,3.041-4.439,5.859c-0.045,0.354-0.603,0.645-0.922,0.965"/>
	<path fill="none" stroke="#000000" stroke-width="2" stroke-linecap="round" stroke-linejoin="round" stroke-miterlimit="10" d="
		M212.16,253c3.44,0,6.881-0.047,10.32,0.016c2.323,0.043,4.644,0.242,7.2,0.384c0,0.959,0.029,1.84-0.004,2.719
		c-0.276,7.251,0.386,14.438,1.432,21.602c0.091,0.626,0.012,1.278,0.012,1.918c0,9.76,0.154,19.522-0.047,29.278
		c-0.17,8.246-0.752,16.482-1.153,24.723"/>
	<path fill="none" stroke="#000000" stroke-width="2" stroke-linecap="round" stroke-linejoin="round" stroke-miterlimit="10" d="
		M276.96,145.24c2.128-1.723,4.3-2.692,7.227-1.766c1.937,0.613,4.132,0.427,6.213,0.56c1.968,0.125,3.496,1.075,4.025,2.902
		c0.706,2.434,2.208,3.886,4.354,5.061c2.937,1.609,3.377,2.32,2.345,5.216c-1.083,3.036-0.239,5.565,1.584,7.646
		c2.015,2.299,2.731,4.575,1.342,7.246c-1.738,3.342-0.675,6.607,0.065,9.846c0.9,3.937,0.886,7.68-1.99,10.778
		c-2.347,2.527-1.107,5.279-0.886,7.947c0.213,2.576,0.832,5.115,1.125,7.688c0.125,1.097,0.03,2.275-0.238,3.348
		c-0.581,2.325-0.774,4.566-0.283,6.983c0.439,2.16,0.061,4.338-1.806,6.028c-0.574,0.52-0.68,1.557-1,2.356"/>
	<path fill="none" stroke="#000000" stroke-width="2" stroke-linecap="round" stroke-linejoin="round" stroke-miterlimit="10" d="
		M287.52,340.839c-0.24,0.801-0.598,1.586-0.698,2.404c-0.301,2.473-0.602,4.951-0.715,7.438c-0.121,2.635-0.159,5.285-0.001,7.916
		c0.402,6.727,1.079,13.438,1.351,20.164c0.129,3.188-0.374,6.402-0.678,9.598c-0.119,1.248-2.794,2.777-4.779,2.881
		c-1.698,0.088-2.636-0.711-2.888-2.398c-0.287-1.924-0.8-3.83-0.923-5.764c-0.473-7.436-0.922-14.873-1.2-22.318
		c-0.224-5.994-0.15-12-0.285-17.998c-0.071-3.203-0.287-6.4-0.482-9.6c-0.029-0.488-0.302-0.961-0.462-1.441"/>
	<path fill="none" stroke="#000000" stroke-width="2" stroke-linecap="round" stroke-linejoin="round" stroke-miterlimit="10" d="
		M254.16,423.4c-1.2,0.16-2.403,0.471-3.6,0.447c-2.162-0.045-4.334-0.186-6.478-0.469c-4.969-0.654-9.983-1.145-14.865-2.221
		c-4.484-0.988-8.819-0.463-13.217,0.088c-0.886,0.111-1.761,0.313-2.641,0.475"/>
	<path fill="none" stroke="#000000" stroke-width="2" stroke-linecap="round" stroke-linejoin="round" stroke-miterlimit="10" d="
		M276,327.64c1.28-0.561,2.511-1.336,3.85-1.637c3.411-0.768,6.887-1.246,10.306-1.984c3.492-0.754,6.846-0.281,10.073,1.012
		c2.835,1.139,5.647,2.377,7.945,4.518c0.938,0.875,1.248,1.842,1.5,3.119c1.156,5.857-0.176,11.563-0.838,17.289
		c-0.887,7.664-1.713,15.318-1.37,23.043c0.075,1.688,0.484,3.357,0.688,5.043c0.278,2.295,2.198,2.842,3.857,3.574
		c2.036,0.898,4.261,1.418,6.206,2.469c3.579,1.936,4.561,7.355,1.652,9.234c-1.46,0.943-3.444,1.32-5.232,1.471
		c-6.584,0.555-12.932-0.754-18.929-3.371c-3.432-1.498-4.819-4.879-4.966-8.342c-0.144-3.422,0.661-6.871,0.828-10.318
		c0.209-4.313,0.442-8.65,0.202-12.955c-0.251-4.496-1.016-8.969-1.637-13.438c-0.147-1.064-0.54-2.115-0.95-3.117
		c-0.827-2.021-1.629-4.068-2.649-5.994c-1.853-3.496-4.709-5.896-8.356-7.496c-1.88-0.824-3.517-2.178-5.784-1.412
		c-1.654,0.559-3.335,1.068-5.04,1.434c-2.623,0.563-5.289,0.924-7.908,1.496c-0.847,0.186-1.607,0.766-2.407,1.166"/>
	<path fill="none" stroke="#000000" stroke-width="2" stroke-linecap="round" stroke-linejoin="round" stroke-miterlimit="10" d="
		M597.599,547.72c0.08,2.16,0.23,4.32,0.213,6.48c-0.008,1.201-0.408,2.396-0.434,3.6c-0.193,9.76-0.338,19.521-0.498,29.279"/>
	<path fill="none" stroke="#000000" stroke-width="2" stroke-linecap="round" stroke-linejoin="round" stroke-miterlimit="10" d="
		M222.24,335.8c-0.24,3.439-0.555,6.877-0.703,10.32c-0.226,5.277-0.591,10.566-0.428,15.838c0.176,5.689,1.129,11.355,1.289,17.045
		c0.109,3.906-0.578,7.836-0.863,11.758c-0.063,0.875,0.066,1.764,0.122,2.973c-2.933,1.629-6.265,0.625-9.497,0.627"/>
	<path fill="none" stroke="#000000" stroke-width="2" stroke-linecap="round" stroke-linejoin="round" stroke-miterlimit="10" d="
		M552.121,422.201c0.92-0.32,1.848-0.938,2.758-0.914c9.922,0.246,19.84,0.734,29.762,0.857c5.518,0.068,11.039-0.477,16.561-0.646
		c3.357-0.104,6.723-0.105,10.08,0.002c5.043,0.162,10.08,0.48,15.121,0.691c2.877,0.123,5.76,0.188,8.639,0.234
		c0.719,0.012,1.439-0.146,2.16-0.227"/>
	<path fill="none" stroke="#000000" stroke-width="2" stroke-linecap="round" stroke-linejoin="round" stroke-miterlimit="10" d="
		M297.36,241.48c2.48,3.76,4.852,7.598,7.472,11.257c2.472,3.453,2.375,5.355,0.021,8.937c-3.17,4.822-5.972,9.886-8.932,14.846"/>
	<path fill="none" stroke="#000000" stroke-width="2" stroke-linecap="round" stroke-linejoin="round" stroke-miterlimit="10" d="
		M211.92,295.24c-0.16,0.72-0.489,1.448-0.453,2.159c0.271,5.442,0.725,10.878,0.9,16.323c0.157,4.875,0.033,9.76,0.033,14.639
		c0,4.16,0,8.32,0,12.479c0,4.721,0,9.441,0,14.16c0,6.561,0,13.121,0,19.682c0,0.561,0.112,1.146-0.017,1.676
		c-1.28,5.238,0.037,10.584-0.673,15.848c-0.126,0.934,0.13,1.916,0.21,2.877"/>
	<path fill="none" stroke="#000000" stroke-width="2" stroke-linecap="round" stroke-linejoin="round" stroke-miterlimit="10" d="
		M637.679,422.919c0.08-0.16,0.172-0.463,0.24-0.459c7.441,0.539,14.881,1.102,22.32,1.658c7.52,0.563,15.041,1.119,22.561,1.688
		c0.324,0.025,0.641,0.152,0.959,0.232"/>
	<path fill="none" stroke="#000000" stroke-width="2" stroke-linecap="round" stroke-linejoin="round" stroke-miterlimit="10" d="
		M510,549.4c-1.279-0.16-2.574-0.535-3.838-0.445c-9.998,0.711-19.986,1.158-30.006,0.246c-2.855-0.26-5.756-0.041-8.637-0.041"/>
	<path fill="none" stroke="#000000" stroke-width="2" stroke-linecap="round" stroke-linejoin="round" stroke-miterlimit="10" d="
		M293.04,216.521c-1.688,0.357-1.846,1.9-2.395,3.123c-1.389,3.093-0.325,6.005,2.628,7.451c1.032,0.506,1.985,1.173,3.111,1.849
		c0.605-0.546,1.365-1.232,2.52-2.275c2.235,2.49,4.705,4.737,6.562,7.41c5.037,7.251,9.737,14.736,14.752,22.002
		c1.13,1.637,0.227,2.47-0.563,3.379c-3.382,3.89-6.882,7.678-10.272,11.562c-0.644,0.737-0.983,1.74-1.463,2.62"/>
	<path fill="none" stroke="#000000" stroke-width="2" stroke-linecap="round" stroke-linejoin="round" stroke-miterlimit="10" d="
		M298.32,283.72c-2.48,2.08-4.804,4.39-7.469,6.196c-7.573,5.133-14.166,11.392-20.87,17.542c-1.55,1.422-3.341,2.58-5.021,3.861"/>
	<path fill="none" stroke="#000000" stroke-width="2" stroke-linecap="round" stroke-linejoin="round" stroke-miterlimit="10" d="
		M254.88,183.4c0.24,0.72,0.675,1.436,0.689,2.161c0.132,6.479,0.23,12.959,0.245,19.439c0.004,1.808-0.304,3.617-0.46,5.333
		c-1.027-0.114-1.831-0.204-2.634-0.293"/>
	<path fill="none" stroke="#000000" stroke-width="2" stroke-linecap="round" stroke-linejoin="round" stroke-miterlimit="10" d="
		M254.16,183.16c-1.623,1.794-1.66,4.005-1.69,6.24c-0.038,2.801-0.215,5.601-0.203,8.4c0.006,1.44,0.368,2.876,0.434,4.321
		c0.081,1.756,0.02,3.519,0.02,5.279c0,1.6-0.524,3.46,0.114,4.743c1.149,2.307,1.098,4.369,0.11,6.53
		c-1.277,2.793-0.864,5.175,1.456,7.207"/>
	<path fill="none" stroke="#000000" stroke-width="2" stroke-linecap="round" stroke-linejoin="round" stroke-miterlimit="10" d="
		M324.96,274.12c0.062,1.891-1.478,2.649-2.655,3.582c-3.8,3.01-7.668,5.935-11.504,8.9c-1.848,1.43-3.522,3.184-5.559,4.246
		c-2.953,1.539-2.598,4.218-2.498,6.548c0.121,2.818,1.016,5.604,1.576,8.404"/>
	<path fill="none" stroke="#000000" stroke-width="2" stroke-linecap="round" stroke-linejoin="round" stroke-miterlimit="10" d="
		M211.44,252.04c0.16,2.16,0.427,4.319,0.453,6.48c0.033,2.719-0.127,5.44-0.214,8.16c-0.072,2.24-0.19,4.479-0.232,6.72
		c-0.1,5.44-0.193,10.88-0.231,16.32c-0.013,1.839,0.145,3.68,0.225,5.52"/>
	<path fill="none" stroke="#000000" stroke-width="2" stroke-linecap="round" stroke-linejoin="round" stroke-miterlimit="10" d="
		M298.56,281.8c7.331-6.383,15.121-12.132,23.395-17.163c2.005,2.004,3.887,3.885,5.71,5.707c-0.745,2.016-1.819,3.397-3.899,3.807
		c-0.6,0.118-1.157,0.565-1.682,0.936c-4.968,3.509-9.919,7.041-14.89,10.545c-0.76,0.536-1.612,0.941-2.39,1.454
		c-1.315,0.865-2.291,0.708-3.141-0.716c-1.934-3.241-4.854-4.78-8.624-4.832c-0.962-0.013-2.022-0.089-2.86-0.498
		c-2.342-1.142-3.666,0.205-5.07,1.71c-2.2,2.357-4.422,4.699-6.743,6.935c-0.575,0.554-1.566,0.675-2.366,0.995"/>
	<path fill="none" stroke="#000000" stroke-width="2" stroke-linecap="round" stroke-linejoin="round" stroke-miterlimit="10" d="
		M295.92,167.08c-0.24,7.52-0.571,15.039-0.682,22.561c-0.057,3.837,0.313,7.679,0.43,11.52c0.066,2.158,0.078,4.323-0.032,6.477
		c-0.029,0.575-0.539,1.167-0.934,1.668c-0.309,0.392-0.777,0.66-1.182,0.973c-2.167,1.676-4.089,3.301-4.44,6.468
		c-0.282,2.546-1.543,5.012-2.544,7.443c-1.13,2.744-0.799,5.252,0.745,7.69"/>
	<path fill="none" stroke="#000000" stroke-width="2" stroke-linecap="round" stroke-linejoin="round" stroke-miterlimit="10" d="
		M255.12,210.521c2.206,3.502,5.429,5.822,9.137,7.4c3.441,1.465,7.003,2.661,10.561,3.825c0.675,0.221,1.717-0.053,2.359-0.461
		c3.012-1.918,5.905-4.024,8.926-5.927c0.889-0.56,2.057-0.677,3.097-0.997"/>
	<path fill="none" stroke="#000000" stroke-width="2" stroke-linecap="round" stroke-linejoin="round" stroke-miterlimit="10" d="
		M244.56,295.96c-1.487,5.432-1.453,10.995-1.455,16.559c0,3.281-0.472,6.596-0.134,9.83c0.34,3.26,0.825,6.635,3.016,9.381
		c0.257,0.322,0.333,0.789,0.493,1.189"/>
	<path fill="none" stroke="#000000" stroke-width="2" stroke-linecap="round" stroke-linejoin="round" stroke-miterlimit="10" d="
		M125.04,554.201c0,2.719-0.107,5.443,0.021,8.158c0.339,7.203,0.789,14.4,1.174,21.602c0.116,2.158,0.166,4.32,0.246,6.48"/>
	<path fill="none" stroke="#000000" stroke-width="2" stroke-linecap="round" stroke-linejoin="round" stroke-miterlimit="10" d="
		M297.84,296.92c-4.8,3.599-9.621,7.173-14.377,10.83c-0.719,0.553-1.143,1.49-1.703,2.25"/>
	<path fill="none" stroke="#000000" stroke-width="2" stroke-linecap="round" stroke-linejoin="round" stroke-miterlimit="10" d="
		M256.56,332.681c-8.24,0.561-16.484,1.6-24.719,1.527c-6.579-0.059-12.723,2.285-19.201,2.313"/>
	<path fill="none" stroke="#000000" stroke-width="2" stroke-linecap="round" stroke-linejoin="round" stroke-miterlimit="10" d="
		M679.56,549.4c-0.359,3.279-0.926,6.555-1.031,9.842c-0.176,5.354,0.043,10.721-0.076,16.078c-0.094,4.162-0.469,8.318-0.676,12.48
		c-0.035,0.715,0.145,1.439,0.225,2.158"/>
	<path fill="none" stroke="#000000" stroke-width="2" stroke-linecap="round" stroke-linejoin="round" stroke-miterlimit="10" d="
		M270.48,231.4c-3.2-1.76-6.279-3.832-9.653-5.145c-1.614-0.628-3.787,0.185-5.707,0.344"/>
	<path fill="none" stroke="#000000" stroke-width="2" stroke-linecap="round" stroke-linejoin="round" stroke-miterlimit="10" d="
		M306,372.041c-2.16,0.32-4.334,0.967-6.476,0.873c-2.417-0.104-4.804-0.873-7.204-1.354"/>
	<path fill="none" stroke="#000000" stroke-width="2" stroke-linecap="round" stroke-linejoin="round" stroke-miterlimit="10" d="
		M193.44,549.88c-0.32,4.32-0.751,8.635-0.931,12.961c-0.206,4.955-0.186,9.92-0.27,14.879c-0.075,4.4-0.159,8.801-0.239,13.199"/>
	<path fill="none" stroke="#000000" stroke-width="2" stroke-linecap="round" stroke-linejoin="round" stroke-miterlimit="10" d="
		M271.44,156.521c0.896,1.842,0.729,3.534-0.721,5.039c-0.471,0.488-0.878,1.116-1.453,1.414c-2.329,1.209-4.289,2.656-4.564,5.545
		c-0.024,0.253-0.266,0.52-0.468,0.716c-2.151,2.089-4.279,4.205-6.499,6.219c-0.554,0.503-1.416,0.667-2.135,0.987"/>
	<path fill="none" stroke="#000000" stroke-width="2" stroke-linecap="round" stroke-linejoin="round" stroke-miterlimit="10" d="
		M343.68,336.761c-2.192,4.443-4.438,8.854-7.92,12.479"/>
	<path fill="none" stroke="#000000" stroke-width="2" stroke-linecap="round" stroke-linejoin="round" stroke-miterlimit="10" d="
		M295.44,179.56c-1.748,2.306-4.876,1.653-7.039,3.254c-0.699,0.518-2.321-0.213-3.521-0.374"/>
	<path fill="none" stroke="#000000" stroke-width="2" stroke-linecap="round" stroke-linejoin="round" stroke-miterlimit="10" d="
		M279.84,287.8c-0.639-0.655-1.278-1.31-1.854-1.901c-1.995,1.426-2.753,2.948-2,5.026c0.103,0.283,0.141,0.716-0.005,0.943
		c-2.197,3.416-3.501,7.528-7.421,9.612"/>
	<path fill="none" stroke="#000000" stroke-width="2" stroke-linecap="round" stroke-linejoin="round" stroke-miterlimit="10" d="
		M270.96,230.2c4.665,0.571,9.35,1.716,13.92-0.48"/>
	<path fill="none" stroke="#000000" stroke-width="2" stroke-linecap="round" stroke-linejoin="round" stroke-miterlimit="10" d="
		M257.52,217.24c-1.744,2.528-1.893,5.552-2.697,8.384c-0.822,2.896-1.571,5.975-4.503,7.696"/>
	<path fill="none" stroke="#000000" stroke-width="2" stroke-linecap="round" stroke-linejoin="round" stroke-miterlimit="10" d="
		M254.04,167.44c1.1,1.118,1.181,2.504,1.086,3.96c-0.182,2.798-0.35,5.599-0.443,8.401c-0.007,0.229,0.597,0.479,0.917,0.719"/>
	<path fill="none" stroke="#000000" stroke-width="2" stroke-linecap="round" stroke-linejoin="round" stroke-miterlimit="10" d="
		M284.16,205c-1.12,0.72-2.162,1.646-3.379,2.109c-1.601,0.608-3.341,0.851-5.021,1.251"/>
	<path fill="none" stroke="#000000" stroke-width="2" stroke-linecap="round" stroke-linejoin="round" stroke-miterlimit="10" d="
		M275.76,290.68c-1.976-0.21-2.674,1.298-3.33,2.655c-0.751,1.556-1.765,2.731-3.39,3.345"/>
	<path fill="none" stroke="#000000" stroke-width="2" stroke-linecap="round" stroke-linejoin="round" stroke-miterlimit="10" d="
		M273.84,180.76c-2.08-0.08-4.173-0.336-6.236-0.187c-1.783,0.129-3.412,0.893-4.084,2.827"/>
	<path fill="none" stroke="#000000" stroke-width="2" stroke-linecap="round" stroke-linejoin="round" stroke-miterlimit="10" d="
		M278.16,187.72c-0.48,1.84-0.886,3.704-1.464,5.512c-0.444,1.388-1.696,1.287-2.856,1.208"/>
	<path fill="none" stroke="#000000" stroke-width="2" stroke-linecap="round" stroke-linejoin="round" stroke-miterlimit="10" d="
		M293.04,177.16c-2.461,0.182-4.943,0.303-6.72,2.4"/>
	<path fill="none" stroke="#000000" stroke-width="2" stroke-linecap="round" stroke-linejoin="round" stroke-miterlimit="10" d="
		M264.48,311.8c-1.28,0.961-2.602,1.869-3.827,2.896c-0.989,0.828-1.91,0.615-2.894,0.104"/>
	<path fill="none" stroke="#000000" stroke-width="2" stroke-linecap="round" stroke-linejoin="round" stroke-miterlimit="10" d="
		M273.12,182.44c0.06,1.932-1.641,1.675-2.652,1.85c-1.554,0.268-3.188,0.07-4.788,0.07"/>
	<path fill="none" stroke="#000000" stroke-width="2" stroke-linecap="round" stroke-linejoin="round" stroke-miterlimit="10" d="
		M292.08,227.08c-1.76,0.88-3.52,1.76-5.28,2.64"/>
	<path fill="none" stroke="#000000" stroke-width="2" stroke-linecap="round" stroke-linejoin="round" stroke-miterlimit="10" d="
		M275.28,311.32c-0.16,0.16-0.305,0.439-0.482,0.463c-2.717,0.346-5.432,0.773-8.161,0.922c-1.148,0.063-2.275-0.436-2.204-2.105
		c0.034-0.789-0.433-1.6-0.673-2.398"/>
	<path fill="none" stroke="#000000" stroke-width="2" stroke-linecap="round" stroke-linejoin="round" stroke-miterlimit="10" d="
		M842.16,590.919c0,1.602,0,3.201,0,4.801"/>
	<path fill="none" stroke="#000000" stroke-width="2" stroke-linecap="round" stroke-linejoin="round" stroke-miterlimit="10" d="
		M302.4,293.8c-1.2,0.8-2.403,1.596-3.599,2.402c-0.641,0.432-1.223,0.548-1.681-0.242"/>
	<path fill="none" stroke="#000000" stroke-width="2" stroke-linecap="round" stroke-linejoin="round" stroke-miterlimit="10" d="
		M274.8,309.64c-1.852-0.404-3.177,0.309-4.08,1.92"/>
	<path fill="none" stroke="#000000" stroke-width="2" stroke-linecap="round" stroke-linejoin="round" stroke-miterlimit="10" d="
		M267.12,185.56c-1.28,0.24-2.56,0.48-3.84,0.72"/>
</g>
<path fill="none" stroke="#000000" stroke-width="2" stroke-linecap="round" stroke-linejoin="round" stroke-miterlimit="10" d="
	M294.435,196.077c0.096-4.786,0.424-9.568,0.648-14.352c0.021-0.464,0.002-0.932,0.002-1.691c-2.612,2.639-5.581,3.676-9.013,3.05
	c-0.74-0.135-1.726-0.307-1.855-1.689c1.358,0.336,2.531,0.625,3.647,0.902c1.635-3.12,2.896-3.574,5.168-2.033
	c0.135-0.066,0.283-0.117,0.406-0.203c1.69-1.173,1.946-2.882,1.856-4.771c-0.087-1.835-0.088-3.677-0.068-5.515"/>
<path fill="none" stroke="#000000" stroke-width="2" stroke-linecap="round" stroke-linejoin="round" stroke-miterlimit="10" d="
	M263.405,185.604c0.848-0.083,1.695-0.166,2.522-0.247c0.145-0.736,0.079-1.835,0.446-2.007c1.111-0.518,2.378-0.795,3.611-0.927
	c0.639-0.068,1.333,0.366,2.302,0.666c0.199-0.403,0.443-0.896,0.803-1.625c0.312,0.646,0.52,0.873,0.472,1.012
	c-0.511,1.483-1.764,2.149-3.076,2.774c-2.292,1.093-4.655,1.224-7.069,0.86C263.412,185.941,263.409,185.772,263.405,185.604z"/>
<path fill="none" stroke="#000000" stroke-miterlimit="10" d="M273.736,180.336c-6.646,0.172-5.754-0.447-10.186,2.651
	c-0.731-0.489-0.646-0.985-0.004-1.479c1.616-1.244,3.404-2.066,5.479-2.1C270.658,179.382,272.279,179.476,273.736,180.336z"/>
<path fill="none" stroke="#000000" stroke-miterlimit="10" d="M293.366,176.683c-1.79,0.493-3.12,0.712-4.321,1.233
	c-1.064,0.461-1.983,1.256-3.218,2.07C286.544,177.265,289.141,176.161,293.366,176.683z"/>
</svg>
