<?xml version="1.0" encoding="utf-8"?>
<!-- Generator: Adobe Illustrator 16.0.0, SVG Export Plug-In . SVG Version: 6.00 Build 0)  -->
<!DOCTYPE svg PUBLIC "-//W3C//DTD SVG 1.1//EN" "http://www.w3.org/Graphics/SVG/1.1/DTD/svg11.dtd">
<svg version="1.1" id="Calque_1" xmlns="http://www.w3.org/2000/svg" xmlns:xlink="http://www.w3.org/1999/xlink" x="0px" y="0px"
	 width="470.37px" height="392.592px" viewBox="0 0 470.37 392.592" enable-background="new 0 0 470.37 392.592"
	 xml:space="preserve">
<g>
	<path fill="none" stroke="#231F20" stroke-width="0.5" stroke-miterlimit="10" d="M204.204,334.538
		c-0.019-4.229,0.02-8.105-0.488-12.155c-0.829-6.612-3.569-13.02-6.046-19.135c-1.773-4.373-3.603-8.751-4.824-13.325
		c-0.569-2.121-0.871-4.303-1.318-6.415c-0.461-2.17-1.696-3.968-2.546-5.984c-1.739-4.138-4.469-8.886-7.004-12.587
		c-3.915-5.723-7.669-10.907-12.206-16.118c-1.488-1.716-3.192-3.3-5.07-4.579c-1.678-1.144-3.611-1.566-5.374-2.597
		c-4.47-2.614-9.376-4.33-13.921-6.805c-4.734-2.57-9.008-5.918-13.087-9.418c-2.819-2.418-5.642-4.714-8.902-6.473
		c-3.092-1.668-6.294-3.649-9.842-4.138c-11.924-1.642-8.186,13.407-4.479,19.3c4.424,7.035,11.113,10.147,17.942,14.377
		c3.797,2.356,7.548,4.53,11.692,6.232c-1.461,1.563-1.237,3.553-1.242,5.587"/>
	<path fill="none" stroke="#231F20" stroke-width="0.5" stroke-miterlimit="10" d="M115.412,215.419
		c1.898,1.859,6.091,2.89,6.567,5.748c0.447,2.672-2.422,5.884-4.557,7.119c-4.907,2.837-14.008-2.885-10.766-8.756
		c1.808-3.269,5.327-3.98,8.755-3.618"/>
	<path fill="none" stroke="#231F20" stroke-width="0.5" stroke-miterlimit="10" d="M135.549,230.22
		c-1.542,4.369-4.957,5.285-8.006,7.765"/>
	<path fill="none" stroke="#231F20" stroke-width="0.5" stroke-miterlimit="10" d="M132.395,228.767
		c-1.714-0.205-2.715,1.789-3.882,2.666"/>
	<path fill="none" stroke="#231F20" stroke-width="0.5" stroke-miterlimit="10" d="M109.105,271.95
		c-1.574,6.089-3.732,10.732,0.883,16.065c1.828,2.117,3.676,3.54,5.976,5.085c2.041,1.379,3.389,3.443,5.25,5.015
		c2.408,2.039,4.899,3.989,7.343,5.984c4.893,4.002,9.733,8.078,14.211,12.548c1.581,1.58,3.63,2.653,5.15,4.299
		c4.393,4.749,12.624,6.582,12.617,14.32"/>
	<polyline fill="none" stroke="#231F20" stroke-width="0.5" stroke-miterlimit="10" points="181.155,263.701 226.591,215.419 
		117.434,88.061 44.008,139.491 109.671,215.18 	"/>
	<path fill="none" stroke="#231F20" stroke-width="0.5" stroke-miterlimit="10" d="M191.528,283.507c0,0,41.06-45.361,46.235-51.184
		s-2.911-14.229-2.911-14.229S120.668,84.826,114.846,77.385c-5.821-7.439-12.615-4.851-12.615-4.851l-73.426,51.43
		c0,0-3.88,3.883-0.971,8.733c2.911,4.854,75.692,88.627,75.692,88.627"/>
	<path fill="none" stroke="#231F20" stroke-width="0.5" stroke-miterlimit="10" d="M31.07,125.259c0,0-2.265,2.912,0.647,7.438
		l74.233,86.123c-6.949,6.708-8.118,13.979-6.259,23.276c0.84,4.207,2.57,7.843,4.07,11.823c1.619,4.29,2.275,8.747,3.365,13.177
		c1.231,5.011,4.854,7.153,8.285,10.676"/>
	<path fill="none" stroke="#231F20" stroke-width="0.5" stroke-miterlimit="10" d="M262.669,331.307
		c5.065-16.083,9.086-32.298,13.123-48.655c4.154-16.83,9.584-35.235,22.829-47.304c11.81-10.759,27.689-11.544,39.86-0.921
		c12.36,10.789,18.186,27.589,22.619,42.882c4.615,15.944,8.288,32.176,12.303,48.276c0.503,2.017,1.004,4.028,1.507,6.041"/>
	<path fill="none" stroke="#231F20" stroke-width="0.5" stroke-miterlimit="10" d="M299.22,233.943
		c5.977-9.807,12.776-17.184,25.172-14.469c10.654,2.331,21.519,8.982,28.851,17.014c7.089,7.765,10.69,17.898,13.901,27.724
		c3.4,10.413,6.532,20.928,9.565,31.446c3.073,10.646,5.453,21.391,7.26,32.319c0.217,1.323,0.432,2.649,0.645,3.972"/>
	<path fill="none" stroke="#231F20" stroke-width="0.5" stroke-miterlimit="10" d="M320.244,218.414
		c5.18-2.033,10.268-4.046,15.614-5.835c5.647-1.89,11.625-3.317,16.903-6.137c5-2.666,6.789-7.031,10.904-10.462
		c4.211-3.513,8.688-6.839,12.931-10.379c6.172-5.15,16.8-15.8,25.995-12.024c3.09,1.27,5.81,4.203,8.792,5.857
		c3.086,1.707,6.171,3.339,9.378,4.775c3.935,1.772,7.962,2.064,12.194,2.645c2.613,0.362,5.262,0.777,7.933,1.074
		c2.435,0.275,7.876-0.284,9.713,1.379"/>
	<path fill="none" stroke="#231F20" stroke-width="0.5" stroke-miterlimit="10" d="M375.558,185.745
		c1.325,0.768,5.325,0.249,7.117,0.476c2.274,0.284,4.538,0.476,6.77,1.1c4.18,1.17,8.194,2.92,12.329,4.207
		c4.555,1.424,9.15,2.492,13.522,4.334c4.876,2.057,9.246,4.178,14.471,5.391c7.225,1.676,14.616,1.506,21.805,2.929"/>
	<path fill="none" stroke="#231F20" stroke-width="0.5" stroke-miterlimit="10" d="M328.979,227.147
		c-0.155,0.065-0.151,0.599-0.276,0.097c1.476-1.672,5.79-5.896,7.716-3.653"/>
	<path fill="none" stroke="#231F20" stroke-width="0.5" stroke-miterlimit="10" d="M338.359,232.647
		c-0.999-1.559,1.625-2.842,2.857-3.226c2.489-0.781,3.664,0.633,5.875,0.965"/>
	<path fill="none" stroke="#231F20" stroke-width="0.5" stroke-miterlimit="10" d="M314.1,227.475
		c-0.881-4.505-0.505-6.914,4.529-7.765"/>
	<path fill="none" stroke="#231F20" stroke-width="0.5" stroke-miterlimit="10" d="M351.297,250.114
		c3.526,1.628,7.529,2.147,11.001,3.562"/>
	<path fill="none" stroke="#231F20" stroke-width="0.5" stroke-miterlimit="10" d="M355.181,260.143
		c1.802,1.921,4.266,4.229,6.618,5.355c1.214,0.581,5.65,1.388,5.674,0.79"/>
	<path fill="none" stroke="#231F20" stroke-width="0.5" stroke-miterlimit="10" d="M364.884,286.99
		c1.55,3.077,8.569,6.268,11.645,4.526"/>
	<path fill="none" stroke="#231F20" stroke-width="0.5" stroke-miterlimit="10" d="M366.823,298.958
		c1.567,2.54,9.56,5.481,11.646,4.849"/>
	<path fill="none" stroke="#231F20" stroke-width="0.5" stroke-miterlimit="10" d="M374.913,328.392
		c1.688,0.646,8.127,4.138,9.056,2.593"/>
	<path fill="none" stroke="#231F20" stroke-width="0.5" stroke-miterlimit="10" d="M344.182,226.501
		c0.016-3.779,3.776-6.909,6.256-9.393c2.859-2.858,5.731-5.905,8.897-8.454c5.693-4.583,13.115-6.861,19.156-10.872
		c4.05-2.688,5.289-6.241,7.095-10.418"/>
	<path fill="none" stroke="#231F20" stroke-width="0.5" stroke-miterlimit="10" d="M380.089,186.068
		c-2.235,3.286-2.47,7.651-4.629,10.924c-2.138,3.242-5.401,4.469-8.654,6.119c-3.481,1.759-6.615,3.775-9.933,5.953
		c-3.852,2.531-7.875,3.666-12.041,5.391c-3.941,1.623-6.662,4.478-9.059,7.839"/>
	<path fill="none" stroke="#231F20" stroke-width="0.5" stroke-miterlimit="10" d="M345.152,228.767
		c3.081,1.653,10.892-4.143,13.604-5.91c4.363-2.846,8.839-5.359,13.897-6.939c5.255-1.646,10.867-2.274,16.141-4.382
		c5.468-2.195,11.188-4.238,16.549-6.699c4.285-1.969,10.663-3.929,13.561-7.766"/>
	<path fill="none" stroke="#231F20" stroke-width="0.5" stroke-miterlimit="10" d="M438.31,202.889
		c-5.502,0.437-11.82,3.33-17.137,4.94c-6.315,1.916-12.136,4.972-18.525,6.7c-12.184,3.299-24.282,7.555-36.127,11.531
		c-4.917,1.649-11.556,6.385-16.839,5.617"/>
	<path fill="none" stroke="#231F20" stroke-width="0.5" stroke-miterlimit="10" d="M361.649,246.238
		c5.097,0.59,12.246-2.671,17.161-4.098c5.605-1.633,10.989-3.771,16.486-5.626c5.977-2.013,11.806-3.025,17.773-5.059
		c5.35-1.82,10.878-3.536,16.167-5.286c3.132-1.043,6.172-1.964,9.406-2.889c3.49-1.004,6.555-2.842,10.019-3.894"/>
	<path fill="none" stroke="#231F20" stroke-width="0.5" stroke-miterlimit="10" d="M365.209,254.321
		c-0.249,0.145-0.348,0.345-0.302,0.603c5.483-0.895,11.073-4.343,16.471-5.879c5.222-1.484,10.451-3.344,15.753-4.997
		c10.5-3.287,20.773-5.146,31.309-8.328c6.798-2.051,13.541-4.181,20.223-6.625"/>
	<path fill="none" stroke="#231F20" stroke-width="0.5" stroke-miterlimit="10" d="M369.734,269.523
		c5.653,5.573,18.752-0.021,25.026-1.863c10.014-2.942,20.142-5.02,30.08-8.25c8.411-2.736,16.721-5.826,25.114-8.646"/>
	<path fill="none" stroke="#231F20" stroke-width="0.5" stroke-miterlimit="10" d="M378.794,281.491
		c8.66,0.484,17.546-4.313,25.592-7.001c10.244-3.413,20.396-7.04,30.818-9.912c3.446-0.951,6.791-2.19,10.199-3.251
		c1.854-0.581,5.368-0.891,6.491-2.476"/>
	<path fill="none" stroke="#231F20" stroke-width="0.5" stroke-miterlimit="10" d="M380.733,297.666
		c1.722,5.26,15.854,0.275,19.336-0.563c10.988-2.662,21.612-6.127,32.505-9.043c5.008-1.34,12.533-2.61,16.734-5.596"/>
	<path fill="none" stroke="#231F20" stroke-width="0.5" stroke-miterlimit="10" d="M380.089,306.076
		c1.321,0.965,3.08,1.144,4.345,2.113c1.224,0.938,1.48,2.439,3.009,3.037c3.165,1.239,8.04-1.31,10.849-2.37
		c10.898-4.133,21.942-7.28,33.134-10.453c7.389-2.099,14.456-4.32,21.439-7.528"/>
	<path fill="none" stroke="#231F20" stroke-width="0.5" stroke-miterlimit="10" d="M385.911,329.365
		c4.926,1.974,13.211-1.715,18.167-2.862c9.103-2.108,17.832-5.316,26.842-7.708c3.648-0.974,7.294-1.863,10.922-2.929
		c2.051-0.606,7.006-1.135,7.789-3.321"/>
	<path fill="none" stroke="#231F20" stroke-width="0.5" stroke-miterlimit="10" d="M417.932,332.277
		c6.838,0,13.635-3.837,20.282-5.495c6.112-1.532,11.997-3.252,17.562-6.146"/>
	<path fill="none" stroke="#231F20" stroke-width="0.5" stroke-miterlimit="10" d="M314.748,37.278
		c0.337,3.736,3.189,8.07,4.899,11.356c1.912,3.68,4.389,7.198,6.85,10.522c2.481,3.358,4.609,7.123,7.329,10.304
		c2.608,3.048,5.543,5.834,7.933,9.079c4.958,6.737,10.746,12.022,16.432,18.11c5.307,5.682,10.385,11.657,15.403,17.591
		c2.904,3.432,5.997,7.32,9.848,9.697c2.733,1.685,9.355,4.442,12.494,3.263"/>
	<path fill="none" stroke="#231F20" stroke-width="0.5" stroke-miterlimit="10" d="M394.966,117.82
		c2.821,12.151,7.622,23.964,8.411,36.895c0.111,1.853,0.321,3.563,0.321,5.517c0,1.015,0,2.034,0,3.05c0,0.419,0,3.06,0,1.763"/>
	<path fill="none" stroke="#231F20" stroke-width="0.5" stroke-miterlimit="10" d="M398.847,171.512
		c1.654-2.972,4.639-5.46,6.984-8.035c2.554-2.801,5.099-5.579,8.103-7.91c6.205-4.82,14.544-6.979,21.699-9.984
		c4.035-1.691,8.337-2.488,12.381-4.15"/>
	<path fill="none" stroke="#231F20" stroke-width="0.5" stroke-miterlimit="10" d="M402.083,172.163
		c5.311-4.823,10.347-9.987,16.194-14.291c5.616-4.133,12.098-7.352,18.448-10.235c4.402-1.995,9.252-2.774,13.553-4.587"/>
	<path fill="none" stroke="#231F20" stroke-width="0.5" stroke-miterlimit="10" d="M365.854,37.278
		c0.01,3.395,0.104,6.908-1.089,10.143c-1.198,3.24-3.643,5.977-5.355,8.958c-1.285,2.247-3.878,6.441-6.802,3.627
		c-2.024-1.948-1.237-6.861-0.584-9.251c1.035-3.808,3.319-6.906,4.126-10.892"/>
	<path fill="none" stroke="#231F20" stroke-width="0.5" stroke-miterlimit="10" d="M382.027,38.895
		c0.913,3.761,8.637,7.786,11.844,9.558c1.771,0.98,4.309,1.532,5.907,2.608c1.02,0.688,0.84,1.539,1.791,2.277
		c0.706,0.547,2.581,1.212,3.459,1.715c1.948,1.113,3.043,2.543,4.842,3.695c1.643,1.05,3.698,1.854,5.448,2.839
		c2.226,1.256,4.124,3.273,6.618,4.191c2.329,0.856,4.408,0.499,6.373,1.599c1.277,0.716,2.098,0.984,3.32,1.364
		c1.577,0.493,1.992,1.309,3.492,2.256c1.586,1,2.266,0.546,3.98,0.867c1.532,0.284,4.063,2.36,5.354,1.64"/>
	<path fill="none" stroke="#231F20" stroke-width="0.5" stroke-miterlimit="10" d="M406.935,56.037
		c1.764,2.498,10.913,1.638,13.79,1.946c4.336,0.462,8.636,0.1,12.98,0.309c1.592,0.076,5.36,1.511,6.223,0.01"/>
	<path fill="none" stroke="#231F20" stroke-width="0.5" stroke-miterlimit="10" d="M389.791,43.1
		c3.247,2.217,7.229,1.952,10.991,1.942c3.67-0.007,7.343-0.002,11.015,0c1.663,0.002,4.033,0.478,5.487-0.327"/>
	<path fill="none" stroke="#231F20" stroke-width="0.5" stroke-miterlimit="10" d="M428.606,67.36
		c5.658,0.047,12.542-1.008,17.144-4.528"/>
</g>
</svg>
