<?xml version="1.0" encoding="utf-8"?>
<!-- Generator: Adobe Illustrator 16.0.0, SVG Export Plug-In . SVG Version: 6.00 Build 0)  -->
<!DOCTYPE svg PUBLIC "-//W3C//DTD SVG 1.1//EN" "http://www.w3.org/Graphics/SVG/1.1/DTD/svg11.dtd">
<svg version="1.1" id="Calque_1" xmlns="http://www.w3.org/2000/svg" xmlns:xlink="http://www.w3.org/1999/xlink" x="0px" y="0px"
	 width="279.629px" height="327.777px" viewBox="0 0 279.629 327.777" enable-background="new 0 0 279.629 327.777"
	 xml:space="preserve">
<path fill="none" stroke="#020303" stroke-width="0.5" stroke-linecap="round" stroke-linejoin="round" stroke-miterlimit="10" d="
	M101.896,53.232c-1.111-0.151-2.558-1.876-3.675-2.454c-1.333-0.687-2.978-1.017-4.187-1.718c0.158,0.158,0.254,0.377,0.426,0.519
	c-0.96,1.287-3.773,0.488-5.146,1.015c0.234,0.116,0.73,0.612,1.017,0.73c-1.357,0.246-2.926,0.542-4.297,0.684
	c-0.008,0.512,0.287,0.968,0.752,1.271c-1.247,0.041-2.486,0.322-3.7,0.613c0.511,0.625,1.396,0.908,2.203,1.064
	c-1.656,0.546-4.845,0.553-5.864,2.505c0.849,0.633,2.346,0.243,3.321,0.728c-4.932,1.012-7.77,4.707-11.293,7.821
	c1.23-0.34,2.032-1.91,3.366-1.651c-2.055,1.949-3.736,5.231-4.889,7.854c-0.827,1.87-1.452,4.33-2.441,5.954
	c0.583-0.91,1.549-2.126,2.581-2.232c0.008,1.061-0.657,1.889-0.975,2.862c-0.587,1.781-0.931,3.723-1.394,5.545
	c-0.361,1.435-1.692,5.397-0.581,6.689c0.896-1.079,1.192-2.672,1.954-3.881c-0.332,2.377-0.762,4.779-0.211,7.127
	c0.836-1.8,1.212-4.582,2.929-5.638c-0.033,0.77-0.724,3.796,0.576,3.91c0.915,0.084,1.621-3.45,2.208-4
	c0.269,1.279,0.233,2.415,0.936,3.529c0.165-0.833,0.127-1.769,0.456-2.512c0.195,0.908,0.205,1.881,0.375,2.808
	c0.999-1.206,0.906-3.107,2.156-4.315c0.103,1.585-0.635,3.422-0.68,5.091c0.957-0.702,1.635-1.897,2.738-2.472
	c-0.569,2.073-1.526,3.908-1.593,6.235c0.327-0.35,0.662-0.949,1.033-1.256c0.133,0.758,0.215,1.477,0.186,2.247
	c-0.046,0.453,0.054-0.672,0.049-0.428"/>
<path fill="none" stroke="#020303" stroke-width="0.5" stroke-linecap="round" stroke-linejoin="round" stroke-miterlimit="10" d="
	M84.32,70.937c-1.811-0.314-4.037,1.896-5.026,3.218c0.758-0.176,1.549-0.492,2.332-0.278c-0.327,0.885-1.411,1.593-1.942,2.538
	c0.771,0.072,1.469-0.463,2.276-0.28c0.003,1.268-1.204,2.096-1.1,3.441c0.338-0.106,0.992-0.086,1.329-0.197
	c-0.021,0.643-0.13,1.303-0.158,1.947c0.488-0.027,1.067-0.174,1.552-0.385c-0.163,0.712-0.06,1.5,0.011,2.175
	c0.331-0.008,0.562,0.137,0.913,0.02c-0.018,0.167,0.032,0.301,0.19,0.345"/>
<path fill="none" stroke="#020303" stroke-width="0.5" stroke-linecap="round" stroke-linejoin="round" stroke-miterlimit="10" d="
	M86.362,87.913c-0.022,0.024-0.841,0.988-1.07,1.452c0.472,0.044,1.019-0.018,1.499-0.176c-0.347,0.442-0.783,0.904-0.901,1.459
	c0.221,0.013,0.491,0.135,0.714,0.146c-0.228,0.735-1.805,1.416-1.813,2.27c-0.006,0.633,1.009,1.142,1.188,1.858"/>
<path fill="none" stroke="#020303" stroke-width="0.5" stroke-linecap="round" stroke-linejoin="round" stroke-miterlimit="10" d="
	M80.182,97.877c2.376-0.928,6.932,0.789,9.454,1.102c3.241,0.403,6.495,0.729,9.704-0.16c1.321-0.371,3.139-0.896,4.016-2.053"/>
<path fill="none" stroke="#020303" stroke-width="0.5" stroke-linecap="round" stroke-linejoin="round" stroke-miterlimit="10" d="
	M104.374,92.848c-0.696,1.127-0.675,2.608-0.823,3.936"/>
<path fill="none" stroke="#020303" stroke-width="0.5" stroke-linecap="round" stroke-linejoin="round" stroke-miterlimit="10" d="
	M102.646,53.52c0.624,0.347,1.067,0.938,1.603,1.399"/>
<path fill="none" stroke="#020303" stroke-width="0.5" stroke-linecap="round" stroke-linejoin="round" stroke-miterlimit="10" d="
	M108.461,59.246c1.31-7.205-9.727-3.287-12.581-1.074"/>
<path fill="none" stroke="#020303" stroke-width="0.5" stroke-linecap="round" stroke-linejoin="round" stroke-miterlimit="10" d="
	M95.88,58.172c-2.366-1.643-7.608-4.289-9.823-1.092c-1.967,2.844-1.687,8.825,1.688,10.252c1.848,0.781,4.074,0.768,6.033,1.082"/>
<path fill="none" stroke="#020303" stroke-width="0.5" stroke-linecap="round" stroke-linejoin="round" stroke-miterlimit="10" d="
	M94.354,61.419c-0.765-0.786-1.607-1.677-2.696-2.13"/>
<path fill="none" stroke="#020303" stroke-width="0.5" stroke-linecap="round" stroke-linejoin="round" stroke-miterlimit="10" d="
	M93.516,61.929c-0.47-0.424-1.054-0.768-1.646-1.002"/>
<path fill="none" stroke="#020303" stroke-width="0.5" stroke-linecap="round" stroke-linejoin="round" stroke-miterlimit="10" d="
	M96.762,57.262c-1.445,5.098-1.93,10.407-1.598,15.7c0.309,4.888,0.517,10.924,2.759,15.356c1.147,2.263,3.218,4.173,5.656,4.639"/>
<path fill="none" stroke="#020303" stroke-width="0.5" stroke-linecap="round" stroke-linejoin="round" stroke-miterlimit="10" d="
	M98.474,59.485c-0.298-2.974,11.542-3.984,10.351,0.005"/>
<path fill="none" stroke="#020303" stroke-width="0.5" stroke-linecap="round" stroke-linejoin="round" stroke-miterlimit="10" d="
	M98.109,59.238c-1.25,8.64-2.209,17.014-0.348,25.717c0.387,1.826,1.243,5.696,3.532,5.716"/>
<path fill="none" stroke="#020303" stroke-width="0.5" stroke-linecap="round" stroke-linejoin="round" stroke-miterlimit="10" d="
	M104.704,70.3c0.926,0.107,2.097,0.041,2.873,0.539"/>
<path fill="none" stroke="#020303" stroke-width="0.5" stroke-linecap="round" stroke-linejoin="round" stroke-miterlimit="10" d="
	M111.907,70.538c0.215-0.286,0.527-0.535,0.857-0.705"/>
<path fill="none" stroke="#020303" stroke-width="0.5" stroke-linecap="round" stroke-linejoin="round" stroke-miterlimit="10" d="
	M109.123,60.33c0.364-0.726,1.238-1.369,2.081-1.168"/>
<path fill="none" stroke="#020303" stroke-width="0.5" stroke-linecap="round" stroke-linejoin="round" stroke-miterlimit="10" d="
	M110.125,61.86c0.929-0.442,1.79-1.075,2.855-1.082"/>
<path fill="none" stroke="#020303" stroke-width="0.5" stroke-linecap="round" stroke-linejoin="round" stroke-miterlimit="10" d="
	M110.851,64.163c0.792-0.115,1.544-0.075,2.333,0.072"/>
<path fill="none" stroke="#020303" stroke-width="0.5" stroke-linecap="round" stroke-linejoin="round" stroke-miterlimit="10" d="
	M112.604,65.982c0.579,0.07,1.155,0.135,1.734,0.203"/>
<path fill="none" stroke="#020303" stroke-width="0.5" stroke-linecap="round" stroke-linejoin="round" stroke-miterlimit="10" d="
	M111.982,66.311c0.502,2.353,1.453,4.795,1.354,7.219"/>
<path fill="none" stroke="#020303" stroke-width="0.5" stroke-linecap="round" stroke-linejoin="round" stroke-miterlimit="10" d="
	M111.644,72.93c0.27,1.349,1.702,2.212,1.339,3.767c-0.153,0.666-0.732,0.919-0.954,1.505c-0.246,0.657-0.174,1.702-0.254,2.406"/>
<path fill="none" stroke="#020303" stroke-width="0.5" stroke-linecap="round" stroke-linejoin="round" stroke-miterlimit="10" d="
	M111.943,73.772c-0.732,1.056-1.956,4.067,0.545,3.895"/>
<path fill="none" stroke="#020303" stroke-width="0.5" stroke-linecap="round" stroke-linejoin="round" stroke-miterlimit="10" d="
	M111.733,81.006c-1.639-0.571-2.136,1.962-3.715,1.78"/>
<path fill="none" stroke="#020303" stroke-width="0.5" stroke-linecap="round" stroke-linejoin="round" stroke-miterlimit="10" d="
	M112.161,80.651c-0.026,0.277,0.012,0.555,0.106,0.819"/>
<path fill="none" stroke="#020303" stroke-width="0.5" stroke-linecap="round" stroke-linejoin="round" stroke-miterlimit="10" d="
	M109.221,82.524c0.83-0.015,1.589,0.644,2.143,0.047"/>
<path fill="none" stroke="#020303" stroke-width="0.5" stroke-linecap="round" stroke-linejoin="round" stroke-miterlimit="10" d="
	M108.563,79.623c-1.297-0.304-2.327-1.285-2.846-2.549"/>
<path fill="none" stroke="#020303" stroke-width="0.5" stroke-linecap="round" stroke-linejoin="round" stroke-miterlimit="10" d="
	M107.296,80.487c-0.896-0.103-1.831-0.382-2.655-0.718"/>
<path fill="none" stroke="#020303" stroke-width="0.5" stroke-linecap="round" stroke-linejoin="round" stroke-miterlimit="10" d="
	M107.187,81.481c-0.813,0.098-1.746,0.675-2.468,1.121"/>
<path fill="none" stroke="#020303" stroke-width="0.5" stroke-linecap="round" stroke-linejoin="round" stroke-miterlimit="10" d="
	M106.369,83.606c-0.675,0.237-1.136,0.96-1.357,1.651"/>
<path fill="none" stroke="#020303" stroke-width="0.5" stroke-linecap="round" stroke-linejoin="round" stroke-miterlimit="10" d="
	M113.189,80.17c0.028,0.006,1.081,0.542,1.478,0.774"/>
<path fill="none" stroke="#020303" stroke-width="0.5" stroke-linecap="round" stroke-linejoin="round" stroke-miterlimit="10" d="
	M112.971,82.158c0.347,0.225,0.722,0.333,1.136,0.338"/>
<path fill="none" stroke="#020303" stroke-width="0.5" stroke-linecap="round" stroke-linejoin="round" stroke-miterlimit="10" d="
	M113.139,75.318c0.063,1.588,0.666,2.756,0.481,4.499"/>
<path fill="none" stroke="#020303" stroke-width="0.5" stroke-linecap="round" stroke-linejoin="round" stroke-miterlimit="10" d="
	M113.439,83.222c-1.705,2.281-0.563,6.226-2.841,8.041c-2.039,1.625-5.153,1.271-7.533,1.028"/>
<path fill="none" stroke="#020303" stroke-width="0.5" stroke-linecap="round" stroke-linejoin="round" stroke-miterlimit="10" d="
	M102.768,73.702c0.841-0.81,3.008-1.208,4.203-0.919"/>
<path fill="none" stroke="#020303" stroke-width="0.5" stroke-linecap="round" stroke-linejoin="round" stroke-miterlimit="10" d="
	M106.328,73.313c0.156,0.265,0.236,0.569,0.057,0.986c-0.95,0.207-3.303-0.784-3.684,0"/>
<path fill="none" stroke="#020303" stroke-width="0.5" stroke-linecap="round" stroke-linejoin="round" stroke-miterlimit="10" d="
	M105.363,73.2c-0.005,0.094,0.335,0.242,0.749,0.288"/>
<path fill="none" stroke="#020303" stroke-width="0.5" stroke-linecap="round" stroke-linejoin="round" stroke-miterlimit="10" d="
	M111.215,91.029c-0.386,0.007-0.298,1.017,0.139,1.645c-0.864-0.241-2.084-0.341-1.613,0.919c-0.615-0.308-0.929-0.273-1.222,0.322
	c-0.684-0.525-1.579-0.792-2.283-0.243"/>
<path fill="none" stroke="#020303" stroke-width="0.5" stroke-linecap="round" stroke-linejoin="round" stroke-miterlimit="10" d="
	M103.742,96.81c-0.483,1.665,1.708,3.871,2.008,5.535c0.529,2.978-1.074,6.656-2.258,9.156"/>
<path fill="none" stroke="#020303" stroke-width="0.5" stroke-linecap="round" stroke-linejoin="round" stroke-miterlimit="10" d="
	M80.067,102.501c1.63,1.72,3.337,4.79,3.905,7.114"/>
<path fill="none" stroke="#020303" stroke-width="0.5" stroke-linecap="round" stroke-linejoin="round" stroke-miterlimit="10" d="
	M79.585,98.011c-3.131,0.239-6.385,1.875-9.452,2.468c-2.17,0.418-6.978,0.534-8.457,2.286"/>
<path fill="none" stroke="#020303" stroke-width="0.5" stroke-linecap="round" stroke-linejoin="round" stroke-miterlimit="10" d="
	M64.097,103.854c-6.632-1.298-7.706,4.33-10.788,9.134c-3.262,5.083-8.036,8.505-8.605,15.008c-0.47,5.361,0.331,11.298,1.17,16.59
	c0.924,5.779,2.828,11.575,5.701,16.639c3.035,5.34,7.751,8.626,12.484,12.206"/>
<path fill="none" stroke="#020303" stroke-width="0.5" stroke-linecap="round" stroke-linejoin="round" stroke-miterlimit="10" d="
	M62.458,152.468c0.825-1.383,4.613-0.319,5.806,0.417c1.259,0.788,2.445,2.086,2.914,3.534c0.698,2.151,0.768,2.636,2.327,4.367
	c0.804,0.895,2.493,2.886,2.011,4.071c-1.39,0.293-2.943,1.185-4.26,1.809c-1.969,0.928-3.261,3.241-5.133,3.977"/>
<path fill="none" stroke="#020303" stroke-width="0.5" stroke-linecap="round" stroke-linejoin="round" stroke-miterlimit="10" d="
	M63.458,173.561c0.812,1.234,1.304,1.679,2.926,1.757c1.341,0.059,2.696,0.111,4.077,0.273"/>
<path fill="none" stroke="#020303" stroke-width="0.5" stroke-linecap="round" stroke-linejoin="round" stroke-miterlimit="10" d="
	M66.39,175.318c1.312,0.953,2.075,2.09,2.599,3.508c0.561,1.527,0.893,1.982,2.704,2.158c1.633,0.152,2.509-0.209,3.67-1.094
	c0.646-0.494,0.594-0.752,1.455-0.949c0.791-0.184,1.295,0.568,1.907-0.359"/>
<path fill="none" stroke="#020303" stroke-width="0.5" stroke-linecap="round" stroke-linejoin="round" stroke-miterlimit="10" d="
	M74.971,163.015c2.77,3.306,11.01,2.268,9.984,8.396c-1.429-0.504-0.929,0.449-1.453,1.083c-0.638,0.781-0.452,1.055-1.816,0.816
	c-0.651,2.065-1.687,3.956-3.003,5.667"/>
<path fill="none" stroke="#020303" stroke-width="0.5" stroke-linecap="round" stroke-linejoin="round" stroke-miterlimit="10" d="
	M84.291,172.376c1.893,5.336,6.209,8.172,5.482,14.411c-0.84,7.203-7.722,6.4-12.031,2.859c-2.792-2.293-4.401-4.943-5.56-8.404"/>
<path fill="none" stroke="#020303" stroke-width="0.5" stroke-linecap="round" stroke-linejoin="round" stroke-miterlimit="10" d="
	M78.845,182.832c0.854,0.184,2.608-0.582,3.476-1.629c0.751-0.908,1.058-3.086,2.153-3.363"/>
<path fill="none" stroke="#020303" stroke-width="0.5" stroke-linecap="round" stroke-linejoin="round" stroke-miterlimit="10" d="
	M85.709,180.809c-0.763,0.953-0.869,2.828-1.231,4.094"/>
<path fill="none" stroke="#020303" stroke-width="0.5" stroke-linecap="round" stroke-linejoin="round" stroke-miterlimit="10" d="
	M86.258,184.707c0.199,0.631,0.068,1.32-0.029,2.012"/>
<path fill="none" stroke="#020303" stroke-width="0.5" stroke-linecap="round" stroke-linejoin="round" stroke-miterlimit="10" d="
	M66.209,152.1c-0.036-2.232-0.361-4.51,0.15-6.723c0.76-3.27,3.958-6.438,4.002-9.731"/>
<path fill="none" stroke="#020303" stroke-width="0.5" stroke-linecap="round" stroke-linejoin="round" stroke-miterlimit="10" d="
	M69.959,133.987c0.098-0.27,0.08-0.68,0.077-0.966c-0.674-0.128-1.383-0.181-2.057-0.303c-0.023-2.416,1.333-4.935,1.736-7.315
	c0.262-1.539,0.225-2.657-0.237-4.134c-0.573-1.835-2.13-3.951-1.959-5.921"/>
<path fill="none" stroke="#020303" stroke-width="0.5" stroke-linecap="round" stroke-linejoin="round" stroke-miterlimit="10" d="
	M68.583,118.092c0.232-0.677,1.125-0.977,1.847-0.786"/>
<path fill="none" stroke="#020303" stroke-width="0.5" stroke-linecap="round" stroke-linejoin="round" stroke-miterlimit="10" d="
	M68.942,120.152c0.384,0.05,0.773,0.093,1.157,0.137"/>
<path fill="none" stroke="#020303" stroke-width="0.5" stroke-linecap="round" stroke-linejoin="round" stroke-miterlimit="10" d="
	M69.964,123.3c0.299-0.033,0.569-0.133,0.815-0.309"/>
<path fill="none" stroke="#020303" stroke-width="0.5" stroke-linecap="round" stroke-linejoin="round" stroke-miterlimit="10" d="
	M75.054,110.793c-0.472,1.902-1.37,3.747-1.99,5.608"/>
<path fill="none" stroke="#020303" stroke-width="0.5" stroke-linecap="round" stroke-linejoin="round" stroke-miterlimit="10" d="
	M80.119,116.224c-0.833,1.235-1.422,3.002-2.139,4.36c-1.354,2.566-2.574,5.314-4.087,7.817"/>
<path fill="none" stroke="#020303" stroke-width="0.5" stroke-linecap="round" stroke-linejoin="round" stroke-miterlimit="10" d="
	M79.519,134.099c-0.682,1.318-1.445,2.719-2.197,3.977"/>
<path fill="none" stroke="#020303" stroke-width="0.5" stroke-linecap="round" stroke-linejoin="round" stroke-miterlimit="10" d="
	M81.342,142.384c-0.787,1.242-1.549,2.544-2.366,3.758"/>
<path fill="none" stroke="#020303" stroke-width="0.5" stroke-linecap="round" stroke-linejoin="round" stroke-miterlimit="10" d="
	M57.696,135.37c-2.447-1.63,2.151-4.782,3.736-1.977"/>
<path fill="none" stroke="#020303" stroke-width="0.5" stroke-linecap="round" stroke-linejoin="round" stroke-miterlimit="10" d="
	M59.018,139.359c-0.462-0.135-0.996-0.447-1.287-0.756"/>
<path fill="none" stroke="#020303" stroke-width="0.5" stroke-linecap="round" stroke-linejoin="round" stroke-miterlimit="10" d="
	M62.792,147.662c-0.783,0.771-0.988,1.517-2.309,1.855c-1.801,0.456-5.329-0.02-5.237-2.532"/>
<path fill="none" stroke="#020303" stroke-width="0.5" stroke-linecap="round" stroke-linejoin="round" stroke-miterlimit="10" d="
	M62.626,143.818c0.634,0.049,1.217,0.338,1.671,0.801"/>
<path fill="none" stroke="#020303" stroke-width="0.5" stroke-linecap="round" stroke-linejoin="round" stroke-miterlimit="10" d="
	M59.03,125.043c1.772,0.283,5.005,0.607,5.884,3.314"/>
<path fill="none" stroke="#020303" stroke-width="0.5" stroke-linecap="round" stroke-linejoin="round" stroke-miterlimit="10" d="
	M65.819,109.503c0.091-0.75,0.657-1.204,1.332-1.458"/>
<path fill="none" stroke="#020303" stroke-width="0.5" stroke-linecap="round" stroke-linejoin="round" stroke-miterlimit="10" d="
	M118.544,106.099c7.523,4.757,6.896,13.223,3.533,20.53c-4.129,8.972-9.987,16.893-13.924,25.956"/>
<path fill="none" stroke="#020303" stroke-width="0.5" stroke-linecap="round" stroke-linejoin="round" stroke-miterlimit="10" d="
	M104.551,98.315c1.44,1.354,3.16,2.373,4.919,3.257"/>
<path fill="none" stroke="#020303" stroke-width="0.5" stroke-linecap="round" stroke-linejoin="round" stroke-miterlimit="10" d="
	M116.16,138.398c-0.225,1.92-0.439,3.917-0.225,5.834c0.113,1.015,0.43,2.008,0.583,3.007c0.398,2.567,0.104,4.933-0.205,7.517"/>
<path fill="none" stroke="#020303" stroke-width="0.5" stroke-linecap="round" stroke-linejoin="round" stroke-miterlimit="10" d="
	M116.203,137.999c0.213,5.377,1.887,10.45,2.382,15.777c0.195,2.122,0.868,4.348,0.14,6.434c-1.063,3.046-3.982,1.185-5.916-0.221"
	/>
<path fill="none" stroke="#020303" stroke-width="0.5" stroke-linecap="round" stroke-linejoin="round" stroke-miterlimit="10" d="
	M118.658,160.073c-0.371,1.468,0.801,3.082,1.277,4.387c0.588,1.624,0.958,3.248,1.207,4.943c0.289,2.001,1.055,7.898-0.645,9.441"
	/>
<path fill="none" stroke="#020303" stroke-width="0.5" stroke-linecap="round" stroke-linejoin="round" stroke-miterlimit="10" d="
	M56.619,183.512c2.115,3.189,1.173,7.902,6.085,9.32"/>
<path fill="none" stroke="#020303" stroke-width="0.5" stroke-linecap="round" stroke-linejoin="round" stroke-miterlimit="10" d="
	M56.526,167.304c0.186,1.75,0.687,3.469,0.617,5.239"/>
<path fill="none" stroke="#020303" stroke-width="0.5" stroke-linecap="round" stroke-linejoin="round" stroke-miterlimit="10" d="
	M61.293,191.459c0.335-2.938,2.059-4.846,3.736-7.207c0.524-0.742,1.743-3.244,2.626-3.447c0.55-0.129,2.551,0.912,3.002,1.436
	c0.354-0.473,0.475-0.078,0.643-0.092"/>
<path fill="none" stroke="#020303" stroke-width="0.5" stroke-linecap="round" stroke-linejoin="round" stroke-miterlimit="10" d="
	M89.904,183.525c2.078,0.234,4.256,0.576,6.246,0.723c1.624,0.111,1.764-1.07,3.183-1.242c0.451-0.049,0.94,0.309,1.314,0.299
	c0.417-0.01,0.83-0.234,1.171-0.268c0.287-0.025,0.972,0.086,1.233-0.031c0.495-0.238,0.843-0.965,1.263-1.107
	c0.525-0.166,0.848,0.338,1.279,0.25c0.514-0.117,0.892-0.49,1.326-0.625c0.871-0.256,1.948-0.377,2.872-0.467
	c1.03-0.107,2.049-0.281,2.908-0.414c1.066-0.162,2.169-0.357,3.265-0.521c1.293-0.191,2.57,0.443,3.676-0.572"/>
<path fill="none" stroke="#020303" stroke-width="0.5" stroke-linecap="round" stroke-linejoin="round" stroke-miterlimit="10" d="
	M111.048,177.73c1.103-0.297,1.655-1.715,2.779-2.08c0.139,0.436,0.29,1.611,0.771,1.818c0.591,0.258,0.711-0.535,1.217-0.594
	c0.352-0.039,1.146,0.273,1.36,0.195c0.527-0.189,1.006-0.951,1.465-1.258c-0.009,0.307,0.188,0.633,0.16,0.98
	c0.637-0.15,1.361-0.199,1.465,0.605"/>
<path fill="none" stroke="#020303" stroke-width="0.5" stroke-linecap="round" stroke-linejoin="round" stroke-miterlimit="10" d="
	M119.937,180.389c0.062,2.393-0.928,6.205-1.9,8.543c-0.451,1.096-1.741,2.504-1.792,3.625c-0.05,1.031,0.488,1.213,0.899,2.088
	c0.656,1.41,0.342,2.658,0.176,4.191"/>
<path fill="none" stroke="#020303" stroke-width="0.5" stroke-linecap="round" stroke-linejoin="round" stroke-miterlimit="10" d="
	M62.585,188.586c-0.215,2.053-0.364,4.979-0.001,7.143c0.41,2.447,1.822,4.342,1.78,6.877c-0.05,2.596-0.763,5.072-1.038,7.621
	c-0.314,2.902,0.384,5.01,1.09,7.773c0.851,3.336,0.521,7.061,0.795,10.617"/>
<path fill="none" stroke="#020303" stroke-width="0.5" stroke-linecap="round" stroke-linejoin="round" stroke-miterlimit="10" d="
	M64.466,217.645c-2.136,1.693-4.095,6.402-4.883,9.018c-0.717,2.379-1.663,9.771,2.2,10.029"/>
<path fill="none" stroke="#020303" stroke-width="0.5" stroke-linecap="round" stroke-linejoin="round" stroke-miterlimit="10" d="
	M58.882,231.107c-0.176,3.445-1.508,6.721-1.729,10.172c-0.25,3.941,1.079,7.795,0.965,11.771
	c-0.207,7.455,0.828,14.646,2.709,21.873c0.813,3.145,1.507,7.059,3.715,9.486"/>
<path fill="none" stroke="#020303" stroke-width="0.5" stroke-linecap="round" stroke-linejoin="round" stroke-miterlimit="10" d="
	M64.585,284.014c2.328,0.275,4.884,0.645,7.439-0.277c2.387-0.865,5.024-2.293,7.527-2.609"/>
<path fill="none" stroke="#020303" stroke-width="0.5" stroke-linecap="round" stroke-linejoin="round" stroke-miterlimit="10" d="
	M79.574,280.932c-0.042-2.266,1.91-4.396,2.444-6.6c0.628-2.58,1.038-5.262,1.494-7.879c0.827-4.754,0.186-9.771,0.43-14.555
	c0.13-2.559,1.219-6.088,0.547-8.514"/>
<path fill="none" stroke="#020303" stroke-width="0.5" stroke-linecap="round" stroke-linejoin="round" stroke-miterlimit="10" d="
	M72.926,265.025c3.732-2.516,6.092-8.574,7.715-12.682c1.381-3.484,2.945-6.938,3.983-10.557c1.884-6.543,2.365-13.953,3.096-20.725
	c0.447-4.143,1.84-7.834,2.484-11.891"/>
<path fill="none" stroke="#020303" stroke-width="0.5" stroke-linecap="round" stroke-linejoin="round" stroke-miterlimit="10" d="
	M90.098,210.16c-2.909,10.973-0.589,22.814-1.79,34.029c-0.58,5.398-1.339,10.797-1.845,16.199
	c-0.248,2.648,0.156,5.008,0.629,7.594c0.497,2.686,0.103,5.064-0.167,7.742c-0.306,3.02,0.293,5.154,3.119,6.418
	c2.826,1.256,5.77,2.008,8.554,3.443"/>
<path fill="none" stroke="#020303" stroke-width="0.5" stroke-linecap="round" stroke-linejoin="round" stroke-miterlimit="10" d="
	M117.647,197.664c-0.116-0.021-0.011-0.457-0.212-0.041c0.979,2.967,2.845,5.619,4.004,8.541c0.621,1.566,0.973,3.105,1.044,4.801
	c0.065,1.486-0.425,3.006-0.159,4.461c0.267,1.461,0.863,2.676,0.928,4.234c0.066,1.643-0.26,3.195-0.375,4.822
	c-0.23,3.342,0.355,6.367-0.416,9.746c-0.642,2.838-2.115,5.467-2.718,8.262c-0.657,3.063-0.214,6.34-0.995,9.434
	c-0.728,2.906-2.275,5.857-2.563,8.846c-0.283,2.938,0.507,6.074,0.453,9.049c-0.032,1.689,0.072,3.576-0.296,5.221
	c-0.384,1.717-1.304,3.289-1.847,4.936c-0.604,1.855,0.213,2.945,0.527,4.787c0.276,1.613,0.32,3.357,0.11,4.979"/>
<path fill="none" stroke="#020303" stroke-width="0.5" stroke-linecap="round" stroke-linejoin="round" stroke-miterlimit="10" d="
	M98.939,286.027c1.547-1.719,6.395-0.172,8.355,0.176c2.798,0.498,5.332,1.266,7.714,2.916"/>
<path fill="none" stroke="#020303" stroke-width="0.5" stroke-linecap="round" stroke-linejoin="round" stroke-miterlimit="10" d="
	M78.568,281.215c0.232,6.346,4.943,11.055,8.713,15.766c1.884,1.885,0,4.713-1.884,4.713c-6.596,0-14.134-0.943-19.788-5.652
	c-2.826-3.771-0.942-8.48,1.186-12.066"/>
<path fill="none" stroke="#020303" stroke-width="0.5" stroke-linecap="round" stroke-linejoin="round" stroke-miterlimit="10" d="
	M99.583,285.498c-1.307,3.641-4.637,10.533-0.784,13.645c4.144,3.334,10.817,0.455,15.56,0.975
	c5.699,0.625,10.721,4.025,16.666,3.395c7.113-0.748-0.198-5.08-2.887-6.313c-5.235-2.412-9.856-5.398-14.633-8.66"/>
<path fill="none" stroke="#020303" stroke-width="0.5" stroke-linecap="round" stroke-linejoin="round" stroke-miterlimit="10" d="
	M124.687,121.25c-0.985,4.037-0.629,7.379,0.485,11.316c0.366,1.298-0.206,2.597,0.325,3.741c0.74,1.595,1.863,1.666,1.945,3.713
	c0.119,3.128-1.013,6.659-1.387,9.815c-0.344,2.951-0.718,6.01-0.563,8.874c0.154,2.876-3.734,6.85-6.717,5.607"/>
<path fill="none" stroke="#020303" stroke-width="0.5" stroke-linecap="round" stroke-linejoin="round" stroke-miterlimit="10" d="
	M123.429,162.845c-0.156,1.393-0.139,2.952-0.461,4.306c-0.303,1.285-1.225,2.001-1.719,3.104"/>
<path fill="none" stroke="#020303" stroke-width="0.5" stroke-linecap="round" stroke-linejoin="round" stroke-miterlimit="10" d="
	M105.018,185.494c-0.69,0.498-1.7,5.408-2.438,6.945c-1.137,2.375-2.499,4.705-4.133,6.729c-3.072,3.818-8.955,6.385-9.113,11.715"
	/>
<path fill="none" stroke="#020303" stroke-width="0.5" stroke-linecap="round" stroke-linejoin="round" stroke-miterlimit="10" d="
	M100.358,198.563c1.665,4.703,7.126,7.928,8.845,12.838"/>
<path fill="none" stroke="#020303" stroke-width="0.5" stroke-linecap="round" stroke-linejoin="round" stroke-miterlimit="10" d="
	M106.369,199.867c2.907,3.361,6.625,7.582,11.07,8.566"/>
<path fill="none" stroke="#020303" stroke-width="0.5" stroke-linecap="round" stroke-linejoin="round" stroke-miterlimit="10" d="
	M108.669,192.275c0.96,1.191,2.262,2.203,3.464,3.127"/>
<path fill="none" stroke="#020303" stroke-width="0.5" stroke-linecap="round" stroke-linejoin="round" stroke-miterlimit="10" d="
	M97.175,211.502c-0.179,1.48,0.732,2.98,1.194,4.348c0.823,2.438,1.308,4.912,1.878,7.416c1.762,7.836,2.901,15.834,4.752,23.637"/>
<path fill="none" stroke="#020303" stroke-width="0.5" stroke-linecap="round" stroke-linejoin="round" stroke-miterlimit="10" d="
	M93.16,237.346c-0.174,1.621,0.919,3.045,1.533,4.471c1.056,2.443,1.665,5.061,2.438,7.6c1.168,3.852,2.633,7.77,4.118,11.545
	c1.614,4.107,3.285,8.145,4.984,12.217c0.813,1.951,2.369,8.424,4.92,8.33"/>
<path fill="none" stroke="#020303" stroke-width="0.5" stroke-linecap="round" stroke-linejoin="round" stroke-miterlimit="10" d="
	M111.752,273.408c1.148,0.072,2.26-0.357,3.313-0.816"/>
<path fill="none" stroke="#020303" stroke-width="0.5" stroke-linecap="round" stroke-linejoin="round" stroke-miterlimit="10" d="
	M89.297,267.146c0.546,0.234,1.02,0.613,1.347,1.064"/>
<path fill="none" stroke="#020303" stroke-width="0.5" stroke-linecap="round" stroke-linejoin="round" stroke-miterlimit="10" d="
	M90.67,257.326c-0.11,0.596,0.211,0.787,0.802,0.695"/>
<path fill="none" stroke="#020303" stroke-width="0.5" stroke-linecap="round" stroke-linejoin="round" stroke-miterlimit="10" d="
	M80.335,210.131c-0.112,2.793-1.422,5.719-2.031,8.432c-0.726,3.225-1.575,6.449-2.32,9.652c-0.419,1.807-0.729,4.168-1.803,5.779
	c-1.298,1.934-3.391,2.15-5.327,3.225"/>
<path fill="none" stroke="#020303" stroke-width="0.5" stroke-linecap="round" stroke-linejoin="round" stroke-miterlimit="10" d="
	M76.443,237.506c0.771,0.787,1.478,1.59,2.405,2.096"/>
<path fill="none" stroke="#020303" stroke-width="0.5" stroke-linecap="round" stroke-linejoin="round" stroke-miterlimit="10" d="
	M76.941,243.613c-2.822,2.447-7.634,1.865-11.129,2.625"/>
<path fill="none" stroke="#020303" stroke-width="0.5" stroke-linecap="round" stroke-linejoin="round" stroke-miterlimit="10" d="
	M109.436,101.009c-0.901,10.277-3.428,20.405-8.416,29.489c-4.648,8.469-12.222,14.25-18.95,20.821
	c-2.953,2.883-6.002,5.701-9.274,8.21"/>
<path fill="none" stroke="#020303" stroke-width="0.5" stroke-linecap="round" stroke-linejoin="round" stroke-miterlimit="10" d="
	M111.546,102.991c0.947,20.8-8.913,36.134-22.693,50.395c-3.487,3.609-9.117,6.349-11.86,10.569"/>
<path fill="none" stroke="#020303" stroke-width="0.5" stroke-linecap="round" stroke-linejoin="round" stroke-miterlimit="10" d="
	M114.996,105.064c-1.156,19.339-8.86,39.174-22.596,52.881c-3.293,3.28-6.422,6.215-10.408,8.47"/>
<path fill="none" stroke="#020303" stroke-width="0.5" stroke-linecap="round" stroke-linejoin="round" stroke-miterlimit="10" d="
	M118.056,106.182c-1.719,20.516-7.458,40.793-21.932,55.771c-3.212,3.323-6.835,6.42-10.622,9.014"/>
<path fill="none" stroke="#020303" stroke-width="0.5" stroke-linecap="round" stroke-linejoin="round" stroke-miterlimit="10" d="
	M59.548,171.589c-1.79,0.54-4.217,4.524-4.315,4.797"/>
<path fill="none" stroke="#020303" stroke-width="0.5" stroke-linecap="round" stroke-linejoin="round" stroke-miterlimit="10" d="
	M61.662,173.574c-0.607,0.844-2.816,2.901-3.425,4.85"/>
<path fill="none" stroke="#020303" stroke-width="0.5" stroke-linecap="round" stroke-linejoin="round" stroke-miterlimit="10" d="
	M64.217,175.586c-1.764-1.27-6.101,4.398-7.514,5.975"/>
<path fill="none" stroke="#020303" stroke-width="0.5" stroke-linecap="round" stroke-linejoin="round" stroke-miterlimit="10" d="
	M64.553,177.451c-3.056,0.172-5.417,3.197-7.875,4.564"/>
<path fill="none" stroke="#020303" stroke-width="0.5" stroke-linecap="round" stroke-linejoin="round" stroke-miterlimit="10" d="
	M56.011,178.279c-2.874-6.368-7.885,1.5,0.195,1.879c-1.868-1.182-3.289-3.496-5.34-3.986c-1.686,3.088,0.023,10.01,4.777,7.607
	c3.83-1.936-1.004-9.482-4.576-8.549c-3.866,1.012-2.839,9.404,1.24,9.678c4.881,0.326,1.972-6.756-1.557-0.973"/>
<path fill="none" stroke="#020303" stroke-width="0.5" stroke-linecap="round" stroke-linejoin="round" stroke-miterlimit="10" d="
	M49.86,183.877c-1.425,2.813-1.448,7.754-2.324,11.01c-1.324,4.932-2.346,9.859-3.267,14.852c-1.568,8.482-2.057,11.59-2.582,20.207
	"/>
<path fill="none" stroke="#020303" stroke-width="0.5" stroke-linecap="round" stroke-linejoin="round" stroke-miterlimit="10" d="
	M52.449,185.432c-1.065,17.35-2.897,34.547-0.893,51.627c-0.049,0.477-0.047,0.316,0.006-0.469"/>
<path fill="none" stroke="#020303" stroke-width="0.5" stroke-linecap="round" stroke-linejoin="round" stroke-miterlimit="10" d="
	M51.055,186.262c0.161,3.293-1.274,6.799-1.819,10.018c-0.908,5.346-1.227,10.641-1.56,16.072c-0.4,6.498,0.107,12.631,0.187,18.918
	"/>
<path fill="none" stroke="#020303" stroke-width="0.5" stroke-linecap="round" stroke-linejoin="round" stroke-miterlimit="10" d="
	M48.803,186.582c0.052,3.285-1.38,6.855-2.052,10.061c-1.1,5.252-1.123,10.35-1.743,15.656c-0.771,6.561-1.788,12.379-1.058,18.672
	c1.5-0.693,3.135-0.004,4.302,1.25"/>
<path fill="none" stroke="#020303" stroke-width="0.5" stroke-linecap="round" stroke-linejoin="round" stroke-miterlimit="10" d="
	M48.253,232.221c-0.824,0.318,1.109,6.289,3.638,6.234"/>
<path fill="none" stroke="#020303" stroke-width="0.5" stroke-linecap="round" stroke-linejoin="round" stroke-miterlimit="10" d="
	M41.688,229.945c0.712,0.98,1.007,1,2.263,1.025"/>
<path fill="none" stroke="#020303" stroke-width="0.5" stroke-linecap="round" stroke-linejoin="round" stroke-miterlimit="10" d="
	M55.09,186.064c-0.353,6.029-0.402,12.111-0.024,18.168c0.28,4.502,0.618,8.99,0.776,13.494c0.067,1.939-0.21,6.502,0.456,7.176"/>
<path fill="none" stroke="#020303" stroke-width="0.5" stroke-linecap="round" stroke-linejoin="round" stroke-miterlimit="10" d="
	M56.297,224.902c-1.865-0.453-5.011,0.373-5.539,1.373"/>
<path fill="none" stroke="#020303" stroke-width="0.5" stroke-linecap="round" stroke-linejoin="round" stroke-miterlimit="10" d="
	M109.343,100.656c1.565-0.294,2.104,0.848,2.291,2.179c1.07-1.18,3.264-1.404,3.277,0.898c1.028-0.011,2.351,0.78,3.01,1.611
	c0.407,0.511,0.848,3.007,0.747,1.801"/>
<path fill="none" stroke="#020303" stroke-width="0.5" stroke-linecap="round" stroke-linejoin="round" stroke-miterlimit="10" d="
	M145.949,29.425h-4.029c1.565,0.121,3.162-0.488,4.537-1.185c-0.635,0.125-1.333-0.062-1.949-0.039"/>
<path fill="none" stroke="#020303" stroke-width="0.5" stroke-linecap="round" stroke-linejoin="round" stroke-miterlimit="10" d="
	M151.77,20.72c0.01,0.315,0.103,0.717,0.11,1.048c0.385-0.57,1.047-1.385,1.656-1.72c0.031,0.281,0.049,0.543,0.087,0.825
	c0.458-0.098,1.268-0.078,1.72-0.259"/>
<path fill="none" stroke="#020303" stroke-width="0.5" stroke-linecap="round" stroke-linejoin="round" stroke-miterlimit="10" d="
	M146.245,29.718c0.286,1.954-1.515,3.206-1.461,5.254c0.052,1.944,1.239,3.527,1.461,5.486c0.281,2.424,0.098,3.477,1.246,5.672
	c0.811,1.544,2.555,3.484,2.281,5.316"/>
<path fill="none" stroke="#020303" stroke-width="0.5" stroke-linecap="round" stroke-linejoin="round" stroke-miterlimit="10" d="
	M152.021,42.438c-2.278-3.153-2.736,2.597-2.132,4.078c0.505,1.232,4.755,4.585,4.68,1.603"/>
<path fill="none" stroke="#020303" stroke-width="0.5" stroke-linecap="round" stroke-linejoin="round" stroke-miterlimit="10" d="
	M153.392,44.592c-0.225,0.875-2.438,0.536-2.344,1.567c0.109,1.286,2.419-0.213,2.375,1.339c0.152,0.039,0.425-0.024,0.557,0.032"/>
<path fill="none" stroke="#020303" stroke-width="0.5" stroke-linecap="round" stroke-linejoin="round" stroke-miterlimit="10" d="
	M152.413,42.048c0.923,0.254,1.36,1.207,2.167,1.55c0.133-0.346,0.446-0.732,0.529-1.102c0.111,0.792,0.32,1.629,0.285,2.436
	c0.05-0.275,0.118-0.566,0.15-0.874c-0.047,0.469-0.006,0.977-0.006,1.445c1.016-1.544,2.143-2.966,2.592-4.811
	c0.754,2.184,2.464-1.038,2.726-1.917c0.423-1.398,0.442-2.558,1.204-3.809c2.629-4.323,2.769,2.267,4.651,3.684
	c0.096-1.116-0.313-2.131-0.168-3.259c0.28,0.485,0.532,1.163,0.902,1.552c-0.002-0.415,0.229-0.746,0.276-1.138
	c0.235,0.216,0.696,0.21,0.897,0.338c0.102-0.163,0.376-0.47,0.429-0.583c0.088,0.015,0.296,0.229,0.279,0.228
	c0.178-0.084,0.51-0.184,0.711-0.182c1.009,0.931,0.945,2.048,1.749,3.029c0.314-0.77,0.747-1.765,1.131-2.452
	c0.082,0.587,0.227,1.153,0.589,1.528c0.241-0.543,0.444-1.138,0.684-1.679c0.117,0.53,0.437,1.048,0.889,1.297
	c0.117-0.514,0.262-1.014,0.428-1.487c0.086,0.354,0.325,0.698,0.403,1.049c0.954-4.077-1.163-6.778-4.007-9.521
	c-2.867-2.763-6.778-4.248-10.527-5.084c-1.019-0.226-1.805-0.675-2.74-0.998c-1.019-0.345-2.063-0.264-3.098-0.578"/>
<path fill="none" stroke="#020303" stroke-width="0.5" stroke-linecap="round" stroke-linejoin="round" stroke-miterlimit="10" d="
	M174.53,37.733c-0.033,0.661,0.259,1.275,0.047,1.829c-0.191,0.501-0.984,0.901-1.212,1.446c-0.495,1.149-0.153,2.55,0.304,3.622
	c0.439,1.017,1.484,2.309,0.629,3.459c-0.61,0.815-2.977,1.378-2.895-0.171"/>
<path fill="none" stroke="#020303" stroke-width="0.5" stroke-linecap="round" stroke-linejoin="round" stroke-miterlimit="10" d="
	M173.165,48.895c-0.002,0.711,0.017,1.432-0.041,2.135c-0.494-0.2-3.286,1.487-3.325,2.071c-0.046,0.661,1.073,1.135,1.617,1.043
	c0.843-0.142,1.015-0.957,0.963-1.918"/>
<path fill="none" stroke="#020303" stroke-width="0.5" stroke-linecap="round" stroke-linejoin="round" stroke-miterlimit="10" d="
	M171.403,55.354c0.224,1.536,0.546,3.349-1.265,3.926c-1.258,0.4-4.379,0.205-5.391-0.597"/>
<path fill="none" stroke="#020303" stroke-width="0.5" stroke-linecap="round" stroke-linejoin="round" stroke-miterlimit="10" d="
	M173.553,41.654c0.134,0.208,0.654,0.243,1.173,0"/>
<path fill="none" stroke="#020303" stroke-width="0.5" stroke-linecap="round" stroke-linejoin="round" stroke-miterlimit="10" d="
	M165.527,43.411c1.133,0.167,2.229-0.364,2.937-1.171"/>
<path fill="none" stroke="#020303" stroke-width="0.5" stroke-linecap="round" stroke-linejoin="round" stroke-miterlimit="10" d="
	M167.094,43.61c0.631-0.012,1.189,0.215,1.729,0.366c0.105-0.371,0.24-0.751,0.229-1.148"/>
<path fill="none" stroke="#020303" stroke-width="0.5" stroke-linecap="round" stroke-linejoin="round" stroke-miterlimit="10" d="
	M166.7,40.868c1.326,0.124,2.76-0.194,4.113-0.194"/>
<path fill="none" stroke="#020303" stroke-width="0.5" stroke-linecap="round" stroke-linejoin="round" stroke-miterlimit="10" d="
	M150.066,50.468c0.182,0.324,0.504,0.641,0.788,0.908c0.147-0.621,0.176-1.254,0.396-1.824c-0.029,0.345,0.014,0.693-0.02,1.038
	c0.154-0.345,0.483-0.844,0.598-1.108"/>
<path fill="none" stroke="#020303" stroke-width="0.5" stroke-linecap="round" stroke-linejoin="round" stroke-miterlimit="10" d="
	M151.437,50.857c-0.33,2.479,1.021,4.948,0.001,7.442"/>
<path fill="none" stroke="#020303" stroke-width="0.5" stroke-linecap="round" stroke-linejoin="round" stroke-miterlimit="10" d="
	M166.118,59.861c-0.705,1.125,0.154,6.577,1.177,7.239"/>
<path fill="none" stroke="#020303" stroke-width="0.5" stroke-linecap="round" stroke-linejoin="round" stroke-miterlimit="10" d="
	M151.244,55.752c-1.996,0.508-3.09,1.878-3.157,3.832c-0.068,2.008-1.161,2.917,0.495,4.254c1.51,1.222,3.361,3.687,5.499,3.728
	c0.798,0.015,1.38-0.57,2.157-0.285c0.703,0.252,1.191,1.286,1.893,1.667c1.766,0.984,2.945-0.166,4.468-1.066"/>
<path fill="none" stroke="#020303" stroke-width="0.5" stroke-linecap="round" stroke-linejoin="round" stroke-miterlimit="10" d="
	M150.658,57.51c0.117,1.521,2.527,2.655,3.697,3.354c1.694,1.01,3.213,2.253,4.991,3.112c1.337,0.653,2.595,1.191,3.742,2.161
	c0.65,0.554,1.368,1.546,2.213,1.521c0.25-0.617,0.357-0.501,0.985-0.532c-0.025,1.349,0.69,2.211,1.013,3.48
	c0.455,1.764,0.394,5.563,1.957,6.673"/>
<path fill="none" stroke="#020303" stroke-width="0.5" stroke-linecap="round" stroke-linejoin="round" stroke-miterlimit="10" d="
	M166.707,60.445c-0.101,1.801,0.671,4.094,0.772,6.019c0.139,2.628,0.396,5.109,0.993,7.682"/>
<path fill="none" stroke="#020303" stroke-width="0.5" stroke-linecap="round" stroke-linejoin="round" stroke-miterlimit="10" d="
	M167.489,61.031c-0.411,3.449,4.594,0.586,5.847,0.232c-1.334,0.83-2.001,3.372-2.096,4.839c0.098-0.112,0.42-0.339,0.571-0.511
	c-0.023,0.625,0.005,1.266-0.059,1.883c-0.002-0.01-0.142-0.399-0.181-0.543c-0.979-0.093-2.145-0.195-2.483,0.926
	c0.083,0.011,0.144-0.018,0.18-0.091c-0.048,0.356-0.175,0.709-0.244,1.059c-0.107,0.02-0.215,0.039-0.326,0.059
	c-0.091,1.215-0.03,2.47-0.03,3.697"/>
<path fill="none" stroke="#020303" stroke-width="0.5" stroke-linecap="round" stroke-linejoin="round" stroke-miterlimit="10" d="
	M171.404,64.356c3.79,2.016,8.605,3.305,10.283,7.551c1.813,4.597,3.002,9.369,3.813,14.243c0.339,2.016,0.373,4.32,1.355,6.152
	c-2.847-0.078-4.411,1.859-6.83,2.782"/>
<path fill="none" stroke="#020303" stroke-width="0.5" stroke-linecap="round" stroke-linejoin="round" stroke-miterlimit="10" d="
	M139.997,71.099c-4.937,9.126-7.765,19.492-6.524,30.631c2.271-0.441,0.073-2.954,0,0c2.271-0.441,4.487-1.291,6.82-1.353"/>
<path fill="none" stroke="#020303" stroke-width="0.5" stroke-linecap="round" stroke-linejoin="round" stroke-miterlimit="10" d="
	M138.914,73.566c2.866,0.893,5.052,0.786,7.254,3.13c1.848,1.962,2.391,4.111,2.566,6.777c0.163,2.481-0.438,4.969-0.433,7.465
	c0.005,1.972,0.198,4.043,0,6.014c-0.181,1.773-0.872,4.297-1.897,5.76c-0.628-0.884-4.715-3.796-4.939-2.135"/>
<path fill="none" stroke="#020303" stroke-width="0.5" stroke-linecap="round" stroke-linejoin="round" stroke-miterlimit="10" d="
	M146.36,101.748c-0.007,1.567-0.763,2.864-0.782,4.309"/>
<path fill="none" stroke="#020303" stroke-width="0.5" stroke-linecap="round" stroke-linejoin="round" stroke-miterlimit="10" d="
	M145.183,106.841c2.864,0,5.463-0.226,8.227-0.398c2.658-0.166,5.547-0.091,8.124-0.584c2.869-0.545,5.673-1.072,8.495-1.9
	c1.316-0.387,2.682-0.664,3.947-1.372c1.079-0.607,2.063-1.506,3.272-1.831c2.716-0.727,6.591-1.083,9.236,0.005"/>
<path fill="none" stroke="#020303" stroke-width="0.5" stroke-linecap="round" stroke-linejoin="round" stroke-miterlimit="10" d="
	M181.203,102.918c3.252,0.988,7.795,1.025,10.638,2.913c1.77,1.171,1.192,2.045-0.752,2.25c-1.91,0.204-3.673-0.397-5.379-1.148
	c-2.024-0.895-3.852-1.222-6.074-1.276"/>
<path fill="none" stroke="#020303" stroke-width="0.5" stroke-linecap="round" stroke-linejoin="round" stroke-miterlimit="10" d="
	M189.032,108.396c0.591,0.649,2.029,1.305,0.933,2.167c-0.774,0.607-2.743-0.419-3.445-0.717c-1.729-0.732-4.41-1.741-6.261-0.828
	c-0.002,0.188-0.013,0.324,0,0.521c1.738,0.46,4.507,0.343,5.901,1.586c2.408,2.138-1.624,2.084-3,1.765
	c-2.151-0.495-4.105-0.776-6.304-0.2c-2.243,0.596-3.558,1.362-5.931,0.794c-5.745-1.37-11.681,3.353-16.951,4.982
	c-4.033,1.25-7.967,1.25-12.139,1.485c-1.969,0.122-4.381,0.771-5.846-0.976"/>
<path fill="none" stroke="#020303" stroke-width="0.5" stroke-linecap="round" stroke-linejoin="round" stroke-miterlimit="10" d="
	M133.638,102.536c0,2.045-0.092,4.046-0.199,6.054c-0.109,2.081-0.514,7.48,1.374,8.625"/>
<path fill="none" stroke="#020303" stroke-width="0.5" stroke-linecap="round" stroke-linejoin="round" stroke-miterlimit="10" d="
	M139.316,121.128c-0.043,4.131-0.129,8.255-0.549,12.369c-0.273,2.618-1.228,5.828-0.588,8.448c1.137,4.675,9.326,5.31,13.16,5.99
	c4.625,0.817,9.248,0.901,13.898,0.172c4.681-0.742,9.661-1.402,14.248-2.538c6.258-1.549,5.481-7.015,5.245-12.318"/>
<path fill="none" stroke="#020303" stroke-width="0.5" stroke-linecap="round" stroke-linejoin="round" stroke-miterlimit="10" d="
	M174.752,148.329c-3.106,5.832-2.688,13.202-3.477,19.642c-0.344,2.795,0.127,5.607-0.271,8.396
	c-0.499,3.488-1.653,6.855-2.187,10.354c-0.404,2.637-1.104,5.217-1.487,7.85c-0.413,2.84-0.371,5.637-1.144,8.436
	c-0.64,2.328-1.301,5.572-2.978,7.406c-1.594,1.75-4.625,2.4-6.897,2.494c-3.116,0.131-5.933-1.662-8.575-3.109
	c-2.798-1.527-4.991-3.057-6.248-6.066"/>
<path fill="none" stroke="#020303" stroke-width="0.5" stroke-linecap="round" stroke-linejoin="round" stroke-miterlimit="10" d="
	M140.498,145.403c0.515,6.088,1.927,11.646,3.355,17.556c0.587,2.421,1.012,4.979,1.281,7.455c0.225,1.998-0.797,2.519-1.432,4.248
	c-0.539,1.482-0.33,3.264-0.719,4.814c-0.436,1.758-0.542,3.168-0.309,4.963c0.219,1.66,0.094,3.291,0.371,4.934
	c0.39,2.316-0.434,1.635-1.374,3.395c-0.692,1.301-0.254,4.068-0.056,5.492c0.316,2.232,0.004,4.395,0.268,6.643"/>
<path fill="none" stroke="#020303" stroke-width="0.5" stroke-linecap="round" stroke-linejoin="round" stroke-miterlimit="10" d="
	M143.248,185.523c-0.758,3.379,7.41,5.822,9.629,5.598c4.383-0.449,8.295-2.773,10.534-6.576"/>
<path fill="none" stroke="#020303" stroke-width="0.5" stroke-linecap="round" stroke-linejoin="round" stroke-miterlimit="10" d="
	M147.751,185.332c-1.619,2.092,3.618,2.176,0.393-0.781"/>
<path fill="none" stroke="#020303" stroke-width="0.5" stroke-linecap="round" stroke-linejoin="round" stroke-miterlimit="10" d="
	M143.638,175.738c1.598,2.551,5.955,3.85,8.796,4.061c2.813,0.213,5.353,0.283,8.119,0.916c1.144,0.264,2.174,0.518,3.215-0.068
	c-0.174,1.627-0.156,4.252-0.747,5.799c-0.037-0.131-0.105-0.242-0.2-0.34"/>
<path fill="none" stroke="#020303" stroke-width="0.5" stroke-linecap="round" stroke-linejoin="round" stroke-miterlimit="10" d="
	M163.02,186.105c-1.598,3.047-1.272,6.949-1.754,10.262c-0.396,2.732-1.06,5.457-1.188,8.227c-0.055,1.188,0.261,2.518-0.218,3.615
	c-0.154,0.035-0.273-0.023-0.357-0.176"/>
<path fill="none" stroke="#020303" stroke-width="0.5" stroke-linecap="round" stroke-linejoin="round" stroke-miterlimit="10" d="
	M142.078,201.576c1.057,1.461,2.605,3.297,4.196,4.127c0.684,0.354,1.474,0.178,2.136,0.451c0.809,0.33,1.268,1.129,2.051,1.461
	c0.971,0.4,1.229-0.068,2.191-0.178c1.014-0.125,1.136,0.061,2.032,0.363c0.903,0.307,2.896,0.918,3.64,0.623"/>
<path fill="none" stroke="#020303" stroke-width="0.5" stroke-linecap="round" stroke-linejoin="round" stroke-miterlimit="10" d="
	M154.787,150.092c-0.14-0.029-2.232,2.786-2.746,3.339c-1.367,1.471-2.66,3.16-4.674,3.765c1.87,0.882,1.543,5.792,1.646,7.455
	c0.31,4.937-0.218,9.925-0.134,14.81c-0.188-0.363-0.213-0.898-0.15-1.373"/>
<path fill="none" stroke="#020303" stroke-width="0.5" stroke-linecap="round" stroke-linejoin="round" stroke-miterlimit="10" d="
	M146.567,146.965c-0.065,2.138,0.41,4.188,0.972,6.245c0.408,1.494,1.972,3.248,1.967,4.715"/>
<path fill="none" stroke="#020303" stroke-width="0.5" stroke-linecap="round" stroke-linejoin="round" stroke-miterlimit="10" d="
	M148.134,156.753c-0.08,0.797,2.058,1.706,2.808,2.018c2.351,0.996,5.186,0.583,7.304-0.784c2.107-1.363,3.727-3.801,4.897-5.948
	c0.375-0.69,1.453-3.033,0.843-3.121"/>
<path fill="none" stroke="#020303" stroke-width="0.5" stroke-linecap="round" stroke-linejoin="round" stroke-miterlimit="10" d="
	M159.095,149.308c-0.662,0.749-2.795,2.948-2.18,3.827c1.518,2.161,2.512-1.953,2.767-2.454"/>
<path fill="none" stroke="#020303" stroke-width="0.5" stroke-linecap="round" stroke-linejoin="round" stroke-miterlimit="10" d="
	M179.645,145.585c-0.383,0.8-0.27,1.787-0.909,2.743c-0.959,1.438-3.382,4.426-5.156,4.699"/>
<path fill="none" stroke="#020303" stroke-width="0.5" stroke-linecap="round" stroke-linejoin="round" stroke-miterlimit="10" d="
	M185.998,154.788c0.885,12.125-0.999,24.374-1.941,36.626c-0.942,3.768-1.884,7.537-5.654,9.42
	c-3.769,1.885-8.48,1.885-11.661-2.004"/>
<path fill="none" stroke="#020303" stroke-width="0.5" stroke-linecap="round" stroke-linejoin="round" stroke-miterlimit="10" d="
	M172.222,202.352c-1.458,7.787-2.7,15.527-2.538,23.49"/>
<path fill="none" stroke="#020303" stroke-width="0.5" stroke-linecap="round" stroke-linejoin="round" stroke-miterlimit="10" d="
	M156.567,212.535c-0.14,1.146-0.437,2.314-0.596,3.52c-0.837,6.334,0.4,12.184,1.106,18.535"/>
<path fill="none" stroke="#020303" stroke-width="0.5" stroke-linecap="round" stroke-linejoin="round" stroke-miterlimit="10" d="
	M143.839,207.252c1.242,3.186,1.06,7.49,1.637,10.871c1.042,6.08,3.629,11.881,5.613,17.703"/>
<path fill="none" stroke="#020303" stroke-width="0.5" stroke-linecap="round" stroke-linejoin="round" stroke-miterlimit="10" d="
	M159.697,212.342c0.017,8.262-1.366,16.104,2.552,23.875"/>
<path fill="none" stroke="#020303" stroke-width="0.5" stroke-linecap="round" stroke-linejoin="round" stroke-miterlimit="10" d="
	M162.05,231.326c-0.674,0.158-0.789,0.859-0.783,1.564"/>
<path fill="none" stroke="#020303" stroke-width="0.5" stroke-linecap="round" stroke-linejoin="round" stroke-miterlimit="10" d="
	M160.68,234.066c1.742,0.496,3.044,1.844,4.861,2.338c1.671,0.453,4.626,0.98,6.246,0.047c-0.301,0.055-0.779-0.086-1.095-0.068
	c0.022-0.895-0.261-1.645-0.426-2.52c-0.082-0.412-0.207-2.424-0.192-1.756"/>
<path fill="none" stroke="#020303" stroke-width="0.5" stroke-linecap="round" stroke-linejoin="round" stroke-miterlimit="10" d="
	M170.075,232.496c-0.21-0.059-0.325,0.096-0.374-0.143c0.829-0.352,1.479-1.076,1.984-1.803c1.904,0.986,1.621,4.016,1.755,5.834
	c0.185-0.039,0.555-0.07,0.748-0.176"/>
<path fill="none" stroke="#020303" stroke-width="0.5" stroke-linecap="round" stroke-linejoin="round" stroke-miterlimit="10" d="
	M148.453,236.055c2.176,2.133,6.554,0.139,9.033-0.428c-0.025-0.559-0.201-0.221,0.415-0.957c0.007,0.195-0.034,0.381-0.122,0.555
	c0.098-0.193,0.227-0.381,0.289-0.586c-1.064-0.033-4.342,1.227-3.633,2.688c-1.562-2.525,0.186-3.387,2.646-3.684
	c2.366-0.279,4.409,1.086,4.153,3.727c-1.769-0.438-3.462,0.982-4.317-1.344c-0.546-1.492,0.242-3.525,1.433-4.465
	c0.601,1.545,0.095,3.273-0.07,4.857c0.005-0.891,0.419-1.695,1.196-2.141c-0.009,0.621,0.269,0.84,0.421,1.379
	c0.194-0.293,0.466-0.49,0.637-0.807c0.606,0.873,0.445,1.975-0.237,2.766c-0.886-0.715-3.889-1.066-4.892-0.439
	c-1.207,0.76,0.331,2.574-1.378,3.547"/>
<path fill="none" stroke="#020303" stroke-width="0.5" stroke-linecap="round" stroke-linejoin="round" stroke-miterlimit="10" d="
	M149.525,238.566c-0.085-0.232-0.238-0.258-0.2-0.527c0.036,1.406,0.21,3.621-0.386,4.838"/>
<path fill="none" stroke="#020303" stroke-width="0.5" stroke-linecap="round" stroke-linejoin="round" stroke-miterlimit="10" d="
	M170.075,224.863c0,2.936,0,5.869,0,8.805"/>
<path fill="none" stroke="#020303" stroke-width="0.5" stroke-linecap="round" stroke-linejoin="round" stroke-miterlimit="10" d="
	M183.624,99.734c0.979-0.758,1.833-1.658,2.768-2.475c0.846-0.741,1.744-1.243,2.691-1.819c0.526-0.322,1.48-1.362,2.167-1.113
	c0.699,0.247,0.459,1.395,0.234,1.894c-0.423,0.947-1.001,1.811-1.402,2.78"/>
<path fill="none" stroke="#020303" stroke-width="0.5" stroke-linecap="round" stroke-linejoin="round" stroke-miterlimit="10" d="
	M191.915,95.11c-0.044,0.228,3.074,0.075,3.524-0.072"/>
<path fill="none" stroke="#020303" stroke-width="0.5" stroke-linecap="round" stroke-linejoin="round" stroke-miterlimit="10" d="
	M185.385,102.965c1.084-0.537,2.232-1.748,3.194-2.534c1.063-0.877,2.133-1.747,3.148-2.714c2.341-2.224,5.071-4.04,7.452-6.207
	c0.917-0.833,2.309-1.556,3.01-2.569"/>
<path fill="none" stroke="#020303" stroke-width="0.5" stroke-linecap="round" stroke-linejoin="round" stroke-miterlimit="10" d="
	M202.557,88.79c-0.091-0.01-0.195-0.005-0.283,0.013c0.033,0.853,0.764,1.621,1.145,2.346c0.347,0.654,0.766,1.303,1.231,1.876
	c0.514,0.633,1.146,1.201,1.806,1.694c0.999,0.735,1.771,1.362,2.594,2.307c1.189,1.368,2.187,2.957,3.512,4.201
	c0.838,0.786,1.784,1.402,2.573,2.235c0.653,0.692,1.272,1.243,2.041,1.792c0.722,0.516,1.466,1.037,2.23,1.499
	c0.569,0.348,1.238,0.921,1.935,0.89c0.149-0.379,0.186-0.973,0.231-1.36c0.159,0.579,0.221,1.116-0.22,1.663"/>
<path fill="none" stroke="#020303" stroke-width="0.5" stroke-linecap="round" stroke-linejoin="round" stroke-miterlimit="10" d="
	M168.578,116.107c0.566-0.063,1.523-1.012,2.132-1.401c0.416-0.264,0.877-0.491,1.244-0.802"/>
<path fill="none" stroke="#020303" stroke-width="0.5" stroke-linecap="round" stroke-linejoin="round" stroke-miterlimit="10" d="
	M168.504,116.33c2.729,4.569,6.351,8.163,10.295,11.687c1.269,1.137,2.688,2.057,3.869,3.305c1.175,1.235,2.489,2.307,3.942,3.205
	c0.755,0.469,1.537,0.846,2.276,1.341c0.644,0.428,1.319,1.03,2.086,1.227"/>
<path fill="none" stroke="#020303" stroke-width="0.5" stroke-linecap="round" stroke-linejoin="round" stroke-miterlimit="10" d="
	M190.825,137.169c0.098,0.068,0.197,0.145,0.295,0.215"/>
<path fill="none" stroke="#020303" stroke-width="0.5" stroke-linecap="round" stroke-linejoin="round" stroke-miterlimit="10" d="
	M190.825,137.169c0.591,0.364,0.571,0.171,0.968-0.273c0.263-0.294,0.539-0.566,0.803-0.866c0.499-0.564,1.017-1.108,1.536-1.656
	c0.841-0.872,1.866-1.545,2.777-2.348c1.063-0.931,1.999-2.101,3.01-3.111c1.094-1.094,2.333-2.034,3.495-3.048
	c2.218-1.956,4.004-4.321,6.259-6.254c1.155-0.993,2.137-2.06,3.227-3.117c1.035-1.007,2.313-1.87,3.466-2.747
	c1.36-1.032,2.844-2.037,4.063-3.228c1.189-1.157,2.352-2.369,1.733-4.188"/>
<path fill="none" stroke="#020303" stroke-width="0.5" stroke-linecap="round" stroke-linejoin="round" stroke-miterlimit="10" d="
	M175.324,83.346c-0.2,2.255,2.311,6.015,3.217,8.114c0.655,1.517,1.195,3.025,1.49,4.613c0.259,1.411,0.958,3.236,0.779,4.689"/>
<path fill="none" stroke="#020303" stroke-width="0.5" stroke-linecap="round" stroke-linejoin="round" stroke-miterlimit="10" d="
	M178.848,89.216c0.01,0.176,0,0.352-0.007,0.526c1.285-2.765,1.367-6.149,1.377-9.14"/>
<path fill="none" stroke="#020303" stroke-width="0.5" stroke-linecap="round" stroke-linejoin="round" stroke-miterlimit="10" d="
	M171.998,89.023c0.195,0.678,0.452,1.334,0.783,1.954"/>
<path fill="none" stroke="#020303" stroke-width="0.5" stroke-linecap="round" stroke-linejoin="round" stroke-miterlimit="10" d="
	M174.93,75.318c0.518-0.135,1.034-0.203,1.568-0.193"/>
<path fill="none" stroke="#020303" stroke-width="0.5" stroke-linecap="round" stroke-linejoin="round" stroke-miterlimit="10" d="
	M149.354,243.705c3.402,1.121,6.31,4.893,9.517,6.742c4.886,2.82,8.913,3.484,14.563,3.559"/>
<path fill="none" stroke="#020303" stroke-width="0.5" stroke-linecap="round" stroke-linejoin="round" stroke-miterlimit="10" d="
	M163.062,236.666c2.678,3.029,14.419,16.361,8.977,19.121"/>
<path fill="none" stroke="#020303" stroke-width="0.5" stroke-linecap="round" stroke-linejoin="round" stroke-miterlimit="10" d="
	M149.017,244.865c3.454,4.055,8.427,7.352,13.4,9.217c2.411,0.908,5.916,2.408,8.536,2.125c3.533-0.381,4.287-5.885,0.306-5.49"/>
<path fill="none" stroke="#020303" stroke-width="0.5" stroke-linecap="round" stroke-linejoin="round" stroke-miterlimit="10" d="
	M160.332,240.961c1.272-0.938,4.106-1.602,5.852-1.953"/>
<path fill="none" stroke="#020303" stroke-width="0.5" stroke-linecap="round" stroke-linejoin="round" stroke-miterlimit="10" d="
	M161.5,242.914c0.626-0.176,3.315-2.035,4.684-2.734"/>
<path fill="none" stroke="#020303" stroke-width="0.5" stroke-linecap="round" stroke-linejoin="round" stroke-miterlimit="10" d="
	M163.453,244.473c1.192-0.141,2.25-0.719,3.122-1.559"/>
<path fill="none" stroke="#020303" stroke-width="0.5" stroke-linecap="round" stroke-linejoin="round" stroke-miterlimit="10" d="
	M164.234,246.813c1.253-0.365,2.355-1.006,3.511-1.559"/>
<path fill="none" stroke="#020303" stroke-width="0.5" stroke-linecap="round" stroke-linejoin="round" stroke-miterlimit="10" d="
	M174.375,235.498c0.721,0.666,3.406,1.193,5.081,1.578c3.168,0.719,4.995,1.799,7.149,4.193c0.201,0.242-0.277-0.002-0.527,0.076"/>
<path fill="none" stroke="#020303" stroke-width="0.5" stroke-linecap="round" stroke-linejoin="round" stroke-miterlimit="10" d="
	M170.866,245.641c4.152,0.035,21.549,0.713,14.436-6.244"/>
<path fill="none" stroke="#020303" stroke-width="0.5" stroke-linecap="round" stroke-linejoin="round" stroke-miterlimit="10" d="
	M172.037,247.203c2.898,2.127,18.427-1.494,15.605-5.857"/>
<path fill="none" stroke="#020303" stroke-width="0.5" stroke-linecap="round" stroke-linejoin="round" stroke-miterlimit="10" d="
	M174.376,237.059c0.017,0.16-0.027-1.148,0.009-0.449c-0.227,0.605-0.422,1.328-0.656,1.977c0.545-0.742,1.49-1.133,2.151-1.5
	c-0.139,0.967,0.381,1.529,0.535,2.258c0.868-0.566,1.512-1.867,2.174-2.648c-0.063,0.938,0.196,2.043,0.135,2.975
	c0.293-0.336,0.735-0.586,1.035-0.918c0.624,2.404,2.648,2.057,4.37,0.645"/>
<path fill="none" stroke="#020303" stroke-width="0.5" stroke-linecap="round" stroke-linejoin="round" stroke-miterlimit="10" d="
	M137.6,128.339c-1.546-0.262-3.151-0.679-4.777-0.479"/>
<path fill="none" stroke="#020303" stroke-width="0.5" stroke-linecap="round" stroke-linejoin="round" stroke-miterlimit="10" d="
	M133.778,130.729c-1.089-0.078-2.063,0.257-2.866,0.955"/>
<path fill="none" stroke="#020303" stroke-width="0.5" stroke-linecap="round" stroke-linejoin="round" stroke-miterlimit="10" d="
	M129.955,133.116c-0.648,0.306-1.162,0.809-1.434,1.434"/>
<path fill="none" stroke="#020303" stroke-width="0.5" stroke-linecap="round" stroke-linejoin="round" stroke-miterlimit="10" d="
	M129.955,133.116c-0.486,1.206-1.121,2.322-1.908,3.345"/>
<path fill="none" stroke="#020303" stroke-width="0.5" stroke-linecap="round" stroke-linejoin="round" stroke-miterlimit="10" d="
	M126.611,179.939c0.012,1.809-0.266,3.67,0.48,5.256"/>
<path fill="none" stroke="#020303" stroke-width="0.5" stroke-linecap="round" stroke-linejoin="round" stroke-miterlimit="10" d="
	M128.521,179.461c0.814,0.938,0.999,2.307,0.957,3.82"/>
<path fill="none" stroke="#020303" stroke-width="0.5" stroke-linecap="round" stroke-linejoin="round" stroke-miterlimit="10" d="
	M132.346,178.982c0.524,0.834,0.677,1.836,0.476,2.867"/>
<path fill="none" stroke="#020303" stroke-width="0.5" stroke-linecap="round" stroke-linejoin="round" stroke-miterlimit="10" d="
	M132.346,178.982c0.75-0.49,1.435-0.514,2.052-0.07c-0.09,0.338-0.135,0.68-0.142,1.027"/>
<line fill="none" stroke="#020303" stroke-width="0.5" stroke-linecap="round" stroke-linejoin="round" stroke-miterlimit="10" x1="134.256" y1="175.162" x2="134.256" y2="177.547"/>
<path fill="none" stroke="#020303" stroke-width="0.5" stroke-linecap="round" stroke-linejoin="round" stroke-miterlimit="10" d="
	M134.256,175.162C133.412,173.636,134.07,174.828,134.256,175.162"/>
<line fill="none" stroke="#020303" stroke-width="0.5" stroke-linecap="round" stroke-linejoin="round" stroke-miterlimit="10" x1="133.778" y1="169.429" x2="133.778" y2="170.385"/>
<path fill="none" stroke="#020303" stroke-width="0.5" stroke-linecap="round" stroke-linejoin="round" stroke-miterlimit="10" d="
	M133.3,166.083c-0.175,0.807,0.139,1.34,0.956,1.435"/>
<line fill="none" stroke="#020303" stroke-width="0.5" stroke-linecap="round" stroke-linejoin="round" stroke-miterlimit="10" x1="133.778" y1="161.785" x2="133.3" y2="161.785"/>
<line fill="none" stroke="#020303" stroke-width="0.5" stroke-linecap="round" stroke-linejoin="round" stroke-miterlimit="10" x1="133.3" y1="157.486" x2="133.3" y2="157.961"/>
<path fill="none" stroke="#020303" stroke-width="0.5" stroke-linecap="round" stroke-linejoin="round" stroke-miterlimit="10" d="
	M131.868,151.749c0.438,0.134,0.77,0.479,0.955,0.957"/>
<line fill="none" stroke="#020303" stroke-width="0.5" stroke-linecap="round" stroke-linejoin="round" stroke-miterlimit="10" x1="133.3" y1="146.972" x2="133.3" y2="147.928"/>
<path fill="none" stroke="#020303" stroke-width="0.5" stroke-linecap="round" stroke-linejoin="round" stroke-miterlimit="10" d="
	M135.21,138.374c0.256,0.709,0.575,1.18,0.956,0.477"/>
<path fill="none" stroke="#020303" stroke-width="0.5" stroke-linecap="round" stroke-linejoin="round" stroke-miterlimit="10" d="
	M135.21,138.374c0.813-0.88,1.768-1.517,2.868-1.912"/>
<path fill="none" stroke="#020303" stroke-width="0.5" stroke-linecap="round" stroke-linejoin="round" stroke-miterlimit="10" d="
	M137.122,136.942c-5.403,3.732-4.775,10.567-4.769,16.437c0.006,8.604,1.031,17.029,0.947,25.607"/>
<path fill="none" stroke="#020303" stroke-width="0.5" stroke-linecap="round" stroke-linejoin="round" stroke-miterlimit="10" d="
	M128.521,180.418c0.719,0.201,3.438-0.141,4.779-1.432"/>
<path fill="none" stroke="#020303" stroke-width="0.5" stroke-linecap="round" stroke-linejoin="round" stroke-miterlimit="10" d="
	M162.922,21.795c0.14,0.506-0.225,0.807,0.348,0.892c0.646-0.774,1.336-0.784,2.042-1.37"/>
<path fill="none" stroke="#020303" stroke-width="0.5" stroke-linecap="round" stroke-linejoin="round" stroke-miterlimit="10" d="
	M166.267,20.36c0.757-1.104,1.797-2.152,2.867-2.865"/>
<line fill="none" stroke="#020303" stroke-width="0.5" stroke-linecap="round" stroke-linejoin="round" stroke-miterlimit="10" x1="170.087" y1="17.015" x2="170.087" y2="16.539"/>
<path fill="none" stroke="#020303" stroke-width="0.5" stroke-linecap="round" stroke-linejoin="round" stroke-miterlimit="10" d="
	M171.044,16.062c-0.002,3.026,0.745,7.353-0.477,10.034"/>
<path fill="none" stroke="#020303" stroke-width="0.5" stroke-linecap="round" stroke-linejoin="round" stroke-miterlimit="10" d="
	M153.845,26.096c-2.439-3.253-5.925-6.346-9.961-7.096c0.59,2.128,4.01,12.47,5.184,12.349"/>
<path fill="none" stroke="#020303" stroke-width="0.5" stroke-linecap="round" stroke-linejoin="round" stroke-miterlimit="10" d="
	M146.677,63.839c1.876,2.075,5.363,2.797,7.885,4.022c3.313,1.607,6.353,3.56,9.214,5.948c6.937,5.783,10.993,13.37,15.393,21.082"
	/>
<path fill="none" stroke="#020303" stroke-width="0.5" stroke-linecap="round" stroke-linejoin="round" stroke-miterlimit="10" d="
	M144.289,67.183c5.142,0.19,11.27,5.545,15.188,8.495c6.939,5.229,17.232,12.476,19.691,21.125"/>
<path fill="none" stroke="#020303" stroke-width="0.5" stroke-linecap="round" stroke-linejoin="round" stroke-miterlimit="10" d="
	M141.421,69.091c6.56,1.036,11.719,6.199,17.072,9.803c4.29,2.883,7.734,5.527,11.303,9.36c4.004,4.31,6.858,5.735,8.735,11.479"/>
<path fill="none" stroke="#020303" stroke-width="0.5" stroke-linecap="round" stroke-linejoin="round" stroke-miterlimit="10" d="
	M139.989,70.528c4.754-0.257,12.257,6.886,15.667,9.891c3.063,2.696,6.015,5.457,8.857,8.347c3.396,3.455,8.195,5.954,10.354,10.426
	"/>
<path fill="none" stroke="#020303" stroke-width="0.5" stroke-linecap="round" stroke-linejoin="round" stroke-miterlimit="10" d="
	M187.767,135.506c0.706,2.937,1.544,6.697-2.456,7.299c-0.573,0.603,0.194,0.154,0.546,0.342"/>
<path fill="none" stroke="#020303" stroke-width="0.5" stroke-linecap="round" stroke-linejoin="round" stroke-miterlimit="10" d="
	M187.767,141.715c1.34,5.592,3.114,11.153,4.465,16.822c2.558,10.745,3.15,22.09,6.082,32.701c-0.699-0.605-0.361-0.943-0.514-1.744
	"/>
<path fill="none" stroke="#020303" stroke-width="0.5" stroke-linecap="round" stroke-linejoin="round" stroke-miterlimit="10" d="
	M186.334,142.672c1.059,8.104,3.166,16.255,4.313,24.364c1.087,7.676,1.724,15.374,2.928,22.864
	c0.802,0.316,4.089,1.646,4.739,1.244"/>
<path fill="none" stroke="#020303" stroke-width="0.5" stroke-linecap="round" stroke-linejoin="round" stroke-miterlimit="10" d="
	M184.901,144.583c-0.434,3.563,1.254,7.602,1.799,11.09c0.713,4.569,1.052,9.378,1.062,14.016c0.01,3.82-0.004,7.637,0.005,11.456
	c0.005,1.795,0.382,7.916-2.865,5.486"/>
<path fill="none" stroke="#020303" stroke-width="0.5" stroke-linecap="round" stroke-linejoin="round" stroke-miterlimit="10" d="
	M186.841,186.959c-2.423,4.074,4.455,6.059,6.658,3.035"/>
<path fill="none" stroke="#020303" stroke-width="0.5" stroke-linecap="round" stroke-linejoin="round" stroke-miterlimit="10" d="
	M147.035,63.839c-1.854,2.597-4.894,3.233-6.807,5.736"/>
</svg>
