<?xml version="1.0" encoding="utf-8"?>
<!-- Generator: Adobe Illustrator 16.0.0, SVG Export Plug-In . SVG Version: 6.00 Build 0)  -->
<!DOCTYPE svg PUBLIC "-//W3C//DTD SVG 1.1//EN" "http://www.w3.org/Graphics/SVG/1.1/DTD/svg11.dtd">
<svg version="1.1" id="Calque_1" xmlns="http://www.w3.org/2000/svg" xmlns:xlink="http://www.w3.org/1999/xlink" x="0px" y="0px"
	 width="442.593px" height="341.358px" viewBox="0 0 442.593 341.358" enable-background="new 0 0 442.593 341.358"
	 xml:space="preserve">
<g>
	<path fill="none" stroke="#231F20" stroke-width="0.5" stroke-miterlimit="10" d="M256.75,78.604c0-0.136,0-0.271,0-0.407"/>
	<path fill="none" stroke="#231F20" stroke-width="0.5" stroke-miterlimit="10" d="M256.75,78.604
		c-0.148-0.86-0.623-1.728-1.213-2.024"/>
	<path fill="none" stroke="#231F20" stroke-width="0.5" stroke-miterlimit="10" d="M261.611,72.935
		c-1.302,0.887-2.721,1.891-3.98,2.846c-2.17,1.647-1.453,1.671-2.494,3.822c-0.277,0.574,0.019,1.325-0.286,1.935
		c-0.301,0.593-1.673,0.292-1.969,0.906c-0.713,1.497-0.772,3.045,0.481,4.277c-1.065,0.657-0.68,2.486-0.597,3.96
		c0.963,0.07,1.702,0.647,2.712,0.538c0.355,2.49-0.836,3.068,0.26,4.777c0.788,1.215,3.464,2.761,5.022,2.509
		c-0.466,1.063-0.275,1.997-0.305,3.117c0.542-0.1,1.357,0.227,1.893,0.123c0.091,1.321,0.779,2.058,2.054,2.043
		c-0.405,0.894-0.517,2.033-0.301,3.089c1.084,0.544,2.318,0.904,3.521,0.942c0.163,2.109-1.05,3.685,0.483,5.48
		c1.743,2.049,3.432,0.506,5.465,1.33c1.04,0.419,7.976,7.713,7.453,0.965c1.793,2.986,3.282-0.578,3.322-2.454
		c2.141,3.002,3.737-0.684,3.553-2.831c0.75,1.618,2.425,1.785,4.011,1.427c0.076-0.75,0.55-1.084,0.536-1.903
		c6.744,2.141,4.144-3.86,4.302-8.042c0.106-2.683,3.629-6.305,0.64-9.431c4.595-1.486,0.828-5.41,0.334-7.711
		c-0.542-2.543,0.227-5.003-0.93-7.794c-1.647-3.983-3.862-3.375-7.216-5.332c-1.815-1.059-3.809-4.43-6-0.756
		c-2.776-2.107-4.908-2.992-8.535-2.033c-1.766-5.177-10.816,1.607-11.466,4.969c-1.156-0.889-2.363-1.135-2.771,0.445"/>
	<path fill="none" stroke="#231F20" stroke-width="0.5" stroke-miterlimit="10" d="M255.537,97.228
		c-0.163,8.893,1.738,14.957,10.123,19.031"/>
	<path fill="none" stroke="#231F20" stroke-width="0.5" stroke-miterlimit="10" d="M271.734,115.854
		c-2.511-0.536-5.564,1.37-8.01,1.95c-3.142,0.744-6.695,0.589-9.608,2.018c-5.537,2.725-8.175,9.657-10.276,15.04
		c-0.953,2.444-4.205,7.462-2.069,9.74"/>
	<path fill="none" stroke="#231F20" stroke-width="0.5" stroke-miterlimit="10" d="M242.985,145.413
		c-0.724-0.595-1.05-1.323-0.745-2.367c3.919-0.222,12.41,1.849,14.068,5.952c-0.521,0.085-1.046,0.093-1.582,0.06"/>
	<path fill="none" stroke="#231F20" stroke-width="0.5" stroke-miterlimit="10" d="M256.343,148.65
		c0.551-2.058,2.875-3.134,3.94-4.945c0.953-1.631,0.525-4.894,3.352-4.366"/>
	<path fill="none" stroke="#231F20" stroke-width="0.5" stroke-miterlimit="10" d="M286.309,114.234
		c0.392,0.557,0.83,0.343,0.881,1.146c5.853,1.521,12.598,3.414,14.705,9.799c1.851,5.62-0.504,11.707-2.524,16.927
		c-4.868,12.579-4.527,22.26,0.366,34.813c1.851,4.76,3.462,9.639-0.173,13.996c-3.852,4.618-10.733,6.025-16.34,7.002
		c-6.443,1.126-12.935,2.257-19.408,3.212c-5.2,0.769-14.002,2.115-17.788-2.768c-4.258-5.501,2.395-12.954,5.118-17.536
		c3.979-6.708,3.906-12.329,1.554-19.621"/>
	<path fill="none" stroke="#231F20" stroke-width="0.5" stroke-miterlimit="10" d="M255.941,148.246
		c-1.49,3.538-2.09,8.142-3.233,11.897c-1.262,4.15-2.577,8.5-3.97,12.497c-2.522,7.237-6.005,14.75-7.69,22.186
		c-0.572,2.512-1.188,11.879-4.887,11.663c-0.174-2.143,0.004-3.82,1.152-5.603"/>
	<path fill="none" stroke="#231F20" stroke-width="0.5" stroke-miterlimit="10" d="M234.481,205.336
		c-2.287,1.923-5.179,2.858-7.69,4.506c-2.608-2.215,1.631-5.514,2.427-7.741"/>
	<path fill="none" stroke="#231F20" stroke-width="0.5" stroke-miterlimit="10" d="M227.6,203.312
		c-3.805,0.42-2.505-4.069,0.404-4.45"/>
	<path fill="none" stroke="#231F20" stroke-width="0.5" stroke-miterlimit="10" d="M225.98,199.67
		c-5.133-1.24,3.597-4.805,4.925-6.75c2.49-3.663,2.236-7.779,2.74-12.082c0.985-8.376,3.956-16.35,6.183-24.354
		c1.209-4.354,1.615-9.63,3.563-13.907"/>
	<path fill="none" stroke="#231F20" stroke-width="0.5" stroke-miterlimit="10" d="M302.102,188.737
		c-0.472,3.428,4.283,10.739,6.74,12.987c-2.141-0.067-4.1-0.504-6.274-0.372c0.178,0.914-0.176,1.456,0.301,2.295
		c-1.586-0.383-6.812-1.012-5.372,2.124c-1.863-0.112-4.243-0.362-5.479,1.086c0.351,0.161,0.703,0.355,1.059,0.525
		c-2.439-0.301-5.427,0.444-7.14,1.914c0.479,0.038,0.959,0.114,1.463,0.109c-1.846-0.967-4.23-1.393-6.291-1.173
		c0.123,0.678-0.265,1.647-0.123,2.316c-4.137-0.364-7.788-1.09-12.037-0.667c-0.025,0.168,0.04,0.28,0.199,0.337
		c-3.06-0.216-6.733-1.474-9.562-1.004c-2.742-3.091-6.676-1.189-8.925,0.97c-1.156-3.098-4.078-0.753-6.273-1.188
		c-1.969-0.388-4.241-2.435-5.813-3.669c-0.015-0.716,0.318-0.174,0.767-0.395"/>
	<path fill="none" stroke="#231F20" stroke-width="0.5" stroke-miterlimit="10" d="M241.367,200.075
		c1.616-0.785,2.422-2.75,4.048-3.239"/>
	<path fill="none" stroke="#231F20" stroke-width="0.5" stroke-miterlimit="10" d="M303.315,203.719
		c1.484,3.396,2.742,6.888,4.446,10.29c1.491,2.956,2.558,7.192,4.825,9.49c-2.608-0.859-9.526-1.196-10.559,2.016
		c-1.846,0.339-5.103,1.055-5.251,3.257c-4.027-1.021-4.338,1.393-7.868,2.541c-2.795,0.906-5.067-1.267-7.066,2.225
		c-1.285-2.846-11.321-1.069-14.108-1.073c-1.63-0.004-5.458-0.355-6.704-1.198c-0.982-0.663-1.319-2.367-2.475-3.233
		c-0.741-0.553-2.194-0.93-2.952-1.182c-0.271,1.272-0.43,2.293-0.474,3.65c-1.641-2.197-4.94-3.267-8.12-3.729
		c-2.63-0.381-7.996-1.396-10.096,0.479c-1.394-1.753-2.092-4.036-2.842-6.117c-0.965-2.674-3.459-4.961-2.047-7.548
		c4.736,1.895,5.037-6.452,7.722-7.034"/>
	<path fill="none" stroke="#231F20" stroke-width="0.5" stroke-miterlimit="10" d="M260.396,231.253
		c-7.203,2.744-5.317,16.476-5.674,22.47c-0.483,8.014-5.167,14.745-5.26,22.88"/>
	<path fill="none" stroke="#231F20" stroke-width="0.5" stroke-miterlimit="10" d="M241.771,228.011
		c-5.164,4.589-3.237,16.147-3.242,22.43c0,7.114-2.054,18.649,0.811,24.947"/>
	<path fill="none" stroke="#231F20" stroke-width="0.5" stroke-miterlimit="10" d="M238.937,274.172
		c3.104,2.833,8.207,4.196,12.146,2.024"/>
	<path fill="none" stroke="#231F20" stroke-width="0.5" stroke-miterlimit="10" d="M239.341,274.575
		c-0.94,1.876,0.345,2.691,0.375,4.279c0.025,1.499-0.788,2.49-0.798,3.799c-0.006,1.575,0.855,2.113,0.845,3.692
		c-0.006,1.251-0.896,2.81-0.826,4.428"/>
	<path fill="none" stroke="#231F20" stroke-width="0.5" stroke-miterlimit="10" d="M250.68,277.005
		c-1.258,2.85,1.075,3.799,1.111,5.789c0.055,2.681-1.931,2.473-3.873,3.477c-3.354,1.736-4.175,5.385-7.269,7.292
		c-0.402-1.481-0.87-2.875-0.902-4.408"/>
	<path fill="none" stroke="#231F20" stroke-width="0.5" stroke-miterlimit="10" d="M251.486,284.7
		c0.569,5.535,10.428,14.297,2.293,16.978c-4.25,1.401-18.125,7.118-21.5,2.668c-3.322-4.383,2.031-8.254,5.44-9.524"/>
	<path fill="none" stroke="#231F20" stroke-width="0.5" stroke-miterlimit="10" d="M240.154,291.582
		c-1.395,2.34-2.202,6.286-4.866,8.101"/>
	<path fill="none" stroke="#231F20" stroke-width="0.5" stroke-miterlimit="10" d="M281.047,232.871
		c-0.523,8.546,4.885,15.995,9.242,22.847c4.402,6.918,7.437,14.944,10.937,22.332c1.545,3.263,0.878,3.229,4.461,2.226
		c2.391-0.667,4.779-1.364,7.288-1.305c0.729-6.282-3.659-14.54-5.215-20.572c-1.713-6.604-5.677-11.845-8.385-18.239
		c-1.328-3.125-1.853-10.307,0.701-12.956"/>
	<path fill="none" stroke="#231F20" stroke-width="0.5" stroke-miterlimit="10" d="M302.913,281.46
		c-2.543-0.462-0.739,2.566-0.515,3.337c0.637,2.139,1.107,1.923,0.561,4.68c2.839,1.117,0.438,5.641,3.191,6.56"/>
	<path fill="none" stroke="#231F20" stroke-width="0.5" stroke-miterlimit="10" d="M313.438,279.032
		c1.387,1.325,0.75,4.095,0.87,6.014c0.369,0.04,0.726,0.087,1.097,0.12c0.407,1.453,0.47,3.007,0.866,4.394"/>
	<path fill="none" stroke="#231F20" stroke-width="0.5" stroke-miterlimit="10" d="M313.841,290.368
		c-8.368-0.929-7.631,8.549-5.778,13.833c0.936,2.673,2.742,4.849,3.714,7.44c1.01,2.689-0.337,6.831,1.55,9.101
		c3.481,4.188,13.511-1.342,14.25-5.979c0.506-3.176-1.936-5.56-2.695-8.436c-0.765-2.88,0.305-6.553-2.039-8.889
		c-2.45-2.439-6.13-1.327-8.302,0.906c-3.238,3.328-2.297,8.144-1.508,12.269"/>
	<path fill="none" stroke="#231F20" stroke-width="0.5" stroke-miterlimit="10" d="M314.245,290.368
		c1.635,2.831,5.568,2.734,6.886,6.075"/>
	<path fill="none" stroke="#231F20" stroke-width="0.5" stroke-miterlimit="10" d="M300.482,138.123
		c2.282-1.292,5.208-5.306,7.292-7.889c2.437-3.023,3.892-7.093,6.471-9.926"/>
	<path fill="none" stroke="#231F20" stroke-width="0.5" stroke-miterlimit="10" d="M318.3,74.148
		c-5.744,4.053-5.818,14.214-0.406,18.222"/>
	<path fill="none" stroke="#231F20" stroke-width="0.5" stroke-miterlimit="10" d="M320.727,83.463
		c-1.671,7.002-2.619,13.981-4.73,20.935c-2.068,6.826-3.589,13.246,0.271,19.725c1.004,1.681,4.369,9.164,6.151,5.976
		c8.466,2.964,13.437,1.992,21.848-0.055c6.125-1.491,18.397,1.13,19.198-7.824c0.749-8.432-9.097-14.294-11.779-21.718
		c-3.179-8.79-4.459-17.964-11.214-25.04c-7.357-7.708-16.185-4.451-23.388,1.522"/>
	<path fill="none" stroke="#231F20" stroke-width="0.5" stroke-miterlimit="10" d="M361.217,127.595
		c1.086,4.751,5.151,8.283,7.422,12.494c1.931,3.581,2.937,7.405,4.031,11.292c1.151,4.068,2.648,8.212,4.154,12.156
		c0.722,1.887,5.907,10.221,4.927,11.779c-0.273,0.436-4.493,1.474-5.285,1.726c-1.998,0.64-4.76,0.48-6.241,2.229
		c-1.265-1.972-0.966-5.154-1.602-7.538c-0.76-2.854-1.954-5.808-2.951-8.482c-1.867-5.01-5.943-9.094-7.288-14.194"/>
	<path fill="none" stroke="#231F20" stroke-width="0.5" stroke-miterlimit="10" d="M357.979,139.745
		c-0.004,5.901-0.87,11.635-1.218,17.409c-0.294,4.76,1.102,12.853-0.464,16.947c-1.876,0.235-3.261-0.796-4.984-0.747
		c-1.704,0.049-2.538,0.789-4.224,1.637c-2.937,1.478-6.164,1.311-9.247,1.728c-3.533,0.47-16.733,2.558-18.736-2.151"/>
	<path fill="none" stroke="#231F20" stroke-width="0.5" stroke-miterlimit="10" d="M318.702,175.375
		c-1.599-4.658-2.231-9.731-2.837-14.567c-0.463-3.718-2.122-11.887-0.404-14.991"/>
	<path fill="none" stroke="#231F20" stroke-width="0.5" stroke-miterlimit="10" d="M318.702,142.984
		c-3.782,2.724-6.756,5.853-10.515,8.192c-3.721,2.314-8.302,7.862-12.567,8.408"/>
	<path fill="none" stroke="#231F20" stroke-width="0.5" stroke-miterlimit="10" d="M321.944,176.994
		c-0.225,6.068-0.723,11.328,3.426,16.101c3.39,3.892,6.688,7.635,8.854,12.391c2.528,5.543,5.55,7.386,11.845,5.588
		c2.604-0.748,5.503-2.628,8.207-1.332c2.291,1.102,3.417,3.003,6.085,3.951c2.186,0.774,5.971,1.675,7.227,3.883
		c2.141,3.765-2.003,5.332-5.092,5.436c-0.083-0.535-0.193-1.353-0.066-1.88"/>
	<path fill="none" stroke="#231F20" stroke-width="0.5" stroke-miterlimit="10" d="M356.359,174.161
		c-0.357,3.989,1.968,7.823,2.436,11.709c0.48,4.015-1.243,7.593-1.212,11.39c0.02,2.119,0.82,3.038,1.197,4.829
		c0.434,2.084-0.117,3.513,0.954,5.526c2.518,4.724,7.701,5.423,7.96,11.489"/>
	<path fill="none" stroke="#231F20" stroke-width="0.5" stroke-miterlimit="10" d="M322.751,189.143
		c-0.235,5.729-12.872,11.798-8.904,16.3c1.975,2.24,7.186,5.268,10.055,5.864c5.017,1.038,6.405-1.249,6.604,4.902
		c2.688,0.696,5.648-1.448,8.289-1.992c2.978-0.61,6.657-0.652,9.697,0.051c3.056,0.702,4.87,2.638,7.443,4.314
		c2.727,1.785,6.299,2.26,7.305,5.785"/>
	<path fill="none" stroke="#231F20" stroke-width="0.5" stroke-miterlimit="10" d="M322.751,211.007
		c-0.112,8.232-2.269,20.087,2.431,27.13"/>
	<path fill="none" stroke="#231F20" stroke-width="0.5" stroke-miterlimit="10" d="M335.711,215.864
		c-3.608,7.28-4.444,16.228-2.839,23.893"/>
	<path fill="none" stroke="#231F20" stroke-width="0.5" stroke-miterlimit="10" d="M323.964,237.733
		c2.938,0.957,6.549,3.713,9.719,1.617"/>
	<path fill="none" stroke="#231F20" stroke-width="0.5" stroke-miterlimit="10" d="M357.573,219.51
		c2.271,1.753,4.535,3.756,6.879,5.465c2.314,1.689,5.522,2.891,7.29,5.063"/>
	<path fill="none" stroke="#231F20" stroke-width="0.5" stroke-miterlimit="10" d="M334.087,219.51
		c0.402,2.45,6.759,3.746,8.918,4.851c2.978,1.524,5.74,3.572,8.701,5.08c2.985,1.524,6.023,3.185,9.139,4.245
		c2.451,0.836,6.386,1.682,7.762,4.33c1.417-2.494,2.396-5.679,3.136-8.385"/>
	<path fill="none" stroke="#231F20" stroke-width="0.5" stroke-miterlimit="10" d="M368.911,238.946
		c-1.2,4.114-0.741,7.388,0.241,11.474c0.576,2.393,0.685,9.028,3.058,10.418c7.418,4.328,8.741-12.967,9.844-16.126
		c1.514-4.328,3.007-7.432,2.588-12.182c-7.9-0.548-7.534,22.095-10.469,26.256"/>
	<path fill="none" stroke="#231F20" stroke-width="0.5" stroke-miterlimit="10" d="M383.083,231.658
		c-4.187,0.188-7.707-1.836-11.745-2.429"/>
	<path fill="none" stroke="#231F20" stroke-width="0.5" stroke-miterlimit="10" d="M322.751,238.542
		c-2.131,5.291-13.134,2.943-13.723,7.25c-0.334,2.422,3.331,5.073,5.317,5.57c3.045,0.765,5.367-1.387,8.336-1.414
		c1.113,4.689,8.637,4.605,11.883,2.27c4.08-2.937,1.256-8.086,0.332-12.059"/>
	<path fill="none" stroke="#231F20" stroke-width="0.5" stroke-miterlimit="10" d="M371.742,178.208
		c-0.286,2.55-0.93,4.883-0.739,7.64c1.237-0.495,1.889-2.003,2.048-3.466c0.913,1.967,1.239,4.082,1.184,6.295
		c5.628,0.881,7.962-10.315,4.394-11.277"/>
</g>
<path fill="none" stroke="#231F20" stroke-width="0.5" stroke-miterlimit="10" d="M70.582,56.994
	c-2.854,4.647-8.654,5.543-11.546,10.587c-2.905,5.069-5.12,11.378-6.318,17.074c-2.537,12.103-5.617,23.63-5.645,36.042
	c-0.019,7.055-0.131,14.125,0.063,21.178c3.924,0.235,8.188,0.305,11.855-0.479c0.836-3.605-0.889-8.146-0.883-11.969
	c0.004-4.186-0.303-8.495-0.009-12.668c0.602-8.528,3.384-17.21,5.283-25.684"/>
<path fill="none" stroke="#231F20" stroke-width="0.5" stroke-miterlimit="10" d="M72.505,21.475
	c-2.88,2.446-5.667,4.22-6.229,8.076c-0.569,3.879,0.108,6.401-1.878,9.966c-3.007,5.399-7.123,14.661-1.014,19.872"/>
<path fill="none" stroke="#231F20" stroke-width="0.5" stroke-miterlimit="10" d="M63.383,61.792
	c0.557-2.291,0.76-8.993,4.321-11.104c0.334,0.377,1.152,0.718,1.44,1.025"/>
<path fill="none" stroke="#231F20" stroke-width="0.5" stroke-miterlimit="10" d="M69.623,55.075c0,0.157,0,0.318,0,0.477"/>
<path fill="none" stroke="#231F20" stroke-width="0.5" stroke-miterlimit="10" d="M69.145,46.432
	c2.31,5.641,8.173,12.488,14.927,12.547c7.6,0.066,9.573-12.67,9.071-18.307"/>
<path fill="none" stroke="#231F20" stroke-width="0.5" stroke-miterlimit="10" d="M73.944,42.113
	c1.779-0.258,3.447-0.923,5.279-0.961"/>
<path fill="none" stroke="#231F20" stroke-width="0.5" stroke-miterlimit="10" d="M85.944,41.151c0.8,0,1.599,0,2.401,0"/>
<path fill="none" stroke="#231F20" stroke-width="0.5" stroke-miterlimit="10" d="M81.146,47.87c0.638,0,1.277,0,1.917,0"/>
<path fill="none" stroke="#231F20" stroke-width="0.5" stroke-miterlimit="10" d="M81.622,50.751
	c0.366,1.004,1.262,1.269,2.401,0.961"/>
<path fill="none" stroke="#231F20" stroke-width="0.5" stroke-miterlimit="10" d="M71.063,32.034
	c1.154-1.412,1.929-3.458,3.61-4.353c1.366-0.729,2.702,0.044,4.019-0.419c1.399-0.495,2.492-1.838,3.894-2.452
	c1.438-0.635,2.196,0.447,3.454-0.862c3.481,0.993,4.095,5.753,5.846,8.584c1.87,3.03,0.748,6.913,2.217,9.581"/>
<path fill="none" stroke="#231F20" stroke-width="0.5" stroke-miterlimit="10" d="M71.063,22.436
	c5.001-1.486,6.674-7.477,12.092-7.25c4.819,0.206,7.536,3.578,9.759,7.355c5.382,9.145,3.881,17.395,5.425,27.253
	c0.855,5.471,0.275,9.302-1.836,14.398"/>
<path fill="none" stroke="#231F20" stroke-width="0.5" stroke-miterlimit="10" d="M91.225,56.515
	c0.696,1.63,0.347,4.055,1.186,5.505c1.019,1.766,3.708,3.833,4.093,0.25"/>
<path fill="none" stroke="#231F20" stroke-width="0.5" stroke-miterlimit="10" d="M73.464,56.032
	c-1.493,0.583,3.03,1.855,3.972,2.426c1.688,1.017,2.706,2.702,4.897,3.333c4.019,1.152,8.565-0.108,6.485-5.276"/>
<path fill="none" stroke="#231F20" stroke-width="0.5" stroke-miterlimit="10" d="M97.943,65.632
	c7.75,2.333,9.636,17.4,9.589,24.867c-0.065,10.51,0.976,20.581,0.976,31.197c-0.002,5.582,0.11,10.449,1.375,15.844
	c-3.644-0.148-6.653-2.598-10.534-1.533c0.494-2.877,0.743-5.926,0.51-8.938c-0.209-2.77-2.052-5.06-1.916-7.682"/>
<path fill="none" stroke="#231F20" stroke-width="0.5" stroke-miterlimit="10" d="M100.822,82.91
	c0.584,14.055-3.993,27.56-5.831,40.73c-6.414,1.762-13.157,1.509-20,1.509c-3.379,0-5.982-0.628-8.83-2.229
	c-2.615-1.469-4.459-4.294-7.576-4.489"/>
<path fill="none" stroke="#231F20" stroke-width="0.5" stroke-miterlimit="10" d="M56.667,126.587
	c3.392-0.466,7.609,2.365,10.555,3.354c3.466,1.156,7.35,1.58,11.006,1.922c5.243,0.493,21.671,1.542,16.354-8.156"/>
<path fill="none" stroke="#231F20" stroke-width="0.5" stroke-miterlimit="10" d="M100.822,137.149
	c0.402,2.185-0.482,8.702,1.921,9.121"/>
<path fill="none" stroke="#231F20" stroke-width="0.5" stroke-miterlimit="10" d="M108.021,139.067
	c0.362,5.154-0.4,10.583-6.164,10.977c-0.095-1.158-0.277-2.608-0.074-3.773"/>
<path fill="none" stroke="#231F20" stroke-width="0.5" stroke-miterlimit="10" d="M48.504,143.87
	c-1.83,1.198,0.921,7.519,3.602,8.088c5.26,1.109,4.15-6.705,7.436-9.05"/>
<path fill="none" stroke="#231F20" stroke-width="0.5" stroke-miterlimit="10" d="M46.107,145.79
	c-2.014,8.265-13.409,18.225-3.447,24.208c6.905,4.15,17.676,8.019,25.578,9.479c8.876,1.646,19.967,1.256,28.771-0.513
	c3.676-0.74,9.931-1.141,11.201-5.371c1.234-4.1-2.611-10.808-3.858-14.638c-3.036-9.342-4.167-19.833-8.811-28.523"/>
<path fill="none" stroke="#231F20" stroke-width="0.5" stroke-miterlimit="10" d="M57.624,177.467
	c-2.812,12.408,0.828,24.494,2.879,36.479"/>
<path fill="none" stroke="#231F20" stroke-width="0.5" stroke-miterlimit="10" d="M70.582,180.831
	c-3.081,9.426-1.442,23.085-1.438,32.154"/>
<path fill="none" stroke="#231F20" stroke-width="0.5" stroke-miterlimit="10" d="M93.624,179.869
	c-0.036,6.945,1.842,11.976,4.662,17.898c1.093,2.291,2.124,4.805,2.772,7.271c0.406,1.546,2.085,8.551,2.645,7.469"/>
<path fill="none" stroke="#231F20" stroke-width="0.5" stroke-miterlimit="10" d="M105.623,177.467
	c-0.083,5.15,3.072,10.922,4.436,15.83c1.545,5.575,2.521,11.514,3.244,17.29"/>
<path fill="none" stroke="#231F20" stroke-width="0.5" stroke-miterlimit="10" d="M60.503,214.424
	c3.068,0.392,7.474-1.351,10.56-1.918"/>
<path fill="none" stroke="#231F20" stroke-width="0.5" stroke-miterlimit="10" d="M71.063,213.463
	c-0.532,0.982-0.629,2.204-0.396,3.277c2.719,1.406,2.981,3.513,2.316,6.322"/>
<path fill="none" stroke="#231F20" stroke-width="0.5" stroke-miterlimit="10" d="M60.984,215.867c-0.23,2.023-0.025,4.05,1.5,5.545
	c-0.587,0.5-0.822,1.521-1.438,2.166c-0.008,0.773,0.358,0.263,0.9,0.447"/>
<path fill="none" stroke="#231F20" stroke-width="0.5" stroke-miterlimit="10" d="M61.465,226.904
	c4.027,2.389,8.215-1.918,11.457-3.79c0.438,0.906-0.256,0.462-0.417,0.911"/>
<path fill="none" stroke="#231F20" stroke-width="0.5" stroke-miterlimit="10" d="M72.505,224.025
	c1.893,1.876,4.863,2.991,6.763,5.035c-3.079,0.827-4.213,3.595-7.11,4.611c2.818-1.673,6.979-4.29,10.365-4.277
	c-0.86,3.879-6.943,3.973-8.099,6.63"/>
<path fill="none" stroke="#231F20" stroke-width="0.5" stroke-miterlimit="10" d="M81.146,231.702
	c-0.013,1.237,6.049,2.457,6.655,4.72c-8.063-0.404-15.175,1.932-22.375-2.729c-3.519,3.984-3.481-4.229-2.522-6.308"/>
<path fill="none" stroke="#231F20" stroke-width="0.5" stroke-miterlimit="10" d="M104.663,213.946
	c2.359,1.109,5.505-5.09,8.639-1.923"/>
<path fill="none" stroke="#231F20" stroke-width="0.5" stroke-miterlimit="10" d="M104.183,215.385
	c0.519,2.088,0.857,6.586,2.877,7.199"/>
<path fill="none" stroke="#231F20" stroke-width="0.5" stroke-miterlimit="10" d="M112.824,212.023
	c-0.576,1.397,1.184,4.906,0.959,7.204"/>
<path fill="none" stroke="#231F20" stroke-width="0.5" stroke-miterlimit="10" d="M112.339,220.184
	c1.673,2.21,5.181-0.121,7.201,1.92"/>
<path fill="none" stroke="#231F20" stroke-width="0.5" stroke-miterlimit="10" d="M106.582,223.542c0,3.329-0.14,6.719,0.074,10.014
	c4.62,0.631,12.249,0.908,16.247-1.37"/>
<path fill="none" stroke="#231F20" stroke-width="0.5" stroke-miterlimit="10" d="M129.142,211.066
	c-2.208,0.743-4.546,1.561-6.678,2.45c-3.333,1.389-3.252,0.48-2.541,4.089c0.76,3.874,2.403,7.93,3.273,11.899
	c1.694,7.72,6.64,15.372,14.102,18.519"/>
<path fill="none" stroke="#231F20" stroke-width="0.5" stroke-miterlimit="10" d="M139.221,247.544
	c3.28-2.985,0.644-11.647,0.925-15.626c0.163-2.309,1.283-4.23,1.478-6.699c0.1-1.296-0.256-2.729,0.1-3.973
	c0.371-1.279,1.774-1.238,1.817-2.981"/>
<path fill="none" stroke="#231F20" stroke-width="0.5" stroke-miterlimit="10" d="M127.703,212.023
	c-0.769,4.493,5.933,10.659,10.081,10.562"/>
<path fill="none" stroke="#231F20" stroke-width="0.5" stroke-miterlimit="10" d="M129.142,213.463
	c-1.516-0.56,0.871-2.945,3.373-0.993c0.188-1.006,1.167-1.878,1.521-2.771c1.255,0.305,2.401,0.296,3.671,0
	c-0.159,2.634,2.494,8.772,4.872,9.528"/>
<path fill="none" stroke="#231F20" stroke-width="0.5" stroke-miterlimit="10" d="M137.298,208.666
	c2.842-3.612,5.567-7.826,8.874-11.04c4.046-3.935,9.6-5.042,13.687-8.161"/>
<path fill="none" stroke="#231F20" stroke-width="0.5" stroke-miterlimit="10" d="M143.541,217.306
	c3.041-2.603,12.321-7.562,14.4-12.001"/>
<path fill="none" stroke="#231F20" stroke-width="0.5" stroke-miterlimit="10" d="M150.742,170.743
	c-1.165,2.438,3.921,8.906,5.438,11.426c2.119,3.511,3.428,7.22,3.68,11.349c0.586,9.691-3.676,18.477-2.401,28.543
	c0.482,3.841,1.51,9.587,3.843,13.007"/>
<path fill="none" stroke="#231F20" stroke-width="0.5" stroke-miterlimit="10" d="M168.98,161.627
	c-1.846,3.454,2.488,10.913,4.18,14.023c2.109,3.866,4.072,7.56,3.507,12.276c-0.578,4.812-1.611,9.563-2.238,14.415
	c-0.64,4.989-1.51,9.981-2.082,14.902c-0.51,4.388-2.403,11.713-0.487,15.897"/>
<path fill="none" stroke="#231F20" stroke-width="0.5" stroke-miterlimit="10" d="M159.38,236.504
	c2.939-1.753,8.057,0.506,11.519-1.438"/>
<path fill="none" stroke="#231F20" stroke-width="0.5" stroke-miterlimit="10" d="M160.82,237.944c-1.146,1.323-1.37,4.763,0,5.279"
	/>
<path fill="none" stroke="#231F20" stroke-width="0.5" stroke-miterlimit="10" d="M170.899,235.543
	c2.389-1.417,2.738,1.393,2.401,3.362"/>
<path fill="none" stroke="#231F20" stroke-width="0.5" stroke-miterlimit="10" d="M160.342,244.665
	c0.498,4.062-1.939,10.108-1.923,13.438"/>
<path fill="none" stroke="#231F20" stroke-width="0.5" stroke-miterlimit="10" d="M158.902,255.224
	c1.882,3.75,14.28,3.737,18.489,4.232c5.821,0.69,14.898,2.84,17.507-4.715"/>
<path fill="none" stroke="#231F20" stroke-width="0.5" stroke-miterlimit="10" d="M174.261,239.863
	c-0.569,4.162,15.923,12.059,19.679,13.44"/>
<path fill="none" stroke="#231F20" stroke-width="0.5" stroke-miterlimit="10" d="M160.82,241.304c2.71,1.078,9.818,0,13.919,0"/>
<path fill="none" stroke="#231F20" stroke-width="0.5" stroke-miterlimit="10" d="M144.021,171.705c4.129-2.465,8.563-4.23,12.723-7
	c3.483-2.321,7.538-6.298,12.163-5.404c0.048,0.733-0.028,3.113,0.074,2.808"/>
<path fill="none" stroke="#231F20" stroke-width="0.5" stroke-miterlimit="10" d="M168.98,159.708
	c-1.548-3.273-1.027-9.031-4.321-11.04"/>
<path fill="none" stroke="#231F20" stroke-width="0.5" stroke-miterlimit="10" d="M143.541,170.743
	c0.521-4.298-2.5-9.016-3.951-12.844c-1.649-4.355-2.909-8.512-4.207-13.068"/>
<path fill="none" stroke="#231F20" stroke-width="0.5" stroke-miterlimit="10" d="M132.505,143.87
	c8.207,8.307,31.339,4.679,41.191,1.981c-0.28,4.66,2.21,9.594,2.977,14.183c0.47,2.812,1.842,5.195-0.493,6.835
	c-1.63,1.137-5.332,0.689-7.199,1.478"/>
<path fill="none" stroke="#231F20" stroke-width="0.5" stroke-miterlimit="10" d="M177.139,165.95
	c0.013,4.958-0.08,9.67,0.949,14.41c0.544,2.52,3.125,13.128-0.949,12.465"/>
<path fill="none" stroke="#231F20" stroke-width="0.5" stroke-miterlimit="10" d="M132.02,143.87
	c-1.245-4.627,3.586-15.495,5.763-20.643"/>
<path fill="none" stroke="#231F20" stroke-width="0.5" stroke-miterlimit="10" d="M148.34,89.148
	c-5.964,3.563-8.681,14.661-13.242,20.115c-1.753,2.096-6.801,5.7-6.545,8.778c0.275,3.365,6.915,4.921,9.708,3.748"/>
<path fill="none" stroke="#231F20" stroke-width="0.5" stroke-miterlimit="10" d="M139.221,119.869
	c6.129-4.643,13.748-10.957,18.095-17.282c4.913-7.144,4.33-15.726-6.574-11.997"/>
<path fill="none" stroke="#231F20" stroke-width="0.5" stroke-miterlimit="10" d="M141.622,95.871
	c0.085-2.53,0.193-6.259,0.946-8.671c0.898-2.884,2.941-2.888,4.239-4.882c1.545-2.384,0.142-4.747,1.022-7.076
	c0.746-1.967,3.494-4.01,4.828-5.287"/>
<path fill="none" stroke="#231F20" stroke-width="0.5" stroke-miterlimit="10" d="M152.658,70.428
	c3.371,5.382,16.91,16.975,19.681,6.723"/>
<path fill="none" stroke="#231F20" stroke-width="0.5" stroke-miterlimit="10" d="M161.779,71.392
	c2.264,5.433,10.883,8.25,14.894,4.144c4.678-4.792,4.737-11.317,4.786-17.584"/>
<path fill="none" stroke="#231F20" stroke-width="0.5" stroke-miterlimit="10" d="M175.218,46.913
	c0.544,5.04-6.937,14.096-11.997,9.12"/>
<path fill="none" stroke="#231F20" stroke-width="0.5" stroke-miterlimit="10" d="M161.779,56.515
	c0.449,4.781-0.963,9.941-0.959,14.876"/>
<path fill="none" stroke="#231F20" stroke-width="0.5" stroke-miterlimit="10" d="M177.139,49.794
	c-0.811,4.086,3.913,5.116,5.279,7.199"/>
<path fill="none" stroke="#231F20" stroke-width="0.5" stroke-miterlimit="10" d="M180.98,71.392
	c2.884-9.365,4.186-20.039-0.896-28.978c-4.531-7.961-15.374-10.884-22.086-3.667c-3.583,3.854-4.517,9.414-5.34,14.407"/>
<path fill="none" stroke="#231F20" stroke-width="0.5" stroke-miterlimit="10" d="M153.141,55.075
	c-4.303-0.432-1.709,8.825,0.48,4.313"/>
<path fill="none" stroke="#231F20" stroke-width="0.5" stroke-miterlimit="10" d="M152.184,61.315
	c-0.163,2.242-1.453,4.211-0.892,6.634c1.3,0.525,2.778,0.686,4.167,0.637c0.104,0.752,0.792,1.408,0.909,1.806
	c0.315-0.559,0.777-0.857,1.103-1.351c3.301,3.051,3.811-6.801,4.79-8.69"/>
<path fill="none" stroke="#231F20" stroke-width="0.5" stroke-miterlimit="10" d="M167.06,61.315
	c-0.029-0.138,1.592-1.001,3.36-0.963"/>
<path fill="none" stroke="#231F20" stroke-width="0.5" stroke-miterlimit="10" d="M176.658,59.871
	c0.383,0.544,1.105,0.675,1.92,0.48"/>
<path fill="none" stroke="#231F20" stroke-width="0.5" stroke-miterlimit="10" d="M170.899,70.913
	c1.243-0.377,2.499-0.534,3.841-0.485"/>
<path fill="none" stroke="#231F20" stroke-width="0.5" stroke-miterlimit="10" d="M174.261,66.594c0.64,0,1.279,0,1.918,0"/>
<path fill="none" stroke="#231F20" stroke-width="0.5" stroke-miterlimit="10" d="M175.54,76.031
	c6.164,7.286,1.967,24.621,3.155,33.927c1.283,10.074,0.087,25.324-3.794,33.914"/>
</svg>
