<?xml version="1.0" encoding="utf-8"?>
<!-- Generator: Adobe Illustrator 16.0.0, SVG Export Plug-In . SVG Version: 6.00 Build 0)  -->
<!DOCTYPE svg PUBLIC "-//W3C//DTD SVG 1.1//EN" "http://www.w3.org/Graphics/SVG/1.1/DTD/svg11.dtd">
<svg version="1.1" id="Calque_1" xmlns="http://www.w3.org/2000/svg" xmlns:xlink="http://www.w3.org/1999/xlink" x="0px" y="0px"
	 width="823.457px" height="327.777px" viewBox="0 0 823.457 327.777" enable-background="new 0 0 823.457 327.777"
	 xml:space="preserve">
<line fill="none" stroke="#010202" stroke-width="0.5" stroke-miterlimit="10" x1="322.83" y1="209.534" x2="235.881" y2="218.438"/>
<path fill="none" stroke="#010202" stroke-width="0.5" stroke-miterlimit="10" d="M99.94,29.333"/>
<path fill="none" stroke="#010202" stroke-width="0.5" stroke-miterlimit="10" d="M370.421,38.202"/>
<path fill="none" stroke="#010202" stroke-width="0.5" stroke-miterlimit="10" d="M99.94,223.648"/>
<polyline fill="none" stroke="#010202" stroke-width="0.5" stroke-miterlimit="10" points="194.056,222.718 91.275,233.246 
	91.275,20.38 379.05,29.819 379.783,203.71 360.74,205.65 "/>
<line fill="none" stroke="#010202" stroke-width="0.5" stroke-linejoin="round" stroke-miterlimit="10" x1="57.156" y1="276.058" x2="771.15" y2="276.058"/>
<g>
	<g>
		<g>
			<path fill="#FFFFFF" d="M633.563,274.137c1.735,2.178,7.219,2.187,9.772,2.972c2.131,0.654,7.58,2.903,9.475,0.547
				c0.904-1.126,1.232-2.848,2.435-1.646c0.826,0.826,3.159,0.79,4.147,0.844c2.631,0.144,3.751-1.438,3.5-3.991
				c-0.05-0.514-0.34-1.11-0.918-1.206c-0.959-0.157-1.275-0.031-2.156,0.44c-2.545,1.364-7.518,0.649-10.318,0.729
				c-5.943,0.168-14.389,0.519-18.536-4.508c-1.026-1.245-2.785,0.534-1.768,1.768c3.087,3.74,7.767,4.541,12.362,5.017
				c3.857,0.4,7.75,0.249,11.618,0.102c2.64-0.101,5.451,0.128,7.903-0.947c-2.086,0.915-3.715-0.599-5.061-1.388
				c-0.91-0.533-2.262-0.551-2.977,0.357c-2.705,3.444-5.393,2.493-9.042,1.473c-1.595-0.445-7.669-1.072-8.67-2.328
				C634.326,271.108,632.57,272.89,633.563,274.137L633.563,274.137z"/>
		</g>
	</g>
	<path fill="none" stroke="#010202" stroke-width="0.5" stroke-linecap="round" stroke-linejoin="round" stroke-miterlimit="10" d="
		M606.063,183.035c-1.145-0.724-1.279,0.895-1.173,1.603c0.166,1.102,0.68,2.347,1.306,3.26c1.273,1.859,3.07,1.62,5.1,1.306
		c0.035,0.22,0.103,0.716,0.271,0.878c0.293,0.286,0.629,0.112,0.91,0.375c0.458,0.439,0.631,1.365,0.781,1.916
		c0.223,0.826-0.021,1.491,0.106,2.262c0.203,1.195,1.043,1,1.568-0.062c0.044,0.081,0.163,0.173,0.219,0.329
		c0.438-0.478,0.711-1.103,1.222-1.559c0.447-0.387,1.555-0.506,1.729-0.956"/>
	<path fill="none" stroke="#010202" stroke-width="0.5" stroke-linecap="round" stroke-linejoin="round" stroke-miterlimit="10" d="
		M618.102,192.513c2.084-0.472,1.943,3.743,1.519,4.854c-0.306,0.806-0.873,1.698-1.335,2.415c-0.157,0.236-0.431,0.813-0.719,0.921
		c-0.517,0.202-1.089,0.033-0.746-0.633"/>
	<path fill="none" stroke="#010202" stroke-width="0.5" stroke-linecap="round" stroke-linejoin="round" stroke-miterlimit="10" d="
		M618.488,194.564c0.246-1.163-1.059-1.265-1.479-0.312c-0.466,1.069,0.662,1.609,0.436,2.6c-0.116,0.01-0.231,0.029-0.348,0.036
		c-0.019,0.589,0.087,1.215-0.407,1.645"/>
	<path fill="none" stroke="#010202" stroke-width="0.5" stroke-linecap="round" stroke-linejoin="round" stroke-miterlimit="10" d="
		M619.894,195.718c1.434,1.396,1.754,3.07,2.612,4.791c1.014,2.035,2.882,2.028,4.73,3.002c0.864,0.456,1.75,1.219,2.768,0.787
		c1.028-0.446,1.695-1.964,2.223-2.863c1.294-2.219,2.459-4.508,3.676-6.768c1.368-2.558,1.53-4.447,0.126-7.017"/>
	<path fill="none" stroke="#010202" stroke-width="0.5" stroke-linecap="round" stroke-linejoin="round" stroke-miterlimit="10" d="
		M605.679,182.397c0.767,0.633,1.929-1.085,2.574-1.423c0.749-0.387,1.704-0.223,2.55-0.38c1.602-0.295,3.711-1.167,5.234-0.397
		c-2.079-1.09,3.523-2.224,4.127-2.316c0.983-0.153,1.955,0,2.923-0.222c1.097-0.25,1.694-0.463,2.821-0.224
		c1.948,0.412,3.525,0.24,5.367,1.181c1.568,0.802,2.179,2.584,2.854,4.154c0.368,0.856,0.326,1.823,0.762,2.644
		c0.708,1.352,1.317,2.147,1.522,3.773"/>
	<path fill="none" stroke="#010202" stroke-width="0.5" stroke-linecap="round" stroke-linejoin="round" stroke-miterlimit="10" d="
		M606.956,189.698c-0.569,2.134-0.177,3.404,0.501,5.457c0.676,2.048-1.679,3.598-1.369,5.534c0.631,0.325,1.264,0.387,1.872,0.686
		c0.056,0.75-0.041,1.46,0.214,2.149c0.206,0.556,0.593,1.068,0.833,1.612c0.311,0.688,0.56,3.438,1.54,3.389"/>
	<path fill="none" stroke="#010202" stroke-width="0.5" stroke-linecap="round" stroke-linejoin="round" stroke-miterlimit="10" d="
		M621.176,205.195c-0.068,0.06-0.149,0.052-0.215,0.135c0.839-0.178,1.608-1.016,2.394-1.417"/>
	<path fill="none" stroke="#010202" stroke-width="0.5" stroke-linecap="round" stroke-linejoin="round" stroke-miterlimit="10" d="
		M617.843,206.991c-0.09,0.065-0.196,0.092-0.267,0.203c1.146-1.019,2.618-1.658,4.151-1.757c1.555-0.098,2.813,0.633,4.299,0.955
		c1.452,0.313,3.031,0.651,4.512,0.737c1.364,0.074,3.178-0.023,4.472,0.454c1.373,0.513,1.986,2.153,2.046,3.5"/>
	<path fill="none" stroke="#010202" stroke-width="0.5" stroke-linecap="round" stroke-linejoin="round" stroke-miterlimit="10" d="
		M629.756,204.426c0,0.652-0.183,1.521,0.258,2.051"/>
	<path fill="none" stroke="#010202" stroke-width="0.5" stroke-linecap="round" stroke-linejoin="round" stroke-miterlimit="10" d="
		M612.34,208.266c2.875-0.917,5.635-1.379,8.149,0.6c2.253,1.78,5.195,3.497,7.052,5.696c0.718,0.849,1.694,2.464,1.826,3.571"/>
	<path fill="none" stroke="#010202" stroke-width="0.5" stroke-linecap="round" stroke-linejoin="round" stroke-miterlimit="10" d="
		M617.466,206.86c1.024,0.39,2.693,0.27,3.798,0.256c1.365-0.018,2.516,0.463,3.771,1.006c2.345,1.013,4.049,2.897,6.004,4.496
		c0.967,0.797,1.809,1.785,2.815,2.569"/>
	<path fill="none" stroke="#010202" stroke-width="0.5" stroke-linecap="round" stroke-linejoin="round" stroke-miterlimit="10" d="
		M630.143,217.874c1.9-1.933,4.127-1.779,6.646-1.782c1.116-0.004,2.422-0.21,3.491,0.196c1.287,0.488,1.73,1.694,2.54,2.739"/>
	<path fill="none" stroke="#010202" stroke-width="0.5" stroke-linecap="round" stroke-linejoin="round" stroke-miterlimit="10" d="
		M630.654,211.471c1.947,0,3.883,0.017,5.807,0.119c0.635,0.038,1.716-0.218,2.225,0.162c0.663,0.491,0.348,1.445,1.188,1.893"/>
	<path fill="none" stroke="#010202" stroke-width="0.5" stroke-linecap="round" stroke-linejoin="round" stroke-miterlimit="10" d="
		M640.129,213.901c1.393-0.157,1.798,2.026,1.792,3.042c-0.011-0.255,0.142-0.238,0.258-0.479"/>
	<path fill="none" stroke="#010202" stroke-width="0.5" stroke-linecap="round" stroke-linejoin="round" stroke-miterlimit="10" d="
		M640.901,213.522c1.521,1.868,4.643,0.976,6.43,2.254c2.069,1.478,0.689,3.959,0.228,5.814"/>
	<path fill="none" stroke="#010202" stroke-width="0.5" stroke-linecap="round" stroke-linejoin="round" stroke-miterlimit="10" d="
		M630.143,217.619c1.006-0.246,1.703-1.353,2.827-1.584c1.116-0.229,2.414-0.293,3.563-0.219c1.056,0.078,2.333,0.285,3.317,0.636
		c1.112,0.398,1.313,1.265,2.2,1.81"/>
	<path fill="none" stroke="#010202" stroke-width="0.5" stroke-linecap="round" stroke-linejoin="round" stroke-miterlimit="10" d="
		M633.595,217.619c-0.989,0.032-2.248-0.256-3.203,0.019c-1.178,0.336-1.327,1.37-1.815,2.356c-1.055,2.14-2.898,3.891-4.257,5.83
		c-1.315,1.879-1.514,4.751-2.292,6.926c-0.904,2.529-1.543,4.882-1.892,7.537c-0.174,1.307-0.253,2.678-0.54,3.959
		c-0.295,1.297-0.832,2.358-0.855,3.725"/>
	<path fill="none" stroke="#010202" stroke-width="0.5" stroke-linecap="round" stroke-linejoin="round" stroke-miterlimit="10" d="
		M621.432,251.173c1.384-1.761,2.672-3.572,3.705-5.562c0.945-1.818,1.591-3.801,2.692-5.539c1.075-1.687,2.682-3.353,4.585-4.092
		c1.666-0.642,2.902-0.045,4.488,0.463c1.688,0.544,3.378,0.39,5.123,0.475c1.704,0.088,3.189,0.643,4.809,1.11
		c1.438,0.417,2.977,0.43,4.389,0.908c1.527,0.509,2.632,1.643,3.748,2.749c1.359,1.351,2.891,2.658,3.899,4.307
		c1.106,1.806,1.345,3.876,1.499,5.947"/>
	<path fill="none" stroke="#010202" stroke-width="0.5" stroke-linecap="round" stroke-linejoin="round" stroke-miterlimit="10" d="
		M633.34,217.747c2.991-0.786,5.089-1.032,7.764,0.7c2.328,1.511,4.829,2.305,6.53,4.607c3.584,4.832,5.482,10.402,8.369,15.605
		c1.357,2.456,2.278,5.113,3.726,7.521"/>
	<path fill="none" stroke="#010202" stroke-width="0.5" stroke-linecap="round" stroke-linejoin="round" stroke-miterlimit="10" d="
		M648.459,220.564c-0.015-0.063-0.25-0.058-0.042-0.107c1.646,1.462,3.497,3.472,4.574,5.399c0.902,1.63,2.292,4.084,2.514,5.932
		c0.125,1.069-0.906,2.379-0.645,3.248"/>
	<path fill="none" stroke="#010202" stroke-width="0.5" stroke-linecap="round" stroke-linejoin="round" stroke-miterlimit="10" d="
		M612.21,208.266c-1.209,0.893-2.701,0.815-3.977,1.154c-1.436,0.387-2.594,1.48-3.963,2.016c-0.632,0.242-1.265,0.127-1.889,0.537
		c-0.631,0.429-0.979,1.225-1.562,1.667c-0.953,0.734-2.683,1.214-3.844,1.758c-0.549,0.258-0.972,0.711-1.596,0.818
		c-0.746,0.129-1.445-0.353-2.127-0.006"/>
	<path fill="none" stroke="#010202" stroke-width="0.5" stroke-linecap="round" stroke-linejoin="round" stroke-miterlimit="10" d="
		M593.635,215.698c-0.719-0.187-1.152-0.38-1.84-0.025c-0.639,0.326-0.675,0.815-1.364,0.921c-0.245,0.035-0.626-0.243-0.887-0.263
		c-0.337-0.02-0.722,0.193-1.017,0.131c-0.613-0.125-0.898-0.405-0.929-1.127c-1.364-0.1-2.837-0.217-3.854,0.855
		c-2.748-1.108-5.732-0.253-8.6-0.85c-2.68-0.557-5.322-0.18-8.033-0.225c-4.108-0.076-11.71-4.019-14.375,0.9
		c-1.283,2.371-2.823,5.741-0.976,8.134"/>
	<path fill="none" stroke="#010202" stroke-width="0.5" stroke-linecap="round" stroke-linejoin="round" stroke-miterlimit="10" d="
		M551.887,224.406c1.714-0.574,4.042-0.051,5.543,0.857c1.582,0.95,3.128,1.79,4.745,2.676c0.879,0.474,1.646,1.391,2.629,1.605
		c0.441,0.091,0.855-0.078,1.313,0.052c0.473,0.13,0.896,0.487,1.36,0.662c1.686,0.622,3.47,0.213,4.999,1.255
		c3.431,2.356,7.03,2.959,11.136,3.271c2.282,0.178,4.633,0.681,6.911,0.652c1.278-0.02,2.475-0.455,3.725-0.521
		c1.308-0.069,2.669,0.269,4.004,0.248c1.202-0.016,2.346-0.306,3.523,0.101c1.101,0.378,2.069,0.899,3.22,1.185
		c1.163,0.284,2.358,0.593,3.552,0.708c0.924,0.095,1.867,0.398,2.77,0.439"/>
	<path fill="none" stroke="#010202" stroke-width="0.5" stroke-linecap="round" stroke-linejoin="round" stroke-miterlimit="10" d="
		M611.441,237.982c1.636,1.74,2.423,4.181,3.569,6.25c1.191,2.146,2.415,3.543,4.196,5.193c1.801,1.675,3.188,3.518,4.637,5.47
		c1.207,1.618,3.544,2.565,5.272,3.553c1.923,1.095,4.015,1.835,6.146,2.412c2.208,0.597,4.246,1.651,6.44,2.306
		c2.027,0.61,3.468,1.982,5.612,2.324c2.227,0.354,4.375,0.974,6.591,1.35c2.651,0.449,3.518,1.959,3.386,4.598
		c-0.101,1.996-0.234,4.694-1.58,6.273c-0.437,0.518-0.98,0.953-1.491,1.383"/>
	<path fill="none" stroke="#010202" stroke-width="0.5" stroke-linecap="round" stroke-linejoin="round" stroke-miterlimit="10" d="
		M599.913,247.587c2.665,1.842,4.833,4.248,6.62,6.955c1.793,2.706,4.169,5.1,6.506,7.356c1.283,1.239,2.564,2.199,3.753,3.56
		c1.04,1.187,2.242,2.241,3.415,3.293c2.428,2.172,5.521,3.051,8.496,4.283c3.486,1.455,6.557,3.353,10.274,4.267"/>
	<path fill="none" stroke="#010202" stroke-width="0.5" stroke-linecap="round" stroke-linejoin="round" stroke-miterlimit="10" d="
		M639.104,276.917c1.923,0.73,3.95,1.789,5.938,2.258c2.322,0.549,5.187,1.302,7.575,1.331c1.674,0.023,1.995-1.724,3.268-2.563"/>
	<path fill="none" stroke="#010202" stroke-width="0.5" stroke-linecap="round" stroke-linejoin="round" stroke-miterlimit="10" d="
		M638.978,276.661c-0.002-0.671,1.801-1.854,2.269-2.424c0.836-1.019,1.502-1.944,2.029-3.163c1.117-2.583,1.217-4.551,0.569-7.219"
		/>
	<path fill="none" stroke="#010202" stroke-width="0.5" stroke-linecap="round" stroke-linejoin="round" stroke-miterlimit="10" d="
		M656.14,267.437c1.061-0.737,3.144-1.262,4.46-1.478c0.685-0.111,1.596-0.19,2.201,0.125c0.863,0.445,0.741,1.255,1.153,1.995"/>
	<path fill="none" stroke="#010202" stroke-width="0.5" stroke-linecap="round" stroke-linejoin="round" stroke-miterlimit="10" d="
		M662.162,267.951c0.843,0.708,4.449,1.953,4.1,3.458c-0.115,0.533-0.67,0.375-0.904,0.8c-0.285,0.518,0.015,0.815,0.105,1.303
		c0.215,1.155,0.316,1.869-0.975,2.147c0.055,0.652-0.219,1.215-0.176,1.874c-0.667,0.298-1.301,0.591-1.801,0.915
		c-0.736,0.476-1.244,0.659-2.256,0.646c-1.722-0.022-3.164-1.471-4.883-1.403"/>
	<path fill="none" stroke="#010202" stroke-width="0.5" stroke-linecap="round" stroke-linejoin="round" stroke-miterlimit="10" d="
		M606.577,254.758c-0.209,2.583,0.462,5.58,0.767,8.146c0.305,2.554,0.473,5.236,0.318,7.924c-0.081,1.364-0.383,3.232-0.834,4.421"
		/>
	<path fill="none" stroke="#010202" stroke-width="0.5" stroke-linecap="round" stroke-linejoin="round" stroke-miterlimit="10" d="
		M606.956,191.874c0.329-0.189,0.88-0.173,1.282,0"/>
	<path fill="none" stroke="#010202" stroke-width="0.5" stroke-linecap="round" stroke-linejoin="round" stroke-miterlimit="10" d="
		M607.728,195.076c0.215-0.145,0.564-0.134,0.896,0"/>
	<path fill="none" stroke="#010202" stroke-width="0.5" stroke-linecap="round" stroke-linejoin="round" stroke-miterlimit="10" d="
		M575.836,182.908c-5.282,1.227-9.573,2.848-13.022,7.216c-3.171,4.014-4.713,10.051-4.714,15.117c0,3.444,2.104,5.972,4.03,8.66"/>
	<path fill="none" stroke="#010202" stroke-width="0.5" stroke-linecap="round" stroke-linejoin="round" stroke-miterlimit="10" d="
		M576.603,183.164c5.525,0.2,11.099,3.52,13.968,8.34c2.743,4.607,2.224,10.738,3.218,15.86c0.539,2.761,1.019,5.378,1.007,8.206"/>
	<path fill="none" stroke="#010202" stroke-width="0.5" stroke-linecap="round" stroke-linejoin="round" stroke-miterlimit="10" d="
		M583.647,204.042c0.696,1.764,3.209,3.255,4.43,4.751c0.691,0.853,1.259,1.908,1.682,2.923c0.591,1.438,0.028,2.327,0.165,3.727"/>
	<path fill="none" stroke="#010202" stroke-width="0.5" stroke-linecap="round" stroke-linejoin="round" stroke-miterlimit="10" d="
		M574.94,205.45c0.361,0.856,0.978,2.296,1.474,3.324c0.389,0.813,0.938,1.617,1.283,2.445c0.263,0.645,0.27,1.333,0.702,1.916"/>
	<path fill="none" stroke="#010202" stroke-width="0.5" stroke-linecap="round" stroke-linejoin="round" stroke-miterlimit="10" d="
		M576.991,208.525c1.452,1.914,3.911,3.234,4.862,5.636"/>
	<path fill="none" stroke="#010202" stroke-width="0.5" stroke-linecap="round" stroke-linejoin="round" stroke-miterlimit="10" d="
		M579.293,204.426c0.867,1.59,1.955,3.084,2.949,4.613"/>
	<path fill="none" stroke="#010202" stroke-width="0.5" stroke-linecap="round" stroke-linejoin="round" stroke-miterlimit="10" d="
		M566.487,195.971c-1.577,3.261,1.222,7.058,3.328,9.225"/>
	<path fill="none" stroke="#010202" stroke-width="0.5" stroke-linecap="round" stroke-linejoin="round" stroke-miterlimit="10" d="
		M568.791,208.653c0.127,0.586,0.648,1.002,1.031,1.472c0.694,0.841,1.22,1.899,2.045,2.627"/>
	<path fill="none" stroke="#010202" stroke-width="0.5" stroke-linecap="round" stroke-linejoin="round" stroke-miterlimit="10" d="
		M568.149,211.084c0.03,0.506,0.422,0.947,0.9,1.025"/>
	<path fill="none" stroke="#010202" stroke-width="0.5" stroke-linecap="round" stroke-linejoin="round" stroke-miterlimit="10" d="
		M561.492,194.31c0.661-1.082,1.932-1.694,3.073-2.069c0.429,0.417,0.236,1.221,0.273,1.797c1.018-0.35,2.306-2.561,3.323-1.599
		c0.247,0.236,0.09,1.041,0.583,1.219c0.691,0.246,0.931-0.634,1.419-0.862c1.504-0.707,0.609,1.338,1.842,1.24
		c0.425-0.037,2.682-2.825,2.313-0.378c1.021-0.167,1.559-2.121,2.488-1.655c0.537,0.274,0.481,1.127,1.324,1.164
		c0.681,0.026,1.161-0.479,1.054-1.157c0.822,0.121,1.612,0.855,2.419,1.167c0.254-0.4,0.214-1.141,0.653-1.329
		c0.465-0.192,1.23,0.417,1.646,0.54"/>
	<path fill="none" stroke="#010202" stroke-width="0.5" stroke-linecap="round" stroke-linejoin="round" stroke-miterlimit="10" d="
		M567.385,186.368c-0.411,0.437-0.895,1.157-0.86,1.779c0.957-0.113,1.981-1.149,3.046-1.382c0.295,0.603-0.474,1.563-0.504,2.273
		c0.583,0.03,1.259-0.854,1.735-0.764c0.714,0.129,0.395,1.19,0.445,1.799c0.605-0.114,0.69-0.986,1.294-1.127
		c0.795-0.195,0.381,0.334,0.831,0.501c0.688,0.25-0.046,0.37,0.787-0.088c0.474-0.258,0.408-0.616,1.074-0.537
		c0.442,0.053,0.359,0.619,0.839,0.587c0.51-0.033,0.793-0.852,1.439-0.875c0.314-0.008,0.545,0.445,0.745,0.42
		c0.705-0.096,0.925-1.007,1.678-1.05"/>
	<path fill="none" stroke="#010202" stroke-width="0.5" stroke-linecap="round" stroke-linejoin="round" stroke-miterlimit="10" d="
		M555.217,225.56c0.057,2.038-0.084,3.788,1.25,5.499c0.037-0.168,0.037-0.327,0.032-0.502"/>
	<path fill="none" stroke="#010202" stroke-width="0.5" stroke-linecap="round" stroke-linejoin="round" stroke-miterlimit="10" d="
		M556.624,230.94c-0.045-0.541,0.027-1.183,0.386-1.557c0.744,0.931,0.967,2.001,2.16,2.659c-0.031-0.201,0.075-0.501,0.044-0.704
		c0.66,0.503,1.29,1.112,2.132,1.38c0.106-1.071-0.572-2.159-0.468-3.31c0.64,0.893,1.275,1.37,2.284,1.886
		c0.731,0.369,1.702,1.237,2.534,1.162c-0.024-0.216,0.093-0.53,0.048-0.74c0.322,0.312,0.711,0.511,1.127,0.72
		c0.207,0.113,0.529,0.342,0.774,0.336c0.351-0.018,0.405-0.272,0.563-0.292c0.713-0.098,0.621-0.153,1.354,0.455
		c0.399,0.334,0.921,0.8,1.388,0.935c0.04-1.292,1.121,0.402,1.394,0.682c0.499,0.508,1.168,0.973,1.802,1.242
		c-0.38-1.924,1.772,0.586,2.052,0.633c0.088-0.348,0.185-0.656,0.301-0.98c0.583-0.029,0.753,0.665,1.103,0.985
		c0.035-0.213,0.174-0.38,0.176-0.611c0.184,0.104,0.453,0.714,0.583,0.756c0.212,0.063,0.539-0.062,0.637-0.039
		c0.09,0.016,0.586-0.02,0.714-0.003c0.225,0.019,0.418,0.384,0.666,0.43c0.273,0.052,0.64-0.348,0.84-0.274
		c0.287,0.12,0.283,0.543,0.476,0.778c0.454,0.558,0.82,1.019,1.419,1.399c0.096-0.286,0.264-0.561,0.307-0.867
		c0.656,0.167,1.007,1.08,1.747,1.113c0.15-0.413,0.329-1.181,0.843-1.265c0.542-0.085,0.645,0.681,1.335,0.496
		c0.257-0.641,0.199-1.467,0.3-2.138c0.486,0.01,0.694,0.363,1.129,0.507c0.344,0.108,0.915,0.052,1.264,0.096
		c0.136-0.921,1.071-1.01,1.786-0.758c0.03-0.311,0.077-0.696,0.023-1.016"/>
	<path fill="none" stroke="#010202" stroke-width="0.5" stroke-linecap="round" stroke-linejoin="round" stroke-miterlimit="10" d="
		M551.247,217.108c-3.621,2.051-7.806,4.231-9.159,8.493c-0.473,1.472,0.038,2.563,0.575,3.93"/>
	<path fill="none" stroke="#010202" stroke-width="0.5" stroke-linecap="round" stroke-linejoin="round" stroke-miterlimit="10" d="
		M550.22,223.639c-1.717,0.505-3.235,1.216-4.724,2.323c-1.329,1-1.9,1.885-2.703,3.311"/>
	<path fill="none" stroke="#010202" stroke-width="0.5" stroke-linecap="round" stroke-linejoin="round" stroke-miterlimit="10" d="
		M543.688,227.991c-0.96,1.375-1.189,3.17-1.806,4.726c-0.646,1.655-1.52,3.24-2.209,4.89c-1.389,3.309-3.229,6.795-4.151,10.23
		c-0.813,3.012-1.583,6.167-2.883,9.032c-1.319,2.913-2.853,5.682-3.917,8.716c-0.629,1.796-1.824,3.277-2.468,4.985
		c-0.543,1.432-1.05,3.703-0.121,5.065"/>
	<path fill="none" stroke="#010202" stroke-width="0.5" stroke-linecap="round" stroke-linejoin="round" stroke-miterlimit="10" d="
		M547.021,225.172c0.008,4.271,0.021,8.846-0.251,13.188c-0.31,4.976-1.098,9.781-1.866,14.675
		c-0.198,1.265-0.266,2.529-0.498,3.778c-0.237,1.271-0.744,2.425-0.971,3.71"/>
	<path fill="none" stroke="#010202" stroke-width="0.5" stroke-linecap="round" stroke-linejoin="round" stroke-miterlimit="10" d="
		M555.856,230.81c-0.179,5.407-0.202,10.983-1.007,16.346c-0.839,5.562-2.686,11.023-4.355,16.376
		c-0.418,1.336-2.028,7.841-4.114,7.497"/>
	<path fill="none" stroke="#010202" stroke-width="0.5" stroke-linecap="round" stroke-linejoin="round" stroke-miterlimit="10" d="
		M542.151,263.344c0-0.852,0.007-1.533,0.279-2.284c1.062-0.318,2.429-0.272,3.415-0.779c1.132,4.85,0.621,9.686,0.664,14.713"/>
	<path fill="none" stroke="#010202" stroke-width="0.5" stroke-linecap="round" stroke-linejoin="round" stroke-miterlimit="10" d="
		M542.151,261.807c1.692-0.982,1.358,3.969,1.41,4.817c0.063,0.974,0.136,2.006,0.255,2.979c0.165,1.362,0.004,3.031,0.769,4.242"/>
	<path fill="none" stroke="#010202" stroke-width="0.5" stroke-linecap="round" stroke-linejoin="round" stroke-miterlimit="10" d="
		M541.766,267.437c-1.692-0.761-3.701,1.384-4.904,2.573c-1.606,1.593-4.112,3.604-5.085,5.626"/>
	<path fill="none" stroke="#010202" stroke-width="0.5" stroke-linecap="round" stroke-linejoin="round" stroke-miterlimit="10" d="
		M542.025,267.313c0.153,1.031,1.392,1.802,1.944,2.697c0.869,1.384,0.419,2.084,0.105,3.579"/>
	<path fill="none" stroke="#010202" stroke-width="0.5" stroke-linecap="round" stroke-linejoin="round" stroke-miterlimit="10" d="
		M552.269,258.475c-0.026,4.381,0.956,8.726,0.263,13.138c-0.215,1.329-0.391,2.673-0.645,4.023"/>
	<path fill="none" stroke="#010202" stroke-width="0.5" stroke-linecap="round" stroke-linejoin="round" stroke-miterlimit="10" d="
		M601.453,239.132c-1.027,2.241-0.637,5.035-1.546,7.384c-1.115,2.887-2.843,5.456-3.887,8.38c-0.825,2.298-1.293,4.624-1.453,7.065
		c-0.087,1.192-0.136,2.503-0.043,3.696c0.046,0.534,0.241,1.042,0.262,1.576c0.021,0.583-0.347,1.337-0.175,1.895
		c0.184,0.587,0.693,0.711,0.825,1.324c0.101,0.458,0.067,1.239,0.13,1.747c0.188,1.529,0.454,1.883,0.635,3.437"/>
	<path fill="none" stroke="#010202" stroke-width="0.5" stroke-linecap="round" stroke-linejoin="round" stroke-miterlimit="10" d="
		M563.795,232.347c0,1.016-0.044,2.047,0.02,3.054c2.079-0.035,4.354,1.216,6.219,2.031c2.083,0.895,4.224,1.648,6.419,2.203
		c2.269,0.576,4.701,0.949,7.004,1.18c1.21,0.12,2.563,0.02,3.76-0.136c1.194-0.157,2.379,0.109,3.552-0.098
		c0.713-0.125,1.302-0.519,1.977-0.697c0.729-0.197,1.296,0.01,2.027,0.031c0.598,0.021,1.15-0.144,1.741-0.02
		c0.612,0.129,0.913,0.601,1.584,0.24c0.173-0.768,0.153-1.573,0.153-2.406c0-0.413,0-0.818,0-1.219c0-0.177,0-1.337,0-0.833"/>
	<path fill="none" stroke="#010202" stroke-width="0.5" stroke-linecap="round" stroke-linejoin="round" stroke-miterlimit="10" d="
		M557.777,262.443c3.359,0.102,6.201,2.287,9.607,2.178"/>
	<path fill="none" stroke="#010202" stroke-width="0.5" stroke-linecap="round" stroke-linejoin="round" stroke-miterlimit="10" d="
		M566.103,271.923c0.453,0.131,1.472-0.274,2.139-0.394c1.027-0.193,2.106-0.079,3.163-0.12c1.772-0.073,3.56-0.242,5.312,0.088
		c3.281,0.619,7.342,0.328,10.525-0.459c1.185-0.301,5.76-0.531,5.757-2.189"/>
	<path fill="none" stroke="#010202" stroke-width="0.5" stroke-linecap="round" stroke-linejoin="round" stroke-miterlimit="10" d="
		M589.156,269.233c0.878,0.74,2.464-2.305,2.947-2.815"/>
	<path fill="none" stroke="#010202" stroke-width="0.5" stroke-linecap="round" stroke-linejoin="round" stroke-miterlimit="10" d="
		M582.367,265.005c0.322,0.321,1.896,0.06,2.57-0.023c2.322-0.281,4.703-1.699,7.036-1.513"/>
	<path fill="none" stroke="#010202" stroke-width="0.5" stroke-linecap="round" stroke-linejoin="round" stroke-miterlimit="10" d="
		M592.486,251.684c0.499,0.551,2.287,0.584,2.944,0.256"/>
	<path fill="none" stroke="#010202" stroke-width="0.5" stroke-linecap="round" stroke-linejoin="round" stroke-miterlimit="10" d="
		M593.771,250.406c0.614,0.089,1.128,0.282,1.789,0.259"/>
	<path fill="none" stroke="#010202" stroke-width="0.5" stroke-linecap="round" stroke-linejoin="round" stroke-miterlimit="10" d="
		M596.201,247.716c0.355,0.167,0.739,0.144,1.149,0.128"/>
	<path fill="none" stroke="#010202" stroke-width="0.5" stroke-linecap="round" stroke-linejoin="round" stroke-miterlimit="10" d="
		M604.652,237.472c-1.275,1.838-1.948,3.915-2.946,5.889"/>
	<path fill="none" stroke="#010202" stroke-width="0.5" stroke-linecap="round" stroke-linejoin="round" stroke-miterlimit="10" d="
		M603.371,237.085c-0.758,0.471-1.894,2.711-1.918,3.584"/>
	<path fill="none" stroke="#010202" stroke-width="0.5" stroke-linecap="round" stroke-linejoin="round" stroke-miterlimit="10" d="
		M609.007,245.153c-0.119-0.646,0.806-2.661,1.282-3.458"/>
	<path fill="none" stroke="#010202" stroke-width="0.5" stroke-linecap="round" stroke-linejoin="round" stroke-miterlimit="10" d="
		M606.577,212.493c3.78-0.052,7.243,4.529,8.324,7.813"/>
	<path fill="none" stroke="#010202" stroke-width="0.5" stroke-linecap="round" stroke-linejoin="round" stroke-miterlimit="10" d="
		M616.182,210.829c1.383,1.159,2.322,2.098,3.202,3.844"/>
	<path fill="none" stroke="#010202" stroke-width="0.5" stroke-linecap="round" stroke-linejoin="round" stroke-miterlimit="10" d="
		M591.584,217.108c-0.158-0.012-0.171-0.129-0.273-0.017c1.113,1.586,3.156,3.045,3.225,5.263"/>
	<path fill="none" stroke="#010202" stroke-width="0.5" stroke-linecap="round" stroke-linejoin="round" stroke-miterlimit="10" d="
		M587.875,216.721c-0.844,0.253-1.079,3.53-1.024,4.356"/>
	<path fill="none" stroke="#010202" stroke-width="0.5" stroke-linecap="round" stroke-linejoin="round" stroke-miterlimit="10" d="
		M625.147,255.656c2.089-2.654,3.713-1.344,6.429-0.584c2.764,0.768,5.644,0.979,8.494,1.121c2.712,0.134,5.29,0.885,7.979,1.159
		c2.004,0.211,5.778-0.324,6.785,1.94c0.53,1.187,0.172,2.845,0.254,4.113c0.091,1.436,0.096,2.646-0.358,4.03"/>
	<path fill="none" stroke="#010202" stroke-width="0.5" stroke-linecap="round" stroke-linejoin="round" stroke-miterlimit="10" d="
		M614.901,264.752c-0.37,0.407,0,3.445,0,4.415c-0.003,2.098,0.598,3.774,1.02,5.826"/>
	<path fill="none" stroke="#010202" stroke-width="0.5" stroke-linecap="round" stroke-linejoin="round" stroke-miterlimit="10" d="
		M617.718,270.9c0,0.905-0.238,2.353,0.125,3.072"/>
	<path fill="none" stroke="#010202" stroke-width="0.5" stroke-linecap="round" stroke-linejoin="round" stroke-miterlimit="10" d="
		M620.152,272.176c-0.06,0.64,0.055,1.501,0.383,2.048"/>
	<path fill="none" stroke="#010202" stroke-width="0.5" stroke-linecap="round" stroke-linejoin="round" stroke-miterlimit="10" d="
		M660.369,250.15c-0.203,0.768,0.044,2.796,0.116,3.854c0.07,1.128,0.322,2.448,0.788,3.497c0.509,1.127,1.511,1.842,1.955,3.018
		c0.463,1.239,0.887,3.031,0.703,4.349c-0.902-1.058-1.097-2.27-1.51-3.591c-0.366-1.177-0.702-1.639-0.39-2.767
		c0,0.157,0.016,0.324,0,0.476"/>
	<path fill="none" stroke="#010202" stroke-width="0.5" stroke-linecap="round" stroke-linejoin="round" stroke-miterlimit="10" d="
		M664.336,265.393c0.176-0.105,0.276-0.197,0.496-0.108c-0.015,0.619,0.086,1.172,0.26,1.753c-0.609,0.163-1.134-0.243-1.01-0.879"
		/>
	<path fill="none" stroke="#010202" stroke-width="0.5" stroke-linecap="round" stroke-linejoin="round" stroke-miterlimit="10" d="
		M661.773,261.42c0-0.527,0,0.399,0,0.541c0.002,0.518-0.01,1.012-0.063,1.521c-0.081,0.731-0.017,1.921-0.319,2.55"/>
</g>
<g>
	<defs>
		<rect id="SVGID_1_" x="122.967" y="86.146" width="645.818" height="189.844"/>
	</defs>
	<clipPath id="SVGID_2_">
		<use xlink:href="#SVGID_1_"  overflow="visible"/>
	</clipPath>
	<g clip-path="url(#SVGID_2_)">
		<g>
			<path fill="none" stroke="#010202" stroke-width="0.5" stroke-miterlimit="10" d="M314.494,140.439
				c-0.522-3.149,5.199-8.656,7.006-11.299"/>
			<path fill="none" stroke="#010202" stroke-width="0.5" stroke-miterlimit="10" d="M317.427,124.849
				c-1.459,2.651,2.244,7.199,3.392,4.292"/>
			<path fill="none" stroke="#010202" stroke-width="0.5" stroke-miterlimit="10" d="M317.427,126.428
				c2.643-2.392,5.782-5.333,9.602-5.433c3.96-0.099,7.829,2.331,6.179,6.75c-0.935,0.288-1.732-0.17-2.037-1.055
				c-0.736,0.458-1.547,1.179-2.396,1.288c-0.47-1.36-2.736,0.73-4.071,0.448c-1.526-1.949,3.748-1.949,0.897-3.349
				c-3.149-1.542-2.182,3.282-4.1,3.837"/>
			<path fill="none" stroke="#010202" stroke-width="0.5" stroke-miterlimit="10" d="M316.301,126.204
				c-4.898,4.345-13.256,9.497-14.604,16.463c-1.374,7.106,9.01,7.981,13.771,9.179c3.023,0.757,5.996,1.56,8.742,3.054"/>
			<path fill="none" stroke="#010202" stroke-width="0.5" stroke-miterlimit="10" d="M325.117,151.512
				c-2.338,5.329-1.646,12.274-2.036,18.089c-0.381,5.771-0.118,11.74,0.22,17.499c0.123,2.078,0.813,6.015,0.006,7.793"/>
			<path fill="none" stroke="#010202" stroke-width="0.5" stroke-miterlimit="10" d="M323.76,194.221
				c4.936,1.308,9.547,3.296,14.719,3.382c4.962,0.086,10.476,0.563,15.387-0.357c1.497-0.278,3.265-0.832,4.624-1.529
				c1.123-0.578,3.008-2.593,0.324-2.439c-0.008-1.038,1.044-1.186,1.48-2.038c0.547-1.045,0.263-2.025-0.044-3.004
				c-0.108-0.361-0.738-0.859-0.738-1.219c0.008-0.575,0.725-0.555,0.841-1.077c0.223-0.992,0.154-1.961,0.012-3.039
				c-0.285-2.272,1.146-3.52-0.049-5.556c-0.561-0.954-1.212-0.835-0.987-2.106c0.114-0.647,1.197-1.541,1.47-2.177
				c0.545-1.229,0.529-2.094,0.191-3.424c-0.118-0.479-0.648-0.761-0.635-1.429c0.021-0.643,0.752-1.337,0.911-2.011"/>
			<path fill="none" stroke="#010202" stroke-width="0.5" stroke-miterlimit="10" d="M365.789,146.992
				c1.067,4.49,2.403,9.319,0.135,13.663c-1.908,3.653-5.863,6.453-9.363,8.469c-4.625,2.665-7.949,1.509-10.828-2.818
				c-2.35-3.532-4.276-7.196-6.029-11.05c-1.793-3.954-4.488-7.151-5.581-11.428c0.85-0.74,2.069-0.979,3.063-1.522
				c0.632-0.348,1.707-1.58,2.31-1.697c1.51-0.287,3.497,3.154,4.517,4.412c-2.007,1.459-4.062,2.184-5.792,4.004"/>
			<path fill="none" stroke="#010202" stroke-width="0.5" stroke-miterlimit="10" d="M344.092,146.088
				c0.136,1.679,3.132,3.6,4.315,4.874c1.044,1.128,2.122,2.175,3.217,3.199c2.612,2.435,5.604,4.176,5.575,7.972"/>
			<path fill="none" stroke="#010202" stroke-width="0.5" stroke-miterlimit="10" d="M354.036,155.354
				c0.697-1.543,0.711-3.107,1.569-4.625c0.432-0.761,0.929-1.755,1.692-2.26c1.095-0.734,2.723-0.647,3.516-1.7"/>
			<path fill="none" stroke="#010202" stroke-width="0.5" stroke-miterlimit="10" d="M366.013,147.896
				c-0.37-1.642-1.632-2.376-2.951-3.122c-1.955-1.104-2.268-2.333-3.208-4.407c-1.149-2.546-1.612-1.696-3.729-0.663
				c-1.605,0.779-3.811,1.157-5.556,1.441c-1.682,0.274-4.668,0.125-5.766,1.743c2.576,0.419,5.218-0.161,7.77,0.036
				c1.793,0.133,4.559,2.187,6.207,1.354"/>
			<path fill="none" stroke="#010202" stroke-width="0.5" stroke-miterlimit="10" d="M333.928,142.695
				c-1.346-1.718-0.721-3.654-2.37-4.828c-0.919-0.648-1.723-0.394-1.693-1.712c0.016-0.709,0.963-1.606,1.537-1.854
				c-0.014-0.922,0.789-1.05,1.593-0.901c-0.083-0.191-0.063-0.648-0.176-0.886c0.214-0.009,0.471-0.215,0.795-0.195
				c-0.103-0.996-1.666-3.592-2.17-4.306"/>
			<path fill="none" stroke="#010202" stroke-width="0.5" stroke-miterlimit="10" d="M332.343,127.787
				c0.701,1.821,2.813,3.867,4.183,5.192c2.009,1.951,2.811,3.534,2.824,6.557"/>
			<path fill="none" stroke="#010202" stroke-width="0.5" stroke-miterlimit="10" d="M342.283,124.173
				c-0.811,0-1.643-0.019-2.438,0.041c-1.716,4.789,5.388,4.828,3.993,0.669c-0.682,0.124-0.732-0.3-1.1-0.487"/>
			<path fill="none" stroke="#010202" stroke-width="0.5" stroke-miterlimit="10" d="M347.707,125.979
				c-1.903-1.166-2.526,4.424,1.538,3.408c3.242-0.813,1.372-5.712-1.083-4.087"/>
			<path fill="none" stroke="#010202" stroke-width="0.5" stroke-miterlimit="10" d="M347.937,127.105
				c0.231-0.259,0.675-0.328,1.128-0.223"/>
			<path fill="none" stroke="#010202" stroke-width="0.5" stroke-miterlimit="10" d="M341.606,125.979
				c0.264,0.207,0.567,0.283,0.905,0.226"/>
			<path fill="none" stroke="#010202" stroke-width="0.5" stroke-miterlimit="10" d="M351.553,127.787
				c1.846,0.826,4.218-0.155,6.101,0"/>
			<path fill="none" stroke="#010202" stroke-width="0.5" stroke-miterlimit="10" d="M340.478,123.492
				c0.452-4.742,2.104-8.402,7.137-9.489c4.445-0.959,8.603,1.081,10.303,5.379c0.991,2.52,0.706,5.134,0.183,7.723"/>
			<path fill="none" stroke="#010202" stroke-width="0.5" stroke-miterlimit="10" d="M357.429,128.692
				c4.054-1.115-1.913,9.037-2.489,4.517"/>
			<path fill="none" stroke="#010202" stroke-width="0.5" stroke-miterlimit="10" d="M354.489,133.663
				c-1.929,2.471-3.346,5.462-6.8,5.926c-3.603,0.482-6.787-1.799-7.74-5.222c-0.552-1.99-0.359-4.105-0.148-6.132"/>
			<path fill="none" stroke="#010202" stroke-width="0.5" stroke-miterlimit="10" d="M342.738,133.209
				c1.113-0.188,1.766,0.585,2.712,0.225"/>
			<path fill="none" stroke="#010202" stroke-width="0.5" stroke-miterlimit="10" d="M342.966,129.819
				c0.49,0.922,1.398,0.755,2.264,0.223"/>
			<path fill="none" stroke="#010202" stroke-width="0.5" stroke-miterlimit="10" d="M323.76,195.119
				c-0.013,4.132-0.902,8.098-0.91,12.203c-0.006,3.697-0.121,7.338-0.005,11.056c0.078,2.384,1.509,2.479,2.254,4.34
				c0.526,1.327,0.229,3.265,0.733,4.741c1.229,3.589,1.822,6.787,1.549,10.635c-0.125,1.843,0.343,3.051,0.5,4.723
				c0.094,1.041,0.042,1.376,0.44,2.47c0.35,0.952,0.682,1.967,0.855,2.967c0.195,0.253,0.111-0.099,0.23-0.259"/>
			<path fill="none" stroke="#010202" stroke-width="0.5" stroke-miterlimit="10" d="M340.255,213.646
				c0.161,2.51,2.231,4.353,2.49,6.768c0.292,2.763-0.016,5.105-0.011,7.809c0.004,2.557,0.773,5.44,0.297,8.023
				c-0.246,1.301-0.891,2.393-0.574,3.673c0.302,1.221,0.862,1.753,0.953,3.222c0.017,0.242-0.505,0.363-0.47,0.773
				c0.022,0.306,0.498,0.527,0.527,0.865c0.045,0.521,0.211,1.407,0.345,1.917c0.401,1.473,2.465,2.107,2.089,3.784"/>
			<path fill="none" stroke="#010202" stroke-width="0.5" stroke-miterlimit="10" d="M337.997,210.258
				c-0.017,1.907,3.302,4.225,4.275,5.834c1.565,2.586,1.982,5.811,2.548,8.77c0.596,3.114,1.539,5.712,1.535,8.891
				c-0.004,2.678,0.637,4.847,1.112,7.337c0.258,1.36,1.221,8.209,1.822,8.266"/>
			<path fill="none" stroke="#010202" stroke-width="0.5" stroke-miterlimit="10" d="M360.362,197.832
				c-0.162,1.098,0.376,3.428,0.448,4.978c0.077,1.694-0.114,3.316-0.215,4.952c-0.231,3.63-0.241,7.276-0.454,10.876
				c-0.191,3.239-0.848,6.691-0.447,9.953c0.369,3.021,0.93,6.026,1.361,9.039c0.249,1.769,0.21,3.588,0.208,5.419
				c0,0.931-0.055,1.882,0.002,2.809c0.054,0.852,0.328,2.142,0.226,2.137"/>
			<path fill="none" stroke="#010202" stroke-width="0.5" stroke-miterlimit="10" d="M324.439,202.578
				c-0.165,0.13-0.354,0.333-0.605,0.436c1.27-1.338,2.278-2.935,3.539-4.277"/>
			<path fill="none" stroke="#010202" stroke-width="0.5" stroke-miterlimit="10" d="M349.968,201.673
				c-1.385,1.952,6.761,2.703,7.912,2.713"/>
			<path fill="none" stroke="#010202" stroke-width="0.5" stroke-miterlimit="10" d="M314.718,139.987
				c-0.821,1.811,7.131-0.395,8.241-0.451c1.687-0.092,3.393,0.017,5.075,0c1.401-0.019,3.964-0.823,4.989,0.225"/>
			<path fill="none" stroke="#010202" stroke-width="0.5" stroke-miterlimit="10" d="M340.93,136.373
				c0.188,1.187-0.299,2.373-0.675,3.388"/>
			<path fill="none" stroke="#010202" stroke-width="0.5" stroke-miterlimit="10" d="M352.908,136.146
				c0.001,1.354-0.222,2.728,0.677,3.841"/>
			<path fill="none" stroke="#010202" stroke-width="0.5" stroke-miterlimit="10" d="M343.417,116.041
				c-0.155,2.71,8.392,1.042,9.479,2.695c0.356,0.542,0.035,2.014,0.31,2.703c0.234,0.597,0.813,1.078,1.031,1.788
				c0.537,1.71,0.804,3.479,1.387,5.239"/>
		</g>
		<g>
			<path fill="none" stroke="#010202" stroke-width="0.5" stroke-miterlimit="10" d="M346.352,250.93
				c0.055,0.033,0.185,0.501,0.073,0.01c-4.456-3.52-8.659-5.485-14.199-3.084c-5.27,2.289-10.104,5.89-15.165,8.634
				c-4.602,2.486-10.78,6.062-11.146,11.971c-0.392,6.183,6.329,7.963,11.255,7.996c6.512,0.036,12.919-1.108,19.468-0.893"/>
			<path fill="none" stroke="#010202" stroke-width="0.5" stroke-miterlimit="10" d="M349.741,250.707
				c-1.541,0.712-4.264,1.117-6.113,1.654c-2.235,0.646-4.282,1.235-6.435,2.308c-3.394,1.701-7.386,3.221-10.938,4.11
				c-2.656,0.661-4.893,1.419-7.694,1.419"/>
			<path fill="none" stroke="#010202" stroke-width="0.5" stroke-miterlimit="10" d="M349.29,250.48
				c1.788-0.756,3.433-1.635,5.254-2.335c0.877-0.334,1.894-0.938,2.878-0.551c0.611,0.232,0.85,1.163,1.49,1.52
				c0.736,0.407,1.871,0.171,2.646,0.387c0.781,0.226,1.882,0.882,2.574,1.313c0.961,0.604,1.079,1.05,2.33,1.244
				c1.053,0.159,2.148-0.439,2.712,0.681"/>
			<path fill="none" stroke="#010202" stroke-width="0.5" stroke-miterlimit="10" d="M396.063,218.166
				c-5.459,1.222-11.459,4.158-14.281,9.281c-2.797,5.082-3.975,11.239-6.315,16.564c-1.018,2.301-1.679,5.088-3.124,7.147"/>
			<path fill="none" stroke="#010202" stroke-width="0.5" stroke-miterlimit="10" d="M388.154,239.635
				c-0.474,3.076-3.368,5.479-5.479,7.511c-1.655,1.586-3.229,3.293-5.481,3.945c-1.937,0.557-4.006,0.433-5.965,0.885
				c-2.534,0.584-4.924,1.736-7.422,2.468c-8.772,2.56-17.688,2.56-22.776,11.396c-2.595,4.518-2.786,9.907-3.718,14.918"/>
			<path fill="none" stroke="#010202" stroke-width="0.5" stroke-miterlimit="10" d="M355.843,257.934
				c2.266-1.32,5.563-1.449,8.157-2.022c2.476-0.551,4.974-0.875,7.43-1.364c2.378-0.468,4.797-0.255,7.198-0.673
				c3.029-0.538,4.544-2.453,6.587-4.52"/>
			<path fill="none" stroke="#010202" stroke-width="0.5" stroke-miterlimit="10" d="M380.473,256.354
				c-0.963,0.575-2.629,1.095-3.784,1.308c-1.142,0.21-2.531-0.295-3.221,0.728"/>
			<path fill="none" stroke="#010202" stroke-width="0.5" stroke-miterlimit="10" d="M384.992,254.773
				c-3.709,5.222-9.282,8.714-12.624,14.214c-1.939,3.182-3.579,6.488-5.546,9.641c-0.917,1.465-1.666,3.051-2.391,4.621
				c-0.996,2.162-2.855,4.407-3.166,6.777"/>
			<path fill="none" stroke="#010202" stroke-width="0.5" stroke-miterlimit="10" d="M380.02,263.585
				c-2.167,1.263-3.455,6.741-4.063,9.073c-0.856,3.26-1.834,6.608-2.955,9.794c-0.837,2.365-2.134,5.152-3.481,7.24
				c-2.281,3.524-3.246,5.829-3.285,10.276"/>
			<path fill="none" stroke="#010202" stroke-width="0.5" stroke-miterlimit="10" d="M396.742,217.488
				c6.02-1.445,11.376-1.501,16.588,2.26c4.679,3.384,8.26,8.387,10.297,13.761c2.365,6.228,1.523,12.336,1.568,18.813
				c0.046,6.592,2.755,11.354,4.752,17.396c0.973,2.936,1.724,7.036-0.49,9.638c-2.656,3.124-7.814,1.815-11.25,1.18"/>
			<path fill="none" stroke="#010202" stroke-width="0.5" stroke-miterlimit="10" d="M419.338,254.096
				c-0.467,3.179-0.79,6.295,0.459,9.343c0.896,2.202,2.468,4.142,3.297,6.384c0.648,1.733,1.001,4.212,0.754,6.06
				c-0.349,2.639-2.768,3.552-4.737,1.484"/>
			<path fill="none" stroke="#010202" stroke-width="0.5" stroke-miterlimit="10" d="M419.789,271.72
				c0.338,3.11-2.345,6.839-3.737,9.402c-0.89,1.639-1.835,3.322-2.638,5.015c-1.127,2.368-1.536,8.11-3.793,9.313"/>
			<path fill="none" stroke="#010202" stroke-width="0.5" stroke-miterlimit="10" d="M410.522,260.646
				c-0.628,1.708-0.598,3.781-1.128,5.607c-1.107,3.802-2.221,7.842-3.616,11.567"/>
			<path fill="none" stroke="#010202" stroke-width="0.5" stroke-miterlimit="10" d="M399.453,264.265
				c0.013,4.254-1.736,8.551-3.391,12.426"/>
			<path fill="none" stroke="#010202" stroke-width="0.5" stroke-miterlimit="10" d="M394.486,267.427
				c-1.326,2.17-1.744,5.483-2.458,7.982c-0.563,1.973-1.194,3.982-2.169,5.798c-1.215,2.273-3.705,3.696-4.645,6.106"/>
			<path fill="none" stroke="#010202" stroke-width="0.5" stroke-miterlimit="10" d="M425.438,250.707
				c3.857,2.668,7.333,5.777,11.133,8.511c3.561,2.56,7.652,4.365,10.86,7.409c6.438,6.116,10.478,14.616,2.973,21.725
				c-4.335,4.102-11.053,6.082-16.38,8.451"/>
			<path fill="none" stroke="#010202" stroke-width="0.5" stroke-miterlimit="10" d="M431.09,270.141
				c0.266,1.651,2.433,3.283,3.388,4.516"/>
			<path fill="none" stroke="#010202" stroke-width="0.5" stroke-miterlimit="10" d="M431.539,275.786
				c2.907,0,5.362-0.056,8.039,0.796c2.292,0.731,5.746,2.547,8.228,2.37"/>
			<path fill="none" stroke="#010202" stroke-width="0.5" stroke-miterlimit="10" d="M415.951,297.024
				c1.355-2.655,3.108-5.226,4.53-7.793c1.538-2.771,2.882-6.029,4.736-8.474"/>
			<path fill="none" stroke="#010202" stroke-width="0.5" stroke-miterlimit="10" d="M343.868,253.192
				c-1.849,2.044-3.856,3.889-5.04,6.521c-0.546,1.212-1.112,2.802-1.28,4.113c-0.327,2.489,1.027,4.394,1.126,6.763"/>
			<path fill="none" stroke="#010202" stroke-width="0.5" stroke-miterlimit="10" d="M347.485,266.523
				c-1.93,1.899-5.258,4.914-5.652,7.683"/>
			<path fill="none" stroke="#010202" stroke-width="0.5" stroke-miterlimit="10" d="M341.606,278.952
				c0.79,0.95,2.528,1.105,3.623,1.806c1.149,0.745,1.987,1.792,2.707,2.94"/>
			<path fill="none" stroke="#010202" stroke-width="0.5" stroke-miterlimit="10" d="M306.133,267.427
				c-3.93,2.501-8.221,4.25-11.937,7.093c-4.339,3.318-6.005,6.714-5.688,12.138c0.199,3.271,0.292,6.7,0.9,9.919"/>
			<path fill="none" stroke="#010202" stroke-width="0.5" stroke-miterlimit="10" d="M318.332,298.159
				c2.211-0.555,4.828-2.752,6.983-3.762c2.644-1.235,5.64-2.727,8.612-3.245"/>
			<path fill="none" stroke="#010202" stroke-width="0.5" stroke-miterlimit="10" d="M339.417,278.793
				c-3.17,5.773-6.168,14.11-5.501,20.809"/>
		</g>
		<g>
			<path fill="none" stroke="#010202" stroke-width="0.5" stroke-miterlimit="10" d="M468.82,257.501
				c-4.855-1.415,0.045-5.506-0.052-7.853c-0.088-2.212-0.185-2.401,0.676-4.4c0.741-1.71,0.355-3.507,0.651-5.312
				c0.593-3.648,1.301-7.266,1.741-10.95c0.414-3.467,0.076-7.861,1.677-10.989c2.032-3.964,4.585-4.947,8.867-5.255"/>
			<path fill="none" stroke="#010202" stroke-width="0.5" stroke-miterlimit="10" d="M481.701,209.58
				c2.163,1.633,0.361,5.129-0.375,6.974c-0.887,2.237-1.027,4.358,0.151,6.588"/>
			<path fill="none" stroke="#010202" stroke-width="0.5" stroke-miterlimit="10" d="M482.381,222.685
				c5.311-2.412,16.572-15.857,21.142-6.173c0.932,1.972,1.745,4.083,2.598,6.095c-2.992-2.251-7.579-1.959-11.094-2.183
				c-4.256-0.269-7.72,2.085-12.192,2.039"/>
			<path fill="none" stroke="#010202" stroke-width="0.5" stroke-miterlimit="10" d="M505.427,222.463
				c2.458,3.811,4.393,6.992,4.98,11.561c0.558,4.345,0.87,8.533,0.183,12.893c-0.637,4.061-0.802,7.832-2.204,11.807
				c-0.483,1.357-0.917,4.774-2.053,5.315"/>
			<path fill="none" stroke="#010202" stroke-width="0.5" stroke-miterlimit="10" d="M476.73,199.866
				c-0.762-0.458-1.915-0.481-2.449-1.301c1.823-3.09,5.247-3.975,5.628-7.931c0.228-2.374-0.483-5.099,2.366-5.892
				c2.756-0.766,6.43,0.256,9.246,0.416c6.266,0.36,12.543,1.192,13.214,8.701c0.703,7.877-5.61,10.972-8.798,17.3"/>
			<path fill="none" stroke="#010202" stroke-width="0.5" stroke-miterlimit="10" d="M475.376,199.416
				c-1.001,2.941-1.516,6.821,1.605,8.557c3.099,1.72,6.7,1.021,9.692-0.425"/>
			<path fill="none" stroke="#010202" stroke-width="0.5" stroke-miterlimit="10" d="M481.478,187.214
				c-0.14-0.154-0.309-0.072-0.235-0.38c-0.592,2.419,2.188,1.992,3.443,2.781c0.633,0.401,0.988,1.662,1.498,2.151
				c0.589,0.566,1.165,0.766,1.652,1.523c1.088,1.662-0.042,4.205,0.432,5.753c0.303,1.014,0.755,1.036,0.387,2.518
				c-0.235,0.948-0.813,1.771-0.588,2.797c1.907-0.771,4.808-3.154,6.403-0.653c2.351,3.697-2.03,4.08-4.382,4.024
				c0.133-0.274,0.367-0.448,0.651-0.636"/>
			<path fill="none" stroke="#010202" stroke-width="0.5" stroke-miterlimit="10" d="M480.574,196.026
				c0.691,1.13,2.168,1.229,2.933,2.261"/>
			<path fill="none" stroke="#010202" stroke-width="0.5" stroke-miterlimit="10" d="M497.064,238.278
				c-1.835,6.366-3.814,16.421-4.48,22.98"/>
		</g>
	</g>
	<g clip-path="url(#SVGID_2_)">
		
			<path fill="none" stroke="#010202" stroke-width="0.5" stroke-linecap="round" stroke-linejoin="round" stroke-miterlimit="10" d="
			M206.965,126.689c-5.59,2.926-10.302,7.501-10.847,14.232c-0.257,3.244,1.159,6.163,1.211,9.256
			c0.042,2.635-2.706,4.047-4.324,5.905c-2.279,2.625-5.336,6.103-5.324,9.778"/>
		
			<path fill="none" stroke="#010202" stroke-width="0.5" stroke-linecap="round" stroke-linejoin="round" stroke-miterlimit="10" d="
			M188.465,166.054c1.039-2.098,3.099-4.569,5.275-5.486c-0.026,1.455-1.292,2.951-1.549,4.444c0.362-0.536,0.818-1.021,1.363-1.301
			c0.19,1.629-0.844,2.998-0.76,4.709"/>
		
			<path fill="none" stroke="#010202" stroke-width="0.5" stroke-linecap="round" stroke-linejoin="round" stroke-miterlimit="10" d="
			M196.143,168.617c-2.265,1.805,0.135,6.14,2.363,6.885"/>
		
			<path fill="none" stroke="#010202" stroke-width="0.5" stroke-linecap="round" stroke-linejoin="round" stroke-miterlimit="10" d="
			M198.506,170.587c1.052,3.265,5.214,9.117,9.232,8.425c-0.737-0.475-1.445-1.128-1.773-2.062c1.064,0.98,2.39,2.329,3.939,2.265
			c-0.38-0.986-1.343-1.561-1.924-2.458c1.1,1.332,2.894,1.658,4.542,1.697c1.243,0.036,2.929,0.498,4.019,0
			c-8.326-3.893-11.195-11.361-12.516-20.045c-0.411-2.706-0.445-5.396-0.797-8.099"/>
		
			<path fill="none" stroke="#010202" stroke-width="0.5" stroke-linecap="round" stroke-linejoin="round" stroke-miterlimit="10" d="
			M207.164,150.704c-1.075,3.824-5.983-2.124-5.939-4.285c0.025-1.301,0.591-3.396,2.022-3.757c1.665-0.425,2.648,1.298,3.523,2.334
			"/>
		
			<path fill="none" stroke="#010202" stroke-width="0.5" stroke-linecap="round" stroke-linejoin="round" stroke-miterlimit="10" d="
			M203.424,146.571c0.318-0.78,2.207-0.991,3.114-0.557c0.084,1.124-0.12,1.979,0.232,3.111"/>
		
			<path fill="none" stroke="#010202" stroke-width="0.5" stroke-linecap="round" stroke-linejoin="round" stroke-miterlimit="10" d="
			M205.983,143.814c7.669,1.102,12.497-10.149,20.008-8.038c1.754,0.495,2.557,2.649,2.828,4.298"/>
		
			<path fill="none" stroke="#010202" stroke-width="0.5" stroke-linecap="round" stroke-linejoin="round" stroke-miterlimit="10" d="
			M228.422,139.68c-0.72-8.064-8.809-11.486-15.608-13.093c-2.706-0.646-4.872-0.782-7.419,0.499"/>
		
			<path fill="none" stroke="#010202" stroke-width="0.5" stroke-linecap="round" stroke-linejoin="round" stroke-miterlimit="10" d="
			M229.213,140.865c-0.608,0.339,0.439,1.918,0.187,2.782c-0.245,0.85-1.293,1.494-1.557,2.429c-0.747,2.674,0.136,3.936,1.73,5.856
			c-0.644,0.571-3.288,1.341-4.3,1.33"/>
		
			<path fill="none" stroke="#010202" stroke-width="0.5" stroke-linecap="round" stroke-linejoin="round" stroke-miterlimit="10" d="
			M227.635,153.064c-0.666,1.169-1.193,2.21-1.376,3.54"/>
		
			<path fill="none" stroke="#010202" stroke-width="0.5" stroke-linecap="round" stroke-linejoin="round" stroke-miterlimit="10" d="
			M225.074,159.17c-0.803,1.037-0.198,2.645-0.963,3.722c-0.755,1.057-2.063,0.868-3.263,0.806c-1.217-0.065-2.39-0.663-3.564-0.161
			c-1.169,0.503-1.629,1.63-2.441,2.518"/>
		
			<path fill="none" stroke="#010202" stroke-width="0.5" stroke-linecap="round" stroke-linejoin="round" stroke-miterlimit="10" d="
			M209.328,155.229c-0.859,1.499,3.192,5.497,4.138,6.299"/>
		
			<path fill="none" stroke="#010202" stroke-width="0.5" stroke-linecap="round" stroke-linejoin="round" stroke-miterlimit="10" d="
			M222.124,146.966c0.228-0.012,0.418,0.054,0.589,0.193"/>
		
			<path fill="none" stroke="#010202" stroke-width="0.5" stroke-linecap="round" stroke-linejoin="round" stroke-miterlimit="10" d="
			M220.157,143.027c1.875-0.042,2.932-0.139,4.722,0.59"/>
		
			<path fill="none" stroke="#010202" stroke-width="0.5" stroke-linecap="round" stroke-linejoin="round" stroke-miterlimit="10" d="
			M224.094,163.299c2.772,0.016,6.822,1.454,8.312,3.825c1.66,2.649,1.628,5.729,2.311,8.705c0.73,3.163,1.275,6.345,2.046,9.501
			c0.429,1.72,0.951,3.293,1.063,5.08c0.106,1.592-0.076,3.627,1.084,4.876c2.112,2.273,7.668,2.884,10.577,3.051"/>
		
			<path fill="none" stroke="#010202" stroke-width="0.5" stroke-linecap="round" stroke-linejoin="round" stroke-miterlimit="10" d="
			M249.683,197.94c-1.222,1.645-1.526,4.135-1.146,6.114c0.19,0.954,0.751,1.787,1.417,2.438c1.64,1.625,2.592,0.479,3.661-1.268"/>
		
			<path fill="none" stroke="#010202" stroke-width="0.5" stroke-linecap="round" stroke-linejoin="round" stroke-miterlimit="10" d="
			M249.879,197.94c2.744-1.557,5.761-6.778,9.414-6.07c0.329,1.568-0.828,2.2-1.649,3.311c-0.851,1.14-1.124,2.621-2.06,3.746"/>
		
			<path fill="none" stroke="#010202" stroke-width="0.5" stroke-linecap="round" stroke-linejoin="round" stroke-miterlimit="10" d="
			M259.129,191.448c2.096-1.529,5.946-4.727,9.027-4.104c-0.161,0.711-0.964,0.99-1.475,1.564c0.736-0.467,1.58-0.485,2.452-0.384
			c0.02,0.852-1.034,1.444-1.511,2.107c0.482-0.313,1.593-0.737,1.943-0.027c0.382,0.781-0.728,1.378-1.131,1.807
			c-0.972,1.026-1.999,1.952-2.939,2.991c1.482-0.636,2.922-1.464,4.625-1.17c0.052,0.252,0.051,0.47-0.004,0.725
			c-2.785,0.764-4.773,4.112-7.264,4.837c0.643,3.443-8.951,5.233-11.207,5.624"/>
		
			<path fill="none" stroke="#010202" stroke-width="0.5" stroke-linecap="round" stroke-linejoin="round" stroke-miterlimit="10" d="
			M192.404,164.875c-5.715,3.511-10.068,7.223-12.574,13.6c-2.454,6.266-3.369,12.893-4.258,19.519
			c-0.678,5.053-3.679,13.754-0.264,18.292c3.719,4.944,13.464,2.438,18.439,1.439c5.957-1.2,11.708-3.032,17.408-5.109
			c0.646-0.233,1.287-0.47,1.934-0.708c-4.096-1.152-0.808-5.431-2.186-8.063"/>
		
			<path fill="none" stroke="#010202" stroke-width="0.5" stroke-linecap="round" stroke-linejoin="round" stroke-miterlimit="10" d="
			M189.843,197.156c0.133,1.183-0.485,3.515-0.978,4.919c-0.496,1.423-1.979,3.182-1.747,4.693
			c4.009,0.242,8.275-0.144,12.159-0.573c2.062-0.221,4.033-0.256,6.117-0.378c1.685-0.098,3.691-1.467,5.315-1.186"/>
		
			<path fill="none" stroke="#010202" stroke-width="0.5" stroke-linecap="round" stroke-linejoin="round" stroke-miterlimit="10" d="
			M189.843,198.53c0.642-1.472,1.022-3.169,1.38-4.72c0.334-1.415,0.046-4.627,1.182-5.512"/>
		
			<path fill="none" stroke="#010202" stroke-width="0.5" stroke-linecap="round" stroke-linejoin="round" stroke-miterlimit="10" d="
			M194.96,189.086c1.088-0.617,1.957-1.557,3.349-1.574"/>
		
			<path fill="none" stroke="#010202" stroke-width="0.5" stroke-linecap="round" stroke-linejoin="round" stroke-miterlimit="10" d="
			M197.322,191.053c0.647-0.253,1.313-0.411,1.97-0.592"/>
		
			<path fill="none" stroke="#010202" stroke-width="0.5" stroke-linecap="round" stroke-linejoin="round" stroke-miterlimit="10" d="
			M204.211,178.651c0.162,1.406,2.052,3.564,2.99,4.656c1.072,1.245,2.263,2.455,3.486,3.55c1.231,1.117,2.646,2.012,4.016,2.936
			c0.578,0.397,1.463,0.914,1.874,1.498c0.864,1.248-0.199,0.921-0.054,1.809c0.086,0.482,0.754,0.616,0.795,0.871
			c0.072,0.424-0.095,0.912-0.041,1.293c0.105,0.651,0.416,1.802,0.317,2.479"/>
		
			<path fill="none" stroke="#010202" stroke-width="0.5" stroke-linecap="round" stroke-linejoin="round" stroke-miterlimit="10" d="
			M217.007,191.255c3.125-1.729,5.714-3.054,7.325-6.469c1.367-2.906,1.266-5.637,1.136-8.694"/>
		
			<path fill="none" stroke="#010202" stroke-width="0.5" stroke-linecap="round" stroke-linejoin="round" stroke-miterlimit="10" d="
			M217.989,164.089c-0.421,1.705,2.053,4.417,4.117,4.371c-0.019,0.006-0.371,0.157-0.545,0.187
			c-0.308,2.091,0.956,2.035,1.938,3.313"/>
		
			<path fill="none" stroke="#010202" stroke-width="0.5" stroke-linecap="round" stroke-linejoin="round" stroke-miterlimit="10" d="
			M224.486,169.403c-0.004,1.081-0.223,2.432,0.036,3.472c0.256,0.995,1.616,2.959,2.321,1.057"/>
		
			<path fill="none" stroke="#010202" stroke-width="0.5" stroke-linecap="round" stroke-linejoin="round" stroke-miterlimit="10" d="
			M225.074,163.894c0.842,1.871,2.639,2.81,3.867,4.314c1.424,1.736,1.674,4.644,0.703,6.668c-0.071-0.177-0.088-0.36-0.038-0.551"
			/>
		
			<path fill="none" stroke="#010202" stroke-width="0.5" stroke-linecap="round" stroke-linejoin="round" stroke-miterlimit="10" d="
			M224.486,161.924c-0.247,1.214,2.518,3.061,3.482,3.695c2,1.311,3.406,2.257,3.41,4.767"/>
		
			<path fill="none" stroke="#010202" stroke-width="0.5" stroke-linecap="round" stroke-linejoin="round" stroke-miterlimit="10" d="
			M190.632,199.323c2.199,1.937,7.55,1.123,10.231,0.792c3.267-0.398,6.573-0.565,9.85-0.972c1.948-0.24,4.008-0.342,5.9-0.807"/>
		
			<path fill="none" stroke="#010202" stroke-width="0.5" stroke-linecap="round" stroke-linejoin="round" stroke-miterlimit="10" d="
			M217.792,197.354c2.272-0.314,4.638-0.601,6.986-0.771c1.986-0.147,5.51-0.255,6.005-2.774"/>
		
			<path fill="none" stroke="#010202" stroke-width="0.5" stroke-linecap="round" stroke-linejoin="round" stroke-miterlimit="10" d="
			M231.379,185.149c-1.132,1.274-1.752,8.065-0.79,9.645"/>
		
			<path fill="none" stroke="#010202" stroke-width="0.5" stroke-linecap="round" stroke-linejoin="round" stroke-miterlimit="10" d="
			M230.783,194.987c0,2.104-0.286,4.424,0.004,6.499c0.231,1.661,1.072,3.627,1.57,5.214c1.277,4.069,2.779,7.789,3.543,11.896
			c0.213,1.116,0.291,1.98,0.741,2.821c0.586,1.082,1.216,1.304,0.262,2.664c1.737-0.134,0.456,1.177,0.427,1.871
			c-0.038,0.98,0.348,1.403,0.54,2.312c0.275,1.313,0.261,1.37,0.988,2.494c0.66,1.019,0.985,1.201,0.194,2.422"/>
		
			<path fill="none" stroke="#010202" stroke-width="0.5" stroke-linecap="round" stroke-linejoin="round" stroke-miterlimit="10" d="
			M191.615,200.893c-1.004,1.012,0.74,1.63,1.083,2.353c0.363,0.78,0.097,2.274,0.097,3.162"/>
		
			<path fill="none" stroke="#010202" stroke-width="0.5" stroke-linecap="round" stroke-linejoin="round" stroke-miterlimit="10" d="
			M194.175,218.416c-0.746,4.479,0.917,8.717,0.335,13.131c-0.49,3.718-3.918,8.271,0.82,10.479c4.51,2.104,9.83,0.692,14.468-0.079
			c5.112-0.849,10.175-1.65,15.256-2.748c5.822-1.259,11.096-1.859,14.982-6.811"/>
		
			<path fill="none" stroke="#010202" stroke-width="0.5" stroke-linecap="round" stroke-linejoin="round" stroke-miterlimit="10" d="
			M211.3,203.062c0.632,1.207,7.028-3.929,8.343-4.479c3.07-1.272,6.949-1.455,8.779,1.923"/>
		
			<path fill="none" stroke="#010202" stroke-width="0.5" stroke-linecap="round" stroke-linejoin="round" stroke-miterlimit="10" d="
			M222.912,200.306c1.494-0.098,3.427,0.157,4.921,0.411c1.729,0.291,2.312,1.211,2.329,2.903c-0.412,0.159-0.535-0.008-0.755-0.165
			"/>
		
			<path fill="none" stroke="#010202" stroke-width="0.5" stroke-linecap="round" stroke-linejoin="round" stroke-miterlimit="10" d="
			M221.93,202.866c2.412-0.987,8.165-1.563,7.644,2.723c-2.59,0.499-5.081-2.157-7.644,0.028"/>
		
			<path fill="none" stroke="#010202" stroke-width="0.5" stroke-linecap="round" stroke-linejoin="round" stroke-miterlimit="10" d="
			M221.338,205.617c0.63-0.474,3.094,0.014,3.857,0.561c0.967,0.699,1.365,1.813,0.832,2.949c-2.088-0.019-4.306-2.443-6.654-1.146"
			/>
		
			<path fill="none" stroke="#010202" stroke-width="0.5" stroke-linecap="round" stroke-linejoin="round" stroke-miterlimit="10" d="
			M221.338,207.981c-2.848,1.114-4.231,2.959-7.677,2.949"/>
		
			<path fill="none" stroke="#010202" stroke-width="0.5" stroke-linecap="round" stroke-linejoin="round" stroke-miterlimit="10" d="
			M211.693,174.122c2.105,0.008,4.327,0.285,6.241-0.615c2.378-1.121,2.197-2.746,2.615-5.087"/>
		
			<path fill="none" stroke="#010202" stroke-width="0.5" stroke-linecap="round" stroke-linejoin="round" stroke-miterlimit="10" d="
			M194.96,242.43c-1.758,5.267-0.351,10.707,0.6,15.923c0.974,5.338,2.208,10.778,3.4,15.973c0.615,2.696,1.298,5.863,1.151,8.616
			c0.113,0.024,0.222,0.048,0.328,0.065c0.266,0.973-0.675,2.088-0.757,3.13c-0.091,1.123-0.063,2.364,0.005,3.496
			c0.174,2.941,0.814,5.757,0.782,8.841c-0.004-0.347,0.134-0.576,0.201-0.935"/>
		
			<path fill="none" stroke="#010202" stroke-width="0.5" stroke-linecap="round" stroke-linejoin="round" stroke-miterlimit="10" d="
			M218.189,254.239c-1.843,0.723-1.468,6.492-1.578,8.272c-0.186,3.04-0.191,6.164-0.195,9.196c0,5.302-0.051,10.559-0.395,15.788
			c-0.198,3.041-0.223,6.99-1.186,9.886c0.024,0.342,0-0.314,0.007-0.236"/>
		
			<path fill="none" stroke="#010202" stroke-width="0.5" stroke-linecap="round" stroke-linejoin="round" stroke-miterlimit="10" d="
			M218.387,254.041c-0.065,5.38,1.964,10.444,1.969,15.909c0,5.449-0.532,11.316,0.58,16.572c0.307,1.459,0.513,2.894,0.79,4.349
			c0.167,0.878,0.439,1.772,0.591,2.677c0.207,1.213-0.115,3.064,0.396,3.991"/>
		
			<path fill="none" stroke="#010202" stroke-width="0.5" stroke-linecap="round" stroke-linejoin="round" stroke-miterlimit="10" d="
			M238.071,235.141c1.409,2.897,1.103,8.092,0.491,11.293c-0.76,3.967-1.268,7.811-1.675,11.848
			c-0.405,3.984-0.747,7.835-0.976,11.888c-0.23,3.985-1.002,8.528-0.197,12.493c0.25,1.245,0.935,1.609,1.472,2.674
			c0.509,1.016,0.182,1.72-0.006,2.743c-0.517,2.759-0.1,5.771-0.095,8.678"/>
		
			<path fill="none" stroke="#010202" stroke-width="0.5" stroke-linecap="round" stroke-linejoin="round" stroke-miterlimit="10" d="
			M219.171,242.232c0.202,3.042-0.589,6.325-0.593,9.445"/>
		
			<path fill="none" stroke="#010202" stroke-width="0.5" stroke-linecap="round" stroke-linejoin="round" stroke-miterlimit="10" d="
			M218.779,250.305c2.069-0.007,2.946-4.021,3.543-5.512"/>
		
			<path fill="none" stroke="#010202" stroke-width="0.5" stroke-linecap="round" stroke-linejoin="round" stroke-miterlimit="10" d="
			M232.751,205.126c5.36,1.026,14.918,5.303,20.374,1.479"/>
		
			<path fill="none" stroke="#010202" stroke-width="0.5" stroke-linecap="round" stroke-linejoin="round" stroke-miterlimit="10" d="
			M220.061,146.669c-0.037-0.088-0.316-0.057-0.01-0.163c1.491,0.509,3.046,0.784,2.958-1.165"/>
		
			<path fill="none" stroke="#010202" stroke-width="0.5" stroke-linecap="round" stroke-linejoin="round" stroke-miterlimit="10" d="
			M221.535,157.446c0.857,0,3.896,0.268,4.724-0.443"/>
		
			<path fill="none" stroke="#010202" stroke-width="0.5" stroke-linecap="round" stroke-linejoin="round" stroke-miterlimit="10" d="
			M223.009,158.627c0.05,0.061,0.514,0.171,0.889,0.148"/>
	</g>
</g>
<path fill="none" stroke="#010202" stroke-width="0.5" stroke-linecap="round" stroke-linejoin="round" d="M593.542,191.733"/>
<path fill="none" stroke="#010202" stroke-width="0.5" stroke-miterlimit="10" d="M429.929,254.069
	c0.687,0.541,53.606,0.688,96.325,16.501"/>
<path fill="none" stroke="#010202" stroke-width="0.5" stroke-miterlimit="10" d="M683.864,152.974
	c0,3.172-16.32,5.742-36.458,5.742c-20.134,0-36.456-2.57-36.456-5.742s16.322-5.74,36.456-5.74
	C667.544,147.233,683.864,149.802,683.864,152.974z"/>
<path fill="none" stroke="#010202" stroke-width="0.5" stroke-miterlimit="10" d="M686.879,137.499"/>
<polyline fill="none" stroke="#010202" stroke-width="0.5" stroke-miterlimit="10" points="685.299,137.499 622.015,134.418 
	622.015,91.322 696.701,86.793 696.701,137.962 "/>
<ellipse fill="none" stroke="#010202" stroke-width="0.5" stroke-miterlimit="10" cx="565.433" cy="135.295" rx="15.765" ry="2.481"/>
<g>
	<g id="XMLID_22_">
		<g>
			<path fill="#FFFFFF" d="M702.084,151.153c-0.204-1.316-0.455-2.555-0.862-3.872c-0.36-1.16-0.329-2.54-0.658-3.637
				c-1.254-2.022-2.696-4.922-1.725-7.085l0.078-0.157c1.207,0.627,2.774,0.643,3.919,1.677c0.267,0.235,0.643,0.611,1.082,0.972
				v0.016c-1.176,2.712,0.956,6.929,1.803,9.483c1.019,3.088,0.972,6.019,0.799,9.217c-0.705,0.047-1.441-0.047-2.132,0.047
				c-0.721,0.125-1.301,0.611-2.068,0.455c0-0.079-0.017-0.157,0-0.235c-0.142-2.069,0.109-4.075-0.126-6.129
				C702.162,151.655,702.131,151.404,702.084,151.153z"/>
			<path fill="#FFFFFF" d="M697.067,133.974c-0.156-0.831-0.094-2.179-0.423-2.884c0.109-0.016,0.22-0.063,0.313-0.11l0.769,0.016
				c0.063-1.379,0.188-2.774,0.109-4.123c-0.063-0.925-0.188-1.677-1.003-2.226l-0.486-0.125c0.047-0.204,0.094-0.423,0.125-0.643
				l0.126,0.031c1.677-0.376,3.95,0.219,4.53,2.069c0.141,0.408,0.125,0.847,0.047,1.286l0.501-0.016
				c2.163-0.172,3.981-0.063,3.919,2.493c-0.063,2.304,0.925,3.605,1.678,5.674c0.407,1.175,1.724,4.154,0.267,5.031
				c-1.02,0.627-2.509-0.423-3.621-1.379v-0.016c-0.439-0.36-0.815-0.736-1.082-0.972c-1.145-1.035-2.712-1.05-3.919-1.677
				c-0.47-0.235-0.893-0.564-1.206-1.082l-0.33,0.063C697.318,134.914,697.162,134.428,697.067,133.974z"/>
			<path fill="#FFFFFF" d="M692.93,136.654c1.505-0.235,3.01,0.094,4.515-0.22c0.047-0.345,0.016-0.689-0.063-1.05l0.33-0.063
				c0.313,0.517,0.736,0.847,1.206,1.082l-0.078,0.157c-0.972,2.163,0.471,5.063,1.725,7.085c0.329,1.097,0.298,2.477,0.658,3.637
				c0.407,1.317,0.658,2.555,0.862,3.872l-0.408,0.063c-1.034,1.254-2.053,2.821-3.715,3.245c-0.83,0.204-1.661,0.172-2.492-0.016
				c-1.254-0.282-2.492-0.894-3.589-1.458c-0.847-0.455-2.32-0.878-2.854-1.74c-0.313-0.501-0.345-1.223-0.345-1.928h0.345
				c0.016-2.335,0.235-4.577,0.36-6.85c0.095-1.536-0.109-3.135-0.125-4.656c0-0.063,0-0.125,0-0.188c0-0.125,0-0.267,0-0.408
				c0.031,0,0.063-0.016,0.094-0.016C690.563,137.046,691.738,136.858,692.93,136.654z"/>
			<path fill="#FFFFFF" d="M696.598,122.045c0.031,0.548-0.016,1.207-0.126,1.834c-0.031,0.219-0.078,0.438-0.125,0.643l0.486,0.125
				c0.814,0.548,0.94,1.301,1.003,2.226c0.078,1.348-0.047,2.743-0.109,4.123l-0.769-0.016c-0.094,0.047-0.204,0.094-0.313,0.11
				c-0.878,0.25-2.21,0.016-3.041,0.016c-1.081,0-2.101,0.109-3.15,0.125c-1.003,0.016-2.085-0.25-3.119-0.407l0.063-0.47
				c-1.536-1.771,3.621-3.903,4.373-5.079l0.22-0.047c-0.109-0.501-0.157-1.05-0.142-1.552c-1.003-0.094-2.21-0.016-2.477-1.316
				c-0.125-0.643-0.047-2.916,0.737-2.947c0.047-0.705,0.329-2.492,0.267-2.711l0.031-0.298c-0.251-0.016-0.502-0.047-0.753-0.094
				c-0.078-1.708,1.238-2.241,2.681-2.445c0.847-0.109,3.981-0.658,3.997,0.361h0.016c0.36,2.665,3.856,5.518,0.611,7.696
				L696.598,122.045z"/>
			<path fill="#FFFFFF" d="M696.802,173.443c-0.424,1.615-1.082,3.151-1.646,4.734c-0.203,0.564-0.407,1.16-0.627,1.771
				c-0.392,1.129-0.815,2.288-1.316,3.292h-0.016l-0.188,0.501c0.313,0.313-0.407,1.944-0.485,2.556
				c-0.095,0.783,0.109,1.614-0.031,2.382c-0.361,1.897-1.944,2.022-3.574,1.881c-0.502-0.83,0.423-2.429,0.689-3.244
				c0.423-1.348,0.439-3.512,1.145-4.702l0.392-0.235c0.094-2.116,0.972-4.421,1.536-6.442c0.439-1.725,1.191-3.48,1.301-5.251
				c0-0.063,0-0.125,0.016-0.188c0.095-1.693,0.063-3.401,0.439-5.047c0.847-3.621,1.05-7.226,1.034-11.003
				c0.831,0.188,1.662,0.219,2.492,0.016c1.662-0.423,2.681-1.991,3.715-3.245l0.408-0.063c0.047,0.251,0.078,0.501,0.109,0.752
				c0.235,2.054-0.016,4.06,0.126,6.129h-0.126c-0.454,3.746-3.809,6.709-4.499,10.33c-0.141,0.737-0.234,1.489-0.345,2.242
				C697.225,171.546,697.067,172.502,696.802,173.443z"/>
			<path fill="#FFFFFF" d="M696.645,131.09c0.329,0.705,0.267,2.053,0.423,2.884c0.095,0.455,0.251,0.94,0.313,1.411
				c0.079,0.361,0.11,0.706,0.063,1.05c-1.505,0.313-3.01-0.016-4.515,0.22c-1.191,0.204-2.367,0.392-3.574,0.548
				c-0.031,0-0.063,0.016-0.094,0.016c-0.471,0.047-0.784-0.031-1.019-0.188c-0.533-0.329-0.658-1.082-1.066-1.975
				c-0.533-1.316-1.521-2.9-1.739-4.311c0.595-0.078,1.238-0.016,1.896,0.079c1.034,0.157,2.116,0.423,3.119,0.407
				c1.05-0.016,2.069-0.125,3.15-0.125C694.435,131.105,695.767,131.34,696.645,131.09z"/>
			<path fill="#FFFFFF" d="M688.243,137.03c0.234,0.157,0.548,0.235,1.019,0.188c0,0.141,0,0.282,0,0.408c0,0.063,0,0.125,0,0.188
				c0.016,1.521,0.22,3.12,0.125,4.656c-0.125,2.272-0.345,4.514-0.36,6.85h-0.345c0,0.706,0.031,1.427,0.345,1.928
				c0.533,0.862,2.007,1.285,2.854,1.74c1.097,0.564,2.335,1.176,3.589,1.458c0.016,3.777-0.188,7.383-1.034,11.003
				c-0.376,1.646-0.345,3.354-0.439,5.047l-0.627-0.031c-0.768-1.27-0.83-3.025-1.301-4.42c-0.345-0.956-0.658-1.912-1.003-2.853
				c-0.643-1.834-0.392-4.295-1.316-5.878l-0.611-0.627c0.031-1.693-1.082-3.166-1.521-4.734c-0.235-0.987-0.016-2.022,0.031-3.041
				c0.047-1.066-0.031-2.085,0.141-3.167c0.188-1.426,0.188-2.9,0.157-4.374C687.365,140.228,687.819,138.159,688.243,137.03z"/>
		</g>
		<g>
			
				<path fill="none" stroke="#010202" stroke-width="0.5" stroke-linecap="round" stroke-linejoin="round" stroke-miterlimit="10" d="
				M698.212,117.578c1.191-0.157,2.163-1.943,2.085-3.088c-0.282,0.094-0.455-0.031-0.705,0.22c-0.079-0.22-0.282-0.329-0.361-0.47
				c-0.094,0.204-0.407,0.345-0.501,0.47c-0.267-1.27-1.003-0.172-1.066,0.501c-0.141-0.016-0.047-0.11-0.063-0.251"/>
			
				<path fill="none" stroke="#010202" stroke-width="0.5" stroke-linecap="round" stroke-linejoin="round" stroke-miterlimit="10" d="
				M696.331,113.722c0,0.157,0,0.329,0.016,0.502c0.36,2.665,3.856,5.518,0.611,7.696"/>
			
				<path fill="none" stroke="#010202" stroke-width="0.5" stroke-linecap="round" stroke-linejoin="round" stroke-miterlimit="10" d="
				M696.331,121.92c0.173-0.706,0.721-3.981-0.862-2.242"/>
			
				<path fill="none" stroke="#010202" stroke-width="0.5" stroke-linecap="round" stroke-linejoin="round" stroke-miterlimit="10" d="
				M695.344,119.929c-1.129,0.298-0.58-1.191-0.987-1.803c-0.063,0.094-0.204,0.251-0.251,0.329
				c-0.564-0.643-1.082-1.223-1.787-1.614c-0.611-0.345-1.254-0.376-1.912-0.439c-0.251-0.016-0.502-0.047-0.753-0.094
				c-0.078-1.708,1.238-2.241,2.681-2.445c0.847-0.109,3.981-0.658,3.997,0.361"/>
			
				<path fill="none" stroke="#010202" stroke-width="0.5" stroke-linecap="round" stroke-linejoin="round" stroke-miterlimit="10" d="
				M690.375,116.7c0.063,0.219-0.22,2.006-0.267,2.711c-0.784,0.032-0.862,2.304-0.737,2.947c0.267,1.301,1.474,1.223,2.477,1.316
				c-0.016,0.501,0.032,1.05,0.142,1.552c0.063,0.329,0.141,0.627,0.251,0.909"/>
			
				<path fill="none" stroke="#010202" stroke-width="0.5" stroke-linecap="round" stroke-linejoin="round" stroke-miterlimit="10" d="
				M696.598,122.045c0.031,0.548-0.016,1.207-0.126,1.834c-0.031,0.219-0.078,0.438-0.125,0.643
				c-0.094,0.392-0.204,0.737-0.345,1.034c-0.423,0.909-1.285,1.615-1.678,2.54c-0.485-0.564-1.003-1.474-1.081-2.21"/>
			
				<path fill="none" stroke="#010202" stroke-width="0.5" stroke-linecap="round" stroke-linejoin="round" stroke-miterlimit="10" d="
				M696.833,124.647c0.814,0.548,0.94,1.301,1.003,2.226c0.078,1.348-0.047,2.743-0.109,4.123c0,0.313-0.016,0.643-0.016,0.972"/>
			
				<path fill="none" stroke="#010202" stroke-width="0.5" stroke-linecap="round" stroke-linejoin="round" stroke-miterlimit="10" d="
				M696.598,123.911c1.677-0.376,3.95,0.219,4.53,2.069c0.141,0.408,0.125,0.847,0.047,1.286c-0.095,0.58-0.345,1.16-0.549,1.661
				c-0.486,1.176-0.564,2.336-0.94,3.542"/>
			
				<path fill="none" stroke="#010202" stroke-width="0.5" stroke-linecap="round" stroke-linejoin="round" stroke-miterlimit="10" d="
				M703.918,139.052c-0.439-0.36-0.815-0.736-1.082-0.972c-1.145-1.035-2.712-1.05-3.919-1.677c-0.47-0.235-0.893-0.564-1.206-1.082
				"/>
			
				<path fill="none" stroke="#010202" stroke-width="0.5" stroke-linecap="round" stroke-linejoin="round" stroke-miterlimit="10" d="
				M701.676,127.249c2.163-0.172,3.981-0.063,3.919,2.493c-0.063,2.304,0.925,3.605,1.678,5.674
				c0.407,1.175,1.724,4.154,0.267,5.031c-1.02,0.627-2.509-0.423-3.621-1.379"/>
			
				<path fill="none" stroke="#010202" stroke-width="0.5" stroke-linecap="round" stroke-linejoin="round" stroke-miterlimit="10" d="
				M705.783,137.187c-1.27,0.125-2.383-1.035-3.15-1.865c-0.627-0.689-1.176-2.398-2.305-2.085
				c-0.313,1.709-1.912-0.956-2.617,0.737"/>
			
				<path fill="none" stroke="#010202" stroke-width="0.5" stroke-linecap="round" stroke-linejoin="round" stroke-miterlimit="10" d="
				M704.529,136.701c-0.611-0.846-1.38-2.069-1.489-3.119"/>
			
				<path fill="none" stroke="#010202" stroke-width="0.5" stroke-linecap="round" stroke-linejoin="round" stroke-miterlimit="10" d="
				M696.598,130.98c0.016,0.031,0.047,0.078,0.047,0.11c0.329,0.705,0.267,2.053,0.423,2.884c0.095,0.455,0.251,0.94,0.313,1.411
				c0.079,0.361,0.11,0.706,0.063,1.05c-1.505,0.313-3.01-0.016-4.515,0.22c-1.191,0.204-2.367,0.392-3.574,0.548
				c-0.031,0-0.063,0.016-0.094,0.016c-0.471,0.047-0.784-0.031-1.019-0.188c-0.533-0.329-0.658-1.082-1.066-1.975
				c-0.533-1.316-1.521-2.9-1.739-4.311c0.595-0.078,1.238-0.016,1.896,0.079c1.034,0.157,2.116,0.423,3.119,0.407
				c1.05-0.016,2.069-0.125,3.15-0.125c0.831,0,2.163,0.235,3.041-0.016c0.109-0.016,0.22-0.063,0.313-0.11"/>
			
				<path fill="none" stroke="#010202" stroke-width="0.5" stroke-linecap="round" stroke-linejoin="round" stroke-miterlimit="10" d="
				M685.312,137.861c0.078,0.689,0.126,1.504,0.533,2.116c0.438,0.659,1.254,1.066,1.771,1.662c0.063-0.125,0.063-0.235,0.031-0.345
				"/>
			
				<path fill="none" stroke="#010202" stroke-width="0.5" stroke-linecap="round" stroke-linejoin="round" stroke-miterlimit="10" d="
				M687.036,134.946c-2.21-0.909-1.912,1.708-1.725,2.916"/>
			
				<path fill="none" stroke="#010202" stroke-width="0.5" stroke-linecap="round" stroke-linejoin="round" stroke-miterlimit="10" d="
				M688.274,136.937c-0.016,0.031-0.031,0.063-0.031,0.094c-0.424,1.129-0.878,3.198-0.298,4.342
				c0.016,0.063,0.047,0.11,0.078,0.157"/>
			
				<path fill="none" stroke="#010202" stroke-width="0.5" stroke-linecap="round" stroke-linejoin="round" stroke-miterlimit="10" d="
				M698.839,136.56c-0.972,2.163,0.471,5.063,1.725,7.085c0.141,0.235,0.282,0.439,0.407,0.643c1.552,2.445,3.198,5.267,3.072,8.292
				"/>
			
				<path fill="none" stroke="#010202" stroke-width="0.5" stroke-linecap="round" stroke-linejoin="round" stroke-miterlimit="10" d="
				M700.438,143.285c0.048,0.11,0.095,0.235,0.126,0.36c0.329,1.097,0.298,2.477,0.658,3.637c0.407,1.317,0.658,2.555,0.862,3.872
				c0.047,0.251,0.078,0.501,0.109,0.752c0.235,2.054-0.016,4.06,0.126,6.129c-0.017,0.079,0,0.157,0,0.235
				c0.768,0.157,1.348-0.33,2.068-0.455c0.69-0.094,1.427,0,2.132-0.047c0.173-3.198,0.22-6.129-0.799-9.217
				c-0.847-2.555-2.979-6.771-1.803-9.483v-0.016"/>
			
				<path fill="none" stroke="#010202" stroke-width="0.5" stroke-linecap="round" stroke-linejoin="round" stroke-miterlimit="10" d="
				M687.898,138.927c0,0.815,0.031,1.63,0.047,2.445c0.031,1.474,0.031,2.947-0.157,4.374c-0.172,1.082-0.094,2.101-0.141,3.167
				c-0.047,1.019-0.267,2.053-0.031,3.041c0.438,1.568,1.552,3.041,1.521,4.734"/>
			
				<path fill="none" stroke="#010202" stroke-width="0.5" stroke-linecap="round" stroke-linejoin="round" stroke-miterlimit="10" d="
				M688.65,147.987c0.047,0.392,0.031,0.862,0.031,1.332c0,0.706,0.031,1.427,0.345,1.928c0.533,0.862,2.007,1.285,2.854,1.74
				c1.097,0.564,2.335,1.176,3.589,1.458c0.831,0.188,1.662,0.219,2.492,0.016c1.662-0.423,2.681-1.991,3.715-3.245"/>
			
				<path fill="none" stroke="#010202" stroke-width="0.5" stroke-linecap="round" stroke-linejoin="round" stroke-miterlimit="10" d="
				M695.469,154.21c0,0.079,0,0.157,0,0.235c0.016,3.777-0.188,7.383-1.034,11.003c-0.376,1.646-0.345,3.354-0.439,5.047
				c-0.016,0.063-0.016,0.125-0.016,0.188c-0.109,1.771-0.861,3.527-1.301,5.251c-0.564,2.021-1.442,4.326-1.536,6.442"/>
			
				<path fill="none" stroke="#010202" stroke-width="0.5" stroke-linecap="round" stroke-linejoin="round" stroke-miterlimit="10" d="
				M702.193,158.035c-0.454,3.746-3.809,6.709-4.499,10.33c-0.141,0.737-0.234,1.489-0.345,2.242
				c-0.125,0.94-0.282,1.896-0.548,2.837c-0.424,1.615-1.082,3.151-1.646,4.734c-0.203,0.564-0.407,1.16-0.627,1.771
				c-0.392,1.129-0.815,2.288-1.316,3.292h-0.016c-0.518-0.235-1.113-0.329-1.693-0.377"/>
			
				<path fill="none" stroke="#010202" stroke-width="0.5" stroke-linecap="round" stroke-linejoin="round" stroke-miterlimit="10" d="
				M693.008,183.741c0.313,0.313-0.407,1.944-0.485,2.556c-0.095,0.783,0.109,1.614-0.031,2.382
				c-0.361,1.897-1.944,2.022-3.574,1.881c-0.502-0.83,0.423-2.429,0.689-3.244c0.423-1.348,0.439-3.512,1.145-4.702"/>
			
				<path fill="none" stroke="#010202" stroke-width="0.5" stroke-linecap="round" stroke-linejoin="round" stroke-miterlimit="10" d="
				M689.748,157.313c0.925,1.583,0.674,4.044,1.316,5.878c0.345,0.94,0.658,1.896,1.003,2.853c0.471,1.395,0.533,3.151,1.301,4.42"
				/>
			
				<path fill="none" stroke="#010202" stroke-width="0.5" stroke-linecap="round" stroke-linejoin="round" stroke-miterlimit="10" d="
				M697.334,169.462c0,0.376,0,0.768,0.016,1.144c0.047,2.132,0.22,4.248,0.486,6.333c0.156,1.285,0.22,2.649,0.376,3.95
				c0.11,0.987,0.533,2.367,0.345,3.308c-1.112,0.345-1.896,1.065-2.586,0.078c-0.031-0.031-0.063-0.063-0.078-0.094
				c-0.706-1.191-0.957-2.9-1.364-4.232c-0.016-0.063-0.031-0.125-0.047-0.188"/>
			
				<path fill="none" stroke="#010202" stroke-width="0.5" stroke-linecap="round" stroke-linejoin="round" stroke-miterlimit="10" d="
				M698.683,184.337c0.972,1.678,0.25,4.562-1.803,4.859c-3.119,0.455-1.066-3.213-0.909-4.922c0-0.016,0-0.031,0-0.047"/>
			
				<path fill="none" stroke="#010202" stroke-width="0.5" stroke-linecap="round" stroke-linejoin="round" stroke-miterlimit="10" d="
				M691.77,125.274c-0.752,1.175-5.909,3.307-4.373,5.079"/>
			
				<path fill="none" stroke="#010202" stroke-width="0.5" stroke-linecap="round" stroke-linejoin="round" stroke-miterlimit="10" d="
				M691.863,126.763c-0.893,1.379-1.223,3.088-2.477,4.217"/>
			
				<path fill="none" stroke="#010202" stroke-width="0.5" stroke-linecap="round" stroke-linejoin="round" stroke-miterlimit="10" d="
				M691.863,119.067c0.048,0.063,0.251,0.063,0.017,0.125c-0.063-0.079-0.142-0.172-0.22-0.251
				c-0.251-0.282-0.549-0.548-0.909-0.627"/>
			
				<path fill="none" stroke="#010202" stroke-width="0.5" stroke-linecap="round" stroke-linejoin="round" stroke-miterlimit="10" d="
				M691.863,118.816c-0.063,0.047-0.125,0.078-0.203,0.125c-0.188,0.079-0.424,0.125-0.658,0.125"/>
			
				<path fill="none" stroke="#010202" stroke-width="0.5" stroke-linecap="round" stroke-linejoin="round" stroke-miterlimit="10" d="
				M696.472,120.572c-0.234,0.329-0.658,2.618-1.254,1.599"/>
			
				<path fill="none" stroke="#010202" stroke-width="0.5" stroke-linecap="round" stroke-linejoin="round" stroke-miterlimit="10" d="
				M689.262,137.218c0,0.141,0,0.282,0,0.408c0,0.063,0,0.125,0,0.188c0.016,1.521,0.22,3.12,0.125,4.656
				c-0.125,2.272-0.345,4.514-0.36,6.85c0,0.047,0,0.11,0,0.157"/>
		</g>
	</g>
</g>
</svg>
