<?xml version="1.0" encoding="utf-8"?>
<!-- Generator: Adobe Illustrator 16.0.0, SVG Export Plug-In . SVG Version: 6.00 Build 0)  -->
<!DOCTYPE svg PUBLIC "-//W3C//DTD SVG 1.1//EN" "http://www.w3.org/Graphics/SVG/1.1/DTD/svg11.dtd">
<svg version="1.1" id="Calque_1" xmlns="http://www.w3.org/2000/svg" xmlns:xlink="http://www.w3.org/1999/xlink" x="0px" y="0px"
	 width="372.223px" height="341.975px" viewBox="0 0 372.223 341.975" enable-background="new 0 0 372.223 341.975"
	 xml:space="preserve">
<g>
	<path fill="none" stroke="#231F20" stroke-width="0.5" stroke-miterlimit="10" d="M229.501,43.334
		c-4.434,5.695-12.168,6.239-16.95,11.457c-2.03,2.212-3.811,4.899-3.643,8.032c0.156,2.924,0.675,5.168,2.57,6.949
		c0.739,0.692,4.09,3.111,5.146,2.934"/>
	<path fill="none" stroke="#231F20" stroke-width="0.5" stroke-miterlimit="10" d="M240.768,58.222
		c0.131,0.294,0.274,0.529,0.454,0.804c-9.395,2.257-21.754,4.201-24.847,14.926c-2.355,8.169,1.232,15.868,2.733,23.786
		c1.684,8.881,2.519,16.384,8.054,23.894c4.596,6.245,10.039,13.243,17.854,15.375c12.05,3.283,19.781-8.7,26.338-16.818"/>
	<path fill="none" stroke="#231F20" stroke-width="0.5" stroke-miterlimit="10" d="M232.724,111.345
		c2.283,0.873,3.706,2.915,6.302,1.393c2.388-1.393,2.24-3.535,5.765-3.012"/>
	<path fill="none" stroke="#231F20" stroke-width="0.5" stroke-miterlimit="10" d="M218.234,85.592
		c0.305-0.032,2.778-0.51,4.011-0.411c2.134,0.177,4.164,1.671,6.453,1.61"/>
	<path fill="none" stroke="#231F20" stroke-width="0.5" stroke-miterlimit="10" d="M242.781,84.379
		c1.449-1.502,4.427-2.356,6.41-3.087c4.103-1.514,6.29,0.83,10.491,0.673"/>
	<path fill="none" stroke="#231F20" stroke-width="0.5" stroke-miterlimit="10" d="M245.595,90.818
		c4.653-1.795,6.472-4.467,11.673-1.612"/>
	<path fill="none" stroke="#231F20" stroke-width="0.5" stroke-miterlimit="10" d="M250.427,88.808c-0.57,2.832,3.732,2.668,4.022,0
		"/>
	<path fill="none" stroke="#231F20" stroke-width="0.5" stroke-miterlimit="10" d="M222.259,94.034
		c0.491-3.049,7.314-2.911,8.448-0.404"/>
	<path fill="none" stroke="#231F20" stroke-width="0.5" stroke-miterlimit="10" d="M226.281,92.024
		c0.31,0.907,1.236,1.298,2.417,1.208"/>
	<path fill="none" stroke="#231F20" stroke-width="0.5" stroke-miterlimit="10" d="M243.586,57.414
		c-0.795,0.312-1.599,0.606-2.413,0.879c2.695-0.708,4.128-2.21,5.956-4.063c0.163,2.414,2.544,4.729,4.208,6.301
		c1.693,1.608,4.449,2,5.917,3.401c1.921,1.834,0.509,4.098,2.234,5.917c2,2.109,4.819,0.686,4.278,4.816
		c2.687-0.392,1.881,2.399,2.093,4.155c0.282,2.356,0.751,3.118,2.045,4.762c1.921,2.44,5.642,6.95,9.079,5.226"/>
	<path fill="none" stroke="#231F20" stroke-width="0.5" stroke-miterlimit="10" d="M276.181,87.997
		c1.828-1.832,6.545-5.102,9.199-2.64c1.807,1.677,1.018,6.804,0.438,8.887c-1.008,3.65-5.108,14.495-9.979,12.596
		c-0.319-0.836,0.01-1.103,0.342-1.54"/>
	<path fill="none" stroke="#231F20" stroke-width="0.5" stroke-miterlimit="10" d="M275.78,105.706
		c-1.68,2.35,0.826,10.255,1.012,13.297c0.264,4.379,0.704,8.821,2.605,12.86"/>
	<path fill="none" stroke="#231F20" stroke-width="0.5" stroke-miterlimit="10" d="M238.758,134.679
		c-0.411,3.334,1.182,6.838,1.618,10.081c0.568,4.203,0.81,6.217-0.006,10.439"/>
	<path fill="none" stroke="#231F20" stroke-width="0.5" stroke-miterlimit="10" d="M239.56,137.093
		c-4.794,6.086-9.541,11.665-16.656,15.269c-4.903,2.477-10.679,6.757-14.297,10.816c4.465-0.054,8.53,2.042,13.215,1.677
		c3.973-0.318,10.226-2.614,12.911-4.422"/>
	<path fill="none" stroke="#231F20" stroke-width="0.5" stroke-miterlimit="10" d="M241.173,149.967
		c0.208,3.431-2.493,7.795-3.922,10.88c-1.788,3.87-2.661,6.514-2.893,10.805c-0.463,8.632-1.167,17.994,3.914,25.542
		c0.275,0.196-0.058-0.294,0.083-0.548"/>
	<path fill="none" stroke="#231F20" stroke-width="0.5" stroke-miterlimit="10" d="M238.354,195.845
		c1.918-2.505,5.745-4.271,8.143-6.529c3.034-2.859,5.995-6.185,8.605-9.397c4.71-5.807,10.209-11.334,13.838-17.878"/>
	<path fill="none" stroke="#231F20" stroke-width="0.5" stroke-miterlimit="10" d="M268.94,161.234
		c0.969-2.258,3.627-3.844,5.234-5.769c2.145-2.556,3.762-5.232,5.1-8.268c2.097-4.753,2.93-8.931,2.942-14.129"/>
	<path fill="none" stroke="#231F20" stroke-width="0.5" stroke-miterlimit="10" d="M281.414,133.473
		c3.732,3.124,9.257,6.914,14.06,8.135c-2.34,5.736-1.599,12.024-1.782,18.078c-0.104,3.296,0.64,10.386-0.919,13.344
		c-3.06,5.792-19.061-7.641-23.03-9.782"/>
	<path fill="none" stroke="#231F20" stroke-width="0.5" stroke-miterlimit="10" d="M235.535,141.928
		c-3.587-0.378-6.517,0.078-10.144-0.797c-3.158-0.755-5.227-0.587-8.449-0.161c-3.338,0.449-5.97-0.093-9.115,1.479
		c-3.203,1.612-6.153,3.792-9.343,5.39c-4.016,2.008-8.24,3.803-11.961,6.421c-3.141,2.197-5.65,5.278-8.55,7.757
		c-0.6,0.516-0.942,1.526-1.729,1.832c-0.549,0.217-1.625-0.286-1.874-0.161c-1.61,0.802-1.271,0.333-2.56,2.309
		c-1.732,2.668-3.494,4.201-6.253,5.957c-3.283,2.085-6.378,4.547-9.709,6.557c-3.966,2.382-6.849,2.343-11.182,2.916
		c-1.669,4.104-3.993,6.31-7.914,7.775c-1.741,0.66-9.988,0.811-9.864,2.215"/>
	<path fill="none" stroke="#231F20" stroke-width="0.5" stroke-miterlimit="10" d="M123.671,193.026
		c0.378-0.517,1.149-1.02,1.517-1.58c1.015,8.04,1.368,16.266,2.081,24.375c0.313,3.53-0.101,7.146,2.901,9.407
		c1.995,1.514,7.875,3.139,6.348-1.475c2.12,1.811,7.93-1.045,10.057-1.961c1.544-0.675,2.698-1.861,4.243-2.618
		c1.515-0.739,2.995-0.739,4.66-1.299c3.978-1.367,6.507-2.395,10.822-2.713c4.288-0.313,4.799-4.39,8.691-5.663
		c0.933-0.301,2.206,0.234,3.184,0.014c1.286-0.302,2.134-1.254,3.341-1.69c2.023-0.73,4.104-0.771,6.136,0.091"/>
	<path fill="none" stroke="#231F20" stroke-width="0.5" stroke-miterlimit="10" d="M189.259,195.845
		c3.021,5.565,2.538,13.669,1.569,19.714c-0.953,5.973-3.863,12.787-2.267,18.919c0.819,3.164,3.595,5.318,5.023,8.14
		c1.249,2.459,1.618,5.263,2.169,7.924c1.344,6.514,2.033,13.054,1.103,19.688c-0.538,3.806-1.289,7.546-1.909,11.352
		c-0.743,4.553-0.352,13.397-3.268,16.876"/>
	<path fill="none" stroke="#231F20" stroke-width="0.5" stroke-miterlimit="10" d="M264.509,213.551c-0.003,1.651,0-1.187,0-1.625
		c0-1.123,0.085-2.283,0-3.405c-0.131-1.871-0.81-3.457-0.731-5.364c6.087-2.829,9.467,5.469,10.371,10.214
		c0.518,2.747,0.564,5.443,1.253,8.122c0.812,3.165,2.1,4.037,3.988,6.449c3.256,4.162,3.667,10.646,4.848,15.789
		c1.182,5.138,2.917,9.868,5.722,14.335c1.556,2.477,3.118,4.88,5.22,6.936c1.148,1.113,2.652,1.97,3.64,3.255
		c1.351,1.75,1.606,5.009,3.517,6.054"/>
	<path fill="none" stroke="#231F20" stroke-width="0.5" stroke-miterlimit="10" d="M266.121,217.571
		c-3.888-3.036-21.041-6.721-22.607,0.748c-2.132-0.68-4.873-2.056-6.862,0.017c-2.029,2.099-1.414,5.357,0.868,6.79
		c-0.927,0.154-1.462,0.761-2.316,0.972c-0.953,3.646,8.442,8.341,11.474,9.592c-1.577-0.546-8.665-2.089-10.009-0.988
		c-2.906,2.373,3.673,4.644,5.209,5.211c5.708,2.103,11.068,4.962,17.406,3.986c4.875,12.15,4.463,25.785,8.707,38.039
		c1.778,5.146,5.294,9.223,7.386,14.104"/>
	<path fill="none" stroke="#231F20" stroke-width="0.5" stroke-miterlimit="10" d="M297.104,142.73
		c-0.547,0.118-0.855,0.449-1.48,0.477c16.124,9.558,38.218,12.734,42.191,34.011c3.947,21.131-5.226,43.861-11.538,63.708
		c-3.329,10.466-7.564,20.102-13.482,29.363"/>
	<path fill="none" stroke="#231F20" stroke-width="0.5" stroke-miterlimit="10" d="M304.75,272.697
		c-0.427-0.692-0.169-1.328-1.153-1.135c4.27,6.737,5.105,12.107,1.153,19.215c-3.458,6.209-9.467,9.029-16.284,9.602
		c-6.688,0.559-9.102-2.898-12.687-8.363"/>
	<path fill="none" stroke="#231F20" stroke-width="0.5" stroke-miterlimit="10" d="M316.418,267.069
		c-1.82,1.587-3.173,4.554-3.598,7.025c-0.182,1.058,0.555,3.607,0.021,4.429c-0.992,1.544-4.56,2.317-5.271,1.02"/>
	<path fill="none" stroke="#231F20" stroke-width="0.5" stroke-miterlimit="10" d="M283.827,243.722
		c0.341,0.206,0.04,0.692,0.725,0.353c1.039-3.044,0.999-5.826,1.282-9.008c0.258-2.898,1.387-5.284,1.217-8.312
		c-0.208-3.629-0.594-5.22,1.231-8.38c0.89-1.544,1.666-2.614,1.875-4.429c0.196-1.732-1.037-3.384,0.521-4.794
		c0.35,0.079,0.379,0.251,0.692,0.322c1.475-1.24,3.092-2.931,4.124-4.371"/>
	<path fill="none" stroke="#231F20" stroke-width="0.5" stroke-miterlimit="10" d="M297.104,204.298
		c0.988-9.38,4.481-20.634,13.277-25.351"/>
	<path fill="none" stroke="#231F20" stroke-width="0.5" stroke-miterlimit="10" d="M287.044,210.732
		c-0.952,1.115-2.61,1.802-3.993,2.375c-0.058-0.326,0.066-0.573,0.372-0.763"/>
	<path fill="none" stroke="#231F20" stroke-width="0.5" stroke-miterlimit="10" d="M118.44,183.775
		c-0.522-0.574-1.012-0.544-0.814-1.481c1.649,3.614,8.264,4.932,10.596,8.684c0.506-0.164,0.102-0.177-0.127-0.366"/>
	<path fill="none" stroke="#231F20" stroke-width="0.5" stroke-miterlimit="10" d="M118.035,182.163
		c-3.718,5.402-5.974,11.848-9.453,17.484c-2.777,4.495-7.947,10.178-9.018,15.442c3.269,0.783,7.626,2.004,10.334,3.951
		c1.843-3.422,2.584-7.455,4.516-10.721"/>
	<path fill="none" stroke="#231F20" stroke-width="0.5" stroke-miterlimit="10" d="M111.195,217.162
		c-0.01,0.172,0.029-1.174-0.01-0.455c0.361,1.736,0.501,6.729,2.067,7.648c1.716,0.998,2.508-1.638,4.593-1.384
		c0.771,0.086,1.028,1.607,1.559,1.677c1.462,0.202,1.293-0.653,2.422-0.817c1.729-0.253,4.026,0.413,5.467-0.219"/>
	<path fill="none" stroke="#231F20" stroke-width="0.5" stroke-miterlimit="10" d="M52.042,116.973
		c2.835,1.494,7.091-0.241,10.232,0.372c3.484,0.677,4.782,3.582,6.743,6.31c3.778,5.252,6.746,10.973,10.465,16.25
		c3.803,5.416,7.051,11.24,11.325,16.331c3.863,4.592,8.247,8.763,12.263,13.21c2.306,2.55,5,4.736,7.362,7.23
		c1.579,1.67,5.2,6.4,6.397,6.692"/>
	<path fill="none" stroke="#231F20" stroke-width="0.5" stroke-miterlimit="10" d="M32.73,122.204
		c2.24,3.186,2.571,7.55,3.686,11.186c1.5,4.865,2.728,5.285,7.699,5.297c4.084,0.011,8.579-0.516,12.609,0.148
		c3.982,0.66,5.828,4.04,7.832,7.361c4.201,6.987,7.392,14.535,11.992,21.275c4.495,6.583,8.493,13.303,12.468,20.232
		c2.256,3.932,4.52,7.802,7.196,11.454c2.049,2.802,4.409,7.397,7.74,8.757"/>
	<path fill="none" stroke="#231F20" stroke-width="0.5" stroke-miterlimit="10" d="M34.335,129.042
		c-2.87-4.409-9.082-13.297-2.267-16.715c4.68-2.341,13.703-3.178,16.301,2.565c-1.103,0.008-1.314,0.548-1.919,0.795
		c2.075,0.725,5.227,0.699,4.313,4.04c-0.927,0.208-1.687,0.67-2.714,0.552c2.924,0.936,2.231,3.655-0.255,4.687
		c-2.394,0.998-5.118-0.484-6.915-1.886c-1.611,2.464,4.109,4.134,3.92,6.764"/>
	<path fill="none" stroke="#231F20" stroke-width="0.5" stroke-miterlimit="10" d="M29.508,114.154
		c-0.679-1.625-2.244-2.408-3.954-1.945c-0.972,2.515-1.298,9.019-0.47,11.616c0.574,1.799,1.116,1.876,2.856,2.773
		c2.784,1.421,4.141,2.563,6.395,4.865"/>
	<path fill="none" stroke="#231F20" stroke-width="0.5" stroke-miterlimit="10" d="M25.886,112.146
		c-1.314,0.729-5.187-3.837-5.995-5.566c2.4-0.875,1.875-2.728,4.56-1.03c1.408,0.879,2.446,3.652,3.444,4.983"/>
	<path fill="none" stroke="#231F20" stroke-width="0.5" stroke-miterlimit="10" d="M233.928,118.585
		c2.057,0.776,4.57-1.327,7.642-1.612c3.576-0.332,6.56,0.286,10.061-0.398"/>
	<path fill="none" stroke="#231F20" stroke-width="0.5" stroke-miterlimit="10" d="M238.758,123.014
		c1.553,3.016,5.78,1.718,8.045-0.404"/>
	<path fill="none" stroke="#231F20" stroke-width="0.5" stroke-miterlimit="10" d="M229.905,42.523
		c4.724-4.454,9.02-7.122,15.668-6.712c5.73,0.359,12.111,0.583,17.719,1.814c11.766,2.582,18.049,16.52,19.426,27.447
		c0.802,6.301-0.053,12.416-1.71,18.495"/>
	<path fill="none" stroke="#231F20" stroke-width="0.5" stroke-miterlimit="10" d="M286.64,95.247
		c5.297,7.198,7.157,13.957,8.208,22.775c0.894,7.473,1.582,15.888-1.06,23.066c-0.487-0.099-0.186-0.348-0.303-0.778"/>
</g>
</svg>
