<?xml version="1.0" encoding="utf-8"?>
<!-- Generator: Adobe Illustrator 16.0.0, SVG Export Plug-In . SVG Version: 6.00 Build 0)  -->
<!DOCTYPE svg PUBLIC "-//W3C//DTD SVG 1.1//EN" "http://www.w3.org/Graphics/SVG/1.1/DTD/svg11.dtd">
<svg version="1.1" id="Calque_1" xmlns="http://www.w3.org/2000/svg" xmlns:xlink="http://www.w3.org/1999/xlink" x="0px" y="0px"
	 width="403.086px" height="327.777px" viewBox="0 0 403.086 327.777" enable-background="new 0 0 403.086 327.777"
	 xml:space="preserve">
<g>
	<path fill="none" stroke="#231F20" stroke-width="0.5" stroke-miterlimit="10" d="M197.881,46.837
		c-8.977,2.844-18.296,6.116-23.548,14.504c-4.29,6.84-6.116,15.956-5.767,23.973c0.358,8.133,0.924,15.828,0.544,23.987
		c-0.344,7.355,1.385,13.856,5.159,20.169c3.995,6.677,9.574,12.258,14.805,17.952"/>
	<path fill="none" stroke="#231F20" stroke-width="0.5" stroke-miterlimit="10" d="M177.221,99.667
		c0.706,0.014,3.936-0.138,5.081,0.676"/>
	<path fill="none" stroke="#231F20" stroke-width="0.5" stroke-miterlimit="10" d="M187.716,76.304
		c0.247,6.252-3.758,15.291-8.125,19.64"/>
	<path fill="none" stroke="#231F20" stroke-width="0.5" stroke-miterlimit="10" d="M178.915,94.251
		c0.217-2.901,1.994-5.706,1.709-8.707c-1.162,1.967-2.305,4.108-3.689,5.891c0.475-1.773,0.821-5.519-0.309-6.983
		c-1.511,5.346-1.298,10.264-1.46,15.939c0.236,0.295,0.279-0.034,0.697-0.048"/>
	<path fill="none" stroke="#231F20" stroke-width="0.5" stroke-miterlimit="10" d="M176.544,100.687
		c2.454,6.001,3.466,12.023,4.882,18.31c1.572,6.964,5.12,12.188,9.622,17.594c3.658,4.396,7.617,11.272,13.553,12.731
		c6.791,1.662,11.355-4.749,15.378-9.045c5.325-5.68,10.688-10.373,15.15-16.901"/>
	<path fill="none" stroke="#231F20" stroke-width="0.5" stroke-miterlimit="10" d="M188.399,103.396
		c1.223,5.266,1.85,10.527,1.541,15.971c-0.153,2.571-0.217,4.979,2.985,5.688c2.467,0.549,2.934-1.639,5.409-2.125
		c2.28-0.458,7.264-0.666,4.289-4.634"/>
	<path fill="none" stroke="#231F20" stroke-width="0.5" stroke-miterlimit="10" d="M198.556,95.266
		c-0.214-0.112-0.619,0.161-0.459-0.067c3.766-2.369,8.649-2.297,12.99-2.307"/>
	<path fill="none" stroke="#231F20" stroke-width="0.5" stroke-miterlimit="10" d="M201.603,103.734
		c0.846,0.54,1.739,0.445,2.464-0.289c1.66,0.67,4.118-0.667,5.416-1.694c0.754,0.354,1.418,0.155,2.281,0.292"/>
	<path fill="none" stroke="#231F20" stroke-width="0.5" stroke-miterlimit="10" d="M204.314,104.072
		c0.696,1.364,1.953,1.055,2.707-0.338"/>
	<path fill="none" stroke="#231F20" stroke-width="0.5" stroke-miterlimit="10" d="M180.606,107.799
		c-0.641,2.02,4.482,1.107,5.084-1.359"/>
	<path fill="none" stroke="#231F20" stroke-width="0.5" stroke-miterlimit="10" d="M183.313,108.813
		c0.641,1.458,1.795,1.156,2.376-0.34"/>
	<path fill="none" stroke="#231F20" stroke-width="0.5" stroke-miterlimit="10" d="M194.493,67.16
		c0.13,4.338-2.41,8.412-6.006,10.857c0.653,0.108,1.049-0.137,1.603-0.363"/>
	<path fill="none" stroke="#231F20" stroke-width="0.5" stroke-miterlimit="10" d="M199.234,66.483
		c0.127,3.463-1.414,5.625-2.758,8.716c0.101-0.217,0.231-0.411,0.385-0.59"/>
	<path fill="none" stroke="#231F20" stroke-width="0.5" stroke-miterlimit="10" d="M199.571,69.186
		c2.594,7.796,5.672,14.658,13.914,17.544c6.149,2.157,13.613,2.175,17.126,8.583c3.156,5.762,2.859,13.645,3.416,20.031
		c0.729,8.327,0.465,16.355-3.216,24.043c-4.075,8.527-11.037,14.758-18.324,20.506c2.177,0.259,4.116-0.901,5.936-1.929
		c-0.884,1.386-2.278,2.423-2.963,3.904c0.677-0.59,1.526-1.151,2.341-1.545c-0.356,3.671-4.198,6.054-5.674,8.995
		c2.306-1.123,4.889-1.036,7.207-2.263c1.707-0.898,2.76-2.287,4.217-3.34c0.208,1.318-0.554,2.284-1.235,3.301
		c6.19-2.614,10.897-10.129,15.148-15.009c4.852-5.559,9.477-10.671,13.292-16.979c2.47-4.079,6.768-10.929,4.697-15.713"/>
	<path fill="none" stroke="#231F20" stroke-width="0.5" stroke-miterlimit="10" d="M246.992,142.34
		c3.485-3.16,8.139-5.16,12.269-7.312c2.442-1.271,4.901-2.394,6.636-4.6c2.041-2.588,4.795-8.75,1.747-11.456"/>
	<path fill="none" stroke="#231F20" stroke-width="0.5" stroke-miterlimit="10" d="M267.982,131.168
		c8.904-2.547,11.097-10.756,7.961-19.072c-1.469-3.878-4.139-7.167-6.264-10.696c-2.553-4.238-4.439-8.759-6.525-13.232
		c-7.515-16.093-21.933-29.339-34.386-41.677c-7.523-7.447-16.978-8.97-23.774,0.006"/>
	<path fill="none" stroke="#231F20" stroke-width="0.5" stroke-miterlimit="10" d="M204.651,46.163
		c-0.11,3.152-2.695,5.335-4.907,6.436c-1.71,0.847-1.96,0.89-3.418,2.521c-0.864,0.966-3.623,2.958-3.191,3.57"/>
	<path fill="none" stroke="#231F20" stroke-width="0.5" stroke-miterlimit="10" d="M196.525,46.163
		c-0.04,0.208-0.749,0.103-0.049,0.372c1.832-0.524,3.617-0.956,5.467-1.39"/>
	<path fill="none" stroke="#231F20" stroke-width="0.5" stroke-miterlimit="10" d="M220.569,50.564
		c3.081,0.52,7.986,5.534,10.382,7.672c3.039,2.712,6.241,5.437,9.153,8.322c6.435,6.372,10.688,15.049,14.977,22.93
		c2.931,5.388,6.78,8.735,8.499,14.922"/>
	<path fill="none" stroke="#231F20" stroke-width="0.5" stroke-miterlimit="10" d="M252.066,84.091
		c-1.412,0.058-3.84,1.646-4.399,2.034"/>
	<path fill="none" stroke="#231F20" stroke-width="0.5" stroke-miterlimit="10" d="M256.467,91.881
		c0.297,2.392-0.862,6.316-2.709,7.787"/>
	<path fill="none" stroke="#231F20" stroke-width="0.5" stroke-miterlimit="10" d="M235.811,72.578
		c4.716,5.531,9.421,13.06,12.942,19.632c3.188,5.948,3.123,12.113,3.313,18.636"/>
	<path fill="none" stroke="#231F20" stroke-width="0.5" stroke-miterlimit="10" d="M230.052,80.028
		c0.663,1.99,1.977,4.201,3.297,5.913c3.91,5.078,7.377,9.54,10.251,15.423"/>
	<path fill="none" stroke="#231F20" stroke-width="0.5" stroke-miterlimit="10" d="M187.048,147.423
		c-1.084,2.827-4.811,4.347-5.766,7.789"/>
	<path fill="none" stroke="#231F20" stroke-width="0.5" stroke-miterlimit="10" d="M188.739,147.423
		c8.215,4.326-3.372,7.663-4.749,11.512"/>
	<path fill="none" stroke="#231F20" stroke-width="0.5" stroke-miterlimit="10" d="M208.715,150.472
		c3.439,0.854,4.391,6.142,2.372,9.14"/>
	<path fill="none" stroke="#231F20" stroke-width="0.5" stroke-miterlimit="10" d="M194.493,169.432
		c-0.154,0.155-0.405,0.155-0.562,0.363c4.677-0.544,5.776-8.88,11.398-9.503"/>
	<path fill="none" stroke="#231F20" stroke-width="0.5" stroke-miterlimit="10" d="M267.643,131.168
		c0.054,0.417-0.423,0.257-0.039,0.606c9.822,0.909,17.649,4.644,22.807,13.394c4.049,6.878,5.94,15.668,6.102,23.615
		c0.171,8.895-2.793,17.916-4.528,26.566c-2.381,11.82-6.153,23.088-10.212,34.425c-3.84,10.719-7.922,21.351-11.844,32.042
		c-0.3-0.765-0.812-1.438-1.007-2.267c-1.852,1.827-3.275,4.074-5.471,5.754c-1.582,1.215-3.695,2.1-4.612,4.005
		c-2.81-1.752-8.241-0.376-11.572-0.748c-4.276-0.475-7.579-3.558-11.337-5.513c-6.583-3.424-13.701-7.649-19.368-12.512
		c-3.748-3.204-5.869-7.637-8.521-11.677"/>
	<path fill="none" stroke="#231F20" stroke-width="0.5" stroke-miterlimit="10" d="M221.25,247.326
		c-5.147-2.252-9.817-4.917-13.984-8.721c-5.014-4.571-7.328-10.46-10.412-16.331c-2.951-5.619-6.508-10.503-10.387-15.48
		c-4.203-5.396-1.666-8.005,2.783-12.226c5.48-5.197,10.216-10.633,13.792-17.317c0.429,0.087,0.127,0.288,0.256,0.655"/>
	<path fill="none" stroke="#231F20" stroke-width="0.5" stroke-miterlimit="10" d="M203.975,178.576
		c-0.271,1.695,8.765,4.235,9.821,7.118"/>
	<path fill="none" stroke="#231F20" stroke-width="0.5" stroke-miterlimit="10" d="M214.474,186.707
		c2.427,3.626,9.24,2.979,12.769,5.035c3.821,2.221,2.506,6.574,1.508,10.118c2.149,1.743,3.724,3.972,5.46,6.112
		c0.93,1.143,1.998,2.139,2.612,3.463c0.55,1.193,0.083,2.52,1.359,3.383"/>
	<path fill="none" stroke="#231F20" stroke-width="0.5" stroke-miterlimit="10" d="M233.104,206.348
		c1.79-1.064,6.103-1.143,6.093,1.693"/>
	<path fill="none" stroke="#231F20" stroke-width="0.5" stroke-miterlimit="10" d="M247.667,214.477
		c-1.207-0.931-1.723-2.662-2.735-3.89c-1.31-1.582-3.228-2.687-4.377-4.239"/>
	<path fill="none" stroke="#231F20" stroke-width="0.5" stroke-miterlimit="10" d="M240.891,205.672
		c-1.866-5.008,0.443-11.449,2.264-16.27c1.144-3.031,3.026-5.458,4.636-8.304c0.68-1.196,1.872-2.653,2.267-3.876
		c0.462-1.436-0.048-3.071,0.567-4.401c0.512-1.126,2.695-1.883,3.035-3.067c0.436-1.511-0.685-3.616-0.526-5.354
		c2.45-0.296,2.406-4.755,3.677-6.48"/>
	<path fill="none" stroke="#231F20" stroke-width="0.5" stroke-miterlimit="10" d="M296.428,161.985
		c-1.306,3.14,1.375,6.929,2.459,9.788c1.317,3.471,2.063,6.809,2.285,10.493c0.229,3.722,0.357,6.681-0.679,10.315
		c-1.083,3.843-2.791,6.122-1.317,9.996c3.081,8.114,0.549,15.912-1.386,24.101c-2.085,8.855-4.873,17.508-7.053,26.337
		c-1.317,5.359-2.903,10.331-4.839,15.479c-0.751,2.011-1.865,4.203-2.397,6.266c-0.596,2.284-0.356,4.496-1.297,6.77"/>
	<path fill="none" stroke="#231F20" stroke-width="0.5" stroke-miterlimit="10" d="M186.365,195.177
		c0.161,0.05,0.15,0.617,0.287,0.103c-4.193-4.304-9.215-6.41-13.814-10.015c-1.649-1.292-3.359-5.655-4.969-6.272
		c-0.673-0.258-3.421,0.546-4.371,0.574c-1.331,0.035-2.92,0.288-4.198,0.195c-3.363-0.255-5.177-4.403-1.382-6.265"/>
	<path fill="none" stroke="#231F20" stroke-width="0.5" stroke-miterlimit="10" d="M164.012,171.464
		c-3.542,0.954-10.879,3.336-12.112-1.753c-1.353-5.569,6.372-6.187,10.047-7.244c-0.532,0.036-0.379,0.284-0.643,0.534"/>
	<path fill="none" stroke="#231F20" stroke-width="0.5" stroke-miterlimit="10" d="M152.84,164.353
		c-1.345-1.825-1.171-4.155-1.494-6.28c-0.445-2.874-0.942-3.972,2.378-4.464c4.204-0.622,9.621,1.193,13.671-0.43"/>
	<path fill="none" stroke="#231F20" stroke-width="0.5" stroke-miterlimit="10" d="M162.66,154.193
		c-2.471-8.446-10.187,0.999-12.623-3.903c-2.11-4.251,8.85-8.868,11.726-9.008c5.695-0.278,10.896,6.339,14.768,9.863
		c4.678,4.262,8.054,9.72,11.646,14.874c3.931,5.638,8.23,9.2,13.426,13.579"/>
	<path fill="none" stroke="#231F20" stroke-width="0.5" stroke-miterlimit="10" d="M124.384,198.563
		c-0.152,0.17-0.13,0.394-0.352,0.552c0.17-12.062-2.758-23.779-3.174-35.739c-0.091-2.625,0.045-5.12-1.029-7.565
		c-1.14-2.606-3.251-4.704-3.625-7.638c-0.732-5.624,5.5-11.136,10.941-10.855c9.237,0.475-2.284,8.404-2.42,12.474"/>
	<path fill="none" stroke="#231F20" stroke-width="0.5" stroke-miterlimit="10" d="M124.049,156.909
		c-5.211-8.542,6.407-7.922,11.54-8.297c2.805-0.203,7.64-1.387,9.306,1.803c2.125,4.052-3.103,5.612-6.02,5.585
		c-3.744-0.031-7.179-0.801-9.743,2.6"/>
	<path fill="none" stroke="#231F20" stroke-width="0.5" stroke-miterlimit="10" d="M128.114,162.661
		c1.484-5.715,21.313-4.53,21.334,0.677"/>
	<path fill="none" stroke="#231F20" stroke-width="0.5" stroke-miterlimit="10" d="M134.549,170.113
		c1.609-0.368,3.727-2.608,5.913-3.039c2.509-0.49,5.592,0.043,7.968,0.331"/>
	<path fill="none" stroke="#231F20" stroke-width="0.5" stroke-miterlimit="10" d="M137.258,177.906
		c2.564-0.947,4.397-3.075,6.775-4.067c2.155-0.904,7.138,0.47,7.112-2.708"/>
	<path fill="none" stroke="#231F20" stroke-width="0.5" stroke-miterlimit="10" d="M143.695,174.18
		c-0.014,3.791,0.374,7.757-0.602,11.379c-0.417,1.566-0.797,3.377-1.754,4.721c-1.026,1.443-3.322,2.252-3.744,3.877"/>
	<path fill="none" stroke="#231F20" stroke-width="0.5" stroke-miterlimit="10" d="M141.66,190.436
		c-1.328,2.349-0.079,7.5,0.34,10.156"/>
	<path fill="none" stroke="#231F20" stroke-width="0.5" stroke-miterlimit="10" d="M122.695,192.803
		c0.13,3.271-3.052,6.139-0.423,8.939c2.027,2.156,6.403,2.502,9.138,2.284c3.294-0.264,16.985-5.716,10.25-10.207"/>
	<path fill="none" stroke="#231F20" stroke-width="0.5" stroke-miterlimit="10" d="M122.02,192.462
		c-0.07,3.447-2.29,6.745-2.242,9.976c0.045,3.322,3.399,3.943,6.159,4.451c6.171,1.135,12.846,0.789,17.362-4.092
		c3.024-3.269,2.522-6.178,0.056-9.652"/>
	<path fill="none" stroke="#231F20" stroke-width="0.5" stroke-miterlimit="10" d="M118.968,202.289
		c-0.777,6.32-3.528,12.219-4.177,18.583c-0.287,2.823-0.383,5,0.649,7.614c1.047,2.675,1.035,4.4,1.213,7.313
		c0.338,5.505,0.316,10.485,2.099,15.778c1.831,5.431,1.285,11.084,4.543,15.726c1.997,2.851,1.207,5.481,3.667,8.275
		c1.942,2.213,4.606,3.857,6.229,6.293"/>
	<path fill="none" stroke="#231F20" stroke-width="0.5" stroke-miterlimit="10" d="M147.762,201.605
		c-0.479-0.544-0.725-0.961-1.587-1.225c1.779,2.373,3.958,4.279,5.802,6.611c2.667,3.386,2.423,6.627,3.975,10.491
		c0.479,0.185,0.539-0.074,0.947-0.298"/>
	<path fill="none" stroke="#231F20" stroke-width="0.5" stroke-miterlimit="10" d="M166.725,190.771
		c0.014,3.697-0.301,7.093-1.908,10.522c-1.244,2.649-3.674,4.824-4.201,7.72c-0.453,2.491,0.149,5.387,0.332,7.838
		c0.226,3.147-0.74,5.022-1.957,7.829c-4.746,10.93-0.059,20.739,0.596,31.773c0.177,2.941,0.257,6.336-0.332,9.167
		c-0.684,3.27-2.841,5.624-3.708,8.8"/>
	<path fill="none" stroke="#231F20" stroke-width="0.5" stroke-miterlimit="10" d="M144.37,190.436
		c-0.253-2.802,3.052-5.442,5.159-7.366c2.178-1.979,4.014-6.285,7.031-6.864"/>
	<path fill="none" stroke="#231F20" stroke-width="0.5" stroke-miterlimit="10" d="M201.943,247.669
		c-2.154,1.396-2.545,6.666-3.514,8.974c-2.552,6.047-12.536,12.327-12.064,19.136"/>
	<path fill="none" stroke="#231F20" stroke-width="0.5" stroke-miterlimit="10" d="M196.186,273.407
		c3.564-3.05,5.238-8.963,8.128-12.534"/>
	<path fill="none" stroke="#231F20" stroke-width="0.5" stroke-miterlimit="10" d="M125.065,136.584
		c-1.156-2.644-4.748-8.697-2.132-11.271c2.141-2.113,9.411-1.215,12.398-1.854c4.341-0.928,8.91-1.849,13.35-2.094
		c5-0.282,6.724,2.124,8.325,6.513c1.548,4.241,3.514,8.319,4.656,12.694c-0.087-0.323-0.208-0.638-0.358-0.94"/>
	<path fill="none" stroke="#231F20" stroke-width="0.5" stroke-miterlimit="10" d="M193.134,131.505c0-0.083,0-0.174,0-0.256"/>
	<path fill="none" stroke="#231F20" stroke-width="0.5" stroke-miterlimit="10" d="M193.134,131.505
		c-0.271-0.223-0.156-0.406-0.467-0.473c2.428,2.974,7.17,4.218,10.806,2.81c2.894-1.12,5.898-5.652,9.228-5.135"/>
	<path fill="none" stroke="#231F20" stroke-width="0.5" stroke-miterlimit="10" d="M200.756,139.884
		c1.142-0.039,2.781-0.302,3.054,1.018"/>
</g>
</svg>
