<?xml version="1.0" encoding="utf-8"?>
<!-- Generator: Adobe Illustrator 16.0.0, SVG Export Plug-In . SVG Version: 6.00 Build 0)  -->
<!DOCTYPE svg PUBLIC "-//W3C//DTD SVG 1.1//EN" "http://www.w3.org/Graphics/SVG/1.1/DTD/svg11.dtd">
<svg version="1.1" id="Calque_1" xmlns="http://www.w3.org/2000/svg" xmlns:xlink="http://www.w3.org/1999/xlink" x="0px" y="0px"
	 width="297.531px" height="392.592px" viewBox="0 0 297.531 392.592" enable-background="new 0 0 297.531 392.592"
	 xml:space="preserve">
<g>
	<path fill="none" stroke="#231F20" stroke-width="0.5" stroke-miterlimit="10" d="M131.744,30.435
		c0.043,3.019-4.012,5.501-5.142,8.274c-1.292,3.164-1.899,11.981,1.009,13.964"/>
	<path fill="none" stroke="#231F20" stroke-width="0.5" stroke-miterlimit="10" d="M139.048,33.295
		c-2.575,2.689-6.563,4.1-9.316,6.844c-2.093,2.079-4.339,7.493-2.757,9.991"/>
	<path fill="none" stroke="#231F20" stroke-width="0.5" stroke-miterlimit="10" d="M133.963,27.894
		c2.772-0.812,6.385-0.495,8.581,1.589"/>
	<path fill="none" stroke="#231F20" stroke-width="0.5" stroke-miterlimit="10" d="M140.954,38.376
		c1.558,1.136,3.038,2.479,4.58,3.667c3.273,2.518,6.375,2.338,10.352,2.369"/>
	<path fill="none" stroke="#231F20" stroke-width="0.5" stroke-miterlimit="10" d="M138.412,34.884
		c1.654,0.945,3.576,2.786,5.083,4.13"/>
	<path fill="none" stroke="#231F20" stroke-width="0.5" stroke-miterlimit="10" d="M155.886,47.593
		c0.948,3.093,0.305,7.177,3.762,9.105c0.285-4.032-6.67-8.382-4.716-11.966"/>
	<path fill="none" stroke="#231F20" stroke-width="0.5" stroke-miterlimit="10" d="M159.38,52.037
		c1.441-3.049,5.638-8.783,7.566-2.81c1.266,3.902,0.178,8.531-4.089,9.776c-0.458-0.794-0.893-1.663-1.257-2.518"/>
	<path fill="none" stroke="#231F20" stroke-width="0.5" stroke-miterlimit="10" d="M162.236,53.31
		c1.428-0.369,2.316,0.408,1.86,1.856c-0.322,0.083-0.57,0.043-0.904,0.052"/>
	<path fill="none" stroke="#231F20" stroke-width="0.5" stroke-miterlimit="10" d="M162.872,49.813
		c0.625-0.131,1.18-0.465,1.59-0.95"/>
	<path fill="none" stroke="#231F20" stroke-width="0.5" stroke-miterlimit="10" d="M165.415,62.838
		c0.575,1.542,2.507,2.479,2.224,4.495c-0.094-0.007,0.171-0.226,0-0.257c-0.283,0.979-0.581,2.294,0,3.067"/>
	<path fill="none" stroke="#231F20" stroke-width="0.5" stroke-miterlimit="10" d="M134.281,26.941
		c4.833-3.637,13.385-5.986,18.744-2.502c6.479-2.348,16.351,5.213,20.047,10.243c2.727,3.716,3.229,8.406,3.663,12.853
		c0.487,4.944-0.52,7.701-2.23,12.181c-1.744,4.554-3.172,8.851-5.278,13.289"/>
	<path fill="none" stroke="#231F20" stroke-width="0.5" stroke-miterlimit="10" d="M160.334,44.733
		c1.208,0.614,2.768-0.189,4.135-0.32c1.972-0.185,4.045,0,6.03,0"/>
	<path fill="none" stroke="#231F20" stroke-width="0.5" stroke-miterlimit="10" d="M171.133,48.863
		c0.544,0.713,1.235,1.406,1.908,1.902"/>
	<path fill="none" stroke="#231F20" stroke-width="0.5" stroke-miterlimit="10" d="M128.247,55.534
		c-6.498-0.109,4.894,11.218,3.812,2.222"/>
	<path fill="none" stroke="#231F20" stroke-width="0.5" stroke-miterlimit="10" d="M140.002,54.582
		c-3.301,1.91-0.112,5.699,3.049,4.858c4.51-1.195,2.59-6.559-1.463-6.131"/>
	<path fill="none" stroke="#231F20" stroke-width="0.5" stroke-miterlimit="10" d="M145.721,54.897
		c3.297-1.349,6.125-3.602,9.369-5.1c2.446-1.125,5.567-1.766,7.386-3.762c0.235,0.303,0.279,0.573,0.397,0.921"/>
	<path fill="none" stroke="#231F20" stroke-width="0.5" stroke-miterlimit="10" d="M133.649,55.534
		c-0.068,1.757,0.257,3.282,0.013,4.922c-0.224,1.531-0.893,2.887-0.601,4.559c1.487,0.09,3.696-0.354,4.718,0.048"/>
	<path fill="none" stroke="#231F20" stroke-width="0.5" stroke-miterlimit="10" d="M140.954,55.85
		c0.735,0.136,1.485,0.022,1.906-0.316"/>
	<path fill="none" stroke="#231F20" stroke-width="0.5" stroke-miterlimit="10" d="M129.201,57.756c0.847,0,1.691,0,2.542,0"/>
	<path fill="none" stroke="#231F20" stroke-width="0.5" stroke-miterlimit="10" d="M132.059,63.154
		c-0.164,2.044,2.301,5.309,3.777,6.55c1.516,1.272,4.363,1.391,6.388,0.439"/>
	<path fill="none" stroke="#231F20" stroke-width="0.5" stroke-miterlimit="10" d="M138.094,70.463
		c0.156,1.237,0.95,2.112,2.224,1.908"/>
	<path fill="none" stroke="#231F20" stroke-width="0.5" stroke-miterlimit="10" d="M139.366,72.688
		c0.193,4.001,5.08,5.212,8.224,3.948c3.29-1.325,7.342-5.479,8.612-8.713"/>
	<path fill="none" stroke="#231F20" stroke-width="0.5" stroke-miterlimit="10" d="M154.613,75.228
		c2.779,1.391,8.72-0.833,10.169-3.492"/>
	<path fill="none" stroke="#231F20" stroke-width="0.5" stroke-miterlimit="10" d="M144.13,78.722
		c-0.208,3.008,0.415,3.459,3.255,3.495c2.492,0.037,5.267-0.018,7.728-0.439c3.584-0.618,12.788-2.492,12.525-7.502"/>
	<path fill="none" stroke="#231F20" stroke-width="0.5" stroke-miterlimit="10" d="M168.275,74.275
		c-0.072,1.992-0.006,4.067,1.906,5.085"/>
	<path fill="none" stroke="#231F20" stroke-width="0.5" stroke-miterlimit="10" d="M142.86,83.488
		c-2.189,2.863-1.264,6.728-0.254,9.81c4.911-1.338,11.06-4.299,15.451-7.16c3.681-2.404,8.492-4.394,11.488-7.73"/>
	<path fill="none" stroke="#231F20" stroke-width="0.5" stroke-miterlimit="10" d="M140.954,84.125
		c-2.452,1.551-5.622,1.718-8.101,3.633c-2.038,1.575-4.032,3.475-5.449,5.565c-1.538,2.271-2.784,4.694-4.061,7.087
		c-1.533,2.872-4.686,6.576-4.946,9.764"/>
	<path fill="none" stroke="#231F20" stroke-width="0.5" stroke-miterlimit="10" d="M125.387,101.278
		c-0.783,2.046-0.022,4.409-0.303,6.554c-0.294,2.224-1.358,4.199-1.286,6.471"/>
	<path fill="none" stroke="#231F20" stroke-width="0.5" stroke-miterlimit="10" d="M142.86,97.15
		c-2.191,3.804-3.823,8.063-6.037,11.902c-1.564,2.713-3.795,5.903-4.13,9.064"/>
	<path fill="none" stroke="#231F20" stroke-width="0.5" stroke-miterlimit="10" d="M170.817,78.722
		c7.14,6.171,13.94,12.927,15.348,22.701c1.386,9.584-2.365,19.163-3.826,28.527c-1.276,8.175-0.388,20.692-7.52,26.461
		c-7.833,6.348-19.722,0.224-26.722-4.453c-8.671-5.789-16.337-12.983-24.934-18.913"/>
	<path fill="none" stroke="#231F20" stroke-width="0.5" stroke-miterlimit="10" d="M122.849,133.045
		c0.658,1.404,5.434-4.841,6.126-5.973c0.976-1.608,3.995-8.042,1.812-8.956"/>
	<path fill="none" stroke="#231F20" stroke-width="0.5" stroke-miterlimit="10" d="M131.423,117.48
		c-2.738,0.322-5.337-2.154-8.188-2.426c-3.023-0.294-6.074-0.048-9.082,0.296c-3.282,0.375-6.19,2.722-1.314,3.569
		c2.49,0.434,6.32,0.948,8.735,0.149"/>
	<path fill="none" stroke="#231F20" stroke-width="0.5" stroke-miterlimit="10" d="M112.045,119.384
		c-3.63,0.281-0.739,3.106,1.208,3.488c2.588,0.504,5.986,0.93,8.638,0.961"/>
	<path fill="none" stroke="#231F20" stroke-width="0.5" stroke-miterlimit="10" d="M113.317,122.88
		c-4.233,2.788,5.172,5.932,6.987,6.037"/>
	<path fill="none" stroke="#231F20" stroke-width="0.5" stroke-miterlimit="10" d="M114.268,126.693
		c-0.435,2.207,1.889,3.097,3.496,3.813"/>
	<path fill="none" stroke="#231F20" stroke-width="0.5" stroke-miterlimit="10" d="M124.75,114.94
		c-2.255-0.053-4.394-2.027-6.671-1.588"/>
	<path fill="none" stroke="#231F20" stroke-width="0.5" stroke-miterlimit="10" d="M118.398,114.62
		c-0.877-2.262-3.567-4.414-5.096-6.274c-1.882-2.29-3.762-4.626-5.534-7.067c-2.911-4.001-6.574-8.057-8.75-12.389"/>
	<path fill="none" stroke="#231F20" stroke-width="0.5" stroke-miterlimit="10" d="M98.704,88.573
		c-6.903,0-13.409-0.97-20.176-0.954c-6.664,0.009-13.484-1.33-20.13-0.897c1.948,4.865,6.403,9.553,9.34,14.079
		c2.544,3.931,5.975,7.032,9.3,10.435c0.208,0.178-0.033-0.235,0.062-0.428"/>
	<path fill="none" stroke="#231F20" stroke-width="0.5" stroke-miterlimit="10" d="M81.869,113.352
		c-0.772-4.361-9.176-2.803-8.533,0.897c0.428,0.02,0.54,0.248,0.906,0.371"/>
	<path fill="none" stroke="#231F20" stroke-width="0.5" stroke-miterlimit="10" d="M81.548,113.667
		c-0.176,1.097-1.09,1.514-2.198,1.34c1.874,0.879,7.504-1.974,8.035,1.011c0.401,2.275-6.142,1.496-7.962,2.115
		c2.669-0.671,5.528-0.544,8.107-1.246c2.759,4.159-4.699,4.146-6.594,5.611c1.955-0.189,3.911-1.387,5.962-1.158
		c0.456,5.168-12.795,8.256-9.832,2.176c-1.577-0.704-3.067-3.365-0.377-3.564c-1.733-0.266-3.255-2.056-1.305-3.426
		c-1.121-0.864-3.066-1.843-1.143-2.858"/>
	<path fill="none" stroke="#231F20" stroke-width="0.5" stroke-miterlimit="10" d="M86.949,122.563
		c-2.525,1.945,7.717,11.121,10.536,11.439c5.905,0.66,11.9,0.25,17.81,0.974c3.152,0.391,5.991,1.737,9.092,2.161
		c0.11-0.879-0.103-1.768-0.588-2.502"/>
	<path fill="none" stroke="#231F20" stroke-width="0.5" stroke-miterlimit="10" d="M119.034,138.448
		c-0.038,7.39-2.494,13.497-4.359,20.56c-1.61,6.103-1.399,12.477-2.764,18.522c-0.757,3.36-1.915,6.324-1.744,9.836
		c0.182,3.585,0.259,7.129,0.268,10.727c0.024,9.651-1.371,19.974-4.461,29.095c-3.071,9.078-2.308,18.379-4.686,27.465
		c3.852,1.74,8.7,1.314,12.343,2.926"/>
	<path fill="none" stroke="#231F20" stroke-width="0.5" stroke-miterlimit="10" d="M121.258,164.814
		c-2.896,24.544-1.198,49.874-0.623,74.522c0.121,5.055,0.057,10.043-0.974,15.004c-0.498,2.387-1.792,5.566-0.107,7.766
		c3.571,4.65,16.035,1.619,20.995,1.342c7.967-0.451,15.592-2.482,23.598-1.426"/>
	<path fill="none" stroke="#231F20" stroke-width="0.5" stroke-miterlimit="10" d="M180.346,151.789
		c-0.31,6.897,0.77,13.76,0.641,20.652c-0.171,9.248-0.261,18.645-1.781,27.775c-2.446,14.717-7.601,28.819-10.161,43.419
		c-1.156,6.6-0.739,12.969-1.406,19.66"/>
	<path fill="none" stroke="#231F20" stroke-width="0.5" stroke-miterlimit="10" d="M124.75,265.518
		c-1.496,9.279-1.446,18.313-0.671,27.67c0.779,9.354,2.086,18.697,2.79,28.029c0.207,2.725-1.384,5.396-1.845,8.428
		c-4.295,0.553-6.923,7.139-11.071,8.635c-2.402,0.873-5.964,0.711-8.557,1.18c-2.827,0.514-10.305-0.074-10.889,3.887
		c-0.544,3.738,4.94,5.852,7.688,6.463c6.804,1.486,13.696-0.309,20.422-1.361c5.767-0.898,12.591-0.338,17.974-2.807
		c5.866-2.693,5.488-8.578,4.418-14.057c-1.435-7.34-2.222-13.715-0.465-21.107c1.869-7.883,4.052-15.248,3.584-23.449
		c-0.178-3.057-0.274-6.418-0.832-9.428c-0.313-1.676-0.597-3.324-0.941-5.092"/>
	<path fill="none" stroke="#231F20" stroke-width="0.5" stroke-miterlimit="10" d="M124.437,266.471
		c2.207,0.285,4.058,1.676,6.318,1.93c3.808,0.426,7.934,0.4,11.79,0.609"/>
	<path fill="none" stroke="#231F20" stroke-width="0.5" stroke-miterlimit="10" d="M144.451,262.022
		c0.739,3.953,1.935,12.342,6.583,12.986c3.909,0.539,8.103-0.619,12.108-0.105c3.532,0.451,6.91,1.197,10.483,1.365
		c0.435-1.887-2.198-4.727-3.075-6.322c-1.634-2.971-3.646-5.668-4.817-8.875"/>
	<path fill="none" stroke="#231F20" stroke-width="0.5" stroke-miterlimit="10" d="M150.801,275.051
		c0.748-0.012,0.849,12.201,3.497,13.658"/>
	<path fill="none" stroke="#231F20" stroke-width="0.5" stroke-miterlimit="10" d="M153.662,288.389
		c3.823-0.027,6.912-1.119,10.489-2.506c1.996-0.771,3.964-1.799,6.03-2.346c1.29-0.352,2.499,0,3.367-1.186
		c-1.161-1.422-1.546-5.154-1.777-6.984"/>
	<path fill="none" stroke="#231F20" stroke-width="0.5" stroke-miterlimit="10" d="M154.932,288.077
		c-9.152,0.957-3.927,10.715-3.813,16.553c0.187,9.793,1.261,19.531,1.264,29.35c0,2.08-1.051,7.898,1.237,8.805
		c-3.284,5.279-6.532,14.049-12.191,17.084c-1.808,0.971-6.594,1.453-7.368,3.59c-0.941,2.578,3.068,4.33,4.924,5.057
		c8.719,3.41,15.864-0.262,23.721-4.176c6.388-3.18,14.148-8.65,12.253-16.877c-1.075-4.678-2.68-8.871-2.724-13.754
		c-0.042-4.9,0.665-9.797,0.86-14.688c0.489-12.297,3.126-24.766,0.899-36.984"/>
	<path fill="none" stroke="#231F20" stroke-width="0.5" stroke-miterlimit="10" d="M126.025,136.542
		c-0.974,1.568-0.669,5.01-1.044,6.993c-0.504,2.671-0.996,4.983-1.158,7.767c-0.32,5.469-1.264,10.926-1.931,16.375"/>
	<path fill="none" stroke="#231F20" stroke-width="0.5" stroke-miterlimit="10" d="M140.954,95.878
		c-1.211-0.654-1.816,1.25-1.54,2.494c1.601,0.357,2.502-1,2.174-2.494"/>
	<path fill="none" stroke="#231F20" stroke-width="0.5" stroke-miterlimit="10" d="M135.554,106.999
		c-0.167-0.254-0.415-0.092-0.371-0.605c-4.352,1.624,1.294,5.787,0.687,1.237"/>
	<path fill="none" stroke="#231F20" stroke-width="0.5" stroke-miterlimit="10" d="M129.201,146.707
		c-1.943,0.127-2.819,2.257-2.512,4.098c1.553,0.177,2.382-1.433,2.191-2.828"/>
	<path fill="none" stroke="#231F20" stroke-width="0.5" stroke-miterlimit="10" d="M130.151,163.86
		c-1.599-1.516-3.836,0.597-2.667,2.26c1.665,2.377,3.576-1.435,2.034-3.212"/>
	<path fill="none" stroke="#231F20" stroke-width="0.5" stroke-miterlimit="10" d="M130.787,178.79
		c-1.437-2.264-2.794,2.233-1.507,3.233c1.873,1.455,2.033-1.838,1.507-2.913"/>
	<path fill="none" stroke="#231F20" stroke-width="0.5" stroke-miterlimit="10" d="M129.837,191.5
		c-1.301-2.519-1.637,2.118-1.529,3.177c0.7-0.934,0.689-2.33,0.573-3.492"/>
	<path fill="none" stroke="#231F20" stroke-width="0.5" stroke-miterlimit="10" d="M128.565,49.497
		c-0.41,0.268-0.719,0.323-0.597,0.891c1.889,0.654,4.486,0.983,4.409,3.556"/>
	<path fill="none" stroke="#231F20" stroke-width="0.5" stroke-miterlimit="10" d="M136.508,50.131
		c0.838-1.147,3.58-1.854,5.4-0.634"/>
	<path fill="none" stroke="#231F20" stroke-width="0.5" stroke-miterlimit="10" d="M132.854,118.116
		c-0.092,3.341,16.081,9.357,19.419,11.586c2.961,1.979,6.155,4.243,9.507,5.677c3.547,1.524,7.631,1.935,10.149,5.611"/>
	<path fill="none" stroke="#231F20" stroke-width="0.5" stroke-miterlimit="10" d="M162.398,133.839
		c0.013,1.808,0.292-2.88,0.347-3.439c0.184-1.856,0.184-3.76,0.594-5.569c0.957-4.249,2.997-8.195,3.821-12.433"/>
	<path fill="none" stroke="#231F20" stroke-width="0.5" stroke-miterlimit="10" d="M164.783,120.977
		c0.373-3.189-1.244-5.89-1.671-8.836c-0.832-5.699,2.167-10.347,4.527-15.469"/>
	<path fill="none" stroke="#231F20" stroke-width="0.5" stroke-miterlimit="10" d="M129.837,325.561
		c1.641-0.602,4.295-2.264,5.446-2.527c-2.161-0.807-3.696-2.641-6.003-3.207c0.605,0.018,1.222-0.025,1.827,0.018"/>
	<path fill="none" stroke="#231F20" stroke-width="0.5" stroke-miterlimit="10" d="M133.33,314.76
		c0.917,0.152,2.911,0.113,2.871-1.242c-0.035-1.102-2.575-1.33-3.187-1.619"/>
	<path fill="none" stroke="#231F20" stroke-width="0.5" stroke-miterlimit="10" d="M139.048,301.102
		c-0.134,1.049-0.415,2.094-0.318,3.178"/>
	<path fill="none" stroke="#231F20" stroke-width="0.5" stroke-miterlimit="10" d="M123.165,339.223
		c1.553-1.676,5.477-0.725,7.307-1.59"/>
	<path fill="none" stroke="#231F20" stroke-width="0.5" stroke-miterlimit="10" d="M127.611,333.506
		c1.619-0.158,3.135,0.469,4.767,0.314"/>
	<path fill="none" stroke="#231F20" stroke-width="0.5" stroke-miterlimit="10" d="M99.974,344.618
		c1.757,0.018,5.853,0.313,8.259,0.637"/>
	<path fill="none" stroke="#231F20" stroke-width="0.5" stroke-miterlimit="10" d="M158.108,333.506
		c2.856,1.758,6.251,0.117,9.116,1.197c-1.47,0.088-3.397,0.725-4.749,1.32c-2.112,0.939-3.826,3.348-6.273,3.199"/>
	<path fill="none" stroke="#231F20" stroke-width="0.5" stroke-miterlimit="10" d="M162.236,342.715
		c0.344,0.955,2.676,0.434,3.814,0.951"/>
	<path fill="none" stroke="#231F20" stroke-width="0.5" stroke-miterlimit="10" d="M144.13,363.684
		c1.999,1.111,4.433,0.953,6.671,0.953"/>
	<path fill="none" stroke="#231F20" stroke-width="0.5" stroke-miterlimit="10" d="M155.57,294.426
		c-0.428-1.031-1.583-1.584-2.836-1.221c1.033,2.33,4.102,2.957,6.096,4.15c3.332,2.006,6.166,5.006,9.127,7.559"/>
	<path fill="none" stroke="#231F20" stroke-width="0.5" stroke-miterlimit="10" d="M127.295,136.858
		c-1.733-0.035-0.02,43.09-0.002,47.973c0.018,4.501-1.669,8.904-1.219,13.289c6.758,0.469,13.85-0.432,20.446,0.371
		c7.136,0.87,14.261-1.128,21.28,0.006c3.519,0.566,7.379,3.281,10.961,2.852"/>
</g>
</svg>
