<?xml version="1.0" encoding="utf-8"?>
<!-- Generator: Adobe Illustrator 16.0.0, SVG Export Plug-In . SVG Version: 6.00 Build 0)  -->
<!DOCTYPE svg PUBLIC "-//W3C//DTD SVG 1.1//EN" "http://www.w3.org/Graphics/SVG/1.1/DTD/svg11.dtd">
<svg version="1.1" id="Calque_1" xmlns="http://www.w3.org/2000/svg" xmlns:xlink="http://www.w3.org/1999/xlink" x="0px" y="0px"
	 width="403.086px" height="327.777px" viewBox="0 0 403.086 327.777" enable-background="new 0 0 403.086 327.777"
	 xml:space="preserve">
<g>
	<path fill="none" stroke="#231F20" stroke-width="0.5" stroke-miterlimit="10" d="M199.912,65.791
		c-6.966-24.443,25.566-24.589,39.148-26.156c19.561-2.253,23.977,22.77,27.77,40.623c2.549,11.957,1.426,24.423,0.33,36.512
		c4.035-0.689,2.797,7.385,3.057,10.807c0.492-0.13,0.611-0.626,1.113-0.615c2.457,3.343,1.158,7.44,1.758,11.336
		c0.529,3.436,2.643,6.19,2.689,10.057c0.035,2.519-0.238,8.323-0.906,11.046c-1.141,4.643-4.803,5.911-5.684,10.485
		c-0.303,0.049-0.486-0.088-0.563-0.415c-0.336,3.067-1.443,6.237-3.561,7.84"/>
	<path fill="none" stroke="#231F20" stroke-width="0.5" stroke-miterlimit="10" d="M256.472,100.792
		c-0.057,8.71-3.26,19.25-2.043,27.556c4.404,0.119,4.115,8.845,4.953,12.253c1.346,5.477,1.604,11.896,3.535,17.172"/>
	<path fill="none" stroke="#231F20" stroke-width="0.5" stroke-miterlimit="10" d="M245.732,85.328
		c-0.072,7.426-1.09,11.558-5.701,17.078c-4.473,5.352-8.293,6.387-6.051,12.665c0.973,2.723,3.289,2.046,3.174,6.11
		c-0.086,2.986-2.221,4.856-3.557,7.223c-2.512,4.444-6.934,11.688-2.898,16.346"/>
	<path fill="none" stroke="#231F20" stroke-width="0.5" stroke-miterlimit="10" d="M237.144,81.257
		c3.652,19.243-34.135,18.999-29.338,37.887c1.996,7.846,10.246,3.744,2.502,13.414c-3.953,4.938-8.824,12.652-3.234,18.701"/>
	<path fill="none" stroke="#231F20" stroke-width="0.5" stroke-miterlimit="10" d="M186.309,152.888
		c1.229-6.267-8.865-12.155,0.658-16.48c-2.07-1.951-4.938-1.377-7.776-1.547c1.574-3.193,8.076-6.008,2.34-9.714
		c4.556,0.229,4.234-4.433,4.834-8.111c0.228-1.399-1.959-1.369-1.307-3.28c0.35-1.032,2.352-2.017,2.989-2.853
		c3.574-4.688,9.38-9.164,14.015-12.553"/>
	<path fill="none" stroke="#231F20" stroke-width="0.5" stroke-miterlimit="10" d="M202.777,64.163
		c-1.697,4.363-5.686,9.324-6.353,13.697c1.447-0.249,3.371,0.52,4.83,0.264c-0.408,3.594-0.43,6.074-0.166,8.888
		c0.131,1.388,0.357,8.349,0.971,9.585c2.459,4.944,8.24-1.701,12.174-3.944"/>
	<path fill="none" stroke="#231F20" stroke-width="0.5" stroke-miterlimit="10" d="M177.718,142.307
		c-7.98-3.423-13.878-12.112-19.331-19.254c-2.313,4.74-5.692,8.885-9.808,11.682c2.54-3.608,9.037-9.223,8.997-13.992
		c-0.015-1.817-3.509-8.383-4.253-10.529c-1.695-4.879-7.798-20-13.427-19.044c-0.298,2.522-1.507,3.988-3.704,3.926"/>
	<path fill="none" stroke="#231F20" stroke-width="0.5" stroke-miterlimit="10" d="M144.068,109.747
		c-5.634-4.066-9.089-14.204-13.583-19.955c-1.677-2.146-4.957-6.831-7.665-6.713c-2.768,0.123-6.025,6.26-8.75,7.273
		c2.912,6.033,7.863,10.773,10.838,17.119c1.829,3.897,4.587,12.131,6.988,13.673"/>
	<path fill="none" stroke="#231F20" stroke-width="0.5" stroke-miterlimit="10" d="M144.783,116.257
		c-0.349,3.558-3.56,4.872-5.011,8.143"/>
	<path fill="none" stroke="#231F20" stroke-width="0.5" stroke-miterlimit="10" d="M145.5,122.77
		c-0.126,2.807-0.206,5.547,0.715,8.14"/>
	<path fill="none" stroke="#231F20" stroke-width="0.5" stroke-miterlimit="10" d="M145.5,132.539
		c-3.177-6.746-13.188-8.893-17.595-15.384c1.42,5.123,3.45,10.387,2.634,15.174c-0.137,0.8-3.708,16.077,0.671,10.259
		c-0.396,0.944-0.585,1.944-1.372,2.645c5.213-6.685,7.903-8.125,14.945-10.253"/>
	<path fill="none" stroke="#231F20" stroke-width="0.5" stroke-miterlimit="10" d="M142.637,134.979
		c3.847,3.894,5.766,7.7,8.795,12.214c3.101,4.621,7.623,5.975,11.892,9.098c8.956,6.549,16.32,10.789,26.564,12.876"/>
	<path fill="none" stroke="#231F20" stroke-width="0.5" stroke-miterlimit="10" d="M128.317,146.377
		c4.082-2.327,20.864,27.552,25.104,31.537c4.729,4.444,31.69,27.79,36.467,21.373"/>
	<path fill="none" stroke="#231F20" stroke-width="0.5" stroke-miterlimit="10" d="M196.332,197.659
		c1.214,7.944,20.615-11.314,22.685-13.147c5.473-4.854,9.404-11.495,14.609-16.688c3.127-3.119,6.545-5.579,9.148-9.349
		c2.242-3.249,3.4-7.534,6.539-9.655"/>
	<path fill="none" stroke="#231F20" stroke-width="0.5" stroke-miterlimit="10" d="M257.902,147.189
		c-0.354-1.031-0.992-1.823-0.711-3.009c1.365,10.722,2.039,21.661,1.025,32.463c-0.766,7.942-2.676,15.542-5.541,23.14
		c0.955,2.168,3.342,3.253,3.342,5.968c-0.477,2.172-0.477,5.428-2.863,5.972c4.297,14.652,10.977,29.306,10.023,45.585
		c-0.477,13.023-8.113,25.506-20.049,28.763c-0.477,0-0.957,1.087-1.434,1.087c-9.545,2.169-19.09,1.084-28.158-2.172
		c-14.799-5.426-29.119-9.228-44.57-8.974"/>
	<path fill="none" stroke="#231F20" stroke-width="0.5" stroke-miterlimit="10" d="M184.162,234.29
		c-0.353-0.305-0.353-1.39-0.628-0.254c5.599,7.179,12.21,13.793,19.118,19.521c6.137,5.092,13.992,5.847,21.268,7.743
		c12.357,3.223,24.705,5.646,37.568,5.551"/>
	<path fill="none" stroke="#231F20" stroke-width="0.5" stroke-miterlimit="10" d="M194.898,200.915
		c-0.003,11.836,1.906,25.117-2.184,36.381c0.224-1.351,0.181-2.735,0.021-4.093c-0.204-0.86-0.204-3.572-1.159-3.028
		c-8.114,1.085-15.751,3.253-23.867,5.426c-11.455,3.255-21.958,7.055-32.933,10.854c-3.82,1.626-8.116,3.256-11.936,4.883
		c-1.908,1.085-3.819,2.172-5.738,3.179"/>
</g>
</svg>
