<?xml version="1.0" encoding="utf-8"?>
<!-- Generator: Adobe Illustrator 16.0.0, SVG Export Plug-In . SVG Version: 6.00 Build 0)  -->
<!DOCTYPE svg PUBLIC "-//W3C//DTD SVG 1.1//EN" "http://www.w3.org/Graphics/SVG/1.1/DTD/svg11.dtd">
<svg version="1.1" id="Calque_1" xmlns="http://www.w3.org/2000/svg" xmlns:xlink="http://www.w3.org/1999/xlink" x="0px" y="0px"
	 width="372.223px" height="341.975px" viewBox="0 0 372.223 341.975" enable-background="new 0 0 372.223 341.975"
	 xml:space="preserve">
<g>
	<path fill="none" stroke="#231F20" stroke-width="0.5" stroke-miterlimit="10" d="M86.193,141.35
		c-4.944,1.476-11.079,2.712-14.188,7.242c-3.288,4.788-2.626,12.19-2.172,17.69c1.018,12.306,6.777,22.503,11.715,33.472
		c2.659,5.903,3.715,12.335,7.058,17.944"/>
	<path fill="none" stroke="#231F20" stroke-width="0.5" stroke-miterlimit="10" d="M89.094,217.698
		c7.42-2.432,12.184-7.743,20.567-7.729c3.815,0.003,7.669,0.014,11.308,0.461c4.488,0.553,7.027,1.821,11.044,3.486
		c0.555,2.8-1.025,6.766-3.783,7.646"/>
	<path fill="none" stroke="#231F20" stroke-width="0.5" stroke-miterlimit="10" d="M132.581,213.351
		c-1.778-3.119-2.849-10.372-5.817-11.674c-3.046-1.338-10.926-0.276-14.469-0.396c-4.81-0.167-9.959-0.807-14.113,1.956
		c-3.094,2.054-9.067,4.98-10.058,8.663"/>
	<path fill="none" stroke="#231F20" stroke-width="0.5" stroke-miterlimit="10" d="M118.568,201.753
		c-2.652-7.289-1.518-16.625-2.879-24.197c-1.345-7.478-4.962-16.516-9.203-23.158"/>
	<path fill="none" stroke="#231F20" stroke-width="0.5" stroke-miterlimit="10" d="M116.796,183.227
		c4.79,2.13,9.445,5.363,13.985,8.242c3.687,2.334,9.371,7.463,14.041,6.899"/>
	<path fill="none" stroke="#231F20" stroke-width="0.5" stroke-miterlimit="10" d="M86.193,141.35
		c11.726-3.69,24.421,1.785,35.696,5.312c10.016,3.137,18.792,9.216,28.708,12.51c2.91,0.967,5.982,1.879,8.968,2.643
		c2.532,0.644,6.211,1.913,8.774,1.767"/>
	<path fill="none" stroke="#231F20" stroke-width="0.5" stroke-miterlimit="10" d="M151.587,134.588
		c-0.901,0.582-3.241,2.047-4.33,2.868c-4.699,1.68-5.633,2.872-5.657,7.762"/>
	<path fill="none" stroke="#231F20" stroke-width="0.5" stroke-miterlimit="10" d="M141.924,149.403
		c0.294-2.312,0.534-4.53,1.012-6.715c3.688-0.073,15.461-1.538,17.61,2.254c1.908,3.374-2.289,3.668-4.459,3.348
		c-2.923-0.433-4.875-0.57-7.722,0.469"/>
	<path fill="none" stroke="#231F20" stroke-width="0.5" stroke-miterlimit="10" d="M158.676,148.759
		c2.012,2.694,3.241,5.522-0.591,7.238c-1.919,0.858-5.526,0.669-7.633,0.807c-6.093,0.393-9.839-0.356-10.197-7.02
		c-3.195-0.88-0.415-9.714,0.7-11.655"/>
	<path fill="none" stroke="#231F20" stroke-width="0.5" stroke-miterlimit="10" d="M141.279,138.129
		c-0.031-9.725-1.941-19.271-1.932-29.258c0.011-10.313-2.24-20.383-3.227-30.566c-0.463-4.822-1.511-9.779-1.605-14.591"/>
	<path fill="none" stroke="#231F20" stroke-width="0.5" stroke-miterlimit="10" d="M134.837,63.395
		c4.052,0.71,7.783,0.809,11.761,1.287c3.586,0.431,6.943,1.475,10.532,2.167c7.438,1.436,15.363,1.927,22.805,3.306
		c3.645,0.678,8.263,1.338,11.599,2.582"/>
	<path fill="none" stroke="#231F20" stroke-width="0.5" stroke-miterlimit="10" d="M190.888,72.414
		c6.467-0.571,12.491-1.291,19.168-1.289c6.078,0.002,12.304-0.393,18.37-0.001c12.399,0.794,24.298-0.973,36.734-0.963
		c6.813,0.003,13.624-0.006,20.437-0.002"/>
	<path fill="none" stroke="#231F20" stroke-width="0.5" stroke-miterlimit="10" d="M285.919,69.836
		c1.869,4.01,1.187,10.875,1.449,15.292c0.28,4.704,0.803,9.277,0.809,14.036c0.007,9.118,0.324,17.984,0.322,27.033
		c-0.003,5.159,0.331,10.099,0.32,15.152"/>
	<path fill="none" stroke="#231F20" stroke-width="0.5" stroke-miterlimit="10" d="M262.725,69.191
		c0.164-6.395,2.054-13.547,6.529-18.542c4.166-4.653,12.818-4.977,18.573-4.586c-1.687,1.523-3.723,3.219-6.007,3.879
		c3.003,0.973,8.013-0.206,10.912-0.923c-0.478,0.736-0.989,1.456-1.527,2.141c2.968,2.003,7.38,0.527,10.45,1.981
		c-0.076,0.96-0.985,1.76-1.53,2.507c3.488,3.51,0.329,9.472,0.285,13.867c-0.047,4.526-1.036,9.329,1.917,13.282
		c1.449,1.939,8.851,5.935,2.334,7.593c-1.821,0.463-3.753-0.789-5.486,0.278c-1.403,0.866-1.49,2.782-2.621,3.88
		c-1.403,1.363-3.412,1.334-4.697,2.919c-1.576,1.945-2.136,4.766-3.683,6.838"/>
	<path fill="none" stroke="#231F20" stroke-width="0.5" stroke-miterlimit="10" d="M265.304,56.307
		c0.84-4.588,1.587-10.092,5.083-13.527c2.987-2.932,7.375-3.512,11.355-3.885c9.216-0.863,17.788-0.212,24.632,6.677
		c9.218,9.274,19.561,28.107,12.15,40.964c-4.73,8.205-12.875,8.99-21.33,7.139"/>
	<path fill="none" stroke="#231F20" stroke-width="0.5" stroke-miterlimit="10" d="M269.167,59.848
		c2.011,0.549,3.854-0.529,5.8,0.325"/>
	<path fill="none" stroke="#231F20" stroke-width="0.5" stroke-miterlimit="10" d="M284.954,61.784
		c1.456,0.876,4.633,2.638,5.155,4.51"/>
	<path fill="none" stroke="#231F20" stroke-width="0.5" stroke-miterlimit="10" d="M312.012,93.675
		c4.882,2.399,12.113,1.684,13.62,8.071c1.311,5.548-0.153,13.106-0.729,18.741c-0.313,3.046-0.843,6.039-0.618,9.11
		c0.205,2.847,2.112,7.104,1.389,9.863c-0.706,2.697-1.972,1.21-3.857-0.178c-2.463-1.821-4.661-3.37-7.711-4.032
		c-6.213-1.345-14.307-2.508-14.334,5.777"/>
	<path fill="none" stroke="#231F20" stroke-width="0.5" stroke-miterlimit="10" d="M299.128,140.707
		c-0.28-5.442,1.742-11.539,2.583-16.873c0.417-2.643,0.949-5.33,1.513-7.921c0.845-3.897,2.785-5.853,4.279-9.351"/>
	<path fill="none" stroke="#231F20" stroke-width="0.5" stroke-miterlimit="10" d="M322.322,140.383
		c-1.447,4.093-0.818,10.074-1.303,14.491c-0.533,4.835-0.631,9.536-0.631,14.502"/>
	<path fill="none" stroke="#231F20" stroke-width="0.5" stroke-miterlimit="10" d="M313.623,164.544
		c5.279,4.323,8.736,8.289,3.861,14.571c-3.575,4.606-9.345,6.318-14.901,4.315c-3.828-1.378-4.87-4.036-4.745-7.933"/>
	<path fill="none" stroke="#231F20" stroke-width="0.5" stroke-miterlimit="10" d="M303.959,175.498
		c-5.046,0.829-12.264-3.603-16.405-6.282c-4.442-2.875-11.904-5.231-14.72-9.848c3.699-0.349,8.558,2.461,11.682,4.243
		c-3.94-1.647-6.762-4.098-10.384-6.322c-2.596-1.596-6.653-2.483-8.476-4.922c3.366-0.334,7.016,1.094,10.128,1.854
		c3.708,0.909,7.4,2.323,10.648,4.486c-1.418-2.661-5.906-4.076-8.369-5.544c-2.661-1.581-5.497-2.563-8.543-2.534
		c1.147-2.752,7.402-2.359,10.112-2.192c3.759,0.233,7.029,0.913,10.512,2.443c-2.916-2.043-6.155-3.261-9.554-4.221
		c-3.081-0.869-7.725-0.865-10.181-2.407c6.967-3.276,15.054-2.829,21.907,0.654c3.376,1.719,5.795,4.217,8.304,6.98
		c2.221,2.443,5.277,4.457,7.1,7.209c2.408,3.636,2.079,8.685,2.357,12.859"/>
	<path fill="none" stroke="#231F20" stroke-width="0.5" stroke-miterlimit="10" d="M302.025,152.947
		c0-1.857,0.157-5.541,0.002-8.067c-0.151-2.501-0.969-5.828-0.002-8.362"/>
	<path fill="none" stroke="#231F20" stroke-width="0.5" stroke-miterlimit="10" d="M177.683,155.201
		c-2.687,0.942-4.114,4.882-5.237,7.271c-1.759,3.737-4.071,7.246-6.296,10.67c-3.783,5.828-9.052,10.394-13.051,16.04
		c-7.115,10.041-14.502,20.301-19.77,31.425c-1.958,4.13-3.194,8.558-5.115,12.721c-1.391,3.01-4.623,6.177-4.975,9.176"/>
	<path fill="none" stroke="#231F20" stroke-width="0.5" stroke-miterlimit="10" d="M191.533,191.283
		c-0.899,8.859-5.604,18.09-9.163,26.204c-3.641,8.3-9.99,15.266-13.157,23.634c-1.769,4.679-4.237,5.991-8.272,8.755
		c-4.051,2.777-6.017,3.068-7.459,8.089c-1.186,4.122-2.841,6.06-6.144,8.419c-3.103,2.215-1.905,5.98-4.299,8.875
		c-1.473,1.781-3.041,2.054-4.97,3.027c-2.776,1.4-2.379,3.207-3.741,5.741c-1.632,3.028-8.301,3.733-11.682,4.213
		c-0.098-0.313-0.115-0.636-0.049-0.96"/>
	<path fill="none" stroke="#231F20" stroke-width="0.5" stroke-miterlimit="10" d="M188.634,202.88
		c19.128,6.162,40.235,4.56,60.27,3.443c6.104-0.338,12.048-1.967,18.01-0.222"/>
	<path fill="none" stroke="#231F20" stroke-width="0.5" stroke-miterlimit="10" d="M252.418,161.967
		c2.298,4.068,3.872,7.867,5.022,12.295c0.642,2.469,1.071,2.327,3.861,2.563c1.578,0.131,4.837-0.338,5.884,0.847
		c-1.181,1.916-3.524,3.058-4.533,5.108c-1.087,2.207-0.118,4.21,0.389,6.714c1.12,5.548,1.252,10.608,1.667,16.236
		c7.153,0.269,13.544-0.851,17.894-7.101c4.097-5.893,5.089-13.465,4.471-20.467c-0.321-3.61-1.058-7.172-1.796-10.717"/>
	<path fill="none" stroke="#231F20" stroke-width="0.5" stroke-miterlimit="10" d="M160.606,151.98
		c0.482,0.989,7.171,1.89,8.882,2.232c3.49,0.702,7.027,0.214,10.612,0.636c7.167,0.847,14.109,2.417,21.417,2.923
		c15.443,1.062,31.043,1.283,46.635,1.302c7.125,0.011,18.43-4.17,24.561,0.64"/>
	<path fill="none" stroke="#231F20" stroke-width="0.5" stroke-miterlimit="10" d="M191.855,73.703
		c-0.111-0.371,0.049-0.582-0.336-0.851c0.189,9.165-0.691,17.997-1.196,27.021c-0.476,8.438-0.225,17.054-0.73,25.499
		c-0.262,4.322,0.007,8.743,0.007,13.08"/>
	<path fill="none" stroke="#231F20" stroke-width="0.5" stroke-miterlimit="10" d="M91.024,218.021
		c-1.523,6.689-4.992,10.081-10.56,13.833c-5.511,3.723-10.416,8.631-16.25,11.815c-5.453,2.974-12.854,3.693-16.875,8.853
		c-4.123,5.293-2.258,12.771,2.674,16.828c6.031,4.963,13.788,3.792,20.718,1.821"/>
	<path fill="none" stroke="#231F20" stroke-width="0.5" stroke-miterlimit="10" d="M116.152,213.834
		c-0.009,5.173,3.877,9.746,4.187,14.844c0.074,1.258-0.371,3.003,0,4.195c0.252,0.821,1.307,1.653,1.672,2.476
		c0.878,1.963,1.107,5.82-0.125,7.776c-0.248,0.043-0.442-0.055-0.58-0.299"/>
	<path fill="none" stroke="#231F20" stroke-width="0.5" stroke-miterlimit="10" d="M49.147,266.341
		c-1.223-4.05,1.951-9.5,5.624-11.364c3.815-1.935,9.087-2.49,13.326-2.741c9.625-0.574,20.348-0.742,29.371-4.482
		c5.736-2.374,10.403-6.442,16.106-8.795"/>
	<path fill="none" stroke="#231F20" stroke-width="0.5" stroke-miterlimit="10" d="M122.916,240.893
		c-0.899,3.632-3.148,3.177-6.282,3.86c-2.339,0.513-6.391,3.112-5.588,6.075c14.682,1.222,9,24.361,10.259,33.556"/>
	<path fill="none" stroke="#231F20" stroke-width="0.5" stroke-miterlimit="10" d="M129.038,256.357
		c5.322,0.967,6.828,9.485,9.985,12.561"/>
	<path fill="none" stroke="#231F20" stroke-width="0.5" stroke-miterlimit="10" d="M136.769,247.658
		c2.347-0.113,7.024,1.577,7.731,3.864"/>
	<path fill="none" stroke="#231F20" stroke-width="0.5" stroke-miterlimit="10" d="M109.065,250.556
		c0.231,0.065,0.578-0.139,0.442,0.072c-8.959,4.465-14.469,13.607-24.93,14.531c-4.43,0.393-9.952,0.247-12.42,4.729
		c-2.512,4.552,0.06,9.976,3.088,13.542c3.477,4.094,8.045,7.104,11.583,11.157c2.999,3.436,5.248,7.616,9.001,10.328
		c5.097,3.683,24.899,9.161,21.805-3.064c-2.872-11.354-15.907-19.417-24.03-26.812"/>
	<path fill="none" stroke="#231F20" stroke-width="0.5" stroke-miterlimit="10" d="M118.406,304.677
		c2.354-5.839,2.263-11.645,3.545-17.72"/>
</g>
</svg>
