<?xml version="1.0" encoding="utf-8"?>
<!-- Generator: Adobe Illustrator 16.0.0, SVG Export Plug-In . SVG Version: 6.00 Build 0)  -->
<!DOCTYPE svg PUBLIC "-//W3C//DTD SVG 1.1//EN" "http://www.w3.org/Graphics/SVG/1.1/DTD/svg11.dtd">
<svg version="1.1" id="Calque_1" xmlns="http://www.w3.org/2000/svg" xmlns:xlink="http://www.w3.org/1999/xlink" x="0px" y="0px"
	 width="442.593px" height="341.358px" viewBox="0 0 442.593 341.358" enable-background="new 0 0 442.593 341.358"
	 xml:space="preserve">
<g>
	<path fill="none" stroke="#231F20" stroke-width="0.5" stroke-miterlimit="10" d="M177.813,31.351
		c-3.031-0.02-5.811,2.872-8.344,4.217c-2.583,1.375-5.876,2.501-8.256,4.203c0.546-0.142,1.189-0.24,1.793-0.478
		c-4.397,2.368-14.281,7.474-14.221,13.5c0.05-0.137,0.151-0.196,0.303-0.173c-0.707,3.408-2.441,7.079-2.423,10.801
		c0.42-0.585,1.021-0.716,1.46-1.162c0.074,0.169-0.018,0.678,0.034,0.888c0.263,0.004,0.782-0.313,0.92-0.267
		c0.433,0.988,0.997,1.222,2.14,1.081c0.223,0.428,0.4,0.875,0.416,1.351"/>
	<path fill="none" stroke="#231F20" stroke-width="0.5" stroke-miterlimit="10" d="M151.633,63.543
		c0.031-0.345-0.049-0.522,0.225-0.758c-0.653,0.274-0.553,0.692-0.578,0.758"/>
	<path fill="none" stroke="#231F20" stroke-width="0.5" stroke-miterlimit="10" d="M155.171,58.592
		c-1.665,0.653-2.562,2.977-3.222,4.453c2.174-2.702,4.052-5.655,7.069-7.76c0.286-0.258-0.691,0.686-0.431,0.432
		c2.554-3.545,6.81-3.765,9.884-6.28c-0.537,0.819-0.972,1.714-1.219,2.67c1.12-1.468,3.584-3.898,5.571-3.719
		c-0.416,0.684-0.524,1.638-0.883,2.375c0.561-0.367,1.646-0.819,2.262-1.335c0.211,1.133,0.083,2.444-0.22,3.38
		c0.374-0.599,0.927-1.004,1.38-1.521c-0.441,2.793,0.788,7.018,2.371,9.202c0.228,0.147,0.019-0.228,0.081-0.484"/>
	<path fill="none" stroke="#231F20" stroke-width="0.5" stroke-miterlimit="10" d="M179.58,60.006
		c-0.675,0.91-0.51,2.571,0.707,3.184"/>
	<path fill="none" stroke="#231F20" stroke-width="0.5" stroke-miterlimit="10" d="M182.057,61.774
		c0.004,1.012,1.328,2.307,2.476,2.832"/>
	<path fill="none" stroke="#231F20" stroke-width="0.5" stroke-miterlimit="10" d="M185.948,63.898
		c0.76,0.853,1.725,1.466,2.831,1.769"/>
	<path fill="none" stroke="#231F20" stroke-width="0.5" stroke-miterlimit="10" d="M178.166,30.645
		c1.191-0.272,2.32,0.192,2.829,1.061"/>
	<path fill="none" stroke="#231F20" stroke-width="0.5" stroke-miterlimit="10" d="M182.411,28.168
		c0.639,0.389,1.487,0.752,2.052,1.377c0.256-1.028-0.113-1.917-0.991-2.438"/>
	<path fill="none" stroke="#231F20" stroke-width="0.5" stroke-miterlimit="10" d="M187.362,27.107
		c0.592,1.045,1.3,2.057,1.769,3.183"/>
	<path fill="none" stroke="#231F20" stroke-width="0.5" stroke-miterlimit="10" d="M190.193,30.998
		c0.134-1.063,0.052-2.122-0.38-3.077c0.344,1.385,1.663,2.718,2.805,3.402c0.09-1.142-0.05-2.347,0.405-3.154"/>
	<path fill="none" stroke="#231F20" stroke-width="0.5" stroke-miterlimit="10" d="M194.437,27.813
		c0.344,1.119,1.081,2.363,1.691,3.158c0.238-1.009,0.121-2.11-0.24-3.054c0.893,0.779,2.802,2.467,2.865,1.069
		c0.459,1.271,1.437,3.485,1.345,4.134"/>
	<path fill="none" stroke="#231F20" stroke-width="0.5" stroke-miterlimit="10" d="M199.744,32.411
		c5.035,0.097,7.1-0.04,10.82,3.507c3.049,2.906,5.229,6.161,7.761,9.472c2.616,3.42,4.462,6.97,5.843,11.108
		c0.696,2.085,0.671,4.231,1.24,6.32c0.544,1.989,1.789,3.596,2.445,5.536c1.375,4.051,4.103,8.847,3.729,13.229"/>
	<path fill="none" stroke="#231F20" stroke-width="0.5" stroke-miterlimit="10" d="M214.249,64.957
		c1.364,2.866,4.891,5.179,4.671,8.811c0.224-0.099,0.38-0.23,0.635-0.321"/>
	<path fill="none" stroke="#231F20" stroke-width="0.5" stroke-miterlimit="10" d="M220.263,71.326c0.094,0.996,0.47,2,1.062,2.831"
		/>
	<path fill="none" stroke="#231F20" stroke-width="0.5" stroke-miterlimit="10" d="M222.384,72.033
		c0.154,0.383,0.555,1.386,0.708,1.769"/>
	<path fill="none" stroke="#231F20" stroke-width="0.5" stroke-miterlimit="10" d="M224.861,73.802
		c0.07,0.593,0.332,1.144,0.708,1.416"/>
	<path fill="none" stroke="#231F20" stroke-width="0.5" stroke-miterlimit="10" d="M224.861,73.802
		c1.558,1.043,2.568,2.283,3.183,3.893"/>
	<path fill="none" stroke="#231F20" stroke-width="0.5" stroke-miterlimit="10" d="M229.814,78.4
		c0.182,0.631,0.417,1.216,0.707,1.771"/>
	<path fill="none" stroke="#231F20" stroke-width="0.5" stroke-miterlimit="10" d="M229.814,78.4
		c0.63,0.874,1.101,1.817,1.415,2.832"/>
	<path fill="none" stroke="#231F20" stroke-width="0.5" stroke-miterlimit="10" d="M201.16,64.606
		c2.274-5.931,8.379-6.438,11.264-0.71c2.4,4.763,2.746,10.68,0.053,15.254c-1.088,1.851-4.168,6.324-5.304,1.726"/>
	<path fill="none" stroke="#231F20" stroke-width="0.5" stroke-miterlimit="10" d="M202.573,66.02
		c1.414-4.217,5.912-4.332,8.019-0.819c1.58,2.638,2.709,9.368,0.472,11.786"/>
	<path fill="none" stroke="#231F20" stroke-width="0.5" stroke-miterlimit="10" d="M208.589,69.204
		c-1.323-1.263-4.675-1.908-5.695,0c0.556,0.722,1.857,1.271,2.157,2.057c0.33,0.861-0.652,1.916-0.36,3.053
		c0.833,3.211,2.779,1.48,2.543-1.157c0.743-0.042,1.156-0.573,2.008-0.468c0.092-0.361,0.044-0.638,0.054-1.009"/>
	<path fill="none" stroke="#231F20" stroke-width="0.5" stroke-miterlimit="10" d="M210.003,69.557c0,0.944,0,1.886,0,2.83"/>
	<path fill="none" stroke="#231F20" stroke-width="0.5" stroke-miterlimit="10" d="M194.792,69.557
		c0.214,1.446,1.697,2.708,3.183,2.83"/>
	<path fill="none" stroke="#231F20" stroke-width="0.5" stroke-miterlimit="10" d="M195.499,69.204
		c0.648,0.647,1.48,1.476,2.476,1.767"/>
	<path fill="none" stroke="#231F20" stroke-width="0.5" stroke-miterlimit="10" d="M200.807,63.898
		c-2.774-0.587-4.454,3.64-6.31,5.06c-2.167,1.66-5.294,2.725-7.837,3.787c-5.347,2.232-10.525,4.332-15.57,7.426"/>
	<path fill="none" stroke="#231F20" stroke-width="0.5" stroke-miterlimit="10" d="M169.586,76.633
		c4.317-2.874,8.297-6.458,12.882-9.013c4.432-2.468,9.533-4.632,14.303-6.116c2.622-0.815,5.592-0.916,8.103-1.852"/>
	<path fill="none" stroke="#231F20" stroke-width="0.5" stroke-miterlimit="10" d="M209.649,60.183
		c1.568-0.002,5.74-0.591,7.649,0.309c1.077,3.235-1.884,4.574-4.73,3.67"/>
	<path fill="none" stroke="#231F20" stroke-width="0.5" stroke-miterlimit="10" d="M170.913,75.837
		c0.634,0.885,1.236,2.045,2.123,2.652"/>
	<path fill="none" stroke="#231F20" stroke-width="0.5" stroke-miterlimit="10" d="M169.586,76.633
		c-3.596,3.695-8.103,7.232-10.377,11.759c-1.196,2.378-4.666,2.935-5.265,5.429c-0.604,2.507,2.13,4.648,3.593,6.306
		c1.76,1.997,3.576,3.792,5.681,5.425"/>
	<path fill="none" stroke="#231F20" stroke-width="0.5" stroke-miterlimit="10" d="M155.26,96.796
		c0.029-2.14,0.019-3.917,2.35-4.514c2.638-0.673,2.919,1.497,4.547,2.658"/>
	<path fill="none" stroke="#231F20" stroke-width="0.5" stroke-miterlimit="10" d="M163.484,84.591
		c-3.463,5.268,2.325,12.826,8.527,11.645c7.788-1.484,1.541-10.878-1.442-13.77c-3.083-2.989-5.581,0.561-7.085,3.188"/>
	<path fill="none" stroke="#231F20" stroke-width="0.5" stroke-miterlimit="10" d="M171.709,79.816
		c0.982,4.41,7.418,7.224,5.452,12.293c-2.074,5.353-6.722,6.861-11.238,3.328c-0.907-0.71-1.645-2.21-2.929-2.222
		c-1.714-0.016-2.017,1.484-0.305,1.988"/>
	<path fill="none" stroke="#231F20" stroke-width="0.5" stroke-miterlimit="10" d="M155.789,96.001
		c0.442-1.667,2.695-2.315,3.981-3.186"/>
	<path fill="none" stroke="#231F20" stroke-width="0.5" stroke-miterlimit="10" d="M162.423,95.203
		c-1.411,0.379-2.974,1.67-4.245,2.39"/>
	<path fill="none" stroke="#231F20" stroke-width="0.5" stroke-miterlimit="10" d="M162.423,93.348
		c0.92,1.024,1.108,4.939,1.312,6.502c0.305,2.333,0.316,4.545,0.856,6.72c1.233,0.666,2.174,1.242,3.687,1.121
		c1.551-0.125,2.282-1.522,3.16,0.22c0.659,1.309-0.253,2.543,0.805,3.878c0.968,1.222,2.043,1.23,3.4,1.771
		c0.123,1.218-0.106,1.96,0.588,2.882c0.433,0.579,1.722,0.958,2.299,1.381c1.364,1,2.627,2.114,3.394,3.65
		c2.037,4.074,4.176,7.946,9.492,5.788c4.236-1.718,5.71-6.711,9.155-9.458c4.319-3.445,10.538,2.658,13.61,5.475
		c1.145,1.051,2.442,1.424,3.674,2.261c1.7,1.156,2.81,3.049,4.001,4.691"/>
	<path fill="none" stroke="#231F20" stroke-width="0.5" stroke-miterlimit="10" d="M173.833,112.186
		c2.063-2.593,6.25-2.047,9.02-4.245"/>
	<path fill="none" stroke="#231F20" stroke-width="0.5" stroke-miterlimit="10" d="M182.852,108.205
		c-2.191,1.664-2.229,4.425-3.714,6.367"/>
	<path fill="none" stroke="#231F20" stroke-width="0.5" stroke-miterlimit="10" d="M180.199,109.268
		c-2.344,0.609-2.156,4.433-5.041,4.245"/>
	<path fill="none" stroke="#231F20" stroke-width="0.5" stroke-miterlimit="10" d="M169.852,105.553
		c-0.252,0.541,0.785-0.885,1.448-1.331c0.772-0.522,1.859-0.706,2.533-1.057"/>
	<path fill="none" stroke="#231F20" stroke-width="0.5" stroke-miterlimit="10" d="M175.424,102.899
		c0.611-1.335,0.325-2.775-0.797-3.715"/>
	<path fill="none" stroke="#231F20" stroke-width="0.5" stroke-miterlimit="10" d="M156.32,90.96
		c-0.95-2.061-0.371-4.457-1.672-6.623c-1.144-1.912-2.696-3.207-3.431-5.409c-1.724-5.17,0.1-9.577,0.063-14.766"/>
	<path fill="none" stroke="#231F20" stroke-width="0.5" stroke-miterlimit="10" d="M168.79,85.654
		c0.894-0.272,1.728-0.66,2.39-1.327"/>
	<path fill="none" stroke="#231F20" stroke-width="0.5" stroke-miterlimit="10" d="M174.096,83.002
		c0.91-0.177,1.809-0.266,2.655-0.532"/>
	<path fill="none" stroke="#231F20" stroke-width="0.5" stroke-miterlimit="10" d="M172.77,85.654
		c-0.423,0.75-0.543,1.486-0.53,2.388"/>
	<path fill="none" stroke="#231F20" stroke-width="0.5" stroke-miterlimit="10" d="M170.913,85.39
		c0.01,0.879,0.468,1.372,1.326,1.325"/>
	<path fill="none" stroke="#231F20" stroke-width="0.5" stroke-miterlimit="10" d="M231.14,80.612
		c0.545,4.409,6.548,7.419,10.349,7.694"/>
	<path fill="none" stroke="#231F20" stroke-width="0.5" stroke-miterlimit="10" d="M240.958,88.042
		c2.658,5.362,2.874,9.831,2.463,15.785c-0.386,5.63,0.116,11.37-0.945,16.94c-0.981,5.139-1.226,10.406-1.788,15.601
		c-0.548,5.095-2.23,9.761-3.085,14.774c-0.494,2.908-0.963,5.957-1.76,8.801c-0.754,2.7-2.599,4.715-3.907,7.163"/>
	<path fill="none" stroke="#231F20" stroke-width="0.5" stroke-miterlimit="10" d="M213.365,124.389
		c0.356,3.531,2.104,6.653,2.848,10.095c0.728,3.368,1.321,6.816,1.986,10.203c1.258,6.396-1.159,14.248,5.353,18.132
		c1.749,1.04,3.742,1.352,5.535,2.263c1.463,0.742,2.499,1.694,4.176,2.024"/>
	<path fill="none" stroke="#231F20" stroke-width="0.5" stroke-miterlimit="10" d="M240.958,88.042
		c2.246,0.486,4.438,1.26,6.748,1.414c2.699,0.177,5.49-0.359,8.218-0.444c5.823-0.181,11.643,0.392,17.291,1.843
		c7.471,1.92,15.955,3.156,22.85,6.72c7.598,3.929,10.004,11.427,10.156,19.532c0.182,9.848,0.042,19.411,0.93,29.256
		c0.446,4.933,1.086,10.613-1.111,15.25c-1.896,4.001-5.765,5.921-9.629,7.615"/>
	<path fill="none" stroke="#231F20" stroke-width="0.5" stroke-miterlimit="10" d="M249.181,90.428
		c0.259,11.212,3.36,23.349,0.888,34.453c-1.193,5.366-1.134,11.047-2.261,16.484c-1.124,5.43-3.083,10.572-4.048,16.029
		c-0.536,3.021-1.058,6.145-2.105,9.034c-1.035,2.864-2.633,5.68-3.35,8.638"/>
	<path fill="none" stroke="#231F20" stroke-width="0.5" stroke-miterlimit="10" d="M208.854,121.207
		c0.377,4.578,0.714,9.292,1.989,13.729c1.208,4.194,2.941,7.829,3.382,12.237c0.833,8.337,4.069,17.215,10.769,22.623
		c3.677,2.971,8.484,4.005,13.045,4.739"/>
	<path fill="none" stroke="#231F20" stroke-width="0.5" stroke-miterlimit="10" d="M205.14,116.961
		c-4.108,3.732-5.066,10.993-5.043,16.174c0.027,6.229,2.148,11.787,2.127,18.003c-0.005,1.755-0.088,3.533,0.003,5.283
		c0.11,2.16,0.973,4.258,0.79,6.439"/>
	<path fill="none" stroke="#231F20" stroke-width="0.5" stroke-miterlimit="10" d="M200.363,126.514
		c-1.808,1.071-3.642,4.013-3.939,5.988c-0.224,1.484-0.081,2.62-0.65,4.076c-0.648,1.651-1.376,2.674-1.247,4.527"/>
	<path fill="none" stroke="#231F20" stroke-width="0.5" stroke-miterlimit="10" d="M196.648,130.491
		c-1.726,3.904-4.799,6.204-7.204,9.571c-2.529,3.54-1.281,9.438-0.173,13.42c0.701,2.524,1.13,5.166,2.336,7.521"/>
	<path fill="none" stroke="#231F20" stroke-width="0.5" stroke-miterlimit="10" d="M187.362,146.943
		c-1.13,3.582-6.323,5.07-5.837,9.815"/>
	<path fill="none" stroke="#231F20" stroke-width="0.5" stroke-miterlimit="10" d="M177.545,175.863
		c0.108,3.319-0.453,7.769-1.078,11.007c-0.63,3.271-2.293,6.661-2.384,10.14c1.297-3.416,9.291-1.237,11.962-1.246
		c2.869-0.006,11.022-1.142,12.727,1.323"/>
	<path fill="none" stroke="#231F20" stroke-width="0.5" stroke-miterlimit="10" d="M270.939,103.431
		c-4.654,4.326-7.691,11.213-9.599,17.144c-1.821,5.667-3.345,12.804-3.155,18.782c0.1,3.202,0.845,5.919,2.938,8.381"/>
	<path fill="none" stroke="#231F20" stroke-width="0.5" stroke-miterlimit="10" d="M271.202,123.86
		c-3.012,2.057-6.105,6.853-7.829,10.091c-0.83,1.562-1.595,3.196-2.249,4.762c-0.88,2.107-0.757,4.096-1.065,6.37"/>
	<path fill="none" stroke="#231F20" stroke-width="0.5" stroke-miterlimit="10" d="M273.592,131.554
		c-3.727,3.938-6.826,8.649-10.318,12.764c-3.145,3.711-3.593,9.011-5.058,13.562c-0.379,1.174-0.778,2.344-1.167,3.516
		c-0.233,0.706-0.479,1.424-0.684,2.126c-0.133,0.459-0.077,2.049-0.285,1.197"/>
	<path fill="none" stroke="#231F20" stroke-width="0.5" stroke-miterlimit="10" d="M266.959,145.882
		c-0.416,2.501-4.393,3.179-4.51,5.837"/>
	<path fill="none" stroke="#231F20" stroke-width="0.5" stroke-miterlimit="10" d="M256.08,164.133
		c1.599,0.751,7.269-1.484,9.281-1.72c3.198-0.377,6.763-0.479,10-0.615c6.658-0.274,13.634,0.07,20.282,0.401
		c1.885,0.093,10.134-0.564,7.929,2.797"/>
	<path fill="none" stroke="#231F20" stroke-width="0.5" stroke-miterlimit="10" d="M256.347,164.718
		c-2.208,1.859-3.255,7.381-3.916,10.084c-0.883,3.617-2.833,7.3-3.25,10.878"/>
	<path fill="none" stroke="#231F20" stroke-width="0.5" stroke-miterlimit="10" d="M298.267,162.597
		c-2.077,2.924-3.373,6.851-4.715,10.187c-1.465,3.651-3.05,7.468-4.84,11.182c-1.836,3.82-3.291,7.797-5.575,11.427
		c-2.212,3.518-4.641,6.79-6.696,10.374c-2.335,4.065-4.274,8.684-6.297,12.546"/>
	<path fill="none" stroke="#231F20" stroke-width="0.5" stroke-miterlimit="10" d="M111.481,170.027c-0.238-0.003-0.477,0-0.715,0
		c3.359,0.413,7.987-2.416,11.062-3.648c3.736-1.497,7.437-3.082,11.086-4.374c1.701-0.602,4.277-2.255,6.161-2.062"/>
	<path fill="none" stroke="#231F20" stroke-width="0.5" stroke-miterlimit="10" d="M139.34,159.676
		c8.109-2.392,16.271-4.755,24.777-5.104c7.403-0.301,16.846,0.79,23.382,4.499c6.826,3.874,13.447,8.144,20.366,11.868
		c7.041,3.789,14.757,7.226,22.329,9.791c7.502,2.537,15.979,2.396,22.652,6.998c0.651,0.445,1.28,0.924,1.908,1.399"/>
	<path fill="none" stroke="#231F20" stroke-width="0.5" stroke-miterlimit="10" d="M114.665,174.536
		c3.271-0.002,6.61,0.024,9.678-0.818c1.434-0.392,2.836-1.115,4.257-1.573c2.155-0.696,5.132-0.813,6.76-2.65"/>
	<path fill="none" stroke="#231F20" stroke-width="0.5" stroke-miterlimit="10" d="M136.422,164.718
		c-0.343,3.287-1.667,6.998-3.164,9.98c-0.711,1.414-1.826,3.012-2.144,4.561c-0.865,4.213,3.66,5.604,6.899,5.622"/>
	<path fill="none" stroke="#231F20" stroke-width="0.5" stroke-miterlimit="10" d="M145.177,161.536
		c-3.129,1.501-4.014,8.598-5.02,11.697c-1.08,3.323-4.173,9.208-1.059,12.226c1.461,1.415,9.06,3.23,10.322,0.75"/>
	<path fill="none" stroke="#231F20" stroke-width="0.5" stroke-miterlimit="10" d="M148.627,165.513
		c-1.944,3.558-3.236,7.651-5.014,11.321c-2.161,4.47,0.146,6.805,4.167,8.81c1.718,0.858,4.085,2.234,5.888,0.83"/>
	<path fill="none" stroke="#231F20" stroke-width="0.5" stroke-miterlimit="10" d="M156.851,172.415
		c-1.278,1.389-3.43,2.759-4.516,4.185c-1.251,1.647-1.413,3.916-3.409,5.326c0.989-0.577,2.229-0.565,3.374-0.452
		c-0.025,0.072,0.033,0.561,0.042,0.678c0.022-1.085,1.003-1.327,1.99-1.238c1.515,0.133,1.405,0.318,1.545,1.823
		c0.137,1.474-1.215,3.751-2.741,4.271"/>
	<path fill="none" stroke="#231F20" stroke-width="0.5" stroke-miterlimit="10" d="M154.198,174.8c-0.238-0.002-0.477,0-0.716,0
		c3.744,0.028,7.019,1.579,10.766,1.329c1.737-0.117,3.863-0.024,5.506-0.63c2.619-0.964,1.998-1.797,2.22-4.065
		c-0.088,0.968,0.164,1.871,0.307,2.795c3.838-0.339,8.219,4.832,10.949,7.131c1.763,1.488,2.877,3.499,4.567,5.093
		c1.665,1.566,3.42,3.007,5.079,4.64c6.456,6.354,12.227,13.924,19.772,19.186c2.346,1.636,4.915,3.017,7.401,4.431
		c1.957,1.113,5.047,3.081,7.378,3.34"/>
	<path fill="none" stroke="#231F20" stroke-width="0.5" stroke-miterlimit="10" d="M152.342,176.923
		c-0.126,0.271-0.156,0.659-0.292,0.956c1.817-0.702,5.169-2.956,6.762-0.976c1.934,2.401-1.289,4.435-3.288,4.795"/>
	<path fill="none" stroke="#231F20" stroke-width="0.5" stroke-miterlimit="10" d="M158.178,176.658
		c0.456-0.403,1.007-0.682,1.592-0.795"/>
	<path fill="none" stroke="#231F20" stroke-width="0.5" stroke-miterlimit="10" d="M173.833,196.292
		c-1.049,6.07-1.071,12.097-1.602,18.205c-0.439,5.052-1.302,11.567-7.78,10.567c-3.024-0.466-5.935-1.604-8.953-2.147
		c-2.62-0.471-5.314-0.644-7.779-1.727c-2.349-1.03-4.321-2.743-6.688-3.759c-2.877-1.232-6.007-1.4-8.961-2.352
		c-4.772-1.537-5.244-5.776-6.986-9.832c-1.984-4.62-5.127-9.498-8.699-13.062c-3.865-3.854-5.158-7.752-6.888-12.619
		c-0.881-2.474-2.722-5.648-5.928-4.19c-0.709,1.371,0.473,1.378,0.694,2.418c0.216,1.022-0.005,2.19,0.061,3.251
		c0.133,2.183,0.19,4.402,0.525,6.506c0.317,1.995,1.048,3.364,2.061,5.099c1.07,1.839,0.765,3.646,1.653,5.499"/>
	<path fill="none" stroke="#231F20" stroke-width="0.5" stroke-miterlimit="10" d="M104.318,179.578
		c-1.96-3.023-4.102-5.936-5.882-9.071c-1.981-3.495-3.612-7.998-7.328-10.058c-4.361-2.414-5.445,1.509-3.923,5.02
		c1.591,3.671,4.497,6.566,6.069,10.273c1.717,4.048,3.275,7.861,5.757,11.527"/>
	<path fill="none" stroke="#231F20" stroke-width="0.5" stroke-miterlimit="10" d="M87.337,159.676
		c-2.515-1.512-4.261-5.205-7.254-5.65c-5.405-0.809-1.977,4.344-0.565,6.349c1.77,2.517,2.612,5.55,4.185,8.208
		c1.684,2.844,3.287,5.764,5.074,8.543c2.07,3.219,4.237,5.917,5.459,9.615"/>
	<path fill="none" stroke="#231F20" stroke-width="0.5" stroke-miterlimit="10" d="M87.868,162.065
		c0.261,0.564,2.246,2.439,1.567,3.392c-0.766,1.077-2.45-0.07-2.628-1.004"/>
	<path fill="none" stroke="#231F20" stroke-width="0.5" stroke-miterlimit="10" d="M77.521,156.495
		c2.521-0.477,2.816,1.506,3.158,3.408c-0.27,0.068-0.491,0.044-0.77,0.04"/>
	<path fill="none" stroke="#231F20" stroke-width="0.5" stroke-miterlimit="10" d="M76.726,155.962
		c-3.371-2.077-0.469,4.355-0.101,5.086c1.032,2.045,1.981,4.156,3.01,6.154c2.089,4.056,5.481,7.591,8.041,11.334
		c1.519,2.223,2.709,4.756,3.377,7.407"/>
	<path fill="none" stroke="#231F20" stroke-width="0.5" stroke-miterlimit="10" d="M86.012,177.19
		c-1.678-0.017-3.476,0.803-3.417,2.605c3.415,0.313,6.536,5.909,7.916,8.708c1.805,3.67,2.65,7.494,5.372,10.422
		c2.559,2.753,5.178,7.204,6.585,10.656c1.755,4.312,2.532,8.184,6.573,10.987c2.311,1.602,4.568,3.279,6.799,4.989
		c2.625,2.013,5.56,3.852,8.028,6.078c5.334,4.816,10.662,9.838,17.067,13.268c7.015,3.758,15,5.544,22.234,9.154
		c3.854,1.924,8.075,4.065,12.254,5.114"/>
	<path fill="none" stroke="#231F20" stroke-width="0.5" stroke-miterlimit="10" d="M191.342,249.887
		c3.925-4.499,4.719-11.527,6.828-17.053c2.101-5.502,5.024-11.033,6.565-16.775c0.824-3.077,1.249-7.264,2.792-9.95"/>
	<path fill="none" stroke="#231F20" stroke-width="0.5" stroke-miterlimit="10" d="M305.962,107.94
		c-0.279,0.002-0.489-0.028-0.756,0.041c-0.619,3.235,3.045,9.43,4.387,12.439c1.993,4.463,4.868,8.74,6.671,13.294
		c1.746,4.401,2.75,8.98,4.361,13.492c1.437,4.029,3.506,7.32,5.695,10.935c2.168,3.581,6.527,8.962,7.006,13.167
		c3.135,0.555,1.857,3.204,3.34,4.895c0.894,1.013,2.344,1.422,3.295,2.38c1.192,1.201,1.739,2.837,2.41,4.355
		c1.692,3.817,3.256,7.7,4.663,11.629c2.846,7.93,5.148,16.049,6.966,24.272c2.994,13.54,0.847,27.564,0.337,41.336
		c-0.229,6.21-0.2,13.288-5.131,17.834"/>
	<path fill="none" stroke="#231F20" stroke-width="0.5" stroke-miterlimit="10" d="M276.245,221.497
		c2.161,0.383,6.515-2.775,8.551-3.715c4.983-2.303,6.873-6.841,10.55-10.612"/>
	<path fill="none" stroke="#231F20" stroke-width="0.5" stroke-miterlimit="10" d="M248.917,150.922
		c-0.032,0.909,0.295,3.027,0.502,4.391c0.346,2.282,0.01,4.743,0.559,7.018"/>
	<path fill="none" stroke="#231F20" stroke-width="0.5" stroke-miterlimit="10" d="M259.53,100.245
		c0.379,3.11-1.237,5.986-1.593,9.023"/>
	<path fill="none" stroke="#231F20" stroke-width="0.5" stroke-miterlimit="10" d="M310.472,243.252
		c2.535-1.271,5.923-2.565,9.224-2.649c3.846-0.1,7.065,2.615,10.674,3.71"/>
	<path fill="none" stroke="#231F20" stroke-width="0.5" stroke-miterlimit="10" d="M292.43,230.519c1.083,0.424,2.673,0.464,3.712,0
		"/>
	<path fill="none" stroke="#231F20" stroke-width="0.5" stroke-miterlimit="10" d="M173.036,202.128
		c-4.692-1.126-8.303-5.498-13.02-6.897c-5.628-1.672-11.238-2.569-16.804-0.309c-2.512,1.019-5.286,2.192-6.79,4.554"/>
	<path fill="none" stroke="#231F20" stroke-width="0.5" stroke-miterlimit="10" d="M128.993,210.884
		c-0.4,0.289-1.145,1.904-0.531,2.654"/>
	<path fill="none" stroke="#231F20" stroke-width="0.5" stroke-miterlimit="10" d="M204.875,214.866
		c2.013,2.533,7.886,4.162,10.899,5.235c2.13,0.758,4.206,1.142,6.341,1.72c1.305,0.354,4.917,0.38,5.577,1.533"/>
	<path fill="none" stroke="#231F20" stroke-width="0.5" stroke-miterlimit="10" d="M323.737,261.56
		c0.076-3.306-2.625-6.302-4.484-8.642c-1.808-2.274-4.246-4.806-6.533-6.682c-4.321-3.549-8.636-6.247-13.466-9.036
		c-5.311-3.071-9.838-6.036-14.5-10.114c-2.666-2.331-4.535-3.997-7.846-5.453c-3.002-1.322-6.054-2.569-9.097-3.797
		c-2.678-1.081-5.362-2.158-7.974-3.38c-1.36-0.636-2.669-1.446-4.167-1.755c-2.364-0.488-5.391-0.71-7.811-0.813
		c-1.66-0.073-3.292,0.145-4.818,0.762c-1.346,0.543-2.622,2.279-3.839,2.63c-1.469,0.424-2.389-0.968-3.813-1.439
		c-3.124-1.037-6.278,0.551-7.93,3.283c-0.847,1.399-1.141,2.938-1.117,4.55c0.033,2.458,0.523,2.924-2.254,3.037
		c-4.544,0.186-5.38,2.704-6.527,6.822c-6.768,3.444-10.757,10.331-16.67,14.903"/>
	<path fill="none" stroke="#231F20" stroke-width="0.5" stroke-miterlimit="10" d="M212.038,244.845
		c-4.03,2.2-9.776,2.2-14.296,3.449c-4.236,1.174-8.634,1.561-12.773,3.047c-4.842,1.736-7.291,4.415-10.467,8.348
		c-0.825,1.021-2.958,3.896-4.486,3.902c-0.651,0.002-1.85-1.1-2.607-1.297c-1.144-0.295-1.978-0.149-3.105,0.129
		c-4.771,1.182-8.62,4.521-12.227,7.627"/>
	<path fill="none" stroke="#231F20" stroke-width="0.5" stroke-miterlimit="10" d="M158.178,305.072
		c2.786,3.069,10.223,2.806,14.313,2.05c5.335-0.98,9.404,0.169,14.607,0.871"/>
	<path fill="none" stroke="#231F20" stroke-width="0.5" stroke-miterlimit="10" d="M276.245,295.521
		c-0.525,8.684-2.328,16.154-11.791,18.289c-3.644,0.821-7.401,1.025-11.042,1.886c-3.644,0.863-7.037,2.372-10.571,3.565
		c-7.604,2.573-13.67,0.509-19.939-4.154c-6.111-4.543-12.279-10.283-13.862-18.062c-1.277-6.264,1.417-11.511,7.235-14.173
		c3.489-1.598,7.234-0.909,10.893-0.432c4.541,0.589,9.164,0.73,13.643-0.441c3.434-0.897,5.286-3.957,8.94-3.701
		c4.541,0.314,3.913-2.964,4.331-6.809c0.25-2.32,0.609-4.075-0.673-6.158c-1.153-1.874-2.315-2.658-1.836-5.099"/>
	<path fill="none" stroke="#231F20" stroke-width="0.5" stroke-miterlimit="10" d="M253.427,272.705
		c0.735,1.591,7.037-1.348,7.43-3.185"/>
	<path fill="none" stroke="#231F20" stroke-width="0.5" stroke-miterlimit="10" d="M252.1,264.48c1.369-0.32,3.32-1.388,3.98-2.656"
		/>
	<path fill="none" stroke="#231F20" stroke-width="0.5" stroke-miterlimit="10" d="M176.219,287.561
		c-0.115-0.199-0.274-0.276-0.478-0.231c-3.788,2.977,0.744,4.743,1.851,7.615c2.519,0.186,10.067-1.596,11.363,0.843"/>
	<path fill="none" stroke="#231F20" stroke-width="0.5" stroke-miterlimit="10" d="M194.792,293.664
		c-0.941-1.47,3.284-4.461,4.511-5.042"/>
	<path fill="none" stroke="#231F20" stroke-width="0.5" stroke-miterlimit="10" d="M175.689,287.561
		c12.019-1.206,24.283-6.12,35.219-11.162c11.063-5.099,21.358-11.679,31.42-18.477c9.642-6.513,20.749-12.286,32.493-8.438
		c5.459,1.791,10.602,4.474,15.783,6.926c5.457,2.577,11.166,4.565,16.616,7.133c4.952,2.333,9.142,6.314,14.279,8.198
		c5.475,2.008,11.242,0.557,16.59-1.156c1.323-0.421,2.641-0.877,3.957-1.331"/>
	<path fill="none" stroke="#231F20" stroke-width="0.5" stroke-miterlimit="10" d="M321.085,254.663
		c-0.165-0.133-0.263-0.356-0.564-0.419c1.426,1.411,2.955,2.531,4.412,3.982c1.203,1.198,3.039,5.353,4.907,5.191"/>
	<path fill="none" stroke="#231F20" stroke-width="0.5" stroke-miterlimit="10" d="M317.901,252.009
		c10.016,3.922,17.98,10.857,25.686,18.388c2.579,2.525,4.164,3.69,7.703,3.408c0.224,1.942-1.939,3.612-2.88,5.002"/>
	<path fill="none" stroke="#231F20" stroke-width="0.5" stroke-miterlimit="10" d="M325.063,254.663
		c0.062,1.801,4.732,4.77,6.369,6.231c2.363,2.116,4.342,4.349,5.541,7.321c-1.333,0.399-2.486,0.708-3.613,1.634
		c-0.965,0.786-1.582,2.272-2.99,2.057"/>
	<path fill="none" stroke="#231F20" stroke-width="0.5" stroke-miterlimit="10" d="M349.207,275.092
		c-3.342,11.075-7.044,26.442-16.581,33.963c-10.451,8.242-27.238,5.219-39.071,2.31c-7.107-1.747-13.294-4.538-19.477-8.426
		c-0.251-0.134,0.86-0.022,1.106,0.012"/>
	<path fill="none" stroke="#231F20" stroke-width="0.5" stroke-miterlimit="10" d="M250.508,278.541
		c-1.555,0.702,1.767,5.058,3.129,5.646c2.385,1.029,5.765,0.948,8.279,0.988"/>
	<path fill="none" stroke="#231F20" stroke-width="0.5" stroke-miterlimit="10" d="M261.386,283.583
		c2.247,5.052,8.136,7.716,12.567,10.687c5.416,3.632,6.456,9.882,13.616,11.206c3.501,0.647,6.295-0.733,9.663-1.288
		c3.437-0.566,6.655,0.532,10.043,0.897c3.358,0.363,6.907,0.201,10.07-1.069c2.978-1.195,4.736-2.325,8.031-2.295
		c4.62,0.049,5.809-2.311,7.891-6.074c1.566-2.829,3.867-5.082,5.32-7.986c0.938,1.933,0.408,6.115,0.272,8.346
		c-0.151,2.549-0.017,5.84-1.591,7.74"/>
	<path fill="none" stroke="#231F20" stroke-width="0.5" stroke-miterlimit="10" d="M310.472,305.338
		c0.648,2.855-3.278,6.647-5.836,8.224"/>
	<path fill="none" stroke="#231F20" stroke-width="0.5" stroke-miterlimit="10" d="M312.858,305.072
		c-0.533,2.819-2.259,7.321-5.306,8.49"/>
	<path fill="none" stroke="#231F20" stroke-width="0.5" stroke-miterlimit="10" d="M221.325,281.195
		c-5.747,0.896-11.758,2.186-15.301,7.266c-3.444,4.936-3.384,11.538-0.851,16.846c4.918,10.31,18.264,16.571,29.329,16.208
		c6.528-0.216,12.26-2.986,17.866-6.097"/>
	<path fill="none" stroke="#231F20" stroke-width="0.5" stroke-miterlimit="10" d="M203.016,292.605
		c-5.614,1.267-14.882,2.363-18.004,7.996c-3.715,6.706,8.331,9.428,12.519,10.158c4.175,0.726,8.114,1.894,12.384,2.007"/>
	<path fill="none" stroke="#231F20" stroke-width="0.5" stroke-miterlimit="10" d="M153.933,268.723
		c-5.162-1.532-9.776-3.739-14.627-6.021c-5.504-2.59-11.295-3.743-17.354-4.033c-9.684-0.468-28.623,2.727-24.285,16.975
		c1.579,5.185,6.381,9.21,10.404,12.554c4.688,3.896,9.859,6.51,15.896,7.564c5.585,0.976,11.094,0.885,16.419,3.081
		c2.875,1.185,5.604,2.688,8.42,3.999c1.48,0.687,4.842,2.755,6.589,2.138c3.087-1.095-0.74-9.647-1.177-11.904
		c-1.164-5.995-1.003-12.185-2.908-18.035c-0.403-1.234-0.878-2.452-1.357-3.662"/>
	<path fill="none" stroke="#231F20" stroke-width="0.5" stroke-miterlimit="10" d="M128.993,262.357
		c-2.889,2.144-5.754,3.486-9.329,4.033c-3.956,0.604-8.308,0.5-11.816,2.708c-8.537,5.373-0.993,13.157,4.323,17.075
		c3.37,2.483,5.854,5.268,8.067,8.817"/>
	<path fill="none" stroke="#231F20" stroke-width="0.5" stroke-miterlimit="10" d="M119.176,266.335
		c-0.125,2.208,2.163,4.542,3.98,5.57"/>
	<path fill="none" stroke="#231F20" stroke-width="0.5" stroke-miterlimit="10" d="M125.277,268.459
		c-3.098,3.435-3.172,7.044-3.96,11.312c-0.646,3.49-2.311,7.292,0.711,10.14c1.731-1.361,1.129-3.102,1.392-5.014
		c0.245-1.782,1.152-3.6,1.592-5.264c0.722-2.734,3.813-8.998,0.266-10.644"/>
	<path fill="none" stroke="#231F20" stroke-width="0.5" stroke-miterlimit="10" d="M130.85,270.845
		c-4.441,4.299-9.296,15.561-2.706,20.139c0.304-3.751-0.284-6.881,1.438-10.31c1.358-2.711,3.754-7.063,1.799-10.096"/>
	<path fill="none" stroke="#231F20" stroke-width="0.5" stroke-miterlimit="10" d="M138.81,271.377
		c-1.419,2.569-4.103,3.739-5.678,6.139c-1.098,1.67-1.963,3.893-2.479,5.822c-0.65,2.442-0.274,4.733,0.135,7.176
		c0.233,1.389,2.29,6.658,3.14,2.934c0.302-1.327-0.903-3.094-0.82-4.539c0.085-1.43,0.735-2.838,0.925-4.266"/>
	<path fill="none" stroke="#231F20" stroke-width="0.5" stroke-miterlimit="10" d="M134.564,289.418
		c0.122,2.287,0.839,8.468,4.205,8.45c0.351-2.437-1.302-4.65-1.021-6.856"/>
	<path fill="none" stroke="#231F20" stroke-width="0.5" stroke-miterlimit="10" d="M138.279,272.171
		c-0.258,0.119,0.725,0.021,1.021,0.043c0.151,1.386-1.47,2.81-1.817,3.672"/>
	<path fill="none" stroke="#231F20" stroke-width="0.5" stroke-miterlimit="10" d="M138.544,273.765
		c0.902,0.188,1.927-0.174,2.614-0.496c-0.065,0.451,0.123,0.988,0.02,1.462c0.678-0.695,1.456-1.301,1.877-0.702"/>
	<path fill="none" stroke="#231F20" stroke-width="0.5" stroke-miterlimit="10" d="M149.421,271.906
		c-6.738,0.392-10.963,9.551-8.489,15.39"/>
	<path fill="none" stroke="#231F20" stroke-width="0.5" stroke-miterlimit="10" d="M140.666,287.561c-1.116,0-3.527-0.371-3.714,0"
		/>
	<path fill="none" stroke="#231F20" stroke-width="0.5" stroke-miterlimit="10" d="M136.422,286.502
		c0.02,1.333-0.314,2.662-0.225,3.937c1.454,0.028,3.923,0.424,4.735,0.573"/>
	<path fill="none" stroke="#231F20" stroke-width="0.5" stroke-miterlimit="10" d="M140.136,290.479
		c-0.003,3.046-0.936,5.712,1.592,7.962"/>
	<path fill="none" stroke="#231F20" stroke-width="0.5" stroke-miterlimit="10" d="M99.011,279.073
		c-3.341-8.813,5.934-14.771,13.375-16.142c8.611-1.589,17.608-1.042,25.753,1.868c4.37,1.561,8.751,2.71,13.405,2.863"/>
	<path fill="none" stroke="#231F20" stroke-width="0.5" stroke-miterlimit="10" d="M218.14,228.393
		c-5.945-1.093-8.526-10.022-13.442-12.733"/>
	<path fill="none" stroke="#231F20" stroke-width="0.5" stroke-miterlimit="10" d="M215.664,232.996
		c-3.67-4.967-8.503-8.979-12.027-14.153"/>
	<path fill="none" stroke="#231F20" stroke-width="0.5" stroke-miterlimit="10" d="M210.358,234.41
		c0.105,0.369,0.071,0.691,0.3,1.006c-1.576-1.297-3.33-2.682-5.119-3.8c-1.511-0.939-4.07-1.472-5.086-2.867"/>
	<path fill="none" stroke="#231F20" stroke-width="0.5" stroke-miterlimit="10" d="M170.736,214.245
		c-2.411-2.348-9.448-4.018-13.25-4.243c-5.792-0.343-9.079-2.95-14.343-4.603"/>
	<path fill="none" stroke="#231F20" stroke-width="0.5" stroke-miterlimit="10" d="M171.798,210.708
		c-1.346-1.997-4.517-4.756-6.687-5.849c-2.476-1.242-9.837-2.73-10.293-5.824"/>
	<path fill="none" stroke="#231F20" stroke-width="0.5" stroke-miterlimit="10" d="M172.505,206.462
		c-0.921-1.225-2.498-2.205-3.892-2.83"/>
	<path fill="none" stroke="#231F20" stroke-width="0.5" stroke-miterlimit="10" d="M172.505,203.986
		c-1.119,0.231-3.883,1.051-4.752,2.013c-1.76,1.947,0.464,3.259-2.604,4.003c-1.693,0.407-3.996-1.594-4.62,1
		c-0.445,1.844,3.941,6.644,4.549,8.549"/>
	<path fill="none" stroke="#231F20" stroke-width="0.5" stroke-miterlimit="10" d="M142.789,246.437
		c1.524,3.963,4.5,7.129,7.775,9.888c1.609,1.359,3.593,2.372,5.055,3.823c1.383,1.376,1.802,3.697,3.797,4.332"/>
	<path fill="none" stroke="#231F20" stroke-width="0.5" stroke-miterlimit="10" d="M76.726,162.065
		c-1.079-0.861-2.227-3.474-3.396-4.854c-1.396-1.647-2.912-3.277-4.456-4.816c-2.809-2.799-7.354-6.681-7.231-10.984
		c4.059-0.314,7.658-1.521,11.522-2.683c3.51-1.053,7.207-2.473,10.245,0.254c5.391,4.835,10.35,10.939,14.556,16.815
		c2.265,3.162,4.052,6.49,6.8,9.293c3.064,3.122,6.468,5.889,9.577,8.967c5.347,5.285,9.593,11.802,14.295,17.662
		c2.857,3.558,6.269,6.521,9.021,10.166c2.607,3.45,6.213,5.563,7.212,10.021c-3.039,0.18-5.923-0.837-8.979-1.021
		c-1.564-0.095-3.174,0.121-4.711-0.064c-1.422-0.173-2.739-0.974-4.31-0.731"/>
</g>
</svg>
