<?xml version="1.0" encoding="utf-8"?>
<!-- Generator: Adobe Illustrator 16.0.0, SVG Export Plug-In . SVG Version: 6.00 Build 0)  -->
<!DOCTYPE svg PUBLIC "-//W3C//DTD SVG 1.1//EN" "http://www.w3.org/Graphics/SVG/1.1/DTD/svg11.dtd">
<svg version="1.1" id="Calque_1" xmlns="http://www.w3.org/2000/svg" xmlns:xlink="http://www.w3.org/1999/xlink" x="0px" y="0px"
	 width="372.223px" height="341.975px" viewBox="0 0 372.223 341.975" enable-background="new 0 0 372.223 341.975"
	 xml:space="preserve">
<g>
	<path fill="none" stroke="#010202" stroke-width="0.5" stroke-miterlimit="10" d="M195.54,84.969
		c-0.32-11.853-1.75-30.248-18.104-28.881"/>
	<path fill="none" stroke="#010202" stroke-width="0.5" stroke-miterlimit="10" d="M177.436,55.657
		c-0.944,1.749,3.812,16.218-3.449,15.087"/>
	<path fill="none" stroke="#010202" stroke-width="0.5" stroke-miterlimit="10" d="M175.279,56.088
		c0.009,2.469,0.28,13.622-3.446,12.933"/>
	<path fill="none" stroke="#010202" stroke-width="0.5" stroke-miterlimit="10" d="M172.694,56.519
		c1.521,5.112-1.142,9.919-4.223,13.781c-0.122-0.579-0.11-1.115-0.087-1.71"/>
	<path fill="none" stroke="#010202" stroke-width="0.5" stroke-miterlimit="10" d="M169.245,58.674
		c0.015,5.089-0.803,9.676-6.766,10.753c0.216-0.438,0.462-0.861,0.73-1.269"/>
	<path fill="none" stroke="#010202" stroke-width="0.5" stroke-miterlimit="10" d="M168.384,58.674
		c0.342,4.532-5.96,2.753-8.431,3.444c-3.43,0.956-0.88,0.552-1.908,2.976c-0.937,2.212-1.355,1.913-3.378,2.757
		c-3.58,1.49-3.196,2.659-5.355,5.816c-1.678,2.458-4.523,4.551-5.438,6.918c0.25,0.054,0.498,0.11,0.747,0.168
		c-3.266,2.47,0.682,8.716-1.347,11.834c-0.233-2.105-2.462-4.911-3.647-6.436c-1.549-1.987-3.291-3.78-6.162-3.339"/>
	<path fill="none" stroke="#010202" stroke-width="0.5" stroke-miterlimit="10" d="M131.744,81.521
		c0.579-2.964-1.528-5.458-1.82-8.345c-0.367-3.61,0.593-7.491,1.992-10.775c2.659-6.24,6.096-13.376,12.632-16.339
		c3.724-1.689,8.121-1.681,12.131-1.676c0.153-1.478-0.311-2.738-0.292-4.191c1.474,0.348,2.627,1.81,4.098,2.563
		c-1.359-0.47-1.485-1.235-1.52-2.584c1.217,0.737,2.713,1.565,4.179,1.638c0.025-0.751,0.476-1.054,0.583-1.616
		c1.307,0.406,2.149,1.601,2.93,2.531"/>
	<path fill="none" stroke="#010202" stroke-width="0.5" stroke-miterlimit="10" d="M167.952,41.864
		c-0.248-2.956,6.868-2.042,9.001-1.288c3.455,1.22,5.257,3.327,8.242,4.984c4.185-1.811,7.103,4.031,6.972,7.436
		c4.378,1.56,4.679,11.06,4.668,14.938c-0.009,2.925,0.047,5.803-0.427,8.627c-0.429,2.547-1.636,5.174-1.298,7.977"/>
	<path fill="none" stroke="#010202" stroke-width="0.5" stroke-miterlimit="10" d="M141.227,87.125
		c-1.972-1.339-3.299-4.445-6.053-4.396c-4.316,0.076-2.277,4.437-1.437,7.094c0.866,2.731,1.941,5.986,3.818,8.219
		c1.897,2.262,6.639,3.801,5.826-1.004"/>
	<path fill="none" stroke="#010202" stroke-width="0.5" stroke-miterlimit="10" d="M135.622,89.279
		c-0.432-1.824-0.893-3.797-1.229-5.539c5.563,0.937,2.05,7.961,6.403,9.849"/>
	<path fill="none" stroke="#010202" stroke-width="0.5" stroke-miterlimit="10" d="M155.019,79.796
		c1.249-2.102,2.388-0.917,3.857-1.265c1.666-0.391,2.951-1.322,4.678-1.689c1.237,0.921,2.791-0.074,4.398,0.367"/>
	<path fill="none" stroke="#010202" stroke-width="0.5" stroke-miterlimit="10" d="M180.884,78.073
		c3.247-2.968,7.131-2.679,10.776-0.863"/>
	<path fill="none" stroke="#010202" stroke-width="0.5" stroke-miterlimit="10" d="M161.917,80.227c0.825-0.271,6.361-3.152,6.896,0
		"/>
	<path fill="none" stroke="#010202" stroke-width="0.5" stroke-miterlimit="10" d="M164.934,79.366
		c0.048,0.577-0.034,1.104,0.077,1.668c1.29,0.029,1.029-0.637,1.215-1.668"/>
	<path fill="none" stroke="#010202" stroke-width="0.5" stroke-miterlimit="10" d="M182.608,78.934
		c1.651-0.84,7.351-1.731,8.622,1.726"/>
	<path fill="none" stroke="#010202" stroke-width="0.5" stroke-miterlimit="10" d="M183.039,77.643
		c-5.401-2.564-3.055,9.254-2.313,11.282c0.547,1.49,1.929,5.078,1.464,6.694c-0.771,2.681-3.705,3.263-5.521,1.044
		c-1.99,2.074-5.366,1.342-6.461-0.699c-1.151-2.143-0.02-7.72,2.918-4.527"/>
	<path fill="none" stroke="#010202" stroke-width="0.5" stroke-miterlimit="10" d="M195.109,84.537
		c-0.924,12.8-4.546,38.469-23.538,35.195c-4.69-0.808-8.815-3.692-12.671-6.313"/>
	<path fill="none" stroke="#010202" stroke-width="0.5" stroke-miterlimit="10" d="M176.571,119.885
		c-1.374-0.921-2.843,0.465-4.521,0.902c-2.035,0.53-4.108,0.393-6.253,0.391"/>
	<path fill="none" stroke="#010202" stroke-width="0.5" stroke-miterlimit="10" d="M142.087,94.885
		c0.216,4.259,1.925,8.393,2.159,12.712c0.245,4.472-0.011,9.18,0.86,13.581"/>
	<path fill="none" stroke="#010202" stroke-width="0.5" stroke-miterlimit="10" d="M164.503,126.783
		c-0.144,2.08,1.772,3.693,3.449,1.724"/>
	<path fill="none" stroke="#010202" stroke-width="0.5" stroke-miterlimit="10" d="M166.659,104.368
		c1.771,0.202,2.753,1.382,4.365,1.7c1.605,0.319,3.785,0.425,5.319,0.442c4.307,0.05,5.303-2.247,8.852-3.436"/>
	<path fill="none" stroke="#010202" stroke-width="0.5" stroke-miterlimit="10" d="M175.279,109.108
		c0.827-0.462,2.188-0.556,3.449-0.431"/>
	<path fill="none" stroke="#010202" stroke-width="0.5" stroke-miterlimit="10" d="M184.762,117.299
		c-0.132-0.972-0.61,2.515-0.891,3.652c-0.441,1.787-0.64,3.585-1.365,5.387c-1.304,3.249-3.175,6.485-5.173,9.366
		c-3.321,4.789-9.359,7.836-13.775,12.083c-3.274,3.146-6.565,6.727-5.952,11.754"/>
	<path fill="none" stroke="#010202" stroke-width="0.5" stroke-miterlimit="10" d="M164.934,146.178
		c-2.54-3.051-7.903-3.254-11.044-6.103c-2.899-2.627-3.911-5.979-5.228-9.539c-2.61-7.051-8.601-15.833-3.556-23.151"/>
	<path fill="none" stroke="#010202" stroke-width="0.5" stroke-miterlimit="10" d="M144.245,106.089
		c-4.791,2.457-4.313,10.784-4.313,15.327c-0.001,5.759-0.303,11.635,0.065,17.369c2.416,0.119,3.271-3.428,5.286-4.51
		c3.53-1.894,3.665,0.611,5.25,3.635c1.339,2.557,2.8,4.794,5.637,5.935c2.57,1.034,7.227-0.161,7.041,4.059"/>
	<path fill="none" stroke="#010202" stroke-width="0.5" stroke-miterlimit="10" d="M185.195,116.438
		c-1.979,6.659-4.199,13.275-8.161,19.63c-3.507,5.619-10.591,8.412-15.491,13.108c-3.178,3.045-3.876,5.887-3.937,10.365"/>
	<path fill="none" stroke="#010202" stroke-width="0.5" stroke-miterlimit="10" d="M185.195,116.438
		c-0.297-0.252-0.577-0.164-0.442-0.725c-0.337,4.541,2.512,9.935,3.996,14.059c1.727,4.818,2.348,10.683,1.974,15.923
		c-3.792-0.976-2.775-11.782-9.091-7.51c-2.635,1.784-4.873,8.933-9.391,7.303c-0.73,2.181-6.281,2.22-8.169,3.711"/>
	<path fill="none" stroke="#010202" stroke-width="0.5" stroke-miterlimit="10" d="M141.227,109.971
		c-4.116-0.085-7.448,1.709-11.4,2.301c-4.187,0.628-7.808-1.501-11.93-1.569c-4.371-0.069-8.767,1.763-13.074,2.422
		c-4.199,0.642-7.241,1.178-10.099,4.576c-5.425,6.459-7.237,13.841-10.555,21.262c-1.509,3.369-4.37,6.125-5.059,9.838
		c-0.675,3.633,0.241,7.342-0.503,11.045c-1.897,9.437-5.356,18.622-6.781,28.146"/>
	<path fill="none" stroke="#010202" stroke-width="0.5" stroke-miterlimit="10" d="M84.757,184.114
		c-4.392,0.981-10.265,0.943-14.153,3.5c-4.362,2.87-4.007,9.062-3.952,13.742"/>
	<path fill="none" stroke="#010202" stroke-width="0.5" stroke-miterlimit="10" d="M72.687,193.598
		c-5.986,2.535-9.083,18.284-6.018,23.34c3.614,5.964,10.467,12.508,16.492,15.146c4.372,1.914,6.125,6.002,11.52,5.232
		c0.178,0.063,0.272,0.435,0.444,0.529c-0.313-6.439,1.384-13.348,8.55-14.356c5.955-0.839,12.478-0.444,16.461,4.863
		c-1.536-3.983-5.486-7.327-7.895-10.878c-1.645-2.419-4.838-6.923-7.224-7.497"/>
	<path fill="none" stroke="#010202" stroke-width="0.5" stroke-miterlimit="10" d="M107.605,211.701
		c-0.01-5.405-4.359-12.603-8.804-15.59c-3.621-2.429-14.353-5.289-18.355-3.377"/>
	<path fill="none" stroke="#010202" stroke-width="0.5" stroke-miterlimit="10" d="M70.532,194.459
		c1.586-1.095,2.523-2.854,4.279-3.893c2.019-1.191,4.373-1.264,6.499-2.141"/>
	<path fill="none" stroke="#010202" stroke-width="0.5" stroke-miterlimit="10" d="M83.032,150.06
		c3.025,3.06,4.496,5.678,9.484,5.172"/>
	<path fill="none" stroke="#010202" stroke-width="0.5" stroke-miterlimit="10" d="M86.481,144.026
		c3.015,0.65,4.174,4.626,7.758,4.742"/>
	<path fill="none" stroke="#010202" stroke-width="0.5" stroke-miterlimit="10" d="M92.948,137.126
		c1.458,0.878,3.23,1.848,3.878,3.451"/>
	<path fill="none" stroke="#010202" stroke-width="0.5" stroke-miterlimit="10" d="M114.071,128.075
		c0.664,3.528,5.753,23.62-2.965,22.059c0.931,4.933,6.68,19.714-2.06,21.91c1.762,1.022,2.033,3.353,1.465,5.191
		c-0.344,1.11-1.693,1.795-1.946,2.971c-0.342,1.602,0.45,1.249,0.494,2.614c0.101,3.107-0.123,3.129-1.872,5.631
		c-1.303,1.867-2.768,3.566-2.815,6.018c-0.038,1.949,1.098,3.479,1.094,5.604c-0.001,2.538-0.852,2.696,0.236,5.352
		c1.383,3.375,4.534,6.728,5.351,10.156"/>
	<path fill="none" stroke="#010202" stroke-width="0.5" stroke-miterlimit="10" d="M86.481,224.633
		c2.351,1.164,7.044,6.481,7.758,9.052"/>
	<path fill="none" stroke="#010202" stroke-width="0.5" stroke-miterlimit="10" d="M89.067,220.754
		c2.222,2.17,4.526,4.62,6.037,7.326"/>
	<path fill="none" stroke="#010202" stroke-width="0.5" stroke-miterlimit="10" d="M90.362,219.89
		c2.227,2.122,4.622,4.604,6.036,7.33"/>
	<path fill="none" stroke="#010202" stroke-width="0.5" stroke-miterlimit="10" d="M95.533,220.754
		c0.955,0.937,1.826,1.955,2.588,3.018"/>
	<path fill="none" stroke="#010202" stroke-width="0.5" stroke-miterlimit="10" d="M95.965,215.581
		c1.847,2.044,3.072,4.652,5.175,6.466"/>
	<path fill="none" stroke="#010202" stroke-width="0.5" stroke-miterlimit="10" d="M98.982,214.72
		c1.681,2.763,2.908,4.608,5.174,6.895"/>
	<path fill="none" stroke="#010202" stroke-width="0.5" stroke-miterlimit="10" d="M104.588,216.874
		c1.951,1.795,3.672,3.785,5.603,5.605"/>
	<path fill="none" stroke="#010202" stroke-width="0.5" stroke-miterlimit="10" d="M109.759,217.735
		c1.347,1.15,2.2,2.649,3.449,3.879"/>
	<path fill="none" stroke="#010202" stroke-width="0.5" stroke-miterlimit="10" d="M85.62,227.647
		c2.375,3.483,5.014,6.811,7.329,10.349"/>
	<path fill="none" stroke="#010202" stroke-width="0.5" stroke-miterlimit="10" d="M94.672,233.685
		c1.184,3.836,4.401,6.583,4.53,10.692c0.131,4.195-2.113,7.989-2.657,12.029c-0.55,4.064,1.752,7.822,3.58,11.335
		c1.354,2.6,6.886,8.434,6.253,1.87c-0.229-2.384-2.61-4.112-3.378-6.286c-0.861-2.431-0.397-4.796,0.4-7.193
		c5.795,5.303,8.59,13.688,14.205,19.303c0.421-0.082,0.788-0.218,1.206-0.369"/>
	<path fill="none" stroke="#010202" stroke-width="0.5" stroke-miterlimit="10" d="M113.208,253.082
		c4.104,6.308,5.351,14.82,6.475,21.863c-0.016-0.532,0.011-1.069-0.009-1.602"/>
	<path fill="none" stroke="#010202" stroke-width="0.5" stroke-miterlimit="10" d="M112.775,251.788
		c1.53,2.66,5.31,6.463,7.113,9.921c1.496,2.869,2.245,6.745,4.095,9.477"/>
	<path fill="none" stroke="#010202" stroke-width="0.5" stroke-miterlimit="10" d="M115.792,224.633
		c5.28,1.309,5.733,5.22,6.102,9.841c2.99,1.071,5.095,2.078,7.264,4.384"/>
	<path fill="none" stroke="#010202" stroke-width="0.5" stroke-miterlimit="10" d="M140.364,110.401
		c-9.596,15.496-1.626,31.281,9.813,42.708c2.678,2.675,8.677,6.574,9.583,10.314"/>
	<path fill="none" stroke="#010202" stroke-width="0.5" stroke-miterlimit="10" d="M161.484,162.992
		c-0.203-2.057,7.068-7.457,9.025-9.454c3.294-3.365,6.537-6.847,9.079-10.376"/>
	<path fill="none" stroke="#010202" stroke-width="0.5" stroke-miterlimit="10" d="M125.277,114.713
		c0.549-0.424,2.446,7.052,2.586,9.118c0.276,4.117,0.002,8.349,0.002,12.474c-0.002,7.578,1.167,14.947,3.879,21.946"/>
	<path fill="none" stroke="#010202" stroke-width="0.5" stroke-miterlimit="10" d="M205.022,118.162
		c0.009,0.164-0.037-1.255,0.021-0.494c-0.85,2.57-2.208,4.947-3.331,7.388c-2.206,4.79-3.032,9.612-4.45,14.658"/>
	<path fill="none" stroke="#010202" stroke-width="0.5" stroke-miterlimit="10" d="M210.625,129.8
		c-2.896,3.731-5.687,12.583-7.756,17.673"/>
	<path fill="none" stroke="#010202" stroke-width="0.5" stroke-miterlimit="10" d="M190.367,111.696
		c0.598-1.097,7.967,1.864,9.483,3.447"/>
	<path fill="none" stroke="#010202" stroke-width="0.5" stroke-miterlimit="10" d="M198.556,115.143
		c9.757-1.398,15.979-1.178,23.751,5.66c3.498,3.077,6.303,5.592,7.924,10.009c1.589,4.338,4.766,5.776,6.844,9.524
		c1.981,3.575,0.193,8.262,1.551,12.21c1.627,4.743,0.498,8.051,0.865,12.921c0.622,8.185,3.512,17.202,8.105,24.017
		c2.523,3.744,3.623,7.715,5.802,11.598c2.455,4.375,6.533,7.613,2.918,12.773"/>
	<path fill="none" stroke="#010202" stroke-width="0.5" stroke-miterlimit="10" d="M212.351,147.903
		c-2.085,8.491-5.704,17.857-6.373,26.717c-0.665,8.831-2.911,17.155-4.384,25.866c-0.798,4.712-2.173,9.455-4.331,13.802"/>
	<path fill="none" stroke="#010202" stroke-width="0.5" stroke-miterlimit="10" d="M206.315,176.355
		c-0.846,2.129,3.391,4.917,3.884,7.755c0.282,1.609-0.232,3.353,0.001,4.974c0.247,1.713,1.192,2.713,1.726,4.277
		c1.193,3.501-2.55,17.99,4.671,17.11c0.11,1.757,0.629,3.371,2.219,4.248"/>
	<path fill="none" stroke="#010202" stroke-width="0.5" stroke-miterlimit="10" d="M217.522,207.822
		c-0.222,0.243,0.251,0.816-0.094,0.59c-1.071-3.041,3.367-8.283,4.836-10.936"/>
	<path fill="none" stroke="#010202" stroke-width="0.5" stroke-miterlimit="10" d="M220.972,190.147
		c6.458-6.51,24.579-0.905,28.02,6.033"/>
	<path fill="none" stroke="#010202" stroke-width="0.5" stroke-miterlimit="10" d="M227.437,194.459
		c3.774-1.57,11.05-1.543,14.655,0"/>
	<path fill="none" stroke="#010202" stroke-width="0.5" stroke-miterlimit="10" d="M113.637,220.321
		c-0.44,0.092-0.644-0.533-0.817,0.347c6.803,0.587,10.894,1.641,16.338,5.688"/>
	<path fill="none" stroke="#010202" stroke-width="0.5" stroke-miterlimit="10" d="M82.604,231.531
		c0.76,0.325-5.218,9.858-5.948,11.915c-1.685,4.75-1.669,9.074,0.774,13.515"/>
	<path fill="none" stroke="#010202" stroke-width="0.5" stroke-miterlimit="10" d="M124.845,282.396
		c0.013-8.835,1.107-17.543,2.154-26.075c1.113-9.092,1.435-18.283,2.591-27.271c0.473-3.688,0.118-11.064,3.876-13.036"/>
	<path fill="none" stroke="#010202" stroke-width="0.5" stroke-miterlimit="10" d="M126.141,223.34
		c4.144-8.422,16.424-6.746,24.313-7.216c9.498-0.568,19.133-0.925,28.635-0.991c11.075-0.075,22.024,1.309,33.1,1.321
		c13.556,0.017,27.075,0.493,40.638,0.427c5.622-0.025,11.215,0.681,16.828,0.29c4.712-0.328,10.712-0.723,15.116,1.425"/>
	<path fill="none" stroke="#010202" stroke-width="0.5" stroke-miterlimit="10" d="M287.787,216.013
		c4.628,4.473-1.091,19.676-3.17,25.053c-3.35,8.676-6.726,17.167-8.872,26.263c-1.092,4.631-1.456,8.476-3.047,12.909"/>
	<path fill="none" stroke="#010202" stroke-width="0.5" stroke-miterlimit="10" d="M123.121,287.567
		c2.216-2.64,18.547-0.173,22.885,0c8.248,0.331,16.888-0.874,25.359,0c9.529,0.981,19.377,0.454,28.984,0.454
		c10.148,0,20.05,0.543,30.233-0.009c8.875-0.479,20.873,1.665,29.186-1.738"/>
	<path fill="none" stroke="#010202" stroke-width="0.5" stroke-miterlimit="10" d="M136.054,291.015
		c-0.685-0.384-1.862-1.211-2.563-1.637c4.87-0.028,7.15,3.608,11.348,5.317c3.978,1.618,8.156,3.047,12.192,4.558
		c10.861,4.075,23.295,7.897,34.738,9.683c24.141,3.77,48.017,6.811,72.422,3.396c8-1.118,16.107-1.147,24.076-2.276
		c5.154-0.729,9.938-2.959,15.038-3.952"/>
	<path fill="none" stroke="#010202" stroke-width="0.5" stroke-miterlimit="10" d="M269.684,273.344
		c13.965,0.164,28.33,5.056,40.518,12.499"/>
	<path fill="none" stroke="#010202" stroke-width="0.5" stroke-miterlimit="10" d="M187.637,78.647
		c-0.236,0.413-0.17,1.517,0.513,1.571c0.648,0.048,1.113-1.342,0.348-1.571"/>
</g>
</svg>
