<?xml version="1.0" encoding="utf-8"?>
<!-- Generator: Adobe Illustrator 16.0.0, SVG Export Plug-In . SVG Version: 6.00 Build 0)  -->
<!DOCTYPE svg PUBLIC "-//W3C//DTD SVG 1.1//EN" "http://www.w3.org/Graphics/SVG/1.1/DTD/svg11.dtd">
<svg version="1.1" id="Calque_1" xmlns="http://www.w3.org/2000/svg" xmlns:xlink="http://www.w3.org/1999/xlink" x="0px" y="0px"
	 width="843px" height="596px" viewBox="0 0 843 596" enable-background="new 0 0 843 596" xml:space="preserve">
<g>
	<g>
		
			<path fill-rule="evenodd" clip-rule="evenodd" fill="none" stroke="#000000" stroke-width="2" stroke-linecap="round" stroke-linejoin="round" stroke-miterlimit="10" d="
			M142,445c12.333,10,24.671,19.994,36.998,30.003c4.324,3.512,8.618,7.061,12.866,10.543c1.137-0.379,2.147-1.031,3.135-0.998
			c14.582,0.489,29.01-1.584,43.511-2.378c6.496-0.356,12.972-1.07,19.49-1.222c11.683-0.271,23.295-1.816,34.999-2.057
			c5.319-0.108,5.528-0.955,4.508-6.362c-5.777,1.193-11.677,0.6-17.529,1.256c-12.254,1.375-24.653,1.395-36.973,2.254
			c-15.164,1.059-30.296,2.568-45.503,2.961c-3.888,0.101-2.834,3.349-3.5,5.5"/>
		
			<path fill-rule="evenodd" clip-rule="evenodd" fill="none" stroke="#000000" stroke-width="2" stroke-linecap="round" stroke-linejoin="round" stroke-miterlimit="10" d="
			M414,157.5c3.746-1.879,6.219-0.123,7.962,3.021c1.258,2.269,3.002,2.9,5.436,3.767c3.239,1.151,6.9,1.836,9.762,4.544
			c1.491,1.41,4.469,1.693,6.776,2.384c7.88,2.36,14.051,7.45,16.959,15.323c2.344,6.339,4.875,12.53,8.086,18.472
			c3.554,6.575,5.532,13.706,7.022,20.988c1.231,6.021,3.194,11.787,5.357,17.554c1.843,4.913,2.682,10.244,3.598,15.455
			c2.074,11.81,0.95,23.676-0.062,35.483c-0.371,4.335-1.957,8.498-2.042,13.006c-0.076,4.038-4.751,6.257-9.315,4.408
			c-4.596-1.862-10.018-3.021-11.123-9.391c-0.396-2.279-2.488-3.676-4.393-5.047c-4.75-3.419-8.295-7.432-8.193-13.971
			c0.038-2.412-1.074-4.764-4.766-5.739c-5.826-1.538-11.784-1.403-17.572-2.726c-8.247-1.884-16.708,0.185-24.986-1.072
			c-6.364-0.966-12.667-2.326-19.008-3.446c-3.242-0.572-6.532-0.992-9.484-2.54c-2.005-1.05-3.742-2.458-4.036-4.982
			c4.514-9.2,14.067-9.35,22.098-11.734c2.85-0.846,5.472-1.685,7.924-3.257"/>
		
			<path fill-rule="evenodd" clip-rule="evenodd" fill="none" stroke="#000000" stroke-width="2" stroke-linecap="round" stroke-linejoin="round" stroke-miterlimit="10" d="
			M502,489c-0.065,3.776-1.793,7.208-2.176,10.982c-0.27,2.656-2.147,4.296-5.829,4.159c-21.156-0.79-42.342-0.831-63.491-1.747
			c-15-0.649-29.999-1.039-44.999-1.537c-11.335-0.376-22.66-0.918-34.005-0.857"/>
		
			<path fill-rule="evenodd" clip-rule="evenodd" fill="none" stroke="#000000" stroke-width="2" stroke-linecap="round" stroke-linejoin="round" stroke-miterlimit="10" d="
			M179.5,262c-2.598-0.665-2.977-3.287-3.367-5.03c-3.435-15.324-8.227-30.281-12-45.503c-0.799-3.226-2.299-4.411-5.131-4.982
			c-5.159-1.04-9.998-3.73-15.958-3.456c4.413,17.191,8.753,33.814,12.872,50.492c0.552,2.235,1.406,2.899,3.542,3.604
			c5.455,1.796,10.802,4.007,16.005,6.451c3.147,1.479,5.618-0.787,8.54-0.701c10.824,0.316,21.664,0.045,32.496,0.162
			c5.079,0.055,10.056-0.481,15-1.536"/>
		
			<path fill-rule="evenodd" clip-rule="evenodd" fill="none" stroke="#000000" stroke-width="2" stroke-linecap="round" stroke-linejoin="round" stroke-miterlimit="10" d="
			M353,140.5c-0.333,5-0.674,10-0.993,15c-0.053,0.83-0.344,2.16,0.044,2.425c4.683,3.194,2.199,6.87,1.018,10.598
			c-0.432,1.363-0.069,2.978-0.069,4.695c7.4,1.977,10.43,8.47,13.935,14.321c3.127,5.222,3.006,5.081,8.599,3.054
			c7.483-2.713,15.221-4.033,23.566-0.391c5.188-7.479,10.452-15.024,12.943-24.19c0.926-3.405,2.7-6.492,0.115-10.124
			c-0.783-1.1-0.024-3.541,0.233-5.402c1.42-10.235,1.083-20.164-6.379-28.496c-8.855-9.89-22.445-13.143-37.015-4.993
			c-8.555,4.785-14.115,12.349-18.958,20.527c-1.463,2.472-0.842,4.688,1.96,5.977"/>
		
			<path fill-rule="evenodd" clip-rule="evenodd" fill="none" stroke="#000000" stroke-width="2" stroke-linecap="round" stroke-linejoin="round" stroke-miterlimit="10" d="
			M318,261.5c-4.87,2.671-10.333,1.726-15.51,2.422c-9.135,1.229-18.406,1.283-27.494,3.059c-3.896,0.762-7.727-0.414-11.479-1.076
			c-9.717-1.715-19.346-3.928-29.029-5.847c-0.578-0.114-1.322,0.609-1.988,0.942"/>
		
			<path fill-rule="evenodd" clip-rule="evenodd" fill="none" stroke="#000000" stroke-width="2" stroke-linecap="round" stroke-linejoin="round" stroke-miterlimit="10" d="
			M354,491c-0.495,2.909,1.731,1.84,3.002,1.98c12.136,1.346,24.323,0.995,36.498,1.017c8.5,0.015,17.085-0.758,25.48,0.179
			c13,1.451,26.041,0.38,39.033,1.682c7.756,0.777,15.653,0.18,23.486,0.13c5.858-0.037,11.721,0.918,17.492,0.75
			c4.176-0.122,4.196,1.382,4.02,4.264c-0.071,1.162-0.012,2.332-0.012,3.499"/>
		
			<path fill-rule="evenodd" clip-rule="evenodd" fill="none" stroke="#000000" stroke-width="2" stroke-linecap="round" stroke-linejoin="round" stroke-miterlimit="10" d="
			M291.5,390.5c-6.26,0.981-11.753,4.304-17.955,5.7c-5.198,1.171-10.555,2.266-15.711,3.704c-4.036,1.125-9.897-0.278-14.786-1.168
			c-2.378-0.433-4.711-0.473-7.051-0.701c-3.828-0.375-7.655,0.22-11.544-0.863c-2.343-0.653-5.074-0.697-7.579,1.695
			c-3.416,3.265-8.496,4.203-12.907,4.928c-12.666,2.08-16.472,11.511-20.027,21.684c-1.548,4.428-0.793,9.18-2.451,13.517
			c-1.208,3.159,1.624,4.199,3.012,6.005"/>
		
			<path fill-rule="evenodd" clip-rule="evenodd" fill="none" stroke="#000000" stroke-width="2" stroke-linecap="round" stroke-linejoin="round" stroke-miterlimit="10" d="
			M326.5,176c-0.167-1.5-0.334-3-0.5-4.5c-0.505-4.588-0.604-9.317-4.006-12.995c-5.623-6.078-5.859-14.162-7.925-21.524
			c-1.996-7.112-5.066-13.421-10.541-18.512c-2.207-2.052-4.666-2.75-7.527-2.456c-0.842,0.086-1.756,0.641-2.488,0.439
			c-11.828-3.24-18.118,3.743-23.532,12.536c-2.614,4.246-4.507,8.777-6.103,13.908c1.65,1.877,5.689,2.219,5.122,6.104"/>
		
			<path fill-rule="evenodd" clip-rule="evenodd" fill="none" stroke="#000000" stroke-width="2" stroke-linecap="round" stroke-linejoin="round" stroke-miterlimit="10" d="
			M295.5,417c-6.915-0.441-13.461-2.971-20.477-3.388c-2.52-0.149-5.193-0.227-6.386,1.02c-6.53,6.816-15.317,9.788-23.174,14.304
			c-2.448,1.406-4.842,2.851-6.415,5.099c-5.898,8.428-14.5,12.179-24.043,14.485c-2.199,0.532-4.337,1.316-6.511,1.959
			c-0.032,0.009-0.189-0.305-0.235-0.48c-0.041-0.156-0.009-0.331-0.009-0.498"/>
		
			<path fill-rule="evenodd" clip-rule="evenodd" fill="none" stroke="#000000" stroke-width="2" stroke-linecap="round" stroke-linejoin="round" stroke-miterlimit="10" d="
			M522.5,290.5c-2.145,4.49-1.756,9.316-1.398,13.992c0.335,4.377,2.931,7.532,6.258,10.658c5.634,5.292,12.605,4.642,19.159,5.738
			c4.61,0.771,13.861-7.313,15.468-12.893c3.281-11.394-1.954-22.124-13.027-27.918c-5.617-2.938-18.019,1.426-22.971,7.412
			c-0.748,0.904-1.655,1.677-2.488,2.51"/>
		
			<path fill-rule="evenodd" clip-rule="evenodd" fill="none" stroke="#000000" stroke-width="2" stroke-linecap="round" stroke-linejoin="round" stroke-miterlimit="10" d="
			M333,396.5c2.833,12.167,5.672,24.332,8.496,36.501c0.694,2.993,1.337,5.999,2.107,9.466c3.514,0.41,7.415-1.84,10.896,0.533"/>
		
			<path fill-rule="evenodd" clip-rule="evenodd" fill="none" stroke="#000000" stroke-width="2" stroke-linecap="round" stroke-linejoin="round" stroke-miterlimit="10" d="
			M460,220c-5.5,5.667-10.883,11.455-16.566,16.931c-1.857,1.79-2.225,4.598-3.613,5.874c-5.001,4.599-6.741,11.137-10.795,16.215
			c-3.521,4.412-4.787,10.38-9.525,13.98"/>
		
			<path fill-rule="evenodd" clip-rule="evenodd" fill="none" stroke="#000000" stroke-width="2" stroke-linecap="round" stroke-linejoin="round" stroke-miterlimit="10" d="
			M261,219c-2.701,3.637,0.053,7.028,0.534,10.495c1.017,7.331,4.185,14.369,3.25,22.656c-6.347-0.9-12.197,1.369-18.285,0.856
			c-1.396-0.117-2.916,0.324-4-1.008"/>
		
			<path fill-rule="evenodd" clip-rule="evenodd" fill="none" stroke="#000000" stroke-width="2" stroke-linecap="round" stroke-linejoin="round" stroke-miterlimit="10" d="
			M369.5,361.5c4,15,7.923,30.021,12.13,44.964c0.381,1.352-0.487,2.959,0.87,4.036"/>
		
			<path fill-rule="evenodd" clip-rule="evenodd" fill="none" stroke="#000000" stroke-width="2" stroke-linecap="round" stroke-linejoin="round" stroke-miterlimit="10" d="
			M294,174.5c-0.037-3.089,1.441-5.723,2.308-8.559c1.811-5.927,3.64-12.078,2.608-18.428c-0.335-2.064-1.624-3.866-4.421-3.556
			c-1.976,0.219-3.995,0.056-5.995,0.039c-3.32-0.029-6.951,0.854-9.1-4.489c-1.567,6.992-7.083,2.867-9.9,5.492"/>
		
			<path fill-rule="evenodd" clip-rule="evenodd" fill="none" stroke="#000000" stroke-width="2" stroke-linecap="round" stroke-linejoin="round" stroke-miterlimit="10" d="
			M456.5,210.5c-1.166-5.667-2.18-11.371-3.547-16.988c-1.158-4.752-4.025-8.631-7.479-11.986
			c-4.109-3.992-10.538-3.485-14.975,0.975"/>
		
			<path fill-rule="evenodd" clip-rule="evenodd" fill="none" stroke="#000000" stroke-width="2" stroke-linecap="round" stroke-linejoin="round" stroke-miterlimit="10" d="
			M276.5,427.5c-6.719-0.055-13.348,1.289-19.425,3.69c-7.459,2.947-11.422,10.154-16.056,16.324
			c-0.801,1.065-1.063,2.833-2.068,3.397c-4.721,2.654-2.699,7.967-4.811,11.668c-0.973,1.705,2.065,4.326,3.818,3.346
			c2.943-1.646,5.585-3.601,8.972-4.649c2.189-0.678,1.629-4.343,3.889-6.469c7.988-7.517,16.979-13.05,27.181-16.808"/>
		
			<path fill-rule="evenodd" clip-rule="evenodd" fill="none" stroke="#000000" stroke-width="2" stroke-linecap="round" stroke-linejoin="round" stroke-miterlimit="10" d="
			M295.5,227c2.569-3.13,5.467-0.924,6.864,0.623c5.081,5.629,12.155,6.587,18.656,8.818c6.928,2.377,14.295,2.016,21.435,2.915
			c11.477,1.446,20.024-4.735,29.483-8.512c5.698-2.275,11.828-4.327,16.062-9.345"/>
		
			<path fill-rule="evenodd" clip-rule="evenodd" fill="none" stroke="#000000" stroke-width="2" stroke-linecap="round" stroke-linejoin="round" stroke-miterlimit="10" d="
			M332.5,435.5c-0.524,5.386,1.765,10.317,2.593,15.485c1.317,8.223,3.213,16.354,4.952,24.505c0.158,0.74,0.955,1.343,1.455,2.01"
			/>
		
			<path fill-rule="evenodd" clip-rule="evenodd" fill="none" stroke="#000000" stroke-width="2" stroke-linecap="round" stroke-linejoin="round" stroke-miterlimit="10" d="
			M238.5,415.5c-0.333,0-0.866-0.135-0.971,0.02c-2.484,3.676-6.578,2.593-9.958,3.697c-4.633,1.514-8.777,4.537-12.567,7.788
			c-1.523,1.306-2.857,2.894-4.529,3.955c-7.421,4.71-6.88,5.772-4.475,14.04"/>
		
			<path fill-rule="evenodd" clip-rule="evenodd" fill="none" stroke="#000000" stroke-width="2" stroke-linecap="round" stroke-linejoin="round" stroke-miterlimit="10" d="
			M569.5,183.5c1.419,2.884,0.05,5.527-1.585,7.428c-6.46,7.51-12.912,15.091-20.059,21.922c-3.509,3.354-8.354,4.831-13.873,4.336
			c-6.121-0.548-8.952-4.485-12.351-9.033C527.378,197.805,535.66,189.249,543,180"/>
		
			<path fill-rule="evenodd" clip-rule="evenodd" fill="none" stroke="#000000" stroke-width="2" stroke-linecap="round" stroke-linejoin="round" stroke-miterlimit="10" d="
			M381.5,190c-7.195,6.834-14.183,13.94-23.501,17.997c-4.478,1.949-8.991,2.713-14.016,2.163
			c-5.087-0.558-10.337,0.535-15.477,0.238c-5.174-0.299-10.522-0.248-15.48,0.04c-9.269,0.538-17.713-2.482-26.481-3.746
			c-5.406-0.779-10.32-1.027-15.574,0.18c-1.985,0.456-4.653,0.036-6.383-1.016c-2.213-1.346-4.073-0.357-5.617-0.875
			c-1.713,1.887-0.476,2.958,0.077,3.993c0.426,0.795,1.977,1.742,1.851,1.969c-2.852,5.134,1.441,7.034,3.976,10.158
			c3.809,4.693,8.556,7.41,14.145,8.823c2.755,0.696,5.176-0.561,7.569-2.304c1.849-1.347,4.343-3.751,6.912-0.621"/>
		
			<path fill-rule="evenodd" clip-rule="evenodd" fill="none" stroke="#000000" stroke-width="2" stroke-linecap="round" stroke-linejoin="round" stroke-miterlimit="10" d="
			M298,191.5c0.799,1.19,1.597,2.38,2.306,3.437c4.771-1.102,9.463-2.591,11.07-7.478c1.557-4.733,5.686-7.791,6.968-12.479
			c23.1,2.937,27.128,15.405,28.656,35.02"/>
		
			<path fill-rule="evenodd" clip-rule="evenodd" fill="none" stroke="#000000" stroke-width="2" stroke-linecap="round" stroke-linejoin="round" stroke-miterlimit="10" d="
			M399.5,454c-0.246-8.963,2.555-11.965,11.5-11.959c3.329,0.002,6.67-0.442,10.018,0.391c1.73,0.43,3.483-0.022,5.012-1.399
			c4.987-4.496,10.382-5.032,17.027-3.24c9.782,2.639,19.986,3.672,29.925,5.794c4.888,1.044,9.596,3,14.004,5.441
			c4.4,2.437,8.821,3.512,14.026,3.141c7.119-0.507,14.321,0.165,21.488,0.332"/>
		
			<path fill-rule="evenodd" clip-rule="evenodd" fill="none" stroke="#000000" stroke-width="2" stroke-linecap="round" stroke-linejoin="round" stroke-miterlimit="10" d="
			M297.5,453c-2.136,0.483-4.033-0.548-5.993-1.029c-8.359-2.055-15.976-0.038-22.412,5.147c-4.931,3.974-10.733,5.938-16.13,8.816
			c-1.591,0.849-3.683,1.324-4.965-0.935"/>
		
			<path fill-rule="evenodd" clip-rule="evenodd" fill="none" stroke="#000000" stroke-width="2" stroke-linecap="round" stroke-linejoin="round" stroke-miterlimit="10" d="
			M576,116c-5.296,4.202-12.28,2.188-18.066,4.856c-1.46,0.673-3.307,1.072-4.919,1.683c-8.319,3.151-13.192,1.702-18.015-5.539"/>
		
			<path fill-rule="evenodd" clip-rule="evenodd" fill="none" stroke="#000000" stroke-width="2" stroke-linecap="round" stroke-linejoin="round" stroke-miterlimit="10" d="
			M513.5,442.5c-10.322-0.866-20.666-0.393-31-0.483c-1.712-0.016-3.559-0.477-5,0.983"/>
		
			<path fill-rule="evenodd" clip-rule="evenodd" fill="none" stroke="#000000" stroke-width="2" stroke-linecap="round" stroke-linejoin="round" stroke-miterlimit="10" d="
			M415,414c10,0,20,0.057,30-0.036c2.844-0.025,5.986,2.092,8.5-0.964"/>
		
			<path fill-rule="evenodd" clip-rule="evenodd" fill="none" stroke="#000000" stroke-width="2" stroke-linecap="round" stroke-linejoin="round" stroke-miterlimit="10" d="
			M262.5,187.5c-1.154-2.898-3.522-3.027-4.898-0.933c-5.689,8.656-9.608,18.21-13.07,27.944c-0.086,0.243,0.302,0.655,0.468,0.988"
			/>
		
			<path fill-rule="evenodd" clip-rule="evenodd" fill="none" stroke="#000000" stroke-width="2" stroke-linecap="round" stroke-linejoin="round" stroke-miterlimit="10" d="
			M454.5,464.5c-6.22-1.784-12.703-2.324-19.036-3.255c-7.538-1.107-15.048,1.577-22.454,3.298c-1.981,0.46-3.811,1.103-5.51-0.543"
			/>
		
			<path fill-rule="evenodd" clip-rule="evenodd" fill="none" stroke="#000000" stroke-width="2" stroke-linecap="round" stroke-linejoin="round" stroke-miterlimit="10" d="
			M386.5,189c-1.68,12.821,0.36,25.247,4.002,37.499c2.157,7.253,4.452,14.397,9.935,20.062c1.422,1.47,2.069,3.688,1.563,5.939"/>
		
			<path fill-rule="evenodd" clip-rule="evenodd" fill="none" stroke="#000000" stroke-width="2" stroke-linecap="round" stroke-linejoin="round" stroke-miterlimit="10" d="
			M289,237c10,3.833,19.989,7.694,30.01,11.474c1.769,0.667,3.521,1.302,5.47,1.643c6.21,1.086,8.864,5.147,7.982,11.665
			c-3.628,1.051-7.584-0.132-10.901-0.661c-6.681-1.067-13.745-1.056-20.064-4.112c-0.471-0.228-1.044-0.567-1.489-0.475
			c-7.958,1.674-14.997-2.437-22.515-3.475c-1.695-0.234-3.189,0.759-3.992,2.441"/>
		
			<path fill-rule="evenodd" clip-rule="evenodd" fill="none" stroke="#000000" stroke-width="2" stroke-linecap="round" stroke-linejoin="round" stroke-miterlimit="10" d="
			M381,384c9.833,8.667,19.603,17.407,29.564,25.925c1.613,1.38,3.83,3.063,3.712,4.558c-0.276,3.494-0.288,7.1-1.041,10.458
			c-0.289,1.29-3.617,1.625-5.71,2.159c-6.072,1.552-12.025,3.567-18.025,5.4"/>
		
			<path fill-rule="evenodd" clip-rule="evenodd" fill="none" stroke="#000000" stroke-width="2" stroke-linecap="round" stroke-linejoin="round" stroke-miterlimit="10" d="
			M164,387c4.333,14.167,8.656,28.337,13.013,42.496c0.573,1.862,1.321,3.671,1.987,5.504"/>
		
			<path fill-rule="evenodd" clip-rule="evenodd" fill="none" stroke="#000000" stroke-width="2" stroke-linecap="round" stroke-linejoin="round" stroke-miterlimit="10" d="
			M268,150.5c-2.622,2.667-0.614,5.711,0.185,7.934c3.201,8.903-0.265,15.492-6.176,21.575c-0.25,0.258-0.369,0.644-0.566,1
			c-0.059,1.522,2.308,2.778-0.159,5.192c3.645-0.63,7.602,2.014,8.216-3.701"/>
		
			<path fill-rule="evenodd" clip-rule="evenodd" fill="none" stroke="#000000" stroke-width="2" stroke-linecap="round" stroke-linejoin="round" stroke-miterlimit="10" d="
			M569.5,428.5c-8.167,4.5-16.496,8.736-24.425,13.622c-3.459,2.132-4.612,6.636-7.075,9.878"/>
		
			<path fill-rule="evenodd" clip-rule="evenodd" fill="none" stroke="#000000" stroke-width="2" stroke-linecap="round" stroke-linejoin="round" stroke-miterlimit="10" d="
			M186.5,446.75c6.009,4.203,12.345,7.271,20.592,5.824c4.652,4.066,5.444,12.773,12.939,14.268
			c6.407,1.278,11.724,5.771,18.469,5.658"/>
		
			<path fill-rule="evenodd" clip-rule="evenodd" fill="none" stroke="#000000" stroke-width="2" stroke-linecap="round" stroke-linejoin="round" stroke-miterlimit="10" d="
			M186,453c-1.528,3.362-0.102,6.289,0.862,9.541c1.934,6.525,3.384,13.191,6.138,19.459"/>
		
			<path fill-rule="evenodd" clip-rule="evenodd" fill="none" stroke="#000000" stroke-width="2" stroke-linecap="round" stroke-linejoin="round" stroke-miterlimit="10" d="
			M391.5,446c-0.333,0.167-0.837,0.567-0.976,0.467c-6.99-5.088-13.704-0.392-20.527,0.512c-3.332,0.441-3.684,3.694-5.434,5.58
			c-6.823,7.355-13.292,15.039-20.118,22.391c-2.547,2.743-4.505,5.086-2.523,9.089c1.203,2.43,0.562,5.508,2.078,7.962"/>
		
			<path fill-rule="evenodd" clip-rule="evenodd" fill="none" stroke="#000000" stroke-width="2" stroke-linecap="round" stroke-linejoin="round" stroke-miterlimit="10" d="
			M270,150.5c1.727,6.396,2.96,12.896,6.93,18.549c4.261,6.068,6.516,7.276,12.07,4.951"/>
		
			<path fill-rule="evenodd" clip-rule="evenodd" fill="none" stroke="#000000" stroke-width="2" stroke-linecap="round" stroke-linejoin="round" stroke-miterlimit="10" d="
			M412.5,412.5c-9,2-18,4-27,6"/>
		
			<path fill-rule="evenodd" clip-rule="evenodd" fill="none" stroke="#000000" stroke-width="2" stroke-linecap="round" stroke-linejoin="round" stroke-miterlimit="10" d="
			M366,449c-8.614-1.372-12.767,5.546-17.797,10.219c-1.657,1.539,0.408,5.295,1.797,7.781"/>
		
			<path fill-rule="evenodd" clip-rule="evenodd" fill="none" stroke="#000000" stroke-width="2" stroke-linecap="round" stroke-linejoin="round" stroke-miterlimit="10" d="
			M443,476c-8.074-2.582-16.258-3.512-24.488-0.961c-5.933,1.838-12.726,1.832-16.775,8.008c-4.086-4.339-8.246-1.676-12.226-0.982
			c-3,0.522-5.949,1.159-9.011,0.936"/>
		
			<path fill-rule="evenodd" clip-rule="evenodd" fill="none" stroke="#000000" stroke-width="2" stroke-linecap="round" stroke-linejoin="round" stroke-miterlimit="10" d="
			M539,123c-2.008,2.961-4.699,1.748-7.506,1.629c-5.981-0.254-11.994,0.218-17.994,0.363c-1.999,0.049-4,0.008-6,0.008"/>
		
			<path fill-rule="evenodd" clip-rule="evenodd" fill="none" stroke="#000000" stroke-width="2" stroke-linecap="round" stroke-linejoin="round" stroke-miterlimit="10" d="
			M535.5,191.5c5.079,3.334,5.228,4.81,3.089,10.036c-2.425,5.926-6.557,9.417-12.589,10.964"/>
		
			<path fill-rule="evenodd" clip-rule="evenodd" fill="none" stroke="#000000" stroke-width="2" stroke-linecap="round" stroke-linejoin="round" stroke-miterlimit="10" d="
			M240.5,216.5c0.333,0.5,1.072,1.252,0.941,1.464c-4.421,7.11-6.539,16.141-16.407,18.669c-2.684,0.688-4.954,2.992-7.708,4.741
			c-2.245-2.438-5.008-5.96-7.731-5.079c-4.666,1.509-10.283,0.047-14.119,4.114c0.868,3.376-0.021,7.09,3.449,9.69
			c2.396,1.796,5.131,3.247,7.499,2.226c4.34-1.873,7.795-0.44,11.014,1.765c2.883,1.977,6.057,3.252,9.062,4.91"/>
		
			<path fill-rule="evenodd" clip-rule="evenodd" fill="none" stroke="#000000" stroke-width="2" stroke-linecap="round" stroke-linejoin="round" stroke-miterlimit="10" d="
			M458.5,449.5c-8.881,2.344-17.688,1.673-26.512-0.451c-2.576-0.62-4.297,1.244-6.006,2.933c-4.1,4.047-9.018,6.81-14.496,8.476
			c-2.59,0.787-5.32,1.045-7.987,0.043"/>
		
			<path fill-rule="evenodd" clip-rule="evenodd" fill="none" stroke="#000000" stroke-width="2" stroke-linecap="round" stroke-linejoin="round" stroke-miterlimit="10" d="
			M271.5,228c-2.098,7.054-0.461,14.025,0.536,20.995c0.267,1.865,2.756,2.478,2.964,4.505"/>
		
			<path fill-rule="evenodd" clip-rule="evenodd" fill="none" stroke="#000000" stroke-width="2" stroke-linecap="round" stroke-linejoin="round" stroke-miterlimit="10" d="
			M346.5,240.5c-0.833,3.667-1.663,7.334-2.501,11c-0.751,3.282-0.937,6.635,1.098,9.43c0.912,1.254,0.798,2.339,0.903,3.57"/>
		
			<path fill-rule="evenodd" clip-rule="evenodd" fill="none" stroke="#000000" stroke-width="2" stroke-linecap="round" stroke-linejoin="round" stroke-miterlimit="10" d="
			M561.5,399c-2.572-0.355-4.142,0.705-5.568,2.957c-3.861,6.098-15.979,10.72-22.918,8.988c-0.274-0.068-0.347-0.945-0.514-1.445"
			/>
		
			<path fill-rule="evenodd" clip-rule="evenodd" fill="none" stroke="#000000" stroke-width="2" stroke-linecap="round" stroke-linejoin="round" stroke-miterlimit="10" d="
			M515.5,402.5c-7.582-0.587-13.722-5.469-20.975-7.112c-1.037-0.234-2.038-0.143-3.025-0.388"/>
		
			<path fill-rule="evenodd" clip-rule="evenodd" fill="none" stroke="#000000" stroke-width="2" stroke-linecap="round" stroke-linejoin="round" stroke-miterlimit="10" d="
			M487,394c-7.466,3.394-14.994,6.494-23.5,5"/>
		
			<path fill-rule="evenodd" clip-rule="evenodd" fill="none" stroke="#000000" stroke-width="2" stroke-linecap="round" stroke-linejoin="round" stroke-miterlimit="10" d="
			M421.5,443c-5.556,4.941-12.007,8.496-18.469,12.057c-0.733,0.404-1.559,0.673-1.999,0.393c-4.858-3.1-8.104,0.107-10.968,3.111
			c-4.702,4.932-10.483,8.295-16.096,11.889c-5.146,3.295-6.603,6.182-4.968,11.551"/>
		
			<path fill-rule="evenodd" clip-rule="evenodd" fill="none" stroke="#000000" stroke-width="2" stroke-linecap="round" stroke-linejoin="round" stroke-miterlimit="10" d="
			M513,464c7.499,0,11.117,2.96,11,9c-0.073,3.767-3.734,7.951-7,8c-5.626,0.084-9.529-3.324-10.09-7.989
			c-0.53-4.421,1.852-6.602,5.09-8.511"/>
		
			<path fill-rule="evenodd" clip-rule="evenodd" fill="none" stroke="#000000" stroke-width="2" stroke-linecap="round" stroke-linejoin="round" stroke-miterlimit="10" d="
			M298,166.5c2.733,6.495,0.134,12.756-1.199,18.957c-0.348,1.617-0.85,2.71,0.199,4.043"/>
		
			<path fill-rule="evenodd" clip-rule="evenodd" fill="none" stroke="#000000" stroke-width="2" stroke-linecap="round" stroke-linejoin="round" stroke-miterlimit="10" d="
			M542,258c-4.764,5.873-6.983,12.896-8.95,20.014c-0.202,0.731,0.283,1.653,0.45,2.486"/>
		
			<path fill-rule="evenodd" clip-rule="evenodd" fill="none" stroke="#000000" stroke-width="2" stroke-linecap="round" stroke-linejoin="round" stroke-miterlimit="10" d="
			M518.5,481.5c0.596,4.122,1.18,7.05,6.941,7.897c5.633,0.828,11.513,3.199,16.559,6.603"/>
		
			<path fill-rule="evenodd" clip-rule="evenodd" fill="none" stroke="#000000" stroke-width="2" stroke-linecap="round" stroke-linejoin="round" stroke-miterlimit="10" d="
			M259.5,232.5c-1.167,2.333-2.203,4.743-3.523,6.986c-5.143,8.736-12.666,13.508-22.977,13.52c-4.387,0.005-8.833-0.441-13,1.494"
			/>
		
			<path fill-rule="evenodd" clip-rule="evenodd" fill="none" stroke="#000000" stroke-width="2" stroke-linecap="round" stroke-linejoin="round" stroke-miterlimit="10" d="
			M198.5,252c-1.609,2.063-3.938,1.692-5.993,1.442c-5.354-0.651-10.673-0.766-16.007,0.058"/>
		
			<path fill-rule="evenodd" clip-rule="evenodd" fill="none" stroke="#000000" stroke-width="2" stroke-linecap="round" stroke-linejoin="round" stroke-miterlimit="10" d="
			M219,408c-3.679,1.852-6.656,4.565-9.531,7.47c-2.011,2.03-3.675,5.049-7.48,3.558c-1.257-0.492-1.768,0.822-2.479,1.484
			c-3.324,3.095-4.599,7.601-7.489,11.006c-0.165,0.194-0.115,0.684-0.008,0.978c2.118,5.78-2.981,10.151-3.014,15.505"/>
		
			<path fill-rule="evenodd" clip-rule="evenodd" fill="none" stroke="#000000" stroke-width="2" stroke-linecap="round" stroke-linejoin="round" stroke-miterlimit="10" d="
			M285,176c1.183,4.775,0.575,9.452-1.029,13.989c-1.724,4.876-2.094,9.935-2.471,15.011"/>
		
			<path fill-rule="evenodd" clip-rule="evenodd" fill="none" stroke="#000000" stroke-width="2" stroke-linecap="round" stroke-linejoin="round" stroke-miterlimit="10" d="
			M411.5,225.5c-2.542,1.646-2.539,4.589-3.457,7.017c-1.758,4.645-5.552,8.012-7.543,12.483"/>
		
			<path fill-rule="evenodd" clip-rule="evenodd" fill="none" stroke="#000000" stroke-width="2" stroke-linecap="round" stroke-linejoin="round" stroke-miterlimit="10" d="
			M493,411c-2.675-4.284-6.886-5.131-10.935-3.352c-5.06,2.224-10.462,1.887-15.577,3.31c-2.191,0.609-4.049,1.97-6.484,2.112
			c-6.141,0.358-7.28-0.265-9.011-6.093c1.275-2.397,3.78-2.894,6.022-3.406c3.928-0.899,6.343-2.857,6.484-7.071"/>
		
			<path fill-rule="evenodd" clip-rule="evenodd" fill="none" stroke="#000000" stroke-width="2" stroke-linecap="round" stroke-linejoin="round" stroke-miterlimit="10" d="
			M582.5,98.5c-1.167-0.167-2.585-0.848-3.461-0.419c-7.662,3.745-16.124,5.008-24.016,7.981c-1.99,0.75-3.937,2.014-5.477,3.487
			c-4.208,4.027-8.942,4.07-14.047,2.45"/>
		
			<path fill-rule="evenodd" clip-rule="evenodd" fill="none" stroke="#000000" stroke-width="2" stroke-linecap="round" stroke-linejoin="round" stroke-miterlimit="10" d="
			M245.5,419.5c-7.212,3.474-11.723,10.454-18.874,14.238c-3.595,1.901-2.437,6.917-2.126,10.762"/>
		
			<path fill-rule="evenodd" clip-rule="evenodd" fill="none" stroke="#000000" stroke-width="2" stroke-linecap="round" stroke-linejoin="round" stroke-miterlimit="10" d="
			M471.5,438c1.834,2.192,3.871,0.725,5.443-0.108c1.592-0.844,3.008-2.375,4.007-3.924c4.1-6.352,10.925-6.873,17.029-6.566
			c3.306,0.167,7.765,2.04,10.462,5.149c2.256,2.598,5.163,3.949,8.059,5.449"/>
		
			<path fill-rule="evenodd" clip-rule="evenodd" fill="none" stroke="#000000" stroke-width="2" stroke-linecap="round" stroke-linejoin="round" stroke-miterlimit="10" d="
			M444.5,476.5c-3.038,3.496-7.633,3.726-11.555,4.802c-5.948,1.633-12.037,2.826-17.959,4.653
			c-0.562,0.173-1.319-0.288-1.986-0.455"/>
		
			<path fill-rule="evenodd" clip-rule="evenodd" fill="none" stroke="#000000" stroke-width="2" stroke-linecap="round" stroke-linejoin="round" stroke-miterlimit="10" d="
			M307.5,211c1.126,5.64,2.238,11.285-2.521,15.979c-0.337,0.332-0.979,0.354-1.479,0.521"/>
		
			<path fill-rule="evenodd" clip-rule="evenodd" fill="none" stroke="#000000" stroke-width="2" stroke-linecap="round" stroke-linejoin="round" stroke-miterlimit="10" d="
			M230,236c7.187,3.137,7.525,9.483,7.5,16"/>
		
			<path fill-rule="evenodd" clip-rule="evenodd" fill="none" stroke="#000000" stroke-width="2" stroke-linecap="round" stroke-linejoin="round" stroke-miterlimit="10" d="
			M294.5,227.5c-4.594,6.406-8.796,13.1-16.45,16.608c-2.509,1.151-3.017,4.387-4.05,6.892"/>
		
			<path fill-rule="evenodd" clip-rule="evenodd" fill="none" stroke="#000000" stroke-width="2" stroke-linecap="round" stroke-linejoin="round" stroke-miterlimit="10" d="
			M277,146.5c-0.105,3.521,0.65,7.125-1.689,10.664c2.617,0.705,4.594,2.122,6.189-0.664"/>
		
			<path fill-rule="evenodd" clip-rule="evenodd" fill="none" stroke="#000000" stroke-width="2" stroke-linecap="round" stroke-linejoin="round" stroke-miterlimit="10" d="
			M509,407c-4.026,2.307-8.125,3.73-13.002,3.69c-3.845-0.032-6.812,2.993-9.518,5.791c-5.483,5.67-11.889,8.468-19.994,6.577
			c-4.926-1.149-9.986-1.726-14.986-2.559"/>
		
			<path fill-rule="evenodd" clip-rule="evenodd" fill="none" stroke="#000000" stroke-width="2" stroke-linecap="round" stroke-linejoin="round" stroke-miterlimit="10" d="
			M204.5,420c-1.811,3.848-3.859,7.563-7.025,10.473c-1.569,1.441-2.57,3.178-3.475,5.027"/>
		
			<path fill-rule="evenodd" clip-rule="evenodd" fill="none" stroke="#000000" stroke-width="2" stroke-linecap="round" stroke-linejoin="round" stroke-miterlimit="10" d="
			M189.5,411c-5.733-0.634-9.015,3.638-12.999,6.502c-0.677,0.486-1.335,0.998-2.001,1.498"/>
		
			<path fill-rule="evenodd" clip-rule="evenodd" fill="none" stroke="#000000" stroke-width="2" stroke-linecap="round" stroke-linejoin="round" stroke-miterlimit="10" d="
			M548.5,321.5c1.167,4.667,2.333,9.333,3.5,14"/>
		
			<path fill-rule="evenodd" clip-rule="evenodd" fill="none" stroke="#000000" stroke-width="2" stroke-linecap="round" stroke-linejoin="round" stroke-miterlimit="10" d="
			M259.5,213.5c-6,1.167-12,2.333-18,3.5"/>
		
			<path fill-rule="evenodd" clip-rule="evenodd" fill="none" stroke="#000000" stroke-width="2" stroke-linecap="round" stroke-linejoin="round" stroke-miterlimit="10" d="
			M234.5,456c-2.201-1.281-3.454,0.294-5.034,1.453c-2.714,1.992-5.216,4.546-8.966,4.547"/>
		
			<path fill-rule="evenodd" clip-rule="evenodd" fill="none" stroke="#000000" stroke-width="2" stroke-linecap="round" stroke-linejoin="round" stroke-miterlimit="10" d="
			M384,414.5c1.921,8.613,4.005,17.182,7,25.5"/>
		
			<path fill-rule="evenodd" clip-rule="evenodd" fill="none" stroke="#000000" stroke-width="2" stroke-linecap="round" stroke-linejoin="round" stroke-miterlimit="10" d="
			M301.5,195.5c-0.838,4.371-0.554,9-3,13"/>
		
			<path fill-rule="evenodd" clip-rule="evenodd" fill="none" stroke="#000000" stroke-width="2" stroke-linecap="round" stroke-linejoin="round" stroke-miterlimit="10" d="
			M269.5,221.5c1.828-3.873,4.595-6.924,7.976-9.531c2.24-1.728,3.656-0.793,5.577,1.411c-3.772,4.401-8.467,8.347-9.053,14.62"/>
		
			<path fill-rule="evenodd" clip-rule="evenodd" fill="none" stroke="#000000" stroke-width="2" stroke-linecap="round" stroke-linejoin="round" stroke-miterlimit="10" d="
			M541.5,454.5c0.919-3.485,2.768-0.342,4-0.344c3.543-0.006,7.157,0.354,10.5,1.844"/>
		
			<path fill-rule="evenodd" clip-rule="evenodd" fill="none" stroke="#000000" stroke-width="2" stroke-linecap="round" stroke-linejoin="round" stroke-miterlimit="10" d="
			M223.5,455.5c-4,0.5-8,1-12,1.5"/>
		
			<path fill-rule="evenodd" clip-rule="evenodd" fill="none" stroke="#000000" stroke-width="2" stroke-linecap="round" stroke-linejoin="round" stroke-miterlimit="10" d="
			M552.5,106c-0.533-0.601-1.081-1.321-1.994-0.984c-3.422,1.26-7.004,1.197-10.498,0.895c-2.663-0.231-4.463,1.259-4.31,3.073
			c0.234,2.789-3.221,4.22-1.948,7.017"/>
		
			<path fill-rule="evenodd" clip-rule="evenodd" fill="none" stroke="#000000" stroke-width="2" stroke-linecap="round" stroke-linejoin="round" stroke-miterlimit="10" d="
			M204,238.5c-1.115,3.756-0.462,7.818-2,11.5"/>
		
			<path fill-rule="evenodd" clip-rule="evenodd" fill="none" stroke="#000000" stroke-width="2" stroke-linecap="round" stroke-linejoin="round" stroke-miterlimit="10" d="
			M512.5,481c-0.622,5.606,1.423,7.506,7,6.5"/>
		
			<path fill-rule="evenodd" clip-rule="evenodd" fill="none" stroke="#000000" stroke-width="2" stroke-linecap="round" stroke-linejoin="round" stroke-miterlimit="10" d="
			M348.5,481c1.354,0,2.708,0,4.544,0c-0.154,2.361-0.633,3.244-2.393,4.685c-4.125,3.38-6.912,7.925-5.151,13.815"/>
		
			<path fill-rule="evenodd" clip-rule="evenodd" fill="none" stroke="#000000" stroke-width="2" stroke-linecap="round" stroke-linejoin="round" stroke-miterlimit="10" d="
			M471.5,424.5c0.568,3.813,2.609,7.795-1.434,11.081c-0.258,0.209,0.434,1.586,0.684,2.419"/>
		
			<path fill-rule="evenodd" clip-rule="evenodd" fill="none" stroke="#000000" stroke-width="2" stroke-linecap="round" stroke-linejoin="round" stroke-miterlimit="10" d="
			M516.5,453c-1.637,3.557-4.885,6.527-4,11"/>
		
			<path fill-rule="evenodd" clip-rule="evenodd" fill="none" stroke="#000000" stroke-width="2" stroke-linecap="round" stroke-linejoin="round" stroke-miterlimit="10" d="
			M283,214.5c0.842,0.485,1.685,0.97,2.743,1.579c-3,3.313-6.242,6.472-5.743,11.421"/>
		
			<path fill-rule="evenodd" clip-rule="evenodd" fill="none" stroke="#000000" stroke-width="2" stroke-linecap="round" stroke-linejoin="round" stroke-miterlimit="10" d="
			M287.5,244.5c-3.921,1.881-7.868,3.733-9.5,8.25"/>
		
			<path fill-rule="evenodd" clip-rule="evenodd" fill="none" stroke="#000000" stroke-width="2" stroke-linecap="round" stroke-linejoin="round" stroke-miterlimit="10" d="
			M296,229.5c1.913,3.246,0.92,6.638,0.5,10"/>
		
			<path fill-rule="evenodd" clip-rule="evenodd" fill="none" stroke="#000000" stroke-width="2" stroke-linecap="round" stroke-linejoin="round" stroke-miterlimit="10" d="
			M383.5,474c-3.918,4.743-8.409,7.74-14.928,8.903c-3.884,0.693-9.3,1.697-11.572,6.597"/>
		
			<path fill-rule="evenodd" clip-rule="evenodd" fill="none" stroke="#000000" stroke-width="2" stroke-linecap="round" stroke-linejoin="round" stroke-miterlimit="10" d="
			M510,428c3.167,1.167,6.333,2.333,9.5,3.5"/>
		
			<path fill-rule="evenodd" clip-rule="evenodd" fill="none" stroke="#000000" stroke-width="2" stroke-linecap="round" stroke-linejoin="round" stroke-miterlimit="10" d="
			M285,184c-4.113,4.063-9.852,5.351-14.358,8.762c-2.355-1.952,0.067-5.069-2.142-6.762"/>
		
			<path fill-rule="evenodd" clip-rule="evenodd" fill="none" stroke="#000000" stroke-width="2" stroke-linecap="round" stroke-linejoin="round" stroke-miterlimit="10" d="
			M277.5,211.5c-1.833-2.296-3.54-1.85-5.531-0.034c-2.708,2.47-5.635,4.701-8.469,7.034"/>
		
			<path fill-rule="evenodd" clip-rule="evenodd" fill="none" stroke="#000000" stroke-width="2" stroke-linecap="round" stroke-linejoin="round" stroke-miterlimit="10" d="
			M549,104.5c-0.131-6.675,2.586-8.463,8.488-5.476c2.06,1.043,4.391,1.659,6.012,3.476"/>
		
			<path fill-rule="evenodd" clip-rule="evenodd" fill="none" stroke="#000000" stroke-width="2" stroke-linecap="round" stroke-linejoin="round" stroke-miterlimit="10" d="
			M350.5,410.5c-2.016,2.967-4.602,5.234-8,6.5"/>
		
			<path fill-rule="evenodd" clip-rule="evenodd" fill="none" stroke="#000000" stroke-width="2" stroke-linecap="round" stroke-linejoin="round" stroke-miterlimit="10" d="
			M345.5,393c-3.21,1.043-5.966,2.747-8,5.5"/>
		
			<path fill-rule="evenodd" clip-rule="evenodd" fill="none" stroke="#000000" stroke-width="2" stroke-linecap="round" stroke-linejoin="round" stroke-miterlimit="10" d="
			M176.5,418.5c2.492,2.434,5.63,1.207,8.5,1.5"/>
		
			<path fill-rule="evenodd" clip-rule="evenodd" fill="none" stroke="#000000" stroke-width="2" stroke-linecap="round" stroke-linejoin="round" stroke-miterlimit="10" d="
			M233,439c-1.367-4.917-4.885-1.764-7.5-2"/>
		
			<path fill-rule="evenodd" clip-rule="evenodd" fill="none" stroke="#000000" stroke-width="2" stroke-linecap="round" stroke-linejoin="round" stroke-miterlimit="10" d="
			M478,410c1.677,3.621,6.15,2.919,8.5,5.5"/>
		
			<path fill-rule="evenodd" clip-rule="evenodd" fill="none" stroke="#000000" stroke-width="2" stroke-linecap="round" stroke-linejoin="round" stroke-miterlimit="10" d="
			M401.5,456c0.5,1.667,1.949,4.103,1.332,4.863c-2.353,2.902-3.139,6.841-6.32,9.152c-7.87,5.718-9.51,5.071-11.001-4.518
			c-0.076-0.487-0.01-0.998-0.01-1.498"/>
		
			<path fill-rule="evenodd" clip-rule="evenodd" fill="none" stroke="#000000" stroke-width="2" stroke-linecap="round" stroke-linejoin="round" stroke-miterlimit="10" d="
			M394,438c-0.578,0.787-1.83,1.169-1.336,3.113c1.976,1.325,6.133-1.06,7.336,2.887"/>
		
			<path fill-rule="evenodd" clip-rule="evenodd" fill="none" stroke="#000000" stroke-width="2" stroke-linecap="round" stroke-linejoin="round" stroke-miterlimit="10" d="
			M290.5,248c-3.34,0.552-5.819,2.2-7,5.5"/>
		
			<path fill-rule="evenodd" clip-rule="evenodd" fill="none" stroke="#000000" stroke-width="2" stroke-linecap="round" stroke-linejoin="round" stroke-miterlimit="10" d="
			M286,183.5c2.978,1.434,3.763,4.591,5.5,7"/>
		
			<path fill-rule="evenodd" clip-rule="evenodd" fill="none" stroke="#000000" stroke-width="2" stroke-linecap="round" stroke-linejoin="round" stroke-miterlimit="10" d="
			M269,207.5c-2.06,2.326-4.296,4.389-7.5,5"/>
		
			<path fill-rule="evenodd" clip-rule="evenodd" fill="none" stroke="#000000" stroke-width="2" stroke-linecap="round" stroke-linejoin="round" stroke-miterlimit="10" d="
			M517,421c-1.192,0.795-2.385,1.59-3.768,2.512c1.376,0.909,2.572,1.699,3.768,2.488"/>
		
			<path fill-rule="evenodd" clip-rule="evenodd" fill="none" stroke="#000000" stroke-width="2" stroke-linecap="round" stroke-linejoin="round" stroke-miterlimit="10" d="
			M343,384c-2.333,1.667-4.667,3.333-7,5"/>
		
			<path fill-rule="evenodd" clip-rule="evenodd" fill="none" stroke="#000000" stroke-width="2" stroke-linecap="round" stroke-linejoin="round" stroke-miterlimit="10" d="
			M508.5,487.5c-3.712-0.838-7.427,0.177-10.976,0.672c-10.976,1.529-21.86,3.631-33.024,2.836c-0.83-0.06-2.092,0.347-2.434-0.063
			c-3.188-3.813-7.521-2.756-11.566-2.944"/>
		
			<path fill-rule="evenodd" clip-rule="evenodd" fill="none" stroke="#000000" stroke-width="2" stroke-linecap="round" stroke-linejoin="round" stroke-miterlimit="10" d="
			M502,421c-1.688,1.502-3.792,2.738-3.5,5.5"/>
		
			<path fill-rule="evenodd" clip-rule="evenodd" fill="none" stroke="#000000" stroke-width="2" stroke-linecap="round" stroke-linejoin="round" stroke-miterlimit="10" d="
			M409.5,444.5c0,2.167,0,4.333,0,6.5"/>
		
			<path fill-rule="evenodd" clip-rule="evenodd" fill="none" stroke="#000000" stroke-width="2" stroke-linecap="round" stroke-linejoin="round" stroke-miterlimit="10" d="
			M215,243c-1.697,2.018-3.934,2.864-6.5,3"/>
		
			<path fill-rule="evenodd" clip-rule="evenodd" fill="none" stroke="#000000" stroke-width="2" stroke-linecap="round" stroke-linejoin="round" stroke-miterlimit="10" d="
			M336,253c-1.683-1.77-3.57-2.719-6-1.5"/>
		
			<path fill-rule="evenodd" clip-rule="evenodd" fill="none" stroke="#000000" stroke-width="2" stroke-linecap="round" stroke-linejoin="round" stroke-miterlimit="10" d="
			M416,477c-0.467,3.253-1.096,6.356-5.5,6"/>
		
			<path fill-rule="evenodd" clip-rule="evenodd" fill="none" stroke="#000000" stroke-width="2" stroke-linecap="round" stroke-linejoin="round" stroke-miterlimit="10" d="
			M211,240c-4.347,4.504-4.533,5.524-2,11"/>
		
			<path fill-rule="evenodd" clip-rule="evenodd" fill="none" stroke="#000000" stroke-width="2" stroke-linecap="round" stroke-linejoin="round" stroke-miterlimit="10" d="
			M354,433c-1.859,1.836-3.56,3.861-6,5"/>
		
			<path fill-rule="evenodd" clip-rule="evenodd" fill="none" stroke="#000000" stroke-width="2" stroke-linecap="round" stroke-linejoin="round" stroke-miterlimit="10" d="
			M534.5,126c-0.647,2.633-3.97,2.293-5,4.5"/>
		
			<path fill-rule="evenodd" clip-rule="evenodd" fill="none" stroke="#000000" stroke-width="2" stroke-linecap="round" stroke-linejoin="round" stroke-miterlimit="10" d="
			M400,464c-1.824,0.536-4.295-1.304-5.5,1.5"/>
		
			<path fill-rule="evenodd" clip-rule="evenodd" fill="none" stroke="#000000" stroke-width="2" stroke-linecap="round" stroke-linejoin="round" stroke-miterlimit="10" d="
			M514.5,406.5c3.333-0.767,6.667-0.683,10,0"/>
		
			<path fill-rule="evenodd" clip-rule="evenodd" fill="none" stroke="#000000" stroke-width="2" stroke-linecap="round" stroke-linejoin="round" stroke-miterlimit="10" d="
			M347.5,491.5c1.761,0.966,3.55,1.611,5.5,0.5"/>
		
			<path fill-rule="evenodd" clip-rule="evenodd" fill="none" stroke="#000000" stroke-width="2" stroke-linecap="round" stroke-linejoin="round" stroke-miterlimit="10" d="
			M359.5,442c-4.242-0.983-5.766,3.468-9,4.5"/>
		
			<path fill-rule="evenodd" clip-rule="evenodd" fill="none" stroke="#000000" stroke-width="2" stroke-linecap="round" stroke-linejoin="round" stroke-miterlimit="10" d="
			M533.5,320c0.082,2.833-1.182,5.667,0,8.5"/>
		
			<path fill-rule="evenodd" clip-rule="evenodd" fill="none" stroke="#000000" stroke-width="2" stroke-linecap="round" stroke-linejoin="round" stroke-miterlimit="10" d="
			M386.5,472.5c-2.03,2.455-4.841-0.553-7,1"/>
		
			<path fill-rule="evenodd" clip-rule="evenodd" fill="none" stroke="#000000" stroke-width="2" stroke-linecap="round" stroke-linejoin="round" stroke-miterlimit="10" d="
			M413,492c-1.689-2.034-3.565-3.664-6.5-3"/>
	</g>
</g>
</svg>
