<?xml version="1.0" encoding="utf-8"?>
<!-- Generator: Adobe Illustrator 16.0.0, SVG Export Plug-In . SVG Version: 6.00 Build 0)  -->
<!DOCTYPE svg PUBLIC "-//W3C//DTD SVG 1.1//EN" "http://www.w3.org/Graphics/SVG/1.1/DTD/svg11.dtd">
<svg version="1.1" id="Calque_1" xmlns="http://www.w3.org/2000/svg" xmlns:xlink="http://www.w3.org/1999/xlink" x="0px" y="0px"
	 width="843px" height="596px" viewBox="0 0 843 596" enable-background="new 0 0 843 596" xml:space="preserve">
<g>
	<g>
		
			<path fill-rule="evenodd" clip-rule="evenodd" fill="none" stroke="#000000" stroke-width="2" stroke-linecap="round" stroke-linejoin="round" stroke-miterlimit="10" d="
			M63.5,257c8.146,9.975,17.383,18.956,25.978,28.52c13.416,14.926,26.655,30.011,40.036,44.968
			c6.921,7.737,14.041,15.297,20.974,23.023c11.342,12.643,23.481,24.561,34.827,37.156c13.585,15.083,26.365,30.881,41.157,44.863
			c1.878,1.776,3.949,3.729,4.894,6.025c1.498,3.64,4.145,3.463,7.135,3.463c148.5-0.021,297,0.163,445.5-0.166
			c31.164-0.069,62.334-0.07,93.5-0.378c1.329-0.013,2.786,0.65,4.04-1.086c-0.749-2.527-3.141-4.646-5.108-6.826
			c-14.54-16.115-29.271-32.057-43.93-48.064c-14.342-15.659-28.65-31.348-43.007-46.993
			c-15.312-16.688-30.677-33.324-45.988-50.011C636.966,284.365,630.5,277.167,624,270"/>
		
			<path fill-rule="evenodd" clip-rule="evenodd" fill="none" stroke="#000000" stroke-width="2" stroke-linecap="round" stroke-linejoin="round" stroke-miterlimit="10" d="
			M363.5,256.5c-4.634-1.072-9.451,0.316-13.975-0.619c-8.321-1.722-16.138,1.035-23.971,2.422
			c-4.954,0.877-9.379,4.712-14.056,7.194c-7.977,4.235-15.408,9.222-24.378,11.904c-6.024,1.802-11.571,2.477-17.624,2.173
			c-4.314-0.217-8.663,0.4-12.996,0.404c-44.333,0.035-88.667,0.021-133,0.024c-2.012,0-4.045-0.21-6.189,0.636
			c4.014,6.841,10.204,11.866,15.303,17.763c9.095,10.517,19.006,20.323,28.358,30.624c14.439,15.904,28.654,32.011,43.044,47.96
			c7.743,8.582,15.923,16.784,23.379,25.604c4.278,5.06,9.531,9.249,13.111,14.907c2.028,3.206,5.25,3.025,8.494,3.024
			c126.667-0.024,253.334-0.231,380,0.13c30.997,0.089,62.001,0.074,93,0.328c1.865,0.015,3.888,0.569,5.5-0.979"/>
		
			<path fill-rule="evenodd" clip-rule="evenodd" fill="none" stroke="#000000" stroke-width="2" stroke-linecap="round" stroke-linejoin="round" stroke-miterlimit="10" d="
			M255,256.5c-1.603-0.801-3.326-0.488-5-0.488c-60.333-0.014-120.667,0.014-181-0.103c-2.501-0.005-5,1.524-7.5,0.091"/>
		
			<path fill-rule="evenodd" clip-rule="evenodd" fill="none" stroke="#000000" stroke-width="2" stroke-linecap="round" stroke-linejoin="round" stroke-miterlimit="10" d="
			M521,280.5c-1.604-0.801-3.325-0.486-5-0.488c-16.333-0.02-32.667,0.015-49-0.043c-2.182-0.008-4.309-0.125-6.562-0.745
			c-2.583-0.711-5.882-0.23-7.919,2.292c-10.498,12.996-24.155,22.526-36.414,33.602c-12.421,11.222-26.821,19.707-39.693,30.276
			c-4.89,4.015-10.747,6.387-17.441,3.166c-3.751-1.805-7.153-4.517-5.472-10.06"/>
		
			<path fill-rule="evenodd" clip-rule="evenodd" fill="none" stroke="#000000" stroke-width="2" stroke-linecap="round" stroke-linejoin="round" stroke-miterlimit="10" d="
			M603,282c14.5,15.833,29.001,31.666,43.5,47.5c10.834,11.832,21.704,23.633,32.491,35.508
			c15.867,17.469,31.681,34.987,47.492,52.508c0.797,0.882,1.35,1.984,2.017,2.984"/>
		
			<path fill-rule="evenodd" clip-rule="evenodd" fill="none" stroke="#000000" stroke-width="2" stroke-linecap="round" stroke-linejoin="round" stroke-miterlimit="10" d="
			M588,222c-6.58,14.671-17.297,25.47-30.388,34.659c-12.946,9.089-27.277,16.169-39.1,26.854
			c-6.564,5.934-11.264,12.902-12.572,21.978c-1.409,9.772,8.217,20.421,15.556,23.519c7.061,2.979,14.328,4.74,21.445,0.883
			c4.806-2.604,8.919-6.451,13.587-9.347c10.44-6.477,17.897-16.086,26.524-24.492c14.694-14.318,32.063-24.433,51.455-31.031
			c13.354-4.544,25.484-11.343,36.417-20.116c5.475-4.393,10.094-9.814,12.075-16.906"/>
		
			<path fill-rule="evenodd" clip-rule="evenodd" fill="none" stroke="#000000" stroke-width="2" stroke-linecap="round" stroke-linejoin="round" stroke-miterlimit="10" d="
			M404.5,191.5c-11.35,3.574-22.934,6.234-34.462,9.149c-13.82,3.494-26.482,9.703-38.154,18.189
			c-6.308,4.587-14.515,5.611-21.904,8.1c-12.125,4.082-21.732,11.486-30.034,21.014c-4.017,4.609-8.429,8.921-13.006,12.979
			c-3.321,2.945-7.445,4.107-11.939,2.569"/>
		
			<path fill-rule="evenodd" clip-rule="evenodd" fill="none" stroke="#000000" stroke-width="2" stroke-linecap="round" stroke-linejoin="round" stroke-miterlimit="10" d="
			M285.5,279c1.612,1.548,3.634,0.979,5.5,0.98c33.167,0.027,66.333,0.015,99.5,0.033c1.839,0.001,3.728-0.357,5.5,0.486"/>
		
			<path fill-rule="evenodd" clip-rule="evenodd" fill="none" stroke="#000000" stroke-width="2" stroke-linecap="round" stroke-linejoin="round" stroke-miterlimit="10" d="
			M570,245.5c-8.934-3.866-17.972-3.998-27.538-2.203c-7.752,1.455-15.369,3.577-23.443,4.033
			c-7.513,0.425-15.929,0.765-21.519,7.67"/>
		
			<path fill-rule="evenodd" clip-rule="evenodd" fill="none" stroke="#000000" stroke-width="2" stroke-linecap="round" stroke-linejoin="round" stroke-miterlimit="10" d="
			M461,278c12.814-3.692,23.307-11.182,32.39-20.606c2.798-2.903,5.402-1.335,8.11-1.354c12.5-0.089,25.001-0.128,37.5,0.001
			c5.665,0.059,11.361-0.669,17,0.46"/>
		
			<path fill-rule="evenodd" clip-rule="evenodd" fill="none" stroke="#000000" stroke-width="2" stroke-linecap="round" stroke-linejoin="round" stroke-miterlimit="10" d="
			M547.5,309c-1.493-7.479-7.89-12.431-15.5-12c-6.51,0.368-15.334,8.604-15,14c0.183,2.953,10.21,16.192,13.006,16.978
			c3.922,1.103,8.842-1.641,12.011-5.464c3.153-3.805,5.198-8.025,5.483-13.014"/>
		
			<path fill-rule="evenodd" clip-rule="evenodd" fill="none" stroke="#000000" stroke-width="2" stroke-linecap="round" stroke-linejoin="round" stroke-miterlimit="10" d="
			M359,185c-12.009,7.138-25.269,11.475-37.966,17.077c-5.449,2.403-10.6,5.728-15.8,8.407c-5.149,2.653-10.744,5.209-16.162,7.673
			C280.22,222.184,275.902,233.91,284,242"/>
		
			<path fill-rule="evenodd" clip-rule="evenodd" fill="none" stroke="#000000" stroke-width="2" stroke-linecap="round" stroke-linejoin="round" stroke-miterlimit="10" d="
			M404.5,241.5c-5.182,7.697-9.114,16.416-17.503,21.495c-4.063,2.461-8.137,5.016-13,5.466c-4.077,0.378-7.95-0.867-9.848-4.538
			c-1.407-2.72-0.758-6.086,0.866-8.915c1.359-2.368,2.449-4.822,2.986-7.508"/>
		
			<path fill-rule="evenodd" clip-rule="evenodd" fill="none" stroke="#000000" stroke-width="2" stroke-linecap="round" stroke-linejoin="round" stroke-miterlimit="10" d="
			M369,316.5c0.667,0.167,1.332,0.469,2,0.477c2.806,0.033,5.332,0.143,6.571,3.497c1.133,3.067-0.51,4.873-2.034,7.052
			c-3.444,4.926-7.651,9.092-12.591,12.394c-2.558,1.71-5.263,1.498-8.035-0.812c-2.891-2.408-1.173-4.61-0.323-6.569
			c2.612-6.021,7.127-10.742,11.962-14.981c8.135-7.133,15.036-15.083,20.578-24.481c6.271-10.636,15.871-18.411,25.414-26.022
			c3.305-2.636,6.291-5.594,8.353-9.114c3.593-6.133,8.765-10.513,14.044-15.009c5.736-4.886,12.162-8.599,18.551-12.445
			c6.686-4.025,12.063-9.536,16.985-15.505c0.87-1.054,1.4-2.396,3.024-2.479"/>
		
			<path fill-rule="evenodd" clip-rule="evenodd" fill="none" stroke="#000000" stroke-width="2" stroke-linecap="round" stroke-linejoin="round" stroke-miterlimit="10" d="
			M440.5,237.5c-7.716-0.794-15.381,0.044-22.993,1.057c-10.31,1.371-20.515,4.124-31.015,1.475
			c-0.94-0.237-2.242-0.425-2.955,0.027c-10.875,6.912-23.751,7.802-35.533,11.955c-1.545,0.544-3.279,0.704-4.505,1.986"/>
		
			<path fill-rule="evenodd" clip-rule="evenodd" fill="none" stroke="#000000" stroke-width="2" stroke-linecap="round" stroke-linejoin="round" stroke-miterlimit="10" d="
			M306,211.5c4.234,1.979,3.427,4.624,1.001,7.501c-5.95,7.058-17.234,10.673-25.001,7.999"/>
		
			<path fill-rule="evenodd" clip-rule="evenodd" fill="none" stroke="#000000" stroke-width="2" stroke-linecap="round" stroke-linejoin="round" stroke-miterlimit="10" d="
			M280,246c-9.659,0.343-17.495,5.158-24.368,11.151c-4.69,4.09-1.524,15.299,4.9,19.803c0.842,0.591,1.711,0.969,1.968,2.046"/>
		
			<path fill-rule="evenodd" clip-rule="evenodd" fill="none" stroke="#000000" stroke-width="2" stroke-linecap="round" stroke-linejoin="round" stroke-miterlimit="10" d="
			M396.5,255.5c6.309,1.107,12.673,0.157,18.998,0.53c1.685,0.1,3.635-0.86,5.002,0.97"/>
	</g>
</g>
</svg>
