<?xml version="1.0" encoding="utf-8"?>
<!-- Generator: Adobe Illustrator 16.0.0, SVG Export Plug-In . SVG Version: 6.00 Build 0)  -->
<!DOCTYPE svg PUBLIC "-//W3C//DTD SVG 1.1//EN" "http://www.w3.org/Graphics/SVG/1.1/DTD/svg11.dtd">
<svg version="1.1" id="Calque_1" xmlns="http://www.w3.org/2000/svg" xmlns:xlink="http://www.w3.org/1999/xlink" x="0px" y="0px"
	 width="470.37px" height="392.592px" viewBox="0 0 470.37 392.592" enable-background="new 0 0 470.37 392.592"
	 xml:space="preserve">
<g>
	<path fill="none" stroke="#231F20" stroke-width="0.5" stroke-miterlimit="10" d="M146.872,158.082
		c-1.485-1.61-2.924-4.326-3.907-6.408c-1.115-2.35-1.254-4.997-2.221-7.25c-0.941-2.174-2.799-3.933-4.257-5.843
		c-3.498-4.583-6.704-8.601-10.777-12.672c-4.127-4.115-9.128-7.134-14.093-9.868c-4.624-2.542-9.681-4.428-13.898-7.657
		c-4.266-3.257-5.7-8.529-9.536-12.133c-5.27-4.953-13.627-12.624-21.558-11.906c-11.52,1.041-0.99,17.324,3.317,20.863
		c3.204,2.63,5.783,5.883,8.973,8.506c4.287,3.525,7.687,5.591,9.406,11.182c-1.83-0.37-1.719-3.738-1.899-5.258"/>
	<path fill="none" stroke="#231F20" stroke-width="0.5" stroke-miterlimit="10" d="M73.052,108.216
		c0.444,3.276-3.252,7.974-4.391,11.071c-1.453,3.949-3.19,8.12-2.595,12.459c0.352,2.563,2.165,5.325,3.639,7.391"/>
	<path fill="none" stroke="#231F20" stroke-width="0.5" stroke-miterlimit="10" d="M65.527,131.618
		c-0.014,2.457-0.516,5.601,0.456,7.842c0.791,1.827,2.75,3.248,4.203,4.511c3.387,2.942,6.817,5.866,10.183,8.832
		c2.041,1.795,4.618,3.447,6.329,5.561"/>
	<path fill="none" stroke="#231F20" stroke-width="0.5" stroke-miterlimit="10" d="M72.772,146.104
		c0.083,3.919-1.15,6.944,1.846,10.054c2.54,2.637,5.915,4.414,9.07,6.204c6.207,3.516,12.841,6.269,18.513,10.528
		c3.285,2.466,5.355,5.811,8.175,8.591"/>
	<path fill="none" stroke="#231F20" stroke-width="0.5" stroke-miterlimit="10" d="M97.844,166.16
		c1.409,2.207,5.092,3.665,7.127,5.42c2.325,2.012,4,5.436,6.523,7.115"/>
	<path fill="none" stroke="#231F20" stroke-width="0.5" stroke-miterlimit="10" d="M86.698,124.655
		c-0.714,1.312-2.679,1.17-3.62,2.225"/>
	<path fill="none" stroke="#231F20" stroke-width="0.5" stroke-miterlimit="10" d="M85.586,121.865c-1.206,0-2.415,0-3.623,0"/>
	<path fill="none" stroke="#231F20" stroke-width="0.5" stroke-miterlimit="10" d="M231.56,250.014
		c0.03,0.283,0.085,0.555,0.15,0.832c-1.337-2.586-2.193-5.389-4.414-7.467c-1.973-1.842-3.729-3.779-5.55-5.824
		c-3.402-3.813-5.82-8.574-8.924-12.598c-1.832-2.379-3.382-4.816-5.425-7.043c-1.913-2.086-3.884-4.385-5.291-6.971
		c-2.596-4.779-5.024-9.828-8.212-14.334c-2.864-4.039-7.507-6.788-10.005-11.039c-2.461-4.187-4.074-8.893-7.167-12.747
		c-5.73-7.123-13.887-10.375-22.518-12.332c-14.201-3.215-28.405,1.434-38.273,12.152c-3.729,4.053-6.135,9.262-8.985,13.935
		c-5.931,9.74-9.929,19.843-7.063,31.41c1.39,5.59,3.026,11.201,5.48,16.424"/>
	<path fill="none" stroke="#231F20" stroke-width="0.5" stroke-miterlimit="10" d="M67.76,84.26c1.792,0.941,3.53,1.541,5.068,2.906
		c0.916,0.81,3.696,3.21,3.854,4.46c0.298,2.401-5.957,5.133-7.319,7.37c-2.575-1.95-6.202-6.07-7.736-8.888"/>
	<path fill="none" stroke="#231F20" stroke-width="0.5" stroke-miterlimit="10" d="M119.573,256.977
		c1.344,3.045,1.999,6.422,3.167,9.527c1.249,3.316,3.563,6.064,5.878,8.693c2.39,2.711,5.228,5.223,7.386,8.137
		c2.235,3.021,4.074,5.82,6.66,8.527c1.68,1.754,3.438,3.363,5.175,5.084c1.617,1.605,4.638,2.879,5.441,5.16"/>
	<path fill="none" stroke="#231F20" stroke-width="0.5" stroke-miterlimit="10" d="M138.516,268.678
		c-0.143-1.008,0.292,0.172,0.625,0.648c0.849,1.193,1.687,2.391,2.455,3.627c1.12,1.795,1.927,3.803,2.832,5.727
		c1.716,3.656,3.158,7.395,4.673,11.164c2.135,5.313,4.675,11.266,8.414,15.518c3.694,4.201,6.015,7.357,8.034,12.539
		c2.109,5.402,4.668,10.627,7.456,15.711c3.854,7.033,9.503,13.834,12.746,21.057c0.849,1.896,1.347,4.158,2.665,5.895
		c1.774,2.326,5.57,2.826,6.723,5.584"/>
	<path fill="none" stroke="#231F20" stroke-width="0.5" stroke-miterlimit="10" d="M110.935,226.608
		c6.306-10.488,10.465-23.391,20.033-31.465c9.591-8.092,21.264-12.473,33.77-12.598c6.422-0.06,12.499,0.981,18.627,2.836"/>
	<path fill="none" stroke="#231F20" stroke-width="0.5" stroke-miterlimit="10" d="M196.735,200.983
		c-5.11-2.045-12.154-2.809-17.639-2.795c-6.635,0.018-12.901,2.363-18.425,5.895c-11.204,7.156-21.574,17.32-30.827,26.855
		c-4.578,4.725-10.114,12.799-11.416,19.34c-0.521,2.615-0.174,5.348-0.234,7.994c-0.111,5.109-1.469,10.41,2.142,14.611
		c1.691,1.971,3.489,3.678,6.202,2.48"/>
	<path fill="none" stroke="#231F20" stroke-width="0.5" stroke-miterlimit="10" d="M106.2,233.854
		c-0.231-3.771,2.258-8.088,5.38-3.346c1.825,2.781,2.866,6.367,3.963,9.48c1.17,3.316,2.781,6.445,2.304,10.035
		c-0.518,3.867-1.3,7.643-1.268,11.557c0.012,1.809,0.079,4.543-2.582,3.785c-1.677-0.486-2.519-3.156-3.34-4.492"/>
	<path fill="none" stroke="#231F20" stroke-width="0.5" stroke-miterlimit="10" d="M102.579,242.77
		c0.292-2.092-0.023-5.836,1.52-7.5c2.39-2.578,4.03,1.133,4.927,3.09c2.098,4.576,5.462,8.416,4.397,13.574
		c-0.566,2.748,0.058,5.928-1.376,8.416c-2.288-2.305-3.611-6.088-5.013-8.943c-0.768-1.568-1.333-3.262-1.885-4.797
		c-0.687-1.898-1.719-2.939-2.57-4.678"/>
	<path fill="none" stroke="#231F20" stroke-width="0.5" stroke-miterlimit="10" d="M105.364,248.899
		c-0.097,2.365,1.194,4.553,2.297,6.598c0.923,1.703,2.309,5.561,3.553,6.496"/>
	<path fill="none" stroke="#231F20" stroke-width="0.5" stroke-miterlimit="10" d="M113.165,249.454
		c0.564,2.426-6.135,6.797-1.67,9.477"/>
	<path fill="none" stroke="#231F20" stroke-width="0.5" stroke-miterlimit="10" d="M129.881,275.641
		c-3.438,3.748-9.94,3.9-13.177-0.236c-2.984-3.813-5.138-10.35-5.489-15.088"/>
	<path fill="none" stroke="#231F20" stroke-width="0.5" stroke-miterlimit="10" d="M247.368,240.377
		c-6.544,4.32-13.398,8.373-20.063,12.533c-3.47,2.17-6.799,4.479-9.72,7.426c-2.205,2.225-5.818,9.623-9.078,9.291"/>
	<path fill="none" stroke="#231F20" stroke-width="0.5" stroke-miterlimit="10" d="M217.282,258.346
		c-7.407-0.795-14.736-4.713-22.145,0.418"/>
	<path fill="none" stroke="#231F20" stroke-width="0.5" stroke-miterlimit="10" d="M205.165,269.627
		c-3.211,1.004-5.108,6.494-7.345,8.869c-2.877,3.063-5.607,5.182-7.562,9.072c-3.461,6.902-5.714,15.596-7.375,23.119
		c-1.43,6.477-1.587,13.365-2.371,19.945"/>
	<path fill="none" stroke="#231F20" stroke-width="0.5" stroke-miterlimit="10" d="M195.974,280.911
		c0.432,3.266-3.364,6.926-4.483,10.059c-2.76,7.74-3.317,15.637-4.293,23.785"/>
	<path fill="none" stroke="#231F20" stroke-width="0.5" stroke-miterlimit="10" d="M189.705,255.418
		c-7.72,7.129-14.805,16.396-19.638,25.908"/>
	<path fill="none" stroke="#231F20" stroke-width="0.5" stroke-miterlimit="10" d="M139.564,287.18
		c-0.858,2.975-3.056,5.699-4.324,8.605c-1.358,3.113-2.952,4.033-5.55,6.107c-5.08,4.047-10,8.322-14.907,12.588
		c-3.759,3.268-6.811,6.773-10.736,9.887"/>
	<path fill="none" stroke="#231F20" stroke-width="0.5" stroke-miterlimit="10" d="M300.646,100.698
		c-0.231,0.134-0.025,0.467-0.491,0.24c-4.841-4.765-9.981-9.156-14.935-13.796c-5.01-4.693-9.17-9.158-15.459-12.172
		c-6.723-3.22-11.053-7.791-16.753-12.349c-2.612-2.086-14.96-9.711-8.238-13.736c3.26-1.952,7.995,0.979,9.642,3.817
		c2.012,3.46,0.266,6.431-2.237,8.992"/>
	<path fill="none" stroke="#231F20" stroke-width="0.5" stroke-miterlimit="10" d="M246.323,47.488
		c-0.217,0.125-0.303,0.301-0.25,0.523c3.585-1.328,6.077-2.388,9.85-0.389c2.603,1.378,5.543,3.169,7.729,5.068
		c2.494,2.165,4.677,3.771,7.504,5.466c2.655,1.591,4.608,4.215,7.266,5.714c2.614,1.471,8.376,1.8,9.963,4.233"/>
	<path fill="none" stroke="#231F20" stroke-width="0.5" stroke-miterlimit="10" d="M288.385,67.826
		c2.661,0.021,4.229-6.25,4.735-8.24c0.796-3.104,2.098-6.288,3.903-9.034"/>
	<path fill="none" stroke="#231F20" stroke-width="0.5" stroke-miterlimit="10" d="M294.516,53.618
		c-1.413-1.698-9.771-8.272-7.8-10.031"/>
	<path fill="none" stroke="#231F20" stroke-width="0.5" stroke-miterlimit="10" d="M286.16,44.703
		c-2.836-0.481-6.158-1.899-8.909-2.794c-3.195-1.041-6.332-1.206-9.475-2.776"/>
	<path fill="none" stroke="#231F20" stroke-width="0.5" stroke-miterlimit="10" d="M267.776,39.132
		c-3.449,0-6.829,0.748-10.174,0.558c-3.1-0.178-6.954,0.632-9.887-0.28"/>
	<path fill="none" stroke="#231F20" stroke-width="0.5" stroke-miterlimit="10" d="M247.715,39.132
		c-1.238,3.482-9.239,2.836-12.235,2.77c-3.264-0.072-10.991-0.808-8.656-6.114"/>
	<path fill="none" stroke="#231F20" stroke-width="0.5" stroke-miterlimit="10" d="M227.099,36.902
		c2.367-0.708,7.181-0.904,8.673-3.072c-1.869-1.791-7.074,1.268-9.184,2.013c0.044,0.375,0.215,0.99,0.511,1.337"/>
	<path fill="none" stroke="#231F20" stroke-width="0.5" stroke-miterlimit="10" d="M235.182,33.279
		c1.529-1.355,5.767-2.318,7.937-3.044c3.41-1.138,6.939-0.439,10.375-1.087c3.928-0.74,7.555-2.327,11.605-2.549
		c4.879-0.269,10.468,1.36,15.178,2.614c5.221,1.393,10.713,1.966,16.075,2.725c2.882,0.405,6.38-0.085,9.082,0.805
		c2.838,0.93,3.845,3.697,6.357,4.995"/>
	<path fill="none" stroke="#231F20" stroke-width="0.5" stroke-miterlimit="10" d="M275.574,27.709
		c4.566,0,8.777-0.021,12.957,1.087c4.078,1.083,7.664,1.952,11.883,2.149c3.914,0.178,7.976-0.495,11.821,0.564
		c3.137,0.865,4.139,3.974,5.707,6.479c3.618,5.786,3.762,12.219,6.26,18.412c1.266,3.144,3.838,6.285,5.973,8.917"/>
	<path fill="none" stroke="#231F20" stroke-width="0.5" stroke-miterlimit="10" d="M264.151,39.688
		c-0.578,1.823-2.077,2.938-2.499,5.126c-0.282,1.458-0.99,5.732,0.273,6.574"/>
	<path fill="none" stroke="#231F20" stroke-width="0.5" stroke-miterlimit="10" d="M287.273,47.208
		c-3.646,1.164-7.192,3.222-11.099,3.023c0.298-2.656-1.86-4.751-3.942-6.086"/>
	<path fill="none" stroke="#231F20" stroke-width="0.5" stroke-miterlimit="10" d="M275.852,49.995
		c-0.518,3.854-2.646-1.11-3.9-1.95"/>
	<path fill="none" stroke="#231F20" stroke-width="0.5" stroke-miterlimit="10" d="M274.735,51.388
		c0.365,2.771-1.372,5.455-1.668,8.078"/>
	<path fill="none" stroke="#231F20" stroke-width="0.5" stroke-miterlimit="10" d="M291.173,51.666
		c-0.009,0.065-0.021-0.782,0.014-0.319c-0.685,2.478-4.53,5.258-7.09,5.344c-2.616,0.09-5.441-2.744-6.547-4.927
		c0.213,0.116,0.387,0.269,0.53,0.458"/>
	<path fill="none" stroke="#231F20" stroke-width="0.5" stroke-miterlimit="10" d="M281.982,56.401
		c-0.608,2.542-1.154,5.216-2.23,7.525"/>
	<path fill="none" stroke="#231F20" stroke-width="0.5" stroke-miterlimit="10" d="M292.288,60.858
		c-1.259,0.583-3,0.222-4.409,0.329c-0.525,1.27-2.117,4.501-2.554,4.407"/>
	<path fill="none" stroke="#231F20" stroke-width="0.5" stroke-miterlimit="10" d="M213.75,221.997
		c1.945-4.684,3.241-10.627,6.577-14.635c3.356-4.029,8.457-6.416,11.705-10.566c3.317-4.248,6.267-10.17,7.745-15.342
		c2.232-7.782,5.041-16.001,10.329-22.293c2.237-2.66,5.256-3.613,7.618-5.978c3.061-3.067,4.844-7.458,7.784-10.71
		c3.863-4.264,9.383-5.429,13.419-9.508c3.866-3.905,6.426-9.38,9.247-14.032c3.051-5.029,5.996-9.785,9.403-14.546
		c6.78-9.466,16.022-16.586,23.538-25.391c7.934-9.299,13.682-19.945,24.807-25.696c5.158-2.665,9.328-6.121,13.77-9.79
		c2.789-2.295,6.377-4.067,8.957-6.579c1.273-1.24,2.072-2.801,3.451-4.03c2.898-2.584,6.936-3.667,9.623-6.454"/>
	<path fill="none" stroke="#231F20" stroke-width="0.5" stroke-miterlimit="10" d="M329.493,69.066
		c0.168,0.759,3.459-2.69,4.566-3.655c1.941-1.693,4.074-3.324,6.211-4.821c2.922-2.054,6.201-4.12,9.508-5.719
		c7.408-3.59,15.693-5.926,23.01-10.074c-5.684,2.172-12.344,5.198-17.205,8.98c-5.762,4.477-9.785,9.857-16.063,14.033"/>
	<path fill="none" stroke="#231F20" stroke-width="0.5" stroke-miterlimit="10" d="M216.259,230.352
		c4.18-6.598,5.27-13.773,8.483-20.682c3.294-7.078,11.201-10.441,14.743-17.609c3.849-7.791,5.802-15.563,12.191-21.904
		c7.655-7.592,18.21-12.228,27.153-18.09c9.741-6.394,19.619-11.169,30.575-15.201c10.689-3.933,21.251-4.92,32.386-6.827
		c11.281-1.934,22.924-4.09,34.051-6.741c10.053-2.392,9.125-8.869,10.348-17.623c2.203-15.712,5.793-31.627,12.883-45.947
		c0.822-1.663,1.758-3.275,2.707-4.872"/>
	<path fill="none" stroke="#231F20" stroke-width="0.5" stroke-miterlimit="10" d="M296.898,145.946
		c-1.129,0.87-1.434,4.219-2.024,5.973c-0.979,2.892-2.327,5.506-3.604,8.263c-4.104,8.841-8.342,18.67-11.085,27.965"/>
	<path fill="none" stroke="#231F20" stroke-width="0.5" stroke-miterlimit="10" d="M268.903,163.079
		c-3.47,1.166,2.202,16.01,2.788,19.161c0.735,3.9,0.162,5.649-1.201,9.179c-1.557,4.045,1.68,7.584-0.747,12.191"/>
	<path fill="none" stroke="#231F20" stroke-width="0.5" stroke-miterlimit="10" d="M165.276,320.186
		c-3.692,3.66-8.638,6.074-13.267,8.379c-4.974,2.484-9.133,5.418-13.676,8.512c-8.011,5.455-17.611,12.604-23.612,20.293"/>
</g>
</svg>
