<?xml version="1.0" encoding="utf-8"?>
<!-- Generator: Adobe Illustrator 16.0.0, SVG Export Plug-In . SVG Version: 6.00 Build 0)  -->
<!DOCTYPE svg PUBLIC "-//W3C//DTD SVG 1.1//EN" "http://www.w3.org/Graphics/SVG/1.1/DTD/svg11.dtd">
<svg version="1.1" id="Calque_1" xmlns="http://www.w3.org/2000/svg" xmlns:xlink="http://www.w3.org/1999/xlink" x="0px" y="0px"
	 width="470.37px" height="392.592px" viewBox="0 0 470.37 392.592" enable-background="new 0 0 470.37 392.592"
	 xml:space="preserve">
<g>
	<path fill="none" stroke="#231F20" stroke-width="0.5" stroke-miterlimit="10" d="M77.419,212.841
		c5.382-4.731,13.789-7.731,20.026-11.703c10.221-6.507,18.806-13.988,30.178-18.634c17.85-7.291,33.966-16.939,50.626-26.372
		c7.406-4.195,14.039-9.519,21.91-12.956c5.553-2.429,11.083-5.826,17.087-7.152c3.953-0.873,15.549,1.539,17.528-1.226"/>
	<path fill="none" stroke="#231F20" stroke-width="0.5" stroke-miterlimit="10" d="M232.871,136.701
		c20.425-11.566,42.136-21.734,61.418-35.18c18.318-12.769,33.728-31.351,54.723-39.933c4.675-1.909,14.385-5.428,16.646,1.458
		c2.124,6.475-6.471,15.48-10.226,19.621c-11.469,12.635-25.21,22.988-36.78,35.616c-14.771,16.13-30.65,30.32-48.346,43.164"/>
	<path fill="none" stroke="#231F20" stroke-width="0.5" stroke-miterlimit="10" d="M272.214,160.178
		c-0.715-0.315-12.926,13.292-16.5,14.595"/>
	<path fill="none" stroke="#231F20" stroke-width="0.5" stroke-miterlimit="10" d="M269.041,165.252
		c-0.302,1.743,0.326,5.496-0.341,7.995c-1.066,4.008-3.331,7.447-4.102,11.677"/>
	<path fill="none" stroke="#231F20" stroke-width="0.5" stroke-miterlimit="10" d="M270.307,169.694
		c11.221-6.009,22.74,13.729,29.926,19.842c4.014,3.415,10.425,6.239,11.298,11.937c0.916,6.002-4.67,14.135-6.419,19.848
		c-2.018,6.579-3.516,13.775-6.249,20.076"/>
	<path fill="none" stroke="#231F20" stroke-width="0.5" stroke-miterlimit="10" d="M258.888,198.246
		c-0.309-0.038-0.371-1.451-0.541-0.04c5.136,8.252,15.364,14.757,25.066,14.109c-2.486,3.479-4.874,6.812-6.904,10.653
		c-2.903,5.494-3.548,11.617-6.203,17.155"/>
	<path fill="none" stroke="#231F20" stroke-width="0.5" stroke-miterlimit="10" d="M258.888,195.077
		c-7.682,7.88-18.814,14.565-30.548,16.527c-0.715-0.589,0.285-0.302,0.726-0.666"/>
	<path fill="none" stroke="#231F20" stroke-width="0.5" stroke-miterlimit="10" d="M237.313,209.669
		c2.227,3.793,15.74,9.48,17.769,5.079"/>
	<path fill="none" stroke="#231F20" stroke-width="0.5" stroke-miterlimit="10" d="M264.598,205.227
		c1.694,7.474,11.441,13.416,10.151,21.572"/>
	<path fill="none" stroke="#231F20" stroke-width="0.5" stroke-miterlimit="10" d="M270.943,232.512
		c-2.473,1.954-5.307,3.84-8.248,5.074"/>
	<path fill="none" stroke="#231F20" stroke-width="0.5" stroke-miterlimit="10" d="M232.239,192.538
		c-0.502,6.698-1.728,13.69-2.529,20.286c-0.732,6.043-1.319,15.606-3.816,20.955"/>
	<path fill="none" stroke="#231F20" stroke-width="0.5" stroke-miterlimit="10" d="M211.933,221.725
		c18.435,12.25,34.5,17.377,56.658,17.258c16.929-0.094,50.636,3.887,51.79,27.121c1.072,21.66-40.22,14.087-52.147,12.81
		c-21.164-2.256-43.649-4.853-64.438,1.094c-9.914,2.836-18.953,8.229-29.024,10.511c-13.771,3.125-27.947-0.162-41.289-3.759
		c-8.53-2.303-16.37-3.942-25.248-4.036c-5.702-0.06-15.474-1.2-20.665,1.818"/>
	<path fill="none" stroke="#231F20" stroke-width="0.5" stroke-miterlimit="10" d="M261.427,277.56
		c-0.655-0.009-1.167-0.064-1.792,0.098c-2.797,6.765-6.273,28.39,6.909,27.734c7.479-0.37,12.493-18.884,17.09-24.026"/>
	<path fill="none" stroke="#231F20" stroke-width="0.5" stroke-miterlimit="10" d="M112.95,283.268
		c-8.101,3.814-17.083,12.575-22.207,19.672"/>
</g>
</svg>
