<?xml version="1.0" encoding="utf-8"?>
<!-- Generator: Adobe Illustrator 16.0.0, SVG Export Plug-In . SVG Version: 6.00 Build 0)  -->
<!DOCTYPE svg PUBLIC "-//W3C//DTD SVG 1.1//EN" "http://www.w3.org/Graphics/SVG/1.1/DTD/svg11.dtd">
<svg version="1.1" id="Calque_1" xmlns="http://www.w3.org/2000/svg" xmlns:xlink="http://www.w3.org/1999/xlink" x="0px" y="0px"
	 width="470.37px" height="392.592px" viewBox="0 0 470.37 392.592" enable-background="new 0 0 470.37 392.592"
	 xml:space="preserve">
<g>
	<g>
		<path fill="none" stroke="#231F20" stroke-width="0.5" stroke-miterlimit="10" d="M177.925,46.645
			c-1.344,1.8-2.296,3.805-3.554,5.652c-1.513,2.23-3.654,3.343-5.555,5.137c-3.659,3.454,0.363,8.354,2.197,11.919
			c4.509,8.758,12.661,14.69,19.441,21.647c3.552,3.643,6.778,7.547,10.428,11.104"/>
		<path fill="none" stroke="#231F20" stroke-width="0.5" stroke-miterlimit="10" d="M201.141,102.625
			c-0.053-0.187-0.154-0.295-0.218-0.454c1.917-3.211,4.058-6.287,6.062-9.443c1.579-2.498,5.001-8.015,8.63-7.267
			c2.368,0.491,6.534,5.917,7.228,8.076c1.278,3.985-2.525,7.259-0.654,11.33c1.258,2.735,1.896,5.661,2.645,8.567
			c0.616,2.399,2.488,5.528,2.106,8.017"/>
		<path fill="none" stroke="#231F20" stroke-width="0.5" stroke-miterlimit="10" d="M177.925,46.904
			c3.204,1.872,5.663,5.489,8.189,8.067c2.613,2.665,5.196,5.28,7.74,7.991c4.824,5.143,9.677,11.125,15.663,15.056
			c3.277,2.15,6.57,4.243,8.134,7.836"/>
		<path fill="none" stroke="#231F20" stroke-width="0.5" stroke-miterlimit="10" d="M200.625,91.535
			c-2.363-0.021-2.876,4.439-0.167,4.672C203.681,96.482,203.088,90.191,200.625,91.535"/>
		<path fill="none" stroke="#231F20" stroke-width="0.5" stroke-miterlimit="10" d="M215.328,91.013
			c-2.936-1.587-4.078,4.404-0.587,4.7c3.278,0.271,3.607-5.43-0.446-4.957"/>
		<path fill="none" stroke="#231F20" stroke-width="0.5" stroke-miterlimit="10" d="M205.526,95.143
			c1.161-1.161,14.026,14.917,15.574,17.167c1.223,1.771,3.12,3.045,4.029,5.015"/>
		<path fill="none" stroke="#231F20" stroke-width="0.5" stroke-miterlimit="10" d="M203.979,98.239
			c2.795,3.748,7.435,6.73,10.841,10.065c3.102,3.039,5.814,6.634,9.28,9.278"/>
		<path fill="none" stroke="#231F20" stroke-width="0.5" stroke-miterlimit="10" d="M238.288,71.153
			c3.584,2.13,6.993,7.074,9.28,10.517c3.171,4.774,3.051,10.193-0.272,14.608c-1.736,2.309-3.698,4-5.915,5.826"/>
		<path fill="none" stroke="#231F20" stroke-width="0.5" stroke-miterlimit="10" d="M249.637,91.535
			c0.075-0.387,0.012-0.878-0.036-1.252c-3.778,2.291-6.751,4.9-7.6,9.438c-0.687,3.676,0.905,9.343-2.524,11.93
			c-3.376,2.545-8.664,1.215-11.312,5.069c-2.452,3.565-1.074,9.315-0.333,13.232c1.59,8.408,4.842,16.945,7.432,25.112
			c2.727,8.588,4.723,17.058,6.838,25.812c2.096,8.654,5.259,17.147,6.928,25.875c0.22,1.144,0.415,2.292,0.606,3.439"/>
		<path fill="none" stroke="#231F20" stroke-width="0.5" stroke-miterlimit="10" d="M234.936,88.952
			c0.141,1.761,2.306,3.535,3.512,4.707c-2.264,3.198-2.01,7.102-4.026,10.125c-2.097,3.141-4.327,6.043-5.765,9.593
			c-0.893,2.217-1.465,3.834-1.46,6.269"/>
		<path fill="none" stroke="#231F20" stroke-width="0.5" stroke-miterlimit="10" d="M179.213,47.937
			c-0.88-2.004,0.881-7.615,1.033-10.202c0.208-3.63-0.166-7.104-0.775-10.437"/>
		<path fill="none" stroke="#231F20" stroke-width="0.5" stroke-miterlimit="10" d="M242.669,52.321
			c-0.041,2.484-1.224,4.893-1.802,7.226c-0.573,2.311-0.765,4.771-1.299,7.084c-1.059,4.574-3.455,9.008-4.512,13.547
			c-0.504,2.169-1.097,6.626-0.121,8.773"/>
		<path fill="none" stroke="#231F20" stroke-width="0.5" stroke-miterlimit="10" d="M168.121,63.927
			c-3.724-0.507-4.07,0.787-6.092,3.647c-1.661,2.337-5.313,4.939-6.291,7.448"/>
		<path fill="none" stroke="#231F20" stroke-width="0.5" stroke-miterlimit="10" d="M171.216,69.344
			c-1.702-0.435-7.343,3.217-9.024,4.315c-2.807,1.841-5.637,3.52-8.527,5.302c-5.72,3.53-12.078,4.937-17.408,9.188
			c-2.689,2.146-5.277,5.672-5.54,9.315"/>
		<path fill="none" stroke="#231F20" stroke-width="0.5" stroke-miterlimit="10" d="M162.444,66.507
			c-7.579,3.902-15.319,7.106-23.339,9.989c-8.388,3.013-16.131,6.743-23.708,11.439c-7.447,4.613-14.322,9.517-19.55,16.658
			c-4.814,6.576-10.263,14.18-11.95,22.28c-1.805,8.654,0.685,17.799,1.809,26.395c0.13,1.004,0.258,2.009,0.383,3.013"/>
		<path fill="none" stroke="#231F20" stroke-width="0.5" stroke-miterlimit="10" d="M87.638,117.066
			c0.158-0.154,0.075-0.411,0.319-0.346c0.893,1.783,0.582,4.896,0.454,6.926c-0.145,2.306-0.118,4.724-0.258,7.093
			c-0.269,4.498-0.751,9.311-1.035,13.928c-0.153,2.53,0.649,5.382,0.259,7.743"/>
		<path fill="none" stroke="#231F20" stroke-width="0.5" stroke-miterlimit="10" d="M106.726,102.104
			c0.303,0.917,7.266-2.548,8.255-1.287"/>
		<path fill="none" stroke="#231F20" stroke-width="0.5" stroke-miterlimit="10" d="M106.467,102.882
			c-2.676,2.639-3.757,8.115-5.015,11.586c-1.54,4.234-2.917,8.501-4.842,12.582c-3.953,8.378-5.37,17.688-9.427,25.999
			c-1.715,3.513-3.183,7.248-3.72,11.149c-0.612,4.472,0.19,8.589-1.405,12.897c-2.961,7.996-3.988,16.373-6.323,24.52
			c-2.449,8.529-2.574,17.366-3.237,26.154c-0.337,4.524-1.2,8.704-0.962,13.35c0.262,5.133,0.953,10.248,0.894,15.397
			c-0.048,4.142,0.591,8.1,1.14,12.188c0.542,4.039,2.361,7.678,3.731,11.506c1.493,4.156,4.702,6.342,8.743,7.707
			c2.268,0.773,4.588,0.784,6.911,1.412c3.083,0.835,6.154,1.75,9.297,2.328c4.609,0.854,8.703,3.087,13.262,3.916
			c9.396,1.71,19.88,3.969,29.462,2.634c5.777-0.804,7.55-4.921,9.988-9.595"/>
		<path fill="none" stroke="#231F20" stroke-width="0.5" stroke-miterlimit="10" d="M86.088,167.888
			c1.701-4.324,3.337-8.559,5.133-12.778c0.889-2.083,1.561-4.182,2.416-6.313c0.892-2.208,1.153-5.456,2.512-7.221"/>
		<path fill="none" stroke="#231F20" stroke-width="0.5" stroke-miterlimit="10" d="M94.601,154.728
			c-0.43,6.158,0.355,12.871-0.76,18.842c-1.143,6.126-1.65,12.117-2.074,18.565c-0.231,3.482-0.963,7.273-0.776,10.834"/>
		<path fill="none" stroke="#231F20" stroke-width="0.5" stroke-miterlimit="10" d="M88.153,213.803
			c-0.15,3.189-1.933,6.291-2.921,9.307c-0.939,2.874-2.224,5.534-3.529,8.224c-2.547,5.254-4.919,10.426-7.051,15.771
			c-1.415,3.537-0.948,7.461-0.945,11.328"/>
		<path fill="none" stroke="#231F20" stroke-width="0.5" stroke-miterlimit="10" d="M77.833,248.111
			c1.879,7.967-0.253,16.867-0.257,25.027"/>
		<path fill="none" stroke="#231F20" stroke-width="0.5" stroke-miterlimit="10" d="M81.962,241.924
			c-2.253,0.428-2.372,4.391-2.282,6.152c4.338,0.958,5.081-6.961,2.022-6.152"/>
		<path fill="none" stroke="#231F20" stroke-width="0.5" stroke-miterlimit="10" d="M139.747,110.621
			c5.89,8.795,8.513,17.534,8.483,28.121c-0.025,9.96-1.741,19.786-2.776,29.672c-0.573,5.496-0.99,11-1.58,16.501"/>
		<path fill="none" stroke="#231F20" stroke-width="0.5" stroke-miterlimit="10" d="M138.196,164.275
			c-0.166,2.484,1.689,5.384,2.471,7.708c0.775,2.304,1.413,4.55,1.572,6.986c0.31,4.739,1.004,9.702,0.612,14.489
			c-0.373,4.512-2.288,9.051-3.142,13.533c-0.892,4.663-0.483,9.687-1.848,14.226c-1.517,5.05-1.565,10.263-1.471,15.543"/>
		<path fill="none" stroke="#231F20" stroke-width="0.5" stroke-miterlimit="10" d="M143.614,189.815
			c3.897-2.746,6.649-9.597,7.273-14.384c0.682-5.234,0.005-10.804,1.023-15.969c0.527-2.663,1.418-5.352,1.766-8.082"/>
		<path fill="none" stroke="#231F20" stroke-width="0.5" stroke-miterlimit="10" d="M159.867,119.39
			c2.104,3.411-0.382,7.626-1.032,11.154c-0.529,2.865-2.215,6.55-1.483,9.415c0.82,3.204,3.583,5.558,4.359,8.823
			c0.804,3.387-0.201,7.059,4.418,7.298c4.301,0.219,8.67-0.948,13.045-0.796c0.378,1.574-1.447,2.181-2.542,2.8"/>
		<path fill="none" stroke="#231F20" stroke-width="0.5" stroke-miterlimit="10" d="M177.925,162.988
			c2.908-0.954,7.033-2.654,10.061-1.552"/>
		<path fill="none" stroke="#231F20" stroke-width="0.5" stroke-miterlimit="10" d="M172.765,217.417
			c-0.829,0.426,1.721,5.626,2.065,6.935c0.586,2.23,0.513,5.956,2.32,7.511"/>
		<path fill="none" stroke="#231F20" stroke-width="0.5" stroke-miterlimit="10" d="M153.676,177.692
			c2.098-0.052,4.184-1.087,6.191-1.55"/>
		<path fill="none" stroke="#231F20" stroke-width="0.5" stroke-miterlimit="10" d="M154.447,168.918
			c0.902-1.026,1.735-2.015,2.84-2.839"/>
		<path fill="none" stroke="#231F20" stroke-width="0.5" stroke-miterlimit="10" d="M134.843,224.381
			c-2.021-5.132-8.58-9.393-13.593-11.21c-2.794-1.016-5.846-0.959-8.432,0.545c-1.5,0.872-2.731,2.129-4.25,2.979
			c-0.856,0.48-3.406,1.063-3.699,2.158c-0.752,2.798,7.843,1.778,9.336,1.916"/>
		<path fill="none" stroke="#231F20" stroke-width="0.5" stroke-miterlimit="10" d="M131.491,235.211
			c0.08-2.139,0.794-7.435-0.663-9.187c-1.352-1.628-5.069-0.7-6.832-0.22c-1.449,0.39-5.468,1.396-4.583,3.363
			c0.417,0.933,2.766,1.406,3.568,2.045c1.156,0.911,1.918,2.186,2.576,3.485"/>
		<path fill="none" stroke="#231F20" stroke-width="0.5" stroke-miterlimit="10" d="M120.657,233.666
			c-1.123-3.369-10.029-3.734-12.385-1.804"/>
		<path fill="none" stroke="#231F20" stroke-width="0.5" stroke-miterlimit="10" d="M120.396,232.894c-2.045,0-4.133-0.124-6.179,0
			c-2.14,0.133-3.904,0.989-6.123,1.046c2.384-1.222,5.353-1.263,7.89-1.872c-0.542-0.637-2.016-0.963-2.553-0.722"/>
		<path fill="none" stroke="#231F20" stroke-width="0.5" stroke-miterlimit="10" d="M96.665,241.409
			c-2.492,0.856-4.808,4.576-6.868,6.163c-1.59,1.227-7.288,3.793-7.287,5.919c1.736,0.383,3.147-1.137,4.613-1.761"/>
		<path fill="none" stroke="#231F20" stroke-width="0.5" stroke-miterlimit="10" d="M93.828,247.598
			c-4.757,4.893-5.626,13.519-10.576,18.058"/>
		<path fill="none" stroke="#231F20" stroke-width="0.5" stroke-miterlimit="10" d="M94.343,231.862
			c3.038-0.87,5.978-2.894,8.991-4.119c1.855-0.759,8.219-1.733,8.454-3.948c-0.654-0.248-1.362-0.098-1.967,0.331"/>
		<path fill="none" stroke="#231F20" stroke-width="0.5" stroke-miterlimit="10" d="M120.142,226.442
			c-3.514-1.219-9.293,2.159-12.661,3.298c-3.367,1.14-8.719,2.858-11.074,5.734"/>
		<path fill="none" stroke="#231F20" stroke-width="0.5" stroke-miterlimit="10" d="M104.919,239.085
			c-0.856-0.309-3.326,1.984-4.102,2.793c0.99-0.13,1.715-1.117,2.814-1.241"/>
		<path fill="none" stroke="#231F20" stroke-width="0.5" stroke-miterlimit="10" d="M125.815,234.699
			c0.367-1.074,4.959-0.594,5.997-0.069c0.798,0.406,1.259,1.18,2.001,1.623c0.93,0.555,1.935,0.354,2.812,0.759
			c0.943,0.431,1.247,1.013,2.23,1.298c1.027,0.298,2.308-0.176,3.364-0.007c1.77,0.285,3.521,1.548,5.105,2.361
			c1.128,0.582,1.373,0.86,2.737,1.004c1.104,0.131,2.558-0.337,2.841,1.03"/>
		<path fill="none" stroke="#231F20" stroke-width="0.5" stroke-miterlimit="10" d="M152.902,242.955
			c4.236,0.067,8.215-3.389,12.714-2.848c4.468,0.539,8.522,2.754,12.948,3.354c1.777,0.234,6.329,0.147,6.841,2.328"/>
		<path fill="none" stroke="#231F20" stroke-width="0.5" stroke-miterlimit="10" d="M185.146,245.274
			c-3.137,0.939-5.195,7.307-6.781,9.804c-2.422,3.828-4.695,7.642-7.149,11.36c-1.311,1.979-2.106,4.309-3.611,6.183"/>
		<path fill="none" stroke="#231F20" stroke-width="0.5" stroke-miterlimit="10" d="M150.58,249.15
			c0.292,3.415-1.074,7.135-1.745,10.458c-0.579,2.874-1.06,5.668-1.778,8.507c-1.225,4.862-1.811,9.88-2.148,14.838
			c-0.186,2.72-0.428,5.487-0.217,8.206c2.396-1.066,5.506-0.891,8.093-1.763c1.553-0.52,5.706-2.663,7.082-1.554"/>
		<path fill="none" stroke="#231F20" stroke-width="0.5" stroke-miterlimit="10" d="M160.384,287.583
			c4.664-0.911,9.009,3.658,13.645,3.298c-1.294-2.276-2.675-5.941-2.548-8.722c0.147-3.176-1.581-5.411-2.914-8.397
			c-1.256-2.815-3.124-4.885-4.835-7.352c-1.798-2.587-3.177-5.524-5.083-8.03c-0.873-1.148-1.831-2.074-2.458-3.348
			c-0.318-0.644-0.425-1.809-0.773-2.335c-0.565-0.858-1.426-0.805-1.741-1.748"/>
		<path fill="none" stroke="#231F20" stroke-width="0.5" stroke-miterlimit="10" d="M154.447,251.987
			c0.004,4.828,0.82,9.135,2.008,13.68c1.156,4.431,1.557,8.8,2.195,13.417c0.376,2.709,0.81,5.183,1.734,7.724"/>
		<path fill="none" stroke="#231F20" stroke-width="0.5" stroke-miterlimit="10" d="M158.576,248.111
			c-0.471,0.787,0.682,1.394,1.32,2.067c-0.347,0.183-0.512,0.474-1.023,0.561c-0.236,0.461-0.337,1.202-0.258,1.725
			c0.818,0.132,1.765,0.045,2.502-0.138c0.043,0.522,0.139,1.198,0.039,1.725"/>
		<path fill="none" stroke="#231F20" stroke-width="0.5" stroke-miterlimit="10" d="M158.576,244.244
			c-0.463,0.113-1.098,0.365-1.613,0.737c-0.287-0.042-0.347-0.183-0.683-0.183c0.843,0.66,2.114,2.541-0.244,2.063
			c-0.176,0.448,0.021,0.628,0.218,0.993"/>
		<path fill="none" stroke="#231F20" stroke-width="0.5" stroke-miterlimit="10" d="M124.009,292.227
			c-0.187-0.068-0.45,0.112-0.357-0.057c2.949-1.205,6.316-1.52,9.348-2.466c1.844-0.571,4.806-0.956,5.973-1.862"/>
		<path fill="none" stroke="#231F20" stroke-width="0.5" stroke-miterlimit="10" d="M104.146,286.29
			c4.182,0,8.707,0.443,12.125,2.842"/>
		<path fill="none" stroke="#231F20" stroke-width="0.5" stroke-miterlimit="10" d="M151.868,294.286
			c6.551,0.017,13.153-0.849,18.832-3.863"/>
		<path fill="none" stroke="#231F20" stroke-width="0.5" stroke-miterlimit="10" d="M173.797,289.91
			c2.206,0.08,6.067-1.846,7.131-3.831c-2.963-0.309-6.569,0.09-9.289-1.02c-0.117-0.232,0.249,0.154,0.352,0.2"/>
		<path fill="none" stroke="#231F20" stroke-width="0.5" stroke-miterlimit="10" d="M146.452,210.708
			c1.26,1.263,5.97,2.206,8.254,2.064"/>
		<path fill="none" stroke="#231F20" stroke-width="0.5" stroke-miterlimit="10" d="M151.094,198.841
			c1.047-0.052,2.06-0.351,3.098-0.515"/>
		<path fill="none" stroke="#231F20" stroke-width="0.5" stroke-miterlimit="10" d="M241.64,157.826
			c-3.105,0.365-1.35,6.6,1.266,6.11c1.502-0.278,1.792-2.73,1.588-3.948c-0.363-2.152-1.607-2.256-3.627-2.163"/>
		<path fill="none" stroke="#231F20" stroke-width="0.5" stroke-miterlimit="10" d="M258.409,153.441
			c0.176,2.026,2.075,4.956,2.835,6.991c0.916,2.452,1.724,5.182,2.526,7.78c1.771,5.724,3.824,11.567,4.191,17.588
			c0.182,2.97,1.645,6.426,1.279,9.431"/>
		<path fill="none" stroke="#231F20" stroke-width="0.5" stroke-miterlimit="10" d="M258.924,153.441
			c-0.122,0.004-0.109-0.509-0.234-0.078c1.912,1.048,5.293,0.996,7.489,1.391c2.505,0.448,4.055,1.124,6.041,2.813
			c1.71,1.454,3.583,2.834,5.144,4.406c1.407,1.424,2.69,3.615,4.776,4.106"/>
		<path fill="none" stroke="#231F20" stroke-width="0.5" stroke-miterlimit="10" d="M271.049,141.317
			c2.833,2.283,5.075,6.837,7.143,9.863c2.27,3.306,4.789,6.45,6.82,9.932c1.415,2.428,1.394,4.828,1,7.547"/>
		<path fill="none" stroke="#231F20" stroke-width="0.5" stroke-miterlimit="10" d="M280.852,161.18
			c0.471,1.793,2.047,3.165,2.99,4.632c1.015,1.572,1.435,3.185,1.686,5.028c0.512,3.839,1.867,7.882,2.053,11.717
			c0.193,3.833,0.758,7.311-0.204,11.112c-1.038,4.103-1.538,7.404-1.02,11.644c0.512,4.219,1.484,8.561,1.458,12.875"/>
		<path fill="none" stroke="#231F20" stroke-width="0.5" stroke-miterlimit="10" d="M248.348,95.402
			c4.442,0.943,8.917,5.178,12.045,8.285c3.381,3.348,7.343,5.987,10.831,9.228c3.732,3.467,6.171,7.736,9.583,11.421
			c3.451,3.72,6.572,7.176,9.008,11.706c4.295,7.972,5.486,16.765,3.937,25.503c-1.079,6.091-2.357,11.852-3.012,18.039
			c-0.361,3.441-2.188,6.595-2.061,9.976"/>
		<path fill="none" stroke="#231F20" stroke-width="0.5" stroke-miterlimit="10" d="M291.687,149.056
			c-1.448,0.963-1.64,4.224-2.064,5.937"/>
		<path fill="none" stroke="#231F20" stroke-width="0.5" stroke-miterlimit="10" d="M285.754,138.737c0,2.313,1.05,8.447,0,10.06"/>
		<path fill="none" stroke="#231F20" stroke-width="0.5" stroke-miterlimit="10" d="M256.346,132.807
			c1.035,0.469,3.194,2.139,4.125,3.348"/>
		<path fill="none" stroke="#231F20" stroke-width="0.5" stroke-miterlimit="10" d="M232.097,120.164
			c2.906-0.006,5.897-0.398,8.77-0.259"/>
		<path fill="none" stroke="#231F20" stroke-width="0.5" stroke-miterlimit="10" d="M228.999,119.39
			c-0.256-0.335-0.542-0.644-0.99-0.752c-0.108,1.695,1.258,2.602,2.293,3.756c-0.004-1.061-0.695-1.87-1.304-2.748"/>
		<path fill="none" stroke="#231F20" stroke-width="0.5" stroke-miterlimit="10" d="M293.752,163.762c0-0.089,0-0.172,0-0.259"/>
		<path fill="none" stroke="#231F20" stroke-width="0.5" stroke-miterlimit="10" d="M184.633,245.533
			c9.051,0.771,18.171,1.2,27.254,0.642c10.192-0.622,14.483-5.906,18.879-14.543c2.177-4.276,4.738-8.243,7.522-12.149"/>
		<path fill="none" stroke="#231F20" stroke-width="0.5" stroke-miterlimit="10" d="M238.546,219.225
			c4.831-4.369,10.115-8.362,14.367-13.325c3.119-3.638,7.541-12.222,13.4-11.004c7.665,1.598,4.121,11.222,1.572,15.391
			c-1.6,2.621-3.314,5.204-5.596,7.284c-2.223,2.026-5.333,3.663-6.743,6.431c-1.96,3.848,1.747,4.912,4.915,5.261
			c3.249,0.36,6.474,0.178,8.78,2.858"/>
		<path fill="none" stroke="#231F20" stroke-width="0.5" stroke-miterlimit="10" d="M266.922,230.059
			c1.824-2.406,4.218-3.513,7.203-3.671c-0.03-0.018-0.372-0.188-0.454-0.244c-0.227-2.406,2.888-6.112,5.117-6.919"/>
		<path fill="none" stroke="#231F20" stroke-width="0.5" stroke-miterlimit="10" d="M275.952,221.027
			c-2.4-2.891-7.339-7.249-4.937-11.473c2.775-4.874,7.883,1.286,10.137,3.406c2.964,2.786,7.242,4.765,8.795,8.756
			c2.141,5.504-2.503,8.076-5.493,11.765c-1.626,2.013-2.099,4.28-3.197,6.537c-1.53,3.139-4.513,5.373-7.115,7.58"/>
		<path fill="none" stroke="#231F20" stroke-width="0.5" stroke-miterlimit="10" d="M288.073,229.023
			c0.132-0.264-0.156-0.427,0.181-0.475c6.933,3.576-4.122,13.243-4.565,16.984"/>
		<path fill="none" stroke="#231F20" stroke-width="0.5" stroke-miterlimit="10" d="M287.3,240.12
			c-0.962,2.101,0.11,4.768-0.906,6.945c-0.891,1.913-2.734,3.335-3.22,5.438"/>
		<path fill="none" stroke="#231F20" stroke-width="0.5" stroke-miterlimit="10" d="M284.72,250.694
			c-0.159-0.046-0.087-0.557-0.284-0.024c2.133,4.032-1.664,9.443-3.948,12.674c-2.027,2.862-4.203,6.96-7.516,8.521
			c-1.72,0.809-3.173,0.104-5.044,0.35c-2.028,0.263-3.952,1.026-5.96,1.383c-2.979,0.52-5.862,1.426-8.89,0.761
			c-2.933-0.64-6.013-0.854-9.066-1.22c-3.153-0.383-4.618,0.896-7.491,1.807c-2.726,0.867-6.11,0.011-8.914,0.541
			c-3.049,0.583-6.104,1.624-9.203,2.161c-6.503,1.124-12.859,2.317-19.375,3.758c-3.438,0.766-6.971,0.755-10.313,1.742
			c-2.543,0.754-6.972,0.924-8.987,2.628"/>
		<path fill="none" stroke="#231F20" stroke-width="0.5" stroke-miterlimit="10" d="M279.303,256.109
			c-0.947,0.413-2.258,1.685-2.837,1.552"/>
		<path fill="none" stroke="#231F20" stroke-width="0.5" stroke-miterlimit="10" d="M278.014,263.847
			c-0.589,0.17-1.217,0.353-1.806,0.516"/>
		<path fill="none" stroke="#231F20" stroke-width="0.5" stroke-miterlimit="10" d="M270.016,213.803
			c-0.92-0.819-2.121-2.091-3.352-2.316"/>
		<path fill="none" stroke="#231F20" stroke-width="0.5" stroke-miterlimit="10" d="M261.761,218.447
			c-0.406,2.603,5.129,6.161,6.708,7.995"/>
		<path fill="none" stroke="#231F20" stroke-width="0.5" stroke-miterlimit="10" d="M262.279,220.769
			c-4.757-0.07-0.292,7.245,0,8.773"/>
		<path fill="none" stroke="#231F20" stroke-width="0.5" stroke-miterlimit="10" d="M258.924,201.165
			c-0.896,1.84,4.733,4.509,6.127,4.881c1.266-2.283,2.78-5.023,4.475-6.941c-0.822-1.076-3.345-3.821-4.762-3.811
			c-1.615,0.011-4.216,3.528-4.808,4.844"/>
		<path fill="none" stroke="#231F20" stroke-width="0.5" stroke-miterlimit="10" d="M266.404,272.879
			c0.561,2.328,1.579,4.824,1.801,7.6c0.223,2.776,0.633,5.713,0.992,8.518c0.747,5.848,0.687,11.519,1.079,17.455
			c0.357,5.435,2.394,11.063,3.835,16.348c1.355,4.956,3.029,9.928,4.229,14.793c1.524,6.187-1.74,11.932-1.875,18.095"/>
		<path fill="none" stroke="#231F20" stroke-width="0.5" stroke-miterlimit="10" d="M288.335,186.461
			c0.256,2.71,0.006,5.41-0.017,7.899c-0.026,2.61,0.878,4.646,1.399,7.119c0.807,3.874,0.336,8.413,0.34,12.484
			c0,4.091,1.175,7.254,1.706,11.03c1.492,10.651,0.962,21.527,2.242,32.155c0.333,2.771,1.3,5.832,1.803,8.614
			c1.103,6.111,1.174,12.263,0.781,18.48c-0.187,2.958,0.519,5.963,0.514,8.995c-0.003,2.819,0.406,5.669,1.137,8.373
			c1.514,5.611,2.625,10.709,3.321,16.426c0.39,3.195,0.956,6.169,0.956,9.511c0,2.004,0.773,7.997-0.254,9.047"/>
		<path fill="none" stroke="#231F20" stroke-width="0.5" stroke-miterlimit="10" d="M297.362,327.571
			c3.397,2.75,4.941,9.563,6.362,13.499c1.654,4.594,3.163,9.489,3.181,14.358"/>
		<path fill="none" stroke="#231F20" stroke-width="0.5" stroke-miterlimit="10" d="M125.042,298.161
			c-0.56,1.063-0.441,3.603-0.527,4.92c-0.11,1.722-0.146,3.484-0.242,5.154c-0.203,3.58-0.305,7.089-0.521,10.684
			c-0.414,6.84-1.887,13.521-2.583,20.234c-0.259,2.504-1.602,12.587,0.518,13.695"/>
		<path fill="none" stroke="#231F20" stroke-width="0.5" stroke-miterlimit="10" d="M137.166,299.707
			c0.584,2.591,3.909,4.463,3.521,7.521c-0.302,2.383-1.891,4.896-2.366,7.321c-0.603,3.078-0.39,5.193,1.176,7.972
			c0.499,0.887,2.309,2.778,2.072,3.896c-0.206,0.995-2.896,2.574-3.888,2.7"/>
		<path fill="none" stroke="#231F20" stroke-width="0.5" stroke-miterlimit="10" d="M169.154,305.378
			c3.567,1.683,8.583,2.478,11.349,5.421"/>
		<path fill="none" stroke="#231F20" stroke-width="0.5" stroke-miterlimit="10" d="M173.538,340.722
			c4.125,0.729,8.791,3.094,12.384,5.159"/>
		<path fill="none" stroke="#231F20" stroke-width="0.5" stroke-miterlimit="10" d="M154.191,333.245
			c1.506,1.52,6.427,3.878,6.902,5.98c0.598,2.658-4.144,3.328-5.081,5.327c0.327,0.065,0.679,0.083,1.015,0.042"/>
		<path fill="none" stroke="#231F20" stroke-width="0.5" stroke-miterlimit="10" d="M239.318,318.28
			c0.261-0.252,2.034-1.365,2.839-1.807"/>
		<path fill="none" stroke="#231F20" stroke-width="0.5" stroke-miterlimit="10" d="M245.253,332.468
			c5.649,0.263,10.397,5.459,15.994,5.933"/>
		<path fill="none" stroke="#231F20" stroke-width="0.5" stroke-miterlimit="10" d="M273.372,345.881
			c0.678,1.628,2.803,3.575,3.87,4.903"/>
		<path fill="none" stroke="#231F20" stroke-width="0.5" stroke-miterlimit="10" d="M275.177,344.079
			c0.694,0.315,1.51,0.319,2.323,0.257"/>
		<path fill="none" stroke="#231F20" stroke-width="0.5" stroke-miterlimit="10" d="M289.879,328.601
			c0.585,1.215,2.274,2.067,3.236,3.096c1.367,1.452,1.689,2.561,2.183,4.387"/>
		<path fill="none" stroke="#231F20" stroke-width="0.5" stroke-miterlimit="10" d="M288.588,280.103
			c1.075,1.417,2.519,4.565,3.356,6.704"/>
		<path fill="none" stroke="#231F20" stroke-width="0.5" stroke-miterlimit="10" d="M216.618,203.489
			c1.046-0.814,2.551-1.472,3.871-1.552"/>
		<g>
			<g>
				<path fill="none" stroke="#231F20" stroke-width="0.5" stroke-miterlimit="10" d="M318.084,184.179
					c-0.09,0.169-0.186,0.361-0.261,0.52c2.903-4.935,5.921-9.845,6.065-15.738c0.144-5.963-1.667-11.83,0.391-17.654
					c0.904-2.554,2.242-4.939,3.162-7.495c1.023-2.839,1.554-5.817,2.475-8.687c0.59-1.848,1.542-4.585,3.814-4.863
					c2.205-0.263,3.943,1.959,4.759,3.72c2.546,5.521-0.687,11.134-0.071,16.782c0.623,5.739,5.895,4.957,9.754,2.761
					c4.93-2.809,9.486-6.625,13.438-10.669c3.204-3.283,8.624-10.734,14.053-9.535c5.737,1.27,0.497,8.77-1.591,10.867
					c-3.363,3.389-6.939,6.25-9.924,10.028c-0.764,0.957-1.508,1.93-2.26,2.9"/>
				<path fill="none" stroke="#231F20" stroke-width="0.5" stroke-miterlimit="10" d="M361.789,156.28
					c-0.586,1.065,2.046,1.73,2.898,1.526"/>
				<path fill="none" stroke="#231F20" stroke-width="0.5" stroke-miterlimit="10" d="M363.457,157.438
					c7.073-5.352,12.926-12.143,19.676-17.884c1.947-1.659,8.274-6.448,10.188-2.296c1.741,3.795-3.548,8.478-5.846,10.761
					c-3.233,3.206-5.941,6.813-8.808,10.336"/>
				<path fill="none" stroke="#231F20" stroke-width="0.5" stroke-miterlimit="10" d="M370.17,162.586
					c-0.073-0.046-0.104-0.196-0.209-0.252c0.314,0.978,2.029,1.994,2.164,2.396"/>
				<path fill="none" stroke="#231F20" stroke-width="0.5" stroke-miterlimit="10" d="M373.075,162.749
					c2.667-2.178,5.595-3.404,8.567-5.056c2.816-1.561,4.936-3.969,7.386-6.008c3.121-2.602,12.255-11.634,16.614-7.333
					c2.921,2.88-1.924,6.437-4.15,7.576"/>
				<path fill="none" stroke="#231F20" stroke-width="0.5" stroke-miterlimit="10" d="M376.664,170.134
					c0.677,0.406,1.435,0.969,2.04,1.454"/>
				<path fill="none" stroke="#231F20" stroke-width="0.5" stroke-miterlimit="10" d="M377.913,170.664
					c3.164-1.685,6.169-3.478,8.545-6.213c2.383-2.741,4.153-5.956,6.821-8.454c1.692-1.587,5.325-4.463,7.869-3.139
					c2.627,1.365,0.389,5.328-0.63,7.013c-3.748,6.182-9.437,12.047-14.875,16.791c-5.007,4.37-10.863,7.619-16.156,11.619
					c-5.421,4.1-10.749,7.728-17.799,7.697c-0.729-0.007-1.456-0.036-2.186-0.067"/>
			</g>
			<path fill="none" stroke="#231F20" stroke-width="0.5" stroke-miterlimit="10" d="M318.149,184.077
				c-6.763,9.371-13.593,18.551-22.037,26.997c-1.986,1.984-4.05,4.376-6.152,5.997"/>
			<path fill="none" stroke="#231F20" stroke-width="0.5" stroke-miterlimit="10" d="M353.067,195.926
				c-3.168,1.761-5.484,4.193-7.625,6.98c-2.234,2.912-5.071,5.389-7.408,8.282c-5.018,6.21-8.994,13.184-13.904,19.479
				c-7.38,9.463-11.486,21.164-18.696,30.607c-3.129,4.098-5.144,10.288-8.75,13.773"/>
		</g>
	</g>
</g>
</svg>
