<svg height="392" width="297" xmlns="http://www.w3.org/2000/svg"><path d="M148 196 C 148 193 148 196 148 193  C 156 193 148 193 156 193  C 156 191 156 193 156 191  C 166 191 156 191 166 191  C 166 192 166 191 166 192  C 166 189 166 192 166 189  C 157 189 166 189 157 189  C 157 187 157 189 157 187  C 177 187 157 187 177 187  C 177 188 177 187 177 188  C 184 188 177 188 184 188  C 182 188 184 188 182 188  C 182 192 182 188 182 192  C 182 204 182 192 182 204  C 182 204 182 204 182 204  C 182 210 182 204 182 210  C 182 229 182 210 182 229  C 182 233 182 229 182 233  C 182 261 182 233 182 261  C 182 268 182 261 182 268  C 182 268 182 268 182 268  C 203 268 182 268 203 268  C 203 268 203 268 203 268  C 203 282 203 268 203 282  C 203 282 203 282 203 282  C 203 284 203 282 203 284  C 203 294 203 284 203 294  C 192 294 203 294 192 294  C 186 294 192 294 186 294  C 180 294 186 294 180 294  C 180 291 180 294 180 291  C 179 291 180 291 179 291  C 178 291 179 291 178 291  C 202 291 178 291 202 291  C 202 281 202 291 202 281  C 202 281 202 281 202 281  C 192 281 202 281 192 281  C 195 281 192 281 195 281  C 200 281 195 281 200 281  C 200 280 200 281 200 280  C 208 280 200 280 208 280  C 216 280 208 280 216 280  C 226 280 216 280 226 280  C 226 283 226 280 226 283  C 226 280 226 283 226 280  C 223 280 226 280 223 280  C 223 243 223 280 223 243  C 224 243 223 243 224 243  C 224 253 224 243 224 253  C 228 253 224 253 228 253  C 228 247 228 253 228 247  C 228 244 228 247 228 244  C 223 244 228 244 223 244  C 224 244 223 244 224 244  C 224 247 224 244 224 247  C 230 247 224 247 230 247  C 229 247 230 247 229 247  C 229 276 229 247 229 276  C 236 276 229 276 236 276  C 228 276 236 276 228 276  C 228 290 228 276 228 290  C 203 290 228 290 203 290  C 204 290 203 290 204 290  C 202 290 204 290 202 290  C 201 290 202 290 201 290  C 181 290 201 290 181 290  C 181 289 181 290 181 289  C 181 290 181 289 181 290  C 181 292 181 290 181 292  C 181 302 181 292 181 302  C 179 302 181 302 179 302  C 179 299 179 302 179 299  C 179 299 179 299 179 299  C 179 321 179 299 179 321  C 179 325 179 321 179 325  C 174 325 179 325 174 325  C 174 319 174 325 174 319  C 177 319 174 319 177 319  C 179 319 177 319 179 319  C 179 319 179 319 179 319  C 179 304 179 319 179 304  C 179 310 179 304 179 310  C 179 313 179 310 179 313  C 171 313 179 313 171 313  C 174 313 171 313 174 313  C 169 313 174 313 169 313  C 169 315 169 313 169 315  C 169 314 169 315 169 314  C 175 314 169 314 175 314  C 174 314 175 314 174 314  C 174 321 174 314 174 321  C 174 327 174 321 174 327  C 186 327 174 327 186 327  C 185 327 186 327 185 327  C 185 332 185 327 185 332  C 185 332 185 332 185 332  C 185 325 185 332 185 325  C 185 325 185 325 185 325  C 183 325 185 325 183 325  C 180 325 183 325 180 325  C 180 308 180 325 180 308  C 180 300 180 308 180 300  C 180 300 180 300 180 300  C 177 300 180 300 177 300  C 198 300 177 300 198 300  C 208 300 198 300 208 300  C 213 300 208 300 213 300  C 219 300 213 300 219 300  C 219 302 219 300 219 302  C 221 302 219 302 221 302  C 223 302 221 302 223 302  C 223 330 223 302 223 330  C 223 330 223 330 223 330  C 223 344 223 330 223 344  C 223 344 223 344 223 344  C 225 344 223 344 225 344  C 221 344 225 344 221 344  C 225 344 221 344 225 344  C 225 344 225 344 225 344  C 225 344 225 344 225 344  C 225 345 225 344 225 345  C 222 345 225 345 222 345  C 243 345 222 345 243 345  C 235 345 243 345 235 345  C 253 345 235 345 253 345  C 265 345 253 345 265 345  C 270 345 265 345 270 345  C 268 345 270 345 268 345  C 267 345 268 345 267 345  C 275 345 267 345 275 345  C 276 345 275 345 276 345  C 276 324 276 345 276 324  C 276 324 276 324 276 324  C 276 327 276 324 276 327  C 265 327 276 327 265 327  C 226 210 188 93 150 -24  C 168 -24 150 -24 168 -24  C 167 -24 168 -24 167 -24  C 167 -22 167 -24 167 -22  C 174 -22 167 -22 174 -22  C 174 -14 174 -22 174 -14  C 198 -14 174 -14 198 -14  C 198 3 198 -14 198 3  C 198 3 198 3 198 3  C 198 4 198 3 198 4  C 204 4 198 4 204 4  C 203 4 204 4 203 4  C 203 14 203 4 203 14  C 198 14 203 14 198 14  C 207 14 198 14 207 14  C 195 14 207 14 195 14  C 190 14 195 14 190 14  C 190 20 190 14 190 20  C 190 6 190 20 190 6  C 202 6 190 6 202 6  C 202 5 202 6 202 5  C 202 10 202 5 202 10  C 208 10 202 10 208 10  C 208 8 208 10 208 8  C 208 3 208 8 208 3  C 208 4 208 3 208 4  C 201 4 208 4 201 4  C 200 4 201 4 200 4  C 199 4 200 4 199 4  C 210 4 199 4 210 4  C 210 1 210 4 210 1  C 210 10 210 1 210 10  C 183 10 210 10 183 10  C 192 10 183 10 192 10  C 192 11 192 10 192 11  C 191 11 192 11 191 11  C 191 15 191 11 191 15  C 203 15 191 15 203 15  C 210 15 203 15 210 15  C 220 15 210 15 220 15  C 220 9 220 15 220 9  C 221 9 220 9 221 9  C 221 10 221 9 221 10  C 221 10 221 10 221 10  C 221 10 221 10 221 10  C 222 10 221 10 222 10  C 213 10 222 10 213 10  C 213 20 213 10 213 20  C 213 19 213 20 213 19  C 217 19 213 19 217 19  C 221 19 217 19 221 19  C 221 23 221 19 221 23  C 221 20 221 23 221 20  C 217 20 221 20 217 20  C 217 32 217 20 217 32  C 223 32 217 32 223 32  C 221 32 223 32 221 32  C 223 32 221 32 223 32  C 220 32 223 32 220 32  C 220 58 220 32 220 58  C 219 58 220 58 219 58  C 221 58 219 58 221 58  C 220 58 221 58 220 58  C 220 63 220 58 220 63  C 220 78 220 63 220 78  C 220 78 220 78 220 78  C 218 78 220 78 218 78  C 208 78 218 78 208 78  C 208 81 208 78 208 81  C 208 81 208 81 208 81  C 208 79 208 81 208 79  C 215 79 208 79 215 79  C 215 80 215 79 215 80  C 215 57 215 80 215 57  C 215 59 215 57 215 59  C 213 59 215 59 213 59  C 213 69 213 59 213 69  C 213 60 213 69 213 60  C 213 54 213 60 213 54  C 213 58 213 54 213 58  C 213 87 213 58 213 87  C 215 87 213 87 215 87  C 215 86 215 87 215 86  C 223 86 215 86 223 86  C 223 91 223 86 223 91  C 228 91 223 91 228 91  C 223 91 228 91 223 91  C 220 91 223 91 220 91  C 220 107 220 91 220 107  C 220 134 220 107 220 134  C 220 182 220 134 220 182  C 223 182 220 182 223 182  C 220 182 223 182 220 182  C 220 173 220 182 220 173  C 220 177 220 173 220 177  C 220 170 220 177 220 170  C 226 170 220 170 226 170  C 226 180 226 170 226 180  C 225 180 226 180 225 180  C 225 178 225 180 225 178  C 225 179 225 178 225 179  C 225 177 225 179 225 177  C 225 178 225 177 225 178  C 225 181 225 178 225 181  C 233 181 225 181 233 181  C 233 178 233 181 233 178  C 233 180 233 178 233 180  C 233 181 233 180 233 181  C 236 181 233 181 236 181  C 257 181 236 181 257 181  C 257 185 257 181 257 185  C 257 182 257 185 257 182  C 257 182 257 182 257 182  C 267 182 257 182 267 182  C 267 178 267 182 267 178  C 283 178 267 178 283 178  C 283 183 283 178 283 183  C 279 183 283 183 279 183  C 286 183 279 183 286 183  C 286 192 286 183 286 192  C 286 192 286 192 286 192  C 286 191 286 192 286 191  C 287 191 286 191 287 191  C 287 190 287 191 287 190  C 287 210 287 190 287 210  C 287 222 287 210 287 222  C 287 213 287 222 287 213  C 287 213 287 213 287 213  C 280 213 287 213 280 213  C 276 213 280 213 276 213  C 276 216 276 213 276 216  C 276 213 276 216 276 213  C 276 201 276 213 276 201  C 280 201 276 201 280 201  C 280 197 280 201 280 197  C 275 197 280 197 275 197  C 277 197 275 197 277 197  C 297 197 277 197 297 197  C 297 200 297 197 297 200  C 297 191 297 200 297 191  C 297 189 297 191 297 189  C 297 210 297 189 297 210  C 296 210 297 210 296 210  C 291 210 296 210 291 210  C 291 214 291 210 291 214  C 300 214 291 214 300 214  C 300 218 300 214 300 218  C 300 216 300 218 300 216  C 309 216 300 216 309 216  C 311 216 309 216 311 216  C 310 216 311 216 310 216  C 315 216 310 216 315 216  C 317 216 315 216 317 216  C 317 215 317 216 317 215  C 317 200 317 215 317 200  C 317 213 317 200 317 213  C 317 213 317 213 317 213  C 326 213 317 213 326 213  C 337 213 326 213 337 213  C 331 213 337 213 331 213  C 326 213 331 213 326 213  C 325 213 326 213 325 213  C 327 213 325 213 327 213  C 336 213 327 213 336 213  C 337 213 336 213 337 213  C 337 214 337 213 337 214  C 341 214 337 214 341 214  C 341 214 341 214 341 214  C 337 214 341 214 337 214  C 352 214 337 214 352 214  C 344 214 352 214 344 214  C 344 214 344 214 344 214  C 353 214 344 214 353 214  C 354 214 353 214 354 214  C 354 201 354 214 354 201  C 357 201 354 201 357 201  C 357 218 357 201 357 218  C 357 223 357 218 357 223  C 360 223 357 223 360 223  C 367 223 360 223 367 223  C 367 226 367 223 367 226  C 363 226 367 226 363 226  C 354 226 363 226 354 226  C 354 234 354 226 354 234  C 354 239 354 234 354 239  C 334 239 354 239 334 239  C 334 233 334 239 334 233  C 334 233 334 233 334 233  C 334 240 334 233 334 240  C 334 245 334 240 334 245  C 334 246 334 245 334 246  C 335 246 334 246 335 246  C 335 246 335 246 335 246  C 335 253 335 246 335 253  C 335 253 335 253 335 253  C 337 253 335 253 337 253  C 337 262 337 253 337 262  C 338 262 337 262 338 262  C 338 265 338 262 338 265  C 342 265 338 265 342 265  C 342 258 342 265 342 258  C 342 253 342 258 342 253  C 342 251 342 253 342 251  C 342 239 342 251 342 239  C 342 232 342 239 342 232  C 342 235 342 232 342 235  C 343 235 342 235 343 235  C 343 236 343 235 343 236  C 345 236 343 236 345 236  C 345 244 345 236 345 244  C 349 244 345 244 349 244  C 360 244 349 244 360 244  C 360 247 360 244 360 247  C 360 255 360 247 360 255  C 360 266 360 255 360 266  C 360 273 360 266 360 273  C 354 273 360 273 354 273  C 354 273 354 273 354 273  C 363 273 354 273 363 273  C 357 273 363 273 357 273  C 357 272 357 273 357 272  C 357 293 357 272 357 293  C 357 306 357 293 357 306  C 348 306 357 306 348 306  C 347 306 348 306 347 306  C 347 307 347 306 347 307  C 345 307 347 307 345 307  C 345 312 345 307 345 312  C 345 386 345 312 345 386  C 345 395 345 386 345 395  C 345 389 345 395 345 389  C 344 389 345 389 344 389  C 344 401 344 389 344 401  C 344 402 344 401 344 402  C 344 401 344 402 344 401  C 344 402 344 401 344 402  C 350 402 344 402 350 402  C 350 403 350 402 350 403  C 350 410 350 403 350 410  C 350 453 350 410 350 453  C 350 457 350 453 350 457  C 354 457 350 457 354 457  C 366 457 354 457 366 457  C 384 457 366 457 384 457  C 384 467 384 457 384 467  C 384 467 384 467 384 467  C 385 467 384 467 385 467  C 394 467 385 467 394 467  C 398 467 394 467 398 467  C 398 495 398 467 398 495  C 410 495 398 495 410 495  C 410 483 410 495 410 483  C 406 483 410 483 406 483  C 406 480 406 483 406 480  C 406 480 406 480 406 480  C 406 477 406 480 406 477  C 406 490 406 477 406 490  C 406 489 406 490 406 489  C 406 517 406 489 406 517  C 405 517 406 517 405 517  C 405 514 405 517 405 514  C 411 514 405 514 411 514  C 402 514 411 514 402 514  C 402 511 402 514 402 511  C 402 514 402 511 402 514  C 402 495 402 514 402 495 Z"/>
</svg>