<svg height="392" width="297" xmlns="http://www.w3.org/2000/svg"><path d="M148 196 C 148 201 148 196 148 201  C 148 201 148 201 148 201  C 169 201 148 201 169 201  C 169 202 169 201 169 202  C 178 202 169 202 178 202  C 178 230 178 202 178 230  C 178 225 178 230 178 225  C 178 225 178 225 178 225  C 178 223 178 225 178 223  C 178 221 178 223 178 221  C 178 223 178 221 178 223  C 172 223 178 223 172 223  C 172 223 172 223 172 223  C 174 223 172 223 174 223  C 174 220 174 223 174 220  C 174 217 174 220 174 217  C 174 238 174 217 174 238  C 174 247 174 238 174 247  C 174 247 174 247 174 247  C 174 235 174 247 174 235  C 174 227 174 235 174 227  C 174 221 174 227 174 221  C 174 218 174 221 174 218  C 174 211 174 218 174 211  C 180 211 174 211 180 211  C 204 211 180 211 204 211  C 208 211 204 211 208 211  C 210 211 208 211 210 211  C 216 211 210 211 216 211  C 216 230 216 211 216 230  C 216 193 216 230 216 193  C 219 193 216 193 219 193  C 217 193 219 193 217 193  C 217 195 217 193 217 195  C 217 199 217 195 217 199  C 229 199 217 199 229 199  C 238 199 229 199 238 199  C 238 228 238 199 238 228  C 239 228 238 228 239 228  C 239 248 239 228 239 248  C 239 251 239 248 239 251  C 239 261 239 251 239 261  C 241 261 239 261 241 261  C 236 261 241 261 236 261  C 236 265 236 261 236 265  C 236 267 236 265 236 267  C 238 267 236 267 238 267  C 238 266 238 267 238 266  C 247 266 238 266 247 266  C 249 266 247 266 249 266  C 250 266 249 266 250 266  C 250 271 250 266 250 271  C 250 276 250 271 250 276  C 253 276 250 276 253 276  C 259 276 253 276 259 276  C 259 275 259 276 259 275  C 259 272 259 275 259 272  C 259 277 259 272 259 277  C 263 277 259 277 263 277  C 262 277 263 277 262 277  C 261 277 262 277 261 277  C 261 267 261 277 261 267  C 261 281 261 267 261 281  C 261 282 261 281 261 282  C 261 279 261 282 261 279  C 260 279 261 279 260 279  C 266 279 260 279 266 279  C 266 282 266 279 266 282  C 266 283 266 282 266 283  C 266 286 266 283 266 286  C 266 274 266 286 266 274  C 266 274 266 274 266 274  C 266 275 266 274 266 275  C 266 272 266 275 266 272  C 266 272 266 272 266 272  C 265 272 266 272 265 272  C 265 286 265 272 265 286  C 265 297 265 286 265 297  C 265 298 265 297 265 298  C 264 298 265 298 264 298  C 264 296 264 298 264 296  C 264 284 264 296 264 284  C 264 312 264 284 264 312  C 255 312 264 312 255 312  C 267 312 255 312 267 312  C 267 303 267 312 267 303  C 267 296 267 303 267 296  C 267 296 267 296 267 296  C 269 296 267 296 269 296  C 269 294 269 296 269 294  C 269 296 269 294 269 296  C 275 296 269 296 275 296  C 278 296 275 296 278 296  C 278 298 278 296 278 298  C 278 299 278 298 278 299  C 258 299 278 299 258 299  C 258 303 258 299 258 303  C 256 303 258 303 256 303  C 245 303 256 303 245 303  C 245 312 245 303 245 312  C 246 312 245 312 246 312  C 246 315 246 312 246 315  C 251 315 246 315 251 315  C 258 315 251 315 258 315  C 268 315 258 315 268 315  C 273 315 268 315 273 315  C 267 315 273 315 267 315  C 268 315 267 315 268 315  C 241 315 268 315 241 315  C 235 315 241 315 235 315  C 235 300 235 315 235 300  C 235 296 235 300 235 296  C 253 296 235 296 253 296  C 253 293 253 296 253 293  C 255 293 253 293 255 293  C 255 293 255 293 255 293  C 255 290 255 293 255 290  C 255 291 255 290 255 291  C 261 291 255 291 261 291  C 261 296 261 291 261 296  C 256 296 261 296 256 296  C 256 297 256 296 256 297  C 256 297 256 297 256 297  C 251 297 256 297 251 297  C 251 300 251 297 251 300  C 251 294 251 300 251 294  C 251 297 251 294 251 297  C 263 297 251 297 263 297  C 263 296 263 297 263 296  C 265 296 263 296 265 296  C 277 296 265 296 277 296  C 277 287 277 296 277 287  C 277 300 277 287 277 300  C 276 300 277 300 276 300  C 278 300 276 300 278 300  C 268 300 278 300 268 300  C 268 293 268 300 268 293  C 265 293 268 293 265 293  C 286 293 265 293 286 293  C 286 296 286 293 286 296  C 281 296 286 296 281 296  C 282 296 281 296 282 296  C 282 295 282 296 282 295  C 288 295 282 295 288 295  C 288 338 288 295 288 338  C 288 338 288 338 288 338  C 288 338 288 338 288 338  C 280 338 288 338 280 338  C 274 338 280 338 274 338  C 273 338 274 338 273 338  C 274 338 273 338 274 338  C 283 338 274 338 283 338  C 283 348 283 338 283 348  C 282 348 283 348 282 348  C 282 347 282 348 282 347  C 289 347 282 347 289 347  C 277 347 289 347 277 347  C 295 347 277 347 295 347  C 295 340 295 347 295 340  C 270 340 295 340 270 340  C 262 340 270 340 262 340  C 278 340 262 340 278 340  C 271 340 278 340 271 340  C 271 340 271 340 271 340  C 291 340 271 340 291 340  C 291 347 291 340 291 347  C 283 347 291 347 283 347  C 283 351 283 347 283 351  C 283 352 283 351 283 352  C 280 352 283 352 280 352  C 289 352 280 352 289 352  C 285 352 289 352 285 352  C 280 352 285 352 280 352  C 280 362 280 352 280 362  C 280 366 280 362 280 366  C 280 370 280 366 280 370  C 280 355 280 370 280 355  C 280 358 280 355 280 358  C 290 358 280 358 290 358  C 290 386 290 358 290 386  C 302 386 290 386 302 386  C 309 386 302 386 309 386  C 309 392 309 386 309 392  C 309 369 309 392 309 369  C 309 369 309 369 309 369  C 317 369 309 369 317 369  C 317 379 317 369 317 379  C 317 376 317 379 317 376  C 325 376 317 376 325 376  C 321 376 325 376 321 376  C 329 376 321 376 329 376  C 329 376 329 376 329 376  C 338 376 329 376 338 376  C 338 382 338 376 338 382  C 338 387 338 382 338 387  C 342 387 338 387 342 387  C 348 387 342 387 348 387  C 348 461 348 387 348 461  C 348 469 348 461 348 469  C 348 486 348 469 348 486  C 348 487 348 486 348 487  C 348 486 348 487 348 486  C 348 503 348 486 348 503  C 352 503 348 503 352 503  C 351 503 352 503 351 503  C 351 499 351 503 351 499  C 349 499 351 499 349 499  C 349 499 349 499 349 499  C 342 499 349 499 342 499  C 340 499 342 499 340 499  C 338 499 340 499 338 499  C 338 497 338 499 338 497  C 338 501 338 497 338 501  C 338 495 338 501 338 495  C 338 508 338 495 338 508  C 338 509 338 508 338 509  C 341 509 338 509 341 509  C 341 521 341 509 341 521  C 321 521 341 521 321 521  C 324 521 321 521 324 521  C 324 522 324 521 324 522  C 336 522 324 522 336 522  C 336 532 336 522 336 532  C 336 523 336 532 336 523  C 297 406 259 289 221 172  C 224 172 221 172 224 172  C 224 172 224 172 224 172  C 224 182 224 172 224 182  C 224 182 224 182 224 182  C 233 182 224 182 233 182  C 233 185 233 182 233 185  C 233 185 233 185 233 185  C 251 185 233 185 251 185  C 261 185 251 185 261 185  C 262 185 261 185 262 185  C 269 185 262 185 269 185  C 278 185 269 185 278 185  C 287 185 278 185 287 185  C 283 185 287 185 283 185  C 280 185 283 185 280 185  C 280 214 280 185 280 214  C 278 214 280 214 278 214  C 279 214 278 214 279 214  C 279 221 279 214 279 221  C 279 229 279 221 279 229  C 279 234 279 229 279 234  C 275 234 279 234 275 234  C 270 234 275 234 270 234  C 270 234 270 234 270 234  C 291 234 270 234 291 234  C 291 233 291 234 291 233  C 291 240 291 233 291 240  C 301 240 291 240 301 240  C 301 247 301 240 301 247  C 301 252 301 247 301 252  C 303 252 301 252 303 252  C 303 249 303 252 303 249  C 308 249 303 249 308 249  C 308 249 308 249 308 249  C 305 249 308 249 305 249  C 316 249 305 249 316 249  C 316 250 316 249 316 250  C 316 250 316 250 316 250  C 315 250 316 250 315 250  C 315 249 315 250 315 249  C 315 259 315 249 315 259  C 315 259 315 259 315 259  C 315 253 315 259 315 253  C 315 251 315 253 315 251  C 315 254 315 251 315 254  C 315 281 315 254 315 281  C 315 288 315 281 315 288  C 315 283 315 288 315 283  C 336 283 315 283 336 283  C 340 283 336 283 340 283  C 339 283 340 283 339 283  C 339 270 339 283 339 270  C 344 270 339 270 344 270  C 343 270 344 270 343 270  C 334 270 343 270 334 270  C 334 267 334 270 334 267  C 337 267 334 267 337 267  C 344 267 337 267 344 267  C 344 266 344 267 344 266  C 344 267 344 266 344 267  C 344 261 344 267 344 261  C 344 240 344 261 344 240  C 339 240 344 240 339 240  C 339 241 339 240 339 241  C 338 241 339 241 338 241  C 340 241 338 241 340 241  C 340 241 340 241 340 241  C 340 235 340 241 340 235  C 339 235 340 235 339 235  C 343 235 339 235 343 235  C 347 235 343 235 347 235  C 353 235 347 235 353 235  C 352 235 353 235 352 235  C 352 235 352 235 352 235  C 352 216 352 235 352 216  C 353 216 352 216 353 216  C 353 213 353 216 353 213  C 352 213 353 213 352 213  C 352 219 352 213 352 219  C 346 219 352 219 346 219  C 346 216 346 219 346 216  C 342 216 346 216 342 216  C 341 216 342 216 341 216  C 365 216 341 216 365 216  C 367 216 365 216 367 216  C 359 216 367 216 359 216  C 359 242 359 216 359 242  C 359 254 359 242 359 254  C 359 256 359 254 359 256  C 359 256 359 256 359 256  C 359 259 359 256 359 259  C 357 259 359 259 357 259  C 364 259 357 259 364 259  C 364 271 364 259 364 271  C 362 271 364 271 362 271  C 362 279 362 271 362 279  C 361 279 362 279 361 279  C 352 279 361 279 352 279  C 357 279 352 279 357 279  C 357 277 357 279 357 277  C 357 283 357 277 357 283  C 357 282 357 283 357 282  C 361 282 357 282 361 282  C 361 265 361 282 361 265  C 361 286 361 265 361 286  C 361 302 361 286 361 302  C 360 302 361 302 360 302  C 360 302 360 302 360 302  C 360 306 360 302 360 306  C 360 310 360 306 360 310  C 357 310 360 310 357 310  C 357 318 357 310 357 318  C 357 328 357 318 357 328  C 357 325 357 328 357 325  C 357 338 357 325 357 338  C 354 338 357 338 354 338  C 362 338 354 338 362 338  C 358 338 362 338 358 338  C 358 343 358 338 358 343  C 358 341 358 343 358 341  C 358 327 358 341 358 327  C 358 375 358 327 358 375  C 347 375 358 375 347 375  C 347 382 347 375 347 382  C 347 383 347 382 347 383  C 347 387 347 383 347 387  C 344 387 347 387 344 387  C 344 391 344 387 344 391  C 339 391 344 391 339 391  C 340 391 339 391 340 391  C 347 391 340 391 347 391  C 347 390 347 391 347 390  C 347 390 347 390 347 390  C 347 404 347 390 347 404  C 347 403 347 404 347 403  C 347 406 347 403 347 406  C 347 415 347 406 347 415  C 342 415 347 415 342 415  C 342 415 342 415 342 415  C 344 415 342 415 344 415  C 335 415 344 415 335 415  C 335 416 335 415 335 416  C 335 416 335 416 335 416  C 346 416 335 416 346 416  C 354 416 346 416 354 416  C 354 431 354 416 354 431  C 355 431 354 431 355 431  C 355 431 355 431 355 431  C 345 431 355 431 345 431  C 345 429 345 431 345 429  C 345 430 345 429 345 430  C 355 430 345 430 355 430  C 355 430 355 430 355 430  C 363 430 355 430 363 430  C 354 430 363 430 354 430  C 369 430 354 430 369 430  C 370 430 369 430 370 430  C 370 431 370 430 370 431  C 366 431 370 431 366 431  C 365 431 366 431 365 431  C 365 453 365 431 365 453  C 365 481 365 453 365 481  C 385 481 365 481 385 481  C 386 481 385 481 386 481  C 386 484 386 481 386 484  C 386 481 386 484 386 481  C 390 481 386 481 390 481  C 390 490 390 481 390 490  C 394 490 390 490 394 490  C 405 490 394 490 405 490  C 404 490 405 490 404 490  C 404 490 404 490 404 490  C 404 481 404 490 404 481  C 404 483 404 481 404 483  C 404 495 404 483 404 495  C 402 495 404 495 402 495 Z"/>
</svg>