<svg height="392" width="297" xmlns="http://www.w3.org/2000/svg"><path d="M148 196 C 148 202 148 196 148 202  C 155 202 148 202 155 202  C 167 202 155 202 167 202  C 167 194 167 202 167 194  C 167 198 167 194 167 198  C 159 198 167 198 159 198 M159 198 C 159 226 159 198 159 226  C 161 226 159 226 161 226  C 165 226 161 226 165 226  C 165 202 165 226 165 202  C 165 206 165 202 165 206  C 164 206 165 206 164 206  C 172 206 164 206 172 206  C 172 206 172 206 172 206 M172 206 C 172 218 172 206 172 218  C 170 218 172 218 170 218 M170 218 C 170 223 170 218 170 223  C 175 223 170 223 175 223  C 175 220 175 223 175 220  C 175 220 175 220 175 220  C 185 220 175 220 185 220  C 185 221 185 220 185 221  C 188 221 185 221 188 221  C 188 220 188 221 188 220  C 188 240 188 220 188 240  C 187 240 188 240 187 240  C 187 255 187 240 187 255  C 186 255 187 255 186 255  C 209 255 186 255 209 255  C 209 250 209 255 209 250  C 209 255 209 250 209 255  C 212 255 209 255 212 255  C 212 283 212 255 212 283  C 211 283 212 283 211 283  C 206 283 211 283 206 283  C 206 276 206 283 206 276  C 206 304 206 276 206 304  C 201 304 206 304 201 304  C 210 304 201 304 210 304  C 210 295 210 304 210 295  C 216 295 210 295 216 295  C 216 296 216 295 216 296  C 213 296 216 296 213 296  C 213 294 213 296 213 294  C 213 308 213 294 213 308  C 214 308 213 308 214 308  C 216 308 214 308 216 308  C 216 305 216 308 216 305  C 216 318 216 305 216 318  C 211 318 216 318 211 318  C 211 325 211 318 211 325  C 202 325 211 325 202 325  C 202 325 202 325 202 325  C 202 326 202 325 202 326  C 202 322 202 326 202 322  C 205 322 202 322 205 322  C 205 331 205 322 205 331  C 206 331 205 331 206 331  C 209 331 206 331 209 331  C 209 345 209 331 209 345  C 201 345 209 345 201 345  C 201 346 201 345 201 346  C 201 348 201 346 201 348  C 203 348 201 348 203 348  C 203 351 203 348 203 351  C 196 351 203 351 196 351  C 198 351 196 351 198 351  C 198 353 198 351 198 353  C 202 353 198 353 202 353  C 202 352 202 353 202 352  C 202 349 202 352 202 349  C 201 349 202 349 201 349  C 198 349 201 349 198 349  C 198 336 198 349 198 336  C 199 336 198 336 199 336  C 199 335 199 336 199 335  C 205 335 199 335 205 335  C 205 337 205 335 205 337  C 217 337 205 337 217 337  C 217 337 217 337 217 337  C 217 342 217 337 217 342  C 216 342 217 342 216 342  C 217 342 216 342 217 342  C 217 338 217 342 217 338  C 215 338 217 338 215 338  C 215 341 215 338 215 341  C 214 341 215 341 214 341  C 214 345 214 341 214 345  C 222 345 214 345 222 345  C 222 346 222 345 222 346  C 230 346 222 346 230 346  C 230 346 230 346 230 346  C 230 366 230 346 230 366  C 226 366 230 366 226 366  C 228 366 226 366 228 366  C 228 366 228 366 228 366  C 228 383 228 366 228 383  C 215 383 228 383 215 383  C 222 383 215 383 222 383  C 222 383 222 383 222 383  C 232 383 222 383 232 383  C 232 381 232 383 232 381  C 256 381 232 381 256 381  C 256 379 256 381 256 379  C 256 385 256 379 256 385  C 249 385 256 385 249 385  C 249 392 249 385 249 392  C 249 392 249 392 249 392  C 259 392 249 392 259 392  C 259 397 259 392 259 397  C 278 397 259 397 278 397  C 278 395 278 397 278 395  C 278 409 278 395 278 409  C 287 409 278 409 287 409  C 290 409 287 409 290 409  C 290 408 290 409 290 408  C 289 408 290 408 289 408  C 289 402 289 408 289 402  C 289 398 289 402 289 398  C 289 398 289 398 289 398  C 300 398 289 398 300 398  C 300 400 300 398 300 400  C 300 407 300 400 300 407  C 303 407 300 407 303 407  C 323 407 303 407 323 407  C 323 417 323 407 323 417  C 323 429 323 417 323 429  C 343 429 323 429 343 429  C 363 429 343 429 363 429  C 363 427 363 429 363 427  C 363 436 363 427 363 436  C 352 436 363 436 352 436  C 352 437 352 436 352 437  C 356 437 352 437 356 437  C 356 437 356 437 356 437  C 356 436 356 437 356 436  C 347 436 356 436 347 436  C 347 424 347 436 347 424  C 347 424 347 424 347 424  C 338 424 347 424 338 424  C 347 424 338 424 347 424  C 347 430 347 424 347 430  C 349 430 347 430 349 430  C 349 421 349 430 349 421  C 349 438 349 421 349 438  C 345 438 349 438 345 438  C 354 438 345 438 354 438  C 354 439 354 438 354 439  C 367 439 354 439 367 439  C 367 442 367 439 367 442  C 367 445 367 442 367 445  C 359 445 367 445 359 445  C 364 445 359 445 364 445  C 364 449 364 445 364 449  C 364 459 364 449 364 459  C 364 459 364 459 364 459  C 375 459 364 459 375 459  C 375 462 375 459 375 462  C 387 462 375 462 387 462  C 387 454 387 462 387 454  C 387 467 387 454 387 467  C 394 467 387 467 394 467  C 394 470 394 467 394 470  C 393 470 394 470 393 470  C 392 470 393 470 392 470  C 392 461 392 470 392 461  C 392 468 392 461 392 468  C 390 468 392 468 390 468  C 390 449 390 468 390 449  C 366 449 390 449 366 449  C 366 449 366 449 366 449  C 366 434 366 449 366 434  C 366 444 366 434 366 444  C 361 444 366 444 361 444  C 371 444 361 444 371 444  C 371 452 371 444 371 452  C 371 451 371 452 371 451  C 350 451 371 451 350 451  C 366 451 350 451 366 451  C 366 473 366 451 366 473  C 374 473 366 473 374 473  C 374 474 374 473 374 474  C 381 474 374 474 381 474  C 381 473 381 474 381 473  C 390 473 381 473 390 473  C 390 473 390 473 390 473  C 389 473 390 473 389 473  C 389 471 389 473 389 471  C 389 473 389 471 389 473  C 381 473 389 473 381 473  C 381 494 381 473 381 494  C 381 494 381 494 381 494  C 391 494 381 494 391 494  C 391 496 391 494 391 496  C 412 496 391 496 412 496  C 412 496 412 496 412 496  C 407 496 412 496 407 496  C 407 484 407 496 407 484  C 404 484 407 484 404 484  C 404 483 404 484 404 483  C 401 483 404 483 401 483  C 401 476 401 483 401 476  C 407 476 401 476 407 476  C 407 474 407 476 407 474  C 407 468 407 474 407 468  C 413 468 407 468 413 468  C 413 468 413 468 413 468  C 412 468 413 468 412 468  C 412 469 412 468 412 469  C 433 469 412 469 433 469  C 439 469 433 469 439 469  C 439 467 439 469 439 467  C 446 467 439 467 446 467  C 446 468 446 467 446 468  C 446 465 446 468 446 465  C 440 465 446 465 440 465  C 440 475 440 465 440 475  C 449 475 440 475 449 475  C 449 478 449 475 449 478  C 449 478 449 478 449 478  C 449 491 449 478 449 491  C 448 491 449 491 448 491  C 448 493 448 491 448 493  C 445 493 448 493 445 493  C 446 493 445 493 446 493  C 446 487 446 493 446 487  C 446 483 446 487 446 483  C 419 483 446 483 419 483  C 424 483 419 483 424 483  C 424 486 424 483 424 486  C 424 493 424 486 424 493  C 423 493 424 493 423 493  C 423 490 423 493 423 490  C 421 490 423 490 421 490  C 421 492 421 490 421 492  C 425 492 421 492 425 492  C 425 496 425 492 425 496  C 423 496 425 496 423 496  C 423 505 423 496 423 505  C 419 505 423 505 419 505  C 424 505 419 505 424 505  C 424 505 424 505 424 505  C 426 505 424 505 426 505  C 426 502 426 505 426 502  C 444 502 426 502 444 502  C 444 503 444 502 444 503  C 444 507 444 503 444 507  C 447 507 444 507 447 507  C 447 512 447 507 447 512  C 447 512 447 512 447 512  C 447 518 447 512 447 518  C 454 518 447 518 454 518  C 454 526 454 518 454 526  C 453 526 454 526 453 526  C 451 526 453 526 451 526  C 451 519 451 526 451 519  C 451 524 451 519 451 524  C 453 524 451 524 453 524  C 453 525 453 524 453 525  C 453 525 453 525 453 525  C 457 525 453 525 457 525  C 457 511 457 525 457 511  C 457 520 457 511 457 520  C 452 520 457 520 452 520  C 453 520 452 520 453 520  C 453 483 453 520 453 483  C 463 483 453 483 463 483  C 463 479 463 483 463 479  C 484 479 463 479 484 479  C 484 479 484 479 484 479  C 496 479 484 479 496 479  C 496 480 496 479 496 480  C 501 480 496 480 501 480  C 501 484 501 480 501 484  C 501 483 501 484 501 483  C 494 483 501 483 494 483  C 494 487 494 483 494 487  C 502 487 494 487 502 487  C 502 489 502 487 502 489  C 501 489 502 489 501 489  C 503 489 501 489 503 489  C 503 489 503 489 503 489  C 502 489 503 489 502 489  C 502 480 502 489 502 480  C 502 491 502 480 502 491  C 513 491 502 491 513 491  C 513 503 513 491 513 503  C 507 503 513 503 507 503  C 507 512 507 503 507 512  C 511 512 507 512 511 512  C 511 528 511 512 511 528  C 509 528 511 528 509 528  C 508 528 509 528 508 528  C 508 507 508 528 508 507  C 508 518 508 507 508 518  C 509 518 508 518 509 518  C 509 562 509 518 509 562  C 498 562 509 562 498 562  C 498 566 498 562 498 566  C 505 566 498 566 505 566  C 505 640 505 566 505 640  C 504 640 505 640 504 640  C 504 641 504 640 504 641  C 505 641 504 641 505 641  C 504 641 505 641 504 641  C 504 639 504 641 504 639  C 504 641 504 639 504 641  C 506 641 504 641 506 641  C 506 645 506 641 506 645  C 495 645 506 645 495 645  C 513 645 495 645 513 645  C 513 642 513 645 513 642  C 513 660 513 642 513 660  C 511 660 513 660 511 660  C 511 666 511 660 511 666  C 505 666 511 666 505 666  C 505 669 505 666 505 669  C 508 669 505 669 508 669 M508 669 C 508 699 508 669 508 699  C 504 699 508 699 504 699  C 505 699 504 699 505 699  C 505 698 505 699 505 698  C 505 705 505 698 505 705  C 505 705 505 705 505 705  C 504 705 505 705 504 705  C 504 700 504 705 504 700  C 504 710 504 700 504 710  C 500 710 504 710 500 710  C 500 720 500 710 500 720  C 499 720 500 720 499 720  C 499 748 499 720 499 748  C 495 748 499 748 495 748  C 495 776 495 748 495 776  C 493 776 495 776 493 776  C 501 776 493 776 501 776  C 501 775 501 776 501 775  C 508 775 501 775 508 775  C 508 771 508 775 508 771  C 508 784 508 771 508 784  C 512 784 508 784 512 784  C 512 783 512 784 512 783  C 492 783 512 783 492 783  C 492 785 492 783 492 785  C 489 785 492 785 489 785  C 489 790 489 785 489 790  C 492 790 489 790 492 790  C 498 790 492 790 498 790  C 498 789 498 790 498 789  C 498 793 498 789 498 793  C 500 793 498 793 500 793  C 500 792 500 793 500 792  C 500 792 500 792 500 792  C 501 792 500 792 501 792  C 501 792 501 792 501 792  C 501 840 501 792 501 840  C 501 840 501 840 501 840  C 506 840 501 840 506 840  C 506 824 506 840 506 824  C 514 824 506 824 514 824  C 514 822 514 824 514 822  C 523 822 514 822 523 822  C 523 817 523 822 523 817  C 531 817 523 817 531 817  C 531 818 531 817 531 818  C 531 847 531 818 531 847  C 532 847 531 847 532 847  C 532 848 532 847 532 848  C 524 848 532 848 524 848  C 528 848 524 848 528 848  C 528 848 528 848 528 848  C 528 858 528 848 528 858  C 526 858 528 858 526 858  C 541 858 526 858 541 858  C 541 851 541 858 541 851  C 553 851 541 851 553 851  C 553 834 553 851 553 834  C 553 861 553 834 553 861  C 546 861 553 861 546 861  C 546 863 546 861 546 863  C 536 863 546 863 536 863  C 530 863 536 863 530 863  C 530 856 530 863 530 856  C 530 857 530 856 530 857  C 526 857 530 857 526 857  C 526 858 526 857 526 858  C 525 858 526 858 525 858  C 520 858 525 858 520 858  C 520 849 520 858 520 849  C 520 857 520 849 520 857  C 519 857 520 857 519 857  C 524 857 519 857 524 857  C 524 857 524 857 524 857  C 524 864 524 857 524 864  C 520 864 524 864 520 864  C 524 864 520 864 524 864  C 524 852 524 864 524 852  C 524 849 524 852 524 849  C 515 849 524 849 515 849  C 517 849 515 849 517 849  C 517 846 517 849 517 846 Z"/>
</svg>