<svg height="392" width="297" xmlns="http://www.w3.org/2000/svg"><path d="M148 196 C 148 211 148 196 148 211  C 154 211 148 211 154 211  C 154 209 154 211 154 209  C 154 207 154 209 154 207  C 156 207 154 207 156 207  C 156 224 156 207 156 224  C 156 222 156 224 156 222  C 147 222 156 222 147 222  C 147 222 147 222 147 222  C 139 222 147 222 139 222  C 139 225 139 222 139 225  C 139 224 139 225 139 224  C 112 224 139 224 112 224  C 113 224 112 224 113 224  C 117 224 113 224 117 224  C 117 222 117 224 117 222  C 116 222 117 222 116 222  C 116 219 116 222 116 219  C 116 235 116 219 116 235  C 116 236 116 235 116 236  C 124 236 116 236 124 236  C 115 236 124 236 115 236  C 121 236 115 236 121 236  C 101 236 121 236 101 236  C 101 240 101 236 101 240  C 101 268 101 240 101 268  C 104 268 101 268 104 268  C 104 269 104 268 104 269  C 113 269 104 269 113 269  C 113 257 113 269 113 257  C 113 261 113 257 113 261  C 113 268 113 261 113 268  C 113 269 113 268 113 269  C 103 269 113 269 103 269  C 109 269 103 269 109 269  C 108 269 109 269 108 269  C 117 269 108 269 117 269  C 117 283 117 269 117 283  C 115 283 117 283 115 283  C 119 283 115 283 119 283  C 119 284 119 283 119 284  C 128 284 119 284 128 284  C 136 284 128 284 136 284  C 136 288 136 284 136 288  C 136 290 136 288 136 290  C 136 289 136 290 136 289  C 132 289 136 289 132 289  C 132 289 132 289 132 289  C 132 317 132 289 132 317  C 144 317 132 317 144 317  C 144 317 144 317 144 317  C 155 317 144 317 155 317  C 155 318 155 317 155 318  C 156 318 155 318 156 318  C 156 318 156 318 156 318  C 156 319 156 318 156 319  C 156 320 156 319 156 320  C 156 306 156 320 156 306  C 157 306 156 306 157 306  C 158 306 157 306 158 306  C 133 306 158 306 133 306  C 133 307 133 306 133 307  C 133 311 133 307 133 311  C 133 305 133 311 133 305  C 153 305 133 305 153 305  C 162 305 153 305 162 305  C 162 308 162 305 162 308  C 162 308 162 308 162 308  C 162 306 162 308 162 306  C 162 306 162 306 162 306  C 161 306 162 306 161 306  C 163 306 161 306 163 306  C 173 306 163 306 173 306  C 178 306 173 306 178 306  C 196 306 178 306 196 306  C 191 306 196 306 191 306  C 191 303 191 306 191 303  C 191 307 191 303 191 307  C 200 307 191 307 200 307  C 200 312 200 307 200 312  C 200 316 200 312 200 316  C 199 316 200 316 199 316  C 199 326 199 316 199 326  C 206 326 199 326 206 326  C 206 323 206 326 206 323  C 204 323 206 323 204 323  C 204 319 204 323 204 319  C 204 322 204 319 204 322  C 199 322 204 322 199 322  C 198 322 199 322 198 322  C 198 322 198 322 198 322  C 209 322 198 322 209 322  C 209 320 209 322 209 320  C 209 317 209 320 209 317  C 209 312 209 317 209 312  C 209 313 209 312 209 313  C 209 323 209 313 209 323  C 219 323 209 323 219 323  C 219 311 219 323 219 311  C 235 311 219 311 235 311  C 237 311 235 311 237 311  C 231 311 237 311 231 311  C 229 311 231 311 229 311  C 229 310 229 311 229 310  C 253 310 229 310 253 310  C 249 310 253 310 249 310  C 248 310 249 310 248 310  C 247 310 248 310 247 310  C 247 327 247 310 247 327  C 247 327 247 327 247 327  C 244 327 247 327 244 327  C 262 327 244 327 262 327  C 262 326 262 327 262 326  C 262 325 262 326 262 325  C 262 304 262 325 262 304  C 262 298 262 304 262 298  C 267 298 262 298 267 298  C 267 306 267 298 267 306  C 265 306 267 306 265 306  C 264 306 265 306 264 306  C 264 315 264 306 264 315  C 264 309 264 315 264 309  C 272 309 264 309 272 309  C 272 303 272 309 272 303  C 276 303 272 303 276 303  C 280 303 276 303 280 303  C 280 322 280 303 280 322  C 280 325 280 322 280 325  C 280 332 280 325 280 332  C 280 359 280 332 280 359  C 274 359 280 359 274 359  C 277 359 274 359 277 359  C 276 359 277 359 276 359  C 273 359 276 359 273 359  C 273 367 273 359 273 367  C 275 367 273 367 275 367  C 275 364 275 367 275 364  C 279 364 275 364 279 364  C 273 364 279 364 273 364  C 285 364 273 364 285 364  C 287 364 285 364 287 364  C 287 364 287 364 287 364  C 294 364 287 364 294 364  C 302 364 294 364 302 364  C 297 364 302 364 297 364  C 297 360 297 364 297 360  C 291 360 297 360 291 360  C 291 381 291 360 291 381  C 291 385 291 381 291 385  C 291 392 291 385 291 392  C 291 392 291 392 291 392  C 291 406 291 392 291 406  C 289 406 291 406 289 406  C 289 435 289 406 289 435  C 250 318 212 201 174 84  C 174 93 174 84 174 93  C 174 96 174 93 174 96  C 180 96 174 96 180 96  C 180 99 180 96 180 99  C 168 99 180 99 168 99  C 168 101 168 99 168 101  C 168 101 168 101 168 101  C 168 102 168 101 168 102  C 168 108 168 102 168 108  C 168 102 168 108 168 102  C 168 104 168 102 168 104  C 172 104 168 104 172 104  C 173 104 172 104 173 104  C 174 104 173 104 174 104  C 174 106 174 104 174 106  C 172 106 174 106 172 106  C 184 106 172 106 184 106  C 184 106 184 106 184 106  C 190 106 184 106 190 106  C 190 106 190 106 190 106  C 193 106 190 106 193 106  C 193 100 193 106 193 100  C 192 100 193 100 192 100  C 184 100 192 100 184 100  C 184 109 184 100 184 109  C 185 109 184 109 185 109  C 185 122 185 109 185 122  C 193 122 185 122 193 122  C 193 120 193 122 193 120  C 213 120 193 120 213 120  C 213 163 213 120 213 163  C 213 173 213 163 213 173  C 223 173 213 173 223 173  C 223 164 223 173 223 164  C 212 164 223 164 212 164  C 212 168 212 164 212 168  C 215 168 212 168 215 168  C 214 168 215 168 214 168  C 214 167 214 168 214 167  C 214 171 214 167 214 171  C 220 171 214 171 220 171  C 210 171 220 171 210 171  C 207 171 210 171 207 171  C 207 176 207 171 207 176  C 207 176 207 176 207 176  C 207 180 207 176 207 180  C 207 167 207 180 207 167  C 216 167 207 167 216 167  C 216 167 216 167 216 167  C 216 165 216 167 216 165  C 215 165 216 165 215 165  C 215 176 215 165 215 176  C 215 177 215 176 215 177  C 212 177 215 177 212 177  C 212 189 212 177 212 189  C 212 190 212 189 212 190  C 214 190 212 190 214 190  C 216 190 214 190 216 190  C 216 195 216 190 216 195  C 213 195 216 195 213 195  C 213 195 213 195 213 195  C 213 178 213 195 213 178  C 213 186 213 178 213 186  C 212 186 213 186 212 186  C 221 186 212 186 221 186  C 221 206 221 186 221 206  C 228 206 221 206 228 206  C 228 206 228 206 228 206  C 231 206 228 206 231 206  C 231 203 231 206 231 203  C 238 203 231 203 238 203  C 242 203 238 203 242 203  C 242 188 242 203 242 188  C 245 188 242 188 245 188  C 234 188 245 188 234 188  C 234 185 234 188 234 185  C 234 197 234 185 234 197  C 234 209 234 197 234 209  C 234 206 234 209 234 206  C 234 199 234 206 234 199  C 234 228 234 199 234 228  C 233 228 234 228 233 228  C 232 228 233 228 232 228  C 232 231 232 228 232 231  C 232 234 232 231 232 234  C 232 248 232 234 232 248  C 236 248 232 248 236 248  C 236 250 236 248 236 250  C 254 250 236 250 254 250  C 263 250 254 250 263 250  C 263 257 263 250 263 257  C 258 257 263 257 258 257  C 256 257 258 257 256 257  C 236 257 256 257 236 257  C 236 248 236 257 236 248  C 236 253 236 248 236 253  C 236 253 236 253 236 253  C 243 253 236 253 243 253  C 243 244 243 253 243 244  C 235 244 243 244 235 244  C 235 237 235 244 235 237  C 259 237 235 237 259 237  C 258 237 259 237 258 237  C 249 237 258 237 249 237  C 250 237 249 237 250 237  C 243 237 250 237 243 237  C 243 237 243 237 243 237  C 243 247 243 237 243 247  C 245 247 243 247 245 247  C 241 247 245 247 241 247  C 241 237 241 247 241 237  C 256 237 241 237 256 237  C 251 237 256 237 251 237  C 272 237 251 237 272 237  C 267 237 272 237 267 237  C 261 237 267 237 261 237  C 256 237 261 237 256 237  C 256 242 256 237 256 242  C 256 255 256 242 256 255  C 253 255 256 255 253 255  C 274 255 253 255 274 255  C 274 257 274 255 274 257  C 274 258 274 257 274 258  C 274 259 274 258 274 259  C 282 259 274 259 282 259  C 282 236 282 259 282 236  C 284 236 282 236 284 236  C 290 236 284 236 290 236  C 285 236 290 236 285 236  C 285 248 285 236 285 248  C 285 248 285 248 285 248  C 277 248 285 248 277 248  C 278 248 277 248 278 248  C 278 248 278 248 278 248  C 278 241 278 248 278 241  C 278 244 278 241 278 244  C 278 244 278 244 278 244  C 278 241 278 244 278 241  C 278 226 278 241 278 226  C 299 226 278 226 299 226  C 299 225 299 226 299 225  C 306 225 299 225 306 225  C 306 222 306 225 306 222  C 312 222 306 222 312 222  C 312 221 312 222 312 221  C 312 221 312 221 312 221  C 312 216 312 221 312 216  C 312 213 312 216 312 213  C 308 213 312 213 308 213  C 308 223 308 213 308 223  C 317 223 308 223 317 223  C 317 224 317 223 317 224  C 323 224 317 224 323 224  C 324 224 323 224 324 224  C 324 229 324 224 324 229  C 319 229 324 229 319 229  C 319 229 319 229 319 229  C 319 238 319 229 319 238  C 319 312 319 238 319 312  C 319 311 319 312 319 311  C 319 312 319 311 319 312  C 340 312 319 312 340 312  C 340 310 340 312 340 310  C 340 310 340 310 340 310  C 340 307 340 310 340 307  C 340 335 340 307 340 335  C 340 383 340 335 340 383  C 339 383 340 383 339 383  C 336 383 339 383 336 383  C 343 383 336 383 343 383  C 336 383 343 383 336 383  C 334 383 336 383 334 383  C 339 383 334 383 339 383  C 339 383 339 383 339 383  C 351 383 339 383 351 383  C 351 393 351 383 351 393  C 352 393 351 393 352 393  C 352 374 352 393 352 374  C 351 374 352 374 351 374  C 349 374 351 374 349 374  C 361 374 349 374 361 374  C 363 374 361 374 363 374  C 363 367 363 374 363 367  C 363 375 363 367 363 375  C 363 396 363 375 363 396  C 368 396 363 396 368 396  C 372 396 368 396 372 396  C 372 399 372 396 372 399  C 375 399 372 399 375 399  C 387 399 375 399 387 399  C 387 404 387 399 387 404  C 387 405 387 404 387 405  C 387 408 387 405 387 408  C 383 408 387 408 383 408  C 383 399 383 408 383 399  C 394 399 383 399 394 399  C 396 399 394 399 396 399  C 395 399 396 399 395 399  C 391 399 395 399 391 399  C 382 399 391 399 382 399  C 383 399 382 399 383 399  C 383 404 383 399 383 404  C 379 404 383 404 379 404  C 379 414 379 404 379 414  C 379 414 379 414 379 414  C 379 414 379 414 379 414  C 379 420 379 414 379 420  C 379 421 379 420 379 421  C 379 421 379 421 379 421  C 379 427 379 421 379 427  C 379 433 379 427 379 433  C 379 433 379 433 379 433  C 379 440 379 433 379 440  C 379 447 379 440 379 447  C 379 446 379 447 379 446  C 379 443 379 446 379 443  C 383 443 379 443 383 443  C 383 442 383 443 383 442  C 383 447 383 442 383 447  C 383 439 383 447 383 439  C 383 442 383 439 383 442  C 382 442 383 442 382 442  C 387 442 382 442 387 442  C 387 443 387 442 387 443  C 387 445 387 443 387 445  C 388 445 387 445 388 445  C 398 445 388 445 398 445  C 398 408 398 445 398 408  C 400 408 398 408 400 408  C 391 408 400 408 391 408  C 391 396 391 408 391 396  C 391 422 391 396 391 422  C 391 419 391 422 391 419  C 391 422 391 419 391 422  C 391 435 391 422 391 435  C 401 435 391 435 401 435  C 403 435 401 435 403 435  C 403 445 403 435 403 445  C 403 444 403 445 403 444  C 403 466 403 444 403 466  C 403 466 403 466 403 466  C 403 494 403 466 403 494  C 402 494 403 494 402 494  C 402 498 402 494 402 498  C 402 495 402 498 402 495  C 402 495 402 495 402 495 Z"/>
</svg>