<svg height="392" width="297" xmlns="http://www.w3.org/2000/svg"><path d="M148 196 C 148 198 148 196 148 198  C 151 198 148 198 151 198  C 153 198 151 198 153 198  C 153 200 153 198 153 200  C 157 200 153 200 157 200  C 157 199 157 200 157 199  C 161 199 157 199 161 199  C 161 213 161 199 161 213  C 158 213 161 213 158 213  C 158 199 158 213 158 199  C 158 207 158 199 158 207  C 153 207 158 207 153 207  C 152 207 153 207 152 207  C 152 205 152 207 152 205 M152 205 C 153 205 152 205 153 205  C 153 190 153 205 153 190  C 153 189 153 190 153 189  C 146 189 153 189 146 189  C 155 189 146 189 155 189  C 155 191 155 189 155 191  C 154 191 155 191 154 191  C 154 170 154 191 154 170  C 167 170 154 170 167 170  C 167 170 167 170 167 170  C 167 189 167 170 167 189  C 165 189 167 189 165 189  C 165 195 165 189 165 195  C 160 195 165 195 160 195  C 160 203 160 195 160 203  C 159 203 160 203 159 203  C 159 214 159 203 159 214  C 169 214 159 214 169 214  C 169 195 169 214 169 195  C 144 195 169 195 144 195  C 144 195 144 195 144 195  C 143 195 144 195 143 195  C 143 199 143 195 143 199  C 142 199 143 199 142 199 M142 199 C 142 219 142 199 142 219  C 143 219 142 219 143 219  C 140 219 143 219 140 219  C 140 218 140 219 140 218  C 151 218 140 218 151 218  C 151 210 151 218 151 210  C 151 210 151 210 151 210  C 151 210 151 210 151 210  C 151 212 151 210 151 212  C 141 212 151 212 141 212  C 141 212 141 212 141 212  C 141 203 141 212 141 203  C 141 202 141 203 141 202  C 120 202 141 202 120 202 M120 202 C 120 210 120 202 120 210  C 119 210 120 210 119 210 M119 210 C 119 225 119 210 119 225  C 118 225 119 225 118 225 M118 225 C 118 239 118 225 118 239  C 116 239 118 239 116 239 M116 239 C 116 247 116 239 116 247  C 118 247 116 247 118 247  C 116 247 118 247 116 247  C 116 240 116 247 116 240  C 116 268 116 240 116 268  C 114 268 116 268 114 268  C 120 268 114 268 120 268  C 120 270 120 268 120 270  C 120 275 120 270 120 275  C 123 275 120 275 123 275  C 123 279 123 275 123 279  C 121 279 123 279 121 279 M121 279 C 119 279 121 279 119 279  C 119 282 119 279 119 282 M119 282 C 119 286 119 282 119 286  C 109 286 119 286 109 286  C 126 286 109 286 126 286  C 126 287 126 286 126 287 M126 287 C 133 287 126 287 133 287  C 133 288 133 287 133 288  C 133 295 133 288 133 295  C 124 295 133 295 124 295  C 124 292 124 295 124 292  C 123 292 124 292 123 292 M123 292 C 123 305 123 292 123 305  C 126 305 123 305 126 305 M126 305 C 135 305 126 305 135 305  C 135 305 135 305 135 305  C 135 308 135 305 135 308  C 135 308 135 308 135 308  C 153 308 135 308 153 308  C 153 305 153 308 153 305  C 152 305 153 305 152 305  C 152 305 152 305 152 305  C 160 305 152 305 160 305  C 160 303 160 305 160 303 M160 303 C 160 316 160 303 160 316  C 166 316 160 316 166 316  C 164 316 166 316 164 316  C 164 307 164 316 164 307  C 156 307 164 307 156 307  C 156 308 156 307 156 308  C 157 308 156 308 157 308  C 157 305 157 308 157 305  C 162 305 157 305 162 305  C 162 304 162 305 162 304  C 172 304 162 304 172 304  C 172 298 172 304 172 298  C 172 327 172 298 172 327  C 168 327 172 327 168 327  C 173 327 168 327 173 327  C 173 331 173 327 173 331  C 178 331 173 331 178 331  C 178 330 178 331 178 330  C 180 330 178 330 180 330  C 180 327 180 330 180 327  C 180 328 180 327 180 328  C 183 328 180 328 183 328  C 184 328 183 328 184 328  C 184 328 184 328 184 328  C 196 328 184 328 196 328  C 196 312 196 328 196 312  C 205 312 196 312 205 312  C 205 313 205 312 205 313  C 229 313 205 313 229 313  C 229 308 229 313 229 308  C 229 311 229 308 229 311  C 229 311 229 311 229 311  C 229 330 229 311 229 330  C 226 330 229 330 226 330  C 232 330 226 330 232 330  C 232 330 232 330 232 330  C 237 330 232 330 237 330  C 237 330 237 330 237 330  C 246 330 237 330 246 330  C 246 332 246 330 246 332  C 246 338 246 332 246 338  C 246 338 246 338 246 338  C 246 335 246 338 246 335  C 245 335 246 335 245 335  C 245 351 245 335 245 351  C 241 351 245 351 241 351  C 245 351 241 351 245 351  C 245 337 245 351 245 337  C 245 351 245 337 245 351  C 255 351 245 351 255 351  C 255 353 255 351 255 353  C 247 353 255 353 247 353  C 247 355 247 353 247 355  C 244 355 247 355 244 355  C 254 355 244 355 254 355  C 254 360 254 355 254 360  C 254 362 254 360 254 362  C 249 362 254 362 249 362  C 251 362 249 362 251 362  C 251 353 251 362 251 353  C 246 353 251 353 246 353  C 246 347 246 353 246 347  C 246 357 246 347 246 357  C 243 357 246 357 243 357  C 243 358 243 357 243 358  C 245 358 243 358 245 358  C 245 364 245 358 245 364  C 247 364 245 364 247 364  C 247 407 247 364 247 407  C 237 407 247 407 237 407  C 237 414 237 407 237 414  C 233 414 237 414 233 414  C 232 414 233 414 232 414  C 232 412 232 414 232 412  C 245 412 232 412 245 412  C 245 404 245 412 245 404  C 251 404 245 404 251 404  C 251 402 251 404 251 402  C 251 412 251 402 251 412  C 260 412 251 412 260 412  C 260 422 260 412 260 422  C 258 422 260 422 258 422  C 274 422 258 422 274 422  C 274 445 274 422 274 445  C 285 445 274 445 285 445  C 285 447 285 445 285 447  C 285 457 285 447 285 457  C 284 457 285 457 284 457  C 284 462 284 457 284 462  C 287 462 284 462 287 462  C 287 470 287 462 287 470  C 286 470 287 470 286 470  C 294 470 286 470 294 470  C 294 466 294 470 294 466  C 294 492 294 466 294 492  C 286 492 294 492 286 492  C 286 494 286 492 286 494  C 307 494 286 494 307 494  C 309 494 307 494 309 494  C 309 494 309 494 309 494  C 309 491 309 494 309 491  C 301 491 309 491 301 491  C 325 491 301 491 325 491  C 325 490 325 491 325 490  C 325 495 325 490 325 495  C 330 495 325 495 330 495  C 330 496 330 495 330 496  C 330 496 330 496 330 496  C 330 500 330 496 330 500  C 338 500 330 500 338 500  C 338 506 338 500 338 506  C 332 506 338 506 332 506  C 329 506 332 506 329 506  C 329 499 329 506 329 499  C 331 499 329 499 331 499  C 331 497 331 499 331 497  C 331 508 331 497 331 508  C 331 508 331 508 331 508  C 331 521 331 508 331 521  C 326 521 331 521 326 521  C 326 526 326 521 326 526  C 326 526 326 526 326 526  C 326 522 326 526 326 522  C 326 522 326 522 326 522  C 326 519 326 522 326 519  C 326 519 326 519 326 519  C 334 519 326 519 334 519  C 334 520 334 519 334 520  C 334 530 334 520 334 530  C 330 530 334 530 330 530  C 330 530 330 530 330 530  C 330 530 330 530 330 530  C 330 531 330 530 330 531  C 321 531 330 531 321 531  C 323 531 321 531 323 531  C 323 531 323 531 323 531  C 323 533 323 531 323 533  C 320 533 323 533 320 533  C 339 533 320 533 339 533  C 339 530 339 533 339 530  C 339 527 339 530 339 527  C 333 527 339 527 333 527  C 338 527 333 527 338 527  C 338 528 338 527 338 528  C 348 528 338 528 348 528  C 348 529 348 528 348 529  C 348 530 348 529 348 530  C 349 530 348 530 349 530  C 353 530 349 530 353 530  C 353 533 353 530 353 533  C 353 537 353 533 353 537  C 346 537 353 537 346 537  C 346 533 346 537 346 533  C 319 533 346 533 319 533  C 319 537 319 533 319 537  C 325 537 319 537 325 537  C 325 540 325 537 325 540  C 317 540 325 540 317 540  C 320 540 317 540 320 540  C 320 539 320 540 320 539  C 328 539 320 539 328 539  C 328 539 328 539 328 539  C 333 539 328 539 333 539  C 333 523 333 539 333 523  C 333 528 333 523 333 528  C 332 528 333 528 332 528  C 342 528 332 528 342 528  C 342 533 342 528 342 533  C 342 534 342 533 342 534  C 341 534 342 534 341 534  C 344 534 341 534 344 534  C 344 534 344 534 344 534  C 354 534 344 534 354 534  C 354 537 354 534 354 537  C 365 537 354 537 365 537  C 365 533 365 537 365 533  C 365 550 365 533 365 550  C 352 550 365 550 352 550  C 352 571 352 550 352 571  C 348 571 352 571 348 571  C 348 580 348 571 348 580  C 352 580 348 580 352 580  C 355 580 352 580 355 580  C 355 579 355 580 355 579  C 351 579 355 579 351 579  C 351 577 351 579 351 577  C 347 577 351 577 347 577  C 347 565 347 577 347 565  C 356 565 347 565 356 565  C 356 573 356 565 356 573  C 356 602 356 573 356 602  C 351 602 356 602 351 602  C 351 631 351 602 351 631  C 353 631 351 631 353 631  C 352 631 353 631 352 631  C 352 626 352 631 352 626  C 352 653 352 626 352 653  C 347 653 352 653 347 653  C 342 653 347 653 342 653  C 342 646 342 653 342 646  C 342 650 342 646 342 650  C 345 650 342 650 345 650  C 345 657 345 650 345 657  C 353 657 345 657 353 657  C 353 671 353 657 353 671  C 354 671 353 671 354 671 M354 671 C 356 671 354 671 356 671  C 356 668 356 671 356 668  C 356 668 356 668 356 668  C 356 662 356 668 356 662  C 356 679 356 662 356 679  C 355 679 356 679 355 679  C 363 679 355 679 363 679  C 363 677 363 679 363 677  C 363 686 363 677 363 686  C 359 686 363 686 359 686  C 359 686 359 686 359 686  C 338 686 359 686 338 686  C 338 687 338 686 338 687  C 341 687 338 687 341 687  C 346 687 341 687 346 687  C 346 685 346 687 346 685  C 367 685 346 685 367 685  C 367 685 367 685 367 685 M367 685 C 367 686 367 685 367 686  C 357 686 367 686 357 686  C 357 692 357 686 357 692  C 361 692 357 692 361 692  C 373 692 361 692 373 692  C 373 693 373 692 373 693  C 373 720 373 693 373 720  C 372 720 373 720 372 720  C 376 720 372 720 376 720  C 376 708 376 720 376 708  C 387 708 376 708 387 708  C 387 705 387 708 387 705  C 387 717 387 705 387 717  C 406 717 387 717 406 717  C 406 720 406 717 406 720  C 400 720 406 720 400 720  C 400 727 400 720 400 727  C 399 727 400 727 399 727  C 407 727 399 727 407 727  C 407 727 407 727 407 727  C 415 727 407 727 415 727  C 415 719 415 727 415 719  C 414 719 415 719 414 719  C 414 713 414 719 414 713  C 415 713 414 713 415 713  C 415 676 415 713 415 676  C 422 676 415 676 422 676  C 422 673 422 676 422 673  C 424 673 422 673 424 673  C 424 672 424 673 424 672  C 432 672 424 672 432 672  C 432 673 432 672 432 673  C 432 676 432 673 432 676  C 435 676 432 676 435 676  C 441 676 435 676 441 676  C 441 676 441 676 441 676  C 441 685 441 676 441 685  C 430 685 441 685 430 685  C 421 685 430 685 421 685  C 421 673 421 685 421 673  C 421 682 421 673 421 682  C 417 682 421 682 417 682  C 417 757 417 682 417 757  C 417 757 417 757 417 757  C 417 760 417 757 417 760  C 418 760 417 760 418 760  C 413 760 418 760 413 760  C 413 751 413 760 413 751  C 412 751 413 751 412 751  C 412 755 412 751 412 755  C 412 749 412 755 412 749  C 418 749 412 749 418 749  C 418 777 418 749 418 777  C 421 777 418 777 421 777  C 424 777 421 777 424 777  C 424 753 424 777 424 753  C 424 759 424 753 424 759  C 431 759 424 759 431 759  C 452 759 431 759 452 759  C 452 758 452 759 452 758  C 473 758 452 758 473 758  C 473 758 473 758 473 758  C 485 758 473 758 485 758  C 485 761 485 758 485 761  C 485 758 485 761 485 758  C 487 758 485 758 487 758  C 487 770 487 758 487 770  C 481 770 487 770 481 770  C 481 772 481 770 481 772  C 480 772 481 772 480 772  C 495 772 480 772 495 772  C 495 765 495 772 495 765  C 495 777 495 765 495 777  C 493 777 495 777 493 777  C 498 777 493 777 498 777  C 498 781 498 777 498 781  C 518 781 498 781 518 781  C 518 791 518 781 518 791  C 518 839 518 791 518 839  C 518 839 518 839 518 839  C 518 846 518 839 518 846  C 517 846 518 846 517 846 Z"/>
</svg>