<svg height="392" width="297" xmlns="http://www.w3.org/2000/svg"><path d="M148 196 C 152 196 148 196 152 196  C 152 196 152 196 152 196 M152 196 C 152 213 152 196 152 213  C 140 213 152 213 140 213  C 140 210 140 213 140 210  C 134 210 140 210 134 210  C 134 219 134 210 134 219  C 138 219 134 219 138 219  C 150 219 138 219 150 219  C 150 222 150 219 150 222  C 162 222 150 222 162 222  C 162 205 162 222 162 205  C 162 217 162 205 162 217  C 156 217 162 217 156 217  C 155 217 156 217 155 217  C 155 212 155 217 155 212  C 155 222 155 212 155 222  C 156 222 155 222 156 222 M156 222 C 156 229 156 222 156 229  C 163 229 156 229 163 229  C 163 232 163 229 163 232  C 163 232 163 232 163 232  C 169 232 163 232 169 232  C 169 229 169 232 169 229  C 169 234 169 229 169 234  C 169 234 169 234 169 234  C 169 234 169 234 169 234  C 169 231 169 234 169 231  C 169 241 169 231 169 241  C 164 241 169 241 164 241  C 165 241 164 241 165 241  C 165 241 165 241 165 241  C 165 249 165 241 165 249  C 165 249 165 249 165 249 M165 249 C 165 249 165 249 165 249  C 164 249 165 249 164 249  C 170 249 164 249 170 249  C 170 248 170 249 170 248  C 170 250 170 248 170 250  C 167 250 170 250 167 250  C 179 250 167 250 179 250  C 179 242 179 250 179 242  C 179 239 179 242 179 239  C 179 239 179 239 179 239  C 188 239 179 239 188 239  C 188 230 188 239 188 230  C 212 230 188 230 212 230  C 212 226 212 230 212 226  C 220 226 212 226 220 226  C 220 225 220 226 220 225  C 222 225 220 225 222 225  C 222 222 222 225 222 222  C 231 222 222 222 231 222  C 231 223 231 222 231 223  C 231 228 231 223 231 228  C 234 228 231 228 234 228  C 234 229 234 228 234 229  C 255 229 234 229 255 229  C 255 258 255 229 255 258  C 251 258 255 258 251 258  C 250 258 251 258 250 258  C 250 258 250 258 250 258  C 250 261 250 258 250 261  C 249 261 250 261 249 261  C 255 261 249 261 255 261  C 255 261 255 261 255 261  C 255 280 255 261 255 280  C 252 280 255 280 252 280  C 259 280 252 280 259 280  C 259 281 259 280 259 281  C 262 281 259 281 262 281  C 262 280 262 281 262 280  C 262 292 262 280 262 292  C 265 292 262 292 265 292  C 267 292 265 292 267 292  C 267 294 267 292 267 294  C 267 304 267 294 267 304  C 264 304 267 304 264 304  C 275 304 264 304 275 304  C 275 302 275 304 275 302  C 275 312 275 302 275 312  C 275 312 275 312 275 312  C 274 312 275 312 274 312  C 274 309 274 312 274 309  C 274 338 274 309 274 338  C 275 338 274 338 275 338  C 275 359 275 338 275 359  C 276 359 275 359 276 359  C 288 359 276 359 288 359  C 288 360 288 359 288 360  C 288 365 288 360 288 365  C 290 365 288 365 290 365  C 311 365 290 365 311 365  C 311 365 311 365 311 365  C 311 363 311 365 311 363  C 304 363 311 363 304 363  C 304 365 304 363 304 365  C 306 365 304 365 306 365  C 308 365 306 365 308 365  C 308 364 308 365 308 364  C 308 368 308 364 308 368  C 311 368 308 368 311 368  C 311 365 311 368 311 365  C 313 365 311 365 313 365  C 313 369 313 365 313 369  C 322 369 313 369 322 369  C 322 371 322 369 322 371  C 314 371 322 371 314 371  C 332 371 314 371 332 371  C 332 368 332 371 332 368  C 335 368 332 368 335 368  C 335 367 335 368 335 367  C 336 367 335 367 336 367  C 336 361 336 367 336 361  C 336 389 336 361 336 389  C 338 389 336 389 338 389  C 338 389 338 389 338 389  C 338 368 338 389 338 368  C 344 368 338 368 344 368  C 344 366 344 368 344 366  C 344 367 344 366 344 367  C 343 367 344 367 343 367  C 351 367 343 367 351 367  C 351 368 351 367 351 368  C 352 368 351 368 352 368  C 352 331 352 368 352 331  C 358 331 352 331 358 331  C 358 330 358 331 358 330  C 358 333 358 330 358 333  C 358 333 358 333 358 333  C 358 361 358 333 358 361  C 357 361 358 361 357 361  C 357 364 357 361 357 364  C 351 364 357 364 351 364  C 351 367 351 364 351 367  C 352 367 351 367 352 367  C 352 377 352 367 352 377  C 348 377 352 377 348 377  C 348 374 348 377 348 374  C 347 374 348 374 347 374  C 365 374 347 374 365 374  C 365 372 365 374 365 372  C 370 372 365 372 370 372  C 370 358 370 372 370 358  C 370 401 370 358 370 401  C 360 401 370 401 360 401  C 367 401 360 401 367 401  C 367 398 367 401 367 398  C 372 398 367 398 372 398  C 372 402 372 398 372 402  C 372 402 372 402 372 402  C 363 402 372 402 363 402  C 373 402 363 402 373 402  C 373 408 373 402 373 408  C 373 422 373 408 373 422  C 374 422 373 422 374 422  C 383 422 374 422 383 422  C 383 416 383 422 383 416  C 383 419 383 416 383 419  C 373 419 383 419 373 419  C 373 435 373 419 373 435  C 369 435 373 435 369 435  C 368 435 369 435 368 435  C 368 426 368 435 368 426  C 369 426 368 426 369 426  C 369 426 369 426 369 426  C 387 426 369 426 387 426  C 387 427 387 426 387 427  C 387 428 387 427 387 428  C 385 428 387 428 385 428  C 385 432 385 428 385 432  C 388 432 385 432 388 432  C 388 439 388 432 388 439  C 387 439 388 439 387 439  C 389 439 387 439 389 439  C 389 436 389 439 389 436  C 388 436 389 436 388 436  C 388 440 388 436 388 440  C 398 440 388 440 398 440  C 398 442 398 440 398 442  C 422 442 398 442 422 442  C 422 441 422 442 422 441  C 422 449 422 441 422 449  C 411 449 422 449 411 449  C 409 449 411 449 409 449  C 409 452 409 449 409 452  C 409 456 409 452 409 456  C 402 456 409 456 402 456  C 397 456 402 456 397 456  C 397 450 397 456 397 450  C 407 450 397 450 407 450  C 407 455 407 450 407 455  C 407 460 407 455 407 460  C 406 460 407 460 406 460  C 406 472 406 460 406 472  C 404 472 406 472 404 472  C 404 475 404 472 404 475  C 403 475 404 475 403 475  C 403 482 403 475 403 482  C 401 482 403 482 401 482  C 401 491 401 482 401 491  C 396 491 401 491 396 491  C 417 491 396 491 417 491  C 417 489 417 491 417 489  C 421 489 417 489 421 489  C 421 489 421 489 421 489 M421 489 C 421 496 421 489 421 496  C 412 496 421 496 412 496  C 408 496 412 496 408 496  C 408 494 408 496 408 494  C 429 494 408 494 429 494  C 429 494 429 494 429 494  C 433 494 429 494 433 494  C 433 479 433 494 433 479  C 433 500 433 479 433 500  C 429 500 433 500 429 500  C 429 495 429 500 429 495  C 402 495 429 495 402 495 M402 495 C 411 495 402 495 411 495  C 411 496 411 495 411 496  C 411 500 411 496 411 500  C 403 500 411 500 403 500  C 405 500 403 500 405 500  C 405 491 405 500 405 491  C 409 491 405 491 409 491  C 409 491 409 491 409 491  C 409 499 409 491 409 499  C 408 499 409 499 408 499  C 408 496 408 499 408 496  C 406 496 408 496 406 496  C 406 509 406 496 406 509  C 401 509 406 509 401 509  C 401 508 401 509 401 508  C 381 508 401 508 381 508  C 381 502 381 508 381 502  C 387 502 381 502 387 502  C 393 502 387 502 393 502  C 393 503 393 502 393 503  C 393 499 393 503 393 499  C 393 499 393 499 393 499  C 388 499 393 499 388 499  C 388 487 388 499 388 487  C 388 488 388 487 388 488  C 383 488 388 488 383 488  C 385 488 383 488 385 488  C 385 486 385 488 385 486  C 400 486 385 486 400 486  C 400 508 400 486 400 508  C 400 512 400 508 400 512  C 406 512 400 512 406 512  C 406 513 406 512 406 513  C 410 513 406 513 410 513  C 410 512 410 513 410 512  C 390 512 410 512 390 512  C 390 512 390 512 390 512  C 390 512 390 512 390 512  C 394 512 390 512 394 512  C 394 489 394 512 394 489  C 402 489 394 489 402 489  C 402 490 402 489 402 490  C 402 503 402 490 402 503  C 409 503 402 503 409 503  C 409 531 409 503 409 531  C 404 531 409 531 404 531  C 409 531 404 531 409 531  C 409 534 409 531 409 534  C 409 548 409 534 409 548  C 418 548 409 548 418 548  C 418 550 418 548 418 550  C 409 550 418 550 409 550  C 409 565 409 550 409 565  C 409 565 409 565 409 565  C 429 565 409 565 429 565  C 429 575 429 565 429 575  C 437 575 429 575 437 575  C 437 576 437 575 437 576  C 437 603 437 576 437 603  C 435 603 437 603 435 603  C 435 608 435 603 435 608  C 437 608 435 608 437 608  C 437 619 437 608 437 619  C 457 619 437 619 457 619  C 455 619 457 619 455 619  C 455 612 455 619 455 612  C 455 621 455 612 455 621  C 456 621 455 621 456 621  C 453 621 456 621 453 621  C 453 615 453 621 453 615  C 462 615 453 615 462 615  C 462 622 462 615 462 622  C 462 629 462 622 462 629  C 461 629 462 629 461 629  C 463 629 461 629 463 629  C 463 629 463 629 463 629  C 463 639 463 629 463 639  C 462 639 463 639 462 639  C 463 639 462 639 463 639  C 463 624 463 639 463 624  C 473 624 463 624 473 624  C 473 621 473 624 473 621  C 473 622 473 621 473 622  C 473 622 473 622 473 622  C 473 622 473 622 473 622  C 473 612 473 622 473 612  C 470 612 473 612 470 612  C 470 599 470 612 470 599  C 470 605 470 599 470 605  C 470 605 470 605 470 605  C 467 605 470 605 467 605  C 467 604 467 605 467 604  C 467 610 467 604 467 610  C 471 610 467 610 471 610  C 479 610 471 610 479 610  C 479 611 479 610 479 611  C 479 659 479 611 479 659  C 479 659 479 659 479 659  C 479 668 479 659 479 668  C 475 668 479 668 475 668  C 486 668 475 668 486 668  C 486 671 486 668 486 671  C 486 684 486 671 486 684  C 485 684 486 684 485 684  C 480 684 485 684 480 684  C 480 675 480 684 480 675  C 486 675 480 675 486 675  C 486 677 486 675 486 677  C 486 705 486 677 486 705  C 483 705 486 705 483 705  C 474 705 483 705 474 705  C 474 693 474 705 474 693  C 468 693 474 693 468 693  C 468 686 468 693 468 686  C 467 686 468 686 467 686  C 467 680 467 686 467 680  C 477 680 467 680 477 680  C 477 681 477 680 477 681  C 482 681 477 681 482 681  C 482 685 482 681 482 685  C 482 666 482 685 482 666  C 457 666 482 666 457 666  C 464 666 457 666 464 666  C 464 664 464 666 464 664  C 463 664 464 664 463 664  C 463 662 463 664 463 662  C 470 662 463 662 470 662  C 470 659 470 662 470 659  C 470 663 470 659 470 663  C 468 663 470 663 468 663  C 468 689 468 663 468 689  C 460 689 468 689 460 689  C 460 697 460 689 460 697  C 456 697 460 697 456 697  C 456 702 456 697 456 702  C 450 702 456 702 450 702  C 451 702 450 702 451 702  C 451 702 451 702 451 702  C 451 703 451 702 451 703  C 452 703 451 703 452 703  C 452 707 452 703 452 707  C 441 707 452 707 441 707  C 441 717 441 707 441 717  C 450 717 441 717 450 717  C 459 717 450 717 459 717  C 459 720 459 717 459 720  C 467 720 459 720 467 720  C 467 719 467 720 467 719  C 467 719 467 719 467 719  C 467 719 467 719 467 719  C 467 724 467 719 467 724  C 462 724 467 724 462 724  C 462 727 462 724 462 727  C 466 727 462 727 466 727  C 457 727 466 727 457 727  C 457 727 457 727 457 727  C 457 732 457 727 457 732  C 462 732 457 732 462 732  C 465 732 462 732 465 732  C 465 746 465 732 465 746  C 481 746 465 746 481 746  C 481 739 481 746 481 739  C 485 739 481 739 485 739  C 485 727 485 739 485 727  C 497 727 485 727 497 727  C 497 726 497 727 497 726  C 509 726 497 726 509 726  C 509 719 509 726 509 719  C 509 716 509 719 509 716  C 501 716 509 716 501 716  C 501 733 501 716 501 733  C 499 733 501 733 499 733  C 499 753 499 733 499 753  C 498 753 499 753 498 753  C 498 759 498 753 498 759  C 505 759 498 759 505 759  C 505 760 505 759 505 760  C 507 760 505 760 507 760  C 507 772 507 760 507 772  C 518 772 507 772 518 772  C 518 846 518 772 518 846  C 517 846 518 846 517 846 Z"/>
</svg>