<svg height="392" width="297" xmlns="http://www.w3.org/2000/svg"><path d="M148 196 C 148 197 148 196 148 197  C 150 197 148 197 150 197  C 150 205 150 197 150 205  C 158 205 150 205 158 205  C 158 215 158 205 158 215  C 158 218 158 215 158 218  C 182 218 158 218 182 218  C 183 218 182 218 183 218  C 201 218 183 218 201 218  C 201 266 201 218 201 266  C 201 267 201 266 201 267  C 202 267 201 267 202 267  C 202 286 202 267 202 286  C 202 289 202 286 202 289  C 202 298 202 289 202 298  C 202 279 202 298 202 279  C 206 279 202 279 206 279  C 206 279 206 279 206 279  C 206 278 206 279 206 278  C 206 278 206 278 206 278  C 206 281 206 278 206 281  C 206 284 206 281 206 284  C 206 285 206 284 206 285  C 206 273 206 285 206 273  C 206 302 206 273 206 302  C 206 302 206 302 206 302  C 207 302 206 302 207 302  C 208 302 207 302 208 302  C 208 302 208 302 208 302  C 208 305 208 302 208 305  C 208 313 208 305 208 313  C 208 326 208 313 208 326  C 208 323 208 326 208 323  C 208 333 208 323 208 333  C 208 334 208 333 208 334  C 208 332 208 334 208 332  C 201 332 208 332 201 332  C 225 332 201 332 225 332  C 224 332 225 332 224 332  C 224 333 224 332 224 333  C 224 334 224 333 224 334  C 224 341 224 334 224 341  C 226 341 224 341 226 341  C 226 348 226 341 226 348  C 230 348 226 348 230 348  C 230 346 230 348 230 346  C 225 346 230 346 225 346  C 230 346 225 346 230 346  C 230 360 230 346 230 360  C 224 360 230 360 224 360  C 223 360 224 360 223 360  C 231 360 223 360 231 360  C 230 360 231 360 230 360  C 230 360 230 360 230 360  C 231 360 230 360 231 360  C 227 360 231 360 227 360  C 227 369 227 360 227 369  C 219 369 227 369 219 369  C 240 369 219 369 240 369  C 240 397 240 369 240 397  C 240 410 240 397 240 410  C 246 410 240 410 246 410  C 246 410 246 410 246 410  C 244 410 246 410 244 410  C 244 413 244 410 244 413  C 246 413 244 413 246 413  C 246 423 246 413 246 423  C 246 417 246 423 246 417  C 246 419 246 417 246 419  C 242 419 246 419 242 419  C 242 418 242 419 242 418  C 242 419 242 418 242 419  C 244 419 242 419 244 419  C 244 412 244 419 244 412  C 262 412 244 412 262 412  C 257 412 262 412 257 412  C 252 412 257 412 252 412  C 252 417 252 412 252 417  C 252 408 252 417 252 408  C 253 408 252 408 253 408  C 253 410 253 408 253 410  C 253 406 253 410 253 406  C 253 406 253 406 253 406  C 253 407 253 406 253 407  C 257 407 253 407 257 407  C 257 410 257 407 257 410  C 251 410 257 410 251 410  C 260 410 251 410 260 410  C 260 404 260 410 260 404  C 260 416 260 404 260 416  C 240 416 260 416 240 416  C 240 416 240 416 240 416  C 235 416 240 416 235 416  C 226 416 235 416 226 416  C 226 393 226 416 226 393  C 226 391 226 393 226 391  C 226 354 226 391 226 354  C 226 348 226 354 226 348  C 234 348 226 348 234 348  C 237 348 234 348 237 348  C 237 345 237 348 237 345  C 243 345 237 345 243 345  C 243 352 243 345 243 352  C 216 352 243 352 216 352  C 216 353 216 352 216 353  C 216 356 216 353 216 356  C 236 356 216 356 236 356  C 236 357 236 356 236 357  C 242 357 236 357 242 357  C 242 367 242 357 242 367  C 242 360 242 367 242 360  C 242 357 242 360 242 357  C 242 336 242 357 242 336  C 239 336 242 336 239 336  C 239 337 239 336 239 337  C 239 336 239 337 239 336  C 239 341 239 336 239 341  C 239 346 239 341 239 346  C 239 343 239 346 239 343  C 244 343 239 343 244 343  C 244 343 244 343 244 343  C 244 342 244 343 244 342  C 244 356 244 342 244 356  C 249 356 244 356 249 356  C 249 357 249 356 249 357  C 249 359 249 357 249 359  C 249 359 249 359 249 359  C 249 356 249 359 249 356  C 261 356 249 356 261 356  C 265 356 261 356 265 356  C 263 356 265 356 263 356  C 261 356 263 356 261 356  C 270 356 261 356 270 356  C 270 360 270 356 270 360  C 276 360 270 360 276 360  C 276 365 276 360 276 365  C 276 365 276 365 276 365  C 278 365 276 365 278 365  C 277 365 278 365 277 365  C 286 365 277 365 286 365  C 293 365 286 365 293 365  C 292 365 293 365 292 365  C 298 365 292 365 298 365  C 302 365 298 365 302 365  C 302 364 302 365 302 364  C 302 364 302 364 302 364  C 302 392 302 364 302 392  C 302 419 302 392 302 419  C 302 421 302 419 302 421  C 292 421 302 421 292 421  C 292 421 292 421 292 421  C 292 436 292 421 292 436  C 292 435 292 436 292 435  C 292 449 292 435 292 449  C 292 452 292 449 292 452  C 300 452 292 452 300 452  C 300 449 300 452 300 449  C 308 449 300 449 308 449  C 299 449 308 449 299 449  C 299 440 299 449 299 440  C 300 440 299 440 300 440  C 295 440 300 440 295 440  C 294 440 295 440 294 440  C 290 440 294 440 290 440  C 265 440 290 440 265 440  C 265 444 265 440 265 444  C 265 445 265 444 265 445  C 269 445 265 445 269 445  C 269 457 269 445 269 457  C 269 477 269 457 269 477  C 278 477 269 477 278 477  C 278 464 278 477 278 464  C 272 464 278 464 272 464  C 272 464 272 464 272 464  C 263 464 272 464 263 464  C 271 464 263 464 271 464  C 271 468 271 464 271 468  C 275 468 271 468 275 468  C 275 451 275 468 275 451  C 274 451 275 451 274 451  C 274 452 274 451 274 452  C 272 452 274 452 272 452  C 273 452 272 452 273 452  C 273 453 273 452 273 453  C 273 460 273 453 273 460  C 274 460 273 460 274 460  C 275 460 274 460 275 460  C 274 460 275 460 274 460  C 274 459 274 460 274 459  C 262 459 274 459 262 459  C 256 459 262 459 256 459  C 256 463 256 459 256 463  C 263 463 256 463 263 463  C 263 461 263 463 263 461  C 268 461 263 461 268 461  C 259 461 268 461 259 461  C 254 461 259 461 254 461  C 254 467 254 461 254 467  C 253 467 254 467 253 467  C 253 488 253 467 253 488  C 253 488 253 488 253 488  C 253 483 253 488 253 483  C 252 483 253 483 252 483  C 247 483 252 483 247 483  C 248 483 247 483 248 483  C 240 483 248 483 240 483  C 242 483 240 483 242 483  C 222 483 242 483 222 483  C 222 480 222 483 222 480  C 224 480 222 480 224 480  C 225 480 224 480 225 480  C 225 480 225 480 225 480  C 224 480 225 480 224 480  C 227 480 224 480 227 480  C 227 506 227 480 227 506  C 239 506 227 506 239 506  C 249 506 239 506 249 506  C 258 506 249 506 258 506  C 261 506 258 506 261 506  C 261 512 261 506 261 512  C 261 513 261 512 261 513  C 272 513 261 513 272 513  C 270 513 272 513 270 513  C 291 513 270 513 291 513  C 298 513 291 513 298 513  C 298 517 298 513 298 517  C 298 516 298 517 298 516  C 298 516 298 516 298 516  C 298 518 298 516 298 518  C 313 518 298 518 313 518  C 313 535 313 518 313 535  C 313 538 313 535 313 538  C 313 612 313 538 313 612  C 313 617 313 612 313 617  C 313 605 313 617 313 605  C 313 607 313 605 313 607  C 313 611 313 607 313 611  C 314 611 313 611 314 611  C 314 622 314 611 314 622  C 314 622 314 622 314 622  C 314 608 314 622 314 608  C 321 608 314 608 321 608  C 332 608 321 608 332 608  C 353 608 332 608 353 608  C 353 618 353 608 353 618  C 351 618 353 618 351 618  C 312 501 274 384 236 267  C 236 264 236 267 236 264  C 236 267 236 264 236 267  C 236 259 236 267 236 259  C 236 257 236 259 236 257  C 234 257 236 257 234 257  C 234 259 234 257 234 259  C 228 259 234 259 228 259  C 228 275 228 259 228 275  C 244 275 228 275 244 275  C 235 275 244 275 235 275  C 235 275 235 275 235 275  C 246 275 235 275 246 275  C 253 275 246 275 253 275  C 253 297 253 275 253 297  C 257 297 253 297 257 297  C 257 290 257 297 257 290  C 256 290 257 290 256 290  C 262 290 256 290 262 290  C 261 290 262 290 261 290  C 260 290 261 290 260 290  C 260 297 260 290 260 297  C 260 325 260 297 260 325  C 259 325 260 325 259 325  C 259 319 259 325 259 319  C 259 328 259 319 259 328  C 259 331 259 328 259 331  C 259 325 259 331 259 325  C 259 322 259 325 259 322  C 251 322 259 322 251 322  C 254 322 251 322 254 322  C 254 319 254 322 254 319  C 261 319 254 319 261 319  C 268 319 261 319 268 319  C 268 323 268 319 268 323  C 268 329 268 323 268 329  C 268 350 268 329 268 350  C 264 350 268 350 264 350  C 264 348 264 350 264 348  C 264 333 264 348 264 333  C 264 342 264 333 264 342  C 262 342 264 342 262 342  C 262 345 262 342 262 345  C 261 345 262 345 261 345  C 261 353 261 345 261 353  C 271 353 261 353 271 353  C 267 353 271 353 267 353  C 273 353 267 353 273 353  C 273 381 273 353 273 381  C 277 381 273 381 277 381  C 266 381 277 381 266 381  C 266 371 266 381 266 371  C 268 371 266 371 268 371  C 268 372 268 371 268 372  C 268 372 268 372 268 372  C 268 373 268 372 268 373  C 268 378 268 373 268 378  C 268 378 268 378 268 378  C 268 382 268 378 268 382  C 260 382 268 382 260 382  C 260 379 260 382 260 379  C 260 389 260 379 260 389  C 257 389 260 389 257 389  C 259 389 257 389 259 389  C 259 386 259 389 259 386  C 259 379 259 386 259 379  C 259 387 259 379 259 387  C 259 387 259 387 259 387  C 268 387 259 387 268 387  C 271 387 268 387 271 387  C 280 387 271 387 280 387  C 276 387 280 387 276 387  C 276 386 276 387 276 386  C 276 390 276 386 276 390  C 276 387 276 390 276 387  C 278 387 276 387 278 387  C 278 400 278 387 278 400  C 287 400 278 400 287 400  C 282 400 287 400 282 400  C 282 410 282 400 282 410  C 282 405 282 410 282 405  C 272 405 282 405 272 405  C 272 405 272 405 272 405  C 272 417 272 405 272 417  C 272 429 272 417 272 429  C 271 429 272 429 271 429  C 271 446 271 429 271 446  C 270 446 271 446 270 446  C 270 456 270 446 270 456  C 275 456 270 456 275 456  C 272 456 275 456 272 456  C 272 463 272 456 272 463  C 261 463 272 463 261 463  C 271 463 261 463 271 463  C 271 468 271 463 271 468  C 268 468 271 468 268 468  C 268 468 268 468 268 468  C 267 468 268 468 267 468  C 285 468 267 468 285 468  C 285 464 285 468 285 464  C 284 464 285 464 284 464  C 293 464 284 464 293 464  C 291 464 293 464 291 464  C 291 469 291 464 291 469  C 291 467 291 469 291 467  C 288 467 291 467 288 467  C 287 467 288 467 287 467  C 287 464 287 467 287 464  C 290 464 287 464 290 464  C 290 493 290 464 290 493  C 290 493 290 493 290 493  C 302 493 290 493 302 493  C 302 493 302 493 302 493  C 299 493 302 493 299 493  C 292 493 299 493 292 493  C 292 493 292 493 292 493  C 294 493 292 493 294 493  C 294 491 294 493 294 491  C 294 490 294 491 294 490  C 296 490 294 490 296 490  C 308 490 296 490 308 490  C 318 490 308 490 318 490  C 315 490 318 490 315 490  C 315 490 315 490 315 490  C 315 484 315 490 315 484  C 315 475 315 484 315 475  C 315 480 315 475 315 480  C 310 480 315 480 310 480  C 310 478 310 480 310 478  C 310 478 310 478 310 478  C 320 478 310 478 320 478  C 316 478 320 478 316 478  C 320 478 316 478 320 478  C 320 477 320 478 320 477  C 320 478 320 477 320 478  C 320 466 320 478 320 466  C 320 463 320 466 320 463  C 320 467 320 463 320 467  C 332 467 320 467 332 467  C 332 452 332 467 332 452  C 332 452 332 452 332 452  C 338 452 332 452 338 452  C 338 495 338 452 338 495  C 338 486 338 495 338 486  C 358 486 338 486 358 486  C 360 486 358 486 360 486  C 372 486 360 486 372 486  C 375 486 372 486 375 486  C 381 486 375 486 381 486  C 381 492 381 486 381 492  C 381 492 381 492 381 492  C 381 492 381 492 381 492  C 381 496 381 492 381 496  C 402 496 381 496 402 496  C 402 495 402 496 402 495 Z"/>
</svg>