<svg height="392" width="297" xmlns="http://www.w3.org/2000/svg"><path d="M148 196 C 148 193 148 196 148 193  C 148 194 148 193 148 194  C 140 194 148 194 140 194  C 147 194 140 194 147 194  C 155 194 147 194 155 194  C 158 194 155 194 158 194  C 131 194 158 194 131 194  C 127 194 131 194 127 194  C 127 208 127 194 127 208  C 127 206 127 208 127 206  C 131 206 127 206 131 206  C 131 203 131 206 131 203  C 131 210 131 203 131 210  C 131 210 131 210 131 210  C 138 210 131 210 138 210  C 140 210 138 210 140 210  C 145 210 140 210 145 210  C 157 210 145 210 157 210  C 177 210 157 210 177 210  C 177 205 177 210 177 205  C 177 206 177 205 177 206  C 175 206 177 206 175 206  C 175 220 175 206 175 220  C 175 248 175 220 175 248  C 190 248 175 248 190 248  C 190 261 190 248 190 261  C 190 261 190 261 190 261  C 190 253 190 261 190 253  C 185 253 190 253 185 253  C 174 253 185 253 174 253  C 198 253 174 253 198 253  C 197 253 198 253 197 253  C 197 253 197 253 197 253  C 206 253 197 253 206 253  C 206 258 206 253 206 258  C 206 253 206 258 206 253  C 205 253 206 253 205 253  C 205 254 205 253 205 254  C 211 254 205 254 211 254  C 211 261 211 254 211 261  C 211 254 211 261 211 254  C 212 254 211 254 212 254  C 212 264 212 254 212 264  C 218 264 212 264 218 264  C 220 264 218 264 220 264  C 214 264 220 264 214 264  C 221 264 214 264 221 264  C 221 277 221 264 221 277  C 221 260 221 277 221 260  C 230 260 221 260 230 260  C 235 260 230 260 235 260  C 235 257 235 260 235 257  C 235 257 235 257 235 257  C 235 248 235 257 235 248  C 244 248 235 248 244 248  C 244 258 244 248 244 258  C 244 258 244 258 244 258  C 244 255 244 258 244 255  C 244 260 244 255 244 260  C 244 261 244 260 244 261  C 244 247 244 261 244 247  C 244 235 244 247 244 235  C 244 245 244 235 244 245  C 247 245 244 245 247 245  C 249 245 247 245 249 245  C 249 245 249 245 249 245  C 249 245 249 245 249 245  C 259 245 249 245 259 245  C 268 245 259 245 268 245  C 268 249 268 245 268 249  C 268 278 268 249 268 278  C 264 278 268 278 264 278  C 264 272 264 278 264 272  C 274 272 264 272 274 272  C 274 269 274 272 274 269  C 268 269 274 269 268 269  C 268 296 268 269 268 296  C 269 296 268 296 269 296  C 269 295 269 296 269 295  C 269 298 269 295 269 298  C 265 298 269 298 265 298  C 265 303 265 298 265 303  C 265 303 265 303 265 303  C 265 305 265 303 265 305  C 265 303 265 305 265 303  C 265 280 265 303 265 280  C 256 280 265 280 256 280  C 256 294 256 280 256 294  C 256 299 256 294 256 299  C 256 302 256 299 256 302  C 253 302 256 302 253 302  C 255 302 253 302 255 302  C 255 376 255 302 255 376  C 253 376 255 376 253 376  C 244 376 253 376 244 376  C 244 379 244 376 244 379  C 243 379 244 379 243 379  C 243 386 243 379 243 386  C 244 386 243 386 244 386  C 243 386 244 386 243 386  C 243 380 243 386 243 380  C 243 343 243 380 243 343  C 247 343 243 343 247 343  C 244 343 247 343 244 343  C 244 359 244 343 244 359  C 244 368 244 359 244 368  C 244 376 244 368 244 376  C 250 376 244 376 250 376  C 274 376 250 376 274 376  C 274 388 274 376 274 388  C 274 387 274 388 274 387  C 274 381 274 387 274 381  C 270 381 274 381 270 381  C 270 381 270 381 270 381  C 281 381 270 381 281 381  C 283 381 281 381 283 381  C 284 381 283 381 284 381  C 284 381 284 381 284 381  C 279 381 284 381 279 381  C 279 372 279 381 279 372  C 273 372 279 372 273 372  C 273 375 273 372 273 375  C 273 383 273 375 273 383  C 273 386 273 383 273 386  C 272 386 273 386 272 386  C 271 386 272 386 271 386  C 281 386 271 386 281 386  C 281 386 281 386 281 386  C 281 377 281 386 281 377  C 281 382 281 377 281 382  C 293 382 281 382 293 382  C 292 382 293 382 292 382  C 313 382 292 382 313 382  C 313 369 313 382 313 369  C 310 369 313 369 310 369  C 310 376 310 369 310 376  C 315 376 310 376 315 376  C 314 376 315 376 314 376  C 312 376 314 376 312 376  C 311 376 312 376 311 376  C 316 376 311 376 316 376  C 316 370 316 376 316 370  C 311 370 316 370 311 370  C 313 370 311 370 313 370  C 313 367 313 370 313 367  C 313 367 313 367 313 367  C 293 367 313 367 293 367  C 291 367 293 367 291 367  C 289 367 291 367 289 367  C 297 367 289 367 297 367  C 290 367 297 367 290 367  C 296 367 290 367 296 367  C 296 377 296 367 296 377  C 296 379 296 377 296 379  C 296 391 296 379 296 391  C 298 391 296 391 298 391  C 298 419 298 391 298 419  C 298 407 298 419 298 407  C 298 410 298 407 298 410  C 304 410 298 410 304 410  C 304 411 304 410 304 411  C 304 411 304 411 304 411  C 308 411 304 411 308 411  C 302 411 308 411 302 411  C 302 415 302 411 302 415  C 293 415 302 415 293 415  C 254 298 216 181 178 64  C 178 58 178 64 178 58  C 178 87 178 58 178 87  C 179 87 178 87 179 87  C 179 108 179 87 179 108  C 179 104 179 108 179 104  C 169 104 179 104 169 104  C 169 114 169 104 169 114  C 164 114 169 114 164 114  C 164 114 164 114 164 114  C 168 114 164 114 168 114  C 160 114 168 114 160 114  C 178 114 160 114 178 114  C 178 117 178 114 178 117  C 181 117 178 117 181 117  C 182 117 181 117 182 117  C 180 117 182 117 180 117  C 180 116 180 117 180 116  C 180 118 180 116 180 118  C 180 111 180 118 180 111  C 180 111 180 111 180 111  C 180 115 180 111 180 115  C 181 115 180 115 181 115  C 189 115 181 115 189 115  C 189 117 189 115 189 117  C 189 115 189 117 189 115  C 192 115 189 115 192 115  C 192 116 192 115 192 116  C 192 116 192 116 192 116  C 192 121 192 116 192 121  C 192 128 192 121 192 128  C 192 127 192 128 192 127  C 204 127 192 127 204 127  C 204 127 204 127 204 127  C 204 144 204 127 204 144  C 204 187 204 144 204 187  C 204 215 204 187 204 215  C 204 214 204 215 204 214  C 199 214 204 214 199 214  C 199 211 199 214 199 211  C 209 211 199 211 209 211  C 209 217 209 211 209 217  C 216 217 209 217 216 217  C 216 217 216 217 216 217  C 228 217 216 217 228 217  C 230 217 228 217 230 217  C 230 229 230 217 230 229  C 229 229 230 229 229 229  C 250 229 229 229 250 229  C 271 229 250 229 271 229  C 282 229 271 229 282 229  C 279 229 282 229 279 229  C 278 229 279 229 278 229  C 278 230 278 229 278 230  C 278 231 278 230 278 231  C 278 236 278 231 278 236  C 274 236 278 236 274 236  C 273 236 274 236 273 236  C 273 237 273 236 273 237  C 261 237 273 237 261 237  C 258 237 261 237 258 237  C 258 237 258 237 258 237  C 270 237 258 237 270 237  C 270 234 270 237 270 234  C 270 256 270 234 270 256  C 269 256 270 256 269 256  C 269 259 269 256 269 259  C 269 264 269 259 269 264  C 269 263 269 264 269 263  C 269 251 269 263 269 251  C 275 251 269 251 275 251  C 275 241 275 251 275 241  C 275 254 275 241 275 254  C 275 254 275 254 275 254  C 275 252 275 254 275 252  C 282 252 275 252 282 252  C 282 237 282 252 282 237  C 282 234 282 237 282 234  C 282 235 282 234 282 235  C 282 233 282 235 282 233  C 282 245 282 233 282 245  C 282 255 282 245 282 255  C 282 265 282 255 282 265  C 282 266 282 265 282 266  C 290 266 282 266 290 266  C 290 277 290 266 290 277  C 290 281 290 277 290 281  C 293 281 290 281 293 281  C 293 281 293 281 293 281  C 293 280 293 281 293 280  C 293 280 293 280 293 280  C 291 280 293 280 291 280  C 290 280 291 280 290 280  C 288 280 290 280 288 280  C 291 280 288 280 291 280  C 280 280 291 280 280 280  C 279 280 280 280 279 280  C 279 284 279 280 279 284  C 269 284 279 284 269 284  C 278 284 269 284 278 284  C 278 285 278 284 278 285  C 278 294 278 285 278 294  C 278 273 278 294 278 273  C 278 272 278 273 278 272  C 278 272 278 272 278 272  C 296 272 278 272 296 272  C 297 272 296 272 297 272  C 297 271 297 272 297 271  C 297 270 297 271 297 270  C 297 276 297 270 297 276  C 297 276 297 276 297 276  C 297 280 297 276 297 280  C 297 277 297 280 297 277  C 297 280 297 277 297 280  C 297 289 297 280 297 289  C 296 289 297 289 296 289  C 296 290 296 289 296 290  C 297 290 296 290 297 290  C 289 290 297 290 289 290  C 289 291 289 290 289 291  C 289 317 289 291 289 317  C 289 334 289 317 289 334  C 289 334 289 334 289 334  C 284 334 289 334 284 334  C 284 327 284 334 284 327  C 286 327 284 327 286 327  C 286 327 286 327 286 327  C 286 342 286 327 286 342  C 290 342 286 342 290 342  C 289 342 290 342 289 342  C 297 342 289 342 297 342  C 297 361 297 342 297 361  C 301 361 297 361 301 361  C 301 362 301 361 301 362  C 297 362 301 362 297 362  C 297 360 297 362 297 360  C 297 364 297 360 297 364  C 297 370 297 364 297 370  C 296 370 297 370 296 370  C 296 371 296 370 296 371  C 296 371 296 371 296 371  C 302 371 296 371 302 371  C 302 367 302 371 302 367  C 297 367 302 367 297 367  C 306 367 297 367 306 367  C 306 371 306 367 306 371  C 306 369 306 371 306 369  C 308 369 306 369 308 369  C 308 417 308 369 308 417  C 305 417 308 417 305 417  C 311 417 305 417 311 417  C 311 408 311 417 311 408  C 311 409 311 408 311 409  C 311 408 311 409 311 408  C 332 408 311 408 332 408  C 339 408 332 408 339 408  C 341 408 339 408 341 408  C 345 408 341 408 345 408  C 345 412 345 408 345 412  C 345 422 345 412 345 422  C 336 422 345 422 336 422  C 336 419 336 422 336 419  C 336 425 336 419 336 425  C 311 425 336 425 311 425  C 320 425 311 425 320 425  C 320 425 320 425 320 425  C 320 427 320 425 320 427  C 319 427 320 427 319 427  C 319 424 319 427 319 424  C 319 432 319 424 319 432  C 319 440 319 432 319 440  C 319 460 319 440 319 460  C 337 460 319 460 337 460  C 337 462 337 460 337 462  C 357 462 337 462 357 462  C 359 462 357 462 359 462  C 352 462 359 462 352 462  C 352 455 352 462 352 455  C 352 454 352 455 352 454  C 351 454 352 454 351 454  C 354 454 351 454 354 454  C 354 463 354 454 354 463  C 354 463 354 463 354 463  C 363 463 354 463 363 463  C 343 463 363 463 343 463  C 337 463 343 463 337 463  C 333 463 337 463 333 463  C 333 457 333 463 333 457  C 333 455 333 457 333 455  C 333 476 333 455 333 476  C 339 476 333 476 339 476  C 339 473 339 476 339 473  C 339 476 339 473 339 476  C 343 476 339 476 343 476  C 343 477 343 476 343 477  C 342 477 343 477 342 477  C 343 477 342 477 343 477  C 354 477 343 477 354 477  C 354 474 354 477 354 474  C 354 455 354 474 354 455  C 354 456 354 455 354 456  C 354 484 354 456 354 484  C 366 484 354 484 366 484  C 370 484 366 484 370 484  C 365 484 370 484 365 484  C 365 488 365 484 365 488  C 369 488 365 488 369 488  C 360 488 369 488 360 488  C 360 491 360 488 360 491  C 355 491 360 491 355 491  C 355 488 355 491 355 488  C 356 488 355 488 356 488  C 353 488 356 488 353 488  C 361 488 353 488 361 488  C 363 488 361 488 363 488  C 363 492 363 488 363 492  C 355 492 363 492 355 492  C 355 497 355 492 355 497  C 355 504 355 497 355 504  C 355 507 355 504 355 507  C 360 507 355 507 360 507  C 370 507 360 507 370 507  C 370 505 370 507 370 505  C 379 505 370 505 379 505  C 379 508 379 505 379 508  C 386 508 379 508 386 508  C 386 508 386 508 386 508  C 402 508 386 508 402 508  C 400 508 402 508 400 508  C 400 493 400 508 400 493  C 401 493 400 493 401 493  C 401 495 401 493 401 495  C 401 495 401 495 401 495  C 401 495 401 495 401 495  C 402 495 401 495 402 495 Z"/>
</svg>