<svg height="392" width="297" xmlns="http://www.w3.org/2000/svg"><path d="M148 196 C 148 225 148 196 148 225  C 143 225 148 225 143 225  C 153 225 143 225 153 225  C 153 227 153 225 153 227 M153 227 C 153 231 153 227 153 231  C 152 231 153 231 152 231 M152 231 C 152 243 152 231 152 243  C 156 243 152 243 156 243  C 160 243 156 243 160 243  C 160 231 160 243 160 231  C 161 231 160 231 161 231  C 161 230 161 231 161 230  C 161 232 161 230 161 232  C 160 232 161 232 160 232  C 160 242 160 232 160 242  C 157 242 160 242 157 242  C 169 242 157 242 169 242  C 169 245 169 242 169 245  C 178 245 169 245 178 245  C 178 246 178 245 178 246  C 176 246 178 246 176 246  C 176 250 176 246 176 250  C 175 250 176 250 175 250  C 175 247 175 250 175 247  C 175 276 175 247 175 276  C 176 276 175 276 176 276  C 176 280 176 276 176 280  C 169 280 176 280 169 280  C 169 306 169 280 169 306  C 161 306 169 306 161 306  C 172 306 161 306 172 306  C 172 303 172 306 172 303  C 168 303 172 303 168 303  C 168 301 168 303 168 301  C 168 298 168 301 168 298  C 168 298 168 298 168 298  C 168 346 168 298 168 346  C 168 346 168 346 168 346  C 168 359 168 346 168 359  C 163 359 168 359 163 359  C 163 380 163 359 163 380  C 163 380 163 380 163 380  C 173 380 163 380 173 380  C 173 381 173 380 173 381  C 177 381 173 381 177 381  C 177 385 177 381 177 385  C 183 385 177 385 183 385  C 183 382 183 385 183 382  C 183 399 183 382 183 399  C 179 399 183 399 179 399  C 179 402 179 399 179 402  C 172 402 179 402 172 402  C 182 402 172 402 182 402  C 182 409 182 402 182 409  C 182 411 182 409 182 411  C 172 411 182 411 172 411  C 172 421 172 411 172 421  C 168 421 172 421 168 421  C 168 449 168 421 168 449  C 166 449 168 449 166 449  C 166 449 166 449 166 449  C 165 449 166 449 165 449  C 165 430 165 449 165 430  C 140 430 165 430 140 430  C 144 430 140 430 144 430  C 144 444 144 430 144 444  C 140 444 144 444 140 444  C 140 438 140 444 140 438  C 140 434 140 438 140 434  C 139 434 140 434 139 434 M139 434 C 136 434 139 434 136 434  C 136 420 136 434 136 420  C 136 425 136 420 136 425  C 139 425 136 425 139 425  C 139 439 139 425 139 439  C 148 439 139 439 148 439 M148 439 C 148 442 148 439 148 442  C 148 442 148 442 148 442  C 149 442 148 442 149 442  C 149 405 149 442 149 405  C 151 405 149 405 151 405  C 151 405 151 405 151 405  C 151 421 151 405 151 421  C 149 421 151 421 149 421  C 151 421 149 421 151 421  C 151 419 151 421 151 419  C 171 419 151 419 171 419  C 171 429 171 419 171 429  C 171 456 171 429 171 456  C 170 456 171 456 170 456  C 170 462 170 456 170 462  C 175 462 170 462 175 462  C 196 462 175 462 196 462  C 196 462 196 462 196 462  C 196 464 196 462 196 464  C 193 464 196 464 193 464  C 188 464 193 464 188 464  C 188 452 188 464 188 452  C 199 452 188 452 199 452  C 199 454 199 452 199 454  C 204 454 199 454 204 454  C 204 458 204 454 204 458  C 204 458 204 458 204 458  C 204 457 204 458 204 457  C 204 472 204 457 204 472  C 203 472 204 472 203 472  C 203 486 203 472 203 486  C 204 486 203 486 204 486  C 204 507 204 486 204 507  C 200 507 204 507 200 507  C 200 518 200 507 200 518  C 219 518 200 518 219 518  C 228 518 219 518 228 518  C 228 521 228 518 228 521  C 230 521 228 521 230 521  C 230 518 230 521 230 518  C 230 522 230 518 230 522  C 228 522 230 522 228 522  C 228 528 228 522 228 528  C 228 528 228 528 228 528  C 228 527 228 528 228 527  C 207 527 228 527 207 527  C 214 527 207 527 214 527  C 214 528 214 527 214 528  C 221 528 214 528 221 528  C 221 524 221 528 221 524  C 221 525 221 524 221 525  C 219 525 221 525 219 525  C 219 520 219 525 219 520  C 225 520 219 520 225 520  C 225 533 225 520 225 533  C 224 533 225 533 224 533  C 228 533 224 533 228 533  C 228 517 228 533 228 517  C 228 524 228 517 228 524  C 227 524 228 524 227 524  C 227 524 227 524 227 524  C 227 523 227 524 227 523  C 247 523 227 523 247 523  C 247 522 247 523 247 522  C 271 522 247 522 271 522  C 271 518 271 522 271 518  C 280 518 271 518 280 518  C 280 523 280 518 280 523  C 280 522 280 523 280 522  C 260 522 280 522 260 522  C 260 527 260 522 260 527  C 263 527 260 527 263 527  C 263 536 263 527 263 536  C 258 536 263 536 258 536  C 266 536 258 536 266 536  C 266 534 266 536 266 534  C 281 534 266 534 281 534  C 281 527 281 534 281 527  C 281 528 281 527 281 528  C 272 528 281 528 272 528  C 281 528 272 528 281 528  C 281 530 281 528 281 530  C 287 530 281 530 287 530  C 287 530 287 530 287 530  C 287 557 287 530 287 557  C 282 557 287 557 282 557  C 294 557 282 557 294 557  C 294 558 294 557 294 558  C 294 561 294 558 294 561  C 283 561 294 561 283 561  C 283 573 283 561 283 573  C 277 573 283 573 277 573  C 280 573 277 573 280 573  C 280 572 280 573 280 572  C 280 576 280 572 280 576  C 286 576 280 576 286 576  C 281 576 286 576 281 576  C 281 569 281 576 281 569  C 281 573 281 569 281 573  C 282 573 281 573 282 573  C 300 573 282 573 300 573  C 300 570 300 573 300 570  C 300 575 300 570 300 575  C 300 575 300 575 300 575  C 300 582 300 575 300 582  C 296 582 300 582 296 582  C 298 582 296 582 298 582  C 298 582 298 582 298 582  C 298 579 298 582 298 579  C 300 579 298 579 300 579 M300 579 C 300 586 300 579 300 586  C 290 586 300 586 290 586  C 299 586 290 586 299 586  C 299 586 299 586 299 586  C 307 586 299 586 307 586  C 307 585 307 586 307 585  C 307 585 307 585 307 585  C 307 581 307 585 307 581  C 307 591 307 581 307 591  C 305 591 307 591 305 591 M305 591 C 305 588 305 591 305 588  C 306 588 305 588 306 588  C 306 596 306 588 306 596  C 304 596 306 596 304 596  C 304 598 304 596 304 598  C 306 598 304 598 306 598  C 311 598 306 598 311 598  C 311 599 311 598 311 599  C 311 627 311 599 311 627  C 314 627 311 627 314 627  C 329 627 314 627 329 627  C 329 649 329 627 329 649  C 341 649 329 649 341 649  C 341 632 341 649 341 632  C 349 632 341 632 349 632  C 349 630 349 632 349 630  C 349 633 349 630 349 633  C 352 633 349 633 352 633  C 352 633 352 633 352 633  C 352 624 352 633 352 624  C 350 624 352 624 350 624  C 350 618 350 624 350 618  C 350 613 350 618 350 613  C 323 613 350 613 323 613  C 336 613 323 613 336 613  C 336 606 336 613 336 606  C 341 606 336 606 341 606  C 341 606 341 606 341 606  C 341 603 341 606 341 603  C 335 603 341 603 335 603  C 343 603 335 603 343 603  C 343 594 343 603 343 594  C 343 595 343 594 343 595  C 344 595 343 595 344 595  C 344 596 344 595 344 596  C 365 596 344 596 365 596  C 365 596 365 596 365 596  C 365 596 365 596 365 596  C 364 596 365 596 364 596  C 364 594 364 596 364 594  C 364 603 364 594 364 603  C 364 603 364 603 364 603  C 364 612 364 603 364 612  C 365 612 364 612 365 612  C 365 617 365 612 365 617  C 367 617 365 617 367 617  C 367 692 367 617 367 692  C 366 692 367 692 366 692  C 366 701 366 692 366 701  C 370 701 366 701 370 701  C 370 707 370 701 370 707  C 378 707 370 707 378 707  C 380 707 378 707 380 707  C 380 698 380 707 380 698  C 380 704 380 698 380 704  C 374 704 380 704 374 704  C 373 704 374 704 373 704  C 373 707 373 704 373 707  C 382 707 373 707 382 707  C 382 702 382 707 382 702  C 382 712 382 702 382 712  C 377 712 382 712 377 712  C 380 712 377 712 380 712  C 380 712 380 712 380 712  C 386 712 380 712 386 712  C 386 714 386 712 386 714  C 386 727 386 714 386 727  C 393 727 386 727 393 727  C 393 736 393 727 393 736  C 388 736 393 736 388 736 M388 736 C 388 747 388 736 388 747  C 399 747 388 747 399 747  C 399 748 399 747 399 748  C 403 748 399 748 403 748  C 403 757 403 748 403 757  C 392 757 403 757 392 757  C 392 754 392 757 392 754  C 383 754 392 754 383 754  C 383 762 383 754 383 762  C 382 762 383 762 382 762  C 390 762 382 762 390 762  C 390 762 390 762 390 762  C 390 764 390 762 390 764  C 392 764 390 764 392 764  C 396 764 392 764 396 764  C 396 763 396 764 396 763  C 396 767 396 763 396 767  C 388 767 396 767 388 767  C 388 773 388 767 388 773  C 381 773 388 773 381 773  C 381 776 381 773 381 776  C 390 776 381 776 390 776  C 400 776 390 776 400 776  C 400 774 400 776 400 774  C 400 775 400 774 400 775  C 401 775 400 775 401 775  C 422 775 401 775 422 775  C 422 775 422 775 422 775  C 441 775 422 775 441 775  C 441 773 441 775 441 773  C 441 771 441 773 441 771  C 434 771 441 771 434 771  C 436 771 434 771 436 771  C 436 768 436 771 436 768  C 436 779 436 768 436 779  C 436 779 436 779 436 779  C 440 779 436 779 440 779  C 440 765 440 779 440 765  C 432 765 440 765 432 765  C 432 752 432 765 432 752  C 438 752 432 752 438 752  C 438 751 438 752 438 751  C 438 764 438 751 438 764  C 435 764 438 764 435 764  C 445 764 435 764 445 764  C 445 769 445 764 445 769  C 447 769 445 769 447 769  C 447 771 447 769 447 771  C 447 777 447 771 447 777  C 454 777 447 777 454 777  C 454 779 454 777 454 779  C 458 779 454 779 458 779  C 458 783 458 779 458 783  C 461 783 458 783 461 783  C 461 811 461 783 461 811  C 458 811 461 811 458 811  C 470 811 458 811 470 811  C 470 811 470 811 470 811  C 469 811 470 811 469 811  C 469 790 469 811 469 790  C 469 833 469 790 469 833  C 459 833 469 833 459 833  C 470 833 459 833 470 833  C 470 836 470 833 470 836  C 474 836 470 836 474 836  C 474 840 474 836 474 840  C 498 840 474 840 498 840  C 498 838 498 840 498 838  C 496 838 498 838 496 838  C 496 831 496 838 496 831  C 496 838 496 831 496 838  C 500 838 496 838 500 838  C 500 839 500 838 500 839  C 499 839 500 839 499 839  C 494 839 499 839 494 839  C 494 833 494 839 494 833  C 490 833 494 833 490 833  C 490 824 490 833 490 824  C 490 827 490 824 490 827  C 489 827 490 827 489 827  C 495 827 489 827 495 827  C 495 826 495 827 495 826 M495 826 C 495 837 495 826 495 837  C 504 837 495 837 504 837  C 504 841 504 837 504 841  C 503 841 504 841 503 841  C 503 848 503 841 503 848  C 502 848 503 848 502 848  C 502 865 502 848 502 865  C 490 865 502 865 490 865  C 497 865 490 865 497 865  C 497 866 497 865 497 866  C 497 863 497 866 497 863  C 496 863 497 863 496 863  C 496 864 496 863 496 864  C 486 864 496 864 486 864  C 504 864 486 864 504 864  C 504 865 504 864 504 865  C 510 865 504 865 510 865  C 510 862 510 865 510 862  C 510 870 510 862 510 870  C 510 870 510 870 510 870  C 510 889 510 870 510 889  C 507 889 510 889 507 889  C 515 889 507 889 515 889  C 515 890 515 889 515 890  C 507 890 515 890 507 890  C 507 891 507 890 507 891  C 508 891 507 891 508 891  C 508 891 508 891 508 891  C 508 911 508 891 508 911  C 506 911 508 911 506 911  C 504 911 506 911 504 911  C 504 909 504 911 504 909  C 502 909 504 909 502 909  C 502 901 502 909 502 901  C 513 901 502 901 513 901  C 513 893 513 901 513 893  C 522 893 513 893 522 893  C 522 893 522 893 522 893  C 526 893 522 893 526 893  C 526 892 526 893 526 892  C 525 892 526 892 525 892  C 525 887 525 892 525 887  C 528 887 525 887 528 887  C 528 863 528 887 528 863  C 528 865 528 863 528 865  C 523 865 528 865 523 865  C 524 865 523 865 524 865  C 524 850 524 865 524 850  C 524 852 524 850 524 852  C 516 852 524 852 516 852  C 517 852 516 852 517 852  C 517 846 517 852 517 846 Z"/>
</svg>