<svg height="392" width="297" xmlns="http://www.w3.org/2000/svg"><path d="M148 196 C 159 196 148 196 159 196  C 161 196 159 196 161 196  C 161 196 161 196 161 196  C 161 197 161 196 161 197  C 168 197 161 197 168 197  C 172 197 168 197 172 197  C 172 204 172 197 172 204  C 172 204 172 204 172 204  C 172 210 172 204 172 210  C 188 210 172 210 188 210  C 188 210 188 210 188 210  C 188 253 188 210 188 253  C 188 253 188 253 188 253  C 209 253 188 253 209 253  C 209 253 209 253 209 253  C 204 253 209 253 204 253  C 204 253 204 253 204 253  C 206 253 204 253 206 253  C 206 254 206 253 206 254  C 206 249 206 254 206 249  C 198 249 206 249 198 249  C 198 252 198 249 198 252  C 198 255 198 252 198 255  C 193 255 198 255 193 255  C 193 258 193 255 193 258  C 202 258 193 258 202 258  C 197 258 202 258 197 258  C 197 257 197 258 197 257  C 197 278 197 257 197 278  C 197 286 197 278 197 286  C 197 295 197 286 197 295  C 197 294 197 295 197 294  C 197 287 197 294 197 287  C 197 281 197 287 197 281  C 197 282 197 281 197 282  C 197 280 197 282 197 280  C 198 280 197 280 198 280  C 198 289 198 280 198 289  C 198 304 198 289 198 304  C 198 285 198 304 198 285  C 197 285 198 285 197 285  C 197 298 197 285 197 298  C 192 298 197 298 192 298  C 192 301 192 298 192 301  C 191 301 192 301 191 301  C 191 303 191 301 191 303  C 197 303 191 303 197 303  C 192 303 197 303 192 303  C 195 303 192 303 195 303  C 195 303 195 303 195 303  C 195 302 195 303 195 302  C 184 302 195 302 184 302  C 184 303 184 302 184 303  C 184 300 184 303 184 300  C 192 300 184 300 192 300  C 201 300 192 300 201 300  C 195 300 201 300 195 300  C 198 300 195 300 198 300  C 198 300 198 300 198 300  C 222 300 198 300 222 300  C 222 301 222 300 222 301  C 222 297 222 301 222 297  C 222 288 222 297 222 288  C 219 288 222 288 219 288  C 219 289 219 288 219 289  C 219 290 219 289 219 290  C 216 290 219 290 216 290  C 216 289 216 290 216 289  C 216 287 216 289 216 287  C 216 272 216 287 216 272  C 236 272 216 272 236 272  C 236 270 236 272 236 270  C 235 270 236 270 235 270  C 235 261 235 270 235 261  C 235 273 235 261 235 273  C 235 274 235 273 235 274  C 235 275 235 274 235 275  C 231 275 235 275 231 275  C 234 275 231 275 234 275  C 234 274 234 275 234 274  C 242 274 234 274 242 274  C 257 274 242 274 257 274  C 257 277 257 274 257 277  C 256 277 257 277 256 277  C 256 278 256 277 256 278  C 256 276 256 278 256 276  C 256 276 256 276 256 276  C 255 276 256 276 255 276  C 249 276 255 276 249 276  C 247 276 249 276 247 276  C 251 276 247 276 251 276  C 251 293 251 276 251 293  C 240 293 251 293 240 293  C 241 293 240 293 241 293  C 250 293 241 293 250 293  C 238 293 250 293 238 293  C 256 293 238 293 256 293  C 256 290 256 293 256 290  C 256 292 256 290 256 292  C 256 292 256 292 256 292  C 261 292 256 292 261 292  C 261 297 261 292 261 297  C 257 297 261 297 257 297  C 247 297 257 297 247 297  C 247 295 247 297 247 295  C 252 295 247 295 252 295  C 256 295 252 295 256 295  C 259 295 256 295 259 295  C 260 295 259 295 260 295  C 260 295 260 295 260 295  C 271 295 260 295 271 295  C 271 295 271 295 271 295  C 279 295 271 295 279 295  C 280 295 279 295 280 295  C 288 295 280 295 288 295  C 292 295 288 295 292 295  C 291 295 292 295 291 295  C 291 294 291 295 291 294  C 291 298 291 294 291 298  C 291 295 291 298 291 295  C 291 288 291 295 291 288  C 291 288 291 288 291 288  C 312 288 291 288 312 288  C 308 288 312 288 308 288  C 313 288 308 288 313 288  C 319 288 313 288 319 288  C 316 288 319 288 316 288  C 317 288 316 288 317 288  C 317 293 317 288 317 293  C 326 293 317 293 326 293  C 326 291 326 293 326 291  C 328 291 326 291 328 291  C 328 296 328 291 328 296  C 328 315 328 296 328 315  C 336 315 328 315 336 315  C 336 343 336 315 336 343  C 336 350 336 343 336 350  C 336 348 336 350 336 348  C 335 348 336 348 335 348  C 335 348 335 348 335 348  C 335 345 335 348 335 345  C 335 328 335 345 335 328  C 335 328 335 328 335 328  C 334 328 335 328 334 328  C 344 328 334 328 344 328  C 356 328 344 328 356 328  C 356 336 356 328 356 336  C 358 336 356 336 358 336  C 353 336 358 336 353 336  C 353 339 353 336 353 339  C 326 339 353 339 326 339  C 326 340 326 339 326 340  C 329 340 326 340 329 340  C 333 340 329 340 333 340  C 337 340 333 340 337 340  C 335 340 337 340 335 340  C 335 331 335 340 335 331  C 339 331 335 331 339 331  C 351 331 339 331 351 331  C 357 331 351 331 357 331  C 360 331 357 331 360 331  C 361 331 360 331 361 331  C 359 331 361 331 359 331  C 359 348 359 331 359 348  C 356 348 359 348 356 348  C 356 345 356 348 356 345  C 357 345 356 345 357 345  C 348 345 357 345 348 345  C 354 345 348 345 354 345  C 354 355 354 345 354 355  C 354 359 354 355 354 359  C 378 359 354 359 378 359  C 385 359 378 359 385 359  C 376 359 385 359 376 359  C 377 359 376 359 377 359  C 376 359 377 359 376 359  C 376 350 376 359 376 350  C 376 349 376 350 376 349  C 376 348 376 349 376 348  C 385 348 376 348 385 348  C 385 344 385 348 385 344  C 385 345 385 344 385 345  C 385 345 385 345 385 345  C 382 345 385 345 382 345  C 382 359 382 345 382 359  C 382 359 382 359 382 359  C 384 359 382 359 384 359  C 382 359 384 359 382 359  C 382 356 382 359 382 356  C 382 355 382 356 382 355  C 382 356 382 355 382 356  C 382 360 382 356 382 360  C 382 360 382 360 382 360  C 400 360 382 360 400 360  C 400 346 400 360 400 346  C 406 346 400 346 406 346  C 406 346 406 346 406 346  C 405 346 406 346 405 346  C 405 347 405 346 405 347  C 405 360 405 347 405 360  C 401 360 405 360 401 360  C 396 360 401 360 396 360  C 400 360 396 360 400 360  C 394 360 400 360 394 360  C 394 357 394 360 394 357  C 394 364 394 357 394 364  C 394 393 394 364 394 393  C 394 397 394 393 394 397  C 394 376 394 397 394 376  C 392 376 394 376 392 376  C 392 386 392 376 392 386  C 402 386 392 386 402 386  C 402 374 402 386 402 374  C 404 374 402 374 404 374  C 404 379 404 374 404 379  C 404 379 404 379 404 379  C 406 379 404 379 406 379  C 406 356 406 379 406 356  C 406 365 406 356 406 365  C 406 375 406 365 406 375  C 397 375 406 375 397 375  C 397 404 397 375 397 404  C 405 404 397 404 405 404  C 405 402 405 404 405 402  C 405 396 405 402 405 396  C 397 396 405 396 397 396  C 388 396 397 396 388 396  C 388 424 388 396 388 424  C 388 424 388 424 388 424  C 387 424 388 424 387 424  C 387 424 387 424 387 424  C 387 421 387 424 387 421  C 387 384 387 421 387 384  C 387 378 387 384 387 378  C 387 378 387 378 387 378  C 388 378 387 378 388 378  C 387 378 388 378 387 378  C 387 382 387 378 387 382  C 387 384 387 382 387 384  C 386 384 387 384 386 384  C 386 394 386 384 386 394  C 347 277 309 160 271 43  C 271 49 271 43 271 49  C 271 53 271 49 271 53  C 263 53 271 53 263 53  C 263 46 263 53 263 46  C 263 56 263 46 263 56  C 262 56 263 56 262 56  C 262 59 262 56 262 59  C 262 59 262 59 262 59  C 262 58 262 59 262 58  C 264 58 262 58 264 58  C 264 59 264 58 264 59  C 268 59 264 59 268 59  C 268 66 268 59 268 66  C 268 63 268 66 268 63  C 275 63 268 63 275 63  C 275 60 275 63 275 60  C 275 63 275 60 275 63  C 275 65 275 63 275 65  C 275 53 275 65 275 53  C 275 54 275 53 275 54  C 275 57 275 54 275 57  C 268 57 275 57 268 57  C 268 58 268 57 268 58  C 261 58 268 58 261 58  C 261 55 261 58 261 55  C 264 55 261 55 264 55  C 255 55 264 55 255 55  C 255 56 255 55 255 56  C 255 61 255 56 255 61  C 255 66 255 61 255 66  C 254 66 255 66 254 66  C 248 66 254 66 248 66  C 248 70 248 66 248 70  C 247 70 248 70 247 70  C 247 76 247 70 247 76  C 247 84 247 76 247 84  C 247 72 247 84 247 72  C 243 72 247 72 243 72  C 243 99 243 72 243 99  C 238 99 243 99 238 99  C 238 111 238 99 238 111  C 238 111 238 111 238 111  C 238 125 238 111 238 125  C 238 117 238 125 238 117  C 238 111 238 117 238 111  C 238 114 238 111 238 114  C 238 111 238 114 238 111  C 235 111 238 111 235 111  C 235 121 235 111 235 121  C 232 121 235 121 232 121  C 230 121 232 121 230 121  C 230 133 230 121 230 133  C 230 137 230 133 230 137  C 230 147 230 137 230 147  C 220 147 230 147 220 147  C 227 147 220 147 227 147  C 227 163 227 147 227 163  C 227 185 227 163 227 185  C 227 172 227 185 227 172  C 237 172 227 172 237 172  C 243 172 237 172 243 172  C 243 177 243 172 243 177  C 243 177 243 177 243 177  C 243 188 243 177 243 188  C 243 200 243 188 243 200  C 243 203 243 200 243 203  C 255 203 243 203 255 203  C 255 277 255 203 255 277  C 255 287 255 277 255 287  C 276 287 255 287 276 287  C 276 281 276 287 276 281  C 276 276 276 281 276 276  C 276 302 276 276 276 302  C 287 302 276 302 287 302  C 297 302 287 302 297 302  C 295 302 297 302 295 302  C 295 350 295 302 295 350  C 307 350 295 350 307 350  C 316 350 307 350 316 350  C 316 352 316 350 316 352  C 336 352 316 352 336 352  C 336 360 336 352 336 360  C 336 358 336 360 336 358  C 336 362 336 358 336 362  C 338 362 336 362 338 362  C 339 362 338 362 339 362  C 339 382 339 362 339 382  C 333 382 339 382 333 382  C 333 382 333 382 333 382  C 334 382 333 382 334 382  C 341 382 334 382 341 382  C 341 389 341 382 341 389  C 341 396 341 389 341 396  C 343 396 341 396 343 396  C 349 396 343 396 349 396  C 344 396 349 396 344 396  C 344 400 344 396 344 400  C 336 400 344 400 336 400  C 345 400 336 400 345 400  C 355 400 345 400 355 400  C 357 400 355 400 357 400  C 361 400 357 400 361 400  C 361 405 361 400 361 405  C 357 405 361 405 357 405  C 357 419 357 405 357 419  C 357 419 357 419 357 419  C 356 419 357 419 356 419  C 356 419 356 419 356 419  C 358 419 356 419 358 419  C 358 416 358 419 358 416  C 356 416 358 416 356 416  C 356 437 356 416 356 437  C 356 440 356 437 356 440  C 362 440 356 440 362 440  C 362 439 362 440 362 439  C 358 439 362 439 358 439  C 338 439 358 439 338 439  C 338 439 338 439 338 439  C 318 439 338 439 318 439  C 317 439 318 439 317 439  C 317 445 317 439 317 445  C 338 445 317 445 338 445  C 338 446 338 445 338 446  C 345 446 338 446 345 446  C 357 446 345 446 357 446  C 357 443 357 446 357 443  C 357 433 357 443 357 433  C 357 435 357 433 357 435  C 332 435 357 435 332 435  C 332 432 332 435 332 432  C 332 460 332 432 332 460  C 332 454 332 460 332 454  C 332 482 332 454 332 482  C 332 487 332 482 332 487  C 338 487 332 487 338 487  C 338 472 338 487 338 472  C 345 472 338 472 345 472  C 345 485 345 472 345 485  C 347 485 345 485 347 485  C 346 485 347 485 346 485  C 347 485 346 485 347 485  C 356 485 347 485 356 485  C 356 488 356 485 356 488  C 361 488 356 488 361 488  C 361 488 361 488 361 488  C 359 488 361 488 359 488  C 371 488 359 488 371 488  C 371 488 371 488 371 488  C 371 492 371 488 371 492  C 370 492 371 492 370 492  C 388 492 370 492 388 492  C 388 501 388 492 388 501  C 389 501 388 501 389 501  C 389 500 389 501 389 500  C 389 502 389 500 389 502  C 388 502 389 502 388 502  C 393 502 388 502 393 502  C 402 502 393 502 402 502  C 402 495 402 502 402 495 Z"/>
</svg>