<svg height="392" width="297" xmlns="http://www.w3.org/2000/svg"><path d="M148 196 C 147 196 148 196 147 196  C 147 196 147 196 147 196  C 147 196 147 196 147 196  C 147 190 147 196 147 190  C 147 194 147 190 147 194  C 137 194 147 194 137 194  C 137 193 137 194 137 193  C 153 193 137 193 153 193  C 155 193 153 193 155 193  C 154 193 155 193 154 193  C 156 193 154 193 156 193  C 168 193 156 193 168 193  C 168 193 168 193 168 193  C 178 193 168 193 178 193  C 178 194 178 193 178 194  C 178 198 178 194 178 198  C 178 202 178 198 178 202  C 158 202 178 202 158 202  C 158 204 158 202 158 204  C 158 205 158 204 158 205  C 158 205 158 205 158 205  C 156 205 158 205 156 205  C 162 205 156 205 162 205  C 162 231 162 205 162 231  C 157 231 162 231 157 231  C 157 225 157 231 157 225  C 160 225 157 225 160 225  C 169 225 160 225 169 225  C 169 228 169 225 169 228  C 169 240 169 228 169 240  C 176 240 169 240 176 240  C 170 240 176 240 170 240  C 180 240 170 240 180 240  C 180 236 180 240 180 236  C 187 236 180 236 187 236  C 187 248 187 236 187 248  C 187 261 187 248 187 261  C 187 265 187 261 187 265  C 190 265 187 265 190 265  C 190 263 190 265 190 263  C 189 263 190 263 189 263  C 189 266 189 263 189 266  C 190 266 189 266 190 266  C 208 266 190 266 208 266  C 210 266 208 266 210 266  C 209 266 210 266 209 266  C 207 266 209 266 207 266  C 206 266 207 266 206 266  C 206 263 206 266 206 263  C 206 264 206 263 206 264  C 209 264 206 264 209 264  C 209 258 209 264 209 258  C 204 258 209 258 204 258  C 204 261 204 258 204 261  C 204 268 204 261 204 268  C 204 267 204 268 204 267  C 204 265 204 267 204 265  C 198 265 204 265 198 265  C 205 265 198 265 205 265  C 217 265 205 265 217 265  C 217 258 217 265 217 258  C 217 255 217 258 217 255  C 238 255 217 255 238 255  C 238 265 238 255 238 265  C 238 244 238 265 238 244  C 246 244 238 244 246 244  C 246 251 246 244 246 251  C 246 261 246 251 246 261  C 244 261 246 261 244 261  C 244 260 244 261 244 260  C 239 260 244 260 239 260  C 239 258 239 260 239 258  C 228 258 239 258 228 258  C 227 258 228 258 227 258  C 226 258 227 258 226 258  C 226 243 226 258 226 243  C 226 272 226 243 226 272  C 201 272 226 272 201 272  C 203 272 201 272 203 272  C 203 266 203 272 203 266  C 201 266 203 266 201 266  C 201 273 201 266 201 273  C 202 273 201 273 202 273  C 197 273 202 273 197 273  C 197 276 197 273 197 276  C 205 276 197 276 205 276  C 205 269 205 276 205 269  C 205 279 205 269 205 279  C 205 293 205 279 205 293  C 212 293 205 293 212 293  C 212 294 212 293 212 294  C 212 295 212 294 212 295  C 212 300 212 295 212 300  C 212 315 212 300 212 315  C 211 315 212 315 211 315  C 210 315 211 315 210 315  C 215 315 210 315 215 315  C 215 319 215 315 215 319  C 215 347 215 319 215 347  C 221 347 215 347 221 347  C 220 347 221 347 220 347  C 220 349 220 347 220 349  C 226 349 220 349 226 349  C 232 349 226 349 232 349  C 232 350 232 349 232 350  C 232 353 232 350 232 353  C 227 353 232 353 227 353  C 225 353 227 353 225 353  C 236 353 225 353 236 353  C 236 350 236 353 236 350  C 233 350 236 350 233 350  C 233 347 233 350 233 347  C 237 347 233 347 237 347  C 242 347 237 347 242 347  C 242 347 242 347 242 347  C 239 347 242 347 239 347  C 239 341 239 347 239 341  C 239 362 239 341 239 362  C 260 362 239 362 260 362  C 260 354 260 362 260 354  C 240 354 260 354 240 354  C 241 354 240 354 241 354  C 241 354 241 354 241 354  C 241 339 241 354 241 339  C 237 339 241 339 237 339  C 237 340 237 339 237 340  C 237 341 237 340 237 341  C 237 340 237 341 237 340  C 237 331 237 340 237 331  C 237 336 237 331 237 336  C 233 336 237 336 233 336  C 237 336 233 336 237 336  C 237 333 237 336 237 333  C 229 333 237 333 229 333  C 229 333 229 333 229 333  C 229 334 229 333 229 334  C 229 362 229 334 229 362  C 229 361 229 362 229 361  C 226 361 229 361 226 361  C 226 371 226 361 226 371  C 226 369 226 371 226 369  C 226 379 226 369 226 379  C 226 379 226 379 226 379  C 226 384 226 379 226 384  C 234 384 226 384 234 384  C 233 384 234 384 233 384  C 239 384 233 384 239 384  C 239 377 239 384 239 377  C 238 377 239 377 238 377  C 238 388 238 377 238 388  C 238 392 238 388 238 392  C 240 392 238 392 240 392  C 237 392 240 392 237 392  C 237 397 237 392 237 397  C 233 397 237 397 233 397  C 233 402 233 397 233 402  C 231 402 233 402 231 402  C 231 406 231 402 231 406  C 230 406 231 406 230 406  C 235 406 230 406 235 406  C 235 419 235 406 235 419  C 230 419 235 419 230 419  C 230 416 230 419 230 416  C 222 416 230 416 222 416  C 222 426 222 416 222 426  C 231 426 222 426 231 426  C 231 417 231 426 231 417  C 231 426 231 417 231 426  C 231 427 231 426 231 427  C 235 427 231 427 235 427  C 235 456 235 427 235 456  C 235 455 235 456 235 455  C 243 455 235 455 243 455  C 252 455 243 455 252 455  C 258 455 252 455 258 455  C 258 455 258 455 258 455  C 258 455 258 455 258 455  C 231 455 258 455 231 455  C 233 455 231 455 233 455  C 225 455 233 455 225 455  C 221 455 225 455 221 455  C 216 455 221 455 216 455  C 224 455 216 455 224 455  C 234 455 224 455 234 455  C 234 462 234 455 234 462  C 234 459 234 462 234 459  C 227 459 234 459 227 459  C 242 459 227 459 242 459  C 242 463 242 459 242 463  C 242 465 242 463 242 465  C 242 473 242 465 242 473  C 251 473 242 473 251 473  C 256 473 251 473 256 473  C 256 473 256 473 256 473  C 256 478 256 473 256 478  C 248 478 256 478 248 478  C 248 481 248 478 248 481  C 248 489 248 481 248 489  C 248 470 248 489 248 470  C 248 468 248 470 248 468  C 248 462 248 468 248 462  C 248 461 248 462 248 461  C 268 461 248 461 268 461  C 268 466 268 461 268 466  C 268 467 268 466 268 467  C 267 467 268 467 267 467  C 269 467 267 467 269 467  C 257 467 269 467 257 467  C 257 472 257 467 257 472  C 257 475 257 472 257 475  C 257 475 257 475 257 475  C 267 475 257 475 267 475  C 267 472 267 475 267 472  C 276 472 267 472 276 472  C 280 472 276 472 280 472  C 283 472 280 472 283 472  C 283 472 283 472 283 472  C 291 472 283 472 291 472  C 309 472 291 472 309 472  C 306 472 309 472 306 472  C 306 488 306 472 306 488  C 306 465 306 488 306 465  C 297 465 306 465 297 465  C 297 452 297 465 297 452  C 297 451 297 452 297 451  C 299 451 297 451 299 451  C 299 470 299 451 299 470  C 295 470 299 470 295 470  C 295 472 295 470 295 472  C 316 472 295 472 316 472  C 316 472 316 472 316 472  C 316 458 316 472 316 458  C 306 458 316 458 306 458  C 306 532 306 458 306 532  C 306 520 306 532 306 520  C 312 520 306 520 312 520  C 324 520 312 520 324 520  C 325 520 324 520 325 520  C 325 508 325 520 325 508  C 320 508 325 508 320 508  C 321 508 320 508 321 508  C 321 508 321 508 321 508  C 322 508 321 508 322 508  C 322 511 322 508 322 511  C 322 512 322 511 322 512  C 322 540 322 512 322 540  C 322 554 322 540 322 554  C 313 554 322 554 313 554  C 313 566 313 554 313 566  C 313 575 313 566 313 575  C 313 575 313 575 313 575  C 319 575 313 575 319 575  C 319 576 319 575 319 576  C 326 576 319 576 326 576  C 326 579 326 576 326 579  C 326 577 326 579 326 577  C 326 620 326 577 326 620  C 315 620 326 620 315 620  C 319 620 315 620 319 620  C 310 620 319 620 310 620  C 312 620 310 620 312 620  C 312 623 312 620 312 623  C 312 624 312 623 312 624  C 312 631 312 624 312 631  C 312 630 312 631 312 630  C 312 630 312 630 312 630  C 313 630 312 630 313 630  C 312 630 313 630 312 630  C 312 633 312 630 312 633  C 312 634 312 633 312 634  C 311 634 312 634 311 634  C 311 641 311 634 311 641  C 311 653 311 641 311 653  C 315 653 311 653 315 653  C 310 653 315 653 310 653  C 310 641 310 653 310 641  C 304 641 310 641 304 641  C 313 641 304 641 313 641  C 313 644 313 641 313 644  C 313 652 313 644 313 652  C 313 649 313 652 313 649  C 313 671 313 649 313 671  C 315 671 313 671 315 671  C 309 671 315 671 309 671  C 316 671 309 671 316 671  C 316 691 316 671 316 691  C 320 691 316 691 320 691  C 344 691 320 691 344 691  C 353 691 344 691 353 691  C 353 693 353 691 353 693  C 353 690 353 693 353 690  C 353 691 353 690 353 691  C 353 692 353 691 353 692  C 350 692 353 692 350 692  C 353 692 350 692 353 692  C 355 692 353 692 355 692  C 355 692 355 692 355 692  C 355 692 355 692 355 692  C 355 701 355 692 355 701  C 355 697 355 701 355 697  C 355 694 355 697 355 694  C 355 691 355 694 355 691  C 348 691 355 691 348 691  C 351 691 348 691 351 691  C 355 691 351 691 355 691  C 351 691 355 691 351 691  C 342 691 351 691 342 691  C 342 697 342 691 342 697  C 342 696 342 697 342 696  C 354 696 342 696 354 696  C 361 696 354 696 361 696  C 361 709 361 696 361 709  C 360 709 361 709 360 709  C 365 709 360 709 365 709  C 386 709 365 709 386 709  C 386 692 386 709 386 692  C 386 691 386 692 386 691  C 386 694 386 691 386 694  C 386 694 386 694 386 694  C 386 684 386 694 386 684  C 386 690 386 684 386 690  C 386 707 386 690 386 707  C 397 707 386 707 397 707  C 397 704 397 707 397 704  C 397 706 397 704 397 706  C 398 706 397 706 398 706  C 398 706 398 706 398 706  C 400 706 398 706 400 706  C 400 708 400 706 400 708  C 400 708 400 708 400 708  C 400 705 400 708 400 705  C 406 705 400 705 406 705  C 406 733 406 705 406 733  C 417 733 406 733 417 733  C 415 733 417 733 415 733  C 419 733 415 733 419 733  C 417 733 419 733 417 733  C 417 731 417 733 417 731  C 426 731 417 731 426 731  C 426 731 426 731 426 731  C 450 731 426 731 450 731  C 450 735 450 731 450 735  C 450 735 450 735 450 735  C 450 735 450 735 450 735  C 450 762 450 735 450 762  C 449 762 450 762 449 762  C 449 772 449 762 449 772  C 449 778 449 772 449 778  C 449 778 449 778 449 778  C 451 778 449 778 451 778  C 451 799 451 778 451 799  C 450 799 451 799 450 799  C 441 799 450 799 441 799  C 441 794 441 799 441 794  C 441 794 441 794 441 794  C 440 794 441 794 440 794  C 443 794 440 794 443 794  C 443 804 443 794 443 804  C 443 805 443 804 443 805  C 443 814 443 805 443 814  C 443 807 443 814 443 807  C 452 807 443 807 452 807  C 462 807 452 807 462 807  C 462 813 462 807 462 813  C 474 813 462 813 474 813  C 478 813 474 813 478 813  C 478 813 478 813 478 813  C 478 813 478 813 478 813  C 478 813 478 813 478 813  C 490 813 478 813 490 813  C 491 813 490 813 491 813  C 491 804 491 813 491 804  C 491 821 491 804 491 821  C 491 825 491 821 491 825  C 491 825 491 825 491 825  C 492 825 491 825 492 825  C 453 708 415 591 377 474  C 378 474 377 474 378 474  C 378 475 378 474 378 475  C 378 466 378 475 378 466  C 375 466 378 466 375 466  C 375 464 375 466 375 464  C 375 459 375 464 375 459  C 375 457 375 459 375 457  C 371 457 375 457 371 457  C 369 457 371 457 369 457  C 369 471 369 457 369 471  C 369 519 369 471 369 519  C 369 527 369 519 369 527  C 369 532 369 527 369 532  C 369 536 369 532 369 536  C 370 536 369 536 370 536  C 371 536 370 536 371 536  C 371 499 371 536 371 499  C 370 499 371 499 370 499  C 390 499 370 499 390 499  C 408 499 390 499 408 499  C 408 498 408 499 408 498  C 408 495 408 498 408 495  C 408 495 408 495 408 495  C 402 495 408 495 402 495 Z"/>
</svg>