<svg height="392" width="297" xmlns="http://www.w3.org/2000/svg"><path d="M148 196 C 152 196 148 196 152 196  C 164 196 152 196 164 196  C 164 196 164 196 164 196  C 164 199 164 196 164 199  C 159 199 164 199 159 199  C 159 226 159 199 159 226  C 159 232 159 226 159 232  C 159 280 159 232 159 280  C 159 285 159 280 159 285  C 159 278 159 285 159 278  C 165 278 159 278 165 278  C 165 288 165 278 165 288  C 165 280 165 288 165 280  C 165 308 165 280 165 308  C 145 308 165 308 145 308  C 136 308 145 308 136 308  C 152 308 136 308 152 308  C 152 308 152 308 152 308  C 152 296 152 308 152 296  C 162 296 152 296 162 296  C 162 296 162 296 162 296  C 157 296 162 296 157 296  C 161 296 157 296 161 296  C 161 289 161 296 161 289  C 161 296 161 289 161 296  C 161 295 161 296 161 295  C 161 309 161 295 161 309  C 161 313 161 309 161 313  C 161 314 161 313 161 314  C 161 315 161 314 161 315  C 169 315 161 315 169 315  C 169 320 169 315 169 320  C 169 311 169 320 169 311  C 175 311 169 311 175 311  C 175 316 175 311 175 316  C 176 316 175 316 176 316  C 176 313 176 316 176 313  C 172 313 176 313 172 313  C 172 310 172 313 172 310  C 169 310 172 310 169 310  C 167 310 169 310 167 310  C 168 310 167 310 168 310  C 168 318 168 310 168 318  C 179 318 168 318 179 318  C 179 316 179 318 179 316  C 179 320 179 316 179 320  C 179 332 179 320 179 332  C 179 344 179 332 179 344  C 194 344 179 344 194 344  C 194 344 194 344 194 344  C 194 355 194 344 194 355  C 196 355 194 355 196 355  C 196 354 196 355 196 354  C 196 363 196 354 196 363  C 196 354 196 363 196 354  C 196 357 196 354 196 357  C 196 360 196 357 196 360  C 196 360 196 360 196 360  C 196 386 196 360 196 386  C 169 386 196 386 169 386  C 176 386 169 386 176 386  C 176 393 176 386 176 393  C 176 396 176 393 176 396  C 176 406 176 396 176 406  C 166 406 176 406 166 406  C 165 406 166 406 165 406  C 159 406 165 406 159 406  C 159 396 159 406 159 396  C 164 396 159 396 164 396  C 164 400 164 396 164 400  C 173 400 164 400 173 400  C 173 404 173 400 173 404  C 173 409 173 404 173 409  C 179 409 173 409 179 409  C 191 409 179 409 191 409  C 197 409 191 409 197 409  C 193 409 197 409 193 409  C 190 409 193 409 190 409  C 192 409 190 409 192 409  C 193 409 192 409 193 409  C 193 406 193 409 193 406  C 193 408 193 406 193 408  C 193 429 193 408 193 429  C 193 429 193 429 193 429  C 193 426 193 429 193 426  C 193 426 193 426 193 426  C 185 426 193 426 185 426  C 185 426 185 426 185 426  C 185 419 185 426 185 419  C 185 420 185 419 185 420  C 189 420 185 420 189 420  C 189 424 189 420 189 424  C 207 424 189 424 207 424  C 199 424 207 424 199 424  C 195 424 199 424 195 424  C 195 434 195 424 195 434  C 195 431 195 434 195 431  C 195 432 195 431 195 432  C 195 437 195 432 195 437  C 195 425 195 437 195 425  C 195 423 195 425 195 423  C 195 421 195 423 195 421  C 193 421 195 421 193 421  C 201 421 193 421 201 421  C 201 409 201 421 201 409  C 201 409 201 409 201 409  C 201 400 201 409 201 400  C 210 400 201 400 210 400  C 210 406 210 400 210 406  C 209 406 210 406 209 406  C 199 406 209 406 199 406  C 199 410 199 406 199 410  C 198 410 199 410 198 410  C 200 410 198 410 200 410  C 203 410 200 410 203 410  C 204 410 203 410 204 410  C 204 414 204 410 204 414  C 210 414 204 414 210 414  C 171 297 133 180 95 63  C 95 64 95 63 95 64  C 95 50 95 64 95 50  C 95 52 95 50 95 52  C 95 52 95 52 95 52  C 104 52 95 52 104 52  C 104 52 104 52 104 52  C 104 56 104 52 104 56  C 111 56 104 56 111 56  C 111 63 111 56 111 63  C 118 63 111 63 118 63  C 118 75 118 63 118 75  C 118 76 118 75 118 76  C 118 76 118 76 118 76  C 118 93 118 76 118 93  C 118 106 118 93 118 106  C 130 106 118 106 130 106  C 130 106 130 106 130 106  C 130 107 130 106 130 107  C 134 107 130 107 134 107  C 133 107 134 107 133 107  C 131 107 133 107 131 107  C 120 107 131 107 120 107  C 119 107 120 107 119 107  C 113 107 119 107 113 107  C 110 107 113 107 110 107  C 110 117 110 107 110 117  C 122 117 110 117 122 117  C 131 117 122 117 131 117  C 131 117 131 117 131 117  C 131 113 131 117 131 113  C 131 156 131 113 131 156  C 132 156 131 156 132 156  C 132 153 132 156 132 153  C 136 153 132 153 136 153  C 137 153 136 153 137 153  C 133 153 137 153 133 153  C 132 153 133 153 132 153  C 132 156 132 153 132 156  C 132 150 132 156 132 150  C 140 150 132 150 140 150  C 140 147 140 150 140 147  C 152 147 140 147 152 147  C 151 147 152 147 151 147  C 140 147 151 147 140 147  C 140 150 140 147 140 150  C 139 150 140 150 139 150  C 131 150 139 150 131 150  C 127 150 131 150 127 150  C 135 150 127 150 135 150  C 135 179 135 150 135 179  C 135 180 135 179 135 180  C 135 200 135 180 135 200  C 135 177 135 200 135 177  C 136 177 135 177 136 177  C 136 156 136 177 136 156  C 136 154 136 156 136 154  C 148 154 136 154 148 154  C 148 152 148 154 148 152  C 142 152 148 152 142 152  C 162 152 142 152 162 152  C 162 157 162 152 162 157  C 162 158 162 157 162 158  C 162 121 162 158 162 121  C 162 122 162 121 162 122  C 168 122 162 122 168 122  C 167 122 168 122 167 122  C 188 122 167 122 188 122  C 186 122 188 122 186 122  C 197 122 186 122 197 122  C 201 122 197 122 201 122  C 222 122 201 122 222 122  C 222 124 222 122 222 124  C 222 140 222 124 222 140  C 222 143 222 140 222 143  C 222 143 222 143 222 143  C 222 155 222 143 222 155  C 233 155 222 155 233 155  C 233 163 233 155 233 163  C 243 163 233 163 243 163  C 261 163 243 163 261 163  C 270 163 261 163 270 163  C 270 154 270 163 270 154  C 270 151 270 154 270 151  C 273 151 270 151 273 151  C 273 156 273 151 273 156  C 273 137 273 156 273 137  C 269 137 273 137 269 137  C 266 137 269 137 266 137  C 266 144 266 137 266 144  C 266 158 266 144 266 158  C 267 158 266 158 267 158  C 265 158 267 158 265 158  C 265 155 265 158 265 155  C 265 159 265 155 265 159  C 270 159 265 159 270 159  C 269 159 270 159 269 159  C 269 158 269 159 269 158  C 275 158 269 158 275 158  C 275 166 275 158 275 166  C 293 166 275 166 293 166  C 293 167 293 166 293 167  C 295 167 293 167 295 167  C 299 167 295 167 299 167  C 299 166 299 167 299 166  C 302 166 299 166 302 166  C 302 176 302 166 302 176  C 302 183 302 176 302 183  C 302 177 302 183 302 177  C 302 177 302 177 302 177  C 310 177 302 177 310 177  C 310 178 310 177 310 178  C 313 178 310 178 313 178  C 313 181 313 178 313 181  C 323 181 313 181 323 181  C 323 179 323 181 323 179  C 330 179 323 179 330 179  C 330 176 330 179 330 176  C 330 179 330 176 330 179  C 331 179 330 179 331 179  C 330 179 331 179 330 179  C 327 179 330 179 327 179  C 327 184 327 179 327 184  C 337 184 327 184 337 184  C 317 184 337 184 317 184  C 317 178 317 184 317 178  C 317 163 317 178 317 163  C 317 162 317 163 317 162  C 312 162 317 162 312 162  C 312 161 312 162 312 161  C 314 161 312 161 314 161  C 314 164 314 161 314 164  C 314 164 314 164 314 164  C 320 164 314 164 320 164  C 315 164 320 164 315 164  C 315 164 315 164 315 164  C 315 158 315 164 315 158  C 310 158 315 158 310 158  C 305 158 310 158 305 158  C 305 187 305 158 305 187  C 305 186 305 187 305 186  C 310 186 305 186 310 186  C 310 194 310 186 310 194  C 310 201 310 194 310 201  C 309 201 310 201 309 201  C 318 201 309 201 318 201  C 317 201 318 201 317 201  C 326 201 317 201 326 201  C 326 200 326 201 326 200  C 327 200 326 200 327 200  C 327 199 327 200 327 199  C 320 199 327 199 320 199  C 320 196 320 199 320 196  C 320 198 320 196 320 198  C 325 198 320 198 325 198  C 325 207 325 198 325 207  C 325 220 325 207 325 220  C 325 217 325 220 325 217  C 325 231 325 217 325 231  C 325 224 325 231 325 224  C 325 222 325 224 325 222  C 324 222 325 222 324 222  C 324 232 324 222 324 232  C 323 232 324 232 323 232  C 320 232 323 232 320 232  C 320 238 320 232 320 238  C 324 238 320 238 324 238  C 324 247 324 238 324 247  C 325 247 324 247 325 247  C 324 247 325 247 324 247  C 324 246 324 247 324 246  C 324 247 324 246 324 247  C 324 247 324 247 324 247  C 324 247 324 247 324 247  C 324 247 324 247 324 247  C 324 247 324 247 324 247  C 324 251 324 247 324 251  C 324 268 324 251 324 268  C 324 269 324 268 324 269  C 324 269 324 269 324 269  C 324 269 324 269 324 269  C 318 269 324 269 318 269  C 320 269 318 269 320 269  C 320 267 320 269 320 267  C 323 267 320 267 323 267  C 323 269 323 267 323 269  C 327 269 323 269 327 269  C 327 268 327 269 327 268  C 302 268 327 268 302 268  C 300 268 302 268 300 268  C 300 253 300 268 300 253  C 300 253 300 253 300 253  C 301 253 300 253 301 253  C 301 254 301 253 301 254  C 300 254 301 254 300 254  C 300 248 300 254 300 248  C 300 248 300 248 300 248  C 297 248 300 248 297 248  C 297 251 297 248 297 251  C 299 251 297 251 299 251  C 320 251 299 251 320 251  C 320 279 320 251 320 279  C 320 279 320 279 320 279  C 328 279 320 279 328 279  C 330 279 328 279 330 279  C 333 279 330 279 333 279  C 333 279 333 279 333 279  C 333 277 333 279 333 277  C 333 292 333 277 333 292  C 333 294 333 292 333 294  C 339 294 333 294 339 294  C 334 294 339 294 334 294  C 334 303 334 294 334 303  C 341 303 334 303 341 303  C 342 303 341 303 342 303  C 333 303 342 303 333 303  C 333 304 333 303 333 304  C 324 304 333 304 324 304  C 324 287 324 304 324 287  C 324 287 324 287 324 287  C 324 289 324 287 324 289  C 348 289 324 289 348 289  C 348 299 348 289 348 299  C 347 299 348 299 347 299  C 347 373 347 299 347 373  C 347 379 347 373 347 379  C 347 380 347 379 347 380  C 342 380 347 380 342 380  C 342 380 342 380 342 380  C 330 380 342 380 330 380  C 330 380 330 380 330 380  C 332 380 330 380 332 380  C 325 380 332 380 325 380  C 327 380 325 380 327 380  C 327 383 327 380 327 383  C 321 383 327 383 321 383  C 319 383 321 383 319 383  C 323 383 319 383 323 383  C 325 383 323 383 325 383  C 325 388 325 383 325 388  C 334 388 325 388 334 388  C 336 388 334 388 336 388  C 336 383 336 388 336 383  C 334 383 336 383 334 383  C 334 411 334 383 334 411  C 334 410 334 411 334 410  C 341 410 334 410 341 410  C 341 413 341 410 341 413  C 341 407 341 413 341 407  C 341 404 341 407 341 404  C 341 426 341 404 341 426  C 340 426 341 426 340 426  C 342 426 340 426 342 426  C 342 430 342 426 342 430  C 363 430 342 430 363 430  C 358 430 363 430 358 430  C 368 430 358 430 368 430  C 359 430 368 430 359 430  C 359 426 359 430 359 426  C 358 426 359 426 358 426  C 357 426 358 426 357 426  C 357 445 357 426 357 445  C 357 446 357 445 357 446  C 348 446 357 446 348 446  C 348 443 348 446 348 443  C 348 430 348 443 348 430  C 355 430 348 430 355 430  C 355 443 355 430 355 443  C 355 471 355 443 355 471  C 353 471 355 471 353 471  C 353 481 353 471 353 481  C 353 476 353 481 353 476  C 362 476 353 476 362 476  C 362 497 362 476 362 497  C 365 497 362 497 365 497  C 370 497 365 497 370 497  C 394 497 370 497 394 497  C 394 497 394 497 394 497  C 414 497 394 497 414 497  C 406 497 414 497 406 497  C 406 498 406 497 406 498  C 402 498 406 498 402 498  C 402 495 402 498 402 495 Z"/>
</svg>