<svg height="392" width="297" xmlns="http://www.w3.org/2000/svg"><path d="M148 196 C 148 196 148 196 148 196  C 148 196 148 196 148 196  C 148 193 148 196 148 193  C 148 196 148 193 148 196  C 148 197 148 196 148 197  C 148 200 148 197 148 200  C 160 200 148 200 160 200  C 160 204 160 200 160 204  C 160 209 160 204 160 209  C 159 209 160 209 159 209  C 160 209 159 209 160 209  C 159 209 160 209 159 209  C 180 209 159 209 180 209  C 180 212 180 209 180 212  C 180 221 180 212 180 221  C 180 232 180 221 180 232  C 189 232 180 232 189 232  C 198 232 189 232 198 232  C 198 232 198 232 198 232  C 198 233 198 232 198 233  C 216 233 198 233 216 233  C 216 229 216 233 216 229  C 207 229 216 229 207 229  C 207 246 207 229 207 246  C 206 246 207 246 206 246  C 197 246 206 246 197 246  C 197 247 197 246 197 247  C 177 247 197 247 177 247  C 187 247 177 247 187 247  C 187 247 187 247 187 247  C 187 248 187 247 187 248  C 187 253 187 248 187 253  C 178 253 187 253 178 253  C 178 301 178 253 178 301  C 178 299 178 301 178 299  C 170 299 178 299 170 299  C 173 299 170 299 173 299  C 178 299 173 299 178 299  C 182 299 178 299 182 299  C 182 305 182 299 182 305  C 192 305 182 305 192 305  C 192 302 192 305 192 302  C 186 302 192 302 186 302  C 186 307 186 302 186 307  C 186 317 186 307 186 317  C 186 312 186 317 186 312  C 188 312 186 312 188 312  C 188 312 188 312 188 312  C 188 297 188 312 188 297  C 188 297 188 297 188 297  C 189 297 188 297 189 297  C 189 302 189 297 189 302  C 189 305 189 302 189 305  C 189 305 189 305 189 305  C 189 309 189 305 189 309  C 201 309 189 309 201 309  C 201 310 201 309 201 310  C 201 310 201 310 201 310  C 207 310 201 310 207 310  C 205 310 207 310 205 310  C 205 304 205 310 205 304  C 206 304 205 304 206 304  C 210 304 206 304 210 304  C 210 303 210 304 210 303  C 220 303 210 303 220 303  C 219 303 220 303 219 303  C 224 303 219 303 224 303  C 223 303 224 303 223 303  C 220 303 223 303 220 303  C 220 300 220 303 220 300  C 218 300 220 300 218 300  C 218 300 218 300 218 300  C 218 327 218 300 218 327  C 223 327 218 327 223 327  C 223 332 223 327 223 332  C 223 333 223 332 223 333  C 219 333 223 333 219 333  C 219 330 219 333 219 330  C 219 330 219 330 219 330  C 225 330 219 330 225 330  C 225 336 225 330 225 336  C 225 330 225 336 225 330  C 200 330 225 330 200 330  C 200 316 200 330 200 316  C 200 313 200 316 200 313  C 200 310 200 313 200 310  C 200 338 200 310 200 338  C 191 338 200 338 191 338  C 191 339 191 338 191 339  C 180 339 191 339 180 339  C 180 338 180 339 180 338  C 180 345 180 338 180 345  C 180 348 180 345 180 348  C 178 348 180 348 178 348  C 178 357 178 348 178 357  C 178 355 178 357 178 355  C 169 355 178 355 169 355  C 168 355 169 355 168 355  C 176 355 168 355 176 355  C 176 367 176 355 176 367  C 176 375 176 367 176 375  C 176 390 176 375 176 390  C 172 390 176 390 172 390  C 172 419 172 390 172 419  C 172 420 172 419 172 420  C 172 422 172 420 172 422  C 172 423 172 422 172 423  C 172 422 172 423 172 422  C 179 422 172 422 179 422  C 179 443 179 422 179 443  C 181 443 179 443 181 443  C 189 443 181 443 189 443  C 178 443 189 443 178 443  C 184 443 178 443 184 443  C 184 447 184 443 184 447  C 191 447 184 447 191 447  C 191 441 191 447 191 441  C 191 435 191 441 191 435  C 195 435 191 435 195 435  C 197 435 195 435 197 435  C 199 435 197 435 199 435  C 199 449 199 435 199 449  C 193 449 199 449 193 449  C 193 451 193 449 193 451  C 193 467 193 451 193 467  C 193 496 193 467 193 496  C 193 487 193 496 193 487  C 193 486 193 487 193 486  C 193 512 193 486 193 512  C 193 509 193 512 193 509  C 191 509 193 509 191 509  C 191 509 191 509 191 509  C 191 486 191 509 191 486  C 191 483 191 486 191 483  C 191 488 191 483 191 488  C 203 488 191 488 203 488  C 205 488 203 488 205 488  C 202 488 205 488 202 488  C 202 496 202 488 202 496  C 202 499 202 496 202 499  C 200 499 202 499 200 499  C 200 499 200 499 200 499  C 200 502 200 499 200 502  C 202 502 200 502 202 502  C 213 502 202 502 213 502  C 213 498 213 502 213 498  C 213 491 213 498 213 491  C 213 492 213 491 213 492  C 210 492 213 492 210 492  C 210 493 210 492 210 493  C 210 484 210 493 210 484  C 216 484 210 484 216 484  C 213 484 216 484 213 484  C 213 487 213 484 213 487  C 219 487 213 487 219 487  C 212 487 219 487 212 487  C 215 487 212 487 215 487  C 210 487 215 487 210 487  C 222 487 210 487 222 487  C 219 487 222 487 219 487  C 218 487 219 487 218 487  C 218 485 218 487 218 485  C 218 498 218 485 218 498  C 215 498 218 498 215 498  C 215 491 215 498 215 491  C 218 491 215 491 218 491  C 226 491 218 491 226 491  C 236 491 226 491 236 491  C 236 495 236 491 236 495  C 236 523 236 495 236 523  C 236 545 236 523 236 545  C 237 545 236 545 237 545  C 237 542 237 545 237 542  C 239 542 237 542 239 542  C 239 550 239 542 239 550  C 239 550 239 550 239 550  C 239 578 239 550 239 578  C 241 578 239 578 241 578  C 234 578 241 578 234 578  C 234 585 234 578 234 585  C 238 585 234 585 238 585  C 242 585 238 585 242 585  C 242 588 242 585 242 588  C 266 588 242 588 266 588  C 266 588 266 588 266 588  C 266 600 266 588 266 600  C 266 619 266 600 266 619  C 266 632 266 619 266 632  C 266 611 266 632 266 611  C 269 611 266 611 269 611  C 269 616 269 611 269 616  C 269 619 269 616 269 619  C 269 629 269 619 269 629  C 268 629 269 629 268 629  C 264 629 268 629 264 629  C 264 617 264 629 264 617  C 265 617 264 617 265 617  C 265 616 265 617 265 616  C 265 618 265 616 265 618  C 264 618 265 618 264 618  C 264 628 264 618 264 628  C 264 630 264 628 264 630  C 271 630 264 630 271 630  C 271 627 271 630 271 627  C 272 627 271 627 272 627  C 272 608 272 627 272 608  C 272 608 272 608 272 608  C 273 608 272 608 273 608  C 273 606 273 608 273 606  C 273 620 273 606 273 620  C 273 611 273 620 273 611  C 273 618 273 611 273 618  C 283 618 273 618 283 618  C 280 618 283 618 280 618  C 280 618 280 618 280 618  C 280 627 280 618 280 627  C 280 624 280 627 280 624  C 289 624 280 624 289 624  C 284 624 289 624 284 624  C 280 624 284 624 280 624  C 282 624 280 624 282 624  C 277 624 282 624 277 624  C 277 698 277 624 277 698  C 277 699 277 698 277 699  C 295 699 277 699 295 699  C 295 684 295 699 295 684  C 295 686 295 684 295 686  C 297 686 295 686 297 686  C 297 678 297 686 297 678  C 297 665 297 678 297 665  C 291 665 297 665 291 665  C 283 665 291 665 283 665  C 283 666 283 665 283 666  C 283 649 283 666 283 649  C 284 649 283 649 284 649  C 284 642 284 649 284 642  C 284 646 284 642 284 646  C 284 646 284 646 284 646  C 290 646 284 646 290 646  C 290 659 290 646 290 659  C 290 669 290 659 290 669  C 290 673 290 669 290 673  C 296 673 290 673 296 673  C 305 673 296 673 305 673  C 305 682 305 673 305 682  C 305 681 305 682 305 681  C 323 681 305 681 323 681  C 332 681 323 681 332 681  C 331 681 332 681 331 681  C 342 681 331 681 342 681  C 342 681 342 681 342 681  C 342 685 342 681 342 685  C 342 685 342 685 342 685  C 346 685 342 685 346 685  C 355 685 346 685 355 685  C 355 675 355 685 355 675  C 353 675 355 675 353 675  C 353 663 353 675 353 663  C 347 663 353 663 347 663  C 356 663 347 663 356 663  C 356 662 356 663 356 662  C 368 662 356 662 368 662  C 368 661 368 662 368 661  C 368 656 368 661 368 656  C 368 657 368 656 368 657  C 371 657 368 657 371 657  C 378 657 371 657 378 657  C 378 671 378 657 378 671  C 368 671 378 671 368 671  C 369 671 368 671 369 671  C 369 681 369 671 369 681  C 372 681 369 681 372 681  C 372 669 372 681 372 669  C 372 668 372 669 372 668  C 372 667 372 668 372 667  C 376 667 372 667 376 667  C 376 673 376 667 376 673  C 376 675 376 673 376 675  C 376 675 376 675 376 675  C 376 682 376 675 376 682  C 375 682 376 682 375 682  C 377 682 375 682 377 682  C 398 682 377 682 398 682  C 405 682 398 682 405 682  C 397 682 405 682 397 682  C 397 682 397 682 397 682  C 393 682 397 682 393 682  C 393 688 393 682 393 688  C 393 688 393 688 393 688  C 393 687 393 688 393 687  C 393 650 393 687 393 650  C 393 653 393 650 393 653  C 395 653 393 653 395 653  C 395 650 395 653 395 650  C 395 654 395 650 395 654  C 397 654 395 654 397 654  C 392 654 397 654 392 654  C 392 658 392 654 392 658  C 391 658 392 658 391 658  C 391 668 391 658 391 668  C 398 668 391 668 398 668  C 398 711 398 668 398 711  C 398 711 398 711 398 711  C 392 711 398 711 392 711  C 391 711 392 711 391 711  C 391 710 391 711 391 710  C 391 711 391 710 391 711  C 387 711 391 711 387 711  C 387 739 387 711 387 739  C 391 739 387 739 391 739  C 400 739 391 739 400 739  C 395 739 400 739 395 739  C 395 737 395 739 395 737  C 400 737 395 737 400 737  C 361 620 323 503 285 386  C 283 386 285 386 283 386  C 273 386 283 386 273 386  C 274 386 273 386 274 386  C 274 379 274 386 274 379  C 262 379 274 379 262 379  C 263 379 262 379 263 379  C 275 379 263 379 275 379  C 275 379 275 379 275 379  C 275 389 275 379 275 389  C 279 389 275 389 279 389  C 279 383 279 389 279 383  C 279 383 279 383 279 383  C 279 386 279 383 279 386  C 279 398 279 386 279 398  C 279 415 279 398 279 415  C 279 420 279 415 279 420  C 278 420 279 420 278 420  C 258 420 278 420 258 420  C 279 420 258 420 279 420  C 279 418 279 420 279 418  C 279 419 279 418 279 419  C 279 421 279 419 279 421  C 294 421 279 421 294 421  C 294 442 294 421 294 442  C 286 442 294 442 286 442  C 294 442 286 442 294 442  C 302 442 294 442 302 442  C 302 439 302 442 302 439  C 326 439 302 439 326 439  C 326 444 326 439 326 444  C 326 445 326 444 326 445  C 347 445 326 445 347 445  C 350 445 347 445 350 445  C 351 445 350 445 351 445  C 324 445 351 445 324 445  C 333 445 324 445 333 445  C 338 445 333 445 338 445  C 338 445 338 445 338 445  C 337 445 338 445 337 445  C 337 445 337 445 337 445  C 337 457 337 445 337 457  C 337 454 337 457 337 454  C 337 458 337 454 337 458  C 353 458 337 458 353 458  C 352 458 353 458 352 458  C 352 456 352 458 352 456  C 372 456 352 456 372 456  C 392 456 372 456 392 456  C 398 456 392 456 398 456  C 398 460 398 456 398 460  C 398 461 398 460 398 461  C 398 469 398 461 398 469  C 398 489 398 469 398 489  C 406 489 398 489 406 489  C 407 489 406 489 407 489  C 406 489 407 489 406 489  C 417 489 406 489 417 489  C 417 489 417 489 417 489  C 417 487 417 489 417 487  C 415 487 417 487 415 487  C 410 487 415 487 410 487  C 409 487 410 487 409 487  C 409 484 409 487 409 484  C 405 484 409 484 405 484  C 409 484 405 484 409 484  C 409 482 409 484 409 482  C 409 476 409 482 409 476  C 408 476 409 476 408 476  C 407 476 408 476 407 476  C 407 479 407 476 407 479  C 407 486 407 479 407 486  C 407 477 407 486 407 477  C 407 477 407 477 407 477  C 407 477 407 477 407 477  C 406 477 407 477 406 477  C 406 487 406 477 406 487  C 401 487 406 487 401 487  C 396 487 401 487 396 487  C 396 487 396 487 396 487  C 396 487 396 487 396 487  C 396 488 396 487 396 488  C 396 495 396 488 396 495  C 391 495 396 495 391 495  C 398 495 391 495 398 495  C 404 495 398 495 404 495  C 402 495 404 495 402 495 Z"/>
</svg>