<svg height="392" width="297" xmlns="http://www.w3.org/2000/svg"><path d="M148 196 C 148 196 148 196 148 196  C 151 196 148 196 151 196  C 159 196 151 196 159 196  C 159 194 159 196 159 194  C 163 194 159 194 163 194  C 163 197 163 194 163 197  C 175 197 163 197 175 197  C 175 198 175 197 175 198  C 175 208 175 198 175 208  C 172 208 175 208 172 208  C 177 208 172 208 177 208  C 177 208 177 208 177 208  C 177 216 177 208 177 216  C 176 216 177 216 176 216  C 183 216 176 216 183 216  C 183 214 183 216 183 214  C 183 211 183 214 183 211  C 185 211 183 211 185 211  C 204 211 185 211 204 211  C 204 209 204 211 204 209  C 210 209 204 209 210 209  C 210 207 210 209 210 207 M210 207 C 221 207 210 207 221 207  C 221 210 221 207 221 210  C 223 210 221 210 223 210  C 223 207 223 210 223 207  C 223 208 223 207 223 208  C 223 208 223 208 223 208  C 223 205 223 208 223 205  C 221 205 223 205 221 205  C 221 221 221 205 221 221  C 217 221 221 221 217 221  C 217 223 217 221 217 223  C 213 223 217 223 213 223  C 222 223 213 223 222 223  C 222 224 222 223 222 224  C 223 224 222 224 223 224  C 223 209 223 224 223 209  C 223 210 223 209 223 210  C 214 210 223 210 214 210  C 226 210 214 210 226 210  C 226 194 226 210 226 194  C 226 200 226 194 226 200  C 226 200 226 200 226 200  C 224 200 226 200 224 200  C 224 191 224 200 224 191  C 224 203 224 191 224 203  C 244 203 224 203 244 203  C 256 203 244 203 256 203  C 256 206 256 203 256 206  C 276 206 256 206 276 206  C 276 216 276 206 276 216 M276 216 C 280 216 276 216 280 216  C 280 193 280 216 280 193  C 288 193 280 193 288 193  C 288 191 288 193 288 191  C 291 191 288 191 291 191  C 291 190 291 191 291 190  C 309 190 291 190 309 190  C 309 191 309 190 309 191  C 333 191 309 191 333 191  C 333 187 333 191 333 187  C 343 187 333 187 343 187  C 343 188 343 187 343 188  C 343 216 343 188 343 216  C 341 216 343 216 341 216  C 346 216 341 216 346 216  C 346 220 346 216 346 220  C 346 228 346 220 346 228  C 335 228 346 228 335 228  C 344 228 335 228 344 228  C 344 230 344 228 344 230  C 344 245 344 230 344 245  C 343 245 344 245 343 245  C 352 245 343 245 352 245  C 352 253 352 245 352 253  C 352 259 352 253 352 259  C 355 259 352 259 355 259  C 362 259 355 259 362 259  C 362 260 362 259 362 260  C 362 334 362 260 362 334  C 361 334 362 334 361 334  C 361 347 361 334 361 347  C 368 347 361 347 368 347  C 375 347 368 347 375 347  C 375 348 375 347 375 348  C 375 352 375 348 375 352  C 372 352 375 352 372 352  C 382 352 372 352 382 352  C 382 350 382 352 382 350  C 384 350 382 350 384 350  C 384 347 384 350 384 347  C 384 348 384 347 384 348  C 382 348 384 348 382 348  C 387 348 382 348 387 348  C 387 347 387 348 387 347  C 382 347 387 347 382 347  C 382 341 382 347 382 341  C 391 341 382 341 391 341  C 391 343 391 341 391 343  C 391 352 391 343 391 352  C 386 352 391 352 386 352  C 386 356 386 352 386 356  C 389 356 386 356 389 356  C 391 356 389 356 391 356  C 391 354 391 356 391 354  C 392 354 391 354 392 354  C 392 317 392 354 392 317  C 392 343 392 317 392 343  C 385 343 392 343 385 343  C 385 348 385 343 385 348  C 391 348 385 348 391 348  C 391 351 391 348 391 351  C 383 351 391 351 383 351  C 383 379 383 351 383 379  C 385 379 383 379 385 379  C 385 383 385 379 385 383  C 389 383 385 383 389 383  C 387 383 389 383 387 383  C 387 376 387 383 387 376  C 387 383 387 376 387 383  C 383 383 387 383 383 383  C 388 383 383 383 388 383  C 388 387 388 383 388 387  C 388 387 388 387 388 387  C 388 387 388 387 388 387 M388 387 C 388 416 388 387 388 416  C 383 416 388 416 383 416  C 383 430 383 416 383 430  C 393 430 383 430 393 430  C 393 444 393 430 393 444  C 394 444 393 444 394 444  C 404 444 394 444 404 444  C 404 440 404 444 404 440  C 404 440 404 440 404 440  C 404 440 404 440 404 440  C 413 440 404 440 413 440  C 413 440 413 440 413 440  C 422 440 413 440 422 440  C 422 435 422 440 422 435  C 427 435 422 435 427 435  C 427 421 427 435 427 421  C 427 421 427 421 427 421  C 427 415 427 421 427 415  C 427 426 427 415 427 426  C 427 426 427 426 427 426  C 427 428 427 426 427 428  C 431 428 427 428 431 428  C 431 437 431 428 431 437  C 429 437 431 437 429 437 M429 437 C 429 440 429 437 429 440  C 429 440 429 440 429 440  C 430 440 429 440 430 440  C 430 440 430 440 430 440  C 430 450 430 440 430 450  C 429 450 430 450 429 450  C 429 452 429 450 429 452  C 431 452 429 452 431 452  C 431 480 431 452 431 480  C 427 480 431 480 427 480  C 427 510 427 480 427 510  C 428 510 427 510 428 510  C 427 510 428 510 427 510  C 427 513 427 510 427 513  C 435 513 427 513 435 513  C 435 514 435 513 435 514  C 435 509 435 514 435 509  C 408 509 435 509 408 509  C 413 509 408 509 413 509  C 413 494 413 509 413 494  C 413 499 413 494 413 499  C 418 499 413 499 418 499  C 418 502 418 499 418 502  C 417 502 418 502 417 502  C 416 502 417 502 416 502  C 416 505 416 502 416 505  C 416 514 416 505 416 514  C 420 514 416 514 420 514  C 419 514 420 514 419 514  C 419 509 419 514 419 509  C 419 506 419 509 419 506  C 418 506 419 506 418 506  C 418 512 418 506 418 512  C 417 512 418 512 417 512  C 417 517 417 512 417 517  C 417 517 417 517 417 517  C 419 517 417 517 419 517  C 419 519 419 517 419 519  C 423 519 419 519 423 519  C 423 506 423 519 423 506  C 421 506 423 506 421 506  C 421 500 421 506 421 500  C 426 500 421 500 426 500  C 426 500 426 500 426 500  C 425 500 426 500 425 500  C 425 479 425 500 425 479  C 425 489 425 479 425 489  C 421 489 425 489 421 489  C 421 532 421 489 421 532  C 411 532 421 532 411 532  C 411 549 411 532 411 549  C 409 549 411 549 409 549  C 415 549 409 549 415 549  C 415 546 415 549 415 546  C 436 546 415 546 436 546  C 436 545 436 546 436 545 M436 545 C 436 545 436 545 436 545  C 435 545 436 545 435 545  C 435 542 435 545 435 542  C 434 542 435 542 434 542  C 436 542 434 542 436 542  C 436 542 436 542 436 542  C 435 542 436 542 435 542  C 435 540 435 542 435 540  C 435 543 435 540 435 543  C 428 543 435 543 428 543  C 428 551 428 543 428 551  C 427 551 428 551 427 551  C 430 551 427 551 430 551  C 430 551 430 551 430 551  C 430 558 430 551 430 558  C 429 558 430 558 429 558  C 429 560 429 558 429 560  C 431 560 429 560 431 560  C 434 560 431 560 434 560  C 434 574 434 560 434 574  C 432 574 434 574 432 574  C 432 572 432 574 432 572  C 437 572 432 572 437 572  C 437 570 437 572 437 570  C 437 574 437 570 437 574  C 436 574 437 574 436 574  C 432 574 436 574 432 574  C 432 563 432 574 432 563  C 432 590 432 563 432 590  C 431 590 432 590 431 590  C 431 600 431 590 431 600  C 426 600 431 600 426 600  C 442 600 426 600 442 600  C 442 593 442 600 442 593  C 433 593 442 593 433 593  C 433 594 433 593 433 594  C 439 594 433 594 439 594  C 439 594 439 594 439 594  C 439 596 439 594 439 596  C 436 596 439 596 436 596  C 436 600 436 596 436 600  C 440 600 436 600 440 600  C 440 620 440 600 440 620  C 435 620 440 620 435 620  C 435 634 435 620 435 634  C 434 634 435 634 434 634  C 434 645 434 634 434 645  C 445 645 434 645 445 645  C 445 649 445 645 445 649  C 453 649 445 649 453 649  C 453 658 453 649 453 658  C 454 658 453 658 454 658  C 462 658 454 658 462 658  C 462 659 462 658 462 659  C 462 660 462 659 462 660  C 463 660 462 660 463 660  C 463 665 463 660 463 665  C 465 665 463 665 465 665  C 465 675 465 665 465 675  C 464 675 465 675 464 675  C 464 678 464 675 464 678  C 458 678 464 678 458 678  C 458 684 458 678 458 684  C 465 684 458 684 465 684  C 464 684 465 684 464 684  C 464 674 464 684 464 674  C 461 674 464 674 461 674  C 461 668 461 674 461 668  C 461 662 461 668 461 662  C 467 662 461 662 467 662  C 467 674 467 662 467 674  C 465 674 467 674 465 674  C 465 677 465 674 465 677  C 464 677 465 677 464 677  C 464 679 464 677 464 679  C 454 679 464 679 454 679  C 454 727 454 679 454 727  C 454 727 454 727 454 727  C 454 729 454 727 454 729  C 446 729 454 729 446 729  C 466 729 446 729 466 729  C 466 729 466 729 466 729  C 466 733 466 729 466 733  C 465 733 466 733 465 733  C 465 737 465 733 465 737  C 454 737 465 737 454 737  C 454 743 454 737 454 743  C 447 743 454 743 447 743  C 447 743 447 743 447 743  C 438 743 447 743 438 743  C 436 743 438 743 436 743  C 436 729 436 743 436 729  C 436 730 436 729 436 730  C 457 730 436 730 457 730  C 465 730 457 730 465 730  C 465 722 465 730 465 722  C 475 722 465 722 475 722  C 475 727 475 722 475 727  C 475 708 475 727 475 708  C 450 708 475 708 450 708  C 457 708 450 708 457 708  C 457 708 457 708 457 708  C 468 708 457 708 468 708  C 468 714 468 708 468 714  C 479 714 468 714 479 714  C 479 706 479 714 479 706  C 479 727 479 706 479 727  C 480 727 479 727 480 727  C 478 727 480 727 478 727  C 478 724 478 727 478 724  C 478 721 478 724 478 721  C 472 721 478 721 472 721  C 469 721 472 721 469 721  C 469 719 469 721 469 719  C 476 719 469 719 476 719  C 476 721 476 719 476 721  C 476 727 476 721 476 727  C 470 727 476 727 470 727  C 470 728 470 727 470 728  C 471 728 470 728 471 728  C 492 728 471 728 492 728  C 492 728 492 728 492 728  C 492 746 492 728 492 746  C 489 746 492 746 489 746  C 492 746 489 746 492 746  C 492 745 492 746 492 745  C 492 745 492 745 492 745  C 492 745 492 745 492 745  C 492 772 492 745 492 772  C 487 772 492 772 487 772  C 489 772 487 772 489 772  C 489 763 489 772 489 763  C 513 763 489 763 513 763  C 513 762 513 763 513 762  C 523 762 513 762 523 762  C 523 764 523 762 523 764  C 514 764 523 764 514 764  C 514 752 514 764 514 752  C 514 751 514 752 514 751  C 494 751 514 751 494 751  C 506 751 494 751 506 751  C 506 751 506 751 506 751  C 506 768 506 751 506 768  C 494 768 506 768 494 768  C 495 768 494 768 495 768  C 495 764 495 768 495 764  C 496 764 495 764 496 764  C 496 764 496 764 496 764  C 498 764 496 764 498 764  C 498 763 498 764 498 763  C 498 769 498 763 498 769  C 506 769 498 769 506 769  C 506 780 506 769 506 780  C 515 780 506 780 515 780  C 515 778 515 780 515 778  C 508 778 515 778 508 778  C 508 776 508 778 508 776  C 500 776 508 776 500 776  C 500 775 500 776 500 775  C 480 775 500 775 480 775  C 489 775 480 775 489 775  C 489 776 489 775 489 776  C 501 776 489 776 501 776  C 501 768 501 776 501 768  C 496 768 501 768 496 768  C 496 761 496 768 496 761  C 500 761 496 761 500 761  C 500 761 500 761 500 761  C 500 773 500 761 500 773  C 494 773 500 773 494 773  C 494 780 494 773 494 780  C 484 780 494 780 484 780  C 484 799 484 780 484 799  C 483 799 484 799 483 799  C 490 799 483 799 490 799  C 490 796 490 799 490 796  C 490 792 490 796 490 792  C 491 792 490 792 491 792  C 491 806 491 792 491 806  C 485 806 491 806 485 806  C 485 810 485 806 485 810  C 488 810 485 810 488 810  C 488 813 488 810 488 813  C 489 813 488 813 489 813  C 484 813 489 813 484 813  C 484 805 484 813 484 805  C 484 817 484 805 484 817  C 488 817 484 817 488 817  C 503 817 488 817 503 817  C 503 840 503 817 503 840  C 521 840 503 840 521 840  C 521 837 521 840 521 837  C 521 846 521 837 521 846  C 517 846 521 846 517 846 Z"/>
</svg>