<?xml version="1.0" encoding="utf-8"?>
<!-- Generator: Adobe Illustrator 22.0.1, SVG Export Plug-In . SVG Version: 6.00 Build 0)  -->
<svg version="1.1" id="Calque_1" xmlns="http://www.w3.org/2000/svg" xmlns:xlink="http://www.w3.org/1999/xlink" x="0px" y="0px"
	 viewBox="0 0 1586.6 1290.2" style="enable-background:new 0 0 1586.6 1290.2;" xml:space="preserve">
<style type="text/css">
	.st0{fill:none;stroke:#231F20;stroke-width:0.5;stroke-miterlimit:10;}
</style>
<g>
	<path class="st0" d="M660.8,261.7c9.1,6,18,12.2,27.2,18.1c17.9,11.5,35.9,22.7,53.8,34.1c32.7,20.9,65.3,41.9,98,62.8
		c24.5,15.7,49,31.2,73.5,46.9c1.4,0.9,2.9,1.8,4.8,2.9c0,5.8,0.1,11.8,0,17.8c-0.5,22-1.1,44-1.6,66c-0.6,23.8-1.1,47.6-1.6,71.4
		c-0.4,15.6-0.7,31.2-1.1,46.9c-0.7,28.2-1.4,56.4-2.1,84.7"/>
	<path class="st0" d="M660.8,247.9c20.9-7.1,42-13.9,62.7-21.6c4.2-1.6,6.3-0.4,9.2,1.3c19,11.9,38,23.8,57,35.7
		c13.7,8.5,27.3,17,41,25.6c22.4,14,44.7,28.1,67.1,42c28.4,17.6,56.8,35.1,85.2,52.8c4.7,2.9,9.2,6.4,13.4,9.3
		c-0.3,2.2-0.6,3.6-0.6,5c-0.7,19.5-1.3,39.1-2.2,58.6c-1,22.7-2.1,45.4-3.2,68.2c-0.4,7.8-0.8,15.6-1.1,23.4
		c-0.4,11.4-0.6,22.7-1.1,34.1c-0.6,12.4-1.5,24.8-2.1,37.3c-0.8,15.3-1.4,30.5-2.2,45.8c-0.6,11.4-1.3,22.7-2.1,34.5
		c-21.3,8.2-42.6,16.5-64.4,24.9c-6.2-3.2-11.9-7.4-17.3-12.4c-7-6.5-14.8-12.2-22.2-18.2c-16.1-13-32.3-25.9-48.4-38.9
		c-1-0.8-1.6-2.1-2.4-3.2"/>
	<path class="st0" d="M459,619.6c7.6,8.2,15.2,16.4,22.9,24.5c7,7.4,14.2,14.6,21.3,21.8c1.4,1.4,3,2.5,4.8,3.9
		c0.9,1.3,1.8,3.2,3.2,4.6c24.3,25.2,48.5,50.5,72.9,75.6c27.6,28.5,55.4,56.8,83,85.2c24.2,25,48.3,50,72.4,75.1
		c10,10.4,19.9,20.9,29.8,31.4"/>
	<path class="st0" d="M696.5,267.1c76.3,49.9,152.6,99.8,227.9,149c0,9.3,0.1,18.1,0,26.8c-0.6,31.6-1.4,63.2-2.1,94.8
		c-0.6,26.3-1.4,52.5-2.1,78.8c-0.7,26.6-1.4,53.2-2.2,79.9c-0.3,8.5-1.1,17-1.5,25.6c-0.2,3.1,0.9,5.5,3.7,7.5
		c8.5,6.2,16.7,12.7,25.1,19.1c0.5,0.4,1,0.6,1.6,0.9c-5.6,4.4-5.6,4.1-16,2.4c-7.6-1.3-15.3-1.8-22.9-2.8c-2-0.2-3.9-0.7-5.9-1"/>
	<path class="st0" d="M930.3,431.1c-0.7,27.3-1.4,54.7-2.1,82c-0.5,16.5-1.1,33-1.6,49.5c-0.8,29.1-1.4,58.2-2.2,87.3
		c-0.6,19.5-1.4,39.1-2.1,58.6c0,1.4,0,2.9,0,5c10.6-4,20.4-7.7,30.4-11.4c6.7-2.4,13.5-4.6,20.2-6.9"/>
	<path class="st0" d="M1053.8,618c-5.7-3.4-11.4-6.7-17-10.1"/>
	<path class="st0" d="M1317.9,403.4c-3.4-2-6.5-1.9-10.2-0.1c-18.2,9.1-36.5,17.9-54.8,26.7c-14.7,7.1-29.5,14.1-44.2,21.3
		c-17.3,8.4-34.4,17.1-51.7,25.5c-22.1,10.8-44.4,21.2-66.5,32c-17.1,8.3-34.1,17-51.2,25.5c-1.8,0.9-3.9,1.1-5.8,1.7"/>
	<path class="st0" d="M977.7,605.7c1.1-26.5,2.1-52.9,3.2-79.3c0.6-13.7,1-27.3,1.6-41c1-22,2.2-44,3.1-66c0.2-5,0-9.9,0-15.6
		c-18.7,8.4-36.8,16.5-54.8,24.6"/>
	<path class="st0" d="M692.2,376.8c-4.6,1.4-9.3,2.6-13.8,4.3c-33.7,12.4-67.4,24.9-101.2,37.2c-19.5,7.1-39.1,13.7-58.5,20.8
		c-17.5,6.4-34.8,13.1-52.2,19.7c-4.9,1.9-9.9,3.6-14.9,5.3"/>
	<path class="st0" d="M1559.7,621.7c0.7-10.3,0.6-20.7,2.4-30.9c1.7-9.6-1.1-17.5-7.4-23.8c-4.1-4.1-10-6.5-15.3-9.2
		c-23-11.8-46.2-23.3-69.2-35.2c-21.2-11-42.2-22.4-63.4-33.5c-19.1-9.9-38.3-19.6-57.5-29.3c-0.6-0.3-1.4-0.4-2.1-0.6"/>
	<path class="st0" d="M1335.5,426.3c-7.5,3.7-14.8,7.7-22.4,11.1c-30.8,14.1-61.8,28-92.6,42.1c-24.4,11.1-48.6,22.4-73,33.5
		c-6.2,2.9-12.4,5.7-18.6,8.5"/>
	<path class="st0" d="M1132.1,323c9.9,4.4,19.8,9,29.8,13.3c19.7,8.6,39.4,17.1,59.1,25.6c21.5,9.2,42.9,18.5,64.4,27.7
		c7,3,14.2,5.6,21.3,8.6c1.5,0.6,2.5,2.2,3.8,3.4"/>
	<path class="st0" d="M1124.6,326.2c22.5,9.9,45.1,19.9,67.6,29.8c27.8,12.2,55.7,24.2,83.6,36.2c7.1,3.1,14.3,5.9,21.3,9.1
		c2,0.9,3.6,2.8,5.4,4.2"/>
	<path class="st0" d="M375.9,1038.1c10.3,14,20.6,28.1,30.9,42.1c1.6,2.2,3.5,4.3,5.3,6.4"/>
	<path class="st0" d="M445.7,1116.4c3,0.2,5.7,3.4,9.1,1.1"/>
	<path class="st0" d="M462.2,1118c2.8-0.2,5.7-0.4,8.5-0.5"/>
	<path class="st0" d="M617.7,857.6c-4.3,0.2-8.7-0.3-12.8,0.7c-10.7,2.5-21.3,5.7-32,8.3c-5,1.2-10.3,1.3-15.4,2.2
		c-8,1.5-16,3.2-24,4.7c-9,1.7-18.1,3.2-27.1,4.8c-2.2,0.4-4.3,0.9-6.4,1.6c-9.6,3.1-18.9,7.1-29.3,7.1c-3.5,0-7.1,2-10.6,3"/>
	<path class="st0" d="M689,919.9c-2.5-0.2-5.3-1.3-7.4-0.4c-13.9,5.8-27.8,11.8-40.5,20.1c-14.7,9.6-29.2,19.6-44.3,28.6
		c-10.5,6.3-21.8,11.4-33,16.6c-9.6,4.5-19.5,8.6-29.3,12.8"/>
	<path class="st0" d="M803.5,826.2c2.7-16.7,5.3-33.4,8.1-50.8c-17.3-0.8-34.5-1.6-51.7-2.4c-3.7,19.9-7.1,38.7-10.8,58.6
		c15,0,28.8-0.1,42.7,0c13.7,0.2,27.3,0.5,41,1.2c3.4,0.2,6.7,2.1,9.8,3.1c8.8,10.5,17.7,20.9,26.3,31.4c2.7,3.3,5,7.1,7.5,10.6"/>
	<path class="st0" d="M57.8,727.7c-0.3,5-0.8,9.9-0.7,14.9c0.1,7.6,0.6,15.3,1,22.9"/>
	<path class="st0" d="M61.5,792.6c2.1,8.2,1.1,16.9,4.4,25.1c1.5,3.7,1.1,8.1,1.8,12.2c1.4,8.7,2.8,17.4,4.2,26.1"/>
	<path class="st0" d="M72.9,875.2c1.6,6.2,3.8,12.3,4.7,18.7c3.4,22.6,6.3,45.2,13.3,67.1c0.6,1.8,0.1,3.9,0.1,5.8"/>
	<path class="st0" d="M67.1,954.5c4.6,2.5,9.2,5,13.8,7.4c10.6,5.5,21.3,11.1,32,16.5c5.6,2.8,11.6,4.9,17,8.1
		c7.8,4.7,16.4,6.3,25.1,7.9c5.9,1.1,11.7,3,17.6,4.1c7.1,1.3,14.2,2.2,21.3,3.2c1.2,0.2,2.7-0.4,3.7,0.1c7.3,3.7,15.1,3.9,22.9,3.6
		c7.9-0.3,15.1,2.1,22.4,4.8c6.3,2.3,12.7,4.4,19.2,5.7c3.8,0.7,4.3,2.4,4.3,5.5c-0.1,17.4-0.3,34.8,0.1,52.2c0.1,6.1,2,12.1,3,18.1
		c0.8,4.4,1.8,8.9,2,13.3c0.3,5.8,3.1,9.4,8.1,11.7c5.5,2.6,7.7,6.8,7,12.8c-1.2,9.6-2.2,19.2-3.2,28.7"/>
	<path class="st0" d="M260.4,755.9c-1.2-5.8-2.5-11.4-6.8-16.1c-1.8-2-3.2-3.5-6-3.1c-0.5,0.1-1.2,0.2-1.6,0
		c-11.9-7.5-26.7-11.3-33.2-26c-2-4.6-5.9-8.2-11-10.2c-6.1-2.4-10.4-7.1-14.4-12.2c-0.9-1.2-2.4-1.8-3.7-2.7
		c-8-5.9-15.9-11.8-24-17.5c-10.4-7.4-20.9-14.6-31.4-21.9"/>
	<path class="st0" d="M63.3,905c-3.7,17-6.9,34.2-9,51.4c-1.1,8.9-2.9,18.7-3.4,27.7c-0.5,9-1.6,16.9-2.2,25.7
		c-0.6,9.8,3.8,16.2,4.4,25"/>
	<path class="st0" d="M51.6,1037.6c0.4,3.7,0.7,7.5,1.1,11.2"/>
	<path class="st0" d="M51,1048.1c0,10.4,1.1,18.7-2.1,28.6c-5.5,17-10.1,30.1-10.1,48"/>
	<path class="st0" d="M38.1,1122.8c0.8,12.5,1.9,24.8-1.6,37.4c-2.3,8.3-2.1,17.3-2.9,26"/>
	<path class="st0" d="M222,821.9c-0.7,2.8-1.4,5.7-2.1,8.5c-3.3,12.6-3.6,25.6-2.3,38.3c0.7,7.1,4.3,14,7.2,20.8
		c5.2,11.8,8.9,24,10.6,36.8c0.7,5.2,2.1,10.3,3.1,15.4"/>
	<path class="st0" d="M118.2,982.2c0,0.5-0.2,1.2,0,1.6c4.9,9.2,7.5,19.4,13.1,28.3c5.2,8.2,9.2,17.2,13.4,26c1.3,2.7,1.9,6,2.1,9
		c0.7,11.3,1.1,22.7,1.7,34.1c0.3,4.3,1.1,8.5,1.5,12.8c0.1,1.2-0.2,2.5-0.3,4c1.8,4.2,3.7,8.6,5.8,13.4c-1.4,3.3-3.1,6.7-4.4,10.4
		c-1.2,3.5-2.3,7-2.6,10.6c-0.4,5.3,0.2,10.7-0.2,16c-0.4,6.2-1.4,12.4-2.1,18.6"/>
	<path class="st0" d="M943.1,862.4c17.5,15.4,34.9,30.8,52.8,46.5c20.7-10.6,41.2-21.1,61.7-31.6"/>
	<path class="st0" d="M169.3,794.8c-0.5,5.7-1.5,11.4-1.5,17c-0.1,13,1.9,25.9-1.4,38.9c-1.2,4.6,0.5,9.9,0.8,14.8
		c0.9,13.3,1.8,26.6,2.7,39.9"/>
	<path class="st0" d="M766.8,999.8c5.8,8.7,8.5,18.3,9.8,28.7c1.3,10.7-0.4,21.5,3.8,32.1c2.2,5.6,1.7,12.3,2.4,18.5
		c0.4,3.4,1.2,6.8,1,10.1c-0.5,6.6-1.8,13.1-2.5,19.7c-0.3,3,0.4,6,0.4,9c0.1,8.7,0.1,17.4,0,26.1c0,2-0.9,3.9-1,5.9
		c-0.4,12.9-0.7,25.9-1.1,38.9c-0.1,4.1-0.3,8.2-0.5,12.2"/>
	<path class="st0" d="M150.2,528c1.6,0,3.5-0.6,4.7,0.1c7.4,3.9,15.9,2.4,23.5,5.2c2.2,0.8,4.6,1.1,6.9,1.6"/>
	<path class="st0" d="M185.8,534.9c10.8,1.9,21.7,3.8,32.5,5.9c5,1,10,2.4,14.9,3.7"/>
	<path class="st0" d="M233.8,544.5c6.7,2.1,13.4,5,20.3,6.2c8.6,1.4,17.1,5.1,26.1,2.4c1.1-0.3,2.6,0,3.7,0.5
		c6.9,3.2,15.5,2.8,20.8,9.5"/>
	<path class="st0" d="M290.2,580.7c-9.7-5.5-19.1-11.6-30.9-11.9c-2.3-0.1-4.6-2-6.9-3.1"/>
	<path class="st0" d="M404.7,869.3c3.9,4.3,8.7,8,11.5,12.9c8.5,14.4,20.5,25.2,33.1,35.7c6.5,5.4,11.5,12.2,15,20.1
		c2.4,5.5,5.7,10.6,8.4,16c5.1,10.2,9.8,20.6,15,30.8c3.8,7.6,8.1,14.9,12.2,22.4"/>
	<path class="st0" d="M501.6,1013.6c5,8.2,9.9,16.3,14.9,24.5"/>
	<path class="st0" d="M935.1,258.5c-20.1,6.2-40.1,12.4-60.2,18.6c-11.5,3.6-23.1,7.1-34.6,10.7c-1.5,0.5-2.9,1.4-4.3,2.1"/>
	<path class="st0" d="M525.6,634c2,3.2,3.6,6.6,5.9,9.6c9.5,12.5,19.1,24.9,28.7,37.3"/>
	<path class="st0" d="M599.6,733.5c1.9,2.5,3.8,5,6.2,8.2c5.3-2.8,9.9-5.5,14.7-7.6c2.8-1.2,6-1.5,9-2.2"/>
	<path class="st0" d="M647.8,723.9c6.3-1.8,11.6-5.8,18.3-6.9c4.5-0.7,8.5-4,12.8-5.8c7.7-3.4,16.1-5.2,22.9-10.7
		c12.3-1,21.9-9.2,33.5-12.5c7.7-2.2,14.3-8.1,22-10c8.4-2.1,15.7-6.5,23.9-9c3-0.9,5.7-2.8,8.5-4.2"/>
	<path class="st0" d="M247.6,1109.5c-0.7-3.3-3.3-3.2-5.9-3.2c-6.7,0-13.6,0.9-20.2-0.2c-17.4-2.8-34.8-1.5-52.2-2
		c-5.5-0.2-11-1.3-16.5-2"/>
	<path class="st0" d="M66,188.2c-1.1,0.4-2.5,0.4-3.1,1.1c-10.4,12.4-20.7,24.8-30.9,37.3c-0.4,0.5-0.4,1.4-0.6,2.1"/>
	<path class="st0" d="M23.7,245.2c-1.2,5.7-2.9,11.3-3.3,17.1c-0.7,9.5-0.5,19.2-0.6,28.7c0,0.5,0.7,1.1,1,1.6"/>
	<path class="st0" d="M99,752.2c-3.3,9.7-3.4,19.7-3.1,29.8c0,1.4,1.1,3,2.1,4.2c7.8,10,8.6,21.1,5.9,33.1c-1.8,8.2-2.6,16.7-3.8,25
		c-0.1,0.7,0.3,1.6-0.1,2.1c-4.3,7.2-0.7,13.4,2.2,19.7c2,4.4,4.4,8.7,5.7,13.4c0.7,2.6-0.4,5.6-0.7,8.4c4.5,2.1,9.2,4.3,14,6.6
		c8.8-1.1,16.2,4.6,24.6,6.3c8.6,1.7,17.2,3.8,24.6,5.4c1.9,11.2,3.2,21.3,5.3,31.3c2.5,12,5.3,23.9,8.6,35.7
		c1.1,4,4.1,7.5,6.2,11.2c3.5,6.3,5.4,13,3.2,20.2c-0.5,1.6-0.8,3.2-1.1,4.8c-1.1,7.5-2.5,14.9-3.1,22.4c-0.5,6.7-0.5,13.5,0.1,20.2
		c0.2,2.4,2.9,4.5,4,7c2.3,4.7,4.3,9.6,6.4,14.4"/>
	<path class="st0" d="M361,644.6c0.2,6,6.2,8.1,8.6,12.7c1.2,2.3,3.8,4,5.7,5.9"/>
	<path class="st0" d="M381.3,671.8c2.7,5,5.3,9.9,8,14.9"/>
	<path class="st0" d="M406.6,729.8c1.3,8.2,2.6,16.3,4,24.5c1.8,10.8,3.2,21.5,2.6,32.5c-0.1,1.1-0.3,2.1-0.5,3.2"/>
	<path class="st0" d="M412.9,802.2c3.3,6.7,6.6,13.5,9.8,20.2c1.1,2.2,1.8,4.6,2.7,6.9"/>
	<path class="st0" d="M433.4,843.2c7.1,12.6,14.2,25.2,21.3,37.8c0.7,1.2,0.8,2.8,1.1,4.2"/>
	<path class="st0" d="M456.3,885.8c5.1,8,10.2,16,15.5,23.9c1.4,2.2,3.5,3.9,5.3,5.9"/>
	<path class="st0" d="M918,253.2c-15.8,5.5-31.6,11.1-47.4,16.5c-12,4.1-24.2,7.8-36.2,11.8c-2.6,0.9-5,2.4-7.5,3.7"/>
	<path class="st0" d="M964.9,931.1c-8.9,4.4-17.8,8.8-26.6,13.3c-15.3,7.8-30.6,15.6-45.8,23.4c-6.7,3.5-13.3,7.1-20.1,10.8
		c-14.7-15.1-29-29.7-43.3-44.3"/>
	<path class="st0" d="M107,889c-1.1,5.3-2.7,10.6-3.1,16c-0.5,7.6-0.4,15.3,0,22.9c0.1,3.6,1.4,7.1,2,10.7c0.3,1.6,0.5,3.2,0.5,4.8
		c0,4.5,1.8,8.7,2.7,12.9c1.7,7.5,5.1,14.6,5.9,22.3"/>
	<path class="st0" d="M360,656.9c-13.8-1.9-24.5,5.4-35.7,11.6c-11.4,6.4-17.6,17.5-26.1,26.6c-13.3,14.3-22.1,31.5-31.9,48"/>
	<path class="st0" d="M488.8,1036.5c-1.4,6.6-3.3,13.1-4.1,19.7c-0.9,7.3-3.7,13.5-8.7,18.6c-6.4,6.6-12.6,13.7-21.8,16.5
		c-4.1,1.2-8.5,1.5-12.8,2.2c-2.3,0.4-4.7,0.8-6.6,1.2c-1.5,2.9-2.8,5.4-4,7.9"/>
	<path class="st0" d="M717.5,329.4c0.3,1.6,0.7,3.2,0.8,4.8c0.2,20.4,0.4,40.8,0.6,61.2"/>
	<path class="st0" d="M719.1,475.3c-0.1,5.3-0.2,10.7-0.3,16"/>
	<path class="st0" d="M269.4,765.5c3.2,3,6.4,6,9.6,9c8.1,7.6,14.2,16.8,19.1,26.7c5.1,10.2,9.3,20.9,14,31.4c1.2,2.8,2.5,5.6,4.3,8
		c8.7,11.3,17.7,22.4,26.6,33.6"/>
	<path class="st0" d="M1131.6,319.2c-0.1,1.1-0.3,2.1-0.2,1.9c-6.2,1.6-11.8,2.9-17.3,4.5c-4.7,1.4-9.2,3.2-13.9,4.8"/>
	<path class="st0" d="M1078.3,332.3c-5.7-0.3-11.4-0.3-17-0.9c-4.8-0.4-9.6-1.4-14.4-2.1"/>
	<path class="st0" d="M149.1,1098.3c-13.5-4.9-25.3-12.6-35.6-22.4c-7.5-7-14.7-14.4-21.8-21.8c-5.3-5.5-10.2-11.4-15.5-17
		c-1.6-1.6-3.8-2.5-5.8-3.8"/>
	<path class="st0" d="M71.9,874.6c-1.4,3.4-2.8,6.7-4.3,10.1"/>
	<path class="st0" d="M65.7,905.5c0.3,6.6,0.7,13.1,0.7,19.7c0,9.2-0.4,18.5-0.5,27.7c-0.2,17.4-0.4,34.8-0.5,52.2
		c0,2.3,1,4.6,1.5,6.9"/>
	<path class="st0" d="M68.9,1042.9c0.1,7.6,0.2,15.3,0.3,22.9"/>
	<path class="st0" d="M686.4,1189.9c4.4-6.3,8.1-12.8,4.7-20.7c-1.2-2.8-3.3-5.1-5.2-7.9c1.7-10.1,3.2-13.5-8.1-19.8
		c0.2-0.3,0.5-0.7,0.6-1c0-4.6,0-9.2,0-15.1c-5-0.5-10.1-0.9-15.2-1.4c0-3.6,0-7.1,0-10.8c-13.2,2.4-26.2,4.7-39.1,7"/>
	<path class="st0" d="M326.9,750.6c11.6,18.5,21.7,38,35.2,55.4c6.6,8.5,13.5,16.7,20.2,25"/>
	<path class="st0" d="M741.2,528c-1.8,0.5-3.6,0.9-5.3,1.6c-7.5,3.5-15,7-22.4,10.7c-2.9,1.4-5.4,3.4-8.3,4.7
		c-3.5,1.4-7,2.7-10.4,4.3c-15.8,7.4-31.7,14.8-47.4,22.4c-18,8.7-35.9,17.7-53.8,26.6c-7.4,3.6-15,7-22.3,10.7
		c-1.7,0.9-2.9,2.8-4.3,4.2"/>
	<path class="st0" d="M346.6,520c1.8,2.7,3.6,5.3,5.3,8"/>
	<path class="st0" d="M365.3,645.1c-4.6-1.9-9.4-3.5-13.8-6c-3.1-1.8-5.9-3.4-9.7-2.6c-1.7,0.3-3.5-0.3-5.3-0.4"/>
	<path class="st0" d="M336,636.1c-2.8-0.4-5.7-0.4-8.5-1.1c-7-1.7-12.7,1.1-17.5,5.4c-9.5,8.5-17.3,18.6-23.5,29.8
		c-1.7,3-3.2,6-4.8,9"/>
	<path class="st0" d="M306.7,598.3c-2.3-0.7-4.6-1.7-6.9-2.1c-5.8-0.9-11.7-1.7-17.6-2.1c-2.4-0.2-5,0.5-7.4,1
		c-16.9,3.4-31.1,11-40,26.6c-0.6,1-1.7,1.8-2.6,2.7c-12.4,10.9-22.4,24-31.8,37.4c-4.7,6.7-7.3,14.8-10.9,22.2
		c-0.4,0.9-1.1,1.8-1.6,2.7"/>
	<path class="st0" d="M326.4,752.2c-5.6,11.1-15.5,18.1-24.3,26.3c-5.5,5.2-10.8,10.9-16.1,16.4c-3.6,3.8-6.9,7.8-11.8,10
		c-1,0.5-1.9,1.3-2.7,2.1c-5.4,5.8-10.5,11.9-16,17.5c-5.9,6-13.8,6.4-21.8,1.7c-2.2-1.3-4.6-2.2-6.9-3.2c-2.1-1-4.2-2-7.1-3.5
		c4.1-16.2,8.1-31.8,11.8-46.6c-3.8-3.2-6.9-5.9-10-8.5c-6-4.8-12.1-9.6-18.1-14.4c-3.6-2.9-7.2-6-10.6-9.1
		c-5.2-4.7-12-3.7-18.6-5.8c1.2-6.2,2.2-12.7,3.8-19.2c1.1-4.5,3.4-8.8,4-13.3c0.6-4.6,3.4-7.8,5-11.7"/>
	<path class="st0" d="M836.6,648.9c11.5,9.6,23,19.2,34.6,28.7c11.5,9.5,23.1,18.8,34.6,28.2c1.1,0.9,2.5,1.4,3.7,2.2"/>
	<path class="st0" d="M455.8,898.1c11.2,19,22.4,38,33.5,57c3.1,5.3,6,10.6,9.1,16"/>
	<path class="st0" d="M1552.2,635c-8.3,5.1-16.6,10.4-25,15.4c-15,8.8-30.2,17.4-45.2,26.1c-24.9,14.4-49.7,28.8-74.6,43.1
		c-2.7,1.5-5.7,2.5-8.5,3.8"/>
	<path class="st0" d="M61.2,570.1c-1.1,5.9-1.5,11.9-3.3,17.5c-5.7,17.7-6.8,35.9-7,54.4c-0.1,16.5,5.5,31.6,6.6,47.7
		c2.5,36.3-1,73.6-1,110c0,21.9,0,43.2,3.9,63.7c2,10.6,5.5,26.7,3.9,37.2"/>
	<path class="st0" d="M219.9,818.2c-7.6-5.2-16.8-7-24.2-13c-4.4-3.6-11.2-4.4-16.8-6.7c-3.7-1.5-7.2-2.9-10.3-6.2
		c-6.1-6.3-12.8-12.2-20.2-17c-7.7-5-15.6-10.2-24.9-11.8c-7.2-1.2-13.4-3.7-18.2-9.5c-1.2-1.5-4.1-1.5-6.8-2.4
		c-0.3-5.4,1.6-10.3,3.7-15.3c4-9.4,8.3-18.6,11.6-28.3c2.2-6.4,2.7-13.4,3.9-20.2"/>
	<path class="st0" d="M622.5,756.7c9.9,2.4,19.9,4.8,29.8,7.2c10.3,2.4,20.6,4.8,30.9,7.2"/>
	<path class="st0" d="M198.1,578c-7.3-0.5-13.3,3.8-19.8,5.3c-11,2.6-18,10.2-26.6,15.9c-11.2,7.5-15.4,18.7-18.7,30.9
		c-3.2,11.9-7.8,23.4-11.5,35.2c-1.8,5.9-2.9,12-4.3,18.1"/>
	<path class="st0" d="M243.3,947.6c-1.8,5.3,2.2,9,3.8,13.3c2.6,7,6.9,13.6,8.1,20.8c1.8,11,7.4,20.9,8.8,31.9
		c0.1,0.7-0.3,1.4-0.5,2.1"/>
	<path class="st0" d="M443.6,914.6c-3.6,10.5-7.1,21-10.7,31.4c-3.5,10.1-7.1,20.2-10.6,30.4c-0.2,0.6,0,1.4,0,2.1
		c10.5,7.3,22,12.9,29.6,24.3c4.5,6.7,12.4,11.3,18.8,16.7c5.8,4.9,11.7,9.6,17.6,14.4"/>
	<path class="st0" d="M845.1,833.6c1.2-13.5,2.5-27,3.7-40.5c0.5-5.3,1-10.6,1.6-16.4c-13.1-0.4-25.7-0.8-38.3-1.2"/>
	<path class="st0" d="M292.3,933.2c-0.9,1.4-1.8,2.8-2.7,4.3c-4.3,7.1-11.8,7.3-18.6,9c-1.6,0.4-3.2,1-4.8,1c-7.6,0.1-15.3,0-22.9,0
		c0.2-0.6,0.4-1.1,0.6-1.7c-5-2.6-9.8-5.7-15-7.8c-7.9-3.1-15.1-6.8-22-12.1c-6.8-5.2-15-8.5-22.7-12.5c-3.8-2-7.8-3.6-11.7-5.4"/>
	<path class="st0" d="M828,868.8c3.2,0.7,6.4,1.5,9.6,2.1c12.8,2.5,25.6,4.9,38.3,7.6c2.1,0.5,3.9,2.6,7,4.7
		c-6.6,2.7-11.8,5-17.1,6.8c-16.8,5.6-33.7,11-50.6,16.6c-10.7,3.5-21.3,7.1-32,10.6c-1.7,0.6-3.5,0.7-5.3,1.1"/>
	<path class="st0" d="M1017.9,812.9c-15,5.9-30,11.7-45,17.6c-10.8,4.2-21.6,8.4-33.1,12.8c-14.4-16.1-28.8-32.3-43.7-48.9
		c28.1-9.6,54.5-22.2,82.6-29.9c15,15.5,29.2,30.2,44.1,45.6c-1.8,1-3,1.6-4.2,2.3"/>
	<path class="st0" d="M91,624.9c-3.7,5.7-7.3,11.4-10.6,16.6c7.1,17.4,19.6,30.2,34.5,41c3,2.2,5.3,5.4,7.5,8.5
		c3.7,5.2,7,10.7,10.8,15.9c1.4,1.9,3.4,3.3,5.3,4.8c3.9,3.1,7.9,5.9,11.7,9.1c7,5.9,15,9.9,23.5,13.3"/>
	<path class="st0" d="M139,553c-3.2,2.1-6.9,3.8-9.5,6.5c-8.6,8.8-17,17.8-25,27.2c-3.5,4.1-7.5,7.7-10.1,13
		c-2.3,4.8-2.8,9.1-2.9,14c0,2.7-0.7,5.3-1,8"/>
	<path class="st0" d="M414.8,573.8c-17.6-18.5-35.1-36.9-52.8-55.3c-0.4-0.4-1.4-0.4-2.1-0.6"/>
	<path class="st0" d="M1042.1,278.2c0.9-7.5,1.6-14.9,2.7-22.4c1.2-8.2,2.9-16.3,4.2-24.5c0.6-3.5,0-7.4,1.3-10.6
		c1.7-4.2-0.9-5.6-3-7.6c-2.7,0.3-5,0.6-8.1,1c-0.3,2-0.6,4-0.8,6c-0.7,5.7-1.3,11.4-2.2,17c-1.3,8.4-2.8,16.7-4.3,25
		c-0.2,1-1,1.8-1.5,2.7"/>
	<path class="st0" d="M386.8,377.6c7,18.2,12.2,54.3,2.4,72.6c-4.5,8.3-8.9,16.7-13.3,25"/>
	<path class="st0" d="M323.2,1005.1c-2.1,7.3-6.6,11.7-14.4,12.8c-7.5,1.1-14.5,5.3-22.4,4.2c-5-0.7-9.9-1.8-14.9-2.6
		c-1.6-0.3-3.2-0.4-4.8-0.5"/>
	<path class="st0" d="M1045.8,539.7c-2.8,4-3.4,8.5-3.8,13.3c-1.4,16.7-3.2,33.4-4.6,50.1c-0.4,4.5-2.5,4.8-5.9,3.7"/>
	<path class="st0" d="M178.4,584.4c0.5,0.5,1,1.3,1.6,1.6c9.4,4.7,18.6,9.7,28.3,13.7c7.9,3.3,13.9,8.6,19.7,14.5
		c2.1,2.1,4.6,3.9,6.9,5.9"/>
	<path class="st0" d="M143.8,363.7c-0.1,15.2-4.6,38.8,2.7,52.5"/>
	<path class="st0" d="M1067.1,549.3c-1.8,17-3.6,34.1-5.3,51.1c-0.5,4.9-0.7,9.9-1.1,14.9"/>
	<path class="st0" d="M527.7,1106c-14.5,0.7-28.8,3.2-43.1,5.6"/>
	<path class="st0" d="M885.5,746.1c-11.8-0.9-23.5-1.5-35.2-3.8c-4.9-1-10.8,3.3-16.2,5.2c-0.1,0.6-0.2,1.2-0.2,1.8
		c14.9,11.5,29.8,22.9,45.2,34.7c3.6-1.9,7.3-3.8,9.8-5.1c4.2-21.8,8.1-42.4,12.1-63.5c-1.1,0.2-2.2,0.2-3.1,0.7
		c-8.6,4.4-17,8.9-25.6,13.3c-5.6,2.9-11.4,5.6-17,8.6c-1.6,0.9-2.9,2.4-4.3,3.7"/>
	<path class="st0" d="M770.5,942.8c15.1,16.5,31.8,30.7,53.3,39.5c0.3-1.6,0.7-3.3,1-4.9"/>
	<path class="st0" d="M1048.5,242c11.5,3.7,23.7,6.2,34.4,11.5c12.2,6.1,25.1,7.9,38,10.3c0.5,0.1,1.1,0.3,1.6,0.5"/>
	<path class="st0" d="M1139.6,272.4c2.1,2.8,4.3,5.7,6.4,8.5"/>
	<path class="st0" d="M335.5,959.8c1.4-0.2,3.2,0.1,4.2-0.6c8.9-6.5,18.3-12.2,24.2-22.2c3.4-5.8,8.2-10.7,12.4-16
		c15.5,18.6,30.5,36.7,45.6,54.8"/>
	<path class="st0" d="M590.5,1174.4c-3.6,7.2-11,8.6-17.6,11.1c-9.8,3.7-19.8,3.6-29.8,0.5c-2.2-0.7-4.3-2.1-6.4-3.1"/>
	<path class="st0" d="M174.6,736.2c-0.7,5-1.7,9.9-2.1,14.9c-0.9,10.8-1.4,21.7-2.3,32.5c-0.2,2.5-1.3,5-2.1,7.5"/>
	<path class="st0" d="M734.8,711.2c-2.7,2.5-5.3,5-8,7.5"/>
	<path class="st0" d="M721,726.1c-10.3,13.1-20.6,26.3-30.9,39.4c-2,2.6-4.2,5-6.4,7.5"/>
	<path class="st0" d="M382.9,833.1c-1.6,1.8-3.4,3.4-4.8,5.4c-5.6,8.2-13.5,14.2-20.7,20.9c-6.9,6.4-12.9,13.7-19.3,20.6
		c-1.2,1.3-2.3,2.9-3.8,3.7c-8.5,4.7-13.6,12.4-18.6,20.3c-4.1,6.5-8.8,12.6-10.7,20.2"/>
	<path class="st0" d="M1258.8,189.3c-5.3,12.6-10.3,25.4-16.1,37.7c-2.6,5.4-6.9,10-10.5,15"/>
	<path class="st0" d="M1221.6,334.2c-0.7-0.4-1.6-1.2-2.1-1c-7.1,2.7-13.5-1.2-20.3-1.7"/>
	<path class="st0" d="M1174.2,327.8c-5.5,0-11,0.3-16.5-0.1c-3.6-0.2-7.1-1.3-10.7-2"/>
	<path class="st0" d="M235.4,622.2c11.9,9.8,23.5,19.8,35.8,29.1c5.1,3.9,7.6,9.2,11.1,14"/>
	<path class="st0" d="M763.6,530.7c-1.6-2.1-2.9-4.7-4.9-6.3c-10.7-8.8-21.6-17.4-32.4-26.2c-2.3-1.9-4.1-4.4-6.2-6.8
		c-13.3,5.2-26.2,10.3-39.1,15.4c-2.9,1.1-4,3.2-3.8,6.4c0.2,2.6,0,5.3,0,9.2c6.3,5,13.5,10.7,20.8,16.4"/>
	<path class="st0" d="M79.3,644.6c-5.7,8.7-9.8,17.9-9.2,28.8c0.3,4.6-1.2,9.3-1.9,14c-0.6,0-1.3,0.1-1.9,0.1
		c2.7,9.5,5.4,19.1,8.3,28.5c0.6,2,2,4.2,3.7,5.2c8.2,5,13.2,12.7,17.5,20.9c0.4,0.8,1,1.4,1.6,2.1"/>
	<path class="st0" d="M708.2,576.4c2.5,2.3,5,4.5,7.4,6.9c3.6,3.7,7.2,7.4,10.6,11.2c0.9,1,1.1,2.4,1.6,3.7"/>
	<path class="st0" d="M727.9,598.8c1.4,3.8,5.2,4.6,8,4.6c17.5,0,34.8,3.2,52.2,4c1.3,0.1,2.5,1,3.7,1.5"/>
	<path class="st0" d="M267.3,661.1c-3.7-1.2-7.4-2.7-11.2-3.7c-8.4-2.3-11.8-1.1-16.4,7c-4.1,7.2-7.2,14.8-10.8,22.3"/>
	<path class="st0" d="M1039.4,295.3c-3.5,13.4-5.7,27.1-6.8,42.2c-1.2,1.3-3.3,3.8-5.5,6.3"/>
	<path class="st0" d="M431.8,1115.9c-8.9,13.5-17.8,27-26.6,40.5c-2,3.1-3.6,6.4-5.4,9.6"/>
	<path class="st0" d="M1190.1,834.7c-0.8,3.5-1.6,7-2.4,10.5c0.4,0.3,0.8,0.6,1.2,0.9c-7.6,4.4-15.2,8.7-22.8,13.1
		c-10.5,6.2-20.9,12.5-31.5,18.5c-2.7,1.6-6,2.2-9,3.3"/>
	<path class="st0" d="M275.3,895.4c4.4,8.3,8.9,16.7,13.3,25"/>
	<path class="st0" d="M305.6,950.8c2.1,4.1,4.3,8.2,6.4,12.2"/>
	<path class="st0" d="M334.9,664.3c3.4,6.7,7,13.4,10,20.3c4.2,9.5,7.9,19.1,11.8,28.7"/>
	<path class="st0" d="M121,386c-3.2,10.3-10.3,20.1-3.9,30.7"/>
	<path class="st0" d="M383.4,343.2c8.8,0,14,6,19.1,11.7c2.4,2.6,4.6,5.5,6.4,8.5c3.9,6.8,3.4,12.2-3.1,18.1"/>
	<path class="st0" d="M383.4,831.5c3.4,6.2,6.6,12.5,10.2,18.6c3,5.1,6.5,9.9,9.4,15c0.8,1.3,0.8,4,0,5.2
		c-8.3,12.2-14.8,25.2-20.3,38.9c-1.3,3.2-4.1,5.7-6.3,8.6"/>
	<path class="st0" d="M477.1,923.1c13.2,14.3,21.4,32.1,32.5,47.9"/>
	<path class="st0" d="M971.3,802.2c9.6,1.6,19.2,3.2,28.7,4.8c4.8,0.8,9.6,1.6,14.4,2.7c1.4,0.3,2.5,1.7,3.8,2.6"/>
	<path class="st0" d="M354.6,518.4c-1.2-3.6-3.5-0.7-4.8-0.4c-8.6,2-17.1,4.5-25.6,6.7c-1,0.3-2.3-0.3-3.9-0.5
		c-2.7,1.8-5.8,3.8-8.8,5.9"/>
	<path class="st0" d="M266.2,686.1c-7,6.8-11.2,15.4-13.6,24.6c-2.1,7.7-4.7,14.7-9.8,20.7c-4.8,5.7-4.6,13-6.4,19.7
		c-1.5,5.4-4,10.6-3.2,16.5c0.1,1-1,2.1-1.5,3.2"/>
	<path class="st0" d="M936.7,754.3c-5,2.8-9.8,5.9-14.9,8.5c-8.8,4.4-17.7,8.6-26.6,12.8c-1.5,0.7-3.2,1.1-4.8,1.6"/>
	<path class="st0" d="M1316.3,410.3c2.7,1.2,5.7,2.1,7.9,3.8c4.2,3.2,8.2,6.7,11.7,10.6c6.3,7.1,7.4,16,7.5,25
		c0.1,6.7-0.2,13.5-0.5,20.2c-0.2,4.6-0.7,9.2-1,13.8"/>
	<path class="st0" d="M821.1,932.2c7.1-4.4,14.1-9,21.3-13.3c3.8-2.3,7.4-3.1,12.3-1.4c5.8,2,12.4,1.4,18.5,2.5
		c6.4,1.1,13.2-0.4,19.3,3.5c1.5,0.9,4.8,0,6.8-1c9.9-4.9,19.6-10.2,29.3-15.3c1-0.5,1.9-1.1,2.9-1.6"/>
	<path class="st0" d="M422.3,979.6c-11.2,13.9-26.4,23.7-38.9,36.1c-0.9,0.9-2.8,0.8-4.2,1.1"/>
	<path class="st0" d="M706.6,575.4c-4.8-0.5-9.6-1-14.4-1.6c-4.3-0.5-8.5-1.1-12.8-1.6"/>
	<path class="st0" d="M668.8,572.7c-5,1.6-10.6,2.2-14.8,5c-6.7,4.5-14.4,6-21.5,9.3c-8.9,4.2-18.1,7.9-27.1,11.8
		c-3.9,1.7-7.9,3.4-11.7,5.4c-2.3,1.2-4.3,3.1-6.4,4.7"/>
	<path class="st0" d="M955.3,928.4c-8.5-1.1-17-2.4-25.6-3.1c-6.5-0.5-13.1-0.1-19.7-0.1"/>
	<path class="st0" d="M875.4,630.8c-5.1-1.6-8.1,3.1-12.1,4.6c-12.2,4.5-23.8,10.5-35.8,15.6c-3.6,1.5-7.8,1.5-11.7,2.2"/>
	<path class="st0" d="M744.4,867.7c8.9-3.4,17.6-7.2,26.7-9.9c3.1-0.9,7.1,0.7,10.6,1.4c12.3,2.6,24.5,5.3,36.7,8
		c0.5,0.1,1.1,0.3,1.6,0.5"/>
	<path class="st0" d="M726.9,711.7c-12.2,2.7-24.5,5.3-36.7,8c-2.5,0.6-5,1.4-7.5,2.1"/>
	<path class="st0" d="M1203.5,266c-5.7,0.7-11.3,1.6-17,2.1c-6,0.5-12.1,0.8-18.1,1.1c-4.7,0.2-9.3-0.1-13.9,1.4
		c-2.7,0.9-6-0.2-9-0.3c-1.9-0.1-3.9,0-5.9,0"/>
	<path class="st0" d="M343.5,875.7c13.1,12,22.7,26.9,32.4,41.6c0.6,1,0.4,2.4,0.6,3.7"/>
	<path class="st0" d="M938.3,861.9c1.6-0.1,3.4,0.3,4.8-0.3c7.4-3.3,14.6-6.8,21.9-10.3"/>
	<path class="st0" d="M971.8,852.6c7.8,1.3,15.6,2.6,23.4,4c4.3,0.8,8.5,1.8,12.8,2.6"/>
	<path class="st0" d="M1021.9,861.3c12.2,2.1,24.5,4.3,36.8,6.3c1.3,0.2,2.8-0.6,4.2-1"/>
	<path class="st0" d="M377.5,733c2.5,5.4,4,11.6,7.7,16.1c4.8,5.8,8,11.8,8.6,19.3c1.4,0.7,2.6,1.3,3.9,2c-0.3,0.2-0.6,0.3-0.9,0.5
		c2.8,4.8,5.4,9.7,8.4,14.4c1.7,2.7,3.9,5,5.8,7.5"/>
	<path class="st0" d="M817.9,987c-0.2,3.2-0.4,6.4-0.5,9.6"/>
	<path class="st0" d="M813.9,1003.5c-0.3,4.6-0.6,9.2-1,14.6c-7.6-0.6-11.5-6-16-10.4c1-6.6,1.9-12.8,2.8-19"/>
	<path class="st0" d="M97.4,247.4c-3.2,11.5-6.4,23.1-9.6,34.6c-0.7,2.5-1.4,5-2.1,7.4"/>
	<path class="st0" d="M518.6,984.9c5.3,8,10.6,16,16,24"/>
	<path class="st0" d="M649.6,615.9c-0.5-0.4-1.1-1-1.6-1c-9-0.4-18-4.2-27.2-1.1"/>
	<path class="st0" d="M614,613.5c-1.6-0.8-3.2-1.6-4.8-2.4c0,0.2,0,0.5-0.1,0.7c-7.5-0.5-14.9-1.1-22.4-1.6c0-0.5,0-1.1,0-1.6
		c-6,1.7-12,3.4-18,5.1"/>
	<path class="st0" d="M955.3,800.1c-3.3-4.2-8.5-3-12.8-4.1c-6.3-1.6-12.7-2.5-19.1-3.2c-2.8-0.3-5.7,0.6-8.5,1"/>
	<path class="st0" d="M538.3,1013.6c0,2.1-0.7,4.6,0.1,6.3c4.9,10.2,10.1,20.3,15.4,30.4c0.6,1.1,1.7,1.8,2.6,2.7"/>
	<path class="st0" d="M716.7,673.9c-2.1,4.5-7,4.5-10.7,6.3c-9,4.3-18.4,7.9-27.6,11.8"/>
	<path class="st0" d="M774.8,648.3c-11.9,9.4-26.5,13-39.9,19.2c-1.7,0.8-3.2,1.8-4.8,2.6"/>
	<path class="st0" d="M345.8,616.9c1,1.8,1.8,3.7,3,5.3c3.1,4.5,6.4,8.9,9.6,13.3"/>
	<path class="st0" d="M898.3,923.6c-0.7,6.7-1.3,13.5-2.2,20.2c-0.8,6.2-1.7,12.4-2.6,18.6"/>
	<path class="st0" d="M957.4,242c1.6,0.4,3.3,0.4,4.8,1.1c11.9,6,23.8,12,35.7,18.1c0.6,0.3,1.1,1,1.7,1.6c-0.2,1.5-0.4,3.1-0.7,5.1
		c1.2,1,2.5,2.2,3.9,3.3"/>
	<path class="st0" d="M1013.9,284.1c5.3,2.8,10.7,5.7,16,8.5"/>
	<path class="st0" d="M992,393.3c-12.6,4.8-25.2,9.6-37.8,14.4"/>
	<path class="st0" d="M395.1,703.7c-6.6,0-13.1-0.2-19.7,0.1c-2.3,0.1-4.9,0.9-6.9,2.1c-13.3,8.3-24.5,18.6-31.1,33.4
		c-1.9,4.1-6.2,7.2-9.4,10.7"/>
	<path class="st0" d="M700.2,339.5c-2.7,13.8-5.3,27.7-8,41.5"/>
	<path class="st0" d="M710.9,577c3.2-0.2,6.4-0.8,9.6-0.5c17.2,1.6,34.4,3.4,51.7,5.3c1.5,0.2,2.9,1.3,4.3,2.1"/>
	<path class="st0" d="M803.5,605.7c-0.6-3.6-2.8-6.1-5.3-8.6c-4.3-4.3-8.3-8.7-11.7-13.8c-1.6-0.5-3.2-1.1-3.7-1.2
		c-13.3,5.6-25.9,10.8-38.3,16.2c-1.7,0.7-2.9,2.4-4.3,3.7"/>
	<path class="st0" d="M425.5,1108.4c-5.5,6.9-11,13.8-16.5,20.8"/>
	<path class="st0" d="M70.8,607.3c4.1,3,8.4,5.8,12.2,9.1c11,9.6,24.1,15.7,36.3,23.4c2.5,1.6,5,3.2,7.5,4.8"/>
	<path class="st0" d="M303.5,540.2c6.4,8.7,12.8,17.4,19.2,26.1c2.5,3.3,2.7,6.6,0.5,10.1"/>
	<path class="st0" d="M997.9,270.8c-3.6,2.5-2.7,6.1-1.5,9c3,6.7,6.7,13.2,10,19.8c1.1,2.2,1.8,4.6,2.7,6.9"/>
	<path class="st0" d="M824.8,628.6c-4.4,4-10.4,4.2-15.5,6.8c-7.8,4-15.9,7.5-23.9,11.3"/>
	<path class="st0" d="M798.8,806c-9.2,4.4-18.3,9.2-27.8,13.1c-2.9,1.2-3.3,2.7-3.6,5"/>
	<path class="st0" d="M1032.5,537c2.9-3.7-1-4.3-2.7-5.2c-7.5-4.1-15.2-7.9-22.9-11.8c-2.6-1.3-5.3-2.5-8-3.7"/>
	<path class="st0" d="M1117.2,886.4c-0.6,1.1-1,2.8-1.9,3.1c-10.5,4-19.4,10.9-29,16.6c-9.1,5.5-18.4,10.7-27.7,15.9
		c-1,0.5-2.4,0.1-3.7,0.1"/>
	<path class="st0" d="M565.5,1158.5c6.9,0.8,13.8,1.5,20.7,2.3c0-0.2,0-0.5,0.1-0.7c1.6,0.9,3.2,1.8,4.8,2.7"/>
	<path class="st0" d="M251.3,565.3c-1.2,0-2.5,0-3.7,0"/>
	<path class="st0" d="M226.3,567.1c-1.2,0.3-2.5,0.5-3.7,0.8"/>
	<path class="st0" d="M198.6,569.5c-4.1,3-8.8,2.1-13.3,2.2c-2.1,0-4.3,0.3-6.4,0.5"/>
	<path class="st0" d="M696.5,651c-10.1,3.9-20.2,7.8-30.3,11.7c-2,0.8-3.9,1.8-6.1,3.8c3.8,0.7,7.6,1.5,11.4,2
		c5.1,0.7,10.3,1.1,15.4,1.6"/>
	<path class="st0" d="M830.2,790.5c2.8-1.8,2.8-1.8,6.2-0.1c-8.6,1.9-16.2,4.5-22.7,9.7"/>
	<path class="st0" d="M813.1,800.6c-2.2,4.8,1.1,7.1,4.3,9.6c6.6,5.1,13.1,10.3,19.7,15.4c2.6,2,4.8,3.9,2.6,7.5"/>
	<path class="st0" d="M807.8,846.4c3.2,4.1,6.1,8.5,9.7,12.2c6.5,6.7,5.3,14,2,21.3c-3.7,8.1-8.1,16-12.2,24"/>
	<path class="st0" d="M442,1118c3.3,4.7,11,8.2,16.4,9.8c4.2,1.3,9.1,2.9,11.3,7.7"/>
	<path class="st0" d="M481.4,1140.4c5.7,3.9,11.4,7.7,17,11.7c3.3,2.4,6.7,3.2,10.7,2.6"/>
	<path class="st0" d="M357.3,715.4c3.4,7.1,6.5,14.3,10.2,21.3c5.8,11.1,12,22,18.1,33"/>
	<path class="st0" d="M1258.8,319.8c-6.9,3.4-13.8,7-20.8,10c-4.3,1.9-8.8,2.9-13.3,4.3"/>
	<path class="st0" d="M846.1,806.5c-11.2-1.1-22.4-2.1-33.5-3.2"/>
	<path class="st0" d="M152.9,368.7c0.4,11.3-0.5,19.8-4.4,30.5"/>
	<path class="st0" d="M1337.6,729.3c-1.4,0-3.2-0.5-4.2,0.1c-9.2,5.4-18.3,11-27.3,16.4c-0.2,4.3-0.4,8-0.5,11.7
		c-0.2-0.1-0.5-0.2-0.7-0.2c-2.4,5.4-4.8,10.8-7.2,16.2"/>
	<path class="st0" d="M695.4,598.8c7.6,0.9,15.3,1.7,22.9,2.7c2.5,0.3,4.9,0.9,8,1.6c0.2-0.1,1.1-0.9,2.1-1.6"/>
	<path class="st0" d="M536.2,999.3c2.1,3.7,6.4,6.5,4.8,11.7"/>
	<path class="st0" d="M547.4,1023.2c5,7.3,10.8,14.3,12.2,23.4"/>
	<path class="st0" d="M352,212.7c-2.5-2.3-5-4.5-7.4-6.9c-6.2-6.2-13.6-10.2-21.9-12.8c-0.9-0.3-1.8-0.4-2.7-0.5"/>
	<path class="st0" d="M1077.2,293.1c-6.4,1.1-12.8,2.1-19.2,3.2"/>
	<path class="st0" d="M829.9,1000.3c-0.3,5.3-0.5,10.7-0.8,16c-0.1,2.1-0.3,4.3-0.5,6.4"/>
	<path class="st0" d="M802.5,563.1c1.2,2.3,2,5.1,3.8,6.8c8.3,8,17.1,15.6,25.5,23.5c6,5.7,11.1,12.6,17.8,17.2
		c5.8,4,10.2,9,15.2,13.6c0.5,0.5,0.7,1.4,1.1,2.1"/>
	<path class="st0" d="M1214.1,801.2c-3.2,1.6-6.4,3.1-9.6,4.8c-4.5,2.4-9,4.8-13.3,7.5c-1.7,1-2.9,2.8-4.3,4.2"/>
	<path class="st0" d="M486.7,1008.3c2.4,3.6,4.8,7.2,7.4,11.2c-1.7,4.8-3.6,10.1-5.7,15.8c10,8.3,19.8,16.5,29.8,24.6
		c0.5,0.4,1.7,0.1,2.6,0.1"/>
	<path class="st0" d="M1397.8,724.5c-7.1,4.4-13.9,9.5-21.4,13.1c-8.4,4-15.7,9.7-23.8,14.1c-7.1,3.8-13.8,8.2-20.8,12.1
		c-1.3,0.7-3.2,0.4-4.7,0.6"/>
	<path class="st0" d="M79.1,268.7c-1.7,5.9-3.4,11.7-5.1,17.6"/>
	<path class="st0" d="M839.2,835.8c-3,6.9-5.7,14-9.2,20.7c-3.9,7.5-4.7,14,1.6,20.9c5,5.6,9,12.1,13.4,18.3"/>
	<path class="st0" d="M66,729.3c2.1,9.4,4.3,18.8,6.4,28.2c0.3,1.3,0.7,2.5,1.1,3.7"/>
	<path class="st0" d="M996.3,788.6c-9.6,2.9-19.2,5.9-28.8,8.8"/>
	<path class="st0" d="M967,797.4c-3.4,1.3-4,4.1-5,7.4c-2.4,7.5-5.8,14.7-8.9,21.9c-1.5,3.5-2.9,7-0.5,10.7"/>
	<path class="st0" d="M717.3,618c3.4,0.5,6.7,1.2,10.1,1.6c5.3,0.5,10.6,0.9,16,1c1.8,0.1,3.5-0.6,5.3-1"/>
	<path class="st0" d="M681.1,722.4c2.5,8.9,4.9,17.8,7.5,26.6c0.5,1.7,1.7,3.2,2.6,4.8"/>
	<path class="st0" d="M836.6,835.2c-7.6,2.7-15.2,5.4-22.9,8c-10.6,3.6-21.3,7.1-31.9,10.7c-1.8,0.6-3.2,2.1-4.8,3.1"/>
	<path class="st0" d="M60.2,728.2c0.5,3.5,0.9,7.1,1.6,10.6c1.3,6.8,2.8,13.5,4.2,20.2"/>
	<path class="st0" d="M1067.7,872c-0.2-0.9,0-2.1-0.6-2.6c-14.7-12.9-29.4-25.6-44.2-38.4c-1.8-1.6-3.9-2.8-6.3-4.4
		c-7.6,3.5-15.6,7.1-23.5,10.9c-1.1,0.5-1.8,2.1-2.7,3.1"/>
	<path class="st0" d="M173.3,465.7c-0.1,2.3-0.2,4.6-0.3,6.9"/>
	<path class="st0" d="M57,653.7c-2,4.1,1.7,6.8,2.6,10.1c1.8,6.2,3.5,12.4,5.4,18.6c0.2,0.8,1,1.4,1.6,2.1"/>
	<path class="st0" d="M51.1,241.5c-0.4,2-0.1,4.4-1.2,5.8c-3.8,5-4.7,11-6.8,16.6"/>
	<path class="st0" d="M785.4,648.3c4.4,0.7,8.9,1.6,13.3,2.1c5.5,0.7,11.1,1.1,16.7,2.2c-6.5,7.5-16.6,7.4-23.5,12.7
		c-4.1-4.8-7.7-9-11.3-13.3"/>
	<path class="st0" d="M774.3,646.2c-4.6-5.1-9.6-10-13.7-15.5c-5.4-7.2-12.9-12.3-18.7-19.1c-1.9-2.2-3.2-4.9-4.8-7.4"/>
	<path class="st0" d="M400.7,1167.5c-3.9-3.2-5.3,1.1-7.1,2.8c-3.8,3.6-6.8,8.2-10.8,11.5c-3.6,2.9-8.1,4.8-12.1,7.1"/>
	<path class="st0" d="M824.8,981.7c3.4,1.1,6.7,2.6,10.1,3.1c6.2,0.9,12.4,1.1,18.6,1.7c0.6,0.1,1.1,0.7,1.6,1"/>
	<path class="st0" d="M899.9,916.7c1.8-10,3.7-20.1,5.5-30.1c-0.4-0.1-0.8-0.2-1.3-0.3c0.5-0.3,1.1-0.7,1.7-0.9
		c0.8-0.3,1.8-0.5,2.6-0.7c17.7,14.8,35.2,29.6,52.8,44.3"/>
	<path class="st0" d="M234.3,506.7c-2.5,1.6-4.9,3.3-7.5,4.8c-1.7,0.9-3.5,1.5-5.3,2.2"/>
	<path class="st0" d="M279,878.4c3.2,9.9,6.4,19.9,9.6,29.8"/>
	<path class="st0" d="M701.3,583.4c-2.7,0.7-5.4,1.2-8,2.2c-6.1,2.4-12.1,4.9-18.1,7.5c-1,0.4-1.8,1.6-2.7,2.4"/>
	<path class="st0" d="M77.7,373.6c-1.1,7.6-2.3,15.3-3.1,22.9c-0.2,2.2,0.9,4.6,1.5,6.9"/>
	<path class="st0" d="M753.5,625.4c-3.7,4.2-9.1,4.9-13.9,6.9c-6,2.6-12.1,4.9-18.1,7.5c-1.2,0.5-2.2,1.7-3.2,2.6"/>
	<path class="st0" d="M903.7,886.9c-6.6,3.2-13.2,6.3-19.7,9.6c-8.6,4.5-17.1,9.1-25.5,13.9c-2.5,1.4-4.7,3.5-7,5.3"/>
	<path class="st0" d="M519.2,1055.7c0.5,1.2,0.9,2.6,1.6,3.7c2.4,3.7,4.8,7,9.5,8.8c4.7,1.8,8.6,5.4,12.9,8.3
		c2.1,1.4,4.1,3.1,6.4,4.2c9.1,4.5,17.5,10.1,24.4,17.7c1.2,1.3,1.8,3.1,2.7,4.7"/>
	<path class="st0" d="M80.4,861.3c2.5,3.7,4.6,7.8,7.5,11.1c5.3,5.7,11.1,11,18.5,13.9"/>
	<path class="st0" d="M1019.5,829.9c-1.7,9.8-3.4,19.5-5.1,29.3"/>
	<path class="st0" d="M1034.6,239.9c-2.3,0.4-4.7,0.4-6.9,1.1c-4,1.4-7.7,3.5-11.8,4.6c-8.7,2.3-14.1,7.8-17,16.1"/>
	<path class="st0" d="M793.4,623.3c8.3,0.7,16.7,1.5,25,2.1c1.4,0.1,2.8-0.7,4.3-1"/>
	<path class="st0" d="M259.3,795.3c-5.9-1-10.5-5.2-13.5-9.3c-3.9-5.4-9-7.9-14.2-10.9"/>
	<path class="st0" d="M747.6,867.2c6.4,9.8,12.8,19.5,19.2,29.3"/>
	<path class="st0" d="M1382.1,708.5c-6.1,9.4-8.1,20.2-10.4,30.9"/>
	<path class="st0" d="M772.1,779.3c2,0.2,4.4-0.3,5.8,0.6c7.8,5.6,15.4,11.5,22.9,17.5c1.2,1,1.8,2.8,2.7,4.2"/>
	<path class="st0" d="M645.9,726.6c2.7,2.1,5.4,1.7,8.6,0.7c6.1-1.9,12.4-3,18.6-4.4"/>
	<path class="st0" d="M1106.5,280.4c-9.6-1.8-19.2-3.5-28.8-5.3"/>
	<path class="st0" d="M94.2,970.5c0.5,3.2,0.6,6.6,1.7,9.6c2.5,6.5,5.6,12.8,8.4,19.2"/>
	<path class="st0" d="M69.9,380.3c-0.6,7.3-0.7,14.6-3.4,21.5"/>
	<path class="st0" d="M821.1,869.3c-8.5,3.6-17,7.1-25.6,10.6c-0.9,0.4-2.1,0-3.2,0"/>
	<path class="st0" d="M976.6,766.5c-3.7,9.6-7.5,19.2-11.2,28.8"/>
	<path class="st0" d="M215.1,354.4c2,6.9,9.9,10.9,3.2,18.6"/>
	<path class="st0" d="M1446.3,663.8c-5.7,3-11.4,5.9-17,9.1c-9.1,5.2-18.2,10.5-27.2,16c-10.7,6.5-21.3,13.1-31.9,19.7
		c-0.6,0.4-1.1,1-1.6,1.6"/>
	<path class="st0" d="M783.3,647.3c-2.1-4.4,1.5-7.6,2.9-11.1c3.5-9.3,8-18.2,12.1-27.2c0.3-0.6,1.4-0.7,2.1-1.1"/>
	<path class="st0" d="M808.3,607.9c6.7,4.5,10.7,11.6,16.5,17"/>
	<path class="st0" d="M825.4,625.4c1.1,0.7,2.7,2.3,3.1,2c6.2-3.8,12.2,0,18.2,0.1c6.7,0.1,13.5,0,21.6,0c0.3,0.4,1.3,1.8,2.3,3.2"
		/>
	<path class="st0" d="M51.6,222.9c-2,0.7-3.9,1.4-5.9,2.1"/>
	<path class="st0" d="M37.3,252.7c-1.6,6-3.1,12.1-4.8,18.1c-0.5,1.7-1.4,3.2-2.1,4.8"/>
	<path class="st0" d="M127.8,518.4c-0.6,4.5,0.8,7.9,5.6,9.7c1,5.7,1.1,11.9,3.2,17.4c1.3,3.4,2.6,8.2,7.7,9.3
		c1.2,0.3,2.2,2,3.2,3.1c5.5,6.1,10.5,12.7,19.7,13.3"/>
	<path class="st0" d="M656.6,594.6c-6-0.2-12.1-0.2-18.1-0.6c-3.4-0.2-6.7-1-10.1-1.5"/>
	<path class="st0" d="M998.7,266.5c-6.8-1.9-13.7-3.8-20.5-5.9c-2.7-0.8-5.3-2.1-8-3.2"/>
	<path class="st0" d="M1411.7,690.9c-1.9,4.3-4.2,8.4-5.8,12.8c-1.8,5-2.2,10.5-6.4,14.5c-0.7,0.7-0.1,2.7-0.1,4.2"/>
	<path class="st0" d="M678.4,626.5c-8,2.8-16,5.6-23.9,8.7c-1.1,0.4-1.5,2.7-2.2,4.1"/>
	<path class="st0" d="M603.9,635.6c3.2,1.6,7.5-2.2,10.1,2.1"/>
	<path class="st0" d="M614,638.2c2.1-0.4,4.3-1,6.4-1c2.3,0,4.6,0.6,6.9,1"/>
	<path class="st0" d="M654.4,640.6c2.3,0.3,4.6,0.5,6.9,0.8"/>
	<path class="st0" d="M674.7,641.7c6.6,0.6,13.1,1.2,19.7,1.9"/>
	<path class="st0" d="M709.8,644.3c9.6,0.6,19.2,1.3,28.8,1.9c9.2,0.6,18.5,1,27.7,1.7c1.8,0.1,3.6,1.3,5.3,2.1"/>
	<path class="st0" d="M1397.8,698.4c-2,3.4-4.2,6.6-5.8,10.1c-3,6.7-4.6,14-9.6,19.7"/>
	<path class="st0" d="M718.3,301.1c-0.2,6-0.5,12.1-0.5,18.1c0,3,0.4,6,0.6,8.3c-5,2.9-9.2,5.3-13.4,7.7"/>
	<path class="st0" d="M309.4,721.8c1.6,3.5,2.8,7.4,4.9,10.6c3.8,5.9,8.1,11.4,12.2,17.1"/>
	<path class="st0" d="M1012.8,868.3c-1.2,4.6-2.6,9.2-3.7,13.8c-1.1,4.6-1.8,9.2-2.7,13.8"/>
	<path class="st0" d="M962.2,800.1c-3.5,0.7-7.2,1.2-10.6,2.2c-8,2.2-16,4.6-24,6.9"/>
	<path class="st0" d="M338.7,331c-1.1,0-2.1,0-3.2,0"/>
	<path class="st0" d="M858.4,856c-7.3,2.8-14.6,5.6-21.8,8.5c-1.8,0.7-3.6,1.8-5.3,2.6"/>
	<path class="st0" d="M420.7,840c-2.8,5.1-5.5,10.4-8.6,15.4c-2.2,3.7-4.9,7.1-7.4,10.7"/>
	<path class="st0" d="M799.8,803.8c-4.1-0.9-8.1-2-12.3-2.6c-6.9-0.9-13.8-1.5-20.8-2.2"/>
	<path class="st0" d="M707.7,645.7c3.2,4.3,6.3,8.6,9.6,12.8c3.5,4.3,7.2,8.4,11.1,12.8c-2.7,6.1-5.4,12.1-7.8,18.1
		c-0.4,1,0.3,2.5,0.5,3.7"/>
	<path class="st0" d="M689.6,669.1c5.5,0.9,11,2.1,16.5,2.6c6.7,0.6,13.5,0.4,20.2,0.6"/>
	<path class="st0" d="M1305.2,747.4c-4.7,0.9-8.6,3.2-12.1,6.8c1.2,9.4,2.4,18.6,3.6,27.8"/>
	<path class="st0" d="M90.5,291.6c0.5,2.8,1.1,5.7,1.6,8.5"/>
	<path class="st0" d="M872.8,997.1c-3.3,5.9-2.7,12.3-2.6,18.6c0,2.7,0.7,5.3,1,8"/>
	<path class="st0" d="M685.9,723.4c6.9,2.5,13.8,5,20.8,7.5c2,0.7,3.9,1.4,5.9,2.1"/>
	<path class="st0" d="M366.9,488c-1.1,1.3-2.1,2.7-3.1,3.9c3.6,8.7,2.4,14.4-3.8,20.1c-1.8,1.7-3.6,3.5-5.3,5.3"/>
	<path class="st0" d="M891.9,924.7c-6.4,3.5-12.8,7-19.1,10.7c-2.2,1.3-3.9,3.1-5.9,4.7"/>
	<path class="st0" d="M682.7,513.1c6.9,5.9,13.8,11.7,20.8,17.6c1.5,1.3,3.2,2.5,4.8,3.7"/>
	<path class="st0" d="M261.2,726.6c-0.3,4.6-0.4,9.2-0.9,13.8c-0.2,1.8-1.3,3.6-2,5.3"/>
	<path class="st0" d="M164.3,458.2c0.1,2.7,0.2,5.3,0.3,8"/>
	<path class="st0" d="M608.6,1136.1c-3,6.7-0.8,13.4,0.8,19.6c1.5,6,0.2,11.2-1.3,16.6c-0.6,2.2-1.5,4.2-2.3,6.4
		c1.2,1.3,2.3,2.5,3.4,3.7"/>
	<path class="st0" d="M32.5,250c-4.1,5.4-3.3,12-4.8,18.1c-0.6,2.4-0.7,5-1.1,7.4"/>
	<path class="st0" d="M242.8,353.3c-1.8-2-3.6-3.9-5.3-5.9"/>
	<path class="st0" d="M295.5,224.5c4.8-1,8.2,1.6,11.7,4.2c4.3,3.1,8.2,6.9,13.8,7.5"/>
	<path class="st0" d="M894.6,983.8c-11.2,1.7-22,5.6-33.6,4.8c-2.3-0.1-4.6,0.3-6.9,0.5"/>
	<path class="st0" d="M521.8,1173.4c-3.7-3.9-5.2-8.7-5.9-13.8"/>
	<path class="st0" d="M514.4,1149.4c-7.1-2.1-14.2-4.3-21.3-6.4"/>
	<path class="st0" d="M179.2,507.2c-0.3-0.9-0.5-1.8-0.8-2.7"/>
	<path class="st0" d="M1247.1,782c-0.2,5.1-0.4,10.3-0.5,15.4"/>
	<path class="st0" d="M1243.1,802.2c-0.7,4-1.4,8.1-2.4,13.8c-6.4,3.9-14.3,8.8-22.4,13.3c-3,1.7-6.4,2.6-9.5,3.8"/>
	<path class="st0" d="M129.4,397c-3.1,2.7-2.3,6.7-3.2,10.1c-1.4,5.2,0.3,11.2-4.3,15.4"/>
	<path class="st0" d="M838.2,998.7c-0.7,3.2-1.6,6.4-2.1,9.6c-0.7,5.2-1.1,10.5-1.6,15.7"/>
	<path class="st0" d="M197,365c0.3,6.6-0.6,12.9-2.7,19.2"/>
	<path class="st0" d="M104.9,853.3c3.7,8.3,7.5,16.7,11.2,25"/>
	<path class="st0" d="M1113.5,860.8c0.4,2.7,0.6,5.3,1.1,8c0.6,3.1,1.4,6.2,2.1,9.2c0.4-0.1,0.7-0.1,1.1-0.2c-0.2,2.5-0.4,5-0.7,7.5
		c4.5,1.8,6-1.5,9-4.5c-1.1-2.5-2.4-5.3-3.5-7.8c0-5.7,0-11.4,0-17.1"/>
	<path class="st0" d="M217.2,396.5c-1.1,4.6-2.1,9.2-3.2,13.8"/>
	<path class="st0" d="M1318.5,750.6c-4.9,2-3.7,7.1-5.2,10.7c-1.7,4.2-2.3,8.8-3.3,13.3"/>
	<path class="st0" d="M221,232.4c-2.6-5-2.2-6.2,3.2-9"/>
	<path class="st0" d="M224.7,223.4c3.2,1.5,6.5,3,10.2,4.7c5.1-2.4,9.3,1.3,13.7,3.8"/>
	<path class="st0" d="M184.8,432.7c0.5,2.3,1.5,4.6,1.5,6.9c0.1,5-0.3,9.9-0.4,14.9"/>
	<path class="st0" d="M184.2,463c-0.2,2.1-0.4,4.3-0.5,6.4"/>
	<path class="st0" d="M614.5,618c-8.2,3.4-16.3,6.7-24.5,10.1"/>
	<path class="st0" d="M887.7,993.4c-3.6,8-3.5,16.2-1.4,25.5c2.6-1.3,4.9-2.5,7.2-3.7"/>
	<path class="st0" d="M890.3,750c-8.2,4.4-16.3,8.9-24.5,13.3"/>
	<path class="st0" d="M1145.9,860.3c0.4-4.1,0.7-8.1,1.1-12c-1.9-1.6-3.5-2.9-5.7-4.7c-2.9,1.8-6.4,3.9-9.8,6"/>
	<path class="st0" d="M1131,860.8c-1.1,4.1-2.1,8.2-3.2,12.2c-0.3,1-1,1.8-1.6,2.7"/>
	<path class="st0" d="M727.9,548.2c5,1.6,9.9,3.4,14.9,4.7c4.5,1.2,9.2,1.8,13.8,2.7"/>
	<path class="st0" d="M761.5,559.4c4.3,4.6,8.6,9.2,12.8,13.9c2.4,2.6,4.6,5.3,6.9,8"/>
	<path class="st0" d="M1163.8,826.7c1,3.7,1.9,7.5,2.9,11.2"/>
	<path class="st0" d="M1229,248.4c-5.7,3.2-11.3,6.4-17.1,9.6c-2.1,1.2-4.2,2.1-6.4,3.2"/>
	<path class="st0" d="M243.9,371.4c-0.4,2.7-0.7,5.3-1.1,8"/>
	<path class="st0" d="M1509.1,628.1c-3.5-1.1-5.9,0.4-8.6,2.6c-3,2.4-6.8,3.9-10,6c-5.6,3.6-11,7.4-16.5,11.2"/>
	<path class="st0" d="M659.8,598.3c-5.6,5.7-13.8,5.8-20.2,9.6c-1.9,1.1-3.6,2.8-5.4,4.2"/>
	<path class="st0" d="M797.7,608.9c-1.8,0-3.9-0.6-5.3,0.1c-7.7,3.9-15.1,8.5-23,12c-4,1.8-8.8,1.9-13.2,2.8"/>
	<path class="st0" d="M1425.5,681.4c-5.3,3.6-5.1,9.7-6.9,14.9c-0.9,2.6-0.3,6.2-4.3,6.9"/>
	<path class="st0" d="M924.2,733c-5.8,3-11.6,5.9-17.3,9.1c-2.1,1.2-3.6,3.5-5.4,5.2"/>
	<path class="st0" d="M761.5,557.3c3.6-1.1,6.7-1.9,10.8-0.3c5.2,2,11.2,2.2,16.9,2.8c1,0.1,2.1-1,3.2-1.5"/>
	<path class="st0" d="M651.8,610c0.2,1.2,0.4,2.5,0.8,4.8c8,0.5,16.4,0.9,23.8,1.4c5.6,0.6,10.3,1.1,14.9,1.6c0,0.3,0,0.6,0,0.9
		c3.2-0.5,6.4-1,8.8-1.4c5.4,0.7,10,1.3,14.7,1.8"/>
	<path class="st0" d="M280.1,232.4c-0.6,4.5,1.1,7.6,4.6,10.9c2.5,2.4,7.9,4.4,5.5,9.9"/>
	<path class="st0" d="M1008,861.9c-7.6,3.6-15.3,7.1-22.9,10.7"/>
	<path class="st0" d="M616.1,651c6.5-2.6,12.9-5.2,19.4-7.8c0.3,0.4,0.5,0.7,0.8,1.1c-3.1,6.3-6.3,12.5-10,19.8
		c8.7,1.2,16.5,2.3,24.4,3.4"/>
	<path class="st0" d="M261.4,756.2c-1.4,1.7-1.5,1.7-2.1,7.7c-0.6,5.7-1.9,11.4-1.4,17c0.8,8.6,3,17.1,4.6,25.6
		c0.3,1.6,0.7,3.2,1.1,4.8"/>
	<path class="st0" d="M1337.1,733c-4,2.9-3.8,7.6-4.8,11.7c-0.9,3.7-0.3,8.1-4.8,10.1"/>
	<path class="st0" d="M120.1,309.1c0.7,1.5,1.5,2.9,2.5,4.9c2.4-0.2,4.9-0.4,7.4-0.7"/>
	<path class="st0" d="M669.9,642.5c-2.3,5.1-4.7,10.3-6.9,15.5c-0.9,2.2-1.5,4.6-2.2,6.9"/>
	<path class="st0" d="M738,944.9c2.3,2.3,4.6,4.6,6.9,6.9"/>
	<path class="st0" d="M616.6,615.3c0.7,1.9,1,4.2,2.2,5.8c2.6,3.6,5.8,6.7,8.4,10.2c1.3,1.8,1.9,4.2,2.7,6.3"/>
	<path class="st0" d="M652.3,614.3c-1.6,2.5-3.5,4.8-4.7,7.5c-2.7,5.6-5,11.3-7.5,17"/>
	<path class="st0" d="M830.2,594c-7.5,3.6-14.9,7.1-22.4,10.6"/>
	<path class="st0" d="M1002.7,856.5c-0.2-1.2,0.1-2.9-0.6-3.7c-3.5-4.1-7.3-8-10.8-11.7c-8-1.1-13.6,4-20,6.5
		c-0.8,0.3-1.1,2-1.6,3.1"/>
	<path class="st0" d="M636.9,644.6c6.6,6.5,13.4,13,17,21.8"/>
	<path class="st0" d="M265.2,697.3c-3.5,5-5.6,10.4-4.7,16.5c0.3,2,1.4,3.9,2.1,5.9"/>
	<path class="st0" d="M1104.9,866.7c0.2,0.9,0.8,2.3,0.5,2.6c-4.3,3.4-3,8.5-4.2,12.9c-0.9,3.4-2.4,6.7-3.1,10.1
		c-0.3,1.6,0.6,3.5,1,5.3"/>
	<path class="st0" d="M71.6,618c1.7,5,3.3,9.9,5.1,14.9c0.8,2.3,1.8,4.6,2.6,6.9"/>
	<path class="st0" d="M682.7,618.5c-0.6,2.7,1.8,3,3.1,4.3c4.7,4.9,9.1,10.1,13.3,15.4c1,1.2,1.1,3.1,1.7,4.7"/>
	<path class="st0" d="M83.6,264.4c4.1,4.7,0.6,9.7,0.2,14.3c-0.3,2.8-0.7,5.1,0.9,7.5"/>
	<path class="st0" d="M756.1,677.6c-3.7-0.9-7.4-2.1-11.2-2.6c-3.7-0.4-7.5,0.2-11.2-0.2c-1.5-0.1-2.9-1.7-4.3-2.5"/>
	<path class="st0" d="M702.4,645.1c-9.6,13.6-16,28.9-24.5,43.1c-0.5,0.8-0.7,1.8-1,2.6c3.2,5.1,6.3,10.3,9.5,15.5"/>
	<path class="st0" d="M671.5,572.7c-1.6,4.4-3,9-4.9,13.3c-1.3,3-3.1,5.7-4.7,8.6"/>
	<path class="st0" d="M1462.3,655.3c0.5-0.9,0.8-2.1,1.6-2.6c3.4-2,6.2-5.9,11.2-3.8c4.9,2,2.7,6.2,3.2,9.6
		c0.4,3.4,0.7,6.7,1.1,10.1"/>
	<path class="st0" d="M724.7,604.7c-4,2.5-5.2,6.5-7.1,10.6c-4.2,9-9.4,17.5-14.2,26.2"/>
	<path class="st0" d="M203.9,202.6c-0.5-6.6-5.8-8.1-10.6-10.1"/>
	<path class="st0" d="M171.5,178.7c0.2-1.1,0.4-2.1,0.5-3.2c-0.7-1.1-1.4-2.1-2.1-3.2"/>
	<path class="st0" d="M946.8,776.7c6.4,6.9,12.8,13.8,19.2,20.8"/>
	<path class="st0" d="M806.7,572.2c-4.8,2.3-9.6,4.6-14.4,6.9c-1.8,0.9-3.5,2-6.2,3.5c8.5,0.9,15.6,1.6,22.7,2.3"/>
	<path class="st0" d="M193.8,495c-0.7,3.9,1.2,6.9,3.7,9.6"/>
	<path class="st0" d="M439.8,600.4c6,6.2,12.1,12.4,18.1,18.6"/>
	<path class="st0" d="M658.7,669.1c5.7,7.1,11.4,14.2,17,21.3"/>
	<path class="st0" d="M749.8,555.1c-2.1,3.8-2.3,9.1-7,11.1c-3.5,1.5-7.5,1.9-11.1,3.4c-3.4,1.4-7.9,1.5-9.1,6.3"/>
	<path class="st0" d="M614.5,1135c2.5,5,4.4,10.2,4.3,16"/>
	<path class="st0" d="M63.9,254.8c-1.6,3-3.2,6-4.8,9"/>
	<path class="st0" d="M746,524.3c-0.6-1.1-1.3-2.2-2-3.4c-6,2.8-11.9,5.5-17.7,8.2"/>
	<path class="st0" d="M656.6,670.2c-3.7,6.9-7.5,13.8-11.2,20.8"/>
	<path class="st0" d="M770.5,621.7c5.3,0.5,10.7,1,16,1.6c1.6,0.2,3.2,0.7,4.8,1"/>
	<path class="st0" d="M1040,847.5c-4.8,2.5-9.6,4.9-14.4,7.5c-2.1,1.2-3.9,2.8-5.9,4.2"/>
	<path class="st0" d="M740.2,647.3c-2.1,4.8-4.4,9.5-6.3,14.4c-0.8,2-1.1,4.2-1.6,6.4"/>
	<path class="st0" d="M879.7,991.3c0,3.7-1.3,7.2-1.8,10.7c-0.8,6,0.7,12.4,1.2,18.6"/>
	<path class="st0" d="M1461.7,684.5c1.3-5.3,2.7-10.7,4-16.2c-1-4.3-2.1-8.8-3.4-14.7c-5.6,3.3-10.1,5.8-14.4,8.6
		c-0.6,0.4-0.2,2.1-0.6,3.1c-2.4,6.4-2.1,13.7-6.9,19.2"/>
	<path class="st0" d="M79.3,221.8c-1.1-1.6-2.1-3.2-3.2-4.8"/>
	<path class="st0" d="M1056.5,277.7c3.5-3.6,8.1-4.1,12.8-4.3"/>
	<path class="st0" d="M648.6,582.3c3.4,3.9,6.7,7.8,10.1,11.7"/>
	<path class="st0" d="M665.1,597.2c5.3-3.7,10.6,0.4,16,0.1c4.4-0.2,8.9,0.9,13.3,1.4"/>
	<path class="st0" d="M195.4,239.9c2.8,0,5.7-0.3,8.5,0.1c2.4,0.3,4.6,1.3,6.9,2"/>
	<path class="st0" d="M173.6,164.3c-5.6-4.2-11.8-2.2-16.9-0.2c-4.8,1.9-9.8,2.3-14.5,3.9"/>
	<path class="st0" d="M1497.4,634.5c-1.4,6.1-2.9,12.2-4.4,19c-2.2-1.5-3.4-2.3-5.3-3.5c-1.4,3.6-3.2,7-4,10.6
		c-0.8,3.3-1.9,6-4.3,8.6c-1.9,2.1-2.7,5.1-0.6,7.9"/>
	<path class="st0" d="M231.1,357.6c-0.5,3.5-1.1,7.1-1.6,10.6"/>
	<path class="st0" d="M652.3,667.2c-5.9,2.9-11.7,5.8-17.6,8.8c-0.9,0.4-1.4,1.4-2.2,2.1"/>
	<path class="st0" d="M822.2,631.8c-2.5,6.7-5,13.5-7.5,20.2"/>
	<path class="st0" d="M903.1,921.5c1.7,1.1,3.3,2.2,5,3.2c-0.2,0.1-0.3,0.3-0.5,0.4c6.7,5.9,13.4,11.8,20,17.7"/>
	<path class="st0" d="M333.9,615.3c3.9,5.9,7.8,11.7,11.7,17.6c0.4,0.6,0.1,1.7,0.1,2.6"/>
	<path class="st0" d="M123.5,467.3c-1.4-1.8-3.1-3.4-4.2-5.4c-1.5-2.6-3.6-3.5-6.4-3.2"/>
	<path class="st0" d="M1140.6,845.4c-0.7,4.8-1.2,9.6-2.2,14.4c-0.3,1.4-2,2.5-3.1,3.8"/>
	<path class="st0" d="M182.1,182.4c-2.1,0.4-4.3,0.7-6.4,1.1"/>
	<path class="st0" d="M287,232.4c0.2,7.2,6.2,10.3,10.1,14.9"/>
	<path class="st0" d="M297.7,247.9c0.9,0.9,1.8,2.5,2.7,2.5c4.6,0,7.7,2.7,11.2,4.9c1,0.6,2.4,0.4,3.7,0.6"/>
	<path class="st0" d="M1025.1,315c-5.3-2.5-10.6-5.1-16.3-7.8c-4,3.7-3.1,5.9,3.9,9.7c3.1,2.6,6.1,5.1,9.2,7.7"/>
	<path class="st0" d="M1023.7,330.4c-2,3.5,0.6,6.4,1.3,9.6c0.5,1.9,0.7,3.9,1.1,5.9"/>
	<path class="st0" d="M114.2,431.6c-0.3,1.2-0.5,2.5-0.8,3.7"/>
	<path class="st0" d="M271,174.4c-3.7-0.2-7.5-0.4-11.2-0.5"/>
	<path class="st0" d="M270,348.5c-2.8,6.2-3.5,12.6-1.6,19.2"/>
	<path class="st0" d="M554.9,1068c-5.7-3.5-11.4-7.1-17-10.7"/>
	<path class="st0" d="M902.1,1011.5c-0.6-4.6-1.1-9.2-1.7-14.2c-1-0.4-2.3-0.9-3.5-1.4c-1.4,1.8-2.6,3.3-3.9,4.9"/>
	<path class="st0" d="M893.3,1012c0.5,1.7,0.5,4.3,3.4,2.6c5.4-3,11.9-4.3,15.5-10.1"/>
	<path class="st0" d="M278.5,369.3c0,4.6,0,9.2,0,13.8"/>
	<path class="st0" d="M1158.7,834.2c0,2.7,0.8,5.7-0.2,7.9c-1.5,3.5,0.9,8.3-3.5,10.7"/>
	<path class="st0" d="M127.8,305.4c0.2,1.4,0.4,2.8,0.5,4.3"/>
	<path class="st0" d="M779,653.1c-3.4,6.1-7.7,11.8-8,19.2"/>
	<path class="st0" d="M881.3,899.7c5.7,5.5,11.4,11,17,16.5c1.2,1.1,2.1,2.5,3.2,3.7"/>
	<path class="st0" d="M162.9,279.8c-0.7,4.3-1.4,8.5-2.1,12.8"/>
	<path class="st0" d="M1551.7,600.4c-6.3,3.8-12.6,7.6-18.4,11.1c0,3.5,0,5.8,0,8.7c3,3.4,3,8.1,2.4,12.8c-0.3,2-0.7,3.9-1.1,5.9"/>
	<path class="st0" d="M709.8,701.1c3.9,1.6,7.8,3.1,11.7,4.8c2.5,1.1,4.8,2.4,6.4,3.2c-0.2,3.7-0.3,6.4-0.5,9.1"/>
	<path class="st0" d="M1461.7,657.4c-1.6,4.4-3.1,8.9-4.8,13.3c-0.6,1.5-1.7,2.9-2.6,4.3"/>
	<path class="st0" d="M454.2,894.4c-0.2,1.2,0,2.7-0.6,3.7c-3.1,4.9-6.3,9.6-9.5,14.4"/>
	<path class="st0" d="M215.1,212.7c-0.4,4.4-0.6,8.9-1.1,13.3c-0.2,1.8-1,3.6-1.5,5.3"/>
	<path class="st0" d="M1397.3,693.6c2.3,5.7,2.6,11.5,1.7,17.6c-0.3,2.1,0.3,4.3,0.5,6.4"/>
	<path class="st0" d="M221,193.3c5.9,0,11.7,0,18.9,0c0.3,0.5,1.1,1.7,1.9,2.9"/>
	<path class="st0" d="M561.2,1089.2c1.8,3.5,3.5,7.1,5.3,10.6c1.3,2.5,2.8,5,4.2,7.5"/>
	<path class="st0" d="M1011.7,861.3c0.5,1.9,1,3.9,1.3,5.4c5.7,6,11.3,11.7,16.8,17.5"/>
	<path class="st0" d="M714.1,890.1c1.2,2.1,2.4,4.3,3.8,6.4c1.7,2.4,3.6,4.7,5.7,6.9c2,2.7,4,5.4,6,8.1"/>
	<path class="st0" d="M258.8,373.6c0.2,3.2,0.4,6.4,0.5,9.6"/>
	<path class="st0" d="M676.3,692.5c-7.5,3.4-14.9,6.7-22.4,10.1"/>
	<path class="st0" d="M247.6,353.3c-0.5,6-1.1,12.1-1.6,18.1"/>
	<path class="st0" d="M1050.6,914.6c-1.6,4-2.9,8.1-4.9,11.9c-1,2-2.8,3.8-4.7,5c-6.4,4.1-13.1,7.9-19.7,11.8
		c-8.5,5-17,10-25.6,14.9c-1,0.6-2.5,0.4-3.7,0.6"/>
	<path class="st0" d="M853.1,615.9c-4.4,2.3-8.9,4.6-13.3,6.9c-1.2,0.6-2.1,1.6-3.2,2.4"/>
	<path class="st0" d="M218.8,182.9c-5.9-1.4-11.7-2.3-17.6,0"/>
	<path class="st0" d="M1292.4,754.8c-5,2.5-10,4.9-14.9,7.5c-4.5,2.3-2.9,6.4-2,9.5c1.8,6,2.6,12,1.4,18.2"/>
	<path class="st0" d="M1473.4,648.9c-2.1,5.9-4.3,11.7-6.4,17.6"/>
	<path class="st0" d="M967.5,800.1c5.9,6.9,11.7,13.8,17.6,20.8"/>
	<path class="st0" d="M871.7,730.9c4.3,3.4,8.6,6.6,12.7,10.2c1.2,1,1.8,2.8,2.7,4.2"/>
	<path class="st0" d="M63.9,548.2c1.8,0.3,3.6,0.6,6.4,1.1c-3.3,8.7,0.5,18-5.4,25.6"/>
	<path class="st0" d="M1034.1,907.7c-5.6,2.8-11.2,5.6-16.5,8.2c0,5.1,0,9.4,0,13.6"/>
	<path class="st0" d="M990.7,949.2c0.2,3.4,0.4,6.8,0.6,10.8c-2.6,1.6-4.8,5.3-9.4,3.6"/>
	<path class="st0" d="M79.9,785.7c1.2,5.7,2.5,11.4,3.7,17"/>
	<path class="st0" d="M1369.1,740.5c-0.5-1.6-1.7-3.3-1.5-4.8c1.2-7.2-0.7-14.7,1.9-21.9c0.4-1.2-0.9-2.9-1.4-4.5
		c-8.7,5.1-16.9,9.9-25,14.7c-1.4,0.8-2.5,2.1-3.7,3.2"/>
	<path class="st0" d="M1339.5,734.1c-0.8,7.3-1.6,14.6-2.4,21.8"/>
	<path class="st0" d="M1043.7,307c3.3,2.7,6.7,5.3,10.7,8.5c-2.3,2.3-4.1,4.1-5.9,5.9"/>
	<path class="st0" d="M1327.3,758.6c-0.6,8.4-6.8,14.3-16.8,16"/>
	<path class="st0" d="M831.2,612.1c-5.6-1.9-11.2-2.5-17-1.1"/>
	<path class="st0" d="M243.9,171.7c-3.2-2.1-6.2-5-10.7-3.2"/>
	<path class="st0" d="M191.2,158.7c-3.9-0.4-7.4,0.4-10.1,3.5"/>
	<path class="st0" d="M708.8,537c-5.5,2.7-11,5.3-16.5,8"/>
	<path class="st0" d="M226.8,224.5c-0.5,2.1-1.1,4.3-1.6,6.4"/>
	<path class="st0" d="M718.3,610.5c-5.9,0.2-11.1,2.4-15.4,6.4"/>
	<path class="st0" d="M91.6,187.2c-4.3,2-8.5,3.9-12.8,5.9"/>
	<path class="st0" d="M1273.7,766.5c-1.4,0.2-3.1-0.1-4.2,0.6c-10,6.2-19.9,12.6-29.9,18.8c-2.4,1.5-5.2,2.4-7.4,3.5
		c0,4.7,0,8.2,0,11.8"/>
	<path class="st0" d="M1234.3,808.1c-0.6,3.8-2.3,7.6,0.5,11.2"/>
	<path class="st0" d="M109.7,188.2c-1.9,5.3-5.9,7-11.2,6.4"/>
	<path class="st0" d="M1057.5,893.8c-5.1,2.6-10.2,5.1-14.4,7.2c0,5.4,0.6,9.6-0.1,13.5c-0.7,4.1-0.1,7.5,2.3,10.7"/>
	<path class="st0" d="M664,598.3c3.5,4.4,7.1,8.8,10.6,13.3c0.7,0.9,1.1,2.1,1.6,3.2"/>
	<path class="st0" d="M1501.1,631.3c1.9,3.7,3.3,7.4,2.2,11.7c-1.1,4.2-1.5,8.5-2.2,12.8"/>
	<path class="st0" d="M1017.6,599.9c-1.3-5.2-4.8-7.9-11.2-8.5"/>
	<path class="st0" d="M992,582.6c-1.1-0.1-2.1-0.2-3.2-0.3"/>
	<path class="st0" d="M1305.2,759.1c0.5,3.2,0.9,6.4,1.7,9.6c0.5,2,1.7,3.9,2.6,5.9"/>
	<path class="st0" d="M266.2,374.6c-0.4,5.3,1.4,10.9-1.6,16"/>
	<path class="st0" d="M1521.4,622.2c-1.6,3.6-3.2,7.1-4.8,10.6c-0.8,1.7-1.8,3.2-2.6,4.8"/>
	<path class="st0" d="M833.4,611.1c5.3,0.2,10.6,0.4,16,0.5"/>
	<path class="st0" d="M1052.2,897.5c0,5.3,0,10.7,0,16"/>
	<path class="st0" d="M898.3,749.5c0.5,4.6,4.8,5.8,7.5,8.5c1.8,1.8,3.5,3.5,5.3,5.3"/>
	<path class="st0" d="M178.9,225.5c-0.3-5.3,4.3-6.6,7.5-9c0-0.3,0-0.4,0-0.6c-0.2,0.1-0.4,0.3-0.5,0.2c-4.9-2.3-9.6-5.7-15.4-2.9"
		/>
	<path class="st0" d="M739.1,554.1c-5.3-0.7-10.7-1.4-16-2.1"/>
	<path class="st0" d="M1071.4,301.1c1.8,5.3,3.6,10.6,5.3,16"/>
	<path class="st0" d="M693.8,599.9c-2.5,5.4-5,10.8-7.5,16.2"/>
	<path class="st0" d="M330.1,965.7c4.3,5.3,8.5,10.6,12.8,16"/>
	<path class="st0" d="M1347.8,732.5c-1.2,2.7-2.4,5.4-3.8,8c-1.2,2.2-2.8,4.3-4.2,6.4"/>
	<path class="st0" d="M1255.1,777.7c0.4,1.6,1.2,3.3,1,4.8c-0.6,4.2,0.2,7.7,3,10.4c-0.3,4-0.5,7.7-0.8,11.4"/>
	<path class="st0" d="M939.9,974.8c-2.6,5-4.2,10.1-1.1,15.4"/>
	<path class="st0" d="M748.2,630.2c-1.6,4.1-3.2,8.2-4.8,12.3c-0.4,1-0.4,2.1-0.6,3.2"/>
	<path class="st0" d="M287,382.6c5.6-1.8,3.1-6.5,3.7-10c-1.4-0.5-2.8-0.9-4.8-1.5c0,3.5,0,6.7,0,9.9"/>
	<path class="st0" d="M61,557.3c-0.1,3.2-0.4,6.4-0.1,9.6c0.1,0.9,1.7,1.6,2.5,2.4"/>
	<path class="st0" d="M736.4,579.1c-2.7,5.1-5.3,10.3-8,15.4"/>
	<path class="st0" d="M1274.3,772.4c-0.9,3.2-1.6,6.4-2.7,9.6c-0.6,1.7-1.7,3.2-2.6,4.8"/>
	<path class="st0" d="M1544.8,613.2c-1.6,3.4-3.1,6.8-4.8,10.1c-0.8,1.4-2.1,2.5-3.1,3.8"/>
	<path class="st0" d="M152.8,391.7c1.1,2.5,2.1,5,3.2,7.5"/>
	<path class="st0" d="M984.1,947.9c0.9-4,4.7-7.3,2.7-12c-0.2-0.5,0.4-1.7,1-2c3.3-1.7,6.7-3.3,10.1-4.9"/>
	<path class="st0" d="M172,502.4c-3.7,4.7-1.8,9.9-1.1,14.9"/>
	<path class="st0" d="M1067.1,888.5c-2.9,1.2-5.9,2.4-8,3.2c0,5.8,0,10.6,0,15.4"/>
	<path class="st0" d="M721.5,474.7c0.5,2.7,1.2,5.3,1.6,8c0.3,2.3,0.4,4.6,0.6,6.9"/>
	<path class="st0" d="M59.6,629.2c-1.4,4.8-2.8,9.6-4.4,14.9c-0.9,0-2,0-3.1,0"/>
	<path class="st0" d="M1510.7,629.2c3.5,6.9,2.7,18.7-1.6,23.4"/>
	<path class="st0" d="M1255.1,790c-0.9,3.2-1.6,6.4-2.7,9.6c-0.5,1.5-1.7,2.9-2.6,4.3"/>
	<path class="st0" d="M395.6,1144.1c-2.1,0.9-4.5,1.4-6.3,2.7c-2.5,1.8-4.7,4.2-7,6.3"/>
	<path class="st0" d="M1263.6,771.9c4,8.1,6.6,16.2,2.3,25.3c0.5,0.6,1.2,1.5,2,2.4"/>
	<path class="st0" d="M1284.9,760.2c0.2,3.4,0.4,6.7,0.5,10.1"/>
	<path class="st0" d="M1287.3,777.7c0.1,3.4,0.2,6.7,0.3,10.1"/>
	<path class="st0" d="M527.2,1161.7c-0.6,3.2-1.1,6.3-1.7,9.6c5.7,0.4,9.2-2.4,12.3-5.9"/>
	<path class="st0" d="M1231.7,791c-5.6,2.7-11.3,5.5-16.5,8c0,5.7,0,10.3,0,14.9"/>
	<path class="st0" d="M1214.6,814.5c1.3,3.4,3.2,6.8,1.6,10.7"/>
	<path class="st0" d="M1023.5,917.8c-0.5,5.1-1.1,10.3-1.6,15.4"/>
	<path class="st0" d="M885.5,1018.4c-4.1,1.8-8.4,3.2-12.2,5.4c-10.1,5.8-20.6,1-30.9,1.3c-9.6,0.2-19.1-1.7-27.7-6.7"/>
	<path class="st0" d="M1357.3,727.4c1.4,1.3,2.9,2.6,3.4,3.1c-0.7,6.4-1.2,11.3-1.8,16.3"/>
	<path class="st0" d="M537.8,1087.1c2.5,5,5,9.9,7.5,14.9"/>
	<path class="st0" d="M889.8,985.4c-2.6,5.4,0.1,10.1,2.1,14.9"/>
	<path class="st0" d="M197.5,161.6c-0.4,2.5-0.7,5-1.1,7.5"/>
	<path class="st0" d="M758.3,535.4c2,5.1-3,7.8-4.3,11.7c-0.7,2.1-1.4,4.3-2.1,6.4"/>
	<path class="st0" d="M383.4,378.9c-10.5,0.2-110.1,5.1-121.4,5.3"/>
	<path class="st0" d="M829.1,628.1c3.4,3.9,6.7,7.8,10.2,11.7c0.3,0.4,1.4,0,2.1,0"/>
	<path class="st0" d="M400.4,805.4c-2.5,2.9-5,5.8-8.3,9.6c2,4.3,4.3,9.3,6.7,14.4"/>
	<path class="st0" d="M1532,621.7c-1.2,3-2.3,6.1-3.8,9c-0.7,1.4-2.1,2.5-3.1,3.8"/>
	<path class="st0" d="M561.2,1046.7c-1.6,2.1-3.2,4.2-4.8,6.3c0.3,0.1,0.6,0.2,0.9,0.3c0.2,4.9,0.5,9.8,0.7,14.7"/>
	<path class="st0" d="M116.1,469.4c5.6,3.9,8.4,9,6.9,16"/>
	<path class="st0" d="M237.5,215.9c-0.4,3.4-0.7,6.7-1.1,10.1"/>
	<path class="st0" d="M186.9,518.1c-3.7-0.1-7.5-0.2-11.2-0.3"/>
	<path class="st0" d="M953.2,967.8c-0.2,4.8-0.4,9.6-0.5,14.4"/>
	<path class="st0" d="M168.3,221.8c3.3-0.1,4.6,2.1,5.3,4.8c0.5,1.8,1.1,3.5,1.6,5.3"/>
	<path class="st0" d="M264.1,344.3c-0.5,2.5-1.1,5-1.6,7.5c-0.5,2.3-1.1,4.6-1.6,6.9"/>
	<path class="st0" d="M1194.4,815.5c-0.5,3.7-1.1,7.5-1.6,11.2"/>
	<path class="st0" d="M682.7,622.2c-4.1,5.7-7.9,11.6-9.6,18.6"/>
	<path class="st0" d="M1504.3,638.7c1.9-3.9,4-7.8,5.8-11.7c2.2-4.5,6-6.4,11.4-7.2c4.3,7.8,3,15.7,1.1,23.7"/>
	<path class="st0" d="M103.8,223.9c1.5,1.3,3,2.6,4.5,3.9c-0.3,2-0.5,3.6-0.6,4.4c-3.5,5.5-6.6,10.3-9.7,15.2"/>
	<path class="st0" d="M222.6,346.4c-1.2,4.6-2.5,9.2-3.7,13.8"/>
	<path class="st0" d="M1130.5,851.2c-3.9,1.8-7.9,3.3-11.7,5.4c-4.6,2.6-8.9,5.7-13.4,8.4c-3.5,2.1-7.1,4-9.8,5.6
		c0,4.8,0,8.1,0,12.2c0.5,0.8,1.5,2.2,2.4,3.6"/>
	<path class="st0" d="M1452.1,661.1c0.3,7.8,2.7,15.7-0.5,23.4"/>
	<path class="st0" d="M322.7,391.7c0,4.6,0,9.2,0,13.8"/>
	<path class="st0" d="M123,176c-3.1,4.4-7.3,7.3-12.8,8"/>
	<path class="st0" d="M842.4,1020c-0.2,1.6-0.4,3.2-0.5,4.8"/>
	<path class="st0" d="M862.1,1004.1c0.5,4.6,1.1,9.2,1.6,13.8"/>
	<path class="st0" d="M1436.2,679.2c-2.1,4.6-4.3,9.2-6.4,13.8"/>
	<path class="st0" d="M825.4,992.9c-0.4,2.1-0.6,4.3-1.1,6.4c-0.6,2.4-1.4,4.6-2.1,6.9"/>
	<path class="st0" d="M221,200.2c-2.7-0.6-5.3-1.2-8-1.9"/>
	<path class="st0" d="M26.1,369.8c-3,5.8-2,8,4.8,10.7"/>
	<path class="st0" d="M1004.8,591.9c2.6,5.7,7.2,8.4,13.3,8.5c1.7,5.8,6.6,8,11.5,10.1"/>
	<path class="st0" d="M813.1,579.1c-3.5,6.9-7.1,13.8-10.6,20.8"/>
	<path class="st0" d="M1224.2,795.3c-0.4,4.6-0.7,9.2-1.1,13.8"/>
	<path class="st0" d="M185.3,218.1c-0.9,4.3-1.8,8.5-2.7,12.8"/>
	<path class="st0" d="M261.4,255.9c-0.9,1.9-2,3.8-2.6,5.9c-0.8,2.4-1.1,5-1.6,7.4"/>
	<path class="st0" d="M675.2,723.9c-1,6.6-7,9.3-10.7,13.8"/>
	<path class="st0" d="M192.2,252.1c-1.4,4.3-2.8,8.5-4.3,12.8"/>
	<path class="st0" d="M298.2,362.9c-0.2,0.7-0.4,1.4-0.5,2.1"/>
	<path class="st0" d="M717.3,551.9c-6,2.3-12.1,4.5-18.1,7c-5.9,2.5-11.8,5.2-17.6,8c-1.8,0.9-3.2,2.4-4.8,3.7"/>
	<path class="st0" d="M1382.4,710.6c0.4,2.3,0.7,4.6,1.1,6.9c0.3,2.1,0.7,4.3,1.1,6.4"/>
	<path class="st0" d="M311,333.1c0.7,4.3,1.4,8.5,2.1,12.8"/>
	<path class="st0" d="M1176.3,840c-3,4.2-3.5,8.7-1.1,13.3"/>
	<path class="st0" d="M138.7,228.2c-0.3,0.9-0.5,1.8-0.8,2.7"/>
	<path class="st0" d="M380.7,271.3c4.1,3.4,2.3,8.1,2.6,12.2c0.1,1.6-0.3,3.2-0.5,4.8"/>
	<path class="st0" d="M1184.3,820.3c-5.3-0.3-9.4,1.9-12.8,6.8c1.2,2.8,2.5,5.7,3.7,8.6"/>
	<path class="st0" d="M278,554.6c1.2,0.9,2.4,1.9,3.7,2.6c2.6,1.4,5.3,2.5,8,3.8"/>
	<path class="st0" d="M145.4,396.5c1,1.2,2,2.4,2.2,2.7c1.5,5.1,2.9,9.5,4.2,13.8"/>
	<path class="st0" d="M251.9,368.2c-0.7,4.4-1.4,8.9-2.1,13.3"/>
	<path class="st0" d="M265.2,471c0.4,4.4,0.7,8.9,1.1,13.3"/>
	<path class="st0" d="M943.6,979.6c0.5,2.3,1.1,4.6,1.6,6.9"/>
	<path class="st0" d="M392.2,818.2c-1.9,2.8-3.7,5.7-5.6,8.5c-0.8,1.3-1.8,2.5-2.7,3.7"/>
	<path class="st0" d="M284.6,407.1c-0.1,1.1-0.2,2.1-0.3,3.2"/>
	<path class="st0" d="M1030.9,607.9c-2.1,2.8-1,4.9,1.6,6.4c3.3,1.9,6.7,3.6,10.1,5.4c0.3,0.2,0.9,0.3,1,0.6c2.3,4.9,5.4,3.2,8.6,1"
		/>
	<path class="st0" d="M1201.1,831c-0.6,9.4-3.1,12.3-12,13.8"/>
	<path class="st0" d="M780.6,548.8c-3.9,2.1-7.8,4.3-11.7,6.4"/>
	<path class="st0" d="M659.8,244.7c0.4,5.1,0.8,10.3,1,15.4c0,0.5-1,1.1-1.5,1.6"/>
	<path class="st0" d="M165.6,493.9c-5.1,7.3-4.6,17.1,1.1,22.9"/>
	<path class="st0" d="M753.5,521.1c-1.9,0.9-4,1.6-5.8,2.7c-3,1.7-6.2,3.1-6.6,7.4c-0.2,1.7-2.3,3.1-3,4.8c-0.6,1.6-0.4,3.5-0.6,5.3
		"/>
	<path class="st0" d="M1069.3,880.5c-0.4,4.4-0.7,8.9-1.1,13.3"/>
	<path class="st0" d="M1074.8,890.6c0-2.1,0-4.3,0-7.5c1.1-0.5,3.1-1.3,5.1-2.1"/>
	<path class="st0" d="M319,407.6c0,1.9,0.4,4-0.1,5.8c-0.6,2.5-2.2,4.4-5.2,3.8"/>
	<path class="st0" d="M148.6,290.5c3.4,4.4,0.6,8.6-0.5,12.8"/>
	<path class="st0" d="M562.8,737.3c0.7-0.4,1.8-1.2,2.1-1c3.4,2.8,6.6,5.8,9.9,8.7c0.1,0.6,0.1,1.2,0.2,1.8
		c-0.9,0.4-1.7,0.8-2.6,1.1"/>
	<path class="st0" d="M394,783.6c2.1,4.3,4.3,8.5,6.4,12.8"/>
	<path class="st0" d="M20.2,272.9c0.9,0.2,1.8,0.4,2.7,0.5"/>
	<path class="st0" d="M763.1,964.6c0.5,2.4,1,4.8,1.5,7.3c-0.5,0.3-0.9,0.6-1.4,0.9c1.8,1.2,3.5,2.4,5.3,3.5"/>
	<path class="st0" d="M1264.7,779.3c-0.9,3-1.7,6-2.7,9c-0.4,1.3-1,2.5-1.6,3.7"/>
	<path class="st0" d="M787,966.8c0.1,6.5,1.8,8.7,8.5,10.8c0,1.5,0,3.2,0,4.9"/>
	<path class="st0" d="M1424.4,677.1c2.9,8.3,4.8,16.7,2.7,25.6"/>
	<path class="st0" d="M846.7,782.5c-4.1,2-8.2,3.9-12.2,5.9"/>
	<path class="st0" d="M415.3,574.8c3.4,3.4,6.7,6.7,10.1,10.1"/>
	<path class="st0" d="M265.2,464.1c0.1,1.9,0.2,3.9,0.4,6c-6.1,2.5-13.4,2.1-16.9,8.9"/>
	<path class="st0" d="M61.8,573.3c4,1.6,5.2,4.4,3.8,8.5c-0.7,1.9-1.1,3.9-1.6,5.8"/>
	<path class="st0" d="M222,568.5c0.8,2,1.6,4,2.3,5.8c4.2,1.1,8.1,2.2,12,3.2"/>
	<path class="st0" d="M688.5,709c-2.3,4.3-4.6,8.5-6.9,12.8"/>
	<path class="st0" d="M344.5,733c2.7,4.1,5.3,8.2,8,12.3"/>
	<path class="st0" d="M304.6,334.2c0,4.3,0.6,8.7-2.7,12.2"/>
	<path class="st0" d="M1357.3,728.2c-2.1,3.9-4.3,7.8-6.4,11.7"/>
	<path class="st0" d="M1151.8,840c0.5,1.4,1.3,2.8,1.5,4.3c0.5,3.5,0.8,7.1,1.1,10.6"/>
	<path class="st0" d="M259.3,174.4c0,3.9,0,7.8,0,11.7"/>
	<path class="st0" d="M696.5,561.5c1.4,2.3,2.9,4.6,4.3,6.9c1.1,1.8,2.1,3.6,3.2,5.3"/>
	<path class="st0" d="M205.5,381c-1.6,4.4-0.4,8.4,1.6,12.2"/>
	<path class="st0" d="M520.2,699.5c0.5-0.7,1.1-1.4,1.8-2.3c-2.2-4.6-5.4-3.3-8.7-1.4"/>
	<path class="st0" d="M266.8,266c-0.7,1.9-1.4,3.9-2.1,5.9c-0.7,2-1.4,3.9-2.1,5.9"/>
	<path class="st0" d="M1217.3,270.3c-3.9-1.2-7.8-2.5-11.7-3.7"/>
	<path class="st0" d="M1532.5,613.2c-5.2-0.3-7.9,3.3-10.6,6.9"/>
	<path class="st0" d="M833.9,606.8c-2.7,5.9-5.3,11.7-8,17.6"/>
	<path class="st0" d="M63.3,591.9c0.7,2.3,0.9,5,2.2,6.8c4.1,5.5,5,11.7,5.8,18.2"/>
	<path class="st0" d="M38.9,252.1c0.4,1.9,0.7,3.9,1.1,5.9c0.4,2,0.7,3.9,1.1,5.9"/>
	<path class="st0" d="M262.5,458.8c-1.1-1.4-2-2.9-3.2-4.2c-1.3-1.5-2.8-2.9-4.2-4.3"/>
	<path class="st0" d="M102.8,437.5c1.1,3.2,2.1,6.4,3.2,9.6"/>
	<path class="st0" d="M191.4,462.5c0.3,0.9,0.5,1.8,0.8,2.7"/>
	<path class="st0" d="M84.1,849.6c1.2,3.9,2.5,7.8,3.7,11.7"/>
	<path class="st0" d="M1106,870.9c0.9,4.6,1.8,9.2,2.6,13.8c0.3,1.9,0.4,3.9,0.6,5.9"/>
	<path class="st0" d="M1066.6,898.6c-0.5,1.6-1.2,3.2-1.6,4.8c-0.6,2.6-1.5,4.9-4.3,5.8"/>
	<path class="st0" d="M1042.1,902.9c-2.5,1.1-5,2.3-7.1,3.2c0.6,5.6,2.1,10-1.5,13.8"/>
	<path class="st0" d="M508,959.3c1.6,3.6,3.1,7.2,4.2,9.6c-3.5,3.1-6,5.2-8.5,7.4"/>
	<path class="st0" d="M931.3,967.6c-0.9,0.3-1.8,0.5-2.7,0.8"/>
	<path class="st0" d="M508,994.5c-2.3,3.9-4.6,7.8-6.9,11.7"/>
	<path class="st0" d="M105.4,216.5c-4-0.5-7.3,0.7-10.2,4.7c1.3,1.3,2.6,2.6,3.8,3.8"/>
	<path class="st0" d="M151.2,226.1c-0.5,1.6-1.1,3.2-1.6,4.8"/>
	<path class="st0" d="M195.1,439.1c-0.1,1.2,0.2,2.7-0.3,3.7c-3.5,6.9-0.6,12.4,3.8,17.6"/>
	<path class="st0" d="M86.3,236.2c-3.7,0.4-7.5,0.7-11.2,1.1"/>
	<path class="st0" d="M190.6,221.3c0.7,1.9,1.4,3.9,2.1,5.9"/>
	<path class="st0" d="M321.6,598.8c-0.7,5.7,4.3,7.2,7.5,10.1"/>
	<path class="st0" d="M1436.2,678.4c3.3,2.9,4.7,7.7,3.2,11.5c-0.8,2.1-1.8,4.3-2.6,6.4"/>
	<path class="st0" d="M1491,653.1c-0.7,3.7-1.4,7.5-2.1,11.2"/>
	<path class="st0" d="M1412.2,686.7c0.5,5.3,1.2,10.6,1.5,16c0.2,2.5-0.4,5-0.4,7.4c0,1.6,0.3,3.2,0.5,4.8"/>
	<path class="st0" d="M86.8,442.2c-3.7,0.2-7.5,0.4-11.2,0.5"/>
	<path class="st0" d="M547.4,1158.5c-0.6,4.7-4.1,5.8-7.4,6.3c-4.6-1.3-8.7-2.5-12.8-3.7"/>
	<path class="st0" d="M986.2,936.4c-2.3,0.7-4.8,1.1-6.9,2.2c-2.8,1.5-5.4,3.4-8,5.3c-1,0.7-1.5,2.1-2.2,3.1"/>
	<path class="st0" d="M1208.8,808.1c-0.1,3.6-2.6,7.2,0.5,10.7"/>
	<path class="st0" d="M1348.8,721.8c0.2,1.1,0.5,2.1,0.5,3.2c0.1,3.7,0,7.5,0,11.2c0.1,3.7,0.3,7.4,0.5,11.2"/>
	<path class="st0" d="M1358.9,716.5c-0.2,3.6-0.4,7.1-0.5,10.7"/>
	<path class="st0" d="M223.6,335.2c-0.5,3.3-1,6.7-1.5,9.9c2.9,1.7,5.4,3.1,7.9,4.5"/>
	<path class="st0" d="M1366.9,722.9c-1.8,2.8-3.5,5.7-5.3,8.5"/>
	<path class="st0" d="M305.6,372c-1.6,0.2-3.2,0.4-4.8,0.5"/>
	<path class="st0" d="M273.2,275.6c-0.5,1.8-1.2,3.5-1.6,5.3c-0.4,1.7-0.4,3.5-0.6,5.3"/>
	<path class="st0" d="M148,439.6c3.6,1.8,7.1,3.6,10.7,5.3"/>
	<path class="st0" d="M168.3,225.5c0.9,2.5,1.8,5,2.7,7.5"/>
	<path class="st0" d="M210.3,253.7c0.7,3.6,3.2,7.1,0,10.7"/>
	<path class="st0" d="M528.8,1153.7c-3.2-3.4-6.8-3.6-10.7-1.1"/>
	<path class="st0" d="M203.7,372c-1.6,3.3-1,6.2,1.8,8.4c0.9-0.3,1.8-0.6,2.7-0.9"/>
	<path class="st0" d="M710.3,398.6c-2.4,1.8-2,4-0.5,5.8c2.1,2.5,5,2.3,7.9,1.1"/>
	<path class="st0" d="M172.5,175.5c3.8,0.1,6.8,1.8,9.1,4.8"/>
	<path class="st0" d="M742.3,566.9c-1.2,3.5-2.5,7.1-3.7,10.6"/>
	<path class="st0" d="M1284.4,132.9c-0.4,3.5-0.7,7.1-1.1,10.6"/>
	<path class="st0" d="M801.9,989.7c0.9,3,1.8,6,2.7,9"/>
	<path class="st0" d="M795,983.8c-1.1,3.5-2.1,7.1-3.2,10.6"/>
	<path class="st0" d="M165.1,291.6c-1.4,3.5-2.8,7.1-4.3,10.6"/>
	<path class="st0" d="M1207.7,822.5c0.2,3.5,0.8,7.2,0.4,10.6c-0.4,3.2-3.1,4.4-6.3,4.3"/>
	<path class="st0" d="M23.9,347.5c-4.7,2.9-2.1,6.6-1.1,10.1"/>
	<path class="st0" d="M1284.9,775.6c-2.1,3-4.3,6-6.4,9.1"/>
	<path class="st0" d="M151.7,457.7c-3,3.6-1.6,7.1,0,10.7"/>
	<path class="st0" d="M672.5,695.7c-1.2,3.4-2.5,6.7-3.7,10.1"/>
	<path class="st0" d="M657.6,601.5c-1.4,3.4-2.8,6.7-4.3,10.1"/>
	<path class="st0" d="M1009.6,944.4c0.2,1.2,0.4,2.5,0.5,3.7"/>
	<path class="st0" d="M896.2,985.4c0.4,3.4,0.7,6.8,1.1,10.1"/>
	<path class="st0" d="M1086,890.6c-2.4,3-3.5,6.3-2.4,10.1"/>
	<path class="st0" d="M170.4,215.4c2.8,2.3,5.7,4.6,8.5,6.9"/>
	<path class="st0" d="M61.5,418.8c1.3,1.9,2.7,3.9,4,5.9"/>
	<path class="st0" d="M306.7,218.1c2.4,2.1,4.7,4.2,6,5.3c4.8,0,8.2,0,11.5,0"/>
	<path class="st0" d="M906.3,983.3c-3.6,0.4-7.1,0.7-10.6,1.1"/>
	<path class="st0" d="M1067.1,530.7c-4.9-0.5-6.4,4.3-9.6,6.4"/>
	<path class="st0" d="M150.2,530.1c2.1,1.5,4.1,3,6.8,5c1.2-1.5,2.3-2.7,3.3-4"/>
	<path class="st0" d="M218.8,193c-1.1,5.7-2.1,11.4-3.2,17"/>
	<path class="st0" d="M127.2,537.6c2.1,3.5,4.1,7.1,8.5,8"/>
	<path class="st0" d="M808.9,989.1c-1.1,3.2-2.1,6.4-3.2,9.6"/>
	<path class="st0" d="M360.5,235.1c1.2,3.2,2.5,6.4,3.7,9.6"/>
	<path class="st0" d="M1017.3,917.3c-4.2,2.2-8.5,4.3-12.4,6.4c-0.8,2.3-1.5,4.1-2.2,5.9"/>
	<path class="st0" d="M155.5,211.7c-0.2,1.2-0.4,2.5-0.5,3.7"/>
	<path class="st0" d="M767.9,945.5c0.9,3.2,1.8,6.4,2.7,9.6"/>
	<path class="st0" d="M774.8,952.9c0.9,3.2,1.8,6.4,2.7,9.6"/>
	<path class="st0" d="M779.6,957.2c0.7,3.2,1.4,6.4,2.1,9.6"/>
	<path class="st0" d="M754,968.9c2.1,3.2,4.3,6.4,6.4,9.6"/>
	<path class="st0" d="M684.8,859.2c0.2,3.2,3.8,5.9,1.6,9.6"/>
	<path class="st0" d="M785.4,975.3c0.5,1.4,1.1,2.8,1.8,4.9c-0.8,1.3-1.9,3-2.9,4.7"/>
	<path class="st0" d="M238,374.6c0.7,2.8,1.4,5.7,2.1,8.5"/>
	<path class="st0" d="M855.7,1009.4c0.7,3.2,1.4,6.4,2.1,9.6"/>
	<path class="st0" d="M116.1,166.4c-3.5,1.2-5.1,3.8-4.8,7.5"/>
	<path class="st0" d="M233.8,370.9c0.4,3.2,0.7,6.4,1.1,9.6"/>
	<path class="st0" d="M706.1,881.6c1.4,3.2,2.8,6.4,4.3,9.6"/>
	<path class="st0" d="M1049,283c-0.2,3-0.5,6-0.7,9.1c3.1,1.2,5.6,2.2,8.1,3.1"/>
	<path class="st0" d="M314.7,224.5c3,2.2,6,4.4,9.1,6.7"/>
	<path class="st0" d="M1094.8,872c-6.3,0.9-7,1.9-7,7.5c0,1.8-1.3,3.5-2,5.3"/>
	<path class="st0" d="M733.8,675.5c2.1,3.2,4.3,6.4,6.4,9.6"/>
	<path class="st0" d="M59.1,845.4c0.9,3.2,1.8,6.4,2.7,9.6"/>
	<path class="st0" d="M59.6,416.2c-1.4,0.5-2.8,1.1-4.3,1.6"/>
	<path class="st0" d="M143.8,252.1c-6.1,3-7.6,7.4-4.8,13.3"/>
	<path class="st0" d="M79.9,542.9c-0.7,3.2-1.4,6.4-2.1,9.6"/>
	<path class="st0" d="M225.2,256.9c-2.1,1.6-4.2,3.3-6.3,4.9c1.6,5.3,4.1,9.3,8.4,12.1"/>
	<path class="st0" d="M976.6,611.1c0,3.2,0,6.4,0,9.6"/>
	<path class="st0" d="M657.1,830.4c1.7,3.8,2.8,8.1,7.9,10.5c-0.5-1.7-0.7-2.4-1-3.1"/>
	<path class="st0" d="M705,546.6c-0.7,3.2-1.4,6.4-2.1,9.6"/>
	<path class="st0" d="M809.4,983.8c1.2,4.8,2.5,9.6,3.7,14.4"/>
	<path class="st0" d="M1173.6,326.2c-4.6-0.9-9.2-1.8-13.8-2.7"/>
	<path class="st0" d="M543.1,712.2c2.5,3.2,5,6.4,7.5,9.6"/>
	<path class="st0" d="M1090,306.5c3,3,6,6,9,9"/>
	<path class="st0" d="M1222.1,810.2c-2.3,2.1-1.7,7-6.4,6.9"/>
	<path class="st0" d="M70.3,810.2c0.4,3.2,0.7,6.4,1.1,9.6"/>
	<path class="st0" d="M149.6,223.9c0.4-2.7,0.7-5.3,1.1-8"/>
	<path class="st0" d="M752.4,940.2c0.8,1.6,1.7,3.2,2.6,5c-0.1,1.3-0.3,2.7-0.5,4.1"/>
	<path class="st0" d="M331.2,519.5c-3,1.2-6,2.5-9,3.7"/>
	<path class="st0" d="M110.2,518.4c-1.6,3-3.2,6-4.8,9"/>
	<path class="st0" d="M202.3,449.7c-2.5-1.8-5-3.5-7.5-5.3"/>
	<path class="st0" d="M1049,293.1c-3.3,2.8-7,1.7-10.6,1c-2.3-0.4-4.6-1.2-6.9-1.8"/>
	<path class="st0" d="M276.4,353.9c0.9,3,1.8,6,2.7,9.1"/>
	<path class="st0" d="M1239.7,786.8c0.4,2.6,0.7,5.3,1.1,7.9c-0.3,0.1-0.6,0.3-0.9,0.4c1.2,1.3,2.4,2.6,3.6,3.9"/>
	<path class="st0" d="M602.8,601.5c1.9,3.1,3.9,6.2,5.9,9.3"/>
	<path class="st0" d="M129.9,225.5c-0.5,0-1.1,0-1.6,0"/>
	<path class="st0" d="M1054.3,916.2c0,2.3,0,4.6,0,7.4c-2.2,1.7-4.2,4.4-8,2.7"/>
	<path class="st0" d="M148.6,448.1c1.2,2.8,2.5,5.5,4.2,9.3c0.2,0.1,1.5,0.7,2.7,1.4"/>
	<path class="st0" d="M853.6,994.5c-0.4,2.8-0.7,5.7-1.1,8.5"/>
	<path class="st0" d="M1230.6,807c-1.9,4.3-4,8.5-5.7,12.8c-0.2,0.6,1,1.7,1.5,2.6"/>
	<path class="st0" d="M609.2,1184.6c-1.1,0.5-2.6,0.8-3.1,1.6c-3.1,4.7-6.8,3.2-10.7,1.5"/>
	<path class="st0" d="M215.6,242.6c-1.1,2.2-2.1,4.5-3.1,6.5c2.3,4.2,4.3,7.9,6.3,11.6"/>
	<path class="st0" d="M625.1,665.4c-3.1-1.9-6.1-1-9.1,0.5"/>
	<path class="st0" d="M758.3,936.9c1.1,2.5,2.4,4.9,3.1,7.5c0.4,1.3-0.3,2.8-0.4,4.2"/>
	<path class="st0" d="M618.8,1156.3c-2.5,1.9-5,3.9-7.5,5.9"/>
	<path class="st0" d="M676.8,712.8c1.6,3,3.2,6,4.8,9"/>
	<path class="st0" d="M23.9,316c0.4,2.8,0.7,5.7,1.1,8.5"/>
	<path class="st0" d="M743.9,542.4c2.5,2.5,5,5,7.5,7.5"/>
	<path class="st0" d="M325.9,309.7c0.2,2.8,0.4,5.7,0.5,8.5"/>
	<path class="st0" d="M60.7,613.2c0,2.8,0,5.7,0,8.5"/>
	<path class="st0" d="M330.7,653.7c1.2,2.8,2.5,5.7,3.7,8.5"/>
	<path class="st0" d="M1553.3,611.1c-1.6,2.7-3.2,5.3-4.8,8"/>
	<path class="st0" d="M269.4,286.2c-0.5,0-1.1,0-1.6,0"/>
	<path class="st0" d="M725.8,919.9c-2.3,3.9-3.6,9.2-1.3,11.9c3,3.4,5.2,9,11.4,8.8"/>
	<path class="st0" d="M1042.1,919.9c-1.9,2.1-3.9,4.3-5.9,6.4"/>
	<path class="st0" d="M305.6,214.9c2-1.2,3.9-2.5,6.4-4c2.7,1.9,5.6,4,8.6,6.1"/>
	<path class="st0" d="M968.1,948.7c-2.8-0.6-5.5-0.8-7,3.5c0.4,1.7,1,4.1,1.6,6.6"/>
	<path class="st0" d="M960.6,952.4c-5.8-0.2-9.2,1.9-11.2,6.9"/>
	<path class="st0" d="M287.5,252.1c1.3,0.7,2.5,1.4,3.8,2.1c-0.3,0.2-0.7,0.3-1,0.5c1.2,3.1,2.4,6.1,3.7,9.1"/>
	<path class="st0" d="M756.7,558.3c-2.4,2.4-5.2,3.2-8.5,2.7"/>
	<path class="st0" d="M143.2,422c-2.3-2.7-1.9-8.1-7.5-7.4"/>
	<path class="st0" d="M929.2,998.7c4,1.1,6.8-2,10.1-3.2"/>
	<path class="st0" d="M292.9,186.1c-0.7,2.8-1.4,5.7-2.1,8.5"/>
	<path class="st0" d="M1561.3,591.9c-2.5,1.8-5,3.5-7.4,5.3"/>
	<path class="st0" d="M236.9,184.5c0.4,2.8,0.7,5.7,1.1,8.5"/>
	<path class="st0" d="M314.7,362.9c-1.1,2.8-2.1,5.7-3.2,8.5"/>
	<path class="st0" d="M855.7,1026.9c-2,2.9-5.1,2.6-8,2.7"/>
	<path class="st0" d="M91.6,854.9c1.1,2.8,2.1,5.7,3.2,8.5"/>
	<path class="st0" d="M365.8,236.2c2.3,2.1,4.6,4.3,6.9,6.4"/>
	<path class="st0" d="M158.7,390.6c-0.5,2.7-1.1,5.3-1.6,8"/>
	<path class="st0" d="M290.2,357.6c2.7,0.4,5.3,0.7,8,1.1"/>
	<path class="st0" d="M96.4,288.4c1.1,4.8,1,9.2-3.7,12.2"/>
	<path class="st0" d="M979.8,966.8c-4.3,1.9-8.5,3.9-12.8,5.8"/>
	<path class="st0" d="M173.6,189.8c-2.3,2.7-4.6,5.3-6.9,8"/>
	<path class="st0" d="M967.5,964.6c-0.7,2.7-1.5,5.4-2.2,8.1c0.5,0.3,1,0.7,1.6,1c-3.7,2.5-7.3,5.1-11.1,7.3
		c-8.5,5.1-17,9.9-25.5,15c-0.7,0.4-1.1,1.4-1.6,2.1"/>
	<path class="st0" d="M1246.6,800.6c4,2.1,1.9,6,3.1,8.6c-1.5,3.7-3.8,5.3-7.4,4.7"/>
	<path class="st0" d="M55.4,694.1c0.6,2.4,0,5.3,3.2,6.4"/>
	<path class="st0" d="M155.5,556.2c-2.7,0-5.3,0-8,0"/>
	<path class="st0" d="M908.4,978c-6.5-1.5-9.1-0.2-12.8,6.4"/>
	<path class="st0" d="M538.9,713.3c2.3,3.2-0.3,5.5-1.6,8"/>
	<path class="st0" d="M219.9,514.1c-4.9,4.9-11.5,4.3-17.6,5.2c-1.1,0.2-2.5-1.6-3.7-2.5"/>
	<path class="st0" d="M1122.5,524.8c-2.5,1.1-5,2.1-7.5,3.2"/>
	<path class="st0" d="M426,586c2.8,2.7,5.7,5.3,8.5,8c1.7,1.7,3.2,3.5,4.8,5.3"/>
	<path class="st0" d="M627.3,639.3c-2.5,2.8-5,1.5-7.5,0"/>
	<path class="st0" d="M668.8,842.2c0.7,2.5,1.4,5,2.1,7.5"/>
	<path class="st0" d="M216.7,571.1c1.5,3.1,4.2,3,6.9,2.7"/>
	<path class="st0" d="M217.2,450.8c2.5,0.7,5,1.4,7.5,2.1"/>
	<path class="st0" d="M1171.5,826.7c-2.9,0.6-5.7,1.3-8.6,1.9c0.2,0.4,0.4,0.9,0.6,1.3c-3.4,1.8-6.8,3.5-10.1,5.3"/>
	<path class="st0" d="M1266.3,170.1c0,2.5,0,5,0,7.5"/>
	<path class="st0" d="M683.7,258.5c2.5,1.8,5,3.5,7.5,5.3"/>
	<path class="st0" d="M91,499.2c-0.4,2.1-0.7,4.3-1.1,6.4"/>
	<path class="st0" d="M230,497.1c-2.3,0.2-4.6,0.4-6.9,0.5"/>
	<path class="st0" d="M1319,750.6c0.9,0.9,1.8,1.8,2.3,2.3c-0.2,2.7-0.5,5-0.7,7.3"/>
	<path class="st0" d="M511.7,1038.7c1.4,2.3,2.8,4.6,4.3,6.9"/>
	<path class="st0" d="M284.9,389c-2.3-0.7-4.6-1.4-6.9-2.1"/>
	<path class="st0" d="M161.3,506.7c-2.3-0.2-4.6-0.4-6.9-0.5"/>
	<path class="st0" d="M310.4,410.8c0.8,2,1.7,3.9,2.8,6.6c-0.8,2-1.8,4.7-2.8,7.3"/>
	<path class="st0" d="M720.5,916.7c-1.2,1.9-2.4,3.8-4.1,6.5c2.2,1.8,4.2,3.5,6.2,5.2"/>
	<path class="st0" d="M602.8,774c1.4,2.1,2.8,4.3,4.3,6.4"/>
	<path class="st0" d="M110.2,380.5c-2.3-0.7-4.6-1.4-6.9-2.1"/>
	<path class="st0" d="M532,1171.3c2.3,1.6,4.6,3.2,6.9,4.8"/>
	<path class="st0" d="M223.1,500.8c2.1,2.3,4.3,4.6,6.4,6.9"/>
	<path class="st0" d="M750.8,931.6c1.1,2.1,2.1,4.3,3.2,6.4"/>
	<path class="st0" d="M1172,831.5c-1.1,1.8-2.1,3.5-3.2,5.3"/>
	<path class="st0" d="M321.1,334.7c1.8-0.9,3.6-1.7,5.4-2.6c0.3,0.3,0.6,0.7,0.9,1c-0.8,2.6-2.9,5.2,0.1,7.5"/>
	<path class="st0" d="M375.9,656.9c0.4,2.1,0.7,4.3,1.1,6.4"/>
	<path class="st0" d="M596.4,767.6c1.1,2.1,2.1,4.3,3.2,6.4"/>
	<path class="st0" d="M614,785.7c0.9,2.1,1.8,4.3,2.7,6.4"/>
	<path class="st0" d="M1438.3,671.8c-0.4,2.1-0.7,4.3-1.1,6.4"/>
	<path class="st0" d="M764.7,980.6c1.4,2.1,2.8,4.3,4.3,6.4"/>
	<path class="st0" d="M778.5,995.5c2.1,2.1,4.3,4.3,6.4,6.4"/>
	<path class="st0" d="M639.5,812.3c0.9,2.1,1.8,4.3,2.7,6.4"/>
	<path class="st0" d="M1094.3,883.7c-1.1,2.1-2.1,4.3-3.2,6.4"/>
	<path class="st0" d="M1041.6,319.2c2.1,0.6,4.2,1.1,6.5,1.7c1.3,2.1,1.9,4.3-0.6,6.3"/>
	<path class="st0" d="M258.8,559.9c-2.1-0.4-4.3-0.7-6.4-1.1"/>
	<path class="st0" d="M1291.9,109.4c0,2.1,0,4.3,0,6.4"/>
	<path class="st0" d="M87.3,820.9c0.7,2.1,1.4,4.3,2.1,6.4"/>
	<path class="st0" d="M700.8,395.9c2.5,1.8,5,3.5,7.5,5.3"/>
	<path class="st0" d="M584.7,761.2c-0.2,2.1-0.4,4.3-0.5,6.4"/>
	<path class="st0" d="M109.1,392.2c3-0.6,4,1.8,5.3,3.7"/>
	<path class="st0" d="M330.7,218.6c-2.1,1.5-4.2,2.9-6,4.2c0.7,2.9,1.2,4.9,1.7,7"/>
	<path class="st0" d="M745.5,960.4c0.9,2,1.8,3.9,2.7,5.9"/>
	<path class="st0" d="M742.3,553.5c1.6,0.9,3.2,1.8,4.8,2.7"/>
	<path class="st0" d="M72.9,626.5c-0.5,2-1.1,3.9-1.6,5.9"/>
	<path class="st0" d="M1017.1,254.3c2.9,2,5.8,4.1,8.1,5.7c2.4,0.3,4.3,0.5,6.3,0.7"/>
	<path class="st0" d="M51.1,1122.3c2,1.2,3.9,2.5,5.9,3.7"/>
	<path class="st0" d="M475,1129.7c-2,0.5-3.9,1.1-5.9,1.6"/>
	<path class="st0" d="M1272.7,161.6c-1.1,1.9-2.1,3.9-3.2,5.9"/>
	<path class="st0" d="M373.3,362.4c3.1,0.9,3.8,3,3.2,5.9"/>
	<path class="st0" d="M147.5,423.6c-3.5-1.6-6.8-0.6-10.1,0.5"/>
	<path class="st0" d="M91.6,381.5c-2-0.5-3.9-1.1-5.9-1.6"/>
	<path class="st0" d="M63.3,274c-1.9,3.1-3.3,6.7-7.5,7.5"/>
	<path class="st0" d="M147.5,210.1c1,1.6,2,3.3,3,4.9c0.2-0.2,0.5-0.5,0.7-0.7c2.3,1.6,4.6,3.2,6.9,4.9"/>
	<path class="st0" d="M143.8,579.6c-1.8-0.2-3.6-0.4-5.3-0.5"/>
	<path class="st0" d="M235.4,365c-0.1,1.6-0.2,3.2-0.4,5.4c-2.1-0.3-3.5-0.4-4.9-0.6"/>
	<path class="st0" d="M191.7,368.2c0.4,1.8,0.7,3.6,1.1,5.3"/>
	<path class="st0" d="M1554.9,604.7c-0.3,1.6-0.6,3.2-1,5.6c1.6,0.2,3.4,0.5,5.3,0.7"/>
	<path class="st0" d="M357.8,217c-1.6-1.2-3.2-2.5-4.8-3.7"/>
	<path class="st0" d="M668.3,248.4c1.6,1.2,3.2,2.5,4.8,3.7"/>
	<path class="st0" d="M1024.5,320.8c-1.4,0-2.8,0-4.3,0"/>
	<path class="st0" d="M444.1,467.3c-1.4,0.4-2.8,0.7-4.3,1.1"/>
	<path class="st0" d="M74.5,530.1c-0.5,1.4-1.1,2.8-1.6,4.3"/>
	<path class="st0" d="M54.3,1030.7c-0.2,1.4-0.4,2.8-0.5,4.3"/>
	<path class="st0" d="M756.7,975.8c0.5,1.2,1.1,2.5,1.6,3.7"/>
	<path class="st0" d="M68.1,713.3c0.4,1.4,0.7,2.8,1.1,4.3"/>
	<path class="st0" d="M94.8,719.7c0.4,2.1,0.7,4.3,1.1,6.4"/>
	<path class="st0" d="M555.9,726.1c0.9,1.2,1.8,2.5,2.7,3.7"/>
	<path class="st0" d="M84.1,507.2c-1.1,0.4-2.1,0.7-3.2,1.1"/>
	<path class="st0" d="M450.5,1129.7c1.1,0.7,2.1,1.4,3.2,2.1"/>
	<path class="st0" d="M87.3,690.9c0,2.1,0,4.3,0,6.4"/>
	<path class="st0" d="M629.4,856c1.1,1.1,2.1,2.1,3.2,3.2"/>
	<path class="st0" d="M518.6,687.7c1.1,1.1,2.1,2.1,3.2,3.2"/>
	<path class="st0" d="M121.4,895.4c0.7,1.1,1.4,2.1,2.1,3.2"/>
	<path class="st0" d="M772.1,988.1c0.7,1.1,1.4,2.1,2.1,3.2"/>
	<path class="st0" d="M728.5,943.3c0.7,1.1,1.4,2.1,2.1,3.2"/>
	<path class="st0" d="M952.1,408.7c-1.1,0.4-2.1,0.7-3.2,1.1"/>
	<path class="st0" d="M948.9,242.6c-1.1,0.4-2.1,0.7-3.2,1.1"/>
	<path class="st0" d="M678.4,255.3c1.1,0.7,2.1,1.4,3.2,2.1"/>
	<path class="st0" d="M748.7,935.9c-0.2,0.9-0.3,1.8-0.5,2.9c1,0.3,2.1,0.5,3.2,0.8"/>
	<path class="st0" d="M449.4,465.1c-1.1,0.4-2.1,0.7-3.2,1.1"/>
	<path class="st0" d="M260.4,448.1c0.9,2.1,2.8,4.1,0.5,6.4"/>
	<path class="st0" d="M493.1,1158.5"/>
	<path class="st0" d="M1095.9,305.4c-0.9,0.5-1.8,1.1-2.7,1.6"/>
	<path class="st0" d="M524,627c-0.9,0.2-1.8,0.4-2.7,0.5"/>
	<path class="st0" d="M82.5,504c1.6,1.1,3.2,2.1,4.8,3.2"/>
	<path class="st0" d="M1110.8,530.1c-0.7,0.4-1.4,0.7-2.1,1.1"/>
	<path class="st0" d="M748.2,518.9c-0.7,0.3-1.4,0.7-2.1,1.1"/>
	<path class="st0" d="M839.2,788.9c-1.2,0.5-2.5,1.1-3.7,1.6"/>
	<path class="st0" d="M1126.8,522.7c-0.7,0.4-1.4,0.7-2.1,1.1"/>
	<path class="st0" d="M672,554.6c-0.7,0.3-1.4,0.7-2.1,1.1"/>
	<path class="st0" d="M704,921c0.7,0.7,1.4,1.4,2.1,2.1"/>
	<path class="st0" d="M691.2,870.9c0.4,0.4,0.7,0.7,1.1,1.1"/>
	<path class="st0" d="M724.2,938c0.4,0.4,0.7,0.7,1.1,1.1"/>
	<path class="st0" d="M619.3,740.5c0.2,0.4,0.4,0.7,0.5,1.1c0,0.1-0.3,0.3-0.5,0.5"/>
	<path class="st0" d="M144.8,683.5c0.5,0.5,1.1,1.1,1.6,1.6"/>
	<path class="st0" d="M746,965.2c-0.2,0.4-0.4,0.7-0.5,1.1c0,0.1,0.3,0.4,0.5,0.5"/>
	<path class="st0" d="M540,710.1c0.4,0.4,0.7,0.7,1.1,1.1"/>
	<path class="st0" d="M677.3,551.4c-0.4,0.4-0.7,0.7-1.1,1.1"/>
	<path class="st0" d="M376.5,356.9c0-11,1.9-17.4,4.5-27.4c3.3-12.8,0.2-26-1.6-39.1"/>
	<path class="st0" d="M20,254.9c0.5,10.7-5.3,21.9-5.9,33.2c-1.1,19.3,5.1,26,14.8,42.2"/>
	<path class="st0" d="M20,339.2c0,29.9,13,56.4,38.2,71.3c0.7,8.2,2.6,15.4,4.9,23.2c6.1,2.6,11.9,18.3,14.6,24.7
		C83.4,472.1,91,481,101.3,493"/>
	<path class="st0" d="M323.2,191.3c-13.5-7.9-30.6-9.9-44.1-16.8c-14.4-7.4-28.7-2.4-43.8-6c-17-4.1-81.6-28.8-89.8-2.6
		c-8.3,2.4-16.7-0.1-24.9,1.7c-9,2-7.5,6.1-15.5,8.9c-10.5,3.7-34.5-4.6-37.7,11.8"/>
	<path class="st0" d="M379.4,265.2c-8.2,4.4-6.7,22.2-13.5,29.7c-9,10-21.5,11.9-27.3,25.8c-10.2,24.6-6.2,53-21.4,74.7"/>
	<path class="st0" d="M308.4,419.1c-18,2.6-31.3,5.4-38-15.2c-4.9-15.3-8.7-20.6-26.3-22.7c-15.7-1.8-27.7,3.8-29.5,20.7
		c-0.7,7-0.2,21.8,2.8,28.2c7.2,15.3,35.3,17,49.5,20.1"/>
	<path class="st0" d="M95.4,496c-15,3.8-21.6,18.6-26.9,31.6c-2.9,6.9-6.2,13.8-9,20.7c-3.9,9.6-0.4,18-1.8,28.3"/>
	<path class="st0" d="M167.9,518.2c-16.4-1.8-22.4,7.8-39.3-0.6c-6-3-12.8-5.6-18.3-8.4c-11.8-6-10.7-11.1-16.4-23.6"/>
	<path class="st0" d="M268.5,473.8c4.6,22.4-37.1,20.9-44.4,37"/>
</g>
</svg>
