<?xml version="1.0" encoding="utf-8"?>
<!-- Generator: Adobe Illustrator 22.0.1, SVG Export Plug-In . SVG Version: 6.00 Build 0)  -->
<svg version="1.1" id="Calque_1" xmlns="http://www.w3.org/2000/svg" xmlns:xlink="http://www.w3.org/1999/xlink" x="0px" y="0px"
	 viewBox="0 0 612 792" style="enable-background:new 0 0 612 792;" xml:space="preserve">
<style type="text/css">
	.st0{fill:none;stroke:#000000;stroke-width:2;stroke-linecap:round;stroke-linejoin:round;stroke-miterlimit:10;}
</style>
<g>
	<g>
		<path class="st0" d="M147.5,603.5c5.2-0.5,10.3-1.2,15.5-1.5c12.5-0.8,25-1.2,37.5-2.1c16.7-1.2,33.3-2.7,50-3.9
			c5.5-0.4,11-0.7,16.5-1c17.5-1,35-1.9,52.5-3c19.7-1.2,39.3-2.6,59-4c21.5-1.6,43-3.4,64.5-4.9c12.5-0.9,25-1.2,37.5-2.1
			c16.7-1.2,33.3-2.7,50-3.9c6.5-0.5,13-0.7,19.5-1c7.2-0.4,14.3-0.9,22-1.4c0-7.9,0-15.8,0-24.3c-20.5,1.5-41,3.2-61.5,4.6
			c-12,0.8-24,1.2-36,2.1c-12.3,0.8-24.7,2-37,3c-5.2,0.4-10.3,0.7-15.5,1c-12.5,0.7-25,1.2-37.5,2c-16.7,1.2-33.3,2.6-50,3.9
			c-5.2,0.4-10.3,0.7-15.5,1c-12.5,0.7-25,1.2-37.5,2c-16.7,1.2-33.3,2.6-50,3.9c-5.2,0.4-10.3,0.7-15.5,1c-12.5,0.7-25,1.2-37.5,2
			c-10.7,0.7-21.3,1.6-33,2.5c0.5,8,1,16,1.5,23.9"/>
		<path class="st0" d="M20.5,196.5c10,33.8,20,67.7,30,101.5C61,333.8,71.4,369.7,82,405.5c4.5,15.2,9.4,30.3,13.9,45.5
			c1.7,5.8,2.9,11.7,4.6,17.5c3.7,12.9,7.6,25.7,11.5,38.5c8,26.7,16,53.3,24,80c1.8,6.2,3.7,12.3,5.5,18.5c0.3,1.1,0,2.3,0,3.5"/>
		<path class="st0" d="M409.5,255c-8.3-2-16.6-4.3-25-5.9c-6.1-1.1-12.3-1.2-18.5-1.6c-18.7-1.1-37.3-2.5-56-2.8
			c-10.8-0.2-21.4-0.2-32-2.5c-7.1-1.6-14.7-1.3-22-2.2c-7.7-0.9-12.9,3.7-18.5,7.6c-6.7,4.7-13.6,9.1-21.5,11.4
			c-10.3,3-20.8,5.2-30.9,8.7c-5.8,2-11,5.9-16.6,8.8c-7.3,3.9-14.6,7.9-22,11.4c-5.1,2.4-8.1,6.6-10.4,11.1
			c-4.9,9.9-10.1,19.6-15.8,29.1c-6.5,10.8-10.2,23.2-15.4,34.8c-2.7,6-5.9,11.7-8.9,17.5"/>
		<path class="st0" d="M568.5,469.5c-7.3-0.7-14.8-0.7-22-2.2c-8.6-1.8-16.9-5.2-25.6-7.1c-2.9-0.6-6.4,1.2-9.4,2.3
			c-9.6,3.4-19.3,6.3-29.5,7.5c-7.5,0.9-13,5.8-19,9.9c-15.6,10.5-31.3,20.7-47,31.1c-12.4,2.4-22.9,9.7-34.5,14
			c-8.9,3.3-21.1,0.5-27.6-6c-5.8-5.8-5-14,1.5-18.1c4.4-2.8,8.3-6.3,12.8-9.7c3.2,0.9,6.6,1.6,9.8,2.9c4.5,1.8,5.4,4.6,2.5,8.4
			c-4.2,5.5-8.9,10.7-12.7,15.4c-7.9,0.9-11.9-4-16.7-7.4"/>
		<path class="st0" d="M-74.5,434.5c11.8,9.5,23.7,19,35.5,28.5c19,15.3,38,30.6,57,46c13.2,10.8,26.3,21.7,39.5,32.5
			c19.3,15.7,38.7,31.3,58,47c7.9,6.4,15.7,13,23.5,19.5c1.4,1.1,2.7,2.3,4,3.5"/>
		<path class="st0" d="M480,366c-4.5,0-9-0.4-13.5,0.1c-5.7,0.6-11.3,2.1-17,2.9c-11.3,1.4-22.2,4.3-33,8
			c-5.4,1.9-11.1,3.1-16.5,5.1c-8.7,3.3-16.4,8.1-22.6,15.4c-8.2,9.8-16.4,19.6-25,29c-10.2,11.1-16.9,24.5-25,37
			c-0.7,1.1-1.6,2-2.5,3"/>
		<path class="st0" d="M541.5,214c-7.4,0.2-13.9,3.1-20.5,6c-19.8,8.8-40.4,15.2-61.5,19.8c-8.5,1.9-17.3,2-26,3.2
			c-9.9,1.4-19.5,3.6-27,11"/>
		<path class="st0" d="M561.5,323.5c-2-0.8-3.9-2.2-6-2.4c-11-1.4-21.7-3.4-32.6-5.6c-13.9-2.8-27.7-8.2-42.4-6.6
			c-3.4,0.4-7-1.3-10.5-1.8c-8.2-1.1-15.7,1.2-21.9,6.1c-7.5,6-13.7,13.6-21.3,19.7c-5.5,4.5-12.1,7.7-18.4,11.1
			c-11.6,6.2-23.3,12-35,18.1c-8.5,4.4-16.7,9.6-25.6,13.3c-9.3,3.9-16.2,10.4-21.2,18.3c-9.3,14.6-22.8,24.6-35.7,35.4
			c-5.2,4.3-10.5,8.5-15.4,13.1c-1.8,1.7-3,2.5-5.6,2.5c-12,0.2-24,0.9-36,1.3c-5.6,0.2-13-4.6-16.4-10.6
			c11.7-0.6,23.1-1.2,34.5-1.8c0-0.5,0-0.9,0.1-1.4c-5.9-5.2-11.6-10.2-20.7-9.3c-9.8,1-19.7,0.8-29.5,1.2c-0.8,0-1.7,0.6-2.5,1"/>
		<path class="st0" d="M323,315c-5,3.3-9.7,7.5-15.1,9.8c-6.1,2.6-12.8,4.1-19.4,5.1c-7.8,1.2-15,1.9-21.3,8.3
			c-5.4,5.5-13.2,9-20.3,12.7c-10.1,5.3-19.3,11.6-27,20.1c-6.4,7-13.1,14.1-21.6,18.3c-9.2,4.6-12.2,13.9-18.4,20.7
			c-0.2,0.2,0,0.6,0,1"/>
		<path class="st0" d="M426,438.5c-6.6,0.4-11.8,4.4-16.3,8.2c-18.3,15.4-37.9,29.2-54.2,46.8c-7.2,7.8-14.2,15.8-21.6,23.4
			c-2.4,2.5-5.4,4.4-8.5,6c-5.1,2.6-10.1,0.1-15-1.4c-1.7-0.5-3.3-1-5-1.5"/>
		<path class="st0" d="M190.5,330.5c-6.3,0.3-12.7,0.5-19,1.1c-1.6,0.1-3.2,1.3-4.5,2.4c-6.7,5.8-11,13.2-15.1,20.9
			c-3.4,6.4-6.5,12.9-11.8,18.2c-2.6,2.6-3.8,6.7-5.1,10.4c-3.3,8.9-6.7,17.9-9.5,27c-1.9,6.1-6.5,9.8-10.1,14.5"/>
		<path class="st0" d="M354,332c-6.1,4.2-13,7.3-17,14c-1.3,2.2-2.4,4.6-3,7c-1.8,7.6-7.6,10.2-14,12.6c-5.7,2.1-11.3,4.4-16.5,7.5
			c-12.2,7.3-24,15.1-33.7,25.8c-9.1,10-10.2,28.6-1.3,38.5c1.7,1.9,4.6,2.7,6.9,4.1"/>
		<path class="st0" d="M250,282c-9,6-18.5,11.4-26.9,18.2c-9.2,7.5-17.6,16-26.1,24.4c-10,9.9-15.8,22.8-24.1,33.9
			c-7.6,10.1-16,19.7-23.9,29.6c-2.8,3.6-5.1,7.6-7.5,11.5c-0.4,0.7-0.1,2-0.1,3"/>
		<path class="st0" d="M304,417.5c-0.7-2.2-1.2-4.4-2-6.5c-3.7-9.5-8.2-11.9-17.5-9c-3.4,1.1-6.7,2.5-10,4c-3,1.3-5.3,5.7-4.5,9
			c2,8.1,4.7,15.9,11.5,21.5"/>
		<path class="st0" d="M100.5,464c9.7-0.4,19.3-0.8,29.8-1.2c-1-1.6-1.6-2.7-2.3-3.8c0-0.1-0.4,0.1-0.5,0c-8.9-8.4-19.5-8.1-30.5-6"
			/>
		<path class="st0" d="M491.5,409c-4.7,2-9.3,4.2-14,6c-10.3,3.8-20.9,6.7-30.9,11.2c-8.8,4-17.1,9.2-23.6,16.8
			c-8.8,10.2-20.1,17.6-30.4,26.1c-8.3,6.9-16.1,14.6-24.1,21.9"/>
		<path class="st0" d="M181,268.5c-5.3-1.8-9.7,1.5-14.5,2.5c-8.5,1.9-17.1,3.8-25.5,6.1c-3.7,1-7.6,2.3-10.1,5.9
			c-2.2,3.2-5.2,5.3-8.9,7.2C113.8,294.6,106,300,98,305c-2.2,1.3-4.4,2.6-6.5,4c-2.4,1.7-4.8,3.5-7,5.5c-4,3.6-8.1,7-14,6.5"/>
		<path class="st0" d="M150.5,504c0.8-0.3,1.7-0.9,2.5-1c9.3-0.4,18.7-0.3,28-1.1c9.5-0.8,16.4,2.9,22.1,10.1c0.8,1,2.2,1.8,3.5,2
			c6.2,0.8,10,5.7,15,8.6c0.2,0.1,0,1,0,2.1c-11.5,0.6-23,1.2-34.6,1.8c0,0.5-0.1,0.9-0.1,1.4c5.1,4.7,10.6,8.8,17.7,10.2"/>
		<path class="st0" d="M130.5,463c7.2,2,13.6,5.2,18.1,11.4c0.7,1,2.6,1.1,3.9,1.6c5.6,2,10.2,5.5,14.4,9.4
			c-0.1,0.4-0.2,0.9-0.4,1.3c-11.6,0.6-23.1,1.2-34.7,1.8c-0.1,0.5-0.2,1-0.3,1.5c4.1,3,8.2,6,12.4,9c0.4,0.3,1,0.5,1.5,0.5
			c12.8-0.6,25.7-1.3,38.5-2"/>
		<path class="st0" d="M325.5,467c-6.4,9.6-13.1,18.9-21.4,27.1c-3.9,3.8-7.6,7.9-8.1,13.9c-0.5,7,5,11.3,11.5,8.5
			c6.4-2.8,10.5-8.1,14.5-13.4c3.5-4.5,3.1-9.8,2.9-16.1c-3.1-0.9-6.5-1.9-9.9-2.9"/>
		<path class="st0" d="M216.5,469c-7-1.5-12.6-5.5-17.7-10.2c0-0.5,0.1-0.9,0.1-1.4c11.7-0.6,23.5-1.3,35.2-1.9c0-0.5,0-0.9,0-1.4
			c-6.4-5-12.3-10.3-21.7-9.3c-9.4,1-19,0.8-28.5,1.2c-0.8,0-1.7,0.6-2.5,1"/>
		<path class="st0" d="M167.5,449c-2.3-2.2-4.6-4.4-7-6.5c-3.9-3.3-8.3-3.8-13.5-3.2c-8.3,1-16.6,0.8-25,1.2
			c-1.9,0.1-3.7,0.9-5.5,1.4"/>
		<path class="st0" d="M235.5,419.5c-1.3-0.7-2.9-1.1-4-2c-5.8-4.9-11.8-8.4-20-7.6c-10.9,1-22,1.1-32.3,1.5
			c-9.3,8.7-15,20.9-28.7,22.6c-3.7,0.2-7.3,0.4-11,0.6"/>
		<path class="st0" d="M217.5,441.5c-1.2-0.5-2.6-0.7-3.5-1.5c-7.3-6.8-15.7-9.1-25.5-8c-8.5,0.9-17,1.1-25.5,1.6"/>
		<path class="st0" d="M171.5,477c2,1.8,4.1,3.6,6,5.5c4,3.9,8.5,4.7,14,4.1c10.1-1.1,20.3-1.5,30.5-2.1"/>
		<path class="st0" d="M159.5,432c1.7,1.5,3.5,2.9,5,4.5c6.8,7.4,15.7,6.8,24.5,6.5c7.7-0.3,15.3-0.6,23-1c0.7,0,1.3-0.3,2-0.5"/>
		<path class="st0" d="M180,412c3.8,2.8,7.6,5.7,11.5,8.5c0.5,0.4,1.3,0.5,2,0.5c12.8-0.5,25.7-1,38.5-1.5"/>
		<path class="st0" d="M250.5,531c0.7,1,1.1,2.4,2,2.9c4.7,2.8,8.6,6.6,14.4,7.9c2.9,0.6,5,4.4,7.6,6.7c4.8,4.2,10.2,5,16.5,4.2
			c7.9-1,16-0.8,24-1.2c1.7-0.1,3.3-0.6,5-1"/>
		<path class="st0" d="M148,474.5c-9.5,0.5-19,1-28.5,1.5c-2,0.1-4,0-6.2,0.6c4.7,6.2,10.7,9.9,18.2,11.4"/>
		<path class="st0" d="M240,536.5c-9.5,0.5-19,1-28.5,1.5c-2,0.1-4,0-7.2,0c1.5,1.9,2.3,3.1,3.2,4c6.4,5.8,13.8,7.9,22.5,7.1
			c9.8-0.9,19.7-1.1,29.5-1.6"/>
		<path class="st0" d="M203,512.5c-9.5,0.5-19,1-28.5,1.5c-2,0.1-4,0-6.2,0.6c4.7,6.2,10.7,9.9,18.2,11.4"/>
		<path class="st0" d="M125.5,289.5c-4.7,9.3-9.4,18.6-14,28c-4.1,8.5-9.3,16.5-11.1,26c-2.1,11.1-5.4,22.2-5.1,33.5
			c0.1,5-0.2,8.7-3.2,12.6c-1.1,1.5-0.2,4.5-0.2,6.9"/>
		<path class="st0" d="M195.5,494c7.1,7.2,15.1,10.9,25.5,8.1c3.6-0.9,7.6,0.1,11.5-0.2c2.4-0.2,4.8-1.1,7.1-1.6
			c0.1-0.4,0.3-0.9,0.4-1.3c1.8,2,3.6,4,5.5,6"/>
		<path class="st0" d="M91.5,426c2.3,0.8,4.7,1.5,7,2.6c1.1,0.5,2,1.6,3,2.4c5.7,4.9,11.8,7.2,19.5,5.2c3.9-1,8.3-0.1,12.5-0.2
			c1.7-0.1,3.3-0.6,5-1"/>
		<path class="st0" d="M129,428.5c8.1-2.1,13.9-7.3,18.5-14c2.5-3.6,2.1-11.3-0.8-14.8c-10.1,6.1-15.5,16.1-21.9,25.9
			c-6.3,0.3-13.3,0.5-20.3,1c-2,0.1-4,0.9-6,1.4"/>
		<path class="st0" d="M91.5,418c6.9-2.3,11.5-8.5,11.5-15.5c0-2.3,0.3-4.7-0.1-7c-0.3-1.6-1.3-3.8-2.5-4.3c-1.3-0.5-4,0.3-4.8,1.4
			c-2.5,3.7-4.5,7.9-6.6,11.9c-0.8,1.6-1.4,3.3-2,5"/>
		<path class="st0" d="M305,327c0.3,0.7,0.5,1.6,1,2c6,3.7,8,9.6,9,16c0.2,1.2,0.4,2.5,1,3.5c2.6,4.5,4.5,9.1,3,14.5
			c-0.2,0.6,0.3,1.3,0.5,2"/>
		<path class="st0" d="M236,496c-2.8-1.8-2.9-3.8-0.5-6c4.6-4.2,9.2-8.5,14-12.5c2.4-2,5.1-3.8,8-5c6.1-2.5,9.9,2,8.9,6.9
			c-2,9.5-7.5,16.9-15.4,22.5c-1.7,1.2-3.6,2-5.5,3"/>
		<path class="st0" d="M85,312.5c-5.9,0.4-10.9,2.8-14.4,7.5c-2.8,3.8-2.1,7.2,2,9.9c8.2,5.4,17.1,7,26.5,3.1c1.3-0.5,2.7-0.7,4-1"
			/>
		<path class="st0" d="M233.5,491.5c-12.3,0.7-24.7,1.4-37,2c-1.3,0.1-2.7-0.3-4-0.5"/>
		<path class="st0" d="M204.5,473c-0.7-1-1.1-2.4-2-2.9c-4.5-2.7-8.3-6.6-13.9-7.8c-2.3-0.5-3.8-3.8-6.1-5.2
			c-4.6-2.9-9.4-5.5-12.6-7.3c-6.2,0.5-10.5,0.9-14.9,1.2c-7,0.5-14,1.5-21,1.3c-3.2-0.1-6.5-2.2-9.5-3.8c-4.1-2.3-8-4.9-12-7.4"/>
		<path class="st0" d="M302.5,540c-9.2,0.5-18.3,1-27.5,1.5c-1.8,0.1-3.7,0.6-5.5,1"/>
		<path class="st0" d="M323.5,551c-2.5-1.7-4.9-3.5-7.5-5c-3.6-2-7.5-3.4-10.9-5.6c-3.1-2-5.8-4.5-8.5-6.9
			c-5.4-4.6-11.6-5.6-18.5-5.1c-7.6,0.6-15.3,0.7-23,1.1c-1.5,0.1-3,0.5-5.2,0.9c-6.4-2.5-13.7-4.7-17.8-11.9
			c-0.5-0.8-1.9-1.4-2.9-1.5c-6.6-0.6-10.7-5.4-15.5-9.1"/>
		<path class="st0" d="M225.5,485c-2.7-1.8-5.2-3.8-8-5.5c-4-2.3-8.1-4.4-10.8-5.8c-6,0.5-10.3,0.9-14.7,1.2c-7,0.5-14,1.1-21,1.4
			c-1.5,0.1-3.1-0.7-4.5-1.5c-5.1-2.6-10.8-4.7-13.5-10.5"/>
		<path class="st0" d="M265.5,516c-9.2,0.5-18.3,1-27.5,1.5c-1.8,0.1-3.7,0.6-5.5,1"/>
		<path class="st0" d="M186,461.5c-4.5,0.5-9,1.1-13.5,1.5c-6.5,0.5-13,0.8-19.5,1c-1.7,0-3.5-0.3-5-1c-5-2.6-10.4-4.7-13.5-9.9"/>
		<path class="st0" d="M271.5,445.5c-7.5,7.9-15.1,15.9-21.1,22.3c-12.4,0.6-22.4,1-32.4,1.5c-0.1,0.4-0.3,0.8-0.4,1.2
			c4,4.5,8.6,8.4,15,9.6c1.8,0.3,3.7,0.4,5.5,0.5"/>
		<path class="st0" d="M192,427.5c-9,0.3-18,0.7-27,1"/>
		<path class="st0" d="M244.5,505c-11.3,0.7-22.7,1.3-34,2"/>
		<path class="st0" d="M271,444.5c-5.1-5.4-11.1-9.2-18.5-10.5"/>
		<path class="st0" d="M258.5,508c5.9,6.8,14.6,9.7,21.5,15c1.6,1.2,2.7,3,4,4.5"/>
		<path class="st0" d="M222.5,525c7.2,2,13.5,5.2,18.1,11.4c1.1,1.4,4.1,1.1,5.8,2.2c4.1,2.6,8,5.6,12,8.4"/>
		<path class="st0" d="M175,417.5c7.1-0.1,11.8,4.8,17,8.5c1.1,0.8,2.3,1.3,3.5,2"/>
		<path class="st0" d="M187.5,497.5c-1.8-1.2-3.6-2.4-5.5-3.5c-4.7-2.6-8.9-6.3-14.5-7"/>
		<path class="st0" d="M179.5,446.5c2,1.5,4,2.9,6,4.5c3.8,3.1,8.2,5.1,13,6"/>
		<path class="st0" d="M196.5,424.5c2,1.2,4.1,2.2,6,3.5c4.3,3,8.6,6.1,14,7"/>
		<path class="st0" d="M251,465c-4.8-4.2-10-7.9-16.5-9"/>
		<path class="st0" d="M334,335c-4.9,3.8-11.1,6.4-12.5,13.5"/>
		<path class="st0" d="M147.5,503.5c1.8,1.2,3.6,2.5,5.5,3.5c4.7,2.5,8.8,6.5,14.5,7"/>
		<path class="st0" d="M247.5,469c-2.2,3-4.3,6-6.5,9c-2.5,3.3-5.9,6.2-5,11"/>
		<path class="st0" d="M323,326c-1.8,3.5-3.7,7-5.5,10.5"/>
		<path class="st0" d="M126,425.5c2.7,4.9,7.8,6.4,12.5,8.5"/>
		<path class="st0" d="M434.5,330.5c-2.3,0.8-4.7,1.7-7,2.5"/>
		<path class="st0" d="M315,310.5c-0.2,2-0.3,4-0.5,6"/>
		<path class="st0" d="M103.5,473c3,1,6,2,9,3"/>
		<path class="st0" d="M237,492.5c-0.3,2.5-1.6,5.2,1.5,7"/>
	</g>
</g>
</svg>
