<?xml version="1.0" encoding="utf-8"?>
<!-- Generator: Adobe Illustrator 22.0.0, SVG Export Plug-In . SVG Version: 6.00 Build 0)  -->
<svg version="1.0" id="Calque_1" xmlns="http://www.w3.org/2000/svg" xmlns:xlink="http://www.w3.org/1999/xlink" x="0px" y="0px"
	 viewBox="0 0 1000 750" style="enable-background:new 0 0 1000 750;" xml:space="preserve">
<style type="text/css">
	.st0{fill:#414141;}
	.st1{fill:#FEFEFE;}
</style>
<path class="st0" d="M859.7,751.8c-0.3-3,0.7-5.8,0.6-8.8c-0.1-1.9-0.2-3.8-2.4-4.7c-1-0.4-0.8-1.3-0.8-2c0-2.1,0.1-4.3,0-6.4
	c-0.2-3-1.2-5.4-3.9-7.1c-0.7-0.4-1.5-0.8-1.4-1.8c0.2-3.3-0.4-6.6,0.6-9.8c1.2-4.2,0-8.1-1.9-11.7c-0.7-1.4-1.5-2.6-1.3-4.2
	c0.1-1.2-0.3-2.3-1-3.2c-0.6-0.7-0.8-1.3-0.9-2.3c-0.1-1.6-0.3-3.6-2.4-4.3c-0.4-0.1-0.9-0.8-0.9-1.2c0-6.2-4.4-9.8-8.1-13.7
	c-1.5-1.6-1.9-5.1-0.5-6.4c1.9-1.9,5.3-1.9,7.2,0.2c0.8,0.9,1.2,1.2,2.5,0.7c2.5-1,6.9,1.6,7.8,4.2c0.7,1.9,2.8,2.1,3.8,3.8
	c2.4,3.7,4,7.4,3.3,11.8c-0.3,2.3,0.9,3.8,2.9,4.4c2.6,0.7,4.9,1.4,6.5,4.1c1.2,1.9,3.6,1.2,5.4,0.2c0,3.9,0,7.9,0,11.8
	c-1.2-0.1-1.9-0.8-2.1-2c-0.3-1.8-1.8-1.2-2.8-1.1c-1.1,0.1-2.6,0.5-2.5,1.9c0.2,2.7-1,5.3-0.1,8c0.2,0.5-0.1,1.2,0.7,1.6
	c2.4,1.1,2.6,3.9,0.5,5.7c-0.7,0.6-0.8,1.3-0.1,1.8c2.2,1.3,4,3.2,6.5,4c0,1.1,0,2.1,0,3.2c-0.9,0-1.2,0.4-1.7,1.3
	c-1.1,2.3-1,4.9-2.2,7.2c-1.4,2.8-1,6.2,0,8.7c0.9,2.2,1.2,4.3,1.7,6.5C868.3,751.8,864,751.8,859.7,751.8z"/>
<path class="st0" d="M874.7,654.1c-2.4,0.2-2.5-2.2-3.6-3.4c-1-1.1-1.5-2.6-2.4-3.8c-0.8-1.2-2-1.8-3.5-1.2
	c-1.7,0.6-1.3,1.8-0.9,3.1c0.3,0.8,0.4,1.5,0.6,2.3c0.1,0.5,0,1.1-0.4,1.5c-1.2,0.9-5.5,0.2-6.2-1.3c-0.6-1.3-1.5-2.3-2.6-3
	c-1.5-1.1-1.3-2.2-0.9-3.7c0.5-1.7,1.7-2,2.9-1.6c5.3,1.4,7-2.2,8.3-6c0.9-2.8,3.1-3.9,5.4-4.8c1.1-0.4,1.5-0.8,1.2-1.9
	c-1-2.9-4-4.6-7-3.4c-1.3,0.5-2.7,0.5-4,1.6c-1.3,1.1-2.6-0.4-3.3-1.6c-1.4-2.3-2.6-4.6-4-6.8c-1.6-2.6,0.2-8.2,2.8-9.6
	c1.1-0.6,1,1.6,2.1,0.4c1.1-1.1,1.7-3.7,0.3-4.5c-1.3-0.7-1.8-1.9-2.8-2.7c-2-1.3-3.3-1-4.2,1.2c-0.1,0.2-0.1,0.5-0.2,0.8
	c-0.7,1.5-0.8,4-3.1,3c-1.5-0.7-0.9-2.9-0.6-4.5c0.2-0.9,0.7-1.7,0.3-2.8c-0.4-1.2,0.6-1.9,1.4-2.6c1.6-1.4,1.6-3.5-0.2-4.4
	c-2.3-1.1-2.6-3.1-2.6-5.1c-0.1-2.1-0.2-3.9-2.7-4.5c-0.7-0.2-1.1-0.7-1.2-1.3c-0.2-1.9-2.1-2.2-2.8-3.2c-2-3-3.5-6.3-5.9-9.1
	c-0.5-0.6,1-2.1,2.2-2.3c1-0.1,2.5-0.8,3.1,1.1c0.6,1.8,2,2.9,3.8,3.8c1.8,0.9,3.8,2.1,4.2,4.4c0.5,2.9,2.3,4.4,4.9,4
	c3.5-0.6,3.8,1.8,4.1,3.9c0.3,1.8,1.7,2.5,2.8,2.7c2.5,0.3,2.2,1.9,1.5,3.1c-1.1,1.8-0.7,3.5-0.5,5.4c0.3,2.2,1.7,2.8,3.5,3
	c1.5,0.2,3.1,0.3,3.6-1.7c0.2-0.8,1-0.7,1.4-1.1c0.4-0.4,0.8-0.9,1.3-0.5c0.6,0.4,0,1-0.1,1.4c-0.6,2,2.3,7.3,4.3,8
	c0,1.1,0,2.1,0,3.2c-3,2-3,5.5,0,7.5C874.7,629.4,874.7,641.8,874.7,654.1z"/>
<path class="st0" d="M527.3,751.8c0.1-4.5-0.9-8.4-5.3-10.6c-1.3-0.6-2.1-1.9-1.4-3.4c0.6-1.3,1.9-1,3.1-1.1c4.6-0.4,9,0.8,13.5,0.6
	c1.7,0,3.2,0.2,4.5,1.4c1.9,1.7,4.2,2.2,6.7,2.4c0.7,0.1,1.4,0.3,1.9,0.7c3.5,2.9,7.5,3.6,11.8,2.9c1.5-0.2,2.7,0,4,0.7
	c2.5,1.4,4.9,1.1,7.2-0.5c3.8-2.8,5.2-2.8,9.2-0.1c0.7,0.4,1.3,1.1,2.1,1c4.6-0.5,8.4,1.7,12.2,3.9c0.3,0.2,0.6,0.4,1,0.4
	c6.1,0,12.2,1.4,18.2-1.1c3.7-1.5,5.8-0.7,7.9,2.7c-26.3,0-52.6,0-78.9,0c0.1-1.6-1.1-2.8-2.1-3.4c-1.1-0.7-2.4-2.1-4-1.2
	c-1.5,0.8-0.8,2.3-0.9,3.6c0,0.3,0,0.7,0,1.1C534.5,751.8,530.9,751.8,527.3,751.8z"/>
<path class="st0" d="M501,751.8c0.7-3.5,0.1-6.8-1.6-10c-1.3-2.6-3.4-3.3-5.8-1.6c-0.8,0.6-1.5,1.2-2.6,1.4
	c-3.3,0.6-5.2-0.6-5.5-4.2c-0.2-1.8-0.9-2.3-2.3-2.5c-1.2-0.2-1.8-0.5-1.9-2.1c-0.1-2,0.4-4.4,1.7-4.8c1.9-0.7,4.7-1.3,6.4,1
	c1.7,2.1,3.1,2.4,4.7,0c0.4-0.6,1.1-1,1.4-1.6c0.6-1.6,1.6-1.5,3.1-1.3c6.4,0.5,10.7,4.8,15.1,8.6c1.6,1.3,1.7,4.1,3.7,5.4
	c0.2,0.1,0.3,0.8,0.1,1c-1.9,2.4-1.7,5.9-4.3,7.8c-1.2,0.9-1.1,1.9-1,3.1C508.5,751.8,504.8,751.8,501,751.8z"/>
<path class="st0" d="M820.5,751.8c0.7-2.3,0.5-4.2-1.5-5.9c-0.9-0.7-1.2-2.1-1.2-3.4c0.1-3.5-0.6-7,0-10.6c0.1-0.7-0.3-1.6,0.5-2
	c1.6-0.9,0.8-2,0.2-3.1c5-0.9,7.2,0.8,7.4,5.6c0.1,2.1,0.3,4.2,0.6,6.3c0.3,1.6,0.9,3.1,2.2,4.4c2.3,2.3,2.7,5.5,2.5,8.7
	C827.6,751.8,824.1,751.8,820.5,751.8z"/>
<path class="st0" d="M774.8,751.8c-1.2-2.1-1.1-4.3-0.6-6.6c0.6-2.5-0.7-5-0.1-7.6c0.7-2.7,2.1-3.7,4.7-3.5c1.9,0.2,3.7,1.1,5.6,1.4
	c1.2,0.2,2.2,1.5,0.9,3.3c-0.8,1.1-2.5,2.7-0.6,4.4c1.1,1,2.6,0.6,3.8,0.8c1.1,0.2,2.2-0.1,2.6,1.1c0.4,1.2-0.2,2.2-1.1,3.1
	c-1.1,1.1-2,2.4-3,3.6C783.1,751.8,779,751.8,774.8,751.8z"/>
<path class="st0" d="M687.9,751.8c0-0.9,0-1.8,0.1-2.7c0.1-1.7,0.9-2.8,2.7-3.1c2.5-0.4,4.8-2.4,7.7-1.3c0.8,0.3,1.6-0.7,1.9-1.6
	c0.3-0.8,0.4-1.6,0.8-2.3c0.4-0.8,1-1.8,1.9-1.6c1,0.2,0.3,1.4,0.5,2.1c0.9,3.6-1.5,6.9-1,10.4C697.5,751.8,692.7,751.8,687.9,751.8
	z"/>
<path class="st0" d="M874.7,680.4c-1.4-1.3-2.8-2.7-5.1-2.2c-0.7,0.2-1.1-0.3-1.5-0.9c-1.8-2.6-0.7-7.1,2.3-8.2
	c1.5-0.6,2.7-1.6,4.4-1.7C874.7,671.8,874.7,676.1,874.7,680.4z"/>
<path class="st0" d="M845.2,751.8c0.8-1.1,1.7-2.2,1.9-3.6c0.2-1,0.8-1.8,2-1.7c1.1,0.1,2,0.6,2,2c0,1.1,0.3,2.2,0.5,3.4
	C849.5,751.8,847.3,751.8,845.2,751.8z"/>
<path class="st0" d="M806.5,751.8c0-0.4,0-0.9,0-1.3c0.1-1-0.4-2.3,1.3-2.4c1.6-0.1,2.5,0.7,2.9,2.1c0.1,0.5,0.1,1.1,0.1,1.6
	C809.4,751.8,807.9,751.8,806.5,751.8z"/>
<path d="M874.7,617.1c-3-2-3-5.6,0-7.5C874.7,612.1,874.7,614.6,874.7,617.1z"/>
<path class="st0" d="M533.7,0.7c3.1,0,6.1,0,9.2,0c0,1.9,1.5,3.3,2,5.1c0.3,0.9,1.6,1.6,3,1.3c0.6-0.1,1-0.6,0.8-1.1
	c-0.8-1.8,0.4-3.5,0.1-5.2c8.7,0,17.3-0.1,26-0.1c25.3,0,50.6,0,75.9,0c2.4,0,5-0.4,5.8,2.9c0.5,1.8,2,0.1,3.1,0.7
	c-0.7,1.7-0.2,3.2,1,4.5c0.5,0.5,1.1,0.7,1.7,0.4c0.5-0.3,0.6-0.9,0.3-1.4c-1-1.7-0.3-4.2-2.7-5.3c-0.6-0.3-0.9-1.6,0.7-1.8
	c2.5-0.3,4,0.6,5,3.9c0.8,2.7,3.1,4.4,3.6,7.1c0.1,0.4,0.7,0.5,1.2,0.4c0.6-0.1,0.5-0.6,0.5-1c0.2-2.5-1.7-4.2-2.3-6.4
	c-0.3-1-0.5-2-1.3-2.9c-0.6-0.7-0.1-1.1,0.8-1c2,5.2,4.5,10.2,7.2,15.1c1.7,3.1,2.8,6.5,5.5,9c0.1,0.1,0.1,0.2,0.1,0.2
	c-1.7,5.2,4.5,7.8,4.2,12.6c-0.1,1.1,1.8,2.3,3.3,2.8c1.5,0.6,3,1.2,4.4,1.8c0.4,0.2,0.9,0.3,0.8,0.9c-0.1,0.6-0.6,0.8-1.1,0.9
	c-3.7,1-3.7,1-1.6,4.1c0.3,0.5,0.8,1.2,0.7,1.7c-0.5,3.4,1.3,6.2,2.4,9.2c0.2,0.6,0.3,1.4,1.1,1.7c1.5,0.5,1.8,1.9,1.8,3.2
	c0.1,2.1,1.1,3.8,2.3,5.6c1.2,1.6,1.9,3.5,2.9,5.3c0.5,0.9,1,1.8,1.5,2.7c1.1,1.8,2.4,3.6,2.5,6c0.1,4.1,3.2,8,7.1,9.3
	c3.9,1.3,5.1,3.2,4.7,7.2c-0.2,1.8,0,3.3,1.6,4.7c3.4,3,5.4,7.2,8.5,10.6c1.6,1.8,1.9,3.9,2.5,6.1c0.5,2.1,1.6,4.1,3.7,5.3
	c2.2,1.3,4.2,2.8,5,5.6c0.4,1.4,1.7,2.5,3.5,2.4c1.1,0,1.6,0.5,1.6,1.6c-0.2,5,2.7,9,4.5,13.3c0.8,1.9,2.4,3.7,0.6,5.9
	c-0.5,0.5,0.1,1.2,0.6,1.6c2.1,2.1,4.1,4.1,6.2,6.2c0.4,0.4,1.2,0.6,0.7,1.4c-2.5,4.7,0.7,7.4,3.8,9.5c2.8,1.8,5.4,3.6,7.2,7.1
	c0.8-2.4,0.1-4.2,0.1-5.9c0-1.7,0.6-2.2,2.1-1.2c2,1.5,3.9,3,6,4.5c0.8,0.5,1,1.2,1,2.1c-0.2,2.8,0.7,5.1,2.6,7.3
	c2.6,3.1,2.5,3.3-0.3,7c-1.1-0.7,0.2-1.6-0.2-2.4c-0.4-0.7-0.6-1.5-1.6-1.6c-0.7-0.1-1.3,0-1.6,0.6c-0.4,0.7-0.3,1.3,0.2,2
	c1.1,1.5,0.5,3.9,2.3,4.9c2,1.1,2.9,2.5,2.8,5c0,1.4,1.5,2.7,3,3c2.4,0.5,4.8,1.3,7.5,0.4c1.3-0.4,3,0.2,4.4,0.9
	c2.9,1.4,5.5,3.3,8.8,3.7c1.5,0.2,0.8,1.7,0.9,2.7c0.1,1-0.4,1.4-1.4,1.5c-2.1,0.2-4.1,0.5-6.3-0.3c-2.2-0.7-4.8-1.1-6.7,1.6
	c-1.1,1.6-3.1,2.1-4.9,0.4c-0.7-0.7-1.6-1-2.5-0.6c-1.1,0.4-0.7,1.5-0.7,2.4c0,1.9-0.3,3.9,1,5.6c1.6,2.2,0.6,4.9,1.2,7.2
	c0.7,2.4,0.1,4-1.1,5.9c-0.8,1.4-2.2,1.4-3.1,2.3c0.1,0.7,0.6,0.6,1.1,0.6c3.5,0.2,3.9,0.8,2.8,4.1c-0.7,2.2,0.5,4.2,2.8,4.5
	c0.6,0.1,1.4-0.1,1.5,0.8c0,0.9-0.8,0.7-1.4,0.8c-0.7,0.1-1.4,0.1-2.1,0.3c-2.9,1.1-3.2,0.9-3.3-2.4c0-1.5,0.9-3.7-2.6-2.5
	c-1.5,0.5-3.9-1.2-5.8-2.1c-0.8-0.4-1.5-0.8-2.4-1c-1.4-0.4-2.9-1-1-2.8c0.6-0.5-0.6-4-1.4-4c-2.5,0-3.4-1.9-4.5-3.6
	c-0.2-0.4-0.4-0.8-0.9-0.7c-0.6,0.1-0.5,0.6-0.4,1c0.5,1.2-0.4,1.6-1.2,2c-2.3,1.1-2.7,2.9-2.2,5.2c0.1,0.3,0.3,0.7,0.3,1
	c0,1.1,0.5,2.3-0.4,3.1c-1.3,1.1-1.1-1-2.1-1.3c-1.4-0.3-2.4-1.8-3.3-3c-1.1-1.6-1.9-3.4-4.5-2.8c-1.1,0.2-0.7-1.3-1.5-1.6
	c-3.3-1.6-5.5-4.6-8-7c-1.1-1.1-2-1.6-3.3,0.1c-0.8,0.9-1.2,1.2-0.1,1.9c0.9,0.6,0.8,1.5,0.8,2.4c0,0.6,0.2,1.4-0.7,1.5
	c-0.6,0-1.3-0.3-1.4-1c-0.1-1.4-1-1.5-2.1-1.5c-0.3,0-0.9,0-1-0.2c-1.4-2.4-4.2-2.7-6.2-4.1c-3.6-2.6-7.3-5.2-11.1-7.6
	c-2-1.3-4.7-1.7-5.8-4.3c-0.6-1.6-2.5-1.3-3.8-2.1c-2.1-1.4-2.6-3.6-4-5.2c-2.3-2.6-4-5.7-8.1-6.8c-3.2-0.9-6.8-1.3-9.6-2.8
	c-2.6-1.4-4.7-1.6-7.1-0.4c-1,0.5-1.9-0.2-2.8-0.5c-1.7-0.5-2.8,0.6-2.6,1.7c0.5,2.8-1,5.4-0.8,8.2c0.4,4.8,1.7,9.3,3.1,13.9
	c1.4,4.8,2.6,9.8,3.9,14.6c1.2,4.3,2.1,9,3.9,13c4.3,9.1,6.2,18.8,8.4,28.5c1,4.5,2.1,8.9,3,13.4c3.8,18.9,6,37.9,5,57.2
	c-0.4,6.6-1.4,13.1-1.6,19.7c-0.1,3.4-2.4,6.4-3,9.8c-0.5,2.9-1.8,5.7-1.3,8.9c0.1,0.6-0.3,1.4-0.6,2c-2.6,4.1-2.9,8.9-3.9,13.4
	c-1.7,7.1-3.1,14.2-3.9,21.5c-1.1,10.2-3.3,20.3-4.4,30.5c-0.6,6-2.5,12-4.2,17.9c-2.4,8.6-4.8,17.2-7.7,25.7
	c-2.8,8.1-6.1,16.1-9,24.2c-1.5,4.2-3.3,8.3-5.5,12c-3.3,5.5-5.1,11.9-9.5,16.9c-2.7,3.1-4.5,7-6.9,10.4c-3.4,5-6.8,9.9-10.3,14.7
	c-1.6,2.2-2.7,4.8-4.7,6.8c-0.6,0.6-0.5,1.5-0.6,2.3c-0.5,7.5-0.6,15.1-1.7,22.6c-2,12.9-3.4,25.9-6.2,38.7c-1,4.6-1.4,9.5-1.6,14.2
	c-0.2,4.4-1.8,8.6-1.2,13c0.5,3.8-0.2,7.5,0.5,11.3c0.5,2.3,2.1,3.6,4.4,2.8c2.3-0.9,4.2-0.4,6.4,0.4c2.2,0.8,4.7,0.7,7.1,1
	c0.8,0.1,1.6,0.2,2.3,0.4c3.5,1,5.2,3.4,5.7,6.8c0.1,0.9,0.6,1.2,1.4,1.2c0.9,0,1.8,0.3,2.5-0.6c0.5-0.6,0.4-1.2-0.2-1.7
	c-0.6-0.5-1.5-1-0.7-1.9c0.6-0.8,1.8-1.2,2.6-1c2.9,0.7,5.9,0.3,8.8,0.5c2.8,0.1,3.4,2.3,4.2,4.2c0.7,1.7-0.3,3.1-1.8,4
	c-2.1,1.1-1.3,3-1,4.5c0.2,1.1,1.4,0.6,2.2,0.2c3.3-1.5,3.3-1.5,4,1.8c0.1,0.5,0.1,1.1,0.8,1.2c1.4,0.2,1.3,1.2,1.4,2.2
	c0.1,0.7-0.5,1.9,0.8,1.9c0.9,0,1.2-1.1,1.4-2c0.7-2.6,0.5-5.3,0.3-7.9c-0.1-2,0.1-2.6,2.4-2.3c2.7,0.4,5.3,0.3,7,3
	c0.1,0.2,0.6,0.4,1,0.4c3.2-0.1,5,2.9,8,3.5c2.2,0.5,2.4,3.3,0.6,4.8c-1.3,1.1-0.7,2.9-1.7,4.1c-1.3,1.6-3.1,2.9-2.7,5.5
	c0.2,0.9-1,0.7-1.6,0.9c-2.4,0.7-4.8,0.3-7.3,1.5c-1.3,0.6-4.4-0.6-6.6-0.4c-4.8,0.5-9.6-2.5-14.3,0.2c-1,0.6-1.9-0.1-2.8-0.5
	c-0.6-0.3-1.2-0.8-2-0.7c-0.9,0.2-2.1-0.5-2.7,0.6c-0.5,1.1,0.8,1.4,1.3,2.1c2.5,3.4,5,6.6,3.4,11.3c-0.8,2.2-2.2,2.9-4.3,2.5
	c-1-0.2-2-0.3-2.9-0.6c-1.6-0.6-2.8-0.3-4.2,0.8c-2.3,1.8-3.9,1.1-5-1.7c-0.5-1.2-0.7-2.6-1.8-3.4c-0.7-0.5-0.9-1.2-0.5-1.9
	c0.3-0.7,1-0.5,1.6-0.4c1.4,0.3,3.6,0.3,3.8-0.8c0.4-2.4,2.1-4.7,1-7.3c-0.3-0.8-1.1-1.2-2-1.2c-2.4,0.1-3-1.5-3.1-3.5
	c0-0.6-0.1-1.3-0.3-1.8c-0.3-1.1-1.2-1.2-2.1-1.1c-0.5,0.1-1.4,0.1-1,0.8c0.4,0.8-1,2.1,0.8,2.4c1,0.2,1.3,0.8,0.9,1.5
	c-0.4,1-1.1-0.2-1.5-0.1c-3.2,1-6.9,0.3-9.7,2.6c-0.8,0.7-1.7,1.3-2.6,1.9c-2.4,1.5-4,1.2-5.6-0.7c-2.5-3-5.8-4.5-9.8-4.2
	c-0.7,0.1-1.4,0.6-2,0c-2.2-2.1-4.8-0.9-7.3-0.9c-0.3,0-0.8,0.2-1,0c-2.3-2.4-4.2-0.4-6.1,0.6c-3.7,1.9-7.8,1.9-11.5,1.1
	c-2.5-0.5-4.4-3-6.3-5.1c-2.5-2.7-5.2-4.9-9.3-4.1c-2.5,0.5-2.5-1.9-2.7-3.1c-0.2-1.5,0.4-3.4,1.7-4.4c1.4-1.1,1.8-2.9,3.3-3.8
	c0.9-0.5-0.2-0.8-0.3-1.2c-0.1-0.7-0.6-1-1.3-1c-2.4,0-5.6,2.8-5.8,5.1c-0.3,3.5-2.2,4.9-5.8,4.5c-0.6-0.1-1.2-0.4-1.8-0.4
	c-4.1,0.5-7.8-0.6-11.3-2.5c-1.2-0.7-1.9-0.1-2.8,0.1c-3.9,0.9-6.9-0.9-9.5-3.6c-1-1.1-2-2.1-3.6-1.8c-2,0.4-3.5-0.5-4.7-1.9
	c-1.5-1.6-3.6-2.1-5.4-3.2c-0.9-0.5-1.5,0.2-2.2,0.5c-3.5,1.5-3.9,1.4-5.4-1.9c-0.7-1.5-2.3-2-3.7-1.5c-3.2,1-6.4-0.4-9.5,0.3
	c-0.4,0.1-1.2-0.2-1.2-0.4c-0.4-2.1-2.3-2.4-3.6-3.5c-2.4-2.2-5-2.3-7.8-1c-3.6,1.6-3.8,1.6-4.2-2c-0.1-1-0.4-1.5-1.4-1.6
	c-1-0.1-2.1-0.2-2.5-1.3c-1.5-4.8-6.6-5.6-9.6-8.7c-0.5-0.5-2.1-0.7-1.8-1.2c1.2-1.6-0.2-4,1.8-5c0.9-0.5,2.1-0.9,3.1-0.8
	c2.2,0.4,3.5,0.1,3.4-2.5c0-0.2,0.4-0.7,0.6-0.7c2.4-0.1,5.2-0.7,7.2,0.6c3.3,2.1,6.9,1.7,10.3,1.8c1.7,0.1,3.9-1.1,5.3-1
	c2.1,0.1,4.8-0.8,6.7,1.2c0.6,0.7,1.6,0.6,2.3,0.4c3.6-1.6,7.5-1.2,11.1-0.8c3.9,0.4,7.8-0.4,11.7,0c3.5,0.4,6.2-1.1,9.2-2.2
	c1.3-0.4,1.2-1.6,1.8-2.4c2.9-3.4,6.3-6,10.1-8.3c0.7-0.4,1.1-1,1.4-1.6c1.1-1.8,0.6-2.8-1.5-3c-4.4-0.4-8.8,0.6-13,1.3
	c-6.2,1-12.4,1.1-18.5,2.5c-6.1,1.4-12.5,1.7-18.6,1.4c-5.6-0.3-11.5-0.5-17-2.3c-3.2-1-6.6-1.1-9.9-1.9c-2.6-0.6-5.3-1-7.7-2.2
	c-3.2-1.6-6.6-2.8-9.8-4c-6.5-2.3-12.6-5.1-18.3-8.8c-4.9-3.2-10-6-15-8.8c-4.4-2.4-9-4.5-13.5-6.7c-4.7-2.3-9.4-4.8-14.1-7.3
	c-3.3-1.8-6.8-3.3-10.2-5.1c-5.6-3-11-6.2-16.1-10.1c-5.1-3.9-10.2-7.9-15.4-11.8c-4.9-3.6-9.6-7.6-13.8-12.1
	c-4.5-4.9-9.7-9.2-13.8-14.4c-4.8-6.3-9.9-12.4-13.9-19.3c-3.1-5.5-5.5-11.4-9.5-16.4c-0.7-0.9-0.8-2.3-1.3-3.5
	c-2-5.3-4.1-10.5-5.9-15.9c-1.8-5.4-2.9-10.9-4.9-16.2c-0.3-0.7-0.3-1.3-0.2-2c0.3-2.4,0-4.6-1.5-6.8c-1.2-1.7-1.5-4.1-2-6.3
	c-1.2-6.4-2.2-12.8-3.3-19.1c-0.2-1.3-0.5-2.6-1.5-3.6c-0.5-0.5-0.8-1.1-0.6-1.7c0.9-2.3,0.2-4.4-0.6-6.6c-1.1-3.1-1.8-6.3-2.7-9.4
	c-1-3.5-3-6.5-3.8-10.1c-1.5-7.4-5.4-14-7.8-21.1c-0.6-1.7-0.8-3.5-1.4-5.1c-1.8-4.8-2.5-10-4.3-14.7c-2.9-7.6-2-15.7-3.7-23.3
	c-1.2-5.6-1-11.2-1-16.8c0-12.3-0.3-24.6,0.1-36.9c0.6-17,0.2-34,0.4-51.1c0-3.6,0.1-7.2-0.5-10.8c-0.6-4.2,0.2-8.4,0.6-12.5
	c0.4-4.3,0.3-8.6,0.4-12.8c0-5.3,0.3-10.7,1.8-15.8c1.6-5.5,1.9-11.2,3.7-16.6c0.8-2.2,2.8-3.5,3.4-5.9c0.6-2.6,2.6-4.8,1.9-7.8
	c-0.3-1.4,2.7-4.5,4-4.5c0.9,0,0.9,1.3,1.7,1.5c3.7-3.2,7.2-6.1,12.3-7.6c4.7-1.3,9.4-0.2,13.9-1.6c5.6-1.7,10.6-4.1,14.4-9.2
	c2.9-4,4-8.2,4.7-12.8c0.4-2.4,1.9-3.4,4.2-3.9c4.1-0.9,6.6-2.9,7.2-7.9c0.5-4.9,0.4-9.8,1.5-14.6c0.5-2.2,1.7-4.2,2.6-6.3
	c0.2-0.5,0.6-1,0.8-1.6c0.6-2.1,1.1-4.1,1-6.3c2.7,0.2,2.8-2.4,4.1-3.7c1.1-1.1,1.7-2.4,2-3.9c0.9-4.2,3.3-7.7,6.2-10.8
	c0.7-0.8,0.8-0.8,2.1,1.2c1.7-3,3.4-6.1,5.2-9.1c1.2-1.9,3-1.7,4.2,0.1c0.3,0.4,0.5,1.2,0.9,1.3c5.2,0.7,2.8,5.4,4.2,8.1
	c1.4,2.6,0.2,5.3-0.4,8c-0.4,1.7-0.3,3.3,2.1,3.9c1.4,0.3,2.1,1.6,2,3.1c-0.1,1.6,0.2,3,0.9,4.4c1.1,2.3,2.4,2.4,4,0.5
	c0.4-0.6,0.8-1.2,1.4-1.6c2-1.7,4.1-1.4,5.7,0.6c0.4,0.5,0.7,1,1,1.6c1.6,3.6,3.8,6.2,8.3,5.3c4.4-0.9,7.6,2,11.3,3.6
	c0.8,0.4,1.6,0.7,2.5,0.7c5-0.4,9.2,1.2,13.3,4.2c2.1,1.5,5.3,1.7,7.3,4c2.7,3.1,5.8,4.4,9.9,3.4c0.6-0.1,1.4,0.3,2,0.7
	c4.3,3.2,8.9,4,14,2.1c0.6-0.2,1.5-0.4,2.1-0.1c4.6,1.9,9,1.2,13.3-0.8c2.5-1.1,5.2-0.2,7.8-1c2.4-0.7,4.6-1.8,6.6-3.3
	c3-2.3,6.2-4,10-5.1c3.2-1,6.4,0,9.4-1.2c1.5-0.6,2.1,0.3,2.1,1.7c0,1.4,0,2.9,0,4.3c-0.1,2,0.8,3.1,3,3.2c1,0.1,1.2-0.2,1.5-1
	c1.2-3.2,4.2-5.5,5-9c0.2-1,1.7-1.7,2.8-2.3c0.8-0.5,2.2-0.3,2.5-1.3c0.5-2.3,2.2-4.1,2.4-6.4c0.1-1.1-0.7-1.1-1.4-1
	c-1.3,0.3-2.4,0.9-3.2,2.2c-0.5,0.9-1.6,1.6-2.7,1.4c-1.3-0.2-1.1-1.4-1.3-2.3c-1.1-4.9-2.5-9.7-1.2-14.8c0.2-0.9,0-2.1-0.4-2.8
	c-1.2-1.9-0.6-3.8,0-5.6c0.6-2,1.3-3.8,1.6-6c0.4-2.5-1-3.3-2.3-4.2c-1.7-1.2-2.3,0.8-2.8,1.8c-0.9,2.1-2.1,3.7-4.4,4.6
	c-2,0.9-2.8,0.2-3.2-1.6c-0.5-2.7-2.3-3-4.8-2.8c-4,0.3-6.8,1.8-8.9,5.2c-0.8,1.4-2.2,0.2-3-0.5c-1.2-1-1.7-1.1-2.6,0.3
	c-0.9,1.4-1.8,1.3-2.2-0.5c-0.4-1.7-1.7-2.6-3.4-2.9c-1.5-0.3-2,0.7-2.4,2.5c-0.9-2.1-1.6-3.4-1.9-5.1c-0.5-3.1-1.9-6-3.7-8.7
	c-0.3-0.4-0.9-0.7-1.1-0.3c-0.7,1-2.8,0.4-2.5,2.3c0.4,2.6-1.7,3.9-2.7,5.9c0-2.3-1.9-3.7-2.4-5.8c-0.2-1.1-1.1-2.3-2.8-1.7
	c-1.2,0.4-2.5,0.1-3.7,0.5c-1.1,0.4-2.3,0-2.9-1.2c-0.9-1.7-2-1.6-3.2-0.4c-1.6,1.6-3,2.6-5.7,1.5c-2.3-0.9-5,0.2-7.6-0.1
	c-1.8-0.2-2.7-0.7-2.9-2.6c-0.5-4.1-2.3-5.2-6.4-4c-0.8,0.2-1.2,0.5-1.8,1.3c-1.1,1.8-3.5,3.5-5.7,1.6c-0.5-0.5-1.2-0.8-1.7-0.5
	c-1.6,0.7-2.5,0-3.2-1.4c-0.3-0.5-0.9-0.9-1.6-0.7c-2.7,0.7-3.9-1.2-4.8-3.2c-1-2.2-2.3-3.5-4.8-3.3c-0.4,0-1.2,0.1-1.3-0.1
	c-1.8-3-5.5-2.6-7.9-4.6c-0.9-0.8-2.1-3.7-3.5-0.1c-0.3,0.8-1.7,0.8-2.5-0.6c-1.6-2.8-3.7-5.1-7-5.9c-0.9-0.2-1.7-0.8-1.6-1.5
	c0.2-3.2-2-5.5-2.7-8.4c-0.4-1.5-0.5-3-0.1-4.5c0.1-0.3,0.3-0.6,0.2-0.8c-1.5-2.5-1.9-4.8,1-6.7c0.4-0.2,0.1-1.3-0.6-0.9
	c-1.7,0.8-3.8,1.1-3.5,3.9c0.2,2.2,0.1,4.5,0,6.7c0,0.7,0.2,1.5-0.7,1.9c-0.8,0.3-1.7,0.3-2.2-0.4c-1-1.2-2-2-2.3-4.1
	c-0.6-4.4,0.3-9.1-1.4-13.1c-1.1-2.7-1.4-5.2-1.5-7.9c2.7,0,5.4,0,8.1,0c0.7,1.2-0.1,3.1,1.3,3.9c1.3,0.8,3.9,0.8,4.3,0.1
	c1.4-2.7,3.1-1,4.8-0.9c1.1,0.1,2.1,0.1,2.5,1.4c0.3,1,1,0.7,1.7,0.3c0.6-0.4,1.2-1,1.9-1c2.9,0,3.1-1.7,2.8-3.9c0.7,0,1.5,0,2.2,0
	c0.1,1-0.4,2.1,0.7,3.2c0.1-1.2,0.2-2.2,0.3-3.2c9,0,17.9,0,26.9,0c-0.8,3.6,2.1,6.4,2.4,9.9c0.2,2.8,2.4,5.4,1.4,8.6
	c-0.3,0.9-0.1,2.3,1,2.4c0.8,0.1,1.4-1,1.6-1.9c0.7-2.8,1.4-5.5,1.1-8.4c-0.3-2.5,0.8-3.6,3-2.7c1.4,0.6,1.8-0.1,2.7-0.6
	c2.1-1.1,4.3-2.7,6.7-2.5c3.6,0.3,5.1,2.1,5.8,5.8c0.8,3.9,1.4,4.4,4.9,4.2c2-0.1,4.4-1.9,5.1,2.1c0.1,0.8,1.5,2,1.9,3.2
	c0.5,1.5,2.2,0.1,3.1,1.3c0.8,1.1,1.9,2.8,3,3.1c3.1,1,2.6,3.3,2.8,5.5c0.1,0.7,0.2,1.4,0.4,2.1c0.3,1.2,3.1,2.4,4.1,1.6
	c0.8-0.6,1.2-2.2,2.4-1.5c1.1,0.7,0.3,2.2,0.4,3.3c0.1,0.7,0,1.4,0,2.1c0,0.6-0.7,1.2,0.1,1.6c0.8,0.4,1.3-0.2,1.8-0.7
	c1-0.9,0.9-1.9,0.6-3c-0.9-3.7-1-7.6-0.8-11.3c0.3-4.1,0-8.2,0.7-12.2c0.2-1.3-1.4-4.5,2.3-4.1c0.5-2.3,3.8-1.4,4.2-3.7
	c0.3-1.6,1.3-3,1.2-4.6c14.7,0,29.4,0,44.1,0c0.2,1.5,0.3,3,0.6,4.5c0.2,1.3,1,2.8,2.2,2.6c2.9-0.5,3.8,1.6,5.3,3.2
	c0.9,1,2,2.5,3.8,1.5c3.1-1.9,6-1.2,8.9,0.5c1.4,0.8,3.9-0.2,3.7-1.7C532.8,7.7,534.6,4.3,533.7,0.7z M502.1,689.5
	c0.1,0.2-0.3,0.8,0.4,0.6C502.3,689.9,502.2,689.8,502.1,689.5c0.1-2.4-1.4-4-3.1-5.4c-0.5-0.4-1.1-0.7-1.6,0c-1,1.3,0,4.4,1.6,4.8
	C500,689.2,501.1,689.4,502.1,689.5z M328.5,202.1c-0.9-0.8-1.9-0.5-2.5,0.2c-2.9,3.6-6.1,4.4-10.3,2.4c-0.9-0.4-6.6-0.1-6.8,0.6
	c-1.4,4.5-6.1,1.9-8.6,4.1c-0.5,0.4-0.9-0.4-1.2-0.7c-0.9-0.9-1.5,0.1-1.4,0.6c0.4,3-1.3,4.6-3.6,6.1c-1.3,0.9-1.8,2.1,1.2,2.3
	c-1.7,0.4-3.3,0.1-2.4,2c1,2.2,0.6,3-1.7,3c-1,0-2.8-0.3-2.6,1c0.2,1.6,1.8,0.6,2.8,0.6c0.2,0,0.4,0,0.5,0c0.1,3.9,0.1,3.9-2.3,5.5
	c3.1,1.2,6.6,2.8,9.3,2.6c3.7-0.2,3.8,0.9,3.3,3.6c1,0,1.4-0.7,2-1c2.1-0.9,3.9-0.4,5.4,1.3c1,1.1,0.5,2.1,0.1,3.2
	c-0.3,1-3.8,2.2,0.2,3c0.6,0.1,1,1.6,1.3,2.4c0.7,1.6,1.5,2.3,2.9,0.7c0.6,0.9,0,2.8,1.1,2.6c2.3-0.4,4.7,0.6,7-1.2
	c1.1-0.9,2.4-3,4.2-2.3c2.6,1.1,5.1-0.7,7.6,0.1c0.3,0.1,1.1-0.1,1.2-1.2c-2.5,0-4.9,0-7.3,0c0-0.3,0-0.6,0-0.9
	c1.6,1.1,3.2-1.2,5,0.6c0.5,0.5,2.4,0.5,2.8-0.7c0.5-1.4,1.2-0.8,2-0.8c0.5,0,0.9,0.9,1.4,0.2c1.4-1.8,1.5,0.2,2.2,0.6
	c-0.8-0.2-1.3-1.7-2.2,0.2c-0.8,1.8-3.4,2.4-3.6,4.9c0,0.1-0.2,0.4-0.3,0.4c-0.4,0-0.9-0.5-1.1,0.1c-0.3,0.6,0.4,0.9,0.7,1.3
	c2.1,2.7,5.3,1.7,8,2.1c1.8,0.3,3.4-1.6,4.7-1.5c2.3,0.3,4.5,0.2,6.7,0.4c4.9,0.5,9.7-1.1,14.6-0.3c1.5,0.3,3.4,1.1,4.3,0.7
	c2.4-1.2,3.9,1.1,5.9,0.9c-0.3,0.3-0.5,0.3-0.7,0.4c-0.3,0.1-0.8,0.1-0.5,0.8c4.4,0.6,9.4-0.2,12.8,3.9c0.2,0.2,1.3,0.6,1-0.6l0,0
	c-0.1,0.7,0.3,1,0.9,1.1c2.6,0.2,2.6,0.2,3.8,2.2c0.3,0.5,0.8,0.7,1.1,0.5c1.8-1.2,3.3,0.2,5,0.3c1.9,0.1,3,1.5,3.3,2.6
	c0.6,2.2,2,2.5,3.7,2.4c0.8,0,2.1-0.1,2.2,0.3c0.5,1.7,1.5,2.4,3.1,2.5c0.7,0.1,0.5,0.6,0.5,1c-0.1,0.8-0.8,0.2-0.9,0.3
	c-1.2,0.7-2-0.6-3.2-0.4c-1.7,0.3-4,2.2-5.2-1c-0.1-0.2-0.7-0.1-1-0.2c-1.6-0.4-3,0.1-4.4,0.6c-3.8,1.4-6.2,0.6-7.5-3
	c-0.3-0.8-0.7-0.8-1.2-1.1c-1.2-0.5-2.5-1-3.7-1.6c-2.7-1.3-4.3-0.4-5.9,2.1c-0.9,1.4-0.2,3.6-1.4,3.9c-1.7,0.4-1.4,2-2.2,2.5
	c-1.6,0.9-0.1,2.7-1.8,3.8c-2.4,1.5-3.4,4.6-6.8,5.3c-0.9,0.2-2.3,0.5-3.4,0.9c-0.7,0.3-0.9,1-2.2,0.7c-2.2-0.4-4.5,1.4-6.9,1.7
	c-0.2,0-0.4,1.4-0.3,1.4c1.2,0.5,1.6,2.3,2.1,2.4c2.1,0.2,4.6,1.3,6.4-0.3c2.3-2,3.4-1.8,4,1.2c0.2,0.9,0.5,1.6-0.8,1
	c-1.3-0.6-1.6,0.3-1.3,1.1c0.9,2.4-0.7,2.5-2.3,2.7c-1.9,0.2-3.9,0.4-5.8,0.6c0.2,1.3,1.9,0,1.7,1.6c-0.2,1.9-1.4,1.3-2.5,1.4
	c-1.6,0.1-3.9-0.5-4.7,0.4c-2.3,2.7-4.8,2-7.5,1.6c-0.3-0.1-0.7-0.1-1-0.1c-1.3,0.3-0.9,1-0.5,1.6c-2.4,0.6-5,0.3-7.6,0.6
	c0.3,0.8,0.8,0.6,1.2,0.7c0.1,0,0.2,0,0.3,0c-0.1,0.1-0.1,0.1-0.6,0.5c-1.2,0.6-2.9,0.2-4.5,0.2c-2.4,0.1-5.2-0.6-7.1,0.5
	c-2.1,1.2-3.8,0.8-5.7,1.1c-0.3-1,1.2-0.5,0.8-1.6c-1.7,0.1-4.6-0.4-5,0.4c-1.2,2.4-3,1-3.7,0.6c-2.4-1.4-4.5-0.3-6.6,0.1
	c0.7,0.4,1.8,0.9,2-0.3c0.2-1-1-0.6-1.6-0.6c-1.5-0.1-3,0-4.6,0c1-0.8,2-0.8,3.1-0.8c0.4,0,1,0.1,1-0.5c0-0.7-0.5-1-1.1-0.8
	c-3.5,0.9-4.5-1.4-5.2-4c-0.2-0.7-0.9-0.8-1.4-1.2c-2.3-2.4-7,0.1-8.3-4.2c0-0.1-0.7,0-1,0c-1.5,0-3.1,0.5-3.7-1.7
	c-0.2-0.6-0.9-0.4-1.4-0.4c-1,0-2.1-0.1-2.8-0.7c-1.8-1.5-3.5-1-5.2,0c-1.4,0.7-2.8,0.9-4.4,0.9c-1.7,0-2.8-0.9-3.6-2.8
	c-0.8,3.9-3.9,2.9-5.9,3.5c-2.5,0.7-3.7,2.2-2.7,4.6c0.7,1.8,1.2,3.5-0.2,5.2c-0.2,0.3-1.4,2,0.9,1.7c0.7-0.1,0.9,0.7,1,1.3
	c0.1,0.6,0.1,1.6-0.6,1.6c-2,0.1-1.7,2.5-3.4,2.9c2.6,0.4,3.1,2.1,3.5,4.2c0.2,0.9,0.8,1.4-0.6,1.9c-0.7,0.2-2.4,1.3,0,2.1
	c0.5,0.1,1.3,0.8,1,0.9c-2.6,1.4-1,2.7-0.1,4.1c0.4,0.6,0,1-0.7,1c-0.5,0.1-0.8,0.3-0.7,0.9c0.1,0.4,0.5,0.6,0.8,0.5
	c2.3-0.4,1.8,1.3,1.9,2.5c0.2,2.3-0.5,4.6,0.4,6.8c0.7,1.6,2.1,3.6-1.9,3.5c1.6,0.4,2.6,0.8,2.3,2.3c-0.4,2.5,0.1,4.4,3.8,4
	c-1.7,1.3-3.1,1.9-3.9,3.1c0.7,0.7,1.7,0.4,2.6,0.7l0-0.1c0,0.4,0.2,0.9,0.1,1.3c-0.4,1.3-0.7,2.5-1.3,3.7c-0.3,0.6-0.8,2.3,0.8,2.2
	c2.5-0.2,2.6,0.1,2.6,2.7c-0.1,2.7-1.7,4.5-3.1,6.5c0.9,0.8,1.6-0.9,2,0.1c0.5,1.1,0.7,2.7,0,3.6c-0.9,1.2-0.3,1.9-0.1,2.9
	c0.5,1.8,3.7,2.8,1.7,5.4c0,0,0.3,0.4,0.5,0.4c1.5,0.1,1.7,1.6,2.1,2.5c0.8,1.6,0.7,3.6,1.1,5.1c0.9,3,1.4,6,1.4,9.1
	c0,0.6,0.3,1,0.9,1.1c2.1,0.1,1.9,1.4,1.5,2.8c-0.7,2.7-0.1,3.8,2.4,4.6c0.4,0.1,0.3,0.7,0.5,0.7c1.5,0.9,1.4,2.6,2.1,3.9
	c1.1,1.9,3.2,2.8,3.9,5c0.5,1.5,1.4,2.8,3.3,2.9c-0.4,1.1-1.2,1.1-1.9,1.2c-1.3,0-1.6,0.8-1.3,1.8c0.2,0.7-0.6,2.4,1.4,1.7
	c0.8-0.3,0.7,0.6,0.9,0.9c1.1,1.6,2.4,3,2.2,5.2c-0.1,0.7,0.6,1.1,1.3,1.1c2.1,0.1,2.5,1.7,2.9,3.3c0.2,0.8,0.2,1.7,0.8,2.5
	c1.6,2,3.5,3.7,4.7,6c0.4,0.8,1.1,1.1,2,1.1c0.8,0.1,1.6-0.1,2,0.9c-0.4,1.1-2.9,0.1-2.2,1.5c1,2,0.6,4.6,2.8,6.2
	c2.6,1.9,2.7,5.2,4,7.8c0.6-0.2,0.7-0.8,1-1.2c0.3-0.5,0.5-1.2,1.3-1.2c1.1,0.1,0.7,1,0.8,1.7c0.3,1.5,1.2,2,2.7,2
	c2.3,0,2.8,0.8,1.7,2.9c-0.5,1-0.7,2-0.2,2.8c0.6,1.2,0.4,1.6-0.9,1.5c-0.7-0.1-1.2,0.2-1.4,0.9c-0.2,0.7,0.1,1.2,0.7,1.6
	c0.6,0.4,1.2,0.7,1.8,1.1c0,0.7-1.7,0.2-1.2,1.3c0.9,1.9,0.3,4.2,1.4,5.8c1.4,2,3,3.8,4,6.2c0.6,1.3,1.4,2.2,0.8,3.6
	c-0.7,1.5-0.5,2.7,0.5,4c0.7,0.9,1.1,2.1,0.5,2.9c-0.7,0.9-1.7,1.7-0.1,2.4c1.4,0.6-0.1,2.6,1.5,2.7c1.6,0.1,1.3,1.3,1.2,2.1
	c-0.4,4.6,2.1,8,6.5,8.3c1.6,0.1,1.9,0.8,1.5,1.9c-0.8,2.2-1.4,4.5-3.2,6.3c2,0.9,4.2,1.7,3.9,4.7c-0.1,0.7,0.3,1.8,1.1,2
	c1.7,0.5,2.1,2.1,2.7,3.4c0.4,0.7,0.7,1.4,1.4,1.9c1.9,1.3,2.5,3.5,3.5,5.4c0.3,0.5-1,1.4,0.4,1.7c1.3,0.3,1.5-0.7,1.7-1.7
	c1.9,2.3,2.7,4.8,2.6,7.5c0,0.8,0.2,2.4,1.2,1.9c3.5-1.7,5.3,2,8.4,2.1c-1.7,0.7-2.1,1.5-1.1,2.8c0.6,0.7,0.7,1.7,1.7,2.3
	c1.4,0.9,1.6,2.5,0.7,3.8c-0.9,1.2-0.1,1.5,0.6,2.1c1.3,1.2,2.7,0.1,4.1,0.2c1.7,0.1,3.1,0.3,1.3,2.4c-0.7,0.8-0.5,1.8-0.1,2.5
	c0.4,0.7,1.1,0.9,2,0.6c1.2-0.4,1-0.1,1.7,1c1.2,1.9,2.2,4.1,4.6,5.1c2.3,1,3.4,4.5,2.2,6.6c-0.7,1.2-1.3,1.8,0.8,2.4
	c2,0.6,3.8,2.4,5.6,3.6c0.4,0.2,0.6,0.8,0.9,0.9c2.5,0.3,2,2,1.6,3.6l0-0.1c0.4,1.5,1.8,2,2.8,2.9c1.3,1.1,2.7,2.1,2.4,4.5
	c-0.2,1.4,0.3,3.6,2.8,3.7c1,0,1.9,0.6,2.6,1.2c1.6,1.3,4.3,0.9,5.1,3.4c0,0.1,0.5,0.1,0.7,0c2.3-1,2.8-0.1,2.4,2.1
	c-0.2,0.9,0.4,1.7,1.1,1.3c1.7-1.1,2.2,0.5,3.2,1.1c2.6,1.6,3.2,4.9,5.7,6.5c0.4,0.3,0.6,0.8,0.1,1.1c-1.8,0.8-0.3,1.3,0.2,1.4
	c2.8,0.6,4.1,3.4,6.8,4.4c2.2,0.8,4.1,2.8,6.5,2.8c2.7,0,4.4,1.9,5.5,3.2c2.2,2.4,4.6,3.6,7.6,4.3c1,0.2,2.3,0.2,3.1,0.8
	c3.8,3,8.2,1.8,12.3,2.1c1.7,0.1,1.9-0.5,0.8-1.7c-0.2-0.3-0.2-0.7,0.4-1.2c0,1.1,1.7,1.2,1.5,1.8c-1,3.2,2.2,3.7,3.5,4.6
	c1.8,1.2,2.5,2.4,2.5,4.3c0.5-0.3,1.3-0.5,1.6-1c1-1.6,1.6-1.4,2.9,0c1.7,1.9,5.3,1.2,6.6-1c1.1,2.6,1.2,2.6,4.4,3.1
	c0.3,0,0.7,0.1,1,0.3c1,0.8,1.6,0.6,2.5-0.3c1.1-1.1,2.2-1.6,2.8,0.5c0.1,0.4,0.6,1.1,1.2,0.6c1.8-1.6,3.9-0.4,5.7-0.3
	c1.7,0.1,3.3-0.2,4.6-0.8c2.1-1,4.1-1.1,5.6,0.4c0.5,0.5,1.1,0.9,1.3-0.1c0.3-1.1,1.1-1,1.8-1.2c1.8-0.5,3.1-1.6,3.5-3.7
	c1.4,2.5,3.9,0.7,5.6,2.1c0.5,0.4,1.5-0.7,2.2-1.2c2-1.4,5.8-1,7,0.7c1.2-0.3,0.7-2.3,2.1-2.2c0.8,0,5.8-1.2,6.4-1.6
	c0.1-0.1,0.2-0.3,0.4-0.4c0.2-0.1,0.7,0,0.7,0c0.3,2.2,2,1.1,3.1,1.3c0.1-1.1,0.2-2.2,0.3-3.4c0.5,0.9-0.1,2.3,0.8,3.2
	c0.8-0.4,0.6-1.1,0.7-1.7c0.1-0.6-0.7-1.5,0.6-1.7c1-0.2,0.9,0.7,1.2,1.4c0.4,1,1,0.9,1.4,0c0.3-0.6,0.4-1.2,0.5-1.8
	c0-0.8,0.5-1.1,1.2-1.1c0.5,0,1.1-0.3,1.2,0.8c0.1,0.9,1.3,1.4,2.1,0.9c2-1.2,4.1-1.7,6.4-1.4c0.4,0.1,0.6-0.2,0.8-0.5
	c1.4-1.6,2.3-4.3,5.3-2.3c0.5,0.3,1.1-0.1,1.3-0.6c0.6-1.4,1-2.9,3.1-2.1c0.5,0.2,0.6-0.6,0.5-1c-0.4-1.8,0.9-2.2,2-3.1
	c1.2-1,2.3-1.3,3.7-1.2c0.7,0.1,1.7-0.3,1.3-1.2c-0.6-1.3-0.2-2.4-0.1-3.7c0.3,0.1,0.6,0.1,0.7,0.3c0.5,1.2,1.6,1.9,2.5,1
	c1.1-1.1-0.9-0.9-1-1.4c-0.1-0.5-0.5-1.2,0.1-1.7c0.6-0.5,0.9-0.7,1.7,0c1,1,1.6,0.3,1.6-0.9c0-0.7,0-1.4,0-2.5
	c0.3,1.9,0.6,2.1,1,1.6c0.7-1.1,1.6-1.4,2.9-1.2c0.4,0.1,1-0.7,1.3-1.2c0.3-0.5-0.1-1-0.5-1c-0.8-0.1-1.6,0-1.2-1.1
	c0.4-0.9,1.2-0.2,1.8-0.2c0.8,0.1,2.6-0.4,1.9-1.1c-2.3-2.4,0.1-1.2,0.9-1.3c1.4-0.2,1.6-1,1.7-2.3c0.1-0.8-0.4-2.5,1.8-1.7
	c0.8,0.3,2.4-1.1,1.7-2.6c-0.5-1.1-0.1-2.2,0.5-2.2c1.8,0,2.1-1.8,2.3-2.5c0.6-2.2,2.3-2.2,3.8-2.6c2-0.6,5.7-4.7,5.9-6.8
	c0.1-0.7-0.2-1.5,0.9-1.6c2.7-0.4,5.1-1.5,7.1-3.4c0.3-0.3,0.9-0.5,1.1,0.2c0.2,1,0.9,1.2,1.6,0.7c0.6-0.4,0.7-1.1,0.3-1.9
	c-1.1-2,0-2.6,1.6-2.2c3,0.8,3.1-1.6,3.4-3.2c0.2-0.9,0.2-1.9,1.1-2.2c3.3-1.2,5.2-4.3,8.1-6.1c0.3-0.2,0.5-0.4,0.4-0.9
	c-0.1-0.5-0.3-0.9-0.9-0.6c-0.6,0.3-1,0.2-1.2-0.5c-0.1-0.6,0.1-1.1,0.7-1.2c1.6-0.2,1.3-1.2,1.5-2.4c0.1-0.8-0.3-2.9,2-2.2
	c3.8,1.2,8.1-3.1,7.4-7c-0.2-1.3,0-3.9,0.2-3.9c2.7-0.2,3.5-2.9,5.3-4c2.6-1.4,2-4.4,3.8-6.1c0.6-0.6,0.7-1.6,2-1.7
	c1.9-0.1,2.1-1,1.3-2.6c-0.6-1.2-0.2-1.8,1.3-1.5c1.1,0.2,2.2-0.3,1.7-1.4c-1-2.1,0.4-3.4,1-5.1c0.3-1,2.5-1.1,1.3-2.7
	c2.6,0,2-1.8,1.7-3.2c-0.2-0.8-0.5-1.4,0.3-2.1c3.2-2.9,3.5-4.5,2-8.2l-0.1,0c0.1,0.9,1.7-0.6,1.6,1c0,0.4,0.6,1,1.2,0.9
	c0.9-0.1,0.7-1,0.7-1.5c0-2.6,1.2-4.8,2.2-7.1c0.2-0.5,0-1.1,1-1.2c1.4-0.2,1.8-0.8,0.3-1.7c-0.7-0.4-0.7-1.1-0.3-1.7
	c0.6-1.1,0.9,0.1,1.4,0.2c1.2,0.3,1.8-1.2,1.7-1.4c-1.5-2.1,1.2-4,0-6c-0.3-0.5,0.2-1.2,0.5-1.3c2.2-0.5,1-2.1,1.2-3.2
	c0.3-1.8-0.5-3.6,1-5.3c1.1-1.3,3.1-2.5,1.8-4.8c0-0.1,0.2-0.4,0.4-0.5c3.5-1.5-0.6-1.4-0.5-2.1c0.7-0.5,1.4-0.9,1.9-1.5
	c0.5-0.5,0.6-1.2-0.3-1.4c-3.4-0.7-0.3-1.7-0.4-2.7c1.3,0.6,0.3,1.9,1.2,2.4c1.4-0.9,1.5-2.1,1.1-3.7c-0.2-0.9-0.5-1.9-0.1-3
	c1-2.7-0.6-6,1.6-8.5c0,0-0.1-0.3-0.2-0.4c-0.9-0.8-0.4-1.6,0.3-2c1.1-0.7,0.9-1.1,0.2-2c-1.1-1.2,0.3-2.7-0.3-4.1
	c-0.2-0.7,1.2-0.6,2-0.6c0.9,0,0.7-0.6,0.7-1.1c0.8-5.6,0-11.3,0.1-16.9c0-0.5-0.3-1.1,0.4-1.3c1.9-0.4,1.3-1.7,1.1-2.9
	c-0.2-1.2,0-2.6-0.7-3.7c2.1-0.1,1.1-2.2,1.7-3.1c0.9,0.1,0.5,1.3,1.4,1.1c0.3-2.4,0.3-2.3-0.8-3.7c-0.6-0.8,0.3-0.9,0.7-1
	c2-0.5,2-1.8,1.9-3.5c-0.2-3.5-2.6-7.6,2-10.1c-0.1-3.1,3.2-5.6,1.4-8.9c-0.3-0.6-0.2-1.4,0.8-0.5c0.2,0.2,0.6-0.3,0.4-0.7
	c-0.4-0.8,0.3-1.7,0.1-2.3c-0.6-2.3,1.6-4.3,0.2-6.8c1.7,0.5,2.3-0.2,2.3-1.8c0-3.1,1.5-6,1.6-9.1c0.1-1.3-0.3-3.2,0-3.7
	c2.2-3.2,0.3-6.7,1.4-10c0.4-1.3,1.3-2.8,1.3-4.6c-0.1-2.8-0.1-5.6-0.2-8.4c0-2.3,0.3-4.7-0.2-7c-0.5-2.7-2-5.4-0.4-8.2
	c0.3-0.5,0-1-0.3-1.5c-1.3-1.6-1-3.8-1.3-5.6c-0.9-4.9-1.4-9.9-1.8-14.8c-0.2-2.7-2.3-4.5-2.4-7.4c-0.2-4.7-1.5-9.3-2.4-13.9
	c-0.1,0-0.3,0-0.4,0c-0.1,1-0.2,2.1-0.3,3.1c0-3.4-0.6-6.8-1.7-10c-0.5-1.4-0.8-2.9-1-4.3c-0.2-1.3-0.2-2.5-1.8-3.2
	c-0.9-0.4-1.9-2.1-1.8-3c0.6-5.8-3.8-9.5-5.4-14.4c-0.2-0.5-0.7-0.3-1.2-0.3c-0.8,0.1-1.4-0.5-2-1c0.7-0.1,1.1,0.1,1.3-1.2
	c0.4-2.5-1.8-3.9-1.9-6.2c0-0.5-1.3-1.8-1.5-0.9c-0.4,1.8-2.5,1.5-2.8,3c-1.1-3-2.5-5.8,0.1-8.6c0.1-0.1-0.1-0.3-0.1-0.5
	c-0.1,0.1-0.3,0.2-0.3,0.2c0.1,0.2,0.1,0.4,0.3,0.4c1,0.4,1-0.3,1.1-0.9c0.1-1-0.2-2-0.7-2.8c-0.6-1-1.7-2,0.6-2.1
	c-0.8-1.6,1.3-0.4,1.2-1.3c0-0.2,0-0.4,0-0.5c-1.8-1.2-1-4-3.3-5c-1.9-0.8-2-2.5-1.5-4.4c0.6-2.3,0.4-2.6-1.5-3.5
	c-0.1-0.1-0.4-0.3-0.4-0.4c0.6-1.8-1.1-2.4-1.7-3.6c-1.2-2.2-3.2-3.4-5.2-4.6c-1.3-0.7-2.7-1-3.9-1.7c-3.8-2.3-7.4-4.9-11-7.6
	c-2-1.5-3.9-1.1-5.9-0.5c-0.1,1.2,1.8,0.7,1.2,1.8c-0.4,0.7-1.3,0-1.9-0.1c-2.1-0.1-4.2-0.3-6.4,0c-1.6,0.2-2.8,1.2-4.3,1.3
	c-3.6,0.2-7.4-0.2-10.9,0.4c-1.9,0.4-4.1-0.3-6,1.1c-2.4,1.7-5.2,2.7-8.1,3.4c-2.9,0.7-6.2-0.4-8.9,2.2c-1,1-3.5-0.4-4.6,1.7
	c0,0-0.6-0.1-0.7-0.2c-1.2-2.1-2.3-1.2-3.3,0.1c-0.7,0.8-1.3,0.1-2,0.1c-1.4-0.1-3-0.3-3.9,1.2c-0.5,0.9-1.4,1.1-1.9,1.6
	c-1.9,1.7-4.2,0.1-6,1.4c-1.6,1.1-3.4,1.2-5,0.5c-0.9-0.4-1.4-0.2-2.1,0.1c-3.7,1.9-7.3,3.9-11.7,2.4c-1.1-0.4-2.6-0.9-3.3,0.8
	c-1.2-1.3-2.3-0.2-3.6-0.1c-1.7,0.2-3.4,0.5-5.1,0.9c-1.2,0.3-1.9-1.1-1.9-2.4c-0.1-4.1,0.8-8.1,1.3-12.1c0-0.2,0-0.5,0.4-0.5
	c0.5,0.7,1,1.3,1.9,0.9c0.2-0.1,0.4-0.6,0.4-0.9c-0.1-0.9-0.9-0.9-1.6-1c0-1.2,1.3-1.4,1.7-2c2.1-3.3,4.9-5.1,8.6-5.7
	c0.5-0.1,0.9-0.9,1.4-1.1c2.1-0.8,3.9-2.9,6.5-1.4c0.8,0.5,1.2-0.2,1.9-0.5c2.1-0.8,4.1-2.2,6.3-0.1c0.5,0.5,1.2,0.8,1.9,0.3
	c2.5-2,5.8-1.3,8.6-2.5c1-0.4,2-0.1,3.1,0c2.9,0.3,5.7,0.4,8.4-1.6c3-2.1,6.6-3.4,10.2-3.5c3.7,0,7.1-1.2,9.9-2.9
	c3.7-2.2,7.3-1.6,11.1-1.3c1.8,0.1,4.1,3.4,5.3-0.8c0,0,0.2-0.1,0.2-0.1c2.5,0.7,5.3-1.4,7.5,1c0.6,0.6,1.2,1,2,0.2
	c0.2-0.2,1.2-0.1,1.5,0.2c2.4,2.4,5.5,3.3,8.5,4.4c1.7,0.6,4,1.2,4.4,3.2c0.4,1.8,1,2.5,2.8,2.9c1.3,0.3,2.9,1.8,3.7,1.7
	c2.2-0.3,4.3-0.2,6.4,0.4c0.6,0.2,1.5,0.6,1.9-0.3c0.3-0.7,0.4-1.6-0.3-2.2c-1.7-1.4-1.2-2.8-0.3-4.4c0.8-1.2,1.3-3,0.4-3.9
	c-0.9-1.1-1.8-1.5-1-3.1c0.1-0.3,0.4-1,0.5-1.5c0.2-0.5,0.4-1.5-0.5-1.3c-1.2,0.2-0.9-0.4-0.8-1c0.3-3.1-0.3-6-3-8.1
	c-0.5-0.4-0.9-1.4-1.7-0.8c-0.5,0.4-0.5,1.3-0.2,2c0.5,1.2,0.7,2.5,0.7,3.5c0.2-0.4,0.2-1.3-0.3-2c-1.3-1.8-1-4.9-4.1-5.2
	c-0.2-2.2-1.3-3.4-3.2-4.7c-1.7-1.1-3.9-2-4.9-4.3c-1.2-2.7-4.3-3.1-6.7-4.3c-3.5-1.7-7.1-3.4-11-4c-0.8-0.1-1.6-0.4-2.2-0.8
	c-2.2-1.8-4.9-2-7.4-1.4c-2,0.5-2.5-0.1-2.8-1.7c-0.2-1.6-2.1-2-2.3-1.3c-0.5,2.4-3.6,3.6-2.5,6.9c0.6,1.9,0.4,4.4,0.5,7.5
	c-0.9-1.6-1.6-2.5-1.8-3.5c-0.3-1.2-0.3-2.7-1.4-3.4c-1.3-0.8-1.6-1.9-1.8-3.3c-0.3-1.9-2.1-3.1-3-4.7c-0.4-0.8-0.2,1.2-1.5,1
	c-2.3-0.3,1.1,1.6-0.5,2c-1.8-4.7-0.6-3.7-5.9-4.2c-1.2-0.1-2.3,0.6-3.5,0.1c0.1-0.8,1.3-0.2,1.2-1.3c-3.3,0.4-6.4-1.6-9.9-0.6
	c-0.4,0.1-0.9,0.2-1.2-0.3c-2.6-3.7-6.1-2.6-9.5-1.7c-0.9,0.3-0.9,0.1-1.2-0.6c-0.9-2.6-2.5-3.2-4.8-2.3c-1.7,0.7-2.8-0.2-2.4-1.9
	c0.4-2-1-2.3-1.9-1.8c-2.8,1.4-2.9,0.1-2.5-2.1c0.1-0.6,0-1.1-0.7-1.2c-0.8-0.2-0.6,0.7-0.8,1c-1.6,2.6-3.4,5.1-5.6,7.7
	c0-2.2,0-3.9,0-5.6c0-1.7,0.3-3.4-1.4-4.6c1,0.3,1.6-0.2,1.8-1.1c0.1-0.3-0.1-0.8-0.3-0.9c-0.9-0.3-1.7,0-2.2,0.9
	c-1,1-2,1.9-3.4,3.2c0.2-1.5,1.1-2.8-0.2-3.6c-1.1-0.6-2.2-0.3-3.3,0.7c-0.8,0.8-2,2.1-2.9,2c-2.8-0.2-5.3,0.6-7.9,1.6
	c-1.6,0.7-2.9,2-4.4,2.2c-4,0.5-8,1.2-11.8,2.2c-2.7,0.7-2.6-0.4-2.4-2.3c0.1-0.9,0.4-2.5-0.9-2.4c-1.8,0.2-4.2,0-5.1,2
	c-0.7,1.7-1.9,2-3.2,2.2c-1.4,0.2-2.4,0.8-2.9,2.1c-1.2-0.3-0.1-2.1-1.5-1.9c-0.9,0.1-1.1,0.9-1.3,1.8c-0.3,1.3-1.9,1.4-2.6,1.3
	c-2.2-0.4-3.6,0.4-4.7,2.2c-0.8,1.4-1.7-0.5-2.6,0.1c-0.1,0.1-0.2,0.2-0.4,0.3c0-0.4,0-0.9-0.1-1.3c-0.3-1.6-2.4-1.3-2.9-2.7
	c-1.8,1.4-4.1-0.3-5.9,0.7c-1,0.5-1.7,0-2.3-0.7c-2.1-2.4-4.4-3.7-7.8-2.5c-5,1.8-10.5-0.1-15.5,2.1c-3.6,1.6-7.9,0.2-11.7,1.8
	c-1,0.4-2.3,0.3-3.4,0.5c-3.8,0.7-7.3-1-11-0.7c-2,0.1-5,0.5-6.4-0.8c-2.7-2.5-6.3-0.5-8.8-2.7c-2.2-1.9-6.1,0.3-7.9-3.1
	c-0.3-0.6-1.1,0-1.7,0c-2.6-0.1-5-0.4-7.4-2.1c-2.1-1.5-4.6-3.8-7.8-1.1c-0.6,0.5-3.2,2.6-4.1-0.7c-0.1-0.4-0.8,0-1.1,0.3
	c-0.3,0.5-0.8,0.9-1.3,0.7c-2.9-1.1-6,0.2-8.9-0.6c-0.7-0.2-1.2-0.1-1.5,0.6c-0.3,0.8,0,1.2,0.8,1.4c0.1,0,0.2,0.1,0.2,0.1
	c-0.1,0-0.1,0.1-0.2,0.1c-1.5-2.1-4.6-3-5.9-2.4c-2.5,1.1-4.9,0.5-7.2,0.8c-0.9,0.1-1,0.6-0.5,1.3l0,0c-1.5,1-2.8,2.7-5,2.2
	c-0.3-0.1-0.7,0.4-1.1,0.7c-2.5,1.4-4.3,0.8-5.2-1.8c-0.2-0.4-0.2-1.1-0.9-1.1c-0.9,0-0.5,0.4-0.5,1c0,0.8-0.8,0.5-1.2,0.2
	c-0.5-0.4-0.8-0.7,0.2-1c1-0.3,0.6-1-0.1-1.1c-1.1-0.1-2.3-0.8-3.4,0.6c-0.6,0.9-2,1.2-3.3,1.3c0.1-1.4,2.4,0,1.8-1.6
	c-0.5-1.3-1.7-0.2-2.6-0.3c-1.3-0.1-2.2,1.4-2.2,1.7c-0.1,2.3-1.8,1.6-3,1.8c-0.3,0-0.7,0-1.1-0.1c-0.6,0-1.2,0-1,0.8
	c0.1,0.5,0.5,1.1,1.3,0.5c-2.9,1.6-3.1,1.9-2.2,5c0.2,0.8-0.3,0.5-0.6,0.7c-3.9,3.4-4.4,4.2-5.6,8.6c-0.1,0.3-0.1,1-0.5,0.8
	c-2.6-1.4-1.5,1.2-2.1,1.9c-1.9,2.4-0.4,2.3,1.4,2c0.1,0,0.1,0.1,0.2,0.1c0-0.1,0.1-0.1,0,0c-1.1-0.4-2.5,0.9-3.5-0.8
	c-0.2-0.4-0.8-0.4-1.2-0.1c-0.4,0.4-0.3,0.7-0.1,1.2c0.3,0.4,0.8,0.8,0.5,1.6c-0.2,0.8-3.3-1.7-2,1.5c0.2,0.6-0.6,0.3-1,0.2
	c-0.8-0.1-1.5,0-2.2,0.7c1.1,0.4,1.9,0.8,3.5,1.5c-2-0.1-2.9,0.3-2.7,1.6c0.2,1.2-0.8,0.9-1,0.6c-0.4-0.6-0.6-1.4-1.6-0.8
	c-0.9,0.5-0.3,1.3-0.2,1.9c0.2,1.3,0.8,3-0.4,3.6c-1.8,0.9-0.9,1.6-0.5,2.5c-1.5,1-3.7,0.7-4.8,2.4c-0.4,0.6-0.1,1.8-1.3,1.9
	c-1.4,0.1,0.3-1.7-1-1.7c-1.8,3.7-2.3,5.8-0.9,6.7c1.7,1.1,0,1.7,0,2.5c0,0.9-1.3,1.1-2,0.8c-3.3-1.4-2,1.1-1.7,2.2
	c0.2,1,0.5,2,1.1,2.9c1.3,2,0.4,4-1.7,5.1c-1.9,1.1-4.3,1.8-5.3,4.2c1.7,0.8,3.3,0.8,4.9,0.4c1.8-0.5,3.1-2.3,5.3-1.6
	c0.5,0.2,0.9-0.6,1-1.3c0.2-1.5,0.9-2.1,2.6-2.1c1.5,0,3.2,0,4.7-1.5c0.9-0.8,2.5-2.4,4.3-2.1c1.8,0.3,3.1-0.3,4.5-1.5
	c1.4-1.1,3.1-2.1,5.3-1.8c1.4,0.2,3,0.4,4.4-0.6c0.9-0.6,1.5,0,1,0.9c-1.1,1.9,0,1.8,1.2,1.6c2.6-0.6,5.4-1,8-0.5
	c1.5,0.3,2.2-1.9,3.2-1c2,1.8,4.2,0,6.2,0.9c1.2,0.5,1.9-1.4,3.4-1.3c0,0.7,0,1.4,0,2c0.1,1.4,1.1,1,1.7,0.7c0.8-0.4,1.9-0.8,2.5-1
	c2.6-0.8,5.1,0.4,7.7,0.3c-0.6-0.2-1.4-0.3-1.4,0.5c0,0.8,0.8,0.4,1.3,0.5c1.7,0.4,3.9,1.3,5.2,0c2-2,1.9,2.3,3.5,0.8
	c0.1-0.1,0.2-0.1,0.3-0.1c2.5,0.6,5.3,0.9,7.5,2c1.6,0.8,2.7,1,4.1,0.2c1.8-1,3.3-0.6,4.7,0.7c1.7,1.5,3.8,2.1,6,2.1
	c4.6,0,8.7,1,12.1,4.2c1.5,1.4,3.2,2.8,5.1,3.5c2.5,1,5.2,1.4,8,0.3c-0.3,1.2-1.8,0.1-1.7,1.6c3.1-0.4,5.7,1.7,8.8,1.8
	c0.1,0.7-0.5,0.7-0.8,0.9c-1.2,0.8-0.6,1.5,0.3,1.5c3,0,3.2,2.8,4.7,4.3c-2.4-0.9-2.4,0.3-1.9,1.9c0.3,0.9,1.1,1.7,1.1,2.6
	c0,1.2,1.3,3.2-1.5,3.2c-0.6,0-1.3-0.3-1.6,0.5c-0.3,0.7,0.5,1.1,0.8,1.6c1.2,1.8,0.8,2.7-1.2,3.4c-1.6,0.5-2.4-1-3.6-1.1
	c-1.5-0.2-3-0.4-3.4-2.3c-0.1-0.6-0.6-0.6-1.2-0.8c-2.4-0.8-3.5,0.2-3.5,2.4c-1.9-0.7-3.6-1.8-5.3-1.8c-1.5,0-2.9,1.6-4.6,0.3
	c0,0-0.5,0.5-0.7,0.7c-0.3,0.3-0.9,0.8-1.1,0.3c-0.9-1.6-3.1-1.4-3.8-2.2c-2.2-2.3-3.7-0.9-5.4,0.3c-0.6-1.9-1.3-3.1-3.8-2.6
	c-0.9,0.2-2,0.7-3.2,0.4c-1.5-0.5-2.1-1-2-2.7c0.1-1.1-0.5-1.7-1-0.1c-0.1,0.2-0.5,0.4-0.4,0c0.4-1.8-0.9-1.1-1.6-1.1
	c-2.7,0-5.5-0.3-8.2-0.2c-1.6,0-3.7,0.7-4.7-1.7c-0.2-0.4-1.4-0.6-1.7,0.3c-0.5,1.4-0.6,1.5-1.7,0.6c-1.8-1.5-3.5-1.5-5.6-0.2
	c1,0.6,1.6,0.6,2.3,0.4c-1.8,0.1-1.9,0.2-2.2-0.4c-1-1.9-2.8-1.9-4.1-1.3c-1.3,0.6-2.6,0.5-3.5,0.1c-3-1.4-6.1,1.6-8.9-0.6
	c0,0-0.2,0.1-0.2,0.1c-2.1,0.7-3.9-0.2-5.9-0.5C332.8,200.8,330.3,200.6,328.5,202.1L328.5,202.1z M575.2,52.5
	c-1.3,1.9-0.7,4-1.1,5.9c-0.3,1.6,0.4,3.9,0.4,5.9c0,3.7,0,3.9-3.7,3.3c-2-0.3-1.7,0.7-1.6,1.7c0.1,1.5,1.3,1.2,2.2,1.2
	c2-0.1,2.4,0.8,1.6,2.5c-0.9,1.7-0.9,3.5-0.3,5.2c0.5,1.5-0.1,2.8-0.3,4.2c-0.1,0.6-0.5,1.2-1,0.8c-1.1-0.7-1.1-0.2-1.1,0.7
	c0.1,1.2-0.4,2.3-0.4,3.4c-0.1,2.1-1.1,4.1-0.9,6.3c0.3,3.3,1.2,6.6-0.4,9.7c-1,1.8,0.1,3.9,1,4.3c2.4,1,1.7,2.8,1.8,4.4
	c0.1,1.9,0,3.8,0,5.6c0,1.2,0.2,1.7,1.7,1.5c1.8-0.3,3.5,0,3.8,2.5c0.1,1.4,1.1,2.4,2.4,3.3c1.4,1,3.5,0.8,4.4,2.2
	c0.9,1.3,1.9,1.3,3.1,1.5c4.2,0.7,8-0.9,11.9-1.9c1.5-0.4,3-0.2,4.1-2c0.6-0.9,2.8-1.7,3.8-0.4c2.1,2.8,5.3,3.1,8.2,3.7
	c2.4,0.5,4.2,1.7,5.8,3.4c0.8,0.8,1.5,1.8,2.4,2.5c2.8,2.1,5.1,5.2,8.5,6.2c3.5,1.1,6.4,2.8,9.3,4.8c2.3,1.6,4.1,4.6,7.3,3.8
	c3.5-0.8,6.3-0.3,9.1,1.7c0.7,0.5,1.6,0.8,2.3,1.3c2.1,1.4,4.4,0.1,6.6,0.4c0.4,0.1,0.7-0.5,0.8-0.9c1-5.4,2.8-10.7,3.9-16.1
	c0.9-4.4-0.2-8.6-0.1-13c0-1.1-0.6-1.5-1.6-1.8c-2-0.6-5.8-5.7-5-7.4c1.1-2.3-0.2-3.9-0.5-5.8c-0.3-1.8-0.3-3.5,0-5.3
	c0.9-5.2,3.2-10.2,3.2-15.6c0-4.8,1.4-9.9-3.3-13.5c-0.6-0.5-1-1.3-2-1c-1,0.3-1.1,1.2-0.9,2c0.7,3.1,0.7,6-2.5,7.8
	c-0.1,0.1-0.1,0.3-0.2,0.5c-0.5,1.8-1.4,1.3-2.2,0.3c-1.4-1.7-2.2-3.6-2.1-5.9c0.2-4.3-0.3-8.4-3.6-11.6c-0.4-0.4-0.8-0.8-0.6-1.4
	c0.4-1.1,0.2-1.9-1-1.9c-0.9,0-1.6,0.5-1.8,1.6c-0.5,2.6-0.9,5.3-1.4,7.9c-0.8,4.9-0.9,9.8-0.8,14.7c0,2.4-0.5,4.6-2.1,6.4
	c-0.9,1,0.2,2.9-1.6,3c-1.3,0.1-2.2,1.1-3.4,1.4c-0.8,0.2-1.6,1.4-2.3,0.4c-0.5-0.7-1.1-1.9-0.5-2.7c1.6-2.2,1.8-4.3,0.8-6.8
	c-0.2-0.6-0.1-1.4,0.1-2.1c0.7-2.5,0.5-5,0.3-7.5c-0.3-3.8-1.3-4.2-5-3.3c-1.8,0.4-3.6,1-5.5,0.5c-1.9-0.5-0.9-2.2-1.4-3.4
	c-0.2-0.5-0.6-0.6-1.1-0.6c-0.5,0-0.7,0.4-0.9,0.8c-1.1,2.5-2.7,2.9-4.5,1.2c-0.6-0.6-1-0.2-1.6,0.2c-2.4,1.6-2.3,4.4-3.1,6.7
	c-0.8,2.6-2.3,4.8-3.8,7c-0.6,0.8-1.4,0.8-2.2,0.5c-0.9-0.3-1.1-1.1-0.9-2c0.5-1.8,0.5-3.8,1.7-5.3c3.4-4.2,2.2-9.3,2.9-14.1
	c0.1-0.6-0.3-1.2-0.5-1.8c-0.3-0.9-1.3-1.1-1.7-0.6c-1.4,1.9-4.4,2.6-4.7,5.4c-0.3,2.2-2.2,3.1-3.6,4.4c-0.7,0.7-2.1,0.5-2.5-1
	c-0.2-0.8-0.5-1.5-0.7-2.2c-0.9-0.1-0.6,0.9-1.1,1c-4.5,1.6-3.9,5.6-4.3,9.1c-0.1,0.6,0.7,1.4-0.4,1.8c-0.8,0.2-1.6,0.3-2.3-0.3
	c-0.8-0.7-1.8-1.4-2.1-2.4c-0.7-2.1-2-1.9-3.3-1.1c-1.9,1.1-2.7,0.1-3.4-1.4c-1.2-2.4-1.1-5-1-7.6c0.1-1.5-0.1-2.5-1.8-3.1
	c-1.9-0.6-1.9-1.9-0.6-3.3c0.5-0.5,1.4-1,1-1.7C576,58.5,575.6,55.5,575.2,52.5z M343.2,258.4c-0.2,0-0.7,0-1.1,0
	c-0.4,0-0.7,0.1-1,0.2c-8,2.4-16.1,4.9-22.9,10.1c-0.9,0.7-1.8,5.6-1.1,6.5c0.5,0.6,1.2,0.6,1.7,0.3c1.4-0.7,3.1-1.1,3.8-2.7
	c0.3-0.7,0.4-1.4,1.4-1.4c3.1-0.1,4.8-2.9,7.2-4.3c4.2-2.5,2.6-3.1,7.1-0.4c0.6,0.4,1.2,0.8,1.6,1.4c1.1,1.2,2.1,1.3,3.4,0.2
	c1.8-1.4,5.9-1.3,7.5,0c4.1,3.1,10.9,3.1,14.9-0.1c0.6-0.5,0.9-1.1,0.9-1.9c0.1-2.9-4.2-5.7-6.8-4.5c-0.8,0.4-1.5,1.2-2.4,0.5
	c-1-0.8-1.3-2.2-0.8-3.2c1-1.9,0-1.9-1.3-1.9c-3,0.2-6-0.7-8.9,0.9C345.7,258.6,344.5,259,343.2,258.4z M539.1,104.1
	c-1.4,1-2.9,0.4-3.4,2.2c-0.3,1.1-1.5,0.2-1.5-0.2c0-3.1-2.8-5.6-1.7-8.9c0.2-0.4,0.1-1.2-0.2-1.5c-0.6-0.7-1.2,0.1-1.5,0.5
	c-1.8,2.2-4.6,3.4-6.1,5.9c-2.2,3.5-3.3,7.4-4.2,11.4c-0.4,1.8,0.1,2.6,2.1,2.5c3.3-0.2,6.4-1,9.4-2.4
	C535.7,111.6,538.2,108.8,539.1,104.1z M540.1,100.8c-0.2,1.7-0.1,1.9,0.4,2.2c0.4,0.2,1,0.2,1.1-0.2c0.8-3.9,4.3-6.3,5.3-10
	c1.2-4.4,3-8.6,3.4-13.2c0.1-1-0.4-1.2-1-1.8c-1.3-1.3-2.1,0.2-3.1,0.4c-0.9,0.2-0.1,1,0.2,1.5c0.3,0.5,0.1,0.9-0.1,1.5
	c-1.6,4.4-3.2,8.8-4.4,13.4C541.2,96.8,540,98.9,540.1,100.8z M634.7,703.7c0.4-2.4-1.8-2.1-3.2-2.3c-2.1-0.3-4.5,1.6-4.1,3.3
	c0.3,1.7-0.5,4.4,2.5,4.6C632,709.4,634.8,706.2,634.7,703.7z M532,690.4c-0.7,3.7-0.4,4.8,1.2,6.5c0.9,0.9,1.8,0.8,2.7,0.4
	c1.8-0.9,1.4-2.9,2-4.4c0.3-0.7-0.3-1.5-1.1-1.9c-0.3-0.1-0.7,0-1,0.1C534.4,691.4,533.1,691.1,532,690.4z M586.8,716
	c3.3-2.1,5.3-5,6.8-8.3c0.6-1.2-0.7-1.9-1.6-2.4c-1.1-0.6-1.7,0.3-1.9,1.2C589.3,709.7,586.7,712.2,586.8,716z M674.8,18
	c-1-2-1.5-4-3-5.3c-0.3-0.3-1-0.3-1.5-0.4c-0.1,0-0.3,0.6-0.3,0.9C670.7,15.4,671.5,17.6,674.8,18z M539.8,115.7
	c0-0.4,0.1-0.9-0.3-1.2c-0.6-0.3-1,0.2-1.3,0.6c-0.9,0.9-1.4,2.2-2.6,2.8c-0.4,0.2-0.7,0.9,0.1,1.1
	C536.5,119.2,539.8,116.6,539.8,115.7z M673.6,23.6c0.5-1,0.4-1.6-0.7-1.5c-0.5,0-1.4,0-1.2,0.6c0.3,0.9,0,2.5,1.1,2.7
	C674.2,25.6,673.2,24,673.6,23.6z M319.2,205.6c0.7,0.3,1.4,0.1,1.2-0.6c-0.2-0.9-1.2-0.9-2-0.9c-0.7-0.1-1.7,0.1-1.5,0.9
	C317.2,206.1,318.4,205.2,319.2,205.6z M305.1,184c-1.5-0.6-2.6-1.5-3.8-0.2c-0.3,0.3-0.2,0.7,0.1,0.9
	C302.7,185.7,303.8,184.9,305.1,184z M641.4,541.9c0.4,0,0.6-0.4,0.5-0.7c0-0.4-0.3-0.6-0.7-0.6c-0.5,0-0.6,0.3-0.5,0.7
	C640.8,541.6,641.1,541.8,641.4,541.9z M322.1,302.6c1.6,0.6,2.5,0.7,3.6,0.3C324.7,301.9,323.8,302.3,322.1,302.6z M305.4,182.5
	c1,0.4,1.8,0.6,2.4-0.2C307,181.2,306.3,181.5,305.4,182.5z M433.2,17c-0.1,0.2-0.2,0.3-0.2,0.4c0,0.1,0.3,0.2,0.4,0.2
	c0.1,0,0.2-0.3,0.2-0.4C433.6,17.1,433.4,17,433.2,17z M600.6,581.6c0.5-0.1,0.7-0.3,0.7-0.7c0-0.2-0.3-0.4-0.5-0.4
	c-0.4-0.1-0.6,0.2-0.5,0.6C600.3,581.3,600.5,581.4,600.6,581.6z M622.2,141c0.3-0.1,0.7-0.1,0.7-0.6c0-0.4-0.2-0.6-0.6-0.7
	c-0.6-0.1-0.8,0.3-0.8,0.7C621.4,140.9,621.8,141.1,622.2,141z M257.9,302.7c0,0,0,0.1,0,0.1c0.2,0,0.4,0.1,0.5,0.1
	c0.3-0.1,0.2-0.2,0-0.3C258.2,302.5,258.1,302.6,257.9,302.7z M345.3,122.7c-0.1-0.6-0.5-0.8-1-0.7c-0.4,0.1-0.6,0.4-0.4,0.8
	c0.1,0.3,0.5,0.5,0.8,0.5C345.1,123.4,345.3,123.1,345.3,122.7z M626.3,556.9c0,0.2,0,0.3,0,0.5c0-0.1,0.1-0.1,0.1-0.2
	c0-0.1,0-0.2,0-0.3C626.4,557,626.4,556.9,626.3,556.9z M666,238c0.7,0.1,1-0.3,1-0.8c0-0.4-0.4-0.7-0.9-0.8c-0.6,0-1,0.3-1,0.9
	C665.2,237.7,665.6,238,666,238z M323.5,203.8c0,0-0.3-0.3-0.5-0.3c-0.3,0-0.6,0.3-0.5,0.7c0.1,0.4,0.4,0.6,0.7,0.6
	C323.5,204.8,323.8,204.5,323.5,203.8z M283.8,411c-0.1,0-0.1,0.1-0.2,0.1c0.1,0.1,0.1,0.1,0.2,0.2c0.1,0,0.1-0.1,0.2-0.1
	C284,411.1,283.9,411,283.8,411z M649.6,527.1c-0.1,0-0.1-0.1-0.2-0.1c-0.1,0-0.1,0.1-0.2,0.1c0.1,0.1,0.1,0.1,0.2,0.1
	C649.5,527.3,649.5,527.2,649.6,527.1z"/>
<path class="st0" d="M779.3,419.9c2,0,2.5,0.7,2,2.7c-0.8,3.8,3.3,8.9,7.2,8.7c5-0.3,9.1,2.1,13.5,3.5c1.6,0.5,3.1,0.6,4.5,0.7
	c2.2,0.2,3,1.3,3,3.3c0,3.2,1.6,5.2,4.7,6c2.7,0.6,4.7,2.5,7.2,3.3c2.8,0.9,3.8,0.5,4.2-2.5c0.2-1.2,0.5-1.2,1.4-1.3
	c1.4-0.1,3,0.7,4-1.3c0.3-0.6,1.5-0.1,1.4,0.8c-0.1,3.4,2.3,5.6,4.1,7.9c2.7,3.4,6.2,5.7,10.9,5.6c0.8,0,1.5,0.5,2.3,0.8
	c0.9,0.4,1.9,1,1.8,2.1c-0.1,1.1-1,1.6-2.1,1.8c-2.4,0.4-2.8,1.7-1.5,3.6c1.4,2-0.2,4.4,1.3,6.6c-2.3,0-4.3,0-6.3,0
	c-0.8,0-1.7-0.1-2.1,0.8c-1.2,3.4-3,6.7-2,10.4c0.8,2.7-0.3,5-1.3,7.3c-0.4,1-1.4,1.5-2.1,1.2c-1.8-0.9-3.3-0.2-5,0.1
	c-1.1,0.2-2.5,0-2.4,1.5c0.1,1.3,0.6,3.2,2,3.3c2.5,0.1,2.1,1.6,2.1,3.1c0,2.2-0.3,4.4,2.8,5.1c2.5,0.6,2.2,3,1.9,4.9
	c-0.3,1.8,0.1,3,1.9,3.5c2.4,0.7,2.2,2.6,2,4.4c-0.2,1.8-0.8,3-2.9,4.1c-3.2,1.6-5.8,0.3-8.6,0c-2.2-0.2-4.2-0.4-5.9,1.3
	c-1.2,1.2-2.6,0.3-3.8,0.2c-2.5-0.3-5.1-0.6-7-2.7c-0.4-0.5-1-1.9-1.9-0.2c-0.6,1.2-1.7,0.2-2.3-0.1c-1.2-0.6-0.6-1.9-0.6-2.9
	c-0.1-1,0.6-1.3,1.4-1.2c3.2,0.5,3-1.6,2.8-3.6c0-0.5-0.1-1-0.8-1.1c-2.5-0.5-1.6-2.1-0.5-2.8c2.2-1.5,1.7-3.5,0.9-5.2
	c-0.5-1.2-0.7-1.9,0.4-2.7c0.8-0.6,0.5-1.6,0.6-2.5c0.2-2.2,0.4-4.4,0.5-6.6c0.1-2,1.8-0.8,2.7-1.4c-0.8-3.6-3-1.3-4.4-0.7
	c-1.4,0.6-2,1.8-2.3-0.9c-0.1-1.5-0.9-3.2-1.1-4.8c-0.1-0.4-0.3-1.1-0.6-1.2c-2.7-0.4-3.1-3.6-5.3-4.5c-1.5-0.7-2-2-1.8-3.6
	c0.3-2.7-0.6-4.6-3.2-5.8c-1.1-0.5-1.6-1.7-1.7-3.1c-0.1-1.3,0-3.1-0.8-3.8c-3.8-3.7-2-8.8-3.7-13.1c-0.1-0.4-0.1-0.9-0.1-1.3
	c1.2-5.5-1.7-7.8-5.5-10.1c-0.2-0.1-0.7-0.1-0.8-0.2c-2-3.4-5.6-1.9-8.5-2.5c-2.1-0.4-3.3-1.9-4.9-3c-1.1,0.2,0.5,1.9-1.1,1.8
	c-1.5,0-0.5-1.6-0.9-1.7c-2.1-0.5-3.2-2.4-4.8-3.5c-3.7-2.5-7-5.2-9.5-9c-1.3-2.1-2.6-4.1-3.7-6.3c-0.1-0.2-0.4-0.5-0.4-0.7
	c0.8-2.7-2.1-4.4-1.8-7c0.1-1.1-1-2.3-1.8-2.5c-2.2-0.6-2.7-2.3-2.9-4c-0.5-3.3-3.1-5.2-4.6-7.9c-2.1-3.7-2.6-7.5-0.7-11.3
	c1.2-2.4,0.7-4.7,0.9-7c0.1-0.9-0.5-2.1,1-2.4c1.1-0.2,2,0,2.5,1.3c0.6,1.4,2.8,1.7,3,3.3c0.3,2.5,1.8,2.7,3.7,2.4
	c1.8-0.3,3.8,0.8,5.4-1.3c0.7-0.9,2.7-0.7,4,0.2c1.1,0.8,0.9,1.7,0.1,2.8c-0.6,0.8,0.2,1.3,0.7,1.8c2.5,2.4,5,4.8,7.5,7.2
	c1,1,2,1.7,3.5,1.7c0.5,0,1.2,0.2,1.5,0.6c1.2,2,2.3,4.1,4.9,4.7c0.4,0.1,0.3,0.7-0.2,1c-1.6,1-1.2,2.3-0.3,3.3
	c2.6,2.9,1.5,6.2,1,9.4c-0.2,1.7,0.5,3.9,2.1,4.6c1.5,0.6,1.8,1.7,1.2,3C781,417.3,780.2,418.4,779.3,419.9z"/>
<path class="st0" d="M768,541.5c0.8,0.3,1-0.2,0.8-0.8c-1.1-2.6,1.6-4.8,0.7-7.4c-0.2-0.6,0.4-1.1,1-1c2.1,0.4,2.9-1.2,3.7-2.5
	c2.6-3.8,6.7-4.3,10.6-5.6c2.9-0.9,4.9-0.2,7,1.7c1.3,1.1,2.7-0.4,4.1,0.1c1.5,0.5,2.6,0.6,1,2.4c-1.5,1.6-2,3.6-0.1,5.4
	c0.2,0.2,0.3,0.9,0.3,0.9c-1.9,0.9-1.2,2.7-1.5,4.2c-0.2,0.9-1.6,1.7-0.6,2.5c1.2,0.9,2.4,2.1,4.1,2.1c0.7,0,1.1,0,1.5,0.6
	c1.9,2.9,5.1,3.6,8.4,3c2.2-0.4,4.6-0.5,6.9-0.4c2.3,0.1,5.3-0.8,6.6-2.8c2.4-3.6,6.2-3.1,9.6-4.1c0.5-0.1,1.2-0.3,1.8-0.2
	c0.9,0.1,3.7-1.3,1.7,1.9c-0.6,1,0.4,2,1.7,2.1c0.5,0,1-0.3,1.6-0.3c1-0.1,2.4-0.1,2.6,0.8c0.3,1.1-0.3,2.7-1.4,3.1
	c-1.7,0.6-1.9,1.8-1.9,3.1c0.1,2.8-1.4,4.4-3.6,5.6c-1.7,0.9-2.6,2-2.3,4c0.3,2-0.5,2.7-2.7,3.3c-3.4,0.8-6.8-0.9-10.1,0.7
	c-1.2,0.6-2.9,0.9-4.2,1.3c-4.3,1.5-8.4,0.3-12.5-0.1c-3-0.3-6,0.5-9,0.5c-1.2,0-2.1-0.4-3.2-0.5c-2.3-0.2-4.5-1.3-6.9-1.3
	c-2.4,0-4.6-4.4-3.7-6.7c1.2-3.1-0.5-5.4-3.9-5.6c-1.2-0.1-2.3-1.3-3.1-1.5c-4-1.3-2.9-6.1-5.9-7.9c-0.2-0.1-0.4-0.7-0.2-1
	C767.3,540.8,767.6,541.2,768,541.5z M801.8,548.1c0.1-0.1,0.2-0.3,0.2-0.4c0-0.1-0.3-0.2-0.4-0.2c-0.1,0-0.2,0.3-0.2,0.4
	C801.4,548,801.7,548.1,801.8,548.1z"/>
<path class="st0" d="M722.1,391.9c0.8,6.5-1.4,12.8-1.6,19.3c0,1.5-1.2,2.4-1.6,3.8c-1.8,6.6-0.5,13.3-1.5,19.9
	c-0.8,5-0.7,10.2-2.9,15c-0.8,1.7-0.5,4-0.6,6.1c-0.2,3.5-1.7,6.7-1.4,10.3c0.2,2.4-1.7,3.9-2.5,5.8c-0.4,0.9-3,0.4-3.3-0.7
	c-0.5-2-1.7-3.4-3-4.9c-1-1.2-2-2.9-1.3-4.9c0.5-1.5-0.4-3.2-0.9-4.6c-1.7-4.9-0.7-9.9-0.7-14.8c-0.1-3.8,0.9-7.5,1.1-11.3
	c0.2-6.2,0-12.5,1.4-18.6c0.3-1.2,0.3-2.5,0-3.7c-2.1-9.3,0.7-18.6,0.4-27.9c-0.1-2.7,1.1-5.2,0.8-7.8c-0.2-1.6,0.8-2.3,2.4-1.5
	c1.4,0.8,2.4,0.5,2.9-1.1c0.3-1,0.7-1.9,1.7-1.5c1.4,0.6,3.9-0.5,4,1.8c0.1,3.5,2.1,5.3,4.5,7.1c1.4,1.1,1.7,2.5,1.7,4.2
	C721.6,385.1,722.7,388.5,722.1,391.9z"/>
<path class="st0" d="M695.9,0.8c16,0,32-0.1,48-0.1c5.5,0,10.9,0,16.4,0c1,0,2.1-0.3,2.2,1.5c0.4,8.6,1.7,17.1,2.6,25.7
	c0.1,0.5,0,1.1,0.1,1.6c0,3.3,2.4,4.8,5.6,3.3c0.7-0.3,0.3-0.9,0.3-1.3c2.5-0.6,3.6,1.1,4.4,3c0.6,1.3,0.8,2.8,1.2,4.3
	c-1.3,0.1-1.9,0.7-1.8,2c0.2,2.5,0.8,4.8,1.7,7.2c0.3,0.9,0.8,1.2,1.7,1.3c1,0,1.7-0.4,1.9-1.4c0.2-0.9,0.2-2,0.6-2.8
	c1.3-3.1,1.1-3.9-2.1-5.1c-0.6-0.2-1.2-0.3-1.5-0.9c4.4,0.1,5.8,1.8,4.8,6c-0.3,1.1-0.6,2.2-0.9,3.4c-0.4,1.7-1.3,2.7-3.2,2.5
	c-1.6-0.2-1.8,0.6-1.9,2.1c-0.5,7.4,1.2,14.7,0,22.1c-0.4,2.5-0.2,5.1,0.3,7.7c0.7,3.4-0.1,4.6-2.6,5c-0.3,0.1-0.7,0.1-1,0.1
	c-5.3-1.3-9.2-6.3-9.6-11.9c-0.6-9.6-1.2-19.2-2.2-28.7c-0.4-3.7-0.3-7.3-0.4-10.9c-0.1-2,0.3-3.9,2.6-4.7c0.6-0.2,1.4-0.7,0.9-1.3
	c-1.5-2.3-0.5-4.7-0.8-7.1c-0.1-0.9,0.2-1.9-1.1-2.5c-1.2-0.6-0.2-1.7,0.1-2.3c1-2.3,0-3.2-2.2-3.6c-0.5,1.4,1.9,2,0.6,3.6
	c-3.2-3.5-7.4-3.9-11.8-3.9c-1.2,0-2.7,0-3.2-1c-1.5-3-4.1-2.3-6.5-2.2c-2.2,0.1-3.2,1.8-2.4,3.9c1.1,3.4,3.8,4.7,7.1,5.2
	c1.5,0.2,3.4,2.9,3.1,4.3c-0.3,1.6-1.9,1.4-2.6,1c-2.7-1.3-5.4-0.8-8.1-0.5c-1.4,0.1-3,0.2-3-1.7c0-1.4,1.5-1.7,2.8-2
	c0.4-0.1,0.8-0.2,1.3-0.3c-1.7-2.1-2.5-4.8-5.6-5.2c-0.2,0-0.5-0.4-0.7-0.4c-2.9,0.7-4.1-0.4-4-3.4c0-0.8-0.9-0.9-1.7-1
	c-2.3-0.4-4.6-0.5-6.9-0.6c-2.4,0-4.7-0.3-4.8-3.7c0-1.2-0.8-2.5-2.3-2.7c-4.3-0.5-8.1-3.5-12.8-1.8C697.7,2.4,696.3,2.1,695.9,0.8z
	"/>
<path class="st0" d="M302.3,0.7c5.6,0,11.1,0,16.7,0c-0.3,1.7-1.7,2.2-3,2.6c-0.5,0.2-1,0.4-1,1c0,0.5,0.5,1,0.8,0.9
	c2.4-1.3,4.7,1.1,7.2,0.2c3.6-1.2,3.6-1,3.7,2.8c0,2.2-0.4,4.2,1.7,6.2c1.6,1.5,0,4.6-0.5,6.9c-0.5,2.5-1.1,4.6-4.5,5.4
	c-2.6,0.6-3.9,3.9-5.6,6.2c-0.3,0.3-0.4,0.8-0.6,1.2c-0.9,1.1-1.9,2.7-3.3,2.3c-1.6-0.5-0.1-2-0.1-3c0.1-4.5-1-6.1-5.7-6.9
	c-0.9-0.2-1.3-0.5-1.3-1.4c0.1-2-0.4-4,1.8-5.5c1-0.7,2-2.2,0.7-3.4c-1.1-1-2.3-0.5-3.2,0.6c-0.3,0.3-0.7,0.9-0.9,0.9
	c-2.3-0.4-3.1,1.2-4,2.8c-1.7,3-4.6,3.1-7.5,2.5c-1.8-0.4-3.5-0.7-4.7,1.2c-0.6,0.8-1.6,0.8-2.5,0.6c-1.5-0.3-2.9-2.1-4.3,0.3
	c-0.3,0.5-3.6-2.8-3.9-3.9c-0.6-2.5,1.1-3.9,2.5-5.4c1.6-1.7,2.5-4.1,4.2-5.6c1.7-1.5,3.5-3.7,6.4-3.1c1.7,0.4,3.4-0.1,5,0
	c1.1,0.1,2.2-0.4,2.6-1.1C299.8,4.2,301.9,3,302.3,0.7z"/>
<path class="st0" d="M476.7,728.1c-3.4,3-5.3,7.1-9.3,9.2c0.1,0.9,1.1,0.7,1.6,1c3.5,1.4,4.1,2.8,2.3,6.1c-1,1.8-1.4,4.4-4.4,3.9
	c-0.2,0-0.4,0.3-0.6,0.4c-3.1,2.6-3.2,2.7-6.1,0.1c-1.3-1.1-2.7-0.7-4.1-0.7c-2.2,0-3-0.8-2.4-3.1c0.9-3.6,3.1-5.8,6.4-6.9
	c1.3-0.4,1.4-1,0.7-1.9c-2.1-2.8-1.4-5.9-0.8-8.9c0.3-1.5,0.3-2.9-0.4-4.4c-0.9-1.9-1-4.3,0.7-5.7c1.8-1.5,3.7-0.3,5.5,0.9
	c2.1,1.4,3.5,3.3,4.8,5.4C472.1,725.7,474.3,726.8,476.7,728.1z"/>
<path class="st0" d="M836.4,708.1c0.1,0.4,0.1,0.9,0.2,1.3c0.1,0.8,0,2,1,1.9c1.3-0.2,0.2-1.2,0.3-1.9c0.1-1.3,0.4-2.6,1.7-3.1
	c1.3-0.5,2.2,0.5,2.8,1.5c1.3,2,2,4,0.2,6.1c-0.8,1-0.7,1.9,0,2.9c1.2,1.7,2.7,3.2,4.4,4.2c2.6,1.3,2.4,3.2,1.3,5.1
	c-1.4,2.4-1.2,4.7-0.4,7.1c1.1,3.2,0,6.4-2.7,8.4c-1.8,1.3-3.8-0.8-5.5,0.8c-0.3-1.8-1.5-3.3-1.5-5.2c0.1-4.9,0-9.8,0.1-14.6
	c0-1.4-0.2-2.5-1.6-3.3c-3.1-1.9-3.3-5.2-3.3-8.5C833.4,709.1,835.3,709.2,836.4,708.1z"/>
<path class="st0" d="M770.2,23.7c-0.8-0.5-0.5-1.2-0.5-1.9c-0.4-6.3,0.5-12.6-0.6-18.9c-0.2-1.3,0.3-2.2,1.9-2.2
	c12.8,0.1,25.5,0.1,38.3,0.1c-0.3,1.3-1.6,0.9-2.4,1.4c-2.3,1.4-5,1.7-7.3,3.5c-2.1,1.7-5.1-0.3-7.6-1.1c-2.6-0.8-4.4,0.2-4.9,2.8
	c-0.3,1.9-1.2,3.2-3.2,3.1c-1.2,0-2.1,0.3-2.7,1.4c-0.6,1.2-1.7,1-2.4,0.2c-2.5-2.7-4-0.5-5.8,0.9c-0.2,0.2-0.2,0.5-0.8,0.5
	c0-1,0-2.1,0-3.4c-2,2.5-1.6,5.1-1.7,7.7C770.4,19.7,771,21.8,770.2,23.7z"/>
<path class="st0" d="M422.1,660.1c0-0.3-0.1-0.5,0-0.7c1.3-3.3,0.7-5.4-3.3-5.8c-1.4-0.2-1.3-1.4-0.6-2.2c1.7-2,6.3-2.3,8.2-0.7
	c1.2,1.1,2,2.5,2.1,4.2c0,1.6,0.8,1.9,2.2,1.9c1.1-0.1,2.2,0.1,3.2,0c2-0.2,3.3-0.1,3.4,2.6c0,2.1,2,2.7,3.9,2.7
	c5.3,0.2,5.5,0.6,3.2,5.3c-2.7,5.3-5,5.4-8.7,0.6c-0.5-0.6-1.1-1.1-1.3-2c-0.3-2.4-2.3-2.9-4-2.6c-2.3,0.4-4.2-0.4-6.3-0.7
	C422.5,662.5,421.8,661.6,422.1,660.1z"/>
<path class="st0" d="M440.6,739.8c-1.8-0.8-3.6,0-5.4,0.5c-3.1,0.8-4.1,0.1-4.2-3.1c0-0.9-0.5-1.6-1-1.7c-2.2-0.2-3.4-2.3-5.3-2.8
	c-1.5-0.5-2.1-1.9-2.9-3.1c-0.5-0.7-0.1-1.7,0.6-1.7c2.2,0,3.8-2.4,6.7-0.2c2.1,1.6,5.9,3.8,9.5,0.9c1.8-1.4,4-0.1,5,2.2
	c0.5,1.2,1.4,1.3,2.4,0.9c0.8-0.3,1.4-1.4,2.3-0.3c0.7,0.9,0.8,2,0.5,3.1C448.3,736.1,442.4,739.8,440.6,739.8z"/>
<path class="st0" d="M237.5,469.9c1.7-0.1,1.8,1.5,2.5,2.5c2,2.8,4.1,5.5,5.9,8.4c0.7,1.1,1.9,2.7,0.6,3.9c-1,0.9-2.6,0.3-3.9-0.5
	c-4.5-2.9-7.8-6.8-10.6-11.4c-2.4-4-4-8.2-5.3-12.7c-1-3.6-0.6-7.3-0.6-10.9c0-1.5,1.3-1.5,2.1-1c1,0.6,1.9,1.4,2.3,2.8
	c1.6,5.6,3.4,11.1,6.5,16.2c0.4,0.7,0.3,1.7,0.4,2.6c-0.6-0.1-0.8-0.6-1-1c-2.3-4.5-4.5-9.1-6.9-13.7c-1.2,1.1-1.5,2.6-0.7,3.6
	c1.2,1.5,0.8,3,0.9,4.5c0,0.8-0.2,2.2,0.2,2.3c3,1.3,2.6,4.5,3.9,6.8c2,3.5,4.9,6.3,9.2,7.9c-1.2-1.8-1.9-3.7-3.2-5.2
	C238.7,473.4,237.4,472,237.5,469.9z"/>
<path class="st0" d="M834.5,658.9c-2.3-0.6-5.3-1.1-8.1-2c-2-0.6-2.7-2.4-2.9-4.4c0-0.4-0.1-0.8,0.2-0.9c3.5-1.7,6.3-4.5,11-3.6
	c3.7,0.7,6.5,1.6,8.3,5c0.7,1.4,0.7,2.5-0.8,3.4C839.9,657.6,837.8,659,834.5,658.9z"/>
<path class="st0" d="M677.7,7.1c3.1-0.7-0.3-1.9,0.2-2.8c2,0.7,3.9,1.7,5.3,3.4c0.3,0.4,0.8,0.8,1.3,0.4c0.5-0.4,0.2-1,0-1.5
	c1.1,0.2,1.2-1.2,2.5-1.4c-0.2,4.3,2.6,7.3,5.1,10.3c1.6,2,2.1,4.6,3,7c0.1,0.4,0.1,1-0.2,1.3c-0.5,0.5-1,0-1.4-0.2
	c-1.4-1.1-2.7-2.3-3.2-4.1c-0.3-1-1.1-2-2.3-2c-1.2,0-0.5,1.3-0.9,1.9c-0.3,0.5-0.6,0.9-0.8,1.3c-0.3,0.6,0.2,1.9-1.2,1.5
	c-1.3-0.3-1.5-1.6-0.9-2.4c1.6-2.2,0.5-3.2-1.4-4c-1.1-0.5-1.7-1.6-2.1-2.6C679.9,11.1,679.1,9,677.7,7.1z"/>
<path class="st0" d="M685.4,727c2.7,0,1.3-3.6,3.8-3.9c1-3.6,2.7-0.9,3.7-0.2c1.5,1.2,2.5,1.3,3.4-0.6c1.4,1.6,2.4,3.2,3.3,4.8
	c1.2,1.9-0.7,3.8-1.1,5.8c-0.1,0.6-0.7,1.2-1.1,1.8c-1.1,1.4-2.2,1.3-3.1-0.2c-0.4-0.7-1-1.4-1-2.1c-0.2-4.2-3.9-3.6-6.3-4.7
	C686.5,727.5,685.9,727.8,685.4,727z"/>
<path class="st0" d="M426.6,705.5c3.8-0.6,6.6,1.7,7.1,5.4c0.4,3.1,0.9,6.2,0.3,9.4c-0.3,1.6-1.1,2.4-2.4,2.9c-1,0.4-2.2,0.7-3-0.3
	c-0.9-1.1-1.8-2.6-0.9-3.9c1.3-1.9,0.6-3.5-0.3-5.2c-1.1-2-1.4-3.8,0.6-5.6C429.2,707.1,428.1,706.3,426.6,705.5z"/>
<path class="st0" d="M454.3,724.9c-0.2,1.2,0.8,2.9-1.4,3.5c-2,0.5-3.9,0.1-5.5-1c-0.9-0.6-0.8-1.7-0.5-2.7c0.7-2,0.8-3.7-1.6-4.9
	c-1-0.5-2.1-1.7-1.6-3.1c0.5-1.5,2-1.9,3.5-1.9c3.2,0,5.2,1.7,5.9,4.9C453.5,721.5,454.8,723,454.3,724.9z"/>
<path class="st0" d="M674.9,736.7c0.8,2.6-1,4.2-2.9,5.7c-1.5,1.2-5.7-0.7-6.1-2.7c-0.1-0.5,0.1-1.2-0.2-1.6
	c-2.5-3.3-0.3-4.6,2.3-6.1c1.3-0.8,2.4-3.1,4-1.6C673.7,731.9,675.6,733.7,674.9,736.7z"/>
<path class="st0" d="M844.5,631.5c-1.8-0.5-3.6-1.5-4-3.6c-0.4-2.1,1.3-2.9,3.1-3.2c0.7-0.1,1.3-0.4,1.9-0.7c2.6-1.4,4.3-1,6.1,1.5
	c1.7,2.3,1.1,3.6-1.6,4.5c-1.6,0.5-3.2,0.9-4.8,1.4C845,631.4,844.8,631.4,844.5,631.5z"/>
<path class="st0" d="M401,700.8c0,2.2-1.3,3.4-3.4,3.2c-2.1-0.3-3-1.5-2.6-3.7c0.2-1.3,0.4-2.7-0.5-4.1c-1.1-1.8-0.2-4,1.6-4.8
	c1.8-0.8,2.9-0.1,3.3,1.8C399.9,695.8,400.5,698.3,401,700.8z"/>
<path class="st0" d="M262.6,722.7c1.8-0.3,2.2-1.2,2.3-2.7c0.1-2.1,2.8-3.4,4.8-2.7c3,1.1,5.6,4.9,4.2,8.7c-0.4,1-1.3,1.4-1.7,0.7
	c-0.7-1.3-2.2-1.2-2.9-2.2c-1-1.5-2.3-1.5-3.8-1.1C264.5,723.8,263.7,723.5,262.6,722.7z"/>
<path class="st1" d="M777,38.8c0.3,0.7,0.9,0.7,1.5,0.9c3.1,1.2,3.4,2,2.1,5.1c-0.4,0.9-0.4,1.9-0.6,2.8c-0.2,1.1-0.9,1.4-1.9,1.4
	c-0.9,0-1.4-0.3-1.7-1.3c-0.8-2.3-1.5-4.7-1.7-7.2c-0.1-1.4,0.5-2,1.8-2C776.6,38.8,776.8,38.8,777,38.8z"/>
<path class="st1" d="M734.8,98.2c-2,0.2-2.8-0.6-2.8-2.6c0-1.7,0.9-2.4,2.5-2.5c1.4,0,2.8,0.7,2.4,2
	C736.6,96.2,737.6,98.7,734.8,98.2z"/>
<path class="st0" d="M825.5,637.5c1,0.2,2.4,0.1,2.7,1.7c0.2,1-2.5,3.7-3.5,3.7c-2.5,0-1.6-2.3-2-3.4
	C822.4,638.2,824,637.5,825.5,637.5z"/>
<path class="st1" d="M150.7,387.7c-0.9-0.2-1.5-0.8-1.5-1.8c0.1-2,2.1-2.2,3.4-2.9c0.6-0.3,1.3,0.5,1.5,1.2
	C154.3,385,151.6,387.7,150.7,387.7z"/>
<path class="st0" d="M670.2,2.7c1.3,0.6,2.6,0.9,2-1.3c-0.2-0.8,0-0.9,0.6-0.8c1.6,0.2,2.3,2.1,4,2.4c-1,0.6-0.6,1.7-0.8,2.6
	C673.7,5.2,671.5,5,670.2,2.7z"/>
<path class="st1" d="M753.9,59.7c0.4,1.2,0.3,2.4,0.2,3.7c-0.2,1.3-1.3,1.4-2.2,1.4c-1.3-0.1-0.7-1.2-0.5-1.9
	C751.7,61.5,751.9,59.9,753.9,59.7z"/>
<path class="st0" d="M681.9,3.9c-1.8-0.3-2.9-1.5-4-3c1.1-0.5,2-0.3,2.9-0.2C681.2,1.8,681.6,2.9,681.9,3.9z"/>
<path class="st0" d="M770.9,31.4c-1.1-1.3-1.4-2.8-0.8-4.4C771.6,28.3,771,29.9,770.9,31.4z"/>
<path class="st0" d="M726.6,97.8c-0.7-0.3-1.6-0.4-1.5-1.5c0-0.5,0.3-1,0.8-0.9c0.8,0.2,1.2,1,1.5,1.7
	C727.5,97.5,727.1,97.8,726.6,97.8z"/>
<path class="st0" d="M704.3,75.6c-0.1,0.2-0.2,0.4-0.3,0.5c-0.3,0.1-0.5-0.2-0.5-0.4c0-0.2,0.1-0.3,0.2-0.5
	C703.9,75.3,704.1,75.5,704.3,75.6z"/>
<path class="st0" d="M669,0.8c0.9-0.1,1.1,0.3,0.8,1.1C669.2,1.8,669.1,1.2,669,0.8z"/>
<path d="M373.7,0.7c-0.1,1-0.2,2-0.3,3.2c-1.1-1.1-0.6-2.2-0.7-3.2C373,0.7,373.4,0.7,373.7,0.7z"/>
<path class="st1" d="M265.3,345.4c-0.8-0.3-1.8,0-2.6-0.7c0.8-1.2,2.2-1.8,3.9-3.1c-3.7,0.4-4.3-1.4-3.8-4c0.3-1.5-0.7-1.9-2.3-2.3
	c4,0.1,2.6-1.9,1.9-3.5c-0.9-2.2-0.2-4.6-0.4-6.8c-0.1-1.2,0.4-2.9-1.9-2.5c-0.3,0.1-0.7-0.1-0.8-0.5c-0.1-0.6,0.2-0.8,0.7-0.9
	c0.7-0.1,1.1-0.5,0.7-1c-0.9-1.4-2.5-2.7,0.1-4.1c0.3-0.2-0.6-0.8-1-0.9c-2.4-0.7-0.7-1.8,0-2.1c1.4-0.5,0.8-1,0.6-1.9
	c-0.3-2.1-0.9-3.8-3.5-4.2c1.7-0.4,1.4-2.8,3.4-2.9c0.7,0,0.6-1,0.6-1.6c-0.1-0.7-0.3-1.5-1-1.3c-2.2,0.4-1.1-1.4-0.9-1.7
	c1.4-1.7,1-3.4,0.2-5.2c-1-2.4,0.3-3.9,2.7-4.6c2-0.6,5.1,0.5,5.9-3.5c0.8,2,1.9,2.8,3.6,2.8c1.5,0,3-0.2,4.4-0.9
	c1.7-0.9,3.4-1.5,5.2,0c0.7,0.6,1.8,0.8,2.8,0.7c0.5,0,1.3-0.3,1.4,0.4c0.5,2.2,2.2,1.7,3.7,1.7c0.4,0,1-0.1,1,0
	c1.4,4.2,6.1,1.8,8.3,4.2c0.4,0.4,1.2,0.5,1.4,1.2c0.7,2.6,1.8,4.9,5.2,4c0.6-0.1,1.1,0.2,1.1,0.8c0,0.6-0.6,0.5-1,0.5
	c-1.1,0-2.1,0-3.1,0.8c1.6,0,3.1,0,4.6,0c0.6,0,1.8-0.4,1.6,0.6c-0.2,1.2-1.2,0.7-2,0.3c2.2-0.5,4.3-1.5,6.6-0.1
	c0.7,0.4,2.5,1.9,3.7-0.6c0.4-0.8,3.3-0.3,5-0.4c0.4,1.2-1.1,0.7-0.8,1.6c1.9-0.3,3.7,0.1,5.7-1.1c1.8-1.1,4.7-0.4,7.1-0.5
	c1.6-0.1,3.3,0.4,4.5-0.2c0.4-0.4,0.5-0.4,0.6-0.5c-0.1,0-0.2,0.1-0.3,0c-0.4-0.1-0.9,0.1-1.2-0.7c2.6-0.3,5.2,0,7.6-0.6
	c-0.4-0.6-0.8-1.3,0.5-1.6c0.3-0.1,0.7,0,1,0.1c2.7,0.4,5.2,1.1,7.5-1.6c0.7-0.8,3.1-0.3,4.7-0.4c1.1,0,2.3,0.6,2.5-1.4
	c0.1-1.6-1.5-0.4-1.7-1.6c2-0.2,3.9-0.4,5.8-0.6c1.6-0.2,3.2-0.3,2.3-2.7c-0.3-0.8,0-1.7,1.3-1.1c1.3,0.6,1,0,0.8-1
	c-0.6-3-1.7-3.2-4-1.2c-1.8,1.5-4.3,0.5-6.4,0.3c-0.5-0.1-0.9-1.9-2.1-2.4c-0.1,0,0.2-1.4,0.3-1.4c2.4-0.3,4.7-2.1,6.9-1.7
	c1.4,0.2,1.5-0.4,2.2-0.7c1.1-0.4,2.4-0.7,3.4-0.9c3.4-0.7,4.5-3.8,6.8-5.3c1.7-1.1,0.2-2.9,1.8-3.8c0.8-0.5,0.6-2.1,2.2-2.5
	c1.1-0.3,0.5-2.5,1.4-3.9c1.6-2.5,3.3-3.4,5.9-2.1c1.2,0.6,2.4,1.1,3.7,1.6c0.5,0.2,0.9,0.3,1.2,1.1c1.3,3.6,3.7,4.4,7.5,3
	c1.4-0.5,2.9-1,4.4-0.6c0.3,0.1,0.9,0.1,1,0.2c1.2,3.1,3.5,1.2,5.2,1c1.2-0.2,2,1.1,3.2,0.4c0.1-0.1,0.8,0.5,0.9-0.3
	c0.1-0.4,0.3-0.9-0.5-1c-1.6-0.1-2.7-0.8-3.1-2.5c-0.1-0.4-1.4-0.3-2.2-0.3c-1.7,0.1-3.1-0.2-3.7-2.4c-0.3-1.1-1.5-2.5-3.3-2.6
	c-1.7-0.1-3.2-1.5-5-0.3c-0.3,0.2-0.9,0-1.1-0.5c-1.2-2-1.2-2-3.8-2.2c-0.6,0-1-0.4-0.9-1.1c-0.4-0.3,0.1-1-0.7-1.2
	c0.3,0.5,0.5,0.8,0.7,1.2c0.3,1.3-0.9,0.8-1,0.6c-3.4-4.1-8.4-3.3-12.8-3.9c-0.2-0.7,0.3-0.7,0.5-0.8c0.2-0.1,0.5-0.1,0.7-0.4
	c-2,0.2-3.4-2.1-5.9-0.9c-0.9,0.4-2.8-0.4-4.3-0.7c-4.9-0.8-9.7,0.8-14.6,0.3c-2.2-0.2-4.5-0.1-6.7-0.4c-1.2-0.2-2.9,1.7-4.7,1.5
	c-2.7-0.4-5.9,0.6-8-2.1c-0.3-0.4-1-0.6-0.7-1.3c0.3-0.6,0.7-0.1,1.1-0.1c0.1,0,0.2-0.2,0.3-0.4c0.1-2.4,2.7-3.1,3.6-4.9
	c0.9-1.9,1.5-0.4,2.2-0.2c-0.7-0.4-0.8-2.4-2.2-0.6c-0.5,0.7-0.9-0.2-1.4-0.2c-0.7,0-1.5-0.5-2,0.8c-0.4,1.1-2.3,1.2-2.8,0.7
	c-1.8-1.8-3.4,0.5-5-0.6c0,0.3,0,0.6,0,0.9c2.4,0,4.9,0,7.3,0c-0.1,1.1-0.9,1.3-1.2,1.2c-2.5-0.8-5,0.9-7.6-0.1
	c-1.8-0.8-3.1,1.3-4.2,2.3c-2.3,1.9-4.7,0.8-7,1.2c-1.1,0.2-0.5-1.6-1.1-2.6c-1.4,1.6-2.2,0.8-2.9-0.7c-0.4-0.9-0.7-2.3-1.3-2.4
	c-4-0.8-0.6-2.1-0.2-3c0.4-1.1,0.9-2.1-0.1-3.2c-1.5-1.7-3.3-2.2-5.4-1.3c-0.6,0.3-1,1-2,1c0.5-2.7,0.4-3.8-3.3-3.6
	c-2.7,0.1-6.2-1.4-9.3-2.6c2.4-1.6,2.4-1.6,2.3-5.5c-0.2,0-0.4,0-0.5,0c-1,0.1-2.7,1.1-2.8-0.6c-0.1-1.3,1.6-1,2.6-1
	c2.3-0.1,2.7-0.8,1.7-3c-0.9-2,0.7-1.7,2.4-2c-3-0.2-2.5-1.5-1.2-2.3c2.3-1.5,4-3.1,3.6-6.1c-0.1-0.5,0.5-1.5,1.4-0.6
	c0.4,0.3,0.8,1.2,1.2,0.7c2.5-2.2,7.2,0.4,8.6-4.1c0.2-0.6,5.9-1,6.8-0.6c4.2,2,7.4,1.3,10.3-2.4c0.6-0.7,1.6-1.1,2.5-0.2
	c0.2,0.1,0.4,0.2,0.6,0.2c0.1,0,0.2-0.1,0.2-0.1c-0.3,0-0.6,0-0.9-0.1c1.8-1.6,4.3-1.3,6.2-1c2,0.3,3.8,1.2,5.9,0.5
	c0.1,0,0.2-0.1,0.2-0.1c2.8,2.3,6-0.7,8.9,0.6c0.9,0.4,2.2,0.6,3.5-0.1c1.3-0.6,3.2-0.6,4.1,1.3c0.3,0.6,0.4,0.5,2.2,0.4
	c-0.7,0.1-1.3,0.2-2.3-0.4c2.1-1.3,3.8-1.4,5.6,0.2c1.1,1,1.1,0.9,1.7-0.6c0.3-0.9,1.5-0.7,1.7-0.3c1,2.4,3.1,1.7,4.7,1.7
	c2.7,0,5.5,0.3,8.2,0.2c0.6,0,2-0.7,1.6,1.1c-0.1,0.4,0.3,0.3,0.4,0c0.5-1.6,1.1-1.1,1,0.1c-0.1,1.6,0.5,2.2,2,2.7
	c1.2,0.4,2.3-0.2,3.2-0.4c2.5-0.5,3.2,0.7,3.8,2.6c1.7-1.1,3.1-2.6,5.4-0.3c0.8,0.8,2.9,0.6,3.8,2.2c0.3,0.4,0.8,0,1.1-0.3
	c0.3-0.2,0.7-0.7,0.7-0.7c1.7,1.4,3.1-0.3,4.6-0.3c1.7,0,3.4,1.1,5.3,1.8c0.1-2.2,1.2-3.2,3.5-2.4c0.5,0.2,1,0.2,1.2,0.8
	c0.4,1.9,1.9,2.1,3.4,2.3c1.3,0.2,2,1.6,3.6,1.1c2-0.6,2.5-1.5,1.2-3.4c-0.3-0.5-1.1-0.8-0.8-1.6c0.3-0.8,1.1-0.5,1.6-0.5
	c2.7,0,1.5-2.1,1.5-3.2c0-0.9-0.8-1.7-1.1-2.6c-0.5-1.5-0.5-2.7,1.9-1.9c-1.6-1.6-1.7-4.3-4.7-4.3c-0.9,0-1.6-0.7-0.3-1.5
	c0.3-0.2,0.9-0.2,0.8-0.9c-3.1-0.1-5.7-2.2-8.8-1.8c0-1.5,1.4-0.4,1.7-1.6c-2.8,1.1-5.5,0.7-8-0.3c-1.9-0.7-3.6-2.1-5.1-3.5
	c-3.4-3.3-7.5-4.3-12.1-4.2c-2.2,0-4.3-0.6-6-2.1c-1.4-1.3-2.8-1.7-4.7-0.7c-1.3,0.8-2.5,0.6-4.1-0.2c-2.3-1.1-5-1.4-7.5-2
	c-0.1,0-0.2,0-0.3,0.1c-1.5,1.5-1.4-2.8-3.5-0.8c-1.3,1.3-3.4,0.4-5.2,0c-0.5-0.1-1.2,0.3-1.3-0.5c0-0.8,0.8-0.7,1.4-0.5
	c-2.5,0.2-5.1-1.1-7.7-0.3c-0.6,0.2-1.7,0.6-2.5,1c-0.6,0.3-1.6,0.6-1.7-0.7c0-0.6,0-1.2,0-2c-1.5-0.1-2.2,1.9-3.4,1.3
	c-2-0.9-4.3,0.9-6.2-0.9c-0.9-0.9-1.6,1.3-3.2,1c-2.6-0.5-5.3,0-8,0.5c-1.2,0.3-2.4,0.3-1.2-1.6c0.5-0.9-0.1-1.5-1-0.9
	c-1.4,1-3,0.8-4.4,0.6c-2.1-0.3-3.9,0.7-5.3,1.8c-1.4,1.2-2.7,1.8-4.5,1.5c-1.8-0.3-3.4,1.3-4.3,2.1c-1.5,1.5-3.2,1.4-4.7,1.5
	c-1.8,0-2.4,0.6-2.6,2.1c-0.1,0.7-0.5,1.5-1,1.3c-2.2-0.7-3.5,1.2-5.3,1.6c-1.6,0.4-3.2,0.5-4.9-0.4c1-2.5,3.4-3.1,5.3-4.2
	c2-1.2,3-3.2,1.7-5.1c-0.6-0.9-0.9-2-1.1-2.9c-0.3-1.1-1.6-3.6,1.7-2.2c0.7,0.3,2,0.1,2-0.8c0-0.8,1.7-1.3,0-2.5
	c-1.4-1-0.9-3.1,0.9-6.7c1.3,0.1-0.4,1.8,1,1.7c1.1-0.1,0.8-1.3,1.3-1.9c1.1-1.7,3.3-1.4,4.8-2.4c-0.5-0.9-1.3-1.6,0.5-2.5
	c1.2-0.6,0.6-2.3,0.4-3.6c-0.1-0.6-0.6-1.4,0.2-1.9c0.9-0.5,1.1,0.2,1.6,0.8c0.2,0.3,1.2,0.6,1-0.6c-0.2-1.3,0.7-1.7,2.7-1.6
	c-1.6-0.7-2.4-1-3.5-1.5c0.7-0.8,1.4-0.8,2.2-0.7c0.4,0,1.2,0.3,1-0.2c-1.2-3.1,1.8-0.6,2-1.5c0.3-0.8-0.3-1.1-0.5-1.6
	c-0.3-0.4-0.3-0.8,0.1-1.2c0.4-0.4,0.9-0.3,1.2,0.1c1,1.6,2.4,0.4,3.5,0.8c0-0.1,0,0,0,0c-0.1,0-0.2-0.1-0.2-0.1
	c-1.8,0.3-3.4,0.4-1.4-2c0.6-0.7-0.5-3.3,2.1-1.9c0.4,0.2,0.4-0.5,0.5-0.8c1.2-4.4,1.7-5.2,5.6-8.6c0.3-0.2,0.8,0.1,0.6-0.7
	c-0.9-3-0.7-3.4,2.2-5c-0.8,0.6-1.2,0-1.3-0.5c-0.2-0.8,0.4-0.8,1-0.8c0.4,0,0.7,0.1,1.1,0.1c1.2-0.1,2.8,0.5,3-1.8
	c0-0.3,0.9-1.8,2.2-1.7c0.9,0,2.1-1,2.6,0.3c0.6,1.6-1.7,0.2-1.8,1.6c1.3-0.1,2.7-0.5,3.3-1.3c1.1-1.4,2.2-0.8,3.4-0.6
	c0.7,0.1,1.1,0.8,0.1,1.1c-1,0.3-0.7,0.6-0.2,1c0.4,0.3,1.2,0.6,1.2-0.2c0-0.6-0.3-1,0.5-1c0.7,0,0.8,0.7,0.9,1.1
	c0.9,2.6,2.7,3.3,5.2,1.8c0.4-0.2,0.8-0.7,1.1-0.7c2.2,0.5,3.5-1.2,5-2.2c0.8,2.2,2.1,0.8,3.7,0.3c-1.6-0.1-2.7-0.2-3.8-0.3
	c-0.4-0.7-0.4-1.1,0.5-1.3c2.4-0.4,4.7,0.3,7.2-0.8c1.2-0.5,4.4,0.3,5.9,2.4c0.1,0,0.1-0.1,0.2-0.1c-0.1,0-0.1-0.1-0.2-0.1
	c-0.7-0.2-1.1-0.6-0.8-1.4c0.3-0.7,0.8-0.8,1.5-0.6c2.9,0.8,6-0.6,8.9,0.6c0.5,0.2,1-0.2,1.3-0.7c0.3-0.4,1-0.7,1.1-0.3
	c0.9,3.3,3.5,1.2,4.1,0.7c3.2-2.6,5.7-0.4,7.8,1.1c2.4,1.7,4.8,2,7.4,2.1c0.5,0,1.3-0.6,1.7,0c1.8,3.4,5.7,1.2,7.9,3.1
	c2.5,2.2,6.2,0.2,8.8,2.7c1.4,1.3,4.3,1,6.4,0.8c3.7-0.2,7.3,1.4,11,0.7c1.1-0.2,2.3,0,3.4-0.5c3.8-1.6,8-0.2,11.7-1.8
	c5-2.2,10.5-0.3,15.5-2.1c3.3-1.2,5.7,0.1,7.8,2.5c0.6,0.7,1.3,1.2,2.3,0.7c1.9-1,4.1,0.7,5.9-0.7c0.5,1.4,2.6,1.1,2.9,2.7
	c0.1,0.4,0,0.9,0.1,1.3c0.1-0.1,0.2-0.2,0.4-0.3c0.8-0.6,1.8,1.3,2.6-0.1c1.1-1.8,2.4-2.6,4.7-2.2c0.7,0.1,2.3,0,2.6-1.3
	c0.2-0.8,0.4-1.7,1.3-1.8c1.4-0.2,0.3,1.6,1.5,1.9c0.5-1.2,1.5-1.9,2.9-2.1c1.3-0.2,2.5-0.5,3.2-2.2c0.8-1.9,3.3-1.8,5.1-2
	c1.3-0.1,1,1.5,0.9,2.4c-0.2,1.9-0.3,3,2.4,2.3c3.9-1,7.8-1.7,11.8-2.2c1.5-0.2,2.8-1.6,4.4-2.2c2.6-1.1,5-1.8,7.9-1.6
	c0.8,0,2-1.2,2.9-2c1.1-1,2.2-1.4,3.3-0.7c1.3,0.7,0.4,2,0.2,3.6c1.3-1.3,2.4-2.2,3.4-3.2c0.3,0.3,0.5,0.7,0.8,1
	c1.6,1.2,1.3,3,1.4,4.6c0,1.7,0,3.4,0,5.6c2.3-2.6,4-5.1,5.6-7.7c0.2-0.4,0-1.2,0.8-1c0.7,0.1,0.8,0.6,0.7,1.2
	c-0.4,2.2-0.3,3.5,2.5,2.1c0.9-0.4,2.3-0.2,1.9,1.8c-0.3,1.6,0.7,2.5,2.4,1.9c2.4-0.9,4-0.3,4.8,2.3c0.3,0.8,0.3,0.9,1.2,0.6
	c3.4-1,6.9-2,9.5,1.7c0.3,0.5,0.8,0.4,1.2,0.3c3.4-1,6.5,1,9.9,0.6c0.1,1.2-1.1,0.5-1.2,1.3c1.2,0.6,2.3-0.2,3.5-0.1
	c5.3,0.5,4.1-0.5,5.9,4.2c1.6-0.3-1.8-2.2,0.5-2c1.3,0.2,1.1-1.8,1.5-1c0.9,1.7,2.7,2.8,3,4.7c0.2,1.4,0.5,2.4,1.8,3.3
	c1,0.7,1,2.2,1.4,3.4c0.3,1,0.9,1.8,1.8,3.5c-0.1-3.1,0.1-5.6-0.5-7.5c-1.1-3.3,2-4.5,2.5-6.9c0.1-0.7,2-0.3,2.3,1.3
	c0.2,1.6,0.7,2.2,2.8,1.7c2.5-0.6,5.2-0.4,7.4,1.4c0.6,0.5,1.4,0.7,2.2,0.8c3.9,0.7,7.5,2.3,11,4c2.3,1.2,5.5,1.5,6.7,4.3
	c1,2.3,3.3,3.1,4.9,4.3c1.9,1.3,3,2.5,3.2,4.7c3.2,0.3,2.8,3.4,4.1,5.2c0.5,0.7,0.5,1.6,0.3,2c-0.1-0.9-0.2-2.2-0.7-3.5
	c-0.3-0.7-0.3-1.6,0.2-2c0.8-0.6,1.1,0.4,1.7,0.8c2.6,2.1,3.2,4.9,3,8.1c-0.1,0.6-0.4,1.2,0.8,1c1-0.2,0.7,0.8,0.5,1.3
	c-0.2,0.5-0.4,1.2-0.5,1.5c-0.8,1.6,0,2,1,3.1c0.8,0.9,0.3,2.7-0.4,3.9c-1,1.6-1.5,3,0.3,4.4c0.7,0.6,0.7,1.5,0.3,2.2
	c-0.4,0.9-1.3,0.5-1.9,0.3c-2.1-0.6-4.1-0.7-6.4-0.4c-0.8,0.1-2.4-1.4-3.7-1.7c-1.8-0.4-2.4-1.1-2.8-2.9c-0.5-2.1-2.7-2.7-4.4-3.2
	c-3.1-1.1-6.2-2-8.5-4.4c-0.3-0.3-1.2-0.4-1.5-0.2c-0.8,0.8-1.5,0.4-2-0.2c-2.2-2.4-5.1-0.3-7.5-1c-0.1,0-0.2,0-0.2,0.1
	c-1.2,4.1-3.5,0.9-5.3,0.8c-3.8-0.2-7.3-0.9-11.1,1.3c-2.9,1.7-6.2,2.9-9.9,2.9c-3.6,0-7.2,1.3-10.2,3.5c-2.7,1.9-5.5,1.8-8.4,1.6
	c-1.1-0.1-2.1-0.4-3.1,0c-2.8,1.2-6.1,0.5-8.6,2.5c-0.7,0.6-1.5,0.2-1.9-0.3c-2.2-2.1-4.2-0.7-6.3,0.1c-0.6,0.2-1,0.9-1.9,0.5
	c-2.6-1.5-4.4,0.6-6.5,1.4c-0.5,0.2-0.9,1-1.4,1.1c-3.7,0.6-6.5,2.5-8.6,5.7c-0.4,0.6-1.7,0.8-1.7,2c-0.2,0.3-0.4,0.7-0.6,1
	c-0.4,0-0.3,0.3-0.4,0.5c-0.5,4-1.4,8-1.3,12.1c0,1.2,0.7,2.6,1.9,2.4c1.7-0.4,3.4-0.7,5.1-0.9c1.3-0.1,2.4-1.3,3.6,0.1
	c0.7-1.8,2.1-1.2,3.3-0.8c4.4,1.4,8-0.6,11.7-2.4c0.7-0.4,1.2-0.5,2.1-0.1c1.6,0.7,3.4,0.6,5-0.5c1.8-1.3,4.2,0.3,6-1.4
	c0.5-0.5,1.4-0.7,1.9-1.6c0.8-1.5,2.4-1.3,3.9-1.2c0.7,0,1.3,0.7,2-0.1c1.1-1.3,2.2-2.2,3.3-0.1c0.1,0.2,0.7,0.3,0.7,0.2
	c1-2.1,3.6-0.7,4.6-1.7c2.7-2.6,5.9-1.5,8.9-2.2c2.9-0.7,5.7-1.7,8.1-3.4c1.9-1.4,4-0.8,6-1.1c3.6-0.6,7.3-0.2,10.9-0.4
	c1.4-0.1,2.7-1.2,4.3-1.3c2.2-0.2,4.3-0.1,6.4,0c0.6,0,1.5,0.8,1.9,0.1c0.6-1.1-1.4-0.6-1.2-1.8c2-0.6,3.8-1,5.9,0.5
	c3.5,2.7,7.2,5.3,11,7.6c1.1,0.7,2.6,1,3.9,1.7c2.1,1.2,4.1,2.4,5.2,4.6c0.6,1.2,2.4,1.8,1.7,3.6c0,0.1,0.2,0.3,0.4,0.4
	c1.9,0.9,2.1,1.3,1.5,3.5c-0.5,1.9-0.4,3.6,1.5,4.4c2.3,1,1.5,3.8,3.3,5c0.1,0,0,0.3,0,0.5c0.1,0.9-2-0.3-1.2,1.3
	c-2.3,0.1-1.2,1.1-0.6,2.1c0.5,0.9,0.8,1.8,0.7,2.8c-0.1,0.6-0.1,1.4-1.1,0.9c-0.1-0.1-0.2-0.3-0.3-0.4c0,0,0.2-0.1,0.3-0.2
	c0,0.2,0.2,0.4,0.1,0.5c-2.6,2.8-1.1,5.7-0.1,8.6c0.3-1.6,2.4-1.3,2.8-3c0.2-0.9,1.5,0.4,1.5,0.9c0,2.2,2.2,3.7,1.9,6.2
	c-0.2,1.3-0.6,1.1-1.3,1.2c0.6,0.4,1.2,1,2,1c0.5,0,1-0.2,1.2,0.3c1.6,4.9,6,8.6,5.4,14.4c-0.1,1,0.9,2.6,1.8,3
	c1.6,0.7,1.6,1.8,1.8,3.2c0.2,1.5,0.5,2.9,1,4.3c1.1,3.2,1.7,6.6,1.7,10c0.1-1,0.2-2.1,0.3-3.1c0.1,0,0.3,0,0.4,0
	c0.9,4.6,2.2,9.2,2.4,13.9c0.1,2.9,2.2,4.7,2.4,7.4c0.4,5,0.9,9.9,1.8,14.8c0.4,1.8,0,4,1.3,5.6c0.4,0.4,0.6,1,0.3,1.5
	c-1.6,2.8-0.2,5.5,0.4,8.2c0.5,2.4,0.1,4.7,0.2,7c0,2.8,0,5.6,0.2,8.4c0.1,1.8-0.8,3.2-1.3,4.6c-1.1,3.3,0.9,6.9-1.4,10
	c-0.4,0.6,0,2.4,0,3.7c-0.1,3.2-1.6,6-1.6,9.1c0,1.5-0.6,2.2-2.3,1.8c1.4,2.5-0.8,4.5-0.2,6.8c0.2,0.6-0.5,1.5-0.1,2.3
	c0.2,0.4-0.2,0.9-0.4,0.7c-1-0.9-1.1-0.2-0.8,0.5c1.8,3.4-1.6,5.9-1.4,8.9c-4.6,2.6-2.3,6.6-2,10.1c0.1,1.7,0.1,3-1.9,3.5
	c-0.4,0.1-1.3,0.2-0.7,1c1.1,1.4,1.1,1.4,0.8,3.7c-0.9,0.1-0.5-1.1-1.4-1.1c-0.6,0.9,0.4,3-1.7,3.1c0.7,1.2,0.5,2.5,0.7,3.7
	c0.2,1.2,0.8,2.5-1.1,2.9c-0.7,0.2-0.4,0.8-0.4,1.3c-0.1,5.6,0.7,11.3-0.1,16.9c-0.1,0.5,0.1,1.2-0.7,1.1c-0.8,0-2.2-0.1-2,0.6
	c0.5,1.4-0.8,2.9,0.3,4.1c0.8,0.8,0.9,1.3-0.2,2c-0.7,0.4-1.2,1.2-0.3,2c0.1,0.1,0.3,0.4,0.2,0.4c-2.2,2.5-0.6,5.8-1.6,8.5
	c-0.4,1.1-0.2,2.1,0.1,3c0.4,1.5,0.4,2.7-1.1,3.7c-0.8-0.5,0.1-1.8-1.2-2.4c0.2,1-3,2,0.4,2.7c1,0.2,0.8,0.9,0.3,1.4
	c-0.5,0.6-1.3,1-1.9,1.5c-0.1,0.7,4,0.6,0.5,2.1c-0.2,0.1-0.4,0.4-0.4,0.5c1.3,2.3-0.7,3.6-1.8,4.8c-1.5,1.7-0.7,3.5-1,5.3
	c-0.2,1.1,1,2.8-1.2,3.2c-0.3,0.1-0.8,0.7-0.5,1.3c1.1,2-1.6,4,0,6c0.2,0.2-0.4,1.7-1.7,1.4c-0.5-0.1-0.8-1.3-1.4-0.2
	c-0.3,0.6-0.3,1.3,0.3,1.7c1.5,0.9,1.1,1.6-0.3,1.7c-1,0.1-0.8,0.7-1,1.2c-1,2.3-2.2,4.5-2.2,7.1c0,0.5,0.2,1.4-0.7,1.5
	c-0.6,0.1-1.2-0.5-1.2-0.9c0.2-1.6-1.4-0.1-1.6-1c0,0-0.1,0-0.1,0l0.1,0c1.5,3.7,1.1,5.3-2,8.2c-0.8,0.7-0.5,1.3-0.3,2.1
	c0.3,1.4,0.9,3.3-1.7,3.2c1.2,1.6-0.9,1.7-1.3,2.7c-0.5,1.7-1.9,3-1,5.1c0.5,1.1-0.6,1.6-1.7,1.4c-1.5-0.3-1.9,0.3-1.3,1.5
	c0.8,1.6,0.6,2.5-1.3,2.6c-1.2,0.1-1.3,1.1-2,1.7c-1.9,1.7-1.2,4.6-3.8,6.1c-1.8,1-2.6,3.8-5.3,4c-0.2,0-0.4,2.6-0.2,3.9
	c0.7,4-3.6,8.2-7.4,7c-2.3-0.7-1.9,1.4-2,2.2c-0.1,1.2,0.1,2.2-1.5,2.4c-0.6,0.1-0.9,0.6-0.7,1.2c0.1,0.7,0.5,0.8,1.2,0.5
	c0.6-0.3,0.8,0.2,0.9,0.6c0.1,0.4-0.1,0.7-0.4,0.9c-2.9,1.8-4.8,4.9-8.1,6.1c-0.9,0.3-0.8,1.3-1.1,2.2c-0.4,1.6-0.5,3.9-3.4,3.2
	c-1.6-0.4-2.8,0.2-1.6,2.2c0.4,0.8,0.3,1.5-0.3,1.9c-0.7,0.5-1.3,0.3-1.6-0.7c-0.2-0.7-0.8-0.4-1.1-0.2c-2,1.9-4.4,3-7.1,3.4
	c-1.1,0.2-0.8,1-0.9,1.6c-0.2,2.1-3.8,6.2-5.9,6.8c-1.5,0.4-3.2,0.4-3.8,2.6c-0.2,0.7-0.5,2.5-2.3,2.5c-0.6,0-1,1.1-0.5,2.2
	c0.7,1.5-0.8,2.9-1.7,2.6c-2.2-0.8-1.8,1-1.8,1.7c-0.1,1.2-0.4,2.1-1.7,2.3c-0.7,0.1-3.2-1.1-0.9,1.3c0.7,0.7-1.1,1.2-1.9,1.1
	c-0.7-0.1-1.5-0.7-1.8,0.2c-0.5,1.1,0.4,1,1.2,1.1c0.4,0,0.8,0.5,0.5,1c-0.3,0.5-0.9,1.2-1.3,1.2c-1.3-0.2-2.1,0.1-2.9,1.2
	c-0.4,0.5-0.7,0.3-1-1.6c0,1.1,0,1.8,0,2.5c0,1.2-0.6,1.9-1.6,0.9c-0.8-0.7-1.1-0.5-1.7,0c-0.6,0.5-0.2,1.2-0.1,1.7
	c0.1,0.5,2.1,0.3,1,1.4c-0.9,0.9-1.9,0.1-2.5-1c-0.1-0.2-0.5-0.2-0.7-0.3c-0.1,1.3-0.5,2.4,0.1,3.7c0.4,0.9-0.5,1.2-1.3,1.2
	c-1.4-0.1-2.6,0.2-3.7,1.2c-1.1,0.9-2.4,1.3-2,3.1c0.1,0.4,0,1.2-0.5,1c-2.1-0.8-2.6,0.6-3.1,2.1c-0.2,0.6-0.8,1-1.3,0.6
	c-3-2-3.9,0.7-5.3,2.3c-0.2,0.3-0.5,0.6-0.8,0.5c-2.3-0.3-4.4,0.1-6.4,1.4c-0.8,0.5-2.1,0-2.1-0.9c-0.1-1.1-0.7-0.8-1.2-0.8
	c-0.7,0-1.1,0.3-1.2,1.1c0,0.6-0.2,1.2-0.5,1.8c-0.4,0.9-1.1,1-1.4,0c-0.2-0.7-0.1-1.5-1.2-1.4c-1.2,0.2-0.4,1.1-0.6,1.7
	c-0.1,0.6,0.1,1.3-0.7,1.7c-0.9-0.9-0.2-2.3-0.8-3.2c-0.1,1.1-0.2,2.2-0.3,3.4c-1.1-0.2-2.8,0.9-3.1-1.3c0,0-0.5-0.1-0.7,0
	c-0.1,0-0.2,0.3-0.4,0.4c-0.5,0.4-5.5,1.6-6.4,1.6c-1.5,0-1,1.9-2.1,2.2c-1.2-1.6-5-2.1-7-0.7c-0.7,0.5-1.7,1.7-2.2,1.2
	c-1.7-1.4-4.2,0.4-5.6-2.1c-0.5,2.1-1.7,3.2-3.5,3.7c-0.7,0.2-1.6,0.1-1.8,1.2c-0.2,1-0.8,0.6-1.3,0.1c-1.5-1.5-3.5-1.4-5.6-0.4
	c-1.3,0.6-2.9,0.9-4.6,0.8c-1.9-0.1-3.9-1.3-5.7,0.3c-0.6,0.5-1-0.2-1.2-0.6c-0.6-2.1-1.8-1.7-2.8-0.5c-0.8,0.9-1.5,1.1-2.5,0.3
	c-0.2-0.2-0.6-0.3-1-0.3c-3.1-0.5-3.2-0.5-4.4-3.1c-1.3,2.2-4.9,2.9-6.6,1c-1.2-1.4-1.8-1.6-2.9,0c-0.3,0.5-1,0.7-1.6,1
	c0-1.9-0.6-3.1-2.5-4.3c-1.3-0.9-4.5-1.4-3.5-4.6c0.2-0.6-1.5-0.7-1.5-1.8c-0.6,0.5-0.6,0.9-0.4,1.2c1.1,1.3,0.9,1.9-0.8,1.7
	c-4.2-0.3-8.6,0.9-12.3-2.1c-0.7-0.6-2-0.5-3.1-0.8c-3-0.7-5.4-1.9-7.6-4.3c-1.1-1.3-2.8-3.2-5.5-3.2c-2.3,0-4.3-2-6.5-2.8
	c-2.7-1-4-3.8-6.8-4.4c-0.5-0.1-2-0.6-0.2-1.4c0.5-0.2,0.3-0.8-0.1-1.1c-2.5-1.7-3.1-4.9-5.7-6.5c-1-0.6-1.5-2.2-3.2-1.1
	c-0.7,0.4-1.3-0.4-1.1-1.3c0.4-2.2-0.1-3.1-2.4-2.1c-0.2,0.1-0.7,0.1-0.7,0c-0.9-2.4-3.5-2.1-5.1-3.4c-0.8-0.6-1.6-1.2-2.6-1.2
	c-2.5-0.1-2.9-2.3-2.8-3.7c0.3-2.4-1.1-3.4-2.4-4.5c-1-0.9-2.4-1.4-2.8-2.9c0.1,0.1,0.1,0.3,0.2,0.4c0.1-0.1,0.1-0.2,0.2-0.3
	c-0.1,0-0.3-0.1-0.4-0.1c0.3-1.6,0.9-3.3-1.6-3.6c-0.3,0-0.6-0.6-0.9-0.9c-1.8-1.3-3.6-3-5.6-3.6c-2.1-0.6-1.5-1.2-0.8-2.4
	c1.3-2.1,0.1-5.6-2.2-6.6c-2.3-1-3.4-3.1-4.6-5.1c-0.6-1-0.5-1.3-1.7-1c-1,0.3-1.7,0.1-2-0.6c-0.4-0.7-0.7-1.7,0.1-2.5
	c1.8-2.1,0.4-2.3-1.3-2.4c-1.4-0.1-2.8,1-4.1-0.2c-0.6-0.6-1.5-0.8-0.6-2.1c0.9-1.2,0.7-2.9-0.7-3.8c-0.9-0.6-1-1.6-1.7-2.3
	c-1-1.3-0.7-2.1,1.1-2.8c-3.1-0.1-4.9-3.7-8.4-2.1c-1,0.5-1.2-1.1-1.2-1.9c0.1-2.8-0.7-5.2-2.6-7.5c-0.2,1-0.4,2-1.7,1.7
	c-1.4-0.3-0.2-1.1-0.4-1.7c-0.9-1.9-1.6-4.1-3.5-5.4c-0.7-0.5-1-1.1-1.4-1.9c-0.6-1.3-1-2.8-2.7-3.4c-0.8-0.3-1.2-1.3-1.1-2
	c0.4-3-1.9-3.8-3.9-4.7c1.7-1.8,2.4-4.1,3.2-6.3c0.4-1.1,0.1-1.8-1.5-1.9c-4.4-0.3-7-3.7-6.5-8.3c0.1-0.8,0.4-2-1.2-2.1
	c-1.6-0.1-0.1-2.1-1.5-2.7c-1.6-0.7-0.6-1.5,0.1-2.4c0.6-0.8,0.2-2.1-0.5-2.9c-1-1.3-1.1-2.5-0.5-4c0.6-1.3-0.2-2.3-0.8-3.6
	c-1-2.4-2.6-4.2-4-6.2c-1.1-1.7-0.5-3.9-1.4-5.8c-0.5-1,1.2-0.6,1.2-1.3c-0.6-0.4-1.2-0.8-1.8-1.1c-0.6-0.4-0.8-0.9-0.7-1.6
	c0.2-0.8,0.7-1,1.4-0.9c1.3,0.1,1.5-0.2,0.9-1.5c-0.4-0.8-0.3-1.8,0.2-2.8c1.1-2.1,0.6-2.9-1.7-2.9c-1.5,0-2.4-0.5-2.7-2
	c-0.1-0.6,0.3-1.6-0.8-1.7c-0.8-0.1-1,0.7-1.3,1.2c-0.3,0.4-0.4,1-1,1.2c-1.3-2.6-1.4-5.9-4-7.8c-2.1-1.6-1.8-4.1-2.8-6.2
	c-0.7-1.4,1.8-0.4,2.2-1.5c-0.4-0.9-1.3-0.8-2-0.9c-0.9-0.1-1.6-0.4-2-1.1c-1.1-2.3-3.1-4-4.7-6c-0.6-0.8-0.6-1.6-0.8-2.5
	c-0.4-1.6-0.8-3.2-2.9-3.3c-0.7,0-1.4-0.4-1.3-1.1c0.2-2.2-1.1-3.6-2.2-5.2c-0.3-0.4-0.1-1.2-0.9-0.9c-2,0.6-1.2-1.1-1.4-1.7
	c-0.3-0.9,0-1.7,1.3-1.8c0.7,0,1.5,0,1.9-1.2c-1.9,0-2.9-1.3-3.3-2.9c-0.7-2.2-2.8-3.1-3.9-5c-0.7-1.3-0.7-3-2.1-3.9
	c-0.1-0.1,0-0.6-0.5-0.7c-2.5-0.8-3.1-1.9-2.4-4.6c0.4-1.4,0.6-2.7-1.5-2.8c-0.7,0-0.9-0.4-0.9-1.1c0-3.1-0.4-6-1.4-9.1
	c-0.5-1.5-0.4-3.5-1.1-5.1c-0.4-0.9-0.6-2.4-2.1-2.5c-0.2,0-0.5-0.4-0.5-0.4c2-2.6-1.2-3.6-1.7-5.4c-0.3-1-0.8-1.7,0.1-2.9
	c0.7-0.9,0.6-2.5,0-3.6c-0.5-1-1.1,0.7-2-0.1c1.4-2,3-3.8,3.1-6.5c0.1-2.6-0.1-3-2.6-2.7c-1.6,0.1-1.1-1.6-0.8-2.2
	c0.6-1.2,0.9-2.5,1.3-3.7C265.4,346.3,265.3,345.8,265.3,345.4c0.4,0.1,0.8,0.1,0.9-0.4c0.1-0.4-0.1-0.7-0.5-0.6
	C265.2,344.5,265.2,345,265.3,345.4z M531.6,397.4c0.1-0.4,0.2-0.7,0.4-1.1c0.1,0,0.1,0,0.2,0.1
	C531.9,396.8,531.7,397.1,531.6,397.4l0,0.1L531.6,397.4z M553.1,483.3L553.1,483.3L553.1,483.3c1,0.3,2.1,0.7,1.9,1.9
	c-0.2,1.3-1.5,0.9-2.4,1.1c-1.3,0.3-2.2-0.9-3.6-0.7c0,1.3,0.5,3.6-1.5,2.3c-1.3-0.8-1.4,0.2-1.4,0.3c0.1,1.5-1.2,2.2-1.8,3.3
	c1.6,0.5,3.3,0.2,4.1,2.1c0.2,0.4,0.7,0.5,0.9-0.2c1-2.4,2.9-1.7,3.9-0.5c1.3,1.6,2.5,1.1,3.7,0.4c0.8-0.5,1.7-0.5,2.3-0.9
	c1.8-1,3.8,0,5.6-0.7c2.9-1.2,5.9-1.5,9-1.4c4.3,0,5.6-1,6.3-5.2c0.2-1.2-0.5-1.1-1-1.4c-0.1,0.8-0.6,1.3-0.9,0.4
	c-0.5-1.4-3-0.6-2.8-2.7c0-0.1-1.1-0.3-1.5,0.5c-1.3,2.3-3,1.3-4.6,0.4c-0.7-0.4-1.1-1.1-2.1-0.7c-2.2,0.9-4.4,1.6-6.6,2.3
	c-1.2,0.4-2,0.4-2.2-1.1c-0.1-0.5-0.2-1.4-0.9-1.5c-0.9-0.1-0.8,0.7-1.1,1.2C555.3,484,554.3,484.3,553.1,483.3z M482.2,418.4
	c0,0.3,0,0.6,0.4,0.2C482.5,418.5,482.3,418.5,482.2,418.4c0.4-1.9,1.2-2.9,3.5-2.2c1.7,0.5,3.3,0.2,5.1-1.1
	c1.7-1.3,3.6-3.5,6.5-2.7c0.3,0.1,1-0.3,0.7-0.9c-1.1-2.4,0.7-3.4,2.3-3.7c2.5-0.4,3.7-4.1,6.8-2.6c0,0,0.3-0.3,0.3-0.4
	c0.1-1.2,0.9-0.9,1-0.3c0.5,2.7,2,1.6,3.4,1.1c0.6-0.2,1.1,0,1.4,0.5c0.7,1.3,0.8,0,1.3-0.1c1.5-0.4,2.9-2.9,4.6,0
	c-0.3-3,0.5-4,3.2-3.2c2.2,0.7,3.3-1.4,4.8-1.2c3.3,0.3,1.7-1.6,1.7-2.9c0-0.3,0.5-0.5,0.7-0.8c1-2.1-1.2-7-3.4-6.9
	c-3.5,0.1-7-1.2-10.4,1.5c-2.2,1.7-5,3.2-6.8,5.1c-2.3,2.3-5.1,3.9-7.4,6.2c-0.8,0.8-2.1,1.3-3.2,1.3c-2.8-0.1-5.8-0.4-8.3,0.6
	c-2.8,1.1-5.4-2.5-8.1,0c-0.3,0.3-2-0.1-2.6-1c-0.5-0.8-1.4-0.7-2.1-1.1c-2-1.1-4.5-1.5-5.3-4.6c-0.5,2.4-1.9,3-1.9,2.3
	c0-2.3-2.3-1.5-2.9-2.5c0.2-1.5,2.4,0.2,2-1.5c-0.3-1.3-1.3,0.2-2-0.1c-0.4-0.2-0.7-0.6-1.1-0.9c-0.6,0.8,0.5,2-0.6,2.4
	c-1.1,0.4-1-1.2-1.6-1.3c-1.5-0.3-1.9-1.6-2.8-2.5c-1.9-1.9-5.4-2.1-6.1-5.5c-0.1-0.3-0.7-0.3-0.8,0.1c-0.4,1.8-1,1.6-1.8,0.2
	c-0.4-0.8-1.2-0.8-1.9-0.5c-1.6,0.7-2.5,0.3-2.8-1.4c-0.1-0.5-0.4-1.2-0.9-1.2c-0.6,0-1,0.6-1.1,1.3c-0.6,2.7-2.8,4.3-4.3,6.4
	c-0.7,1-4.1,0.7-1.4,3.3c0.1,0.1-0.2,0.8-0.5,1.2c-1.2,1.4-1,2.6-0.2,4.1c0.7,1.3,0.6,2.9,0.9,4.4c0,0.1,0.3,0.3,0.4,0.3
	c2.1-0.9,2.5,1,3.3,2.1c0.8,1.1,1.6,1.5,3.2-0.2c-1.6,3.2-1.3,3.8,1.6,4.1c0.7,0.1,1.4,0.1,2.1,0c1.4-0.2,3.2,0.8,4.2-1.3
	c0.3-0.6,1.3,0,1.7,0.3c0.5,0.4-0.6,0.2-0.5,0.7c0.3,2.1,2.4,3,3.6,3.8c2.1,1.3,4.7,2.4,7.6,2.1c2-0.3,4.1,0.3,6.1-0.6
	c0.8-0.4,2-0.2,2.9,0.1C478.3,419.5,480.3,419.1,482.2,418.4z M435.5,559.1L435.5,559.1c-0.2,1.6,0.7,3.3-0.1,5
	c1.9-0.2,2.5-1.2,2.3-3c-0.1-0.8-0.3-2,1.1-1.9c1.2,0.1,0.9,1.1,0.9,1.9c0.2,2.4,1.3,3.1,3.8,2.5c2.3-0.6,4.9-1.3,7.1-0.2
	c2,1,3.5,3.1,5.8,0.8c0.2-0.2,0.8,0.2,1.3,0.2c4.2,0.6,8.3,0.8,10.9-3.5c0.6-1,1.8-0.6,2.7-0.6c1.1,0,2.5,1.1,2.9-1
	c0.2,0.1,0.5-0.4,0.8,0.3c0.7,1.9,6.3,3.1,7.8,1.9c0.5-0.4,0.6-0.9,0.5-1.4c-0.1-0.7-1-1.8,0.3-1.9c0.7-0.1,1.5,1,1.6,1.9
	c0.1,1.5,0.6,1.4,2,1.4c3.5,0.1,6.5-1.1,9.5-2.5c0,0.3,0.1,0.5,0.4,0.1c-0.1,0-0.3,0-0.4-0.1c0.7-0.5-1.2-2.1,0.9-2.1
	c2.4,0,4.4-1.1,6.1-2.8c1-1,1.1-1,1.6,0.4c0.3,0.8,0.8,1,1.6,1.1c1.6,0.2,2.7-1,4.1-1.3c1.9-0.5,4-0.4,6.1-0.6
	c0.9-0.1,1.9-0.2,1.8-1.5c-0.1-2.2,1.3-2.1,2.6-1.7c1,0.3,1.6,0.4,1.6-0.8c0-0.9,0.1-1.9-1.2-1.9c-0.8,0-1.9-0.3-2.4,0.1
	c-1.9,1.7-2.6,0.1-3.4-1.1c-0.9-1.4,0.7-1.6,1.3-2.3c0.3-0.3,0.8-0.4,0.4-0.9c-0.4-0.6-0.8-0.5-1.3,0.1c-0.3,0.4-0.8,0.7-1.1,1.2
	c-0.5,0.9-1.5,1.7-2.3,1.3c-1.3-0.8,0.5-1.5,0.5-2.5c-0.7,0.2-1.1,0.8-1.8,0.9c-2.7,0.4-5.4,1.4-8.1,1.6c-2.1,0.2-3.9,0.6-5.8,1.3
	c-0.5,0.2-1.2,0.1-1.8-0.4c-1-0.9-4.3-0.9-5.2,0c-1.6,1.6-3.9-0.5-5.5,1c-0.1-0.1-0.3-0.4-0.3-0.4c0.7-1.3-0.1-0.7-0.8-0.8
	c-2.8-0.3-5.5,1.9-8.1,1.1c-2.8-0.9-5.2-0.7-7.9-0.2c-0.4,0.1-1.7,1.2-1.9,0.2c-0.4-1.6-0.7-0.7-1.2-0.2c-0.6,0.5-1.3,0.3-2,0.1
	c-2.6-0.6-4.4-4-7.6-2.1c-0.3,0.2-0.9-0.4-0.9-1.1c0-1.6-0.8-1.9-1.9-0.9c-1.2,1.1-2.1,0.4-3.1-0.1c-0.7-0.3-1.1-1.3-2.1-1.1
	c-2.6,0.6-4.3-3-7.1-1.5c-0.1,0-0.3-0.2-0.4-0.3c-1.9-2.1-4.2-2.2-6.8-1.6c-1.1,0.3-2.4,0-3.1-1.5c-0.7-1.5-2.4-1.5-3.7-1.2
	c-0.9,0.3-2.3,0.3-2.7,1.8c-0.5,1.8,1.1,2.2,1.8,3.2c0.5,0.8,1.3,0.2,1.9,0.3c1.9,0.3,3.1,1.2,3.9,3c0.4,0.8,0.6,2,1.3,2.3
	c4,1.7,1.1,4,0.7,6.1c-0.7-1.4-2.4-2-2.7-3.6c-0.1-0.5-0.2-1.1-0.9-1.1c-0.6,0.1-1,0.5-1.1,1c-0.2,1.1-1.3,2.5-1.7,2.3
	c-2.8-1-2,1-1.7,2.1c0.3,0.9-0.7,1.3-0.5,2.2c0.8-0.3,2.3-0.5,2.2,0c-0.3,1.7,1.5,2.2,1.6,3.2c0.3,3.8,4.9,4.4,5.1,8.8
	c0.9-1.9,0.4-2.9,0-3.6c-1-1.5-0.4-2.9-0.2-4.3C433.5,559.3,433.9,557.4,435.5,559.1z M634.4,272.7c0.2,0.3,0.4,0.6,0.5,1
	c0.2,0.8-1.2,0.6-0.9,1.6c1.9-1.9,1.8-1.9,1.7-4.1c-0.1-1.1,0.7-1.9,1.7-2.1c1.7-0.3,3.4-0.9,5-1.1c3.1-0.4,6-1.7,9.3-1.2
	c-0.7-0.5-1.9-0.2-2-1.4c-0.1-2.3-0.6-4.7-0.1-6.8c0.4-1.8-0.1-2.6-1.5-3.1c-2.8-1.1-3.6-3.5-4-6.5c-0.6,0.9-0.6,2.2-1.7,2
	c-0.2,0-0.7-0.5-0.6-0.7c0.5-1.8-2.4-2.9-1.1-4.9c0.3-0.5-0.3-0.8-0.7-1c-1.3-0.7-3.9,0.8-3.8-2.3c0,0-0.2,0-0.3,0
	c-1.9,0.4-3.1-0.5-4.5-1.7c-0.7-0.6-1.8-1.9-3.3-1.6c-0.6,0.1-1.4-0.4-1.8,0.6c-0.3,0.8-0.5,1.4,0.1,2.2c1.5,1.9,1.2,2.9-1.2,3
	c-2.3,0.1-4.7-0.3-6.7,0.8c-1.4,0.8-2.5,0.2-3.8,0.2c-0.6,0-0.2-1.3-1.2-1.2c-6.3,0.9-12.6-1.3-18.9-0.6c-4.7,0.5-9.3-0.2-14.1,0.9
	c-6.2,1.4-12.3,3.2-18.3,5c-1.4,0.4-3.3,0.5-4.4,1.8c-1.5,1.6-3.5,1.8-5.9,2.3c2.2,0.2,2.6,0.7,1,1.8c-0.6,0.5-1.1,1-2,1.2
	c-1,0.3-2.2,0.7-2.8,1.4c-1.8,2.1-3.7,4-6.2,5.8c1.2,0.4,1.8,1,3.2,0.7c1.7-0.3,2.9-2.3,4.7-1.6c4.6,1.8,6.6-4.1,10.8-3.5
	c0.1,0,0.2-0.3,0.3-0.4c1-2.9,2.4-1.3,3.5-0.2c2.2,2.1,3.2,5,5.1,7.4c1.7,2.1,3.1,4.5,6.1,4.9c1.2,0.2,2.4,0.3,3.6,0.5
	c3,0.6,6.1,1.5,9.2,0.7c1.1-0.3,2.3-0.2,3.5-0.1c1.7,0.1,3.2,0.6,5.1-0.6c3-2,5.2-4.5,7.1-7.5c0.5-0.8,0.3-2.5,1.9-1.4
	c1.1,0.7,2.3-1.4,2.7-0.1c0.6,2.3,2.9,1.9,4.2,3.1c1,0.9,3.6,1.5,0.4,3c-1,0.4-1.6,1.6-2.4,2.4c-0.4,0.4-0.8,1.3-1.4,0.7
	c-1.9-1.6-3-0.2-3.9,1.1c-1,1.4-2.1,1.5-3.6,1.3c-2.9-0.5-5.4,0.3-7.1,2.8c-0.4,0.5-1.3,1.2-0.8,2.1c0.4,0.7,1.3,0.5,2,0.4
	c2.7-0.3,3.8,1.6,4.7,3.5c0.3,0.7,0.5,2,1.2,1.6c1.1-0.6,2.5,0.4,3.1-0.7c0.5-1-0.7-1.6-1.5-2.5c1.7,0,2.8-0.8,3.5-2.2
	c0.5-0.8-0.9-3,1.6-2.4c1.1,0.3,2.3-1.2,3.3,0.3c0.1-1.1-1.5-2-0.4-2.7c1.3-0.8,1.9,0.6,2.6,1.6c0.3,0.4,0.7,0.8,1,1.3
	c0.8,1.5,2.1,1,3.3,1c1.3,0,1.1-1.1,1.3-1.9c0.1-0.6,0.6-1.6,1-1.3c1.7,0.9,4.1,0.3,5.2,2c1.2,1.7,1.6,0.8,2.6,0
	C630.2,275.6,631.9,273.5,634.4,272.7z M431.4,490c-1.2,0.9,0.3,2.5-1,3.5c-1-1.1-2.1-0.9-3.3-0.4c-0.4,0.2-0.7,0.9-1.3,0.2
	c-1.8-1.9-3.1-1.7-3.9,0.5c-0.2,0.5-0.7,0.8-1,0.6c-1.1-0.6-2-0.8-3.2-0.3c-0.7,0.3-0.7-0.6-0.7-1.3c-0.3,0.9-0.2,2.4-1.3,2.2
	c-2-0.3-4.3,0.8-6-0.3c-1.7-1.1-2.7-0.4-3.8,0.7c-0.4,0.4-0.6,1.5-1.5,0.7c-1.3-1.2-2,0-2.7,0.6c-1.3,1.2-1.2,1.2-2.9,0.5
	c0,0.1,0,0.3-0.1,0.4c-1.5,1.4-2.6,3.1-3.8,4.6c-1.5,1.8-3.6,3-2.1,5.8c0.4,0.7-0.3,1.3-0.9,1.4c1,0.6,2.2,1.3,2.8,2.6
	c1-2.3,2.1-2.7,4.6-2c1.9,0.5,3.6,2,5.3,1.8c2.5-0.3,4.9-0.1,7.4,0c2.2,0,4.3-1.4,6.7-0.4c1.2,0.5,2.6,0.5,2.5,2.4
	c0,0.6,0.4,1.2,1.1,1.3c0.3-2.3,1.7-3.4,4-3.1c0.8,0.1,1.6,0.4,2.2-0.5c1.6-2.5,2.3-0.7,2.9,0.4c2.1-0.4,3.5-2.7,5.9-1.8
	c0.7,0.2,0.9-0.1,0.8-0.5c-0.1-1.6,2.4-1,2.1-2.7c3,0.8,4.9-2,7.8-2c2.2,0,4.4,0.4,6.6-0.5c2.4-1,5-0.9,7.5-1.4
	c2.8-0.5,5.9,0.8,8.5-1.1c0.7-0.5,0.9-0.3,1.5,1.5c1-1.2,1.3-4.1,3.8-1.3c0.1,0.1,0.6,0.2,0.7,0.1c0.5-0.5,1-1,1.8-0.9
	c0.6,0,1.2,0.3,1.7-0.1c-2.3-1.1-6.1,0.5-7-3.9c-0.3,1.4-0.7,2.5-1.3,3.5c-0.4,0.8-0.6,1.2-1.5,0.6c-2.3-1.5-4.7-2.7-7.5-1.5
	c-0.6,0.2-0.7-0.4-0.7-0.8c-0.1-0.6-0.3-0.7-0.8-0.5c-2.9,0.9-5.4-0.6-8.1-1.2c-0.7-0.1-0.3-1.2-1.5-1c-3.5,0.6-7.1,1-9.2-2.9
	c-0.1-0.1-0.3-0.3-0.3-0.2c-1.9,2.4-2.2-0.3-3-1c-1.6-1.5-3.7-1.7-5.7-2.2C432.5,492.8,432,490.1,431.4,490z M449.5,420.4
	c-2.3-4.4-4.9-2.9-7.6-1.2c-0.3,0.2-0.7,0.1-1.1,0.1c-0.1,0-0.3,0-0.3-0.1c-0.5-1.2-1-1.9-1.5-2.2c1.8-1.2,1.4-1.7-0.5-2.1
	c-1-0.2-2.1-0.5-3.1-0.4c-0.4,0-0.9,0.4-0.9-0.4c0-1.3-0.7-1.2-1.6-0.9c-1.1,0.4-1.4,1.1-0.9,2.1c0.7,1.6,1.6,2.7,3.4,3.5
	c2.6,1.2,5.2,2,8.1,2.3c-0.4,1.2-1.3,0.4-1.5,0.7c2.2,0.1,4.8-0.3,6.8,0.6c1.5,0.7,2.6-0.4,3.8,0.2c0.6,0.3,3.2-3.9,2.8-4.5
	c-1.2-1.6-3-1.8-4.8-1.5C448.6,417,449.9,418.6,449.5,420.4z M522.1,494.2c0-0.1,0-0.2-0.1-0.2c-2.2-0.8-2.2-0.8-3.2,0.9
	c-0.2,0.4-0.6,0.2-0.9,0.2c-0.8,0-1.5,0.2-2.3,0.3c-0.5,0.1-1.2,0.3-0.5,1c0.3,0.3,0.1,0.8,1.1,0.7
	C518.7,497,520.3,495.6,522.1,494.2z M494.7,499.3c-1.5,1.6-4.9-1.7-5.5,2.6C491.1,500.6,493.4,501.1,494.7,499.3z M608.3,149.3
	c0.3,1-1.5,2,0.1,2.9c0.3,0.2,0.8,0.3,0.9-0.1C609.7,151,608.8,150.2,608.3,149.3z M343.3,240.7c1.7,0.8,2.9-0.6,4.1,0
	c0.4,0.2,0.9,0.4,1-0.3c0.1-0.8-0.7-0.7-1.1-0.6C346.1,240,344.9,240.3,343.3,240.7z M590.2,280.3c1-1.3,1.1-2.3,0.9-3.3
	C590.5,277.8,589.8,278.5,590.2,280.3z M532.7,629.1l0-0.2l-0.2,0.1L532.7,629.1z M649,522.7c-0.1-0.1-0.1-0.4-0.2-0.4
	c-0.1-0.1-0.3,0-0.4,0.1c0.1,0.2,0.1,0.4,0.2,0.5C648.8,522.9,648.9,522.8,649,522.7z M664.5,488.4c0-0.1,0-0.1,0-0.2
	c-0.1,0.1-0.1,0.1-0.2,0.2c0,0,0,0.1,0,0.1C664.4,488.5,664.4,488.4,664.5,488.4z M262.2,313.6c-0.2,0.1-0.4,0.3-0.6,0.4
	c0.1,0.1,0.3,0.3,0.4,0.3c0.2,0,0.5-0.1,0.7-0.1C262.6,314,262.4,313.8,262.2,313.6z M648,520.8c0-0.1-0.1-0.1-0.1-0.2
	c-0.1,0.1-0.1,0.3-0.2,0.4c0,0.1,0.1,0.1,0.1,0.2C647.9,521.1,648,520.9,648,520.8z M473.5,632.4l0-0.1l0.2,0.1L473.5,632.4z
	 M382.1,576.6c-0.1-0.1-0.3-0.1-0.4-0.2c0,0-0.2,0.1-0.2,0.1c0.1,0.1,0.2,0.3,0.2,0.3C381.9,576.8,382,576.7,382.1,576.6z
	 M438.6,397.6c-0.1,0-0.1-0.1-0.2-0.1c-0.1,0-0.1,0.1-0.2,0.2c0.1,0.1,0.2,0.1,0.2,0.2C438.6,397.8,438.6,397.7,438.6,397.6z"/>
<path class="st1" d="M674.8,18c-3.4-0.4-4.1-2.5-4.7-4.8c-0.1-0.3,0.2-0.9,0.3-0.9c0.5,0.1,1.1,0.1,1.5,0.4
	C673.4,14,673.8,15.9,674.8,18z"/>
<path class="st1" d="M539.8,115.7c0,0.9-3.3,3.5-4.1,3.3c-0.8-0.2-0.6-0.9-0.1-1.1c1.2-0.6,1.7-1.9,2.6-2.8c0.4-0.4,0.7-0.9,1.3-0.6
	C539.9,114.7,539.8,115.3,539.8,115.7z"/>
<path class="st1" d="M673.6,23.6c-0.4,0.4,0.7,2-0.7,1.8c-1.1-0.2-0.8-1.8-1.1-2.7c-0.2-0.7,0.7-0.6,1.2-0.6
	C674,22,674.1,22.5,673.6,23.6z"/>
<path class="st1" d="M319.2,205.6c-0.7-0.4-2,0.5-2.3-0.6c-0.2-0.8,0.8-1,1.5-0.9c0.8,0.1,1.8,0,2,0.9
	C320.6,205.7,319.9,205.9,319.2,205.6z"/>
<path class="st1" d="M305.1,184c-1.3,0.9-2.4,1.7-3.7,0.6c-0.3-0.2-0.4-0.6-0.1-0.9C302.5,182.5,303.6,183.3,305.1,184z"/>
<path class="st1" d="M641.4,541.9c-0.4,0-0.7-0.2-0.7-0.6c0-0.4,0.1-0.7,0.5-0.7c0.4,0,0.7,0.2,0.7,0.6
	C642,541.5,641.9,541.8,641.4,541.9z"/>
<path class="st1" d="M536.1,196.4c0.7,0.1,1.5,0.1,1.6,1c0,0.3-0.1,0.8-0.4,0.9c-0.9,0.4-1.4-0.2-1.9-0.9
	C535.7,197.1,535.9,196.7,536.1,196.4z"/>
<path class="st1" d="M546.3,118.2c0.5-0.9,1.3-1.2,2.2-0.9c0.2,0.1,0.4,0.6,0.3,0.9c-0.2,0.9-0.8,1.3-1.8,1.1
	C546.8,118.9,546.5,118.6,546.3,118.2z"/>
<path class="st1" d="M322.1,302.6c1.7-0.3,2.6-0.7,3.6,0.3C324.6,303.4,323.7,303.3,322.1,302.6z"/>
<path class="st1" d="M305.4,182.5c0.9-1,1.6-1.3,2.4-0.2C307.1,183,306.4,182.9,305.4,182.5z"/>
<path d="M433.2,17c0.2,0.1,0.4,0.1,0.4,0.2c0,0.1-0.1,0.4-0.2,0.4c-0.1,0-0.4-0.1-0.4-0.2C433,17.3,433.1,17.1,433.2,17z"/>
<path class="st1" d="M600.6,581.6c-0.1-0.2-0.3-0.3-0.4-0.5c-0.1-0.4,0.1-0.7,0.5-0.6c0.2,0,0.5,0.3,0.5,0.4
	C601.4,581.3,601.1,581.5,600.6,581.6z"/>
<path class="st1" d="M622.2,141c-0.4,0-0.7-0.1-0.7-0.5c0-0.5,0.2-0.8,0.8-0.7c0.4,0.1,0.6,0.3,0.6,0.7
	C622.9,141,622.5,140.9,622.2,141z"/>
<path class="st1" d="M257.9,302.7c0.2,0,0.4-0.1,0.5-0.1c0.3,0,0.3,0.2,0,0.3c-0.2,0-0.3,0-0.5-0.1
	C257.9,302.8,257.9,302.7,257.9,302.7z"/>
<path class="st1" d="M345.3,122.7c0,0.4-0.2,0.6-0.6,0.5c-0.3-0.1-0.7-0.3-0.8-0.5c-0.2-0.4,0.1-0.7,0.4-0.8
	C344.8,121.9,345.2,122.1,345.3,122.7z"/>
<path class="st1" d="M626.3,556.9c0,0,0.1,0,0.1,0c0,0.1,0,0.2,0,0.3c0,0.1-0.1,0.1-0.1,0.2C626.3,557.3,626.3,557.1,626.3,556.9z"
	/>
<path class="st1" d="M666,238c-0.5,0-0.9-0.3-0.9-0.7c0-0.6,0.5-0.9,1-0.9c0.5,0,0.9,0.3,0.9,0.8C667.1,237.7,666.7,238.1,666,238z"
	/>
<path class="st1" d="M323.5,203.8c0.3,0.7,0,0.9-0.4,1c-0.3,0-0.6-0.2-0.7-0.6c-0.1-0.4,0.2-0.7,0.5-0.7
	C323.2,203.5,323.5,203.8,323.5,203.8z"/>
<path d="M502.1,689.6c0.1,0.2,0.3,0.4,0.4,0.6C501.8,690.3,502.2,689.8,502.1,689.6C502.1,689.5,502.1,689.6,502.1,689.6z"/>
<path class="st1" d="M283.8,411c0.1,0.1,0.1,0.1,0.2,0.2c-0.1,0-0.1,0.1-0.2,0.1c-0.1,0-0.1-0.1-0.2-0.2
	C283.7,411.1,283.8,411,283.8,411z"/>
<path class="st1" d="M649.6,527.1c-0.1,0.1-0.1,0.1-0.2,0.1c-0.1,0-0.1-0.1-0.2-0.1c0.1,0,0.1-0.1,0.2-0.1
	C649.5,527,649.5,527.1,649.6,527.1z"/>
<path d="M801.8,548.1c-0.1-0.1-0.4-0.1-0.4-0.2c0-0.1,0.1-0.4,0.2-0.4c0.1,0,0.4,0.1,0.4,0.2C802,547.8,801.9,548,801.8,548.1z"/>
<path class="st1" d="M237.5,469.9c-0.1,2.1,1.2,3.6,2.4,5c1.3,1.5,1.9,3.3,3.2,5.2c-4.3-1.5-7.2-4.3-9.2-7.9
	c-1.3-2.2-0.9-5.4-3.9-6.8c-0.3-0.1-0.1-1.5-0.2-2.3c-0.1-1.5,0.3-3-0.9-4.5c-0.8-1-0.5-2.5,0.7-3.6c2.3,4.7,4.6,9.2,6.9,13.7
	c0.2,0.5,0.4,1,1,1C237.4,469.8,237.5,469.9,237.5,469.9z"/>
<path class="st0" d="M634.4,272.7c-2.5,0.9-4.2,2.9-6.2,4.5c-1,0.8-1.4,1.7-2.6,0c-1.1-1.7-3.5-1.1-5.2-2c-0.5-0.2-1,0.7-1,1.3
	c-0.1,0.9,0.1,1.9-1.3,1.9c-1.2,0-2.6,0.4-3.3-1c-0.2-0.5-0.7-0.8-1-1.3c-0.6-1-1.3-2.4-2.6-1.6c-1.1,0.7,0.6,1.6,0.4,2.7
	c-1-1.4-2.1,0-3.3-0.3c-2.5-0.7-1.1,1.5-1.6,2.4c-0.7,1.4-1.8,2.2-3.5,2.2c0.7,0.9,2,1.5,1.5,2.5c-0.6,1.1-2,0.1-3.1,0.7
	c-0.8,0.4-0.9-0.8-1.2-1.6c-0.9-1.9-2-3.8-4.7-3.5c-0.6,0.1-1.6,0.3-2-0.4c-0.5-0.9,0.4-1.5,0.8-2.1c1.6-2.5,4.2-3.3,7.1-2.8
	c1.5,0.2,2.6,0.1,3.6-1.3c0.9-1.3,2-2.7,3.9-1.1c0.7,0.6,1-0.3,1.4-0.7c0.8-0.8,1.4-2,2.4-2.4c3.3-1.5,0.6-2.1-0.4-3
	c-1.3-1.2-3.5-0.8-4.2-3.1c-0.4-1.3-1.6,0.8-2.7,0.1c-1.6-1-1.3,0.6-1.9,1.4c-1.8,2.9-4.1,5.4-7.1,7.5c-1.9,1.3-3.4,0.8-5.1,0.6
	c-1.1-0.1-2.4-0.1-3.5,0.1c-3.2,0.7-6.2-0.1-9.2-0.7c-1.2-0.3-2.4-0.4-3.6-0.5c-3-0.4-4.4-2.8-6.1-4.9c-1.9-2.3-2.8-5.3-5.1-7.4
	c-1.2-1.1-2.5-2.7-3.5,0.2c-0.1,0.2-0.2,0.4-0.3,0.4c-4.2-0.6-6.2,5.3-10.8,3.5c-1.8-0.7-3,1.2-4.7,1.6c-1.4,0.3-2-0.3-3.2-0.7
	c2.5-1.7,4.5-3.7,6.2-5.8c0.6-0.8,1.8-1.2,2.8-1.4c0.9-0.2,1.4-0.8,2-1.2c1.5-1.1,1.2-1.7-1-1.8c2.5-0.6,4.4-0.7,5.9-2.3
	c1.1-1.2,3-1.4,4.4-1.8c6-1.9,12.1-3.7,18.3-5c4.8-1.1,9.4-0.4,14.1-0.9c6.3-0.6,12.5,1.6,18.9,0.6c0.9-0.1,0.5,1.2,1.2,1.2
	c1.2,0,2.3,0.6,3.8-0.2c2-1.1,4.4-0.6,6.7-0.8c2.4-0.2,2.8-1.1,1.2-3c-0.6-0.8-0.4-1.4-0.1-2.2c0.4-1,1.2-0.5,1.8-0.6
	c1.5-0.3,2.5,1,3.3,1.6c1.4,1.2,2.7,2,4.5,1.7c0.1,0,0.3,0,0.3,0c-0.1,3.1,2.5,1.6,3.8,2.3c0.4,0.2,1,0.5,0.7,1
	c-1.3,2,1.7,3,1.1,4.9c0,0.2,0.4,0.7,0.6,0.7c1.2,0.1,1.1-1.1,1.7-2c0.4,3,1.2,5.4,4,6.5c1.3,0.5,1.8,1.3,1.5,3.1
	c-0.5,2.2,0,4.6,0.1,6.8c0.1,1.2,1.3,0.8,2,1.4c-3.2-0.5-6.2,0.7-9.3,1.2c-1.6,0.2-3.3,0.8-5,1.1c-1,0.2-1.7,0.9-1.7,2.1
	c0.1,2.2,0.1,2.2-1.7,4.1c-0.3-0.9,1.2-0.8,0.9-1.6c0.6-0.2,0.7-0.7,0.4-1.1C634.9,272,634.6,272.2,634.4,272.7z M583.5,260.6
	c1.9,0.1,3.5-0.5,4.9-1.4c0.7-0.4,1.3-1,1-2c-0.2-0.8-0.9-1-1.6-1.1c-1.2-0.2-2.4-0.4-3.6-0.8c-1.5-0.5-2.8-0.2-3.8,1.1
	c-0.6,0.7-0.6,1.4-0.2,2.2C580.9,260.1,582,260.8,583.5,260.6z M626.6,245.6c0.1-0.3,0.3-0.5,0.3-0.6c0-0.2-0.3-0.5-0.4-0.5
	c-0.4,0-0.6,0.3-0.5,0.7C626.1,245.2,626.3,245.4,626.6,245.6z"/>
<path class="st0" d="M496.7,559.1c-3,1.4-6.1,2.5-9.5,2.5c-1.4,0-1.9,0.1-2-1.4c0-0.9-0.9-2-1.6-1.9c-1.3,0.2-0.4,1.2-0.3,1.9
	c0.1,0.6-0.1,1-0.5,1.4c-1.5,1.2-7.1,0-7.8-1.9c-0.3-0.7-0.5-0.2-0.8-0.3c-0.4,2.1-1.8,1-2.9,1c-1,0-2.1-0.4-2.7,0.6
	c-2.7,4.3-6.7,4.1-10.9,3.5c-0.4-0.1-1.1-0.4-1.3-0.2c-2.4,2.2-3.9,0.1-5.8-0.8c-2.2-1.1-4.7-0.3-7.1,0.2c-2.5,0.6-3.6-0.1-3.8-2.5
	c-0.1-0.7,0.3-1.8-0.9-1.9c-1.4-0.1-1.2,1.1-1.1,1.9c0.2,1.8-0.4,2.8-2.3,3c0.7-1.7-0.1-3.4,0-5c0.8,0,1.7,0.3,1.6-1.1
	c0-0.5-0.2-1-0.7-0.9c-1,0.3-1,1.1-0.8,2c-1.6-1.7-2,0.2-2.1,1c-0.2,1.4-0.8,2.9,0.2,4.3c0.5,0.7,1,1.7,0,3.6
	c-0.2-4.3-4.8-5-5.1-8.8c-0.1-1-1.9-1.5-1.6-3.2c0.1-0.5-1.4-0.3-2.2,0c-0.2-0.9,0.8-1.3,0.5-2.2c-0.3-1.1-1.1-3.1,1.7-2.1
	c0.4,0.1,1.5-1.2,1.7-2.3c0.1-0.6,0.5-1,1.1-1c0.7-0.1,0.8,0.5,0.9,1.1c0.2,1.7,2,2.2,2.7,3.6c0.4-2.1,3.4-4.4-0.7-6.1
	c-0.6-0.3-0.9-1.5-1.3-2.3c-0.8-1.7-2-2.6-3.9-3c-0.7-0.1-1.5,0.5-1.9-0.3c-0.6-1-2.3-1.4-1.8-3.2c0.4-1.5,1.8-1.5,2.7-1.8
	c1.3-0.4,3-0.3,3.7,1.2c0.7,1.5,2,1.7,3.1,1.5c2.6-0.6,4.9-0.5,6.8,1.6c0.1,0.1,0.4,0.3,0.4,0.3c2.8-1.5,4.5,2.1,7.1,1.5
	c0.9-0.2,1.4,0.7,2.1,1.1c1,0.5,2,1.2,3.1,0.1c1.1-1,1.9-0.7,1.9,0.9c0,0.7,0.6,1.2,0.9,1.1c3.3-1.9,5.1,1.5,7.6,2.1
	c0.7,0.2,1.4,0.4,2-0.1c0.5-0.5,0.8-1.4,1.2,0.2c0.2,1.1,1.6-0.1,1.9-0.2c2.7-0.5,5.2-0.7,7.9,0.2c2.7,0.8,5.3-1.4,8.1-1.1
	c0.7,0.1,1.5-0.6,0.8,0.8c0,0.1,0.2,0.3,0.3,0.4c1.6-1.5,3.9,0.6,5.5-1c0.9-0.9,4.2-0.8,5.2,0c0.5,0.5,1.2,0.6,1.8,0.4
	c1.9-0.7,3.8-1.1,5.8-1.3c2.7-0.2,5.4-1.2,8.1-1.6c0.7-0.1,1.1-0.7,1.8-0.9c0,1-1.8,1.7-0.5,2.5c0.8,0.5,1.8-0.3,2.3-1.3
	c0.3-0.4,0.7-0.8,1.1-1.2c0.4-0.6,0.8-0.7,1.3-0.1c0.4,0.6-0.1,0.6-0.4,0.9c-0.6,0.7-2.2,0.9-1.3,2.3c0.8,1.1,1.5,2.8,3.4,1.1
	c0.4-0.4,1.6-0.1,2.4-0.1c1.3,0.1,1.2,1,1.2,1.9c0,1.2-0.6,1.1-1.6,0.8c-1.4-0.4-2.8-0.5-2.6,1.7c0.1,1.3-0.9,1.4-1.8,1.5
	c-2,0.2-4.1,0.1-6.1,0.6c-1.4,0.4-2.5,1.5-4.1,1.3c-0.8-0.1-1.3-0.3-1.6-1.1c-0.5-1.4-0.6-1.5-1.6-0.4c-1.7,1.7-3.7,2.8-6.1,2.8
	C495.5,557.1,497.3,558.6,496.7,559.1L496.7,559.1z M481.3,558.4c-0.2-0.1-0.4-0.3-0.6-0.4c-0.4-0.2-0.5,0.1-0.4,0.4
	c0.1,0.2,0.3,0.4,0.5,0.4C481.1,558.9,481.3,558.8,481.3,558.4z"/>
<path class="st0" d="M482.2,418.4c-2,0.7-3.9,1.1-6,0.3c-0.9-0.3-2.1-0.4-2.9-0.1c-2,0.9-4.1,0.3-6.1,0.6c-2.9,0.4-5.5-0.7-7.6-2.1
	c-1.3-0.8-3.3-1.7-3.6-3.8c-0.1-0.5,1-0.3,0.5-0.7c-0.4-0.3-1.4-0.9-1.7-0.3c-0.9,2.2-2.7,1.1-4.2,1.3c-0.7,0.1-1.4,0.1-2.1,0
	c-2.9-0.3-3.2-0.9-1.6-4.1c-1.6,1.7-2.4,1.3-3.2,0.2c-0.8-1.1-1.2-3-3.3-2.1c-0.1,0-0.4-0.2-0.4-0.3c-0.3-1.5-0.2-3.1-0.9-4.4
	c-0.8-1.6-1-2.8,0.2-4.1c0.3-0.3,0.6-1.1,0.5-1.2c-2.7-2.6,0.7-2.2,1.4-3.3c1.4-2.1,3.7-3.8,4.3-6.4c0.1-0.7,0.6-1.2,1.1-1.3
	c0.6,0,0.8,0.7,0.9,1.2c0.4,1.7,1.3,2.1,2.8,1.4c0.7-0.3,1.5-0.3,1.9,0.5c0.8,1.4,1.4,1.5,1.8-0.2c0.1-0.4,0.8-0.4,0.8-0.1
	c0.7,3.4,4.2,3.6,6.1,5.5c0.9,0.9,1.3,2.2,2.8,2.5c0.6,0.1,0.5,1.8,1.6,1.3c1.1-0.4-0.1-1.6,0.6-2.4c0.4,0.3,0.7,0.7,1.1,0.9
	c0.6,0.3,1.6-1.2,2,0.1c0.4,1.7-1.8,0-2,1.5c0.6,1,3,0.3,2.9,2.5c0,0.7,1.4,0.1,1.9-2.3c0.8,3.1,3.4,3.5,5.3,4.6
	c0.7,0.4,1.5,0.3,2.1,1.1c0.6,0.9,2.3,1.3,2.6,1c2.7-2.5,5.3,1.1,8.1,0c2.5-1,5.5-0.7,8.3-0.6c1.1,0.1,2.3-0.4,3.2-1.3
	c2.3-2.3,5.1-3.9,7.4-6.2c1.9-1.9,4.7-3.4,6.8-5.1c3.4-2.7,7-1.5,10.4-1.5c2.2,0,4.4,4.8,3.4,6.9c-0.1,0.3-0.7,0.5-0.7,0.8
	c0,1.3,1.6,3.3-1.7,2.9c-1.5-0.2-2.6,1.9-4.8,1.2c-2.7-0.8-3.5,0.1-3.2,3.2c-1.8-2.9-3.2-0.4-4.6,0c-0.5,0.1-0.6,1.4-1.3,0.1
	c-0.3-0.5-0.7-0.7-1.4-0.5c-1.4,0.5-2.9,1.6-3.4-1.1c-0.1-0.6-0.9-0.9-1,0.3c0,0.1-0.3,0.4-0.3,0.4c-3.1-1.6-4.3,2.2-6.8,2.6
	c-1.6,0.2-3.4,1.3-2.3,3.7c0.3,0.6-0.4,1-0.7,0.9c-2.9-0.9-4.7,1.4-6.5,2.7c-1.8,1.3-3.4,1.6-5.1,1.1
	C483.4,415.5,482.6,416.5,482.2,418.4L482.2,418.4z M495.8,409.3c-0.2,0.3-0.3,0.5-0.4,0.6c0.1,0.1,0.3,0.2,0.4,0.2
	c0.2-0.1,0.4-0.2,0.5-0.4C496.2,409.7,496,409.5,495.8,409.3z"/>
<path class="st0" d="M431.4,490c0.6,0.2,1.1,2.9,1.9,0.2c2,0.5,4,0.7,5.7,2.2c0.8,0.7,1.1,3.4,3,1c0,0,0.3,0.1,0.3,0.2
	c2.1,3.9,5.8,3.5,9.2,2.9c1.2-0.2,0.8,0.9,1.5,1c2.7,0.5,5.2,2.1,8.1,1.2c0.6-0.2,0.8-0.1,0.8,0.5c0,0.4,0.1,1,0.7,0.8
	c2.9-1.1,5.2,0,7.5,1.5c0.9,0.6,1.1,0.2,1.5-0.6c0.6-1,1-2.1,1.3-3.5c1,4.4,4.7,2.8,7,3.9c-0.4,0.4-1.1,0.1-1.7,0.1
	c-0.8-0.1-1.3,0.4-1.8,0.9c-0.1,0.1-0.6,0-0.7-0.1c-2.5-2.8-2.8,0.1-3.8,1.3c-0.6-1.8-0.8-2-1.5-1.5c-2.7,1.9-5.7,0.6-8.5,1.1
	c-2.5,0.4-5.1,0.4-7.5,1.4c-2.2,0.9-4.5,0.5-6.6,0.5c-2.9,0-4.8,2.8-7.8,2c0.3,1.7-2.2,1.1-2.1,2.7c0,0.4-0.2,0.8-0.8,0.5
	c-2.4-0.8-3.8,1.4-5.9,1.8c-0.6-1.1-1.3-2.9-2.9-0.4c-0.5,0.9-1.4,0.6-2.2,0.5c-2.3-0.2-3.6,0.8-4,3.1c-0.7-0.2-1.1-0.8-1.1-1.3
	c0.1-1.9-1.3-1.9-2.5-2.4c-2.4-1-4.4,0.4-6.7,0.4c-2.5,0-4.9-0.2-7.4,0c-1.7,0.2-3.4-1.3-5.3-1.8c-2.5-0.6-3.6-0.3-4.6,2
	c-0.6-1.4-1.8-2-2.8-2.6c0.6-0.2,1.3-0.7,0.9-1.4c-1.4-2.8,0.6-4,2.1-5.8c1.3-1.5,2.4-3.2,3.8-4.6c0.1-0.1,0.1-0.3,0.1-0.4
	c1.6,0.8,1.6,0.7,2.9-0.5c0.7-0.6,1.4-1.8,2.7-0.6c0.9,0.8,1.1-0.3,1.5-0.7c1.1-1.1,2.1-1.8,3.8-0.7c1.8,1.1,4,0.1,6,0.3
	c1.1,0.1,1-1.3,1.3-2.2c0,0.6,0,1.6,0.7,1.3c1.2-0.6,2.2-0.3,3.2,0.3c0.3,0.2,0.9-0.1,1-0.6c0.9-2.3,2.1-2.4,3.9-0.5
	c0.6,0.7,1-0.1,1.3-0.2c1.2-0.5,2.3-0.7,3.3,0.4C431.7,492.4,430.2,490.9,431.4,490z M436.9,508.6c-0.6,0.2-0.9,0.5-0.9,1
	c0,0.1,0.4,0.3,0.7,0.3c0.6,0,0.7-0.5,0.7-0.9C437.4,508.8,437,508.6,436.9,508.6z"/>
<path class="st0" d="M553.1,483.3c1.2,1,2.2,0.7,3-0.6c0.3-0.5,0.3-1.4,1.1-1.2c0.8,0.1,0.8,1,0.9,1.5c0.3,1.5,1.1,1.5,2.2,1.1
	c2.2-0.8,4.5-1.5,6.6-2.3c1-0.4,1.4,0.3,2.1,0.7c1.6,0.9,3.3,1.9,4.6-0.4c0.4-0.8,1.5-0.6,1.5-0.5c-0.2,2.1,2.3,1.3,2.8,2.7
	c0.4,1,0.9,0.4,0.9-0.4c0.5,0.3,1.2,0.2,1,1.4c-0.7,4.2-2,5.2-6.3,5.2c-3,0-6.1,0.3-9,1.4c-1.8,0.7-3.7-0.3-5.6,0.7
	c-0.6,0.4-1.5,0.4-2.3,0.9c-1.2,0.7-2.4,1.1-3.7-0.4c-1-1.2-2.9-1.9-3.9,0.5c-0.3,0.6-0.8,0.5-0.9,0.2c-0.8-1.8-2.5-1.6-4.1-2.1
	c0.6-1.1,1.9-1.9,1.8-3.3c0-0.1,0.1-1.2,1.4-0.3c2,1.3,1.5-1.1,1.5-2.3c1.4-0.2,2.3,1.1,3.6,0.7c0.9-0.2,2.2,0.1,2.4-1.1
	C555.2,484,554.1,483.6,553.1,483.3L553.1,483.3z"/>
<path class="st0" d="M449.5,420.4c0.4-1.7-0.9-3.4,1.2-3.7c1.8-0.3,3.6-0.1,4.8,1.5c0.4,0.6-2.2,4.8-2.8,4.5
	c-1.3-0.6-2.3,0.5-3.8-0.2c-2-0.9-4.6-0.5-6.8-0.6c0.3-0.3,1.1,0.5,1.5-0.7c-2.8-0.3-5.5-1.1-8.1-2.3c-1.7-0.8-2.7-1.9-3.4-3.5
	c-0.4-1-0.1-1.7,0.9-2.1c0.8-0.3,1.6-0.5,1.6,0.9c0,0.8,0.5,0.4,0.9,0.4c1.1-0.1,2.1,0.2,3.1,0.4c1.9,0.4,2.3,0.9,0.5,2.1
	c0.5,0.2,0.9,0.9,1.5,2.2c0,0.1,0.2,0.1,0.3,0.1c0.4,0,0.8,0.1,1.1-0.1C444.6,417.5,447.2,416,449.5,420.4z"/>
<path class="st0" d="M522.1,494.2c-1.8,1.3-3.3,2.8-5.9,2.9c-1,0-0.8-0.5-1.1-0.7c-0.7-0.7,0-0.9,0.5-1c0.8-0.2,1.5-0.3,2.3-0.3
	c0.3,0,0.7,0.2,0.9-0.2c1-1.7,1-1.7,3.2-0.9C522.1,494,522.1,494.1,522.1,494.2z"/>
<path class="st0" d="M494.7,499.3c-1.3,1.8-3.6,1.3-5.5,2.6C489.8,497.6,493.2,500.8,494.7,499.3z"/>
<path class="st0" d="M608.3,149.3c0.5,0.9,1.5,1.7,1,2.8c-0.1,0.3-0.6,0.3-0.9,0.1C606.8,151.3,608.5,150.2,608.3,149.3z"/>
<path class="st0" d="M343.3,240.7c1.6-0.4,2.8-0.7,4-0.9c0.4-0.1,1.2-0.2,1.1,0.6c-0.1,0.6-0.6,0.5-1,0.3
	C346.1,240.1,344.9,241.5,343.3,240.7z"/>
<path class="st0" d="M590.2,280.3c-0.3-1.7,0.4-2.5,0.9-3.3C591.3,278,591.2,278.9,590.2,280.3z"/>
<path class="st0" d="M354.9,121c1.1,0.1,2.2,0.2,3.8,0.3C357,121.7,355.8,123.1,354.9,121C354.9,120.9,354.9,121,354.9,121z"/>
<path class="st0" d="M391.4,256.3c-0.2-0.4-0.4-0.7-0.7-1.2C391.5,255.4,391,256.1,391.4,256.3C391.4,256.4,391.4,256.3,391.4,256.3
	z"/>
<polygon class="st0" points="532.7,629.1 532.5,628.9 532.7,628.9 "/>
<path class="st0" d="M649,522.7c-0.1,0.1-0.3,0.1-0.4,0.2c-0.1-0.2-0.1-0.4-0.2-0.5c0.2,0,0.3-0.1,0.4-0.1
	C648.9,522.4,649,522.6,649,522.7z"/>
<path class="st0" d="M531.5,397.5c0.2-0.3,0.4-0.7,0.6-1c-0.1,0-0.1,0-0.2-0.1C531.8,396.7,531.7,397.1,531.5,397.5L531.5,397.5z"/>
<path class="st0" d="M265.3,345.4c-0.1-0.4-0.1-0.9,0.4-1c0.4-0.1,0.6,0.2,0.5,0.6C266.1,345.5,265.7,345.5,265.3,345.4
	C265.3,345.4,265.3,345.4,265.3,345.4z"/>
<path class="st0" d="M664.5,488.4c-0.1,0-0.1,0.1-0.2,0.1c0,0,0-0.1,0-0.1c0-0.1,0.1-0.1,0.2-0.2
	C664.5,488.3,664.5,488.3,664.5,488.4z"/>
<path class="st0" d="M262.2,313.6c0.2,0.2,0.3,0.4,0.5,0.5c-0.2,0.1-0.5,0.2-0.7,0.1c-0.1,0-0.3-0.2-0.4-0.3
	C261.8,313.9,262,313.8,262.2,313.6z"/>
<path class="st0" d="M328.5,202.1c0.3,0,0.6,0,0.9,0.1c-0.1,0.1-0.2,0.2-0.2,0.1C329,202.3,328.8,202.2,328.5,202.1
	C328.5,202.1,328.5,202.1,328.5,202.1z"/>
<path class="st0" d="M648,520.8c-0.1,0.1-0.1,0.3-0.2,0.4c0-0.1-0.1-0.1-0.1-0.2c0-0.1,0.1-0.3,0.2-0.4
	C647.9,520.7,648,520.7,648,520.8z"/>
<polygon class="st0" points="473.5,632.4 473.8,632.4 473.6,632.3 "/>
<path class="st0" d="M382.1,576.6c-0.1,0.1-0.2,0.2-0.3,0.2c-0.1,0-0.2-0.2-0.2-0.3c0,0,0.1-0.2,0.2-0.1
	C381.8,576.5,381.9,576.5,382.1,576.6z"/>
<polygon class="st0" points="531.6,397.4 531.5,397.5 531.5,397.5 "/>
<polygon class="st0" points="553.1,483.3 553,483.3 553.1,483.3 "/>
<path class="st0" d="M482.2,418.4c0.1,0,0.3,0.1,0.4,0.1C482.2,419,482.2,418.6,482.2,418.4C482.2,418.4,482.2,418.4,482.2,418.4z"
	/>
<path class="st0" d="M438.6,397.6c0,0.1-0.1,0.1-0.1,0.2c-0.1-0.1-0.2-0.1-0.2-0.2c0.1-0.1,0.1-0.2,0.2-0.2
	C438.5,397.5,438.6,397.6,438.6,397.6z"/>
<polygon class="st0" points="656.8,502.1 656.7,502.1 656.7,502.1 "/>
<path class="st0" d="M496.7,559.1c0.1,0,0.3,0,0.4,0.1C496.8,559.6,496.8,559.4,496.7,559.1C496.7,559.1,496.7,559.1,496.7,559.1z"
	/>
<path class="st0" d="M381.8,581.1c0.1,0,0.3,0.1,0.4,0.1c-0.1,0.1-0.1,0.2-0.2,0.3C381.9,581.3,381.9,581.2,381.8,581.1
	C381.8,581.1,381.8,581.1,381.8,581.1z"/>
<path class="st1" d="M626.6,245.6c-0.2-0.2-0.5-0.4-0.5-0.5c-0.1-0.4,0.1-0.7,0.5-0.7c0.1,0,0.4,0.3,0.4,0.5
	C626.9,245.1,626.7,245.3,626.6,245.6z"/>
<path class="st1" d="M634.4,272.7c0.2-0.5,0.6-0.6,0.9-0.2c0.3,0.4,0.3,0.9-0.4,1.1C634.7,273.3,634.5,273,634.4,272.7z"/>
<path class="st1" d="M435.5,559.1c-0.1-0.8-0.1-1.7,0.8-2c0.5-0.2,0.7,0.4,0.7,0.9C437.2,559.4,436.2,559,435.5,559.1
	C435.5,559.1,435.5,559.1,435.5,559.1z"/>
<path class="st1" d="M481.3,558.4c0,0.4-0.2,0.5-0.5,0.5c-0.2-0.1-0.4-0.2-0.5-0.4c-0.1-0.2,0-0.6,0.4-0.4
	C480.9,558.1,481.1,558.3,481.3,558.4z"/>
<path class="st1" d="M495.8,409.3c0.2,0.2,0.4,0.4,0.6,0.5c-0.2,0.1-0.3,0.3-0.5,0.4c-0.1,0-0.3-0.1-0.4-0.2
	C495.5,409.8,495.6,409.6,495.8,409.3z"/>
<path class="st1" d="M436.9,508.6c0.1,0.1,0.5,0.2,0.5,0.3c-0.1,0.4-0.1,0.9-0.7,0.9c-0.2,0-0.7-0.2-0.7-0.3
	C436,509.1,436.3,508.7,436.9,508.6z"/>
</svg>
