<?xml version="1.0" encoding="utf-8"?>
<!-- Generator: Adobe Illustrator 16.0.0, SVG Export Plug-In . SVG Version: 6.00 Build 0)  -->
<!DOCTYPE svg PUBLIC "-//W3C//DTD SVG 1.1//EN" "http://www.w3.org/Graphics/SVG/1.1/DTD/svg11.dtd">
<svg version="1.1" id="Layer_1" xmlns="http://www.w3.org/2000/svg" xmlns:xlink="http://www.w3.org/1999/xlink" x="0px" y="0px"
	 width="1190.55px" height="841.89px" viewBox="0 0 1190.55 841.89" enable-background="new 0 0 1190.55 841.89"
	 xml:space="preserve">
<path fill="none" stroke="#231F20" stroke-miterlimit="10" d="M533,261c5.011-8.447-3.517-27.569-7.719-34.583
	c-17.45-29.125-63.024-26.303-86.645-7.747c-39.876,31.327-43.333,96.968-29.486,142.22C421.292,400.575,477.643,412.728,513,397"/>
<path fill="none" stroke="#231F20" stroke-miterlimit="10" d="M532,262c-3.594-4.916,0.934-13.503,3.083-18.418
	c7.591-17.359,20.905-32.737,35.14-44.998c16.111-13.876,34.215-22.393,53.608-9.742c19.793,12.912,34.497,36.038,36.979,59.478
	c4.88,46.096-21.235,93.321-59.574,117.631C575.066,382.545,542.736,383.316,513,378"/>
<path fill="none" stroke="#231F20" stroke-miterlimit="10" d="M503,338c-5.264,7.021,0.114,20.305,8.995,13.036
	c5.719-4.681,4.261-21.802-5.684-18.983c-8.173,2.316-8.796,19.618-0.772,22.512c9.774,3.526,16.432-9.649,10.022-16.073
	c-5.684-5.697-12.209-4.075-10.577,4.482c2.19,11.48,11.133,3.103,7.722-2.984c-4.619-8.242-11.554,1.034-10.721,6.932
	c1.608,11.4,14.542,5.776,11.728-1.753c-3.568-9.543-21.148-1.923-9.277,6.828c9.172,6.762,10.249-8.355,1.715-6.84
	c-0.529,3.319-0.72,6.962,1.626,8.765c4.585-6.817-5.176-13.285-6.897-4.849c0.446,1.642,0.922,0.409,2.12,0.929"/>
<path fill="none" stroke="#231F20" stroke-miterlimit="10" d="M551,311c-3.744,0.375-5.531,4.058-2.504,6.605
	c3.419,2.877,6.778-3.332,1.675-5.525c-0.577,1.639-1.049,3.189-1.023,4.789c2.234-1.823,1.845-0.848,0.853-4.011
	c-0.567,2.633-0.43,5.715,1.849,2.294c-2.344,1.376-1.204,0.312-1.674,3.721c2.921-1.095,2.667-1.196,2.674-4.721
	c-3.332-0.57-3.534-0.17-4.694,2.649c1.781,1.083,2.396,1.502,4.714,1.052c-0.508-1.925-0.401-1.494-1.671-2.753
	c-0.291,0.487-0.16,1.655-0.678,2.027c-1.543-1.056-2.422-0.431-4.368-0.975c-0.953,3.215-0.387,6.524,2.649,7.769
	c2.133-3.498,3.988-8.833-1.669-8.792c-0.638,1.615,0.383,1.461,0.869,2.872"/>
<path fill="none" stroke="#231F20" stroke-miterlimit="10" d="M401,478c1.886,8.403,13.828,18.22,19.891,24.264
	c9.773,9.742,28.255,29.394,42.577,31.008c12.683,1.43,24.324-18.525,32.18-26.602c2.729-2.806,7.634-9.844,12.138-9.803
	c5.059,0.046,6.361,6.22,10.417,8.011c14.894,6.573,18.44-20.523,30.259-23.15c11.156-2.48,10.803,15.86,23.019,9.41
	c16.624-8.776,20.623-34.133,42.984-18.99c6.018,4.076,8.688,7.978,15.903,4.148c7.231-3.837,10.828-13.977,16.992-19.247
	c11.604-9.921,23.594,2.229,33.192-4.614c10.237-7.3,13.355-33.48,16.534-44.466c3.656-12.641,6.892-25.572,11.98-37.741
	c0.322,2.346-1.167,1.721-2.067,2.772"/>
<path fill="none" stroke="#231F20" stroke-miterlimit="10" d="M696,341c0.264-5.385,14.936-11.083,19.468-14.185
	c6.186-4.234,15.728-8.242,23.571-7.119C761.463,322.906,770.893,362.915,769,381"/>
<path fill="none" stroke="#231F20" stroke-miterlimit="10" d="M385,460c0.77-1.088,1.283-2.273,2.623-3.067
	C381.509,461.14,366.62,488.046,381,489"/>
<path fill="none" stroke="#231F20" stroke-miterlimit="10" d="M442,195c-5.933-3.205-11.38-13.262-16.845-17.92
	c1.076,6.144,7.868,13.798,12.694,17.641c1.002-5.674-1.991-11.039-1.697-16.641c5.634,2.219,5.772,8.94,9.495,12.885
	c-2.554-4.655-5.899-9.987-9.566-13.682c3.018,4.149,5.625,9.177,8.74,13.49c0.401-4.617-2.499-11.551-4.943-15.441
	c1.988,3.311,3.858,7.288,6.949,9.112c0.854-3.883-0.514-7.635-1.92-11.138c2.389,3.298,4.016,7.02,6.166,10.486
	c-0.138-4.517-0.05-9.042-0.094-13.561c0.904,13.225,9.301,11.95,7.971-0.952c1.125,3.364,1.699,7.215,3.853,9.692
	c0.307-3.18,0.094-6.549,0.422-9.662c0.731,2.923,0.874,6.519,1.971,9.63c3.01-2.17,2.704-7.978,3.583-11.638
	c0.245,3.13,0.897,6.449,2.226,9.418c1.142-3.656,2.759-8.033,4.771-10.637c0.025,3.58,0.662,7.334,1.397,10.833
	c2.341-1.548,3.433-4.542,3.852-7.614c-0.094,1.206,0.149,2.423,0.128,3.566c2.54-0.508,4.611-2.443,5.701-4.812
	c-0.957,3.07-1.285,6.648-0.65,9.856c1.439-1.631,3.123-4.103,3.846-6.607c-0.105,1.543,0.187,3.148,0.126,4.614
	c2.701-1.816,3.997-5.987,6.651-7.888c0.399,5.076-0.971,11.388,1.103,15.892c0.893,0.211,1.583-0.097,2.071-0.924"/>
<path fill="none" stroke="#231F20" stroke-miterlimit="10" d="M551,149c0-0.333,0-0.667,0-1"/>
<path fill="none" stroke="#231F20" stroke-miterlimit="10" d="M551,149c0-1.483,0-2.966,0-4.449
	c-0.377,2.983,0.179,5.762,1.774,8.15c0.38-3.695,0.226-7.641,0.229-11.443c-0.173,4.529,1.613,9.666,4.045,13.381
	c-0.101-5.181-0.29-10.497,0.151-15.63c1.983,2.741,2.41,7.196,2.972,10.904c4.045-3.076,4.93-13.281,6.877-18.63
	c-0.115,3.356-0.507,6.748,0.929,9.486c3.334-6.188,2.826-21.271,11.094-23.686c1.677,3.454,0.77,7.937,1.131,11.879
	c5.034-6.009,5.713-15.896,10.869-22.653c-0.156,2.147,0.142,4.351-0.12,6.486c0.875-3.354,1.855-6.667,3.319-9.787
	c0.896,2.486,0.78,5.836,0.881,8.764c2.536-4.289,7.479-13.58,12.721-13.661c0.469,3.106-0.396,6.521-0.718,9.383
	c2.044-3.458,4.917-6.903,7.643-9.438c0.548,2.963-0.194,6.133-0.669,8.938c2.296-1.84,4.424-5.132,6.721-6.935
	c0.563,4.97-1.434,9.771-0.694,14.828c4.421-1.066,6.432-6.439,10.694-8.557c0.265,4.09,0.015,8.42,0.303,12.534
	c2.795-0.214,5.031-2.644,6.643-4.805c0.331,4.792-1.16,9.661-0.643,14.609c1.851-1.553,4.222-3.322,5.697-5.386
	c0.673,3.113,0.03,6.841-0.673,9.595c0.777-0.141,0.86-0.617,1.625-0.778c0.298,3.549,0.099,7.261,0.351,10.82
	c2.373-1.048,4.44-3.121,5.646-5.618c0.623,5.17-1.559,13.305-2.816,18.418c0.806-3.64,1.284-7.806,1.844-11.215
	c-1.705,2.827-2.096,8.194-1.824,9.712c0.231-5.112-0.421-9.404-2.194-14.134c-1.848,1.713-2.352,4.5-2.852,7.614
	c0.815-3.439,1.626-6.862,2.094-10.396c-0.22,1.014-0.752,2.445-1.074,3.418c0.139-5.064-2.425-11.238-5.719-14.641
	c-0.467,1.23-1.199,2.291-1.501,3.614c-0.247-1.849-1.662-4.557-2.028-6.216c-0.638,2.118-0.818,7.161-0.726,7.684
	c0.078-4.096,0.759-8.453-1.801-11.879c0.045,1.691-0.376,3.638-0.176,5.435c-0.676-3.523-1.639-7.064-3.023-10.415
	c-0.352,1.17-0.745,2.161-0.972,3.34c-0.75-2.543-1.473-5.782-3.024-8.34c-1.358,3.37-1.066,6.786-1.004,10.418
	c0.45-3.747-0.155-8.209-2.777-10.641c-0.295,1.598-1.21,3.043-1.472,4.618c-1.028-2.838-2.132-6.077-4.525-7.614
	c-1.562,2.939-1.326,6.396-1.451,9.614c-1.03-3.457-2.556-7.831-5.601-9.618c0.333,2.694-0.644,5.254-1.174,7.511
	c-0.403-2.17-1.889-4.824-2.805-6.511c-0.843,3.485-1.461,7.223-1.369,10.84c-2.2-1.818-3.676-4.946-5.604-7.594
	c-1.27,2.909-1.527,6.312-1.422,9.42c-1.018-2.747-2.08-5.646-3.602-7.689c-0.293,3.164-0.204,6.422-0.151,9.641
	c-0.757-2.314-2.309-4.438-3.267-6.666c-2.982,2.833-1.775,8.49-1.733,12.637c-0.767-1.869-2.482-3.596-3.267-5.589
	c-2.922,2.003-1.635,7.115-1.98,10.84c-1.733-2.016-3.358-5.341-5.63-6.836c-0.625,4.168-1.824,8.365-2.116,12.582
	c-0.376-1.998-1.682-4.411-2.333-6.36c-1.299,2.545-1.77,5.489-1.726,8.415c0.027-2.827-0.942-4.678-1.771-6.716
	c-0.45,4.489-0.254,9.144-0.203,13.693c-0.43-3.165-1.82-6.121-4.042-8.169c-1.955,4.118-0.77,9.625-1.207,14.166
	c-0.868-2.78-1.764-6.031-3.822-8.363c0.056,2.945,0.061,5.892,0.045,8.838c-0.168-0.459-2.896-4.122-4.849-5.089
	c-0.206,3.266-0.132,6.61-0.147,9.92"/>
<path fill="none" stroke="#231F20" stroke-miterlimit="10" d="M428,182c-0.333,0-0.667,0-1,0"/>
<path fill="none" stroke="#231F20" stroke-miterlimit="10" d="M428,182c5.532-6.387,13.452,6.15,16.594,9.917
	c-2.211-4.182-3.861-9.483-6.443-12.86c1.164,3.146,3.109,7.362,4.671,9.912c-0.858-3.526-1.935-7.146-2.894-10.718
	c1.176,3.796,4.379,8.441,7.146,11.193c0.351-4.825-0.493-9.154-2.923-13.141c1.734,3.032,3.172,7.343,5.649,9.643
	c0.248-2.853,0.299-5.803,0.151-8.695c0.697,1.945,2.041,3.633,2.849,5.444c0.363-3.454-0.213-7.205,0.925-10.389
	c1.281,2.732,2.289,5.837,4.078,8.392c0.237-2.279,1.221-4.314,1.418-6.618c0.594,1.525,2.689,3.895,3.603,5.618
	c0.071-2.351,0.499-5.052,0.126-7.47c1.152,3.406,2.08,6.511,4.097,9.418c-0.225-2.865,0.099-5.669,0.952-8.34
	c0.492,3.214,1.666,5.785,3,5.694"/>
<path fill="none" stroke="#231F20" stroke-miterlimit="10" d="M526,429c-2.581,1.61-3.706,4.675-3.824,7.746
	c1.901-3.839,3.298-8.362,2.649-12.659c-3.274,2.229-3.884,8.511-4.92,12.634c2.415-3.509,3.738-7.453,5.143-11.441
	c-0.014,1.453,0.056,2.965-0.048,4.415c-0.263-2.82,0.118-4.833,1.052-7.408c-0.075,5.215-1.007,10.851,1.997,15.435
	c-0.054-1.56,0.094-3.171-0.048-4.721"/>
<path fill="none" stroke="#231F20" stroke-miterlimit="10" d="M559,416c1.339,1.939,2.751,3.794,4.869,4.845
	c-1.684-1.14-4.015-3.13-5.789-3.623c2.679-0.081,3.303,0.056,5.566,0.829c-2.944,0.688-5.494,0.054-7.24-2.175
	c1.417,1.004,2.839,2.13,4.247,3.191c-3.056,0.194-1.105-1.32-1.653-2.068"/>
<path fill="none" stroke="#231F20" stroke-miterlimit="10" d="M549,319c-5.51-3.519-8.835,6.626,2.845,4.849
	c0.67-4.237-2.711-6.358-6.694-5.694c-1.622,5.118,1.477,8.441,6.697,6.694c2.969-13.786-12.765-8.179-7.923-2.407
	c3.047,3.633,8.78-0.531,8.22-4.507c-0.92-6.525-6.546,0.094-6.185,4.096c1.421,15.777,15.69-4.064,3.815-6.359
	c-14.086-2.722,7.149,18.324,4.159,2.271c-2.057-11.039-18.749,0.874-7.014,7.837c10.336,6.132,12.081-11.396,2.083-11.726
	c-9.429-0.311-7.104,17.37,3.05,12.955c11.341-4.931-6.113-20.059-10.393-9.032c-4.974,12.817,19.797,8.418,12.986-3.12
	c-6.855-11.613-17.258,15.698-1.798,10.992c2.804-14.534-15.157-11.129-10.113-1.871c8.334,15.297,11.731-13.922,2.527-3.943
	c-7.758,8.411,14.199,14.599,8.141,0.028c-6.11-14.695-17.435,7.88-3.554,3.787c0.629-3.529-0.364-4.431-3.697-4.721
	c-0.281,1.469-0.357,3.248-0.004,4.717c0.04-0.012,2.573-0.008,2.705,0c-0.375-1.439-0.207-2.798-0.65-3.746
	c2.142,2.145,0.642,1.865,2.673-0.922c0.284-0.097-2.994-0.122-2.728-0.023c-0.029,1.217,0.055,2.545,0.052,3.742
	c1.117-1.1,2.682-2.562,3.456-3.991c-1.166,0.921-3.445,1.387-4.477,1.97c0.443-1.19,0.224-3.478,0.694-4.698
	c-8.006-0.851-3.86,7.361,2.954,6.648c6.583-11.546-8.109-10.452-6.826-1.826"/>
<path fill="none" stroke="#231F20" stroke-miterlimit="10" d="M505,347c2.348-0.787,3.566-1.747,2.845-4.845
	c-4.044-0.413-5.796,2.833-4.698,6.698c2.867,0.895,5.541,1.387,8.701,0.996c2.296-8.92-10.086-11.837-8.879-3.698
	c1.136,7.656,15.171,3.062,8.602-4.757c-6.174-7.348-14.636,4.409-8.082,6.677c7.645,2.645,6.907-11.795-3.339-8.919
	c-1.399,5.205,2.606,12.733,8.827,9.412c4.959-2.647,3.561-14.432-3.244-11.512c-3.72,1.596-2.855,12.568,2.77,12.118
	c7.876-0.63,1.332-10.246-5.353-9.018c-1.643,7.853,6.624,13.067,7.875,3.753c1.557-11.587-12.734-5.21-7.631,1.146
	c4.144,5.162,12.252-4.01,7.021-8.053c-6.542-5.056-10.358,10.189-1.568,9.874c1.065-4.643-4.118-11.114-7.665-5.505
	c-4.035,6.38,8.084,7.551,4.869-0.936c-2.785-7.35-9.276,4.646-0.506,3.59c4.707-0.567,1.877-9.679-2.666-4.021
	c1.721,2.01,4.202,2.575,6.965,1.849c1.316-8.9-13.01-5.896-7.979,0.843c5.585,7.48,9.854-10.548,1.991-5.691
	c0.435,0.152,2.351,0.612,2.991,0.849c-0.065-0.3-0.478-2.798-0.475-2.92c13.213-0.142,13.065,21.812,3.723,20.865
	c2.59-4.607,7.409-17.009-2.794-15.793c7.646-1.046,10.749,7.057,6.653,12.698c0.742-3.079,1.203-6.135,1.045-9.396
	c-0.12,2.864-0.063,5.821,0.223,8.618c3.231-7.827-2.304-14.628-11.143-12.746c5.514,6.599,16.289,14.219,1,20.433
	c14.477-1.891-0.769-10.44-4.778-13.408c1.749-0.234,3.885-0.404,5.698-0.199"/>
<path fill="none" stroke="#231F20" stroke-miterlimit="10" d="M544,329c-0.106,1.385,2.445,5.975,5.674,6.824
	c-4.27-1.849-6.51-5.598-8.771-9.421c3.051,2.864,6.462,5.406,9.096,8.598"/>
<path fill="none" stroke="#231F20" stroke-miterlimit="10" d="M575,520c3.304,87.55,108.92,138.456,186.171,136.498
	c22.368-0.567,45.538-5.688,63.957-18.961c10.042-7.236,24.363-20.938,22.46-34.907c-1.746-12.813-16.551-15.397-27.064-17.366
	c-19.159-3.587-38.232-5.894-56.296-13.752C728.102,555.795,706.05,524.325,686,492"/>
<path fill="none" stroke="#231F20" stroke-miterlimit="10" d="M675.134,567.506c2.063,1.712,4.047,3.523,5.866,5.494"/>
</svg>
