<svg height="1000" width="1000"  xmlns="http://www.w3.org/2000/svg">
<path d="M232.6,216.9c-5.3,2.7-11.9,2.9-18.3,2.7c0.1-0.6,0-1.2-0.2-1.9c-6.3-22.7-10.9-45.9-13.6-69.3c11.3-2.2,22.6-5,33.6-8.4
	c6.1-1.9,3.5-11.5-2.7-9.6c-29.3,8.9-59.5,13.7-90.2,14.3c-6.4,0.1-6.4,10.1,0,10c16.6-0.3,33.1-1.8,49.4-4.5
	c2.8,23.4,7.2,46.4,13.4,69.1c-9.8,0-19.7,0-29.5,0c-6.4,0-6.4,10,0,10c11.4,0,22.7,0,34.1,0c9.8,0,19.9,0.9,28.9-3.8
	C243.3,222.5,238.3,213.9,232.6,216.9z"/>
<path d="M273.7,117.8c-1.4-6.3-11-3.6-9.6,2.7c2.6,12,0.3,24.2-6.1,34.7c-3.4,5.5,5.3,10.5,8.6,5
	C274.5,147.4,276.9,132.5,273.7,117.8z"/>
<path d="M384.2,178.7c-3.9-8.7-11.6-8.4-19.9-8.4c-3.7,0-7.8-0.4-10.8,2.2c-0.8,0.7-1.3,1.4-1.8,2.2c-3.8-3.7-8.9-6.1-14.5-5.6
	c-6.7,0.6-10.9,4.4-13.6,9.7c-3.8-1.7-8.8-1.8-13-1.7c-8,0.2-15.3,3.6-19,11c-3.5,6.9-3.4,15-2.9,22.5c0.5,6.4,10.5,6.4,10,0
	c-0.7-9.7-0.9-23,11.9-23.4c2-0.1,6.3-0.5,8.1,0.6c1.7,1,1,4.7,1,7c-0.7,7.8-0.3,15.6,0,20.9c0.3,6.4,10,6.5,10,0l0-15.9
	c0-0.3,0-0.6,0-0.9c0.1-2.2,0.3-4.3,0.6-6.5c0.6-4.5,1.7-11.8,6.9-13.2c6.9-1.9,11,6.4,12,11.8c0.3,1.5,0.5,3,0.6,4.6
	c-0.1,3.9,0,7.8,0,11.7c0,2,0,3.9,0.1,5.9c0.5,6.3,10.2,6.5,10,0c-0.1-3.2-0.2-6.3-0.2-9.5c0-1.6,0-3.3,0-4.9c0-1.6,0-3.2,0.1-4.8
	c0.1-3.2,0.2-6.4,0.3-9.6c0.2-4.4-0.3-4,4.1-4c2.5,0,6.4-0.8,8.7,0.1c2.1,0.9,2.6,3.7,3.1,5.7c1.7,6.4,2.1,12.8,1.7,19.4
	c-0.4,6.4,9.6,6.4,10,0C388.4,196.8,387.9,186.8,384.2,178.7z"/>
<path d="M578.8,245.2c-6.8,0.6-13.5-0.1-19.7-3.2c-2.6-1.3-5.4-2.9-7.1-5.3c-2.1-3-1.8-6.6-1.7-10.1c0.1-2.5,0.2-4.9,0.2-7.4
	c0.6-2.6,1-5.2,1.3-7.6c1.3-9.7,0.9-19.3,0.1-29c-0.3-3.7-3.5-5.2-6.2-4.7c-0.5-1.1-1.6-1.9-3.1-2.2c-9.4-2-19.2-3.5-28.8-3.7
	c-7-0.2-14.2,1.4-18,7.9c-3.6,6.1-3.9,15.3-3.5,22.1c0.5,8.1,3.8,14.3,10,19.6c8.8,7.5,26.4,22.4,38.7,14.6c0.1,0.2,0.1,0.5,0.2,0.7
	c4.1,14.8,24.4,19.6,37.7,18.3C585.1,254.6,585.2,244.6,578.8,245.2z M534.8,228.1c-2.6,0.9-5.9-0.5-8.2-1.6
	c-5.7-2.8-11.2-6.9-16.1-10.9c-4.6-3.7-7.8-7.4-8.2-13.4c-0.4-4.9-0.4-11.9,1.8-16.4c2.5-5.1,10.2-3.7,14.9-3.3
	c7.1,0.6,14,1.6,21,3.1c0.7,0.1,1.3,0.1,1.9,0.1c-0.3,8.4-0.6,16.8-0.9,25.2c-0.1,2.4-0.3,5-0.5,7.6c-0.2,0.9-0.5,1.7-0.8,2.6
	C538.8,223.5,537.7,227.1,534.8,228.1z"/>
<path d="M641,206.3c-0.4-6-0.5-12.6-2.9-18.2c-5.1-12-21-12.1-32-11.5c-6.3,0.4-13,0.9-19.1,2.3c-5.2,1.2-9.9,4.2-11.1,9.7
	c-1.3,6.2,0.3,13.9,0.8,20.2c0.6,7.9,1.4,15.8,2.4,23.6c0.8,6.2,10,6.6,10,0c0-10,0-20-0.1-30c0-2.4-1.4-3.9-3.1-4.5
	c-0.2-2.1-0.7-4.6-0.3-6.4c0.5-2.4,2.4-2.6,4.7-3.1c5.2-1,10.6-1.5,15.8-1.8c5.2-0.3,10.5-0.3,15.6,0.8c5,1.1,7.3,3.1,8.2,8.1
	c2.1,10.6,1.7,22.2,1,33c-0.4,6.4,9.6,6.4,10,0C641.4,221,641.5,213.7,641,206.3z"/>
<path d="M279.4,672c-7.4-47-14-94.3-23-141c-4.2-21.8-8.6-43.8-15.6-64.8c-6.2-18.6-14.8-38.7-28.9-52.6
	c-28.7-28.3-74.3-3.1-94.8,22.6c-25.2,31.6-30.6,72.5-25.4,111.6c6.7,51.3,29.6,98.4,40,148.8c1.3,6.3,10.9,3.6,9.6-2.7
	c-8.1-39.1-23.7-76-33.4-114.7c48.6-5.7,91.3-34.8,140.1-39.3c8.4,44.7,14.7,89.8,21.8,134.7C270.8,681,280.4,678.3,279.4,672z
	 M105.6,569.6c-8.4-37.9-9.9-79.6,10.3-114.2c8.2-14.1,19.7-26.5,33.9-34.7c14.8-8.5,36.3-14.6,51.3-3.4
	c7.3,5.5,12.5,13.7,16.9,21.5c5,8.7,9,18,12.3,27.5c6.8,19.7,11.1,40.2,15.2,60.6c0.2,1.1,0.4,2.2,0.6,3.3
	C197.2,535.3,154.5,564.6,105.6,569.6z"/>
<path d="M370.1,454.4c-16.6,9.8-32.7,20.3-48.4,31.6c-6.6,4.7-13.6,9.4-18.5,16c-2.3,3-3.8,6.4-4.8,9.9c-1.7-5.2-10.5-4.9-9.8,1.1
	c2.6,22.3,5.4,44.6,8.4,66.9c0,1.9,0.1,3.8,0.1,5.7c0.4,18.3,1.1,36.5,3.2,54.7c2.4,20.9,6.7,41.5,14.4,61.1c2.4,6,10.7,3.7,9.6-2.7
	c-6.3-39.5-12.1-79.1-17.3-118.8c-0.2-13.3-0.3-26.5-0.4-39.8c0-8.3-1.1-17.6,1.3-25.7c2.4-8,9.4-12.8,15.7-17.5
	c16.6-12.1,33.7-23.4,51.4-33.9C380.7,459.8,375.7,451.2,370.1,454.4z"/>
<path d="M486,642.6c-14.2,7.5-31.6,5.4-45.1-2.8c-13.4-8.2-22.8-22.2-28.3-36.7c-6.6-17.4-8.3-36.1-9.2-54.6
	c-0.7-14.4-1.1-28.8-1.3-43.1h40.2c6.4,0,6.4-10,0-10h-40.3c0-2,0-4,0-6c0-22.4,0.5-44.8,0.9-67.2c0.1-6.4-9.9-6.4-10,0
	c-0.5,24.4-1.1,48.8-1,73.1h-0.7c-6.4,0-6.4,10,0,10h0.8c0.2,15.6,0.6,31.3,1.5,46.9c2.1,35.5,9.7,76.9,43,96.6
	c16.5,9.8,37.4,11.5,54.5,2.4C496.8,648.2,491.7,639.5,486,642.6z"/>
<path d="M567.7,651.3c0.1,9.3-13.2,7.8-19.1,7.2c-4.5-0.5-9.1-1.2-13.5-2c-3.8-0.7-8.4-1.2-11.9-2.8c-4-1.9-4.3-7-5.2-11
	c-1-4.3-1.9-8.7-2.7-13c-1.6-8.9-2.8-17.8-3.7-26.8c-3.5-35.4-2.3-71.1-1-106.6c0.2-6.4-9.8-6.4-10,0c-1.2,33.6-2.4,67.4,0.5,101
	c1.4,16.5,3.7,33,7.5,49.1c1.6,6.7,3.1,13.3,10,16.3c7.1,3.1,15.6,4,23.1,5.1c7.7,1.1,16.3,2.6,23.8,0c7.1-2.5,12.4-8.6,12.3-16.3
	C577.6,644.9,567.6,644.8,567.7,651.3z"/>
<path d="M506.7,417.8c-1.3-3.3-5.6-5.2-8.4-2.2c-2.5,2.6-3.9,6.1-3.6,9.7c0.2,2.3,1.7,4.4,3.9,4.9c0.6,1,1.5,1.7,2.7,2
	c2.4,0.6,5.7-0.7,6.2-3.5C508.1,425,508,421.3,506.7,417.8z"/>
<path d="M680.9,600.6c-3.8-18.3-15.5-33.4-29.8-44.9c-7.7-6.1-15.9-11.4-24.4-16.2c-8.7-4.9-18.7-8.7-26.2-15.3
	c-9-7.8-11.6-20.3-0.7-27.7c10.8-7.3,24.6-3.9,36.3-1.1c6.3,1.5,8.9-8.2,2.7-9.6c-18.4-4.3-44.1-7.5-54.2,13.3
	c-4.3,8.8-2.1,18.9,3.6,26.5c6.3,8.5,15.9,13.2,25,18c17.8,9.4,36.3,20.2,48.2,36.9c10.3,14.5,15.3,35.4,7,52
	c-5.4,10.9-16,16.7-26.2,22.4c-12.4,7-24.9,13.8-37.6,20.3c-5.7,2.9-0.7,11.6,5,8.6c10.7-5.5,21.2-11.1,31.7-17
	c9.4-5.3,19.6-10.3,27.3-17.9C681.3,636.5,684.4,617.7,680.9,600.6z"/>
<path d="M834.8,630.7c-17.6,11.9-38.6,17.5-59.8,15.6c-9.8-0.9-20.6-3.3-26.8-11.5c-6.3-8.2-9.7-19.2-13.3-28.7
	c-14.5-38.3-22.2-78.7-26.1-119.4c28.3-1.1,56.4-5,83.9-11.7c6.2-1.5,3.6-11.2-2.7-9.6c-26.9,6.6-54.4,10.4-82.1,11.4
	c-0.1-1-0.2-1.9-0.2-2.9c-1.9-25.5-2.4-51-2.2-76.5c0-6.4-10-6.4-10,0c-0.3,49,1.9,98.2,11.4,146.3c4.7,23.6,11.2,47,20,69.4
	c3.9,9.9,7.6,20.9,14.4,29.2c6.7,8.1,16.6,11.7,26.7,13.3c25,3.9,50.9-1.9,71.9-16.1C845.1,635.7,840.1,627.1,834.8,630.7z"/>
</svg>
