<svg height="500" width="500" xmlns="http://www.w3.org/2000/svg"><path d="M205 255 C 207 255 208 255 209 255  C 211 255 214 254 217 254  C 220 254 223 254 227 253  C 228 253 229 253 230 253 M230 253 C 234 253 238 253 241 253  C 245 252 250 252 254 252 M254 252 C 258 251 263 251 267 251  C 270 251 272 251 275 250  C 278 250 282 250 285 250  C 287 249 288 249 289 249 M289 249 C 291 249 292 249 294 249  C 294 247 294 246 294 244  C 290 244 285 245 281 245  C 279 245 276 245 274 245  C 271 246 268 246 266 246 M266 246 C 265 246 264 246 263 246  C 260 246 257 246 255 247  C 251 247 248 247 244 247 M244 247 C 243 248 242 248 241 248  C 239 248 236 248 233 248  C 230 248 226 249 223 249  C 222 249 221 249 220 249 M220 249 C 217 249 215 249 212 249  C 210 250 208 250 205 250 M205 250 C 205 252 205 253 205 255 Z"/>
<path d="M284 230 C 285 233 286 237 287 240  C 288 243 289 246 290 250  C 290 251 290 253 291 254  C 291 255 291 255 291 256  C 292 257 292 258 292 259  C 293 262 294 264 295 267  C 295 267 295 268 295 268  C 295 269 295 269 295 269 Z"/>
<path d="M367 236 C 365 236 363 235 361 235  C 360 234 358 234 357 234 M357 234 C 352 234 348 234 343 234  C 341 234 338 234 336 233  C 334 233 332 233 330 233  C 328 232 327 233 326 234  C 324 236 322 237 321 237  C 318 238 316 238 313 239  C 312 240 310 241 309 241  C 307 242 306 243 304 244  C 302 245 302 246 301 247  C 300 249 299 252 297 254  C 296 257 295 260 294 262  C 293 264 292 265 291 267 Z"/>
<path d="M401 243 C 399 242 397 242 395 242  C 392 241 390 240 387 240  C 387 240 386 240 385 241  C 382 242 379 242 376 243  C 374 243 372 244 371 246 M371 246 C 366 249 362 252 357 255  C 353 255 350 257 347 259 M347 259 C 344 260 341 259 339 257 M339 257 C 337 255 338 253 339 252  C 341 251 342 250 343 249 M343 249 C 344 249 345 249 346 250  C 347 250 348 251 347 252  C 345 254 344 255 343 257  C 341 257 340 255 338 255 Z"/>
<path d="M384 229 C 387 231 390 233 392 236  C 397 239 401 243 406 246 M406 246 C 409 249 412 251 415 254 M415 254 C 419 258 424 261 429 265  C 430 266 432 268 434 269  C 434 270 435 270 435 270 Z"/>
<path d="M470 236 C 469 236 468 236 467 236  C 465 236 464 237 462 237  C 459 237 456 238 453 239  C 452 239 450 240 449 240 M449 240 C 446 241 444 243 443 245  C 440 247 438 250 436 252 M436 252 C 433 255 431 259 429 262  C 429 263 429 263 428 263 Z"/>
<path d="M504 245 C 503 245 501 246 500 246  C 495 248 491 250 486 251  C 484 251 483 251 481 252  C 478 252 476 252 475 254 Z"/>
<path d="M588 232 C 588 232 587 232 586 232  C 583 231 579 230 576 230 M576 230 C 571 229 567 227 562 228  C 561 228 560 227 559 227  C 556 227 553 227 551 229  C 549 231 547 233 544 235  C 543 237 541 238 539 239  C 535 241 531 243 527 245  C 524 246 522 248 519 249  C 516 250 514 253 512 255  C 509 260 504 263 500 267  C 499 268 497 269 495 271  C 495 271 494 272 493 272  C 490 272 486 272 482 272 M482 272 C 480 272 478 271 476 269  C 480 268 484 268 488 268  C 488 268 488 268 488 268 M488 268 C 486 266 484 264 481 265  C 478 265 475 265 471 265  C 471 265 471 265 471 265 Z"/>
<path d="M605 226 C 602 228 600 230 597 231  C 594 232 591 233 588 233 M588 233 C 584 234 580 234 577 237  C 575 240 571 242 567 244 M567 244 C 562 246 558 249 554 254  C 551 257 547 261 543 263 M543 263 C 539 265 537 269 534 273  C 534 273 534 273 534 273 Z"/>
<path d="M624 239 C 623 239 621 240 620 241  C 616 245 611 248 607 253  C 605 254 603 256 602 258 M602 258 C 601 259 600 259 599 260  C 598 260 597 260 596 259  C 595 259 595 259 595 259 Z"/>
<path d="M663 232 C 661 232 659 232 656 232 M656 232 C 656 233 655 233 655 233  C 652 236 651 238 649 241  C 648 243 647 246 645 248  C 644 249 643 250 643 252  C 642 255 640 258 639 262  C 639 264 637 265 636 267 Z"/>
<path d="M702 235 C 700 236 698 237 697 239  C 697 239 696 240 696 241  C 696 243 694 243 693 244  C 691 245 690 245 688 246  C 685 248 682 250 679 253  C 677 255 677 260 679 263  C 680 263 680 264 681 264 Z"/>
<path d="M746 231 C 743 233 740 235 738 237  C 735 239 732 242 730 244  C 727 247 725 251 723 254  C 720 258 718 260 715 263  C 715 265 714 266 713 267 M713 267 C 713 267 713 268 713 268 Z"/>
<path d="M778 249 C 777 248 777 247 777 246 M777 246 C 775 241 773 240 768 242  C 767 242 765 243 764 243 M764 243 C 762 244 761 246 761 248  C 762 252 764 255 767 258 Z"/>
<path d="M803 252 C 808 252 812 252 817 252  C 817 251 816 251 816 250  C 816 250 816 250 816 250  C 812 246 807 246 802 247 Z"/>
<path d="M877 231 C 875 232 873 233 871 234  C 866 236 861 237 857 239  C 853 241 849 243 846 246  C 842 251 837 254 833 258  C 829 261 826 265 822 268 Z"/>
<path d="M919 236 C 916 235 914 236 911 237  C 907 238 902 239 898 240  C 896 241 894 241 892 243  C 891 245 889 246 888 247  C 883 250 879 252 875 255  C 874 256 872 256 871 257  C 870 258 869 259 868 260  C 865 262 863 264 860 264 Z"/>
<path d="M916 243 C 916 243 916 243 917 243  C 920 243 924 243 928 242 M928 242 C 931 242 934 244 936 246  C 936 247 937 247 938 247  C 940 247 941 249 943 251 M943 251 C 944 251 943 251 943 251  C 939 252 934 252 930 252  C 930 252 930 252 930 253  C 932 254 934 256 937 257 Z"/>
<path d="M960 243 C 963 244 965 245 967 247  C 967 247 967 247 968 248  C 970 248 972 250 973 251  C 973 251 973 251 973 251  C 969 252 965 252 961 252  C 961 252 961 252 961 253  C 962 254 963 255 965 256  C 965 256 965 256 965 256  C 970 256 974 255 979 255 Z"/>
<path d="M1015 240 C 1013 244 1010 247 1007 250  C 1006 252 1004 253 1004 255 M1004 255 C 1004 258 1006 260 1008 259  C 1011 257 1012 256 1014 254  C 1015 252 1015 250 1015 248  C 1014 247 1012 247 1011 247 Z"/>
<path d="M253 284 C 250 284 248 282 246 280  C 246 280 246 280 246 280  C 251 279 255 279 260 279  C 260 279 260 279 260 278  C 257 276 255 274 251 275 M251 275 C 248 275 244 275 240 275  C 240 275 239 275 239 276 Z"/>
<path d="M303 282 C 302 281 301 280 299 279  C 297 277 295 277 292 277  C 288 278 283 277 279 278  C 278 278 277 278 276 278 Z"/>
<path d="M350 278 C 349 278 349 278 348 277  C 346 275 343 274 340 274  C 335 275 330 275 326 275  C 322 279 319 284 313 285  C 312 285 310 285 309 285 Z"/>
<path d="M384 282 C 383 282 383 282 382 281  C 378 278 374 276 368 277  C 364 278 359 278 355 278 Z"/>
<path d="M398 277 C 399 278 400 279 401 280 M401 280 C 403 282 405 282 407 282  C 412 281 416 281 421 281 Z"/>
<path d="M434 276 C 435 277 436 278 437 279  C 441 283 446 283 451 283  C 455 282 460 282 464 282  C 465 282 465 282 465 282 Z"/>
<path d="M480 278 C 482 279 483 280 484 281 M484 281 C 485 281 485 281 485 281  C 490 281 494 281 499 281 Z"/>
<path d="M510 273 C 511 274 511 275 511 275 M511 275 C 514 277 516 279 519 279 M519 279 C 521 280 522 282 524 283 M524 283 C 526 285 529 286 533 285  C 537 285 542 285 546 285 M546 285 C 547 285 548 284 549 284 Z"/>
<path d="M578 276 C 573 277 569 277 564 277  C 563 277 562 277 561 277  C 563 280 566 282 570 283 Z"/>
<path d="M613 277 C 609 277 605 277 600 277  C 599 277 598 277 597 277  C 598 278 598 279 598 279  C 601 282 605 283 609 282  C 613 282 618 282 622 282 Z"/>
<path d="M658 276 C 653 277 649 277 644 277  C 643 277 642 277 641 277  C 643 280 646 282 650 283 Z"/>
<path d="M695 263 C 693 266 692 269 690 272  C 689 274 688 277 687 280  C 686 283 685 286 685 290  C 686 291 685 293 685 294  C 684 294 684 295 684 296 Z"/>
<path d="M716 277 C 720 281 724 282 730 281  C 732 281 734 281 736 281  C 737 281 739 280 740 280 M740 280 C 740 280 740 280 740 279 M740 279 C 741 280 742 281 743 283 Z"/>
<path d="M752 275 C 754 276 756 277 757 277  C 758 278 759 279 760 279  C 764 283 768 284 774 283  C 777 282 780 283 783 283  C 785 283 786 282 787 282 Z"/>
<path d="M812 285 C 815 284 817 282 819 280  C 820 278 820 275 819 274 M819 274 C 815 276 812 280 810 284  C 807 284 805 284 802 285  C 801 285 800 285 799 285 Z"/>
<path d="M847 288 C 852 287 855 283 855 278  C 855 277 855 275 855 273  C 854 272 854 271 853 271  C 852 270 850 271 850 272 M850 272 C 848 274 847 277 845 279  C 845 281 844 282 844 283 Z"/>
<path d="M885 267 C 885 267 885 268 885 268 M885 268 C 889 271 891 275 891 279  C 891 280 892 281 892 281  C 894 284 895 287 894 291  C 894 291 894 292 894 292 Z"/>
<path d="M923 283 C 922 282 922 281 923 280  C 925 278 927 276 929 275  C 930 274 932 273 933 272  C 936 271 937 273 937 275  C 936 280 933 283 930 286  C 929 286 928 287 927 287 Z"/>
<path d="M969 274 C 966 274 964 275 962 278  C 960 279 961 281 963 283  C 967 285 972 286 976 284  C 977 284 978 284 978 284 Z"/>
<path d="M1017 279 C 1012 279 1008 280 1003 280  C 1003 280 1002 280 1002 280 Z"/>
<path d="M280 320 C 280 319 279 319 279 318 M279 318 C 276 316 273 314 270 313  C 268 313 267 310 266 310  C 262 308 259 306 257 305  C 253 305 250 305 247 305  C 243 306 238 306 233 306  C 231 306 229 305 227 304  C 224 302 222 301 219 299 Z"/>
<path d="M298 309 C 293 309 288 309 284 310 M284 310 C 283 310 282 310 281 310 Z"/>
<path d="M361 322 C 360 321 358 320 357 319  C 355 318 353 317 351 316  C 349 315 347 313 346 312 M346 312 C 342 309 339 309 335 309 M335 309 C 330 309 326 309 322 309  C 321 309 320 310 319 310  C 315 309 311 307 308 303 M308 303 C 308 303 307 302 307 302 M307 302 C 303 302 300 299 298 297 Z"/>
<path d="M394 316 C 392 315 390 314 388 313 M388 313 C 386 311 383 310 381 309  C 377 309 374 309 371 309  C 367 310 362 310 357 310  C 356 310 355 310 354 309  C 351 308 347 306 345 302 Z"/>
<path d="M418 309 C 413 309 408 309 404 310  C 403 310 402 310 401 310 Z"/>
<path d="M469 312 C 465 312 462 313 459 313  C 454 313 449 313 444 314 M444 314 C 443 314 442 313 440 313  C 437 311 433 309 430 305 Z"/>
<path d="M501 302 C 498 305 495 309 492 312  C 487 312 482 312 478 312  C 478 312 478 313 478 313  C 480 315 482 316 484 317  C 485 317 486 317 487 317 Z"/>
<path d="M536 309 C 532 309 527 310 523 310 Z"/>
<path d="M576 309 C 572 309 567 310 563 310 Z"/>
<path d="M617 314 C 613 309 608 306 602 305 Z"/>
<path d="M641 303 C 645 308 651 309 655 313 M655 313 C 656 314 657 315 658 316 Z"/>
<path d="M676 301 C 681 303 686 305 690 310  C 691 311 693 311 694 312  C 698 314 701 316 704 318 Z"/>
<path d="M721 305 C 727 305 731 309 735 312  C 736 313 737 313 738 314 Z"/>
<path d="M779 315 C 778 314 776 312 774 311  C 769 309 765 305 759 304 Z"/>
<path d="M800 304 C 802 306 804 307 806 309 M806 309 C 810 312 814 314 819 315 Z"/>
<path d="M840 305 C 842 306 844 307 846 308  C 850 311 854 314 859 315 Z"/>
<path d="M897 313 C 892 310 888 306 882 305 Z"/>
<path d="M934 304 C 931 307 926 309 925 315 Z"/>
<path d="M960 304 C 961 305 963 307 965 308  C 970 310 974 314 980 315 Z"/>
<path d="M1015 300 C 1013 303 1011 306 1009 309  C 1006 312 1003 315 1004 320 Z"/>
<path d="M252 334 C 250 338 249 341 247 345 Z"/>
<path d="M283 335 C 286 340 291 342 297 344 Z"/>
<path d="M337 337 C 332 339 326 341 321 342 Z"/>
<path d="M370 335 C 370 338 369 341 369 345 Z"/>
<path d="M402 337 C 407 339 412 340 417 342 Z"/>
<path d="M449 334 C 449 338 446 343 452 346 Z"/>
</svg>