<svg height="500" width="500" xmlns="http://www.w3.org/2000/svg"><path d="M280 245 C 272 245 265 252 265 260 M306 240 C 306 247 311 253 317 255 M334 253 C 349 255 354 246 354 238 M390 255 C 390 253 389 247 389 240 M446 252 C 429 255 426 245 426 245 M477 262 C 472 250 466 246 466 246 M517 263 C 495 247 519 248 519 248 M534 242 C 548 243 555 256 555 256 M579 242 C 585 253 595 250 599 248 M627 259 C 628 251 631 246 634 244 M679 253 C 672 252 665 250 665 238 M708 258 C 708 252 710 247 714 243 M751 255 C 750 253 748 247 751 240 M785 249 C 785 249 791 247 805 257 M820 252 C 826 250 833 249 840 249 M859 249 C 866 249 873 250 879 252 M894 257 C 908 247 914 249 914 249 M948 240 C 951 247 949 253 948 255 M985 243 C 989 247 991 252 991 258 M274 268 C 274 280 267 282 260 283 M306 274 C 309 276 311 281 311 289 M350 270 C 350 277 349 283 349 285 M385 268 C 385 276 390 285 405 283 M422 285 C 428 283 433 277 433 270 M474 290 C 474 282 467 275 459 275 M-2147483648 -2147483648 C -2147483648 -2147483648 -2147483648 -2147483648 -2147483648 -2147483648 M539 281 C 546 280 553 279 560 279 M579 280 C 586 280 593 279 600 279 M620 280 C 626 280 633 279 640 279 M659 280 C 666 280 673 279 680 279 M699 280 C 706 280 713 279 720 279 M740 280 C 746 280 753 279 760 279 M779 280 C 786 280 793 279 800 279 M819 280 C 826 280 833 279 840 279 M860 280 C 866 280 873 279 880 279 M899 280 C 906 280 913 279 920 279 M940 280 C 946 280 953 279 960 279 M990 287 C 990 282 990 277 990 272 M280 309 C 273 309 266 310 259 310 M320 309 C 313 309 306 310 300 310 M360 309 C 353 309 346 310 340 310 M400 309 C 393 309 386 310 379 310 M440 309 C 433 309 426 310 419 310 M480 309 C 473 309 466 310 460 310 M520 309 C 513 309 506 310 499 310 M560 309 C 553 309 546 310 539 310 M600 309 C 593 309 586 310 580 310 M640 309 C 633 309 626 310 619 310 M680 309 C 673 309 666 310 659 310 M719 309 C 713 309 706 310 699 310 M749 302 C 749 307 750 312 750 317 M787 302 C 789 307 790 312 792 317 M827 302 C 829 307 830 312 832 317 M867 302 C 869 307 870 312 872 317 M907 302 C 909 307 910 312 912 317 M947 302 C 949 307 950 312 952 317 M987 302 C 989 307 990 312 992 317 M267 332 C 269 337 270 342 272 347 M309 331 C 310 336 309 342 309 348 M359 342 C 353 340 346 339 339 337 M400 341 C 393 339 386 339 379 339 M440 340 C 433 340 426 339 420 339 M480 340 C 473 340 466 340 460 338 M519 341 C 513 339 506 340 499 339 M561 337 C 552 336 546 341 540 346 M599 333 C 593 338 586 342 579 344 M640 337 C 633 339 626 340 619 343 M680 334 C 673 337 666 342 659 345 M719 334 C 713 338 706 341 699 345 M758 333 C 751 336 747 342 744 348 M793 332 C 791 337 788 342 785 347 M833 332 C 830 337 829 342 826 347 M873 332 C 871 337 868 342 865 347 M920 340 C 913 340 906 340 900 338 M960 342 C 953 341 946 338 939 337 M1000 338 C 993 337 986 341 979 343 M280 366 C 273 369 266 371 259 372 M320 366 C 312 367 306 372 300 376 M359 363 C 353 367 346 372 339 376 M400 366 C 393 367 386 372 380 374 M440 369 C 434 371 425 369 420 365 M473 378 C 468 373 469 366 474 362 M499 377 C 506 373 513 367 520 361 M539 367 C 546 369 553 370 560 373 M582 363 C 590 366 592 372 587 379 M636 362 C 632 367 627 372 623 377 M681 372 C 672 373 667 367 661 363 M699 361 C 706 367 713 372 720 378 M740 361 C 746 367 753 372 760 378 M779 361 C 786 367 793 372 800 378 M820 361 C 826 367 833 372 840 378 M859 361 C 866 367 873 372 880 378 M899 361 C 906 366 913 372 919 378 M960 370 C 953 370 946 369 939 370 M1000 368 C 993 369 986 370 980 371 M280 398 C 273 398 266 400 260 402 M320 396 C 313 399 306 400 299 403 M361 394 C 353 397 346 401 340 408 M396 392 C 392 397 387 402 383 407 M435 392 C 431 397 428 402 425 407 M475 392 C 472 397 467 402 463 407 M520 398 C 513 398 506 401 500 404 M559 396 C 553 399 546 401 539 402 M599 398 C 593 400 586 400 579 401 M640 397 C 633 398 626 400 620 405 M679 404 C 673 402 666 397 659 396 M720 401 C 713 400 706 399 699 398 M759 402 C 753 401 746 398 739 399 M800 401 C 793 401 786 398 779 397 M841 399 C 833 398 826 400 820 405 M880 390 C 872 396 867 403 859 409 M919 393 C 913 398 906 401 899 405 M959 394 C 953 398 946 401 939 405 M1000 394 C 993 397 986 402 979 405 M281 422 C 272 426 266 432 261 440 M317 421 C 313 428 307 432 301 436 M360 421 C 353 427 346 432 339 438 M400 422 C 392 429 388 432 377 432 M440 429 C 433 429 426 430 420 430 M481 433 C 474 433 465 427 460 420 M499 430 C 506 430 513 429 520 429 M549 440 C 549 432 549 427 551 419 M599 436 C 593 431 587 426 578 427 M640 429 C 633 430 626 429 619 430 M682 426 C 674 426 665 432 657 436 M719 422 C 713 427 706 432 699 436 M760 426 C 753 429 746 431 739 432 M800 427 C 793 429 786 429 780 435 M839 422 C 834 428 826 431 819 435 M880 423 C 873 427 866 432 860 438 M919 420 C 913 426 907 433 898 437 M957 422 C 950 426 948 433 943 438 M991 423 C 988 426 991 432 991 438 M281 456 C 272 456 266 461 260 466 M320 451 C 313 457 306 462 300 468 M356 452 C 352 457 347 462 342 467 M399 451 C 393 457 386 462 378 466 M440 458 C 433 462 426 459 420 457 M480 463 C 473 461 466 459 460 457 M520 459 C 513 459 506 460 500 460 M561 455 C 553 456 545 462 539 467 M596 452 C 591 457 588 462 585 468 M634 452 C 631 457 628 462 624 467 M674 452 C 670 456 668 462 666 468 M712 452 C 710 457 709 462 707 467 M754 451 C 752 458 747 462 743 467 M800 452 C 793 457 785 461 780 469 M833 452 C 830 457 828 462 827 467 M877 448 C 874 459 866 462 857 466 M920 455 C 913 458 906 461 899 465 M960 452 C 953 457 946 462 940 468 M992 452 C 989 456 988 463 992 467 M259 482 C 264 488 274 491 282 496 M320 483 C 313 487 306 492 299 497 M360 480 C 353 486 346 493 340 499 M395 482 C 391 487 388 492 384 497 M436 482 C 432 487 427 492 423 497 M475 482 C 471 487 468 492 465 497 M511 483 C 509 486 510 493 510 498 M552 498 C 550 492 549 487 547 481 M597 500 C 593 489 588 486 577 490 M640 486 C 633 488 626 491 620 494 M676 483 C 671 485 667 493 668 498 M707 481 C 708 487 710 493 715 497 M739 490 C 746 490 753 489 760 489 M796 500 C 791 492 788 486 784 481 M-2147483648 -2147483648 C -2147483648 -2147483648 -2147483648 -2147483648 -2147483648 -2147483648 M879 494 C 873 489 866 489 859 490 M920 485 C 913 488 906 491 900 494 M960 486 C 953 488 946 490 939 493 M1001 483 C 993 487 986 491 980 498 M279 510 C 273 517 266 522 259 528 M320 511 C 313 516 306 523 300 529 M360 519 C 353 517 346 521 339 523 M400 517 C 393 519 386 520 379 522 M441 516 C 433 518 425 520 420 527 M479 509 C 474 517 466 523 457 527 M520 513 C 513 517 506 522 499 526 M560 513 C 553 517 546 522 539 526 M600 512 C 593 517 586 522 580 528 M638 513 C 633 518 627 523 618 522 M657 525 C 665 522 674 516 682 515 M700 520 C 706 520 713 520 720 519 M738 518 C 747 517 753 520 758 527 M779 511 C 784 518 794 523 802 524 M819 515 C 827 516 832 522 839 526 M869 514 C 870 515 869 522 869 530 M920 519 C 913 519 906 520 899 520 M950 509 C 950 516 949 523 949 530 M980 512 C 986 518 992 522 1001 524 M258 545 C 266 547 273 551 278 558 M298 543 C 303 550 315 550 324 554 M338 544 C 346 547 353 552 359 557 M392 540 C 390 546 389 553 386 559 M440 549 C 433 549 426 550 419 550 M472 538 C 470 546 469 553 467 561 M499 542 C 506 547 513 552 520 557 M535 542 C 543 548 555 552 565 552 M579 550 C 586 550 593 549 600 549 M635 542 C 631 547 628 552 623 557 M676 542 C 671 547 667 552 666 558 M704 535 C 703 548 713 556 725 551 M738 558 C 747 554 753 546 759 539 M787 556 C 790 552 790 547 790 541 M840 553 C 833 551 826 548 818 546 M881 554 C 873 552 866 548 860 542 M909 560 C 909 552 910 547 910 539 M939 550 C 946 550 953 549 960 549 M990 560 C 990 552 990 547 990 539 M279 586 C 273 581 267 576 258 577 M320 579 C 313 580 306 579 299 580 M362 576 C 354 576 345 582 337 586 M399 589 C 393 583 386 576 379 570 M439 584 C 433 579 426 578 418 579 M479 579 C 473 580 466 579 459 580 M521 577 C 513 578 506 581 499 583 M560 584 C 553 581 545 579 540 574 M599 585 C 593 581 587 577 579 578 M640 579 C 633 580 626 580 620 580 M679 570 C 672 576 668 584 658 586 M720 579 C 713 579 706 580 700 580 M762 584 C 754 580 745 579 739 574 M799 585 C 793 580 786 578 779 579 M840 579 C 833 579 826 580 819 580 M859 570 C 866 576 873 582 879 589 M900 574 C 906 580 912 581 920 580 M939 580 C 946 580 953 579 960 579 M979 571 C 986 577 993 582 999 589 M260 604 C 266 611 273 610 280 610 M300 610 C 306 610 313 609 320 609 M340 611 C 346 611 353 608 360 606 M379 602 C 386 607 393 612 400 617 M420 606 C 425 609 433 611 440 611 M459 610 C 466 610 473 609 480 609 M503 597 C 508 605 511 615 518 619 M540 603 C 547 607 552 612 560 614 M578 602 C 587 603 593 614 600 621 M620 605 C 626 610 633 611 641 610 M660 610 C 666 609 673 610 680 609 M700 611 C 706 611 713 609 720 607 M760 609 C 753 609 746 610 739 610 M800 609 C 793 609 786 609 779 611 M821 601 C 826 608 832 612 841 614 M880 609 C 873 609 866 610 859 610 M919 609 C 913 610 907 609 898 609 M943 601 C 948 608 951 612 955 616 M980 604 C 986 609 993 611 1001 610 M259 640 C 266 640 273 639 280 639 M320 639 C 313 639 306 640 299 640 M360 639 C 353 639 346 639 339 641 M381 631 C 386 638 392 642 401 644 M433 632 C 431 637 428 642 426 647 M473 632 C 471 637 468 642 467 647 M511 632 C 510 637 509 642 509 647 M550 631 C 550 637 550 642 546 647 M591 632 C 588 635 590 643 590 649 M620 633 C 626 639 632 642 641 640 M659 640 C 666 638 673 640 680 640 M699 641 C 706 641 713 638 720 637 M746 649 C 748 643 751 636 752 630 M783 632 C 787 637 792 642 796 647 M820 636 C 826 638 833 640 840 644 M859 632 C 867 636 873 643 879 648 M900 634 C 906 639 912 642 921 640 M939 640 C 946 639 953 640 960 640 M980 641 C 986 641 993 639 1000 637 M258 675 C 267 673 273 667 278 660 M308 677 C 310 674 310 665 307 662 M357 663 C 351 666 348 672 344 678 M399 669 C 393 669 386 670 379 670 M440 668 C 433 668 426 671 420 672 M461 675 C 468 673 473 667 473 660 M509 677 C 509 672 510 667 509 662 M553 679 C 552 673 548 665 544 663 M602 669 C 596 667 582 671 578 676 M634 662 C 631 667 628 672 625 678 M673 662 C 670 667 669 672 667 677 M706 661 C 709 666 710 673 714 676 M744 663 C 749 666 751 672 752 678 M788 660 C 789 666 790 673 793 678 M826 662 C 829 667 831 672 829 678 M869 662 C 867 667 871 672 873 677 M915 677 C 908 672 908 667 914 662 M940 679 C 946 673 953 666 960 661 M980 677 C 986 672 993 667 1000 664 M252 698 C 267 692 276 703 274 715 M313 691 C 312 697 308 702 303 706 M360 693 C 353 698 346 701 338 705 M401 696 C 393 697 386 700 381 707 M432 691 C 427 697 429 703 435 707 M460 696 C 466 700 473 701 480 698 M500 702 C 506 700 513 699 520 697 M560 699 C 553 699 546 700 540 700 M600 700 C 593 701 586 699 580 698 M636 712 C 631 704 628 694 621 690 M680 706 C 673 702 667 696 658 694 M720 707 C 712 705 707 694 699 690 M761 706 C 753 701 745 697 740 694 M801 699 C 792 699 786 700 780 700 M840 699 C 833 699 826 700 820 700 M880 702 C 873 702 866 698 859 694 M920 706 C 913 702 906 697 900 693 M960 699 C 953 699 946 700 939 700 M1001 698 C 993 698 986 700 979 702 M280 737 C 273 732 266 727 259 723 M321 735 C 313 731 306 728 299 724 M361 738 C 353 733 346 727 339 720 M399 734 C 393 729 386 728 379 729 M439 729 C 433 729 426 730 419 730 M479 728 C 473 729 467 730 458 732 M521 734 C 513 731 505 729 500 720 M562 740 C 557 732 543 726 533 725 M601 734 C 592 733 586 727 580 722 M639 736 C 633 732 626 727 619 723 M681 736 C 673 731 665 727 660 724 M721 729 C 712 729 706 730 700 730 M760 729 C 753 729 746 730 740 730 M801 732 C 793 732 785 728 778 724 M841 736 C 833 732 825 729 821 720 M880 729 C 873 729 866 730 859 730 M921 728 C 913 728 906 730 899 732 M960 728 C 953 729 946 730 939 731 M1000 729 C 993 729 986 730 979 730 M280 760 C 273 760 266 759 260 756 M321 766 C 313 762 305 758 300 750 M357 752 C 352 757 347 762 343 767 M400 759 C 392 759 386 760 380 760 M433 751 C 431 757 428 762 427 769 M461 751 C 466 757 472 763 481 764 M499 758 C 506 759 513 760 521 760 M560 759 C 553 759 546 760 540 760 M600 759 C 593 759 586 760 580 760 M639 767 C 633 761 626 757 618 755 M660 752 C 665 758 674 761 680 766 M702 751 C 708 756 712 763 717 768 M738 755 C 746 757 753 761 758 768 M779 755 C 783 760 795 759 802 763 M819 753 C 826 757 833 762 839 767 M859 756 C 867 756 873 762 879 766 M898 753 C 905 758 913 761 921 766 M960 767 C 953 762 946 757 938 753 M999 766 C 993 762 987 757 979 756 M260 782 C 266 787 273 792 280 797 M300 784 C 306 788 313 791 320 793 M339 784 C 346 788 353 791 359 795 M380 783 C 386 788 392 792 400 793 M439 797 C 433 791 427 787 418 785 M478 783 C 473 788 465 791 464 799 M499 782 C 506 787 513 792 521 796 M540 783 C 546 787 552 793 560 793 M595 782 C 591 787 588 792 584 797 M635 783 C 631 787 627 791 628 798 M674 782 C 671 787 668 792 665 797 M700 781 C 705 789 713 791 721 795 M760 786 C 753 788 746 791 740 793 M790 782 C 790 787 789 792 789 797 M820 786 C 826 788 833 791 840 793 M871 781 C 870 787 867 793 874 796 Z"/>
</svg>