<svg height="500" width="500" xmlns="http://www.w3.org/2000/svg"><path d="M250 -262 C 532 -262 762 -32 762 250  C 762 476 615 668 411 735  C 386 740 376 724 376 711  C 376 698 377 658 377 615  C 520 646 550 555 550 555  C 573 496 606 480 606 480  C 653 448 603 449 603 449  C 552 453 524 502 524 502  C 479 580 405 557 375 544  C 371 511 358 489 343 476  C 457 463 576 419 576 223  C 576 167 556 121 524 85  C 529 72 546 20 518 -49  C 518 -49 476 -63 378 2  C 337 -8 293 -14 250 -14  C 206 -14 162 -8 121 2  C 24 -63 -18 -49 -18 -49  C -46 20 -29 72 -24 85  C -56 121 -76 167 -76 223  C -76 420 43 463 157 476  C 138 491 122 523 122 570  C 122 639 123 694 123 711  C 123 724 113 740 87 735  C -115 668 -262 476 -262 250  C -262 -32 -32 -262 250 -262  C 250 -262 250 -262 250 -262 Z"/>
</svg>