<svg height="500" width="500" xmlns="http://www.w3.org/2000/svg"><path d="M280 245 C 272 245 265 252 265 260 M306 240 C 306 247 311 253 317 255 M334 253 C 349 255 354 246 354 238 M390 255 C 390 253 389 247 389 240 M446 252 C 429 255 426 245 426 245 M477 262 C 472 250 466 246 466 246 M517 263 C 495 247 519 248 519 248 M534 242 C 548 243 555 256 555 256 M579 242 C 585 253 595 250 599 248 M627 259 C 628 251 631 246 634 244 M679 253 C 672 252 665 250 665 238 M708 258 C 708 252 710 247 714 243 M751 255 C 750 253 748 247 751 240 M785 249 C 785 249 791 247 805 257 M820 252 C 826 250 833 249 840 249 M859 249 C 866 249 873 250 879 252 M894 257 C 908 247 914 249 914 249 M948 240 C 951 247 949 253 948 255 M985 243 C 989 247 991 252 991 258 M274 268 C 274 280 267 282 260 283 M306 274 C 309 276 311 281 311 289 M350 270 C 350 277 349 283 349 285 M385 268 C 385 276 390 285 405 283 M422 285 C 428 283 433 277 433 270 M474 290 C 474 282 467 275 459 275 M-2147483648 -2147483648 C -2147483648 -2147483648 -2147483648 -2147483648 -2147483648 -2147483648 Z"/>
</svg>