<svg height="500" width="500" xmlns="http://www.w3.org/2000/svg"><path d="M158 285 C 157 286 163 303 164 308  C 171 322 171 343 189 343  C 207 343 215 343 222 344  C 224 344 229 344 232 344  C 257 335 271 319 271 298  C 271 273 267 259 253 257  C 251 257 248 256 246 256  C 246 256 239 254 239 254  C 224 252 197 259 190 266  C 179 277 163 281 158 285  C 158 285 158 285 158 285 Z"/>
<path d="M312 283 C 312 285 316 291 318 293  C 318 306 342 319 352 319  C 371 319 395 314 406 303  C 419 290 435 265 420 251  C 407 238 389 230 373 227  C 371 226 365 226 363 225  C 344 215 333 225 326 239  C 318 256 316 263 316 279  C 316 285 319 287 312 283  C 312 283 312 283 312 283 Z"/>
<path d="M236 230 C 181 244 174 203 167 175  C 164 159 170 133 178 126  C 182 121 178 116 184 128  C 189 138 183 127 191 137  C 192 139 193 141 194 142  C 197 147 197 146 202 150  C 208 155 203 152 209 154  C 211 155 214 156 216 157  C 219 160 222 160 225 160  C 269 160 258 80 268 130  C 275 166 281 193 294 200  C 296 201 308 179 308 179  C 309 177 312 174 313 172  C 314 170 315 168 316 166  C 317 165 319 163 320 162  C 321 160 322 159 323 157  C 323 157 329 151 329 151  C 341 136 345 162 349 167  C 362 189 376 197 385 203  C 408 220 431 236 440 254  C 450 275 452 291 457 307  C 468 342 461 357 454 379  C 447 401 430 406 422 422  C 421 425 426 406 428 402  C 429 400 430 397 430 395  C 431 388 431 385 431 379  C 431 357 430 341 425 325  C 417 303 407 275 387 265  C 365 254 347 246 327 246  C 306 246 290 248 275 248  C 249 248 230 255 211 255  C 201 255 192 256 192 256  C 182 258 173 261 164 265  C 156 268 143 277 134 277  C 133 277 137 269 137 269  C 142 258 148 249 157 241  C 179 221 185 219 197 216  C 204 214 209 215 212 215 Z"/>
<path d="M221 391 C 228 395 244 388 252 385  C 264 377 271 373 278 365  C 289 355 286 363 286 374  C 286 380 286 384 284 390  C 275 416 252 431 228 425  C 218 423 184 410 194 400  C 198 396 213 395 218 393  C 220 391 223 389 225 388  C 229 387 236 383 236 383 Z"/>
</svg>