<?xml version="1.0" encoding="utf-8"?>
<!-- Generator: Adobe Illustrator 22.0.1, SVG Export Plug-In . SVG Version: 6.00 Build 0)  -->
<svg version="1.1" id="Calque_1" xmlns="http://www.w3.org/2000/svg" xmlns:xlink="http://www.w3.org/1999/xlink" x="0px" y="0px"
	 viewBox="0 0 1200 850" style="enable-background:new 0 0 1200 850;" xml:space="preserve">
<style type="text/css">
	.st0{fill:none;stroke:#231F20;stroke-width:0.5;stroke-miterlimit:10;}
</style>
<g>
	<path class="st0" d="M509.1,170.2c6.1,4.1,12.1,8.2,18.3,12.2c12,7.7,24.2,15.3,36.2,23c22,14.1,44,28.2,66,42.3
		c16.5,10.5,33,21,49.5,31.5c1,0.6,1.9,1.2,3.2,2c0,3.9,0.1,7.9,0,12c-0.3,14.8-0.7,29.6-1.1,44.5c-0.4,16-0.7,32-1.1,48
		c-0.2,10.5-0.5,21-0.7,31.5c-0.5,19-1,38-1.4,57"/>
	<path class="st0" d="M509.1,160.9c14.1-4.8,28.3-9.3,42.2-14.5c2.8-1.1,4.2-0.3,6.2,0.9c12.8,8,25.6,16,38.4,24
		c9.2,5.7,18.4,11.5,27.6,17.2c15.1,9.4,30.1,18.9,45.2,28.3c19.1,11.9,38.2,23.6,57.3,35.5c3.2,2,6.2,4.3,9,6.3
		c-0.2,1.5-0.4,2.4-0.4,3.4c-0.5,13.1-0.9,26.3-1.5,39.4c-0.6,15.3-1.4,30.6-2.1,45.9c-0.2,5.3-0.5,10.5-0.7,15.8
		c-0.3,7.6-0.4,15.3-0.7,22.9c-0.4,8.4-1,16.7-1.4,25.1c-0.5,10.3-0.9,20.6-1.5,30.8c-0.4,7.7-0.9,15.3-1.4,23.2
		c-14.3,5.5-28.7,11.1-43.3,16.7c-4.2-2.2-8-5-11.6-8.3c-4.7-4.4-9.9-8.2-15-12.3c-10.9-8.7-21.8-17.4-32.6-26.2
		c-0.7-0.5-1.1-1.4-1.6-2.1"/>
	<path class="st0" d="M373.3,411.1c5.1,5.5,10.2,11,15.4,16.5c4.7,5,9.5,9.8,14.3,14.7c0.9,0.9,2.1,1.7,3.2,2.6
		c0.6,0.9,1.2,2.1,2.2,3.1c16.3,17,32.7,34,49.1,50.9c18.6,19.2,37.3,38.2,55.9,57.4c16.3,16.8,32.5,33.7,48.8,50.5
		c6.7,7,13.4,14.1,20.1,21.1"/>
	<path class="st0" d="M533.2,173.8c51.4,33.6,102.8,67.2,153.4,100.3c0,6.3,0.1,12.2,0,18c-0.4,21.3-0.9,42.5-1.4,63.8
		c-0.4,17.7-1,35.4-1.4,53.1c-0.5,17.9-0.9,35.8-1.5,53.8c-0.2,5.7-0.7,11.5-1,17.2c-0.1,2.1,0.6,3.7,2.5,5.1
		c5.7,4.2,11.3,8.6,16.9,12.8c0.3,0.2,0.7,0.4,1.1,0.6c-3.8,2.9-3.7,2.8-10.8,1.6c-5.1-0.9-10.3-1.2-15.4-1.9
		c-1.3-0.2-2.6-0.5-3.9-0.7"/>
	<path class="st0" d="M690.5,284.2c-0.5,18.4-0.9,36.8-1.4,55.2c-0.3,11.1-0.8,22.2-1.1,33.3c-0.5,19.6-0.9,39.2-1.5,58.8
		c-0.4,13.1-0.9,26.3-1.4,39.4c0,1,0,1.9,0,3.4c7.1-2.7,13.8-5.2,20.4-7.6c4.5-1.6,9.1-3.1,13.6-4.7"/>
	<path class="st0" d="M773.7,410.1c-3.8-2.3-7.6-4.5-11.5-6.8"/>
	<path class="st0" d="M951.5,265.6c-2.3-1.4-4.4-1.3-6.8-0.1c-12.2,6.1-24.6,12-36.9,18c-9.9,4.8-19.9,9.5-29.7,14.4
		c-11.6,5.7-23.2,11.5-34.8,17.2c-14.9,7.2-29.9,14.3-44.8,21.6c-11.5,5.6-22.9,11.5-34.4,17.1c-1.2,0.6-2.6,0.8-3.9,1.1"/>
	<path class="st0" d="M722.4,401.8c0.7-17.8,1.4-35.6,2.1-53.4c0.4-9.2,0.7-18.4,1.1-27.6c0.7-14.8,1.5-29.6,2.1-44.5
		c0.2-3.3,0-6.7,0-10.5c-12.6,5.7-24.8,11.1-36.9,16.6"/>
	<path class="st0" d="M530.3,247.7c-3.1,1-6.3,1.8-9.3,2.9c-22.7,8.3-45.4,16.8-68.1,25.1c-13.1,4.8-26.3,9.2-39.4,14
		c-11.8,4.3-23.4,8.8-35.1,13.2c-3.3,1.2-6.7,2.4-10,3.6"/>
	<path class="st0" d="M1114.3,412.6c0.5-6.9,0.4-14,1.6-20.8c1.1-6.5-0.7-11.8-5-16c-2.7-2.8-6.7-4.4-10.3-6.2
		c-15.5-8-31.1-15.7-46.6-23.7c-14.3-7.4-28.4-15.1-42.7-22.5c-12.8-6.7-25.8-13.2-38.7-19.7c-0.4-0.2-1-0.3-1.4-0.4"/>
	<path class="st0" d="M963.3,281c-5,2.5-10,5.2-15.1,7.5c-20.8,9.5-41.6,18.9-62.4,28.4c-16.4,7.5-32.7,15-49.1,22.6
		c-4.2,1.9-8.4,3.8-12.5,5.7"/>
	<path class="st0" d="M826.4,211.5c6.7,3,13.4,6,20.1,9c13.3,5.8,26.5,11.5,39.8,17.2c14.5,6.2,28.9,12.5,43.4,18.6
		c4.7,2,9.6,3.8,14.3,5.8c1,0.4,1.7,1.5,2.5,2.3"/>
	<path class="st0" d="M821.4,213.6c15.2,6.7,30.3,13.4,45.5,20.1c18.7,8.2,37.5,16.3,56.3,24.4c4.8,2.1,9.6,4,14.3,6.2
		c1.3,0.6,2.4,1.9,3.6,2.8"/>
	<path class="st0" d="M317.3,692.9c6.9,9.4,13.8,18.9,20.8,28.3c1.1,1.5,2.4,2.9,3.6,4.3"/>
	<path class="st0" d="M364.3,745.6c2,0.1,3.9,2.3,6.1,0.7"/>
	<path class="st0" d="M375.4,746.7c1.9-0.1,3.8-0.2,5.7-0.4"/>
	<path class="st0" d="M480.1,571.4c-2.9,0.1-5.8-0.2-8.6,0.4c-7.2,1.7-14.3,3.9-21.5,5.6c-3.4,0.8-6.9,0.9-10.4,1.5
		c-5.4,1-10.7,2.2-16.1,3.2c-6.1,1.1-12.2,2.1-18.3,3.3c-1.5,0.3-2.9,0.6-4.3,1.1c-6.4,2.1-12.7,4.8-19.7,4.8c-2.4,0-4.8,1.3-7.2,2"
		/>
	<path class="st0" d="M528.1,613.3c-1.7-0.1-3.6-0.8-5-0.3c-9.4,3.9-18.7,7.9-27.3,13.5c-9.9,6.5-19.7,13.2-29.8,19.3
		c-7.1,4.2-14.7,7.6-22.2,11.2c-6.5,3.1-13.1,5.8-19.7,8.6"/>
	<path class="st0" d="M605.2,550.2c1.8-11.2,3.6-22.5,5.5-34.2c-11.6-0.5-23.2-1.1-34.8-1.6c-2.5,13.4-4.8,26.1-7.3,39.4
		c10.1,0,19.4-0.1,28.7,0c9.2,0.1,18.4,0.3,27.6,0.8c2.3,0.1,4.5,1.4,6.6,2.1c6,7.1,11.9,14,17.7,21.1c1.8,2.2,3.4,4.8,5,7.1"/>
	<path class="st0" d="M103.1,483.9c-0.2,3.3-0.5,6.7-0.5,10c0.1,5.1,0.4,10.3,0.7,15.4"/>
	<path class="st0" d="M105.7,527.6c1.4,5.5,0.8,11.4,2.9,16.9c1,2.5,0.8,5.5,1.2,8.2c0.9,5.9,1.9,11.7,2.9,17.6"/>
	<path class="st0" d="M113.4,583.2c1.1,4.2,2.5,8.3,3.2,12.6c2.3,15.2,4.3,30.5,9,45.2c0.4,1.2,0.1,2.6,0.1,3.9"/>
	<path class="st0" d="M109.4,636.6c3.1,1.7,6.2,3.4,9.3,5c7.2,3.7,14.3,7.5,21.5,11.1c3.8,1.9,7.8,3.3,11.4,5.5
		c5.3,3.2,11,4.3,16.9,5.3c4,0.7,7.9,2,11.8,2.8c4.7,0.9,9.6,1.5,14.3,2.2c0.8,0.1,1.8-0.3,2.5,0.1c4.9,2.5,10.2,2.6,15.4,2.4
		c5.3-0.2,10.2,1.4,15.1,3.2c4.2,1.5,8.5,3,12.9,3.9c2.5,0.5,2.9,1.6,2.9,3.7c0,11.7-0.2,23.4,0.1,35.1c0.1,4.1,1.4,8.1,2,12.2
		c0.5,3,1.2,6,1.4,9c0.2,3.9,2.1,6.3,5.4,7.9c3.7,1.7,5.2,4.5,4.7,8.6c-0.8,6.4-1.5,12.9-2.2,19.4"/>
	<path class="st0" d="M239.5,502.9c-0.8-3.9-1.7-7.7-4.6-10.8c-1.2-1.3-2.2-2.3-4-2.1c-0.3,0.1-0.8,0.2-1.1,0c-8-5-18-7.6-22.3-17.5
		c-1.4-3.1-4-5.6-7.4-6.9c-4.1-1.6-7-4.8-9.7-8.2c-0.6-0.8-1.6-1.2-2.5-1.8c-5.4-3.9-10.7-8-16.1-11.8c-7-5-14.1-9.8-21.1-14.7"/>
	<path class="st0" d="M106.9,603.3c-2.5,11.4-4.6,23-6,34.6c-0.7,6-2,12.6-2.3,18.7c-0.3,6-1.1,11.4-1.5,17.3
		c-0.4,6.6,2.5,10.9,3,16.8"/>
	<path class="st0" d="M99,692.5c0.2,2.5,0.5,5,0.7,7.5"/>
	<path class="st0" d="M98.6,699.6c0,7,0.7,12.6-1.4,19.2c-3.7,11.4-6.8,20.3-6.8,32.3"/>
	<path class="st0" d="M89.9,749.9c0.5,8.4,1.3,16.7-1.1,25.1c-1.6,5.6-1.4,11.7-2,17.5"/>
	<path class="st0" d="M213.7,547.4c-0.5,1.9-0.9,3.8-1.4,5.7c-2.2,8.5-2.4,17.2-1.6,25.8c0.5,4.8,2.9,9.5,4.9,14
		c3.5,8,6,16.1,7.2,24.8c0.5,3.5,1.4,6.9,2.1,10.4"/>
	<path class="st0" d="M143.8,655.3c0,0.4-0.1,0.8,0,1.1c3.3,6.2,5.1,13,8.8,19.1c3.5,5.5,6.2,11.6,9,17.5c0.9,1.8,1.3,4,1.4,6.1
		c0.5,7.6,0.7,15.3,1.2,22.9c0.2,2.9,0.7,5.7,1,8.6c0.1,0.8-0.1,1.7-0.2,2.7c1.2,2.8,2.5,5.8,3.9,9c-1,2.2-2.1,4.5-2.9,7
		c-0.8,2.3-1.6,4.7-1.8,7.2c-0.3,3.6,0.1,7.2-0.1,10.7c-0.3,4.2-0.9,8.4-1.4,12.6"/>
	<path class="st0" d="M699.1,574.6c11.8,10.4,23.5,20.7,35.6,31.3c13.9-7.1,27.7-14.2,41.5-21.3"/>
	<path class="st0" d="M178.2,529.1c-0.4,3.8-1,7.6-1,11.5c0,8.7,1.3,17.5-1,26.2c-0.8,3.1,0.3,6.6,0.5,10c0.6,9,1.2,17.9,1.8,26.9"
		/>
	<path class="st0" d="M580.5,667.1c3.9,5.9,5.7,12.4,6.6,19.3c0.9,7.2-0.3,14.5,2.6,21.6c1.5,3.8,1.1,8.3,1.6,12.5
		c0.3,2.3,0.8,4.6,0.6,6.8c-0.3,4.4-1.2,8.8-1.7,13.3c-0.2,2,0.3,4.1,0.3,6.1c0,5.8,0.1,11.7,0,17.6c0,1.3-0.6,2.6-0.7,3.9
		c-0.3,8.7-0.5,17.4-0.8,26.2c-0.1,2.7-0.2,5.5-0.4,8.2"/>
	<path class="st0" d="M165.3,349.5c1.1,0,2.3-0.4,3.2,0.1c5,2.6,10.7,1.6,15.8,3.5c1.5,0.5,3.1,0.7,4.7,1.1"/>
	<path class="st0" d="M189.4,354.1c7.3,1.3,14.6,2.6,21.9,4c3.4,0.7,6.7,1.6,10,2.5"/>
	<path class="st0" d="M221.6,360.6c4.5,1.4,9,3.4,13.6,4.2c5.8,1,11.5,3.5,17.6,1.6c0.7-0.2,1.7,0,2.5,0.3c4.7,2.1,10.4,1.9,14,6.4"
		/>
	<path class="st0" d="M259.6,385c-6.5-3.7-12.9-7.8-20.8-8c-1.6,0-3.1-1.3-4.7-2.1"/>
	<path class="st0" d="M336.7,579.3c2.6,2.9,5.8,5.4,7.8,8.7c5.7,9.7,13.8,17,22.3,24c4.4,3.7,7.8,8.2,10.1,13.6
		c1.6,3.7,3.9,7.1,5.7,10.8c3.4,6.9,6.6,13.9,10.1,20.8c2.6,5.1,5.5,10.1,8.2,15.1"/>
	<path class="st0" d="M401.9,676.4c3.3,5.5,6.7,11,10,16.5"/>
	<path class="st0" d="M693.8,168.1c-13.5,4.2-27,8.4-40.5,12.5c-7.8,2.4-15.5,4.8-23.3,7.2c-1,0.3-1.9,0.9-2.9,1.4"/>
	<path class="st0" d="M418.1,420.8c1.3,2.2,2.5,4.4,4,6.4c6.4,8.4,12.9,16.8,19.3,25.1"/>
	<path class="st0" d="M467.9,487.8c1.3,1.7,2.5,3.4,4.1,5.5c3.6-1.9,6.6-3.7,9.9-5.1c1.9-0.8,4-1,6.1-1.5"/>
	<path class="st0" d="M500.3,481.4c4.2-1.2,7.8-3.9,12.3-4.6c3-0.5,5.7-2.7,8.6-3.9c5.2-2.3,10.9-3.5,15.4-7.2
		c8.3-0.7,14.8-6.2,22.5-8.4c5.2-1.5,9.6-5.5,14.8-6.8c5.7-1.4,10.6-4.4,16.1-6c2-0.6,3.8-1.9,5.8-2.8"/>
	<path class="st0" d="M230.9,740.9c-0.5-2.2-2.2-2.2-3.9-2.2c-4.5,0-9.2,0.6-13.6-0.1c-11.7-1.9-23.4-1-35.1-1.4
		c-3.7-0.1-7.4-0.9-11.1-1.4"/>
	<path class="st0" d="M108.7,120.8c-0.7,0.2-1.7,0.3-2.1,0.8c-7,8.3-13.9,16.7-20.8,25.1c-0.3,0.3-0.3,0.9-0.4,1.4"/>
	<path class="st0" d="M80.2,159.1c-0.8,3.8-2,7.6-2.2,11.5c-0.5,6.4-0.3,12.9-0.4,19.4c0,0.4,0.4,0.7,0.7,1.1"/>
	<path class="st0" d="M130.9,500.4c-2.2,6.5-2.3,13.3-2.1,20.1c0,1,0.8,2,1.4,2.9c5.2,6.7,5.8,14.2,4,22.3
		c-1.2,5.5-1.8,11.2-2.6,16.8c-0.1,0.5,0.2,1.1,0,1.4c-2.9,4.8-0.4,9,1.5,13.3c1.3,3,2.9,5.9,3.8,9c0.5,1.7-0.3,3.8-0.5,5.6
		c3,1.4,6.2,2.9,9.4,4.5c5.9-0.7,10.9,3.1,16.6,4.2c5.8,1.1,11.5,2.5,16.6,3.6c1.3,7.5,2.2,14.3,3.6,21.1c1.7,8.1,3.6,16.1,5.8,24
		c0.8,2.7,2.8,5,4.2,7.6c2.4,4.3,3.6,8.7,2.2,13.6c-0.3,1-0.6,2.1-0.7,3.2c-0.7,5-1.7,10-2.1,15.1c-0.3,4.5-0.3,9.1,0.1,13.6
		c0.1,1.6,1.9,3.1,2.7,4.7c1.5,3.2,2.9,6.4,4.3,9.7"/>
	<path class="st0" d="M307.3,428c0.1,4,4.2,5.5,5.8,8.6c0.8,1.6,2.5,2.7,3.9,4"/>
	<path class="st0" d="M320.9,446.3c1.8,3.3,3.6,6.7,5.4,10"/>
	<path class="st0" d="M338,485.3c0.9,5.5,1.8,11,2.7,16.5c1.2,7.2,2.2,14.5,1.8,21.9c0,0.7-0.2,1.4-0.3,2.2"/>
	<path class="st0" d="M342.3,534.1c2.2,4.5,4.4,9.1,6.6,13.6c0.7,1.5,1.2,3.1,1.8,4.7"/>
	<path class="st0" d="M356.1,561.7c4.8,8.5,9.6,17,14.3,25.5c0.5,0.8,0.5,1.9,0.7,2.9"/>
	<path class="st0" d="M371.5,590.4c3.5,5.4,6.9,10.8,10.4,16.1c1,1.5,2.4,2.7,3.6,4"/>
	<path class="st0" d="M682.3,164.5c-10.6,3.7-21.3,7.5-31.9,11.1c-8.1,2.7-16.3,5.2-24.4,7.9c-1.8,0.6-3.4,1.6-5,2.5"/>
	<path class="st0" d="M713.8,620.8c-6,3-12,5.9-17.9,9c-10.3,5.2-20.6,10.5-30.8,15.8c-4.5,2.3-9,4.8-13.5,7.3
		c-9.9-10.1-19.5-20-29.1-29.9"/>
	<path class="st0" d="M136.3,592.5c-0.7,3.6-1.8,7.1-2.1,10.8c-0.4,5.1-0.2,10.3,0,15.4c0.1,2.4,0.9,4.8,1.4,7.2
		c0.2,1.1,0.4,2.1,0.3,3.2c0,3.1,1.2,5.9,1.8,8.7c1.1,5.1,3.4,9.8,3.9,15"/>
	<path class="st0" d="M306.6,436.2c-9.3-1.3-16.5,3.6-24,7.8c-7.7,4.3-11.9,11.8-17.6,17.9c-9,9.6-14.9,21.2-21.5,32.3"/>
	<path class="st0" d="M393.3,691.8c-1,4.4-2.2,8.8-2.8,13.3c-0.6,4.9-2.5,9.1-5.8,12.5c-4.3,4.4-8.5,9.2-14.7,11.1
		c-2.8,0.8-5.7,1-8.6,1.5c-1.6,0.3-3.1,0.6-4.4,0.8c-1,2-1.9,3.6-2.7,5.3"/>
	<path class="st0" d="M547.3,215.8c0.2,1.1,0.5,2.2,0.5,3.2c0.2,13.7,0.3,27.5,0.4,41.2"/>
	<path class="st0" d="M548.4,314c-0.1,3.6-0.1,7.2-0.2,10.8"/>
	<path class="st0" d="M245.6,509.4c2.2,2,4.3,4.1,6.5,6.1c5.5,5.1,9.5,11.3,12.8,18c3.4,6.9,6.3,14.1,9.4,21.1
		c0.8,1.9,1.7,3.8,2.9,5.4c5.9,7.6,11.9,15.1,17.9,22.6"/>
	<path class="st0" d="M826,208.9c-0.1,0.7-0.2,1.4-0.2,1.3c-4.2,1.1-7.9,1.9-11.7,3c-3.1,0.9-6.2,2.1-9.3,3.2"/>
	<path class="st0" d="M790.2,217.7c-3.8-0.2-7.7-0.2-11.5-0.6c-3.2-0.3-6.5-0.9-9.7-1.4"/>
	<path class="st0" d="M164.6,733.4c-9.1-3.3-17-8.5-24-15.1c-5-4.7-9.9-9.7-14.7-14.7c-3.6-3.7-6.9-7.7-10.5-11.4
		c-1-1.1-2.6-1.7-3.9-2.5"/>
	<path class="st0" d="M112.6,582.8c-1,2.3-1.9,4.5-2.9,6.8"/>
	<path class="st0" d="M108.5,603.6c0.2,4.4,0.5,8.8,0.5,13.3c0,6.2-0.2,12.4-0.3,18.6c-0.1,11.7-0.3,23.4-0.3,35.1
		c0,1.6,0.7,3.1,1,4.7"/>
	<path class="st0" d="M110.7,696.1c0.1,5.1,0.1,10.3,0.2,15.4"/>
	<path class="st0" d="M526.3,795.1c3-4.2,5.5-8.6,3.2-14c-0.8-1.9-2.2-3.4-3.5-5.3c1.2-6.8,2.2-9.1-5.5-13.4
		c0.1-0.2,0.4-0.5,0.4-0.7c0-3.1,0-6.2,0-10.2c-3.4-0.3-6.8-0.6-10.2-0.9c0-2.4,0-4.8,0-7.2c-8.9,1.6-17.6,3.1-26.3,4.7"/>
	<path class="st0" d="M284.4,499.3c7.8,12.5,14.6,25.6,23.7,37.3c4.4,5.7,9.1,11.2,13.6,16.9"/>
	<path class="st0" d="M563.3,349.5c-1.2,0.4-2.5,0.6-3.6,1.1c-5,2.3-10.1,4.7-15.1,7.2c-1.9,1-3.7,2.3-5.6,3.2c-2.3,1-4.7,1.8-7,2.9
		c-10.7,5-21.3,9.9-31.9,15.1c-12.1,5.9-24.1,11.9-36.2,17.9c-5,2.5-10.1,4.7-15,7.2c-1.1,0.6-1.9,1.9-2.9,2.8"/>
	<path class="st0" d="M297.6,344.1c1.2,1.8,2.4,3.6,3.6,5.4"/>
	<path class="st0" d="M310.2,428.3c-3.1-1.3-6.4-2.4-9.3-4c-2.1-1.2-4-2.3-6.5-1.8c-1.1,0.2-2.4-0.2-3.6-0.3"/>
	<path class="st0" d="M290.5,422.2c-1.9-0.2-3.9-0.3-5.7-0.7c-4.7-1.1-8.5,0.7-11.8,3.7c-6.4,5.7-11.6,12.5-15.8,20
		c-1.1,2-2.2,4.1-3.2,6.1"/>
	<path class="st0" d="M270.7,396.8c-1.6-0.5-3.1-1.2-4.7-1.4c-3.9-0.6-7.9-1.1-11.8-1.4c-1.6-0.1-3.4,0.3-5,0.7
		c-11.4,2.3-20.9,7.4-26.9,17.9c-0.4,0.7-1.1,1.2-1.8,1.8c-8.4,7.3-15.1,16.2-21.4,25.2c-3.1,4.5-4.9,9.9-7.3,15
		c-0.3,0.6-0.7,1.2-1.1,1.8"/>
	<path class="st0" d="M284,500.4c-3.8,7.5-10.4,12.2-16.4,17.7c-3.7,3.5-7.2,7.3-10.8,11c-2.4,2.6-4.7,5.2-8,6.8
		c-0.7,0.3-1.3,0.9-1.8,1.4c-3.6,3.9-7.1,8-10.8,11.8c-4,4.1-9.3,4.3-14.7,1.1c-1.5-0.9-3.1-1.4-4.6-2.2c-1.4-0.7-2.8-1.4-4.8-2.3
		c2.8-10.9,5.4-21.4,8-31.4c-2.6-2.2-4.6-4-6.7-5.7c-4-3.3-8.1-6.4-12.2-9.7c-2.4-2-4.8-4-7.2-6.1c-3.5-3.1-8.1-2.5-12.5-3.9
		c0.8-4.1,1.5-8.6,2.5-12.9c0.7-3,2.3-5.9,2.7-9c0.4-3.1,2.3-5.2,3.4-7.9"/>
	<path class="st0" d="M627.4,430.8c7.8,6.5,15.5,12.9,23.3,19.4c7.7,6.4,15.5,12.7,23.3,19c0.7,0.6,1.7,1,2.5,1.4"/>
	<path class="st0" d="M371.1,598.6c7.5,12.8,15.1,25.6,22.6,38.4c2.1,3.6,4.1,7.2,6.1,10.8"/>
	<path class="st0" d="M1109.2,421.5c-5.6,3.5-11.2,7-16.9,10.4c-10.1,5.9-20.3,11.7-30.5,17.6c-16.7,9.7-33.4,19.4-50.2,29
		c-1.8,1-3.8,1.7-5.7,2.5"/>
	<path class="st0" d="M105.5,377.8c-0.7,3.9-1,8-2.2,11.8c-3.8,11.9-4.6,24.2-4.7,36.6c-0.1,11.1,3.7,21.3,4.5,32.1
		c1.7,24.4-0.7,49.6-0.7,74.1c0,14.7,0,29.1,2.6,42.9c1.3,7.1,3.7,18,2.6,25"/>
	<path class="st0" d="M212.3,544.8c-5.1-3.5-11.3-4.7-16.3-8.8c-3-2.4-7.5-3-11.3-4.5c-2.5-1-4.9-2-7-4.2
		c-4.1-4.3-8.6-8.2-13.6-11.5c-5.2-3.4-10.5-6.9-16.8-8c-4.8-0.8-9-2.5-12.3-6.4c-0.8-1-2.8-1-4.6-1.6c-0.2-3.6,1.1-6.9,2.5-10.3
		c2.7-6.3,5.6-12.5,7.8-19c1.5-4.3,1.8-9,2.6-13.6"/>
	<path class="st0" d="M483.3,503.4c6.7,1.6,13.4,3.3,20.1,4.8c6.9,1.6,13.9,3.2,20.8,4.8"/>
	<path class="st0" d="M197.6,383.2c-4.9-0.3-9,2.5-13.4,3.6c-7.4,1.8-12.1,6.9-17.9,10.7c-7.6,5-10.4,12.6-12.6,20.8
		c-2.2,8-5.3,15.8-7.7,23.7c-1.2,4-2,8.1-2.9,12.2"/>
	<path class="st0" d="M228.1,632c-1.2,3.6,1.5,6,2.6,8.9c1.7,4.7,4.7,9.2,5.5,14c1.2,7.4,5,14.1,5.9,21.5c0.1,0.5-0.2,1-0.3,1.4"/>
	<path class="st0" d="M362.9,609.7c-2.4,7.1-4.8,14.1-7.2,21.1c-2.4,6.8-4.8,13.6-7.1,20.4c-0.2,0.4,0,1,0,1.4
		c7,4.9,14.8,8.7,19.9,16.3c3.1,4.5,8.3,7.6,12.7,11.3c3.9,3.3,7.9,6.5,11.8,9.7"/>
	<path class="st0" d="M633.2,555.2c0.8-9.1,1.7-18.2,2.5-27.2c0.3-3.6,0.7-7.1,1.1-11c-8.8-0.3-17.3-0.5-25.8-0.8"/>
	<path class="st0" d="M261.1,622.3c-0.6,1-1.2,1.9-1.8,2.9c-2.9,4.8-7.9,4.9-12.6,6.1c-1.1,0.3-2.1,0.7-3.2,0.7
		c-5.1,0.1-10.3,0-15.4,0c0.1-0.4,0.3-0.8,0.4-1.1c-3.4-1.8-6.6-3.9-10.1-5.2c-5.3-2.1-10.2-4.6-14.8-8.2
		c-4.5-3.5-10.1-5.7-15.3-8.4c-2.6-1.3-5.2-2.4-7.9-3.6"/>
	<path class="st0" d="M621.7,578.9c2.1,0.5,4.3,1,6.5,1.4c8.6,1.7,17.2,3.3,25.8,5.1c1.4,0.3,2.7,1.7,4.7,3.2
		c-4.5,1.8-7.9,3.4-11.5,4.6c-11.3,3.8-22.7,7.4-34,11.1c-7.2,2.4-14.3,4.8-21.5,7.1c-1.2,0.4-2.4,0.5-3.6,0.7"/>
	<path class="st0" d="M749.5,541.3c-10.1,3.9-20.2,7.9-30.3,11.8c-7.3,2.8-14.5,5.6-22.3,8.6c-9.7-10.9-19.4-21.7-29.4-32.9
		c18.9-6.4,36.7-15,55.6-20.1c10.1,10.4,19.7,20.3,29.7,30.7c-1.2,0.7-2,1.1-2.8,1.5"/>
	<path class="st0" d="M125.6,414.7c-2.5,3.8-4.9,7.7-7.2,11.2c4.8,11.7,13.2,20.3,23.2,27.6c2,1.5,3.6,3.6,5,5.7
		c2.5,3.5,4.7,7.2,7.2,10.7c0.9,1.3,2.3,2.2,3.6,3.2c2.6,2.1,5.3,4,7.9,6.1c4.7,4,10.1,6.7,15.8,8.9"/>
	<path class="st0" d="M157.8,366.3c-2.2,1.4-4.6,2.5-6.4,4.4c-5.8,5.9-11.5,12-16.8,18.3c-2.4,2.8-5.1,5.2-6.8,8.8
		c-1.6,3.2-1.9,6.2-1.9,9.4c0,1.8-0.4,3.6-0.7,5.4"/>
	<path class="st0" d="M343.5,380.3c-11.8-12.4-23.7-24.9-35.5-37.3c-0.3-0.3-0.9-0.3-1.4-0.4"/>
	<path class="st0" d="M765.8,181.3c0.6-5,1.1-10.1,1.8-15c0.8-5.5,1.9-11,2.8-16.5c0.4-2.4,0-5,0.9-7.1c1.1-2.9-0.6-3.8-2-5.1
		c-1.8,0.2-3.4,0.4-5.4,0.7c-0.2,1.4-0.4,2.7-0.6,4c-0.5,3.8-0.9,7.7-1.5,11.5c-0.9,5.6-1.9,11.2-2.9,16.8c-0.1,0.6-0.7,1.2-1,1.8"
		/>
	<path class="st0" d="M324.7,248.3c4.7,12.2,8.2,36.5,1.6,48.9c-3,5.6-6,11.2-9,16.8"/>
	<path class="st0" d="M281.9,670.7c-1.4,4.9-4.4,7.9-9.7,8.6c-5.1,0.7-9.7,3.5-15.1,2.8c-3.4-0.5-6.7-1.2-10-1.8
		c-1.1-0.2-2.1-0.2-3.2-0.4"/>
	<path class="st0" d="M768.3,357.4c-1.9,2.7-2.3,5.7-2.6,9c-0.9,11.3-2.2,22.5-3.1,33.7c-0.3,3-1.7,3.2-4,2.5"/>
	<path class="st0" d="M184.3,387.5c0.4,0.4,0.7,0.8,1.1,1.1c6.3,3.1,12.5,6.5,19,9.2c5.3,2.2,9.3,5.8,13.2,9.7
		c1.4,1.4,3.1,2.7,4.6,4"/>
	<path class="st0" d="M161,238.9c-0.1,10.3-3.1,26.1,1.8,35.3"/>
	<path class="st0" d="M782.7,363.8c-1.2,11.5-2.4,22.9-3.6,34.4c-0.3,3.3-0.5,6.7-0.7,10"/>
	<path class="st0" d="M419.5,738.6c-9.8,0.4-19.4,2.2-29,3.8"/>
	<path class="st0" d="M660.4,496.3c-7.9-0.6-15.8-1-23.7-2.5c-3.3-0.6-7.3,2.2-10.9,3.5c-0.1,0.4-0.1,0.8-0.2,1.2
		c10,7.7,20.1,15.4,30.4,23.4c2.4-1.3,4.9-2.6,6.6-3.4c2.8-14.7,5.4-28.5,8.2-42.8c-0.7,0.1-1.5,0.1-2.1,0.4c-5.8,3-11.5,6-17.2,8.9
		c-3.8,2-7.7,3.8-11.4,5.8c-1.1,0.6-1.9,1.6-2.9,2.5"/>
	<path class="st0" d="M583,628.7c10.2,11.1,21.4,20.7,35.9,26.6c0.2-1.1,0.4-2.2,0.7-3.3"/>
	<path class="st0" d="M770.1,157c7.8,2.5,16,4.2,23.2,7.8c8.2,4.1,16.9,5.3,25.6,6.9c0.4,0.1,0.7,0.2,1.1,0.4"/>
	<path class="st0" d="M831.4,177.4c1.4,1.9,2.9,3.8,4.3,5.7"/>
	<path class="st0" d="M290.1,640.2c1-0.1,2.1,0.1,2.8-0.4c6-4.4,12.3-8.2,16.3-15c2.3-3.9,5.5-7.2,8.3-10.8
		c10.4,12.5,20.6,24.7,30.7,36.9"/>
	<path class="st0" d="M461.8,784.7c-2.5,4.8-7.4,5.8-11.8,7.5c-6.6,2.5-13.3,2.4-20,0.4c-1.5-0.5-2.9-1.4-4.3-2.1"/>
	<path class="st0" d="M181.8,489.6c-0.5,3.3-1.1,6.7-1.4,10c-0.6,7.3-0.9,14.6-1.5,21.9c-0.1,1.7-0.9,3.4-1.4,5"/>
	<path class="st0" d="M559,472.8c-1.8,1.7-3.6,3.3-5.4,5"/>
	<path class="st0" d="M549.6,482.8c-6.9,8.8-13.8,17.7-20.8,26.5c-1.4,1.7-2.9,3.4-4.3,5"/>
	<path class="st0" d="M322,554.9c-1.1,1.2-2.3,2.3-3.2,3.6c-3.8,5.6-9.1,9.6-13.9,14c-4.6,4.3-8.7,9.2-13,13.9
		c-0.8,0.9-1.5,1.9-2.5,2.5c-5.7,3.2-9.2,8.4-12.5,13.7c-2.7,4.4-5.9,8.5-7.2,13.6"/>
	<path class="st0" d="M911.7,121.5c-3.6,8.5-6.9,17.1-10.9,25.4c-1.7,3.7-4.7,6.7-7.1,10.1"/>
	<path class="st0" d="M886.6,219c-0.5-0.2-1.1-0.8-1.4-0.7c-4.7,1.8-9.1-0.8-13.6-1.1"/>
	<path class="st0" d="M854.7,214.7c-3.7,0-7.4,0.2-11.1-0.1c-2.4-0.2-4.8-0.9-7.2-1.4"/>
	<path class="st0" d="M222.7,412.9c8,6.6,15.9,13.4,24.1,19.6c3.4,2.6,5.1,6.2,7.5,9.4"/>
	<path class="st0" d="M578.3,351.3c-1.1-1.4-1.9-3.1-3.3-4.3c-7.2-6-14.6-11.7-21.8-17.6c-1.5-1.3-2.7-3-4.2-4.6
		c-8.9,3.5-17.6,6.9-26.3,10.3c-1.9,0.8-2.7,2.2-2.5,4.3c0.2,1.8,0,3.6,0,6.2c4.3,3.3,9.1,7.2,14,11"/>
	<path class="st0" d="M117.7,428c-3.9,5.9-6.6,12-6.2,19.4c0.2,3.1-0.8,6.3-1.3,9.4c-0.4,0-0.9,0-1.3,0.1c1.8,6.4,3.6,12.8,5.6,19.2
		c0.4,1.3,1.4,2.8,2.5,3.5c5.5,3.4,8.9,8.5,11.8,14c0.3,0.5,0.7,1,1.1,1.4"/>
	<path class="st0" d="M541,382.1c1.7,1.6,3.4,3,5,4.7c2.4,2.5,4.8,5,7.1,7.5c0.6,0.6,0.8,1.6,1.1,2.5"/>
	<path class="st0" d="M554.3,397.2c0.9,2.5,3.5,3.1,5.4,3.1c11.8,0,23.4,2.2,35.1,2.7c0.9,0,1.7,0.7,2.5,1"/>
	<path class="st0" d="M244.2,439.1c-2.5-0.8-5-1.8-7.5-2.5c-5.6-1.5-8-0.8-11,4.7c-2.7,4.8-4.9,10-7.2,15"/>
	<path class="st0" d="M764,192.8c-2.3,9.1-3.8,18.2-4.6,28.4c-0.8,0.9-2.2,2.6-3.7,4.2"/>
	<path class="st0" d="M355,745.2c-6,9.1-12,18.2-17.9,27.3c-1.3,2.1-2.4,4.3-3.6,6.4"/>
	<path class="st0" d="M865.5,556c-0.5,2.4-1.1,4.7-1.6,7c0.3,0.2,0.6,0.4,0.8,0.6c-5.1,3-10.2,5.9-15.3,8.8
		c-7.1,4.1-14.1,8.4-21.2,12.5c-1.8,1-4,1.5-6.1,2.2"/>
	<path class="st0" d="M249.6,596.8c3,5.6,6,11.2,9,16.8"/>
	<path class="st0" d="M270,634.1c1.4,2.7,2.9,5.5,4.3,8.2"/>
	<path class="st0" d="M289.7,441.2c2.3,4.5,4.7,9,6.8,13.6c2.8,6.4,5.3,12.9,7.9,19.3"/>
	<path class="st0" d="M145.7,253.9c-2.1,6.9-6.9,13.5-2.6,20.6"/>
	<path class="st0" d="M322.4,225.1c5.9,0,9.4,4,12.9,7.9c1.6,1.8,3.1,3.7,4.3,5.7c2.7,4.6,2.3,8.2-2.1,12.2"/>
	<path class="st0" d="M322.4,553.8c2.3,4.2,4.4,8.4,6.8,12.5c2,3.4,4.4,6.6,6.3,10.1c0.5,0.9,0.6,2.7,0,3.5
		c-5.6,8.2-10,17-13.6,26.2c-0.8,2.1-2.8,3.9-4.2,5.8"/>
	<path class="st0" d="M385.5,615.5c8.9,9.6,14.4,21.6,21.9,32.3"/>
	<path class="st0" d="M718.1,534.1c6.5,1.1,12.9,2.1,19.4,3.2c3.2,0.6,6.5,1.1,9.7,1.8c0.9,0.2,1.7,1.1,2.5,1.7"/>
	<path class="st0" d="M303,343c-0.8-2.4-2.3-0.5-3.2-0.3c-5.8,1.4-11.5,3-17.2,4.5c-0.7,0.2-1.5-0.2-2.7-0.3c-1.8,1.2-3.9,2.6-5.9,4
		"/>
	<path class="st0" d="M243.5,455.9c-4.7,4.6-7.5,10.4-9.2,16.5c-1.4,5.2-3.1,9.9-6.6,13.9c-3.2,3.8-3.1,8.8-4.3,13.3
		c-1,3.7-2.7,7.2-2.2,11.1c0.1,0.7-0.7,1.4-1,2.1"/>
	<path class="st0" d="M694.8,501.8c-3.3,1.9-6.6,4-10.1,5.7c-5.9,3-11.9,5.8-17.9,8.6c-1,0.5-2.1,0.7-3.2,1.1"/>
	<path class="st0" d="M950.4,270.2c1.8,0.8,3.8,1.4,5.3,2.6c2.8,2.2,5.5,4.5,7.9,7.2c4.2,4.7,5,10.7,5,16.8
		c0.1,4.5-0.2,9.1-0.3,13.6c-0.1,3.1-0.5,6.2-0.7,9.3"/>
	<path class="st0" d="M617,621.6c4.8-3,9.5-6,14.3-8.9c2.6-1.5,5-2.1,8.3-0.9c3.9,1.3,8.3,1,12.5,1.7c4.3,0.8,8.9-0.3,13,2.3
		c1,0.6,3.2,0,4.5-0.7c6.6-3.3,13.2-6.9,19.7-10.3c0.7-0.4,1.3-0.7,2-1.1"/>
	<path class="st0" d="M348.5,653.5c-7.6,9.4-17.7,15.9-26.2,24.3c-0.6,0.6-1.9,0.5-2.8,0.8"/>
	<path class="st0" d="M540,381.4c-3.2-0.4-6.5-0.7-9.7-1.1c-2.9-0.3-5.7-0.7-8.6-1.1"/>
	<path class="st0" d="M514.5,379.6c-3.3,1.1-7.1,1.5-9.9,3.4c-4.5,3-9.7,4-14.5,6.3c-6,2.8-12.2,5.3-18.3,7.9
		c-2.6,1.2-5.3,2.3-7.9,3.6c-1.6,0.8-2.9,2.1-4.3,3.2"/>
	<path class="st0" d="M707.4,619.1c-5.7-0.7-11.5-1.6-17.2-2.1c-4.4-0.3-8.8-0.1-13.3-0.1"/>
	<path class="st0" d="M653.6,418.7c-3.4-1.1-5.5,2.1-8.2,3.1c-8.2,3-16,7.1-24.1,10.5c-2.4,1-5.2,1-7.9,1.5"/>
	<path class="st0" d="M565.4,578.2c6-2.3,11.9-4.8,18-6.7c2.1-0.6,4.8,0.4,7.1,0.9c8.3,1.7,16.5,3.6,24.7,5.4
		c0.4,0.1,0.7,0.2,1.1,0.4"/>
	<path class="st0" d="M553.6,473.1c-8.2,1.8-16.5,3.6-24.7,5.4c-1.7,0.4-3.4,0.9-5,1.4"/>
	<path class="st0" d="M874.4,173.1c-3.8,0.5-7.6,1.1-11.5,1.4c-4.1,0.4-8.1,0.6-12.2,0.7c-3.1,0.1-6.2-0.1-9.4,1
		c-1.8,0.6-4-0.1-6.1-0.2c-1.3-0.1-2.6,0-3.9,0"/>
	<path class="st0" d="M295.5,583.6c8.8,8.1,15.3,18.1,21.8,28c0.4,0.6,0.3,1.6,0.4,2.5"/>
	<path class="st0" d="M695.9,574.2c1.1-0.1,2.3,0.2,3.2-0.2c4.9-2.2,9.8-4.6,14.7-6.9"/>
	<path class="st0" d="M718.5,568c5.3,0.9,10.5,1.8,15.8,2.7c2.9,0.5,5.7,1.2,8.6,1.8"/>
	<path class="st0" d="M752.2,573.9c8.2,1.4,16.5,2.9,24.7,4.2c0.9,0.1,1.9-0.4,2.9-0.7"/>
	<path class="st0" d="M318.4,487.5c1.7,3.6,2.7,7.8,5.2,10.8c3.2,3.9,5.4,7.9,5.8,13c0.9,0.5,1.8,0.9,2.6,1.3
		c-0.2,0.1-0.4,0.2-0.6,0.3c1.9,3.2,3.7,6.5,5.6,9.7c1.1,1.8,2.6,3.4,3.9,5"/>
	<path class="st0" d="M614.9,658.5c-0.1,2.2-0.2,4.3-0.4,6.5"/>
	<path class="st0" d="M612.2,669.6c-0.2,3.1-0.4,6.2-0.6,9.8c-5.1-0.4-7.7-4.1-10.7-7c0.7-4.5,1.3-8.6,1.9-12.8"/>
	<path class="st0" d="M129.9,160.5c-2.2,7.8-4.3,15.5-6.5,23.3c-0.5,1.7-1,3.3-1.4,5"/>
	<path class="st0" d="M413.4,657.1c3.6,5.4,7.2,10.8,10.8,16.1"/>
	<path class="st0" d="M501.6,408.6c-0.4-0.2-0.7-0.7-1.1-0.7c-6.1-0.3-12.1-2.8-18.3-0.7"/>
	<path class="st0" d="M477.6,407c-1.1-0.5-2.2-1.1-3.2-1.6c0,0.2,0,0.3,0,0.5c-5-0.4-10.1-0.7-15.1-1.1c0-0.4,0-0.7,0-1.1
		c-4,1.1-8.1,2.3-12.1,3.4"/>
	<path class="st0" d="M707.4,532.7c-2.2-2.9-5.7-2-8.6-2.8c-4.2-1.1-8.6-1.7-12.9-2.2c-1.9-0.2-3.8,0.4-5.7,0.6"/>
	<path class="st0" d="M426.7,676.4c0,1.4-0.5,3.1,0.1,4.3c3.3,6.9,6.8,13.7,10.3,20.5c0.4,0.7,1.2,1.2,1.8,1.8"/>
	<path class="st0" d="M546.8,447.7c-1.4,3-4.7,3-7.2,4.2c-6.1,2.9-12.4,5.3-18.6,8"/>
	<path class="st0" d="M585.9,430.5c-8,6.3-17.8,8.8-26.9,12.9c-1.1,0.5-2.2,1.2-3.2,1.8"/>
	<path class="st0" d="M297.1,409.3c0.7,1.2,1.2,2.5,2,3.6c2.1,3,4.3,6,6.4,9"/>
	<path class="st0" d="M669,615.8c-0.5,4.5-0.9,9.1-1.5,13.6c-0.5,4.2-1.2,8.4-1.8,12.6"/>
	<path class="st0" d="M708.8,157c1.1,0.2,2.3,0.3,3.2,0.7c8,4,16,8.1,24,12.2c0.4,0.2,0.7,0.7,1.1,1.1c-0.1,1-0.3,2.1-0.5,3.5
		c0.8,0.7,1.7,1.5,2.6,2.2"/>
	<path class="st0" d="M746.8,185.3c3.6,1.9,7.2,3.8,10.8,5.7"/>
	<path class="st0" d="M732.1,258.8c-8.5,3.2-17,6.5-25.4,9.7"/>
	<path class="st0" d="M330.2,467.8c-4.4,0-8.9-0.1-13.3,0.1c-1.6,0.1-3.3,0.6-4.6,1.4c-9,5.6-16.5,12.5-21,22.5
		c-1.3,2.8-4.2,4.8-6.3,7.2"/>
	<path class="st0" d="M535.7,222.6c-1.8,9.3-3.6,18.6-5.4,28"/>
	<path class="st0" d="M542.8,382.4c2.2-0.1,4.3-0.5,6.4-0.3c11.6,1.1,23.2,2.3,34.8,3.6c1,0.1,1.9,0.9,2.9,1.4"/>
	<path class="st0" d="M605.2,401.8c-0.4-2.4-1.9-4.1-3.6-5.8c-2.9-2.9-5.6-5.9-7.9-9.3c-1.1-0.4-2.2-0.7-2.5-0.8
		c-9,3.8-17.4,7.3-25.8,10.9c-1.1,0.5-1.9,1.6-2.9,2.5"/>
	<path class="st0" d="M350.7,740.2c-3.7,4.7-7.4,9.3-11.1,14"/>
	<path class="st0" d="M111.9,402.9c2.7,2,5.7,3.9,8.2,6.1c7.4,6.5,16.2,10.6,24.4,15.7c1.7,1.1,3.3,2.2,5,3.2"/>
	<path class="st0" d="M268.6,357.7c4.3,5.9,8.6,11.7,12.9,17.6c1.7,2.2,1.8,4.5,0.3,6.8"/>
	<path class="st0" d="M736.1,176.3c-2.5,1.7-1.8,4.1-1,6.1c2,4.5,4.5,8.9,6.7,13.3c0.7,1.5,1.2,3.1,1.8,4.6"/>
	<path class="st0" d="M619.5,417.2c-2.9,2.7-7,2.8-10.4,4.6c-5.3,2.7-10.7,5.1-16.1,7.6"/>
	<path class="st0" d="M602,536.6c-6.2,3-12.3,6.2-18.7,8.8c-2,0.8-2.2,1.8-2.5,3.4"/>
	<path class="st0" d="M759.4,355.6c2-2.5-0.7-2.9-1.8-3.5c-5.1-2.8-10.2-5.3-15.4-7.9c-1.8-0.9-3.6-1.7-5.4-2.5"/>
	<path class="st0" d="M816.4,590.7c-0.4,0.7-0.7,1.9-1.3,2.1c-7.1,2.7-13.1,7.3-19.5,11.2c-6.2,3.7-12.4,7.2-18.7,10.7
		c-0.6,0.4-1.6,0.1-2.5,0.1"/>
	<path class="st0" d="M445,773.9c4.6,0.5,9.3,1,13.9,1.5c0-0.2,0-0.3,0-0.5c1.1,0.6,2.1,1.2,3.2,1.8"/>
	<path class="st0" d="M233.5,374.6c-0.8,0-1.7,0-2.5,0"/>
	<path class="st0" d="M216.6,375.8c-0.8,0.2-1.7,0.4-2.5,0.5"/>
	<path class="st0" d="M198,377.4c-2.7,2-5.9,1.4-9,1.5c-1.4,0-2.9,0.2-4.3,0.3"/>
	<path class="st0" d="M533.2,432.3c-6.8,2.6-13.6,5.2-20.4,7.9c-1.3,0.5-2.6,1.2-4.1,2.6c2.6,0.5,5.1,1,7.7,1.3
		c3.5,0.5,6.9,0.7,10.4,1.1"/>
	<path class="st0" d="M623.1,526.2c1.9-1.2,1.9-1.2,4.1-0.1c-5.8,1.3-10.9,3-15.3,6.5"/>
	<path class="st0" d="M611.7,533c-1.5,3.2,0.7,4.8,2.9,6.5c4.4,3.4,8.8,7,13.3,10.4c1.7,1.3,3.2,2.6,1.8,5"/>
	<path class="st0" d="M608.1,563.8c2.2,2.7,4.1,5.7,6.5,8.2c4.4,4.5,3.6,9.5,1.3,14.4c-2.5,5.5-5.4,10.8-8.2,16.2"/>
	<path class="st0" d="M361.8,746.7c2.2,3.1,7.4,5.5,11.1,6.6c2.8,0.8,6.1,1.9,7.6,5.2"/>
	<path class="st0" d="M388.3,761.7c3.8,2.6,7.7,5.2,11.5,7.9c2.2,1.6,4.5,2.2,7.2,1.8"/>
	<path class="st0" d="M304.8,475.7c2.3,4.8,4.4,9.6,6.8,14.3c3.9,7.5,8.1,14.8,12.2,22.2"/>
	<path class="st0" d="M911.7,209.3c-4.7,2.3-9.3,4.7-14,6.8c-2.9,1.2-6,2-8.9,2.9"/>
	<path class="st0" d="M633.9,537c-7.5-0.7-15.1-1.4-22.6-2.2"/>
	<path class="st0" d="M167.2,242.2c0.3,7.6-0.3,13.3-2.9,20.5"/>
	<path class="st0" d="M964.8,485c-1,0-2.1-0.4-2.8,0.1c-6.2,3.6-12.3,7.4-18.4,11c-0.1,2.9-0.2,5.4-0.4,7.9
		c-0.2-0.1-0.3-0.1-0.5-0.2c-1.6,3.6-3.2,7.3-4.9,10.9"/>
	<path class="st0" d="M532.4,397.2c5.1,0.6,10.3,1.2,15.4,1.8c1.7,0.2,3.3,0.6,5.4,1.1c0.1-0.1,0.8-0.6,1.4-1.1"/>
	<path class="st0" d="M425.2,666.7c1.4,2.5,4.3,4.4,3.2,7.9"/>
	<path class="st0" d="M432.8,682.9c3.3,4.9,7.2,9.6,8.2,15.8"/>
	<path class="st0" d="M301.2,137.2c-1.7-1.6-3.4-3-5-4.7c-4.1-4.2-9.1-6.9-14.7-8.6c-0.6-0.2-1.2-0.2-1.8-0.4"/>
	<path class="st0" d="M789.5,191.4c-4.3,0.7-8.6,1.4-12.9,2.2"/>
	<path class="st0" d="M623,667.4c-0.2,3.6-0.3,7.2-0.5,10.8c-0.1,1.4-0.2,2.9-0.4,4.3"/>
	<path class="st0" d="M604.5,373.1c0.8,1.6,1.4,3.4,2.6,4.6c5.6,5.4,11.5,10.5,17.1,15.9c4,3.8,7.5,8.5,12,11.6
		c3.9,2.7,6.9,6.1,10.2,9.2c0.4,0.3,0.5,0.9,0.7,1.4"/>
	<path class="st0" d="M881.6,533.4c-2.2,1.1-4.3,2.1-6.4,3.2c-3,1.6-6,3.3-8.9,5.1c-1.1,0.7-1.9,1.9-2.9,2.8"/>
	<path class="st0" d="M391.9,672.8c1.6,2.4,3.2,4.9,5,7.5c-1.2,3.2-2.4,6.8-3.8,10.7c6.7,5.6,13.4,11.1,20.1,16.6
		c0.4,0.3,1.2,0,1.8,0"/>
	<path class="st0" d="M1005.3,481.8c-4.8,3-9.4,6.4-14.4,8.8c-5.6,2.7-10.6,6.5-16.1,9.5c-4.8,2.6-9.3,5.5-14,8.2
		c-0.9,0.5-2.1,0.3-3.2,0.4"/>
	<path class="st0" d="M117.5,174.9c-1.1,3.9-2.3,7.9-3.4,11.8"/>
	<path class="st0" d="M629.2,556.7c-2,4.7-3.8,9.5-6.2,13.9c-2.7,5.1-3.1,9.4,1.1,14.1c3.4,3.8,6.1,8.2,9,12.3"/>
	<path class="st0" d="M108.7,485c1.4,6.3,2.9,12.7,4.3,19c0.2,0.8,0.5,1.7,0.7,2.5"/>
	<path class="st0" d="M735,524.9c-6.5,2-12.9,3.9-19.4,5.9"/>
	<path class="st0" d="M715.3,530.9c-2.3,0.9-2.7,2.8-3.4,5c-1.6,5-3.9,9.9-6,14.7c-1,2.4-2,4.7-0.3,7.2"/>
	<path class="st0" d="M547.1,410.1c2.3,0.4,4.5,0.8,6.8,1c3.6,0.3,7.2,0.6,10.8,0.7c1.2,0,2.4-0.4,3.6-0.7"/>
	<path class="st0" d="M522.8,480.3c1.7,6,3.3,12,5.1,17.9c0.3,1.2,1.2,2.2,1.8,3.2"/>
	<path class="st0" d="M627.4,556.3c-5.1,1.8-10.3,3.6-15.4,5.4c-7.2,2.4-14.4,4.7-21.5,7.2c-1.2,0.4-2.2,1.4-3.2,2.1"/>
	<path class="st0" d="M104.8,484.3c0.4,2.4,0.6,4.8,1.1,7.2c0.9,4.6,1.9,9.1,2.8,13.6"/>
	<path class="st0" d="M783,581.1c-0.1-0.6,0-1.4-0.4-1.8c-9.9-8.7-19.8-17.3-29.7-25.8c-1.2-1.1-2.6-1.9-4.2-3
		c-5.1,2.4-10.5,4.8-15.8,7.3c-0.8,0.4-1.2,1.4-1.8,2.1"/>
	<path class="st0" d="M180.9,307.5c-0.1,1.6-0.1,3.1-0.2,4.7"/>
	<path class="st0" d="M102.6,434.1c-1.3,2.8,1.1,4.6,1.8,6.8c1.2,4.2,2.4,8.4,3.6,12.5c0.2,0.5,0.7,1,1,1.4"/>
	<path class="st0" d="M98.7,156.6c-0.2,1.3-0.1,2.9-0.8,3.9c-2.6,3.3-3.2,7.4-4.6,11.2"/>
	<path class="st0" d="M593,430.5c3,0.5,6,1,9,1.4c3.7,0.4,7.4,0.7,11.3,1.5c-4.3,5-11.2,5-15.9,8.5c-2.8-3.2-5.2-6.1-7.6-8.9"/>
	<path class="st0" d="M585.5,429.1c-3.1-3.5-6.5-6.7-9.3-10.4c-3.7-4.9-8.7-8.3-12.6-12.9c-1.3-1.5-2.2-3.3-3.3-5"/>
	<path class="st0" d="M334,780c-2.6-2.2-3.6,0.7-4.8,1.9c-2.6,2.4-4.6,5.5-7.3,7.7c-2.4,2-5.4,3.2-8.2,4.8"/>
	<path class="st0" d="M619.5,654.9c2.3,0.7,4.5,1.7,6.8,2.1c4.1,0.6,8.4,0.8,12.5,1.2c0.4,0,0.7,0.4,1.1,0.7"/>
	<path class="st0" d="M670.1,611.2c1.2-6.8,2.5-13.5,3.7-20.3c-0.3-0.1-0.6-0.1-0.9-0.2c0.4-0.2,0.7-0.5,1.1-0.6
		c0.6-0.2,1.2-0.3,1.7-0.4c11.9,10,23.7,19.9,35.6,29.8"/>
	<path class="st0" d="M222,335.1c-1.7,1.1-3.3,2.2-5,3.2c-1.1,0.6-2.4,1-3.6,1.5"/>
	<path class="st0" d="M252.1,585.4c2.2,6.7,4.3,13.4,6.5,20.1"/>
	<path class="st0" d="M536.4,386.8c-1.8,0.5-3.6,0.8-5.4,1.5c-4.1,1.6-8.2,3.3-12.2,5c-0.7,0.3-1.2,1-1.8,1.6"/>
	<path class="st0" d="M116.6,245.5c-0.7,5.1-1.6,10.3-2.1,15.4c-0.2,1.5,0.6,3.1,1,4.7"/>
	<path class="st0" d="M571.5,415.1c-2.5,2.8-6.1,3.3-9.3,4.6c-4,1.7-8.1,3.3-12.2,5.1c-0.8,0.4-1.4,1.2-2.2,1.8"/>
	<path class="st0" d="M672.6,591.1c-4.4,2.2-8.9,4.2-13.3,6.5c-5.8,3-11.5,6.1-17.2,9.3c-1.7,1-3.1,2.4-4.7,3.5"/>
	<path class="st0" d="M413.8,704.7c0.4,0.8,0.6,1.7,1.1,2.5c1.6,2.5,3.3,4.7,6.4,5.9c3.1,1.2,5.8,3.7,8.7,5.6c1.4,1,2.8,2.1,4.3,2.8
		c6.2,3,11.8,6.8,16.4,11.9c0.8,0.9,1.2,2.1,1.8,3.2"/>
	<path class="st0" d="M118.4,573.9c1.7,2.5,3.1,5.3,5.1,7.5c3.5,3.9,7.5,7.4,12.5,9.4"/>
	<path class="st0" d="M750.6,552.7c-1.1,6.6-2.3,13.1-3.4,19.7"/>
	<path class="st0" d="M760.8,155.5c-1.6,0.2-3.2,0.3-4.6,0.8c-2.7,0.9-5.2,2.4-7.9,3.1c-5.8,1.6-9.5,5.3-11.5,10.8"/>
	<path class="st0" d="M598.4,413.6c5.6,0.5,11.2,1,16.9,1.4c0.9,0.1,1.9-0.4,2.9-0.7"/>
	<path class="st0" d="M238.8,529.4c-4-0.7-7.1-3.5-9.1-6.3c-2.6-3.6-6.1-5.3-9.6-7.4"/>
	<path class="st0" d="M567.6,577.8c4.3,6.6,8.6,13.1,12.9,19.7"/>
	<path class="st0" d="M994.7,471c-4.1,6.3-5.5,13.6-7,20.8"/>
	<path class="st0" d="M584.1,518.7c1.3,0.1,3-0.2,3.9,0.4c5.3,3.8,10.4,7.8,15.4,11.8c0.8,0.7,1.2,1.9,1.8,2.8"/>
	<path class="st0" d="M499.1,483.2c1.8,1.4,3.6,1.1,5.8,0.4c4.1-1.3,8.3-2,12.5-3"/>
	<path class="st0" d="M809.2,182.8c-6.5-1.2-12.9-2.4-19.4-3.6"/>
	<path class="st0" d="M127.7,647.4c0.4,2.2,0.4,4.4,1.1,6.4c1.7,4.4,3.8,8.6,5.7,12.9"/>
	<path class="st0" d="M111.3,250.1c-0.4,4.9-0.5,9.8-2.3,14.5"/>
	<path class="st0" d="M617,579.3c-5.7,2.4-11.5,4.8-17.2,7.1c-0.6,0.2-1.4,0-2.1,0"/>
	<path class="st0" d="M721.7,510.1c-2.5,6.5-5,12.9-7.5,19.4"/>
	<path class="st0" d="M209.1,232.6c1.4,4.7,6.7,7.3,2.2,12.5"/>
	<path class="st0" d="M1037.9,440.9c-3.8,2-7.7,4-11.5,6.1c-6.1,3.5-12.2,7.1-18.3,10.7c-7.2,4.4-14.3,8.8-21.5,13.3
		c-0.4,0.3-0.7,0.7-1.1,1.1"/>
	<path class="st0" d="M591.6,429.8c-1.4-3,1-5.1,1.9-7.5c2.4-6.2,5.4-12.2,8.2-18.3c0.2-0.4,0.9-0.5,1.4-0.7"/>
	<path class="st0" d="M608.4,403.2c4.5,3.1,7.2,7.8,11.1,11.5"/>
	<path class="st0" d="M619.9,415.1c0.7,0.5,1.8,1.5,2.1,1.3c4.1-2.6,8.2,0,12.2,0.1c4.5,0.1,9.1,0,14.6,0c0.2,0.3,0.9,1.2,1.6,2.2"
		/>
	<path class="st0" d="M99,144.1c-1.3,0.5-2.6,1-3.9,1.4"/>
	<path class="st0" d="M89.3,164.1c-1.1,4.1-2.1,8.1-3.3,12.2c-0.3,1.1-0.9,2.2-1.4,3.2"/>
	<path class="st0" d="M150.3,343c-0.4,3,0.5,5.3,3.8,6.5c0.6,3.9,0.7,8,2.2,11.7c0.9,2.3,1.8,5.5,5.2,6.3c0.8,0.2,1.5,1.3,2.2,2.1
		c3.7,4.1,7.1,8.6,13.3,9"/>
	<path class="st0" d="M506.3,394.3c-4.1-0.1-8.1-0.1-12.2-0.4c-2.3-0.1-4.5-0.7-6.8-1"/>
	<path class="st0" d="M736.6,173.4c-4.6-1.3-9.2-2.6-13.8-4c-1.8-0.6-3.6-1.4-5.4-2.1"/>
	<path class="st0" d="M1014.6,459.2c-1.3,2.9-2.8,5.7-3.9,8.6c-1.2,3.3-1.5,7-4.3,9.7c-0.5,0.5-0.1,1.8-0.1,2.8"/>
	<path class="st0" d="M521,415.8c-5.4,1.9-10.8,3.7-16.1,5.8c-0.7,0.3-1,1.8-1.5,2.8"/>
	<path class="st0" d="M470.8,421.9c2.1,1.1,5.1-1.5,6.8,1.4"/>
	<path class="st0" d="M477.6,423.7c1.4-0.2,2.9-0.7,4.3-0.7c1.6,0,3.1,0.4,4.7,0.7"/>
	<path class="st0" d="M504.8,425.3c1.6,0.2,3.1,0.4,4.7,0.5"/>
	<path class="st0" d="M518.5,426c4.4,0.4,8.8,0.8,13.3,1.3"/>
	<path class="st0" d="M542.1,427.8c6.5,0.4,12.9,0.8,19.4,1.2c6.2,0.4,12.4,0.7,18.6,1.1c1.2,0.1,2.4,0.9,3.6,1.4"/>
	<path class="st0" d="M1005.3,464.2c-1.3,2.3-2.8,4.5-3.9,6.8c-2.1,4.5-3.1,9.4-6.5,13.2"/>
	<path class="st0" d="M547.8,196.8c-0.1,4.1-0.3,8.1-0.3,12.2c0,2,0.3,4,0.4,5.6c-3.4,1.9-6.2,3.6-9,5.2"/>
	<path class="st0" d="M272.5,480c1.1,2.4,1.9,4.9,3.3,7.1c2.5,4,5.4,7.7,8.2,11.5"/>
	<path class="st0" d="M746.1,578.5c-0.8,3.1-1.8,6.2-2.5,9.3c-0.7,3.1-1.2,6.2-1.8,9.3"/>
	<path class="st0" d="M712,532.7c-2.4,0.5-4.8,0.8-7.2,1.5c-5.4,1.5-10.8,3.1-16.1,4.6"/>
	<path class="st0" d="M292.2,216.8c-0.7,0-1.4,0-2.2,0"/>
	<path class="st0" d="M642.1,570.3c-4.9,1.9-9.8,3.8-14.7,5.7c-1.2,0.5-2.4,1.2-3.6,1.8"/>
	<path class="st0" d="M347.5,559.5c-1.9,3.5-3.7,7-5.8,10.4c-1.5,2.5-3.3,4.8-5,7.2"/>
	<path class="st0" d="M602.7,535.2c-2.7-0.6-5.5-1.4-8.2-1.8c-4.6-0.6-9.3-1-14-1.5"/>
	<path class="st0" d="M540.7,428.7c2.2,2.9,4.2,5.8,6.5,8.6c2.3,2.9,4.9,5.7,7.5,8.6c-1.8,4.1-3.6,8.1-5.3,12.2
		c-0.3,0.7,0.2,1.7,0.3,2.5"/>
	<path class="st0" d="M528.5,444.5c3.7,0.6,7.4,1.4,11.1,1.7c4.5,0.4,9.1,0.3,13.6,0.4"/>
	<path class="st0" d="M942.9,497.2c-3.2,0.6-5.8,2.2-8.2,4.6c0.8,6.3,1.6,12.5,2.4,18.7"/>
	<path class="st0" d="M125.2,190.3c0.4,1.9,0.7,3.8,1.1,5.7"/>
	<path class="st0" d="M651.8,665.3c-2.2,3.9-1.8,8.3-1.8,12.5c0,1.8,0.4,3.6,0.7,5.4"/>
	<path class="st0" d="M526,481c4.7,1.7,9.3,3.3,14,5c1.3,0.5,2.6,1,3.9,1.4"/>
	<path class="st0" d="M311.2,322.6c-0.7,0.9-1.4,1.8-2.1,2.6c2.4,5.9,1.6,9.7-2.6,13.5c-1.2,1.1-2.4,2.4-3.6,3.6"/>
	<path class="st0" d="M664.7,616.5c-4.3,2.4-8.6,4.7-12.9,7.2c-1.5,0.8-2.7,2.1-4,3.2"/>
	<path class="st0" d="M523.8,339.4c4.7,3.9,9.3,7.9,14,11.8c1,0.9,2.1,1.7,3.2,2.5"/>
	<path class="st0" d="M240.1,483.2c-0.2,3.1-0.2,6.2-0.6,9.3c-0.1,1.2-0.9,2.4-1.4,3.6"/>
	<path class="st0" d="M174.8,302.5c0.1,1.8,0.1,3.6,0.2,5.4"/>
	<path class="st0" d="M474,758.9c-2,4.5-0.5,9,0.5,13.2c1,4,0.1,7.5-0.9,11.1c-0.4,1.5-1,2.8-1.6,4.3c0.8,0.9,1.6,1.7,2.3,2.5"/>
	<path class="st0" d="M86.1,162.3c-2.7,3.6-2.2,8.1-3.2,12.2c-0.4,1.6-0.5,3.3-0.7,5"/>
	<path class="st0" d="M227.7,231.9c-1.2-1.3-2.4-2.6-3.6-3.9"/>
	<path class="st0" d="M263.2,145.1c3.2-0.7,5.5,1.1,7.9,2.9c2.9,2.1,5.5,4.6,9.3,5"/>
	<path class="st0" d="M666.5,656.3c-7.5,1.1-14.8,3.7-22.6,3.3c-1.5-0.1-3.1,0.2-4.7,0.3"/>
	<path class="st0" d="M415.6,784c-2.5-2.6-3.5-5.8-3.9-9.3"/>
	<path class="st0" d="M410.5,767.8c-4.8-1.4-9.6-2.9-14.3-4.3"/>
	<path class="st0" d="M184.9,335.5c-0.2-0.6-0.4-1.2-0.5-1.8"/>
	<path class="st0" d="M903.8,520.5c-0.1,3.5-0.2,6.9-0.4,10.4"/>
	<path class="st0" d="M901.1,534.1c-0.5,2.7-1,5.4-1.6,9.3c-4.3,2.6-9.6,5.9-15,9c-2,1.1-4.3,1.7-6.4,2.6"/>
	<path class="st0" d="M151.4,261.3c-2.1,1.8-1.5,4.5-2.1,6.8c-0.9,3.5,0.2,7.5-2.9,10.4"/>
	<path class="st0" d="M628.5,666.4c-0.5,2.2-1.1,4.3-1.4,6.5c-0.5,3.5-0.8,7-1.1,10.6"/>
	<path class="st0" d="M196.9,239.8c0.2,4.4-0.4,8.7-1.8,12.9"/>
	<path class="st0" d="M134.9,568.5c2.5,5.6,5,11.2,7.5,16.9"/>
	<path class="st0" d="M813.8,573.5c0.2,1.8,0.4,3.6,0.7,5.4c0.4,2.1,0.9,4.1,1.4,6.2c0.2,0,0.5-0.1,0.7-0.1
		c-0.1,1.7-0.3,3.3-0.4,5.1c3,1.2,4.1-1,6-3c-0.8-1.7-1.6-3.6-2.4-5.2c0-3.9,0-7.7,0-11.5"/>
	<path class="st0" d="M210.5,260.9c-0.7,3.1-1.4,6.2-2.2,9.3"/>
	<path class="st0" d="M951.9,499.3c-3.3,1.3-2.5,4.8-3.5,7.2c-1.2,2.8-1.5,5.9-2.3,8.9"/>
	<path class="st0" d="M213,150.5c-1.7-3.4-1.5-4.2,2.2-6.1"/>
	<path class="st0" d="M215.5,144.4c2.2,1,4.4,2,6.9,3.2c3.4-1.6,6.2,0.9,9.2,2.6"/>
	<path class="st0" d="M188.6,285.3c0.4,1.6,1,3.1,1,4.7c0.1,3.3-0.2,6.7-0.3,10"/>
	<path class="st0" d="M188.3,305.7c-0.1,1.4-0.2,2.9-0.4,4.3"/>
	<path class="st0" d="M477.9,410.1c-5.5,2.3-11,4.5-16.5,6.8"/>
	<path class="st0" d="M661.8,662.8c-2.4,5.4-2.3,10.9-0.9,17.2c1.7-0.9,3.3-1.7,4.9-2.5"/>
	<path class="st0" d="M663.6,499c-5.5,3-11,6-16.5,9"/>
	<path class="st0" d="M835.7,573.2c0.3-2.7,0.5-5.5,0.7-8.1c-1.3-1.1-2.4-2-3.8-3.1c-2,1.2-4.3,2.6-6.6,4.1"/>
	<path class="st0" d="M825.7,573.5c-0.7,2.7-1.4,5.5-2.2,8.2c-0.2,0.6-0.7,1.2-1,1.8"/>
	<path class="st0" d="M554.3,363.1c3.3,1.1,6.7,2.3,10.1,3.2c3.1,0.8,6.2,1.2,9.3,1.8"/>
	<path class="st0" d="M576.9,370.6c2.9,3.1,5.8,6.2,8.6,9.3c1.6,1.8,3.1,3.6,4.7,5.4"/>
	<path class="st0" d="M847.7,550.6c0.7,2.5,1.3,5,2,7.5"/>
	<path class="st0" d="M891.6,161.3c-3.8,2.2-7.6,4.3-11.5,6.4c-1.4,0.8-2.9,1.4-4.3,2.2"/>
	<path class="st0" d="M228.4,244.1c-0.2,1.8-0.5,3.6-0.7,5.4"/>
	<path class="st0" d="M1080.2,416.9c-2.3-0.7-4,0.3-5.8,1.7c-2,1.6-4.5,2.6-6.7,4c-3.8,2.4-7.4,5-11.1,7.5"/>
	<path class="st0" d="M508.4,396.8c-3.8,3.8-9.3,3.9-13.6,6.5c-1.3,0.8-2.4,1.9-3.6,2.8"/>
	<path class="st0" d="M601.3,404c-1.2,0-2.6-0.4-3.6,0.1c-5.2,2.6-10.2,5.7-15.5,8.1c-2.7,1.2-5.9,1.3-8.9,1.9"/>
	<path class="st0" d="M1023.9,452.7c-3.6,2.4-3.4,6.5-4.7,10c-0.6,1.8-0.2,4.1-2.9,4.7"/>
	<path class="st0" d="M686.4,487.5c-3.9,2-7.8,3.9-11.6,6.2c-1.4,0.8-2.4,2.3-3.6,3.5"/>
	<path class="st0" d="M576.9,369.2c2.4-0.8,4.5-1.3,7.2-0.2c3.5,1.4,7.6,1.4,11.4,1.9c0.7,0.1,1.4-0.7,2.1-1"/>
	<path class="st0" d="M503,404.7c0.1,0.8,0.3,1.7,0.5,3.2c5.4,0.3,11,0.6,16,0.9c3.8,0.4,6.9,0.7,10,1.1c0,0.2,0,0.4,0,0.6
		c2.2-0.3,4.3-0.7,5.9-0.9c3.6,0.5,6.8,0.8,9.9,1.2"/>
	<path class="st0" d="M252.8,150.5c-0.4,3,0.7,5.1,3.1,7.3c1.7,1.6,5.3,2.9,3.7,6.7"/>
	<path class="st0" d="M742.9,574.2c-5.1,2.4-10.3,4.8-15.4,7.2"/>
	<path class="st0" d="M479,432.3c4.3-1.8,8.7-3.5,13-5.3c0.2,0.2,0.4,0.5,0.5,0.7c-2.1,4.2-4.2,8.4-6.7,13.4
		c5.8,0.8,11.1,1.5,16.4,2.3"/>
	<path class="st0" d="M240.3,503.1c-1,1.2-1,1.2-1.4,5.2c-0.4,3.8-1.3,7.7-0.9,11.5c0.6,5.8,2,11.5,3.1,17.2
		c0.2,1.1,0.5,2.2,0.7,3.2"/>
	<path class="st0" d="M964.4,487.5c-2.7,2-2.5,5.1-3.2,7.9c-0.6,2.5-0.2,5.5-3.2,6.8"/>
	<path class="st0" d="M145.1,202.1c0.5,1,1,2,1.7,3.3c1.6-0.2,3.3-0.3,5-0.5"/>
	<path class="st0" d="M515.2,426.5c-1.6,3.5-3.2,6.9-4.6,10.4c-0.6,1.5-1,3.1-1.5,4.7"/>
	<path class="st0" d="M561.1,630.2c1.6,1.6,3.1,3.1,4.7,4.7"/>
	<path class="st0" d="M479.4,408.3c0.5,1.3,0.7,2.8,1.5,3.9c1.7,2.4,3.9,4.5,5.6,6.9c0.9,1.2,1.2,2.8,1.8,4.3"/>
	<path class="st0" d="M503.4,407.5c-1.1,1.7-2.3,3.3-3.2,5c-1.8,3.8-3.4,7.6-5.1,11.5"/>
	<path class="st0" d="M623.1,393.9c-5,2.4-10,4.8-15.1,7.2"/>
	<path class="st0" d="M739.3,570.7c-0.1-0.8,0.1-1.9-0.4-2.5c-2.4-2.8-4.9-5.4-7.2-7.9c-5.4-0.8-9.1,2.7-13.5,4.3
		c-0.5,0.2-0.7,1.4-1.1,2.1"/>
	<path class="st0" d="M493,428c4.5,4.4,9,8.7,11.5,14.7"/>
	<path class="st0" d="M242.8,463.5c-2.3,3.3-3.8,7-3.2,11.1c0.2,1.4,0.9,2.6,1.4,4"/>
	<path class="st0" d="M808.1,577.5c0.1,0.6,0.5,1.6,0.3,1.7c-2.9,2.3-2,5.7-2.8,8.7c-0.6,2.3-1.6,4.5-2.1,6.8
		c-0.2,1.1,0.4,2.4,0.6,3.6"/>
	<path class="st0" d="M112.5,410.1c1.1,3.3,2.3,6.7,3.4,10c0.5,1.6,1.2,3.1,1.8,4.7"/>
	<path class="st0" d="M523.8,410.4c-0.4,1.8,1.2,2,2.1,2.9c3.1,3.3,6.1,6.8,9,10.4c0.7,0.8,0.8,2.1,1.1,3.2"/>
	<path class="st0" d="M120.5,172c2.8,3.1,0.4,6.5,0.1,9.7c-0.2,1.9-0.5,3.4,0.6,5"/>
	<path class="st0" d="M573.3,450.2c-2.5-0.6-5-1.4-7.5-1.7c-2.5-0.3-5,0.1-7.5-0.1c-1-0.1-1.9-1.1-2.9-1.7"/>
	<path class="st0" d="M537.1,428.3c-6.5,9.1-10.8,19.5-16.5,29c-0.3,0.5-0.5,1.2-0.7,1.8c2.1,3.5,4.3,6.9,6.4,10.4"/>
	<path class="st0" d="M516.3,379.6c-1.1,3-2,6-3.3,8.9c-0.9,2-2.1,3.8-3.2,5.8"/>
	<path class="st0" d="M1048.7,435.1c0.4-0.6,0.6-1.4,1.1-1.8c2.3-1.3,4.2-3.9,7.5-2.6c3.3,1.4,1.8,4.2,2.1,6.5
		c0.3,2.3,0.5,4.5,0.7,6.8"/>
	<path class="st0" d="M552.2,401.1c-2.7,1.7-3.5,4.4-4.8,7.1c-2.8,6-6.3,11.8-9.6,17.6"/>
	<path class="st0" d="M201.6,130.4c-0.3-4.4-3.9-5.5-7.2-6.8"/>
	<path class="st0" d="M179.7,114.3c0.1-0.7,0.2-1.4,0.4-2.2c-0.5-0.7-1-1.4-1.4-2.2"/>
	<path class="st0" d="M701.6,516.9c4.3,4.7,8.6,9.3,12.9,14"/>
	<path class="st0" d="M607.4,379.2c-3.2,1.6-6.5,3.1-9.7,4.7c-1.2,0.6-2.3,1.3-4.1,2.4c5.7,0.6,10.5,1.1,15.3,1.6"/>
	<path class="st0" d="M194.7,327.2c-0.4,2.7,0.8,4.6,2.5,6.5"/>
	<path class="st0" d="M360.4,398.2c4.1,4.2,8.1,8.4,12.2,12.6"/>
	<path class="st0" d="M507.7,444.5c3.8,4.8,7.6,9.6,11.5,14.3"/>
	<path class="st0" d="M569,367.7c-1.4,2.6-1.6,6.1-4.7,7.5c-2.4,1-5.1,1.3-7.5,2.3c-2.3,1-5.3,1-6.1,4.2"/>
	<path class="st0" d="M477.9,758.1c1.7,3.4,3,6.9,2.9,10.8"/>
	<path class="st0" d="M107.3,165.6c-1.1,2-2.1,4.1-3.2,6.1"/>
	<path class="st0" d="M566.5,347c-0.4-0.7-0.9-1.5-1.4-2.3c-4.1,1.9-8,3.7-11.9,5.5"/>
	<path class="st0" d="M506.3,445.2c-2.5,4.7-5,9.3-7.5,14"/>
	<path class="st0" d="M583,412.6c3.6,0.4,7.2,0.7,10.8,1.1c1.1,0.1,2.2,0.5,3.2,0.7"/>
	<path class="st0" d="M764.4,564.6c-3.2,1.7-6.5,3.3-9.7,5c-1.4,0.8-2.6,1.9-4,2.8"/>
	<path class="st0" d="M562.5,429.8c-1.4,3.2-2.9,6.4-4.3,9.7c-0.6,1.4-0.7,2.9-1.1,4.3"/>
	<path class="st0" d="M656.5,661.4c0,2.5-0.9,4.9-1.2,7.2c-0.5,4.1,0.5,8.3,0.8,12.5"/>
	<path class="st0" d="M1048.3,454.9c0.9-3.6,1.8-7.2,2.7-10.9c-0.7-2.9-1.4-5.9-2.3-9.9c-3.8,2.2-6.8,3.9-9.7,5.8
		c-0.4,0.3-0.2,1.4-0.4,2.1c-1.6,4.3-1.4,9.2-4.6,12.9"/>
	<path class="st0" d="M117.7,143.3c-0.7-1.1-1.4-2.2-2.2-3.2"/>
	<path class="st0" d="M775.5,181c2.4-2.4,5.5-2.7,8.6-2.9"/>
	<path class="st0" d="M500.9,386c2.3,2.6,4.5,5.3,6.8,7.9"/>
	<path class="st0" d="M512,396.1c3.6-2.5,7.2,0.3,10.8,0.1c3-0.1,6,0.6,9,1"/>
	<path class="st0" d="M195.8,155.5c1.9,0,3.8-0.2,5.7,0.1c1.6,0.2,3.1,0.9,4.7,1.4"/>
	<path class="st0" d="M181.1,104.6c-3.7-2.8-8-1.5-11.4-0.1c-3.2,1.3-6.6,1.6-9.8,2.6"/>
	<path class="st0" d="M1072.3,421.2c-1,4.1-1.9,8.2-3,12.8c-1.5-1-2.3-1.5-3.6-2.4c-0.9,2.4-2.1,4.7-2.7,7.1
		c-0.5,2.2-1.3,4.1-2.9,5.8c-1.3,1.4-1.8,3.4-0.4,5.3"/>
	<path class="st0" d="M219.8,234.8c-0.4,2.4-0.7,4.8-1.1,7.2"/>
	<path class="st0" d="M503.4,443.2c-3.9,2-7.9,3.9-11.8,5.9c-0.6,0.3-1,0.9-1.4,1.4"/>
	<path class="st0" d="M617.8,419.4c-1.7,4.5-3.3,9.1-5,13.6"/>
	<path class="st0" d="M672.2,614.4c1.1,0.7,2.2,1.4,3.3,2.2c-0.1,0.1-0.2,0.2-0.3,0.3c4.5,4,9,7.9,13.5,11.9"/>
	<path class="st0" d="M289,408.3c2.6,3.9,5.3,7.9,7.8,11.9c0.3,0.4,0,1.2,0,1.8"/>
	<path class="st0" d="M147.4,308.6c-1-1.2-2.1-2.3-2.8-3.6c-1-1.7-2.4-2.4-4.3-2.1"/>
	<path class="st0" d="M832.1,563.1c-0.5,3.2-0.8,6.5-1.5,9.7c-0.2,0.9-1.4,1.7-2.1,2.5"/>
	<path class="st0" d="M186.9,116.8c-1.4,0.2-2.9,0.5-4.3,0.7"/>
	<path class="st0" d="M257.5,150.5c0.1,4.8,4.2,6.9,6.8,10"/>
	<path class="st0" d="M264.6,160.9c0.6,0.6,1.2,1.7,1.8,1.7c3.1,0,5.2,1.8,7.6,3.3c0.7,0.4,1.6,0.3,2.5,0.4"/>
	<path class="st0" d="M754.3,206.1c-3.6-1.7-7.1-3.4-11-5.2c-2.7,2.5-2.1,4,2.6,6.5c2.1,1.7,4.1,3.5,6.2,5.2"/>
	<path class="st0" d="M753.4,216.5c-1.3,2.4,0.4,4.3,0.9,6.5c0.3,1.3,0.5,2.6,0.7,3.9"/>
	<path class="st0" d="M141.1,284.6c-0.2,0.8-0.4,1.7-0.5,2.5"/>
	<path class="st0" d="M246.7,111.4c-2.5-0.1-5-0.2-7.5-0.4"/>
	<path class="st0" d="M246,228.7c-1.9,4.2-2.4,8.5-1.1,12.9"/>
	<path class="st0" d="M437.8,713c-3.8-2.4-7.6-4.8-11.5-7.2"/>
	<path class="st0" d="M671.5,675c-0.4-3.1-0.7-6.2-1.1-9.6c-0.7-0.3-1.5-0.6-2.3-0.9c-0.9,1.2-1.8,2.3-2.6,3.3"/>
	<path class="st0" d="M665.6,675.3c0.3,1.2,0.4,2.9,2.3,1.8c3.6-2,8-2.9,10.4-6.8"/>
	<path class="st0" d="M251.7,242.6c0,3.1,0,6.2,0,9.3"/>
	<path class="st0" d="M844.3,555.6c0,1.8,0.5,3.8-0.1,5.3c-1,2.4,0.6,5.6-2.4,7.2"/>
	<path class="st0" d="M150.3,199.6c0.1,1,0.2,1.9,0.4,2.9"/>
	<path class="st0" d="M588.7,433.7c-2.3,4.1-5.2,8-5.4,12.9"/>
	<path class="st0" d="M657.5,599.7c3.8,3.7,7.7,7.4,11.5,11.1c0.8,0.8,1.4,1.7,2.2,2.5"/>
	<path class="st0" d="M173.9,182.4c-0.5,2.9-1,5.7-1.4,8.6"/>
	<path class="st0" d="M1108.9,398.2c-4.2,2.6-8.5,5.1-12.4,7.4c0,2.4,0,3.9,0,5.8c2,2.3,2,5.4,1.6,8.6c-0.2,1.3-0.5,2.6-0.7,3.9"/>
	<path class="st0" d="M542.1,466c2.6,1.1,5.3,2.1,7.9,3.2c1.7,0.7,3.3,1.6,4.3,2.1c-0.1,2.5-0.2,4.3-0.3,6.1"/>
	<path class="st0" d="M1048.3,436.6c-1.1,3-2.1,6-3.3,8.9c-0.4,1-1.2,1.9-1.8,2.9"/>
	<path class="st0" d="M370,596.1c-0.1,0.8,0,1.8-0.4,2.5c-2.1,3.3-4.3,6.5-6.4,9.7"/>
	<path class="st0" d="M209.1,137.2c-0.2,3-0.4,6-0.8,9c-0.1,1.2-0.7,2.4-1,3.6"/>
	<path class="st0" d="M1004.9,461c1.6,3.8,1.7,7.8,1.1,11.8c-0.2,1.4,0.2,2.9,0.3,4.3"/>
	<path class="st0" d="M213,124.2c3.9,0,7.9,0,12.7,0c0.2,0.4,0.7,1.2,1.3,2"/>
	<path class="st0" d="M442.1,727.3c1.2,2.4,2.4,4.8,3.6,7.2c0.9,1.7,1.9,3.4,2.9,5"/>
	<path class="st0" d="M745.4,573.9c0.3,1.3,0.6,2.6,0.9,3.6c3.9,4,7.6,7.9,11.3,11.8"/>
	<path class="st0" d="M545,593.2c0.8,1.4,1.6,2.9,2.5,4.3c1.1,1.6,2.4,3.1,3.8,4.6c1.4,1.8,2.7,3.6,4.1,5.4"/>
	<path class="st0" d="M238.5,245.5c0.1,2.2,0.2,4.3,0.4,6.5"/>
	<path class="st0" d="M519.5,460.2c-5,2.3-10,4.5-15.1,6.8"/>
	<path class="st0" d="M230.9,231.9c-0.4,4.1-0.7,8.1-1.1,12.2"/>
	<path class="st0" d="M771.5,609.7c-1.1,2.7-2,5.5-3.3,8c-0.7,1.3-1.9,2.6-3.2,3.4c-4.3,2.8-8.8,5.3-13.2,7.9
		c-5.7,3.4-11.5,6.7-17.2,10c-0.7,0.4-1.7,0.3-2.5,0.4"/>
	<path class="st0" d="M638.5,408.6c-3,1.6-6,3.1-9,4.7c-0.8,0.4-1.4,1.1-2.2,1.6"/>
	<path class="st0" d="M211.6,117.2c-3.9-0.9-7.9-1.6-11.8,0"/>
	<path class="st0" d="M934.3,502.2c-3.3,1.7-6.7,3.3-10,5c-3,1.6-2,4.3-1.3,6.4c1.2,4.1,1.7,8.1,1,12.2"/>
	<path class="st0" d="M1056.2,430.8c-1.4,3.9-2.9,7.9-4.3,11.8"/>
	<path class="st0" d="M715.6,532.7c3.9,4.7,7.9,9.3,11.8,14"/>
	<path class="st0" d="M651.1,486.1c2.9,2.3,5.8,4.5,8.6,6.9c0.8,0.7,1.2,1.9,1.8,2.8"/>
	<path class="st0" d="M107.3,363.1c1.2,0.2,2.4,0.4,4.3,0.7c-2.3,5.9,0.3,12.1-3.6,17.2"/>
	<path class="st0" d="M760.4,605.1c-3.8,1.9-7.6,3.8-11.1,5.5c0,3.4,0,6.3,0,9.2"/>
	<path class="st0" d="M731.2,633c0.1,2.3,0.3,4.5,0.4,7.2c-1.8,1-3.3,3.5-6.3,2.4"/>
	<path class="st0" d="M118,523c0.8,3.8,1.7,7.6,2.5,11.5"/>
	<path class="st0" d="M985.9,492.5c-0.4-1.1-1.2-2.2-1-3.2c0.8-4.9-0.5-9.9,1.3-14.7c0.3-0.8-0.6-2-1-3.1
		c-5.9,3.5-11.4,6.7-16.9,9.9c-0.9,0.6-1.7,1.4-2.5,2.1"/>
	<path class="st0" d="M966,488.2c-0.5,4.9-1.1,9.8-1.6,14.7"/>
	<path class="st0" d="M766.9,200.7c2.3,1.8,4.5,3.6,7.2,5.7c-1.6,1.6-2.8,2.8-4,4"/>
	<path class="st0" d="M957.8,504.7c-0.4,5.7-4.6,9.6-11.3,10.8"/>
	<path class="st0" d="M623.8,406.1c-3.8-1.3-7.6-1.7-11.5-0.7"/>
	<path class="st0" d="M228.4,109.6c-2.2-1.4-4.2-3.4-7.2-2.2"/>
	<path class="st0" d="M192.9,100.9c-2.6-0.3-5,0.2-6.8,2.3"/>
	<path class="st0" d="M541.4,355.6c-3.7,1.8-7.4,3.6-11.1,5.4"/>
	<path class="st0" d="M217,145.1c-0.4,1.4-0.7,2.9-1.1,4.3"/>
	<path class="st0" d="M547.8,405c-4,0.1-7.5,1.6-10.4,4.3"/>
	<path class="st0" d="M125.9,120c-2.9,1.3-5.7,2.6-8.6,3.9"/>
	<path class="st0" d="M921.8,510.1c-1,0.1-2.1-0.1-2.8,0.4c-6.7,4.2-13.4,8.5-20.1,12.7c-1.6,1-3.5,1.6-5,2.3c0,3.1,0,5.5,0,7.9"/>
	<path class="st0" d="M895.2,538c-0.4,2.5-1.5,5.1,0.4,7.5"/>
	<path class="st0" d="M138.1,120.8c-1.3,3.6-4,4.7-7.5,4.3"/>
	<path class="st0" d="M776.2,595.8c-3.4,1.7-6.9,3.5-9.7,4.9c0,3.6,0.4,6.4-0.1,9.1c-0.5,2.8-0.1,5,1.5,7.2"/>
	<path class="st0" d="M511.3,396.8c2.4,3,4.8,6,7.1,9c0.5,0.6,0.7,1.4,1.1,2.1"/>
	<path class="st0" d="M1074.8,419c1.3,2.5,2.2,4.9,1.5,7.9c-0.7,2.8-1,5.7-1.5,8.6"/>
	<path class="st0" d="M749.3,397.9c-0.9-3.5-3.2-5.3-7.5-5.7"/>
	<path class="st0" d="M732.1,386.2c-0.7-0.1-1.4-0.1-2.2-0.2"/>
	<path class="st0" d="M942.9,505.1c0.4,2.2,0.6,4.3,1.1,6.4c0.4,1.4,1.2,2.6,1.7,4"/>
	<path class="st0" d="M243.5,246.2c-0.2,3.6,0.9,7.3-1.1,10.8"/>
	<path class="st0" d="M1088.5,412.9c-1.1,2.4-2.1,4.8-3.2,7.2c-0.5,1.1-1.2,2.2-1.8,3.2"/>
	<path class="st0" d="M625.3,405.4c3.6,0.1,7.2,0.2,10.8,0.4"/>
	<path class="st0" d="M772.6,598.3c0,3.6,0,7.2,0,10.8"/>
	<path class="st0" d="M669,498.6c0.3,3.1,3.2,3.9,5,5.7c1.2,1.2,2.4,2.4,3.6,3.6"/>
	<path class="st0" d="M184.7,145.8c-0.2-3.6,2.9-4.5,5-6c0-0.2,0-0.3,0-0.4c-0.1,0.1-0.3,0.2-0.4,0.2c-3.3-1.6-6.4-3.9-10.4-2"/>
	<path class="st0" d="M561.8,367c-3.6-0.5-7.2-1-10.8-1.4"/>
	<path class="st0" d="M785.5,196.8c1.2,3.6,2.4,7.2,3.6,10.8"/>
	<path class="st0" d="M531.4,397.9c-1.7,3.6-3.3,7.3-5,10.9"/>
	<path class="st0" d="M286.5,644.2c2.9,3.6,5.7,7.2,8.6,10.8"/>
	<path class="st0" d="M971.6,487.1c-0.8,1.8-1.6,3.6-2.5,5.4c-0.8,1.5-1.9,2.9-2.8,4.3"/>
	<path class="st0" d="M909.2,517.6c0.2,1.1,0.8,2.2,0.7,3.2c-0.4,2.8,0.1,5.2,2,7c-0.2,2.7-0.4,5.2-0.5,7.7"/>
	<path class="st0" d="M697,650.2c-1.7,3.4-2.8,6.8-0.7,10.4"/>
	<path class="st0" d="M567.9,418.3c-1.1,2.7-2.2,5.5-3.2,8.3c-0.3,0.7-0.3,1.4-0.4,2.1"/>
	<path class="st0" d="M257.5,251.6c3.8-1.2,2.1-4.4,2.5-6.7c-1-0.3-1.9-0.6-3.2-1c0,2.3,0,4.5,0,6.7"/>
	<path class="st0" d="M105.3,369.2c-0.1,2.2-0.2,4.3-0.1,6.4c0,0.6,1.1,1.1,1.7,1.6"/>
	<path class="st0" d="M560,383.9c-1.8,3.5-3.6,6.9-5.4,10.4"/>
	<path class="st0" d="M922.1,514c-0.6,2.2-1.1,4.3-1.8,6.4c-0.4,1.1-1.2,2.2-1.8,3.2"/>
	<path class="st0" d="M1104.2,406.8c-1.1,2.3-2.1,4.6-3.3,6.8c-0.5,1-1.4,1.7-2.1,2.5"/>
	<path class="st0" d="M167.1,257.7c0.7,1.7,1.4,3.3,2.2,5"/>
	<path class="st0" d="M726.7,632.1c0.6-2.7,3.2-4.9,1.8-8.1c-0.1-0.3,0.3-1.2,0.7-1.4c2.2-1.2,4.5-2.2,6.8-3.3"/>
	<path class="st0" d="M180,332.3c-2.5,3.2-1.2,6.6-0.7,10"/>
	<path class="st0" d="M782.7,592.2c-2,0.8-4,1.6-5.4,2.2c0,3.9,0,7.2,0,10.4"/>
	<path class="st0" d="M550,313.6c0.4,1.8,0.8,3.6,1.1,5.4c0.2,1.5,0.3,3.1,0.4,4.7"/>
	<path class="st0" d="M104.4,417.6c-1,3.2-1.9,6.5-3,10c-0.6,0-1.3,0-2.1,0"/>
	<path class="st0" d="M1081.3,417.6c2.3,4.6,1.8,12.6-1.1,15.8"/>
	<path class="st0" d="M909.2,525.8c-0.6,2.2-1.1,4.3-1.8,6.4c-0.4,1-1.2,1.9-1.8,2.9"/>
	<path class="st0" d="M330.6,764.2c-1.4,0.6-3,1-4.3,1.8c-1.7,1.2-3.1,2.8-4.7,4.3"/>
	<path class="st0" d="M914.9,513.7c2.7,5.4,4.4,10.9,1.5,17c0.4,0.4,0.8,1,1.3,1.6"/>
	<path class="st0" d="M929.3,505.8c0.1,2.3,0.2,4.5,0.4,6.8"/>
	<path class="st0" d="M930.9,517.6c0.1,2.3,0.1,4.5,0.2,6.8"/>
	<path class="st0" d="M419.2,776.1c-0.4,2.1-0.8,4.3-1.1,6.5c3.9,0.3,6.2-1.6,8.3-4"/>
	<path class="st0" d="M893.4,526.6c-3.8,1.8-7.6,3.7-11.1,5.4c0,3.8,0,6.9,0,10"/>
	<path class="st0" d="M882,542.3c0.9,2.3,2.1,4.6,1.1,7.2"/>
	<path class="st0" d="M753.3,611.9c-0.4,3.5-0.7,6.9-1.1,10.4"/>
	<path class="st0" d="M660.4,679.6c-2.7,1.2-5.6,2.2-8.2,3.6c-6.8,3.9-13.9,0.7-20.8,0.9c-6.4,0.2-12.9-1.1-18.6-4.5"/>
	<path class="st0" d="M978,483.7c1,0.9,1.9,1.8,2.3,2.1c-0.5,4.3-0.8,7.6-1.2,11"/>
	<path class="st0" d="M426.3,725.9c1.7,3.3,3.3,6.7,5,10"/>
	<path class="st0" d="M663.3,657.4c-1.8,3.7,0.1,6.8,1.4,10"/>
	<path class="st0" d="M197.2,102.8c-0.2,1.7-0.5,3.3-0.7,5"/>
	<path class="st0" d="M574.7,354.5c1.3,3.5-2,5.2-2.9,7.9c-0.5,1.4-1,2.9-1.4,4.3"/>
	<path class="st0" d="M322.4,249.1c-7.1,0.1-74.2,3.5-81.7,3.6"/>
	<path class="st0" d="M622.4,416.9c2.3,2.6,4.5,5.3,6.8,7.9c0.2,0.2,0.9,0,1.4,0"/>
	<path class="st0" d="M333.8,536.2c-1.7,2-3.4,3.9-5.6,6.5c1.4,2.9,2.9,6.3,4.5,9.7"/>
	<path class="st0" d="M1095.6,412.6c-0.8,2-1.6,4.1-2.5,6.1c-0.5,1-1.4,1.7-2.1,2.5"/>
	<path class="st0" d="M442.1,698.6c-1.1,1.4-2.2,2.8-3.2,4.2c0.2,0.1,0.4,0.1,0.6,0.2c0.2,3.3,0.3,6.6,0.5,9.9"/>
	<path class="st0" d="M142.4,310c3.8,2.6,5.7,6.1,4.7,10.8"/>
	<path class="st0" d="M224.1,139.4c-0.2,2.3-0.5,4.5-0.7,6.8"/>
	<path class="st0" d="M190.1,342.8c-2.5-0.1-5-0.1-7.5-0.2"/>
	<path class="st0" d="M705.9,645.6c-0.1,3.2-0.2,6.5-0.4,9.7"/>
	<path class="st0" d="M177.5,143.3c2.3-0.1,3.1,1.4,3.6,3.2c0.3,1.2,0.7,2.4,1.1,3.6"/>
	<path class="st0" d="M242.1,225.8c-0.4,1.7-0.7,3.3-1.1,5c-0.3,1.6-0.7,3.1-1.1,4.7"/>
	<path class="st0" d="M868.3,543.1c-0.4,2.5-0.7,5-1.1,7.5"/>
	<path class="st0" d="M523.8,412.9c-2.8,3.9-5.3,7.8-6.5,12.5"/>
	<path class="st0" d="M1077,424c1.3-2.6,2.7-5.2,3.9-7.9c1.5-3,4-4.3,7.7-4.9c2.9,5.2,2,10.6,0.8,16"/>
	<path class="st0" d="M134.2,144.8c1,0.9,2,1.8,3,2.6c-0.2,1.3-0.3,2.4-0.4,3c-2.4,3.7-4.4,6.9-6.5,10.2"/>
	<path class="st0" d="M214.1,227.2c-0.8,3.1-1.7,6.2-2.5,9.3"/>
	<path class="st0" d="M825.3,567.1c-2.6,1.2-5.4,2.2-7.9,3.6c-3.1,1.7-6,3.8-9,5.7c-2.3,1.4-4.8,2.7-6.6,3.7c0,3.2,0,5.5,0,8.2
		c0.4,0.5,1,1.5,1.6,2.4"/>
	<path class="st0" d="M1041.8,439.1c0.2,5.3,1.8,10.6-0.4,15.8"/>
	<path class="st0" d="M281.5,257.7c0,3.1,0,6.2,0,9.3"/>
	<path class="st0" d="M147.1,112.5c-2.1,3-4.9,4.9-8.6,5.4"/>
	<path class="st0" d="M631.4,680.7c-0.1,1.1-0.2,2.2-0.4,3.2"/>
	<path class="st0" d="M644.6,670c0.4,3.1,0.7,6.2,1.1,9.3"/>
	<path class="st0" d="M1031.1,451.3c-1.4,3.1-2.9,6.2-4.3,9.3"/>
	<path class="st0" d="M619.9,662.4c-0.2,1.4-0.4,2.9-0.7,4.3c-0.4,1.6-0.9,3.1-1.4,4.7"/>
	<path class="st0" d="M213,128.8c-1.8-0.4-3.6-0.8-5.4-1.3"/>
	<path class="st0" d="M81.8,243c-2,3.9-1.4,5.4,3.2,7.2"/>
	<path class="st0" d="M740.7,392.5c1.8,3.8,4.8,5.6,8.9,5.7c1.2,3.9,4.4,5.4,7.7,6.8"/>
	<path class="st0" d="M611.7,383.9c-2.4,4.7-4.8,9.3-7.2,14"/>
	<path class="st0" d="M888.4,529.4c-0.2,3.1-0.5,6.2-0.7,9.3"/>
	<path class="st0" d="M189,140.8c-0.6,2.9-1.2,5.7-1.8,8.6"/>
	<path class="st0" d="M240.3,166.3c-0.6,1.3-1.3,2.6-1.8,3.9c-0.5,1.6-0.8,3.3-1.1,5"/>
	<path class="st0" d="M518.8,481.4c-0.7,4.4-4.7,6.3-7.2,9.3"/>
	<path class="st0" d="M193.7,163.8c-1,2.9-1.9,5.7-2.9,8.6"/>
	<path class="st0" d="M265,238.3c-0.1,0.5-0.2,1-0.4,1.4"/>
	<path class="st0" d="M547.1,365.6c-4.1,1.6-8.2,3-12.2,4.7c-4,1.7-7.9,3.5-11.8,5.4c-1.2,0.6-2.2,1.6-3.2,2.5"/>
	<path class="st0" d="M994.9,472.4c0.2,1.6,0.5,3.1,0.7,4.7c0.2,1.4,0.5,2.9,0.7,4.3"/>
	<path class="st0" d="M273.6,218.3c0.5,2.9,1,5.7,1.4,8.6"/>
	<path class="st0" d="M856.1,559.5c-2,2.8-2.4,5.8-0.7,9"/>
	<path class="st0" d="M157.6,147.6c-0.2,0.6-0.4,1.2-0.5,1.8"/>
	<path class="st0" d="M320.6,176.7c2.7,2.3,1.6,5.4,1.8,8.2c0.1,1.1-0.2,2.1-0.3,3.2"/>
	<path class="st0" d="M861.5,546.3c-3.6-0.2-6.3,1.3-8.6,4.6c0.8,1.9,1.7,3.8,2.5,5.8"/>
	<path class="st0" d="M251.4,367.4c0.8,0.6,1.6,1.3,2.5,1.8c1.8,0.9,3.6,1.7,5.4,2.5"/>
	<path class="st0" d="M162.1,260.9c0.7,0.8,1.3,1.6,1.5,1.8c1,3.5,1.9,6.4,2.8,9.3"/>
	<path class="st0" d="M233.8,241.9c-0.5,3-1,6-1.4,9"/>
	<path class="st0" d="M242.8,311.1c0.2,3,0.5,6,0.7,9"/>
	<path class="st0" d="M699.5,653.5c0.4,1.6,0.7,3.1,1.1,4.7"/>
	<path class="st0" d="M328.3,544.8c-1.3,1.9-2.5,3.8-3.8,5.7c-0.6,0.9-1.2,1.7-1.8,2.5"/>
	<path class="st0" d="M255.9,268.1c-0.1,0.7-0.1,1.4-0.2,2.2"/>
	<path class="st0" d="M758.3,403.2c-1.4,1.9-0.6,3.3,1.1,4.3c2.2,1.3,4.5,2.4,6.8,3.6c0.2,0.1,0.6,0.2,0.7,0.4
		c1.6,3.3,3.6,2.2,5.8,0.7"/>
	<path class="st0" d="M872.8,553.4c-0.4,6.3-2.1,8.3-8.1,9.3"/>
	<path class="st0" d="M589.8,363.5c-2.6,1.4-5.3,2.9-7.9,4.3"/>
	<path class="st0" d="M508.4,158.8c0.2,3.5,0.5,6.9,0.7,10.4c0,0.3-0.7,0.7-1,1.1"/>
	<path class="st0" d="M175.7,326.5c-3.4,4.9-3.1,11.5,0.7,15.4"/>
	<path class="st0" d="M571.5,344.8c-1.3,0.6-2.7,1.1-3.9,1.8c-2,1.2-4.2,2.1-4.4,5c-0.1,1.1-1.5,2.1-2,3.3c-0.4,1.1-0.3,2.4-0.4,3.6
		"/>
	<path class="st0" d="M784.1,586.8c-0.2,3-0.5,6-0.7,9"/>
	<path class="st0" d="M787.9,593.6c0-1.4,0-2.9,0-5.1c0.8-0.3,2.1-0.9,3.4-1.4"/>
	<path class="st0" d="M279,268.5c0,1.3,0.2,2.7-0.1,3.9c-0.4,1.7-1.5,2.9-3.5,2.5"/>
	<path class="st0" d="M164.3,189.6c2.3,3,0.4,5.8-0.4,8.6"/>
	<path class="st0" d="M443.2,490.4c0.5-0.2,1.2-0.8,1.4-0.7c2.3,1.9,4.5,3.9,6.7,5.9c0,0.4,0.1,0.8,0.1,1.2
		c-0.6,0.3-1.2,0.5-1.7,0.8"/>
	<path class="st0" d="M329.5,521.5c1.4,2.9,2.9,5.7,4.3,8.6"/>
	<path class="st0" d="M77.9,177.8c0.6,0.1,1.2,0.2,1.8,0.4"/>
	<path class="st0" d="M578,643.4c0.3,1.6,0.7,3.3,1,4.9c-0.3,0.2-0.6,0.4-1,0.6c1.2,0.8,2.4,1.6,3.6,2.4"/>
	<path class="st0" d="M915.7,518.7c-0.6,2-1.2,4.1-1.8,6.1c-0.3,0.9-0.7,1.7-1.1,2.5"/>
	<path class="st0" d="M594.1,644.9c0,4.4,1.2,5.9,5.7,7.3c0,1,0,2.2,0,3.3"/>
	<path class="st0" d="M1023.2,449.8c2,5.6,3.2,11.3,1.8,17.2"/>
	<path class="st0" d="M634.2,520.8c-2.7,1.3-5.5,2.6-8.2,3.9"/>
	<path class="st0" d="M343.9,381c2.3,2.3,4.5,4.5,6.8,6.8"/>
	<path class="st0" d="M242.8,306.5c0.1,1.3,0.2,2.6,0.3,4.1c-4.1,1.7-9,1.4-11.4,6"/>
	<path class="st0" d="M105.8,379.9c2.7,1.1,3.5,3,2.5,5.7c-0.5,1.3-0.7,2.6-1.1,3.9"/>
	<path class="st0" d="M213.7,376.7c0.5,1.3,1.1,2.7,1.6,3.9c2.8,0.8,5.5,1.5,8.1,2.2"/>
	<path class="st0" d="M527.8,471.4c-1.6,2.9-3.1,5.7-4.7,8.6"/>
	<path class="st0" d="M296.2,487.5c1.8,2.7,3.6,5.5,5.4,8.3"/>
	<path class="st0" d="M269.3,219c0,2.9,0.4,5.9-1.8,8.2"/>
	<path class="st0" d="M978,484.3c-1.4,2.6-2.9,5.3-4.3,7.9"/>
	<path class="st0" d="M839.7,559.5c0.4,1,0.9,1.9,1,2.9c0.4,2.4,0.5,4.8,0.8,7.2"/>
	<path class="st0" d="M238.8,111.4c0,2.6,0,5.3,0,7.9"/>
	<path class="st0" d="M533.2,372.1c1,1.6,1.9,3.1,2.9,4.7c0.7,1.2,1.4,2.4,2.2,3.6"/>
	<path class="st0" d="M202.6,250.5c-1,2.9-0.3,5.6,1.1,8.2"/>
	<path class="st0" d="M414.5,464.9c0.4-0.5,0.7-1,1.2-1.6c-1.5-3.1-3.6-2.2-5.8-0.9"/>
	<path class="st0" d="M243.9,173.1c-0.5,1.3-1,2.6-1.4,3.9c-0.5,1.3-1,2.6-1.4,3.9"/>
	<path class="st0" d="M883.8,176c-2.6-0.8-5.3-1.7-7.9-2.5"/>
	<path class="st0" d="M1096,406.8c-3.5-0.2-5.4,2.2-7.2,4.7"/>
	<path class="st0" d="M625.6,402.5c-1.8,3.9-3.6,7.9-5.4,11.8"/>
	<path class="st0" d="M106.9,392.5c0.5,1.6,0.6,3.4,1.5,4.6c2.8,3.7,3.4,7.9,3.9,12.2"/>
	<path class="st0" d="M90.4,163.8c0.2,1.3,0.5,2.6,0.7,3.9c0.2,1.3,0.5,2.6,0.7,3.9"/>
	<path class="st0" d="M241,302.9c-0.7-1-1.4-2-2.2-2.9c-0.9-1-1.9-1.9-2.9-2.9"/>
	<path class="st0" d="M133.4,288.5c0.7,2.2,1.4,4.3,2.2,6.5"/>
	<path class="st0" d="M193.1,305.4c0.2,0.6,0.4,1.2,0.5,1.8"/>
	<path class="st0" d="M120.9,566c0.8,2.6,1.7,5.3,2.5,7.9"/>
	<path class="st0" d="M808.8,580.3c0.6,3.1,1.2,6.2,1.8,9.3c0.2,1.3,0.3,2.6,0.4,3.9"/>
	<path class="st0" d="M782.3,599c-0.4,1.1-0.8,2.1-1,3.2c-0.4,1.8-1,3.3-2.9,3.9"/>
	<path class="st0" d="M765.8,601.8c-1.7,0.8-3.4,1.5-4.8,2.2c0.4,3.8,1.4,6.8-1,9.3"/>
	<path class="st0" d="M406.2,639.8c1.1,2.4,2.1,4.8,2.8,6.5c-2.4,2.1-4,3.5-5.7,5"/>
	<path class="st0" d="M691.2,645.4c-0.6,0.2-1.2,0.4-1.8,0.5"/>
	<path class="st0" d="M406.2,663.5c-1.6,2.6-3.1,5.3-4.7,7.9"/>
	<path class="st0" d="M135.2,139.8c-2.7-0.3-4.9,0.5-6.9,3.2c0.9,0.9,1.7,1.7,2.6,2.6"/>
	<path class="st0" d="M166.1,146.2c-0.4,1.1-0.7,2.2-1.1,3.2"/>
	<path class="st0" d="M195.6,289.6c-0.1,0.8,0.1,1.8-0.2,2.5c-2.3,4.7-0.4,8.4,2.5,11.9"/>
	<path class="st0" d="M122.3,153c-2.5,0.2-5,0.5-7.5,0.7"/>
	<path class="st0" d="M192.6,143c0.5,1.3,1,2.6,1.4,3.9"/>
	<path class="st0" d="M280.8,397.2c-0.5,3.9,2.9,4.9,5,6.8"/>
	<path class="st0" d="M1031.1,450.7c2.2,2,3.1,5.2,2.1,7.7c-0.6,1.4-1.2,2.9-1.8,4.3"/>
	<path class="st0" d="M1068,433.7c-0.5,2.5-1,5-1.4,7.5"/>
	<path class="st0" d="M1015,456.3c0.4,3.6,0.8,7.2,1,10.8c0.1,1.7-0.3,3.3-0.3,5c0,1.1,0.2,2.2,0.3,3.2"/>
	<path class="st0" d="M122.7,291.8c-2.5,0.1-5,0.2-7.5,0.4"/>
	<path class="st0" d="M432.8,773.9c-0.4,3.2-2.7,3.9-5,4.3c-3.1-0.9-5.8-1.7-8.6-2.5"/>
	<path class="st0" d="M728.2,624.4c-1.6,0.5-3.2,0.8-4.6,1.5c-1.9,1-3.7,2.3-5.4,3.6c-0.6,0.5-1,1.4-1.5,2.1"/>
	<path class="st0" d="M878,538c0,2.4-1.7,4.9,0.4,7.2"/>
	<path class="st0" d="M972.3,480c0.1,0.7,0.3,1.4,0.3,2.2c0,2.5,0,5,0,7.5c0.1,2.5,0.2,5,0.3,7.5"/>
	<path class="st0" d="M979.1,476.4c-0.1,2.4-0.2,4.8-0.4,7.2"/>
	<path class="st0" d="M214.8,219.7c-0.3,2.3-0.7,4.5-1,6.6c2,1.1,3.7,2.1,5.3,3"/>
	<path class="st0" d="M984.5,480.7c-1.2,1.9-2.4,3.8-3.6,5.7"/>
	<path class="st0" d="M270,244.4c-1.1,0.1-2.2,0.2-3.2,0.4"/>
	<path class="st0" d="M248.2,179.5c-0.4,1.2-0.8,2.4-1,3.6c-0.2,1.2-0.3,2.4-0.4,3.6"/>
	<path class="st0" d="M163.9,290c2.4,1.2,4.8,2.4,7.2,3.6"/>
	<path class="st0" d="M177.5,145.8c0.6,1.7,1.2,3.3,1.8,5"/>
	<path class="st0" d="M205.9,164.8c0.5,2.4,2.1,4.8,0,7.2"/>
	<path class="st0" d="M420.2,770.7c-2.2-2.3-4.6-2.4-7.2-0.7"/>
	<path class="st0" d="M201.4,244.4c-1.1,2.2-0.7,4.2,1.2,5.6c0.6-0.2,1.2-0.4,1.8-0.6"/>
	<path class="st0" d="M542.5,262.4c-1.6,1.2-1.3,2.7-0.3,3.9c1.4,1.7,3.4,1.5,5.3,0.8"/>
	<path class="st0" d="M180.4,112.2c2.6,0.1,4.6,1.2,6.1,3.2"/>
	<path class="st0" d="M564,375.6c-0.8,2.4-1.7,4.8-2.5,7.2"/>
	<path class="st0" d="M928.9,83.5c-0.2,2.4-0.5,4.8-0.7,7.2"/>
	<path class="st0" d="M604.1,660.3c0.6,2,1.2,4.1,1.8,6.1"/>
	<path class="st0" d="M599.5,656.3c-0.7,2.4-1.4,4.8-2.2,7.2"/>
	<path class="st0" d="M175.4,190.3c-1,2.4-1.9,4.8-2.9,7.2"/>
	<path class="st0" d="M877.3,547.7c0.1,2.4,0.5,4.8,0.3,7.2c-0.3,2.2-2.1,3-4.2,2.9"/>
	<path class="st0" d="M80.4,227.9c-3.1,2-1.4,4.4-0.7,6.8"/>
	<path class="st0" d="M929.3,516.2c-1.4,2-2.9,4.1-4.3,6.1"/>
	<path class="st0" d="M166.4,302.1c-2,2.4-1.1,4.8,0,7.2"/>
	<path class="st0" d="M517,462.4c-0.8,2.3-1.7,4.5-2.5,6.8"/>
	<path class="st0" d="M507,398.9c-1,2.3-1.9,4.5-2.9,6.8"/>
	<path class="st0" d="M743.9,629.8c0.1,0.8,0.2,1.7,0.4,2.5"/>
	<path class="st0" d="M667.6,657.4c0.2,2.3,0.5,4.5,0.7,6.8"/>
	<path class="st0" d="M795.4,593.6c-1.6,2-2.4,4.2-1.6,6.8"/>
	<path class="st0" d="M179,139c1.9,1.6,3.8,3.1,5.7,4.7"/>
	<path class="st0" d="M105.7,276c0.9,1.3,1.8,2.6,2.7,3.9"/>
	<path class="st0" d="M270.7,140.8c1.6,1.4,3.2,2.8,4.1,3.6c3.2,0,5.5,0,7.8,0"/>
	<path class="st0" d="M674.4,656c-2.4,0.2-4.8,0.5-7.2,0.7"/>
	<path class="st0" d="M782.7,351.3c-3.3-0.3-4.3,2.9-6.5,4.3"/>
	<path class="st0" d="M165.3,350.9c1.4,1,2.8,2,4.6,3.4c0.8-1,1.5-1.8,2.2-2.7"/>
	<path class="st0" d="M211.6,124c-0.7,3.8-1.4,7.6-2.2,11.5"/>
	<path class="st0" d="M149.9,355.9c1.4,2.3,2.7,4.7,5.7,5.4"/>
	<path class="st0" d="M608.8,659.9c-0.7,2.2-1.4,4.3-2.2,6.4"/>
	<path class="st0" d="M306.9,152.3c0.8,2.2,1.7,4.3,2.5,6.5"/>
	<path class="st0" d="M749.1,611.5c-2.9,1.5-5.7,2.9-8.4,4.3c-0.6,1.5-1,2.7-1.5,3.9"/>
	<path class="st0" d="M168.9,136.5c-0.1,0.8-0.2,1.7-0.4,2.5"/>
	<path class="st0" d="M581.2,630.5c0.6,2.2,1.2,4.3,1.8,6.5"/>
	<path class="st0" d="M585.9,635.5c0.6,2.1,1.2,4.3,1.8,6.5"/>
	<path class="st0" d="M589.1,638.4c0.5,2.2,1,4.3,1.4,6.5"/>
	<path class="st0" d="M571.9,646.3c1.4,2.2,2.9,4.3,4.3,6.5"/>
	<path class="st0" d="M525.3,572.4c0.1,2.2,2.6,4,1.1,6.5"/>
	<path class="st0" d="M593,650.6c0.4,1,0.7,1.9,1.2,3.3c-0.5,0.9-1.3,2-2,3.1"/>
	<path class="st0" d="M224.5,246.2c0.5,1.9,1,3.8,1.4,5.7"/>
	<path class="st0" d="M640.3,673.5c0.5,2.2,1,4.3,1.4,6.5"/>
	<path class="st0" d="M142.4,106.1c-2.4,0.8-3.4,2.5-3.2,5"/>
	<path class="st0" d="M221.6,243.7c0.2,2.2,0.5,4.3,0.7,6.5"/>
	<path class="st0" d="M539.6,587.5c1,2.1,1.9,4.3,2.9,6.5"/>
	<path class="st0" d="M770.5,184.6c-0.2,2-0.3,4.1-0.5,6.1c2.1,0.8,3.8,1.5,5.5,2.1"/>
	<path class="st0" d="M276.1,145.1c2,1.5,4.1,3,6.1,4.5"/>
	<path class="st0" d="M801.3,581.1c-4.2,0.6-4.7,1.3-4.7,5c0,1.2-0.9,2.4-1.4,3.6"/>
	<path class="st0" d="M558.2,448.8c1.4,2.2,2.9,4.3,4.3,6.5"/>
	<path class="st0" d="M104,563.1c0.6,2.2,1.2,4.3,1.8,6.5"/>
	<path class="st0" d="M104.4,274.2c-1,0.4-1.9,0.7-2.9,1.1"/>
	<path class="st0" d="M161,163.8c-4.1,2-5.1,5-3.2,9"/>
	<path class="st0" d="M118,359.5c-0.5,2.2-1,4.3-1.4,6.5"/>
	<path class="st0" d="M215.9,167c-1.4,1.1-2.8,2.2-4.3,3.3c1.1,3.6,2.8,6.3,5.7,8.1"/>
	<path class="st0" d="M721.7,405.4c0,2.2,0,4.3,0,6.5"/>
	<path class="st0" d="M506.6,553.1c1.2,2.6,1.9,5.4,5.3,7.1c-0.4-1.1-0.5-1.6-0.6-2.1"/>
	<path class="st0" d="M538.9,362c-0.5,2.2-1,4.3-1.4,6.5"/>
	<path class="st0" d="M609.2,656.3c0.8,3.2,1.7,6.5,2.5,9.7"/>
	<path class="st0" d="M854.4,213.6c-3.1-0.6-6.2-1.2-9.3-1.8"/>
	<path class="st0" d="M429.9,473.5c1.7,2.2,3.3,4.3,5,6.5"/>
	<path class="st0" d="M798.1,200.3c2,2,4.1,4.1,6.1,6.1"/>
	<path class="st0" d="M887,539.5c-1.6,1.4-1.2,4.7-4.3,4.7"/>
	<path class="st0" d="M111.6,539.5c0.2,2.1,0.5,4.3,0.7,6.5"/>
	<path class="st0" d="M165,144.8c0.2-1.8,0.5-3.6,0.7-5.4"/>
	<path class="st0" d="M570.8,626.9c0.6,1.1,1.1,2.2,1.7,3.3c-0.1,0.8-0.2,1.8-0.3,2.8"/>
	<path class="st0" d="M287.2,343.7c-2,0.8-4.1,1.7-6.1,2.5"/>
	<path class="st0" d="M138.5,343c-1.1,2-2.2,4.1-3.2,6.1"/>
	<path class="st0" d="M200.5,296.8c-1.7-1.2-3.3-2.4-5-3.6"/>
	<path class="st0" d="M770.5,191.4c-2.2,1.9-4.7,1.1-7.2,0.7c-1.6-0.3-3.1-0.8-4.7-1.2"/>
	<path class="st0" d="M250.3,232.2c0.6,2,1.2,4.1,1.8,6.1"/>
	<path class="st0" d="M898.8,523.7c0.2,1.8,0.5,3.5,0.7,5.3c-0.2,0.1-0.4,0.2-0.6,0.3c0.8,0.9,1.6,1.8,2.4,2.6"/>
	<path class="st0" d="M470.1,398.9c1.3,2.1,2.6,4.2,3.9,6.3"/>
	<path class="st0" d="M151.7,145.8c-0.4,0-0.7,0-1.1,0"/>
	<path class="st0" d="M774.1,610.8c0,1.6,0,3.1,0,5c-1.5,1.1-2.8,3-5.4,1.8"/>
	<path class="st0" d="M164.3,295.7c0.8,1.9,1.7,3.7,2.8,6.2c0.1,0.1,1,0.5,1.8,0.9"/>
	<path class="st0" d="M638.9,663.5c-0.2,1.9-0.5,3.8-0.7,5.7"/>
	<path class="st0" d="M892.7,537.3c-1.3,2.9-2.7,5.7-3.9,8.6c-0.2,0.4,0.6,1.2,1,1.8"/>
	<path class="st0" d="M474.4,791.5c-0.7,0.4-1.7,0.5-2.1,1.1c-2.1,3.1-4.6,2.2-7.2,1"/>
	<path class="st0" d="M209.4,157.3c-0.7,1.5-1.4,3-2.1,4.4c1.5,2.8,2.9,5.3,4.2,7.8"/>
	<path class="st0" d="M485.1,442c-2.1-1.3-4.1-0.7-6.1,0.4"/>
	<path class="st0" d="M574.7,624.8c0.7,1.7,1.6,3.3,2.1,5c0.2,0.8-0.2,1.9-0.3,2.8"/>
	<path class="st0" d="M480.8,772.5c-1.7,1.3-3.3,2.6-5,3.9"/>
	<path class="st0" d="M519.9,473.9c1.1,2,2.1,4.1,3.2,6.1"/>
	<path class="st0" d="M80.4,206.8c0.2,1.9,0.5,3.8,0.7,5.7"/>
	<path class="st0" d="M565.1,359.1c1.7,1.7,3.3,3.3,5,5"/>
	<path class="st0" d="M283.6,202.5c0.1,1.9,0.2,3.8,0.4,5.7"/>
	<path class="st0" d="M105.1,406.8c0,1.9,0,3.8,0,5.7"/>
	<path class="st0" d="M286.9,434.1c0.8,1.9,1.7,3.8,2.5,5.7"/>
	<path class="st0" d="M1110,405.4c-1.1,1.8-2.2,3.6-3.2,5.4"/>
	<path class="st0" d="M245.6,186.7c-0.4,0-0.7,0-1.1,0"/>
	<path class="st0" d="M552.9,613.3c-1.5,2.6-2.4,6.2-0.8,8c2,2.3,3.5,6.1,7.7,5.9"/>
	<path class="st0" d="M765.8,613.3c-1.3,1.4-2.6,2.9-3.9,4.3"/>
	<path class="st0" d="M270,138.7c1.3-0.8,2.6-1.6,4.3-2.7c1.8,1.3,3.8,2.7,5.8,4.1"/>
	<path class="st0" d="M716,632.7c-1.9-0.4-3.7-0.5-4.7,2.4c0.3,1.1,0.7,2.8,1.1,4.4"/>
	<path class="st0" d="M711,635.2c-3.9-0.2-6.2,1.3-7.5,4.7"/>
	<path class="st0" d="M257.8,163.8c0.8,0.5,1.7,0.9,2.5,1.4c-0.2,0.1-0.5,0.2-0.7,0.3c0.8,2.1,1.6,4.1,2.5,6.2"/>
	<path class="st0" d="M573.7,369.9c-1.6,1.6-3.5,2.1-5.7,1.8"/>
	<path class="st0" d="M160.7,278.1c-1.5-1.8-1.3-5.4-5-5"/>
	<path class="st0" d="M689.8,666.4c2.7,0.7,4.6-1.3,6.8-2.2"/>
	<path class="st0" d="M261.4,119.3c-0.5,1.9-1,3.8-1.4,5.7"/>
	<path class="st0" d="M1115.3,392.5c-1.7,1.2-3.3,2.4-5,3.6"/>
	<path class="st0" d="M223.8,118.2c0.2,1.9,0.5,3.8,0.7,5.7"/>
	<path class="st0" d="M276.1,238.3c-0.7,1.9-1.4,3.8-2.2,5.7"/>
	<path class="st0" d="M640.3,685.4c-1.3,2-3.4,1.7-5.4,1.8"/>
	<path class="st0" d="M125.9,569.6c0.7,1.9,1.4,3.8,2.2,5.7"/>
	<path class="st0" d="M310.5,153c1.6,1.4,3.1,2.9,4.7,4.3"/>
	<path class="st0" d="M171.1,257c-0.4,1.8-0.7,3.6-1.1,5.4"/>
	<path class="st0" d="M259.6,234.8c1.8,0.2,3.6,0.5,5.4,0.7"/>
	<path class="st0" d="M129.1,188.2c0.8,3.2,0.7,6.2-2.5,8.2"/>
	<path class="st0" d="M723.9,644.9c-2.9,1.3-5.7,2.6-8.6,3.9"/>
	<path class="st0" d="M181.1,121.8c-1.6,1.8-3.1,3.6-4.7,5.4"/>
	<path class="st0" d="M715.6,643.4c-0.5,1.8-1,3.6-1.5,5.4c0.3,0.2,0.7,0.5,1,0.7c-2.5,1.7-4.9,3.4-7.5,4.9
		c-5.7,3.4-11.5,6.7-17.2,10.1c-0.5,0.3-0.7,0.9-1.1,1.4"/>
	<path class="st0" d="M903.5,533c2.7,1.4,1.3,4.1,2.1,5.8c-1,2.5-2.5,3.5-4.9,3.2"/>
	<path class="st0" d="M101.5,461.3c0.4,1.6,0,3.6,2.1,4.3"/>
	<path class="st0" d="M168.9,368.5c-1.8,0-3.6,0-5.4,0"/>
	<path class="st0" d="M675.8,652.4c-4.4-1-6.1-0.1-8.6,4.3"/>
	<path class="st0" d="M427,474.2c1.5,2.2-0.2,3.7-1.1,5.4"/>
	<path class="st0" d="M212.3,340.1c-3.3,3.3-7.8,2.9-11.8,3.5c-0.7,0.1-1.7-1.1-2.5-1.7"/>
	<path class="st0" d="M819.9,347.3c-1.7,0.7-3.3,1.4-5,2.2"/>
	<path class="st0" d="M351,388.5c1.9,1.8,3.9,3.5,5.7,5.4c1.1,1.1,2.2,2.4,3.2,3.6"/>
	<path class="st0" d="M486.5,424.4c-1.7,1.9-3.3,1-5,0"/>
	<path class="st0" d="M514.5,561c0.5,1.7,1,3.3,1.4,5"/>
	<path class="st0" d="M210.2,378.5c1,2.1,2.8,2,4.7,1.8"/>
	<path class="st0" d="M210.5,297.5c1.7,0.5,3.3,1,5,1.4"/>
	<path class="st0" d="M852.9,550.6c-1.9,0.4-3.8,0.9-5.8,1.3c0.1,0.3,0.3,0.6,0.4,0.9c-2.3,1.2-4.5,2.4-6.8,3.6"/>
	<path class="st0" d="M916.7,108.6c0,1.7,0,3.3,0,5"/>
	<path class="st0" d="M524.5,168.1c1.7,1.2,3.3,2.4,5,3.6"/>
	<path class="st0" d="M125.6,330.1c-0.2,1.4-0.5,2.9-0.7,4.3"/>
	<path class="st0" d="M219.1,328.7c-1.6,0.1-3.1,0.2-4.7,0.4"/>
	<path class="st0" d="M952.2,499.3c0.6,0.6,1.2,1.2,1.5,1.5c-0.2,1.8-0.3,3.4-0.4,4.9"/>
	<path class="st0" d="M408.8,693.3c1,1.6,1.9,3.1,2.9,4.7"/>
	<path class="st0" d="M256,255.9c-1.6-0.5-3.1-1-4.7-1.4"/>
	<path class="st0" d="M172.9,335.1c-1.6-0.1-3.1-0.2-4.7-0.4"/>
	<path class="st0" d="M273.2,270.6c0.6,1.3,1.1,2.7,1.9,4.4c-0.5,1.4-1.2,3.1-1.9,4.9"/>
	<path class="st0" d="M549.3,611.2c-0.8,1.3-1.6,2.5-2.7,4.4c1.5,1.2,2.8,2.4,4.2,3.5"/>
	<path class="st0" d="M470.1,515.1c1,1.4,1.9,2.9,2.9,4.3"/>
	<path class="st0" d="M138.5,250.2c-1.6-0.5-3.1-1-4.7-1.4"/>
	<path class="st0" d="M422.4,782.5c1.6,1.1,3.1,2.2,4.7,3.2"/>
	<path class="st0" d="M214.5,331.2c1.4,1.6,2.9,3.1,4.3,4.7"/>
	<path class="st0" d="M569.7,621.2c0.7,1.4,1.4,2.9,2.2,4.3"/>
	<path class="st0" d="M853.3,553.8c-0.7,1.2-1.4,2.4-2.2,3.6"/>
	<path class="st0" d="M280.4,219.3c1.2-0.6,2.4-1.2,3.6-1.8c0.2,0.2,0.4,0.4,0.6,0.7c-0.5,1.7-2,3.5,0.1,5"/>
	<path class="st0" d="M317.3,436.2c0.2,1.4,0.5,2.9,0.7,4.3"/>
	<path class="st0" d="M465.8,510.8c0.7,1.4,1.4,2.9,2.2,4.3"/>
	<path class="st0" d="M477.6,523c0.6,1.4,1.2,2.9,1.8,4.3"/>
	<path class="st0" d="M1032.5,446.3c-0.2,1.4-0.5,2.9-0.7,4.3"/>
	<path class="st0" d="M579,654.2c1,1.4,1.9,2.9,2.9,4.3"/>
	<path class="st0" d="M588.4,664.2c1.4,1.4,2.9,2.9,4.3,4.3"/>
	<path class="st0" d="M494.8,540.9c0.6,1.4,1.2,2.9,1.8,4.3"/>
	<path class="st0" d="M800.9,588.9c-0.7,1.4-1.4,2.9-2.2,4.3"/>
	<path class="st0" d="M765.4,208.9c1.4,0.4,2.9,0.8,4.4,1.2c0.9,1.4,1.3,2.9-0.4,4.2"/>
	<path class="st0" d="M238.5,371c-1.4-0.2-2.9-0.5-4.3-0.7"/>
	<path class="st0" d="M933.9,67.7c0,1.4,0,2.9,0,4.3"/>
	<path class="st0" d="M123,546.6c0.5,1.4,1,2.9,1.4,4.3"/>
	<path class="st0" d="M536,260.6c1.7,1.2,3.3,2.4,5,3.6"/>
	<path class="st0" d="M457.9,506.5c-0.1,1.4-0.2,2.9-0.4,4.3"/>
	<path class="st0" d="M137.7,258.1c2-0.4,2.7,1.2,3.6,2.5"/>
	<path class="st0" d="M286.9,141.2c-1.4,1-2.8,2-4,2.8c0.5,1.9,0.8,3.3,1.2,4.7"/>
	<path class="st0" d="M566.1,640.6c0.6,1.3,1.2,2.6,1.8,3.9"/>
	<path class="st0" d="M564,366.7c1.1,0.6,2.2,1.2,3.2,1.8"/>
	<path class="st0" d="M113.4,415.8c-0.4,1.3-0.7,2.6-1.1,3.9"/>
	<path class="st0" d="M749,165.2c2,1.4,3.9,2.7,5.5,3.8c1.6,0.2,2.9,0.3,4.2,0.5"/>
	<path class="st0" d="M98.7,749.5c1.3,0.8,2.6,1.7,3.9,2.5"/>
	<path class="st0" d="M384,754.6c-1.3,0.4-2.6,0.7-3.9,1.1"/>
	<path class="st0" d="M921,102.8c-0.7,1.3-1.4,2.6-2.1,3.9"/>
	<path class="st0" d="M315.5,238c2.1,0.6,2.6,2,2.2,3.9"/>
	<path class="st0" d="M163.5,279.2c-2.3-1.1-4.6-0.4-6.8,0.4"/>
	<path class="st0" d="M125.9,250.9c-1.3-0.4-2.6-0.7-3.9-1.1"/>
	<path class="st0" d="M106.9,178.5c-1.3,2.1-2.2,4.5-5,5"/>
	<path class="st0" d="M163.5,135.5c0.7,1.1,1.4,2.2,2,3.3c0.2-0.2,0.3-0.3,0.5-0.5c1.6,1.1,3.1,2.2,4.7,3.3"/>
	<path class="st0" d="M161,384.2c-1.2-0.1-2.4-0.2-3.6-0.4"/>
	<path class="st0" d="M222.7,239.8c-0.1,1.1-0.2,2.2-0.3,3.6c-1.4-0.2-2.4-0.3-3.3-0.4"/>
	<path class="st0" d="M193.3,241.9c0.2,1.2,0.5,2.4,0.7,3.6"/>
	<path class="st0" d="M1111,401.1c-0.2,1.1-0.4,2.2-0.7,3.8c1.1,0.2,2.3,0.3,3.5,0.5"/>
	<path class="st0" d="M305.2,140.1c-1.1-0.8-2.2-1.7-3.2-2.5"/>
	<path class="st0" d="M514.2,161.3c1.1,0.8,2.2,1.7,3.2,2.5"/>
	<path class="st0" d="M754,210c-1,0-1.9,0-2.9,0"/>
	<path class="st0" d="M363.2,308.6c-1,0.2-1.9,0.5-2.9,0.7"/>
	<path class="st0" d="M114.4,350.9c-0.4,1-0.7,1.9-1.1,2.9"/>
	<path class="st0" d="M100.8,687.9c-0.1,1-0.2,1.9-0.4,2.9"/>
	<path class="st0" d="M573.7,651c0.4,0.8,0.7,1.7,1.1,2.5"/>
	<path class="st0" d="M110.1,474.2c0.2,1,0.5,1.9,0.7,2.9"/>
	<path class="st0" d="M128.1,478.5c0.2,1.4,0.5,2.9,0.7,4.3"/>
	<path class="st0" d="M438.5,482.8c0.6,0.8,1.2,1.7,1.8,2.5"/>
	<path class="st0" d="M120.9,335.5c-0.7,0.2-1.4,0.5-2.2,0.7"/>
	<path class="st0" d="M367.5,754.6c0.7,0.5,1.4,1,2.2,1.4"/>
	<path class="st0" d="M123,459.2c0,1.4,0,2.9,0,4.3"/>
	<path class="st0" d="M488,570.3c0.7,0.7,1.4,1.4,2.2,2.1"/>
	<path class="st0" d="M413.4,457c0.7,0.7,1.4,1.4,2.2,2.2"/>
	<path class="st0" d="M146,596.8c0.5,0.7,1,1.4,1.4,2.1"/>
	<path class="st0" d="M584.1,659.2c0.5,0.7,1,1.4,1.4,2.2"/>
	<path class="st0" d="M554.7,629.1c0.5,0.7,1,1.4,1.4,2.2"/>
	<path class="st0" d="M705.2,269.2c-0.7,0.2-1.4,0.5-2.2,0.7"/>
	<path class="st0" d="M703.1,157.3c-0.7,0.2-1.4,0.5-2.1,0.7"/>
	<path class="st0" d="M521,165.9c0.7,0.5,1.4,1,2.2,1.4"/>
	<path class="st0" d="M568.3,624.1c-0.1,0.6-0.2,1.2-0.4,2c0.7,0.2,1.4,0.4,2.2,0.5"/>
	<path class="st0" d="M366.8,307.2c-0.7,0.2-1.4,0.5-2.2,0.7"/>
	<path class="st0" d="M239.5,295.7c0.6,1.4,1.9,2.7,0.4,4.3"/>
	<path class="st0" d="M396.2,773.9"/>
	<path class="st0" d="M802,199.6c-0.6,0.4-1.2,0.7-1.8,1.1"/>
	<path class="st0" d="M417,416.1c-0.6,0.1-1.2,0.2-1.8,0.4"/>
	<path class="st0" d="M119.8,333.3c1.1,0.7,2.1,1.4,3.2,2.2"/>
	<path class="st0" d="M812.1,350.9c-0.5,0.2-1,0.5-1.4,0.7"/>
	<path class="st0" d="M567.9,343.4c-0.5,0.2-1,0.5-1.4,0.7"/>
	<path class="st0" d="M629.2,525.1c-0.8,0.4-1.7,0.7-2.5,1.1"/>
	<path class="st0" d="M822.8,345.9c-0.5,0.2-1,0.5-1.4,0.7"/>
	<path class="st0" d="M516.7,367.4c-0.5,0.2-1,0.5-1.4,0.7"/>
	<path class="st0" d="M538.2,614c0.5,0.5,1,1,1.4,1.4"/>
	<path class="st0" d="M529.6,580.3c0.2,0.2,0.5,0.5,0.7,0.7"/>
	<path class="st0" d="M551.8,625.5c0.2,0.2,0.5,0.5,0.7,0.7"/>
	<path class="st0" d="M481.2,492.5c0.1,0.2,0.3,0.5,0.3,0.7c0,0.1-0.2,0.2-0.3,0.4"/>
	<path class="st0" d="M161.8,454.1c0.4,0.4,0.7,0.7,1.1,1.1"/>
	<path class="st0" d="M566.5,643.8c-0.1,0.2-0.3,0.5-0.3,0.7c0,0.1,0.2,0.2,0.3,0.4"/>
	<path class="st0" d="M427.8,472.1c0.2,0.2,0.5,0.5,0.7,0.7"/>
	<path class="st0" d="M520.2,365.2c-0.2,0.2-0.5,0.5-0.7,0.7"/>
	<path class="st0" d="M317.7,234.3c0-7.4,1.3-11.7,3-18.5c2.2-8.6,0.2-17.5-1.1-26.3"/>
	<path class="st0" d="M77.7,165.6c0.4,7.2-3.6,14.8-4,22.4c-0.8,13,3.4,17.5,10,28.4"/>
	<path class="st0" d="M77.7,222.4c0,20.1,8.7,38,25.7,48c0.5,5.5,1.7,10.4,3.3,15.6c4.1,1.7,8,12.3,9.8,16.6
		c3.8,9.3,9,15.3,15.9,23.4"/>
	<path class="st0" d="M281.8,122.8c-9.1-5.3-20.6-6.7-29.7-11.3c-9.7-5-19.3-1.6-29.5-4.1c-11.4-2.8-55-19.4-60.5-1.7
		c-5.6,1.6-11.3-0.1-16.8,1.2c-6.1,1.3-5.1,4.1-10.5,6c-7,2.5-23.3-3.1-25.4,8"/>
	<path class="st0" d="M319.7,172.6c-5.5,3-4.5,14.9-9.1,20c-6,6.7-14.4,8-18.3,17.3c-6.9,16.5-4.2,35.7-14.4,50.3"/>
	<path class="st0" d="M271.9,276.1c-12.1,1.8-21.1,3.6-25.6-10.3c-3.3-10.3-5.9-13.9-17.7-15.3c-10.6-1.2-18.7,2.6-19.8,13.9
		c-0.5,4.7-0.2,14.7,1.9,19c4.8,10.3,23.8,11.4,33.4,13.5"/>
	<path class="st0" d="M128.5,327.9c-10.1,2.5-14.5,12.5-18.1,21.3c-1.9,4.7-4.2,9.3-6.1,13.9c-2.6,6.5-0.3,12.1-1.2,19.1"/>
	<path class="st0" d="M177.3,342.9c-11-1.2-15.1,5.3-26.5-0.4c-4-2-8.6-3.8-12.3-5.7c-8-4-7.2-7.5-11-15.9"/>
	<path class="st0" d="M245,313c3.1,15.1-25,14.1-29.9,24.9"/>
</g>
</svg>
