<?xml version="1.0" encoding="utf-8"?>
<!-- Generator: Adobe Illustrator 16.0.0, SVG Export Plug-In . SVG Version: 6.00 Build 0)  -->
<!DOCTYPE svg PUBLIC "-//W3C//DTD SVG 1.1//EN" "http://www.w3.org/Graphics/SVG/1.1/DTD/svg11.dtd">
<svg version="1.1" xmlns="http://www.w3.org/2000/svg" xmlns:xlink="http://www.w3.org/1999/xlink" x="0px" y="0px"
	 width="2312.37px" height="1293px" viewBox="0 0 2312.37 1293" enable-background="new 0 0 2312.37 1293" xml:space="preserve">
<g id="Calque_1" display="none">
	
		<image display="inline" overflow="visible" width="1200" height="671" xlink:href="lot_F01.jpg"  transform="matrix(1 0 0 1 1112.3701 622)">
	</image>
</g>
<g id="Calque_3">
	<path fill="none" stroke="#000000" stroke-miterlimit="10" d="M1790.587,535.701c0,0-3.476-5.958-3.972-7.943
		c-0.497-1.986,1.986-81.419-6.95-103.761c-8.938-22.341-16.385-40.71-19.362-45.674c-2.979-4.965,2.481-58.583,0-66.03
		c-2.482-7.447-5.461-5.461-6.454-8.439c-0.993-2.979,0.993-23.334,0-30.782c-0.993-7.446-3.973-10.425-5.461-13.404
		c-1.489-2.979,0.992-26.81,0-28.795c-0.993-1.986-4.965-8.937-5.957-11.419c-0.994-2.482-5.958-33.263-7.943-39.717
		c-1.986-6.454-25.321-55.604-27.803-61.562c-2.482-5.958-13.901-30.781-23.334-40.71s-19.859-17.873-27.306-24.326
		c-7.446-6.455-12.412-7.944-19.361-11.916c-6.951-3.972-12.412-14.397-18.37-18.865c-5.957-4.469-15.391-2.979-16.383-4.965
		s-19.361-9.432-22.836-10.425c-3.476-0.993-12.412-6.454-12.412-6.454"/>
	<path fill="none" stroke="#000000" stroke-miterlimit="10" d="M1380.508,0.514c0,6.95-27.305,90.356-48.157,113.193
		c-20.852,22.837-19.362,26.313-19.362,26.313s-4.964,12.908-6.95,12.412s-15.391-32.271-16.383-36.242
		c-0.994-3.972-13.901-14.894-16.88-14.894c-2.979,0-16.383,20.851-48.157,21.845c-31.773,0.992-47.164-18.866-57.59-29.788
		c-10.426-10.922-20.355-15.377-22.341-16.873c-1.986-1.497-19.859,9.426-27.306,4.958c-7.447-4.468-9.433-15.39-8.439-21.348
		c1.127-6.766,5.169-42.534,4.964-45.674"/>
	<path fill="none" stroke="#000000" stroke-miterlimit="10" d="M1108.705,0.514c0,0,23.075,18.865,34.99,23.333
		c11.915,4.469,45.674,13.901,54.61,0c8.937-13.901,3.972-16.383,0-23.333"/>
	<path fill="none" stroke="#000000" stroke-miterlimit="10" d="M1131.283,0.514c8.003,8.019,12.05,13.08,20.852,18.865
		c3.913,2.573,21.348,8.937,31.277,6.95c9.929-1.985,12.412-9.087,12.412-10.501c0-1.413-0.993-10.35-8.44-15.314"/>
	<line fill="none" stroke="#000000" stroke-miterlimit="10" x1="1276.25" y1="97.324" x2="1295.613" y2="72.501"/>
	<path fill="none" stroke="#000000" stroke-miterlimit="10" d="M1091.565,0.514c0,0,0,8.936,5.461,8.936s4.468-8.936,4.468-8.936"/>
	<path fill="none" stroke="#000000" stroke-miterlimit="10" d="M1045.395,0.514c0,0,12.908,11.267,21.844,15.314
		c8.937,4.047,27.872,8.516,29.327,8.516c1.455,0-1.028-5.958-12.446-14.895C1072.7,0.514,1072.7,0.514,1072.7,0.514"/>
	<path fill="none" stroke="#000000" stroke-miterlimit="10" d="M1215.185,72.501c-4.964,5.461-18.866,14.397-24.823,16.383"/>
	<path fill="none" stroke="#000000" stroke-miterlimit="10" d="M1166.036,84.913c2.979-0.994,8.936-0.497,13.404,0
		c4.468,0.496,8.44-4.22,8.44-4.22"/>
	<path fill="none" stroke="#000000" stroke-miterlimit="10" d="M1126.815,84.913c0,0,0,22.341,0,26.313s-2.979,7.944-2.979,10.426
		s7.943,9.929,7.447,13.901c-0.497,3.972-6.951,5.461-7.447,14.894s14.397,58.583,16.879,66.526
		c2.483,7.943-0.992,26.809,2.979,32.271c3.972,5.461,14.894,17.376,16.383,18.865c1.489,1.49,9.432,11.419,8.936,15.887
		s-8.44,14.894-8.44,21.844c0,6.951,3.972,5.958,5.461,9.93c1.489,3.972,4.018,29.788,3.002,35.249
		c-1.016,5.461-18.889,31.278-20.378,37.732c-1.49,6.454,2.979,45.178,3.476,47.66c0.496,2.482,5.764,7.944,3.875,10.426
		c-1.889,2.482-9.462,9.929-9.462,9.929s8.565,7.447,9.559,10.922c0.992,3.475,2.482,8.937,3.972,10.922
		c1.489,1.987,4.468,4.469,1.986,6.455"/>
	<path fill="none" stroke="#000000" stroke-miterlimit="10" d="M1171.828,544.638c-0.662,1.655-1.324,27.139,1.654,28.132
		c2.979,0.993,9.931-27.47,7.614-28.132C1178.778,543.976,1171.828,544.638,1171.828,544.638z"/>
	<path fill="none" stroke="#000000" stroke-miterlimit="10" d="M1181.922,745.706c0.993,7.943,7.447,39.221,8.937,45.178
		c1.489,5.958,2.482,29.292,2.482,29.292"/>
	<path fill="none" stroke="#000000" stroke-miterlimit="10" d="M1306.039,670.74c0,0-0.497-79.931,2.482-82.909
		c2.979-2.979,4.468-15.391,4.468-17.873c0-2.482-13.901-28.298-11.419-34.256c2.483-5.958,7.943,3.476,11.419,3.476
		c3.475,0,10.922,0.497,13.404-3.476c2.483-3.972-0.496-17.376,4.469-18.369c4.964-0.992,11.418,14.895,11.915,18.369
		c0.497,3.476-13.404,25.816-13.901,31.774c-0.496,5.958,1.489,15.39-0.496,16.383c-1.987,0.993-14.895,10.425-15.391,17.872
		c-0.497,7.447,0,21.348-0.993,26.809c-0.993,5.461-3.476,10.426-3.476,10.426s18.866,13.405,21.844,14.895
		c2.979,1.489,5.461-3.972,7.943-2.483c2.483,1.489,0.524,6.951,4.482,7.943c3.958,0.993,11.901,0.993,13.391,1.49
		c1.489,0.496,0.496,3.476,6.454,5.958c5.958,2.482,25.816,12.412,41.703,15.391c15.887,2.979,37.731,7.943,40.214,10.922
		c2.482,2.979-13.404,24.327-16.384,31.277c-2.979,6.95-6.95,19.362-11.419,25.319c-4.468,5.958-39.717,52.129-48.653,63.051
		c-8.937,10.922-28.795,30.284-34.256,34.752c-5.46,4.468-50.143,54.611-61.065,66.526s-72.98,70.498-72.98,70.498"/>
	<path fill="none" stroke="#000000" stroke-miterlimit="10" d="M1306.535,675.208c-0.993,2.979-20.355,22.837-22.341,29.291
		c-1.986,6.455-2.979,16.383-8.936,24.327c-5.958,7.944-54.611,52.129-71.987,78.938c-8.351,12.882-41.938,57.335-76.952,95.32
		c-34.142,37.038-69.668,67.651-82.413,77.945"/>
	<path fill="none" stroke="#000000" stroke-miterlimit="10" d="M999.72,1017.768c0,0-10.923,9.434-17.376,9.434
		c-6.454,0-31.773,0.992-47.164,0c-15.39-0.994-47.661-4.026-55.107-4.496c-7.447-0.47-29.292,8.468-42.2,9.957
		c-12.908,1.488-29.292,4.964-33.263,7.447l-2.813,4.635c-2.647,1.653-10.592,14.562-17.542,21.513
		c-6.95,6.95-14.231,17.211-20.189,27.718c-5.958,10.508-12.247,18.949,0,24.245c12.247,5.298,20.189-5.628,20.189-5.628
		c4.964-5.461,9.433-21.844,17.376-28.297c7.943-6.455,14.895-10.427,25.32-11.916c10.426-1.49,19.528-4.22,19.528-4.22
		c6.288-1.821,25.154-15.143,25.154-15.143c-3.972,9.929-14.397,18.369-33.759,27.307c-19.362,8.936-31.335,17.725-39.717,27.801
		c-3.026,3.639-14.563,12.414-13.901,22.673c0.662,10.26,13.239,16.55,13.901,16.55c0.663,0,32.436-32.104,35.083-34.755
		c2.647-2.648,13.57-6.948,17.873-7.943c4.302-0.994,51.053-12.494,51.053-12.494c-13.156,7.033-46.916,13.984-58.831,20.438
		c-11.915,6.455-22.981,24.555-26.809,26.313c-6.124,2.812-3.146,16.053-1.82,17.377c1.324,1.326,23.83-0.992,26.053-2.316
		s20.614-9.598,22.6-10.261c1.986-0.663,23.499-12.246,25.154-13.901c1.655-1.656,27.14-9.266,32.436-8.273
		c5.296,0.993-0.166,3.971-0.166,3.971c-9.433,4.965-28.298,7.942-32.27,8.44c-3.972,0.496-15.391,6.949-16.88,9.432
		c-1.489,2.483-6.951,21.845,9.433,23.831c16.383,1.985,26.313-1.49,29.787-3.476c3.476-1.986,29.292-2.979,38.725-3.972
		c9.433-0.993,45.178-3.876,62.555-13.108c17.376-9.233,44.185-38.524,50.143-38.524s6.951,8.355,10.922,7.404
		c3.972-0.95,13.901-7.9,20.852-11.872c6.95-3.973,14.397-9.6,14.894-11.502c0.496-1.902-1.49-20.769-5.461-26.229
		s-8.44-12.908-8.44-12.908s-5.958,9.929-12.908,15.391c-6.951,5.461-23.334,7.944-23.334,7.944s10.923,14.229,7.943,15.803
		c-2.978,1.573-15.39-13.818-15.39-13.818s-3.972,0-10.426-2.482c-6.454-2.481-8.44,4.717-8.44,4.717s-4.965-4.054-4.965-8.854
		s-5.461-2.316-11.418-7.281c-5.958-4.966-5.461-16.879-5.461-16.879s-7.612-29.954,13.901-45.841s48.984-11.585,62.554,0
		c13.571,11.586,11.916,40.047,11.253,40.875c-0.662,0.828,10.945,23.019,10.945,23.019c1.596-0.356,16.03-18.551,26.176-23.019
		l19.027-18.865l33.133-33.512"/>
	<circle fill="none" stroke="#000000" stroke-miterlimit="10" cx="1053.849" cy="1034.504" r="36.245"/>
	<path fill="none" stroke="#000000" stroke-miterlimit="10" d="M1285.683,905.071c-0.497,9.929-3.475,35.746-2.979,52.625
		c0.497,16.88,2.979,60.071,2.979,60.071s13.404,11.419,13.901,13.901c0.496,2.481,2.428,26.809-8.467,34.752
		c-10.895,7.943-15.859,8.937-15.859,8.937"/>
	<path fill="none" stroke="#000000" stroke-miterlimit="10" d="M1281.711,1056.988c-4.965,4.965-6.95,15.888-8.44,18.369
		c-1.489,2.482-21.844,29.291-24.823,29.291l-18.866,3.476c-6.455,0.994-23.334,2.979-34.752-3.476
		c-11.419-6.453-37.732-45.675-36.242-51.632c1.49-5.958,16.631-18.513,16.631-18.513"/>
	<path fill="none" stroke="#000000" stroke-miterlimit="10" d="M1236.037,1040.109c0,0-2.483,1.885-6.454,6.403
		c-3.972,4.518-10.922,9.979-14.895,10.476c-3.972,0.497-8.439-1.986-9.432,0c-0.993,1.985,2.482,6.454,2.482,9.929
		c0,3.476,0.497,8.44,0.497,8.44s16.383,6.454,18.369,9.434v-3.972c4.468-7.943,7.447-16.384,8.936-19.859
		c1.49-3.475,11.419-19.858,12.909-23.83c1.489-3.972,20.851-23.83,22.341-24.823c1.489-0.992,4.964,5.461,10.922,9.433"/>
	<path fill="none" stroke="#000000" stroke-miterlimit="10" d="M1120.857,1060.96c-0.497,4.469,8.936,14.397,8.936,14.397
		s12.823,8.986,15.39,11.915c4.721,5.385,17.873,13.405,17.873,13.405s18.249,7.446-4.528,3.971c0,0-7.883-3.971-13.345-3.971
		c-5.46,0-17.376-5.462-19.868-8.523c-2.492-3.063-10.912,0.58-12.898,0"/>
	<path fill="none" stroke="#000000" stroke-miterlimit="10" d="M1171,1034.504c0,0,2.482-5.317-7.943-7.303
		c-10.426-1.986-10.426-1.986-10.426-1.986l-14.894,14.895c0,0,8.439-0.497,12.908,0c4.468,0.496,12.412,2.481,12.412,2.481"/>
	<circle fill="none" stroke="#000000" stroke-miterlimit="10" cx="1373.557" cy="155.41" r="8.937"/>
	<circle fill="none" stroke="#000000" stroke-miterlimit="10" cx="1324.243" cy="231.039" r="11.418"/>
	<ellipse fill="none" stroke="#000000" stroke-miterlimit="10" cx="1323.911" cy="382.957" rx="8.108" ry="11.418"/>
	<path fill="none" stroke="#000000" stroke-miterlimit="10" d="M1484.932,242.458c-8.606,16.217-29.125,53.287-27.802,61.23
		s-0.062,13.9-0.062,13.9"/>
	<path fill="none" stroke="#000000" stroke-miterlimit="10" d="M1537.225,303.688c-15.225,10.591-46.335,20.521-60.237,25.155
		c-13.901,4.633-19.92,11.915-19.92,11.915l-9.207,13.901c0,0-7.28,0.662-8.604,5.958s0,10.591,9.93,15.887"/>
	<path fill="none" stroke="#000000" stroke-miterlimit="10" d="M1501.48,394.375c-3.972,10.591-24.554,37.069-30.48,39.055"/>
	<path fill="none" stroke="#000000" stroke-miterlimit="10" d="M1540.536,416.881c0,0-41.672,16.549-55.604,16.549"/>
	<path fill="none" stroke="#000000" stroke-miterlimit="10" d="M1438.827,454.612c-1.555,9.268-6.851,35.745-6.851,47.66"/>
	<path fill="none" stroke="#000000" stroke-miterlimit="10" d="M1450.509,544.344c-3.972,4.928-20.518,12.271-27.139,14.227"/>
	<path fill="none" stroke="#000000" stroke-miterlimit="10" d="M1423.371,238.154c-8.606,27.802-22.508,78.773-22.508,90.025
		c0,11.253-8.603,52.295-13.238,60.238"/>
	<path fill="none" stroke="#000000" stroke-miterlimit="10" d="M1380.508,335.461c-2.812,14.563-4.468,37.07-6.95,45.014
		c-2.483,7.943,3.475,74.138,3.475,74.138"/>
	<path fill="none" stroke="#000000" stroke-miterlimit="10" d="M1339.964,257.352c-1.985,38.393-1.323,80.757,0,100.616
		c1.323,19.858,7.943,41.704,9.929,55.936s-1.986,16.88,0,26.147c1.986,9.267,9.93,21.844,9.93,29.125"/>
	<path fill="none" stroke="#000000" stroke-miterlimit="10" d="M1444.813,382.957c-6.881,2.15-9.528,5.46-12.838,12.08
		c-3.311,6.62-15.227,40.38-17.211,41.042c-1.986,0.661-7.281,1.323-9.267-2.648"/>
	<path fill="none" stroke="#000000" stroke-miterlimit="10" d="M1416.088,413.903c-7.943,6.95-23.167,28.793-28.463,37.399
		c-5.296,8.605-21.844,13.899-27.802,27.14c-5.958,13.24-10.519,34.663-10.556,38.845"/>
	<path fill="none" stroke="#000000" stroke-miterlimit="10" d="M1304.88,185.198c-4.635,17.872-9.268,29.788-9.268,41.703
		c0,11.916,1.326,48.654,4.634,58.086"/>
	<path fill="none" stroke="#000000" stroke-miterlimit="10" d="M1308.189,303.688c-0.662,12.577-11.25,39.055-7.942,48.322"/>
	<path fill="none" stroke="#000000" stroke-miterlimit="10" d="M1235.375,146.475c-4.635,12.246-5.958,74.303-13.901,88.618"/>
	<path fill="none" stroke="#000000" stroke-miterlimit="10" d="M1195.823,133.566c0.496,13.9,4.8,102.603,3.972,111.87"/>
	<path fill="none" stroke="#000000" stroke-miterlimit="10" d="M1199.9,260c-0.27,7.281,39.445,110.546,54.671,140.995"/>
	<path fill="none" stroke="#000000" stroke-miterlimit="10" d="M1195.823,436.579c-5.461,1.486-18.05,1.45-32.271,9.429"/>
	<path fill="none" stroke="#000000" stroke-miterlimit="10" d="M1228.425,363.264c-10.261,4.633-63.879,25.816-64.872,25.154"/>
	<path fill="none" stroke="#000000" stroke-miterlimit="10" d="M1179.688,284.987c-0.58,8.109-3.196,25.816-8.424,28.298"/>
	<path fill="none" stroke="#000000" stroke-miterlimit="10" d="M1349.268,964.322c-17.906,0-26.751-13.24-26.962,0
		c-0.211,13.239,1.437,36.188,1.937,47.882c0.5,11.694,3.286,52.391,14.469,63.153"/>
	<line fill="none" stroke="#000000" stroke-miterlimit="10" x1="1537.225" y1="1092.154" x2="1349.268" y2="1080.57"/>
</g>
<g id="Calque_4">
	<path fill="none" stroke="#000000" stroke-miterlimit="10" d="M2312.37,238.154c0,0-47.648-43.032-79.423-52.956
		c-31.772-9.925-48.335-23.831-50.983-23.831c-2.646,0-21.18,11.254-22.504,9.268s-5.297-4.633-17.874-3.972
		c-12.576,0.661-19.196,3.972-31.772,0s-31.774-2.649-43.689-5.296s-32.437,22.506-39.056,31.774
		c-6.619,9.268-3.308,14.562-6.619,15.887c-3.311,1.325-37.07,41.042-43.026,48.985c-5.959,7.943-25.154,40.377-29.126,45.674
		c-3.972,5.296-6.62,15.888-7.281,23.168c-0.662,7.281-20.522,44.351-21.183,49.647c-0.663,5.294-10.592,37.066-8.606,48.652
		c1.987,11.585-2.648,15.555-3.31,29.457c-0.66,13.902,6.619,20.521,0,33.098c-6.619,12.578-5.296,33.759-7.943,39.717
		c-2.647,5.958,8.607,16.284,8.607,24.029c0,7.745-1.327,128.221,11.252,142.784c12.578,14.562,33.1,19.858,44.352,21.844
		c11.251,1.986,31.773,15.885,31.773,31.111c0,15.225,9.267,40.378,15.224,49.646s13.242,19.859,14.563,25.155
		c1.323,5.296-6.619-31.112-9.928-41.041c-3.312-9.93-7.284-23.169-8.607-33.76c-1.323-10.59-0.664-26.476-11.915-35.083
		c-11.252-8.606-47.66-24.494-56.266-34.423c-8.604-9.929-11.253-33.759-7.281-41.041c0,0-1.323-21.845,4.634-26.479
		c5.958-4.633,10.223-19.858,15.372-23.83c5.148-3.972,0-17.78,0-17.78c-9.121-8.182-22.985-27.232-16.696-39.81
		c6.29-12.577,24.823-12.908,49.646-6.95c24.822,5.957,36.077,19.858,42.364,25.999c6.288,6.141,15.226,8.092,23.5,11.306
		c8.275,3.213,12.908,4.73,18.203,4.729c5.295,0,15.225-2.647,46.999,6.939c31.773,9.586,43.357,31.124,43.357,31.124
		s6.951-0.993,8.275-1.986c1.324-0.993,23.498-37.401,30.448-47.33c6.951-9.929,28.592-40.713,33.43-47.991
		c15.257-22.951,3.641-32.104,3.641-32.104c-8.606,3.31-11.252,4.634-13.9,6.62c-2.649,1.986-13.24,11.583-19.198,12.742
		c-5.957,1.159-39.715-2.482-44.351,0c-4.634,2.482-13.9,9.765-19.196,9.102c-5.296-0.662-18.534-8.563-26.478-14.21
		c-7.944-5.647-20.52-3.663-25.816-4.324c-5.296-0.661-26.478-11.253-27.802-13.238c-1.324-1.986-3.972,1.985-7.943,0
		c-3.973-1.986-15.228-12.577-18.536-15.225s-13.237-1.323-18.533-5.958c-5.298-4.634-7.943-19.197-7.943-19.197
		s-7.282,1.324-11.915,0c-4.634-1.323-22.506-37.731-25.817-45.675c-3.31-7.943,0-17.872,0-17.872"/>
	<path fill="none" stroke="#000000" stroke-miterlimit="10" d="M1962.859,368.559c3.291,9.031-2.648,54.983-6.62,64.561
		c-3.972,9.577-16.548,67.168-16.548,74.449"/>
	<path fill="none" stroke="#000000" stroke-miterlimit="10" d="M2136.29,334.137c0,11.915-8.602,33.098-9.266,38.394"/>
	<path fill="none" stroke="#000000" stroke-miterlimit="10" d="M2007.21,283.167c-5.957,5.296-31.774,27.801-36.406,34.421"/>
	<path fill="none" stroke="#000000" stroke-miterlimit="10" d="M2007.21,290.448c-5.295,4.634-31.11,32.437-33.096,37.07"/>
	<path fill="none" stroke="#000000" stroke-miterlimit="10" d="M1995.295,487.379c3.311,2.979,35.082,30.45,37.73,34.422"/>
	<path fill="none" stroke="#000000" stroke-miterlimit="10" d="M2076.715,540.667c3.972-1.656,46.007-0.663,49.978,0"/>
	<path fill="none" stroke="#000000" stroke-miterlimit="10" d="M1966.021,475.463c0.811,2.318,18.352,20.853,25.303,23.169
		c6.95,2.316,23.83,14.231,26.147,16.217"/>
	<path fill="none" stroke="#000000" stroke-miterlimit="10" d="M1980.401,500.992c1.324,4.26,6.289,20.478,35.084,20.809"/>
	<path fill="none" stroke="#000000" stroke-miterlimit="10" d="M2089.954,543.645c-0.66,1.324-1.654,2.979-1.654,2.979
		s4.302,5.626,7.611,5.957"/>
	<path fill="none" stroke="#000000" stroke-miterlimit="10" d="M2100.472,552.581c4.709,4.303,13.314,19.528,43.433,9.929"/>
	<path fill="none" stroke="#000000" stroke-miterlimit="10" d="M2112.461,543.645c4.634,1.986,23.829,8.936,23.829,8.936"/>
	<path fill="none" stroke="#000000" stroke-miterlimit="10" d="M2157.142,563.834c-1.985,0.993-15.886,10.923-28.794,9.268"/>
	<path fill="none" stroke="#000000" stroke-miterlimit="10" d="M1984.704,581.376c5.958,1.324,27.47-0.993,34.753-4.964
		c7.281-3.972,8.936-16.879,13.568-17.306c4.634-0.427,27.474,11.349,29.127,11.667c1.654,0.319,1.654,6.301,5.958,20.864
		c4.304,14.563,23.829,26.809,35.084,31.442c11.254,4.633,36.074,7.613,45.674,4.303c9.6-3.309,11.916-14.563,11.916-14.563
		s7.279-1.655,9.598-2.979c2.317-1.324,14.232-23.83,19.197-32.436c4.964-8.605,20.188-28.464,24.159-33.76l-24.491,52.564
		c-7.943,9.929-16.548,31.146-37.73,42.909c-21.184,11.763-45.348,25.994-49.814,27.65l-37.563,12.578
		c-13.239,6.288-33.43,13.901-49.978,6.951c-16.548-6.951-35.746-32.437-41.371-37.732c-5.627-5.295-24.822-25.815-25.485-40.048"/>
	<path fill="none" stroke="#000000" stroke-miterlimit="10" d="M2073.735,578.233c-2.953,4.779,0.335,29.622,30.451,38.558
		c30.118,8.937,43.689,4.303,47.33-3.972c3.64-8.274,1.322-23.83-31.112-34.586C2087.97,567.476,2079.362,569.132,2073.735,578.233z
		"/>
	<path fill="none" stroke="#000000" stroke-miterlimit="10" d="M2015.485,573.287c2.718-0.367,9.199-2.234,5.296-20.044
		c-3.903-17.81-38.724-25.153-50.971-29.125c-12.247-3.972-17.542-1.325-18.057,7.281c-0.517,8.605,11.438,24.823,18.057,30.45
		C1969.811,561.85,1984.704,577.444,2015.485,573.287z"/>
	<path fill="none" stroke="#000000" stroke-miterlimit="10" d="M1991.745,604.214c5.536,6.95,21.424,27.802,37.973,31.773
		c16.547,3.972,41.702,5.958,58.582-5.295"/>
	<path fill="none" stroke="#000000" stroke-miterlimit="10" d="M1993.31,617.454c1.985,4.632,10.59,24.16,25.815,31.441
		c15.225,7.282,38.063,5.958,55.935-6.95"/>
	<path fill="none" stroke="#000000" stroke-miterlimit="10" d="M1890.707,535.701c-8.604,1.656-90.686-6.288-112.529,4.965
		c-21.846,11.252-77.451,89.592-88.042,112.646c-10.59,23.053-63.547,173.978-69.504,183.247
		c-5.958,9.268-24.49,68.183-31.772,74.14c-7.282,5.957-14.562,0.664-17.873,7.943s0,26.479-5.296,27.802
		c-5.296,1.322-15.889,11.913-17.211,15.224c-1.323,3.31,0,7.28-4.633,11.915c-4.634,4.634-11.918,15.228-13.24,22.508
		c-1.323,7.28-0.664,46.334,0,54.939c0.663,8.607-1.529,25.153-0.765,29.789"/>
	<path fill="none" stroke="#000000" stroke-miterlimit="10" d="M1771.559,744.548c-1.324,17.21,5.957,50.31,9.929,55.604
		c3.972,5.295,8.607,7.281,7.943,10.591c-0.663,3.31-11.915,17.209-13.9,26.477c-1.986,9.268-2.966,15.889-4.131,28.465
		s-1.482,28.463,0,39.386c1.48,10.922-6.124,73.146-0.997,89.696c5.128,16.548,12.827,46.999,8.645,59.574
		c-4.18,12.576-11.413,28.295-10.444,32.021c0.97,3.726,2.163,19.612-0.089,20.273c-2.251,0.661,36.141,9.267,43.423,10.591"/>
	<path fill="none" stroke="#000000" stroke-miterlimit="10" d="M2213.738,621.646c-9.927,23.609-37.067,54.951-43.025,67.413
		c-5.957,12.462-5.957,36.955-5.957,44.899"/>
	<path fill="none" stroke="#000000" stroke-miterlimit="10" d="M2268.021,726.675c-2.648,21.183-15.888,42.366-25.816,54.942
		c-9.93,12.577-17.873,37.73-19.858,50.969"/>
	<path fill="none" stroke="#000000" stroke-miterlimit="10" d="M2203.15,1040.438c-8.604,3.311-56.266,7.943-60.237,7.943
		s-39.054-3.309-53.618,2.648c-14.563,5.958-19.196,3.972-19.196,7.943s2.646,41.041,3.972,43.026
		c1.324,1.986,13.237,15.887,10.59,29.126c-2.646,13.24-7.941,27.142-7.28,29.127"/>
	<path fill="none" stroke="#000000" stroke-miterlimit="10" d="M2312.37,1164.886c-13.238,0-35.746-5.956-44.35-4.633
		c-8.604,1.323-84.73-0.663-103.265-10.592c-18.534-9.931-0.661,3.973-13.238,10.592c-12.576,6.619-46.999,1.985-63.547,4.633
		s-40.38-2.647-45.014-4.633c-4.633-1.985-37.07-5.295-63.879-6.287c-26.81-0.993-83.739-3.312-96.977-2.979
		c-13.238,0.332-23.831,1.984-23.831-0.332c0-2.313,0-10.589,2.317-11.583c2.317-0.993,21.847-6.949,30.119-10.922
		c8.274-3.972,35.746-2.646,42.365-4.632c6.619-1.987,32.764-2.979,41.371-3.312"/>
	<path fill="none" stroke="#000000" stroke-miterlimit="10" d="M1890.707,1096.376c-9.929,5.958-45.675,24.821-51.963,27.471
		c-6.289,2.648-22.838,19.526-23.831,21.844c-0.992,2.318,1.988,10.259,8.275,12.908"/>
	<path fill="none" stroke="#000000" stroke-miterlimit="10" d="M2066.124,1063.277c-10.591-1.653-35.082-4.631-45.343-6.287
		s-35.084-4.304-39.056-5.296c-3.972-0.993-16.879-5.628-21.845-4.304c-4.965,1.325-11.253,9.93-26.147,15.887
		c-14.895,5.958-28.133,7.284-33.76,9.6s-12.908,3.309-16.88,5.295c-3.972,1.985-25.815,15.221-36.406,22.175
		c-10.591,6.952-26.193,19.199-31.963,22.839c-5.769,3.64-26.951,13.899-17.684,25.484c9.269,11.584,17.684,3.643,17.684,3.643"/>
	<path fill="none" stroke="#000000" stroke-miterlimit="10" d="M1768.419,896.135c-4.145,8.439-23.507,58.086-25.988,69.505
		c-2.483,11.418-10.923,33.263-11.419,39.716c-0.498,6.455-4.966,20.852-15.391,29.789c-10.427,8.937-9.433,15.886-13.901,19.361"/>
	<path fill="none" stroke="#000000" stroke-miterlimit="10" d="M1750.044,1142.909c2.316-0.86,7.94-6.488,8.604-8.804
		c0.663-2.315,0.995-10.919,2.649-13.899c1.653-2.98,8.615-10.592,7.121-11.586"/>
	<path fill="none" stroke="#000000" stroke-miterlimit="10" d="M1766.592,1079.164c0,0-5.957-5.296-8.937-6.288
		c-2.979-0.993-11.254-1.324-17.872-1.324c-6.619,0-26.48-4.303-34.753-7.282c-8.272-2.978-13.237-2.978-13.237-2.978"/>
	<path fill="none" stroke="#000000" stroke-miterlimit="10" d="M1621.956,1080.819c8.275,10.59,35.745,36.076,41.703,39.387
		c5.957,3.312,28.463,10.92,34.091,13.569s19.527,18.202,22.506,18.866c2.979,0.663,15.226,2.315,19.527-5.297"/>
	<path fill="none" stroke="#000000" stroke-miterlimit="10" d="M1721.249,1112.262c-10.591-4.966-20.191-14.231-24.823-18.203
		c-4.633-3.972-16.216-15.558-18.535-20.19c-2.317-4.633-14.231-20-31.772-26.713c-17.543-6.715-26.811-3.405-33.43,4.207
		c-6.619,7.611-17.21,18.202-20.521,22.506c-3.31,4.304-10.921,23.828-11.914,38.394c-0.994,14.563-7.614,58.252,7.612,69.175
		c15.225,10.922,35.744,6.95,42.035,7.611c6.289,0.661,38.06,3.311,42.363,3.311"/>
	<path fill="none" stroke="#000000" stroke-miterlimit="10" d="M1596.801,1162.238c6.289,1.986,35.782,13.241,52.809,22.838
		c17.028,9.599,30.268,4.967,35.232,3.311s18.203-7.943,27.47-13.901"/>
	<path fill="none" stroke="#000000" stroke-miterlimit="10" d="M1604.745,1122.854c6.951,5.957,40.048,37.525,57.922,42.759
		c17.872,5.231,53.618,4.239,58.583,2.584"/>
	<path fill="none" stroke="#000000" stroke-miterlimit="10" d="M1735.067,1153.266c2.4,4.339,6.372,8.973,6.372,8.973
		s20.853,21.843,22.176,21.182c1.321-0.661-8.275-28.535-9.269-30.154c-0.992-1.62-4.943-8.569-4.943-8.569"/>
	<path fill="none" stroke="#000000" stroke-miterlimit="10" d="M1667.3,1057.649c-1.322-1.653-21.514-26.809-41.703-54.942
		c-20.188-28.134-20.852-32.435-16.549-35.414c0,0,2.978-6.289,30.119,28.795c27.14,35.085,85.722,110.547,85.722,110.547"/>
	<path fill="none" stroke="#000000" stroke-miterlimit="10" d="M1733.164,1084.791c-1.986,3.64-9.268,18.863-3.972,30.448"/>
	<path fill="none" stroke="#000000" stroke-miterlimit="10" d="M2112.461,705.492c-1.655,15.887-17.871,28.252-24.161,45.403
		c-6.289,17.151-17.626,89.634-15.433,104.529c2.192,14.895,7.203-22.923,12.452-32.904c6.787-12.908,36.868-28.657,36.868-14.857
		c0,13.744-12.707,40.811-20.485,45.775c-7.775,4.965-45.507,27.802-46.5,61.562c-0.993,33.76,9.827-22.837,33.709-25.816
		c23.881-2.979,36.871,0,23.922,15.887c-12.95,15.887-33.797,30.78-42.734,35.746"/>
</g>
<g id="Calque_5">
	<path fill="none" stroke="#000000" stroke-miterlimit="10" d="M622.998,865.024c-20.449,11.916-44.941,13.24-52.884,15.887
		s-45.675,9.265-50.971,11.251c-5.295,1.985-59.001,23.785-71.491,43.027"/>
	<path fill="none" stroke="#000000" stroke-miterlimit="10" d="M519.805,881.572c-10.591,0-40.379,17.871-46.336,18.535"/>
	<path fill="none" stroke="#000000" stroke-miterlimit="10" d="M515.833,906.727c5.958,0.661,48.985,9.267,56.266,15.224"/>
	<path fill="none" stroke="#000000" stroke-miterlimit="10" d="M479.426,1055.375c-7.281,0.291-13.323,0.95-15.929-2.358
		c-2.606-3.308-29.085-64.206-15.845-78.771c13.239-14.563,41.042-37.731,64.872-35.744l9.929,6.619
		c-9.929,0-46.998-1.985-55.604,21.182c-8.606,23.167-1.324,79.765,29.788,96.147c0,0,39.881,19.006,47.329,19.929
		s34.256,5.391,36.738,4.15c2.482-1.241-19.859-15.781-19.859-15.781c9.93,8.086,36.118,29.268,44.868,29.931
		c8.75,0.662,61.706,3.309,68.326,0c6.62-3.31,13.901-14.149,13.901-14.149"/>
	<path fill="none" stroke="#000000" stroke-miterlimit="10" d="M502.595,926.585c-11.916,3.972-33.519,18.093-39.098,27.802"/>
	<path fill="none" stroke="#000000" stroke-miterlimit="10" d="M561.508,987.483c5.958,0,12.577-0.496,15.225,2.73
		s22.507,23.416,35.084,27.554c12.576,4.139,36.406,8.273,45.012,11.171c8.605,2.896,34.421,18.782,26.478,32.021
		c-7.943,13.24-15.887,11.865-17.873,10.897c-1.986-0.969-24.493-10.236-29.126-10.897c-4.633-0.66-33.759,3.973-42.364,0
		c-8.605-3.972-28.463-30.891-37.731-34.642"/>
	<path fill="none" stroke="#000000" stroke-miterlimit="10" d="M676.357,1073.868c5.625,3.64,12.246,8.604,13.239,9.599
		c0.993,0.992,5.626,3.062,5.626,3.062l24.823,15.777l-32.105-39.856L676.357,1073.868z"/>
	<path fill="none" stroke="#000000" stroke-miterlimit="10" d="M620.509,999.646c5.125-1.489,12.821-10.178,16.295-9.184
		c3.476,0.992,3.228,4.468,5.213,11.666s4.468,20.106,4.468,20.106h-4.468c0,0-50.143-44.185-55.604-47.659
		c-5.461-3.476-79.931-69.257-83.819-70.002c-3.889-0.745-9.621,7.199-9.621,7.199c0.849,3.475,73.354,70.411,77.056,73.477"/>
	<path fill="none" stroke="#000000" stroke-miterlimit="10" d="M766.714,1251.604c-6.619,0.662-22.507,2.646-78.773-3.972
		c-56.266-6.619-236.979-23.83-253.527-25.817c-16.549-1.984-23.831-12.577-23.831-16.549s8.605-44.35,8.605-44.35v-13.902
		c0,0,18.534-24.491,24.777-31.486c0,0,136.739,16.925,163.217,19.572c26.478,2.646,123.784,17.874,130.404,21.182
		c6.62,3.31,22.508,11.776,29.127,11.515"/>
	<path fill="none" stroke="#000000" stroke-miterlimit="10" d="M427.133,1167.797c8.604,1.724,41.662,12.743,55.914,16.17
		c14.251,3.427,149.29,8.062,171.797,6.737c22.506-1.324,63.547,7.282,77.448,9.929c13.901,2.647,23.831,11.254,25.816,11.915
		c1.986,0.662,16.548,12.579,19.197,17.212"/>
	<path fill="none" stroke="#000000" stroke-miterlimit="10" d="M1106.46,636.98c-24.327,25.816-100.782,68.512-106.74,77.448
		c-5.958,8.937-16.879,50.64-20.852,53.618c-3.972,2.979-34.752,33.76-34.752,52.129c0,18.369,0,33.262,0,33.262"/>
	<path fill="none" stroke="#000000" stroke-miterlimit="10" d="M1145.184,502.272c-12.412,20.521-80.923,94.99-101.278,106.906"/>
	<path fill="none" stroke="#000000" stroke-miterlimit="10" d="M1085.112,491.847c-26.809,28.961-78.441,135.205-91.349,191.801"/>
	<path fill="none" stroke="#000000" stroke-miterlimit="10" d="M952.059,815.707c4.965,0,23.817,3.972,37.228,12.411
		c13.412,8.441,50.15,36.906,50.15,36.906"/>
	<path fill="none" stroke="#000000" stroke-miterlimit="10" d="M979.861,832.587c0,0-11.915,10.922-6.95,20.851
		c4.964,9.93,30.781,5.299,34.752,11.586c3.972,6.288,25.816,35.412,31.773,38.722"/>
	<path fill="none" stroke="#000000" stroke-miterlimit="10" d="M1100.005,914.338c10.923-24.162,66.71-326.012,69.267-347.856
		c2.556-21.844,26.878-81.042-56.855-120.475c-76.952-36.24-152.414,32.436-152.414,32.436l-7.944,13.404
		c1.987,18.039,16.88,93.501,7.944,100.452c-8.937,6.95-17.873,29.787-15.887,34.752c1.986,4.964,10.364,61.562-0.279,60.568
		c-10.643-0.992-86.105-44.682-89.084-44.682c-2.979,0-19.858,25.816-23.83,23.831c-3.972-1.986-19.859,0-19.859,0"/>
	<path fill="none" stroke="#000000" stroke-miterlimit="10" d="M620.509,478.443c9.842,0.662,40.623-4.635,45.587,13.404
		c4.965,18.039,19.546,105.416,18.709,108.396c-0.837,2.979-18.709,51.632-15.73,57.59c2.979,5.958,18.866,0,18.866,0"/>
	<path fill="none" stroke="#000000" stroke-miterlimit="10" d="M685.458,441.293c13.901-4.884,18.369-10.346,18.369-10.346
		s12.908,23.831,12.908,28.299s4.468,0.496,6.951,2.482c2.483,1.985,20.852,18.866,24.824,18.866c3.971,0,11.915,0,11.915,0"/>
	<path fill="none" stroke="#000000" stroke-miterlimit="10" d="M750.992,465.204c2.482,2.979,30.284,32.767,30.284,32.767"/>
	<path fill="none" stroke="#000000" stroke-miterlimit="10" d="M769.857,478.203c4.468,0.902,19.709,14.306,20.032,19.768
		c0.323,5.461,3.799,17.376,6.777,19.859c2.979,2.482,9.929,2.979,14.397,0c4.468-2.979,13.404-3.476,19.362-4.469
		c5.958-0.993,7.943-10.757,12.412-11.088c4.469-0.33,13.405,2.481,18.369,2.317c0,0,10.095,1.656,15.06,3.641
		c4.964,1.986,15.887,4.301,21.844-2.317c5.958-6.619,8.274-17.542,11.915-16.88c3.642,0.662,19.528,3.972,23.5,0
		s4.964-13.569,10.591-15.225c5.626-1.656,12.578,4.964,14.232,0s23.499-19.197,23.499-19.197l-3.972-29.457
		c0,0,17.873-10.424,19.362-11.252c1.49-0.828,2.483-20.687,6.951-22.176c4.468-1.489-6.951,0.859-10.426-3.293
		c-3.476-4.153,6.95-13.254,6.95-16.896c0-3.641-11.418-20.521-6.95-27.967c4.468-7.447,21.844-36.242,15.39-51.136
		c-6.454-14.894,8.937-20.355,8.937-20.355s-7.447-7.776-8.44-12.08c-0.993-4.304,0.993-13.405,0.497-17.542
		c-0.497-4.137-12.909-15.557-16.383-19.032c-3.476-3.475-12.909-15.39-15.887-17.873c-2.979-2.483-6.252-0.496-15.041-5.461
		c-8.789-4.964-7.796-27.801-9.286-31.277c-1.49-3.476-16.88-15.887-26.313-18.866c-9.432-2.979-36.738,2.979-42.199,0
		c-5.461-2.979-23.334-13.405-29.788-18.865c-6.454-5.461-21.348-0.993-27.306,0c-5.958,0.993-40.213-0.363-43.688-2.664
		s-31.277-10.741-32.767-10.741c-1.49,0,9.433,18.369,6.95,21.844c-2.482,3.475-12.412,2.482-16.88,0
		c-4.468-2.482-17.376-10.426-18.865-5.957c-1.49,4.468-9.433,16.383-10.922,16.383c-1.49,0-21.349,12.908-23.831,12.908
		c-2.482,0-18.37,10.922-24.327,20.852c-5.958,9.929-22.341,22.837-26.809,22.837c-4.468,0-16.383,3.476-18.865,13.405
		c-2.482,9.93-1.49,30.284-6.95,32.767c-5.461,2.482-17.873,5.957-19.859,11.914c-1.986,5.958,6.454,19.859,5.958,27.306
		c-0.496,7.447-1.986,3.972-8.936,7.199c-6.951,3.227-23.831,5.213-23.831,5.213l22.837,6.454c0,0-14.397,7.943-15.39,15.887
		c-0.993,7.943,9.433,24.823,12.908,32.27c3.476,7.447,0,19.859-0.496,23.334c-0.497,3.475,6.95,7.944,10.922,13.404
		c3.972,5.461,18.866,12.412,18.866,15.391c0,2.979-6.579,8.44-8.254,11.418c-1.676,2.979,14.211,14.733,21.162,18.785
		c6.951,4.052,6.956,17.953,13.408,21.429c6.451,3.475,22.338-1.986,23.827,5.46c1.489,7.447-4.964,10.021-4.964,10.021"/>
	<path fill="none" stroke="#000000" stroke-miterlimit="10" d="M692.649,461.729c4.228,1.985,39.477,18.866,50.399,24.327
		c10.922,5.461,40.213,20.355,38.228,21.845s-2.482,7.943-6.951,8.44"/>
	<path fill="none" stroke="#000000" stroke-miterlimit="10" d="M687.941,463.714c5.461,1.986,14.894,11.419,17.873,12.412"/>
	<path fill="none" stroke="#000000" stroke-miterlimit="10" d="M716.735,484.069c4.468,5.958,21.845,13.901,26.809,13.901"/>
	<path fill="none" stroke="#000000" stroke-miterlimit="10" d="M828.688,530.241c-0.249,5.212,2.234,15.886,0,19.362
		s-10.674,13.901-10.674,13.901"/>
	<path fill="none" stroke="#000000" stroke-miterlimit="10" d="M760.424,525.524c1.241,1.49,5.958,7.695,3.476,10.177"/>
	<path fill="none" stroke="#000000" stroke-miterlimit="10" d="M760.424,545.631c0,4.22,5.709,14.149,8.44,17.873
		c2.731,3.724,10.866,17.376,12.508,18.617"/>
	<path fill="none" stroke="#000000" stroke-miterlimit="10" d="M743.544,554.567c2.234,2.979,27.354,16.88,27.354,16.88"/>
	<path fill="none" stroke="#000000" stroke-miterlimit="10" d="M750.992,567.972c2.73,1.738,19.61,13.156,26.313,14.149"/>
	<path fill="none" stroke="#000000" stroke-miterlimit="10" d="M750.992,543.645c-2.731,1.738-7.447,4.716-7.447,4.716"/>
	<path fill="none" stroke="#000000" stroke-miterlimit="10" d="M680.659,476.126c2.647,4.965,13.238,30.449,23.499,40.214
		c10.261,9.764,28.795,40.214,31.443,44.517c2.648,4.302,17.211,26.891,17.211,26.891"/>
	<path fill="none" stroke="#000000" stroke-miterlimit="10" d="M702.834,519.881c-1.324,7.877-5.296,24.26-4.634,26.991
		c0.662,2.73,12.577,28.547,13.571,39.139c0.992,10.591-6.951,21.844-5.958,22.837c0.993,0.993,1.497,6.62,6.044,5.958"/>
	<path fill="none" stroke="#000000" stroke-miterlimit="10" d="M696.877,512.203c-1.986,7.943-5.957,22.175-6.288,27.14
		c-0.332,4.964,3.31,46.845,3.145,50.396"/>
	<path fill="none" stroke="#000000" stroke-miterlimit="10" d="M673.377,476.126c1.986,6.62,11.254,50.308,12.081,54.115"/>
	<path fill="none" stroke="#000000" stroke-miterlimit="10" d="M587.324,551.457c-1.985,3.773-21.845,32.236-8.605,57.722
		s30.451,38.723,31.112,46.005"/>
	<path fill="none" stroke="#000000" stroke-miterlimit="10" d="M587.987,700.361c-3.311,0.498-9.268,3.807-5.296,11.089
		c3.972,7.282,29.788,26.477,33.759,33.759"/>
	<path fill="none" stroke="#000000" stroke-miterlimit="10" d="M599.242,774.336c-10.593,7.943-19.86,16.55-27.142,31.773
		c-7.282,15.224-23.169,44.351-28.133,47.329"/>
	<path fill="none" stroke="#000000" stroke-miterlimit="10" d="M620.509,793.531c-1.412,19.858-7.369,67.522-31.199,71.493"/>
	<path fill="none" stroke="#000000" stroke-miterlimit="10" d="M873.288,762.42c5.958,0.662,68.843-7.825,70.829-11.525"/>
	<path fill="none" stroke="#000000" stroke-miterlimit="10" d="M1028.184,543.645c-5.295,17.542-56.266,177.732-59.576,188.325"/>
	<path fill="none" stroke="#000000" stroke-miterlimit="10" d="M1010.642,921.95c-1.986,7.944-39.22,99.293-53.618,100.285
		c-14.397,0.994,37.234,2.979,56.1-21.844C1031.99,975.568,1010.642,921.95,1010.642,921.95z"/>
	<path fill="none" stroke="#000000" stroke-miterlimit="10" d="M991.777,930.39c0.496,7.943-5.958,18.37-10.923,24.327
		c-4.964,5.957-30.78,26.313-30.78,26.313s1.947-1.481,4.449-8.684S991.777,930.39,991.777,930.39z"/>
	<path fill="none" stroke="#000000" stroke-miterlimit="10" d="M984.826,958.438c-0.496,5.711-17.872,48.904-24.823,51.883
		s-10.426-13.405-7.944-17.377C954.542,988.973,984.826,958.438,984.826,958.438z"/>
	<path fill="none" stroke="#000000" stroke-miterlimit="10" d="M210.014,1071.717c0,0,230.359-46.506,230.359-53.949
		s-17.21-21.684-15.887-36.738c1.324-15.056,11.915-24.662,13.24-33.928s0-21.183,0-29.126s31.773-46.335,37.069-55.604
		c5.295-9.268,5.295-14.563,10.592-62.223c5.296-47.661,27.801-117.829,27.801-133.38s0-44.023,25.154-99.627
		c25.154-55.605,37.069-60.901,60.899-75.294c0,0,6.607-6.432,6.62,12.743c0.021,30.805,6.619,128.747,9.267,151.252
		c2.648,22.506,13.239,85.518,15.887,95.054c2.648,9.535,6.621,106.187,9.268,145.239l-10.595,7.611
		c-1.654,6.621,0.993,15.891,0,22.839s-17.873,36.645-19.196,41.325c-1.323,4.679-3.309,16.263-3.309,16.263
		s32.104-15.556,35.083-16.216c2.979-0.661,26.809,5.957,29.788,8.936c2.979,2.979,12.247,3.641,15.887,6.619
		c0,0,9.174,7.229,6.95,13.494c-0.139,0.394-3.971,11.99-10.085,20.762c-6.113,8.771-1.498,16.715,1.481,16.715
		c2.34,0,74.038,3.472,104.667,4.963"/>
	<path fill="none" stroke="#000000" stroke-miterlimit="10" d="M841.845,582.121c3.476-4.716,18.369-23.583,21.348-27.554
		c2.979-3.971,13.405-17.956,19.859-22.63c6.454-4.675,25.651-22.547,25.651-22.547"/>
	<path fill="none" stroke="#000000" stroke-miterlimit="10" d="M873.288,578.894c1.324-3.972,13.735-30.375,18.7-34.55
		c4.965-4.174,9.433-17.082,11.915-18.82c2.482-1.738,17.377-22.34,17.377-22.34l2.978-0.911
		c-3.972,12.578-17.376,52.294-22.093,66.195c-4.716,13.901-13.652,21.845-13.652,32.767c0,10.922-4.965,18.865-4.965,18.865
		s-30.781,8.937-34.752,12.909s-30.781,13.9-40.71,20.852c-9.929,6.95-21.107,25.815-17.503,29.787
		c3.603,3.972,71.122,106.042,92.966,124.016c21.845,17.973,85.951,60.669,88.153,64.641c2.203,3.972-10.705,56.182-15.67,72.773
		c-4.964,16.591-13.91,50.377-15.886,58.687c-7.02,29.519-57.59-40.384-57.59-40.384c-39.717-39.494-110.215-146.68-126.102-170.51
		c-15.886-23.83-56.597-105.25-58.25-110.214c-1.654-4.965-8.275-27.803-4.304-41.704c3.972-13.9,55.604-48.653,58.583-49.646
		c2.979-0.993,21.844-4.964,31.774-4.964c0,0,22.837-3.26,32.271-13.545c9.432-10.286,26.312-29.552,32.27-38.288
		c5.958-8.736,22.837-24.623,22.837-24.623"/>
	<circle fill="none" stroke="#000000" stroke-miterlimit="10" cx="814.787" cy="686.875" r="8.192"/>
	<path fill="none" stroke="#000000" stroke-miterlimit="10" d="M802.459,476.126c4.633,4.965,11.915,23.499,15.555,21.844
		c3.641-1.655,16.881-3.31,18.205-6.124C837.542,489.034,802.459,476.126,802.459,476.126z"/>
	<path fill="none" stroke="#000000" stroke-miterlimit="10" d="M845.485,146.475c0,10.259-9.871,22.838-15.857,25.485
		s-27.169,5.294-31.803,10.591c-4.634,5.296-10.591,25.154-16.549,26.478c-5.957,1.323-25.651,18.867-34.008,22.01
		c-8.357,3.144-32.188,10.426-30.533,14.397c1.656,3.972-5.283,26.478-11.743,32.435s-14.735,38.393-19.534,39.717
		c-4.799,1.325-16.714,19.859-34.586,22.507c-17.873,2.648-41.041,19.859-41.041,19.859"/>
	<path fill="none" stroke="#000000" stroke-miterlimit="10" d="M832.3,400.995c-0.346,0.569-0.739,1.219-1.167,1.933
		c-4.546,7.576-13.119,22.228-13.119,22.228s15.631-1.654,18.241-5.626c2.61-3.972,2.023-28.463,0-25.154
		C834.233,397.685,832.3,400.995,832.3,400.995z"/>
	<path fill="none" stroke="#000000" stroke-miterlimit="10" d="M711.857,299.137c-2.072,7.199,3.223,9.185,4.878,9.185
		c1.656,0,7.447-15.225,6.206-17.21S711.857,299.137,711.857,299.137z"/>
</g>
</svg>
