<?xml version="1.0" encoding="utf-8"?>
<!-- Generator: Adobe Illustrator 16.0.0, SVG Export Plug-In . SVG Version: 6.00 Build 0)  -->
<!DOCTYPE svg PUBLIC "-//W3C//DTD SVG 1.1//EN" "http://www.w3.org/Graphics/SVG/1.1/DTD/svg11.dtd">
<svg version="1.1" id="Layer_1" xmlns="http://www.w3.org/2000/svg" xmlns:xlink="http://www.w3.org/1999/xlink" x="0px" y="0px"
	 width="539.771px" height="719.771px" viewBox="0 0 539.771 719.771" enable-background="new 0 0 539.771 719.771"
	 xml:space="preserve">
<path fill-rule="evenodd" clip-rule="evenodd" fill="none" stroke="#000000" stroke-width="2" stroke-linecap="round" stroke-linejoin="round" stroke-miterlimit="10" d="
	M388.662,357.478c-1.364-6.67-5.099-12.251-8.222-18.132c-3.629-6.835-6.864-13.841-7.379-21.766
	c-0.788-12.12-6.122-22.192-13.947-31.212c-3.754-4.327-6.476-9.426-7.951-14.906c-1.628-6.045-5.388-9.789-10.636-12.617
	c-3.585-1.932-7.148-3.86-11.256-4.302c-5.117-0.55-9.992,0.858-14.908,2.015c-6.265,1.475-11.738,4.852-17.675,7.068
	c-7.309,2.728-14.787,5.01-22.221,7.394c-12.386,3.971-24.818,7.794-36.92,12.606c-9.061,3.602-18.159,7.117-27.288,10.543
	c-7.605,2.854-15.242,5.633-22.936,8.237c-5.038,1.705-10.046,3.469-15.323,4.526c-3.954,0.792-7.66,2.801-11.495,4.216
	c-2.426,0.895-4.894,1.674-7.332,2.539c-1.341,0.475-2.349,1.217-3.27,2.474c-7.661,10.466-12.542,22.317-17.375,34.205
	c-2.646,6.509-5.584,12.91-7.962,19.514c-3.216,8.935-6.181,17.969-8.95,27.052c-2.237,7.338-4.032,14.811-6.009,22.228
	c-0.711,2.669-1.397,5.346-2.039,8.031c-0.061,0.255,0.277,0.604,0.43,0.91"/>
<path fill-rule="evenodd" clip-rule="evenodd" fill="none" stroke="#000000" stroke-width="2" stroke-linecap="round" stroke-linejoin="round" stroke-miterlimit="10" d="
	M143.312,212.79c2.599,0.841,5.176,1.755,7.801,2.506c5.259,1.505,10.515,3.038,15.826,4.336c4.467,1.092,8.98,2.073,13.526,2.745
	c9.228,1.365,18.492,2.475,27.738,3.716c6.653,0.894,13.292,1.89,19.952,2.729c5.568,0.702,11.151,1.298,16.738,1.84
	c8.403,0.815,16.814,1.537,25.221,2.308c6.574,0.604,13.145,1.25,19.721,1.824c5.729,0.5,11.475,0.827,17.193,1.417
	c4.373,0.451,8.716,1.2,13.074,1.799c3.438,0.473,6.866,1.13,10.32,1.336c7.482,0.445,14.991,0.479,22.466,1.008
	c7.734,0.547,15.459,1.346,23.156,2.29c5.608,0.688,11.166,1.782,16.744,2.709c3.595,0.597,7.19,1.195,10.773,1.854
	c0.68,0.125,1.307,0.535,1.982,0.824c-1.253,2.623-3.443,3.282-5.605,4.288c-3.742,1.741-7.368,3.828-10.791,6.142
	c-9.556,6.458-18.982,13.107-28.461,19.679c-0.453,0.314-0.917,0.612-1.375,0.918"/>
<path fill-rule="evenodd" clip-rule="evenodd" fill="none" stroke="#000000" stroke-width="2" stroke-linecap="round" stroke-linejoin="round" stroke-miterlimit="10" d="
	M110.293,49.529c-2.751,1.375-5.471,2.823-8.263,4.109c-3.481,1.604-6.967,3.226-10.55,4.577
	C79.9,62.582,69.968,68.961,65.22,80.981c-2.113,5.349-3.266,11.093-4.651,16.708c-1.159,4.698-2.311,9.431-2.949,14.217
	c-1.056,7.92-4.957,14.821-7.471,22.21c-1.613,4.741-2.726,9.527-3.389,14.467c-0.925,6.888-2.119,13.743-2.899,20.646
	c-0.375,3.32,0.008,6.721-0.107,10.08c-0.037,1.079-0.592,2.136-0.867,3.214c-0.193,0.754-0.282,1.535-0.472,2.29
	c-0.905,3.595-1.615,7.258-2.794,10.762c-2.02,6.003-2.474,12.066-2.104,18.365c0.334,5.693-0.815,11.328-2.691,16.724
	c-2.565,7.376-5.184,14.739-8.046,22.003c-1.966,4.99-4.604,9.718-6.544,14.716c-2.209,5.692-2.912,11.479,0.329,17.216
	c0.682,1.208,0.614,2.928-0.376,4.323c-1.265,1.783,0.083,3.323,0.75,4.775c0.475,1.035,1.584,1.925,2.909,0.721"/>
<path fill-rule="evenodd" clip-rule="evenodd" fill="none" stroke="#000000" stroke-width="2" stroke-linecap="round" stroke-linejoin="round" stroke-miterlimit="10" d="
	M354.038,54.344c5.831,3.283,9.325,8.622,11.788,14.503c1.173,2.803,1.296,6.221,1.211,9.342c-0.313,11.593,1.981,22.7,5.271,33.731
	c1.579,5.297,2.39,10.827,3.506,16.26c0.657,3.201,1.239,6.417,1.84,9.629c0.472,2.52,0.812,5.069,1.398,7.562
	c1.788,7.595,3.302,15.284,7.086,22.248c3.485,6.412,5.473,13.367,7.045,20.421c0.696,3.123,0.754,6.401,0.966,9.617
	c0.367,5.575,0.573,11.162,0.979,16.734c0.088,1.22,0.239,2.68,1.79,3.213"/>
<path fill-rule="evenodd" clip-rule="evenodd" fill="none" stroke="#000000" stroke-width="2" stroke-linecap="round" stroke-linejoin="round" stroke-miterlimit="10" d="
	M126.803,223.567c2.699-2.42,5.398-4.84,8.093-7.256c4.985,2.581,10.418,4.17,15.99,5.154c9.73,1.718,19.354,3.837,28.908,6.371
	c3.756,0.996,7.762,1.175,11.673,1.426c6.921,0.444,13.797,0.831,20.662,2.195c6.293,1.25,12.808,1.43,19.236,1.952
	c7.56,0.614,15.132,1.089,22.699,1.624c5.427,0.383,10.865,0.649,16.277,1.176c6.586,0.64,13.147,1.52,19.724,2.256
	c4.429,0.496,8.867,0.909,13.298,1.388c3.29,0.355,6.57,0.789,9.861,1.134c5.348,0.561,10.711,0.986,16.047,1.638
	c5.288,0.646,10.538,1.616,15.829,2.236c5.716,0.67,11.456,1.16,17.194,1.621c7.409,0.596,14.826,1.101,22.241,1.612
	c2.901,0.2,5.81,0.301,8.713,0.469c3.746,0.217,7.491,0.456,11.236,0.685"/>
<path fill-rule="evenodd" clip-rule="evenodd" fill="none" stroke="#000000" stroke-width="2" stroke-linecap="round" stroke-linejoin="round" stroke-miterlimit="10" d="
	M340.968,470.063c-0.377,0.167-0.753,0.333-1.354,0.599c2.809,6.271,5.4,12.701,8.523,18.86c3.635,7.166,7.738,14.094,11.632,21.128
	c2.452,4.43,4.879,8.873,7.347,13.294c0.868,1.556,1.742,3.121,2.759,4.58c3.713,5.33,5.736,11.504,8.657,17.229
	c3.386,6.637,6.478,13.424,9.662,20.162c1.04,2.201,2.704,3.642,4.805,4.847c6.107,3.504,12.414,6.711,17.9,11.207
	c2.097,1.718,4.133,3.509,6.196,5.267"/>
<path fill-rule="evenodd" clip-rule="evenodd" fill="none" stroke="#000000" stroke-width="2" stroke-linecap="round" stroke-linejoin="round" stroke-miterlimit="10" d="
	M135.057,208.433c-0.306-0.153-0.865-0.285-0.879-0.462c-0.216-2.666-0.361-5.337-0.562-8.657c-0.727-0.882-1.694,0.34-2.428,1.121
	c-2.373,2.524-4.734,5.076-6.883,7.789c-4.063,5.127-7.946,10.396-11.956,15.567c-5.706,7.358-11.567,14.599-17.163,22.039
	c-6.949,9.238-13.718,18.597-19.586,28.602c-3.845,6.555-8.46,12.652-12.502,19.098c-2.741,4.372-5.043,9.018-7.627,13.492
	c-1.271,2.201-2.888,4.213-4.026,6.473c-0.408,0.808-1.523,2.212,0.146,3.168"/>
<path fill-rule="evenodd" clip-rule="evenodd" fill="none" stroke="#000000" stroke-width="2" stroke-linecap="round" stroke-linejoin="round" stroke-miterlimit="10" d="
	M142.968,212.79c-2.255-0.535-4.49-1.228-6.776-1.518c-0.77-0.097-1.826,0.672-2.481,1.318c-1.769,1.746-3.45,3.59-5.064,5.482
	c-4.54,5.324-9.202,10.558-13.487,16.082c-3.764,4.852-7.138,10.012-10.586,15.103c-4.792,7.073-9.574,14.154-14.208,21.33
	c-5.142,7.963-10.177,15.997-15.133,24.076c-3.331,5.43-6.333,11.062-9.697,16.469c-1.9,3.054-4.263,5.817-6.351,8.759
	c-0.34,0.479-0.332,1.205-0.485,1.816"/>
<path fill-rule="evenodd" clip-rule="evenodd" fill="none" stroke="#000000" stroke-width="2" stroke-linecap="round" stroke-linejoin="round" stroke-miterlimit="10" d="
	M47.694,378.114c0.917,3.745,1.834,7.491,2.752,11.236c0.15,0.611,0.384,1.215,0.446,1.836c0.481,4.889,0.735,9.811,1.459,14.663
	c0.459,3.077,2.202,5.76,4.063,8.261c3.878,5.212,7.615,10.545,11.767,15.531c1.91,2.294,4.648,3.902,7.032,5.795
	c7.205,5.719,15.706,8.922,24.072,12.39c3.986,1.653,7.886,3.543,11.949,4.974c2.6,0.915,4.908,2.612,7.768,2.866
	c0.564,0.05,1.075,0.716,1.609,1.099"/>
<path fill-rule="evenodd" clip-rule="evenodd" fill="none" stroke="#000000" stroke-width="2" stroke-linecap="round" stroke-linejoin="round" stroke-miterlimit="10" d="
	M244.663,438.649c-1.083,1.514-0.815,2.836,0.45,4.137c3.618,3.72,7.153,7.521,10.795,11.217c5.036,5.111,6.377,11.073,5.382,18.141
	c-0.955,6.782-3.606,12.811-6.58,18.766c-2.453,4.914-3.85,10.154-5.172,15.399c-1.486,5.896-2.611,11.889-3.705,17.874
	c-1.641,8.979-1.479,17.997-0.563,27.062c0.321,3.175,2.096,5.115,4.236,6.834c5.506,4.42,11.751,7.686,18.349,10.029
	c5.065,1.799,10.285,3.426,15.788,3.541c6.344,0.132,12.688,0.428,19.031,0.401c3.364-0.014,6.773-0.313,10.076-0.938
	c3.045-0.577,5.97-1.779,8.959-2.669c0.861-0.256,1.762-0.38,2.645-0.565c0.11,0.325,0.222,0.65,0.333,0.976
	c-0.994,0.472-1.944,1.091-2.987,1.39c-6.56,1.882-13.098,3.869-19.729,5.464c-4.169,1.002-8.406,0.038-12.601-0.592
	c-3.569-0.537-7.18-0.802-10.772-1.178c-4.433-0.464-8.869-0.897-13.299-1.382c-6.671-0.73-11.407-4.843-16.076-9.141
	c-1.758-1.618-3.696-3.095-5.733-4.342c-2.515-1.538-4.505-3.397-5.498-6.226c-0.073-0.207-0.438-0.313-0.667-0.466"/>
<path fill-rule="evenodd" clip-rule="evenodd" fill="none" stroke="#000000" stroke-width="2" stroke-linecap="round" stroke-linejoin="round" stroke-miterlimit="10" d="
	M299.007,360c-2.676,1.605-5.284,3.337-8.041,4.787c-4.839,2.546-10.15,4.38-14.564,7.501c-5.635,3.985-11.905,6.676-17.784,10.129
	c-7.749,4.551-14.655,10.116-21.045,16.354c-4.833,4.719-9.644,9.479-14.181,14.476c-2.813,3.099-5.25,6.576-7.582,10.066
	c-2.778,4.157-6.423,7.404-10.396,10.239c-4.188,2.989-8.539,5.809-13.063,8.25c-7.066,3.812-14.385,7.152-21.508,10.862
	c-6.19,3.225-12.725,5.492-19.518,6.782c-9.421,1.79-18.782,1.775-27.497-3.15c-0.957-0.541-1.84-1.213-2.757-1.824"/>
<path fill-rule="evenodd" clip-rule="evenodd" fill="none" stroke="#000000" stroke-width="2" stroke-linecap="round" stroke-linejoin="round" stroke-miterlimit="10" d="
	M298.777,358.395c0.429,2.544,2.393,3.994,4.152,5.473c4.202,3.532,8.345,7.19,12.871,10.266c4.17,2.834,8.802,4.99,13.247,7.414
	c2.732,1.49,4.343,3.753,5.569,6.627c2.178,5.104,2.708,10.453,3.124,15.852c0.246,3.203,0.321,6.42,0.476,9.63
	c0.305,6.344,0.563,12.69,0.937,19.03c0.194,3.294,0.821,6.574,0.831,9.861c0.008,3.057-0.589,6.11-0.841,9.173
	c-0.491,5.959-0.484,12.006-1.576,17.849c-0.529,2.828,0.811,4.901,0.997,7.364c0.489,6.447,1.863,12.828,2.322,19.276
	c0.499,6.998,0.946,13.943,2.238,20.886c1.115,5.992,1.45,12.209,1.375,18.316c-0.052,4.213-1.318,8.425-2.187,12.607
	c-0.436,2.1-1.579,4.108-1.713,6.203c-0.201,3.134-1.938,4.585-4.412,6.017c-4.104,2.375-7.984,5.137-11.959,7.735"/>
<path fill-rule="evenodd" clip-rule="evenodd" fill="none" stroke="#000000" stroke-width="2" stroke-linecap="round" stroke-linejoin="round" stroke-miterlimit="10" d="
	M329.962,49.07c-4.595,5.328-7.186,11.626-8.966,18.338c-0.376,1.417-1.011,2.773-1.592,4.129c-0.595,1.387-1.533,2.087-3.188,2.374
	c-3.563,0.617-6.582,5.683-6.297,9.332c0.11,1.408-0.467,3.188-1.359,4.288c-1.726,2.124-3.794,4.011-5.915,5.759
	c-2.083,1.717-3.633,1.267-4.252-1.358c-0.52-2.207-0.647-4.587-0.483-6.857c0.495-6.862,2.466-13.25,6.301-19.082
	c1.175-1.788,1.868-3.864,1.635-6.392c-0.183-1.977,1.11-4.236,2.16-6.143c1.374-2.497,3.167-4.761,4.741-7.15
	c0.199-0.302,0.289-0.773,0.228-1.132c-0.507-2.998,0.69-5.319,2.763-7.349c0.965-0.945,1.843-1.979,2.76-2.973"/>
<path fill-rule="evenodd" clip-rule="evenodd" fill="none" stroke="#000000" stroke-width="2" stroke-linecap="round" stroke-linejoin="round" stroke-miterlimit="10" d="
	M425.121,409.3c-0.765-2.217-1.557-4.425-2.288-6.651c-2.611-7.945-5.177-15.905-7.813-23.842c-1.15-3.464-2.43-6.885-3.657-10.322
	c-2.125-5.951-6.755-10.138-10.562-14.894c-5.964-7.451-13.68-13.073-20.644-19.479c-0.604-0.556-1.508-0.788-2.271-1.169"/>
<path fill-rule="evenodd" clip-rule="evenodd" fill="none" stroke="#000000" stroke-width="2" stroke-linecap="round" stroke-linejoin="round" stroke-miterlimit="10" d="
	M422.599,396.917c3.593,0.459,7.205,0.806,10.767,1.438c1.209,0.215,2.265,0.891,2.408,2.682c0.141,1.744,1.482,3.386,1.024,5.278
	c-1.17,4.84,0.672,9.387,1.505,13.971c0.754,4.147,0.518,8.088-0.012,12.187c-0.316,2.452,0.241,5.049,0.609,7.551
	c1.333,9.066,6.055,16.892,9.405,25.216c2.236,5.557,4.757,10.998,7.071,16.524c2.648,6.323,5.413,12.61,7.728,19.056
	c1.287,3.585,1.74,7.467,2.62,11.203c0.187,0.792,0.42,1.686,0.932,2.269c1.673,1.909,3.679,3.549,5.205,5.56
	c4.762,6.269,9.351,12.668,14.027,19.002c4.504,6.099,6.884,13.019,8.293,20.401c1.174,6.153,2.659,12.25,4.14,18.339
	c0.228,0.935,1.169,1.694,1.78,2.535"/>
<path fill-rule="evenodd" clip-rule="evenodd" fill="none" stroke="#000000" stroke-width="2" stroke-linecap="round" stroke-linejoin="round" stroke-miterlimit="10" d="
	M207.057,217.146c4.586,0.458,9.167,0.972,13.759,1.362c6.034,0.514,12.076,0.928,18.113,1.391c2.905,0.222,5.807,0.484,8.714,0.681
	c7.031,0.475,14.062,0.954,21.096,1.371c4.812,0.285,9.628,0.505,14.446,0.687c3.59,0.136,7.187,0.103,10.775,0.255
	c6.041,0.255,12.078,0.578,18.115,0.909c5.046,0.276,10.09,0.59,15.134,0.915c6.88,0.443,13.757,0.928,20.638,1.359
	c1.37,0.086,2.753,0.055,4.126,0.001c1.434-0.056,1.269,0.707,0.918,1.617"/>
<path fill-rule="evenodd" clip-rule="evenodd" fill="none" stroke="#000000" stroke-width="2" stroke-linecap="round" stroke-linejoin="round" stroke-miterlimit="10" d="
	M342.344,550.548c2.446,1.605,4.956,3.125,7.287,4.883c0.501,0.378,0.683,1.719,0.453,2.437c-1.017,3.176-2.183,6.307-3.395,9.415
	c-2.716,6.969-5.273,14.013-8.318,20.838c-2.152,4.823-2.811,9.795-3.156,14.936c-0.531,7.878-1.028,15.766-1.867,23.613
	c-0.714,6.686-1.195,13.476-4.09,19.719c-1.121,2.416-2.742,4.64-3.59,7.137c-2.028,5.973-3.896,12.012-5.512,18.107
	c-1.194,4.513-1.896,9.156-2.789,13.747c-0.055,0.28,0.113,0.616,0.216,0.913c1.064,3.06,2.068,6.142,3.225,9.166
	c1.297,3.394,2.943,6.666,4.043,10.117c0.867,2.723,1.118,5.639,1.685,8.46c0.142,0.706,0.445,1.379,0.675,2.066"/>
<path fill-rule="evenodd" clip-rule="evenodd" fill="none" stroke="#000000" stroke-width="2" stroke-linecap="round" stroke-linejoin="round" stroke-miterlimit="10" d="
	M259.337,7.108c-3.123-1.118-6.375-1.147-9.63-1.147c-14.904,0.001-29.809,0-44.713,0c-5.503,0-11.006-0.01-16.51,0.01
	c-0.841,0.003-1.681,0.143-2.522,0.219"/>
<path fill-rule="evenodd" clip-rule="evenodd" fill="none" stroke="#000000" stroke-width="2" stroke-linecap="round" stroke-linejoin="round" stroke-miterlimit="10" d="
	M303.363,47.924c-0.383,1.911-0.63,3.863-1.2,5.716c-0.312,1.01-1.034,1.989-1.804,2.745c-4.132,4.055-9.355,6.442-14.452,8.905
	c-5.605,2.709-11.479,4.855-17.157,7.423c-6.445,2.915-13.309,4.089-20.19,5.244c-8.507,1.428-16.28-0.429-23.393-5.262
	c-3.267-2.22-4.561-5.875-6.62-8.967c-1.21-1.817-2.166-3.805-3.236-5.715"/>
<path fill-rule="evenodd" clip-rule="evenodd" fill="none" stroke="#000000" stroke-width="2" stroke-linecap="round" stroke-linejoin="round" stroke-miterlimit="10" d="
	M434.063,402.42c-0.458,1.224-1.012,2.42-1.358,3.674c-1.371,4.955-4.709,8.27-8.693,11.28c-5.196,3.927-10.095,8.245-15.184,12.316
	c-2.601,2.081-5.386,3.93-8.002,5.992c-4.396,3.466-8.632,7.142-13.11,10.495c-3.539,2.649-7.857,2.996-12.124,3.238
	c-0.148,0.008-0.395-0.112-0.433-0.227c-0.038-0.115,0.128-0.298,0.204-0.45"/>
<path fill-rule="evenodd" clip-rule="evenodd" fill="none" stroke="#000000" stroke-width="2" stroke-linecap="round" stroke-linejoin="round" stroke-miterlimit="10" d="
	M157.299,305.427c-1.605,0.153-3.27,0.656-4.804,0.394c-4.986-0.852-9.721-0.226-14.474,1.392c-3.43,1.167-6.998,1.958-10.538,2.771
	c-2.027,0.465-4.191,0.41-6.166,1.007c-2.243,0.678-4.074,2.365-4.767,4.546c-1.88,5.922-5.097,11.154-8.159,16.45
	c-1.368,2.366-3.45,4.318-5.208,6.458"/>
<path fill-rule="evenodd" clip-rule="evenodd" fill="none" stroke="#000000" stroke-width="2" stroke-linecap="round" stroke-linejoin="round" stroke-miterlimit="10" d="
	M243.287,541.146c-2.962,0.315-5.262,1.996-7.567,3.668c-2.052,1.488-1.32,3.747-1.612,5.732c-0.805,5.475,1.035,10.592,2.06,15.825
	c0.671,3.428,1.261,6.872,1.84,10.316c1.433,8.519,0.756,17.115,0.935,25.681c0.08,3.823,0.451,7.646,0.394,11.465
	c-0.042,2.831-0.349,5.7-0.925,8.473c-0.567,2.731-1.765,5.329-2.394,8.053c-0.26,1.128-0.084,2.6,0.454,3.619
	c1.279,2.422,3.091,4.427,5.419,6.025c6.441,4.425,11.244,10.368,14.365,17.441c1.78,4.035,2.415,8.561,3.817,12.781
	c0.892,2.684,2.245,5.213,3.392,7.812"/>
<path fill-rule="evenodd" clip-rule="evenodd" fill="none" stroke="#000000" stroke-width="2" stroke-linecap="round" stroke-linejoin="round" stroke-miterlimit="10" d="
	M296.713,47.465c-0.305,0.382-0.531,0.937-0.929,1.121c-6.31,2.928-11.737,7.439-18.306,9.953c-4.038,1.545-7.703,4.076-11.752,5.58
	c-4.681,1.739-9.588,2.876-14.419,4.196c-2.574,0.703-5.177,1.323-7.795,1.831c-3.7,0.717-6.835-0.814-9.605-2.988
	c-5.585-4.383-10.828-9.157-15.619-14.414c-1.42-1.558-2.899-3.062-4.352-4.59"/>
<path fill-rule="evenodd" clip-rule="evenodd" fill="none" stroke="#000000" stroke-width="2" stroke-linecap="round" stroke-linejoin="round" stroke-miterlimit="10" d="
	M107.083,426.727c-1.223-0.459-2.415-1.05-3.675-1.352c-4.359-1.045-7.459-3.943-9.272-7.651c-2.23-4.561-5.71-6.948-10.181-8.731
	c-2.992-1.194-5.948-2.806-8.459-4.808c-4.778-3.809-9.356-7.897-13.777-12.121c-4.296-4.104-8.286-8.527-12.43-12.792
	c-0.3-0.309-0.753-0.469-1.136-0.698"/>
<path fill-rule="evenodd" clip-rule="evenodd" fill="none" stroke="#000000" stroke-width="2" stroke-linecap="round" stroke-linejoin="round" stroke-miterlimit="10" d="
	M200.866,50.675c1.241,3.872,3.508,7.077,6.421,9.859c1.71,1.633,3.38,3.317,3.872,5.738c0.227,1.116-0.081,2.382,0.296,3.42
	c3.063,8.436,7.602,15.74,16.271,19.429c1.451,0.618,3.372,0.503,5.005,0.259c7.539-1.127,14.363-4.583,21.576-6.784
	c2.506-0.764,5.183-0.966,7.782-1.424"/>
<path fill-rule="evenodd" clip-rule="evenodd" fill="none" stroke="#000000" stroke-width="2" stroke-linecap="round" stroke-linejoin="round" stroke-miterlimit="10" d="
	M177.019,43.567c-0.764-0.153-1.528-0.436-2.293-0.438c-8.178-0.032-16.358,0.075-24.533-0.099
	c-1.664-0.036-1.576,0.594-1.617,1.684c-0.126,3.364-0.089,6.754-0.527,10.079c-0.259,1.968-1.026,3.991-2.037,5.713
	c-2.832,4.826-5.684,9.672-8.966,14.192c-2.417,3.328-3.107,6.59-1.755,10.372c0.827,2.313,0.553,4.469-0.929,6.416
	c-2.074,2.725-3.2,5.696-2.753,9.179c0.353,2.746,0.621,5.502,0.927,8.253"/>
<path fill-rule="evenodd" clip-rule="evenodd" fill="none" stroke="#000000" stroke-width="2" stroke-linecap="round" stroke-linejoin="round" stroke-miterlimit="10" d="
	M138.038,0.917c-2.375,3.148-3.466,6.874-4.538,10.562c-0.7,2.41-2.415,3.576-4.41,4.561c-2.269,1.119-4.625,2.066-6.864,3.239
	c-4.69,2.457-6.932,6.711-7.498,11.686c-0.574,5.046-3.485,8.495-6.712,11.929c-2.521,2.682-5.013,5.405-7.293,8.288
	c-0.761,0.962-0.824,2.475-1.206,3.736"/>
<path fill-rule="evenodd" clip-rule="evenodd" fill="none" stroke="#000000" stroke-width="2" stroke-linecap="round" stroke-linejoin="round" stroke-miterlimit="10" d="
	M239.618,638.599c-2.194,2.326-2.38,5.359-2.709,8.26c-0.451,3.978,0.408,7.722,1.918,11.502c1.588,3.973,2.228,8.282,2.976,12.549
	c0.896,5.105-0.911,9.934-0.619,14.928c0.151,2.585-0.113,5.195-0.189,7.794"/>
<path fill-rule="evenodd" clip-rule="evenodd" fill="none" stroke="#000000" stroke-width="2" stroke-linecap="round" stroke-linejoin="round" stroke-miterlimit="10" d="
	M427.185,614.98c-2.446-0.686-4.893-1.371-7.34-2.057c-1.619,4.064-0.139,6.904,3.875,8.763c5.681,2.629,10.951,5.979,15.39,10.49
	c1.138,1.156,2.337,2.254,3.428,3.451c1.405,1.544,2.224,3.265,2.385,5.487c0.194,2.699,0.753,5.435,1.605,8.004
	c0.589,1.779,0.75,3.348,0.182,5.083c-0.087,0.266,0.271,0.677,0.425,1.021"/>
<path fill-rule="evenodd" clip-rule="evenodd" fill="none" stroke="#000000" stroke-width="2" stroke-linecap="round" stroke-linejoin="round" stroke-miterlimit="10" d="
	M430.624,401.273c-1.053,6.141-6.112,9.244-10.135,13.021c-5.957,5.592-12.544,10.474-17.449,17.196
	c-3.217,4.409-8.074,7.047-12.784,9.659c-3.916,2.171-7.934,4.156-11.915,6.207c-0.82,0.422-1.679,0.77-2.52,1.152"/>
<path fill-rule="evenodd" clip-rule="evenodd" fill="none" stroke="#000000" stroke-width="2" stroke-linecap="round" stroke-linejoin="round" stroke-miterlimit="10" d="
	M250.166,623.465c1.299,2.369,2.687,4.695,3.879,7.117c2.356,4.784,4.655,9.599,6.885,14.443c2.804,6.09,5.456,12.251,8.29,18.327
	c1.726,3.7,3.43,7.438,6.169,10.559"/>
<path fill-rule="evenodd" clip-rule="evenodd" fill="none" stroke="#000000" stroke-width="2" stroke-linecap="round" stroke-linejoin="round" stroke-miterlimit="10" d="
	M337.528,473.962c-0.382,2.063-0.866,4.114-1.128,6.193c-0.963,7.638-2.145,15.264-2.681,22.934
	c-0.462,6.598-2.426,13.037-1.92,19.714c0.052,0.689,0.149,1.376,0.226,2.063"/>
<path fill-rule="evenodd" clip-rule="evenodd" fill="none" stroke="#000000" stroke-width="2" stroke-linecap="round" stroke-linejoin="round" stroke-miterlimit="10" d="
	M205.682,433.834c3.591,2.487,7.558,4.102,11.663,5.591c4.419,1.603,8.581,3.912,12.88,5.857c1.095,0.496,2.31,0.722,3.428,1.174
	c5.818,2.348,11.634,4.7,17.419,7.125c0.98,0.411,1.81,1.183,2.665,1.759c-0.517,1.041-0.897,1.806-1.278,2.571"/>
<path fill-rule="evenodd" clip-rule="evenodd" fill="none" stroke="#000000" stroke-width="2" stroke-linecap="round" stroke-linejoin="round" stroke-miterlimit="10" d="
	M215.312,185.044c-4.051-0.917-8.146-1.678-12.138-2.804c-2.882-0.813-5.708-1.979-7.805-4.31c-1.341-1.491-2.89-1.474-4.346-0.429
	c-3.948,2.834-7.803,5.799-11.714,8.686c-4.269,3.15-8.562,6.266-12.83,9.417c-0.294,0.217-0.467,0.6-0.697,0.906"/>
<path fill-rule="evenodd" clip-rule="evenodd" fill="none" stroke="#000000" stroke-width="2" stroke-linecap="round" stroke-linejoin="round" stroke-miterlimit="10" d="
	M195.134,172.663c-0.468,0.112-0.937,0.224-1.464,0.351c0.497,1.921,1.524,1.765,2.596,0.78c1.511-1.389,2.893-2.917,4.378-4.334
	c1.985-1.893,3.94-2.867,6.915-1.472c4.269,2.001,8.917,1.335,13.233,0.01c5.059-1.553,9.666-1.191,14.518,0.884
	c2.871,1.228,6.208,1.403,9.357,1.924c2.122,0.35,3.713,1.808,3.996,3.484c0.645,3.825,2.894,6.852,4.25,10.299
	c1.996,5.073,5.12,9.669,6.267,15.117c0.183,0.871,1.305,1.544,1.993,2.308"/>
<path fill-rule="evenodd" clip-rule="evenodd" fill="none" stroke="#000000" stroke-width="2" stroke-linecap="round" stroke-linejoin="round" stroke-miterlimit="10" d="
	M156.611,215.083c3.745,0.382,7.499,0.7,11.234,1.162c5.052,0.625,10.081,1.456,15.139,2.021c5.184,0.579,10.407,0.818,15.585,1.438
	c4.988,0.598,9.929,1.584,14.912,2.234c6.562,0.856,13.137,1.616,19.719,2.297c6.029,0.624,12.073,1.111,18.114,1.611
	c1.904,0.158,3.82,0.166,5.731,0.242"/>
<path fill-rule="evenodd" clip-rule="evenodd" fill="none" stroke="#000000" stroke-width="2" stroke-linecap="round" stroke-linejoin="round" stroke-miterlimit="10" d="
	M64.433,247.873c-4.884,5.647-8.817,11.943-12.631,18.333c-2.726,4.565-6.431,8.322-10.286,11.949
	c-4.628,4.353-9.269,8.694-12.677,14.17c-0.71,1.141-2.088,1.867-3.158,2.784"/>
<path fill-rule="evenodd" clip-rule="evenodd" fill="none" stroke="#000000" stroke-width="2" stroke-linecap="round" stroke-linejoin="round" stroke-miterlimit="10" d="
	M293.273,66.726c-9.695,4.152-17.675,11.011-26.357,16.757c-4.917,3.255-10.018,5.523-16.054,3.847
	c-1.152-0.32-2.756-0.245-2.99-2.03"/>
<path fill-rule="evenodd" clip-rule="evenodd" fill="none" stroke="#000000" stroke-width="2" stroke-linecap="round" stroke-linejoin="round" stroke-miterlimit="10" d="
	M498.727,571.644c0.688,1.604,0.986,3.598,2.131,4.747c4.729,4.748,9.596,9.377,14.646,13.782c4.016,3.503,8.324,6.678,12.587,9.886
	c3.872,2.913,7.859,5.674,11.796,8.502"/>
<path fill-rule="evenodd" clip-rule="evenodd" fill="none" stroke="#000000" stroke-width="2" stroke-linecap="round" stroke-linejoin="round" stroke-miterlimit="10" d="
	M279.975,209.121c-8.866-0.076-17.737-0.008-26.598-0.268c-9.941-0.291-19.873-0.902-29.811-1.329
	c-6.418-0.275-12.847-0.349-19.259-0.729c-6.505-0.386-13.005-0.944-19.49-1.599c-6.261-0.631-12.478-1.479-18.8-1.712
	c-6.214-0.229-12.41-1.409-18.57-2.436c-4.346-0.724-8.63-1.751-13.078-1.099"/>
<path fill-rule="evenodd" clip-rule="evenodd" fill="none" stroke="#000000" stroke-width="2" stroke-linecap="round" stroke-linejoin="round" stroke-miterlimit="10" d="
	M102.268,157.987c-1.376,1.911-2.811,3.783-4.106,5.747c-0.805,1.222-1.409,2.579-2.076,3.889c-0.139,0.273-0.058,0.742-0.254,0.892
	c-3.027,2.328-3.353,5.928-4.325,9.197c-1.875,6.309-3.831,12.685-3.991,19.26c-0.095,3.92,1,7.949,2.579,11.699
	c0.296,0.704,0.25,1.546,0.5,2.277c0.275,0.807,0.615,1.712,1.814,1.154"/>
<path fill-rule="evenodd" clip-rule="evenodd" fill="none" stroke="#000000" stroke-width="2" stroke-linecap="round" stroke-linejoin="round" stroke-miterlimit="10" d="
	M63.516,239.159c-4.51,3.592-8.98,7.236-13.548,10.751c-1.791,1.378-3.746,2.573-5.723,3.677
	c-7.919,4.422-15.378,9.367-20.397,17.215"/>
<path fill-rule="evenodd" clip-rule="evenodd" fill="none" stroke="#000000" stroke-width="2" stroke-linecap="round" stroke-linejoin="round" stroke-miterlimit="10" d="
	M413.197,32.561c-5.732,0.153-11.465,0.319-17.197,0.456c-10.089,0.24-20.178,0.476-30.268,0.685
	c-5.273,0.109-10.55,0.1-15.821,0.252c-5.353,0.154-10.7,0.46-16.052,0.655c-0.989,0.037-1.987-0.208-2.98-0.202
	c-7.644,0.056-15.286,0.156-22.93,0.212c-4.28,0.031-8.562,0.037-12.841-0.021c-0.868-0.012-1.732-0.358-2.963-0.63
	c2.715-1.968,5.063-3.578,7.308-5.321c2.625-2.039,4.629-4.572,6.261-7.52c1.729-3.124,3.917-5.994,5.904-8.975"/>
<path fill-rule="evenodd" clip-rule="evenodd" fill="none" stroke="#000000" stroke-width="2" stroke-linecap="round" stroke-linejoin="round" stroke-miterlimit="10" d="
	M348.076,150.191c-2.461,1.274-4.797,0.599-7.092-0.551c-1.994,1.264-1.51,3.2-1.343,4.903c0.146,1.476,0.758,2.899,1.087,4.364
	c0.426,1.901,0.939,3.804,1.119,5.734c0.292,3.121,0.278,6.269,0.511,9.396c0.387,5.203-0.99,10.147-2.103,15.129
	c-0.213,0.955-0.74,1.84-1.122,2.757"/>
<path fill-rule="evenodd" clip-rule="evenodd" fill="none" stroke="#000000" stroke-width="2" stroke-linecap="round" stroke-linejoin="round" stroke-miterlimit="10" d="
	M424.892,23.618c-0.458-0.076-0.919-0.226-1.376-0.217c-2.98,0.053-5.961,0.16-8.942,0.213c-5.121,0.091-10.242,0.149-15.363,0.236
	c-3.669,0.063-7.337,0.15-11.006,0.227c-7.338,0.153-14.675,0.313-22.014,0.447c-0.686,0.012-1.375-0.142-2.063-0.218"/>
<path fill-rule="evenodd" clip-rule="evenodd" fill="none" stroke="#000000" stroke-width="2" stroke-linecap="round" stroke-linejoin="round" stroke-miterlimit="10" d="
	M446.675,655.566c-0.764,2.522-1.605,5.025-2.276,7.571c-1.428,5.413-2.456,10.954-4.239,16.244
	c-1.502,4.453-2.516,8.92-2.61,13.562c-0.074,3.664,0.072,7.358,0.497,10.996c0.193,1.662,0.945,3.531,2.051,4.762
	c2.447,2.726,5.222,5.173,7.979,7.603c1.391,1.227,3.003,2.214,4.577,3.214c0.594,0.377,1.36,0.482,2.049,0.712"/>
<path fill-rule="evenodd" clip-rule="evenodd" fill="none" stroke="#000000" stroke-width="2" stroke-linecap="round" stroke-linejoin="round" stroke-miterlimit="10" d="
	M344.637,133.223c1.146,2.828,2.34,5.639,3.426,8.49c0.94,2.472,2.155,4.922,0.314,7.61c-0.344,0.501,0.383,1.638,0.357,2.473
	c-0.061,1.99-0.379,3.974-0.408,5.963c-0.065,4.585,0.207,9.186-0.079,13.754c-0.341,5.422-0.605,10.907-2.713,16.046
	c-0.151,0.369-0.592,0.62-0.897,0.925"/>
<path fill-rule="evenodd" clip-rule="evenodd" fill="none" stroke="#000000" stroke-width="2" stroke-linecap="round" stroke-linejoin="round" stroke-miterlimit="10" d="
	M466.624,514.548c-1.269,2.515,0.067,4.862,0.759,7.086c2.521,8.1,5.268,16.134,9.785,23.413c1.555,2.506,3.062,5.042,4.59,7.564"/>
<path fill-rule="evenodd" clip-rule="evenodd" fill="none" stroke="#000000" stroke-width="2" stroke-linecap="round" stroke-linejoin="round" stroke-miterlimit="10" d="
	M325.834,47.465c-1.069,1.605-2.185,3.182-3.201,4.821c-2.549,4.111-5.045,8.255-7.58,12.374c-1.044,1.697-2.053,3.429-3.256,5.009
	c-0.363,0.477-1.527,0.868-1.962,0.631c-0.524-0.287-0.909-1.281-0.91-1.969c0-0.993,0.239-2.062,0.659-2.967
	c1.294-2.79,2.722-5.517,4.098-8.269"/>
<path fill-rule="evenodd" clip-rule="evenodd" fill="none" stroke="#000000" stroke-width="2" stroke-linecap="round" stroke-linejoin="round" stroke-miterlimit="10" d="
	M305.427,20.408c-0.688-0.077-1.376-0.218-2.063-0.22c-9.401-0.014-18.803-0.02-28.204,0c-1.528,0.003-3.061,0.234-4.585,0.183
	c-0.847-0.028-1.683-0.422-2.523-0.652"/>
<path fill-rule="evenodd" clip-rule="evenodd" fill="none" stroke="#000000" stroke-width="2" stroke-linecap="round" stroke-linejoin="round" stroke-miterlimit="10" d="
	M220.356,185.503c4.892,0.917,9.795,1.778,14.671,2.772c3.232,0.659,6.438,1.456,9.625,2.306c0.899,0.24,1.941,0.685,2.489,1.375
	c2.917,3.675,5.708,7.45,8.51,11.215c0.274,0.368,0.322,0.905,0.475,1.364"/>
<path fill-rule="evenodd" clip-rule="evenodd" fill="none" stroke="#000000" stroke-width="2" stroke-linecap="round" stroke-linejoin="round" stroke-miterlimit="10" d="
	M106.854,312.535c-1.07,0.229-2.243,0.863-3.194,0.622c-6.126-1.554-12.007-0.236-17.902,1.211
	c-7.184,1.763-14.386,3.452-21.543,5.316c-2.071,0.54-4.014,1.573-6.008,2.377c0.188,0.563,0.341,1.021,0.494,1.48"/>
<path fill-rule="evenodd" clip-rule="evenodd" fill="none" stroke="#000000" stroke-width="2" stroke-linecap="round" stroke-linejoin="round" stroke-miterlimit="10" d="
	M267.363,230.217c2.828,0.306,5.661,0.569,8.482,0.926c5.813,0.735,11.61,1.598,17.432,2.257c3.958,0.448,7.945,0.637,11.92,0.945
	c5.886,0.457,11.77,0.939,17.656,1.369c5.654,0.412,11.311,0.802,16.969,1.145c6.877,0.416,13.758,0.773,20.637,1.154
	c5.579,0.308,11.158,0.614,16.738,0.917c1.528,0.083,3.058,0.154,4.586,0.23"/>
<path fill-rule="evenodd" clip-rule="evenodd" fill="none" stroke="#000000" stroke-width="2" stroke-linecap="round" stroke-linejoin="round" stroke-miterlimit="10" d="
	M300.611,2.751c-2.873,1.594-5.668,1.663-8.502-0.202c-1.202-0.791-2.555-1.545-4.112-0.72c-0.21,0.112-0.574,0.295-0.668,0.214
	c-2.404-2.071-4.913-0.138-7.355-0.167c-9.247-0.106-18.498-0.15-27.744-0.019c-15.211,0.216-30.42,0.621-45.631,0.876
	c-6.037,0.102-12.076,0.017-18.115,0.017c-1.223,0-2.446,0-3.668,0"/>
<path fill-rule="evenodd" clip-rule="evenodd" fill="none" stroke="#000000" stroke-width="2" stroke-linecap="round" stroke-linejoin="round" stroke-miterlimit="10" d="
	M404.025,579.898c1.758,3.21,3.977,6.262,5.148,9.674c1.246,3.63,1.485,7.603,2.196,11.42c0.343,1.842,0.586,3.728,1.18,5.491
	c0.898,2.669,3.213,4.099,5.464,5.516c0.377,0.237,0.764,0.46,1.146,0.688"/>
<path fill-rule="evenodd" clip-rule="evenodd" fill="none" stroke="#000000" stroke-width="2" stroke-linecap="round" stroke-linejoin="round" stroke-miterlimit="10" d="
	M350.599,223.337c2.171,1.068,4.528,1.114,6.871,1.433c6.062,0.825,12.072,2.011,18.126,2.904c7.324,1.08,14.677,1.971,22.006,3.024
	c2.162,0.311,4.271,0.964,6.427,1.334c2.364,0.406,4.753,0.665,7.147,0.991c-0.085,1.883-0.82,2.555-2.572,2.036
	c-0.794-0.235-1.674-0.18-2.515-0.256"/>
<path fill-rule="evenodd" clip-rule="evenodd" fill="none" stroke="#000000" stroke-width="2" stroke-linecap="round" stroke-linejoin="round" stroke-miterlimit="10" d="
	M293.045,25.452c-10.242,0.076-20.484,0.125-30.727,0.237c-10.854,0.119-21.707,0.281-32.561,0.457
	c-7.491,0.122-14.982,0.242-22.47,0.489c-2.224,0.073-4.498,1.03-6.63,0.733c-1.631-0.227-3.221-0.297-4.836-0.304
	c-4.28-0.02-8.561-0.007-12.841-0.007"/>
<path fill-rule="evenodd" clip-rule="evenodd" fill="none" stroke="#000000" stroke-width="2" stroke-linecap="round" stroke-linejoin="round" stroke-miterlimit="10" d="
	M398.752,0.688c-10.931,0.076-21.872-0.121-32.785,0.347c-5.281,0.226-10.555,0.138-15.826,0.343
	c-3.593,0.14-7.185,0.317-10.778,0.446c-0.84,0.03-1.684-0.067-2.572-0.108c-0.923,2.004-0.129,4.991,1.662,5.839
	c0.341,0.162,0.761,0.242,1.14,0.23c4.357-0.135,8.714-0.405,13.07-0.426c12.382-0.06,24.765-0.021,37.146-0.021
	c8.025,0,16.051,0,24.077,0"/>
<path fill-rule="evenodd" clip-rule="evenodd" fill="none" stroke="#000000" stroke-width="2" stroke-linecap="round" stroke-linejoin="round" stroke-miterlimit="10" d="
	M264.382,20.178c-3.516,0.077-7.032,0.146-10.548,0.232c-2.675,0.065-5.35,0.179-8.025,0.221
	c-6.115,0.095-12.229,0.166-18.344,0.233c-7.643,0.084-15.288,0.1-22.929,0.259c-2.984,0.062-5.962,0.431-8.943,0.66"/>
<path fill-rule="evenodd" clip-rule="evenodd" fill="none" stroke="#000000" stroke-width="2" stroke-linecap="round" stroke-linejoin="round" stroke-miterlimit="10" d="
	M259.796,15.363c-0.765-0.994-1.564-1.963-2.281-2.989c-0.529-0.757-0.897-1.144-2.086-0.994c-3.179,0.401-6.408,0.472-9.62,0.524
	c-4.661,0.076-9.325,0.02-13.987,0.02c-2.828,0-5.658-0.069-8.484,0.014c-6.345,0.185-12.688,0.482-19.033,0.658
	c-3.208,0.089-6.42,0.016-9.63,0.016c-4.357,0-8.714,0-13.586,0c-0.422-1.688-0.985-3.94-1.548-6.191"/>
<path fill-rule="evenodd" clip-rule="evenodd" fill="none" stroke="#000000" stroke-width="2" stroke-linecap="round" stroke-linejoin="round" stroke-miterlimit="10" d="
	M421.682,9.401c-0.841,0.076-1.681,0.208-2.522,0.221c-6.497,0.092-12.993,0.161-19.49,0.238
	c-6.344,0.075-12.688,0.141-19.032,0.233c-3.593,0.052-7.185,0.148-10.777,0.225"/>
<path fill-rule="evenodd" clip-rule="evenodd" fill="none" stroke="#000000" stroke-width="2" stroke-linecap="round" stroke-linejoin="round" stroke-miterlimit="10" d="
	M435.439,44.943c-6.42,0-12.842-0.056-19.261,0.013c-9.708,0.104-19.415,0.245-29.121,0.463c-5.964,0.134-11.922,0.503-17.886,0.653
	c-6.113,0.154-12.229,0.139-18.343,0.276c-1.075,0.024-2.142,0.43-3.211,0.659"/>
<path fill-rule="evenodd" clip-rule="evenodd" fill="none" stroke="#000000" stroke-width="2" stroke-linecap="round" stroke-linejoin="round" stroke-miterlimit="10" d="
	M238.701,47.694c3.564,4.301,7.668,7.606,13.52,8.326c2.184,0.269,4.057-0.286,5.705-1.278c3.481-2.096,6.762-4.526,10.125-6.819"/>
<path fill-rule="evenodd" clip-rule="evenodd" fill="none" stroke="#000000" stroke-width="2" stroke-linecap="round" stroke-linejoin="round" stroke-miterlimit="10" d="
	M312.765,41.274c-2.981,0-5.962,0.021-8.943-0.004c-7.72-0.064-15.439-0.143-23.159-0.23c-1.604-0.018-2.917,0.394-4.169,1.565
	c-1.665,1.557-3.529,2.967-5.503,4.1c-0.985,0.566-2.404,0.38-3.627,0.528c-0.151,0.018-0.305,0.001-0.458,0.002
	c-9.325,0.076-18.649,0.151-27.975,0.23c-3.694,0.032-7.169-0.757-10.316-2.756c-1.046-0.665-1.985-1.705-3.117-1.981
	c-1.65-0.403-3.077-1.349-5.192-0.71c-2.452,0.74-5.299,0.133-7.973,0.18c-7.415,0.131-14.83,0.25-22.242,0.47
	c-4.131,0.123-8.255,0.439-12.383,0.668"/>
<path fill-rule="evenodd" clip-rule="evenodd" fill="none" stroke="#000000" stroke-width="2" stroke-linecap="round" stroke-linejoin="round" stroke-miterlimit="10" d="
	M182.522,27.287c-2.37,0.076-4.739,0.195-7.108,0.219c-3.668,0.038-7.339-0.046-11.006,0.029c-2.601,0.054-5.197,0.316-7.797,0.424
	c-0.99,0.041-1.988-0.092-3.223-0.158c-0.961,2.878-1.964,5.882-2.967,8.887"/>
<path fill-rule="evenodd" clip-rule="evenodd" fill="none" stroke="#000000" stroke-width="2" stroke-linecap="round" stroke-linejoin="round" stroke-miterlimit="10" d="
	M209.121,35.083c-1.758,0.229-3.513,0.631-5.274,0.659c-8.942,0.139-17.885,0.146-26.827,0.27
	c-6.957,0.096-13.911,0.302-20.867,0.442c-1.757,0.036-3.516,0.005-5.274,0.005"/>
<path fill-rule="evenodd" clip-rule="evenodd" fill="none" stroke="#000000" stroke-width="2" stroke-linecap="round" stroke-linejoin="round" stroke-miterlimit="10" d="
	M2.293,609.707c0,2.063-0.019,4.128,0.003,6.191c0.067,6.19,0.156,12.382,0.224,18.573c0.084,7.643,0.122,15.287,0.241,22.93
	c0.108,6.956,0.293,13.911,0.458,20.866c0.009,0.384,0.144,0.765,0.221,1.146"/>
<path fill-rule="evenodd" clip-rule="evenodd" fill="none" stroke="#000000" stroke-width="2" stroke-linecap="round" stroke-linejoin="round" stroke-miterlimit="10" d="
	M183.21,21.325c-0.611,0.077-1.222,0.208-1.834,0.221c-8.178,0.165-16.356,0.315-24.535,0.465c-0.764,0.014-1.529,0.002-2.293,0.002
	"/>
<path fill-rule="evenodd" clip-rule="evenodd" fill="none" stroke="#000000" stroke-width="2" stroke-linecap="round" stroke-linejoin="round" stroke-miterlimit="10" d="
	M0.688,501.478c0.153,9.02,0.292,18.039,0.463,27.058c0.131,6.917,0.372,13.834,0.436,20.752c0.077,8.292-0.039,16.586,0.032,24.879
	c0.097,11.313,0.286,22.624,0.463,33.936c0.008,0.533-0.465,1.611,0.898,1.262"/>
<path fill-rule="evenodd" clip-rule="evenodd" fill="none" stroke="#000000" stroke-width="2" stroke-linecap="round" stroke-linejoin="round" stroke-miterlimit="10" d="
	M110.293,128.866c-1.681,0.028-1.594,1.548-2.042,2.532c-2.187,4.794-4.155,9.694-6.519,14.397c-0.854,1.697-0.455,2.888,0.333,4.15
	c1.02,1.634,1.128,3.884,3.184,4.832"/>
<path fill-rule="evenodd" clip-rule="evenodd" fill="none" stroke="#000000" stroke-width="2" stroke-linecap="round" stroke-linejoin="round" stroke-miterlimit="10" d="
	M362.522,231.822c2.675,0,5.356-0.118,8.024,0.024c5.66,0.302,11.317,0.687,16.968,1.137c5.891,0.469,11.771,1.055,17.657,1.59"/>
<path fill-rule="evenodd" clip-rule="evenodd" fill="none" stroke="#000000" stroke-width="2" stroke-linecap="round" stroke-linejoin="round" stroke-miterlimit="10" d="
	M71.312,234.803c-0.994-0.612-1.961-1.27-2.985-1.827c-4.817-2.619-9.825-2.81-14.891-0.901c-3.106,1.17-6.124,2.575-9.181,3.875"/>
<path fill-rule="evenodd" clip-rule="evenodd" fill="none" stroke="#000000" stroke-width="2" stroke-linecap="round" stroke-linejoin="round" stroke-miterlimit="10" d="
	M374.904,449.427c-2.445,0.688-4.87,1.468-7.343,2.043c-3.956,0.919-7.941,1.714-11.919,2.538c-1.981,0.41-3.983,0.727-5.959,1.162
	c-2.685,0.591-5.177,0.132-7.574-1.148c-0.964-0.514-1.982-0.926-2.976-1.385"/>
<path fill-rule="evenodd" clip-rule="evenodd" fill="none" stroke="#000000" stroke-width="2" stroke-linecap="round" stroke-linejoin="round" stroke-miterlimit="10" d="
	M109.146,424.662c1.569,2.069,1.528,2.016-0.427,3.481c-0.441,0.33-0.632,1.167-0.696,1.795c-0.387,3.794,1.447,7.098,2.55,10.529
	c1.532,4.767,3.278,9.489,7.036,13.108c0.386,0.372,0.48,1.048,0.709,1.583"/>
<path fill-rule="evenodd" clip-rule="evenodd" fill="none" stroke="#000000" stroke-width="2" stroke-linecap="round" stroke-linejoin="round" stroke-miterlimit="10" d="
	M175.414,48.382c-3.745-0.077-7.491-0.248-11.235-0.205c-4.587,0.051-9.171,0.323-13.759,0.42
	c-3.361,0.071-6.726,0.046-10.088-0.007c-0.919-0.015-2.021-0.01-2.719-0.485c-2.981-2.028-5.841-4.232-8.746-6.373"/>
<path fill-rule="evenodd" clip-rule="evenodd" fill="none" stroke="#000000" stroke-width="2" stroke-linecap="round" stroke-linejoin="round" stroke-miterlimit="10" d="
	M251.885,41.274c-0.956,0.153-1.91,0.432-2.866,0.438c-6.344,0.04-12.688-0.035-19.031,0.063c-1.457,0.022-2.905,0.569-4.357,0.875"
	/>
<path fill-rule="evenodd" clip-rule="evenodd" fill="none" stroke="#000000" stroke-width="2" stroke-linecap="round" stroke-linejoin="round" stroke-miterlimit="10" d="
	M287.541,34.624c-7.72,0.077-15.439,0.143-23.159,0.249c-0.613,0.008-1.223,0.287-1.834,0.439"/>
<path fill-rule="evenodd" clip-rule="evenodd" fill="none" stroke="#000000" stroke-width="2" stroke-linecap="round" stroke-linejoin="round" stroke-miterlimit="10" d="
	M206.37,118.777c3.057,7.72,6.119,15.438,9.16,23.164c0.167,0.423,0.165,0.913,0.241,1.371"/>
<path fill-rule="evenodd" clip-rule="evenodd" fill="none" stroke="#000000" stroke-width="2" stroke-linecap="round" stroke-linejoin="round" stroke-miterlimit="10" d="
	M195.822,216.458c-4.892-0.458-9.784-0.911-14.675-1.377c-6.344-0.605-12.688-1.223-19.032-1.831
	c-1.68-0.162-3.361-0.327-5.044-0.457c-4.126-0.317-8.253-0.632-12.383-0.896c-0.447-0.028-0.916,0.281-1.375,0.434"/>
<path fill-rule="evenodd" clip-rule="evenodd" fill="none" stroke="#000000" stroke-width="2" stroke-linecap="round" stroke-linejoin="round" stroke-miterlimit="10" d="
	M366.191,214.395c-5.656-0.764-11.313-1.53-16.969-2.292c-2.292-0.309-4.586-0.612-6.879-0.918"/>
<path fill-rule="evenodd" clip-rule="evenodd" fill="none" stroke="#000000" stroke-width="2" stroke-linecap="round" stroke-linejoin="round" stroke-miterlimit="10" d="
	M41.503,263.006c-3.44,4.28-6.664,8.761-10.396,12.769c-2.419,2.598-5.586,4.496-8.402,6.728c-0.72,0.571-1.381,1.217-2.069,1.828"
	/>
<path fill-rule="evenodd" clip-rule="evenodd" fill="none" stroke="#000000" stroke-width="2" stroke-linecap="round" stroke-linejoin="round" stroke-miterlimit="10" d="
	M324,229.987c-5.503-0.382-11.005-0.792-16.511-1.134c-2.44-0.151-4.891-0.166-7.336-0.242"/>
<path fill-rule="evenodd" clip-rule="evenodd" fill="none" stroke="#000000" stroke-width="2" stroke-linecap="round" stroke-linejoin="round" stroke-miterlimit="10" d="
	M154.318,21.783c-0.764-2.14-1.625-4.251-2.271-6.427c-0.984-3.316,0.288-6.143,2.303-8.681c0.385-0.485,1.19-0.9,1.802-0.901
	c4.433-0.002,8.866,0.147,13.299,0.178c5.427,0.039,10.854,0.009,16.28,0.009"/>
<path fill-rule="evenodd" clip-rule="evenodd" fill="none" stroke="#000000" stroke-width="2" stroke-linecap="round" stroke-linejoin="round" stroke-miterlimit="10" d="
	M218.981,115.796c0.764,1.834,1.651,3.628,2.269,5.511c1.674,5.098,3.241,10.232,4.828,15.359c0.158,0.51,0.164,1.066,0.24,1.602"/>
<path fill-rule="evenodd" clip-rule="evenodd" fill="none" stroke="#000000" stroke-width="2" stroke-linecap="round" stroke-linejoin="round" stroke-miterlimit="10" d="
	M296.484,11.236c-3.363-0.077-6.728-0.251-10.089-0.208c-5.811,0.074-11.618,0.31-17.428,0.426
	c-3.056,0.061-6.115-0.014-9.171,0.032c-0.614,0.009-1.223,0.285-1.834,0.438"/>
<path fill-rule="evenodd" clip-rule="evenodd" fill="none" stroke="#000000" stroke-width="2" stroke-linecap="round" stroke-linejoin="round" stroke-miterlimit="10" d="
	M314.828,695.007c-0.076,1.223,0.125,2.546-0.275,3.651c-2.167,5.985-1.816,12.183-1.788,18.361"/>
<path fill-rule="evenodd" clip-rule="evenodd" fill="none" stroke="#000000" stroke-width="2" stroke-linecap="round" stroke-linejoin="round" stroke-miterlimit="10" d="
	M344.407,556.51c-1.986,1.604-4.102,3.078-5.934,4.844c-3.501,3.373-7.704,5.441-12.186,7.065c-0.498,0.181-1.065,0.167-1.601,0.243
	"/>
<path fill-rule="evenodd" clip-rule="evenodd" fill="none" stroke="#000000" stroke-width="2" stroke-linecap="round" stroke-linejoin="round" stroke-miterlimit="10" d="
	M417.554,18.803c-6.573,0.153-13.146,0.371-19.72,0.441c-7.184,0.077-14.371-0.099-21.553,0.047
	c-9.022,0.184-18.039,0.583-27.059,0.885c-0.687,0.023-1.376,0.003-2.063,0.003"/>
<path fill-rule="evenodd" clip-rule="evenodd" fill="none" stroke="#000000" stroke-width="2" stroke-linecap="round" stroke-linejoin="round" stroke-miterlimit="10" d="
	M63.516,236.178c-2.644-1.436-5.441-1.001-7.742,0.324c-3.049,1.757-5.707,4.191-8.54,6.324c-1.136,0.855-2.291,1.684-3.438,2.525"
	/>
<path fill-rule="evenodd" clip-rule="evenodd" fill="none" stroke="#000000" stroke-width="2" stroke-linecap="round" stroke-linejoin="round" stroke-miterlimit="10" d="
	M332.025,153.86c2.217,6.573,4.803,13.053,6.497,19.758c0.871,3.449,0.271,7.304,0.113,10.966c-0.113,2.635-0.705,5.145,0.356,7.854
	c0.567,1.446-0.315,3.461-0.547,5.219c-0.534,4.051-1.069,8.102-1.604,12.153"/>
<path fill-rule="evenodd" clip-rule="evenodd" fill="none" stroke="#000000" stroke-width="2" stroke-linecap="round" stroke-linejoin="round" stroke-miterlimit="10" d="
	M88.28,204.535c-1.289,1.702-1.126,3.476-0.795,5.521c0.334,2.061-0.012,4.297-0.393,6.396c-0.657,3.623-1.438,7.173-3.026,10.621
	c-1.18,2.562-1.316,5.716-0.372,8.648"/>
<path fill-rule="evenodd" clip-rule="evenodd" fill="none" stroke="#000000" stroke-width="2" stroke-linecap="round" stroke-linejoin="round" stroke-miterlimit="10" d="
	M414.803,244.663c-2.828-0.229-5.658-0.441-8.483-0.692c-4.13-0.367-8.255-0.766-12.383-1.141
	c-3.439-0.313-6.879-0.613-10.318-0.919"/>
<path fill-rule="evenodd" clip-rule="evenodd" fill="none" stroke="#000000" stroke-width="2" stroke-linecap="round" stroke-linejoin="round" stroke-miterlimit="10" d="
	M261.86,6.191c1.146,0,2.293,0,3.439,0c5.58,0,11.16,0,16.739,0c3.363,0,6.729-0.084,10.089,0.029
	c2.374,0.081,4.735,0.562,7.109,0.625c2.748,0.072,5.503-0.118,8.254-0.195"/>
<path fill-rule="evenodd" clip-rule="evenodd" fill="none" stroke="#000000" stroke-width="2" stroke-linecap="round" stroke-linejoin="round" stroke-miterlimit="10" d="
	M411.134,241.452c-1.758-0.306-3.505-0.762-5.276-0.888c-4.503-0.318-9.017-0.488-13.526-0.717"/>
<path fill-rule="evenodd" clip-rule="evenodd" fill="none" stroke="#000000" stroke-width="2" stroke-linecap="round" stroke-linejoin="round" stroke-miterlimit="10" d="
	M232.051,46.777c-3.134,0.305-6.265,0.835-9.401,0.875c-9.4,0.117-18.803-0.011-28.203,0.062
	c-5.428,0.042-10.854,0.294-16.281,0.426c-0.609,0.015-1.223-0.141-1.834-0.217"/>
<path fill-rule="evenodd" clip-rule="evenodd" fill="none" stroke="#000000" stroke-width="2" stroke-linecap="round" stroke-linejoin="round" stroke-miterlimit="10" d="
	M341.197,210.956c-6.45-1.126-12.968-1.617-19.49-2.055c-0.914-0.062-1.834-0.009-2.752-0.009"/>
<path fill-rule="evenodd" clip-rule="evenodd" fill="none" stroke="#000000" stroke-width="2" stroke-linecap="round" stroke-linejoin="round" stroke-miterlimit="10" d="
	M218.293,149.503c1.682,4.739,3.373,9.475,5.037,14.22c0.356,1.014,0.619,2.061,0.925,3.093"/>
<path fill-rule="evenodd" clip-rule="evenodd" fill="none" stroke="#000000" stroke-width="2" stroke-linecap="round" stroke-linejoin="round" stroke-miterlimit="10" d="
	M394.624,39.439c-8.179,0.153-16.356,0.292-24.534,0.477c-0.997,0.022-1.988,0.288-2.981,0.44"/>
<path fill-rule="evenodd" clip-rule="evenodd" fill="none" stroke="#000000" stroke-width="2" stroke-linecap="round" stroke-linejoin="round" stroke-miterlimit="10" d="
	M226.089,147.439c1.643,5.671,2.971,11.45,5.732,16.739"/>
<path fill-rule="evenodd" clip-rule="evenodd" fill="none" stroke="#000000" stroke-width="2" stroke-linecap="round" stroke-linejoin="round" stroke-miterlimit="10" d="
	M341.427,231.363c-4.739-0.382-9.478-0.763-14.217-1.149c-0.765-0.062-1.528-0.151-2.293-0.227"/>
<path fill-rule="evenodd" clip-rule="evenodd" fill="none" stroke="#000000" stroke-width="2" stroke-linecap="round" stroke-linejoin="round" stroke-miterlimit="10" d="
	M258.42,225.86c3.287,0.306,6.568,0.687,9.861,0.897c3.74,0.239,7.489,0.325,11.234,0.479"/>
<path fill-rule="evenodd" clip-rule="evenodd" fill="none" stroke="#000000" stroke-width="2" stroke-linecap="round" stroke-linejoin="round" stroke-miterlimit="10" d="
	M261.172,35.771c-1.965,0.522-3.804,1.003-5.792-0.372c-0.95-0.657-2.538-0.51-3.838-0.524c-4.738-0.053-9.477-0.021-14.216-0.021"
	/>
<path fill-rule="evenodd" clip-rule="evenodd" fill="none" stroke="#000000" stroke-width="2" stroke-linecap="round" stroke-linejoin="round" stroke-miterlimit="10" d="
	M221.962,116.943c0.82-0.565,1.64-1.13,2.91-2.006c1.91,5.639,3.742,11.045,5.574,16.452"/>
<path fill-rule="evenodd" clip-rule="evenodd" fill="none" stroke="#000000" stroke-width="2" stroke-linecap="round" stroke-linejoin="round" stroke-miterlimit="10" d="
	M248.79,32.561c-1.223-0.076-2.46-0.063-3.667-0.247c-3.062-0.469-5.766-0.103-8.319,2.006c-1.499,1.239-3.726,0.758-5.67,0.774
	c-5.274,0.043-10.548,0.13-15.821,0.237c-0.461,0.009-0.917,0.287-1.376,0.439"/>
<path fill-rule="evenodd" clip-rule="evenodd" fill="none" stroke="#000000" stroke-width="2" stroke-linecap="round" stroke-linejoin="round" stroke-miterlimit="10" d="
	M48.382,290.522c-4.433,3.884-6.356,9.152-8.251,14.899c-0.735-0.365-1.572-0.671-2.287-1.157c-2.161-1.469-4.322-2.174-6.928-0.985
	c-0.58,0.265-1.934-0.291-2.419-0.886c-0.843-1.034-1.556-2.333-1.849-3.627c-0.889-3.93-3.557-6.745-5.783-9.849"/>
<path fill-rule="evenodd" clip-rule="evenodd" fill="none" stroke="#000000" stroke-width="2" stroke-linecap="round" stroke-linejoin="round" stroke-miterlimit="10" d="
	M276.765,205.682c-4.892-0.153-9.784-0.306-14.675-0.458"/>
<path fill-rule="evenodd" clip-rule="evenodd" fill="none" stroke="#000000" stroke-width="2" stroke-linecap="round" stroke-linejoin="round" stroke-miterlimit="10" d="
	M367.338,214.624c7.72,1.376,15.436,2.77,23.162,4.112c1.509,0.262,3.054,0.321,4.583,0.474"/>
<path fill-rule="evenodd" clip-rule="evenodd" fill="none" stroke="#000000" stroke-width="2" stroke-linecap="round" stroke-linejoin="round" stroke-miterlimit="10" d="
	M257.044,26.37c0.153,0.535,0.307,1.069,0.458,1.605c0.911,3.228,1.813,3.685,4.823,2.775c2.179-0.658,4.426-1.094,6.643-1.629"/>
<path fill-rule="evenodd" clip-rule="evenodd" fill="none" stroke="#000000" stroke-width="2" stroke-linecap="round" stroke-linejoin="round" stroke-miterlimit="10" d="
	M179.312,3.21c-3.974,0.153-7.948,0.384-11.924,0.44c-5.426,0.076-10.854,0.002-16.28,0.029c-1.605,0.008-3.21,0.143-4.815,0.219"/>
<path fill-rule="evenodd" clip-rule="evenodd" fill="none" stroke="#000000" stroke-width="2" stroke-linecap="round" stroke-linejoin="round" stroke-miterlimit="10" d="
	M311.389,47.006c-2.217-0.076-4.435-0.247-6.649-0.205c-2.601,0.049-5.199,0.422-7.796,0.402c-4.129-0.032-8.255-0.386-12.383-0.393
	c-3.669-0.007-7.337,0.287-11.007,0.403c-0.377,0.012-0.764-0.283-1.146-0.436"/>
<path fill-rule="evenodd" clip-rule="evenodd" fill="none" stroke="#000000" stroke-width="2" stroke-linecap="round" stroke-linejoin="round" stroke-miterlimit="10" d="
	M57.096,287.312c-0.841,1.452-1.687,2.901-2.521,4.357c-1.838,3.208-3.67,6.42-5.504,9.63"/>
<path fill-rule="evenodd" clip-rule="evenodd" fill="none" stroke="#000000" stroke-width="2" stroke-linecap="round" stroke-linejoin="round" stroke-miterlimit="10" d="
	M348.993,105.937c-2.293,3.898-4.557,7.813-6.896,11.684c-0.732,1.212-1.791,2.234-2.471,3.469c-0.729,1.324-2.392,2.571-0.545,4.39
	c0.587,0.577-1.676,4.066-2.929,4.764"/>
<path fill-rule="evenodd" clip-rule="evenodd" fill="none" stroke="#000000" stroke-width="2" stroke-linecap="round" stroke-linejoin="round" stroke-miterlimit="10" d="
	M363.669,24.535c-0.994,0.076-1.986,0.2-2.981,0.222c-7.566,0.167-15.134,0.301-22.7,0.47c-5.962,0.133-11.924,0.399-17.886,0.413
	c-2.98,0.007-5.961-0.417-8.942-0.646"/>
<path fill-rule="evenodd" clip-rule="evenodd" fill="none" stroke="#000000" stroke-width="2" stroke-linecap="round" stroke-linejoin="round" stroke-miterlimit="10" d="
	M315.745,7.567c-0.458,0.917-0.788,1.934-1.404,2.729c-1.03,1.329-2.374,1.426-4.107,1.263c-3.946-0.373-7.94-0.247-11.915-0.323"/>
<path fill-rule="evenodd" clip-rule="evenodd" fill="none" stroke="#000000" stroke-width="2" stroke-linecap="round" stroke-linejoin="round" stroke-miterlimit="10" d="
	M292.586,33.937c-3.28,0.446-5.768,2.536-8.47,4.151c-1.305,0.78-2.46,1.811-3.683,2.728"/>
<path fill-rule="evenodd" clip-rule="evenodd" fill="none" stroke="#000000" stroke-width="2" stroke-linecap="round" stroke-linejoin="round" stroke-miterlimit="10" d="
	M353.809,116.255c-1.834,1.911-3.578,3.919-5.523,5.71c-3.02,2.778-4.637,6.43-6.705,9.836c-1.355,2.232-3.388,4.072-5.238,5.969
	c-0.412,0.422-1.335,0.345-2.023,0.498"/>
<path fill-rule="evenodd" clip-rule="evenodd" fill="none" stroke="#000000" stroke-width="2" stroke-linecap="round" stroke-linejoin="round" stroke-miterlimit="10" d="
	M102.038,232.051c-3.133,1.12-6.236,2.229-9.233,3.78c-2.451,1.268-5.409,1.76-8.203,2.11c-3.095,0.388-6.26,0.201-9.391,0.33
	c-0.391,0.016-0.756,0.446-1.149,0.656c-2.443,1.305-4.89,2.602-7.336,3.901"/>
<path fill-rule="evenodd" clip-rule="evenodd" fill="none" stroke="#000000" stroke-width="2" stroke-linecap="round" stroke-linejoin="round" stroke-miterlimit="10" d="
	M346.93,19.949c-0.458-1.3-0.83-2.639-1.402-3.886c-0.482-1.053-1.172-2.016-1.813-2.99c-1.696-2.578-1.753-2.465-4.819-1.888
	c-1.86,0.35-3.813,0.229-5.724,0.271c-1.681,0.038-3.363,0.008-5.045,0.008"/>
<path fill-rule="evenodd" clip-rule="evenodd" fill="none" stroke="#000000" stroke-width="2" stroke-linecap="round" stroke-linejoin="round" stroke-miterlimit="10" d="
	M200.408,27.745c2.293,1.834,4.428,3.928,6.915,5.445c4.228,2.58,8.684,4.785,13.025,7.184c0.454,0.251,0.774,0.747,1.156,1.128"/>
<path fill-rule="evenodd" clip-rule="evenodd" fill="none" stroke="#000000" stroke-width="2" stroke-linecap="round" stroke-linejoin="round" stroke-miterlimit="10" d="
	M150.191,36.917c-4.127-0.076-8.254-0.153-12.382-0.229"/>
<path fill-rule="evenodd" clip-rule="evenodd" fill="none" stroke="#000000" stroke-width="2" stroke-linecap="round" stroke-linejoin="round" stroke-miterlimit="10" d="
	M125.656,224.713c-3.633,3.139-7.018,6.476-8.966,10.997c-0.131,0.305-0.588,0.468-0.894,0.698"/>
<path fill-rule="evenodd" clip-rule="evenodd" fill="none" stroke="#000000" stroke-width="2" stroke-linecap="round" stroke-linejoin="round" stroke-miterlimit="10" d="
	M319.185,131.389c1.835,3.745,3.47,7.61,5.606,11.174c0.799,1.333,2.384,2.732,4.482,2.354"/>
<path fill-rule="evenodd" clip-rule="evenodd" fill="none" stroke="#000000" stroke-width="2" stroke-linecap="round" stroke-linejoin="round" stroke-miterlimit="10" d="
	M217.146,110.751c-0.611-0.076-1.238-0.091-1.832-0.239c-4.045-1.01-7.108,0.149-9.633,3.678"/>
<path fill-rule="evenodd" clip-rule="evenodd" fill="none" stroke="#000000" stroke-width="2" stroke-linecap="round" stroke-linejoin="round" stroke-miterlimit="10" d="
	M83.236,228.841c-2.572-2.112-5.221-4.118-8.491-5.021c-1.104-0.305-2.287-0.33-3.433-0.483"/>
<path fill-rule="evenodd" clip-rule="evenodd" fill="none" stroke="#000000" stroke-width="2" stroke-linecap="round" stroke-linejoin="round" stroke-miterlimit="10" d="
	M292.815,207.057c-3.975-0.306-7.949-0.611-11.924-0.917"/>
<path fill-rule="evenodd" clip-rule="evenodd" fill="none" stroke="#000000" stroke-width="2" stroke-linecap="round" stroke-linejoin="round" stroke-miterlimit="10" d="
	M250.624,39.439c2.02,3.113,4.95,3.153,8.261,2.812c5.174-0.533,10.387-0.696,15.587-0.951c0.755-0.037,1.527,0.279,2.292,0.432"/>
<path fill-rule="evenodd" clip-rule="evenodd" fill="none" stroke="#000000" stroke-width="2" stroke-linecap="round" stroke-linejoin="round" stroke-miterlimit="10" d="
	M298.318,228.382c-5.962-0.306-11.924-0.612-17.885-0.917"/>
<path fill-rule="evenodd" clip-rule="evenodd" fill="none" stroke="#000000" stroke-width="2" stroke-linecap="round" stroke-linejoin="round" stroke-miterlimit="10" d="
	M298.318,209.351c-5.809-0.077-11.618-0.153-17.427-0.229"/>
<path fill-rule="evenodd" clip-rule="evenodd" fill="none" stroke="#000000" stroke-width="2" stroke-linecap="round" stroke-linejoin="round" stroke-miterlimit="10" d="
	M274.013,37.834c-3.058-0.458-6.118-0.895-9.169-1.391c-0.781-0.127-1.531-0.443-2.295-0.673"/>
<path fill-rule="evenodd" clip-rule="evenodd" fill="none" stroke="#000000" stroke-width="2" stroke-linecap="round" stroke-linejoin="round" stroke-miterlimit="10" d="
	M180.917,12.611c-4.28,0.153-8.56,0.306-12.841,0.459"/>
<path fill-rule="evenodd" clip-rule="evenodd" fill="none" stroke="#000000" stroke-width="2" stroke-linecap="round" stroke-linejoin="round" stroke-miterlimit="10" d="
	M227.236,140.561c-4.524-0.026-8.35,1.405-11.006,5.274"/>
<path fill-rule="evenodd" clip-rule="evenodd" fill="none" stroke="#000000" stroke-width="2" stroke-linecap="round" stroke-linejoin="round" stroke-miterlimit="10" d="
	M223.108,203.847c-3.669,0-7.338,0-11.006,0"/>
<path fill-rule="evenodd" clip-rule="evenodd" fill="none" stroke="#000000" stroke-width="2" stroke-linecap="round" stroke-linejoin="round" stroke-miterlimit="10" d="
	M399.21,219.898c3.21,0.535,6.421,1.07,9.631,1.605c0.917,0.153,1.834,0.306,2.752,0.459"/>
<path fill-rule="evenodd" clip-rule="evenodd" fill="none" stroke="#000000" stroke-width="2" stroke-linecap="round" stroke-linejoin="round" stroke-miterlimit="10" d="
	M342.114,140.331c0,0.459,0.123,0.96-0.02,1.369c-1.03,2.951-0.851,3.462,1.619,4.833c1.408,0.782,2.758,1.67,4.133,2.511"/>
<path fill-rule="evenodd" clip-rule="evenodd" fill="none" stroke="#000000" stroke-width="2" stroke-linecap="round" stroke-linejoin="round" stroke-miterlimit="10" d="
	M334.548,2.063c-4.28,0-8.561-0.024-12.841,0.021c-0.842,0.009-1.682,0.285-2.522,0.438"/>
<path fill-rule="evenodd" clip-rule="evenodd" fill="none" stroke="#000000" stroke-width="2" stroke-linecap="round" stroke-linejoin="round" stroke-miterlimit="10" d="
	M52.968,304.739c-3.607,1.622-7.25,2.224-11.017,0.482c-0.378-0.175-0.907-0.024-1.365-0.024"/>
<path fill-rule="evenodd" clip-rule="evenodd" fill="none" stroke="#000000" stroke-width="2" stroke-linecap="round" stroke-linejoin="round" stroke-miterlimit="10" d="
	M328.815,8.025c-1.214,3.469-0.294,4.349-4.803,3.381c-4.756-1.021-8.065,1.706-11.383,4.088c-1.063,0.764-1.012,3.079-1.471,4.684"
	/>
<path fill-rule="evenodd" clip-rule="evenodd" fill="none" stroke="#000000" stroke-width="2" stroke-linecap="round" stroke-linejoin="round" stroke-miterlimit="10" d="
	M198.344,26.599c-0.229-0.611-0.355-1.292-0.71-1.819c-0.604-0.897-1.27-1.79-2.07-2.505c-0.535-0.478-1.345-0.902-2.035-0.906
	c-3.286-0.021-6.573,0.109-9.859,0.186"/>
<path fill-rule="evenodd" clip-rule="evenodd" fill="none" stroke="#000000" stroke-width="2" stroke-linecap="round" stroke-linejoin="round" stroke-miterlimit="10" d="
	M152.943,28.204c-3.21,0.077-6.42,0.153-9.631,0.229"/>
<path fill-rule="evenodd" clip-rule="evenodd" fill="none" stroke="#000000" stroke-width="2" stroke-linecap="round" stroke-linejoin="round" stroke-miterlimit="10" d="
	M126.344,140.102c-1.834,0.917-3.654,1.865-5.506,2.745c-4.092,1.944-6.523,5.954-10.324,8.248c-0.785,0.474-1.673,0.778-2.514,1.16
	"/>
<path fill-rule="evenodd" clip-rule="evenodd" fill="none" stroke="#000000" stroke-width="2" stroke-linecap="round" stroke-linejoin="round" stroke-miterlimit="10" d="
	M307.49,20.178c1.529,0.077,3.057,0.184,4.586,0.223c3.745,0.095,7.491,0.159,11.236,0.235"/>
<path fill-rule="evenodd" clip-rule="evenodd" fill="none" stroke="#000000" stroke-width="2" stroke-linecap="round" stroke-linejoin="round" stroke-miterlimit="10" d="
	M93.096,235.032c-1.299,0-2.637-0.201-3.891,0.037c-4.026,0.766-7.995,1.807-12.163,1.636c-0.668-0.027-1.373,0.849-2.061,1.308"/>
<path fill-rule="evenodd" clip-rule="evenodd" fill="none" stroke="#000000" stroke-width="2" stroke-linecap="round" stroke-linejoin="round" stroke-miterlimit="10" d="
	M116.484,145.376c-1.375,0.611-3.022,0.926-4.077,1.89c-3.219,2.942-6.349,6.021-8.305,10.034"/>
<path fill-rule="evenodd" clip-rule="evenodd" fill="none" stroke="#000000" stroke-width="2" stroke-linecap="round" stroke-linejoin="round" stroke-miterlimit="10" d="
	M315.287,0.688c0.338,0.169,0.676,0.338,1.013,0.507c-0.025,0.213-0.051,0.426-0.076,0.64c-1.383,0-2.768-0.058-4.146,0.014
	c-1.837,0.096-3.67,0.292-5.504,0.444"/>
<path fill-rule="evenodd" clip-rule="evenodd" fill="none" stroke="#000000" stroke-width="2" stroke-linecap="round" stroke-linejoin="round" stroke-miterlimit="10" d="
	M326.293,47.236c1.538-0.856,3.208-0.386,4.816-0.441c3.743-0.131,7.496-0.064,11.232-0.286c2.305-0.137,4.4-0.352,6.248,1.592
	c1.073,1.128,2.735,1.677,4.063,2.588c2.038,1.397,2.038,1.561,0.697,3.426"/>
<path fill-rule="evenodd" clip-rule="evenodd" fill="none" stroke="#000000" stroke-width="2" stroke-linecap="round" stroke-linejoin="round" stroke-miterlimit="10" d="
	M331.796,36.458c-1.544,1.968-5.98,3.578-8.235,2.702c-1.68-0.653-2.354-0.375-2.313,1.425"/>
<path fill-rule="evenodd" clip-rule="evenodd" fill="none" stroke="#000000" stroke-width="2" stroke-linecap="round" stroke-linejoin="round" stroke-miterlimit="10" d="
	M363.669,1.834c0.076,5.121,0.163,10.242,0.218,15.363c0.008,0.763-0.142,1.528-0.218,2.292"/>
<path fill-rule="evenodd" clip-rule="evenodd" fill="none" stroke="#000000" stroke-width="2" stroke-linecap="round" stroke-linejoin="round" stroke-miterlimit="10" d="
	M391.414,239.618c-2.904-0.153-5.809-0.306-8.713-0.458"/>
<path fill-rule="evenodd" clip-rule="evenodd" fill="none" stroke="#000000" stroke-width="2" stroke-linecap="round" stroke-linejoin="round" stroke-miterlimit="10" d="
	M363.898,19.949c-0.389,6.83,0.676,13.459,2.751,19.949"/>
<path fill-rule="evenodd" clip-rule="evenodd" fill="none" stroke="#000000" stroke-width="2" stroke-linecap="round" stroke-linejoin="round" stroke-miterlimit="10" d="
	M317.58,686.98c-0.383,1.376-0.765,2.752-1.146,4.128c-0.383,1.376-0.765,2.751-1.146,4.127"/>
<path fill-rule="evenodd" clip-rule="evenodd" fill="none" stroke="#000000" stroke-width="2" stroke-linecap="round" stroke-linejoin="round" stroke-miterlimit="10" d="
	M233.656,203.847c3.974,0.229,7.949,0.458,11.923,0.688"/>
<path fill-rule="evenodd" clip-rule="evenodd" fill="none" stroke="#000000" stroke-width="2" stroke-linecap="round" stroke-linejoin="round" stroke-miterlimit="10" d="
	M60.077,223.108c-0.767,1.676,0.566,1.898,1.607,2.287c1.291,0.483,2.565,1.113,3.904,1.333c1.675,0.275,2.583,1.298,3.443,2.563
	c0.714,1.05,1.409,2.202,2.97,2.071"/>
<path fill-rule="evenodd" clip-rule="evenodd" fill="none" stroke="#000000" stroke-width="2" stroke-linecap="round" stroke-linejoin="round" stroke-miterlimit="10" d="
	M191.236,191.924c-3.617-0.837-5.957,1.119-8.026,3.668"/>
<path fill-rule="evenodd" clip-rule="evenodd" fill="none" stroke="#000000" stroke-width="2" stroke-linecap="round" stroke-linejoin="round" stroke-miterlimit="10" d="
	M309.783,25.911c-0.229,0.382-0.389,0.837-0.698,1.135c-3.095,2.968-4.333,6.46-3.711,10.796c0.621,4.323,0.768,8.711,1.24,13.058
	c0.096,0.872,0.724,1.686,1.105,2.527"/>
<path fill-rule="evenodd" clip-rule="evenodd" fill="none" stroke="#000000" stroke-width="2" stroke-linecap="round" stroke-linejoin="round" stroke-miterlimit="10" d="
	M300.611,2.293c-2.752,0-5.503,0-8.255,0"/>
<path fill-rule="evenodd" clip-rule="evenodd" fill="none" stroke="#000000" stroke-width="2" stroke-linecap="round" stroke-linejoin="round" stroke-miterlimit="10" d="
	M326.752,11.924c-0.688,1.375-1.489,2.708-2.032,4.139c-0.529,1.396-0.796,2.893-1.179,4.345"/>
<path fill-rule="evenodd" clip-rule="evenodd" fill="none" stroke="#000000" stroke-width="2" stroke-linecap="round" stroke-linejoin="round" stroke-miterlimit="10" d="
	M181.834,13.299c0.229,0.841,0.402,1.702,0.697,2.519c1.719,4.766,0.893,9.382-0.676,13.998c-0.661,1.944-1.091,3.967-1.626,5.955"
	/>
<path fill-rule="evenodd" clip-rule="evenodd" fill="none" stroke="#000000" stroke-width="2" stroke-linecap="round" stroke-linejoin="round" stroke-miterlimit="10" d="
	M328.586,136.892c0.765,4.968,1.499,9.941,2.331,14.898c0.104,0.62,0.727,1.153,1.108,1.726"/>
<path fill-rule="evenodd" clip-rule="evenodd" fill="none" stroke="#000000" stroke-width="2" stroke-linecap="round" stroke-linejoin="round" stroke-miterlimit="10" d="
	M68.561,227.924c1.911,0.535,3.932,0.834,5.703,1.667c2.036,0.957,3.851,2.384,5.762,3.607"/>
<path fill-rule="evenodd" clip-rule="evenodd" fill="none" stroke="#000000" stroke-width="2" stroke-linecap="round" stroke-linejoin="round" stroke-miterlimit="10" d="
	M335.235,144.229c0.994,1.911,1.969,3.832,2.992,5.726c0.311,0.574,0.753,1.076,1.136,1.611"/>
<path fill-rule="evenodd" clip-rule="evenodd" fill="none" stroke="#000000" stroke-width="2" stroke-linecap="round" stroke-linejoin="round" stroke-miterlimit="10" d="
	M88.28,308.178c2.522,1.299,5.044,2.599,7.567,3.898"/>
<path fill-rule="evenodd" clip-rule="evenodd" fill="none" stroke="#000000" stroke-width="2" stroke-linecap="round" stroke-linejoin="round" stroke-miterlimit="10" d="
	M325.376,143.771c0.043,2.733,2.328,5.671,4.815,6.191"/>
<path fill-rule="evenodd" clip-rule="evenodd" fill="none" stroke="#000000" stroke-width="2" stroke-linecap="round" stroke-linejoin="round" stroke-miterlimit="10" d="
	M111.21,144.688c-2.369,2.369-4.739,4.739-7.108,7.108"/>
<path fill-rule="evenodd" clip-rule="evenodd" fill="none" stroke="#000000" stroke-width="2" stroke-linecap="round" stroke-linejoin="round" stroke-miterlimit="10" d="
	M342.803,231.592c5.044,0.382,10.089,0.764,15.134,1.146"/>
<path fill-rule="evenodd" clip-rule="evenodd" fill="none" stroke="#000000" stroke-width="2" stroke-linecap="round" stroke-linejoin="round" stroke-miterlimit="10" d="
	M158.675,306.344c-1.834,1.987-3.682,3.963-5.489,5.975c-0.258,0.288-0.32,0.751-0.473,1.133"/>
<path fill-rule="evenodd" clip-rule="evenodd" fill="none" stroke="#000000" stroke-width="2" stroke-linecap="round" stroke-linejoin="round" stroke-miterlimit="10" d="
	M447.134,655.566c0.611,2.446,1.223,4.893,1.834,7.338"/>
<path fill-rule="evenodd" clip-rule="evenodd" fill="none" stroke="#000000" stroke-width="2" stroke-linecap="round" stroke-linejoin="round" stroke-miterlimit="10" d="
	M69.019,234.344c-2.293,0.994-4.586,1.987-6.879,2.981"/>
<path fill-rule="evenodd" clip-rule="evenodd" fill="none" stroke="#000000" stroke-width="2" stroke-linecap="round" stroke-linejoin="round" stroke-miterlimit="10" d="
	M343.032,128.178c-1.3,1.07-2.741,2.012-3.856,3.248c-1.01,1.118-2.084,1.506-3.481,1.338"/>
<path fill-rule="evenodd" clip-rule="evenodd" fill="none" stroke="#000000" stroke-width="2" stroke-linecap="round" stroke-linejoin="round" stroke-miterlimit="10" d="
	M72.229,229.529c0,1.223,0,2.446,0,4.127c3.744,0,7.261,0,10.777,0"/>
<path fill-rule="evenodd" clip-rule="evenodd" fill="none" stroke="#000000" stroke-width="2" stroke-linecap="round" stroke-linejoin="round" stroke-miterlimit="10" d="
	M116.713,311.618c-2.905,0.229-5.806,0.535-8.715,0.653c-1.291,0.053-2.594-0.322-3.898-0.396c-0.449-0.025-0.916,0.277-1.375,0.43"
	/>
<path fill-rule="evenodd" clip-rule="evenodd" fill="none" stroke="#000000" stroke-width="2" stroke-linecap="round" stroke-linejoin="round" stroke-miterlimit="10" d="
	M308.866,6.649c2.599,0.153,5.195,0.356,7.797,0.447c3.591,0.125,7.184,0.221,10.776,0.225c3.21,0.003,6.42-0.136,9.631-0.212"/>
<path fill-rule="evenodd" clip-rule="evenodd" fill="none" stroke="#000000" stroke-width="2" stroke-linecap="round" stroke-linejoin="round" stroke-miterlimit="10" d="
	M419.389,242.37c-2.293-0.306-4.586-0.612-6.879-0.917"/>
<path fill-rule="evenodd" clip-rule="evenodd" fill="none" stroke="#000000" stroke-width="2" stroke-linecap="round" stroke-linejoin="round" stroke-miterlimit="10" d="
	M230.904,203.847c-2.293,0-4.586,0-6.879,0"/>
<path fill-rule="evenodd" clip-rule="evenodd" fill="none" stroke="#000000" stroke-width="2" stroke-linecap="round" stroke-linejoin="round" stroke-miterlimit="10" d="
	M179.542,36.458c-0.764,2.293-1.529,4.586-2.293,6.879"/>
<path fill-rule="evenodd" clip-rule="evenodd" fill="none" stroke="#000000" stroke-width="2" stroke-linecap="round" stroke-linejoin="round" stroke-miterlimit="10" d="
	M63.057,220.586c2.217,0.306,4.433,0.611,6.65,0.917"/>
<path fill-rule="evenodd" clip-rule="evenodd" fill="none" stroke="#000000" stroke-width="2" stroke-linecap="round" stroke-linejoin="round" stroke-miterlimit="10" d="
	M314.141,40.815c2.293,0,4.586,0,6.879,0"/>
<path fill-rule="evenodd" clip-rule="evenodd" fill="none" stroke="#000000" stroke-width="2" stroke-linecap="round" stroke-linejoin="round" stroke-miterlimit="10" d="
	M306.344,3.898c0.037-0.808,0.075-1.508-1.148-1.402c-1.366,0.117-2.749,0.027-4.125,0.027"/>
<path fill-rule="evenodd" clip-rule="evenodd" fill="none" stroke="#000000" stroke-width="2" stroke-linecap="round" stroke-linejoin="round" stroke-miterlimit="10" d="
	M124.968,131.389c-1.987,1.834-3.975,3.668-5.962,5.503"/>
<path fill-rule="evenodd" clip-rule="evenodd" fill="none" stroke="#000000" stroke-width="2" stroke-linecap="round" stroke-linejoin="round" stroke-miterlimit="10" d="
	M342.803,139.644c-1.835,0.535-3.783,0.836-5.476,1.661c-2.385,1.163-2.89,3.953-4.413,5.883c-0.591,0.748-1.5,1.245-2.265,1.856"/>
<path fill-rule="evenodd" clip-rule="evenodd" fill="none" stroke="#000000" stroke-width="2" stroke-linecap="round" stroke-linejoin="round" stroke-miterlimit="10" d="
	M86.675,210.038c-0.841,2.064-1.682,4.127-2.522,6.191"/>
<path fill-rule="evenodd" clip-rule="evenodd" fill="none" stroke="#000000" stroke-width="2" stroke-linecap="round" stroke-linejoin="round" stroke-miterlimit="10" d="
	M67.414,215.771c1.969,1.963,2.511,4.598,3.161,7.121c0.416,1.614,0.355,3.351,0.508,5.032"/>
<path fill-rule="evenodd" clip-rule="evenodd" fill="none" stroke="#000000" stroke-width="2" stroke-linecap="round" stroke-linejoin="round" stroke-miterlimit="10" d="
	M276.306,15.822c-0.993,0.306-2.025,0.524-2.973,0.936c-1.786,0.775-3.524,1.663-5.282,2.503"/>
<path fill-rule="evenodd" clip-rule="evenodd" fill="none" stroke="#000000" stroke-width="2" stroke-linecap="round" stroke-linejoin="round" stroke-miterlimit="10" d="
	M342.573,135.516c-1.528,1.758-3.058,3.516-4.586,5.274"/>
<path fill-rule="evenodd" clip-rule="evenodd" fill="none" stroke="#000000" stroke-width="2" stroke-linecap="round" stroke-linejoin="round" stroke-miterlimit="10" d="
	M340.51,42.42c-1.452,0.917-2.926,1.804-4.342,2.774c-0.334,0.229-0.474,0.742-0.703,1.124"/>
<path fill-rule="evenodd" clip-rule="evenodd" fill="none" stroke="#000000" stroke-width="2" stroke-linecap="round" stroke-linejoin="round" stroke-miterlimit="10" d="
	M329.503,38.751c-0.712,2.528-2.448,4.302-4.35,5.97c-0.729,0.64-1.383,1.368-2.07,2.056"/>
<path fill-rule="evenodd" clip-rule="evenodd" fill="none" stroke="#000000" stroke-width="2" stroke-linecap="round" stroke-linejoin="round" stroke-miterlimit="10" d="
	M306.344,207.745c-1.91-0.076-3.821-0.153-5.732-0.229"/>
<path fill-rule="evenodd" clip-rule="evenodd" fill="none" stroke="#000000" stroke-width="2" stroke-linecap="round" stroke-linejoin="round" stroke-miterlimit="10" d="
	M152.713,18.573c-1.452-0.382-2.912-0.739-4.353-1.16c-0.484-0.142-0.921-0.445-1.38-0.674"/>
<path fill-rule="evenodd" clip-rule="evenodd" fill="none" stroke="#000000" stroke-width="2" stroke-linecap="round" stroke-linejoin="round" stroke-miterlimit="10" d="
	M151.567,13.529c-1.834,0.153-3.669,0.306-5.503,0.458"/>
<path fill-rule="evenodd" clip-rule="evenodd" fill="none" stroke="#000000" stroke-width="2" stroke-linecap="round" stroke-linejoin="round" stroke-miterlimit="10" d="
	M320.79,41.274c-0.535,1.911-1.07,3.822-1.605,5.732"/>
<path fill-rule="evenodd" clip-rule="evenodd" fill="none" stroke="#000000" stroke-width="2" stroke-linecap="round" stroke-linejoin="round" stroke-miterlimit="10" d="
	M157.529,13.299c-1.834,0.077-3.669,0.153-5.503,0.229"/>
<path fill-rule="evenodd" clip-rule="evenodd" fill="none" stroke="#000000" stroke-width="2" stroke-linecap="round" stroke-linejoin="round" stroke-miterlimit="10" d="
	M261.172,35.312c-1.834,0-3.669,0-5.503,0"/>
<path fill-rule="evenodd" clip-rule="evenodd" fill="none" stroke="#000000" stroke-width="2" stroke-linecap="round" stroke-linejoin="round" stroke-miterlimit="10" d="
	M311.389,20.637c0,0.765,0.035,1.531-0.007,2.293c-0.132,2.415-0.556,2.657-2.979,2.326c-1.351-0.184-2.747-0.033-4.123-0.033"/>
<path fill-rule="evenodd" clip-rule="evenodd" fill="none" stroke="#000000" stroke-width="2" stroke-linecap="round" stroke-linejoin="round" stroke-miterlimit="10" d="
	M47.465,303.592c-1.817,0.109-3.858-0.487-5.044,1.605"/>
<path fill-rule="evenodd" clip-rule="evenodd" fill="none" stroke="#000000" stroke-width="2" stroke-linecap="round" stroke-linejoin="round" stroke-miterlimit="10" d="
	M154.777,22.471c-0.305,1.682-0.611,3.363-0.917,5.045"/>
<path fill-rule="evenodd" clip-rule="evenodd" fill="none" stroke="#000000" stroke-width="2" stroke-linecap="round" stroke-linejoin="round" stroke-miterlimit="10" d="
	M321.02,47.694c-1.452,2.599-2.905,5.197-4.357,7.796"/>
<path fill-rule="evenodd" clip-rule="evenodd" fill="none" stroke="#000000" stroke-width="2" stroke-linecap="round" stroke-linejoin="round" stroke-miterlimit="10" d="
	M363.898,233.197c-1.682-0.153-3.363-0.306-5.045-0.458"/>
<path fill-rule="evenodd" clip-rule="evenodd" fill="none" stroke="#000000" stroke-width="2" stroke-linecap="round" stroke-linejoin="round" stroke-miterlimit="10" d="
	M304.28,209.809c-1.682-0.153-3.363-0.306-5.045-0.458"/>
<path fill-rule="evenodd" clip-rule="evenodd" fill="none" stroke="#000000" stroke-width="2" stroke-linecap="round" stroke-linejoin="round" stroke-miterlimit="10" d="
	M337.987,124.968c-0.996,1.458-2.188,2.744-1.913,4.826c0.143,1.087-0.35,2.375-0.875,3.41c-1.199,2.359-1.198,4.857-1.047,7.353
	c0.038,0.637,0.854,1.227,1.313,1.838"/>
<path fill-rule="evenodd" clip-rule="evenodd" fill="none" stroke="#000000" stroke-width="2" stroke-linecap="round" stroke-linejoin="round" stroke-miterlimit="10" d="
	M341.197,119.924c-0.611,1.605-1.223,3.21-1.834,4.815"/>
<path fill-rule="evenodd" clip-rule="evenodd" fill="none" stroke="#000000" stroke-width="2" stroke-linecap="round" stroke-linejoin="round" stroke-miterlimit="10" d="
	M298.777,207.516c-1.529-0.153-3.058-0.306-4.586-0.459"/>
<path fill-rule="evenodd" clip-rule="evenodd" fill="none" stroke="#000000" stroke-width="2" stroke-linecap="round" stroke-linejoin="round" stroke-miterlimit="10" d="
	M316.892,6.879c0.475-1.472,0.95-2.944,1.445-4.478c4.285,3.243,6.215,4.589,1.994,8.605"/>
<path fill-rule="evenodd" clip-rule="evenodd" fill="none" stroke="#000000" stroke-width="2" stroke-linecap="round" stroke-linejoin="round" stroke-miterlimit="10" d="
	M179.771,2.981c1.682-0.077,3.363-0.153,5.045-0.229"/>
<path fill-rule="evenodd" clip-rule="evenodd" fill="none" stroke="#000000" stroke-width="2" stroke-linecap="round" stroke-linejoin="round" stroke-miterlimit="10" d="
	M251.542,204.764c-1.529,0-3.057,0-4.586,0"/>
<path fill-rule="evenodd" clip-rule="evenodd" fill="none" stroke="#000000" stroke-width="2" stroke-linecap="round" stroke-linejoin="round" stroke-miterlimit="10" d="
	M331.566,2.293c-0.458,1.529-0.917,3.057-1.375,4.586"/>
<path fill-rule="evenodd" clip-rule="evenodd" fill="none" stroke="#000000" stroke-width="2" stroke-linecap="round" stroke-linejoin="round" stroke-miterlimit="10" d="
	M318.038,208.433c-1.528,0-3.058,0-4.586,0"/>
<path fill-rule="evenodd" clip-rule="evenodd" fill="none" stroke="#000000" stroke-width="2" stroke-linecap="round" stroke-linejoin="round" stroke-miterlimit="10" d="
	M202.013,216.917c-1.529-0.076-3.057-0.153-4.586-0.229"/>
<path fill-rule="evenodd" clip-rule="evenodd" fill="none" stroke="#000000" stroke-width="2" stroke-linecap="round" stroke-linejoin="round" stroke-miterlimit="10" d="
	M210.726,52.51c1.223,1.528,2.446,3.057,3.669,4.586"/>
<path fill-rule="evenodd" clip-rule="evenodd" fill="none" stroke="#000000" stroke-width="2" stroke-linecap="round" stroke-linejoin="round" stroke-miterlimit="10" d="
	M368.255,10.548c-2.981,0.076-5.962,0.153-8.942,0.229"/>
<path fill-rule="evenodd" clip-rule="evenodd" fill="none" stroke="#000000" stroke-width="2" stroke-linecap="round" stroke-linejoin="round" stroke-miterlimit="10" d="
	M252.917,204.764c2.599,0.153,5.198,0.306,7.796,0.459"/>
<path fill-rule="evenodd" clip-rule="evenodd" fill="none" stroke="#000000" stroke-width="2" stroke-linecap="round" stroke-linejoin="round" stroke-miterlimit="10" d="
	M251.771,14.446c2.295-0.932,3.832,0.315,5.274,1.834"/>
<path fill-rule="evenodd" clip-rule="evenodd" fill="none" stroke="#000000" stroke-width="2" stroke-linecap="round" stroke-linejoin="round" stroke-miterlimit="10" d="
	M318.955,47.236c-1.223-0.077-2.454-0.091-3.665-0.255c-0.631-0.085-1.227-0.433-1.838-0.663"/>
<path fill-rule="evenodd" clip-rule="evenodd" fill="none" stroke="#000000" stroke-width="2" stroke-linecap="round" stroke-linejoin="round" stroke-miterlimit="10" d="
	M117.63,138.268c-1.223,1.223-2.446,2.446-3.668,3.669"/>
<path fill-rule="evenodd" clip-rule="evenodd" fill="none" stroke="#000000" stroke-width="2" stroke-linecap="round" stroke-linejoin="round" stroke-miterlimit="10" d="
	M335.465,49.987c-3.057-0.764-6.114-1.529-9.172-2.293"/>
<path fill-rule="evenodd" clip-rule="evenodd" fill="none" stroke="#000000" stroke-width="2" stroke-linecap="round" stroke-linejoin="round" stroke-miterlimit="10" d="
	M335.924,37.376c-0.917,1.146-1.835,2.293-2.752,3.439"/>
<path fill-rule="evenodd" clip-rule="evenodd" fill="none" stroke="#000000" stroke-width="2" stroke-linecap="round" stroke-linejoin="round" stroke-miterlimit="10" d="
	M261.401,2.293c0,0.535-0.112,1.101,0.022,1.599c0.341,1.264,0.489,2.326-1.153,2.811c-0.265,0.078-0.321,0.864-0.474,1.322"/>
<path fill-rule="evenodd" clip-rule="evenodd" fill="none" stroke="#000000" stroke-width="2" stroke-linecap="round" stroke-linejoin="round" stroke-miterlimit="10" d="
	M312.076,207.975c-1.223,0-2.445,0-3.669,0"/>
<path fill-rule="evenodd" clip-rule="evenodd" fill="none" stroke="#000000" stroke-width="2" stroke-linecap="round" stroke-linejoin="round" stroke-miterlimit="10" d="
	M347.618,563.848c-1.146,0.152-2.293,0.305-3.439,0.458"/>
<path fill-rule="evenodd" clip-rule="evenodd" fill="none" stroke="#000000" stroke-width="2" stroke-linecap="round" stroke-linejoin="round" stroke-miterlimit="10" d="
	M146.981,0.688c-0.612,1.758-1.223,3.516-1.834,5.274"/>
<path fill-rule="evenodd" clip-rule="evenodd" fill="none" stroke="#000000" stroke-width="2" stroke-linecap="round" stroke-linejoin="round" stroke-miterlimit="10" d="
	M351.516,10.777c1.987,0,3.975,0,5.962,0"/>
<path fill-rule="evenodd" clip-rule="evenodd" fill="none" stroke="#000000" stroke-width="2" stroke-linecap="round" stroke-linejoin="round" stroke-miterlimit="10" d="
	M301.528,25.682c-1.834-0.077-3.669-0.153-5.503-0.229"/>
<path fill-rule="evenodd" clip-rule="evenodd" fill="none" stroke="#000000" stroke-width="2" stroke-linecap="round" stroke-linejoin="round" stroke-miterlimit="10" d="
	M28.433,301.07c1.07,0.382,2.14,0.764,3.21,1.146"/>
<path fill-rule="evenodd" clip-rule="evenodd" fill="none" stroke="#000000" stroke-width="2" stroke-linecap="round" stroke-linejoin="round" stroke-miterlimit="10" d="
	M340.739,43.796c0.764,0.802,1.528,1.605,2.293,2.407"/>
<path fill-rule="evenodd" clip-rule="evenodd" fill="none" stroke="#000000" stroke-width="2" stroke-linecap="round" stroke-linejoin="round" stroke-miterlimit="10" d="
	M72.229,233.427c-0.936,1.876-1.344,3.731,0.229,5.503"/>
<path fill-rule="evenodd" clip-rule="evenodd" fill="none" stroke="#000000" stroke-width="2" stroke-linecap="round" stroke-linejoin="round" stroke-miterlimit="10" d="
	M314.599,11.006c0.993,0.306,1.987,0.612,2.981,0.917"/>
<path fill-rule="evenodd" clip-rule="evenodd" fill="none" stroke="#000000" stroke-width="2" stroke-linecap="round" stroke-linejoin="round" stroke-miterlimit="10" d="
	M160.28,0.688c-0.764,0.841-1.529,1.681-2.293,2.522"/>
<path fill-rule="evenodd" clip-rule="evenodd" fill="none" stroke="#000000" stroke-width="2" stroke-linecap="round" stroke-linejoin="round" stroke-miterlimit="10" d="
	M393.248,235.72c-1.987-0.229-3.975-0.458-5.961-0.688"/>
<path fill-rule="evenodd" clip-rule="evenodd" fill="none" stroke="#000000" stroke-width="2" stroke-linecap="round" stroke-linejoin="round" stroke-miterlimit="10" d="
	M182.293,203.389c0.917,0.076,1.834,0.153,2.751,0.229"/>
<path fill-rule="evenodd" clip-rule="evenodd" fill="none" stroke="#000000" stroke-width="2" stroke-linecap="round" stroke-linejoin="round" stroke-miterlimit="10" d="
	M236.408,66.268c-0.841,0-1.682,0-2.522,0"/>
<path fill-rule="evenodd" clip-rule="evenodd" fill="none" stroke="#000000" stroke-width="2" stroke-linecap="round" stroke-linejoin="round" stroke-miterlimit="10" d="
	M274.242,16.739c0.841,0.458,1.682,0.917,2.522,1.376"/>
<path fill-rule="evenodd" clip-rule="evenodd" fill="none" stroke="#000000" stroke-width="2" stroke-linecap="round" stroke-linejoin="round" stroke-miterlimit="10" d="
	M134.37,208.892c0.153,0.841,0.306,1.682,0.458,2.522"/>
<path fill-rule="evenodd" clip-rule="evenodd" fill="none" stroke="#000000" stroke-width="2" stroke-linecap="round" stroke-linejoin="round" stroke-miterlimit="10" d="
	M179.771,0.688c-0.153,1.758-0.306,3.516-0.458,5.274"/>
<path fill-rule="evenodd" clip-rule="evenodd" fill="none" stroke="#000000" stroke-width="2" stroke-linecap="round" stroke-linejoin="round" stroke-miterlimit="10" d="
	M128.408,128.866c-0.841,0.535-1.682,1.07-2.522,1.605"/>
<path fill-rule="evenodd" clip-rule="evenodd" fill="none" stroke="#000000" stroke-width="2" stroke-linecap="round" stroke-linejoin="round" stroke-miterlimit="10" d="
	M339.593,8.025c0.458,0.841,0.917,1.682,1.375,2.522"/>
<path fill-rule="evenodd" clip-rule="evenodd" fill="none" stroke="#000000" stroke-width="2" stroke-linecap="round" stroke-linejoin="round" stroke-miterlimit="10" d="
	M314.828,47.465c-0.499,1.339,0.591,1.725,1.376,2.293"/>
<path fill-rule="evenodd" clip-rule="evenodd" fill="none" stroke="#000000" stroke-width="2" stroke-linecap="round" stroke-linejoin="round" stroke-miterlimit="10" d="
	M185.044,3.21c0.153,0.841,0.306,1.682,0.458,2.522"/>
<path fill-rule="evenodd" clip-rule="evenodd" fill="none" stroke="#000000" stroke-width="2" stroke-linecap="round" stroke-linejoin="round" stroke-miterlimit="10" d="
	M367.108,233.656c-0.765-0.153-1.528-0.306-2.293-0.459"/>
<path fill-rule="evenodd" clip-rule="evenodd" fill="none" stroke="#000000" stroke-width="2" stroke-linecap="round" stroke-linejoin="round" stroke-miterlimit="10" d="
	M347.389,20.637c0.306,0.688,0.611,1.376,0.917,2.064"/>
<path fill-rule="evenodd" clip-rule="evenodd" fill="none" stroke="#000000" stroke-width="2" stroke-linecap="round" stroke-linejoin="round" stroke-miterlimit="10" d="
	M136.892,22.242c0.764,0.076,1.529,0.153,2.293,0.229"/>
<path fill-rule="evenodd" clip-rule="evenodd" fill="none" stroke="#000000" stroke-width="2" stroke-linecap="round" stroke-linejoin="round" stroke-miterlimit="10" d="
	M207.516,49.758c0.764,0.612,1.529,1.223,2.293,1.834"/>
<path fill-rule="evenodd" clip-rule="evenodd" fill="none" stroke="#000000" stroke-width="2" stroke-linecap="round" stroke-linejoin="round" stroke-miterlimit="10" d="
	M0.688,497.809c0,0.765,0,1.529,0,2.293"/>
<path fill-rule="evenodd" clip-rule="evenodd" fill="none" stroke="#000000" stroke-width="2" stroke-linecap="round" stroke-linejoin="round" stroke-miterlimit="10" d="
	M200.637,203.847c-0.764,0-1.528,0-2.293,0"/>
<path fill-rule="evenodd" clip-rule="evenodd" fill="none" stroke="#000000" stroke-width="2" stroke-linecap="round" stroke-linejoin="round" stroke-miterlimit="10" d="
	M75.669,234.803c-1.256,0.489-2.342,1.703-3.898,0.917"/>
<path fill-rule="evenodd" clip-rule="evenodd" fill="none" stroke="#000000" stroke-width="2" stroke-linecap="round" stroke-linejoin="round" stroke-miterlimit="10" d="
	M324,20.408c4.815-0.077,9.63-0.169,14.446-0.223c2.903-0.033,5.809-0.006,8.713-0.006"/>
<path fill-rule="evenodd" clip-rule="evenodd" fill="none" stroke="#000000" stroke-width="2" stroke-linecap="round" stroke-linejoin="round" stroke-miterlimit="10" d="
	M310.242,210.268c-0.611-0.153-1.223-0.306-1.835-0.458"/>
<path fill-rule="evenodd" clip-rule="evenodd" fill="none" stroke="#000000" stroke-width="2" stroke-linecap="round" stroke-linejoin="round" stroke-miterlimit="10" d="
	M376.28,234.115c-0.611,0-1.223,0-1.834,0"/>
<path fill-rule="evenodd" clip-rule="evenodd" fill="none" stroke="#000000" stroke-width="2" stroke-linecap="round" stroke-linejoin="round" stroke-miterlimit="10" d="
	M382.242,234.573c-0.611,0-1.223,0-1.835,0"/>
<path fill-rule="evenodd" clip-rule="evenodd" fill="none" stroke="#000000" stroke-width="2" stroke-linecap="round" stroke-linejoin="round" stroke-miterlimit="10" d="
	M319.644,46.777c0.764,0.153,1.523,0.341,2.294,0.45c1.065,0.149,2.139,0.238,3.209,0.353"/>
<path fill-rule="evenodd" clip-rule="evenodd" fill="none" stroke="#000000" stroke-width="2" stroke-linecap="round" stroke-linejoin="round" stroke-miterlimit="10" d="
	M405.172,39.21c-0.611,0-1.223,0-1.834,0"/>
<path fill-rule="evenodd" clip-rule="evenodd" fill="none" stroke="#000000" stroke-width="2" stroke-linecap="round" stroke-linejoin="round" stroke-miterlimit="10" d="
	M77.732,235.032c-0.306,0.458-0.611,0.917-0.917,1.376"/>
<path fill-rule="evenodd" clip-rule="evenodd" fill="none" stroke="#000000" stroke-width="2" stroke-linecap="round" stroke-linejoin="round" stroke-miterlimit="10" d="
	M180.917,203.389c-0.382,0.306-0.764,0.611-1.146,0.917"/>
<path fill-rule="evenodd" clip-rule="evenodd" fill="none" stroke="#000000" stroke-width="2" stroke-linecap="round" stroke-linejoin="round" stroke-miterlimit="10" d="
	M366.191,452.407c-0.459,0.459-0.918,0.918-1.376,1.376"/>
</svg>
