<?xml version="1.0" encoding="utf-8"?>
<!-- Generator: Adobe Illustrator 16.0.0, SVG Export Plug-In . SVG Version: 6.00 Build 0)  -->
<!DOCTYPE svg PUBLIC "-//W3C//DTD SVG 1.1//EN" "http://www.w3.org/Graphics/SVG/1.1/DTD/svg11.dtd">
<svg version="1.1" id="Layer_1" xmlns="http://www.w3.org/2000/svg" xmlns:xlink="http://www.w3.org/1999/xlink" x="0px" y="0px"
	 width="595.2px" height="841.68px" viewBox="0 0 595.2 841.68" enable-background="new 0 0 595.2 841.68" xml:space="preserve">
<g>
	
		<path fill-rule="evenodd" clip-rule="evenodd" fill="none" stroke="#000000" stroke-width="2" stroke-linecap="round" stroke-linejoin="round" stroke-miterlimit="10" d="
		M257.76,381.6c-2.8-0.4-5.589-1.028-8.402-1.157c-7.994-0.364-15.999-0.712-23.997-0.663c-2.884,0.017-5.94,0.773-8.586,1.943
		c-2.265,1.002-4.164,2.96-6.032,4.701c-3.6,3.355-7.041,6.878-10.588,10.29c-5.18,4.981-10.487,9.832-15.572,14.908
		c-6.858,6.846-13.361,13.991-18.557,22.263c-2.237,3.563-5.117,6.717-7.614,10.123c-4.202,5.729-8.277,11.552-12.524,17.247
		c-1.31,1.757-3.083,3.159-4.514,4.836c-5.712,6.692-11.42,13.39-17.017,20.179c-1.213,1.472-1.872,3.386-2.934,4.998
		c-2.344,3.557-5.087,6.887-7.101,10.616c-2.174,4.027-3.027,8.549-3.486,13.15c-0.561,5.622,0.255,10.997,1.948,16.33
		c2.365,7.448,5.669,14.135,12.15,19.094c2.003,1.533,3.843,2.031,6.071,2.632c2.403,0.648,4.53,0.864,7.014,0.467
		c2.653-0.424,4.01-2.544,6.173-3.579c5.901-2.825,11.617-6.054,17.317-9.278c8.742-4.944,17.676-9.552,25.959-15.3
		c5.046-3.501,10.344-6.646,15.584-9.86c2.408-1.478,4.91-2.815,7.441-4.072c1.603-0.796,3.715-0.57,4.786-2.428"/>
	
		<path fill-rule="evenodd" clip-rule="evenodd" fill="none" stroke="#000000" stroke-width="2" stroke-linecap="round" stroke-linejoin="round" stroke-miterlimit="10" d="
		M262.08,467.28c0.733,7.373-1.454,13.988-5.285,20.156c-5.821,9.372-11.713,18.7-17.499,28.094
		c-2.971,4.823-5.658,9.824-8.686,14.61c-3.795,5.999-7.804,11.863-11.735,17.775c-0.762,1.146-1.595,2.244-2.395,3.364"/>
	
		<path fill-rule="evenodd" clip-rule="evenodd" fill="none" stroke="#000000" stroke-width="2" stroke-linecap="round" stroke-linejoin="round" stroke-miterlimit="10" d="
		M257.04,425.28c1.6,1.04,3.103,2.29,4.817,3.082c6.437,2.974,12.945,5.792,19.422,8.679c9.682,4.315,19.398,8.558,29.028,12.986
		c7.183,3.303,14.259,6.84,21.369,10.299c3.218,1.564,6.34,3.343,9.628,4.734c1.783,0.755,1.332,1.58,0.695,2.699"/>
	
		<path fill-rule="evenodd" clip-rule="evenodd" fill="none" stroke="#000000" stroke-width="2" stroke-linecap="round" stroke-linejoin="round" stroke-miterlimit="10" d="
		M123.12,487.2c-0.88,0.24-2.023,0.207-2.599,0.763c-4.476,4.322-9.249,8.435-13.09,13.277c-2.34,2.949-3.313,7.034-4.68,10.691
		c-1.673,4.479-2.688,9.165-3.103,13.912c-0.508,5.812-0.076,11.392,4.21,16.132c2.631,2.909,4.693,6.29,8.201,8.379
		c2.192,1.306,4.538,1.913,6.984,2.085c2.547,0.18,5.117,0.041,7.677,0.041"/>
	
		<path fill-rule="evenodd" clip-rule="evenodd" fill="none" stroke="#000000" stroke-width="2" stroke-linecap="round" stroke-linejoin="round" stroke-miterlimit="10" d="
		M342.24,339.36c2.8,3.28,6.066,6.278,8.269,9.919c2.199,3.638,3.547,7.85,4.886,11.936c2.676,8.163,2.271,16.314-0.398,24.477
		c-2.907,8.892-8.043,15.831-16.622,19.854c-1.823,0.855-3.954,1.189-5.982,1.42c-0.991,0.112-2.071-0.565-3.111-0.885"/>
	
		<path fill-rule="evenodd" clip-rule="evenodd" fill="none" stroke="#000000" stroke-width="2" stroke-linecap="round" stroke-linejoin="round" stroke-miterlimit="10" d="
		M311.28,475.92c-2.395-0.601-4.938-0.672-6.766-2.842c-1.116-1.325-2.666-2.289-4.04-3.391c-0.361-0.289-1.109-0.447-1.146-0.733
		c-0.341-2.674-2.345-1.874-3.889-1.901c-6.479-0.11-12.959-0.208-19.44-0.24c-4.48-0.023-8.961,0.126-13.439,0.058
		c-0.885-0.014-1.757-0.969-2.641-0.979c-3.839-0.04-7.679,0.148-11.52,0.176c-3.018,0.021-5.338,2.013-8.119,2.799
		c-3.53,0.997-6.699,3.204-10.133,4.626c-10.811,4.479-20.852,10.359-30.705,16.594c-3.863,2.443-7.458,5.453-11.577,7.317
		c-6.156,2.787-9.704,8.521-15.044,12.15c-0.571,0.389-0.823,1.246-1.223,1.887"/>
	
		<path fill-rule="evenodd" clip-rule="evenodd" fill="none" stroke="#000000" stroke-width="2" stroke-linecap="round" stroke-linejoin="round" stroke-miterlimit="10" d="
		M338.64,341.04c-5.052,2.326-7.923,6.651-10.587,11.264c-3.94,6.819-6.205,14.159-7.711,21.844
		c-0.969,4.941-2.121,9.919-3.938,14.591c-0.945,2.432-0.479,3.912,0.607,5.837c2.515,4.456,5.882,8.135,9.909,11.211
		c0.506,0.386,1.965,0.395,2.298,0c3.836-4.537,7.633-9.168,10.072-14.619c1.571-3.509,2.57-7.26,2.505-11.25
		c-0.122-7.438,0.231-14.892-0.126-22.315c-0.251-5.223-1.25-10.421-2.11-15.598c-0.439-2.645-0.28-3.125,2.201-3.127
		c0.88,0,1.76,0,2.641,0"/>
	
		<path fill-rule="evenodd" clip-rule="evenodd" fill="none" stroke="#000000" stroke-width="2" stroke-linecap="round" stroke-linejoin="round" stroke-miterlimit="10" d="
		M384.96,424.32c0.16,2.64,0.395,5.277,0.461,7.92c0.08,3.198,0.02,6.399,0.02,9.6c0,3.521,0.03,7.041-0.01,10.561
		c-0.039,3.44-0.114,6.881-0.271,10.317c-0.023,0.494-0.523,1.041-0.931,1.43c-4.622,4.42-9.226,8.859-13.925,13.194
		c-2.709,2.499-5.863,4.563-8.325,7.271c-5.152,5.665-10.012,11.6-14.922,17.48c-1.863,2.233-3.537,4.626-5.297,6.946"/>
	
		<path fill-rule="evenodd" clip-rule="evenodd" fill="none" stroke="#000000" stroke-width="2" stroke-linecap="round" stroke-linejoin="round" stroke-miterlimit="10" d="
		M342,338.64c1.178-3.326-0.583-5.884-2.705-7.85c-3.422-3.171-7.546-5.161-12.415-5.118c-4.159,0.037-8.375-0.424-12.469,0.097
		c-8.634,1.1-16.831,3.435-21.079,12.176c-1.066,2.192-1.461,4.705-2.227,7.05c-0.311,0.949-0.572,2.05-1.224,2.729
		c-2.465,2.57-5.401,4.746-7.579,7.525c-5.483,6.999-12.193,12.779-18.291,19.163c-1.839,1.925-3.532,3.988-5.292,5.988"/>
	
		<path fill-rule="evenodd" clip-rule="evenodd" fill="none" stroke="#000000" stroke-width="2" stroke-linecap="round" stroke-linejoin="round" stroke-miterlimit="10" d="
		M289.92,348c-0.08,3.12,0.218,6.309-0.332,9.343c-0.751,4.147-1.768,8.332-3.354,12.222c-2.599,6.373-7.115,11.36-12.882,15.143
		c-2.672,1.753-5.432,3.373-8.151,5.052"/>
	
		<path fill-rule="evenodd" clip-rule="evenodd" fill="none" stroke="#000000" stroke-width="2" stroke-linecap="round" stroke-linejoin="round" stroke-miterlimit="10" d="
		M327.24,406.56c-2.837,3.214-6.876,3.854-10.697,4.455c-4.006,0.63-8.171,0.8-12.216,0.495c-5.616-0.423-11.277-0.846-16.603-3.19
		c-1.86-0.819-4.125-0.72-6.205-1.04"/>
	
		<path fill-rule="evenodd" clip-rule="evenodd" fill="none" stroke="#000000" stroke-width="2" stroke-linecap="round" stroke-linejoin="round" stroke-miterlimit="10" d="
		M130.32,553.2c-0.681,2.735-3.013,4.16-4.812,5.988c-4.443,4.516-8.948,8.972-13.428,13.451c-5.84,5.841-11.69,11.67-17.515,17.525
		c-2.035,2.046-4.005,4.155-6.005,6.235"/>
	
		<path fill-rule="evenodd" clip-rule="evenodd" fill="none" stroke="#000000" stroke-width="2" stroke-linecap="round" stroke-linejoin="round" stroke-miterlimit="10" d="
		M261.6,428.64c-0.8,2.561-1.631,5.111-2.394,7.683c-1.994,6.718-6.335,11.587-11.713,15.903
		c-5.203,4.176-11.396,6.367-17.139,9.448c-1.086,0.582-2.628,0.337-3.313,1.767"/>
	
		<path fill-rule="evenodd" clip-rule="evenodd" fill="none" stroke="#000000" stroke-width="2" stroke-linecap="round" stroke-linejoin="round" stroke-miterlimit="10" d="
		M212.64,552.24c-1.84-0.24-3.701-0.787-5.517-0.667c-7.769,0.515-15.521,1.262-23.286,1.843c-1.993,0.149-3.351,0.488-4.921,2.318
		c-7.536,8.78-15.331,17.336-25.038,23.922c-4.703,3.191-9.022,6.954-13.466,10.52c-1.598,1.282-3.977,1.587-4.815,3.823
		c-0.088,0.234-0.21,0.456-0.375,0.81c1.758,1.972,4.063,1.322,6.137,1.324c5.2,0.003,10.4-0.134,15.6-0.213
		c2.72-0.041,5.44-0.08,8.16-0.12"/>
	
		<path fill-rule="evenodd" clip-rule="evenodd" fill="none" stroke="#000000" stroke-width="2" stroke-linecap="round" stroke-linejoin="round" stroke-miterlimit="10" d="
		M212.88,511.2c-0.759,3.086-2.784,5.456-4.847,7.636c-4.976,5.257-10.163,10.314-15.323,15.395
		c-4.112,4.048-8.308,8.013-12.475,12.005c-0.45,0.432-0.91,0.884-1.443,1.191c-3.007,1.732-4.003,4.378-3.592,7.693"/>
	
		<path fill-rule="evenodd" clip-rule="evenodd" fill="none" stroke="#000000" stroke-width="2" stroke-linecap="round" stroke-linejoin="round" stroke-miterlimit="10" d="
		M213.48,550.32c-0.311,2.012-1.225,3.84-2.56,5.242c-4.211,4.423-8.802,8.496-12.872,13.041
		c-5.868,6.551-11.406,13.398-17.09,20.114c-1.026,1.213-1.916,2.624-3.165,3.539c-1.217,0.892-1.388,1.925-1.394,3.184"/>
	
		<path fill-rule="evenodd" clip-rule="evenodd" fill="none" stroke="#000000" stroke-width="2" stroke-linecap="round" stroke-linejoin="round" stroke-miterlimit="10" d="
		M384.24,425.28c-2.561,2-5.116,4.005-7.682,5.999c-3.916,3.044-8.033,5.866-11.699,9.187c-3.09,2.8-5.623,6.208-8.473,9.282
		c-1.768,1.906-3.748,3.619-5.481,5.555c-1.48,1.652-2.696,3.538-4.129,5.237c-0.575,0.682-1.416,1.14-2.137,1.7"/>
	
		<path fill-rule="evenodd" clip-rule="evenodd" fill="none" stroke="#000000" stroke-width="2" stroke-linecap="round" stroke-linejoin="round" stroke-miterlimit="10" d="
		M171.12,552.24c-0.64,0.8-1.216,1.663-1.93,2.39c-6.623,6.737-13.389,13.339-19.864,20.213c-3.694,3.922-6.947,8.261-10.354,12.447
		c-0.999,1.228-2.215,2.456-1.453,4.31"/>
	
		<path fill-rule="evenodd" clip-rule="evenodd" fill="none" stroke="#000000" stroke-width="2" stroke-linecap="round" stroke-linejoin="round" stroke-miterlimit="10" d="
		M341.28,510.24c-1.558,2.886-4.312,1.919-6.464,1.576c-3.8-0.606-7.518-0.546-11.298-0.151c-7.354,0.77-14.718,1.464-22.081,2.149
		c-0.38,0.035-0.795-0.3-1.57-0.616c0.951-1.426,1.69-2.956,2.808-4.124c2.429-2.541,3.943-5.597,5.496-8.669
		c2.357-4.661,5.179-9.133,7.071-13.972c1.649-4.217,3.105-8.558,4.438-12.914"/>
	
		<path fill-rule="evenodd" clip-rule="evenodd" fill="none" stroke="#000000" stroke-width="2" stroke-linecap="round" stroke-linejoin="round" stroke-miterlimit="10" d="
		M251.04,390c-3.12,3.28-6.19,6.609-9.371,9.83c-6.043,6.117-12.113,12.208-18.246,18.234c-2.866,2.816-5.913,5.446-8.856,8.185
		c-0.673,0.625-1.17,1.112-1.058,2.4c0.735,8.384,1.243,16.79,1.756,25.192c0.239,3.92,0.579,7.854-0.226,11.759"/>
	
		<path fill-rule="evenodd" clip-rule="evenodd" fill="none" stroke="#000000" stroke-width="2" stroke-linecap="round" stroke-linejoin="round" stroke-miterlimit="10" d="
		M133.2,594.72c-2.48-1.423-4.977-0.164-7.437,0.039c-6.33,0.523-12.632,1.494-18.968,1.781c-3.495,0.158-7.037-0.688-10.555-1.105
		c-1.764-0.21-3.521-0.475-5.281-0.715"/>
	
		<path fill-rule="evenodd" clip-rule="evenodd" fill="none" stroke="#000000" stroke-width="2" stroke-linecap="round" stroke-linejoin="round" stroke-miterlimit="10" d="
		M340.32,425.04c-0.08,2.08-0.389,4.182-0.197,6.236c0.566,6.085,2.365,11.914,4.026,17.767c1.058,3.725,1.145,7.462,0.316,11.291
		c-0.372,1.718-0.164,3.544-1.746,4.786"/>
	
		<path fill-rule="evenodd" clip-rule="evenodd" fill="none" stroke="#000000" stroke-width="2" stroke-linecap="round" stroke-linejoin="round" stroke-miterlimit="10" d="
		M214.32,466.08c-1.04,0.88-2.151,1.689-3.108,2.652c-4.746,4.773-9.55,9.496-14.141,14.416c-3.751,4.02-7.254,8.271-10.801,12.477
		c-0.455,0.539-0.51,1.415-0.75,2.135"/>
	
		<path fill-rule="evenodd" clip-rule="evenodd" fill="none" stroke="#000000" stroke-width="2" stroke-linecap="round" stroke-linejoin="round" stroke-miterlimit="10" d="
		M256.8,382.08c-1.307,3.086-1.261,6.326-1.237,9.6c0.021,2.719-0.41,5.439-0.416,8.16c-0.012,5.36,0,10.727,0.273,16.077
		c0.124,2.418,0.65,4.892,1.463,7.174c0.591,1.66,0.014,2.077-1.283,2.429"/>
	
		<path fill-rule="evenodd" clip-rule="evenodd" fill="none" stroke="#000000" stroke-width="2" stroke-linecap="round" stroke-linejoin="round" stroke-miterlimit="10" d="
		M314.88,390.72c-1.76-3.041-3.489-6.099-5.288-9.116c-2.089-3.504-4.92-6.151-9.118-6.669c-1.961-0.242-4.121-0.301-5.964,0.277
		c-2.988,0.937-6.035,2.104-8.605,3.842c-3.054,2.065-4.814,5.453-6.265,8.803c-1.84,4.25-3.398,8.623-5.079,12.943"/>
	
		<path fill-rule="evenodd" clip-rule="evenodd" fill="none" stroke="#000000" stroke-width="2" stroke-linecap="round" stroke-linejoin="round" stroke-miterlimit="10" d="
		M315.6,486.72c1.12,0.88,2.29,1.704,3.353,2.649c6.815,6.063,13.608,12.15,20.407,18.231c0.803,0.717,1.601,1.439,2.4,2.159"/>
	
		<path fill-rule="evenodd" clip-rule="evenodd" fill="none" stroke="#000000" stroke-width="2" stroke-linecap="round" stroke-linejoin="round" stroke-miterlimit="10" d="
		M274.8,403.2c-1.04,2.24-2.134,4.456-3.108,6.725c-2.179,5.073-5.407,9.409-9.101,13.463c-0.924,1.014-1.47,2.372-2.19,3.572"/>
	
		<path fill-rule="evenodd" clip-rule="evenodd" fill="none" stroke="#000000" stroke-width="2" stroke-linecap="round" stroke-linejoin="round" stroke-miterlimit="10" d="
		M314.88,392.16c-3.826,5.549-9.387,8.764-15.634,10.433c-4.444,1.187-9.154,1.457-13.675-0.774
		c-3.05-1.505-6.372-2.458-9.571-3.658"/>
	
		<path fill-rule="evenodd" clip-rule="evenodd" fill="none" stroke="#000000" stroke-width="2" stroke-linecap="round" stroke-linejoin="round" stroke-miterlimit="10" d="
		M342,424.08c0.32,0.32,0.587,0.736,0.968,0.945c7.029,3.859,14.072,7.694,21.112,11.534"/>
	
		<path fill-rule="evenodd" clip-rule="evenodd" fill="none" stroke="#000000" stroke-width="2" stroke-linecap="round" stroke-linejoin="round" stroke-miterlimit="10" d="
		M213.84,551.76c1.36,0.88,2.809,1.652,4.056,2.67c1.308,1.067,2.415,2.379,3.626,3.567c1.219,1.196,2.375,2.351,2.217,4.327
		c-0.055,0.69,0.383,1.79,0.934,2.096c2.726,1.515,2.956,4.301,3.515,6.792c1.081,4.82,1.272,10.007-1.558,14.028
		c-2.736,3.89-6.25,7.541-11.1,9.27c-0.994,0.354-1.857,1.08-2.77,1.652c-1.865,1.171-3.818,1.26-5.887,0.617
		c-0.764-0.237-1.593-0.354-2.394-0.363c-3.76-0.036-7.521-0.044-11.28-0.006c-2.321,0.024-4.648,0.311-6.958,0.191
		c-3.208-0.166-6.396-0.769-9.604-0.877c-3.514-0.117-7.039,0.134-10.559,0.153c-0.238,0.002-0.479-0.598-0.72-0.918"/>
	
		<path fill-rule="evenodd" clip-rule="evenodd" fill="none" stroke="#000000" stroke-width="2" stroke-linecap="round" stroke-linejoin="round" stroke-miterlimit="10" d="
		M339.12,338.4c-1.04-0.32-2.062-0.731-3.123-0.945c-6.874-1.384-13.723-0.767-20.648-0.145c-4.836,0.435-9.619,0.788-14.127,2.584
		c-2.442,0.974-4.656,2.516-6.984,3.78c-0.943,0.512-1.917,0.965-2.877,1.445"/>
	
		<path fill-rule="evenodd" clip-rule="evenodd" fill="none" stroke="#000000" stroke-width="2" stroke-linecap="round" stroke-linejoin="round" stroke-miterlimit="10" d="
		M258.24,382.32c3.792,4.893,7.037,10.225,12.187,13.993c1.544,1.13,2.694,3.004,3.591,4.759c1.059,2.072,3.043,2.908,4.615,4.297
		c1.952,1.724,3.768,3.609,5.783,5.252c5.073,4.138,10.206,8.204,15.37,12.227c0.614,0.479,1.575,0.513,2.375,0.752"/>
	
		<path fill-rule="evenodd" clip-rule="evenodd" fill="none" stroke="#000000" stroke-width="2" stroke-linecap="round" stroke-linejoin="round" stroke-miterlimit="10" d="
		M222.48,569.52c0.64,2.641,1.512,5.251,1.848,7.93c0.275,2.195-0.144,4.471-0.141,6.711c0.001,0.96,0.293,1.92,0.454,2.88"/>
	
		<path fill-rule="evenodd" clip-rule="evenodd" fill="none" stroke="#000000" stroke-width="2" stroke-linecap="round" stroke-linejoin="round" stroke-miterlimit="10" d="
		M339.6,427.2c-6.64,0.319-13.278,0.84-19.92,0.892c-4.638,0.035-9.29-0.474-13.915-0.939c-1.869-0.188-3.685-0.912-5.524-1.393"/>
	
		<path fill-rule="evenodd" clip-rule="evenodd" fill="none" stroke="#000000" stroke-width="2" stroke-linecap="round" stroke-linejoin="round" stroke-miterlimit="10" d="
		M180,553.92c-2.278-1.096-4.544-1.771-7.179-2.092c-6.335-0.771-12.324,1.229-18.501,1.37c-4,0.091-8,0.179-12,0.22
		c-0.479,0.005-0.96-0.298-1.44-0.458"/>
	
		<path fill-rule="evenodd" clip-rule="evenodd" fill="none" stroke="#000000" stroke-width="2" stroke-linecap="round" stroke-linejoin="round" stroke-miterlimit="10" d="
		M245.52,466.08c-2-0.48-3.977-1.172-6.005-1.396c-4.224-0.467-8.475-0.92-12.715-0.917c-2.56,0.002-5.123,0.857-7.679,1.358
		c-1.428,0.279-2.845,0.616-4.084,0.888c-0.222,0.985-0.469,2.086-0.717,3.187"/>
	
		<path fill-rule="evenodd" clip-rule="evenodd" fill="none" stroke="#000000" stroke-width="2" stroke-linecap="round" stroke-linejoin="round" stroke-miterlimit="10" d="
		M306.48,475.2c0.079,0.56-0.045,1.311,0.271,1.649c2.664,2.854,5.408,5.63,8.128,8.431"/>
	
		<path fill-rule="evenodd" clip-rule="evenodd" fill="none" stroke="#000000" stroke-width="2" stroke-linecap="round" stroke-linejoin="round" stroke-miterlimit="10" d="
		M244.8,380.64c-0.327,2.164,1.202,3.374,2.383,4.814c2.05,2.5,4.299,4.623,7.697,5.026"/>
	
		<path fill-rule="evenodd" clip-rule="evenodd" fill="none" stroke="#000000" stroke-width="2" stroke-linecap="round" stroke-linejoin="round" stroke-miterlimit="10" d="
		M264.72,377.52c-2.229,1.795-3.677,3.893-2.917,6.969c0.103,0.415-0.284,0.951-0.444,1.431"/>
	
		<path fill-rule="evenodd" clip-rule="evenodd" fill="none" stroke="#000000" stroke-width="2" stroke-linecap="round" stroke-linejoin="round" stroke-miterlimit="10" d="
		M212.88,595.2c-2.475-1.26-4.792-0.992-6.96,0.72"/>
	
		<path fill-rule="evenodd" clip-rule="evenodd" fill="none" stroke="#000000" stroke-width="2" stroke-linecap="round" stroke-linejoin="round" stroke-miterlimit="10" d="
		M138.48,549.36c-1.52,0.64-3.058,1.24-4.551,1.938c-0.613,0.286-1.129,0.781-1.688,1.182"/>
	
		<path fill-rule="evenodd" clip-rule="evenodd" fill="none" stroke="#000000" stroke-width="2" stroke-linecap="round" stroke-linejoin="round" stroke-miterlimit="10" d="
		M262.32,390.96c-1.84,0.08-3.68,0.162-5.52,0.238c-0.319,0.013-0.64,0.002-0.96,0.002"/>
	
		<path fill-rule="evenodd" clip-rule="evenodd" fill="none" stroke="#000000" stroke-width="2" stroke-linecap="round" stroke-linejoin="round" stroke-miterlimit="10" d="
		M223.92,560.64c2.82,1.466,3.235,2.296,2.4,4.801"/>
	
		<path fill-rule="evenodd" clip-rule="evenodd" fill="none" stroke="#000000" stroke-width="2" stroke-linecap="round" stroke-linejoin="round" stroke-miterlimit="10" d="
		M262.08,430.08c1.68,1.68,3.36,3.36,5.04,5.04"/>
	
		<path fill-rule="evenodd" clip-rule="evenodd" fill="none" stroke="#000000" stroke-width="2" stroke-linecap="round" stroke-linejoin="round" stroke-miterlimit="10" d="
		M255.12,386.64c-1.596,0.303-2.045,1.659-2.64,2.88"/>
	
		<path fill-rule="evenodd" clip-rule="evenodd" fill="none" stroke="#000000" stroke-width="2" stroke-linecap="round" stroke-linejoin="round" stroke-miterlimit="10" d="
		M298.8,510c0.641,0.32,1.28,0.64,1.92,0.96"/>
	
		<path fill-rule="evenodd" clip-rule="evenodd" fill="none" stroke="#000000" stroke-width="2" stroke-linecap="round" stroke-linejoin="round" stroke-miterlimit="10" d="
		M217.92,550.08c0.72,0.08,1.44,0.16,2.16,0.24"/>
	
		<path fill-rule="evenodd" clip-rule="evenodd" fill="none" stroke="#000000" stroke-width="2" stroke-linecap="round" stroke-linejoin="round" stroke-miterlimit="10" d="
		M217.68,461.52c-0.56,0.24-1.12,0.48-1.68,0.721"/>
	
		<path fill-rule="evenodd" clip-rule="evenodd" fill="none" stroke="#000000" stroke-width="2" stroke-linecap="round" stroke-linejoin="round" stroke-miterlimit="10" d="
		M341.28,425.76c-0.32,0.08-0.641,0.16-0.96,0.24"/>
</g>
</svg>
