<?xml version="1.0" encoding="utf-8"?>
<!-- Generator: Adobe Illustrator 16.0.0, SVG Export Plug-In . SVG Version: 6.00 Build 0)  -->
<!DOCTYPE svg PUBLIC "-//W3C//DTD SVG 1.1//EN" "http://www.w3.org/Graphics/SVG/1.1/DTD/svg11.dtd">
<svg version="1.1" id="Layer_1" xmlns="http://www.w3.org/2000/svg" xmlns:xlink="http://www.w3.org/1999/xlink" x="0px" y="0px"
	 width="595.2px" height="841.68px" viewBox="0 0 595.2 841.68" enable-background="new 0 0 595.2 841.68" xml:space="preserve">
<path fill-rule="evenodd" clip-rule="evenodd" fill="none" stroke="#000000" stroke-width="2" stroke-linecap="round" stroke-linejoin="round" stroke-miterlimit="10" d="
	M130.08,480c-0.48,1.68-1.202,3.333-1.396,5.045c-0.688,6.054-2.164,12.141-0.684,18.216c0.663,2.72,0.74,5.509,1.441,8.157
	c0.662,2.501,2.046,4.803,3.031,7.226c3.701,9.111,7.447,18.206,11.017,27.368c1.937,4.972,3.679,10.028,5.275,15.12
	c1.563,4.985,2.848,10.031,2.953,15.348c0.211,10.67-0.284,21.288-1.106,31.931c-0.478,6.185-0.019,12.513,0.69,18.698
	c0.75,6.531,2.289,12.974,3.515,19.449c0.125,0.661,0.445,1.291,0.708,1.921c1.314,3.146,1.295,6.314,0.519,9.611
	c-0.61,2.591-0.957,5.259-1.219,7.912c-0.631,6.394-1.384,12.789-1.628,19.201c-0.204,5.346,0.241,10.717,0.408,16.077
	c0.067,2.16,0.158,4.319,0.238,6.479"/>
<path fill-rule="evenodd" clip-rule="evenodd" fill="none" stroke="#000000" stroke-width="2" stroke-linecap="round" stroke-linejoin="round" stroke-miterlimit="10" d="
	M388.8,270.72c-1.469-4.615-5.136-8.032-6.481-12.893c-0.874-3.156-4.046-5.693-6.247-8.46c-2.442-3.07-4.712-6.328-7.479-9.08
	c-7.006-6.97-15.571-11.215-25.151-13.493c-4.911-1.167-9.785-2.625-14.882-2.61c-7.804,0.024-15.252,2.05-22.547,4.573
	c-5.903,2.042-11.596,4.623-16.808,8.13c-3.552,2.39-6.414,5.458-8.644,9.113c-0.243,0.398-0.421,0.854-0.729,1.192
	c-4.078,4.455-4.28,9.803-3.604,15.37c0.057,0.468,0.023,0.988-0.122,1.434c-0.957,2.941-0.172,5.803,1.903,7.582
	c3.178,2.726,4.94,6.238,6.854,9.713c5.142,9.334,13.587,14,23.565,15.665c5.526,0.922,11.339,0.316,17.008,0.066
	c1.549-0.068,3.197-1.132,4.531-2.106c2.469-1.802,2.81-2.412,5.84-0.759c5.376,2.932,11.083,5.482,17.241,5.993
	c7.515,0.624,15.084-0.128,21.771-3.857c4.618-2.574,7.88-6.733,9.198-12.127c0.787-3.223,1.812-6.387,2.601-9.609
	c0.613-2.51,2.007-4.09,4.582-4.555"/>
<path fill-rule="evenodd" clip-rule="evenodd" fill="none" stroke="#000000" stroke-width="2" stroke-linecap="round" stroke-linejoin="round" stroke-miterlimit="10" d="
	M251.04,248.64c-0.4,3.2-0.558,6.454-1.256,9.587c-1.064,4.768-2.334,9.506-3.823,14.16c-2.327,7.273-5.805,13.935-11.232,19.461
	c-3.33,3.391-6.885,6.629-9.761,10.378c-2.913,3.797-2.159,6.668-0.052,8.532c0.991,0.877,2.298,1.593,3.578,1.902
	c2.35,0.567,4.801,0.702,7.183,1.156c3.853,0.735,7.662,1.716,11.532,2.325c1.867,0.293,3.9,0.286,5.737-0.124
	c4.478-0.999,8.88-2.289,12.743-4.965c3.556-2.464,7.19-4.813,10.791-7.214"/>
<path fill-rule="evenodd" clip-rule="evenodd" fill="none" stroke="#000000" stroke-width="2" stroke-linecap="round" stroke-linejoin="round" stroke-miterlimit="10" d="
	M396.48,333.96c-0.881,0.12-1.985-0.06-2.606,0.405c-8.38,6.287-16.96,12.442-22.542,21.586c-3.166,5.186-7.202,10.003-8.2,16.291
	c-0.545,3.43-1.208,6.865-1.403,10.321c-0.419,7.434,1.548,14.573,3.636,21.572c2.333,7.821,4.583,15.609,5.199,23.785
	c0.218,2.882,0.477,5.76,0.717,8.64"/>
<path fill-rule="evenodd" clip-rule="evenodd" fill="none" stroke="#000000" stroke-width="2" stroke-linecap="round" stroke-linejoin="round" stroke-miterlimit="10" d="
	M401.28,332.4c-1.36,4-3.028,7.927-3.998,12.02c-1.079,4.555-1.59,9.251-2.223,13.903c-0.574,4.227-1.205,8.467-1.392,12.72
	c-0.164,3.746,0.178,7.522,0.437,11.275c0.198,2.888,0.688,5.756,0.916,8.643c0.246,3.113,0.291,6.242,0.512,9.357
	c0.268,3.764,0.895,7.523,0.868,11.281c-0.022,3.362-0.604,6.739-1.144,10.076c-1.215,7.52-2.435,15.188-0.063,22.515
	c1.983,6.126,2.133,12.32,2.662,18.535c0.167,1.965-0.416,3.994-0.656,5.994"/>
<path fill-rule="evenodd" clip-rule="evenodd" fill="none" stroke="#000000" stroke-width="2" stroke-linecap="round" stroke-linejoin="round" stroke-miterlimit="10" d="
	M379.68,210.72c-10.225-19.916-24.742-35.629-44.751-45.6c-1.969,0-3.809,0-5.648,0c-1.12,0-2.242,0.041-3.36-0.007
	c-5.28-0.224-10.558-0.551-15.841-0.689c-4.477-0.116-8.961-0.114-13.438-0.001c-5.842,0.148-11.679,0.587-17.521,0.648
	c-3.357,0.035-6.717-0.578-10.08-0.639c-6.238-0.111-12.479-0.015-18.72-0.037c-6.019-0.021-11.645,1.815-17.277,3.612
	c-4.745,1.514-8.404,4.598-11.776,8.14c-3.94,4.138-7.724,8.483-12.07,12.155c-3.424,2.892-7.473,5.133-11.467,7.24
	c-5.154,2.72-10.427,5.276-15.839,7.423c-5.017,1.99-9.94,4.1-14.605,6.803c-0.593,0.344-1.282,0.68-1.66,1.21
	c-3.005,4.208-5.797,8.578-8.971,12.65c-1.462,1.876-1.128,3.635-0.894,5.572"/>
<path fill-rule="evenodd" clip-rule="evenodd" fill="none" stroke="#000000" stroke-width="2" stroke-linecap="round" stroke-linejoin="round" stroke-miterlimit="10" d="
	M402.24,331.92c0.08,1.68,0.261,3.362,0.22,5.04c-0.098,4.001-0.835,8.071-0.32,11.982c0.601,4.559,2.195,8.998,3.475,13.455
	c2.151,7.488,3.933,15.047,4.785,22.804c0.325,2.959,1.077,5.952,0.86,8.872c-0.342,4.588-1.175,9.162-2.099,13.68
	c-1.413,6.916-2.175,13.825-1.444,20.893c0.336,3.254,0.192,6.556,0.285,9.836c0.233,8.239,0.458,16.48,0.729,24.719
	c0.087,2.643,0.309,5.281,0.469,7.921"/>
<path fill-rule="evenodd" clip-rule="evenodd" fill="none" stroke="#000000" stroke-width="2" stroke-linecap="round" stroke-linejoin="round" stroke-miterlimit="10" d="
	M398.88,574.8c0.16,2.96,0.346,5.919,0.474,8.881c0.185,4.238,0.228,8.486,0.516,12.718c0.262,3.849,0.886,7.674,1.141,11.523
	c0.286,4.323,0.852,8.671-0.439,12.961c-1.247,4.146-2.802,8.251-3.518,12.493c-1.046,6.203-3.27,11.857-6.329,17.267
	c-1.304,2.306-2.462,4.701-3.865,6.944c-2.775,4.437-3.553,9.539-5.012,14.415c-1.55,5.177-2.332,10.529-3.039,15.85
	c-0.716,5.388-0.684,10.871-1.064,16.308c-0.229,3.286-0.623,6.561-0.943,9.841"/>
<path fill-rule="evenodd" clip-rule="evenodd" fill="none" stroke="#000000" stroke-width="2" stroke-linecap="round" stroke-linejoin="round" stroke-miterlimit="10" d="
	M413.76,302.88c1.04-1.64,2.318-3.178,3.071-4.941c1.672-3.914,2.122-8.119,2.471-12.337c0.293-3.529,0.778-7.042,1.178-10.562
	c0.082-0.72,0.476-1.617,0.188-2.13c-1.514-2.703,0.172-5.32,0.013-7.947c-0.248-4.089-0.37-8.255-1.307-12.208
	c-0.557-2.35-2.301-4.602-3.988-6.465c-3.907-4.316-8.155-8.322-12.168-12.545c-2.965-3.12-5.727-6.431-8.683-9.56
	c-1.123-1.188-2.597-2.038-3.794-3.166c-0.903-0.851-1.941-1.777-2.358-2.882c-1.106-2.931-3.594-4.486-5.88-6.136
	c-1.165-0.841-2.798-0.816-4.511-0.729c-5.124,0.257-10.09,1.295-15.112,2.08c-2.392,0.373-4.797,0.906-7.199,0.925
	c-10.65,0.084-19.241-4.099-25.698-12.662c-3.256-4.318-6.695-8.499-10.063-12.732c-2.87-3.608-5.672-7.276-8.675-10.77
	c-1.466-1.705-3.363-3.03-4.993-4.603c-1.932-1.864-4.158-0.591-6.251-0.69c-0.794-0.038-1.603,0.236-2.398,0.205
	c-4.012-0.157-7.775,0.557-11.55,2.105c-7.399,3.034-13.805,7.331-19.456,12.985c-4.239,4.242-7.522,9.066-10.563,14.176
	c-3.101,5.21-9.833,7.916-16.529,6.345c-5.673-1.331-11.514-2.828-17.259-2.745c-7.129,0.103-14.505,0.103-21.334,2.744
	c-3.445,1.332-6.487,3.681-9.891,5.154c-6.323,2.738-12.756,5.229-19.193,7.69c-1.627,0.622-2.954,1.232-3.104,3.161"/>
<path fill-rule="evenodd" clip-rule="evenodd" fill="none" stroke="#000000" stroke-width="2" stroke-linecap="round" stroke-linejoin="round" stroke-miterlimit="10" d="
	M143.04,247.2c-0.32,1.92-0.889,3.838-0.906,5.76c-0.03,3.519,0.094,7.058,0.466,10.555c0.553,5.196,2.924,9.604,6.425,13.458
	c1.527,1.681,2.97,3.451,4.321,5.277c5,6.753,11.795,10.219,19.909,12.094c10.649,2.46,20.964,1.533,31.49-0.701
	c7.526-1.598,11.396-6.491,14.096-12.858c2.887-6.809,5.477-13.745,8.202-20.623c0.131-0.332,0.232-0.754,0.488-0.945
	c4.195-3.121,1.894-6.49,0.189-9.596c-4.821-8.78-12.333-14.678-21.073-19.237c-7.388-3.855-15.151-6.181-23.527-5.948
	c-3.926,0.109-7.877,1.09-11.752,0.8c-4.805-0.359-8.546,2.149-12.729,3.484"/>
<path fill-rule="evenodd" clip-rule="evenodd" fill="none" stroke="#000000" stroke-width="2" stroke-linecap="round" stroke-linejoin="round" stroke-miterlimit="10" d="
	M129.12,512.64c-0.48,2-0.977,3.997-1.431,6.003c-0.142,0.626,0.057,1.459-0.288,1.887c-1.729,2.146-0.711,4.223,0.054,6.265
	c2.761,7.375,5.825,14.646,8.305,22.112c1.827,5.499,3.477,11.148,3.648,17.015c0.276,9.437,0.328,18.88,0.521,28.319
	c0.109,5.36,0.189,10.727,0.504,16.078c0.33,5.608,0.975,11.198,1.392,16.803c0.387,5.195,0.377,10.435,1.038,15.591
	c1.072,8.378-0.03,16.664-0.621,24.963c-0.264,3.712-1.109,7.438-2.145,11.027c-1.413,4.896-2.272,9.868-2.786,14.901
	c-0.472,4.624-0.702,9.274-0.977,13.917c-0.099,1.675-0.016,3.359-0.016,5.039"/>
<path fill-rule="evenodd" clip-rule="evenodd" fill="none" stroke="#000000" stroke-width="2" stroke-linecap="round" stroke-linejoin="round" stroke-miterlimit="10" d="
	M162.48,335.76c0.96,2.08,1.747,4.264,2.913,6.221c3.51,5.894,7.14,11.716,10.775,17.534c3.563,5.703,7.094,11.43,10.818,17.027
	c4.043,6.078,8.388,11.956,12.4,18.053c1.304,1.982,1.975,4.382,3.16,7.106c-7.945-1.248-14.987-0.817-21.586,2.698"/>
<path fill-rule="evenodd" clip-rule="evenodd" fill="none" stroke="#000000" stroke-width="2" stroke-linecap="round" stroke-linejoin="round" stroke-miterlimit="10" d="
	M402.96,326.88c-1.12,0.96-2.549,1.723-3.31,2.913c-4.569,7.155-8.208,14.791-10.312,23.023c-1.596,6.245-4.683,11.726-7.741,17.263
	c-3.811,6.899-5.486,14.142-4.386,22.091c0.824,5.952,1.438,11.995,1.375,17.989c-0.049,4.567-1.171,9.148-2.064,13.673
	c-0.922,4.674-1.303,9.276,0.006,13.937c0.297,1.06,0.191,2.231,0.271,3.352"/>
<path fill-rule="evenodd" clip-rule="evenodd" fill="none" stroke="#000000" stroke-width="2" stroke-linecap="round" stroke-linejoin="round" stroke-miterlimit="10" d="
	M127.2,289.44c-1.2,0.72-2.615,1.233-3.552,2.206c-1.613,1.674-2.91,3.648-4.372,5.471c-2.533,3.159-1.436,6.666-0.928,10.079
	c0.335,2.261,1.3,4.483,1.307,6.725c0.007,2.158-0.82,4.328-1.342,6.478c-0.904,3.719-0.656,7.639,1.619,10.422
	c1.879,2.299,4.084,4.89,7.269,5.899c1.569,0.498,1.772,1.646,1.704,3.122c-0.37,7.917-0.6,15.842-1.016,23.757
	c-0.163,3.106,0.652,5.97,1.461,8.885c2.449,8.821,6.484,16.897,11.557,24.46c2.616,3.899,3.891,8.239,4.755,12.741
	c0.887,4.624,1.613,9.278,2.429,13.915c0.087,0.492,0.31,0.961,0.47,1.441"/>
<path fill-rule="evenodd" clip-rule="evenodd" fill="none" stroke="#000000" stroke-width="2" stroke-linecap="round" stroke-linejoin="round" stroke-miterlimit="10" d="
	M156,327.12c-0.24,1.04-0.67,2.076-0.69,3.12c-0.146,7.711-0.249,15.427,2.607,22.801c2.085,5.385,5.153,10.232,8.154,15.125
	c6.009,9.798,10.186,20.376,13.209,31.435c0.44,1.61,0.878,3.222,1.383,5.074c-3.319,1.463-6.791,2.995-10.263,4.526"/>
<path fill-rule="evenodd" clip-rule="evenodd" fill="none" stroke="#000000" stroke-width="2" stroke-linecap="round" stroke-linejoin="round" stroke-miterlimit="10" d="
	M390.72,221.28c-0.08,1.28-0.483,2.643-0.181,3.825c1.004,3.919,0.512,7.845,0.422,11.775c-0.006,0.24,0.1,0.557-0.016,0.709
	c-3.218,4.241-1.645,8.889-1.198,13.452c0.233,2.393,0.277,4.804,0.506,7.198c0.351,3.685,0.451,7.44,1.294,11.016
	c0.671,2.845,1.99,5.662,3.589,8.123c1.289,1.986,3.349,3.511,5.2,5.084c4.145,3.522,7.589,7.68,10.686,12.087
	c0.742,1.055,0.008,3.037,0.387,4.479c1.016,3.854,0.656,7.729-0.667,11.24c-1.142,3.027-1.158,6.211-2.253,9.175
	c-0.14,0.378-0.349,0.869-0.222,1.187c2.952,7.4,4.75,15.189,7.695,22.602c1.188,2.99,1.267,6.263,0.523,9.588
	c-0.586,2.625-0.61,5.427-0.521,8.139c0.168,5.125,0.146,10.323,1.052,15.337c0.787,4.358,2.908,8.458,4.142,12.757
	c1.411,4.919,2.788,9.867,2.466,15.109c-0.372,6.059,0.25,12.006,2.32,17.779c0.322,0.896-0.104,2.06-0.184,3.1"/>
<path fill-rule="evenodd" clip-rule="evenodd" fill="none" stroke="#000000" stroke-width="2" stroke-linecap="round" stroke-linejoin="round" stroke-miterlimit="10" d="
	M394.8,277.92c0,1.44,0.066,2.884-0.013,4.319c-0.201,3.682,0.05,7.487-0.813,11.015c-1.898,7.758-5.576,14.788-9.638,21.683
	c-2.875,4.881-5.802,9.897-7.013,15.552c-0.794,3.71-1.098,7.522-1.771,11.262c-0.169,0.936-0.696,2.073-1.431,2.597
	c-3.614,2.579-5.647,6.523-8.621,9.634c-3.282,3.434-6.702,6.737-10.062,10.097c-1.44,1.44-2.759,3.035-4.352,4.28
	c-1.95,1.526-4.141,2.742-6.206,4.124c-3.929,2.627-7.833,5.292-11.774,7.898c-0.556,0.368-1.269,0.498-1.908,0.738"/>
<path fill-rule="evenodd" clip-rule="evenodd" fill="none" stroke="#000000" stroke-width="2" stroke-linecap="round" stroke-linejoin="round" stroke-miterlimit="10" d="
	M349.2,431.28c0.56-0.16,1.131-0.489,1.678-0.454c6.202,0.393,12.337,1.187,17.746,4.56c3.512,2.188,3.546,2.297,3.593,6.454
	c0.082,7.199,0.313,14.415-0.055,21.596c-0.404,7.876-2.049,15.599-4.746,23.036c-1.945,5.361-4.267,10.559-8.136,14.889"/>
<path fill-rule="evenodd" clip-rule="evenodd" fill="none" stroke="#000000" stroke-width="2" stroke-linecap="round" stroke-linejoin="round" stroke-miterlimit="10" d="
	M155.52,713.52c0.48-3.76,0.938-7.522,1.446-11.279c0.616-4.563,1.456-9.104,1.875-13.684c0.813-8.883,1.089-17.788-0.479-26.63
	c-0.292-1.647-1.082-3.207-1.642-4.807"/>
<path fill-rule="evenodd" clip-rule="evenodd" fill="none" stroke="#000000" stroke-width="2" stroke-linecap="round" stroke-linejoin="round" stroke-miterlimit="10" d="
	M295.2,422.16c-0.48,1.04-0.716,2.326-1.479,3.08c-5.698,5.636-10.23,12.197-15.207,18.419c-4.594,5.742-10.249,10.64-17.397,13.294
	c-2.71,1.007-5.448,1.868-8.4,0.977c-1.407-0.425-2.702,0.367-4.362-0.083c-6.656-1.805-12.103-5.396-16.982-10.021
	c-5.694-5.397-9.696-12.114-14.22-18.433c-2.54-3.547-5.553-6.754-8.354-10.114"/>
<path fill-rule="evenodd" clip-rule="evenodd" fill="none" stroke="#000000" stroke-width="2" stroke-linecap="round" stroke-linejoin="round" stroke-miterlimit="10" d="
	M206.64,505.92c0.4,0.56,0.679,1.311,1.218,1.652c10.551,6.693,20.355,14.419,29.628,22.715c4.73,4.232,8.28,9.788,12.342,14.763
	c0.331,0.405,0.5,0.946,0.73,1.431c0.604,1.273-0.136,1.939-1.206,2.119c-1.089,0.184-2.233,0.04-3.535,0.04
	c0.3-2.751-2.995-5.201-0.539-8.159"/>
<path fill-rule="evenodd" clip-rule="evenodd" fill="none" stroke="#000000" stroke-width="2" stroke-linecap="round" stroke-linejoin="round" stroke-miterlimit="10" d="
	M119.52,331.44c-0.16,0.64-0.399,1.272-0.468,1.921c-0.74,7.038-1.215,14.113-2.225,21.111c-1.739,12.046-0.262,23.383,6.285,33.853
	c3.574,5.714,5.821,11.874,4.999,18.708c-0.63,5.23-1.507,10.451-2.64,15.595c-1.536,6.978-3.151,13.927-2.557,21.128
	c0.286,3.456,0.918,6.885,1.422,10.321c0.038,0.258,0.304,0.481,0.464,0.722"/>
<path fill-rule="evenodd" clip-rule="evenodd" fill="none" stroke="#000000" stroke-width="2" stroke-linecap="round" stroke-linejoin="round" stroke-miterlimit="10" d="
	M124.32,458.4c-1.28,2.96-2.761,5.852-3.796,8.895c-1.952,5.735-3.251,11.634-3.153,17.745c0.098,6.088,0.922,12.091,2.401,17.997
	c0.367,1.466,0.985,2.771,2.869,2.643"/>
<path fill-rule="evenodd" clip-rule="evenodd" fill="none" stroke="#000000" stroke-width="2" stroke-linecap="round" stroke-linejoin="round" stroke-miterlimit="10" d="
	M169.92,438c0.4,1.92,1.038,3.825,1.157,5.763c0.429,6.953,0.333,13.957,1.109,20.865c0.665,5.915-0.256,11.692-0.331,17.532
	c-0.072,5.599,0.044,11.2-0.036,16.8c-0.057,4.001-0.333,7.999-0.441,12.001c-0.037,1.356,0.252,2.723,0.204,4.078
	c-0.368,10.401-0.893,20.798-1.146,31.202c-0.187,7.675-0.005,15.359-0.045,23.039c-0.039,7.36-0.416,14.729-0.171,22.078
	c0.395,11.839-1.622,23.341-4.153,34.799c-1.679,7.6-2.391,15.32-3.097,23.044c-0.299,3.274-0.852,6.581-0.649,9.834
	c0.347,5.538,1.211,11.043,1.831,16.565c0.152,1.357,0.88,1.746,2.169,1.707c1.356-0.042,2.719,0.133,4.079,0.212"/>
<path fill-rule="evenodd" clip-rule="evenodd" fill="none" stroke="#000000" stroke-width="2" stroke-linecap="round" stroke-linejoin="round" stroke-miterlimit="10" d="
	M297.84,421.92c1.12,0.8,2.145,1.812,3.375,2.366c9.183,4.137,14.653,11.54,18.798,20.391c1.691,3.612,3.134,7.283,3.86,11.107
	c0.512,2.692,1.527,5.475,0.674,8.396c-0.268,0.915,0.253,2.061,0.413,3.101"/>
<path fill-rule="evenodd" clip-rule="evenodd" fill="none" stroke="#000000" stroke-width="2" stroke-linecap="round" stroke-linejoin="round" stroke-miterlimit="10" d="
	M414,267.6c0.48-0.08,1.015-0.339,1.432-0.212c4.239,1.289,8.681,0.657,12.967,1.42c2.681,0.477,5.077,3.623,5.518,7.193
	c0.376,3.055-0.161,6.046-1.731,8.606c-2.473,4.032-3.62,8.383-4.007,12.995c-0.218,2.591-1.329,4.82-2.936,6.686
	c-3.803,4.42-7.793,8.681-11.728,12.988c-1.276,1.397-2.882,2.066-4.795,1.925"/>
<path fill-rule="evenodd" clip-rule="evenodd" fill="none" stroke="#000000" stroke-width="2" stroke-linecap="round" stroke-linejoin="round" stroke-miterlimit="10" d="
	M333.6,677.52c-4.479,0.16-8.96,0.316-13.439,0.481c-8.641,0.317-17.28,0.875-25.92,0.867c-4.925-0.004-9.627,1.05-14.393,1.816
	c-6.349,1.021-12.649,2.346-18.966,3.561c-2.326,0.447-4.637,0.977-6.963,1.426c-1.109,0.214-2.238,0.329-3.358,0.489"/>
<path fill-rule="evenodd" clip-rule="evenodd" fill="none" stroke="#000000" stroke-width="2" stroke-linecap="round" stroke-linejoin="round" stroke-miterlimit="10" d="
	M337.2,506.4c-0.48,5.119-0.953,10.24-1.442,15.359c-0.596,6.25-0.632,12.475,0.187,18.728c0.402,3.078,0.177,6.234,0.311,9.352
	c0.082,1.924,0.275,3.844,0.47,5.761c1.019,10.01,0.206,20.004-0.254,30c-0.261,5.68-0.798,11.336-0.771,17.041
	c0.028,6.238-0.475,12.478-0.647,18.72c-0.358,12.959-0.737,25.918-0.932,38.88c-0.082,5.517,0.28,11.04,0.439,16.56"/>
<path fill-rule="evenodd" clip-rule="evenodd" fill="none" stroke="#000000" stroke-width="2" stroke-linecap="round" stroke-linejoin="round" stroke-miterlimit="10" d="
	M294.96,476.64c-2,0.4-3.987,0.887-6.002,1.184c-4.712,0.693-9.438,1.288-14.157,1.939c-4.562,0.629-9.117,1.304-13.682,1.904
	c-1.829,0.24-3.701,0.213-5.508,0.549c-0.782,0.146-1.45,0.904-2.17,1.384"/>
<path fill-rule="evenodd" clip-rule="evenodd" fill="none" stroke="#000000" stroke-width="2" stroke-linecap="round" stroke-linejoin="round" stroke-miterlimit="10" d="
	M291.12,505.92c-1.04,1.68-2.178,3.308-3.103,5.049c-4.199,7.899-8.355,15.821-12.486,23.757c-1.271,2.443-2.355,4.983-3.63,7.425
	c-0.945,1.81-2.062,3.529-3.102,5.29"/>
<path fill-rule="evenodd" clip-rule="evenodd" fill="none" stroke="#000000" stroke-width="2" stroke-linecap="round" stroke-linejoin="round" stroke-miterlimit="10" d="
	M218.88,432.48c-1.12,1.92-2.27,3.822-3.354,5.763c-3.188,5.704-5.938,11.603-7.432,18c-1.05,4.497-1.637,9.051-0.965,13.676
	c0.232,1.601-0.961,3.416,0.711,4.801"/>
<path fill-rule="evenodd" clip-rule="evenodd" fill="none" stroke="#000000" stroke-width="2" stroke-linecap="round" stroke-linejoin="round" stroke-miterlimit="10" d="
	M165.48,592.32c-0.76,4.319-1.552,8.635-2.271,12.961c-0.836,5.034-1.708,10.065-2.385,15.122
	c-0.973,7.268-1.673,14.572-2.726,21.828c-0.352,2.429-0.218,5.075-1.858,7.209"/>
<path fill-rule="evenodd" clip-rule="evenodd" fill="none" stroke="#000000" stroke-width="2" stroke-linecap="round" stroke-linejoin="round" stroke-miterlimit="10" d="
	M352.8,443.52c0.561,2.32,1.529,4.628,1.604,6.963c0.216,6.873,0.255,13.764,0.017,20.636c-0.17,4.891-0.923,9.76-1.374,14.643
	c-0.584,6.317-1.126,12.64-1.686,18.959"/>
<path fill-rule="evenodd" clip-rule="evenodd" fill="none" stroke="#000000" stroke-width="2" stroke-linecap="round" stroke-linejoin="round" stroke-miterlimit="10" d="
	M135.6,302.64c-0.64,1.6-1.601,3.149-1.861,4.809c-0.874,5.566-2.425,11.066-1.979,16.791c0.396,5.083,1.866,9.836,4.596,14.138
	c0.826,1.301,1.774,2.458,1.645,4.102"/>
<path fill-rule="evenodd" clip-rule="evenodd" fill="none" stroke="#000000" stroke-width="2" stroke-linecap="round" stroke-linejoin="round" stroke-miterlimit="10" d="
	M277.2,384.96c-2.858-0.851-5.585-0.282-8.413,0.428c-6.289,1.579-12.702,1.76-19.189,1.586c-4.841-0.13-9.498-0.848-14.167-1.979
	c-3.396-0.822-6.857-1.414-10.32-1.889c-0.899-0.124-1.911,0.573-2.871,0.893"/>
<path fill-rule="evenodd" clip-rule="evenodd" fill="none" stroke="#000000" stroke-width="2" stroke-linecap="round" stroke-linejoin="round" stroke-miterlimit="10" d="
	M288.48,377.28c-1.12-0.96-2.09-2.297-3.387-2.812c-4.465-1.771-8.8-3.909-13.647-4.664c-6.343-0.988-12.624-1.511-18.979-0.021
	c-1.914,0.448-4.019,0.485-5.981,0.25c-8.208-0.982-16.307-0.882-24.247,1.725c-2.476,0.813-4.93,1.714-7.448,2.368
	c-2.081,0.54-3.387,1.995-4.791,3.395"/>
<path fill-rule="evenodd" clip-rule="evenodd" fill="none" stroke="#000000" stroke-width="2" stroke-linecap="round" stroke-linejoin="round" stroke-miterlimit="10" d="
	M332.76,458.88c0.521,1.521,1.188,3.011,1.495,4.573c0.143,0.725-0.166,2-0.695,2.319c-3.279,1.975-6.562,4.021-10.063,5.531
	c-7.679,3.312-15.583,6.039-23.736,7.973c-4.796,1.138-9.58,2.341-14.407,3.327c-2.919,0.597-5.901,0.995-8.875,1.201
	c-5.271,0.365-10.557,0.662-15.838,0.69c-2.472,0.014-5.125,0.731-7.45-0.88c-0.162-0.113-0.482-0.064-0.708-0.008
	c-3.465,0.877-6.857-0.433-10.324-0.386c-3.752,0.051-7.52-0.971-11.277-1.546c-1.924-0.295-3.832-0.744-5.765-0.912
	c-1.019-0.089-2.111,0.526-3.109,0.386c-2.263-0.319-4.526-0.776-6.716-1.425c-2.446-0.726-4.811-1.725-7.21-2.604"/>
<path fill-rule="evenodd" clip-rule="evenodd" fill="none" stroke="#000000" stroke-width="2" stroke-linecap="round" stroke-linejoin="round" stroke-miterlimit="10" d="
	M368.16,349.44c-3.333-0.043-5.927,1.963-8.602,3.43c-7.414,4.068-14.743,8.405-20.381,14.86c-2.966,3.396-5.338,7.31-7.978,10.99
	c0.499,3.449-2.601,5.1-3.638,7.253c0.198,2.097,0.521,3.785,0.487,5.466c-0.111,5.354,1.734,10.383,2.491,15.592
	c0.472,3.248,1.101,6.615,2.479,9.542c1.073,2.276,0.68,4.371,0.778,6.548c0.062,1.35-0.278,2.718-0.438,4.078"/>
<path fill-rule="evenodd" clip-rule="evenodd" fill="none" stroke="#000000" stroke-width="2" stroke-linecap="round" stroke-linejoin="round" stroke-miterlimit="10" d="
	M129.36,338.64c1.28,0.64,2.556,1.29,3.841,1.918c9.43,4.614,17.222,11.33,23.951,19.243c4.626,5.44,7.395,11.753,7.036,19.16
	c-0.162,3.352-0.361,6.763,0.08,10.064c0.341,2.552,1.492,5.046,2.571,7.437c1.498,3.317,2.746,6.652,2.845,10.337
	c0.103,3.805-0.194,7.457-2.331,10.847c-0.777,1.232-0.713,2.994-1.034,4.514"/>
<path fill-rule="evenodd" clip-rule="evenodd" fill="none" stroke="#000000" stroke-width="2" stroke-linecap="round" stroke-linejoin="round" stroke-miterlimit="10" d="
	M409.2,312.96c-2.211-0.027-3.164,1.67-4.325,3.116c-6.858,8.54-14.472,16.295-23.501,22.583c-0.823,0.573-1.359,1.567-2.197,2.104
	c-1.105,0.708-2.377,1.156-3.577,1.716"/>
<path fill-rule="evenodd" clip-rule="evenodd" fill="none" stroke="#000000" stroke-width="2" stroke-linecap="round" stroke-linejoin="round" stroke-miterlimit="10" d="
	M382.32,488.4c-2.126-0.145-1.998,1.954-2.283,2.914c-1.306,4.401-2.397,8.891-3.185,13.415c-0.897,5.16-1.122,10.305-0.197,15.616
	c0.843,4.841,0.547,9.894,0.6,14.854c0.043,4.159-0.073,8.322-0.242,12.479c-0.079,1.927-0.46,3.841-0.691,5.762
	c-0.326,2.719-0.771,5.432-0.936,8.161c-0.399,6.635-0.743,13.275-0.966,19.919c-0.249,7.438-0.391,14.879-0.471,22.319
	c-0.026,2.398,0.444,4.802,0.418,7.199c-0.051,4.802-0.32,9.601-0.421,14.401c-0.021,1.036,0.425,2.079,0.433,3.119
	c0.042,6.4,0.375,12.825-0.065,19.194c-0.592,8.552,1.197,16.946,1.083,25.446c-0.019,1.356,0.443,2.72,0.684,4.08"/>
<path fill-rule="evenodd" clip-rule="evenodd" fill="none" stroke="#000000" stroke-width="2" stroke-linecap="round" stroke-linejoin="round" stroke-miterlimit="10" d="
	M349.92,369.6c0.392,2.199-1.064,3.758-1.923,5.518c-3.373,6.912-5.914,14.073-7.797,21.572c-2.002,7.976,0.175,14.926,3.479,21.87
	c0.8,1.68,1.963,3.285,2.333,5.054c1.144,5.473,4.247,10.215,5.569,15.59c0.926,3.765,0.005,7.377-1.959,10.521
	c-3.118,4.987-6.939,9.452-11.728,12.962c-0.867,0.636-2.056,0.833-3.096,1.233"/>
<path fill-rule="evenodd" clip-rule="evenodd" fill="none" stroke="#000000" stroke-width="2" stroke-linecap="round" stroke-linejoin="round" stroke-miterlimit="10" d="
	M292.08,551.28c-7.087-0.305-13.902,1.745-20.878,2.423c-3.612,0.351-7.205,0.916-10.8,1.429c-1.131,0.162-2.242,0.468-3.362,0.708"
	/>
<path fill-rule="evenodd" clip-rule="evenodd" fill="none" stroke="#000000" stroke-width="2" stroke-linecap="round" stroke-linejoin="round" stroke-miterlimit="10" d="
	M142.8,246.72c-1.935-0.367-3.103,0.438-4.118,2.137c-3.905,6.537-7.962,12.982-11.961,19.463c-1.283,2.078-2.696,4.092-3.785,6.268
	c-0.56,1.12-1.067,2.73-0.678,3.775c1.258,3.378,2.709,6.733,4.521,9.843c2.319,3.98,5.254,7.601,7.577,11.58
	c3.806,6.518,9.186,11.532,14.639,16.583c4.456,4.128,7.364,9.465,10.125,14.832c0.164,0.318,0.309,0.646,0.482,0.959
	c1.935,3.487,1.935,3.486,5.758,2.401"/>
<path fill-rule="evenodd" clip-rule="evenodd" fill="none" stroke="#000000" stroke-width="2" stroke-linecap="round" stroke-linejoin="round" stroke-miterlimit="10" d="
	M165.12,677.76c0.16,4.96,0.608,9.932,0.405,14.877c-0.241,5.854-1.018,11.686-1.618,17.521c-0.239,2.329-0.627,4.642-0.947,6.962"
	/>
<path fill-rule="evenodd" clip-rule="evenodd" fill="none" stroke="#000000" stroke-width="2" stroke-linecap="round" stroke-linejoin="round" stroke-miterlimit="10" d="
	M176.88,642.96c-1.76,7.68-3.681,15.328-5.21,23.054c-0.728,3.68-0.71,7.506-1.03,11.267"/>
<path fill-rule="evenodd" clip-rule="evenodd" fill="none" stroke="#000000" stroke-width="2" stroke-linecap="round" stroke-linejoin="round" stroke-miterlimit="10" d="
	M181.92,456.24c-0.24,0.88-0.747,1.781-0.678,2.637c0.565,6.966,1.039,13.949,1.94,20.875c0.734,5.64,2.262,11.176,2.996,16.816
	c0.901,6.926,1.615,13.9,1.913,20.875c0.369,8.627,0.363,17.278,0.261,25.916c-0.066,5.604-0.52,11.206-0.934,16.799
	c-0.379,5.128-0.917,10.244-1.424,15.361c-0.618,6.242-1.33,12.476-1.902,18.722c-0.85,9.275-1.624,18.558-2.407,27.839
	c-0.277,3.277-0.486,6.56-0.726,9.84"/>
<path fill-rule="evenodd" clip-rule="evenodd" fill="none" stroke="#000000" stroke-width="2" stroke-linecap="round" stroke-linejoin="round" stroke-miterlimit="10" d="
	M184.56,591.12c1.44,0.16,2.878,0.337,4.32,0.478c6.639,0.646,13.278,1.295,19.92,1.919c6.158,0.577,12.326,1.062,18.478,1.701
	c6.168,0.641,12.322,1.422,18.481,2.143"/>
<path fill-rule="evenodd" clip-rule="evenodd" fill="none" stroke="#000000" stroke-width="2" stroke-linecap="round" stroke-linejoin="round" stroke-miterlimit="10" d="
	M207.84,634.56c9.68,1.36,19.359,2.729,29.041,4.073c2.073,0.288,4.159,0.487,6.239,0.728"/>
<path fill-rule="evenodd" clip-rule="evenodd" fill="none" stroke="#000000" stroke-width="2" stroke-linecap="round" stroke-linejoin="round" stroke-miterlimit="10" d="
	M149.28,441.84c-4.286,4.986-7.975,10.385-10.771,16.334c-2.224,4.732-4.174,9.593-6.291,14.377
	c-0.243,0.549-0.779,0.969-1.179,1.449"/>
<path fill-rule="evenodd" clip-rule="evenodd" fill="none" stroke="#000000" stroke-width="2" stroke-linecap="round" stroke-linejoin="round" stroke-miterlimit="10" d="
	M283.92,440.4c-0.467,1.748-0.029,3.084,1.136,4.608c3.759,4.919,7.24,10.116,9.081,16.063c0.984,3.179,0.934,6.685,1.29,10.049
	c0.161,1.512,0.174,3.039,0.254,4.559"/>
<path fill-rule="evenodd" clip-rule="evenodd" fill="none" stroke="#000000" stroke-width="2" stroke-linecap="round" stroke-linejoin="round" stroke-miterlimit="10" d="
	M338.88,504.96c-0.943,0.635-1.855,1.027-3.12,1.017c-5.759-0.049-11.521,0.036-17.279,0.208c-3.764,0.112-7.527,0.379-11.278,0.719
	c-3.131,0.284-6.242,0.776-9.362,1.177"/>
<path fill-rule="evenodd" clip-rule="evenodd" fill="none" stroke="#000000" stroke-width="2" stroke-linecap="round" stroke-linejoin="round" stroke-miterlimit="10" d="
	M292.56,636.48c0.16,4.56,0.274,9.122,0.49,13.679c0.363,7.683,0.837,15.359,1.155,23.042c0.076,1.831-0.285,3.679-0.445,5.519"/>
<path fill-rule="evenodd" clip-rule="evenodd" fill="none" stroke="#000000" stroke-width="2" stroke-linecap="round" stroke-linejoin="round" stroke-miterlimit="10" d="
	M147.84,426.96c0.4,1.68,0.899,3.344,1.177,5.044c0.41,2.505,0.799,5.028,0.947,7.559c0.161,2.75-0.023,5.52,0.048,8.277
	c0.208,8.081,0.479,16.16,0.701,24.24c0.052,1.919,0.008,3.84,0.008,5.76"/>
<path fill-rule="evenodd" clip-rule="evenodd" fill="none" stroke="#000000" stroke-width="2" stroke-linecap="round" stroke-linejoin="round" stroke-miterlimit="10" d="
	M319.92,476.88c-5.359,4.64-10.866,9.124-16.033,13.971c-3.996,3.748-7.637,7.888-11.281,11.99
	c-0.987,1.111-1.449,2.566-0.627,4.326c0.477,1.021-0.091,2.512-0.133,3.793c-0.25,7.6-0.634,15.199-0.665,22.8
	c-0.017,4.079,0.651,8.156,0.874,12.241c0.139,2.553-0.098,5.127,0.059,7.677c0.178,2.889,0.759,5.756,0.889,8.644
	c0.161,3.594-0.021,7.2,0.053,10.799c0.101,4.881,0.35,9.759,0.445,14.641c0.042,2.157-0.14,4.319-0.22,6.479"/>
<path fill-rule="evenodd" clip-rule="evenodd" fill="none" stroke="#000000" stroke-width="2" stroke-linecap="round" stroke-linejoin="round" stroke-miterlimit="10" d="
	M398.88,492.72c-0.96-2.319-2.105-4.583-2.841-6.972c-1.49-4.84-2.29-9.947-4.258-14.568c-1.771-4.158-3.191-8.459-5.138-12.541
	c-1.14-2.391-2.039-4.927-3.432-7.156c-1.032-1.653-1.439-3.883-3.74-4.693c-0.535-0.188-0.762-1.486-0.976-2.313
	c-0.818-3.156-3.481-4.257-6.016-5.516"/>
<path fill-rule="evenodd" clip-rule="evenodd" fill="none" stroke="#000000" stroke-width="2" stroke-linecap="round" stroke-linejoin="round" stroke-miterlimit="10" d="
	M139.68,241.44c-0.8,0.24-1.738,0.289-2.377,0.751c-4.124,2.979-8.194,6.033-12.255,9.1c-1.09,0.823-1.553,1.97-2.06,3.299
	c-0.776,2.033-2.134,4.066-3.77,5.5c-3.249,2.846-4.792,6.531-6.179,10.391c-1.951,5.431-3.103,11.129-2.98,16.797
	c0.171,7.925,0.116,15.991,3.418,23.542c0.997,2.279,1.367,4.825,2.252,7.163c0.435,1.148,1.391,2.099,2.11,3.139"/>
<path fill-rule="evenodd" clip-rule="evenodd" fill="none" stroke="#000000" stroke-width="2" stroke-linecap="round" stroke-linejoin="round" stroke-miterlimit="10" d="
	M205.68,376.56c2.17-0.125,3.791,0.931,5.569,2.084c3.021,1.957,6.349,3.44,9.553,5.111c0.38,0.198,1.068,0.235,1.156,0.499
	c1.193,3.579,4.527,4.846,7.264,6.672c4.588,3.062,9.443,5.477,14.822,7.108c7.686,2.331,14.767,1.598,21.623-2.295
	c2.157-1.225,4.26-2.584,6.225-4.094c1.652-1.269,3.686-2.579,4.447-4.346c1.23-2.858,3.75-3.704,5.894-5.229
	c1.955-1.392,3.778-2.978,5.797-4.262c0.942-0.599,2.191-0.849,3.333-0.977c3.2-0.359,3.758-2.147,2.625-4.344
	c-0.61-1.182-0.518-2.831-2.148-3.366"/>
<path fill-rule="evenodd" clip-rule="evenodd" fill="none" stroke="#000000" stroke-width="2" stroke-linecap="round" stroke-linejoin="round" stroke-miterlimit="10" d="
	M293.28,594.72c-0.32,9.2-0.652,18.399-0.954,27.601c-0.117,3.559-0.206,7.119-0.221,10.68c-0.004,0.999,0.295,2,0.455,3"/>
<path fill-rule="evenodd" clip-rule="evenodd" fill="none" stroke="#000000" stroke-width="2" stroke-linecap="round" stroke-linejoin="round" stroke-miterlimit="10" d="
	M395.76,472.56c2.343,3.309,3.009,7.166,3.307,11.045c0.257,3.34-0.071,6.722,0.087,10.074c0.171,3.606,0.374,7.243,1.005,10.787
	c0.452,2.536-1.067,4.479-1.245,6.736c-0.496,6.313-0.981,12.634-1.173,18.96c-0.101,3.35,0.881,6.768,0.528,10.063
	c-0.346,3.238,0.629,6.107,0.961,9.148c0.255,2.329-0.618,4.796-1.079,7.185c-1.252,6.485-2.547,12.962-3.837,19.44
	c-0.113,0.569-0.313,1.121-0.474,1.681"/>
<path fill-rule="evenodd" clip-rule="evenodd" fill="none" stroke="#000000" stroke-width="2" stroke-linecap="round" stroke-linejoin="round" stroke-miterlimit="10" d="
	M327.12,386.64c-2.4,2.24-5.03,4.282-7.154,6.759c-5.181,6.04-10.159,12.254-15.15,18.453c-2.327,2.89-4.616,5.826-6.689,8.899
	c-1.21,1.795-2.619,1.468-3.839,0.622c-1.159-0.803-2.243-1.443-3.646-1.493"/>
<path fill-rule="evenodd" clip-rule="evenodd" fill="none" stroke="#000000" stroke-width="2" stroke-linecap="round" stroke-linejoin="round" stroke-miterlimit="10" d="
	M164.88,413.76c-4.64,3.2-9.603,6.026-13.848,9.684c-7.301,6.29-14.186,13.087-19.72,21.059c-2.352,3.388-4.442,6.968-6.439,10.578
	c-0.422,0.763-0.128,2.115,0.204,3.067c1.516,4.349,3.19,8.643,4.753,12.977c0.922,2.558,1.71,5.128,0.905,7.932
	c-0.176,0.612,0.474,1.416,0.521,2.146c0.146,2.236,0.382,4.493,0.224,6.716c-0.349,4.89-0.885,9.767-1.431,14.64
	c-0.102,0.904-0.609,1.764-0.929,2.644"/>
<path fill-rule="evenodd" clip-rule="evenodd" fill="none" stroke="#000000" stroke-width="2" stroke-linecap="round" stroke-linejoin="round" stroke-miterlimit="10" d="
	M379.44,447.12c-0.08,1.6-0.578,3.321-0.154,4.774c0.919,3.155,0.095,6.133-0.355,9.141c-1.143,7.641-4.313,14.653-6.875,21.864
	c-1.614,4.542-2.725,9.269-2.936,14.141"/>
<path fill-rule="evenodd" clip-rule="evenodd" fill="none" stroke="#000000" stroke-width="2" stroke-linecap="round" stroke-linejoin="round" stroke-miterlimit="10" d="
	M336.72,548.88c4.24,0.08,8.48,0.161,12.721,0.238c0.56,0.011,1.12,0.002,1.68,0.002c8.479,0,16.96,0,25.439,0"/>
<path fill-rule="evenodd" clip-rule="evenodd" fill="none" stroke="#000000" stroke-width="2" stroke-linecap="round" stroke-linejoin="round" stroke-miterlimit="10" d="
	M324.24,464.16c-0.641,0.16-1.32,0.229-1.914,0.494c-5.69,2.536-11.341,5.163-17.057,7.642c-2.9,1.258-5.936,2.201-8.861,3.404
	c-2.236,0.921-0.919,2.8-0.968,4.3"/>
<path fill-rule="evenodd" clip-rule="evenodd" fill="none" stroke="#000000" stroke-width="2" stroke-linecap="round" stroke-linejoin="round" stroke-miterlimit="10" d="
	M375.36,678c-13.732-1.814-27.509-1.138-41.28-0.784c0,5.904,0.021,11.744-0.021,17.584c-0.007,0.961-0.299,1.92-0.459,2.88"/>
<path fill-rule="evenodd" clip-rule="evenodd" fill="none" stroke="#000000" stroke-width="2" stroke-linecap="round" stroke-linejoin="round" stroke-miterlimit="10" d="
	M335.76,548.4c-7.84,0.64-15.676,1.335-23.521,1.889c-2.707,0.191-5.441-0.058-8.157,0.053c-3.844,0.155-7.681,0.458-11.521,0.698"
	/>
<path fill-rule="evenodd" clip-rule="evenodd" fill="none" stroke="#000000" stroke-width="2" stroke-linecap="round" stroke-linejoin="round" stroke-miterlimit="10" d="
	M325.44,462.48c2.399-1.28,4.835-2.502,7.166-3.897c0.399-0.239,0.64-1.314,0.468-1.849c-1.277-3.979-0.871-8.001-0.416-12.013
	c0.563-4.969,1.314-9.916,1.846-14.888c0.081-0.757-0.366-2.042-0.939-2.32c-3.418-1.66-6.216-4.366-10.025-5.424
	c-4.116-1.144-8.063-0.682-12.008,0.353c-2.143,0.562-4.171,1.558-6.251,2.357"/>
<path fill-rule="evenodd" clip-rule="evenodd" fill="none" stroke="#000000" stroke-width="2" stroke-linecap="round" stroke-linejoin="round" stroke-miterlimit="10" d="
	M204.48,408.72c-0.96,0.48-2.335,0.704-2.813,1.481c-3.22,5.24-7.797,9.541-10.003,15.523c-1.762,4.776-4.418,9.22-6.588,13.853
	c-0.337,0.72-0.296,1.668-0.255,2.502c0.096,1.976-0.756,3.361-2.42,4.321"/>
<path fill-rule="evenodd" clip-rule="evenodd" fill="none" stroke="#000000" stroke-width="2" stroke-linecap="round" stroke-linejoin="round" stroke-miterlimit="10" d="
	M334.08,633.84c-10.561,0.72-21.114,1.539-31.683,2.12c-5.587,0.307-11.204,0.064-16.796,0.313
	c-7.926,0.352-15.841,0.935-23.762,1.404c-4.319,0.257-8.646,0.405-12.957,0.763c-1.644,0.137-1.957-1.054-2.643-1.959"/>
<path fill-rule="evenodd" clip-rule="evenodd" fill="none" stroke="#000000" stroke-width="2" stroke-linecap="round" stroke-linejoin="round" stroke-miterlimit="10" d="
	M335.28,591.36c-1.601,0.399-3.182,1.027-4.804,1.158c-5.352,0.431-10.714,0.746-16.077,0.988
	c-11.599,0.523-23.2,0.958-34.799,1.459c-6.641,0.287-13.28,0.631-19.92,0.956c-1.281,0.063-2.56,0.158-3.84,0.238"/>
<path fill-rule="evenodd" clip-rule="evenodd" fill="none" stroke="#000000" stroke-width="2" stroke-linecap="round" stroke-linejoin="round" stroke-miterlimit="10" d="
	M192.72,407.52c-2.113-0.102-3.901,0.421-5.81,1.599c-6.19,3.82-12.22,7.825-18.03,12.216c-1.782,1.347-3.869,2.093-5.253,4.149
	c-4.429,6.579-3.845,13.056-0.783,20.007c1.619,3.676,3.041,7.544,3.546,11.7c0.796,6.542,0.047,12.979-0.546,19.449
	c-0.498,5.438-0.912,10.885-1.471,16.316c-0.208,2.025-0.316,4.092-1.831,5.817c-0.546,0.621-0.378,1.866-0.544,2.825
	c-0.069,0.402-0.139,0.806-0.241,1.199c-1.204,4.638,0.022,9.14,0.703,13.685c0.501,3.345,0.863,6.712,1.209,10.078
	c0.444,4.315,0.808,8.639,1.217,12.958c0.031,0.324,0.214,0.639,0.224,0.961c0.173,5.52,0.2,11.047,0.527,16.558
	c0.304,5.13,1.162,10.234,1.332,15.364c0.153,4.639,0.559,9.335-0.844,13.932c-0.533,1.747-0.558,3.65-0.858,5.795
	c6.418-0.262,12.616-0.516,18.813-0.769"/>
<path fill-rule="evenodd" clip-rule="evenodd" fill="none" stroke="#000000" stroke-width="2" stroke-linecap="round" stroke-linejoin="round" stroke-miterlimit="10" d="
	M181.44,631.92c7.709-0.437,15.195,1.491,22.8,2.16c1.039,0.091,2.078,0.18,3.276,0.282c-0.211,5.082-0.656,10.203-0.582,15.317
	c0.113,7.763,0.62,15.52,0.868,23.281c0.036,1.111-0.442,2.239-0.682,3.359"/>
<path fill-rule="evenodd" clip-rule="evenodd" fill="none" stroke="#000000" stroke-width="2" stroke-linecap="round" stroke-linejoin="round" stroke-miterlimit="10" d="
	M209.04,702.48c-0.268-8.566-0.536-17.132-0.802-25.644c-12.646-1.17-24.884-0.801-37.118,0.203"/>
<path fill-rule="evenodd" clip-rule="evenodd" fill="none" stroke="#000000" stroke-width="2" stroke-linecap="round" stroke-linejoin="round" stroke-miterlimit="10" d="
	M400.32,509.04c0.239,1.68,0.621,3.354,0.693,5.041c0.23,5.357,0.544,10.723,0.447,16.078c-0.087,4.808,0.228,9.687-1.171,14.393
	c-0.185,0.623-0.771,1.128-1.17,1.688"/>
<path fill-rule="evenodd" clip-rule="evenodd" fill="none" stroke="#000000" stroke-width="2" stroke-linecap="round" stroke-linejoin="round" stroke-miterlimit="10" d="
	M419.04,271.2c-2.16,2.306-3.001,5.263-3.804,8.17c-1.182,4.281-2.096,8.635-3.178,12.945c-0.17,0.677-0.619,1.285-0.938,1.925"/>
<path fill-rule="evenodd" clip-rule="evenodd" fill="none" stroke="#000000" stroke-width="2" stroke-linecap="round" stroke-linejoin="round" stroke-miterlimit="10" d="
	M180.48,444.24c-0.72,1.84-1.567,3.642-2.135,5.527c-1.513,5.019-2.89,10.077-4.364,15.106c-0.176,0.603-0.621,1.126-0.94,1.686"/>
<path fill-rule="evenodd" clip-rule="evenodd" fill="none" stroke="#000000" stroke-width="2" stroke-linecap="round" stroke-linejoin="round" stroke-miterlimit="10" d="
	M207.24,507.84c-0.2,1.76-0.586,3.522-0.565,5.279c0.058,4.882,0.301,9.761,0.439,14.641c0.106,3.76,0.156,7.521,0.254,11.28
	c0.017,0.642,0.186,1.277,0.226,1.921c0.409,6.639,0.814,13.278,1.202,19.919c0.257,4.399,0.524,8.798,0.712,13.2
	c0.208,4.878,0.497,9.762,0.448,14.64c-0.057,5.762-0.41,11.521-0.685,17.28c-0.286,6.001-0.558,12.005-0.981,17.998
	c-0.238,3.371-0.771,6.722-1.171,10.082"/>
<path fill-rule="evenodd" clip-rule="evenodd" fill="none" stroke="#000000" stroke-width="2" stroke-linecap="round" stroke-linejoin="round" stroke-miterlimit="10" d="
	M120.24,315.12c2.579,2.046,3.558,5.119,4.725,7.951c1.362,3.308,2.258,6.824,3.131,10.305c0.255,1.016-0.256,2.224-0.416,3.344"/>
<path fill-rule="evenodd" clip-rule="evenodd" fill="none" stroke="#000000" stroke-width="2" stroke-linecap="round" stroke-linejoin="round" stroke-miterlimit="10" d="
	M292.08,249.96c0.08,0.04,0.233,0.09,0.229,0.119c-0.447,3.308,1.962,4.027,4.311,5.084c5.451,2.45,11.239,3.391,17.059,4.281
	c0.324,0.05,0.641,0.156,1.449,0.358c-0.402-0.947-0.506-1.824-0.999-2.247c-2.447-2.095-2.274-4.435-0.938-7
	c0.528-1.015,0.891-2.121,1.464-3.106c1.111-1.91,2.863-0.511,4.308-0.699c1.181-0.153,2.396-0.031,3.596-0.031"/>
<path fill-rule="evenodd" clip-rule="evenodd" fill="none" stroke="#000000" stroke-width="2" stroke-linecap="round" stroke-linejoin="round" stroke-miterlimit="10" d="
	M249.6,603.6c0,3.841,0.187,7.691-0.05,11.518c-0.259,4.173-0.686,8.366-1.479,12.466c-0.431,2.227-0.177,3.758,1.169,5.624
	c0.879,1.219,0.6,3.273,0.84,4.953"/>
<path fill-rule="evenodd" clip-rule="evenodd" fill="none" stroke="#000000" stroke-width="2" stroke-linecap="round" stroke-linejoin="round" stroke-miterlimit="10" d="
	M192.48,467.04c-1.621,2.16-0.18,4.336,0.032,6.477c0.493,4.981,1.249,9.946-0.271,14.884"/>
<path fill-rule="evenodd" clip-rule="evenodd" fill="none" stroke="#000000" stroke-width="2" stroke-linecap="round" stroke-linejoin="round" stroke-miterlimit="10" d="
	M246.48,648.24c-0.32,0.479-0.835,0.924-0.93,1.445c-1.138,6.231-1.093,12.478-0.006,18.71c0.145,0.831,0.616,1.604,0.936,2.404"/>
<path fill-rule="evenodd" clip-rule="evenodd" fill="none" stroke="#000000" stroke-width="2" stroke-linecap="round" stroke-linejoin="round" stroke-miterlimit="10" d="
	M334.08,465.84c2.754,7.307,5.876,14.522,5.758,22.561c-0.068,4.64-0.135,9.28-0.26,13.919c-0.021,0.818-0.326,1.629-0.617,2.992
	c2.704,0.042,5.513,0.164,8.318,0.112c5.602-0.104,11.2-0.394,16.801-0.438c5.279-0.042,10.56,0.134,15.84,0.214"/>
<path fill-rule="evenodd" clip-rule="evenodd" fill="none" stroke="#000000" stroke-width="2" stroke-linecap="round" stroke-linejoin="round" stroke-miterlimit="10" d="
	M276.72,250.56c-2.88-0.72-5.725-1.686-8.648-2.1c-3.966-0.562-7.988-0.791-11.994-0.971c-1.427-0.064-2.871,0.507-4.32,0.648
	c-1.189,0.115-2.457-0.212-3.586,0.069c-2.994,0.746-5.983,1.574-8.877,2.633c-3.023,1.106-5.934,2.521-8.894,3.801"/>
<path fill-rule="evenodd" clip-rule="evenodd" fill="none" stroke="#000000" stroke-width="2" stroke-linecap="round" stroke-linejoin="round" stroke-miterlimit="10" d="
	M163.92,449.28c-2.551,1.452-2.454,4.205-2.79,6.493c-0.602,4.1-0.163,8.12,0.917,12.276c1.106,4.255,0.988,8.922,0.825,13.387
	c-0.17,4.654-1.116,9.276-1.531,13.929c-0.097,1.083,0.578,2.234,0.898,3.354"/>
<path fill-rule="evenodd" clip-rule="evenodd" fill="none" stroke="#000000" stroke-width="2" stroke-linecap="round" stroke-linejoin="round" stroke-miterlimit="10" d="
	M121.44,278.88c-2.286,4.809-3.689,9.887-4.551,15.122c-0.29,1.765-1.23,3.581,0.231,5.278"/>
<path fill-rule="evenodd" clip-rule="evenodd" fill="none" stroke="#000000" stroke-width="2" stroke-linecap="round" stroke-linejoin="round" stroke-miterlimit="10" d="
	M207.36,547.92c-6.4,0.08-12.8,0.16-19.2,0.24"/>
<path fill-rule="evenodd" clip-rule="evenodd" fill="none" stroke="#000000" stroke-width="2" stroke-linecap="round" stroke-linejoin="round" stroke-miterlimit="10" d="
	M414,269.04c-0.091-0.633,0.428-1.526-0.961-1.464c-6.976,0.312-14.035-0.034-20.639,2.904"/>
<path fill-rule="evenodd" clip-rule="evenodd" fill="none" stroke="#000000" stroke-width="2" stroke-linecap="round" stroke-linejoin="round" stroke-miterlimit="10" d="
	M256.56,216.24c0,3.76,0.347,7.56-0.081,11.271c-0.65,5.636-1.861,11.206-2.777,16.813c-0.153,0.935-0.021,1.917-0.021,2.876"/>
<path fill-rule="evenodd" clip-rule="evenodd" fill="none" stroke="#000000" stroke-width="2" stroke-linecap="round" stroke-linejoin="round" stroke-miterlimit="10" d="
	M208.32,547.92c4.08,0.16,8.159,0.399,12.24,0.455c3.279,0.044,6.56-0.204,9.84-0.197c4.16,0.008,8.32,0.132,12.48,0.23
	c0.881,0.021,1.76,0.152,2.64,0.231"/>
<path fill-rule="evenodd" clip-rule="evenodd" fill="none" stroke="#000000" stroke-width="2" stroke-linecap="round" stroke-linejoin="round" stroke-miterlimit="10" d="
	M255.36,484.8c-0.451,2.022-0.901,4.044-1.28,5.746c0.851,2.31,1.668,4.521,2.474,6.736c0.052,0.142-0.063,0.386,0.017,0.468
	c3.218,3.295,1.399,6.501-0.281,9.593c-1.375,2.529-4.92,3.196-7.135,1.415c-0.546-0.438-1.019-1.464-0.897-2.1
	c0.123-0.644,0.983-1.568,1.59-1.626c3.22-0.306,4.718-2.267,5.537-5.105c0.153-0.528,0.616-0.967,0.936-1.446"/>
<path fill-rule="evenodd" clip-rule="evenodd" fill="none" stroke="#000000" stroke-width="2" stroke-linecap="round" stroke-linejoin="round" stroke-miterlimit="10" d="
	M222.48,402.48c-4.665,0.371-8.87,2.318-13.203,3.833c-1.504,0.526-3.038,0.967-4.557,1.447"/>
<path fill-rule="evenodd" clip-rule="evenodd" fill="none" stroke="#000000" stroke-width="2" stroke-linecap="round" stroke-linejoin="round" stroke-miterlimit="10" d="
	M189.6,471.12c-1.363,6.061-1.364,11.925,2.379,17.294c0.315,0.452,0.313,1.116,0.508,1.663c0.205,0.572,0.367,1.205,0.729,1.67
	c2.206,2.826,4.352,5.713,6.74,8.38c1.729,1.931,3.786,3.573,5.747,5.286c0.227,0.198,0.776,0.027,1.176,0.027"/>
<path fill-rule="evenodd" clip-rule="evenodd" fill="none" stroke="#000000" stroke-width="2" stroke-linecap="round" stroke-linejoin="round" stroke-miterlimit="10" d="
	M165.6,396.24c-0.32,1.76-0.889,3.517-0.906,5.28c-0.031,3.198,0.235,6.402,0.454,9.598c0.04,0.574,0.452,1.122,0.691,1.682"/>
<path fill-rule="evenodd" clip-rule="evenodd" fill="none" stroke="#000000" stroke-width="2" stroke-linecap="round" stroke-linejoin="round" stroke-miterlimit="10" d="
	M191.76,414.72c-0.64,1.12-1.185,2.309-1.937,3.348c-2.844,3.929-6.133,7.617-7.255,12.503c-0.351,1.528-0.132,3.188-0.167,4.789
	c-0.012,0.56,0.108,1.146-0.021,1.675c-0.513,2.092-1.106,4.163-1.652,6.247c-0.059,0.225-0.113,0.581,0.007,0.703
	c2.749,2.793,0.39,6.542,1.856,9.638c1.463,3.088,2.979,6.069,5.569,8.376c0.635,0.565,1.355,1.056,1.904,1.694
	c1.228,1.431,2.327,2.854,4.024,3.938c1.691,1.081,3.281,2.449,4.533,4.355c1.671,2.545,4.635,3.884,7.775,4.435
	c0.467,0.082,0.884,0.458,1.324,0.698"/>
<path fill-rule="evenodd" clip-rule="evenodd" fill="none" stroke="#000000" stroke-width="2" stroke-linecap="round" stroke-linejoin="round" stroke-miterlimit="10" d="
	M388.56,219.12c-2.26,1.481-1.817,3.97-1.823,6c-0.013,3.839,0.478,7.688,0.906,11.515c0.12,1.071,0.758,2.085,1.157,3.125"/>
<path fill-rule="evenodd" clip-rule="evenodd" fill="none" stroke="#000000" stroke-width="2" stroke-linecap="round" stroke-linejoin="round" stroke-miterlimit="10" d="
	M139.44,243.36c-3.12,2.56-6.223,5.142-9.367,7.671c-1.558,1.253-3.154,2.468-4.817,3.572c-0.481,0.32-1.256,0.197-1.896,0.277"/>
<path fill-rule="evenodd" clip-rule="evenodd" fill="none" stroke="#000000" stroke-width="2" stroke-linecap="round" stroke-linejoin="round" stroke-miterlimit="10" d="
	M120.96,505.68c-0.08,0.48-0.354,1.03-0.21,1.43c1.795,4.977,3.65,9.931,5.491,14.891"/>
<path fill-rule="evenodd" clip-rule="evenodd" fill="none" stroke="#000000" stroke-width="2" stroke-linecap="round" stroke-linejoin="round" stroke-miterlimit="10" d="
	M191.52,245.76c3.864-1.498,7.413-0.759,10.81,1.426c1.6,1.029,3.298,1.905,4.772,2.747c0.118,2.534-1.298,3.74-2.876,4.683
	c-2.943,1.758-6.203,2.724-9.59,3.102c-1.341,0.149-2.736-0.185-4.217-0.309c-1.2,3.128-2.145,3.705-4.178,2.272"/>
<path fill-rule="evenodd" clip-rule="evenodd" fill="none" stroke="#000000" stroke-width="2" stroke-linecap="round" stroke-linejoin="round" stroke-miterlimit="10" d="
	M223.68,480c-3.835-2.446-8.268-3.336-12.481-4.796c-0.55-0.19-1.126-0.302-1.677-0.488c-1.358-0.459-2.008-0.005-1.921,1.444"/>
<path fill-rule="evenodd" clip-rule="evenodd" fill="none" stroke="#000000" stroke-width="2" stroke-linecap="round" stroke-linejoin="round" stroke-miterlimit="10" d="
	M180.72,632.16c-4.48-0.08-8.96-0.152-13.44-0.249c-0.642-0.014-1.28-0.151-1.92-0.231"/>
<path fill-rule="evenodd" clip-rule="evenodd" fill="none" stroke="#000000" stroke-width="2" stroke-linecap="round" stroke-linejoin="round" stroke-miterlimit="10" d="
	M140.64,284.88c-0.08,0.72-0.039,1.48-0.26,2.153c-1.238,3.774-2.504,7.54-3.85,11.276c-0.272,0.755-0.93,1.371-1.41,2.051"/>
<path fill-rule="evenodd" clip-rule="evenodd" fill="none" stroke="#000000" stroke-width="2" stroke-linecap="round" stroke-linejoin="round" stroke-miterlimit="10" d="
	M373.68,591.6c-6.399-0.159-12.801-0.46-19.199-0.436c-5.121,0.021-10.239,0.459-15.361,0.658c-1.115,0.043-2.239-0.143-3.359-0.223
	"/>
<path fill-rule="evenodd" clip-rule="evenodd" fill="none" stroke="#000000" stroke-width="2" stroke-linecap="round" stroke-linejoin="round" stroke-miterlimit="10" d="
	M120.24,259.92c0.48,4.4,0.94,8.802,1.463,13.197c0.069,0.58,0.457,1.123,0.696,1.683"/>
<path fill-rule="evenodd" clip-rule="evenodd" fill="none" stroke="#000000" stroke-width="2" stroke-linecap="round" stroke-linejoin="round" stroke-miterlimit="10" d="
	M270,540.24c-0.56,0.56-1.053,1.216-1.691,1.664c-4.139,2.91-8.309,5.775-12.469,8.655"/>
<path fill-rule="evenodd" clip-rule="evenodd" fill="none" stroke="#000000" stroke-width="2" stroke-linecap="round" stroke-linejoin="round" stroke-miterlimit="10" d="
	M208.32,677.04c3.44,0.32,6.899,0.505,10.316,0.989c6.015,0.854,12.001,1.913,18.006,2.838c2.068,0.319,4.158,0.493,6.238,0.732"/>
<path fill-rule="evenodd" clip-rule="evenodd" fill="none" stroke="#000000" stroke-width="2" stroke-linecap="round" stroke-linejoin="round" stroke-miterlimit="10" d="
	M250.8,548.16c1.04,0.64,2.021,1.673,3.132,1.84c2.476,0.371,2.609,2.069,2.888,3.917c0.314,2.093,0.84,4.153,1.161,6.246
	c0.255,1.665,0.405,3.354,0.486,5.038c0.2,4.157,0.585,8.328,0.427,12.477c-0.183,4.779-1.31,9.437-3.03,13.932
	c-0.25,0.654-0.405,1.495-0.218,2.138c0.394,1.35-0.06,2.286-1.006,3.133"/>
<path fill-rule="evenodd" clip-rule="evenodd" fill="none" stroke="#000000" stroke-width="2" stroke-linecap="round" stroke-linejoin="round" stroke-miterlimit="10" d="
	M334.8,429.6c4.562,2.311,7.673,8.607,7.259,13.686c-0.421,5.18-3.024,9.028-6.56,12.453c-0.571,0.554-1.419,0.821-2.139,1.222"/>
<path fill-rule="evenodd" clip-rule="evenodd" fill="none" stroke="#000000" stroke-width="2" stroke-linecap="round" stroke-linejoin="round" stroke-miterlimit="10" d="
	M335.04,633.36c2.08-0.08,4.16-0.164,6.24-0.239c4.479-0.163,8.96-0.457,13.439-0.446c5.44,0.014,10.881,0.277,16.32,0.452
	c1.041,0.033,2.08,0.153,3.12,0.233"/>
<path fill-rule="evenodd" clip-rule="evenodd" fill="none" stroke="#000000" stroke-width="2" stroke-linecap="round" stroke-linejoin="round" stroke-miterlimit="10" d="
	M185.28,444c0.88,2.72,1.79,5.431,2.63,8.163c0.61,1.984,1.119,4,1.693,5.996c0.413,1.435,0.589,2.828-0.483,4.081"/>
<path fill-rule="evenodd" clip-rule="evenodd" fill="none" stroke="#000000" stroke-width="2" stroke-linecap="round" stroke-linejoin="round" stroke-miterlimit="10" d="
	M244.08,679.92c0.96-1.2,1.879-2.437,2.899-3.583c0.446-0.501,1.129-0.783,1.653-1.227c0.517-0.437,1.408-1.003,1.358-1.42
	c-0.11-0.914-0.543-1.93-1.172-2.591c-0.382-0.401-1.548-0.531-2.068-0.246c-2.309,1.265-3.86,5.695-3.18,8.354
	c0.129,0.506-0.208,1.113-0.196,1.672c0.045,2.081,0.031,4.173,0.266,6.235c0.158,1.387,1.109,2.046,2.572,2.494
	c1.756,0.539,1.842-0.844,2.398-1.553c2.668-3.401,3.104-9.797,0.989-12.937"/>
<path fill-rule="evenodd" clip-rule="evenodd" fill="none" stroke="#000000" stroke-width="2" stroke-linecap="round" stroke-linejoin="round" stroke-miterlimit="10" d="
	M199.44,404.88c-2.549,2.224-4.131,5.183-5.987,7.929c-0.661,0.978-1.231,1.645-2.661,1.531c-0.836-0.067-1.983,0.662-2.594,1.373
	c-3.258,3.794-6.828,7.242-10.547,10.584c-2.047,1.841-3.554,4.277-5.341,6.415c-0.578,0.691-1.271,1.288-1.911,1.928"/>
<path fill-rule="evenodd" clip-rule="evenodd" fill="none" stroke="#000000" stroke-width="2" stroke-linecap="round" stroke-linejoin="round" stroke-miterlimit="10" d="
	M248.4,508.8c-0.624,2.165,0.299,5.119,1.933,5.977c0.313,0.164,0.8,0.087,1.186,0.013c1.745-0.337,4.028-3.779,3.842-5.749"/>
<path fill-rule="evenodd" clip-rule="evenodd" fill="none" stroke="#000000" stroke-width="2" stroke-linecap="round" stroke-linejoin="round" stroke-miterlimit="10" d="
	M346.56,427.68c-0.72-0.399-1.864-0.638-2.089-1.227c-1.253-3.28-4.329-4.548-6.835-6.393c-0.841-0.619-2.195-0.54-3.315-0.78"/>
<path fill-rule="evenodd" clip-rule="evenodd" fill="none" stroke="#000000" stroke-width="2" stroke-linecap="round" stroke-linejoin="round" stroke-miterlimit="10" d="
	M165.12,246.96c0.308,0.567,0.616,1.133,0.93,1.711c-2.004,2.104-4.677,2.485-7.41,2.594c-2.638,0.106-5.28,0.094-7.919,0.134"/>
<path fill-rule="evenodd" clip-rule="evenodd" fill="none" stroke="#000000" stroke-width="2" stroke-linecap="round" stroke-linejoin="round" stroke-miterlimit="10" d="
	M192.72,492c-0.64,3.28-1.262,6.563-1.93,9.838c-0.263,1.292-0.63,2.563-0.951,3.842"/>
<path fill-rule="evenodd" clip-rule="evenodd" fill="none" stroke="#000000" stroke-width="2" stroke-linecap="round" stroke-linejoin="round" stroke-miterlimit="10" d="
	M165.6,249.6c0.16,1.592,1.235,2.026,2.627,2.444c3.559,1.068,7.046,2.377,10.577,3.545c1.366,0.452,2.782,0.973,4.076-0.229"/>
<path fill-rule="evenodd" clip-rule="evenodd" fill="none" stroke="#000000" stroke-width="2" stroke-linecap="round" stroke-linejoin="round" stroke-miterlimit="10" d="
	M355.44,249.36c-1.505,2.297-4.07,1.938-6.252,2.337c-1.703,0.313-3.509,0.063-5.269,0.063c-0.16,0-0.367,0.066-0.473-0.009
	c-2.522-1.792-5.563-1.744-8.404-2.403c-0.66-0.153-1.267-0.607-1.926-0.683c-3.218-0.371-6.285-1.732-9.598-1.464"/>
<path fill-rule="evenodd" clip-rule="evenodd" fill="none" stroke="#000000" stroke-width="2" stroke-linecap="round" stroke-linejoin="round" stroke-miterlimit="10" d="
	M146.88,276c-1.68,2.4-3.297,4.848-5.077,7.172c-0.566,0.739-1.496,1.307-2.375,1.681c-3.732,1.585-7.508,3.067-11.268,4.587"/>
<path fill-rule="evenodd" clip-rule="evenodd" fill="none" stroke="#000000" stroke-width="2" stroke-linecap="round" stroke-linejoin="round" stroke-miterlimit="10" d="
	M160.8,429.36c-0.8,0.399-1.783,0.623-2.369,1.229c-2.79,2.893-5.471,5.891-8.191,8.851"/>
<path fill-rule="evenodd" clip-rule="evenodd" fill="none" stroke="#000000" stroke-width="2" stroke-linecap="round" stroke-linejoin="round" stroke-miterlimit="10" d="
	M167.04,422.88c0.72,2.561,1.468,5.112,2.147,7.684c0.313,1.181,0.564,2.388,0.71,3.6c0.114,0.946,0.393,2.151-0.041,2.837
	c-1.933,3.053-4.096,5.96-6.176,8.92"/>
<path fill-rule="evenodd" clip-rule="evenodd" fill="none" stroke="#000000" stroke-width="2" stroke-linecap="round" stroke-linejoin="round" stroke-miterlimit="10" d="
	M292.32,165.12c1.2,0.72,2.342,1.572,3.612,2.133c2.748,1.212,5.63,2.17,7.428,4.827"/>
<path fill-rule="evenodd" clip-rule="evenodd" fill="none" stroke="#000000" stroke-width="2" stroke-linecap="round" stroke-linejoin="round" stroke-miterlimit="10" d="
	M187.68,548.4c-4.96,0.479-9.919,0.966-14.881,1.432c-0.634,0.06-1.279,0.008-1.919,0.008"/>
<path fill-rule="evenodd" clip-rule="evenodd" fill="none" stroke="#000000" stroke-width="2" stroke-linecap="round" stroke-linejoin="round" stroke-miterlimit="10" d="
	M253.44,491.04c-0.72,0.24-1.713,0.259-2.115,0.756c-2.388,2.955-5.605,5.532-4.87,10.048c0.249,1.529,0.545,2.936,1.945,3.836"/>
<path fill-rule="evenodd" clip-rule="evenodd" fill="none" stroke="#000000" stroke-width="2" stroke-linecap="round" stroke-linejoin="round" stroke-miterlimit="10" d="
	M302.88,415.44c1.92-0.24,3.901-0.256,5.748-0.762c5.259-1.441,10.416-1.294,15.62,0.255c2.674,0.796,5.432,1.307,8.152,1.947"/>
<path fill-rule="evenodd" clip-rule="evenodd" fill="none" stroke="#000000" stroke-width="2" stroke-linecap="round" stroke-linejoin="round" stroke-miterlimit="10" d="
	M400.56,545.28c3.2-0.08,6.432-0.47,9.591-0.149c2.924,0.295,5.775,1.327,8.641,2.101c0.305,0.083,0.489,0.608,0.729,0.929"/>
<path fill-rule="evenodd" clip-rule="evenodd" fill="none" stroke="#000000" stroke-width="2" stroke-linecap="round" stroke-linejoin="round" stroke-miterlimit="10" d="
	M247.2,630.72c-2.026,0.64-3.055,1.765-2.461,4.096c0.22,0.863-0.013,2.044-0.466,2.838c-1.267,2.224-1.4,4.57-1.116,6.982
	c0.07,0.589,0.486,1.419,0.955,1.604c0.499,0.197,1.469-0.03,1.851-0.435c1.918-2.025,3.991-4.021,3.877-7.165"/>
<path fill-rule="evenodd" clip-rule="evenodd" fill="none" stroke="#000000" stroke-width="2" stroke-linecap="round" stroke-linejoin="round" stroke-miterlimit="10" d="
	M249.6,458.64c-1.618,4.003-2.554,8.128-2.435,12.481c0.024,0.886,0.633,2.299-1.166,2.398"/>
<path fill-rule="evenodd" clip-rule="evenodd" fill="none" stroke="#000000" stroke-width="2" stroke-linecap="round" stroke-linejoin="round" stroke-miterlimit="10" d="
	M323.16,245.52c0.2,1.28,0.052,2.764,0.66,3.804c2.541,4.34,1.271,5.867-0.619,8.622c-0.619,0.903-2.161,1.174-3.281,1.734"/>
<path fill-rule="evenodd" clip-rule="evenodd" fill="none" stroke="#000000" stroke-width="2" stroke-linecap="round" stroke-linejoin="round" stroke-miterlimit="10" d="
	M190.08,257.52c-0.72-0.24-1.423-0.591-2.163-0.702c-4.752-0.71-5.805-1.917-7.449-6.494c-0.866-2.411,1.225-3.747,2.03-5.479
	c0.738-1.588,2.304-0.089,3.501-0.024c0.407,0.022,0.792,0.329,1.204,0.448c0.315,0.092,5.792,2.239,5.998,2.41
	c1.833,1.524,1.962,4.908,0.236,6.716c-0.859,0.9-1.756,1.764-2.636,2.644"/>
<path fill-rule="evenodd" clip-rule="evenodd" fill="none" stroke="#000000" stroke-width="2" stroke-linecap="round" stroke-linejoin="round" stroke-miterlimit="10" d="
	M202.08,401.76c0.8,1.92,1.607,3.837,2.398,5.761c1.379,3.353,1.845,7.052,3.988,10.145c0.282,0.407-0.706,1.695-1.106,2.575"/>
<path fill-rule="evenodd" clip-rule="evenodd" fill="none" stroke="#000000" stroke-width="2" stroke-linecap="round" stroke-linejoin="round" stroke-miterlimit="10" d="
	M314.64,247.2c-3.279-0.605-6.512-1.092-9.859-0.065c-1.727,0.529-3.716,0.16-5.486,0.601c-2.297,0.571-4.494,1.544-6.734,2.344"/>
<path fill-rule="evenodd" clip-rule="evenodd" fill="none" stroke="#000000" stroke-width="2" stroke-linecap="round" stroke-linejoin="round" stroke-miterlimit="10" d="
	M342.96,252c-1.807,2.527-4.248,3.911-7.115,5.226c-3.123,1.432-6.589,0.386-9.444,2.214"/>
<path fill-rule="evenodd" clip-rule="evenodd" fill="none" stroke="#000000" stroke-width="2" stroke-linecap="round" stroke-linejoin="round" stroke-miterlimit="10" d="
	M206.4,368.16c-1.036,2.553-1.613,4.922-1.256,7.955c0.327,2.771,0.954,5.426,1.496,8.125"/>
<path fill-rule="evenodd" clip-rule="evenodd" fill="none" stroke="#000000" stroke-width="2" stroke-linecap="round" stroke-linejoin="round" stroke-miterlimit="10" d="
	M277.92,264.72c1.731,2.54,3.427,5.089,2.16,8.4"/>
<path fill-rule="evenodd" clip-rule="evenodd" fill="none" stroke="#000000" stroke-width="2" stroke-linecap="round" stroke-linejoin="round" stroke-miterlimit="10" d="
	M198.48,470.64c1.52,0.48,3.037,0.972,4.561,1.437c1.114,0.34,2.239,0.644,3.359,0.964"/>
<path fill-rule="evenodd" clip-rule="evenodd" fill="none" stroke="#000000" stroke-width="2" stroke-linecap="round" stroke-linejoin="round" stroke-miterlimit="10" d="
	M384.48,264.72c-1.528,2.688-0.894,5.312,0.239,7.92"/>
<path fill-rule="evenodd" clip-rule="evenodd" fill="none" stroke="#000000" stroke-width="2" stroke-linecap="round" stroke-linejoin="round" stroke-miterlimit="10" d="
	M408,320.16c-2.686,2.167-4.484,4.74-4.643,8.396c-0.055,1.274-0.163,3.064-2.077,3.483"/>
<path fill-rule="evenodd" clip-rule="evenodd" fill="none" stroke="#000000" stroke-width="2" stroke-linecap="round" stroke-linejoin="round" stroke-miterlimit="10" d="
	M203.52,406.32c-1.52,0.8-3.016,1.651-4.569,2.381c-0.91,0.427-1.911,0.659-2.871,0.979"/>
<path fill-rule="evenodd" clip-rule="evenodd" fill="none" stroke="#000000" stroke-width="2" stroke-linecap="round" stroke-linejoin="round" stroke-miterlimit="10" d="
	M146.4,238.56c-4.076-0.125-5.921,1.128-6.722,4.569c0.638,0.873,1.28,1.752,1.922,2.63"/>
<path fill-rule="evenodd" clip-rule="evenodd" fill="none" stroke="#000000" stroke-width="2" stroke-linecap="round" stroke-linejoin="round" stroke-miterlimit="10" d="
	M186.72,245.76c-1.92,1.76-3.84,3.521-5.76,5.28"/>
<path fill-rule="evenodd" clip-rule="evenodd" fill="none" stroke="#000000" stroke-width="2" stroke-linecap="round" stroke-linejoin="round" stroke-miterlimit="10" d="
	M251.28,601.92c0.4-1.6,0.667-3.249,1.231-4.789c0.889-2.428-0.08-4.924-2.619-5.839c-2.288,2.43-4.149,5.158-4.062,8.706
	c0.026,1.052,0.633,2.422,1.439,3.03c0.873,0.659,2.17,0.602,3.328-0.343c1.366-1.114,3.642-1.228,4-3.412
	c0.186-1.135,0.789-2.767-1.398-2.873"/>
<path fill-rule="evenodd" clip-rule="evenodd" fill="none" stroke="#000000" stroke-width="2" stroke-linecap="round" stroke-linejoin="round" stroke-miterlimit="10" d="
	M293.76,679.2c0.24,2.16,0.48,4.319,0.72,6.479"/>
<path fill-rule="evenodd" clip-rule="evenodd" fill="none" stroke="#000000" stroke-width="2" stroke-linecap="round" stroke-linejoin="round" stroke-miterlimit="10" d="
	M180.24,405.12c0.24,1.68,0.46,3.363,0.732,5.038c0.08,0.493,0.308,0.962,0.468,1.442"/>
<path fill-rule="evenodd" clip-rule="evenodd" fill="none" stroke="#000000" stroke-width="2" stroke-linecap="round" stroke-linejoin="round" stroke-miterlimit="10" d="
	M169.2,246.72c-0.906-2.654-3.619-2.34-5.519-3.364c-0.095-0.052-0.162-0.157-0.242-0.236"/>
<path fill-rule="evenodd" clip-rule="evenodd" fill="none" stroke="#000000" stroke-width="2" stroke-linecap="round" stroke-linejoin="round" stroke-miterlimit="10" d="
	M199.92,411.6c-0.88,0.32-1.919,0.444-2.605,1.003c-1.197,0.976-2.317,1.16-3.635,0.437"/>
<path fill-rule="evenodd" clip-rule="evenodd" fill="none" stroke="#000000" stroke-width="2" stroke-linecap="round" stroke-linejoin="round" stroke-miterlimit="10" d="
	M248.88,495.84c1.242,2.879,0.69,5.903,0.72,8.88"/>
<path fill-rule="evenodd" clip-rule="evenodd" fill="none" stroke="#000000" stroke-width="2" stroke-linecap="round" stroke-linejoin="round" stroke-miterlimit="10" d="
	M312.72,241.44c-1.563,1.49-4.026,2.168-4.319,4.8"/>
<path fill-rule="evenodd" clip-rule="evenodd" fill="none" stroke="#000000" stroke-width="2" stroke-linecap="round" stroke-linejoin="round" stroke-miterlimit="10" d="
	M318.96,241.2c-0.56,0.8-1.157,1.577-1.67,2.406c-0.526,0.852-0.97,1.753-1.45,2.634"/>
<path fill-rule="evenodd" clip-rule="evenodd" fill="none" stroke="#000000" stroke-width="2" stroke-linecap="round" stroke-linejoin="round" stroke-miterlimit="10" d="
	M248.4,477.36c-1.15,0.225-1.358,0.811-0.996,1.931c0.397,1.229,0.516,2.549,0.756,3.829"/>
<path fill-rule="evenodd" clip-rule="evenodd" fill="none" stroke="#000000" stroke-width="2" stroke-linecap="round" stroke-linejoin="round" stroke-miterlimit="10" d="
	M176.88,255.36c-0.715,2.57-2.88,2.24-4.8,2.4"/>
<path fill-rule="evenodd" clip-rule="evenodd" fill="none" stroke="#000000" stroke-width="2" stroke-linecap="round" stroke-linejoin="round" stroke-miterlimit="10" d="
	M255.36,591.6c-2.523-2.654-2.924-2.728-5.28-0.96"/>
<path fill-rule="evenodd" clip-rule="evenodd" fill="none" stroke="#000000" stroke-width="2" stroke-linecap="round" stroke-linejoin="round" stroke-miterlimit="10" d="
	M379.68,678.24c-1.283-0.215-2.567-0.429-4.111-0.686c-0.146,1.868-0.298,3.797-0.448,5.726"/>
<path fill-rule="evenodd" clip-rule="evenodd" fill="none" stroke="#000000" stroke-width="2" stroke-linecap="round" stroke-linejoin="round" stroke-miterlimit="10" d="
	M247.68,638.64c0,1.601,0,3.2,0,4.801"/>
<path fill-rule="evenodd" clip-rule="evenodd" fill="none" stroke="#000000" stroke-width="2" stroke-linecap="round" stroke-linejoin="round" stroke-miterlimit="10" d="
	M181.92,256.32c-0.444,2.076-2.371,2.456-3.84,3.36"/>
<path fill-rule="evenodd" clip-rule="evenodd" fill="none" stroke="#000000" stroke-width="2" stroke-linecap="round" stroke-linejoin="round" stroke-miterlimit="10" d="
	M177.84,243.84c-1.28-1.36-2.56-2.72-3.84-4.08"/>
<path fill-rule="evenodd" clip-rule="evenodd" fill="none" stroke="#000000" stroke-width="2" stroke-linecap="round" stroke-linejoin="round" stroke-miterlimit="10" d="
	M207.6,500.4c-0.16,1.6-0.32,3.199-0.48,4.8"/>
<path fill-rule="evenodd" clip-rule="evenodd" fill="none" stroke="#000000" stroke-width="2" stroke-linecap="round" stroke-linejoin="round" stroke-miterlimit="10" d="
	M320.4,247.44c-0.16,0.48-0.178,1.215-0.504,1.397c-1.67,0.932-2.716,2.424-3.816,3.883"/>
<path fill-rule="evenodd" clip-rule="evenodd" fill="none" stroke="#000000" stroke-width="2" stroke-linecap="round" stroke-linejoin="round" stroke-miterlimit="10" d="
	M322.32,261.84c-0.561-0.32-1.362-0.501-1.64-0.983c-1.362-2.374-3.419-2.086-5.561-1.656"/>
<path fill-rule="evenodd" clip-rule="evenodd" fill="none" stroke="#000000" stroke-width="2" stroke-linecap="round" stroke-linejoin="round" stroke-miterlimit="10" d="
	M294.24,376.08c1.673,1.11,1.236,2.997,1.68,4.56"/>
<path fill-rule="evenodd" clip-rule="evenodd" fill="none" stroke="#000000" stroke-width="2" stroke-linecap="round" stroke-linejoin="round" stroke-miterlimit="10" d="
	M251.76,486.48c0,1.52,0,3.04,0,4.56"/>
<path fill-rule="evenodd" clip-rule="evenodd" fill="none" stroke="#000000" stroke-width="2" stroke-linecap="round" stroke-linejoin="round" stroke-miterlimit="10" d="
	M166.32,248.64c2-0.96,3.964-2.006,6.008-2.86c3.159-1.32,6.408-2.135,9.832-0.98"/>
<path fill-rule="evenodd" clip-rule="evenodd" fill="none" stroke="#000000" stroke-width="2" stroke-linecap="round" stroke-linejoin="round" stroke-miterlimit="10" d="
	M326.4,242.16c-0.16,0.48-0.184,1.107-0.509,1.41c-0.709,0.658-1.571,1.15-2.372,1.71"/>
<path fill-rule="evenodd" clip-rule="evenodd" fill="none" stroke="#000000" stroke-width="2" stroke-linecap="round" stroke-linejoin="round" stroke-miterlimit="10" d="
	M169.92,241.92c1.12,1.04,2.24,2.08,3.36,3.12"/>
<path fill-rule="evenodd" clip-rule="evenodd" fill="none" stroke="#000000" stroke-width="2" stroke-linecap="round" stroke-linejoin="round" stroke-miterlimit="10" d="
	M249.6,534.24c-1.12,1.359-2.24,2.72-3.36,4.08"/>
<path fill-rule="evenodd" clip-rule="evenodd" fill="none" stroke="#000000" stroke-width="2" stroke-linecap="round" stroke-linejoin="round" stroke-miterlimit="10" d="
	M315.12,261.12c0.8,0.4,1.628,0.754,2.384,1.225c0.26,0.161,0.336,0.615,0.496,0.935"/>
<path fill-rule="evenodd" clip-rule="evenodd" fill="none" stroke="#000000" stroke-width="2" stroke-linecap="round" stroke-linejoin="round" stroke-miterlimit="10" d="
	M180.96,424.56c0.64,1.2,1.28,2.4,1.92,3.601"/>
<path fill-rule="evenodd" clip-rule="evenodd" fill="none" stroke="#000000" stroke-width="2" stroke-linecap="round" stroke-linejoin="round" stroke-miterlimit="10" d="
	M180.96,413.52c0.08,2.08,0.125,4.162,0.258,6.239c0.052,0.807,0.302,1.602,0.462,2.401"/>
<path fill-rule="evenodd" clip-rule="evenodd" fill="none" stroke="#000000" stroke-width="2" stroke-linecap="round" stroke-linejoin="round" stroke-miterlimit="10" d="
	M185.76,432.96c-0.88,0.96-1.76,1.92-2.64,2.88"/>
<path fill-rule="evenodd" clip-rule="evenodd" fill="none" stroke="#000000" stroke-width="2" stroke-linecap="round" stroke-linejoin="round" stroke-miterlimit="10" d="
	M253.68,601.44c0.08,1.199,0.16,2.399,0.24,3.6"/>
<path fill-rule="evenodd" clip-rule="evenodd" fill="none" stroke="#000000" stroke-width="2" stroke-linecap="round" stroke-linejoin="round" stroke-miterlimit="10" d="
	M337.68,245.76c-1.04,0.8-2.08,1.6-3.12,2.4"/>
<path fill-rule="evenodd" clip-rule="evenodd" fill="none" stroke="#000000" stroke-width="2" stroke-linecap="round" stroke-linejoin="round" stroke-miterlimit="10" d="
	M301.92,425.76c-1.2,0.721-2.4,1.44-3.6,2.16"/>
<path fill-rule="evenodd" clip-rule="evenodd" fill="none" stroke="#000000" stroke-width="2" stroke-linecap="round" stroke-linejoin="round" stroke-miterlimit="10" d="
	M386.4,273.84c-1.468-1.73-3.349-0.563-5.04-0.72"/>
<path fill-rule="evenodd" clip-rule="evenodd" fill="none" stroke="#000000" stroke-width="2" stroke-linecap="round" stroke-linejoin="round" stroke-miterlimit="10" d="
	M170.4,550.08c-1.44,0.24-2.88,0.479-4.32,0.72"/>
<path fill-rule="evenodd" clip-rule="evenodd" fill="none" stroke="#000000" stroke-width="2" stroke-linecap="round" stroke-linejoin="round" stroke-miterlimit="10" d="
	M168.96,411.84c-1.236,0.356-2.472,0.713-3.993,1.152c0.627,1.625,1.11,2.876,1.593,4.128"/>
<path fill-rule="evenodd" clip-rule="evenodd" fill="none" stroke="#000000" stroke-width="2" stroke-linecap="round" stroke-linejoin="round" stroke-miterlimit="10" d="
	M206.88,589.68c0.08,0.32,0.16,0.641,0.24,0.96c0.32-0.16,0.64-0.319,0.96-0.479"/>
<path fill-rule="evenodd" clip-rule="evenodd" fill="none" stroke="#000000" stroke-width="2" stroke-linecap="round" stroke-linejoin="round" stroke-miterlimit="10" d="
	M323.28,258.48c1.76,0.8,3.52,1.6,5.279,2.4"/>
<path fill-rule="evenodd" clip-rule="evenodd" fill="none" stroke="#000000" stroke-width="2" stroke-linecap="round" stroke-linejoin="round" stroke-miterlimit="10" d="
	M347.52,430.56c-0.96,0.48-1.92,0.96-2.88,1.44"/>
<path fill-rule="evenodd" clip-rule="evenodd" fill="none" stroke="#000000" stroke-width="2" stroke-linecap="round" stroke-linejoin="round" stroke-miterlimit="10" d="
	M342.96,246.48c-2.191,0.238-2.428,1.91-2.64,3.6"/>
<path fill-rule="evenodd" clip-rule="evenodd" fill="none" stroke="#000000" stroke-width="2" stroke-linecap="round" stroke-linejoin="round" stroke-miterlimit="10" d="
	M186.48,257.04c0.486,2.357-1.669,2.601-2.88,3.6"/>
<path fill-rule="evenodd" clip-rule="evenodd" fill="none" stroke="#000000" stroke-width="2" stroke-linecap="round" stroke-linejoin="round" stroke-miterlimit="10" d="
	M293.76,462.72c-0.627,0.092-1.254,0.183-1.957,0.285c0.128-0.684,0.203-1.084,0.277-1.485"/>
<path fill-rule="evenodd" clip-rule="evenodd" fill="none" stroke="#000000" stroke-width="2" stroke-linecap="round" stroke-linejoin="round" stroke-miterlimit="10" d="
	M200.64,408.96c0.16,0.32,0.32,0.64,0.48,0.96"/>
</svg>
