<?xml version="1.0" encoding="utf-8"?>
<!-- Generator: Adobe Illustrator 16.0.0, SVG Export Plug-In . SVG Version: 6.00 Build 0)  -->
<!DOCTYPE svg PUBLIC "-//W3C//DTD SVG 1.1//EN" "http://www.w3.org/Graphics/SVG/1.1/DTD/svg11.dtd">
<svg version="1.1" id="Layer_1" xmlns="http://www.w3.org/2000/svg" xmlns:xlink="http://www.w3.org/1999/xlink" x="0px" y="0px"
	 width="841.89px" height="595.28px" viewBox="0 0 841.89 595.28" enable-background="new 0 0 841.89 595.28" xml:space="preserve">
<path fill-rule="evenodd" clip-rule="evenodd" fill="none" stroke="#000000" stroke-width="2" stroke-linecap="round" stroke-linejoin="round" stroke-miterlimit="10" d="
	M377.04,261.4c-2.4,0.08-4.873-0.183-7.186,0.306c-6.281,1.327-12.591,2.662-18.712,4.565c-9.684,3.011-19.177,6.63-28.835,9.729
	c-10.023,3.216-20.131,6.173-30.233,9.14c-6.61,1.941-13.243,3.825-19.924,5.498c-4.988,1.249-10.07,2.121-15.11,3.161"/>
<path fill-rule="evenodd" clip-rule="evenodd" fill="none" stroke="#000000" stroke-width="2" stroke-linecap="round" stroke-linejoin="round" stroke-miterlimit="10" d="
	M372.96,261.88c-0.56,0.64-0.998,1.509-1.699,1.884c-5.966,3.183-11.932,6.374-17.993,9.373
	c-8.594,4.252-17.382,8.125-25.875,12.567c-7.837,4.1-15.396,8.732-23.073,13.138c-3.606,2.07-7.201,4.158-10.801,6.238"/>
<path fill-rule="evenodd" clip-rule="evenodd" fill="none" stroke="#000000" stroke-width="2" stroke-linecap="round" stroke-linejoin="round" stroke-miterlimit="10" d="
	M294.96,260.68c-2.422,2.961-6.315,3.031-9.4,4.728c-5.134,2.825-10.54,5.152-15.796,7.761c-9.935,4.93-19.853,9.895-29.753,14.893
	c-1.198,0.605-2.25,1.499-3.371,2.259"/>
<path fill-rule="evenodd" clip-rule="evenodd" fill="none" stroke="#000000" stroke-width="2" stroke-linecap="round" stroke-linejoin="round" stroke-miterlimit="10" d="
	M250.32,218.92c-2.48,2.88-4.815,5.902-7.473,8.608c-4.359,4.438-9.012,8.587-13.388,13.011
	c-7.044,7.122-14.892,13.49-20.586,21.888c5.689,5.691,11.463,11.437,17.202,17.217c5.46,5.5,11.014,10.916,16.283,16.594
	c4.127,4.448,7.78,9.333,11.83,13.856c4.112,4.595,8.468,8.971,12.686,13.471c2.671,2.851,5.15,5.896,7.958,8.602
	c4.279,4.126,8.74,8.065,13.188,12.011c1.104,0.979,1.773,2.609,3.58,2.662"/>
<path fill-rule="evenodd" clip-rule="evenodd" fill="none" stroke="#000000" stroke-width="2" stroke-linecap="round" stroke-linejoin="round" stroke-miterlimit="10" d="
	M210.96,343.721c-0.764,1.973,0.21,3.476,1.453,4.787c6.692,7.066,13.207,14.321,20.213,21.063
	c6.163,5.93,12.857,11.313,19.411,16.824c1.032,0.868,1.444,1.704,1.402,2.925"/>
<path fill-rule="evenodd" clip-rule="evenodd" fill="none" stroke="#000000" stroke-width="2" stroke-linecap="round" stroke-linejoin="round" stroke-miterlimit="10" d="
	M339.36,428.681c0.592,2.394,0.282,4.25-1.854,6.076c-3.6,3.079-6.581,6.885-10.188,9.953c-7.621,6.484-15.433,12.747-23.259,18.983
	c-3.313,2.641-6.895,4.939-10.275,7.498c-0.932,0.705-1.579,1.787-2.56,2.933c-0.668-0.733-1.541-1.552-2.252-2.492
	c-5.729-7.582-12.458-14.145-20.187-19.649c-4.375-3.116-7.611-7.28-11.029-11.298c-1.653-1.943-3.371-3.832-5.029-5.77
	c-0.852-0.996-1.252-2.103-0.486-3.354"/>
<path fill-rule="evenodd" clip-rule="evenodd" fill="none" stroke="#000000" stroke-width="2" stroke-linecap="round" stroke-linejoin="round" stroke-miterlimit="10" d="
	M377.16,345.88c-0.2,0.32-0.342,0.702-0.608,0.951c-9.51,8.891-18.984,17.821-28.571,26.628
	c-5.009,4.601-10.218,8.983-15.342,13.459c-1.069,0.934-2.638,1.5-2.398,3.362"/>
<path fill-rule="evenodd" clip-rule="evenodd" fill="none" stroke="#000000" stroke-width="2" stroke-linecap="round" stroke-linejoin="round" stroke-miterlimit="10" d="
	M418.56,519.16c-3.6-6.881-8.698-12.554-14.116-18.044c-4.849-4.913-9.447-10.091-13.922-15.352
	c-3.251-3.82-5.966-8.097-9.217-11.917c-2.123-2.495-2.38-5.25-2.338-8.207c0.055-3.921,0.372-7.851,0.182-11.758
	c-0.281-5.77-0.926-11.521-1.378-17.283c-0.144-1.835-0.17-3.68-0.25-5.52"/>
<path fill-rule="evenodd" clip-rule="evenodd" fill="none" stroke="#000000" stroke-width="2" stroke-linecap="round" stroke-linejoin="round" stroke-miterlimit="10" d="
	M335.04,133c-0.32,0.4-0.579,1.07-0.969,1.159c-5.054,1.147-8.839,4.446-12.42,7.775c-9.356,8.698-17.071,18.798-24.029,29.479
	c-0.716,1.098-1.141,2.386-1.701,3.586"/>
<path fill-rule="evenodd" clip-rule="evenodd" fill="none" stroke="#000000" stroke-width="2" stroke-linecap="round" stroke-linejoin="round" stroke-miterlimit="10" d="
	M292.56,427.24c0-2.08-0.074-4.163,0.014-6.239c0.284-6.722,0.736-13.438,0.895-20.162c0.068-2.872-0.428-5.759-0.669-8.639
	c-0.067-0.802-0.141-1.604-0.244-2.779c-0.728,0.326-1.467,0.449-1.894,0.881c-6.911,7.01-13.82,14.021-20.648,21.111
	c-4.947,5.136-9.718,10.441-14.688,15.554c-1.456,1.498-3.416,2.496-4.963,3.92c-0.655,0.603-0.843,1.714-1.243,2.594"/>
<path fill-rule="evenodd" clip-rule="evenodd" fill="none" stroke="#000000" stroke-width="2" stroke-linecap="round" stroke-linejoin="round" stroke-miterlimit="10" d="
	M246,301.721c-7.15,5.794-13.69,12.203-19.714,19.171c-2.844,3.289-6.22,6.12-9.043,9.426c-3.696,4.329-7.125,8.891-10.56,13.436
	c-0.549,0.727-0.523,1.888-0.764,2.848"/>
<path fill-rule="evenodd" clip-rule="evenodd" fill="none" stroke="#000000" stroke-width="2" stroke-linecap="round" stroke-linejoin="round" stroke-miterlimit="10" d="
	M296.88,207.64c-2.118-0.562-2.684,0.744-2.613,2.399c0.2,4.639,1.382,8.89,4.243,12.758c5.063,6.846,11.264,12.566,17.317,18.457
	c2.877,2.8,5.555,5.806,8.431,8.608c2.392,2.331,4.758,4.763,7.482,6.652c2.081,1.444,4.599,2.752,7.381,1.287
	c0.316-0.167,0.697-0.258,0.951-0.49c5.771-5.268,11.68-10.396,17.245-15.875c5.4-5.316,10.425-11.013,15.653-16.507
	c2.105-2.212,4.311-4.329,6.471-6.488"/>
<path fill-rule="evenodd" clip-rule="evenodd" fill="none" stroke="#000000" stroke-width="2" stroke-linecap="round" stroke-linejoin="round" stroke-miterlimit="10" d="
	M291.12,219.64c-5.36,4.4-10.749,8.765-16.072,13.209c-5.794,4.838-11.674,9.591-17.236,14.688c-3.65,3.344-6.878,7.179-8.675,11.95
	c-0.132,0.35-0.017,0.793-0.017,1.193"/>
<path fill-rule="evenodd" clip-rule="evenodd" fill="none" stroke="#000000" stroke-width="2" stroke-linecap="round" stroke-linejoin="round" stroke-miterlimit="10" d="
	M463.2,390.521c-4.64,4-9.316,7.958-13.91,12.011c-5.48,4.834-10.95,9.685-16.311,14.65c-3.94,3.65-7.729,7.469-11.524,11.273
	c-1.518,1.521-2.869,3.207-4.327,4.853c-7.293-0.663-14.571-1.325-21.849-1.987"/>
<path fill-rule="evenodd" clip-rule="evenodd" fill="none" stroke="#000000" stroke-width="2" stroke-linecap="round" stroke-linejoin="round" stroke-miterlimit="10" d="
	M551.52,346.12c-1.119,1.36-2.131,2.83-3.377,4.063c-8.206,8.114-16.45,16.19-24.708,24.252c-3.968,3.873-8.028,7.652-11.966,11.555
	c-0.762,0.756-1.148,1.891-1.709,2.851"/>
<path fill-rule="evenodd" clip-rule="evenodd" fill="none" stroke="#000000" stroke-width="2" stroke-linecap="round" stroke-linejoin="round" stroke-miterlimit="10" d="
	M336,392.681c2.96,2.8,6.005,5.516,8.859,8.421c3.608,3.673,6.966,7.595,10.607,11.232c3.802,3.798,7.809,7.392,11.735,11.064
	c2.15,2.011,4.272,4.055,6.499,5.978c0.998,0.862,2.219,1.464,3.339,2.185"/>
<path fill-rule="evenodd" clip-rule="evenodd" fill="none" stroke="#000000" stroke-width="2" stroke-linecap="round" stroke-linejoin="round" stroke-miterlimit="10" d="
	M509.76,387.16c-9.52-8.8-18.938-17.714-28.603-26.353c-4.869-4.352-9.843-8.548-13.895-13.714
	c-0.516-0.657-1.189-1.431-1.923-1.613c-0.791-0.196-2.271-0.048-2.537,0.444c-2.579,4.755-7.007,7.75-10.668,11.451
	c-7.678,7.761-15.45,15.43-23.286,23.032c-1.952,1.895-4.289,3.392-6.448,5.072"/>
<path fill-rule="evenodd" clip-rule="evenodd" fill="none" stroke="#000000" stroke-width="2" stroke-linecap="round" stroke-linejoin="round" stroke-miterlimit="10" d="
	M379.68,178.36c0.08,1.04,0.337,2.102,0.212,3.116c-0.99,8.006-2.092,15.999-3.074,24.006c-0.43,3.507-0.641,7.04-0.986,10.557
	c-0.153,1.56,0.33,2.773,1.688,3.601"/>
<path fill-rule="evenodd" clip-rule="evenodd" fill="none" stroke="#000000" stroke-width="2" stroke-linecap="round" stroke-linejoin="round" stroke-miterlimit="10" d="
	M360.48,240.76c6.264,5.652,12.183,11.652,18.017,17.744c2.953,3.083,2.475,6.595,1.947,10.342
	c-1.479,10.503-3.291,21.005-1.521,31.68c0.191,1.155-0.123,2.394-0.203,3.594"/>
<path fill-rule="evenodd" clip-rule="evenodd" fill="none" stroke="#000000" stroke-width="2" stroke-linecap="round" stroke-linejoin="round" stroke-miterlimit="10" d="
	M291.84,347.561c-0.24,0.319-0.737,0.694-0.682,0.952c1.323,6.269,1.174,12.623,1.15,18.968c-0.011,2.96-0.184,5.919-0.219,8.88
	c-0.041,3.439-0.009,6.88-0.009,10.32c0,0.88,0,1.76,0,2.64"/>
<path fill-rule="evenodd" clip-rule="evenodd" fill="none" stroke="#000000" stroke-width="2" stroke-linecap="round" stroke-linejoin="round" stroke-miterlimit="10" d="
	M293.04,390.04c3.28,0.721,6.535,1.604,9.849,2.101c2.113,0.317,4.317,0.163,6.47,0.041c7.05-0.402,14.095-0.887,21.358-1.353
	c1.998,7.212,3.475,14.829,3.695,22.729c0.11,3.935,1.075,7.866,1.874,11.753c0.427,2.078-0.492,4.409,1.154,6.25"/>
<path fill-rule="evenodd" clip-rule="evenodd" fill="none" stroke="#000000" stroke-width="2" stroke-linecap="round" stroke-linejoin="round" stroke-miterlimit="10" d="
	M339.12,433.721c0,4.64,0.383,9.319-0.091,13.91c-0.682,6.597-1.992,13.129-3.021,19.69c-0.061,0.391-0.001,0.799-0.009,1.199
	c-0.04,1.994,0.528,4.116-1.199,5.76"/>
<path fill-rule="evenodd" clip-rule="evenodd" fill="none" stroke="#000000" stroke-width="2" stroke-linecap="round" stroke-linejoin="round" stroke-miterlimit="10" d="
	M292.08,347.08c2.565,0.173,3.765,2.401,5.203,3.913c4.92,5.17,9.384,10.771,14.273,15.973c5.035,5.355,10.346,10.451,15.574,15.623
	c1.448,1.433,3.029,2.731,4.549,4.092"/>
<path fill-rule="evenodd" clip-rule="evenodd" fill="none" stroke="#000000" stroke-width="2" stroke-linecap="round" stroke-linejoin="round" stroke-miterlimit="10" d="
	M380.64,309.88c6.32,6.24,12.684,12.437,18.946,18.733c5.345,5.376,10.579,10.861,15.842,16.318c0.388,0.401,0.614,0.96,1.071,1.694
	c-1.605,0.175-2.89,0.389-4.18,0.441c-6.479,0.268-12.961,0.696-19.439,0.651c-3.523-0.024-7.041-0.878-10.561-1.359
	c-0.56-0.076-1.12-0.159-1.68-0.239"/>
<path fill-rule="evenodd" clip-rule="evenodd" fill="none" stroke="#000000" stroke-width="2" stroke-linecap="round" stroke-linejoin="round" stroke-miterlimit="10" d="
	M378.24,311.08c0.08,1.521,0.282,3.046,0.216,4.56c-0.168,3.843-0.399,7.686-0.715,11.519c-0.219,2.648-0.752,5.274-0.905,7.924
	c-0.161,2.791,0.217,5.629-0.117,8.389c-0.26,2.154,0.668,2.29,2.242,2.178c0.4-0.028,0.807,0.046,1.004,0.06
	c0.227,12.734,0.452,25.293,0.676,37.853"/>
<path fill-rule="evenodd" clip-rule="evenodd" fill="none" stroke="#000000" stroke-width="2" stroke-linecap="round" stroke-linejoin="round" stroke-miterlimit="10" d="
	M290.88,263.8c-0.4,0.64-0.679,1.416-1.219,1.898c-4.607,4.118-9.191,8.265-13.919,12.24c-5.441,4.574-10.99,9.021-16.559,13.441
	c-1.997,1.584-3.685,3.454-6.407,4.284c-1.814,0.554-3.074,2.879-4.632,4.36c-0.372,0.354-0.944,0.497-1.424,0.737"/>
<path fill-rule="evenodd" clip-rule="evenodd" fill="none" stroke="#000000" stroke-width="2" stroke-linecap="round" stroke-linejoin="round" stroke-miterlimit="10" d="
	M242.16,296.92c-2.56,0.64-5.106,1.346-7.684,1.903c-2.943,0.635-6.02,0.828-8.849,1.778c-3.24,1.088-6.521,1.673-9.869,2.064
	c-1.43,0.167-2.878,0.175-4.318,0.254"/>
<path fill-rule="evenodd" clip-rule="evenodd" fill="none" stroke="#000000" stroke-width="2" stroke-linecap="round" stroke-linejoin="round" stroke-miterlimit="10" d="
	M297.36,310.84c4.08,4.16,8.145,8.336,12.248,12.473c1.633,1.646,3.37,3.189,5.029,4.812c4.41,4.31,8.81,8.63,13.195,12.965
	c0.542,0.536,0.968,1.191,1.448,1.791"/>
<path fill-rule="evenodd" clip-rule="evenodd" fill="none" stroke="#000000" stroke-width="2" stroke-linecap="round" stroke-linejoin="round" stroke-miterlimit="10" d="
	M375.36,174.521c-1.901,0.524-3.759,2.104-5.962,0.051c0.306-0.336,0.628-0.662,0.92-1.013c1.715-2.062,2.089-4.208,1.549-6.979
	c-0.975-5.006-3.488-8.33-8.26-10.08c-2.693-0.988-3.507-0.649-4.337,2.177c-0.119,0.405-0.372,0.771-0.467,0.963
	c-2.15-0.103-4.311-0.207-6.86-0.329c0.271,1.09,0.368,1.82,0.631,2.483c1.084,2.729,0.198,4.623-2.136,6.297
	c-1.633,1.171-3.229,2.632-4.288,4.312c-1.772,2.811-0.71,6.239,2.09,8.116"/>
<path fill-rule="evenodd" clip-rule="evenodd" fill="none" stroke="#000000" stroke-width="2" stroke-linecap="round" stroke-linejoin="round" stroke-miterlimit="10" d="
	M421.92,350.92c-0.24,2.08-0.681,4.16-0.684,6.24c-0.011,7.68,0.049,15.362,0.244,23.039c0.068,2.727,0.6,5.441,0.92,8.161"/>
<path fill-rule="evenodd" clip-rule="evenodd" fill="none" stroke="#000000" stroke-width="2" stroke-linecap="round" stroke-linejoin="round" stroke-miterlimit="10" d="
	M337.2,122.68c-1.44-1.36-3.059-2.578-4.277-4.114c-1.685-2.124-3.586-3.81-6.289-4.253c-1.973-0.324-3.993-0.392-5.996-0.499
	c-1.356-0.072-2.719-0.03-4.079-0.009c-1.57,0.023-2.282,1.022-2.64,2.396"/>
<path fill-rule="evenodd" clip-rule="evenodd" fill="none" stroke="#000000" stroke-width="2" stroke-linecap="round" stroke-linejoin="round" stroke-miterlimit="10" d="
	M301.68,346.84c2.042,2.271,4.875,1.381,7.196,1.313c7.85-0.228,15.684-0.992,23.523-1.562c0.165-0.012,0.32-0.151,0.48-0.231"/>
<path fill-rule="evenodd" clip-rule="evenodd" fill="none" stroke="#000000" stroke-width="2" stroke-linecap="round" stroke-linejoin="round" stroke-miterlimit="10" d="
	M376.08,388.36c1.503,0.38,1.69,1.072,0.465,2.386c-1.62,1.737-3.29,3.434-5.035,5.043c-5.412,4.99-10.87,9.931-16.31,14.892"/>
<path fill-rule="evenodd" clip-rule="evenodd" fill="none" stroke="#000000" stroke-width="2" stroke-linecap="round" stroke-linejoin="round" stroke-miterlimit="10" d="
	M250.32,261.4c-1.55-0.995-2.53-0.096-3.615,0.944c-6.209,5.952-12.462,11.858-18.714,17.766c-0.249,0.235-0.631,0.33-0.951,0.489"
	/>
<path fill-rule="evenodd" clip-rule="evenodd" fill="none" stroke="#000000" stroke-width="2" stroke-linecap="round" stroke-linejoin="round" stroke-miterlimit="10" d="
	M292.08,431.08c-3.92,4.32-7.847,8.635-11.758,12.962c-2.811,3.11-5.602,6.238-8.402,9.358"/>
<path fill-rule="evenodd" clip-rule="evenodd" fill="none" stroke="#000000" stroke-width="2" stroke-linecap="round" stroke-linejoin="round" stroke-miterlimit="10" d="
	M235.2,290.68c-7.04,3.52-14.081,7.039-21.116,10.568c-0.192,0.097-0.324,0.313-0.484,0.473"/>
<path fill-rule="evenodd" clip-rule="evenodd" fill="none" stroke="#000000" stroke-width="2" stroke-linecap="round" stroke-linejoin="round" stroke-miterlimit="10" d="
	M295.44,176.68c-0.4,0.64-0.977,1.233-1.16,1.931c-0.306,1.162-0.451,2.385-0.503,3.59c-0.2,4.558-0.352,9.119-0.473,13.68
	c-0.013,0.476,0.297,0.959,0.457,1.439"/>
<path fill-rule="evenodd" clip-rule="evenodd" fill="none" stroke="#000000" stroke-width="2" stroke-linecap="round" stroke-linejoin="round" stroke-miterlimit="10" d="
	M226.56,281.56c-5.437,5.861-10.538,12-14.828,18.753c-0.917,1.443-1.2,3.216-3.143,3.892c-0.366,0.128-0.349,1.355-0.509,2.075"/>
<path fill-rule="evenodd" clip-rule="evenodd" fill="none" stroke="#000000" stroke-width="2" stroke-linecap="round" stroke-linejoin="round" stroke-miterlimit="10" d="
	M209.76,384.521c-0.075,1.848,0.643,2.864,2.63,3.186c1.335,0.216,2.524,1.255,3.862,1.563c1.63,0.376,3.348,0.491,5.028,0.487
	c1.041-0.002,2.069-0.564,3.122-0.653c4.471-0.376,8.957-0.255,13.438-0.252c0.48,0.001,1.064,0.002,1.423,0.254
	c2.353,1.647,4.953,0.755,7.457,0.814c2,0.047,4,0.081,6,0.121"/>
<path fill-rule="evenodd" clip-rule="evenodd" fill="none" stroke="#000000" stroke-width="2" stroke-linecap="round" stroke-linejoin="round" stroke-miterlimit="10" d="
	M250.08,162.76c5.347,2.643,9.425,1.603,12.48-1.68c-1.978-1.69-2.345-1.678-6.96,0.24"/>
<path fill-rule="evenodd" clip-rule="evenodd" fill="none" stroke="#000000" stroke-width="2" stroke-linecap="round" stroke-linejoin="round" stroke-miterlimit="10" d="
	M220.8,390.28c0.982,2.021,3.015,1.578,4.562,1.603c4.236,0.065,8.48-0.205,12.717-0.442c0.656-0.036,1.282-0.601,1.922-0.92"/>
<path fill-rule="evenodd" clip-rule="evenodd" fill="none" stroke="#000000" stroke-width="2" stroke-linecap="round" stroke-linejoin="round" stroke-miterlimit="10" d="
	M445.68,408.521c5.945,4.2,10.41,9.792,14.622,15.612c0.452,0.625,0.658,1.428,0.979,2.147"/>
<path fill-rule="evenodd" clip-rule="evenodd" fill="none" stroke="#000000" stroke-width="2" stroke-linecap="round" stroke-linejoin="round" stroke-miterlimit="10" d="
	M316.08,174.76c-1.017,3.604-1.819,7.137,1.892,9.878c0.487,0.36,0.84,1.25,0.819,1.88c-0.052,1.605-0.357,3.201-0.55,4.802
	c-0.569,4.734-2.986,6.032-9.13,6.894c-1.458,0.205-3.031-0.414-4.551-0.654"/>
<path fill-rule="evenodd" clip-rule="evenodd" fill="none" stroke="#000000" stroke-width="2" stroke-linecap="round" stroke-linejoin="round" stroke-miterlimit="10" d="
	M251.04,218.2c1.068-1.738,2.919-0.627,4.365-1.044c4.761-1.374,9.678-2.437,14.604-2.951c7.41-0.772,14.657,0.452,21.583,3.294
	c0.221,0.091,0.328,0.461,0.488,0.701"/>
<path fill-rule="evenodd" clip-rule="evenodd" fill="none" stroke="#000000" stroke-width="2" stroke-linecap="round" stroke-linejoin="round" stroke-miterlimit="10" d="
	M270.96,454.36c-5.36,5.359-10.723,10.717-16.07,16.09c-0.24,0.241-0.33,0.63-0.49,0.95"/>
<path fill-rule="evenodd" clip-rule="evenodd" fill="none" stroke="#000000" stroke-width="2" stroke-linecap="round" stroke-linejoin="round" stroke-miterlimit="10" d="
	M404.4,157.96c0.72-0.88,1.343-1.868,2.178-2.621c2.998-2.702,3.59-6.631,1.422-10.1c-1.25-2-1.319-2.043-3.996-2.422
	c-0.108,0.645-0.076,1.362-0.354,1.927c-0.537,1.09-1.012,2.504-1.942,3.044c-1.654,0.961-3.627,1.37-5.467,2.01"/>
<path fill-rule="evenodd" clip-rule="evenodd" fill="none" stroke="#000000" stroke-width="2" stroke-linecap="round" stroke-linejoin="round" stroke-miterlimit="10" d="
	M365.28,125.56c0.72-0.72,1.331-1.634,2.186-2.115c1.308-0.734,1.31-1.528,0.707-2.691c-1.19-2.295-2.567-3.08-4.079-2.133
	c-0.561,0.351-1.043,0.888-1.44,1.429c-1.323,1.798-2.711,3.417-5.293,2.871"/>
<path fill-rule="evenodd" clip-rule="evenodd" fill="none" stroke="#000000" stroke-width="2" stroke-linecap="round" stroke-linejoin="round" stroke-miterlimit="10" d="
	M216.48,358.601c3.76,4.479,7.459,9.013,11.315,13.409c1.231,1.403,1.362,2.383,0.538,4.153c-1.379,2.962-2.172,6.197-3.212,9.317"
	/>
<path fill-rule="evenodd" clip-rule="evenodd" fill="none" stroke="#000000" stroke-width="2" stroke-linecap="round" stroke-linejoin="round" stroke-miterlimit="10" d="
	M399.6,197.8c-0.351-3.36-2.457-5.832-4.378-8.355c-0.303-0.398-1.574-0.528-2.07-0.232c-3.25,1.934-3.708,6.116-1.514,9.336
	c2.657,3.898,6.807,4.78,10.86,5.908c0.511,0.143,1.262-0.577,1.902-0.897"/>
<path fill-rule="evenodd" clip-rule="evenodd" fill="none" stroke="#000000" stroke-width="2" stroke-linecap="round" stroke-linejoin="round" stroke-miterlimit="10" d="
	M306.96,328.36c-2.56,3.76-5.084,7.545-7.697,11.268c-1.087,1.55-1.699,3.156-1.423,5.053"/>
<path fill-rule="evenodd" clip-rule="evenodd" fill="none" stroke="#000000" stroke-width="2" stroke-linecap="round" stroke-linejoin="round" stroke-miterlimit="10" d="
	M420,346.36c0.851,0.242,1.578,0.489,1.466,1.683c-0.151,1.603,0.62,2.48,2.07,3.453c3.244,2.175,6.104,4.915,9.201,7.322
	c1.501,1.167,3.183,2.102,4.782,3.142"/>
<path fill-rule="evenodd" clip-rule="evenodd" fill="none" stroke="#000000" stroke-width="2" stroke-linecap="round" stroke-linejoin="round" stroke-miterlimit="10" d="
	M220.32,369.16c0.665,1.943-1.151,3.114-1.537,4.778c-0.593,2.564-1.878,4.963-2.751,7.473c-0.282,0.81-0.192,1.749-0.272,2.629"/>
<path fill-rule="evenodd" clip-rule="evenodd" fill="none" stroke="#000000" stroke-width="2" stroke-linecap="round" stroke-linejoin="round" stroke-miterlimit="10" d="
	M217.2,366.761c-1.12,2.88-2.301,5.737-3.341,8.646c-0.817,2.285-1.469,4.63-2.176,6.954c-0.606,1.991-1.309,2.25-3.363,1.199"/>
<path fill-rule="evenodd" clip-rule="evenodd" fill="none" stroke="#000000" stroke-width="2" stroke-linecap="round" stroke-linejoin="round" stroke-miterlimit="10" d="
	M394.8,431.08c-3.76-0.16-7.519-0.384-11.28-0.44c-1.116-0.017-2.239,0.44-3.359,0.681"/>
<path fill-rule="evenodd" clip-rule="evenodd" fill="none" stroke="#000000" stroke-width="2" stroke-linecap="round" stroke-linejoin="round" stroke-miterlimit="10" d="
	M292.56,321.641c0.08,3.52,0.067,7.045,0.266,10.559c0.204,3.606,0.582,7.204,0.971,10.797c0.055,0.509,0.604,0.964,0.924,1.444"/>
<path fill-rule="evenodd" clip-rule="evenodd" fill="none" stroke="#000000" stroke-width="2" stroke-linecap="round" stroke-linejoin="round" stroke-miterlimit="10" d="
	M308.64,184.36c3.002,1.368,3.961,3.081,3.36,6c-0.572,2.776-3.268,5.136-5.76,5.04"/>
<path fill-rule="evenodd" clip-rule="evenodd" fill="none" stroke="#000000" stroke-width="2" stroke-linecap="round" stroke-linejoin="round" stroke-miterlimit="10" d="
	M270,146.68c1.037,3.891,3.526,4.752,6.271,2.13c-1.675-2.631-4.411-2.859-6.98-2.529c-3.457,0.444-7.145,0.95-9.11,4.491
	c-1.7,3.064-3.228,6.225-4.8,9.358c-0.081,0.16,0.139,0.47,0.219,0.71"/>
<path fill-rule="evenodd" clip-rule="evenodd" fill="none" stroke="#000000" stroke-width="2" stroke-linecap="round" stroke-linejoin="round" stroke-miterlimit="10" d="
	M304.56,322.601c-1.36,1.76-2.817,3.455-4.057,5.295c-1.848,2.741-3.543,5.585-5.303,8.385"/>
<path fill-rule="evenodd" clip-rule="evenodd" fill="none" stroke="#000000" stroke-width="2" stroke-linecap="round" stroke-linejoin="round" stroke-miterlimit="10" d="
	M377.76,135.4c-0.227-0.565-0.454-1.13-0.647-1.612c0.214-0.261,0.462-0.774,0.643-0.751c3.786,0.475,7.692,0.221,11.289,1.874
	c2.137,0.982,3.334,1.577,2.636,6.009"/>
<path fill-rule="evenodd" clip-rule="evenodd" fill="none" stroke="#000000" stroke-width="2" stroke-linecap="round" stroke-linejoin="round" stroke-miterlimit="10" d="
	M300.72,121c-3.509-0.327-6.269,0.702-7.949,4.066c-0.879,1.76-2.052,3.374-3.091,5.054"/>
<path fill-rule="evenodd" clip-rule="evenodd" fill="none" stroke="#000000" stroke-width="2" stroke-linecap="round" stroke-linejoin="round" stroke-miterlimit="10" d="
	M292.08,303.4c0.08,0.479,0.043,1.023,0.262,1.428c0.671,1.241,0.932,2.365,0.521,3.869c-1.073,3.92-0.949,7.968-0.472,11.975
	c0.049,0.409,1.082,0.701,1.956,1.227c0.1,1.339,0.237,3.18,0.374,5.021"/>
<path fill-rule="evenodd" clip-rule="evenodd" fill="none" stroke="#000000" stroke-width="2" stroke-linecap="round" stroke-linejoin="round" stroke-miterlimit="10" d="
	M363.6,125.32c1.92,0.96,4.019,1.681,5.71,2.946c1.722,1.289,3.518,2.011,5.569,2.339c1.371,0.219,2.655,0.605,3.121,2.154"/>
<path fill-rule="evenodd" clip-rule="evenodd" fill="none" stroke="#000000" stroke-width="2" stroke-linecap="round" stroke-linejoin="round" stroke-miterlimit="10" d="
	M358.32,122.68c0.431-2.218,0.603-4.534-1.483-5.935c-1.454-0.977-3.299-1.401-5.014-1.928c-0.276-0.084-0.883,0.513-1.166,0.916
	c-1.211,1.727-2.358,3.499-3.756,5.594c-3.178-5.329-7.412-6.868-12.821-5.126"/>
<path fill-rule="evenodd" clip-rule="evenodd" fill="none" stroke="#000000" stroke-width="2" stroke-linecap="round" stroke-linejoin="round" stroke-miterlimit="10" d="
	M334.56,348.04c-0.16-0.479-0.184-1.096-0.504-1.416c-1.282-1.281-2.656-2.471-4.021-3.717c-5.636,2.279-11.51,1.669-17.314,1.781
	c-0.961,0.019-1.92,0.152-2.88,0.231"/>
<path fill-rule="evenodd" clip-rule="evenodd" fill="none" stroke="#000000" stroke-width="2" stroke-linecap="round" stroke-linejoin="round" stroke-miterlimit="10" d="
	M402.24,158.92c3.139-1.543,9.861-0.071,11.503,2.65c0.742,1.23,1.36,2.558,0.736,4.07"/>
<path fill-rule="evenodd" clip-rule="evenodd" fill="none" stroke="#000000" stroke-width="2" stroke-linecap="round" stroke-linejoin="round" stroke-miterlimit="10" d="
	M225.12,372.28c-1.68,4.4-3.36,8.8-5.04,13.2"/>
<path fill-rule="evenodd" clip-rule="evenodd" fill="none" stroke="#000000" stroke-width="2" stroke-linecap="round" stroke-linejoin="round" stroke-miterlimit="10" d="
	M268.08,136.84c-0.171,1.085,0.149,1.902,1.197,2.407c1.772,0.855,3.478,1.864,5.293,2.608c3.148,1.292,4.558,1.006,7.699-1.379
	c-2.378-2.487-5.927-1.098-8.735-2.604c2.002-2.124,4.511-1.994,6.79-2.454c0.615-0.124,1.276-0.009,1.917-0.021
	c1.517-0.029,2.849,0.092,4.203-1.319c0.967-1.008,3.065-0.979,4.683-1.287c0.603-0.114,1.274,0.129,1.914,0.209"/>
<path fill-rule="evenodd" clip-rule="evenodd" fill="none" stroke="#000000" stroke-width="2" stroke-linecap="round" stroke-linejoin="round" stroke-miterlimit="10" d="
	M214.32,360.521c-0.24,1.12-0.369,2.278-0.741,3.353c-1.06,3.061-2.221,6.087-3.333,9.13c-0.052,0.141,0.061,0.406-0.016,0.465
	c-2.92,2.195-2.275,5.192-1.967,8.179c0.066,0.64-0.584,1.354-0.904,2.034"/>
<path fill-rule="evenodd" clip-rule="evenodd" fill="none" stroke="#000000" stroke-width="2" stroke-linecap="round" stroke-linejoin="round" stroke-miterlimit="10" d="
	M406.32,164.68c1.508,1.999,4.05,2.159,5.987,3.381c1.349,0.851,2.853,1.692,3.763,2.926c0.696,0.943,0.571,2.493,0.811,3.773"/>
<path fill-rule="evenodd" clip-rule="evenodd" fill="none" stroke="#000000" stroke-width="2" stroke-linecap="round" stroke-linejoin="round" stroke-miterlimit="10" d="
	M271.2,153.64c-0.865-2.04-2.716-1.827-4.313-1.625c-2.028,0.256-4.004,0.917-6.008,1.378c-0.549,0.127-1.119,0.167-1.678,0.247"/>
<path fill-rule="evenodd" clip-rule="evenodd" fill="none" stroke="#000000" stroke-width="2" stroke-linecap="round" stroke-linejoin="round" stroke-miterlimit="10" d="
	M291.36,217.24c0-2.964,0-5.927,0-9.132c-1.964,0.976-3.396,1.938-3.36,4.092"/>
<path fill-rule="evenodd" clip-rule="evenodd" fill="none" stroke="#000000" stroke-width="2" stroke-linecap="round" stroke-linejoin="round" stroke-miterlimit="10" d="
	M205.32,362.681c0.28,2.56,0.643,5.115,0.794,7.683c0.051,0.862-0.224,1.911-0.727,2.599c-0.656,0.897-2.657,0.206-3.022-1.174
	c-0.644-2.437-1.006-4.948-1.486-7.428"/>
<path fill-rule="evenodd" clip-rule="evenodd" fill="none" stroke="#000000" stroke-width="2" stroke-linecap="round" stroke-linejoin="round" stroke-miterlimit="10" d="
	M320.4,118.84c-1.84-0.72-3.651-1.527-5.526-2.142c-4.089-1.343-10.573,0.635-13.151,4.094c-0.612,0.822-0.683,2.048-1.003,3.088"/>
<path fill-rule="evenodd" clip-rule="evenodd" fill="none" stroke="#000000" stroke-width="2" stroke-linecap="round" stroke-linejoin="round" stroke-miterlimit="10" d="
	M400.08,147.88c0.4-1.52,0.762-3.051,1.208-4.558c0.837-2.827-0.434-4.851-2.677-6.195c-2.125-1.273-4.495-2.057-6.931-0.528"/>
<path fill-rule="evenodd" clip-rule="evenodd" fill="none" stroke="#000000" stroke-width="2" stroke-linecap="round" stroke-linejoin="round" stroke-miterlimit="10" d="
	M399.12,181c2.34,0.724,2.984,1.677,3.147,3.838c0.287,3.796-0.555,7.286-2.427,10.562"/>
<path fill-rule="evenodd" clip-rule="evenodd" fill="none" stroke="#000000" stroke-width="2" stroke-linecap="round" stroke-linejoin="round" stroke-miterlimit="10" d="
	M288.48,305.32c-0.08,5.12-0.514,10.268-0.114,15.351c0.26,3.307-0.512,6.406-0.606,9.609"/>
<path fill-rule="evenodd" clip-rule="evenodd" fill="none" stroke="#000000" stroke-width="2" stroke-linecap="round" stroke-linejoin="round" stroke-miterlimit="10" d="
	M311.76,333.641c0-0.721,0-1.441,0-2.312c-2.394,1.511-2.439,1.484-5.259,6.403c-1.244,2.169-2.261,4.468-3.381,6.708"/>
<path fill-rule="evenodd" clip-rule="evenodd" fill="none" stroke="#000000" stroke-width="2" stroke-linecap="round" stroke-linejoin="round" stroke-miterlimit="10" d="
	M212.16,357.16c-1.28,2.96-2.528,5.935-3.863,8.869c-0.324,0.712-0.937,1.291-1.417,1.931"/>
<path fill-rule="evenodd" clip-rule="evenodd" fill="none" stroke="#000000" stroke-width="2" stroke-linecap="round" stroke-linejoin="round" stroke-miterlimit="10" d="
	M308.16,184.36c0.077,3.103,0.105,6.18-1.173,9.132c-0.634,1.466-1.305,2.779-2.907,3.348"/>
<path fill-rule="evenodd" clip-rule="evenodd" fill="none" stroke="#000000" stroke-width="2" stroke-linecap="round" stroke-linejoin="round" stroke-miterlimit="10" d="
	M390.48,204.521c0.56,0.24,1.103,0.538,1.683,0.708c1.383,0.406,1.61,1.515,0.914,2.376c-2.53,3.129-5.237,6.115-7.876,9.155"/>
<path fill-rule="evenodd" clip-rule="evenodd" fill="none" stroke="#000000" stroke-width="2" stroke-linecap="round" stroke-linejoin="round" stroke-miterlimit="10" d="
	M241.68,386.2c-4.464-0.987-8.932-0.81-13.446-0.29c-2.448,0.281-5.005,0.361-7.42-0.035c-2.551-0.418-4.437-0.029-5.774,2.245"/>
<path fill-rule="evenodd" clip-rule="evenodd" fill="none" stroke="#000000" stroke-width="2" stroke-linecap="round" stroke-linejoin="round" stroke-miterlimit="10" d="
	M210.24,351.4c-0.96,2.72-1.908,5.444-2.888,8.157c-0.267,0.739-0.632,1.442-0.952,2.163"/>
<path fill-rule="evenodd" clip-rule="evenodd" fill="none" stroke="#000000" stroke-width="2" stroke-linecap="round" stroke-linejoin="round" stroke-miterlimit="10" d="
	M325.2,173.8c-0.32,1.52-0.834,3.029-0.919,4.563c-0.162,2.932,0.237,5.764,2.591,7.926c0.456,0.419,0.808,0.951,1.208,1.431"/>
<path fill-rule="evenodd" clip-rule="evenodd" fill="none" stroke="#000000" stroke-width="2" stroke-linecap="round" stroke-linejoin="round" stroke-miterlimit="10" d="
	M409.2,172.12c1.162,1.181,0.147,1.976-0.472,2.886c-2.069,3.035-1.827,4.756,0.412,7.72c0.831,1.1,1.589,0.671,2.46,0.674"/>
<path fill-rule="evenodd" clip-rule="evenodd" fill="none" stroke="#000000" stroke-width="2" stroke-linecap="round" stroke-linejoin="round" stroke-miterlimit="10" d="
	M301.68,319.721c-1.656-0.427-1.951,1.098-2.612,1.941c-1.45,1.85-2.701,3.854-4.135,5.718c-0.47,0.61-1.253,0.98-1.893,1.46"/>
<path fill-rule="evenodd" clip-rule="evenodd" fill="none" stroke="#000000" stroke-width="2" stroke-linecap="round" stroke-linejoin="round" stroke-miterlimit="10" d="
	M281.52,197.32c-1.374,3.007-2.967,5.583-6.964,5.345c-1.596-0.095-2.429-0.771-3.116-1.985"/>
<path fill-rule="evenodd" clip-rule="evenodd" fill="none" stroke="#000000" stroke-width="2" stroke-linecap="round" stroke-linejoin="round" stroke-miterlimit="10" d="
	M299.76,192.76c0.72-1.76,1.482-3.504,2.133-5.29c0.18-0.494,0.027-1.11,0.027-1.67c-0.64,0.08-1.424-0.05-1.896,0.275
	c-2.694,1.855-2.907,4.338-0.763,6.941c0.3,0.365,0.566,1.001,0.463,1.415c-0.811,3.246,0.749,5.401,3.156,7.209"/>
<path fill-rule="evenodd" clip-rule="evenodd" fill="none" stroke="#000000" stroke-width="2" stroke-linecap="round" stroke-linejoin="round" stroke-miterlimit="10" d="
	M206.88,346.48c-1.898,0.889-3.575,2.144-5.74,2.611c-1.66,0.357-2.51,4.591-1.702,6.869c0.253,0.715,0.482,1.439,0.722,2.159"/>
<path fill-rule="evenodd" clip-rule="evenodd" fill="none" stroke="#000000" stroke-width="2" stroke-linecap="round" stroke-linejoin="round" stroke-miterlimit="10" d="
	M318.96,186.521c2.303,1.329,4.59,2.762,7.438,2.15c2.01-0.432,4.002-0.951,6.002-1.431"/>
<path fill-rule="evenodd" clip-rule="evenodd" fill="none" stroke="#000000" stroke-width="2" stroke-linecap="round" stroke-linejoin="round" stroke-miterlimit="10" d="
	M325.2,177.4c1.71,1.656,3.215,3.625,5.763,4.064c0.938,0.162,1.907,0.143,2.673,0.193c0.165-1.313,0.337-2.422,0.426-3.539
	c0.032-0.391-0.058-0.842-0.237-1.19c-0.693-1.35-1.002-2.781,0.288-3.807c1.308-1.041,2.23,0.518,3.327,0.919"/>
<path fill-rule="evenodd" clip-rule="evenodd" fill="none" stroke="#000000" stroke-width="2" stroke-linecap="round" stroke-linejoin="round" stroke-miterlimit="10" d="
	M402.24,204.76c-1.152,1.647-2.999,1.139-4.565,1.409c-1.334,0.23-2.715,0.191-4.075,0.271"/>
<path fill-rule="evenodd" clip-rule="evenodd" fill="none" stroke="#000000" stroke-width="2" stroke-linecap="round" stroke-linejoin="round" stroke-miterlimit="10" d="
	M294.72,198.28c0.8,0.96,1.502,2.028,2.422,2.855c1.429,1.284,2.996,1.848,5.045,1.056c1.376-0.532,3.013-0.391,4.533-0.551"/>
<path fill-rule="evenodd" clip-rule="evenodd" fill="none" stroke="#000000" stroke-width="2" stroke-linecap="round" stroke-linejoin="round" stroke-miterlimit="10" d="
	M302.16,120.76c1.28,0.08,2.645-0.093,3.82,0.3c1.679,0.563,3.22,1.54,4.82,2.34"/>
<path fill-rule="evenodd" clip-rule="evenodd" fill="none" stroke="#000000" stroke-width="2" stroke-linecap="round" stroke-linejoin="round" stroke-miterlimit="10" d="
	M340.08,170.92c-1.12,1.84-2.136,3.757-3.417,5.477c-0.439,0.589-1.542,0.683-2.343,1.003"/>
<path fill-rule="evenodd" clip-rule="evenodd" fill="none" stroke="#000000" stroke-width="2" stroke-linecap="round" stroke-linejoin="round" stroke-miterlimit="10" d="
	M273.12,202.84c0.564,3.04,2.645,4.457,5.281,3.603c0.554-0.179,1.119-0.323,1.679-0.482"/>
<path fill-rule="evenodd" clip-rule="evenodd" fill="none" stroke="#000000" stroke-width="2" stroke-linecap="round" stroke-linejoin="round" stroke-miterlimit="10" d="
	M327,340.601c-2.749,1.313-5.583,1.637-8.52,0.72"/>
<path fill-rule="evenodd" clip-rule="evenodd" fill="none" stroke="#000000" stroke-width="2" stroke-linecap="round" stroke-linejoin="round" stroke-miterlimit="10" d="
	M339.84,174.28c0.885,2.52,2.196,4.65,5.045,5.256c0.443,0.094,0.955-0.136,1.435-0.216"/>
<path fill-rule="evenodd" clip-rule="evenodd" fill="none" stroke="#000000" stroke-width="2" stroke-linecap="round" stroke-linejoin="round" stroke-miterlimit="10" d="
	M282.24,199.96c-0.48,1.12-1.05,2.21-1.424,3.365c-1.16,3.585,0.357,6.229,3.152,8.43c1.968-0.322,2.256-1.719,2.111-3.395"/>
<path fill-rule="evenodd" clip-rule="evenodd" fill="none" stroke="#000000" stroke-width="2" stroke-linecap="round" stroke-linejoin="round" stroke-miterlimit="10" d="
	M251.04,387.16c-3.28,0.32-6.56,0.641-9.84,0.96"/>
<path fill-rule="evenodd" clip-rule="evenodd" fill="none" stroke="#000000" stroke-width="2" stroke-linecap="round" stroke-linejoin="round" stroke-miterlimit="10" d="
	M269.52,185.8c-2.56,2.08-5.12,4.16-7.68,6.24"/>
<path fill-rule="evenodd" clip-rule="evenodd" fill="none" stroke="#000000" stroke-width="2" stroke-linecap="round" stroke-linejoin="round" stroke-miterlimit="10" d="
	M256.32,183.4c0.64,0.24,1.291,0.706,1.918,0.677c1.754-0.081,2.074,0.542,1.748,2.216c-0.252,1.295-0.08,2.746,0.213,4.059
	c0.459,2.057,2.094,2.837,4.041,2.866c1.838,0.027,3.679-0.154,5.52-0.204c0.398-0.011,0.8,0.146,1.2,0.227"/>
<path fill-rule="evenodd" clip-rule="evenodd" fill="none" stroke="#000000" stroke-width="2" stroke-linecap="round" stroke-linejoin="round" stroke-miterlimit="10" d="
	M252,295.96c-2.56,0.4-5.12,0.8-7.68,1.2"/>
<path fill-rule="evenodd" clip-rule="evenodd" fill="none" stroke="#000000" stroke-width="2" stroke-linecap="round" stroke-linejoin="round" stroke-miterlimit="10" d="
	M300,314.2c-2,2.32-4,4.64-6,6.96"/>
<path fill-rule="evenodd" clip-rule="evenodd" fill="none" stroke="#000000" stroke-width="2" stroke-linecap="round" stroke-linejoin="round" stroke-miterlimit="10" d="
	M269.76,183.4c0.635,3.22-0.316,5.85-2.868,7.935c-0.562,0.459-0.972,1.105-1.452,1.666"/>
<path fill-rule="evenodd" clip-rule="evenodd" fill="none" stroke="#000000" stroke-width="2" stroke-linecap="round" stroke-linejoin="round" stroke-miterlimit="10" d="
	M253.68,182.92c2.917,1.374,3.865-1.373,5.813-2.497c-1.523-1.646-3.107-1-4.614-0.867c-1.396,0.123-2.795,0.211-4.609-0.086
	c1.457-1.73,2.913-3.46,4.37-5.189"/>
<path fill-rule="evenodd" clip-rule="evenodd" fill="none" stroke="#000000" stroke-width="2" stroke-linecap="round" stroke-linejoin="round" stroke-miterlimit="10" d="
	M208.56,349.24c-2.826,3.505-5.365,7.113-3.814,11.991c0.153,0.479,0.003,1.585,1.174,1.089"/>
<path fill-rule="evenodd" clip-rule="evenodd" fill="none" stroke="#000000" stroke-width="2" stroke-linecap="round" stroke-linejoin="round" stroke-miterlimit="10" d="
	M378.24,210.76c-0.592,3.333-0.544,6.445,2.88,8.4"/>
<path fill-rule="evenodd" clip-rule="evenodd" fill="none" stroke="#000000" stroke-width="2" stroke-linecap="round" stroke-linejoin="round" stroke-miterlimit="10" d="
	M234.48,376.601c-0.8,1.6-1.551,3.228-2.426,4.785c-0.32,0.57-0.934,0.975-1.414,1.454"/>
<path fill-rule="evenodd" clip-rule="evenodd" fill="none" stroke="#000000" stroke-width="2" stroke-linecap="round" stroke-linejoin="round" stroke-miterlimit="10" d="
	M316.56,334.84c-2.54,1.569-3.527,4.247-4.8,6.721"/>
<path fill-rule="evenodd" clip-rule="evenodd" fill="none" stroke="#000000" stroke-width="2" stroke-linecap="round" stroke-linejoin="round" stroke-miterlimit="10" d="
	M384.72,217.96c-0.345-1.824,1.429-3.832-0.427-5.718c-2.149,1.653-2.484,4.004-2.86,6.21c-0.178,1.041,0.148,2.434,1.847,2.388"/>
<path fill-rule="evenodd" clip-rule="evenodd" fill="none" stroke="#000000" stroke-width="2" stroke-linecap="round" stroke-linejoin="round" stroke-miterlimit="10" d="
	M289.44,311.561c0.32,2.399,0.64,4.8,0.96,7.2"/>
<path fill-rule="evenodd" clip-rule="evenodd" fill="none" stroke="#000000" stroke-width="2" stroke-linecap="round" stroke-linejoin="round" stroke-miterlimit="10" d="
	M414.48,166.12c-2.431-2.008-5.177-2.451-7.44-1.2"/>
<path fill-rule="evenodd" clip-rule="evenodd" fill="none" stroke="#000000" stroke-width="2" stroke-linecap="round" stroke-linejoin="round" stroke-miterlimit="10" d="
	M294.48,197.8c-2.006,1.73-0.75,4.01-0.861,6.005c-0.065,1.17,0.861,2.395,1.341,3.595"/>
<path fill-rule="evenodd" clip-rule="evenodd" fill="none" stroke="#000000" stroke-width="2" stroke-linecap="round" stroke-linejoin="round" stroke-miterlimit="10" d="
	M268.08,139c-1.547,2.504,0.006,4.688,0.72,6.96"/>
<path fill-rule="evenodd" clip-rule="evenodd" fill="none" stroke="#000000" stroke-width="2" stroke-linecap="round" stroke-linejoin="round" stroke-miterlimit="10" d="
	M402.48,183.16c1.28,0.24,2.552,0.576,3.843,0.688c0.946,0.082,1.917-0.128,2.877-0.208"/>
<path fill-rule="evenodd" clip-rule="evenodd" fill="none" stroke="#000000" stroke-width="2" stroke-linecap="round" stroke-linejoin="round" stroke-miterlimit="10" d="
	M249.84,162.28c-0.416,2.519,0.348,3.854,3.115,5.528c0.435,0.263,0.805,0.632,1.205,0.952"/>
<path fill-rule="evenodd" clip-rule="evenodd" fill="none" stroke="#000000" stroke-width="2" stroke-linecap="round" stroke-linejoin="round" stroke-miterlimit="10" d="
	M416.16,174.28c-2.08-0.4-4.16-0.8-6.24-1.2"/>
<path fill-rule="evenodd" clip-rule="evenodd" fill="none" stroke="#000000" stroke-width="2" stroke-linecap="round" stroke-linejoin="round" stroke-miterlimit="10" d="
	M293.52,347.08c0.956-1.688,2.37-2.288,4.322-2.192c3.915,0.19,7.838,0.192,11.758,0.272"/>
<path fill-rule="evenodd" clip-rule="evenodd" fill="none" stroke="#000000" stroke-width="2" stroke-linecap="round" stroke-linejoin="round" stroke-miterlimit="10" d="
	M259.92,167.56c-2.967,0.349-5.926,0.813-7.891,3.382c-0.815,1.066-1.309,2.378-1.949,3.578"/>
<path fill-rule="evenodd" clip-rule="evenodd" fill="none" stroke="#000000" stroke-width="2" stroke-linecap="round" stroke-linejoin="round" stroke-miterlimit="10" d="
	M311.04,342.521c-2.24,0.08-4.48,0.16-6.72,0.24"/>
<path fill-rule="evenodd" clip-rule="evenodd" fill="none" stroke="#000000" stroke-width="2" stroke-linecap="round" stroke-linejoin="round" stroke-miterlimit="10" d="
	M200.88,358.12c-2.184,0.519-1.371,2.31-1.368,3.6c0.001,0.722,0.728,1.44,1.128,2.16"/>
<path fill-rule="evenodd" clip-rule="evenodd" fill="none" stroke="#000000" stroke-width="2" stroke-linecap="round" stroke-linejoin="round" stroke-miterlimit="10" d="
	M201.12,358.601c1.228,1.76,0.928,3.52,0,5.279"/>
<path fill-rule="evenodd" clip-rule="evenodd" fill="none" stroke="#000000" stroke-width="2" stroke-linecap="round" stroke-linejoin="round" stroke-miterlimit="10" d="
	M459.12,378.28c-1.521-1.36-3.04-2.72-4.561-4.08"/>
<path fill-rule="evenodd" clip-rule="evenodd" fill="none" stroke="#000000" stroke-width="2" stroke-linecap="round" stroke-linejoin="round" stroke-miterlimit="10" d="
	M274.8,192.521c-3.397-0.159-5.159,1.956-4.792,5.849c3.046-0.567,6.111-1.412,9.112,0.151"/>
<path fill-rule="evenodd" clip-rule="evenodd" fill="none" stroke="#000000" stroke-width="2" stroke-linecap="round" stroke-linejoin="round" stroke-miterlimit="10" d="
	M467.52,385.96c-1.199,1.36-2.377,2.742-3.638,4.044c-0.113,0.117-0.762-0.283-1.162-0.443"/>
<path fill-rule="evenodd" clip-rule="evenodd" fill="none" stroke="#000000" stroke-width="2" stroke-linecap="round" stroke-linejoin="round" stroke-miterlimit="10" d="
	M368.64,321.4c-1.12,1.6-2.24,3.2-3.36,4.8"/>
<path fill-rule="evenodd" clip-rule="evenodd" fill="none" stroke="#000000" stroke-width="2" stroke-linecap="round" stroke-linejoin="round" stroke-miterlimit="10" d="
	M293.52,307.721c1.859,0.824,2.479,1.866,1.804,4.117c-0.594,1.981-0.124,4.282-0.124,6.442"/>
<path fill-rule="evenodd" clip-rule="evenodd" fill="none" stroke="#000000" stroke-width="2" stroke-linecap="round" stroke-linejoin="round" stroke-miterlimit="10" d="
	M334.56,389.08c-0.405,2.13-2.408,1.265-3.6,1.92"/>
<path fill-rule="evenodd" clip-rule="evenodd" fill="none" stroke="#000000" stroke-width="2" stroke-linecap="round" stroke-linejoin="round" stroke-miterlimit="10" d="
	M240.72,381.16c-0.56,1.4-1.12,2.8-1.68,4.2"/>
<path fill-rule="evenodd" clip-rule="evenodd" fill="none" stroke="#000000" stroke-width="2" stroke-linecap="round" stroke-linejoin="round" stroke-miterlimit="10" d="
	M295.92,349.96c-0.55,1.64,0.208,2.895,1.2,4.08"/>
<path fill-rule="evenodd" clip-rule="evenodd" fill="none" stroke="#000000" stroke-width="2" stroke-linecap="round" stroke-linejoin="round" stroke-miterlimit="10" d="
	M315.12,342.521c-1.353,0.097-2.705,0.193-4.058,0.29c-0.077-0.336-0.154-0.671-0.231-1.007c3.854-0.133,8.252,0.975,10.049-3.844"
	/>
<path fill-rule="evenodd" clip-rule="evenodd" fill="none" stroke="#000000" stroke-width="2" stroke-linecap="round" stroke-linejoin="round" stroke-miterlimit="10" d="
	M369.84,314.44c-0.08,1.84-0.19,3.68-0.225,5.521c-0.013,0.718,0.145,1.439,0.225,2.159"/>
<path fill-rule="evenodd" clip-rule="evenodd" fill="none" stroke="#000000" stroke-width="2" stroke-linecap="round" stroke-linejoin="round" stroke-miterlimit="10" d="
	M211.68,383.32c1.905,0.649,4.338,0.085,5.52,2.4"/>
<path fill-rule="evenodd" clip-rule="evenodd" fill="none" stroke="#000000" stroke-width="2" stroke-linecap="round" stroke-linejoin="round" stroke-miterlimit="10" d="
	M463.68,382.36c0.881,0.8,1.706,1.674,2.658,2.376c0.709,0.522,1.582,0.824,2.382,1.224"/>
<path fill-rule="evenodd" clip-rule="evenodd" fill="none" stroke="#000000" stroke-width="2" stroke-linecap="round" stroke-linejoin="round" stroke-miterlimit="10" d="
	M300,194.44c1.28,0.8,2.56,1.6,3.84,2.4"/>
<path fill-rule="evenodd" clip-rule="evenodd" fill="none" stroke="#000000" stroke-width="2" stroke-linecap="round" stroke-linejoin="round" stroke-miterlimit="10" d="
	M318.48,180.521c-0.08,1.28-0.16,2.56-0.24,3.84"/>
<path fill-rule="evenodd" clip-rule="evenodd" fill="none" stroke="#000000" stroke-width="2" stroke-linecap="round" stroke-linejoin="round" stroke-miterlimit="10" d="
	M303.6,348.761c-1.12,0.399-2.24,0.8-3.36,1.199"/>
<path fill-rule="evenodd" clip-rule="evenodd" fill="none" stroke="#000000" stroke-width="2" stroke-linecap="round" stroke-linejoin="round" stroke-miterlimit="10" d="
	M336.96,258.76c-0.96,1.04-1.92,2.08-2.88,3.12"/>
<path fill-rule="evenodd" clip-rule="evenodd" fill="none" stroke="#000000" stroke-width="2" stroke-linecap="round" stroke-linejoin="round" stroke-miterlimit="10" d="
	M327.12,344.2c0.81,1.752-1.371,1.601-1.68,2.64"/>
<path fill-rule="evenodd" clip-rule="evenodd" fill="none" stroke="#000000" stroke-width="2" stroke-linecap="round" stroke-linejoin="round" stroke-miterlimit="10" d="
	M290.64,319.24c-0.24,0.96-0.48,1.92-0.72,2.88"/>
<path fill-rule="evenodd" clip-rule="evenodd" fill="none" stroke="#000000" stroke-width="2" stroke-linecap="round" stroke-linejoin="round" stroke-miterlimit="10" d="
	M294.72,217.24c-1.04,0.72-2.08,1.44-3.12,2.16"/>
<path fill-rule="evenodd" clip-rule="evenodd" fill="none" stroke="#000000" stroke-width="2" stroke-linecap="round" stroke-linejoin="round" stroke-miterlimit="10" d="
	M229.44,374.681c1.04,0.96,2.08,1.92,3.12,2.88"/>
<path fill-rule="evenodd" clip-rule="evenodd" fill="none" stroke="#000000" stroke-width="2" stroke-linecap="round" stroke-linejoin="round" stroke-miterlimit="10" d="
	M376.08,172.36c-0.157,1.397-0.658,2.835,0.48,4.08"/>
<path fill-rule="evenodd" clip-rule="evenodd" fill="none" stroke="#000000" stroke-width="2" stroke-linecap="round" stroke-linejoin="round" stroke-miterlimit="10" d="
	M378,175.96c-1.236,0.704-3.165,0.876-2.4,3.12"/>
<path fill-rule="evenodd" clip-rule="evenodd" fill="none" stroke="#000000" stroke-width="2" stroke-linecap="round" stroke-linejoin="round" stroke-miterlimit="10" d="
	M223.44,302.2c0.48,0.4,0.96,0.8,1.44,1.2"/>
<path fill-rule="evenodd" clip-rule="evenodd" fill="none" stroke="#000000" stroke-width="2" stroke-linecap="round" stroke-linejoin="round" stroke-miterlimit="10" d="
	M420.24,388.84c-0.953,0-1.905,0-3.133,0c0.079,0.168-0.074-0.156-0.227-0.479"/>
<path fill-rule="evenodd" clip-rule="evenodd" fill="none" stroke="#000000" stroke-width="2" stroke-linecap="round" stroke-linejoin="round" stroke-miterlimit="10" d="
	M249.36,177.16c0.16-0.4,0.32-0.8,0.48-1.2c0.16,0.24,0.32,0.48,0.48,0.72"/>
</svg>
