<?xml version="1.0" encoding="utf-8"?>
<!-- Generator: Adobe Illustrator 16.0.0, SVG Export Plug-In . SVG Version: 6.00 Build 0)  -->
<!DOCTYPE svg PUBLIC "-//W3C//DTD SVG 1.1//EN" "http://www.w3.org/Graphics/SVG/1.1/DTD/svg11.dtd">
<svg version="1.1" id="Layer_1" xmlns="http://www.w3.org/2000/svg" xmlns:xlink="http://www.w3.org/1999/xlink" x="0px" y="0px"
	 width="685.834px" height="514.318px" viewBox="0 0 685.834 514.318" enable-background="new 0 0 685.834 514.318"
	 xml:space="preserve">
<g>
	
		<path fill-rule="evenodd" clip-rule="evenodd" fill="none" stroke="#000000" stroke-width="2" stroke-linecap="round" stroke-linejoin="round" stroke-miterlimit="10" d="
		M246.673,440.904c0.136-6.073-0.734-12.029-2.043-17.941c-1.352-6.104-1.643-12.221-0.471-18.419
		c0.392-2.07,0.173-4.266,0.146-6.403c-0.045-3.523,0.345-7.017,0.696-10.51c0.203-2.017,0.138-3.939-0.689-5.834
		c-0.55-1.259-0.786-2.623-0.94-4c-0.199-1.771-0.35-1.97-2.039-2.166c-4.779-0.554-9.567-1.024-14.39-0.923
		c-0.305,0.007-0.681-0.064-0.902,0.083c-1.871,1.247-3.852,0.535-5.788,0.352c-8.82-0.837-17.656-1.454-26.508-1.79
		c-1.355-0.052-2.695-0.495-4.079-0.134c3.03,0.993,6.26,0.774,9.388,1.273c-0.155,1.093-0.79,0.836-1.256,0.812
		c-5.415-0.284-10.796-0.903-16.158-1.688c-0.917-0.134-1.822-0.218-2.736-0.117c-5.796,0.638-11.588,0.515-17.382-0.035
		c-1.291-0.122-2.593-0.155-3.891-0.167c-1.691-0.015-3.16-0.296-4.722-1.27c-1.532-0.955-3.374-1.679-5.286-2.006
		c-1.035-0.177-2.184-0.33-1.968-2.124c0.123-1.025-1.013-2.048-1.936-2.703c-5.21-3.697-7.771-9.101-9.626-14.921
		c-0.858-2.69-2.03-5.286-2.574-8.072c-0.587-3.004-0.888-6.036-0.831-9.105c0.023-1.22-0.037-2.448-0.167-3.661
		c-0.099-0.925-0.329-1.813,0.513-2.539c0.307-0.264,0.448-0.688,0.306-1.048c-0.671-1.708,0.239-2.93,1.189-4.159
		c0.083-0.107,0.073-0.286,0.109-0.446c-0.322-0.668-0.893-0.39-1.395-0.353c-3.418,0.251-6.832,0.805-10.267,0.231
		c-2.1-0.352-4.271-0.523-5.917-2.147c-0.389-0.383-0.88-0.661-1.434-0.64c-1.328,0.054-1.797-0.619-1.653-1.846
		c0.083-0.711-0.082-1.356-0.392-1.991c-1.145-2.34-0.977-4.683-0.208-7.121c1.454-4.606,3.463-8.978,5.623-13.265
		c1.799-3.569,2.942-7.363,4.383-11.056c1.272-3.262,2.175-6.647,3.481-9.907c1.797-4.482,3.975-8.74,6.552-12.804
		c0.473-0.745,0.584-1.791,1.583-2.16c0.256,0.361,0.276,0.885,0.944,1.185c2.155-4.391,3.857-8.985,6.232-13.361
		c-0.642-0.095-0.808,0.188-0.95,0.429c-1.857,3.141-3.606,6.338-4.79,9.804c-0.287,0.84-0.737,1.484-1.453,1.971
		c-0.095-1.261,0.253-2.461,0.789-3.545c1.86-3.765,3.764-7.511,6.029-11.058c0.164-0.257,0.317-0.539,0.54-0.738
		c2.029-1.815,3.136-4.262,4.452-6.554c0.96-1.673,1.975-3.451,3.473-4.502c1.664-1.168,2.935-2.747,4.487-3.844
		c1.919-1.357,3.639-3.074,6.042-3.918c0,0,11.791-7.477,17.983-9.54 M282.461,411.517c-0.381-0.545-0.779-0.855-0.421-1.537
		c0.381-0.727-0.121-1.314-0.377-1.936c-0.611-1.481-1.416-2.919-1.771-4.459c-0.277-1.199-1.575-2.725,0.42-3.775
		c0.141-0.075,0.132-0.578,0.076-0.859c-0.338-1.701-0.71-3.396-1.183-5.617c-0.879,2.467-1.48,4.398-0.889,6.485
		c0.286,1.009,0.074,1.947-0.208,2.919c-1.063,3.66-2.1,7.305-2.547,11.134c-0.315,2.698-1.484,5.28-1.938,8.001
		c-0.213,1.279-0.468,2.554-0.763,3.816c-0.372,1.596-0.709,3.068,0.889,4.357c0.862,0.695,0.292,1.665-0.573,2.004
		c-1.711,0.671-2.119,2.068-2.326,3.623c-0.364,2.722-1.049,5.463-0.94,8.169 M236.862,241.543c-0.045,1.314,0.452,2.399,1.052,3.45
		c0.982,1.72,2.065,3.382,3.106,5.068c0.299,0.485,0.792,0.677,1.286,0.901c1.161,0.527,2.08,1.437,2.526,2.559
		c1.2,3.017,3.252,5.511,4.86,8.272c4.305,7.395,9.414,14.293,13.516,21.817c0.846,1.551,1.745,2.983,3.907,2.989
		c1.099,0.003,1.908,0.875,2.387,1.922c0.477,1.041,1.01,2.06,1.444,3.118c0.634,1.546,0.405,2.276-1.163,2.904
		c-1.766,0.706-3.489,1.557-5.381,1.933c-0.499,0.099-0.997,0.146-0.68,1.031c0.314,0.877-0.605,1.078-1.258,1.253
		c-1.992,0.533-3.975,1.132-5.995,1.527c-1.54,0.301-2.937,0.773-3.994,1.864c-1.089-0.085-0.114-1.293-0.85-1.369
		c-0.582-0.06-1.207,0.104-1.787,0.262c-1.105,0.301-2.192,0.668-3.287,1.008c-0.588,0.183-1.184,0.335-1.8,0.179
		c-0.457-0.114-0.879-0.312-0.933-0.86c-0.044-0.456,0.286-0.677,0.631-0.856c0.471-0.245,0.976-0.435,1.418-0.721
		c0.312-0.201,0.628-0.531,0.331-0.946c-0.233-0.323-0.649-0.479-1.019-0.363c-0.345,0.106-0.7,0.334-0.937,0.606
		c-1,1.152-1.978,2.325-2.921,3.523c-0.524,0.667-0.857,1.424-0.884,2.313c-0.059,1.911-0.246,3.854,0.131,5.717
		c0.489,2.416-0.281,3.074-2.237,3.749c-0.354,0.123-0.705,0.256-1.032,0.375c0.016,0.243-0.025,0.42,0.043,0.526
		c1.438,2.23,1.423,2.167,4.043,1.457c5.466-1.481,11.021-2.418,16.69-2.705c4.123-0.209,8.18-1.021,12.26-1.606
		c6.52-0.935,13.039-1.438,19.632-0.83c2.201,0.203,4.416,0.284,6.608,0.603c0.89,0.129,1.828,0.067,2.069,1.347
		c0.151,0.802,1.005,0.842,1.694,0.847c0.771,0.006,1.513,0.024,2.218,0.419c1.897,1.063,2,1.38,1.251,3.481
		c-0.333,0.937-0.482,1.926-0.488,2.929c-0.017,2.822-0.064,5.645-0.046,8.467c0.022,3.372-0.52,6.699-0.726,10.047
		c-0.417,6.78-0.761,13.587,1.025,20.271c0.186,0.693,0.741,1.726-0.2,2.014c-1.184,0.363-1.071-0.923-1.341-1.639
		c-0.18-0.479-0.131-1.06-0.826-1.562c-0.375,1.604-0.307,3.116-0.154,4.594c0.664,6.454,1.08,12.933,2.065,19.356
		c0.21,1.373,0.733,2.055,2.04,2.305c0.896,0.172,1.811,0.365,2.647,0.717c1.45,0.61,1.69,1.426,1.017,2.841 M276.064,377.899
		c-0.437-5.534-0.969-7.853-2.316-9.536c0.596,1.084-0.266,2.474,0.253,3.206c0.96,1.354,0.788,2.866,1.23,4.267
		c0.227,0.718,0.264,1.487,0.854,2.047c-0.124,0.622,0.203,1.365-0.601,1.967c-1.241-2.03-1-4.424-2.052-6.444
		c0.458,3.753,0.916,7.505,1.427,11.692c0.735-2.006,0.475-3.761,1.456-5.235C276.672,379.325,276.419,378.524,276.064,377.899z
		 M215.103,234.211c2.889,1.599,5.703,3.23,9.081,3.572c2.194,0.222,4.057-0.613,5.09-2.549 M225.665,286.089
		c0.728-0.224,1.456-0.443,2.182-0.671c1.091-0.344,2.148-0.935,3.299-0.904c1.972,0.052,3.721-0.769,5.548-1.255
		c1.362-0.362,1.512-1.211,0.454-2.11c-0.928-0.79-2.001-1.41-2.919-2.21c-2.941-2.564-5.96-4.967-9.491-6.741
		c-3.286-1.651-3.173-1.766-5.545,0.996c-0.834,0.971-0.938,1.839-0.328,2.899c1.714,2.978,3.414,5.963,5.12,8.946
		C224.351,285.679,224.831,286.124,225.665,286.089z M214.094,277.541c-0.797,0.979-1.215,1.681-1.839,2.248
		c-3.331,3.023-5.572,6.631-5.677,11.303c-0.025,1.114,0.242,1.434,1.32,1.096c1.96-0.614,3.794-1.578,5.811-2.066
		c1.256-0.304,2.468-0.802,3.687-1.25c1.854-0.682,1.937-0.937,1.042-2.612c-0.719-1.346-1.424-2.7-2.104-4.066
		C215.625,280.773,214.956,279.336,214.094,277.541z M189.572,232.378c-0.029,0.533,0.018,1.072-0.036,1.602
		c-0.393,3.878,1.272,7.445,1.695,11.207c0.437,3.893,2.192,7.446,3.325,11.162c1.344,4.411,3.655,8.2,6.775,11.529
		c0.517,0.552,1.203,1.732,1.959,0.98c0.688-0.684-0.415-1.451-0.942-2.041c-2.401-2.687-4.576-5.495-5.88-8.925
		c-0.547-1.439-0.906-2.918-1.264-4.388c-1.138-4.668-2.154-9.368-2.256-14.206c0-0.995,0.029-1.988-0.006-2.978 M201.308,233.651
		c1.818,1.203,3.939,1.872,6.189,1.356c0.139-0.602-0.199-0.829-0.476-1.07 M222.231,333.716c2.699,0.098,5.227,0.523,7.735,1.03
		c2.704,0.546,5.396,0.92,8.172,0.899c7.875-0.059,15.721,0.372,23.483,1.825c1.051,0.197,2.105,0.378,3.147,0.616
		c0.814,0.187,1.613,0.274,1.819-0.753c0.234-1.166-0.793-1.135-1.486-1.262c-1.351-0.245-2.72-0.38-4.079-0.579
		c-5.063-0.744-10.176-1.324-15.265-1.396c-7.335-0.104-14.645-0.455-21.957-0.932C223.316,333.134,222.738,332.925,222.231,333.716
		z M194.19,287.576c-1.392-2.085-3.014-3.891-4.723-5.636c-2.852-2.913-5.137-6.194-6.632-10.049
		c-2.504-6.456-3.976-13.122-4.588-20.001c-0.062-0.693,0.069-1.884-0.939-1.736c-1.03,0.151-0.539,1.226-0.391,1.924
		c0.743,3.513,1.129,7.077,1.633,10.626c0.402,2.837,0.476,5.706,2.122,8.324c2.84,4.518,5.427,9.17,8.799,13.362
		C190.808,286.053,192.278,287.02,194.19,287.576z M177.141,337.625c-1.54,0.298-2.59,0.748-3.501,1.385
		c-4.199,2.942-7.958,6.418-11.74,9.862c-0.865,0.788-1.049,2.058-2.009,2.761c-4.32,3.167-7.775,7.311-11.98,10.606
		c-0.801,0.628-0.78,1.006,0.008,1.53c0.791,0.526,1.336,0.438,1.842-0.454c1.409-2.483,3.311-4.585,5.406-6.496
		c3.385-3.089,6.789-6.157,10.242-9.169C169.173,344.365,173.002,341.155,177.141,337.625z M218.967,239.784
		c-1.308,2.304-2.243,4.75-2.842,7.324c-0.917,3.933-1.996,7.817-3.504,11.572c-0.397,0.988-0.77,1.987-1.123,2.993
		c-0.182,0.517-0.313,1.123,0.418,1.296c0.564,0.134,0.765-0.401,0.926-0.82c0.848-2.198,1.714-4.392,2.506-6.611
		C217.167,250.449,217.61,245.028,218.967,239.784z M281.274,381.628c-1.745-7.851-2.436-15.92-5.307-23.5
		c-0.275,0.167-0.229,0.403-0.191,0.601c1.212,6.427,2.424,12.854,3.657,19.278C279.692,379.36,280.366,380.542,281.274,381.628z
		 M144.674,319.877c8.218,0.297,19.046-0.438,23.609-1.536C160.219,317.911,152.466,319.272,144.674,319.877z M306.831,389.687
		c0.475-1.747-0.061-2.513-1.897-2.787c-0.793-0.118-1.224,0.192-1.153,0.965 M189.997,316.834
		c-6.077-0.881-12.16-1.167-18.091,1.092c2.971-0.563,5.989-0.738,8.993-1.028C183.929,316.604,186.94,317.49,189.997,316.834z
		 M283.819,405.469c-0.193,1.938,1.654,6.957,3.159,8.718c0.203-1.989-0.215-3.843-0.53-5.702c-0.046-0.274-0.222-0.7-0.416-0.75
		C284.888,407.444,284.576,406.309,283.819,405.469z M167.658,299.286c0.15,0.014,0.3,0.036,0.451,0.039
		c6.535,0.093,13.08-0.259,19.604,0.431c0.981,0.104,1.937-0.038,2.933-1.075C182.766,299.525,175.174,298.84,167.658,299.286z
		 M192.284,316.416c0.908,1.865,2.836,1.417,4.299,1.99c2.498,0.98,2.608,0.902,4.893,0.37
		C198.382,317.652,195.415,316.795,192.284,316.416z M195.776,288.361c1.063,1.324,2.783,1.513,3.704,2.727
		c0.944,1.244,0.811,2.698,0.454,4.429c2.356-1.604,0.496-3.867,1.666-5.453c-1.953,0.246-1.953,0.246-3.557-1.023
		C197.434,288.558,196.895,287.844,195.776,288.361z M276.793,384.698c-1.841,2.609-0.242,4.92,0.481,7.336
		c0.377-1.264,0.561-2.508,0.455-3.819C277.631,386.984,276.812,385.959,276.793,384.698z M269.9,339.855
		c-0.406,2.209,0.5,4.155,0.913,6.245c1.618-1.003,1.768-1.173,1.115-2.19C271.104,342.628,270.628,341.203,269.9,339.855z
		 M282.269,398.605c-0.325-2.979-0.809-5.921-1.983-8.713C280.513,392.893,281.308,395.768,282.269,398.605z M298.168,387.619
		c0.339-0.989,0.333-1.824-0.042-2.723c-0.83,0.103-0.91,1.276-1.646,1.108c-1.396-0.319-1.154,0.595-1.4,1.672
		C296.269,386.928,297.188,387.441,298.168,387.619z M150.816,369.379c0.03-0.526,0.079-0.816,0.056-1.1
		c-0.042-0.524-0.097-1.111-0.8-1.123c-0.64-0.012-1.245,0.318-1.368,0.929c-0.125,0.623,0.544,0.793,1.015,0.987
		C149.984,369.183,150.275,369.231,150.816,369.379z"/>
	
		<path fill-rule="evenodd" clip-rule="evenodd" fill="none" stroke="#000000" stroke-width="2" stroke-linecap="round" stroke-linejoin="round" stroke-miterlimit="10" d="
		M201.142,375.183c1.498-0.329,2.991-0.78,4.922,0.055C204.108,375.815,202.618,375.7,201.142,375.183z"/>
	
		<path fill-rule="evenodd" clip-rule="evenodd" fill="none" stroke="#000000" stroke-width="2" stroke-linecap="round" stroke-linejoin="round" stroke-miterlimit="10" d="
		M229.274,235.234c-1.034,1.936-2.896,2.771-5.09,2.549c-3.378-0.342-6.192-1.973-9.081-3.572"/>
	
		<path fill-rule="evenodd" clip-rule="evenodd" fill="none" stroke="#000000" stroke-width="2" stroke-linecap="round" stroke-linejoin="round" stroke-miterlimit="10" d="
		M207.021,233.937c0.277,0.242,0.615,0.469,0.476,1.07c-2.25,0.516-4.371-0.154-6.189-1.356"/>
	
		<path fill-rule="evenodd" clip-rule="evenodd" fill="none" stroke="#000000" stroke-width="2" stroke-linecap="round" stroke-linejoin="round" stroke-miterlimit="10" d="
		M132.982,258.211c0.716-0.486,1.166-1.13,1.453-1.971c1.184-3.466,2.933-6.663,4.79-9.804c0.142-0.24,0.308-0.524,0.95-0.429
		c-2.375,4.375-4.078,8.97-6.232,13.361c-0.668-0.3-0.688-0.823-0.944-1.185L132.982,258.211z"/>
	
		<path fill-rule="evenodd" clip-rule="evenodd" fill="none" stroke="#000000" stroke-width="2" stroke-linecap="round" stroke-linejoin="round" stroke-miterlimit="10" d="
		M298.168,387.619c-0.98-0.178-1.899-0.691-3.088,0.058c0.247-1.077,0.004-1.991,1.4-1.672c0.737,0.168,0.816-1.006,1.646-1.108
		C298.501,385.795,298.508,386.63,298.168,387.619z"/>
	
		<path fill-rule="evenodd" clip-rule="evenodd" fill="none" stroke="#000000" stroke-width="2" stroke-linecap="round" stroke-linejoin="round" stroke-miterlimit="10" d="
		M150.816,369.379c-0.541-0.147-0.832-0.196-1.098-0.307c-0.471-0.194-1.14-0.364-1.015-0.987c0.123-0.61,0.728-0.94,1.368-0.929
		c0.703,0.012,0.758,0.599,0.8,1.123C150.895,368.563,150.846,368.853,150.816,369.379z"/>
</g>
<g>
	
		<path fill-rule="evenodd" clip-rule="evenodd" fill="none" stroke="#000000" stroke-width="2" stroke-linecap="round" stroke-linejoin="round" stroke-miterlimit="10" d="
		M271.705,457.71c0.467,2.504,1.86,4.496,3.423,6.434c1.65,2.045,3.578,3.416,6.178,4.209c2.278,0.693,4.302,2.213,6.451,3.342
		c3.301,1.734,6.961,1.842,10.545,2.301c2.145,0.275,4.374,0.32,6.4,0.979c3.189,1.033,5.279,3.539,6.403,6.598
		c2.6,7.074,3.084,5.744-3.662,7.91c-3.873,1.244-8.085,1.396-12.117,2.186c-4.978,0.975-9.468-0.762-13.986-2.33
		c-4.203-1.459-8.274-1.992-12.662-0.332c-2.031,0.77-4.561,0.494-6.83,0.301c-4.294-0.369-8.629-0.73-12.825-1.648
		c-3.435-0.752-3.317-1.521-2.657-4.701c0.485-2.338,2.025-4.457,3.096-6.674"/>
	
		<path fill-rule="evenodd" clip-rule="evenodd" fill="none" stroke="#000000" stroke-width="2" stroke-linecap="round" stroke-linejoin="round" stroke-miterlimit="10" d="
		M308.163,405.2c0.611,0.383,1.319,0.668,1.817,1.164c1.877,1.867,3.375,4.402,5.601,5.561c2.633,1.369,4.527,3.592,7.049,4.93
		c3.208,1.701,6.687,1.941,10.303,1.453c4.565-0.615,9.159-1.088,13.753-1.371c3.527-0.215,4.301,0.662,4.818,4.314
		c0.273,1.914,0.506,3.844,0.936,5.727c0.576,2.52-0.115,4.824-0.98,7.1c-0.186,0.486-0.818,0.965-1.346,1.131
		c-3.805,1.203-7.597,2.465-11.463,3.432c-4.316,1.082-8.669,2.166-13.074,2.678c-2.604,0.303-5.35-0.418-8.009-0.828
		c-2.843-0.436-5.643-1.264-8.495-1.486c-1.332-0.104-2.897,0.576-4.092,1.324c-4.051,2.535-8.68,2.221-13.101,2.916
		c-1.354,0.213-2.759,0.303-4.12,0.193c-0.638-0.051-1.676-0.621-1.768-1.104c-0.738-3.873-1.868-7.799-1.756-11.676
		c0.132-4.605,1.134-9.236,2.233-13.74c0.701-2.873-1.092-4.779-1.71-7.127c-0.771-2.922-2.305-5.807-2.335-8.719
		c-0.035-3.268-1.269-6.107-1.775-9.17"/>
	
		<path fill-rule="evenodd" clip-rule="evenodd" fill="none" stroke="#000000" stroke-width="2" stroke-linecap="round" stroke-linejoin="round" stroke-miterlimit="10" d="
		M241.208,292.155c-0.952,0.98-1.928,1.117-3.229,0.497c-1.762-0.84-3.635-1.46-5.489-2.09c-2.474-0.841-4.625,0.484-6.877,1.128
		c-1.543,0.441-3.131,1.371-4.584-0.223"/>
	
		<path fill-rule="evenodd" clip-rule="evenodd" fill="none" stroke="#000000" stroke-width="2" stroke-linecap="round" stroke-linejoin="round" stroke-miterlimit="10" d="
		M249.921,182.324c-0.535,1.682-1.467,3.35-1.524,5.047c-0.129,3.848-0.82,7.706-0.784,11.46c0.045,4.68-2.431,7.692-4.472,11.293
		c-2.334,4.117-3.906,8.664-5.835,13.013c-1.429,3.221-2.994,6.384-4.315,9.647c-0.74,1.828-1.107,3.807-1.642,5.718"/>
	
		<path fill-rule="evenodd" clip-rule="evenodd" fill="none" stroke="#000000" stroke-width="2" stroke-linecap="round" stroke-linejoin="round" stroke-miterlimit="10" d="
		M213.462,273.583c2.319,0.498,3.805,1.621,4.691,4.09c0.993,2.764,2.802,5.232,4.25,7.834c0.834,1.498,2.248,0.79,3.441,0.914
		c0.84,0.088,1.68,0.18,2.522,0.225c0.686,0.037,1.376,0.028,2.063,0.003c1.759-0.063,3.516-0.148,5.274-0.226"/>
	
		<path fill-rule="evenodd" clip-rule="evenodd" fill="none" stroke="#000000" stroke-width="2" stroke-linecap="round" stroke-linejoin="round" stroke-miterlimit="10" d="
		M204.52,156.413c0.041-3.534,2.653-5.339,5.073-7.068c5.38-3.846,11.494-5.48,18.084-5.05c2.612,0.17,5.2,0.729,7.798,1.113
		c0.46,0.068,0.918,0.224,1.375,0.217c6.499-0.099,11.478,2.987,15.26,7.887c1.198,1.552,1.166,4.05,1.711,6.11
		c0.446,1.685,0.915,3.364,1.373,5.045"/>
	
		<path fill-rule="evenodd" clip-rule="evenodd" fill="none" stroke="#000000" stroke-width="2" stroke-linecap="round" stroke-linejoin="round" stroke-miterlimit="10" d="
		M204.749,227.725c0.229,0,0.46-0.02,0.688,0.003c2.718,0.276,6.567,4.393,6.65,7.105"/>
	
		<path fill-rule="evenodd" clip-rule="evenodd" fill="none" stroke="#000000" stroke-width="2" stroke-linecap="round" stroke-linejoin="round" stroke-miterlimit="10" d="
		M204.749,153.662c-1.07,0.382-2.299,0.546-3.18,1.187c-2.681,1.951-5.525,3.81-7.758,6.214c-3.542,3.813-6.998,7.813-9.77,12.19
		c-1.277,2.017-2.317,4.172-4.326,5.333c-2.699,1.561-5.482,2.871-7.345,5.54c-0.272,0.39-1.204,0.27-1.783,0.503
		c-3.118,1.256-5.259,5.008-5.057,8.702c0.104,1.905-1.375,2.512-2.739,3.219c-0.942,0.488-2.083,0.865-2.705,1.638
		c-1.243,1.542-2.042,3.445-3.301,4.97c-1.415,1.712-1.036,2.952,0.503,4.154c0.734,0.573,1.524,1.077,2.288,1.612"/>
	
		<path fill-rule="evenodd" clip-rule="evenodd" fill="none" stroke="#000000" stroke-width="2" stroke-linecap="round" stroke-linejoin="round" stroke-miterlimit="10" d="
		M189.157,311.876c2.453,1.863,5.341,2.679,8.254,3.441c2.601,0.68,5.208,1.338,7.793,2.073c1.903,0.541,2.898,2.606,2.296,4.574
		c-0.305,0.994-0.611,1.987-0.917,2.981"/>
	
		<path fill-rule="evenodd" clip-rule="evenodd" fill="none" stroke="#000000" stroke-width="2" stroke-linecap="round" stroke-linejoin="round" stroke-miterlimit="10" d="
		M177.921,206.859c-3.255-0.775-5.835,3.498-5.516,6.422c0.149,1.368,0.166,2.75,0.242,4.126"/>
	
		<path fill-rule="evenodd" clip-rule="evenodd" fill="none" stroke="#000000" stroke-width="2" stroke-linecap="round" stroke-linejoin="round" stroke-miterlimit="10" d="
		M195.806,166.273c-1.223,1.299-2.667,2.454-3.628,3.925c-3.065,4.69-5.232,9.784-6.247,15.333
		c-0.116,0.632-0.443,1.226-0.673,1.837"/>
	
		<path fill-rule="evenodd" clip-rule="evenodd" fill="none" stroke="#000000" stroke-width="2" stroke-linecap="round" stroke-linejoin="round" stroke-miterlimit="10" d="
		M203.144,172.693c-1.381-1.602-2.492-0.385-3.417,0.483c-3.116,2.923-4.813,6.784-6.668,10.526
		c-1.17,2.358-2.297,4.737-3.444,7.106"/>
	
		<path fill-rule="evenodd" clip-rule="evenodd" fill="none" stroke="#000000" stroke-width="2" stroke-linecap="round" stroke-linejoin="round" stroke-miterlimit="10" d="
		M181.336,212.934c0,0,4.379,13.635,7.821,14.333s5.253,3.545,7.567,5.732"/>
	
		<path fill-rule="evenodd" clip-rule="evenodd" fill="none" stroke="#000000" stroke-width="2" stroke-linecap="round" stroke-linejoin="round" stroke-miterlimit="10" d="
		M300.826,376.767c0.305,1.223,0.577,2.457,0.927,3.666c0.335,1.16,0.858,2.273,1.114,3.447c0.462,2.123,0.758,4.281,1.176,6.414
		c0.584,2.986,1.458,5.939,1.769,8.951c0.422,4.086,2.709,7.529,3.499,11.459"/>
	
		<path fill-rule="evenodd" clip-rule="evenodd" fill="none" stroke="#000000" stroke-width="2" stroke-linecap="round" stroke-linejoin="round" stroke-miterlimit="10" d="
		M253.36,154.808c3.838,1.266,6.347,4.72,6.167,8.712c-0.086,1.917-0.615,3.824-0.604,5.733c0.008,1.454,0.552,2.905,0.858,4.357"/>
	
		<path fill-rule="evenodd" clip-rule="evenodd" fill="none" stroke="#000000" stroke-width="2" stroke-linecap="round" stroke-linejoin="round" stroke-miterlimit="10" d="
		M181.59,185.993c-1.623,3.09-2.391,6.41-2.767,9.858c-0.309,2.836-0.75,5.658-1.131,8.485"/>
	
		<path fill-rule="evenodd" clip-rule="evenodd" fill="none" stroke="#000000" stroke-width="2" stroke-linecap="round" stroke-linejoin="round" stroke-miterlimit="10" d="
		M260.239,173.84c1.376,2.37,2.82,4.704,4.07,7.138c0.248,0.482-0.136,1.397-0.42,2.026c-1.488,3.305-2.795,6.726-4.634,9.829
		c-1.908,3.221-2.08,6.414-1.33,9.904c0.814,3.787,2.792,6.499,6.145,8.587c1.744,1.087,3.267,2.078,5.341,1.956"/>
	
		<path fill-rule="evenodd" clip-rule="evenodd" fill="none" stroke="#000000" stroke-width="2" stroke-linecap="round" stroke-linejoin="round" stroke-miterlimit="10" d="
		M219.883,301.558c0.153,0.382,0.199,0.974,0.475,1.114c3.107,1.579,6.185,3.253,9.408,4.56c2.096,0.849,3.497,2.15,4.908,3.861
		c0.813,0.985,2.763,1.191,4.25,1.406c0.939,0.135,1.697-0.535,1.612-1.771c-0.136-1.982,0.086-4.027-0.319-5.944
		c-0.38-1.792,0.642-2.767,1.468-3.901c1.151-1.58,2.428-3.07,3.651-4.599"/>
	
		<path fill-rule="evenodd" clip-rule="evenodd" fill="none" stroke="#000000" stroke-width="2" stroke-linecap="round" stroke-linejoin="round" stroke-miterlimit="10" d="
		M204.749,190.579c-0.323,2.521,0.759,5.184-0.857,7.607c-0.211,0.317,0.323,1.225,0.64,1.787c1.693,3.001,3.686,6.093,2.873,9.616
		c-0.921,3.994-1.5,8.41-5.649,10.779c-0.914,0.522-1.976,0.785-2.969,1.167"/>
	
		<path fill-rule="evenodd" clip-rule="evenodd" fill="none" stroke="#000000" stroke-width="2" stroke-linecap="round" stroke-linejoin="round" stroke-miterlimit="10" d="
		M269.641,431.341c0,1.146,0,2.293,0,3.439c0,1.758-0.03,3.516,0.008,5.273c0.04,1.836,0.108,3.672,0.233,5.502
		c0.089,1.305,0.319,2.598,0.436,3.9c0.061,0.682-0.05,1.381,0.022,2.061c0.195,1.84,0.447,3.67,0.676,5.506"/>
	
		<path fill-rule="evenodd" clip-rule="evenodd" fill="none" stroke="#000000" stroke-width="2" stroke-linecap="round" stroke-linejoin="round" stroke-miterlimit="10" d="
		M233.412,225.432c-0.873-1.207-1.011-3.18-3.211-2.989c-1.372,0.119-2.757,0.104-4.125,0.253c-1.46,0.16-2.899,0.512-4.36,0.657
		c-2.615,0.259-5.039,1.068-7.336,2.308"/>
	
		<path fill-rule="evenodd" clip-rule="evenodd" fill="none" stroke="#000000" stroke-width="2" stroke-linecap="round" stroke-linejoin="round" stroke-miterlimit="10" d="
		M201.08,199.75c0.382,2.064,0.758,4.129,1.148,6.191c0.587,3.097,2.229,6.191-0.001,9.287"/>
	
		<path fill-rule="evenodd" clip-rule="evenodd" fill="none" stroke="#000000" stroke-width="2" stroke-linecap="round" stroke-linejoin="round" stroke-miterlimit="10" d="
		M220.571,175.445c0.545,2.792,0.146,5.068-2.226,7.184c-2.918,2.603-5.981,4.857-9.468,6.574"/>
	
		<path fill-rule="evenodd" clip-rule="evenodd" fill="none" stroke="#000000" stroke-width="2" stroke-linecap="round" stroke-linejoin="round" stroke-miterlimit="10" d="
		M247.857,191.038c-2.905,0.993-5.761,2.186-8.731,2.909c-1.894,0.46-3.957,0.225-5.944,0.301"/>
	
		<path fill-rule="evenodd" clip-rule="evenodd" fill="none" stroke="#000000" stroke-width="2" stroke-linecap="round" stroke-linejoin="round" stroke-miterlimit="10" d="
		M276.291,404.741c1.628-0.064,0.764,1.063,0.655,1.6c-0.621,3.07-1.338,6.121-2.032,9.178c-0.989,4.357-1.976,8.717-2.993,13.066
		c-0.131,0.559-0.445,1.074-0.675,1.609"/>
	
		<path fill-rule="evenodd" clip-rule="evenodd" fill="none" stroke="#000000" stroke-width="2" stroke-linecap="round" stroke-linejoin="round" stroke-miterlimit="10" d="
		M225.615,243.088c-0.535-0.841-1.166-1.637-1.587-2.531c-1.334-2.829-3.632-4.112-6.66-3.399c-1.495,0.353-2.912,1.039-4.364,1.573
		"/>
	
		<path fill-rule="evenodd" clip-rule="evenodd" fill="none" stroke="#000000" stroke-width="2" stroke-linecap="round" stroke-linejoin="round" stroke-miterlimit="10" d="
		M248.316,443.952c0.306,0.688,0.802,1.354,0.886,2.066c0.52,4.426,0.863,8.875,1.434,13.293c0.451,3.49,0.207,6.9-0.471,10.324
		c-0.417,2.109-0.685,4.246-1.075,6.723c2.315-0.465,4.21-0.844,6.104-1.223"/>
	
		<path fill-rule="evenodd" clip-rule="evenodd" fill="none" stroke="#000000" stroke-width="2" stroke-linecap="round" stroke-linejoin="round" stroke-miterlimit="10" d="
		M209.793,191.725c1.987,0.612,3.96,1.275,5.965,1.823c3.505,0.958,7.029,1.846,10.545,2.763"/>
	
		<path fill-rule="evenodd" clip-rule="evenodd" fill="none" stroke="#000000" stroke-width="2" stroke-linecap="round" stroke-linejoin="round" stroke-miterlimit="10" d="
		M227.22,166.502c2.026,0.29,3.108,1.45,3.709,3.427c0.979,3.218,4.065,5.01,7.525,4.585c1.232-0.151,2.447-0.446,3.67-0.675"/>
	
		<path fill-rule="evenodd" clip-rule="evenodd" fill="none" stroke="#000000" stroke-width="2" stroke-linecap="round" stroke-linejoin="round" stroke-miterlimit="10" d="
		M185.717,197.917c-2.343,3.637-2.707,7.775-2.944,11.925c-0.034,0.597,0.422,1.221,0.651,1.833"/>
	
		<path fill-rule="evenodd" clip-rule="evenodd" fill="none" stroke="#000000" stroke-width="2" stroke-linecap="round" stroke-linejoin="round" stroke-miterlimit="10" d="
		M221.717,314.397c-0.153,0.459-0.166,1.141-0.481,1.34c-1.942,1.219-3.919,2.393-5.96,3.434c-0.546,0.278-1.396,0.189-2.034,0.012
		c-1.402-0.391-2.68-0.278-3.907,0.489"/>
	
		<path fill-rule="evenodd" clip-rule="evenodd" fill="none" stroke="#000000" stroke-width="2" stroke-linecap="round" stroke-linejoin="round" stroke-miterlimit="10" d="
		M253.59,224.63c2.04,0.051,3.212-1.037,3.907-2.863c1.084-2.848,2.147-5.692,0.66-8.708c-0.332-0.674-0.929-1.212-1.352-1.847
		c-1.161-1.749-2.294-3.516-3.439-5.276c-0.235,0.235-0.617,0.434-0.671,0.699c-1.027,4.972-5.15,8.355-6.674,13.065
		c-0.372,1.15-0.763,2.293-1.145,3.44"/>
	
		<path fill-rule="evenodd" clip-rule="evenodd" fill="none" stroke="#000000" stroke-width="2" stroke-linecap="round" stroke-linejoin="round" stroke-miterlimit="10" d="
		M227.22,294.907c1.987,1.146,3.991,2.266,5.958,3.447c2.235,1.344,4.438,2.744,6.654,4.12"/>
	
		<path fill-rule="evenodd" clip-rule="evenodd" fill="none" stroke="#000000" stroke-width="2" stroke-linecap="round" stroke-linejoin="round" stroke-miterlimit="10" d="
		M251.985,210.528c0.382,0.688,1.036,1.353,1.097,2.068c0.206,2.435,0.086,4.899,0.323,7.329c0.137,1.4,0.71,2.759,1.104,4.131
		c0.584,2.035,0.212,3.85-1.389,5.263c-2.488,2.196-5.043,4.317-7.908,6.758c-1.31-3.31-3.1-5.942-2.859-9.269"/>
	
		<path fill-rule="evenodd" clip-rule="evenodd" fill="none" stroke="#000000" stroke-width="2" stroke-linecap="round" stroke-linejoin="round" stroke-miterlimit="10" d="
		M271.246,457.481c1.383-0.789,2.301-0.58,3.261,0.883c1.488,2.268,3.381,4.266,4.958,6.479c0.599,0.84,0.799,1.963,1.182,2.957"/>
	
		<path fill-rule="evenodd" clip-rule="evenodd" fill="none" stroke="#000000" stroke-width="2" stroke-linecap="round" stroke-linejoin="round" stroke-miterlimit="10" d="
		M198.099,184.158c-0.558,2.338-0.74,4.682-0.863,7.1c-0.132,2.591,0.282,5.06,0.438,7.574c0.316,5.103,0.551,10.234,2.259,15.136"
		/>
	
		<path fill-rule="evenodd" clip-rule="evenodd" fill="none" stroke="#000000" stroke-width="2" stroke-linecap="round" stroke-linejoin="round" stroke-miterlimit="10" d="
		M248.545,174.298c-0.612,0-1.296,0.182-1.823-0.029c-3.69-1.474-7.352-3.021-11.017-4.56c-1.623-0.682-3.08-1.958-5.046-1.373"/>
	
		<path fill-rule="evenodd" clip-rule="evenodd" fill="none" stroke="#000000" stroke-width="2" stroke-linecap="round" stroke-linejoin="round" stroke-miterlimit="10" d="
		M206.125,187.139c1.294,3.794,1.85,7.689,1.605,11.694"/>
	
		<path fill-rule="evenodd" clip-rule="evenodd" fill="none" stroke="#000000" stroke-width="2" stroke-linecap="round" stroke-linejoin="round" stroke-miterlimit="10" d="
		M235.934,312.334c0.077,0.612-0.077,1.524,0.266,1.787c2.732,2.091,2.18,5.313,2.946,8.073c0.064,0.232,0.151,0.459,0.228,0.688"/>
	
		<path fill-rule="evenodd" clip-rule="evenodd" fill="none" stroke="#000000" stroke-width="2" stroke-linecap="round" stroke-linejoin="round" stroke-miterlimit="10" d="
		M254.278,296.972c-0.153,1.07-0.306,2.14-0.459,3.21"/>
	
		<path fill-rule="evenodd" clip-rule="evenodd" fill="none" stroke="#000000" stroke-width="2" stroke-linecap="round" stroke-linejoin="round" stroke-miterlimit="10" d="
		M210.252,309.812c2.522,0.994,5.073,1.922,7.56,2.996c4.014,1.733,7.815,1.551,11.483-0.914c0.527-0.355,1.211-0.477,1.823-0.706"
		/>
	
		<path fill-rule="evenodd" clip-rule="evenodd" fill="none" stroke="#000000" stroke-width="2" stroke-linecap="round" stroke-linejoin="round" stroke-miterlimit="10" d="
		M345.078,426.524c2.293,0.076,4.586,0.154,6.879,0.23"/>
	
		<path fill-rule="evenodd" clip-rule="evenodd" fill="none" stroke="#000000" stroke-width="2" stroke-linecap="round" stroke-linejoin="round" stroke-miterlimit="10" d="
		M222.405,169.483c-4.948,3.748-10.074,7.226-15.608,10.057c-0.606,0.311-1.436,0.185-2.162,0.261"/>
	
		<path fill-rule="evenodd" clip-rule="evenodd" fill="none" stroke="#000000" stroke-width="2" stroke-linecap="round" stroke-linejoin="round" stroke-miterlimit="10" d="
		M174.252,195.165c-0.382,1.834-0.627,3.711-1.178,5.494c-0.862,2.794-1.875,5.451-3.745,7.899
		c-1.518,1.987-1.957,4.799-2.874,7.245"/>
	
		<path fill-rule="evenodd" clip-rule="evenodd" fill="none" stroke="#000000" stroke-width="2" stroke-linecap="round" stroke-linejoin="round" stroke-miterlimit="10" d="
		M168.749,203.649c-3.082,2.75-4.03,6.496-4.815,10.318"/>
	
		<path fill-rule="evenodd" clip-rule="evenodd" fill="none" stroke="#000000" stroke-width="2" stroke-linecap="round" stroke-linejoin="round" stroke-miterlimit="10" d="
		M218.965,264.64c-0.265,3.477-0.137,7.043-2.293,10.09"/>
	
		<path fill-rule="evenodd" clip-rule="evenodd" fill="none" stroke="#000000" stroke-width="2" stroke-linecap="round" stroke-linejoin="round" stroke-miterlimit="10" d="
		M229.055,226.808c-3.363,0.229-6.726,0.458-10.089,0.688"/>
	
		<path fill-rule="evenodd" clip-rule="evenodd" fill="none" stroke="#000000" stroke-width="2" stroke-linecap="round" stroke-linejoin="round" stroke-miterlimit="10" d="
		M249.921,427.442c-2.058,3.627-2.631,7.283-0.243,11.016c0.104,0.162,0.014,0.449,0.014,0.678"/>
	
		<path fill-rule="evenodd" clip-rule="evenodd" fill="none" stroke="#000000" stroke-width="2" stroke-linecap="round" stroke-linejoin="round" stroke-miterlimit="10" d="
		M189.845,194.591c-0.153,0.497-0.375,0.984-0.446,1.492c-0.191,1.371-0.404,2.747-0.447,4.126c-0.04,1.296,0.1,2.601,0.212,3.897
		c0.119,1.378,0.376,2.75,0.412,4.129c0.014,0.529-0.277,1.369-0.671,1.555c-2.477,1.167-4.937,2.59-7.568,3.143
		c-2.503,0.526-3.117,2.061-3.644,4.014"/>
	
		<path fill-rule="evenodd" clip-rule="evenodd" fill="none" stroke="#000000" stroke-width="2" stroke-linecap="round" stroke-linejoin="round" stroke-miterlimit="10" d="
		M214.609,179.572c-0.717,3.476-3.215,5.644-5.733,7.795c-0.454,0.388-0.917,0.765-1.375,1.147"/>
	
		<path fill-rule="evenodd" clip-rule="evenodd" fill="none" stroke="#000000" stroke-width="2" stroke-linecap="round" stroke-linejoin="round" stroke-miterlimit="10" d="
		M303.577,384.792c1.375,0.23,2.808,0.297,4.106,0.748c0.823,0.285,1.803,0.66,1.026,2.275c-1.247,2.594-1.923,5.461-2.84,8.213"/>
	
		<path fill-rule="evenodd" clip-rule="evenodd" fill="none" stroke="#000000" stroke-width="2" stroke-linecap="round" stroke-linejoin="round" stroke-miterlimit="10" d="
		M230.66,205.483c0.357,2.942,1.488,5.473,3.645,7.591c1.388,1.363,1.189,1.668-0.653,2.744c-1.417,0.827-2.743,1.81-4.184,2.773
		c-0.884-3.451-1.535-3.583-6.833-1.644c-0.99-1.65-0.97-1.712,0.917-2.751"/>
	
		<path fill-rule="evenodd" clip-rule="evenodd" fill="none" stroke="#000000" stroke-width="2" stroke-linecap="round" stroke-linejoin="round" stroke-miterlimit="10" d="
		M250.379,191.725c0.167,3.213,0.536,6.467-1.834,9.172"/>
	
		<path fill-rule="evenodd" clip-rule="evenodd" fill="none" stroke="#000000" stroke-width="2" stroke-linecap="round" stroke-linejoin="round" stroke-miterlimit="10" d="
		M280.418,386.856c-0.229,0.688-0.676,1.385-0.649,2.063c0.099,2.443-1.196,4.453-1.874,6.65"/>
	
		<path fill-rule="evenodd" clip-rule="evenodd" fill="none" stroke="#000000" stroke-width="2" stroke-linecap="round" stroke-linejoin="round" stroke-miterlimit="10" d="
		M164.851,200.897c-1.07,1.07-2.409,1.985-3.142,3.25c-0.919,1.585-1.341,3.459-2.092,5.522c1.024,0.379,1.982,0.733,2.941,1.088"/>
	
		<path fill-rule="evenodd" clip-rule="evenodd" fill="none" stroke="#000000" stroke-width="2" stroke-linecap="round" stroke-linejoin="round" stroke-miterlimit="10" d="
		M241.896,228.872c-0.612,0.841-1.162,1.735-1.846,2.512c-1.845,2.097-2.964,2.121-5.721,0.24"/>
	
		<path fill-rule="evenodd" clip-rule="evenodd" fill="none" stroke="#000000" stroke-width="2" stroke-linecap="round" stroke-linejoin="round" stroke-miterlimit="10" d="
		M197.87,205.712c-2.599,0.917-5.198,1.834-7.796,2.752"/>
	
		<path fill-rule="evenodd" clip-rule="evenodd" fill="none" stroke="#000000" stroke-width="2" stroke-linecap="round" stroke-linejoin="round" stroke-miterlimit="10" d="
		M232.036,310.041c-0.495,0.476-0.946,0.741-0.276,1.641c1.745,2.341,3.257,4.856,4.862,7.302"/>
	
		<path fill-rule="evenodd" clip-rule="evenodd" fill="none" stroke="#000000" stroke-width="2" stroke-linecap="round" stroke-linejoin="round" stroke-miterlimit="10" d="
		M253.131,197.229c-1.946,2.904-1.069,5.809,0,8.713"/>
	
		<path fill-rule="evenodd" clip-rule="evenodd" fill="none" stroke="#000000" stroke-width="2" stroke-linecap="round" stroke-linejoin="round" stroke-miterlimit="10" d="
		M251.297,295.595c-1.116,2.824-3.08,4.558-6.191,4.816"/>
	
		<path fill-rule="evenodd" clip-rule="evenodd" fill="none" stroke="#000000" stroke-width="2" stroke-linecap="round" stroke-linejoin="round" stroke-miterlimit="10" d="
		M177.233,184.846c-1.908,1.112-3.044,2.785-3.952,4.791c-0.813,1.797-1.874,3.583-3.205,5.024
		c-2.097,2.271-2.717,5.089-3.634,7.836c-0.214,0.642-0.598,1.228-0.904,1.839"/>
	
		<path fill-rule="evenodd" clip-rule="evenodd" fill="none" stroke="#000000" stroke-width="2" stroke-linecap="round" stroke-linejoin="round" stroke-miterlimit="10" d="
		M305.87,403.825c0,1.91,0,3.82,0,5.732c0,0.535,0,1.07,0,1.604"/>
	
		<path fill-rule="evenodd" clip-rule="evenodd" fill="none" stroke="#000000" stroke-width="2" stroke-linecap="round" stroke-linejoin="round" stroke-miterlimit="10" d="
		M190.074,169.483c-1.07,1.375-2.197,2.712-3.192,4.14c-0.778,1.117-1.636,1.713-2.999,1.134"/>
	
		<path fill-rule="evenodd" clip-rule="evenodd" fill="none" stroke="#000000" stroke-width="2" stroke-linecap="round" stroke-linejoin="round" stroke-miterlimit="10" d="
		M247.628,170.171c0.688,1.911,1.312,3.848,2.083,5.725c0.646,1.571,1.705,3.021,0.691,4.836c-0.163,0.292-0.152,0.814-0.002,1.124
		c1.336,2.769,0.496,5.513-0.021,8.265"/>
	
		<path fill-rule="evenodd" clip-rule="evenodd" fill="none" stroke="#000000" stroke-width="2" stroke-linecap="round" stroke-linejoin="round" stroke-miterlimit="10" d="
		M160.036,210.298c-0.901,2.795-0.741,3.41,1.609,3.62c3.367,0.3,5.5,2.13,7.104,4.865"/>
	
		<path fill-rule="evenodd" clip-rule="evenodd" fill="none" stroke="#000000" stroke-width="2" stroke-linecap="round" stroke-linejoin="round" stroke-miterlimit="10" d="
		M171.5,188.057c-1.911,1.834-3.822,3.668-5.732,5.503"/>
	
		<path fill-rule="evenodd" clip-rule="evenodd" fill="none" stroke="#000000" stroke-width="2" stroke-linecap="round" stroke-linejoin="round" stroke-miterlimit="10" d="
		M257.029,199.98c-0.458,1.07-0.882,2.157-1.386,3.205c-0.489,1.017-1.06,1.993-1.595,2.986"/>
	
		<path fill-rule="evenodd" clip-rule="evenodd" fill="none" stroke="#000000" stroke-width="2" stroke-linecap="round" stroke-linejoin="round" stroke-miterlimit="10" d="
		M245.105,199.063c-0.382,0.153-0.855,0.209-1.132,0.473c-3.232,3.073-6.935,2.827-10.791,1.59"/>
	
		<path fill-rule="evenodd" clip-rule="evenodd" fill="none" stroke="#000000" stroke-width="2" stroke-linecap="round" stroke-linejoin="round" stroke-miterlimit="10" d="
		M196.494,193.101c-1.375,1.07-2.732,2.166-4.135,3.2c-0.8,0.59-1.674,1.08-2.515,1.615"/>
	
		<path fill-rule="evenodd" clip-rule="evenodd" fill="none" stroke="#000000" stroke-width="2" stroke-linecap="round" stroke-linejoin="round" stroke-miterlimit="10" d="
		M196.724,220.846c0.841,0.688,1.807,1.27,2.496,2.086c1.418,1.681,2.125,4.11,4.841,4.334"/>
	
		<path fill-rule="evenodd" clip-rule="evenodd" fill="none" stroke="#000000" stroke-width="2" stroke-linecap="round" stroke-linejoin="round" stroke-miterlimit="10" d="
		M222.634,167.19c0.733,3.787,4.4,6.13,8.255,5.274"/>
	
		<path fill-rule="evenodd" clip-rule="evenodd" fill="none" stroke="#000000" stroke-width="2" stroke-linecap="round" stroke-linejoin="round" stroke-miterlimit="10" d="
		M221.029,171.318c0.417,2.677-0.835,4.555-3.669,5.503c-0.458,0.153-1.156,0.168-1.337,0.481c-1.167,2.02-3.515,2.446-5.064,3.896
		c-1.616,1.512-2.993,3.281-4.625,4.773c-2.586,2.364-5.486,4.305-8.694,5.753"/>
	
		<path fill-rule="evenodd" clip-rule="evenodd" fill="none" stroke="#000000" stroke-width="2" stroke-linecap="round" stroke-linejoin="round" stroke-miterlimit="10" d="
		M239.832,303.392c-2.14,1.452-4.28,2.904-6.42,4.356"/>
	
		<path fill-rule="evenodd" clip-rule="evenodd" fill="none" stroke="#000000" stroke-width="2" stroke-linecap="round" stroke-linejoin="round" stroke-miterlimit="10" d="
		M201.08,221.076c2.498,4.476,4.005,9.668,8.943,12.382"/>
	
		<path fill-rule="evenodd" clip-rule="evenodd" fill="none" stroke="#000000" stroke-width="2" stroke-linecap="round" stroke-linejoin="round" stroke-miterlimit="10" d="
		M264.826,212.821c-1.66,1.073-3.226,0.164-4.815-0.229c-0.612-0.152-1.223-0.306-1.834-0.458"/>
	
		<path fill-rule="evenodd" clip-rule="evenodd" fill="none" stroke="#000000" stroke-width="2" stroke-linecap="round" stroke-linejoin="round" stroke-miterlimit="10" d="
		M211.857,199.292c0.917,0.306,1.943,0.442,2.732,0.947c3.317,2.121,6.697,2.737,10.35,0.912c0.367-0.183,0.905-0.024,1.364-0.024"
		/>
	
		<path fill-rule="evenodd" clip-rule="evenodd" fill="none" stroke="#000000" stroke-width="2" stroke-linecap="round" stroke-linejoin="round" stroke-miterlimit="10" d="
		M271.475,432.028c-0.458,2.064-0.917,4.127-1.376,6.191"/>
	
		<path fill-rule="evenodd" clip-rule="evenodd" fill="none" stroke="#000000" stroke-width="2" stroke-linecap="round" stroke-linejoin="round" stroke-miterlimit="10" d="
		M276.061,405.2c-0.764,1.988-1.529,3.975-2.293,5.961"/>
	
		<path fill-rule="evenodd" clip-rule="evenodd" fill="none" stroke="#000000" stroke-width="2" stroke-linecap="round" stroke-linejoin="round" stroke-miterlimit="10" d="
		M177.004,188.974c-0.612,1.529-1.073,3.142-1.873,4.565c-1.009,1.798-3.184,2.357-5.236,1.626"/>
	
		<path fill-rule="evenodd" clip-rule="evenodd" fill="none" stroke="#000000" stroke-width="2" stroke-linecap="round" stroke-linejoin="round" stroke-miterlimit="10" d="
		M251.526,464.36c1.834,0.305,3.669,0.611,5.503,0.916"/>
	
		<path fill-rule="evenodd" clip-rule="evenodd" fill="none" stroke="#000000" stroke-width="2" stroke-linecap="round" stroke-linejoin="round" stroke-miterlimit="10" d="
		M351.041,423.315c-1.836,0.611-3.67,1.223-5.504,1.834"/>
	
		<path fill-rule="evenodd" clip-rule="evenodd" fill="none" stroke="#000000" stroke-width="2" stroke-linecap="round" stroke-linejoin="round" stroke-miterlimit="10" d="
		M271.017,451.29c0.458,1.834,0.917,3.668,1.375,5.502"/>
	
		<path fill-rule="evenodd" clip-rule="evenodd" fill="none" stroke="#000000" stroke-width="2" stroke-linecap="round" stroke-linejoin="round" stroke-miterlimit="10" d="
		M276.979,379.978c-0.306,1.834-0.612,3.668-0.917,5.504"/>
	
		<path fill-rule="evenodd" clip-rule="evenodd" fill="none" stroke="#000000" stroke-width="2" stroke-linecap="round" stroke-linejoin="round" stroke-miterlimit="10" d="
		M187.093,310.041c0.153,1.759,0.306,3.517,0.459,5.274"/>
	
		<path fill-rule="evenodd" clip-rule="evenodd" fill="none" stroke="#000000" stroke-width="2" stroke-linecap="round" stroke-linejoin="round" stroke-miterlimit="10" d="
		M198.099,215.343c-0.306,1.07-0.582,2.15-0.927,3.207c-0.255,0.78-0.602,1.532-0.907,2.296"/>
	
		<path fill-rule="evenodd" clip-rule="evenodd" fill="none" stroke="#000000" stroke-width="2" stroke-linecap="round" stroke-linejoin="round" stroke-miterlimit="10" d="
		M256.341,212.133c-0.611,1.682-1.223,3.363-1.834,5.044"/>
	
		<path fill-rule="evenodd" clip-rule="evenodd" fill="none" stroke="#000000" stroke-width="2" stroke-linecap="round" stroke-linejoin="round" stroke-miterlimit="10" d="
		M188.469,201.356c-1.987,0.789-1.671,2.91-2.522,4.356"/>
	
		<path fill-rule="evenodd" clip-rule="evenodd" fill="none" stroke="#000000" stroke-width="2" stroke-linecap="round" stroke-linejoin="round" stroke-miterlimit="10" d="
		M278.813,376.308c0.535,1.377,1.211,2.717,1.57,4.137c0.453,1.797,0.647,3.66,0.953,5.494"/>
	
		<path fill-rule="evenodd" clip-rule="evenodd" fill="none" stroke="#000000" stroke-width="2" stroke-linecap="round" stroke-linejoin="round" stroke-miterlimit="10" d="
		M203.144,216.49c-1.429-2.08-3.097-2.675-5.524-1.416c-3.821,1.983-7.775,3.708-11.674,5.542"/>
	
		<path fill-rule="evenodd" clip-rule="evenodd" fill="none" stroke="#000000" stroke-width="2" stroke-linecap="round" stroke-linejoin="round" stroke-miterlimit="10" d="
		M184.112,218.553c0.852,1.649,0.519,3.242-0.229,4.815"/>
	
		<path fill-rule="evenodd" clip-rule="evenodd" fill="none" stroke="#000000" stroke-width="2" stroke-linecap="round" stroke-linejoin="round" stroke-miterlimit="10" d="
		M247.169,175.674c-0.306,1.452-0.612,2.904-0.917,4.356"/>
	
		<path fill-rule="evenodd" clip-rule="evenodd" fill="none" stroke="#000000" stroke-width="2" stroke-linecap="round" stroke-linejoin="round" stroke-miterlimit="10" d="
		M269.182,448.997c-0.306,1.451-0.611,2.904-0.917,4.355"/>
	
		<path fill-rule="evenodd" clip-rule="evenodd" fill="none" stroke="#000000" stroke-width="2" stroke-linecap="round" stroke-linejoin="round" stroke-miterlimit="10" d="
		M273.768,398.55c3.487,2.039,3.765,2.592,2.981,5.963"/>
	
		<path fill-rule="evenodd" clip-rule="evenodd" fill="none" stroke="#000000" stroke-width="2" stroke-linecap="round" stroke-linejoin="round" stroke-miterlimit="10" d="
		M281.564,386.856c0.611,1.299,1.223,2.598,1.834,3.898"/>
	
		<path fill-rule="evenodd" clip-rule="evenodd" fill="none" stroke="#000000" stroke-width="2" stroke-linecap="round" stroke-linejoin="round" stroke-miterlimit="10" d="
		M249.692,167.19c0.699,2.168,0.921,4.319-0.229,6.421"/>
	
		<path fill-rule="evenodd" clip-rule="evenodd" fill="none" stroke="#000000" stroke-width="2" stroke-linecap="round" stroke-linejoin="round" stroke-miterlimit="10" d="
		M229.972,163.521c-1.834,1.529-3.657,3.073-5.514,4.573c-0.389,0.315-0.907,0.471-1.366,0.701"/>
	
		<path fill-rule="evenodd" clip-rule="evenodd" fill="none" stroke="#000000" stroke-width="2" stroke-linecap="round" stroke-linejoin="round" stroke-miterlimit="10" d="
		M253.59,224.974c-0.535,1.223-1.07,2.446-1.605,3.669"/>
	
		<path fill-rule="evenodd" clip-rule="evenodd" fill="none" stroke="#000000" stroke-width="2" stroke-linecap="round" stroke-linejoin="round" stroke-miterlimit="10" d="
		M209.679,181.98c-0.649-0.038-1.306-0.153-1.947-0.095c-0.772,0.069-1.531,0.286-2.295,0.438c0.306,0.917,0.611,1.834,0.917,2.752"
		/>
	
		<path fill-rule="evenodd" clip-rule="evenodd" fill="none" stroke="#000000" stroke-width="2" stroke-linecap="round" stroke-linejoin="round" stroke-miterlimit="10" d="
		M316.188,412.767c0.917,1.146,1.834,2.293,2.751,3.439"/>
	
		<path fill-rule="evenodd" clip-rule="evenodd" fill="none" stroke="#000000" stroke-width="2" stroke-linecap="round" stroke-linejoin="round" stroke-miterlimit="10" d="
		M323.297,417.583c-0.372,1.445,0.594,2.111,1.605,2.75"/>
	
		<path fill-rule="evenodd" clip-rule="evenodd" fill="none" stroke="#000000" stroke-width="2" stroke-linecap="round" stroke-linejoin="round" stroke-miterlimit="10" d="
		M191.45,315.086c1.399,0.724,0.986,1.865,0.688,2.981"/>
	
		<path fill-rule="evenodd" clip-rule="evenodd" fill="none" stroke="#000000" stroke-width="2" stroke-linecap="round" stroke-linejoin="round" stroke-miterlimit="10" d="
		M232.265,292.386c-0.917,0.305-1.834,0.611-2.752,0.916"/>
	
		<path fill-rule="evenodd" clip-rule="evenodd" fill="none" stroke="#000000" stroke-width="2" stroke-linecap="round" stroke-linejoin="round" stroke-miterlimit="10" d="
		M218.507,169.483c-0.153,0.917-0.306,1.834-0.458,2.751"/>
	
		<path fill-rule="evenodd" clip-rule="evenodd" fill="none" stroke="#000000" stroke-width="2" stroke-linecap="round" stroke-linejoin="round" stroke-miterlimit="10" d="
		M275.832,374.015c0,0.766,0,1.529,0,2.293"/>
	
		<path fill-rule="evenodd" clip-rule="evenodd" fill="none" stroke="#000000" stroke-width="2" stroke-linecap="round" stroke-linejoin="round" stroke-miterlimit="10" d="
		M243.73,169.024c-1.361,1.011-0.972,2.35-0.688,3.669"/>
	
		<path fill-rule="evenodd" clip-rule="evenodd" fill="none" stroke="#000000" stroke-width="2" stroke-linecap="round" stroke-linejoin="round" stroke-miterlimit="10" d="
		M227.679,293.761c-0.611,0.153-1.223,0.306-1.834,0.459"/>
	
		<path fill-rule="evenodd" clip-rule="evenodd" fill="none" stroke="#000000" stroke-width="2" stroke-linecap="round" stroke-linejoin="round" stroke-miterlimit="10" d="
		M282.252,382.729c-0.458-0.459-0.917-0.918-1.375-1.377"/>
	
		<path fill-rule="evenodd" clip-rule="evenodd" fill="none" stroke="#000000" stroke-width="2" stroke-linecap="round" stroke-linejoin="round" stroke-miterlimit="10" d="
		M248.545,437.532c0,0.611,0.088,1.24-0.027,1.828c-0.095,0.484-0.432,0.922-0.661,1.381"/>
	
		<path fill-rule="evenodd" clip-rule="evenodd" fill="none" stroke="#000000" stroke-width="2" stroke-linecap="round" stroke-linejoin="round" stroke-miterlimit="10" d="
		M206.354,189.432c-1.146,0.535-2.293,1.07-3.439,1.605"/>
	
		<path fill-rule="evenodd" clip-rule="evenodd" fill="none" stroke="#000000" stroke-width="2" stroke-linecap="round" stroke-linejoin="round" stroke-miterlimit="10" d="
		M248.545,440.972c0.153,0.916,0.306,1.834,0.458,2.75"/>
	
		<path fill-rule="evenodd" clip-rule="evenodd" fill="none" stroke="#000000" stroke-width="2" stroke-linecap="round" stroke-linejoin="round" stroke-miterlimit="10" d="
		M210.481,186.681c0.153,0.306,0.306,0.611,0.458,0.917"/>
</g>
</svg>
