<?xml version="1.0" encoding="utf-8"?>
<!-- Generator: Adobe Illustrator 16.0.0, SVG Export Plug-In . SVG Version: 6.00 Build 0)  -->
<!DOCTYPE svg PUBLIC "-//W3C//DTD SVG 1.1//EN" "http://www.w3.org/Graphics/SVG/1.1/DTD/svg11.dtd">
<svg version="1.1" id="Layer_1" xmlns="http://www.w3.org/2000/svg" xmlns:xlink="http://www.w3.org/1999/xlink" x="0px" y="0px"
	 width="841.89px" height="595.28px" viewBox="0 0 841.89 595.28" enable-background="new 0 0 841.89 595.28" xml:space="preserve">
<path fill-rule="evenodd" clip-rule="evenodd" fill="none" stroke="#000000" stroke-width="2" stroke-linecap="round" stroke-linejoin="round" stroke-miterlimit="10" d="
	M267.12,108.521c0.72,1.6,1.688,3.137,2.113,4.812c1.232,4.866,1.969,9.79,1.784,14.87c-0.159,4.346-1.827,7.97-4.392,11.266
	c-3.819,4.906-8.367,8.468-14.555,10.539c-5.931,1.985-11.092,0.916-16.648-0.619c-5.42-1.497-10.786-3.605-16.54-3.405
	c-14.23,0.495-24.599,7.168-30.924,19.915c-1.866,3.759-1.927,7.912-1.208,11.977c1.588,8.977,3.558,17.892,4.881,26.904
	c0.429,2.918-0.629,6.067-1.077,9.1c-1.563,10.574-9.373,15.493-18.026,19.366c-4.403,1.971-9.27,2.147-14.124,2.316
	c-6.891,0.24-13.763,1.041-20.643,1.598c-5.625,0.456-11.007,1.892-16.067,4.347c-5.887,2.857-10.761,7.042-14.37,12.483
	c-3.243,4.89-4.739,10.477-5.315,16.292c-0.625,6.319,0.367,12.522,1.418,18.722c0.405,2.386,0.654,4.798,0.974,7.198"/>
<path fill-rule="evenodd" clip-rule="evenodd" fill="none" stroke="#000000" stroke-width="2" stroke-linecap="round" stroke-linejoin="round" stroke-miterlimit="10" d="
	M562.32,240.04c4.965-5.181,8.32-11.465,10.643-18.055c2.275-6.463,2.639-13.319,1.975-20.357
	c-1.27-13.469-8.306-23.882-16.185-34.092c-5.576-7.226-12.592-12.567-20.7-16.478c-4.163-2.007-8.512-3.782-12.956-5.014
	c-7.113-1.973-14.393-1.453-21.572-0.06c-6.344,1.231-12.117,3.91-17.526,7.414c-6.973,4.516-11.933,10.813-16.375,17.726
	c-5.264,8.192-8.704,17.06-10.942,26.446c-0.442,1.853-0.511,3.832-0.491,5.75c0.05,4.72-1.005,9.476,0.23,14.155
	c1.104,4.185,2.05,8.458,3.661,12.452c2.151,5.333,4.772,10.488,7.397,15.613c1.646,3.212,4.496,5.382,7.39,7.476
	c7.832,5.665,16.715,8.541,26.181,9.494c4.428,0.446,8.951-0.063,13.431-0.17c0.244-0.006,0.48-0.3,0.721-0.46"/>
<path fill-rule="evenodd" clip-rule="evenodd" fill="none" stroke="#000000" stroke-width="2" stroke-linecap="round" stroke-linejoin="round" stroke-miterlimit="10" d="
	M418.8,92.2c-6.32,6.8-12.392,13.855-19.035,20.323c-5.801,5.648-12.319,10.554-18.373,15.953c-2.906,2.591-5.373,5.669-8.211,8.344
	c-7.705,7.259-15.56,14.358-23.242,21.641c-5.541,5.253-10.906,10.692-16.324,16.075c-0.361,0.358-0.666,0.93-0.708,1.426
	c-0.22,2.635-0.386,5.276-0.5,7.918c-0.264,6.079-0.593,12.158-0.695,18.24c-0.083,4.958,0.109,9.92,0.228,14.879
	c0.017,0.672,0.312,1.337,0.51,2.135c3.549-0.941,6.897-0.839,10.275-0.25c1.242,0.217,2.554,0.035,3.834,0.035
	c6.72,0,13.441,0.064,20.16-0.033c2.563-0.037,5.12-0.447,7.68-0.687"/>
<path fill-rule="evenodd" clip-rule="evenodd" fill="none" stroke="#000000" stroke-width="2" stroke-linecap="round" stroke-linejoin="round" stroke-miterlimit="10" d="
	M332.88,305.08c-0.24,1.84-0.611,3.674-0.696,5.521c-0.301,6.557-0.652,13.118-0.684,19.679c-0.017,3.519,1.081,7.083,0.782,10.55
	c-0.442,5.123,1.574,8.597,5.06,12.108c3.947,3.976,7.086,8.745,10.677,13.087c2.382,2.88,4.888,5.665,7.434,8.403
	c4.276,4.602,8.593,9.166,12.974,13.666c1.024,1.052,2.374,1.785,3.574,2.666"/>
<path fill-rule="evenodd" clip-rule="evenodd" fill="none" stroke="#000000" stroke-width="2" stroke-linecap="round" stroke-linejoin="round" stroke-miterlimit="10" d="
	M752.88,389.32c-9.84,0.56-19.675,1.256-29.522,1.622c-4.787,0.178-9.643-0.748-14.387-0.307c-6.951,0.646-13.771-0.52-20.651-0.545
	c-5.118-0.019-10.302,1.019-15.34,0.485c-4.129-0.437-8.185,0.564-12.271-0.237c-2.096-0.411-4.309-0.278-6.469-0.287
	c-6.721-0.03-13.461-0.338-20.154,0.08c-6.73,0.421-13.444,0.308-20.166,0.373c-6.879,0.067-13.76,0.016-20.64,0.016
	c-1.681,0-3.36,0-5.04,0"/>
<path fill-rule="evenodd" clip-rule="evenodd" fill="none" stroke="#000000" stroke-width="2" stroke-linecap="round" stroke-linejoin="round" stroke-miterlimit="10" d="
	M527.28,497.32c-3.681,2.24-7.216,4.776-11.073,6.652c-6.116,2.975-12.328,5.84-18.721,8.134c-6.326,2.27-12.893,3.906-19.424,5.544
	c-2.371,0.595-4.941,0.426-7.424,0.522c-0.574,0.022-1.162-0.295-1.711-0.804c3.131-0.843,6.262-1.687,9.393-2.529"/>
<path fill-rule="evenodd" clip-rule="evenodd" fill="none" stroke="#000000" stroke-width="2" stroke-linecap="round" stroke-linejoin="round" stroke-miterlimit="10" d="
	M584.16,405.641c0,1.199-0.033,2.4,0.006,3.6c0.128,3.845-0.046,7.688-0.104,11.522c-0.164,11.033,0.381,22.077,0.555,33.118
	c0.063,3.998-0.191,7.999-0.206,11.999c-0.034,9.28-0.188,18.565,0.05,27.839c0.166,6.488,0.905,12.961,1.371,19.442
	c0.058,0.796,0.042,1.601,0.001,2.398c-0.123,2.429,1.264,4.208,3.607,4.301c5.518,0.221,11.04,0.479,16.56,0.465
	c7.04-0.017,14.081-0.259,21.119-0.457c3.282-0.092,6.56-0.37,9.842-0.45c3.277-0.08,6.564,0.107,9.838-0.042
	c9.043-0.41,18.081-0.938,27.122-1.404c0.235-0.012,0.479,0.148,0.719,0.229"/>
<path fill-rule="evenodd" clip-rule="evenodd" fill="none" stroke="#000000" stroke-width="2" stroke-linecap="round" stroke-linejoin="round" stroke-miterlimit="10" d="
	M291.12,389.08c-1.655-0.414-2.617,0.835-3.573,1.71c-8.606,7.869-17.294,15.659-25.651,23.787
	c-4.944,4.808-9.342,10.177-13.962,15.315c-0.346,0.385-0.494,0.947-0.733,1.428"/>
<path fill-rule="evenodd" clip-rule="evenodd" fill="none" stroke="#000000" stroke-width="2" stroke-linecap="round" stroke-linejoin="round" stroke-miterlimit="10" d="
	M417.36,389.32c0.891,2.37-0.943,3.687-2.198,5.004c-5.189,5.446-10.399,10.885-15.835,16.082
	c-6.097,5.829-12.451,11.39-18.68,17.082c-0.457,0.418-0.897,0.902-1.193,1.44c-1.754,3.197-4.739,3.654-7.935,3.584
	c-6-0.133-11.999-0.372-18-0.455c-5.759-0.08-11.52,0.003-17.279-0.039c-0.881-0.006-1.76-0.298-2.64-0.458"/>
<path fill-rule="evenodd" clip-rule="evenodd" fill="none" stroke="#000000" stroke-width="2" stroke-linecap="round" stroke-linejoin="round" stroke-miterlimit="10" d="
	M583.68,414.521c-0.88,2-1.788,3.988-2.635,6.002c-2.654,6.314-4.779,12.918-8.083,18.87c-2.697,4.859-5.483,9.674-7.718,14.747
	c-4.697,10.667-12.49,18.948-20.487,27.059c-3.097,3.14-6.892,5.59-9.989,8.729c-5.324,5.396-12.546,7.447-18.815,11.151
	c-3.983,2.354-8.461,3.86-12.665,5.855c-5.896,2.798-12.341,3.789-18.469,5.802c-3.806,1.251-7.697,0.926-11.542,1.349
	c-4.304,0.474-8.64,0.635-12.952,1.043c-0.592,0.056-1.124,0.752-1.685,1.152c0.48,0.48,0.901,1.274,1.452,1.379
	c1.405,0.265,2.868,0.285,4.309,0.283c1.52-0.001,3.04-0.142,4.56-0.222"/>
<path fill-rule="evenodd" clip-rule="evenodd" fill="none" stroke="#000000" stroke-width="2" stroke-linecap="round" stroke-linejoin="round" stroke-miterlimit="10" d="
	M332.16,389.8c-1.2,1.521-2.285,3.151-3.625,4.536c-2.555,2.643-5.273,5.127-7.891,7.709c-2.98,2.939-5.854,5.99-8.901,8.857
	c-4.495,4.229-9.139,8.3-13.649,12.513c-2.479,2.315-4.814,4.785-7.214,7.186"/>
<path fill-rule="evenodd" clip-rule="evenodd" fill="none" stroke="#000000" stroke-width="2" stroke-linecap="round" stroke-linejoin="round" stroke-miterlimit="10" d="
	M332.88,219.4c0.08,3.12,0.226,6.24,0.223,9.36c-0.003,3.44-0.174,6.879-0.214,10.32c-0.04,3.52-0.07,7.042,0.01,10.56
	c0.068,2.962,0.37,5.919,0.428,8.881c0.024,1.216-0.318,2.44-0.434,3.244c-14.492,0.219-28.493,0.43-43.568,0.658
	c-7.953,7.291-16.644,15.249-25.324,23.219c-6.088,5.591-12.178,11.181-18.218,16.824c-0.655,0.612-0.984,1.574-1.464,2.374"/>
<path fill-rule="evenodd" clip-rule="evenodd" fill="none" stroke="#000000" stroke-width="2" stroke-linecap="round" stroke-linejoin="round" stroke-miterlimit="10" d="
	M329.76,432.04c-0.48,0.8-0.822,1.738-1.462,2.378c-4.84,4.841-9.817,9.545-14.596,14.443c-5.057,5.186-9.935,10.545-14.904,15.816
	c-3.027,3.212-6.078,6.402-9.118,9.603"/>
<path fill-rule="evenodd" clip-rule="evenodd" fill="none" stroke="#000000" stroke-width="2" stroke-linecap="round" stroke-linejoin="round" stroke-miterlimit="10" d="
	M162,432.28c2,2.479,3.77,5.198,6.041,7.397c8.779,8.504,17.717,16.845,26.6,25.241c2.632,2.488,5.267,4.975,7.933,7.427
	c0.38,0.349,0.946,0.494,1.426,0.734"/>
<path fill-rule="evenodd" clip-rule="evenodd" fill="none" stroke="#000000" stroke-width="2" stroke-linecap="round" stroke-linejoin="round" stroke-miterlimit="10" d="
	M462,177.16c-1.92,0.16-3.837,0.404-5.761,0.466c-8.479,0.273-16.958,0.579-25.439,0.697c-3.997,0.056-7.999-0.295-12-0.429
	c-0.557-0.019-1.297-0.056-1.653,0.256c-5.957,5.238-11.953,10.437-17.766,15.833c-8.004,7.43-15.864,15.014-23.775,22.543
	c-0.615,0.585-1.47,1.063-0.542,2.201c0.353,0.433,0.057,1.393,0.057,2.113"/>
<path fill-rule="evenodd" clip-rule="evenodd" fill="none" stroke="#000000" stroke-width="2" stroke-linecap="round" stroke-linejoin="round" stroke-miterlimit="10" d="
	M503.04,308.44c3.12,2.72,6.244,5.436,9.359,8.16c9.602,8.398,19.21,16.789,28.79,25.212c1.356,1.192,2.678,2.463,3.795,3.872
	c0.421,0.529,0.6,1.91,0.237,2.303c-4.953,5.358-9.989,10.645-15.071,15.884c-5.158,5.32-10.382,10.578-15.594,15.846
	c-3.263,3.298-6.572,6.548-9.824,9.855c-0.713,0.726-2.622,0.524-1.933,2.388"/>
<path fill-rule="evenodd" clip-rule="evenodd" fill="none" stroke="#000000" stroke-width="2" stroke-linecap="round" stroke-linejoin="round" stroke-miterlimit="10" d="
	M759.12,388.12c-1.829,1.488-1.309,3.709-1.357,5.522c-0.321,11.836-0.541,23.678-0.509,35.518c0.019,6.641,0.591,13.28,0.9,19.92
	c0.041,0.879-0.003,1.761,0.007,2.641c0.077,6.96,0.19,13.919,0.224,20.88c0.014,2.799-0.238,5.601-0.198,8.399
	c0.04,2.802,0.366,5.599,0.438,8.4c0.135,5.279,0.167,10.561,0.259,15.84c0.063,3.601,0.194,7.2,0.212,10.8
	c0.005,0.96-0.295,1.92-0.455,2.88"/>
<path fill-rule="evenodd" clip-rule="evenodd" fill="none" stroke="#000000" stroke-width="2" stroke-linecap="round" stroke-linejoin="round" stroke-miterlimit="10" d="
	M560.88,241.48c-5.82,6.453-13.001,11.071-20.926,14.287c-5.765,2.339-11.929,3.731-17.973,5.323
	c-1.477,0.389-3.182-0.09-4.781-0.17"/>
<path fill-rule="evenodd" clip-rule="evenodd" fill="none" stroke="#000000" stroke-width="2" stroke-linecap="round" stroke-linejoin="round" stroke-miterlimit="10" d="
	M333.6,221.56c6.542,4.658,11.509,10.897,16.776,16.822c2.304,2.592,4.358,5.407,6.501,8.141
	c4.933,6.292,10.85,11.565,17.043,16.558"/>
<path fill-rule="evenodd" clip-rule="evenodd" fill="none" stroke="#000000" stroke-width="2" stroke-linecap="round" stroke-linejoin="round" stroke-miterlimit="10" d="
	M205.68,346.36c-0.32,0.24-0.914,0.472-0.921,0.721c-0.286,9.919-0.581,19.838-0.733,29.76c-0.073,4.798,0.118,9.6,0.217,14.399
	c0.145,6.96,0.424,13.92,0.442,20.88c0.013,5.439-0.267,10.881-0.451,16.32c-0.219,6.48-0.674,12.96-0.663,19.439
	c0.014,7.44,0.429,14.881,0.665,22.32c0.021,0.64-0.076,1.292,0.021,1.917c0.144,0.921,0.414,1.823,0.629,2.732
	c0.244,0.027,0.488,0.055,0.732,0.081c13.22-14.057,26.44-28.113,39.66-42.17"/>
<path fill-rule="evenodd" clip-rule="evenodd" fill="none" stroke="#000000" stroke-width="2" stroke-linecap="round" stroke-linejoin="round" stroke-miterlimit="10" d="
	M288.48,431.561c-2.32-0.16-4.642-0.477-6.96-0.452c-8.48,0.089-16.96,0.3-25.44,0.45c-9.6,0.169-19.2,0.304-28.8,0.487
	c-6.72,0.129-13.439,0.325-20.16,0.461c-0.878,0.018-1.76-0.146-2.64-0.227"/>
<path fill-rule="evenodd" clip-rule="evenodd" fill="none" stroke="#000000" stroke-width="2" stroke-linecap="round" stroke-linejoin="round" stroke-miterlimit="10" d="
	M502.56,305.32c-2.56,2.64-5.123,5.276-7.679,7.921c-6.802,7.038-13.555,14.124-20.42,21.101
	c-3.491,3.547-7.196,6.883-10.768,10.352c-0.729,0.708-1.293,1.587-1.934,2.387"/>
<path fill-rule="evenodd" clip-rule="evenodd" fill="none" stroke="#000000" stroke-width="2" stroke-linecap="round" stroke-linejoin="round" stroke-miterlimit="10" d="
	M161.52,431.8c0.8,0.08,1.6,0.229,2.4,0.229c8.56,0.018,17.121-0.037,25.68,0.033c3.921,0.031,7.84,0.318,11.761,0.441
	c0.876,0.028,1.76-0.144,2.64-0.224"/>
<path fill-rule="evenodd" clip-rule="evenodd" fill="none" stroke="#000000" stroke-width="2" stroke-linecap="round" stroke-linejoin="round" stroke-miterlimit="10" d="
	M374.4,389.561c-0.64,0.319-1.428,0.497-1.897,0.981c-5.156,5.325-10.254,10.707-15.385,16.057
	c-7.912,8.247-15.831,16.488-23.779,24.7c-0.391,0.404-1.104,0.714-1.657,0.7c-1.443-0.037-2.878-0.388-4.322-0.422
	c-11.679-0.271-23.36-0.484-35.039-0.747c-2.527-0.057-2.614-0.344-2.422-2.871c0.466-6.155,0.911-12.314,1.196-18.479
	c0.278-5.995,0.349-11.999,0.503-17.999c0.022-0.88,0.003-1.76,0.003-2.396c6.174-0.482,12.322-1.045,18.481-1.423
	c6.814-0.418,13.639-0.698,20.398,0.698"/>
<path fill-rule="evenodd" clip-rule="evenodd" fill="none" stroke="#000000" stroke-width="2" stroke-linecap="round" stroke-linejoin="round" stroke-miterlimit="10" d="
	M583.2,421.721c-1.761,4.479-3.233,9.1-5.346,13.407c-3.437,7.011-6.878,14.051-11.485,20.41c-0.41,0.566-1.249,0.822-1.889,1.223"
	/>
<path fill-rule="evenodd" clip-rule="evenodd" fill="none" stroke="#000000" stroke-width="2" stroke-linecap="round" stroke-linejoin="round" stroke-miterlimit="10" d="
	M460.32,347.561c5.04-0.08,10.079-0.18,15.12-0.233c3.359-0.036,6.72-0.034,10.079-0.001c5.761,0.058,11.521,0.135,17.28,0.238
	c12.721,0.228,25.44,0.466,38.16,0.734c1.043,0.021,2.08,0.302,3.12,0.462"/>
<path fill-rule="evenodd" clip-rule="evenodd" fill="none" stroke="#000000" stroke-width="2" stroke-linecap="round" stroke-linejoin="round" stroke-miterlimit="10" d="
	M504.72,392.44c-1.92,0-3.843,0.073-5.759-0.016c-4.162-0.19-8.318-0.525-12.481-0.688c-4.077-0.159-8.16-0.145-12.239-0.267
	c-3.921-0.117-7.842-0.278-11.76-0.479c-5.682-0.29-11.356-0.74-17.041-0.923c-6.396-0.205-12.8-0.246-19.199-0.242
	c-2.801,0.002-5.6,0.293-8.4,0.453"/>
<path fill-rule="evenodd" clip-rule="evenodd" fill="none" stroke="#000000" stroke-width="2" stroke-linecap="round" stroke-linejoin="round" stroke-miterlimit="10" d="
	M289.92,430.84c-2.23,1.124-1.549,3.376-1.59,5.043c-0.167,6.807,0.089,13.598,0.741,20.41c0.606,6.342,0.141,12.787,0.108,19.188
	c-0.003,0.561-0.299,1.12-0.459,1.68"/>
<path fill-rule="evenodd" clip-rule="evenodd" fill="none" stroke="#000000" stroke-width="2" stroke-linecap="round" stroke-linejoin="round" stroke-miterlimit="10" d="
	M756.72,518.681c1.895-0.115,2.515,0.824,2.421,2.641c-0.295,5.677-0.696,11.359-0.688,17.039c0.01,6.24,0.437,12.479,0.654,18.721
	c0.022,0.637-0.146,1.279-0.227,1.919"/>
<path fill-rule="evenodd" clip-rule="evenodd" fill="none" stroke="#000000" stroke-width="2" stroke-linecap="round" stroke-linejoin="round" stroke-miterlimit="10" d="
	M418.32,50.08c0.08,0,0.164,0.016,0.239-0.004c0.085-0.022,0.162-0.076,0.241-0.116c-0.08,0.8-0.092,1.614-0.25,2.398
	c-1.245,6.135-0.715,12.312-0.465,18.481c0.049,1.202,0.191,2.399,0.229,3.601c0.174,5.52,0.317,11.04,0.505,16.559
	c0.014,0.405,0.301,0.801,0.46,1.201"/>
<path fill-rule="evenodd" clip-rule="evenodd" fill="none" stroke="#000000" stroke-width="2" stroke-linecap="round" stroke-linejoin="round" stroke-miterlimit="10" d="
	M502.08,306.761c0.16,2.159,0.412,4.317,0.464,6.48c0.2,8.479,0.39,16.958,0.467,25.439c0.026,2.918-0.291,5.84-0.451,8.76"/>
<path fill-rule="evenodd" clip-rule="evenodd" fill="none" stroke="#000000" stroke-width="2" stroke-linecap="round" stroke-linejoin="round" stroke-miterlimit="10" d="
	M545.76,348.04c2.96,0.16,5.921,0.465,8.88,0.446c4.321-0.027,8.64-0.306,12.961-0.441c5.759-0.18,11.519-0.354,17.28-0.459
	c1.116-0.021,2.239,0.294,3.359,0.454"/>
<path fill-rule="evenodd" clip-rule="evenodd" fill="none" stroke="#000000" stroke-width="2" stroke-linecap="round" stroke-linejoin="round" stroke-miterlimit="10" d="
	M672.72,475.24c-0.16,3.12-0.377,6.238-0.469,9.36c-0.271,9.199-0.513,18.399-0.713,27.601c-0.042,1.917,0.142,3.839,0.222,5.759"/>
<path fill-rule="evenodd" clip-rule="evenodd" fill="none" stroke="#000000" stroke-width="2" stroke-linecap="round" stroke-linejoin="round" stroke-miterlimit="10" d="
	M588.24,387.88c-0.166,1.131,0.363,2.318-1.114,3.256c-0.6,0.38-0.3,2.265-0.3,3.465c0,0.479,0.489,0.988,0.424,1.436
	c-0.663,4.539,0.621,9.242-1.154,13.69c-0.271,0.676-0.336,1.434-0.496,2.153"/>
<path fill-rule="evenodd" clip-rule="evenodd" fill="none" stroke="#000000" stroke-width="2" stroke-linecap="round" stroke-linejoin="round" stroke-miterlimit="10" d="
	M586.56,394.36c-1.54,0.345-2.227,1.13-2.223,2.88c0.005,2.56-0.417,5.12-0.657,7.68"/>
<path fill-rule="evenodd" clip-rule="evenodd" fill="none" stroke="#000000" stroke-width="2" stroke-linecap="round" stroke-linejoin="round" stroke-miterlimit="10" d="
	M531.6,492.04c-1.449-0.832-2.475,0.307-3.31,1.019c-1.241,1.057-3.548,1.006-3.65,3.302"/>
<path fill-rule="evenodd" clip-rule="evenodd" fill="none" stroke="#000000" stroke-width="2" stroke-linecap="round" stroke-linejoin="round" stroke-miterlimit="10" d="
	M586.56,401.32c-0.319,0.72-0.661,1.432-0.954,2.162c-0.324,0.812-0.133,2.11-1.686,1.678"/>
<path fill-rule="evenodd" clip-rule="evenodd" fill="none" stroke="#000000" stroke-width="2" stroke-linecap="round" stroke-linejoin="round" stroke-miterlimit="10" d="
	M586.8,518.92c-1.6,0.4-3.2,0.8-4.8,1.2"/>
<path fill-rule="evenodd" clip-rule="evenodd" fill="none" stroke="#000000" stroke-width="2" stroke-linecap="round" stroke-linejoin="round" stroke-miterlimit="10" d="
	M647.76,304.12c-7.571,1.216-13.867,4.541-18.239,11.041c-2.002,2.977-2.591,6.412-3.41,9.827
	c-2.605,10.858,6.35,21.011,15.903,23.724c1.502,0.426,3.277,0.583,4.77,0.222c5.485-1.331,10.823-3.052,15.397-6.627
	c3.73-2.916,7.151-5.944,8.892-10.574c3.188-8.486-0.026-17.087-6.805-21.532c-3.38-2.217-7.248-3.745-11.016-5.291
	c-1.591-0.652-3.492-0.549-5.252-0.789"/>
</svg>
