<?xml version="1.0" encoding="utf-8"?>
<!-- Generator: Adobe Illustrator 16.0.0, SVG Export Plug-In . SVG Version: 6.00 Build 0)  -->
<!DOCTYPE svg PUBLIC "-//W3C//DTD SVG 1.1//EN" "http://www.w3.org/Graphics/SVG/1.1/DTD/svg11.dtd">
<svg version="1.1" id="Layer_1" xmlns="http://www.w3.org/2000/svg" xmlns:xlink="http://www.w3.org/1999/xlink" x="0px" y="0px"
	 width="841.89px" height="595.28px" viewBox="0 0 841.89 595.28" enable-background="new 0 0 841.89 595.28" xml:space="preserve">
<path fill-rule="evenodd" clip-rule="evenodd" fill="none" stroke="#000000" stroke-width="2" stroke-linecap="round" stroke-linejoin="round" stroke-miterlimit="10" d="
	M674.4,142.6c0.16-1.2,0.346-2.397,0.473-3.601c0.126-1.201,0.192-2.408,0.691-4.088c-4.628-1.917-9.252-3.844-13.89-5.739
	c-0.604-0.247-1.276-0.473-1.915-0.467c-2.359,0.023-4.303-0.803-6.29-2.109c-2.097-1.379-4.563-2.223-6.915-3.182
	c-5.5-2.243-9.882-5.841-13.448-10.563c-7.154-9.475-14.122-19.109-21.675-28.258c-5.538-6.708-11.139-13.403-17.594-19.357
	c-4.438-4.093-8.706-8.323-13.755-11.68c-7.009-4.659-14.706-7.737-22.812-9.801c-3.628-0.924-7.363-1.421-11.028-2.208
	c-4.837-1.038-9.619-2.186-14.643-2.207c-5.51-0.023-10.943,0.296-16.322,1.494c-1.271,0.283-2.559,0.486-3.838,0.727"/>
<path fill-rule="evenodd" clip-rule="evenodd" fill="none" stroke="#000000" stroke-width="2" stroke-linecap="round" stroke-linejoin="round" stroke-miterlimit="10" d="
	M594.48,45.64c3.272-0.085,6.219,1.012,9.127,2.384c5.837,2.753,12.012,5.042,16.971,9.209c7.466,6.273,14.759,12.781,20.246,21.031
	c6.02,9.05,10.756,18.75,15.462,28.516c2.138,4.437,5.09,8.81,8.678,12.124c3.152,2.911,6.147,6.036,9.441,8.81
	c0.438,0.37,0.999,0.972,1.427,0.914c2.511-0.345,3.003,1.395,3.627,3.167c0.547,1.553,1.304,3.03,1.894,4.57
	c2.75,7.169,4.376,14.662,6.195,22.09c0.646,2.64,0.695,5.427,1.011,8.147c0.325,2.8,0.753,5.593,0.935,8.402
	c0.264,4.073,0.469,8.158,0.479,12.238c0.019,6.96-0.546,13.947-0.097,20.873c0.452,6.975-0.63,13.964,0.42,20.879
	c0.565,3.728,1.399,7.475,2.646,11.027c2.741,7.81,4.076,15.889,5.201,24.024c0.729,5.268,1.697,10.548,1.822,15.841
	c0.123,5.187-0.617,10.403-1.104,15.595c-0.563,6.008-1.14,12.019-1.934,17.997c-0.99,7.458-2.198,14.887-3.343,22.322
	c-0.138,0.896-0.455,1.766-0.708,2.642c-0.68,2.354-1.382,4.703-1.198,7.201"/>
<path fill-rule="evenodd" clip-rule="evenodd" fill="none" stroke="#000000" stroke-width="2" stroke-linecap="round" stroke-linejoin="round" stroke-miterlimit="10" d="
	M599.76,124.6c-1.279-0.72-2.672-1.295-3.82-2.185c-5.055-3.914-8.743-9.054-12.514-14.125c-3.131-4.211-6.462-8.275-9.569-12.503
	c-5.885-8.005-13.782-13.584-22.09-18.719c-5.077-3.139-10.202-6.222-15.096-9.633c-5.553-3.87-10.379-8.595-14.946-13.603
	c-2.357-2.585-5.048-4.874-7.658-7.218c-1.606-1.442-3.338-2.746-5.029-4.091c-0.979-0.777-1.663-2.64-3.372-0.979
	c-0.042,0.041-0.313-0.131-0.464-0.227c-2.278-1.459-4.573-1.933-7.446-1.834c-6.943,0.24-13.914-0.465-20.875-0.486
	c-2.398-0.008-4.797,0.898-7.201,1.354c-0.856,0.162-1.731,0.225-2.39,0.307c-1.79,1.199-3.608,2.28-5.276,3.559
	c-4.837,3.712-9.733,7.361-14.377,11.306c-4.093,3.477-8.031,7.167-11.759,11.033c-5.502,5.703-10.633,11.766-16.159,17.443
	c-3.943,4.051-8.194,7.817-12.459,11.537c-5.433,4.74-10.982,9.349-16.558,13.921c-2.124,1.741-4.367,3.379-6.717,4.796
	c-10.885,6.564-18.644,16.177-25.591,26.476c-3.15,4.67-5.574,9.839-8.191,14.853c-0.677,1.296-0.842,2.858-1.242,4.298"/>
<path fill-rule="evenodd" clip-rule="evenodd" fill="none" stroke="#000000" stroke-width="2" stroke-linecap="round" stroke-linejoin="round" stroke-miterlimit="10" d="
	M516,35.561c3.028,0.669,5.384-1.466,8.15-1.972c5.152-0.941,10.219-2.368,15.379-3.253c4.354-0.748,8.795-0.979,13.187-1.525
	c0.906-0.113,1.756-0.638,2.647-0.919c0.46-0.145,1.018-0.357,1.428-0.223c5.021,1.642,10.146,1.708,15.373,1.52
	c2.297-0.083,4.649,0.961,6.953,1.583c3.691,0.997,7.37,2.043,11.041,3.114c7.529,2.195,14.072,6.114,20.221,10.96
	c3.762,2.964,8.034,5.309,12.194,7.732c9.802,5.709,17.944,13.261,24.939,22.108c5.625,7.114,9.127,15.341,12.245,23.755
	c2.252,6.075,4.517,12.147,6.687,18.252c0.337,0.948,0.195,2.067,0.275,3.107"/>
<path fill-rule="evenodd" clip-rule="evenodd" fill="none" stroke="#000000" stroke-width="2" stroke-linecap="round" stroke-linejoin="round" stroke-miterlimit="10" d="
	M571.44,396.521c-4.328-0.188-5.872,3.911-8.847,5.813c-3.661,2.34-7.08,5.058-10.592,7.63c-3.505,2.566-7.761,2.828-11.767,3.817
	c-6.462,1.595-12.983,2.95-19.427,4.614c-5.281,1.363-10.547,1.581-15.845,0.428c-6.257-1.362-12.47-2.927-18.733-4.26
	c-1.699-0.361-3.528-0.078-5.264-0.328c-1.075-0.154-2.203-0.579-3.107-1.183c-6.037-4.025-12.024-8.125-18.017-12.216
	c-1.897-1.295-3.763-2.636-5.643-3.956"/>
<path fill-rule="evenodd" clip-rule="evenodd" fill="none" stroke="#000000" stroke-width="2" stroke-linecap="round" stroke-linejoin="round" stroke-miterlimit="10" d="
	M504.96,42.04c-9.28,8.64-18.561,17.279-27.84,25.921c-4.722,4.397-9.394,8.851-14.197,13.158c-1.027,0.922-2.591,1.215-3.787,1.985
	c-1.977,1.272-3.865,2.683-5.773,4.059c-5.206,3.752-10.296,7.676-15.626,11.243c-9.754,6.526-19.87,12.447-30.438,17.593
	c-2.764,1.346-5.275,3.204-7.945,4.751c-3.656,2.121-7.554,3.887-10.99,6.313c-5.962,4.211-10.661,9.806-15.359,15.336
	c-0.574,0.676-0.525,1.881-0.765,2.841"/>
<path fill-rule="evenodd" clip-rule="evenodd" fill="none" stroke="#000000" stroke-width="2" stroke-linecap="round" stroke-linejoin="round" stroke-miterlimit="10" d="
	M466.56,40.6c-2.96-0.32-5.92-0.908-8.879-0.899c-4.801,0.014-9.624,0.205-14.395,0.718c-4.988,0.537-9.979,1.313-14.865,2.434
	c-2.6,0.597-5.228,1.796-7.414,3.333c-6.45,4.535-13.222,8.817-18.863,14.243c-6.216,5.979-12.714,11.791-17.537,19.217
	c-3.891,5.992-6.618,12.567-10.436,18.561c-6.362,9.991-12.233,20.279-20.351,29.089c-6.357,6.9-10.624,15.198-13.169,24.209
	c-1.178,4.168-1.589,8.597-1.946,12.94c-0.313,3.814-0.503,7.745,0.095,11.489c0.373,2.332,0.866,4.627,0.781,6.985
	c-0.182,5.042-0.541,10.079-0.673,15.122c-0.079,3.036,0.119,6.08,0.215,9.119c0.054,1.681,0.03,3.379,0.28,5.033
	c0.163,1.076,0.755,2.087,1.155,3.127"/>
<path fill-rule="evenodd" clip-rule="evenodd" fill="none" stroke="#000000" stroke-width="2" stroke-linecap="round" stroke-linejoin="round" stroke-miterlimit="10" d="
	M369.84,409.48c1.12,0.88,2.401,1.617,3.327,2.669c2.104,2.389,4.063,4.907,6.011,7.428c0.468,0.605,0.919,1.418,0.934,2.145
	c0.044,2.177,1.378,2.825,3.134,3.67c5.424,2.607,10.433,6.058,14.588,10.332c5.412,5.565,11.618,10.147,17.415,15.221
	c10.324,9.034,22.259,15.637,34.525,21.627c3.024,1.477,6.24,2.555,9.337,3.889c1.014,0.437,1.979,1.03,2.88,1.673
	c3.907,2.782,7.753,5.627,11.969,7.979c2.458,1.37,4.745,3.229,6.716,5.252c5.011,5.142,10.862,9.041,17.361,11.872
	c3.146,1.371,6.656,1.976,10.057,2.657c1.276,0.257,2.702-0.305,4.067-0.403c5.838-0.421,11.692-0.675,17.515-1.252
	c4.495-0.446,8.578-2.388,12.464-4.553c6.951-3.873,13.639-8.238,20.7-11.887c7.015-3.625,13.449-8.065,19.875-12.565
	c1.874-1.312,3.686-2.712,5.525-4.072"/>
<path fill-rule="evenodd" clip-rule="evenodd" fill="none" stroke="#000000" stroke-width="2" stroke-linecap="round" stroke-linejoin="round" stroke-miterlimit="10" d="
	M499.68,68.92c-1.76,3.04-3.689,5.996-5.247,9.136c-4.243,8.554-9.33,16.334-16.771,22.616c-9.283,7.836-19.5,14.039-30.579,18.799
	c-4.41,1.896-9.226,2.868-13.89,4.141c-2.061,0.562-3.814,1.379-4.792,3.388"/>
<path fill-rule="evenodd" clip-rule="evenodd" fill="none" stroke="#000000" stroke-width="2" stroke-linecap="round" stroke-linejoin="round" stroke-miterlimit="10" d="
	M633.84,206.44c-6.463-6.1-13.743-11.076-21.354-15.608c-5.706-3.397-11.35-6.898-17.063-10.282
	c-0.823-0.487-1.885-0.572-2.711-0.807c-7.813,5.841-15.504,11.586-23.19,17.337c-4.483,3.355-8.96,6.719-13.44,10.079"/>
<path fill-rule="evenodd" clip-rule="evenodd" fill="none" stroke="#000000" stroke-width="2" stroke-linecap="round" stroke-linejoin="round" stroke-miterlimit="10" d="
	M567.36,397.48c-1.681-0.4-3.352-1.1-5.042-1.148c-7.036-0.204-14.078-0.285-21.118-0.274c-11.2,0.017-22.401,0.27-33.6,0.163
	c-4.804-0.045-9.601-0.738-14.4-1.143c-0.722-0.062-1.44-0.227-2.16-0.228c-9.12-0.016-18.24-0.011-27.36-0.011
	c-1.24,0-2.479,0-3.72,0"/>
<path fill-rule="evenodd" clip-rule="evenodd" fill="none" stroke="#000000" stroke-width="2" stroke-linecap="round" stroke-linejoin="round" stroke-miterlimit="10" d="
	M607.2,554.2c-3.056,4.331-7.281,7.116-11.987,9.387c-8.404,4.055-17.436,6.03-26.426,8.079c-6.496,1.48-13.128,2.352-19.66,3.688
	c-4.688,0.96-9.359,1.76-14.167,1.663c-4.159-0.083-8.321-0.079-12.479-0.004c-7.248,0.133-14.163-1.729-21.123-3.362
	c-1.342-0.315-2.718-0.491-4.077-0.731"/>
<path fill-rule="evenodd" clip-rule="evenodd" fill="none" stroke="#000000" stroke-width="2" stroke-linecap="round" stroke-linejoin="round" stroke-miterlimit="10" d="
	M666,364.84c0.519,2.851-1.117,5.204-2.003,7.65c-1.63,4.505-3.887,8.779-5.646,13.242c-2.594,6.577-5.725,12.894-8.933,19.177
	c-0.896,1.754-2.109,3.342-3.081,5.061c-0.722,1.278-1.412,2.489-0.332,4.12c0.675,1.021,0.615,2.527,1.008,4.404
	c-0.611,0.274-1.457,0.83-2.38,1.032c-1.859,0.409-3.088,1.335-3.89,3.128c-0.491,1.099-1.429,2.079-2.362,2.884
	c-5.16,4.446-10.599,8.594-15.526,13.28c-6.227,5.921-12.043,12.273-18.06,18.417c-3.012,3.075-6.173,5.909-10.027,8.012
	c-2.029,1.107-3.486,3.217-5.357,4.675c-1.134,0.883-0.386,1.776-0.459,2.678c-0.299,3.682-0.65,7.359-0.946,11.041
	c-0.453,5.628-0.229,11.195,0.639,16.812c1.131,7.325,2.567,14.535,4.844,21.599c1.84,5.708,3.229,11.564,5.137,17.248
	c1.087,3.238,2.816,6.262,4.256,9.382"/>
<path fill-rule="evenodd" clip-rule="evenodd" fill="none" stroke="#000000" stroke-width="2" stroke-linecap="round" stroke-linejoin="round" stroke-miterlimit="10" d="
	M332.16,371.08c0.531-1.246,1.063-2.492,1.594-3.739c0.268,0.006,0.536,0.013,0.805,0.019c0.32,1.561,0.846,3.11,0.926,4.683
	c0.415,8.091,1.669,16.055,4.181,23.736c1.736,5.313,4.214,10.378,6.142,15.634c2.064,5.627,3.86,11.353,5.805,17.024
	c0.312,0.909,0.788,1.764,1.188,2.644"/>
<path fill-rule="evenodd" clip-rule="evenodd" fill="none" stroke="#000000" stroke-width="2" stroke-linecap="round" stroke-linejoin="round" stroke-miterlimit="10" d="
	M423.6,33.4c-2.673-0.904-4.749,0.783-6.948,1.707c-9.752,4.097-18.888,9.174-26.686,16.496c-3.72,3.493-8.104,6.307-11.646,9.954
	c-3.947,4.063-8.104,8.29-10.691,13.222c-4.136,7.885-9.817,14.907-13.088,23.205c-3.52,8.931-8.638,16.914-13.749,24.93
	c-0.333,0.523-0.792,0.966-1.191,1.446"/>
<path fill-rule="evenodd" clip-rule="evenodd" fill="none" stroke="#000000" stroke-width="2" stroke-linecap="round" stroke-linejoin="round" stroke-miterlimit="10" d="
	M339.12,124.36c0.401,1.172,0.37,1.154-0.234,2.164c-1.38,2.308-3.09,4.504-3.991,6.991c-1.048,2.892-1.472,6.029-1.992,9.09
	c-0.732,4.304-1.069,8.687-2.002,12.943c-1.17,5.334-0.771,10.546,0.003,15.861c0.67,4.6,1.069,9.265,1.206,13.913
	c0.198,6.714-0.1,13.443,0.1,20.157c0.148,4.967,0.748,9.921,1.151,14.881c0.396,4.88,0.866,9.755,1.179,14.641
	c0.26,4.074,0.417,8.158,0.484,12.239c0.134,8.239,0.1,16.481,0.274,24.719c0.248,11.682,0.57,23.362,0.963,35.04
	c0.194,5.764,0.737,11.517,0.893,17.281c0.09,3.354-0.331,6.718-0.396,10.08c-0.017,0.875,0.441,1.759,0.681,2.639"/>
<path fill-rule="evenodd" clip-rule="evenodd" fill="none" stroke="#000000" stroke-width="2" stroke-linecap="round" stroke-linejoin="round" stroke-miterlimit="10" d="
	M371.04,146.92c0.181,0.635,0.361,1.269,0.56,1.968c-5.884,5.81-10.008,12.716-13.058,20.345
	c-4.329,10.829-8.813,21.595-13.143,32.423c-0.529,1.324-0.52,2.865-0.759,4.305"/>
<path fill-rule="evenodd" clip-rule="evenodd" fill="none" stroke="#000000" stroke-width="2" stroke-linecap="round" stroke-linejoin="round" stroke-miterlimit="10" d="
	M342.24,349c0.56,2.32,1.107,4.644,1.682,6.96c1.272,5.122,1.874,10.545,3.99,15.292c3.606,8.087,7.755,16.01,12.491,23.484
	c2.598,4.101,5.021,8.641,9.196,11.624"/>
<path fill-rule="evenodd" clip-rule="evenodd" fill="none" stroke="#000000" stroke-width="2" stroke-linecap="round" stroke-linejoin="round" stroke-miterlimit="10" d="
	M499.44,38.92c-0.48-0.4-0.9-1.009-1.45-1.167c-5.184-1.495-10.367-3.003-15.6-4.313c-2.504-0.627-5.1-0.95-7.674-1.209
	c-2.867-0.289-5.764-0.566-8.636-0.469c-8.483,0.286-16.959,0.803-25.442,1.132c-2.473,0.096-4.971-0.012-7.435-0.251
	c-2.086-0.202-4.113,1.117-6.331-0.036c-0.466-0.242-2.727,0.048-3.604,1.706c-0.441,0.834-1.827,1.172-2.79,1.727
	c-5.279,3.042-10.631,5.965-15.819,9.154c-4.817,2.962-9.661,5.947-14.13,9.392c-5.518,4.254-10.596,9.037-14.97,14.543
	c-2.423,3.052-5.229,5.803-7.904,8.649c-0.228,0.242-0.777,0.182-1.177,0.261"/>
<path fill-rule="evenodd" clip-rule="evenodd" fill="none" stroke="#000000" stroke-width="2" stroke-linecap="round" stroke-linejoin="round" stroke-miterlimit="10" d="
	M662.64,433.48c0.308,1.304,0.237,2.473-0.144,3.866c-1.317,4.828-3.52,9.156-6.044,13.444c-4.993,8.479-7.817,17.834-10.1,27.337
	c-1.046,4.357-2.59,8.488-4.593,12.473"/>
<path fill-rule="evenodd" clip-rule="evenodd" fill="none" stroke="#000000" stroke-width="2" stroke-linecap="round" stroke-linejoin="round" stroke-miterlimit="10" d="
	M509.04,43c-1.68,4.88-3.366,9.758-5.037,14.641c-0.737,2.154-1.157,4.476-2.233,6.441c-1.436,2.622-0.719,5.555-1.81,8.215
	c-3.931,9.589-8.134,18.921-14.294,27.449c-5.463,7.562-11.326,14.753-17.17,21.987c-0.439,0.544-0.577,1.326-1,1.89
	c-0.365,0.486-0.937,0.818-1.416,1.218"/>
<path fill-rule="evenodd" clip-rule="evenodd" fill="none" stroke="#000000" stroke-width="2" stroke-linecap="round" stroke-linejoin="round" stroke-miterlimit="10" d="
	M510,379.721c-2.16-0.32-4.313-0.699-6.481-0.946c-3.274-0.373-6.557-0.901-9.839-0.92c-5.839-0.033-11.77-0.289-17.486,0.633
	c-3.461,0.558-6.781,2.871-9.829,4.9c-4.414,2.938-8.54,6.312-12.751,9.55c-0.89,0.684-1.613,1.583-2.413,2.383"/>
<path fill-rule="evenodd" clip-rule="evenodd" fill="none" stroke="#000000" stroke-width="2" stroke-linecap="round" stroke-linejoin="round" stroke-miterlimit="10" d="
	M460.8,83.08c-0.319,0.64-0.499,1.423-0.98,1.899c-7.73,7.63-15.553,15.168-23.23,22.85c-2.723,2.725-5.114,5.78-7.536,8.546
	c-1.014,0.181-2.181,0.103-3.029,0.586c-7.947,4.516-16.007,8.75-24.469,12.282c-6.332,2.642-13.025,4.569-18.756,8.555
	c-0.947,0.658-2.009,1.18-2.864,1.939c-6.041,5.366-13.061,9.468-18.845,15.232c-3.647,3.635-8.281,6.326-12.642,9.182
	c-2.73,1.788-4.777,4.058-6.448,6.77"/>
<path fill-rule="evenodd" clip-rule="evenodd" fill="none" stroke="#000000" stroke-width="2" stroke-linecap="round" stroke-linejoin="round" stroke-miterlimit="10" d="
	M527.52,29.561c-1.199,0.56-2.505,1.745-3.58,1.564c-3.493-0.587-5.344,1.946-7.677,3.509c-2.028,1.358-3.823,3.062-5.814,4.482
	c-0.424,0.303-1.523,0.321-1.846,0.001c-3.215-3.197-7.562-3.679-11.561-5.004c-4.01-1.329-7.929-3.014-12.018-4.011
	c-8.584-2.093-17.287-2.874-26.153-1.813c-4.11,0.492-8.314,0.146-12.47,0.331c-5.925,0.264-11.791,1.016-17.517,2.635
	c-0.434,0.123-0.805,0.464-1.205,0.705"/>
<path fill-rule="evenodd" clip-rule="evenodd" fill="none" stroke="#000000" stroke-width="2" stroke-linecap="round" stroke-linejoin="round" stroke-miterlimit="10" d="
	M452.4,476.92c-2.106,1.501-1.696,4.001-2.07,6.018c-1.723,9.313-3.608,18.585-6.617,27.566c-2.093,6.248-5.637,11.767-9.528,17.074
	c-3.397,4.634-6.578,9.427-9.867,14.14c-1.621,2.322-2.293,4.749-0.957,7.442"/>
<path fill-rule="evenodd" clip-rule="evenodd" fill="none" stroke="#000000" stroke-width="2" stroke-linecap="round" stroke-linejoin="round" stroke-miterlimit="10" d="
	M657.36,128.92c0.96,1.28,1.814,2.658,2.899,3.822c3.333,3.573,4.373,8.304,6.429,12.514c2.769,5.668,3.755,11.893,5.026,17.994
	c1.023,4.914,1.369,9.978,2.546,14.846c0.738,3.051,2.468,5.861,3.732,8.788c0.285,0.66,0.632,1.342,0.702,2.04
	c0.372,3.674,0.621,7.362,1.001,11.036c0.232,2.249,0.765,4.473,0.901,6.724c0.121,1.988-0.117,3.998-0.197,5.998"/>
<path fill-rule="evenodd" clip-rule="evenodd" fill="none" stroke="#000000" stroke-width="2" stroke-linecap="round" stroke-linejoin="round" stroke-miterlimit="10" d="
	M674.88,354.04c-1.04,2.561-2.203,5.078-3.096,7.688c-2.233,6.535-4.355,13.107-6.5,19.673c-1.225,3.752-2.862,7.448-3.46,11.301
	c-0.482,3.113-1.128,6.116-2.024,9.109c-0.191,0.64,0.12,1.429,0.2,2.148"/>
<path fill-rule="evenodd" clip-rule="evenodd" fill="none" stroke="#000000" stroke-width="2" stroke-linecap="round" stroke-linejoin="round" stroke-miterlimit="10" d="
	M390.72,503.08c-0.16,0.561-0.429,1.113-0.463,1.681c-0.426,6.959-0.83,13.919-1.212,20.88c-0.263,4.799-0.521,9.599-0.712,14.4
	c-0.141,3.518-0.219,7.039-0.217,10.56c0,0.8,0.445,1.6,0.685,2.399"/>
<path fill-rule="evenodd" clip-rule="evenodd" fill="none" stroke="#000000" stroke-width="2" stroke-linecap="round" stroke-linejoin="round" stroke-miterlimit="10" d="
	M391.2,503.08c0.64,2.32,1.47,4.606,1.883,6.967c1.146,6.541,1.981,13.139,3.201,19.665c0.919,4.922,0.641,9.751,0.017,14.656
	c-0.279,2.194,0.099,4.473,0.179,6.712"/>
<path fill-rule="evenodd" clip-rule="evenodd" fill="none" stroke="#000000" stroke-width="2" stroke-linecap="round" stroke-linejoin="round" stroke-miterlimit="10" d="
	M681.12,377.8c-1.12,2-2.507,3.903-3.277,6.03c-0.643,1.774-0.372,3.857-0.835,5.723c-2.33,9.377-4.723,18.739-7.193,28.081
	c-0.795,3.004-1.78,5.971-2.897,8.87c-0.67,1.739-0.549,3.254,0.283,4.816"/>
<path fill-rule="evenodd" clip-rule="evenodd" fill="none" stroke="#000000" stroke-width="2" stroke-linecap="round" stroke-linejoin="round" stroke-miterlimit="10" d="
	M341.76,349c-0.32,1.841-0.937,3.685-0.908,5.52c0.118,7.762,0.072,15.554,0.791,23.27c0.496,5.317,2.625,10.405,5.215,15.099
	c2.912,5.276,6.172,10.375,10.491,14.684c0.401,0.399,0.873,0.922,0.935,1.434c0.446,3.674,3.44,5.964,4.889,9.091
	c0.266,0.573,1.227,0.824,1.867,1.225"/>
<path fill-rule="evenodd" clip-rule="evenodd" fill="none" stroke="#000000" stroke-width="2" stroke-linecap="round" stroke-linejoin="round" stroke-miterlimit="10" d="
	M636.48,210.76c-0.48,0.72-0.834,1.583-1.46,2.138c-5.051,4.479-9.646,9.435-15.285,13.303c-5.386,3.695-11.517,5.808-17.104,9.025
	c-3.475,2-7.032,3.854-10.552,5.775"/>
<path fill-rule="evenodd" clip-rule="evenodd" fill="none" stroke="#000000" stroke-width="2" stroke-linecap="round" stroke-linejoin="round" stroke-miterlimit="10" d="
	M497.52,575.08c-5.6-1.52-11.324-2.691-16.771-4.641c-8.368-2.994-16.854-5.876-24.033-11.434c-1.088-0.842-2.203-1.659-3.376-2.373
	c-0.351-0.213-0.939-0.032-1.42-0.032"/>
<path fill-rule="evenodd" clip-rule="evenodd" fill="none" stroke="#000000" stroke-width="2" stroke-linecap="round" stroke-linejoin="round" stroke-miterlimit="10" d="
	M353.28,432.04c-0.173,1.857,0.562,3.304,1.634,4.832c4.5,6.412,8.546,13.066,11.652,20.331c2.604,6.092,4.84,12.219,5.936,18.753
	c0.072,0.429,0.458,0.804,0.698,1.204"/>
<path fill-rule="evenodd" clip-rule="evenodd" fill="none" stroke="#000000" stroke-width="2" stroke-linecap="round" stroke-linejoin="round" stroke-miterlimit="10" d="
	M469.2,208.84c-2,1.12-4.03,2.19-5.995,3.369c-8.917,5.35-17.258,11.483-24.966,18.47c-3.274,2.967-6.591,5.886-9.828,8.893
	c-2.177,2.021-2.425,1.947-4.59,0.009c-10.598-9.487-21.235-18.931-31.924-28.315c-2-1.755-4.299-3.169-6.572-4.821
	c7.822-7.208,16.248-12.917,24.598-18.72c5.102-3.546,10.241-7.039,15.351-10.573c0.603-0.417,1.126-0.952,1.686-1.432"/>
<path fill-rule="evenodd" clip-rule="evenodd" fill="none" stroke="#000000" stroke-width="2" stroke-linecap="round" stroke-linejoin="round" stroke-miterlimit="10" d="
	M415.68,546.04c0,2.08-0.162,4.176,0.031,6.237c0.553,5.928,1.135,11.858,1.918,17.759c0.919,6.923,2.147,13.797,4.531,20.404"/>
<path fill-rule="evenodd" clip-rule="evenodd" fill="none" stroke="#000000" stroke-width="2" stroke-linecap="round" stroke-linejoin="round" stroke-miterlimit="10" d="
	M682.56,231.4c0.24,0.96,0.609,1.908,0.698,2.882c0.448,4.875,0.824,9.758,1.218,14.639c0.032,0.397,0.176,0.95-0.022,1.176
	c-1.774,2.025-0.668,4.35-0.64,6.503c0.049,3.762,0.472,7.519,0.655,11.281c0.21,4.317,0.399,8.639,0.451,12.96
	c0.017,1.357-0.174,2.842-0.734,4.054c-1.221,2.64-1.256,5.396-1.397,8.185c-0.365,7.202-0.725,14.405-1.206,21.599
	c-0.478,7.126-1.094,14.242-1.677,21.36c-0.053,0.648-0.306,1.281-0.465,1.921"/>
<path fill-rule="evenodd" clip-rule="evenodd" fill="none" stroke="#000000" stroke-width="2" stroke-linecap="round" stroke-linejoin="round" stroke-miterlimit="10" d="
	M420.48,507.88c-0.32,1.681-0.452,3.424-0.993,5.029c-2.324,6.906-4.725,13.786-7.18,20.646c-2.107,5.888-2.935,11.773-0.467,17.765
	"/>
<path fill-rule="evenodd" clip-rule="evenodd" fill="none" stroke="#000000" stroke-width="2" stroke-linecap="round" stroke-linejoin="round" stroke-miterlimit="10" d="
	M347.28,203.56c-2.575,2.147-4.172,4.811-4.855,8.149c-0.421,2.061-1.804,3.968-2.018,6.021c-0.448,4.29-0.363,8.633-0.578,12.95
	c-0.275,5.522-0.712,11.038-0.916,16.562c-0.109,2.953,0.138,5.919,0.204,8.879c0.091,4.08,0.207,8.16,0.232,12.24
	c0.04,6.16-0.011,12.32,0.021,18.48c0.013,2.4,0.166,4.8,0.197,7.2c0.002,0.197-0.448,0.4-0.688,0.6"/>
<path fill-rule="evenodd" clip-rule="evenodd" fill="none" stroke="#000000" stroke-width="2" stroke-linecap="round" stroke-linejoin="round" stroke-miterlimit="10" d="
	M365.28,423.641c1.36,4.159,2.96,8.26,4.02,12.495c1.366,5.458,2.445,11,3.374,16.553c0.715,4.28,1.007,8.632,1.487,12.952"/>
<path fill-rule="evenodd" clip-rule="evenodd" fill="none" stroke="#000000" stroke-width="2" stroke-linecap="round" stroke-linejoin="round" stroke-miterlimit="10" d="
	M428.88,465.641c0.982,6.796-0.056,13.424-1.958,19.908c-1.822,6.212-3.961,12.332-5.963,18.491c-0.43,1.323-0.356,1.533,0.721,1.92
	"/>
<path fill-rule="evenodd" clip-rule="evenodd" fill="none" stroke="#000000" stroke-width="2" stroke-linecap="round" stroke-linejoin="round" stroke-miterlimit="10" d="
	M644.16,169.48c-1.146-2.624-3.242-3.427-5.992-3.687c-2.28-0.215-4.794-0.73-6.646-1.956c-2.097-1.386-4.07-1.693-6.049-0.769
	c-2.646,1.236-5.157,0.222-7.712,0.14c-3.604-0.116-7.198-0.513-10.802-0.665c-2.209-0.094-4.275-0.181-6.563,0.875
	c-2.272,1.049-5.355,1.185-7.803-0.237c-2.085-1.212-4.025-0.737-5.753,0.139c-1.882,0.954-3.709,1.572-5.801,1.611
	c-7.12,0.131-14.269-0.021-21.349,0.598c-3.944,0.345-8.231,0.889-11.483,3.53c-3.415,2.774-6.458,6.011-9.641,9.069
	c-0.692,0.665-1.287,1.432-1.928,2.152"/>
<path fill-rule="evenodd" clip-rule="evenodd" fill="none" stroke="#000000" stroke-width="2" stroke-linecap="round" stroke-linejoin="round" stroke-miterlimit="10" d="
	M426.96,176.44c12.894,7.472,25.233,15.667,35.011,27.145c0.846,0.993,2.794,1.364,2.189,3.335"/>
<path fill-rule="evenodd" clip-rule="evenodd" fill="none" stroke="#000000" stroke-width="2" stroke-linecap="round" stroke-linejoin="round" stroke-miterlimit="10" d="
	M339.84,294.76c1.663,1.471,2,3.699,2.052,5.523c0.301,10.634,0.274,21.277,0.327,31.917c0.002,0.479-0.303,0.959-0.458,1.44
	c-0.722,2.239-1.461,4.474-2.154,6.722c-0.504,1.638-0.831,3.38-2.887,3.838"/>
<path fill-rule="evenodd" clip-rule="evenodd" fill="none" stroke="#000000" stroke-width="2" stroke-linecap="round" stroke-linejoin="round" stroke-miterlimit="10" d="
	M401.28,539.08c-1.499,0.65-1.443,2.096-1.667,3.362c-0.294,1.671-0.497,3.357-0.729,5.039c-0.032,0.235-0.103,0.548,0.01,0.709
	c2.13,3.033,1.661,6.785,2.812,10.108c1.804,5.21,3.259,10.54,4.846,15.824c0.139,0.462,0.168,0.957,0.248,1.438"/>
<path fill-rule="evenodd" clip-rule="evenodd" fill="none" stroke="#000000" stroke-width="2" stroke-linecap="round" stroke-linejoin="round" stroke-miterlimit="10" d="
	M549.12,378.04c-3.76-0.319-7.516-0.819-11.281-0.914c-4.555-0.114-9.133-0.075-13.675,0.252c-3.939,0.283-7.844,1.063-11.764,1.622
	"/>
<path fill-rule="evenodd" clip-rule="evenodd" fill="none" stroke="#000000" stroke-width="2" stroke-linecap="round" stroke-linejoin="round" stroke-miterlimit="10" d="
	M505.68,296.68c-0.16,0.56-0.175,1.229-0.502,1.664c-5.01,6.662-9.334,13.753-13.163,21.145c-1.925,3.716-3.876,7.437-5.476,11.296
	c-1.223,2.949-0.155,3.062,2.103,3.322c3.914,0.451,7.845,0.76,11.756,1.233c2.413,0.293,4.803,0.78,7.202,1.181"/>
<path fill-rule="evenodd" clip-rule="evenodd" fill="none" stroke="#000000" stroke-width="2" stroke-linecap="round" stroke-linejoin="round" stroke-miterlimit="10" d="
	M467.88,483.16c-0.52,2.96-1.118,5.909-1.544,8.883c-1.03,7.192-4.229,13.555-7.45,19.921c-0.92,1.819-1.723,3.699-2.669,5.504
	c-0.334,0.637-0.937,1.133-1.417,1.692"/>
<path fill-rule="evenodd" clip-rule="evenodd" fill="none" stroke="#000000" stroke-width="2" stroke-linecap="round" stroke-linejoin="round" stroke-miterlimit="10" d="
	M553.2,213.16c0.24,0.4,0.39,0.917,0.733,1.183c5.501,4.265,11.071,8.44,16.532,12.755c4.549,3.594,8.983,7.332,13.45,11.028
	c1.821,1.508,3.845,2.424,6.244,2.395"/>
<path fill-rule="evenodd" clip-rule="evenodd" fill="none" stroke="#000000" stroke-width="2" stroke-linecap="round" stroke-linejoin="round" stroke-miterlimit="10" d="
	M668.88,133.96c1.12,2.08,2.153,4.212,3.377,6.23c3.538,5.84,4.249,12.439,5.277,18.967c0.393,2.494,0.906,4.972,1.47,7.433
	c0.081,0.353,0.756,0.57,1.156,0.85"/>
<path fill-rule="evenodd" clip-rule="evenodd" fill="none" stroke="#000000" stroke-width="2" stroke-linecap="round" stroke-linejoin="round" stroke-miterlimit="10" d="
	M555.12,27.16c-0.72-0.24-1.431-0.655-2.161-0.693c-8.037-0.416-15.938,0.567-23.764,2.35c-0.761,0.173-1.626-0.115-2.389,0.054
	c-1.305,0.289-2.566,0.769-3.847,1.169"/>
<path fill-rule="evenodd" clip-rule="evenodd" fill="none" stroke="#000000" stroke-width="2" stroke-linecap="round" stroke-linejoin="round" stroke-miterlimit="10" d="
	M409.68,450.761c-0.4,1.6-0.663,3.25-1.224,4.791c-2.265,6.217-4.039,12.501-4.081,19.208c-0.066,10.641-0.357,21.28-0.432,31.921
	c-0.045,6.479,0.1,12.96,0.23,19.439c0.083,4.158-0.943,8.083-2.13,12.014c-0.361,1.195-0.203,2.547-0.284,3.826"/>
<path fill-rule="evenodd" clip-rule="evenodd" fill="none" stroke="#000000" stroke-width="2" stroke-linecap="round" stroke-linejoin="round" stroke-miterlimit="10" d="
	M639.12,425.561c0,2.239,0.289,4.525-0.058,6.711c-0.825,5.187-1.266,10.354-0.939,15.611c0.198,3.188-0.184,6.418,0.106,9.591
	c0.236,2.585,0.251,5.446,2.811,7.207"/>
<path fill-rule="evenodd" clip-rule="evenodd" fill="none" stroke="#000000" stroke-width="2" stroke-linecap="round" stroke-linejoin="round" stroke-miterlimit="10" d="
	M472.32,488.2c2.319,0.796,1.376,2.883,1.097,4.056c-1.63,6.85-3.413,13.675-5.475,20.406c-1.376,4.493-3.396,8.785-4.948,13.23
	c-0.982,2.815-1.378,5.852-2.494,8.604c-1.691,4.173-3.77,8.189-5.726,12.252c-0.123,0.255-0.614,0.332-0.935,0.492"/>
<path fill-rule="evenodd" clip-rule="evenodd" fill="none" stroke="#000000" stroke-width="2" stroke-linecap="round" stroke-linejoin="round" stroke-miterlimit="10" d="
	M465.12,516.28c-3.84,9.68-8.065,19.231-11.344,29.099c-1.456,4.383-3.356,8.387-5.219,12.528c-1.323,2.942-2.663,6.302-2.537,9.978
	c0.087,2.535-1.157,5.111-1.776,7.677c-0.787,3.259-1.456,6.511-0.273,9.849c0.314,0.886,0.275,1.896,0.104,2.889
	c-1.179-1.103-2.029-2.25-1.034-3.858"/>
<path fill-rule="evenodd" clip-rule="evenodd" fill="none" stroke="#000000" stroke-width="2" stroke-linecap="round" stroke-linejoin="round" stroke-miterlimit="10" d="
	M393.6,433c-1.567,3.364-3.502,6.499-3.257,10.568c0.132,2.194-1.449,4.436-1.722,6.719c-0.666,5.578-1.019,11.193-1.503,16.793
	c-0.063,0.722-0.145,1.441-0.241,2.16c-0.149,1.121-0.603,2.287-0.428,3.353c0.853,5.217,1.995,10.389,2.795,15.613
	c0.731,4.773,1.156,9.594,1.716,14.395"/>
<path fill-rule="evenodd" clip-rule="evenodd" fill="none" stroke="#000000" stroke-width="2" stroke-linecap="round" stroke-linejoin="round" stroke-miterlimit="10" d="
	M691.2,345.761c0.479,0.68,1.362,1.354,1.371,2.04c0.039,3.198,0.249,6.339-1.455,9.445c-0.825,1.503-0.064,3.92,0.106,5.912
	c0.124,1.45,0.557,2.875,0.665,4.324c0.083,1.108-0.244,2.244-0.183,3.356c0.121,2.175,0.759,4.389-0.282,6.473
	c-1.418,2.841,0.007,5.782-0.443,8.651c-0.15,0.96-0.164,1.601-1.436,1.996c-2.604,0.811-3.575,2.344-2.577,4.928
	c1.872,4.853-0.371,8.883-2.086,12.96c-1.15,2.733-2.605,5.329-3.6,8.166c-0.613,1.75-2.178,3.147-2.959,4.865
	c-0.334,0.735,0.237,1.883,0.397,2.843"/>
<path fill-rule="evenodd" clip-rule="evenodd" fill="none" stroke="#000000" stroke-width="2" stroke-linecap="round" stroke-linejoin="round" stroke-miterlimit="10" d="
	M638.64,457c0.48,0.24,1.278,0.382,1.389,0.736c0.679,2.182,1.913,4.263,1.392,6.708c-0.097,0.451-0.052,1,0.117,1.429
	c1.669,4.252,0.827,8.458,0.028,12.735c-0.771,4.121-1.165,8.312-1.726,12.472"/>
<path fill-rule="evenodd" clip-rule="evenodd" fill="none" stroke="#000000" stroke-width="2" stroke-linecap="round" stroke-linejoin="round" stroke-miterlimit="10" d="
	M439.92,560.2c-1.36,7.92-2.728,15.839-4.073,23.762c-0.284,1.672-0.426,3.37-0.759,5.032c-0.12,0.6-0.607,1.126-0.928,1.687"/>
<path fill-rule="evenodd" clip-rule="evenodd" fill="none" stroke="#000000" stroke-width="2" stroke-linecap="round" stroke-linejoin="round" stroke-miterlimit="10" d="
	M651.12,551.08c-1.448-0.839-2.81-0.939-4.585-0.617c-2.542,0.461-5.255-0.07-7.896-0.092c-4.72-0.038-9.439,0.015-14.159-0.021
	c-2.32-0.018-4.641-0.212-6.961-0.202c-1.12,0.004-2.309,0.108-3.343,0.497c-1.473,0.553-2.661,0.295-4.126-0.198
	c-2.372-0.799-4.931-1.048-7.411-1.524c-0.478-0.092-0.96-0.162-1.439-0.241"/>
<path fill-rule="evenodd" clip-rule="evenodd" fill="none" stroke="#000000" stroke-width="2" stroke-linecap="round" stroke-linejoin="round" stroke-miterlimit="10" d="
	M335.76,343.48c1.858,0.79,1.072,2.442,0.895,3.59c-0.722,4.664-1.807,9.272-2.522,13.938c-0.312,2.032-0.052,4.152-0.052,6.232"/>
<path fill-rule="evenodd" clip-rule="evenodd" fill="none" stroke="#000000" stroke-width="2" stroke-linecap="round" stroke-linejoin="round" stroke-miterlimit="10" d="
	M332.16,350.44c1.321,1.703,0.377,3.555,0.184,5.273c-0.469,4.18-1.233,8.325-1.853,12.488c-0.082,0.548-0.192,1.199,0.016,1.666
	c2.751,6.162,0.893,12.655,1.374,18.975c0.047,0.618-0.441,1.277-0.681,1.918"/>
<path fill-rule="evenodd" clip-rule="evenodd" fill="none" stroke="#000000" stroke-width="2" stroke-linecap="round" stroke-linejoin="round" stroke-miterlimit="10" d="
	M387.36,428.681c-1.992,1.202-1.231,3.429-1.541,5.066c-0.878,4.645-1.5,9.414-1.483,14.133c0.023,6.722,0.697,13.44,1.122,20.159
	c0.025,0.408,0.302,0.801,0.462,1.201"/>
<path fill-rule="evenodd" clip-rule="evenodd" fill="none" stroke="#000000" stroke-width="2" stroke-linecap="round" stroke-linejoin="round" stroke-miterlimit="10" d="
	M442.8,546.04c-0.56,0.721-1.244,1.375-1.66,2.171c-2.917,5.58-5.77,11.194-8.671,16.783c-0.396,0.764-0.949,1.446-1.429,2.166"/>
<path fill-rule="evenodd" clip-rule="evenodd" fill="none" stroke="#000000" stroke-width="2" stroke-linecap="round" stroke-linejoin="round" stroke-miterlimit="10" d="
	M677.28,384.28c-1.44,1.52-2.969,2.967-4.304,4.574c-3.887,4.681-7.69,9.431-11.542,14.141c-0.681,0.833-1.507,1.552-2.143,2.414
	c-3.833,5.201-3.548,11.771-5.775,17.51c-0.376,0.97-0.797,1.921-1.196,2.881"/>
<path fill-rule="evenodd" clip-rule="evenodd" fill="none" stroke="#000000" stroke-width="2" stroke-linecap="round" stroke-linejoin="round" stroke-miterlimit="10" d="
	M551.76,378.761c1.601,1.359,3.21,2.708,4.799,4.082c4.245,3.673,8.478,7.362,12.725,11.033c0.803,0.694,1.099,1.448,0.477,2.404"/>
<path fill-rule="evenodd" clip-rule="evenodd" fill="none" stroke="#000000" stroke-width="2" stroke-linecap="round" stroke-linejoin="round" stroke-miterlimit="10" d="
	M398.88,569.32c-0.32,0.96-0.935,1.927-0.912,2.879c0.145,5.922,0.432,11.841,0.672,17.761"/>
<path fill-rule="evenodd" clip-rule="evenodd" fill="none" stroke="#000000" stroke-width="2" stroke-linecap="round" stroke-linejoin="round" stroke-miterlimit="10" d="
	M399.36,569.32c0.32,1.92,0.863,3.834,0.916,5.761c0.128,4.647,0.755,9.199,1.973,13.677c0.092,0.339,0.311,0.643,0.471,0.963"/>
<path fill-rule="evenodd" clip-rule="evenodd" fill="none" stroke="#000000" stroke-width="2" stroke-linecap="round" stroke-linejoin="round" stroke-miterlimit="10" d="
	M387.36,557.8c-1.92,1.04-3.861,2.044-5.75,3.139c-0.782,0.453-1.375,1.268-2.183,1.635c-5.77,2.628-9.373,7.425-12.707,12.508
	c-0.888,1.354-1.85,2.671-2.624,4.089c-1.996,3.658-1.761,7.801-2.417,11.75"/>
<path fill-rule="evenodd" clip-rule="evenodd" fill="none" stroke="#000000" stroke-width="2" stroke-linecap="round" stroke-linejoin="round" stroke-miterlimit="10" d="
	M398.88,549.16c-0.24,0.56-0.721,1.139-0.68,1.677c0.24,3.206,0.708,6.397,0.888,9.605c0.156,2.791,0.033,5.598,0.033,8.397"/>
<path fill-rule="evenodd" clip-rule="evenodd" fill="none" stroke="#000000" stroke-width="2" stroke-linecap="round" stroke-linejoin="round" stroke-miterlimit="10" d="
	M456.24,499.721c-0.641,5.76-1.751,11.519-1.77,17.28c-0.014,4.511-2.525,7.853-3.81,11.74c-1.508,4.563-3.157,9.134-5.332,13.402
	c-1.361,2.672-2,5.429-2.771,8.216c-0.709,2.563-1.458,5.115-2.134,7.688c-0.093,0.354,0.137,0.793,0.216,1.193"/>
<path fill-rule="evenodd" clip-rule="evenodd" fill="none" stroke="#000000" stroke-width="2" stroke-linecap="round" stroke-linejoin="round" stroke-miterlimit="10" d="
	M598.32,85c0.319,2.8,0.692,5.595,0.947,8.401c0.369,4.076,0.856,8.155,0.925,12.24c0.103,6.157-0.151,12.319-0.148,18.479
	c0.001,0.88,0.596,1.76,0.916,2.64"/>
<path fill-rule="evenodd" clip-rule="evenodd" fill="none" stroke="#000000" stroke-width="2" stroke-linecap="round" stroke-linejoin="round" stroke-miterlimit="10" d="
	M473.76,173.92c-1.851-0.939-3.372-2.191-4.592-3.938c-2.23-3.193-5.82-4.057-9.338-4.501c-3.071-0.389-6.23-0.061-9.35-0.092
	c-1.121-0.011-2.242-0.235-3.36-0.215c-7.601,0.133-15.2,0.312-22.8,0.464c-4.56,0.091-9.121,0.222-13.68,0.206
	c-1.361-0.004-2.72-0.443-4.08-0.684"/>
<path fill-rule="evenodd" clip-rule="evenodd" fill="none" stroke="#000000" stroke-width="2" stroke-linecap="round" stroke-linejoin="round" stroke-miterlimit="10" d="
	M647.28,551.32c0.64,0.16,1.431,0.645,1.896,0.429c3.806-1.769,6.86,0.673,10.086,1.785c2.968,1.024,5.795,2.472,8.646,3.813
	c0.643,0.302,1.132,0.934,1.691,1.414"/>
<path fill-rule="evenodd" clip-rule="evenodd" fill="none" stroke="#000000" stroke-width="2" stroke-linecap="round" stroke-linejoin="round" stroke-miterlimit="10" d="
	M682.8,384.521c0.16,2.399,0.601,4.821,0.421,7.195c-0.362,4.814-1.114,9.6-1.565,14.409c-0.072,0.764,0.585,1.596,0.904,2.396"/>
<path fill-rule="evenodd" clip-rule="evenodd" fill="none" stroke="#000000" stroke-width="2" stroke-linecap="round" stroke-linejoin="round" stroke-miterlimit="10" d="
	M472.56,486.04c-0.399,2.08-0.744,4.173-1.211,6.238c-1.085,4.808-2.229,9.602-3.349,14.402"/>
<path fill-rule="evenodd" clip-rule="evenodd" fill="none" stroke="#000000" stroke-width="2" stroke-linecap="round" stroke-linejoin="round" stroke-miterlimit="10" d="
	M679.68,212.92c1.33,0.678,1.832,1.258,1.906,2.641c0.275,5.118,0.494,10.239,0.734,15.359"/>
<path fill-rule="evenodd" clip-rule="evenodd" fill="none" stroke="#000000" stroke-width="2" stroke-linecap="round" stroke-linejoin="round" stroke-miterlimit="10" d="
	M380.88,438.761c-0.213,4.008,0.338,8.057-0.933,12.009c-1.016,3.156-1.954,6.356-2.626,9.6c-0.888,4.285-1.481,8.631-2.201,12.951"
	/>
<path fill-rule="evenodd" clip-rule="evenodd" fill="none" stroke="#000000" stroke-width="2" stroke-linecap="round" stroke-linejoin="round" stroke-miterlimit="10" d="
	M330.72,393.641c1.682,2.63,0.89,5.37,0.529,8.166c-0.45,3.488-0.953,6.973,1.081,10.356c1.406,2.339,1.889,5.229,3.26,7.597
	c1.537,2.655,3.628,4.987,5.442,7.486c0.846,1.166,1.608,2.395,2.408,3.594"/>
<path fill-rule="evenodd" clip-rule="evenodd" fill="none" stroke="#000000" stroke-width="2" stroke-linecap="round" stroke-linejoin="round" stroke-miterlimit="10" d="
	M660.96,393.88c-1.12,2.4-2.268,4.788-3.352,7.204c-0.998,2.223-1.997,4.451-2.843,6.733c-0.225,0.607,0.114,1.423,0.194,2.143"/>
<path fill-rule="evenodd" clip-rule="evenodd" fill="none" stroke="#000000" stroke-width="2" stroke-linecap="round" stroke-linejoin="round" stroke-miterlimit="10" d="
	M405.6,165.4c-3.52,0.16-7.04,0.32-10.56,0.479c-1.413,0.064-2.743-0.174-4.091-0.689c-3.245-1.24-6.005-0.209-8.389,2.13"/>
<path fill-rule="evenodd" clip-rule="evenodd" fill="none" stroke="#000000" stroke-width="2" stroke-linecap="round" stroke-linejoin="round" stroke-miterlimit="10" d="
	M681.6,231.88c-0.16,1.36-0.458,2.72-0.454,4.08c0.011,4.32,0.109,8.641,0.245,12.959c0.018,0.567,0.449,1.121,0.689,1.681"/>
<path fill-rule="evenodd" clip-rule="evenodd" fill="none" stroke="#000000" stroke-width="2" stroke-linecap="round" stroke-linejoin="round" stroke-miterlimit="10" d="
	M651.84,432.04c-0.72,3.36-1.808,6.691-2.074,10.087c-0.406,5.175-0.312,10.394-0.279,15.593c0.008,1.282,0.594,2.561,0.914,3.841"
	/>
<path fill-rule="evenodd" clip-rule="evenodd" fill="none" stroke="#000000" stroke-width="2" stroke-linecap="round" stroke-linejoin="round" stroke-miterlimit="10" d="
	M385.68,169.48c-1.004-1.309-3.811-1.917-4.79-0.95c-4.024,3.975-8.049,7.952-11.988,12.011c-1.263,1.301-2.262,2.858-3.382,4.298"
	/>
<path fill-rule="evenodd" clip-rule="evenodd" fill="none" stroke="#000000" stroke-width="2" stroke-linecap="round" stroke-linejoin="round" stroke-miterlimit="10" d="
	M422.64,558.28c0.08,5.12,0.002,10.249,0.29,15.357c0.232,4.094,0.919,8.162,1.385,12.243c0.118,1.036,0.166,2.079,0.245,3.119"/>
<path fill-rule="evenodd" clip-rule="evenodd" fill="none" stroke="#000000" stroke-width="2" stroke-linecap="round" stroke-linejoin="round" stroke-miterlimit="10" d="
	M370.32,403.721c-0.287,3.22-0.68,6.399-2.143,9.368c-1.439,2.921-2.636,5.964-4.142,8.848c-0.698,1.337-1.785,2.511-2.852,3.607
	c-3.185,3.273-6.263,6.779-11.265,7.194c-0.867,0.072-1.817,0.032-2.628-0.247c-3.638-1.256-7.558-1.917-10.341-5.001
	c-3.08-3.412-6.206-6.722-7.125-11.52c-0.379-1.98-0.417-3.582,1.375-4.811"/>
<path fill-rule="evenodd" clip-rule="evenodd" fill="none" stroke="#000000" stroke-width="2" stroke-linecap="round" stroke-linejoin="round" stroke-miterlimit="10" d="
	M379.68,424.36c-0.16,0.96-0.511,1.933-0.446,2.878c0.232,3.366,0.595,6.724,0.942,10.08c0.035,0.333,0.303,0.642,0.463,0.962"/>
<path fill-rule="evenodd" clip-rule="evenodd" fill="none" stroke="#000000" stroke-width="2" stroke-linecap="round" stroke-linejoin="round" stroke-miterlimit="10" d="
	M420.48,550.601c-1.742,2.624-2.27,5.555-2.157,8.64c0.064,1.761,0.157,3.521,0.237,5.28"/>
<path fill-rule="evenodd" clip-rule="evenodd" fill="none" stroke="#000000" stroke-width="2" stroke-linecap="round" stroke-linejoin="round" stroke-miterlimit="10" d="
	M571.44,28.12c-2.48-0.56-4.942-1.438-7.446-1.582c-2.12-0.122-4.454-0.878-6.475,0.622"/>
<path fill-rule="evenodd" clip-rule="evenodd" fill="none" stroke="#000000" stroke-width="2" stroke-linecap="round" stroke-linejoin="round" stroke-miterlimit="10" d="
	M674.88,345.4c-0.4,0.64-0.888,1.241-1.187,1.926c-2.265,5.189-4.446,10.416-6.781,15.572c-0.378,0.835-1.393,1.382-2.112,2.062"/>
<path fill-rule="evenodd" clip-rule="evenodd" fill="none" stroke="#000000" stroke-width="2" stroke-linecap="round" stroke-linejoin="round" stroke-miterlimit="10" d="
	M381.84,425.32c0,3.521,0.043,7.041-0.033,10.56c-0.017,0.805-0.447,1.601-0.687,2.4"/>
<path fill-rule="evenodd" clip-rule="evenodd" fill="none" stroke="#000000" stroke-width="2" stroke-linecap="round" stroke-linejoin="round" stroke-miterlimit="10" d="
	M679.68,324.28c-0.319,0.4-0.819,0.756-0.93,1.207c-0.622,2.545-0.987,5.164-1.772,7.653c-0.455,1.443-0.441,2.621,0.303,3.859"/>
<path fill-rule="evenodd" clip-rule="evenodd" fill="none" stroke="#000000" stroke-width="2" stroke-linecap="round" stroke-linejoin="round" stroke-miterlimit="10" d="
	M380.16,422.44c-1.76-0.72-3.572-1.336-5.268-2.185c-2.527-1.266-4.972-2.695-7.452-4.056"/>
<path fill-rule="evenodd" clip-rule="evenodd" fill="none" stroke="#000000" stroke-width="2" stroke-linecap="round" stroke-linejoin="round" stroke-miterlimit="10" d="
	M388.32,566.92c-1.736,2.005-2.169,4.307-2.304,6.953c-0.091,1.799-1.153,3.595-0.558,5.521c0.208,0.675,0.622,1.286,0.942,1.926"/>
<path fill-rule="evenodd" clip-rule="evenodd" fill="none" stroke="#000000" stroke-width="2" stroke-linecap="round" stroke-linejoin="round" stroke-miterlimit="10" d="
	M678.72,203.08c-0.479,2.24-1.023,4.469-1.42,6.724c-0.335,1.903-0.5,3.836-0.74,5.756"/>
<path fill-rule="evenodd" clip-rule="evenodd" fill="none" stroke="#000000" stroke-width="2" stroke-linecap="round" stroke-linejoin="round" stroke-miterlimit="10" d="
	M681.36,339.88c0.88,0.561,2.107,0.916,2.578,1.717c1.831,3.111,3.487,6.332,5.055,9.586c0.391,0.811,0.059,1.941,0.325,2.847
	c0.318,1.087,0.922,2.091,1.401,3.131"/>
<path fill-rule="evenodd" clip-rule="evenodd" fill="none" stroke="#000000" stroke-width="2" stroke-linecap="round" stroke-linejoin="round" stroke-miterlimit="10" d="
	M683.52,363.4c3.493,3.404,4.334,8.229,1.44,11.76"/>
<path fill-rule="evenodd" clip-rule="evenodd" fill="none" stroke="#000000" stroke-width="2" stroke-linecap="round" stroke-linejoin="round" stroke-miterlimit="10" d="
	M679.2,213.64c-0.641,4.16-1.353,8.311-1.898,12.483c-0.501,3.827-0.821,7.677-1.222,11.517"/>
<path fill-rule="evenodd" clip-rule="evenodd" fill="none" stroke="#000000" stroke-width="2" stroke-linecap="round" stroke-linejoin="round" stroke-miterlimit="10" d="
	M681.12,348.521c-0.96-0.16-2.118-0.039-2.835-0.545c-1.131-0.797-2.781-2.039-2.753-3.051c0.059-2.017,1.013-4.044,1.813-5.978
	c0.207-0.499,1.522-1.101,1.797-0.905c0.804,0.57,1.584,1.43,1.913,2.342c0.366,1.018,0.171,2.224,0.315,3.335
	c0.385,2.935-0.221,6.087,1.883,8.663c0.125,0.152-0.133,0.618-0.213,0.938"/>
<path fill-rule="evenodd" clip-rule="evenodd" fill="none" stroke="#000000" stroke-width="2" stroke-linecap="round" stroke-linejoin="round" stroke-miterlimit="10" d="
	M682.56,364.84c-1.191,3.773-1.224,7.444,0.96,10.921"/>
<path fill-rule="evenodd" clip-rule="evenodd" fill="none" stroke="#000000" stroke-width="2" stroke-linecap="round" stroke-linejoin="round" stroke-miterlimit="10" d="
	M683.52,274.12c-0.399,2-0.826,3.995-1.189,6.002c-0.215,1.19-0.456,2.399-0.445,3.598c0.007,0.802,0.436,1.601,0.675,2.4"/>
<path fill-rule="evenodd" clip-rule="evenodd" fill="none" stroke="#000000" stroke-width="2" stroke-linecap="round" stroke-linejoin="round" stroke-miterlimit="10" d="
	M330.96,391.24c-0.076,0.681-0.152,1.36-0.228,2.035c-2.708,1.001-2.841,1.354-2.695,3.967c0.08,1.427-0.357,2.875-0.417,4.319
	c-0.08,1.916-0.144,3.85,0.017,5.756c0.146,1.734,0.577,3.448,0.961,5.154c0.041,0.183,0.603,0.249,0.922,0.368"/>
<path fill-rule="evenodd" clip-rule="evenodd" fill="none" stroke="#000000" stroke-width="2" stroke-linecap="round" stroke-linejoin="round" stroke-miterlimit="10" d="
	M678,421.96c-3.335,5.282-7.846,9.09-13.932,10.758c-1.604,0.439-3.347,0.424-5.029,0.483c-0.472,0.017-1.063-0.338-1.422-0.698
	c-1.956-1.964-3.782-4.064-5.826-5.93c-0.56-0.511-1.711-0.373-2.591-0.533"/>
<path fill-rule="evenodd" clip-rule="evenodd" fill="none" stroke="#000000" stroke-width="2" stroke-linecap="round" stroke-linejoin="round" stroke-miterlimit="10" d="
	M328.8,368.92c-0.16,1.28-0.581,2.595-0.417,3.832c0.228,1.714,0.937,3.358,1.349,5.055c0.106,0.436,0.004,1.038-0.233,1.421
	c-2.415,3.882-1.637,8.299-2.082,12.499c-0.08,0.757,0.583,1.594,0.903,2.394"/>
<path fill-rule="evenodd" clip-rule="evenodd" fill="none" stroke="#000000" stroke-width="2" stroke-linecap="round" stroke-linejoin="round" stroke-miterlimit="10" d="
	M392.88,541.48c-0.8,2.64-1.571,5.289-2.408,7.917c-0.844,2.651-1.942,5.237-2.583,7.935c-0.768,3.23-1.202,6.543-1.696,9.833
	c-0.079,0.524,0.287,1.115,0.447,1.675"/>
<path fill-rule="evenodd" clip-rule="evenodd" fill="none" stroke="#000000" stroke-width="2" stroke-linecap="round" stroke-linejoin="round" stroke-miterlimit="10" d="
	M467.28,113.8c-0.641,2.64-1.484,5.252-1.853,7.929c-0.268,1.952,0.093,3.991,0.172,5.991"/>
<path fill-rule="evenodd" clip-rule="evenodd" fill="none" stroke="#000000" stroke-width="2" stroke-linecap="round" stroke-linejoin="round" stroke-miterlimit="10" d="
	M466.08,516.28c-1.168-0.781-0.493-1.73-0.239-2.64c0.573-2.059,2.145-3.887,1.548-6.226c-0.749-0.094-1.389-0.174-2.028-0.255"/>
<path fill-rule="evenodd" clip-rule="evenodd" fill="none" stroke="#000000" stroke-width="2" stroke-linecap="round" stroke-linejoin="round" stroke-miterlimit="10" d="
	M672.72,351.16c2.578,1.67,3.695,4.507,4.911,7.022c1.175,2.434,2.531,3.841,5.169,4.018"/>
<path fill-rule="evenodd" clip-rule="evenodd" fill="none" stroke="#000000" stroke-width="2" stroke-linecap="round" stroke-linejoin="round" stroke-miterlimit="10" d="
	M684.48,378.521c1.539,1.893,1.877,4.111,1.968,6.478c0.05,1.291,0.592,2.563,0.912,3.842"/>
<path fill-rule="evenodd" clip-rule="evenodd" fill="none" stroke="#000000" stroke-width="2" stroke-linecap="round" stroke-linejoin="round" stroke-miterlimit="10" d="
	M679.56,167.8c0.12,2.8,0.35,5.601,0.33,8.4c-0.021,2.801-0.216,5.607-0.499,8.395c-0.076,0.753-0.751,1.445-1.15,2.165"/>
<path fill-rule="evenodd" clip-rule="evenodd" fill="none" stroke="#000000" stroke-width="2" stroke-linecap="round" stroke-linejoin="round" stroke-miterlimit="10" d="
	M337.92,338.681c-0.4,0.399-0.914,0.735-1.181,1.211c-1.244,2.215-2.685,4.37-3.556,6.732c-1.244,3.376-3.729,6.273-3.907,10.056
	c-0.061,1.281-0.355,2.587-0.192,3.835c0.266,2.025,0.479,3.972-0.765,5.766"/>
<path fill-rule="evenodd" clip-rule="evenodd" fill="none" stroke="#000000" stroke-width="2" stroke-linecap="round" stroke-linejoin="round" stroke-miterlimit="10" d="
	M358.56,408.761c0.8,0.479,1.635,0.91,2.393,1.449c2.1,1.492,4.167,3.03,6.247,4.551"/>
<path fill-rule="evenodd" clip-rule="evenodd" fill="none" stroke="#000000" stroke-width="2" stroke-linecap="round" stroke-linejoin="round" stroke-miterlimit="10" d="
	M601.68,161.56c-2.036-1.035-7.401-1.035-9.12,0"/>
<path fill-rule="evenodd" clip-rule="evenodd" fill="none" stroke="#000000" stroke-width="2" stroke-linecap="round" stroke-linejoin="round" stroke-miterlimit="10" d="
	M672.24,120.04c1.28,1.68,2.691,3.28,3.781,5.076c0.504,0.832,0.379,2.044,0.538,3.084"/>
<path fill-rule="evenodd" clip-rule="evenodd" fill="none" stroke="#000000" stroke-width="2" stroke-linecap="round" stroke-linejoin="round" stroke-miterlimit="10" d="
	M422.4,551.8c-0.32,2.16-0.704,4.314-0.908,6.485c-0.042,0.446,0.588,0.955,0.908,1.436"/>
<path fill-rule="evenodd" clip-rule="evenodd" fill="none" stroke="#000000" stroke-width="2" stroke-linecap="round" stroke-linejoin="round" stroke-miterlimit="10" d="
	M637.68,166.36c0.726,2.03,2.932,3.333,5.279,3.408c0.969,0.031,1.996,0.457,2.868,0.936c3.483,1.917,6.439,4.504,9.153,7.397
	c0.499,0.532,1.26,0.819,1.899,1.219"/>
<path fill-rule="evenodd" clip-rule="evenodd" fill="none" stroke="#000000" stroke-width="2" stroke-linecap="round" stroke-linejoin="round" stroke-miterlimit="10" d="
	M681.12,377.44c0.752-0.377,1.503-0.754,2.228-1.116c-0.196,2.506-0.327,4.756-0.587,6.991c-0.05,0.432-0.601,0.805-0.921,1.205"/>
<path fill-rule="evenodd" clip-rule="evenodd" fill="none" stroke="#000000" stroke-width="2" stroke-linecap="round" stroke-linejoin="round" stroke-miterlimit="10" d="
	M327.36,366.761c-0.4,2.399-1.067,4.794-1.118,7.201c-0.044,2.059-0.832,4.301,0.638,6.238"/>
<path fill-rule="evenodd" clip-rule="evenodd" fill="none" stroke="#000000" stroke-width="2" stroke-linecap="round" stroke-linejoin="round" stroke-miterlimit="10" d="
	M690.24,388.12c0.811,2.806,0.048,5.666-1.92,7.2"/>
<path fill-rule="evenodd" clip-rule="evenodd" fill="none" stroke="#000000" stroke-width="2" stroke-linecap="round" stroke-linejoin="round" stroke-miterlimit="10" d="
	M343.92,289c-0.842,2.414-0.77,5.163-2.64,7.2"/>
<path fill-rule="evenodd" clip-rule="evenodd" fill="none" stroke="#000000" stroke-width="2" stroke-linecap="round" stroke-linejoin="round" stroke-miterlimit="10" d="
	M645.12,412.84c-1.609,0.78-2.353,2.017-2.178,3.842c0.099,1.031,0.018,2.079,0.018,3.118"/>
<path fill-rule="evenodd" clip-rule="evenodd" fill="none" stroke="#000000" stroke-width="2" stroke-linecap="round" stroke-linejoin="round" stroke-miterlimit="10" d="
	M678.72,348.761c-0.389,2.998,0.749,4.775,3.84,6"/>
<path fill-rule="evenodd" clip-rule="evenodd" fill="none" stroke="#000000" stroke-width="2" stroke-linecap="round" stroke-linejoin="round" stroke-miterlimit="10" d="
	M428.4,117.16c-1.396,2.427-1.874,5.404-4.32,7.2"/>
<path fill-rule="evenodd" clip-rule="evenodd" fill="none" stroke="#000000" stroke-width="2" stroke-linecap="round" stroke-linejoin="round" stroke-miterlimit="10" d="
	M448.08,557.8c-1.2,0.16-2.423,0.225-3.596,0.5c-2.813,0.66-5.604,1.421-8.404,2.141"/>
<path fill-rule="evenodd" clip-rule="evenodd" fill="none" stroke="#000000" stroke-width="2" stroke-linecap="round" stroke-linejoin="round" stroke-miterlimit="10" d="
	M328.56,359.32c-2.458,3.579-1.936,6.97,1.44,9.36"/>
<path fill-rule="evenodd" clip-rule="evenodd" fill="none" stroke="#000000" stroke-width="2" stroke-linecap="round" stroke-linejoin="round" stroke-miterlimit="10" d="
	M620.64,160.12c1.601,0.24,3.221,0.393,4.791,0.76c0.695,0.163,1.289,0.76,1.93,1.16"/>
<path fill-rule="evenodd" clip-rule="evenodd" fill="none" stroke="#000000" stroke-width="2" stroke-linecap="round" stroke-linejoin="round" stroke-miterlimit="10" d="
	M420.72,506.44c-0.56,0.88-1.167,1.734-1.67,2.646c-0.916,1.66-1.77,3.354-2.65,5.034"/>
<path fill-rule="evenodd" clip-rule="evenodd" fill="none" stroke="#000000" stroke-width="2" stroke-linecap="round" stroke-linejoin="round" stroke-miterlimit="10" d="
	M604.32,549.4c0.88,0.64,1.686,1.444,2.656,1.884c1.701,0.77,3.504,1.316,5.264,1.956"/>
<path fill-rule="evenodd" clip-rule="evenodd" fill="none" stroke="#000000" stroke-width="2" stroke-linecap="round" stroke-linejoin="round" stroke-miterlimit="10" d="
	M676.32,173.8c-0.08,1.36-0.121,2.724-0.255,4.079c-0.08,0.808-0.306,1.602-0.466,2.401"/>
<path fill-rule="evenodd" clip-rule="evenodd" fill="none" stroke="#000000" stroke-width="2" stroke-linecap="round" stroke-linejoin="round" stroke-miterlimit="10" d="
	M648,419.32c1.374,1.854,2.976,3.629,2.16,6.24"/>
<path fill-rule="evenodd" clip-rule="evenodd" fill="none" stroke="#000000" stroke-width="2" stroke-linecap="round" stroke-linejoin="round" stroke-miterlimit="10" d="
	M624.24,164.92c2.08,1.211,4.16,1.089,6.24,0"/>
<path fill-rule="evenodd" clip-rule="evenodd" fill="none" stroke="#000000" stroke-width="2" stroke-linecap="round" stroke-linejoin="round" stroke-miterlimit="10" d="
	M391.92,166.84c-1.12,0.32-2.245,0.624-3.358,0.965c-0.967,0.296-1.921,0.635-2.881,0.955"/>
<path fill-rule="evenodd" clip-rule="evenodd" fill="none" stroke="#000000" stroke-width="2" stroke-linecap="round" stroke-linejoin="round" stroke-miterlimit="10" d="
	M646.08,419.8c1.04,2.881,2.041,5.775,3.132,8.636c1.005,2.638,5.118,4.656,8.148,4.085"/>
<path fill-rule="evenodd" clip-rule="evenodd" fill="none" stroke="#000000" stroke-width="2" stroke-linecap="round" stroke-linejoin="round" stroke-miterlimit="10" d="
	M585.84,162.04c-2.027-1.441-4.188-0.345-6.23-0.148c-1.416,0.136-0.906,1.743-0.97,2.789"/>
<path fill-rule="evenodd" clip-rule="evenodd" fill="none" stroke="#000000" stroke-width="2" stroke-linecap="round" stroke-linejoin="round" stroke-miterlimit="10" d="
	M328.32,374.44c0,1.92,0,3.84,0,5.76"/>
<path fill-rule="evenodd" clip-rule="evenodd" fill="none" stroke="#000000" stroke-width="2" stroke-linecap="round" stroke-linejoin="round" stroke-miterlimit="10" d="
	M681.6,385c-0.72,1.92-1.439,3.84-2.159,5.761"/>
<path fill-rule="evenodd" clip-rule="evenodd" fill="none" stroke="#000000" stroke-width="2" stroke-linecap="round" stroke-linejoin="round" stroke-miterlimit="10" d="
	M386.4,575.561c0.16,1.2,0.366,2.396,0.472,3.601c0.343,3.918,0.648,7.839,0.968,11.759"/>
<path fill-rule="evenodd" clip-rule="evenodd" fill="none" stroke="#000000" stroke-width="2" stroke-linecap="round" stroke-linejoin="round" stroke-miterlimit="10" d="
	M681.12,415.24c1.021,2.231-0.006,3.929-1.44,5.521"/>
<path fill-rule="evenodd" clip-rule="evenodd" fill="none" stroke="#000000" stroke-width="2" stroke-linecap="round" stroke-linejoin="round" stroke-miterlimit="10" d="
	M651.6,415c0.867,2.115-0.814,3.677-1.199,5.521"/>
<path fill-rule="evenodd" clip-rule="evenodd" fill="none" stroke="#000000" stroke-width="2" stroke-linecap="round" stroke-linejoin="round" stroke-miterlimit="10" d="
	M683.76,356.44c0.24,0.08,0.482,0.236,0.72,0.229c2.349-0.081,3.366,1.271,3.857,3.367c0.566,2.418,1.232,4.813,1.93,7.196
	c0.133,0.454,0.613,0.808,0.934,1.208"/>
<path fill-rule="evenodd" clip-rule="evenodd" fill="none" stroke="#000000" stroke-width="2" stroke-linecap="round" stroke-linejoin="round" stroke-miterlimit="10" d="
	M656.16,409.96c-0.561,0.24-1.414,0.326-1.633,0.745c-1.593,3.038-4.262,4.896-7.008,6.695"/>
<path fill-rule="evenodd" clip-rule="evenodd" fill="none" stroke="#000000" stroke-width="2" stroke-linecap="round" stroke-linejoin="round" stroke-miterlimit="10" d="
	M393.84,555.16c-1.6,0.24-3.2,0.48-4.8,0.72"/>
<path fill-rule="evenodd" clip-rule="evenodd" fill="none" stroke="#000000" stroke-width="2" stroke-linecap="round" stroke-linejoin="round" stroke-miterlimit="10" d="
	M337.44,129.64c-0.08,1.6-0.16,3.2-0.24,4.8"/>
<path fill-rule="evenodd" clip-rule="evenodd" fill="none" stroke="#000000" stroke-width="2" stroke-linecap="round" stroke-linejoin="round" stroke-miterlimit="10" d="
	M441.36,169.48c-1.44-0.56-2.88-1.12-4.32-1.68"/>
<path fill-rule="evenodd" clip-rule="evenodd" fill="none" stroke="#000000" stroke-width="2" stroke-linecap="round" stroke-linejoin="round" stroke-miterlimit="10" d="
	M691.2,346.12c-0.641,1.521-1.28,3.04-1.92,4.561"/>
<path fill-rule="evenodd" clip-rule="evenodd" fill="none" stroke="#000000" stroke-width="2" stroke-linecap="round" stroke-linejoin="round" stroke-miterlimit="10" d="
	M643.68,421.24c1.004,1.331,1.487,3.218,3.601,3.36"/>
<path fill-rule="evenodd" clip-rule="evenodd" fill="none" stroke="#000000" stroke-width="2" stroke-linecap="round" stroke-linejoin="round" stroke-miterlimit="10" d="
	M338.4,338.2c3.057,1.063,3.583,1.759,3.599,4.8c0.009,1.84,0.001,3.681,0.001,5.521"/>
<path fill-rule="evenodd" clip-rule="evenodd" fill="none" stroke="#000000" stroke-width="2" stroke-linecap="round" stroke-linejoin="round" stroke-miterlimit="10" d="
	M676.32,347.561c-0.561,1.359-1.12,2.72-1.681,4.08"/>
<path fill-rule="evenodd" clip-rule="evenodd" fill="none" stroke="#000000" stroke-width="2" stroke-linecap="round" stroke-linejoin="round" stroke-miterlimit="10" d="
	M640.56,422.2c-1.199,0.12-2.399,0.24-3.6,0.36c0-0.12-0.031-0.252,0.009-0.356c0.038-0.097,0.151-0.164,0.231-0.244"/>
<path fill-rule="evenodd" clip-rule="evenodd" fill="none" stroke="#000000" stroke-width="2" stroke-linecap="round" stroke-linejoin="round" stroke-miterlimit="10" d="
	M444.96,544.36c0.08,0.96,0.16,1.92,0.24,2.88"/>
<path fill-rule="evenodd" clip-rule="evenodd" fill="none" stroke="#000000" stroke-width="2" stroke-linecap="round" stroke-linejoin="round" stroke-miterlimit="10" d="
	M689.28,366.28c-0.721,0.56-1.44,1.12-2.16,1.68"/>
<path fill-rule="evenodd" clip-rule="evenodd" fill="none" stroke="#000000" stroke-width="2" stroke-linecap="round" stroke-linejoin="round" stroke-miterlimit="10" d="
	M614.16,550.84c0.64,0.561,1.279,1.12,1.92,1.681"/>
<path fill-rule="evenodd" clip-rule="evenodd" fill="none" stroke="#000000" stroke-width="2" stroke-linecap="round" stroke-linejoin="round" stroke-miterlimit="10" d="
	M451.92,530.92c-0.64,0.4-1.28,0.8-1.92,1.2"/>
<path fill-rule="evenodd" clip-rule="evenodd" fill="none" stroke="#000000" stroke-width="2" stroke-linecap="round" stroke-linejoin="round" stroke-miterlimit="10" d="
	M619.92,159.88c-0.08,0.96-0.16,1.92-0.24,2.88"/>
<path fill-rule="evenodd" clip-rule="evenodd" fill="none" stroke="#000000" stroke-width="2" stroke-linecap="round" stroke-linejoin="round" stroke-miterlimit="10" d="
	M679.68,130.84c0.561,0.24,1.12,0.48,1.681,0.72"/>
<path fill-rule="evenodd" clip-rule="evenodd" fill="none" stroke="#000000" stroke-width="2" stroke-linecap="round" stroke-linejoin="round" stroke-miterlimit="10" d="
	M626.64,58.6c-0.64-0.32-1.279-0.64-1.92-0.96"/>
<path fill-rule="evenodd" clip-rule="evenodd" fill="none" stroke="#000000" stroke-width="2" stroke-linecap="round" stroke-linejoin="round" stroke-miterlimit="10" d="
	M683.28,234.76c-0.561,0.08-1.12,0.16-1.681,0.24"/>
<path fill-rule="evenodd" clip-rule="evenodd" fill="none" stroke="#000000" stroke-width="2" stroke-linecap="round" stroke-linejoin="round" stroke-miterlimit="10" d="
	M681.6,251.8c-0.72,0.24-1.439,0.48-2.159,0.72"/>
</svg>
