<?xml version="1.0" encoding="utf-8"?>
<!-- Generator: Adobe Illustrator 16.0.0, SVG Export Plug-In . SVG Version: 6.00 Build 0)  -->
<!DOCTYPE svg PUBLIC "-//W3C//DTD SVG 1.1//EN" "http://www.w3.org/Graphics/SVG/1.1/DTD/svg11.dtd">
<svg version="1.1" id="Layer_1" xmlns="http://www.w3.org/2000/svg" xmlns:xlink="http://www.w3.org/1999/xlink" x="0px" y="0px"
	 width="841.89px" height="595.28px" viewBox="0 0 841.89 595.28" enable-background="new 0 0 841.89 595.28" xml:space="preserve">
<path fill-rule="evenodd" clip-rule="evenodd" fill="none" stroke="#000000" stroke-width="2" stroke-linecap="round" stroke-linejoin="round" stroke-miterlimit="10" d="
	M547.44,220.84c0.56-1.12,0.981-2.339,1.703-3.343c3.307-4.599,6.75-9.099,10.042-13.708c3.76-5.263,5.594-11.35,7.215-17.51
	c1.953-7.426,1.811-15.038,1.309-22.551c-0.372-5.564-1.592-11.147-3.077-16.544c-1.945-7.064-4.608-13.925-8.078-20.421
	c-3.812-7.135-7.363-14.436-11.609-21.304c-3.584-5.798-7.411-11.578-12.644-16.117c-7.019-6.086-15.022-10.701-22.949-15.501
	c-8.425-5.103-17.519-8.28-26.708-11.412c-6.418-2.188-12.722-4.753-19.229-6.622c-5.396-1.55-11.003-2.394-16.538-3.429
	c-5.585-1.044-11.173-2.133-16.806-2.827c-3.473-0.427-7.031-0.151-10.551-0.191"/>
<path fill-rule="evenodd" clip-rule="evenodd" fill="none" stroke="#000000" stroke-width="2" stroke-linecap="round" stroke-linejoin="round" stroke-miterlimit="10" d="
	M505.68,389.8c-6.239,6.081-12.507,12.134-18.712,18.249c-5.398,5.32-10.728,10.712-16.088,16.071
	c-5.04,5.04-10.064,10.096-15.124,15.116c-5.422,5.379-10.893,10.708-16.312,16.089c-5.7,5.659-11.35,11.37-17.049,17.03
	c-4.295,4.265-8.746,8.379-12.93,12.749c-6.497,6.787-12.749,13.81-19.255,20.588c-3.758,3.915-7.802,7.558-11.745,11.293
	c-0.373,0.353-0.946,0.495-1.426,0.735"/>
<path fill-rule="evenodd" clip-rule="evenodd" fill="none" stroke="#000000" stroke-width="2" stroke-linecap="round" stroke-linejoin="round" stroke-miterlimit="10" d="
	M420.24,92.44c2.239,3.6,4.606,7.128,6.694,10.814c4.693,8.287,11.286,15.184,16.607,23.011c4.616,6.791,9.485,13.408,14.119,20.188
	c4.883,7.144,9.823,14.261,14.374,21.615c7.942,12.837,17.046,24.934,24.133,38.326c1.814,3.429,4.811,6.217,7.068,9.437
	c1.054,1.502,1.644,3.33,2.443,5.01"/>
<path fill-rule="evenodd" clip-rule="evenodd" fill="none" stroke="#000000" stroke-width="2" stroke-linecap="round" stroke-linejoin="round" stroke-miterlimit="10" d="
	M313.68,145.24c-0.56,0.16-1.354,0.138-1.643,0.509c-2.07,2.666-4.059,5.396-6.031,8.135c-1.711,2.378-3.457,4.738-5.027,7.208
	c-2.867,4.509-5.937,8.917-7.488,14.139c-0.279,0.939-0.932,1.768-1.46,2.736c6.587,7.369,12.98,14.993,20.957,20.995
	c4.321,3.25,9.102,5.9,13.358,9.226c3.462,2.705,6.572,5.898,9.627,9.077c5.373,5.59,10.553,11.366,15.875,17.007
	c6.445,6.833,12.983,13.578,19.409,20.429c1.592,1.697,2.933,3.636,4.335,5.504c1.986,2.646,2.138,2.767,4.548,0.929
	c1.936-1.475,3.707-3.166,5.536-4.778c0.978-0.861,1.923-1.756,2.883-2.637"/>
<path fill-rule="evenodd" clip-rule="evenodd" fill="none" stroke="#000000" stroke-width="2" stroke-linecap="round" stroke-linejoin="round" stroke-miterlimit="10" d="
	M590.64,347.08c-0.159,0.48-0.492,0.975-0.453,1.438c0.354,4.164,0.929,8.315,1.134,12.484c0.248,5.032-0.147,10.113,0.356,15.11
	c0.881,8.74-0.985,17.283-1.264,25.929c-0.085,2.637-0.013,5.279-0.013,7.919c0,1.36,0.018,2.721-0.012,4.08
	c-0.008,0.401-0.359,0.978-0.195,1.172c1.19,1.413,1.279,2.8,0.792,4.616c-0.37,1.378,0.163,3.02,0.385,4.53
	c0.673,4.6-0.55,8.844-3.203,12.428c-3.13,4.229-6.734,8.12-10.269,12.035c-3.26,3.61-6.481,7.303-10.108,10.523
	c-5.733,5.09-11.517,10.218-17.838,14.507c-2.712,1.84-4.545,3.96-6.379,6.408c-1.218,1.627-2.652,3.1-4.06,4.574
	c-7.266,7.614-14.454,15.306-21.877,22.764c-3.591,3.608-7.643,6.757-11.476,10.124c-6.005,5.274-12.033,10.523-17.991,15.85
	c-4.77,4.265-9.544,8.532-14.134,12.986c-2.677,2.597-5.005,5.555-7.473,8.365c-1.459,1.664-2.884,3.357-4.323,5.037"/>
<path fill-rule="evenodd" clip-rule="evenodd" fill="none" stroke="#000000" stroke-width="2" stroke-linecap="round" stroke-linejoin="round" stroke-miterlimit="10" d="
	M335.28,220.84c-0.079-0.561,0.202-0.87-0.937-1.083c-7.269-1.357-14.579-0.588-21.862-0.852c-4.563-0.165-9.133-0.332-13.676-0.753
	c-3.074-0.285-5.666,0.552-8.174,2.192c-3.882,2.538-7.773,5.07-11.763,7.433c-6.352,3.762-12.824,7.32-19.175,11.083
	c-4.482,2.655-8.979,5.197-13.906,7.011c-2.675,0.985-4.932,3.158-7.948,3.256c-3.182,0.104-6.131,0.862-8.875,2.438
	c-1.618,0.929-3.214,1.897-4.801,2.877c-4.646,2.871-9.239,5.831-13.953,8.584c-1.153,0.674-2.912,0.358-4.003,1.083
	c-2.311,1.532-4.465,3.343-6.504,5.234c-3.441,3.192-6.823,6.458-10.081,9.837c-3.536,3.667-6.799,7.6-10.369,11.232
	c-4.043,4.115-8.297,8.022-12.45,12.03c-1.14,1.1-2.203,2.28-3.37,3.35c-4.302,3.939-8.755,7.723-12.923,11.798
	c-5.687,5.56-11.113,11.355-15.68,17.935c-2.521,3.634-5.002,7.664-8.467,10.195c-6.757,4.938-11.539,11.71-17.637,17.207
	c-4.752,4.284-9.509,8.567-14.147,12.973c-3.854,3.661-7.515,7.524-11.315,11.243c-1.012,0.99-2.224,1.776-3.344,2.656"/>
<path fill-rule="evenodd" clip-rule="evenodd" fill="none" stroke="#000000" stroke-width="2" stroke-linecap="round" stroke-linejoin="round" stroke-miterlimit="10" d="
	M462.96,92.92c2.8,3.28,5.512,6.64,8.419,9.823c5.535,6.059,11.226,11.977,16.771,18.026c8.741,9.537,18.139,18.349,28.027,26.704
	c7.514,6.349,14.482,13.345,21.653,20.096c3.253,3.063,6.423,6.216,9.593,9.367c0.44,0.438,0.656,1.104,0.977,1.663"/>
<path fill-rule="evenodd" clip-rule="evenodd" fill="none" stroke="#000000" stroke-width="2" stroke-linecap="round" stroke-linejoin="round" stroke-miterlimit="10" d="
	M377.52,91.72c3.92,7.76,7.772,15.556,11.793,23.263c1.641,3.145,3.823,6.007,5.444,9.16c2.174,4.23,4.031,8.624,6.052,12.934
	c0.5,1.068,1.216,2.042,1.654,3.131c2.595,6.466,4.896,13.063,7.776,19.396c2.158,4.743,4.984,9.189,7.634,13.697
	c0.827,1.406,2.047,2.58,3.087,3.859"/>
<path fill-rule="evenodd" clip-rule="evenodd" fill="none" stroke="#000000" stroke-width="2" stroke-linecap="round" stroke-linejoin="round" stroke-miterlimit="10" d="
	M420.24,135.16c0.64,4.88,1.465,9.745,1.867,14.645c0.399,4.86,0.448,9.755,0.5,14.636c0.026,2.398-0.261,4.802-0.461,7.198
	c-0.074,0.887-0.243,1.778-0.479,2.638c-0.608,2.219-0.146,4.084,1.167,6.034c3.493,5.19,6.942,10.428,10.066,15.844
	c2.3,3.987,4.04,8.295,6.063,12.444c2.54,5.209,5.289,10.325,7.637,15.619c3.98,8.978,7.685,18.078,11.578,27.094
	c1.233,2.855,2.737,5.592,4.034,8.42c0.331,0.722,0.346,1.588,0.506,2.388"/>
<path fill-rule="evenodd" clip-rule="evenodd" fill="none" stroke="#000000" stroke-width="2" stroke-linecap="round" stroke-linejoin="round" stroke-miterlimit="10" d="
	M548.64,219.4c4.32,3.44,8.689,6.821,12.943,10.34c2.968,2.455,6.034,4.867,8.601,7.71c4.678,5.182,9.011,10.674,13.499,16.027
	c1.823,2.174,3.646,4.35,5.527,6.473c1.473,1.663,2.43,3.485,2.396,5.769c-0.098,6.56-0.134,13.121-0.256,19.68
	c-0.117,6.321-0.396,12.64-0.444,18.96c-0.044,5.52,0.152,11.04,0.207,16.56c0.035,3.52,0.066,7.042-0.014,10.56
	c-0.056,2.482-0.224,4.969-0.485,7.438c-0.188,1.774-0.723,3.513-0.891,5.287c-0.088,0.937,0.276,1.916,0.437,2.876"/>
<path fill-rule="evenodd" clip-rule="evenodd" fill="none" stroke="#000000" stroke-width="2" stroke-linecap="round" stroke-linejoin="round" stroke-miterlimit="10" d="
	M334.8,91.24c2,3.92,4.088,7.798,5.975,11.772c1.797,3.785,3.4,7.662,5.061,11.51c1.619,3.752,3.271,7.492,4.789,11.284
	c2.456,6.138,4.813,12.315,7.216,18.474c1.436,3.681,3.004,7.317,4.285,11.052c1.353,3.948,2.557,7.956,3.609,11.995
	c2.477,9.5,4.738,19.057,7.248,28.547c2.778,10.507,5.674,20.984,8.645,31.438c1.355,4.767,3.029,9.442,4.521,14.171
	c0.396,1.256,0.791,2.54,0.946,3.839c0.482,4.038,1.817,7.768,3.275,11.56c1.747,4.54,2.682,9.395,3.948,14.118
	c1.994,7.441,3.067,15.132,6.011,22.316c0.665,1.623,1.521,3.17,2.132,4.811c1.033,2.772,1.94,5.592,2.9,8.393"/>
<path fill-rule="evenodd" clip-rule="evenodd" fill="none" stroke="#000000" stroke-width="2" stroke-linecap="round" stroke-linejoin="round" stroke-miterlimit="10" d="
	M633.6,50.44c4.06,2.022,7.266,5.1,10.639,8.071c4.156,3.662,8.276,7.285,11.426,11.86c3.107,4.515,4,8.256,0.449,13.155
	c-1.312,1.81-3.096,3.297-4.766,4.82c-3.313,3.021-7.289,4.928-11.525,6.194c-1.733,0.518-3.659,0.434-5.503,0.52
	c-1.166,0.054-2.309-0.026-2.64,1.46"/>
<path fill-rule="evenodd" clip-rule="evenodd" fill="none" stroke="#000000" stroke-width="2" stroke-linecap="round" stroke-linejoin="round" stroke-miterlimit="10" d="
	M335.04,92.44c-2.013,0.864-1.942,2.996-2.581,4.583c-3.326,8.269-6.458,16.617-9.66,24.936c-0.555,1.442-1.158,2.867-1.669,4.324
	c-0.549,1.567,0.202,2.872,2.398,3.817c3.984,1.715,8.018,3.313,12.472,5.142c0,5.355,0.031,10.796-0.009,16.237
	c-0.039,5.28-0.057,10.563-0.267,15.838c-0.125,3.128-0.568,6.247-0.983,9.354c-0.04,0.299-0.901,0.488-1.381,0.728"/>
<path fill-rule="evenodd" clip-rule="evenodd" fill="none" stroke="#000000" stroke-width="2" stroke-linecap="round" stroke-linejoin="round" stroke-miterlimit="10" d="
	M462.72,135.16c-0.648,1.151,0.122,1.667,0.96,2.161c6.732,3.972,11.859,10.128,18.539,14.059
	c7.568,4.453,13.401,10.726,19.659,16.62c3.021,2.846,4.105,6.153,3.816,10.121c-0.028,0.393,0.146,0.799,0.226,1.199"/>
<path fill-rule="evenodd" clip-rule="evenodd" fill="none" stroke="#000000" stroke-width="2" stroke-linecap="round" stroke-linejoin="round" stroke-miterlimit="10" d="
	M505.44,92.56c-1.477,2.231-0.337,4.555-0.235,6.84c0.053,1.201,0.175,2.399,0.231,3.601c0.406,8.56,0.68,17.128,1.249,25.677
	c0.35,5.255,2.247,6.846,7.633,6.685c4.486-0.134,8.958-0.789,13.442-0.869c4.476-0.08,8.962,0.216,13.438,0.45
	c2.087,0.109,4.161,0.458,6.241,0.697"/>
<path fill-rule="evenodd" clip-rule="evenodd" fill="none" stroke="#000000" stroke-width="2" stroke-linecap="round" stroke-linejoin="round" stroke-miterlimit="10" d="
	M377.52,134.44c0,2.32,0.052,4.642-0.011,6.959c-0.121,4.401-0.43,8.8-0.441,13.2c-0.02,7.36,0.179,14.72,0.178,22.08
	c0,1.668,0.639,2.645,1.929,3.635c5.104,3.916,10.286,7.762,15.105,12.012c7.811,6.889,15.538,13.894,22.135,22.022
	c1.425,1.756,3.096,3.315,4.507,5.082c0.484,0.605,0.746,1.576,0.723,2.368c-0.176,6.162-0.392,12.323-0.699,18.48
	c-0.338,6.803-0.806,13.6-1.141,20.403c-0.022,0.463,0.595,0.958,0.916,1.438"/>
<path fill-rule="evenodd" clip-rule="evenodd" fill="none" stroke="#000000" stroke-width="2" stroke-linecap="round" stroke-linejoin="round" stroke-miterlimit="10" d="
	M250.8,432.521c-0.324-0.026-0.648-0.053-1.208-0.099c-0.81,1.537-0.465,3.317-0.259,5.142c0.342,3.028,0.575,6.073,0.733,9.117
	c0.291,5.598,0.638,11.198,0.684,16.8c0.03,3.678-0.699,7.367-0.602,11.038c0.127,4.807,0.805,9.597,1.114,14.403
	c0.365,5.68,0.817,11.362-0.191,17.044c-0.349,1.966-0.416,3.992-0.495,5.995c-0.134,3.357-0.175,6.72-0.255,10.079"/>
<path fill-rule="evenodd" clip-rule="evenodd" fill="none" stroke="#000000" stroke-width="2" stroke-linecap="round" stroke-linejoin="round" stroke-miterlimit="10" d="
	M463.44,177.64c-0.16,0.32-0.444,0.634-0.462,0.961c-0.267,5.039-0.674,10.079-0.694,15.12c-0.025,6.239,0.295,12.479,0.427,18.72
	c0.055,2.559,0.009,5.12,0.009,7.68"/>
<path fill-rule="evenodd" clip-rule="evenodd" fill="none" stroke="#000000" stroke-width="2" stroke-linecap="round" stroke-linejoin="round" stroke-miterlimit="10" d="
	M633.36,49.48c-1.054,1.797-0.153,3.682-0.204,5.521c-0.033,1.195,0.35,2.395,0.431,3.6c0.2,2.958,0.595,5.934,0.432,8.876
	c-0.244,4.413-0.899,8.803-1.378,13.203c-0.322,2.96-0.685,5.917-0.929,8.883C631.654,90.265,632,91,632.16,91.72"/>
<path fill-rule="evenodd" clip-rule="evenodd" fill="none" stroke="#000000" stroke-width="2" stroke-linecap="round" stroke-linejoin="round" stroke-miterlimit="10" d="
	M527.76,279.88c0.405,0.556,0.811,1.112,1.416,1.942c-7.729,7.904-15.482,15.832-23.234,23.76c-0.087-0.165-0.174-0.329-0.262-0.494
	c0,1.277,0.022,2.556-0.004,3.832c-0.067,3.28-0.148,6.561-0.237,9.841c-0.235,8.72-0.559,17.438-0.698,26.16
	c-0.167,10.479-0.181,20.959-0.259,31.439c-0.009,1.12-0.001,2.24-0.001,3.36"/>
<path fill-rule="evenodd" clip-rule="evenodd" fill="none" stroke="#000000" stroke-width="2" stroke-linecap="round" stroke-linejoin="round" stroke-miterlimit="10" d="
	M462.96,177.64c-5.984-1.852-12.115-1.529-18.239-1.192c-6.643,0.365-13.281,0.79-19.921,1.194c-1.041,0.063-2.08,0.158-3.12,0.238"
	/>
<path fill-rule="evenodd" clip-rule="evenodd" fill="none" stroke="#000000" stroke-width="2" stroke-linecap="round" stroke-linejoin="round" stroke-miterlimit="10" d="
	M249.6,302.92c0.32,6,0.616,12.002,0.968,18c0.282,4.802,0.849,9.599,0.883,14.4c0.026,3.758-0.583,7.519-0.886,11.28
	c-0.187,2.318-0.349,4.639-0.481,6.96c-0.569,9.999-1.226,19.995-1.651,30.001c-0.326,7.673-0.385,15.358-0.501,23.039
	c-0.067,4.479-0.275,8.98,0.067,13.434c0.301,3.921-0.559,7.977,1.121,11.766"/>
<path fill-rule="evenodd" clip-rule="evenodd" fill="none" stroke="#000000" stroke-width="2" stroke-linecap="round" stroke-linejoin="round" stroke-miterlimit="10" d="
	M493.2,276.04c2.137,2.115,2.567,5,3.331,7.688c2.067,7.276,5.613,13.82,9.629,20.151"/>
<path fill-rule="evenodd" clip-rule="evenodd" fill="none" stroke="#000000" stroke-width="2" stroke-linecap="round" stroke-linejoin="round" stroke-miterlimit="10" d="
	M760.8,49.72c-0.24,1.68-0.651,3.356-0.691,5.041c-0.22,9.359-0.392,18.719-0.48,28.08c-0.024,2.559,0.219,5.127,0.474,7.678
	c0.237,2.389,0.867,2.957,3.337,2.855c3.045-0.126,6.082-0.447,9.121-0.699c0.403-0.033,0.797-0.179,1.201-0.229
	c1.998-0.249,3.999-0.484,5.999-0.724"/>
<path fill-rule="evenodd" clip-rule="evenodd" fill="none" stroke="#000000" stroke-width="2" stroke-linecap="round" stroke-linejoin="round" stroke-miterlimit="10" d="
	M677.52,50.92c-0.159,0.96-0.482,1.925-0.453,2.879c0.188,6.001,0.442,12.001,0.711,18c0.025,0.566,0.303,1.121,0.463,1.681"/>
<path fill-rule="evenodd" clip-rule="evenodd" fill="none" stroke="#000000" stroke-width="2" stroke-linecap="round" stroke-linejoin="round" stroke-miterlimit="10" d="
	M590.88,49.96c0.72,1.44,1.52,2.846,2.146,4.326c2.434,5.746,4.794,11.523,7.245,17.261c0.247,0.58,0.929,0.974,1.408,1.453"/>
<path fill-rule="evenodd" clip-rule="evenodd" fill="none" stroke="#000000" stroke-width="2" stroke-linecap="round" stroke-linejoin="round" stroke-miterlimit="10" d="
	M739.92,48.521c-5.04,0.479-10.077,0.993-15.121,1.424c-2.072,0.177-4.159,0.176-6.239,0.256"/>
<path fill-rule="evenodd" clip-rule="evenodd" fill="none" stroke="#000000" stroke-width="2" stroke-linecap="round" stroke-linejoin="round" stroke-miterlimit="10" d="
	M718.32,49.48c0.08,5.52,0.244,11.04,0.213,16.56c-0.025,4.321-0.443,8.642-0.409,12.96c0.031,3.922,0.449,7.84,0.661,11.761
	c0.029,0.555-0.145,1.12-0.226,1.68"/>
<path fill-rule="evenodd" clip-rule="evenodd" fill="none" stroke="#000000" stroke-width="2" stroke-linecap="round" stroke-linejoin="round" stroke-miterlimit="10" d="
	M351.12,201.4c-2.701-0.715-4.663,0.884-6.718,2.163c-2.502,1.557-5.157,2.655-8.16,2.375c-2.334-0.217-4.554-0.786-5.522-3.338"/>
<path fill-rule="evenodd" clip-rule="evenodd" fill="none" stroke="#000000" stroke-width="2" stroke-linecap="round" stroke-linejoin="round" stroke-miterlimit="10" d="
	M482.16,285.16c0.8,0.32,1.82,0.427,2.366,0.993c5.974,6.188,11.874,12.447,17.784,18.697c0.079,0.085,0.01,0.311,0.01,0.471"/>
<path fill-rule="evenodd" clip-rule="evenodd" fill="none" stroke="#000000" stroke-width="2" stroke-linecap="round" stroke-linejoin="round" stroke-miterlimit="10" d="
	M590.88,51.88c-0.24,1.92-0.696,3.842-0.68,5.76c0.054,6.241,0.319,12.479,0.426,18.72c0.072,4.239,0.004,8.48,0.024,12.72
	c0.004,0.641,0,1.351,0.262,1.905c0.497,1.055-0.081,1.599-0.752,2.175"/>
<path fill-rule="evenodd" clip-rule="evenodd" fill="none" stroke="#000000" stroke-width="2" stroke-linecap="round" stroke-linejoin="round" stroke-miterlimit="10" d="
	M700.08,91.72c-3.92,0.32-7.842,0.914-11.76,0.886c-4.234-0.03-8.525,0.935-12.721-0.406"/>
<path fill-rule="evenodd" clip-rule="evenodd" fill="none" stroke="#000000" stroke-width="2" stroke-linecap="round" stroke-linejoin="round" stroke-miterlimit="10" d="
	M601.2,73.24c1.04,2.56,2.112,5.107,3.112,7.683c1.392,3.588,2.728,7.197,4.088,10.797"/>
<path fill-rule="evenodd" clip-rule="evenodd" fill="none" stroke="#000000" stroke-width="2" stroke-linecap="round" stroke-linejoin="round" stroke-miterlimit="10" d="
	M675.6,49.96c6,1.04,11.997,2.099,18.005,3.094c0.688,0.114,1.436-0.134,2.155-0.214"/>
<path fill-rule="evenodd" clip-rule="evenodd" fill="none" stroke="#000000" stroke-width="2" stroke-linecap="round" stroke-linejoin="round" stroke-miterlimit="10" d="
	M678.24,74.44c-0.16,0.88-0.439,1.757-0.461,2.64c-0.12,5.119-0.179,10.24-0.26,15.36"/>
<path fill-rule="evenodd" clip-rule="evenodd" fill="none" stroke="#000000" stroke-width="2" stroke-linecap="round" stroke-linejoin="round" stroke-miterlimit="10" d="
	M736.32,92.44c-0.96,0-1.922-0.038-2.88,0.006c-4.878,0.223-9.737,1.317-14.65,0.281c-0.242-0.051-0.63,0.592-0.95,0.912"/>
<path fill-rule="evenodd" clip-rule="evenodd" fill="none" stroke="#000000" stroke-width="2" stroke-linecap="round" stroke-linejoin="round" stroke-miterlimit="10" d="
	M330.72,190.6c0.88,1.6,1.649,3.275,2.672,4.779c0.984,1.447,2.691,1.389,3.75,0.437c1.787-1.606,3.243-2.404,5.646-1.012
	c0.948,0.55,2.668-0.121,4.009-0.382c2.116-0.414,4.103-0.667,6.277,0.173c1.7,0.657,3.691,0.563,5.247,1.766"/>
<path fill-rule="evenodd" clip-rule="evenodd" fill="none" stroke="#000000" stroke-width="2" stroke-linecap="round" stroke-linejoin="round" stroke-miterlimit="10" d="
	M343.44,187.48c-2,0.32-4.076,0.408-5.977,1.029c-1.686,0.551-2.857,0.796-3.383-1.27"/>
<path fill-rule="evenodd" clip-rule="evenodd" fill="none" stroke="#000000" stroke-width="2" stroke-linecap="round" stroke-linejoin="round" stroke-miterlimit="10" d="
	M600.24,72.28c-1.76-0.16-3.521-0.309-5.279-0.483c-1.442-0.143-2.881-0.316-4.321-0.477"/>
<path fill-rule="evenodd" clip-rule="evenodd" fill="none" stroke="#000000" stroke-width="2" stroke-linecap="round" stroke-linejoin="round" stroke-miterlimit="10" d="
	M345.84,187.48c3.12,1.44,6.24,2.88,9.36,4.32"/>
<path fill-rule="evenodd" clip-rule="evenodd" fill="none" stroke="#000000" stroke-width="2" stroke-linecap="round" stroke-linejoin="round" stroke-miterlimit="10" d="
	M331.2,193c-2.391,1.536-4.955,0.409-7.44,0.48"/>
<path fill-rule="evenodd" clip-rule="evenodd" fill="none" stroke="#000000" stroke-width="2" stroke-linecap="round" stroke-linejoin="round" stroke-miterlimit="10" d="
	M725.28,70.12c-0.24,0.32-0.48,0.917-0.721,0.917c-1.92-0.002-3.84-0.117-5.76-0.196"/>
<path fill-rule="evenodd" clip-rule="evenodd" fill="none" stroke="#000000" stroke-width="2" stroke-linecap="round" stroke-linejoin="round" stroke-miterlimit="10" d="
	M330.48,187.48c-1.36,0.56-2.765,1.034-4.065,1.708c-0.955,0.495-1.774,1.252-2.655,1.892"/>
<path fill-rule="evenodd" clip-rule="evenodd" fill="none" stroke="#000000" stroke-width="2" stroke-linecap="round" stroke-linejoin="round" stroke-miterlimit="10" d="
	M682.56,73.72c-1.359,0.08-2.72,0.16-4.079,0.24"/>
<path fill-rule="evenodd" clip-rule="evenodd" fill="none" stroke="#000000" stroke-width="2" stroke-linecap="round" stroke-linejoin="round" stroke-miterlimit="10" d="
	M633.12,92.32c-1.364,0.528-1.585,1.316-0.84,3"/>
<path fill-rule="evenodd" clip-rule="evenodd" fill="none" stroke="#000000" stroke-width="2" stroke-linecap="round" stroke-linejoin="round" stroke-miterlimit="10" d="
	M547.92,134.44c0.24,1.12,0.48,2.24,0.72,3.36"/>
</svg>
