<?xml version="1.0" encoding="utf-8"?>
<!-- Generator: Adobe Illustrator 16.0.0, SVG Export Plug-In . SVG Version: 6.00 Build 0)  -->
<!DOCTYPE svg PUBLIC "-//W3C//DTD SVG 1.1//EN" "http://www.w3.org/Graphics/SVG/1.1/DTD/svg11.dtd">
<svg version="1.1" id="Layer_1" xmlns="http://www.w3.org/2000/svg" xmlns:xlink="http://www.w3.org/1999/xlink" x="0px" y="0px"
	 width="841.89px" height="595.28px" viewBox="0 0 841.89 595.28" enable-background="new 0 0 841.89 595.28" xml:space="preserve">
<path fill-rule="evenodd" clip-rule="evenodd" fill="none" stroke="#000000" stroke-width="2" stroke-linecap="round" stroke-linejoin="round" stroke-miterlimit="10" d="
	M468,127.48c-0.8,1.52-1.414,3.181-2.436,4.533c-2.865,3.793-4.652,8.115-6.155,12.523c-2.08,6.103-4.64,11.985-7.515,17.73
	c-2.435,4.863-5.069,9.626-7.661,14.409c-3.173,5.854-6.468,11.645-9.559,17.542c-1.327,2.532-2.033,5.401-3.454,7.868
	c-1.922,3.336-4.261,6.434-6.421,9.634"/>
<path fill-rule="evenodd" clip-rule="evenodd" fill="none" stroke="#000000" stroke-width="2" stroke-linecap="round" stroke-linejoin="round" stroke-miterlimit="10" d="
	M424.08,210.76c1.729,2.328-0.136,4.198-1.03,5.964c-1.846,3.639-4.186,7.024-6.134,10.615c-1.157,2.133-2.136,4.402-2.882,6.711
	c-2.25,6.965-6.439,12.946-9.638,19.427c-2.217,4.492-4.349,9.032-6.746,13.426c-3.482,6.384-7.158,12.664-10.79,18.965
	c-0.328,0.568-0.94,0.972-1.42,1.452"/>
<path fill-rule="evenodd" clip-rule="evenodd" fill="none" stroke="#000000" stroke-width="2" stroke-linecap="round" stroke-linejoin="round" stroke-miterlimit="10" d="
	M297.12,126.76c1.44,3.2,2.939,6.375,4.307,9.605c2.61,6.168,6.458,11.649,9.612,17.515c2.322,4.319,4.826,8.553,6.914,12.982
	c2.596,5.508,4.708,11.244,7.307,16.75c1.25,2.646,3.24,4.93,4.716,7.482c2.095,3.625,3.989,7.366,6.042,11.016
	c0.73,1.297,1.009,2.516,0.222,3.851"/>
<path fill-rule="evenodd" clip-rule="evenodd" fill="none" stroke="#000000" stroke-width="2" stroke-linecap="round" stroke-linejoin="round" stroke-miterlimit="10" d="
	M459.36,348.521c-0.8,0.479-1.811,0.787-2.368,1.466c-6.157,7.493-13.372,13.845-20.867,19.948c-3.539,2.882-6.537,6.42-9.917,9.511
	c-1.43,1.308-3.457,2.046-4.023,4.121c-0.516,1.889-0.988,3.817-1.185,5.758c-0.258,2.558,0.708,5.129-0.63,7.742
	c-0.485,0.948,0.618,2.639,0.806,4.018c0.326,2.388,0.563,4.792,0.728,7.197c0.158,2.314,0.168,4.64,0.26,6.959
	c0.063,1.601,0.164,3.2,0.234,4.8c0.071,1.608,0.751,2.735,2.402,3.12"/>
<path fill-rule="evenodd" clip-rule="evenodd" fill="none" stroke="#000000" stroke-width="2" stroke-linecap="round" stroke-linejoin="round" stroke-miterlimit="10" d="
	M324.72,190.84c0.8,0.96,1.705,1.852,2.38,2.893c2.055,3.165,3.949,6.435,6.06,9.561c0.709,1.05,2.02,1.679,2.808,2.692
	c1.167,1.501,2.582,3.044,3.07,4.797c1.971,7.065,5.528,13.384,8.674,19.92c3.726,7.741,7.517,15.5,10.472,23.547
	c2.342,6.377,5.454,12.349,8.421,18.368c3.637,7.378,8.161,14.323,12.396,21.397c0.584,0.977,1.719,1.624,2.599,2.424"/>
<path fill-rule="evenodd" clip-rule="evenodd" fill="none" stroke="#000000" stroke-width="2" stroke-linecap="round" stroke-linejoin="round" stroke-miterlimit="10" d="
	M381.84,125.32c-0.24,4.48-0.779,8.969-0.645,13.438c0.17,5.689,0.916,11.36,1.354,17.043c0.296,3.835,0.552,7.676,0.716,11.52
	c0.22,5.197,0.282,10.402,0.508,15.599c0.286,6.562,0.737,13.091,0.083,19.69c-0.487,4.912-0.035,9.912-0.115,14.87
	c-0.063,3.841-0.615,7.699-0.394,11.517c0.442,7.624-1.584,15.03-1.68,22.564c-0.118,9.276,0.354,18.559,0.361,27.839
	c0.003,3.439-0.645,6.876-0.873,10.322c-0.068,1.025,0.285,2.078,0.445,3.118"/>
<path fill-rule="evenodd" clip-rule="evenodd" fill="none" stroke="#000000" stroke-width="2" stroke-linecap="round" stroke-linejoin="round" stroke-miterlimit="10" d="
	M467.76,339.88c-1.92,1.01-3.833-0.143-5.762-0.037c-1.75,0.096-3.518-0.126-5.278-0.202c-3.76-0.162-7.519-0.393-11.28-0.465
	c-7.039-0.135-14.084-0.049-21.118-0.292c-6.726-0.231-13.442-1.09-20.161-1.076c-7.438,0.016-14.935-0.886-22.332,0.823
	c-0.876,0.203-1.908-0.403-2.869-0.409c-6.88-0.04-13.762-0.115-20.64,0.006c-6.562,0.115-13.119,0.572-19.681,0.658
	c-6.238,0.081-12.479-0.127-18.72-0.204c-0.8-0.01-1.6-0.001-2.479-0.001c0.401,2.437,1.191,4.258,2.962,5.517
	c1.917,1.363,5.906,0.998,6.577-1.004c0.538-1.606,0.091-3.708-0.395-5.458c-1.015-3.651-2.452-7.185-3.494-10.829
	c-0.456-1.596-0.36-3.347-0.532-5.025c-0.394-3.841-0.785-7.682-1.21-11.52c-0.072-0.649-0.308-1.281-0.468-1.921"/>
<path fill-rule="evenodd" clip-rule="evenodd" fill="none" stroke="#000000" stroke-width="2" stroke-linecap="round" stroke-linejoin="round" stroke-miterlimit="10" d="
	M319.2,300.28c-1.28-4.32-2.461-8.673-3.895-12.941c-0.487-1.449-1.353-2.98-3.559-2.217c-0.963,0.333-2.072,0.246-3.503,0.388
	c1.158,2.397-0.701,4.203-1.849,4.752c-2.918,1.395-5.055,4.959-9.035,3.779"/>
<path fill-rule="evenodd" clip-rule="evenodd" fill="none" stroke="#000000" stroke-width="2" stroke-linecap="round" stroke-linejoin="round" stroke-miterlimit="10" d="
	M384.24,381.88c0.2,3.033,2.848,3.927,4.827,5.239c5.843,3.875,11.873,7.472,17.706,11.361c2.64,1.761,4.875,4.124,7.501,5.909
	c2.201,1.495,4.298,3.591,7.405,2.931"/>
<path fill-rule="evenodd" clip-rule="evenodd" fill="none" stroke="#000000" stroke-width="2" stroke-linecap="round" stroke-linejoin="round" stroke-miterlimit="10" d="
	M358.56,381.641c-1.2,0-2.4-0.021-3.6,0.003c-7.52,0.153-15.04,0.431-22.56,0.441c-6.4,0.01-12.799-0.371-19.2-0.411
	c-3.679-0.023-7.359,0.294-11.04,0.441c-0.878,0.035-1.773-0.089-2.636,0.032c-0.818,0.114-1.604,0.453-2.404,0.692"/>
<path fill-rule="evenodd" clip-rule="evenodd" fill="none" stroke="#000000" stroke-width="2" stroke-linecap="round" stroke-linejoin="round" stroke-miterlimit="10" d="
	M239.04,383.561c0.334,2.146-0.689,3.137-2.594,4.165c-4.386,2.37-8.527,5.193-12.766,7.835c-2.562,1.598-5.072,3.287-7.708,4.75
	c-0.863,0.479-2.052,0.37-3.092,0.529"/>
<path fill-rule="evenodd" clip-rule="evenodd" fill="none" stroke="#000000" stroke-width="2" stroke-linecap="round" stroke-linejoin="round" stroke-miterlimit="10" d="
	M279.6,310.601c-0.24,0.72-0.285,1.615-0.75,2.133c-5.072,5.643-10.173,11.261-15.346,16.812c-2.467,2.647-5.121,5.118-7.647,7.711
	c-0.436,0.447-0.657,1.104-0.977,1.664"/>
<path fill-rule="evenodd" clip-rule="evenodd" fill="none" stroke="#000000" stroke-width="2" stroke-linecap="round" stroke-linejoin="round" stroke-miterlimit="10" d="
	M252.48,432.04c0.64,9.44,1.28,18.88,1.92,28.32"/>
<path fill-rule="evenodd" clip-rule="evenodd" fill="none" stroke="#000000" stroke-width="2" stroke-linecap="round" stroke-linejoin="round" stroke-miterlimit="10" d="
	M281.52,396.761c1.754,0.997,3.498,1.891,5.488,2.504c2.906,0.896,4.791,3.22,5.033,6.379c0.217,2.824,1.186,5.273,2.934,7.425
	c1.166,1.435,1.42,3.033,1.467,4.811c0.037,1.445,0.426,2.884,0.682,4.321c0.47,2.642,0.527,5.46,1.536,7.879
	c1.572,3.767,1.487,7.699,2.013,11.567c0.212,1.561-0.112,3.193-0.192,4.794"/>
<path fill-rule="evenodd" clip-rule="evenodd" fill="none" stroke="#000000" stroke-width="2" stroke-linecap="round" stroke-linejoin="round" stroke-miterlimit="10" d="
	M365.76,353.08c5.76,7.28,11.524,14.557,17.274,21.845c0.604,0.766,1.126,1.596,1.686,2.396"/>
<path fill-rule="evenodd" clip-rule="evenodd" fill="none" stroke="#000000" stroke-width="2" stroke-linecap="round" stroke-linejoin="round" stroke-miterlimit="10" d="
	M239.28,356.681c-0.56,0.88-0.926,2.24-1.712,2.559c-3.862,1.563-5.87,5.234-9.045,7.578c-5.354,3.952-10.446,8.258-15.636,12.431
	c-0.526,0.423-0.966,0.952-1.446,1.433"/>
<path fill-rule="evenodd" clip-rule="evenodd" fill="none" stroke="#000000" stroke-width="2" stroke-linecap="round" stroke-linejoin="round" stroke-miterlimit="10" d="
	M287.04,373c2.16,0.8,4.263,1.872,6.492,2.341c4.036,0.85,8.145,1.362,12.229,1.97c1.992,0.296,3.999,0.489,5.999,0.729"/>
<path fill-rule="evenodd" clip-rule="evenodd" fill="none" stroke="#000000" stroke-width="2" stroke-linecap="round" stroke-linejoin="round" stroke-miterlimit="10" d="
	M319.68,382.12c-0.235,1.749,0.375,3.004,1.617,4.377c3.224,3.562,5.057,7.984,6.79,12.42c0.756,1.938,1.593,3.844,2.393,5.764"/>
<path fill-rule="evenodd" clip-rule="evenodd" fill="none" stroke="#000000" stroke-width="2" stroke-linecap="round" stroke-linejoin="round" stroke-miterlimit="10" d="
	M320.64,355.96c-2.677,4.603-4.215,9.675-5.987,14.645c-1.218,3.417-2.958,6.73-2.413,10.556"/>
<path fill-rule="evenodd" clip-rule="evenodd" fill="none" stroke="#000000" stroke-width="2" stroke-linecap="round" stroke-linejoin="round" stroke-miterlimit="10" d="
	M297.12,382.36c-2.24,0-4.483-0.079-6.719,0.017c-4.163,0.181-8.318,0.59-12.481,0.668c-4.237,0.08-8.48-0.111-12.719-0.212
	c-1.521-0.036-3.04-0.162-4.56-0.229c-1.496-0.067-2.695,0.114-2.436,2.161c0.128,1.014-0.124,2.076-0.204,3.115"/>
<path fill-rule="evenodd" clip-rule="evenodd" fill="none" stroke="#000000" stroke-width="2" stroke-linecap="round" stroke-linejoin="round" stroke-miterlimit="10" d="
	M258.24,383.08c-2-0.08-4-0.217-6-0.223c-1.68-0.005-3.359,0.176-5.041,0.217c-7.04,0.174-14.08,0.436-21.12,0.424
	c-2.321-0.004-4.672-0.609-6.951-1.177c-1.968-0.49-3.497-0.043-4.284,1.739c-0.843,1.91-1.801,3.962-1.877,5.983
	c-0.24,6.311-0.088,12.636-0.088,18.956c0.96,0,1.68,0,2.4,0"/>
<path fill-rule="evenodd" clip-rule="evenodd" fill="none" stroke="#000000" stroke-width="2" stroke-linecap="round" stroke-linejoin="round" stroke-miterlimit="10" d="
	M254.4,339.641c-0.197,4.156,1.702,7.439,4.847,9.776c3.392,2.521,7.074,4.689,10.795,6.705c1.337,0.725,3.158,0.559,4.758,0.798"/>
<path fill-rule="evenodd" clip-rule="evenodd" fill="none" stroke="#000000" stroke-width="2" stroke-linecap="round" stroke-linejoin="round" stroke-miterlimit="10" d="
	M391.44,270.04c-0.48,0.16-1.264,0.193-1.393,0.5c-1.122,2.686-2.216,5.391-3.139,8.15c-0.705,2.111-1.574,4.304-1.609,6.472
	c-0.052,3.238-1.433,5.712-3.193,8.177c-0.421,0.59-0.507,1.421-0.747,2.141"/>
<path fill-rule="evenodd" clip-rule="evenodd" fill="none" stroke="#000000" stroke-width="2" stroke-linecap="round" stroke-linejoin="round" stroke-miterlimit="10" d="
	M313.92,442.36c1.22-10.368,0.568-20.809,1.044-31.431c2.54,1.466,3.641,3.722,4.713,5.992c1.85,3.915,3.746,7.811,5.49,11.772
	c0.654,1.485,1.615,2.292,3.146,2.655c0.602,0.143,1.127,0.61,1.687,0.931"/>
<path fill-rule="evenodd" clip-rule="evenodd" fill="none" stroke="#000000" stroke-width="2" stroke-linecap="round" stroke-linejoin="round" stroke-miterlimit="10" d="
	M346.32,239.08c1.36,2.32,2.383,4.951,4.161,6.886c2.509,2.729,4.374,5.783,6.189,8.937c0.347,0.603,1.09,0.978,1.649,1.458"/>
<path fill-rule="evenodd" clip-rule="evenodd" fill="none" stroke="#000000" stroke-width="2" stroke-linecap="round" stroke-linejoin="round" stroke-miterlimit="10" d="
	M424.32,349c0.593-1.682-0.454-2.911-1.486-3.785c-1.648-1.398-3.282-2.804-4.736-4.391c-1.277-1.394-2.357-1.461-3.892-0.268
	c-1.689,1.313-3.606,2.357-5.5,3.378c-1.288,0.694-2.706,1.146-4.066,1.706"/>
<path fill-rule="evenodd" clip-rule="evenodd" fill="none" stroke="#000000" stroke-width="2" stroke-linecap="round" stroke-linejoin="round" stroke-miterlimit="10" d="
	M388.8,381.641c0.08,0.079,0.161,0.23,0.24,0.229c5.92-0.068,11.858-0.467,17.753-0.121c4.123,0.241,8.017-0.592,12.012-1.019
	c0.924-0.099,1.915,0.43,2.875,0.67"/>
<path fill-rule="evenodd" clip-rule="evenodd" fill="none" stroke="#000000" stroke-width="2" stroke-linecap="round" stroke-linejoin="round" stroke-miterlimit="10" d="
	M286.8,319.96c1.95,1.009,2.553,2.72,3.263,4.75c0.938,2.684,2.81,5.07,4.446,7.471c1.213,1.78,2.671,3.396,4.064,5.049
	c0.396,0.471,0.892,1.04,1.437,1.172c2.68,0.647,7.592-2.315,8.356-5.011c0.093-0.328-0.286-0.79-0.446-1.19"/>
<path fill-rule="evenodd" clip-rule="evenodd" fill="none" stroke="#000000" stroke-width="2" stroke-linecap="round" stroke-linejoin="round" stroke-miterlimit="10" d="
	M270.24,338.44c-5.2,0.24-10.4,0.479-15.6,0.72"/>
<path fill-rule="evenodd" clip-rule="evenodd" fill="none" stroke="#000000" stroke-width="2" stroke-linecap="round" stroke-linejoin="round" stroke-miterlimit="10" d="
	M330.96,404.92c0.8,1.681,1.468,3.44,2.428,5.023c1.94,3.199,2.794,6.669,3.412,10.323c0.484,2.867,1.669,5.617,2.568,8.411
	c0.231,0.721,0.556,1.411,0.744,1.883c-1.07,1.337-1.991,2.488-2.912,3.64"/>
<path fill-rule="evenodd" clip-rule="evenodd" fill="none" stroke="#000000" stroke-width="2" stroke-linecap="round" stroke-linejoin="round" stroke-miterlimit="10" d="
	M336.48,444.761c-0.145,2.321-0.224,4.46,1.805,6.362c0.718,0.674,0.115,2.757,0.115,4.197"/>
<path fill-rule="evenodd" clip-rule="evenodd" fill="none" stroke="#000000" stroke-width="2" stroke-linecap="round" stroke-linejoin="round" stroke-miterlimit="10" d="
	M253.44,341.08c-4.08,4.08-8.18,8.141-12.208,12.271c-0.398,0.408-0.352,1.249-0.512,1.889"/>
<path fill-rule="evenodd" clip-rule="evenodd" fill="none" stroke="#000000" stroke-width="2" stroke-linecap="round" stroke-linejoin="round" stroke-miterlimit="10" d="
	M296.88,292.12c2.214-3.778,6.369-4.617,9.861-6.44c0.407-0.212,1.099,0.121,1.659,0.201"/>
<path fill-rule="evenodd" clip-rule="evenodd" fill="none" stroke="#000000" stroke-width="2" stroke-linecap="round" stroke-linejoin="round" stroke-miterlimit="10" d="
	M297.36,354.761c0.64-0.561,1.362-1.051,1.905-1.693c1.8-2.126,3.267-4.646,5.402-6.332c1.162-0.917,3.517-0.903,5.151-0.523
	c3.53,0.821,6.802,2.496,10.579,2.633c2.619,0.096,3.247,1.625,2.149,3.989c-0.391,0.841-0.946,1.606-1.426,2.406"/>
<path fill-rule="evenodd" clip-rule="evenodd" fill="none" stroke="#000000" stroke-width="2" stroke-linecap="round" stroke-linejoin="round" stroke-miterlimit="10" d="
	M254.4,343.721c-2.659,0.341-3.741,2.638-5.261,4.336c-3.127,3.493-6.27,6.93-10.819,8.624"/>
<path fill-rule="evenodd" clip-rule="evenodd" fill="none" stroke="#000000" stroke-width="2" stroke-linecap="round" stroke-linejoin="round" stroke-miterlimit="10" d="
	M290.4,304.96c0.08,1.801,0.219,3.601,0.213,5.4c-0.002,0.801-0.479,1.614-0.418,2.397c0.173,2.204,1.057,2.991,3.323,2.855
	c2.38-0.143,4.453,0.485,6.506,1.665c1.537,0.883,3.037,0.027,4.277-0.942c0.973-0.76,1.779-1.735,2.659-2.615"/>
<path fill-rule="evenodd" clip-rule="evenodd" fill="none" stroke="#000000" stroke-width="2" stroke-linecap="round" stroke-linejoin="round" stroke-miterlimit="10" d="
	M459.6,358.601c0.927,0.672,0.968,0.683,0.713,1.678c-0.779,3.045-1.56,6.091-2.41,9.117c-0.291,1.032-0.624,1.991,0.258,2.885"/>
<path fill-rule="evenodd" clip-rule="evenodd" fill="none" stroke="#000000" stroke-width="2" stroke-linecap="round" stroke-linejoin="round" stroke-miterlimit="10" d="
	M309.36,396.04c0.24,1.04,0.343,2.137,0.744,3.11c1.622,3.944,3.336,7.85,5.016,11.77"/>
<path fill-rule="evenodd" clip-rule="evenodd" fill="none" stroke="#000000" stroke-width="2" stroke-linecap="round" stroke-linejoin="round" stroke-miterlimit="10" d="
	M313.92,442.84c0.32,2.08,0.645,4.159,0.958,6.24c0.179,1.188-0.237,1.9-1.414,2.451c-1.226,0.573-2.264,1.549-3.384,2.349"/>
<path fill-rule="evenodd" clip-rule="evenodd" fill="none" stroke="#000000" stroke-width="2" stroke-linecap="round" stroke-linejoin="round" stroke-miterlimit="10" d="
	M464.88,343.721c-0.16,1.52-0.295,3.043-0.49,4.559c-0.104,0.807-0.485,1.612-0.436,2.398c0.131,2.059-0.234,3.968-1.234,5.763"/>
<path fill-rule="evenodd" clip-rule="evenodd" fill="none" stroke="#000000" stroke-width="2" stroke-linecap="round" stroke-linejoin="round" stroke-miterlimit="10" d="
	M337.44,441.4c0.8,0.319,1.576,0.79,2.406,0.922c1.014,0.161,2.234,0.379,3.085-0.022c3.231-1.523,6.402-2.058,9.616-0.158
	c1.041,0.615,1.748,0.876,2.934,0.037c2.006-1.418,5.343-0.849,6.94,0.639c1.323,1.233,1.115,2.789,0.373,3.801
	c-1.068,1.456-2.209,2.989-4.465,3.26c-2.563,0.307-4.855,2.479-7.689,1.122"/>
<path fill-rule="evenodd" clip-rule="evenodd" fill="none" stroke="#000000" stroke-width="2" stroke-linecap="round" stroke-linejoin="round" stroke-miterlimit="10" d="
	M271.92,357.16c2.4,1.92,4.588,4.243,7.259,5.648c2.739,1.441,5.001,3.273,7.152,5.381c0.324,0.317,0.79,0.491,1.189,0.73"/>
<path fill-rule="evenodd" clip-rule="evenodd" fill="none" stroke="#000000" stroke-width="2" stroke-linecap="round" stroke-linejoin="round" stroke-miterlimit="10" d="
	M475.44,115.72c-1.552,1.438-2.303,3.233-2.98,5.247c-0.764,2.273-2.292,4.289-3.44,6.332c-1.1-0.219-1.899-0.379-2.699-0.538"/>
<path fill-rule="evenodd" clip-rule="evenodd" fill="none" stroke="#000000" stroke-width="2" stroke-linecap="round" stroke-linejoin="round" stroke-miterlimit="10" d="
	M460.56,370.84c-0.837,0.588-1.674,1.176-2.477,1.739c0.77,1.913,0.869,3.731,0.281,5.449c-0.862,2.521-1.165,5.401-3.805,6.972"/>
<path fill-rule="evenodd" clip-rule="evenodd" fill="none" stroke="#000000" stroke-width="2" stroke-linecap="round" stroke-linejoin="round" stroke-miterlimit="10" d="
	M296.16,339.16c-0.8-0.4-1.594-1.131-2.401-1.146c-5.438-0.103-10.882-0.157-16.317,0.013c-1.533,0.048-3.042,0.894-4.562,1.374"/>
<path fill-rule="evenodd" clip-rule="evenodd" fill="none" stroke="#000000" stroke-width="2" stroke-linecap="round" stroke-linejoin="round" stroke-miterlimit="10" d="
	M268.56,335.561c1.92,1.92,3.662,4.071,5.798,5.71c3.991,3.06,7.09,6.878,10.024,10.863c1.718,2.334,2.938,4.946,3.618,7.786"/>
<path fill-rule="evenodd" clip-rule="evenodd" fill="none" stroke="#000000" stroke-width="2" stroke-linecap="round" stroke-linejoin="round" stroke-miterlimit="10" d="
	M309.12,397.48c-0.72-0.48-1.494-0.896-2.151-1.451c-3.22-2.714-7.862-2.065-10.088,1.452c-1.389,2.194-2.872,4.264-5.761,4.559"/>
<path fill-rule="evenodd" clip-rule="evenodd" fill="none" stroke="#000000" stroke-width="2" stroke-linecap="round" stroke-linejoin="round" stroke-miterlimit="10" d="
	M432.24,356.681c-1.12,0.88-2.146,1.933-3.377,2.609c-4.735,2.6-9.079,5.967-14.383,7.471"/>
<path fill-rule="evenodd" clip-rule="evenodd" fill="none" stroke="#000000" stroke-width="2" stroke-linecap="round" stroke-linejoin="round" stroke-miterlimit="10" d="
	M253.44,417.641c0.602,1.439,0.963,2.701,0.119,4.38c-0.61,1.213-0.597,3.195-0.027,4.458c1.543,3.423,0.459,6.93,0.861,10.362
	c0.055,0.474,0.007,0.959,0.007,1.439"/>
<path fill-rule="evenodd" clip-rule="evenodd" fill="none" stroke="#000000" stroke-width="2" stroke-linecap="round" stroke-linejoin="round" stroke-miterlimit="10" d="
	M463.2,368.2c1.708,3.56,1.261,7.307,0.931,11.037c-0.006,0.062-0.451,0.083-0.69,0.123"/>
<path fill-rule="evenodd" clip-rule="evenodd" fill="none" stroke="#000000" stroke-width="2" stroke-linecap="round" stroke-linejoin="round" stroke-miterlimit="10" d="
	M462.24,356.44c2.154,1.042,1.443,3.179,1.6,4.808c0.274,2.852-0.015,5.688-2.273,7.959c-0.479,0.481-0.384,1.55-0.521,2.354
	c-0.108,0.635-0.166,1.278-0.246,1.919"/>
<path fill-rule="evenodd" clip-rule="evenodd" fill="none" stroke="#000000" stroke-width="2" stroke-linecap="round" stroke-linejoin="round" stroke-miterlimit="10" d="
	M284.88,321.641c-1.12,2-2.342,3.95-3.336,6.011c-1.518,3.145-1.737,6.781-4.116,9.678c-0.937,1.141-0.667,3.271-0.948,4.951"/>
<path fill-rule="evenodd" clip-rule="evenodd" fill="none" stroke="#000000" stroke-width="2" stroke-linecap="round" stroke-linejoin="round" stroke-miterlimit="10" d="
	M292.08,408.04c-1.771,0.44-3.642,0.162-5.352,1.336c-0.778,0.534-2.371,0.115-3.52-0.17c-2.724-0.675-5.386-0.961-7.911,0.545
	c-0.447,0.267-0.658,0.93-0.978,1.409"/>
<path fill-rule="evenodd" clip-rule="evenodd" fill="none" stroke="#000000" stroke-width="2" stroke-linecap="round" stroke-linejoin="round" stroke-miterlimit="10" d="
	M318,297.64c-2.88,0.48-5.774,0.894-8.629,1.492c-0.633,0.132-1.131,0.908-1.69,1.389"/>
<path fill-rule="evenodd" clip-rule="evenodd" fill="none" stroke="#000000" stroke-width="2" stroke-linecap="round" stroke-linejoin="round" stroke-miterlimit="10" d="
	M457.68,373c-1.12,3.36-2.601,6.655-3.224,10.104c-0.372,2.058-0.94,3.907-1.816,5.735"/>
<path fill-rule="evenodd" clip-rule="evenodd" fill="none" stroke="#000000" stroke-width="2" stroke-linecap="round" stroke-linejoin="round" stroke-miterlimit="10" d="
	M311.04,461.8c-1.319,1.824-0.921,3.884-0.404,5.739c0.471,1.688,0.657,3.095-0.556,4.461"/>
<path fill-rule="evenodd" clip-rule="evenodd" fill="none" stroke="#000000" stroke-width="2" stroke-linecap="round" stroke-linejoin="round" stroke-miterlimit="10" d="
	M284.64,409.96c-2.945,2.018-6.281,1.788-9.601,1.687c-1.278-0.039-2.56-0.029-3.839-0.002c-3.121,0.066-6.261,0.4-9.351,0.134
	c-1.571-0.136-3.129-1.21-4.545-2.097c-1.236-0.774-2.264-1.882-3.384-2.842"/>
<path fill-rule="evenodd" clip-rule="evenodd" fill="none" stroke="#000000" stroke-width="2" stroke-linecap="round" stroke-linejoin="round" stroke-miterlimit="10" d="
	M307.2,453.4c-0.046,4.467-1.881,8.371-3.831,12.244c-0.226,0.447-0.516,0.979-0.459,1.432c0.456,3.64,0.832,7.335,3.93,9.95
	c2.234-0.621,4.233-1.289,4.92-3.706"/>
<path fill-rule="evenodd" clip-rule="evenodd" fill="none" stroke="#000000" stroke-width="2" stroke-linecap="round" stroke-linejoin="round" stroke-miterlimit="10" d="
	M351.6,442.84c-3.097,2.054-6.137,4.24-10.08,4.32"/>
<path fill-rule="evenodd" clip-rule="evenodd" fill="none" stroke="#000000" stroke-width="2" stroke-linecap="round" stroke-linejoin="round" stroke-miterlimit="10" d="
	M359.28,443.561c-2.88,1.6-5.777,3.17-8.636,4.808c-3.578,2.048-7.344,3.399-11.524,3.353"/>
<path fill-rule="evenodd" clip-rule="evenodd" fill="none" stroke="#000000" stroke-width="2" stroke-linecap="round" stroke-linejoin="round" stroke-miterlimit="10" d="
	M311.52,326.2c0.64,0.96,1.491,1.842,1.88,2.896c1.076,2.916,1.96,5.904,2.92,8.864"/>
<path fill-rule="evenodd" clip-rule="evenodd" fill="none" stroke="#000000" stroke-width="2" stroke-linecap="round" stroke-linejoin="round" stroke-miterlimit="10" d="
	M356.88,358.12c-1.399,3.171-4.372,4.363-7.192,5.774c-1.325,0.663-2.572,1.483-3.615,2.092c1.01,2.402,1.829,4.348,2.647,6.294"/>
<path fill-rule="evenodd" clip-rule="evenodd" fill="none" stroke="#000000" stroke-width="2" stroke-linecap="round" stroke-linejoin="round" stroke-miterlimit="10" d="
	M305.04,300.04c0.08,1.28,0.153,2.561,0.241,3.84c0.255,3.687-1.16,4.73-4.561,3.36"/>
<path fill-rule="evenodd" clip-rule="evenodd" fill="none" stroke="#000000" stroke-width="2" stroke-linecap="round" stroke-linejoin="round" stroke-miterlimit="10" d="
	M309.6,302.2c1.395,0.648,2.791,1.297,4.676,2.172c-1.718,2.112-3,4.158-4.745,5.669c-1.18,1.021-1.628,2.081-1.851,3.439"/>
<path fill-rule="evenodd" clip-rule="evenodd" fill="none" stroke="#000000" stroke-width="2" stroke-linecap="round" stroke-linejoin="round" stroke-miterlimit="10" d="
	M310.32,320.92c-4.389,1.002-8.635-0.572-12.96-0.707c-0.397-0.013-0.799,0.147-1.199,0.228"/>
<path fill-rule="evenodd" clip-rule="evenodd" fill="none" stroke="#000000" stroke-width="2" stroke-linecap="round" stroke-linejoin="round" stroke-miterlimit="10" d="
	M317.04,338.681c-1.271-0.922-2.719-0.334-4.081-0.47c-1.996-0.2-3.999-0.331-5.999-0.49"/>
<path fill-rule="evenodd" clip-rule="evenodd" fill="none" stroke="#000000" stroke-width="2" stroke-linecap="round" stroke-linejoin="round" stroke-miterlimit="10" d="
	M292.8,305.32c2.072,1.806,2.138,4.244,2.171,6.72c0.03,2.32-0.248,4.747,0.341,6.931c0.59,2.188,0.974,4.599,2.944,6.343
	c0.865,0.766,1.024,2.327,1.504,3.526"/>
<path fill-rule="evenodd" clip-rule="evenodd" fill="none" stroke="#000000" stroke-width="2" stroke-linecap="round" stroke-linejoin="round" stroke-miterlimit="10" d="
	M299.04,414.761c1.075-3.125,0.313-6.27-1.92-7.921"/>
<path fill-rule="evenodd" clip-rule="evenodd" fill="none" stroke="#000000" stroke-width="2" stroke-linecap="round" stroke-linejoin="round" stroke-miterlimit="10" d="
	M363.84,351.88c-2.043,2.787-4.463,4.869-7.871,6.132c-2.653,0.982-5.359,2.595-6.529,5.629"/>
<path fill-rule="evenodd" clip-rule="evenodd" fill="none" stroke="#000000" stroke-width="2" stroke-linecap="round" stroke-linejoin="round" stroke-miterlimit="10" d="
	M319.44,292.84c1.089-1.582,0.698-3.171-0.28-4.531c-0.805-1.12-1.865-2.226-3.56-1.469"/>
<path fill-rule="evenodd" clip-rule="evenodd" fill="none" stroke="#000000" stroke-width="2" stroke-linecap="round" stroke-linejoin="round" stroke-miterlimit="10" d="
	M329.76,433.24c-0.626,1.45-0.06,2.532,1.928,3.342c1.402,0.572,2.873,0.979,4.313,1.458"/>
<path fill-rule="evenodd" clip-rule="evenodd" fill="none" stroke="#000000" stroke-width="2" stroke-linecap="round" stroke-linejoin="round" stroke-miterlimit="10" d="
	M288.96,306.761c-1.2,0.8-2.42,1.571-3.595,2.407c-1.303,0.927-2.518,1.988-3.867,2.837c-0.588,0.37-1.418,0.355-2.138,0.516"/>
<path fill-rule="evenodd" clip-rule="evenodd" fill="none" stroke="#000000" stroke-width="2" stroke-linecap="round" stroke-linejoin="round" stroke-miterlimit="10" d="
	M297.12,396.16c-2.907-0.833-5.381,0.528-7.92,1.561"/>
<path fill-rule="evenodd" clip-rule="evenodd" fill="none" stroke="#000000" stroke-width="2" stroke-linecap="round" stroke-linejoin="round" stroke-miterlimit="10" d="
	M300.96,454.36c0.242,1.521,0.56,2.729-0.528,4.441c-1.13,1.781-2.203,4.329-1.152,6.839"/>
<path fill-rule="evenodd" clip-rule="evenodd" fill="none" stroke="#000000" stroke-width="2" stroke-linecap="round" stroke-linejoin="round" stroke-miterlimit="10" d="
	M300.24,446.92c0,2.403,0,4.806,0,7.269c2.323-0.368,4.393-0.771,6.482-1.01c2.66-0.304,3.643,0.453,4.059,3.104
	c0.261,1.664,0.339,3.357,0.499,5.037"/>
<path fill-rule="evenodd" clip-rule="evenodd" fill="none" stroke="#000000" stroke-width="2" stroke-linecap="round" stroke-linejoin="round" stroke-miterlimit="10" d="
	M263.52,397c-1.542-2.072-3.664-2.329-6.02-1.941c1.286,1.69,3.171,2.768,5.031,2.308c2.514-0.622,4.833,0.158,7.228,0.082
	c3.684-0.117,7.361-0.445,11.04-0.697c0.165-0.011,0.321-0.15,0.48-0.23c-0.08-0.16-0.16-0.32-0.24-0.48"/>
<path fill-rule="evenodd" clip-rule="evenodd" fill="none" stroke="#000000" stroke-width="2" stroke-linecap="round" stroke-linejoin="round" stroke-miterlimit="10" d="
	M298.56,466.601c0.16,2.56,0.168,5.142,0.533,7.672c0.246,1.709,0.3,3.834,2.827,4.088"/>
<path fill-rule="evenodd" clip-rule="evenodd" fill="none" stroke="#000000" stroke-width="2" stroke-linecap="round" stroke-linejoin="round" stroke-miterlimit="10" d="
	M345.6,451c-1.464,2.847-3.324,3.535-6.48,2.4"/>
<path fill-rule="evenodd" clip-rule="evenodd" fill="none" stroke="#000000" stroke-width="2" stroke-linecap="round" stroke-linejoin="round" stroke-miterlimit="10" d="
	M293.28,413.8c-0.32,1.12-0.879,2.232-0.916,3.362c-0.118,3.676-0.044,7.358-0.044,11.038"/>
<path fill-rule="evenodd" clip-rule="evenodd" fill="none" stroke="#000000" stroke-width="2" stroke-linecap="round" stroke-linejoin="round" stroke-miterlimit="10" d="
	M308.64,332.2c1.59-3.342,2.686-6.646,2.319-10.574c-0.259-2.776-0.266-5.339-2.328-7.416c-0.322-0.324-0.77-0.522-0.971-0.654
	c-1.111,4.127-2.16,8.285-3.398,12.387c-0.23,0.764-1.224,1.296-1.856,1.943c-0.04,0.04-0.034,0.171,0.001,0.23
	c0.055,0.095,0.153,0.164,0.233,0.244"/>
<path fill-rule="evenodd" clip-rule="evenodd" fill="none" stroke="#000000" stroke-width="2" stroke-linecap="round" stroke-linejoin="round" stroke-miterlimit="10" d="
	M289.44,408.761c-0.56,2.239-1.258,4.456-1.639,6.727c-0.352,2.094-0.889,4.307,0.679,6.233"/>
<path fill-rule="evenodd" clip-rule="evenodd" fill="none" stroke="#000000" stroke-width="2" stroke-linecap="round" stroke-linejoin="round" stroke-miterlimit="10" d="
	M305.76,464.44c2.153,2.024,2.264,3.519,0.48,6.479"/>
<path fill-rule="evenodd" clip-rule="evenodd" fill="none" stroke="#000000" stroke-width="2" stroke-linecap="round" stroke-linejoin="round" stroke-miterlimit="10" d="
	M337.8,376.601c-0.708-2.749,1.581-4.759,4.628-3.477c2.18,0.918,3.744,0.271,5.58-0.341c0.672-0.224,1.431-0.217,2.153-0.254
	c0.798-0.04,1.605,0.053,2.398-0.025c0.887-0.088,2.174-0.747,2.566-0.383c1.318,1.228,2.597,2.667,3.354,4.277
	c0.704,1.5,0.722,3.322,1.042,5.002"/>
<path fill-rule="evenodd" clip-rule="evenodd" fill="none" stroke="#000000" stroke-width="2" stroke-linecap="round" stroke-linejoin="round" stroke-miterlimit="10" d="
	M426.48,361.24c2.159,1.28,4.319,2.561,6.479,3.84"/>
<path fill-rule="evenodd" clip-rule="evenodd" fill="none" stroke="#000000" stroke-width="2" stroke-linecap="round" stroke-linejoin="round" stroke-miterlimit="10" d="
	M309.36,287.8c2.25,1.019,3.898,3.333,6.72,3.12"/>
<path fill-rule="evenodd" clip-rule="evenodd" fill="none" stroke="#000000" stroke-width="2" stroke-linecap="round" stroke-linejoin="round" stroke-miterlimit="10" d="
	M291.6,364.601c2.08,1.279,4.16,2.56,6.24,3.84"/>
<path fill-rule="evenodd" clip-rule="evenodd" fill="none" stroke="#000000" stroke-width="2" stroke-linecap="round" stroke-linejoin="round" stroke-miterlimit="10" d="
	M301.68,372.761c0.08-0.48,0.326-1.005,0.212-1.434c-0.664-2.494-1.503-4.945-2.095-7.456c-0.306-1.297-0.741-1.993-2.19-2.201
	c-1.949-0.278-3.861-0.858-5.764-1.399c-4.972-1.415-6.965,1.727-8.163,5.05"/>
<path fill-rule="evenodd" clip-rule="evenodd" fill="none" stroke="#000000" stroke-width="2" stroke-linecap="round" stroke-linejoin="round" stroke-miterlimit="10" d="
	M298.08,309.4c1.191,2.061,2.015,4.526,5.04,4.56"/>
<path fill-rule="evenodd" clip-rule="evenodd" fill="none" stroke="#000000" stroke-width="2" stroke-linecap="round" stroke-linejoin="round" stroke-miterlimit="10" d="
	M424.08,349.48c1.52,1.76,3.035,3.524,4.563,5.278c0.706,0.811,1.438,1.602,2.157,2.401"/>
<path fill-rule="evenodd" clip-rule="evenodd" fill="none" stroke="#000000" stroke-width="2" stroke-linecap="round" stroke-linejoin="round" stroke-miterlimit="10" d="
	M255.12,392.44c-1.793-0.193-2.571,0.601-2.405,2.4c0.338,3.678,0.69,7.356,0.943,11.041c0.098,1.431-0.038,2.879-0.102,4.318
	c-0.104,2.32-0.236,4.64-0.355,6.96"/>
<path fill-rule="evenodd" clip-rule="evenodd" fill="none" stroke="#000000" stroke-width="2" stroke-linecap="round" stroke-linejoin="round" stroke-miterlimit="10" d="
	M298.56,431.8c-0.4,0.801-1.241,1.67-1.127,2.389c0.661,4.166-0.281,8.188-0.792,12.252"/>
<path fill-rule="evenodd" clip-rule="evenodd" fill="none" stroke="#000000" stroke-width="2" stroke-linecap="round" stroke-linejoin="round" stroke-miterlimit="10" d="
	M300.24,355.721c-0.063,2.021,1.025,4.18-0.72,6"/>
<path fill-rule="evenodd" clip-rule="evenodd" fill="none" stroke="#000000" stroke-width="2" stroke-linecap="round" stroke-linejoin="round" stroke-miterlimit="10" d="
	M297.12,355.24c-1.416,2.132-3.194,4.113-2.88,6.96"/>
<path fill-rule="evenodd" clip-rule="evenodd" fill="none" stroke="#000000" stroke-width="2" stroke-linecap="round" stroke-linejoin="round" stroke-miterlimit="10" d="
	M294,120.76c1.04,1.88,2.08,3.76,3.12,5.64"/>
<path fill-rule="evenodd" clip-rule="evenodd" fill="none" stroke="#000000" stroke-width="2" stroke-linecap="round" stroke-linejoin="round" stroke-miterlimit="10" d="
	M288,369.28c1.421-0.576,2.38,0.004,3.387,1.055c2.198,2.295,4.356,1.959,6.237-0.678c0.648-0.908,1.576-1.617,2.376-2.417"/>
<path fill-rule="evenodd" clip-rule="evenodd" fill="none" stroke="#000000" stroke-width="2" stroke-linecap="round" stroke-linejoin="round" stroke-miterlimit="10" d="
	M311.52,461.8c1.369,1.921,0.655,3.841,0,5.761"/>
<path fill-rule="evenodd" clip-rule="evenodd" fill="none" stroke="#000000" stroke-width="2" stroke-linecap="round" stroke-linejoin="round" stroke-miterlimit="10" d="
	M353.28,372.761c1.68,1.68,3.36,3.359,5.04,5.039"/>
<path fill-rule="evenodd" clip-rule="evenodd" fill="none" stroke="#000000" stroke-width="2" stroke-linecap="round" stroke-linejoin="round" stroke-miterlimit="10" d="
	M306.72,477.16c0.351,1.764-0.695,2.576-2.169,2.824c-0.583,0.099-1.482-0.256-1.846-0.715c-0.312-0.394-0.218-1.28-0.025-1.856
	c0.234-0.695,0.761-1.293,1.161-1.933"/>
<path fill-rule="evenodd" clip-rule="evenodd" fill="none" stroke="#000000" stroke-width="2" stroke-linecap="round" stroke-linejoin="round" stroke-miterlimit="10" d="
	M316.56,412.601c0.32,2.64,0.64,5.279,0.96,7.92"/>
<path fill-rule="evenodd" clip-rule="evenodd" fill="none" stroke="#000000" stroke-width="2" stroke-linecap="round" stroke-linejoin="round" stroke-miterlimit="10" d="
	M287.28,308.44c0,0.8,0.03,1.602-0.01,2.399c-0.028,0.563-0.396,1.241-0.191,1.661c1.605,3.282-0.068,5.803-1.653,8.459
	c-0.366,0.613,0.094,1.721,0.174,2.601"/>
<path fill-rule="evenodd" clip-rule="evenodd" fill="none" stroke="#000000" stroke-width="2" stroke-linecap="round" stroke-linejoin="round" stroke-miterlimit="10" d="
	M300,446.44c-0.4-1.2-0.733-2.429-1.232-3.586c-0.208-0.483-0.768-0.814-1.168-1.214"/>
<path fill-rule="evenodd" clip-rule="evenodd" fill="none" stroke="#000000" stroke-width="2" stroke-linecap="round" stroke-linejoin="round" stroke-miterlimit="10" d="
	M430.56,358.84c1.12,1.761,2.24,3.521,3.36,5.28"/>
<path fill-rule="evenodd" clip-rule="evenodd" fill="none" stroke="#000000" stroke-width="2" stroke-linecap="round" stroke-linejoin="round" stroke-miterlimit="10" d="
	M420.24,343.721c-0.321,2.458,1.705,3.67,2.961,5.214c0.35,0.431,1.68,0.065,3.029,0.065c0.342,0.389,1.016,1.154,1.689,1.92"/>
<path fill-rule="evenodd" clip-rule="evenodd" fill="none" stroke="#000000" stroke-width="2" stroke-linecap="round" stroke-linejoin="round" stroke-miterlimit="10" d="
	M284.64,328.36c-1.36,1.36-2.72,2.72-4.08,4.08"/>
<path fill-rule="evenodd" clip-rule="evenodd" fill="none" stroke="#000000" stroke-width="2" stroke-linecap="round" stroke-linejoin="round" stroke-miterlimit="10" d="
	M253.92,394.12c0.816,1.091,1.632,2.182,2.638,3.524c0.439-0.731,0.7-1.168,0.962-1.604"/>
<path fill-rule="evenodd" clip-rule="evenodd" fill="none" stroke="#000000" stroke-width="2" stroke-linecap="round" stroke-linejoin="round" stroke-miterlimit="10" d="
	M294.24,402.521c3.213,2.827,3.461,4.277,1.44,8.399"/>
<path fill-rule="evenodd" clip-rule="evenodd" fill="none" stroke="#000000" stroke-width="2" stroke-linecap="round" stroke-linejoin="round" stroke-miterlimit="10" d="
	M422.4,396.04c1.19,1.521,0.938,3.04,0,4.561"/>
<path fill-rule="evenodd" clip-rule="evenodd" fill="none" stroke="#000000" stroke-width="2" stroke-linecap="round" stroke-linejoin="round" stroke-miterlimit="10" d="
	M213.12,409.24c0,2.88-0.004,5.76,0.02,8.64c0,0.081,0.3,0.16,0.46,0.24"/>
<path fill-rule="evenodd" clip-rule="evenodd" fill="none" stroke="#000000" stroke-width="2" stroke-linecap="round" stroke-linejoin="round" stroke-miterlimit="10" d="
	M465.84,340.84c-0.414,1.282-0.725,2.389-2.369,2.969c-2.354,0.831-3.062,3.257-3.889,5.425c-0.2,0.525-0.622,0.967-0.942,1.447"/>
<path fill-rule="evenodd" clip-rule="evenodd" fill="none" stroke="#000000" stroke-width="2" stroke-linecap="round" stroke-linejoin="round" stroke-miterlimit="10" d="
	M251.76,383.32c-0.474,3.274,0.879,6.164,1.92,9.12"/>
<path fill-rule="evenodd" clip-rule="evenodd" fill="none" stroke="#000000" stroke-width="2" stroke-linecap="round" stroke-linejoin="round" stroke-miterlimit="10" d="
	M251.04,428.681c-0.24,2.08-0.48,4.159-0.72,6.239"/>
<path fill-rule="evenodd" clip-rule="evenodd" fill="none" stroke="#000000" stroke-width="2" stroke-linecap="round" stroke-linejoin="round" stroke-miterlimit="10" d="
	M268.08,411.641c-0.987-2.504-2.532-0.545-3.84-0.48"/>
<path fill-rule="evenodd" clip-rule="evenodd" fill="none" stroke="#000000" stroke-width="2" stroke-linecap="round" stroke-linejoin="round" stroke-miterlimit="10" d="
	M408.96,351.16c1.2,1.36,2.4,2.72,3.6,4.08"/>
<path fill-rule="evenodd" clip-rule="evenodd" fill="none" stroke="#000000" stroke-width="2" stroke-linecap="round" stroke-linejoin="round" stroke-miterlimit="10" d="
	M338.16,376.601c2.784,1.867,5.367,0.873,6.24-2.4"/>
<path fill-rule="evenodd" clip-rule="evenodd" fill="none" stroke="#000000" stroke-width="2" stroke-linecap="round" stroke-linejoin="round" stroke-miterlimit="10" d="
	M256.8,390.28c0.48,1.36,0.96,2.72,1.44,4.08"/>
<path fill-rule="evenodd" clip-rule="evenodd" fill="none" stroke="#000000" stroke-width="2" stroke-linecap="round" stroke-linejoin="round" stroke-miterlimit="10" d="
	M340.8,443.08c0.675,2.487,1.021,4.904-1.44,6.72"/>
<path fill-rule="evenodd" clip-rule="evenodd" fill="none" stroke="#000000" stroke-width="2" stroke-linecap="round" stroke-linejoin="round" stroke-miterlimit="10" d="
	M382.08,374.681c-2.321,1.327-2.521,3.842-3.36,6"/>
<path fill-rule="evenodd" clip-rule="evenodd" fill="none" stroke="#000000" stroke-width="2" stroke-linecap="round" stroke-linejoin="round" stroke-miterlimit="10" d="
	M252.96,417.641c0,1.279,0,2.56,0,3.84"/>
<path fill-rule="evenodd" clip-rule="evenodd" fill="none" stroke="#000000" stroke-width="2" stroke-linecap="round" stroke-linejoin="round" stroke-miterlimit="10" d="
	M301.44,294.521c0.16,0.16,0.302,0.345,0.483,0.476c2.613,1.89,2.614,1.888,1.677,5.043"/>
<path fill-rule="evenodd" clip-rule="evenodd" fill="none" stroke="#000000" stroke-width="2" stroke-linecap="round" stroke-linejoin="round" stroke-miterlimit="10" d="
	M290.16,395.08c-1.905,0.899-4.304,0.034-6,1.681"/>
<path fill-rule="evenodd" clip-rule="evenodd" fill="none" stroke="#000000" stroke-width="2" stroke-linecap="round" stroke-linejoin="round" stroke-miterlimit="10" d="
	M251.28,428.2c0.96,0.803,0.96,0.803,0.96,3.36"/>
<path fill-rule="evenodd" clip-rule="evenodd" fill="none" stroke="#000000" stroke-width="2" stroke-linecap="round" stroke-linejoin="round" stroke-miterlimit="10" d="
	M310.08,472.36c-0.16,1.12-0.32,2.24-0.48,3.36"/>
<path fill-rule="evenodd" clip-rule="evenodd" fill="none" stroke="#000000" stroke-width="2" stroke-linecap="round" stroke-linejoin="round" stroke-miterlimit="10" d="
	M288,369.641c-0.64,1.359-1.28,2.72-1.92,4.08"/>
<path fill-rule="evenodd" clip-rule="evenodd" fill="none" stroke="#000000" stroke-width="2" stroke-linecap="round" stroke-linejoin="round" stroke-miterlimit="10" d="
	M312.24,313.24c-1.12,0.16-2.24,0.32-3.36,0.48"/>
<path fill-rule="evenodd" clip-rule="evenodd" fill="none" stroke="#000000" stroke-width="2" stroke-linecap="round" stroke-linejoin="round" stroke-miterlimit="10" d="
	M287.76,396.04c0.918,1.061,0.919,2.186,0.24,3.36"/>
<path fill-rule="evenodd" clip-rule="evenodd" fill="none" stroke="#000000" stroke-width="2" stroke-linecap="round" stroke-linejoin="round" stroke-miterlimit="10" d="
	M291.84,316.601c-0.64,0.96-1.28,1.92-1.92,2.88"/>
<path fill-rule="evenodd" clip-rule="evenodd" fill="none" stroke="#000000" stroke-width="2" stroke-linecap="round" stroke-linejoin="round" stroke-miterlimit="10" d="
	M295.92,466.12c1.055,0.113,1.95,0.707,3.205-0.109c0.734-0.477,2.315,0.35,3.515,0.59"/>
<path fill-rule="evenodd" clip-rule="evenodd" fill="none" stroke="#000000" stroke-width="2" stroke-linecap="round" stroke-linejoin="round" stroke-miterlimit="10" d="
	M289.44,365.8c-0.24,1.04-0.48,2.08-0.72,3.12"/>
<path fill-rule="evenodd" clip-rule="evenodd" fill="none" stroke="#000000" stroke-width="2" stroke-linecap="round" stroke-linejoin="round" stroke-miterlimit="10" d="
	M428.88,351.88c0.24,1.04,0.48,2.08,0.72,3.12"/>
<path fill-rule="evenodd" clip-rule="evenodd" fill="none" stroke="#000000" stroke-width="2" stroke-linecap="round" stroke-linejoin="round" stroke-miterlimit="10" d="
	M352.08,369.4c0.48,0.8,0.96,1.6,1.44,2.399"/>
<path fill-rule="evenodd" clip-rule="evenodd" fill="none" stroke="#000000" stroke-width="2" stroke-linecap="round" stroke-linejoin="round" stroke-miterlimit="10" d="
	M257.76,388.36c-0.32,0.56-0.587,1.158-0.968,1.674c-1.993,2.694-1.972,3.034,0.488,5.286"/>
<path fill-rule="evenodd" clip-rule="evenodd" fill="none" stroke="#000000" stroke-width="2" stroke-linecap="round" stroke-linejoin="round" stroke-miterlimit="10" d="
	M333.84,418.12c0.8,0.641,1.6,1.28,2.4,1.92"/>
<path fill-rule="evenodd" clip-rule="evenodd" fill="none" stroke="#000000" stroke-width="2" stroke-linecap="round" stroke-linejoin="round" stroke-miterlimit="10" d="
	M313.2,470.92c-0.58,0.691,0.177,3.386-2.16,1.44"/>
<path fill-rule="evenodd" clip-rule="evenodd" fill="none" stroke="#000000" stroke-width="2" stroke-linecap="round" stroke-linejoin="round" stroke-miterlimit="10" d="
	M237.84,356.92c-0.48,0.8-0.96,1.601-1.44,2.4"/>
<path fill-rule="evenodd" clip-rule="evenodd" fill="none" stroke="#000000" stroke-width="2" stroke-linecap="round" stroke-linejoin="round" stroke-miterlimit="10" d="
	M251.76,339.16c0.96,0,1.92,0,2.88,0"/>
<path fill-rule="evenodd" clip-rule="evenodd" fill="none" stroke="#000000" stroke-width="2" stroke-linecap="round" stroke-linejoin="round" stroke-miterlimit="10" d="
	M300,454.601c-0.88,0.32-1.783,0.59-2.631,0.979c-0.452,0.208-0.809,0.62-1.209,0.94"/>
<path fill-rule="evenodd" clip-rule="evenodd" fill="none" stroke="#000000" stroke-width="2" stroke-linecap="round" stroke-linejoin="round" stroke-miterlimit="10" d="
	M296.4,420.04c-1.12,0.24-2.24,0.48-3.36,0.721"/>
<path fill-rule="evenodd" clip-rule="evenodd" fill="none" stroke="#000000" stroke-width="2" stroke-linecap="round" stroke-linejoin="round" stroke-miterlimit="10" d="
	M210.96,381.641c0.24-0.24,0.555-0.726,0.708-0.679c0.748,0.229,1.453,0.599,2.172,0.918"/>
<path fill-rule="evenodd" clip-rule="evenodd" fill="none" stroke="#000000" stroke-width="2" stroke-linecap="round" stroke-linejoin="round" stroke-miterlimit="10" d="
	M288.96,317.8c0.639,1.163,1.24,2.328,0.24,3.601"/>
<path fill-rule="evenodd" clip-rule="evenodd" fill="none" stroke="#000000" stroke-width="2" stroke-linecap="round" stroke-linejoin="round" stroke-miterlimit="10" d="
	M306.48,456.761c-0.56-0.24-1.12-0.48-1.68-0.721c-1.142,0.37-1.528,2.146-3.12,1.681"/>
<path fill-rule="evenodd" clip-rule="evenodd" fill="none" stroke="#000000" stroke-width="2" stroke-linecap="round" stroke-linejoin="round" stroke-miterlimit="10" d="
	M264.48,332.2c-0.16,1.04-0.32,2.08-0.48,3.12"/>
<path fill-rule="evenodd" clip-rule="evenodd" fill="none" stroke="#000000" stroke-width="2" stroke-linecap="round" stroke-linejoin="round" stroke-miterlimit="10" d="
	M312,283.28c-3.093-0.006-10.731-1.661-12.955,1.285c-0.653,0.866-0.546,2.171-1.295,3.146c-0.943,1.228-2.229,1.91-3.24,3.134
	c-1.924,2.329-2.711,5.139-4.247,7.662c-0.931,1.528-2.041,2.166-2.544,4.236c-0.541,2.225-1.166,4.908-1.051,7.203"/>
<path fill-rule="evenodd" clip-rule="evenodd" fill="none" stroke="#000000" stroke-width="2" stroke-linecap="round" stroke-linejoin="round" stroke-miterlimit="10" d="
	M302,286.614c-2.389,2.16-4.925,4.239-4.725,7.61c-2.458,1.068-0.864,6.166-1.604,8.396c-0.881,2.654-3.372,4.011-3.004,7.328"/>
<path fill-rule="evenodd" clip-rule="evenodd" fill="none" stroke="#000000" stroke-width="2" stroke-linecap="round" stroke-linejoin="round" stroke-miterlimit="10" d="
	M297.333,296.947c1.522-0.19,2.927,1.1,3.333,2.333"/>
<path fill-rule="evenodd" clip-rule="evenodd" fill="none" stroke="#000000" stroke-width="2" stroke-linecap="round" stroke-linejoin="round" stroke-miterlimit="10" d="
	M299,298.28c-0.351,0.008-0.611-0.035-0.95,0.051c-0.395,1.308,0.038,2.656,1.217,3.265c0.075-0.979,0.098-1.988,0.066-2.981"/>
<path fill-rule="evenodd" clip-rule="evenodd" fill="none" stroke="#000000" stroke-width="2" stroke-linecap="round" stroke-linejoin="round" stroke-miterlimit="10" d="
	M309.667,303.28c0.568,0.957,1.312,0.961,1.667-0.333"/>
<path fill-rule="evenodd" clip-rule="evenodd" fill="none" stroke="#000000" stroke-width="2" stroke-linecap="round" stroke-linejoin="round" stroke-miterlimit="10" d="
	M318.333,292.28c0.009,7.4,5.285,17.179,2,24.334"/>
<path fill-rule="evenodd" clip-rule="evenodd" fill="none" stroke="#000000" stroke-width="2" stroke-linecap="round" stroke-linejoin="round" stroke-miterlimit="10" d="
	M317,303.28c0.449,2.199-1.795,2.928-1.333,5"/>
<path fill-rule="evenodd" clip-rule="evenodd" fill="none" stroke="#000000" stroke-width="2" stroke-linecap="round" stroke-linejoin="round" stroke-miterlimit="10" d="
	M316,308.28c0.763-0.424,1.441-0.621,1.933-1.306c-0.018,1.575,0.225,3.359,0.753,4.799c0.016-0.421,0.002-0.765,0.057-1.175
	c0.292,0.924,0.451,2.006,0.591,3.016"/>
<path fill-rule="evenodd" clip-rule="evenodd" fill="none" stroke="#000000" stroke-width="2" stroke-linecap="round" stroke-linejoin="round" stroke-miterlimit="10" d="
	M386.667,346.28c-6.443-0.561,0.461,7.701,2.657,9.851c3.163,3.095,6.271,5.432,10.959,4.767c0.712-2.924-1.999-3.931-3.597-5.842
	c-1.281-1.531-1.817-3.237-2.917-4.756c-1.194-1.649-5.455-8.93-6.436-3.353"/>
<path fill-rule="evenodd" clip-rule="evenodd" fill="none" stroke="#000000" stroke-width="2" stroke-linecap="round" stroke-linejoin="round" stroke-miterlimit="10" d="
	M340.667,380.947c17.847-0.005,35.498,0.671,53.333,0.667"/>
<path fill-rule="evenodd" clip-rule="evenodd" fill="none" stroke="#000000" stroke-width="2" stroke-linecap="round" stroke-linejoin="round" stroke-miterlimit="10" d="
	M332.333,436.28c0.833,1.407,0.863,3.969,1.509,5.656c0.721,1.881,1.824,3.192,1.491,5.344"/>
<path fill-rule="evenodd" clip-rule="evenodd" fill="none" stroke="#000000" stroke-width="2" stroke-linecap="round" stroke-linejoin="round" stroke-miterlimit="10" d="
	M339,432.28c-0.17,3.278,2.089,6.277,2,9.334"/>
<path fill-rule="evenodd" clip-rule="evenodd" fill="none" stroke="#000000" stroke-width="2" stroke-linecap="round" stroke-linejoin="round" stroke-miterlimit="10" d="
	M336.667,433.947c-1.292-0.005-3.239,0.297-3.247,1.625c1.895,0.071,4.801-1.255,6.317-0.681c-0.868,1.922-3.898,4.647-5.467,6.063
	c1.611,0.984,4.057,0.1,5.36-1.246c0.417,1.894-0.758,2.919-1.296,4.572"/>
<path fill-rule="evenodd" clip-rule="evenodd" fill="none" stroke="#000000" stroke-width="2" stroke-linecap="round" stroke-linejoin="round" stroke-miterlimit="10" d="
	M303,457.947c-2.373,5.167,0.901,12.485,0.333,17.866c-0.015-5.684,1.351-11.189,0.948-16.896
	c-3.497,6.126-1.758,10.078-1.615,16.03"/>
</svg>
