<?xml version="1.0" encoding="utf-8"?>
<!-- Generator: Adobe Illustrator 16.0.0, SVG Export Plug-In . SVG Version: 6.00 Build 0)  -->
<!DOCTYPE svg PUBLIC "-//W3C//DTD SVG 1.1//EN" "http://www.w3.org/Graphics/SVG/1.1/DTD/svg11.dtd">
<svg version="1.1" id="Layer_1" xmlns="http://www.w3.org/2000/svg" xmlns:xlink="http://www.w3.org/1999/xlink" x="0px" y="0px"
	 width="841.89px" height="595.28px" viewBox="0 0 841.89 595.28" enable-background="new 0 0 841.89 595.28" xml:space="preserve">
<path fill-rule="evenodd" clip-rule="evenodd" fill="none" stroke="#000000" stroke-width="2" stroke-linecap="round" stroke-linejoin="round" stroke-miterlimit="10" d="
	M552.24,136.12c1.68-0.4,3.353-0.833,5.041-1.194c6.574-1.405,13.117-2.981,19.919-2.924c1.758,0.015,3.559-0.289,5.27-0.723
	c1.927-0.489,3.267,0.191,4.582,1.469c2.68,2.602,5.441,5.119,8.146,7.695c3.932,3.748,8.008,7.361,11.722,11.315
	c4.887,5.203,9.294,10.865,14.278,15.966c2.604,2.666,5.945,4.639,9.058,6.774c3.858,2.648,7.88,5.062,11.73,7.723
	c4.146,2.865,8.226,5.831,12.241,8.876c4.539,3.442,9.008,6.98,13.438,10.562c1.934,1.564,3.756,3.282,5.494,5.062
	c0.438,0.448,0.537,1.411,0.489,2.117c-0.154,2.326-0.418,4.646-0.714,6.958c-0.055,0.424-0.453,0.803-0.693,1.204"/>
<path fill-rule="evenodd" clip-rule="evenodd" fill="none" stroke="#000000" stroke-width="2" stroke-linecap="round" stroke-linejoin="round" stroke-miterlimit="10" d="
	M587.28,219.64c-1.452-1.757-3.481-1.306-5.277-1.159c-9.04,0.74-18.08,0.41-27.123,0.204c-1.6-0.037-3.206,0.079-4.798-0.037
	c-0.972-0.071-1.928-0.428-2.88-0.695c-0.729-0.206-1.433-0.645-2.163-0.686c-5.197-0.292-10.428-0.96-15.592-0.636
	c-6.966,0.436-14.021,0.024-20.895,1.78c-3.697,0.944-6.954,2.543-9.589,5.313c-4.095,4.305-8.173,8.627-12.241,12.958
	c-4.65,4.95-9.351,9.857-13.897,14.9c-2.699,2.995-5.146,6.217-7.705,9.337"/>
<path fill-rule="evenodd" clip-rule="evenodd" fill="none" stroke="#000000" stroke-width="2" stroke-linecap="round" stroke-linejoin="round" stroke-miterlimit="10" d="
	M506.16,177.4c-1.36,1.2-2.717,2.403-4.081,3.599c-2.558,2.243-5.309,4.301-7.645,6.754c-7.533,7.911-14.685,16.201-22.457,23.863
	c-3.578,3.526-5.119,7.515-5.605,12.11c-0.548,5.175-0.642,10.398-1.033,15.593c-0.199,2.649-0.814,5.275-0.896,7.923
	c-0.149,4.835-0.036,9.679-0.053,14.519c-0.002,0.44-0.132,0.884-0.232,1.319c-1.897,8.212-3.199,16.489-2.893,24.961
	c0.096,2.637-0.095,5.286,0.058,7.917c0.089,1.533,0.37,3.139,0.969,4.541c1.022,2.397-0.389,4.675-0.033,6.979
	c0.741,4.809,1.784,9.58,2.32,14.409c0.458,4.127,0.49,8.313,0.498,12.474c0.005,2.239-0.609,4.478-0.635,6.721
	c-0.034,3.181-1.575,5.582-3.662,7.658c-4.813,4.787-9.782,9.418-14.61,14.19c-8.569,8.473-17.951,16.109-25.929,25.19"/>
<path fill-rule="evenodd" clip-rule="evenodd" fill="none" stroke="#000000" stroke-width="2" stroke-linecap="round" stroke-linejoin="round" stroke-miterlimit="10" d="
	M719.52,389.561c-0.404,2.12-2.54,2.3-3.881,3.305c-2.906,2.179-6.18,3.872-9.05,6.093c-6.254,4.839-12.452,9.761-18.474,14.884
	c-4.262,3.626-8.158,7.679-12.29,11.462c-2.111,1.933-2.687,4.03-2.499,6.983c0.54,8.521,1.982,16.864,3.684,25.199
	c0.918,4.497,1.884,9.021,1.47,13.674c-0.121,1.355-0.248,2.709-0.384,4.195c-4.816,3.884-9.791,7.866-14.721,11.902
	c-0.823,0.674-1.402,1.639-2.184,2.373c-4.783,4.499-9.648,8.91-14.375,13.467c-4.397,4.239-8.764,8.524-12.875,13.035
	c-0.717,0.786-0.402,2.867-0.046,4.213c1.149,4.331,4.608,7.135,7.43,10.294c2.669,2.989,5.688,5.668,8.602,8.434
	c3.652,3.469,7.377,6.862,11.027,10.333c4.346,4.133,8.646,8.313,12.966,12.474"/>
<path fill-rule="evenodd" clip-rule="evenodd" fill="none" stroke="#000000" stroke-width="2" stroke-linecap="round" stroke-linejoin="round" stroke-miterlimit="10" d="
	M759.6,307.24c0.022,3.195-2.24,5.398-3.665,7.883c-7.299,12.721-14.842,25.301-22.244,37.963
	c-4.377,7.487-8.801,14.953-12.919,22.582c-2.904,5.378-5.348,11.005-7.947,16.544c-0.261,0.555-0.184,1.269-0.265,1.908"/>
<path fill-rule="evenodd" clip-rule="evenodd" fill="none" stroke="#000000" stroke-width="2" stroke-linecap="round" stroke-linejoin="round" stroke-miterlimit="10" d="
	M377.52,431.681c-3.576-1.076-5.769,1.126-8.199,3.194c-3.04,2.588-7.056,3.452-10.529,5.31c-4.606,2.463-9.2,4.969-13.929,7.18
	c-7.136,3.338-14.413,6.372-21.573,9.659c-4.616,2.118-9.1,4.521-13.7,6.677c-3.956,1.855-8.016,3.485-11.979,5.325
	c-1.749,0.812-3.372,1.895-5.052,2.854"/>
<path fill-rule="evenodd" clip-rule="evenodd" fill="none" stroke="#000000" stroke-width="2" stroke-linecap="round" stroke-linejoin="round" stroke-miterlimit="10" d="
	M420.72,439.24c-0.8,0.8-1.845,1.467-2.363,2.42c-6.274,11.548-13.815,22.179-22.006,32.469
	c-7.564,9.503-14.187,19.755-21.244,29.663c-0.388,0.545-0.948,0.969-1.428,1.448"/>
<path fill-rule="evenodd" clip-rule="evenodd" fill="none" stroke="#000000" stroke-width="2" stroke-linecap="round" stroke-linejoin="round" stroke-miterlimit="10" d="
	M462,134.68c3.68-0.833,5.385-4.044,7.652-6.505c6.717-7.289,13.299-14.703,19.952-22.051c2.773-3.063,5.592-6.087,8.396-9.123
	c1.267-1.37,2.55-2.725,3.935-4.204c1.417,2.068,1.003,4.083,0.8,5.875c-0.83,7.323-0.606,14.588,0.541,21.848
	c0.188,1.195,0.313,2.401,0.485,3.599c0.555,3.841,1.066,7.689,1.743,11.509c0.086,0.484,1.032,1.119,1.619,1.163
	c4.473,0.329,8.962,0.809,13.435,0.707c7.686-0.175,15.359-0.774,23.042-1.118c2.715-0.122,5.439-0.003,8.158-0.061
	c0.167-0.004,0.321-0.599,0.481-0.919"/>
<path fill-rule="evenodd" clip-rule="evenodd" fill="none" stroke="#000000" stroke-width="2" stroke-linecap="round" stroke-linejoin="round" stroke-miterlimit="10" d="
	M359.28,445.721c-1.12,0.399-2.271,0.729-3.354,1.211c-6.411,2.856-12.832,5.692-19.199,8.643
	c-9.384,4.348-18.707,8.828-28.099,13.159c-2.639,1.217-5.355,2.442-8.168,3.052c-2.754,0.597-4.28,3.151-7.151,3.625
	c-1.385,0.229-0.653,2.217,0.231,3.172c3.151,3.406,6.248,6.878,9.608,10.07c7.761,7.371,16.344,13.833,23.778,21.585
	c2.188,2.28,4.951,4.001,7.378,6.063c0.985,0.837,1.777,1.899,2.657,2.859"/>
<path fill-rule="evenodd" clip-rule="evenodd" fill="none" stroke="#000000" stroke-width="2" stroke-linecap="round" stroke-linejoin="round" stroke-miterlimit="10" d="
	M634.32,303.641c-6.48,0.479-12.963,0.933-19.439,1.449c-4.404,0.351-8.802,0.779-13.2,1.193c-4.082,0.385-8.153,0.913-12.242,1.173
	c-8.795,0.559-17.598,1.006-26.399,1.456c-5.518,0.282-11.037,0.542-16.56,0.714c-6.958,0.217-13.92,0.313-20.879,0.523
	c-0.806,0.024-1.601,0.451-2.4,0.69"/>
<path fill-rule="evenodd" clip-rule="evenodd" fill="none" stroke="#000000" stroke-width="2" stroke-linecap="round" stroke-linejoin="round" stroke-miterlimit="10" d="
	M762,263.32c0.32,0.8,0.918,1.6,0.917,2.4c-0.007,7.44-0.155,14.88-0.181,22.32c-0.013,3.68,0.451,7.389,0.114,11.03
	c-0.22,2.373-1.246,4.784-2.411,6.903c-0.465,0.845-2.312,1.396-3.475,1.313c-7.45-0.536-14.88-1.354-22.327-1.937
	c-3.346-0.261-6.723-0.102-10.076-0.302c-2.184-0.131-4.349-0.565-6.901-0.917c-7.52,5.502-13.592,13.089-20.014,20.359
	c-6.856,7.763-13.977,15.293-21.271,23.238c-0.497-1.207-1.167-2.118-1.2-3.051c-0.085-2.475,0.094-4.959,0.193-7.438
	c0.019-0.483,0.204-0.959,0.223-1.441c0.174-4.479,0.404-8.959,0.456-13.44c0.025-2.237-0.426-4.479-0.413-6.719
	c0.016-2.801,0.274-5.601,0.45-8.4c0.07-1.12,0.198-2.236,0.267-2.987c2.8-1.451,5.41-2.951,8.14-4.189
	c6.687-3.032,13.478-5.839,20.136-8.932c6.78-3.149,13.448-6.542,20.176-9.805c2.222-1.078,4.478-2.086,6.717-3.126"/>
<path fill-rule="evenodd" clip-rule="evenodd" fill="none" stroke="#000000" stroke-width="2" stroke-linecap="round" stroke-linejoin="round" stroke-miterlimit="10" d="
	M504.96,300.761c-0.359,0.59-1.422,0.72-0.527,1.954c5.907,8.151,11.93,16.136,20.67,21.594c3.704,2.313,7.267,4.864,10.805,7.43
	c3.976,2.882,7.813,5.957,11.8,8.824c1.019,0.732,2.399,0.941,3.568,1.487c5.064,2.369,10.44,3.88,15.868,4.907
	c3.476,0.658,7.177,0.153,10.776,0.113c2.641-0.029,5.281-0.122,7.919-0.245c0.949-0.045,1.548,0.218,1.681,1.215"/>
<path fill-rule="evenodd" clip-rule="evenodd" fill="none" stroke="#000000" stroke-width="2" stroke-linecap="round" stroke-linejoin="round" stroke-miterlimit="10" d="
	M458.16,478.12c-4.4-1.771-7.568-5.216-10.732-8.465c-4.661-4.787-8.811-10.066-13.287-15.037c-3.18-3.53-6.22-7.313-9.936-10.189
	c-2.396-1.854-2.74-4.006-3.219-6.394c-0.403-2.009-1.405-2.407-3.16-1.215c-1.33,0.902-1.661,2.371-2.462,3.569
	c-1.667,2.489-3.613,4.838-5.712,6.982c-5.918,6.046-11.52,12.341-16.833,18.939c-6.471,8.037-11.656,16.937-17.744,25.216
	c-1.219,1.657-2.144,3.285-2.355,5.313"/>
<path fill-rule="evenodd" clip-rule="evenodd" fill="none" stroke="#000000" stroke-width="2" stroke-linecap="round" stroke-linejoin="round" stroke-miterlimit="10" d="
	M454.8,476.681c-2.239,0.319-4.485,0.937-6.719,0.893c-3.685-0.073-7.365-0.531-11.039-0.908c-2.329-0.239-4.636-0.7-6.966-0.898
	c-0.694-0.06-1.855,0.229-2.089,0.707c-1.617,3.309-4.991,4.408-7.809,5.847c-5.074,2.589-9.906,5.368-14.394,8.93
	c-5.12,4.063-10.703,7.538-16.012,11.367c-3.983,2.873-7.818,5.95-11.784,8.847c-2.753,2.01-3.717,1.64-5.023-1.666
	c-0.12-0.304-0.166-0.638-0.245-0.958"/>
<path fill-rule="evenodd" clip-rule="evenodd" fill="none" stroke="#000000" stroke-width="2" stroke-linecap="round" stroke-linejoin="round" stroke-miterlimit="10" d="
	M762.24,306.761c0.399,0.56,1.235,1.229,1.127,1.661c-0.599,2.394,0.494,4.44,0.987,6.629c0.321,1.425,0.199,2.95,0.286,4.43
	c0.397,6.72,0.687,13.449,1.238,20.156c0.38,4.613-0.184,8.762-3.872,12.012c-2.039,1.796-3.988,3.692-6.011,5.508
	c-4.132,3.71-8.294,7.34-11.832,11.702c-2.906,3.583-6.89,6.317-9.648,9.989c-2.66,3.541-6.282,5.477-9.723,7.822
	c-0.348,0.237-0.823,0.28-1.188,0.498c-4.091,2.438-4.088,2.442-7.685-0.487"/>
<path fill-rule="evenodd" clip-rule="evenodd" fill="none" stroke="#000000" stroke-width="2" stroke-linecap="round" stroke-linejoin="round" stroke-miterlimit="10" d="
	M757.2,307.721c-3.28,3.68-6.632,7.3-9.816,11.06c-2.283,2.696-4.423,5.523-6.487,8.393c-4.057,5.639-7.938,11.406-12.07,16.987
	c-1.084,1.464-2.775,2.508-4.278,3.623c-2.03,1.508-4.147,2.897-6.228,4.337"/>
<path fill-rule="evenodd" clip-rule="evenodd" fill="none" stroke="#000000" stroke-width="2" stroke-linecap="round" stroke-linejoin="round" stroke-miterlimit="10" d="
	M504.72,176.2c0.276,1.21,0.997,1.007,1.927,0.742c4.489-1.279,8.929-0.778,13.453,0.118c2.125,0.421,4.536,0.086,6.685-0.442
	c4.84-1.191,9.741-1.244,14.656-1.379c5.6-0.154,11.202-0.258,16.799-0.496c5.764-0.244,11.519-0.797,17.281-0.876
	c3.355-0.046,6.777,0.308,10.053,1.016c1.438,0.311,2.753,1.809,3.837,3.024c4.153,4.655,8.134,9.463,12.286,14.119
	c3.843,4.309,7.576,8.763,11.808,12.665c5.007,4.617,10.373,8.875,15.825,12.964c2.979,2.234,4.197,4.915,4.293,8.465
	c0.152,5.568-0.015,11.067-1.141,16.577c-0.816,3.995-0.868,8.145-1.293,12.222c-0.076,0.729-0.309,1.441-0.469,2.161"/>
<path fill-rule="evenodd" clip-rule="evenodd" fill="none" stroke="#000000" stroke-width="2" stroke-linecap="round" stroke-linejoin="round" stroke-miterlimit="10" d="
	M417.36,392.92c0.24,5.761,0.785,11.528,0.63,17.278c-0.141,5.205,1.06,10.121,2.004,15.123c0.316,1.674,0.604,3.354,0.837,5.04
	c0.409,2.964,3.164,4.332,4.48,6.701c5.086,9.15,13.003,15.958,20.3,23.124c4.398,4.32,9.286,8.514,14.931,11.487
	c1.557,0.819,2.898,2.047,4.338,3.087"/>
<path fill-rule="evenodd" clip-rule="evenodd" fill="none" stroke="#000000" stroke-width="2" stroke-linecap="round" stroke-linejoin="round" stroke-miterlimit="10" d="
	M628.8,260.92c-0.399,0.88-0.587,1.979-1.232,2.606c-8.568,8.33-15.393,18.183-23.536,26.868
	c-3.553,3.789-7.617,7.101-11.479,10.597c-1.382,1.251-2.522,0.895-3.356-0.71c-0.133-0.254-0.267-0.547-0.483-0.713
	c-5.991-4.571-11.952-9.184-18.016-13.657c-1.968-1.452-4.126-2.725-6.697-2.912"/>
<path fill-rule="evenodd" clip-rule="evenodd" fill="none" stroke="#000000" stroke-width="2" stroke-linecap="round" stroke-linejoin="round" stroke-miterlimit="10" d="
	M463.44,478.601c-0.721-0.32-1.552-0.506-2.137-0.989c-1.134-0.936-2.312-0.615-2.852,0.3c-3.267,5.534-8.622,8.995-12.993,13.429
	c-4.487,4.553-8.754,9.325-13.24,13.88c-3.413,3.465-7.057,6.701-10.519,10.121c-1.247,1.231-2.26,2.699-3.38,4.06"/>
<path fill-rule="evenodd" clip-rule="evenodd" fill="none" stroke="#000000" stroke-width="2" stroke-linecap="round" stroke-linejoin="round" stroke-miterlimit="10" d="
	M376.56,436.12c-1.039,0.246-2.077,0.491-2.88,0.682c0,3.4,0.511,6.854-0.092,10.102c-2.146,11.548-1.957,23.185-1.75,34.815
	c0.065,3.688,1.042,7.361,1.603,11.042"/>
<path fill-rule="evenodd" clip-rule="evenodd" fill="none" stroke="#000000" stroke-width="2" stroke-linecap="round" stroke-linejoin="round" stroke-miterlimit="10" d="
	M464.4,429.4c-3.427-0.887-5.854-3.342-8.376-5.548c-6.95-6.08-13.815-12.259-20.643-18.477c-1.667-1.519-3.071-3.327-4.58-5.018
	c-3.62-4.055-7.23-8.119-11.296-12.687c-0.615,1.437-1.244,2.354-1.373,3.335c-0.188,1.431-1.411,1.499-2.192,2.177
	c-2.693,2.339-5.307,4.771-7.939,7.178c-4.805,4.396-9.6,8.8-14.402,13.198c-5.679,5.202-11.375,10.384-17.017,15.626
	c-0.573,0.533-0.823,1.415-1.223,2.135"/>
<path fill-rule="evenodd" clip-rule="evenodd" fill="none" stroke="#000000" stroke-width="2" stroke-linecap="round" stroke-linejoin="round" stroke-miterlimit="10" d="
	M513.36,260.68c-1.93,1.048-3.915,1-6.011,0.527c-0.896-0.203-1.973-0.07-2.854,0.235c-1.35,0.467-1.667,1.767-0.722,2.826
	c7.351,8.235,14.132,17.008,22.774,24.027c2.639,2.143,5.041,4.583,7.722,6.667c2.094,1.628,4.434,2.946,6.709,4.328
	c0.351,0.214,0.941,0.03,1.422,0.03"/>
<path fill-rule="evenodd" clip-rule="evenodd" fill="none" stroke="#000000" stroke-width="2" stroke-linecap="round" stroke-linejoin="round" stroke-miterlimit="10" d="
	M677.28,348.28c5.046,5.392,10.005,10.852,16.276,14.947c1.649,1.076,2.875,2.888,4.104,4.508
	c5.027,6.627,10.966,12.377,17.063,17.98c0.21,0.193,0.477,0.324,0.717,0.484"/>
<path fill-rule="evenodd" clip-rule="evenodd" fill="none" stroke="#000000" stroke-width="2" stroke-linecap="round" stroke-linejoin="round" stroke-miterlimit="10" d="
	M547.68,218.92c-2.56,2.32-5.235,4.527-7.649,6.99c-2.693,2.749-4.998,5.886-7.748,8.571c-3.523,3.44-7.315,6.606-11.004,9.876
	c-3.351,2.971-6.753,5.885-10.048,8.916c-0.615,0.566-0.831,1.566-1.23,2.366"/>
<path fill-rule="evenodd" clip-rule="evenodd" fill="none" stroke="#000000" stroke-width="2" stroke-linecap="round" stroke-linejoin="round" stroke-miterlimit="10" d="
	M415.68,438.521c-2.273-0.252-3.561,1.549-4.998,2.693c-9.985,7.948-19.321,16.62-28.128,25.86c-1.639,1.72-3.354,3.366-5.034,5.046
	"/>
<path fill-rule="evenodd" clip-rule="evenodd" fill="none" stroke="#000000" stroke-width="2" stroke-linecap="round" stroke-linejoin="round" stroke-miterlimit="10" d="
	M548.88,238.84c-3.84,1.52-7.729,2.928-11.509,4.585c-6.36,2.789-12.651,5.735-18.971,8.615c-2.936,1.337-5.623,3.093-8.833,4.006
	c-2.012,0.572-4.232,2.158-4.607,4.874"/>
<path fill-rule="evenodd" clip-rule="evenodd" fill="none" stroke="#000000" stroke-width="2" stroke-linecap="round" stroke-linejoin="round" stroke-miterlimit="10" d="
	M417.6,388.601c-3.04-1.12-6.043-2.357-9.128-3.335c-5.785-1.832-11.55-1.285-17.276,0.441c-1.664,0.501-3.464,0.203-4.881,1.86
	c-1.019,1.19-7.356-0.213-8.019-1.633c-0.654-1.401-1.247-3.031-1.183-4.531c0.203-4.729,0.724-9.443,1.132-14.162
	c0.042-0.483,0.223-0.961,0.225-1.441c0.016-5.76-0.02-11.52,0.035-17.279c0.011-1.165-0.235-1.939-1.465-2.16"/>
<path fill-rule="evenodd" clip-rule="evenodd" fill="none" stroke="#000000" stroke-width="2" stroke-linecap="round" stroke-linejoin="round" stroke-miterlimit="10" d="
	M589.2,256.36c5.6,0.24,11.198,0.582,16.8,0.688c4.397,0.083,8.803-0.062,13.199-0.233c2.485-0.097,4.961-0.454,7.44-0.694"/>
<path fill-rule="evenodd" clip-rule="evenodd" fill="none" stroke="#000000" stroke-width="2" stroke-linecap="round" stroke-linejoin="round" stroke-miterlimit="10" d="
	M366.48,442.12c-0.48,0.96-0.807,2.044-1.466,2.859c-3.142,3.887-6.329,7.74-9.587,11.529c-3.14,3.652-6.416,7.186-9.579,10.818
	c-3.316,3.809-6.558,7.683-9.873,11.492c-0.212,0.243-0.775,0.181-1.176,0.261"/>
<path fill-rule="evenodd" clip-rule="evenodd" fill="none" stroke="#000000" stroke-width="2" stroke-linecap="round" stroke-linejoin="round" stroke-miterlimit="10" d="
	M380.64,433.48c-0.53,1.837-2.748,0.86-3.36,1.841c0,4.959,0.031,9.6-0.008,14.239c-0.046,5.6,0.027,11.21-0.305,16.795
	c-0.174,2.929,0.02,5.684,1.033,8.405"/>
<path fill-rule="evenodd" clip-rule="evenodd" fill="none" stroke="#000000" stroke-width="2" stroke-linecap="round" stroke-linejoin="round" stroke-miterlimit="10" d="
	M503.04,265c-1.843,1.432-0.141,3.197-0.354,4.816c-0.602,4.593-0.814,9.265-0.785,13.903c0.027,4.162,0.371,8.351,0.969,12.47
	c0.423,2.909,2.612,4.667,5.189,6.048c3.285,1.762,6.432,3.784,9.605,5.747c0.353,0.218,0.495,0.774,0.735,1.175"/>
<path fill-rule="evenodd" clip-rule="evenodd" fill="none" stroke="#000000" stroke-width="2" stroke-linecap="round" stroke-linejoin="round" stroke-miterlimit="10" d="
	M427.44,558.761c-1.841,0.159-3.678,0.378-5.521,0.468c-4.079,0.198-8.172,0.182-12.237,0.525
	c-6.723,0.568-13.412,0.969-20.169,0.269c-4.687-0.485-9.433-0.461-14.154-0.522c-6.159-0.08-12.321,0.041-18.479-0.039
	c-4.801-0.063-9.6-0.358-14.401-0.438c-2.718-0.045-5.439,0.138-8.16,0.218"/>
<path fill-rule="evenodd" clip-rule="evenodd" fill="none" stroke="#000000" stroke-width="2" stroke-linecap="round" stroke-linejoin="round" stroke-miterlimit="10" d="
	M507.36,388.12c-3.04-0.4-6.102-0.684-9.115-1.227c-4.915-0.884-9.766-0.126-14.647,0.235c-3.268,0.242-6.581,0.47-9.831,0.196
	c-3.511-0.296-6.614,0.918-9.847,1.755"/>
<path fill-rule="evenodd" clip-rule="evenodd" fill="none" stroke="#000000" stroke-width="2" stroke-linecap="round" stroke-linejoin="round" stroke-miterlimit="10" d="
	M337.44,477.16c0.96,0.48,2.065,0.79,2.857,1.467c7.159,6.114,14.295,12.256,21.361,18.479c1.904,1.677,3.498,3.7,5.326,5.471
	c0.652,0.632,1.576,0.984,2.376,1.464"/>
<path fill-rule="evenodd" clip-rule="evenodd" fill="none" stroke="#000000" stroke-width="2" stroke-linecap="round" stroke-linejoin="round" stroke-miterlimit="10" d="
	M460.08,386.92c0.32,0.641,0.473,1.604,0.986,1.87c4.722,2.452,9.788,3.411,15.094,3.172c2.079-0.093,4.161-0.144,6.239-0.246
	c2.881-0.143,5.761-0.315,8.641-0.476"/>
<path fill-rule="evenodd" clip-rule="evenodd" fill="none" stroke="#000000" stroke-width="2" stroke-linecap="round" stroke-linejoin="round" stroke-miterlimit="10" d="
	M422.4,443.8c0.239,3.601,0.476,7.201,0.721,10.801c0.315,4.64,0.766,9.275,0.912,13.921c0.092,2.872-0.273,5.759-0.434,8.639"/>
<path fill-rule="evenodd" clip-rule="evenodd" fill="none" stroke="#000000" stroke-width="2" stroke-linecap="round" stroke-linejoin="round" stroke-miterlimit="10" d="
	M513.72,260.2c0.092,1.538,1.349,1.415,2.28,1.412c7.521-0.029,15.051,0.09,22.557-0.282c5.93-0.294,11.879-0.925,17.752-0.092
	c7.281,1.033,14.586,0.208,21.854,0.864c2.229,0.201,4.478,0.249,6.718,0.244c4.501-0.009,4.817-1.147,3.948-5.479
	c-0.33-1.64,0.111-2.737,0.902-3.579c3.067-3.268,5.654-6.786,7.77-10.773c0.716-1.349,3.013-1.953,4.694-2.63
	c0.411-0.166,1.358,0.606,1.868,1.133c4.225,4.358,9.414,7.207,14.916,9.539c0.746,0.316,1.741,0.043,2.621,0.043"/>
<path fill-rule="evenodd" clip-rule="evenodd" fill="none" stroke="#000000" stroke-width="2" stroke-linecap="round" stroke-linejoin="round" stroke-miterlimit="10" d="
	M510.96,261.88c0.93,2.934,3.921,2.859,6.016,4.052c5.071,2.887,10.245,5.592,15.337,8.441c3.16,1.769,6.247,3.667,9.367,5.507"/>
<path fill-rule="evenodd" clip-rule="evenodd" fill="none" stroke="#000000" stroke-width="2" stroke-linecap="round" stroke-linejoin="round" stroke-miterlimit="10" d="
	M366.48,437.32c-0.8,1.52-1.241,3.497-2.474,4.466c-2.63,2.066-4.365,4.774-6.459,7.249c-3.321,3.929-7.154,7.425-10.465,11.36
	c-4.252,5.055-8.184,10.38-12.308,15.544c-0.444,0.556-1.339,1.261-1.881,1.155c-8.445-1.643-16.974-0.557-25.452-0.911
	c-3.285-0.138-6.563-0.438-9.838-0.73c-0.498-0.045-0.962-0.453-1.442-0.692"/>
<path fill-rule="evenodd" clip-rule="evenodd" fill="none" stroke="#000000" stroke-width="2" stroke-linecap="round" stroke-linejoin="round" stroke-miterlimit="10" d="
	M588.96,301.721c-1.04,0.319-2.124,1.014-3.112,0.897c-5.659-0.662-11.213,0.262-16.813,0.708c-3.167,0.252-6.394-0.277-9.595-0.388
	c-1.036-0.036-2.08,0.22-3.119,0.206c-2.4-0.03-4.801-0.145-7.2-0.225"/>
<path fill-rule="evenodd" clip-rule="evenodd" fill="none" stroke="#000000" stroke-width="2" stroke-linecap="round" stroke-linejoin="round" stroke-miterlimit="10" d="
	M462.72,92.2c0.24,0.96,0.678,1.918,0.688,2.88c0.063,6.159,0.35,12.341-0.068,18.473c-0.338,4.969-0.342,10.013-1.742,14.909
	c-0.486,1.701-0.369,3.723,0.021,5.476c0.274,1.232-0.158,1.985-0.579,2.902"/>
<path fill-rule="evenodd" clip-rule="evenodd" fill="none" stroke="#000000" stroke-width="2" stroke-linecap="round" stroke-linejoin="round" stroke-miterlimit="10" d="
	M627.12,259.48c-2.561-0.16-5.119-0.422-7.681-0.453c-2.958-0.036-5.919,0.15-8.88,0.209c-4.8,0.095-9.601,0.127-14.399,0.261
	c-2.083,0.058-4.16,0.303-6.24,0.463"/>
<path fill-rule="evenodd" clip-rule="evenodd" fill="none" stroke="#000000" stroke-width="2" stroke-linecap="round" stroke-linejoin="round" stroke-miterlimit="10" d="
	M419.76,519.641c-2.959,0.479-5.92,0.957-8.879,1.443c-0.324,0.053-0.64,0.225-0.96,0.226c-5.44,0.015-10.88,0.011-16.32,0.011
	c-2.24,0-4.482,0.057-6.72-0.011c-7.041-0.211-14.104-0.189-21.115-0.779c-8.904-0.75-17.766-2.006-26.644-3.065
	c-0.334-0.04-0.642-0.305-0.962-0.465"/>
<path fill-rule="evenodd" clip-rule="evenodd" fill="none" stroke="#000000" stroke-width="2" stroke-linecap="round" stroke-linejoin="round" stroke-miterlimit="10" d="
	M719.04,261.88c0.64,1.04,1.163,2.178,1.94,3.103c3.595,4.278,6.949,8.823,10.979,12.653c4.842,4.601,9.089,9.713,13.715,14.489
	c3.148,3.252,6.311,6.496,9.339,9.859c1.596,1.773,3.45,2.728,5.786,2.855"/>
<path fill-rule="evenodd" clip-rule="evenodd" fill="none" stroke="#000000" stroke-width="2" stroke-linecap="round" stroke-linejoin="round" stroke-miterlimit="10" d="
	M762.12,262.36c-0.37-1.993-1.732-2.441-3.479-2.15c-2.646,0.441-5.276,0.984-7.923,1.423c-5.814,0.964-11.556,2.401-17.548,0.584
	c-2.46-0.746-5.205-0.726-7.899-0.41c-1.876,0.22-3.854-0.507-5.746-0.348c-3.139,0.264-6.23,1.111-9.369,1.333
	c-4.933,0.35-9.511,1.892-14.188,3.304c-3.3,0.997-6.749-0.131-10.054-1.079c-1.732-0.497-3.498-0.942-5.28-1.181
	c-1.617-0.217-3.183-0.289-4.104-1.941c-0.109-0.197-0.611-0.176-0.932-0.256"/>
<path fill-rule="evenodd" clip-rule="evenodd" fill="none" stroke="#000000" stroke-width="2" stroke-linecap="round" stroke-linejoin="round" stroke-miterlimit="10" d="
	M672.96,217.24c0.72,2.88,1.319,5.797,2.185,8.632c1.839,6.025,3.916,11.978,5.686,18.022c0.699,2.391,1.091,4.874,0.095,7.443
	c-1.363,3.518-1.863,7.371-4.125,10.542"/>
<path fill-rule="evenodd" clip-rule="evenodd" fill="none" stroke="#000000" stroke-width="2" stroke-linecap="round" stroke-linejoin="round" stroke-miterlimit="10" d="
	M767.04,259.24c-0.4,0.48-0.705,1.128-1.214,1.415c-6.459,3.639-12.91,7.292-19.438,10.802c-4.253,2.286-8.628,4.344-12.947,6.504"
	/>
<path fill-rule="evenodd" clip-rule="evenodd" fill="none" stroke="#000000" stroke-width="2" stroke-linecap="round" stroke-linejoin="round" stroke-miterlimit="10" d="
	M639.12,259.48c-1.521,0.08-3.04,0.155-4.561,0.241c-1.28,0.073-2.574,0.065-3.837,0.258c-2.729,0.417-5.426,1.18-8.166,1.373
	c-6.63,0.467-13.28,0.635-19.915,1.032c-2.889,0.173-5.769,0.563-8.64,0.953c-2.076,0.282-3.605-0.657-5.042-1.937"/>
<path fill-rule="evenodd" clip-rule="evenodd" fill="none" stroke="#000000" stroke-width="2" stroke-linecap="round" stroke-linejoin="round" stroke-miterlimit="10" d="
	M588.48,220.84c0.239,2.24,0.666,4.479,0.682,6.72c0.038,5.199-0.131,10.399-0.198,15.6c-0.025,2-0.09,4.005,0.027,5.998
	c0.075,1.29,0.449,2.562,0.688,3.842"/>
<path fill-rule="evenodd" clip-rule="evenodd" fill="none" stroke="#000000" stroke-width="2" stroke-linecap="round" stroke-linejoin="round" stroke-miterlimit="10" d="
	M370.8,439.48c-0.16,2.32-0.267,4.645-0.491,6.959c-0.442,4.563-0.954,9.12-1.427,13.681c-0.407,3.92-0.853,7.836-1.188,11.762
	c-0.446,5.202-1.209,10.376,0.162,15.615c0.834,3.188,0.923,6.563,1.542,9.816c0.399,2.098,0.744,4.051,0.327,6.27
	c-0.357,1.904,1.082,3.628,2.517,5.018"/>
<path fill-rule="evenodd" clip-rule="evenodd" fill="none" stroke="#000000" stroke-width="2" stroke-linecap="round" stroke-linejoin="round" stroke-miterlimit="10" d="
	M562.08,290.2c5.68,2.32,11.34,4.691,17.051,6.932c1.978,0.775,4.008,2.185,6.229,0.508"/>
<path fill-rule="evenodd" clip-rule="evenodd" fill="none" stroke="#000000" stroke-width="2" stroke-linecap="round" stroke-linejoin="round" stroke-miterlimit="10" d="
	M459.84,389.08c-2.88,3.84-5.672,7.75-8.666,11.5c-2.759,3.456-5.733,6.74-8.614,10.101"/>
<path fill-rule="evenodd" clip-rule="evenodd" fill="none" stroke="#000000" stroke-width="2" stroke-linecap="round" stroke-linejoin="round" stroke-miterlimit="10" d="
	M442.08,411.641c-6.88,6.399-13.76,12.8-20.64,19.199"/>
<path fill-rule="evenodd" clip-rule="evenodd" fill="none" stroke="#000000" stroke-width="2" stroke-linecap="round" stroke-linejoin="round" stroke-miterlimit="10" d="
	M592.8,266.2c-0.08,2.8-0.079,5.605-0.26,8.398c-0.239,3.686-0.659,7.359-0.93,11.042c-0.287,3.917-0.464,7.841-0.769,11.756
	c-0.033,0.422-0.602,0.803-0.922,1.203"/>
<path fill-rule="evenodd" clip-rule="evenodd" fill="none" stroke="#000000" stroke-width="2" stroke-linecap="round" stroke-linejoin="round" stroke-miterlimit="10" d="
	M582.24,255.64c-10.16,0.08-20.32,0.16-30.48,0.24c-0.08,0-0.16,0-0.24,0"/>
<path fill-rule="evenodd" clip-rule="evenodd" fill="none" stroke="#000000" stroke-width="2" stroke-linecap="round" stroke-linejoin="round" stroke-miterlimit="10" d="
	M549.84,219.16c1.36,1.84,2.671,3.719,4.09,5.513c3.99,5.047,8.026,10.059,11.738,14.703c-3.34,3.733-6.691,7.271-9.781,11.023
	c-1.469,1.784-2.554,3.141-5.348,2.749c-2.299-0.322-4.847,0.422-7.166,1.096c-6.994,2.033-14.278,2.216-21.366,3.591
	c-2.602,0.505-5.127,1.405-7.687,2.125"/>
<path fill-rule="evenodd" clip-rule="evenodd" fill="none" stroke="#000000" stroke-width="2" stroke-linecap="round" stroke-linejoin="round" stroke-miterlimit="10" d="
	M546.96,261.4c-2.51,5.157-3.551,10.695-4.359,16.314c-0.217,1.508-0.846,2.943,0.279,4.325"/>
<path fill-rule="evenodd" clip-rule="evenodd" fill="none" stroke="#000000" stroke-width="2" stroke-linecap="round" stroke-linejoin="round" stroke-miterlimit="10" d="
	M592.56,221.32c-1.137,3.019,1.151,5.145,2.269,7.386c1.931,3.874,4.532,7.414,6.852,11.094"/>
<path fill-rule="evenodd" clip-rule="evenodd" fill="none" stroke="#000000" stroke-width="2" stroke-linecap="round" stroke-linejoin="round" stroke-miterlimit="10" d="
	M546.96,220.12c0.8,5.84,1.683,11.67,2.362,17.524c0.304,2.614,0.1,5.284,0.311,7.913c0.148,1.854,0.607,3.683,0.927,5.522"/>
<path fill-rule="evenodd" clip-rule="evenodd" fill="none" stroke="#000000" stroke-width="2" stroke-linecap="round" stroke-linejoin="round" stroke-miterlimit="10" d="
	M561.6,233.32c3.681-1.648,7.286-3.331,11.215-4.534c4.352-1.333,9.08-2.694,12.32-6.494c0.619-0.726,1.376-1.361,2.156-1.917
	c1.483-1.06,2.772-1.147,4.606-0.117c3.076,1.728,4.723,4.604,6.899,7.065c2.893,3.269,5.771,6.55,8.629,9.85
	c0.267,0.308,0.334,0.787,0.494,1.188"/>
<path fill-rule="evenodd" clip-rule="evenodd" fill="none" stroke="#000000" stroke-width="2" stroke-linecap="round" stroke-linejoin="round" stroke-miterlimit="10" d="
	M581.28,262.84c-2.08,2.64-4.051,5.376-6.268,7.896c-2.765,3.142-5.732,6.104-8.612,9.145"/>
<path fill-rule="evenodd" clip-rule="evenodd" fill="none" stroke="#000000" stroke-width="2" stroke-linecap="round" stroke-linejoin="round" stroke-miterlimit="10" d="
	M565.2,286.36c-1.12,1.04-2.18,2.159-3.392,3.079c-0.445,0.337-1.387,0.478-1.867,0.238c-4.676-2.329-9.297-4.767-13.943-7.153
	c-2.476-1.271-3.88-0.426-4.334,2.394c-0.733,4.545-0.919,9.064,0.784,13.424c0.485,1.242,1.438,2.369,2.387,3.344
	c0.788,0.809,1.885,1.314,2.845,1.955"/>
<path fill-rule="evenodd" clip-rule="evenodd" fill="none" stroke="#000000" stroke-width="2" stroke-linecap="round" stroke-linejoin="round" stroke-miterlimit="10" d="
	M572.88,247.96c-3.04,0.88-6.068,1.803-9.124,2.624c-1.816,0.488-3.664,0.897-5.521,1.177c-0.765,0.115-1.595-0.201-2.395-0.321"/>
<path fill-rule="evenodd" clip-rule="evenodd" fill="none" stroke="#000000" stroke-width="2" stroke-linecap="round" stroke-linejoin="round" stroke-miterlimit="10" d="
	M590.4,263.08c-2.273,3.208-4.186,6.667-7.416,9.151c-4.099,3.152-8.024,6.529-12.024,9.809"/>
<path fill-rule="evenodd" clip-rule="evenodd" fill="none" stroke="#000000" stroke-width="2" stroke-linecap="round" stroke-linejoin="round" stroke-miterlimit="10" d="
	M583.44,259.96c-0.32-0.16-0.64-0.458-0.96-0.459c-5.2-0.029-10.403-0.127-15.6,0.022c-2.807,0.081-5.601,0.597-8.4,0.917"/>
<path fill-rule="evenodd" clip-rule="evenodd" fill="none" stroke="#000000" stroke-width="2" stroke-linecap="round" stroke-linejoin="round" stroke-miterlimit="10" d="
	M387.12,388.12c1.6,0.4,3.18,0.976,4.804,1.163c3.185,0.366,6.395,0.531,9.596,0.754c5.446,0.379,10.901,1.256,16.32-0.237"/>
<path fill-rule="evenodd" clip-rule="evenodd" fill="none" stroke="#000000" stroke-width="2" stroke-linecap="round" stroke-linejoin="round" stroke-miterlimit="10" d="
	M549.12,261.16c0.56,1.2,0.895,2.594,1.725,3.562c2.022,2.358,4.272,4.522,6.437,6.758c2.636,2.724,5.367,5.363,7.861,8.211
	c0.694,0.792,0.697,2.19,1.018,3.31"/>
<path fill-rule="evenodd" clip-rule="evenodd" fill="none" stroke="#000000" stroke-width="2" stroke-linecap="round" stroke-linejoin="round" stroke-miterlimit="10" d="
	M603.84,240.28c0.641-0.24,1.327-0.398,1.912-0.735c2.093-1.207,3.474-0.86,5.145,1.134c1.902,2.271,4.579,3.88,6.855,5.851
	c3.471,3.004,6.882,6.077,10.334,9.104c0.516,0.451,1.072,1.054,1.683,1.158c1.474,0.25,1.794,1.323,2.151,2.449"/>
<path fill-rule="evenodd" clip-rule="evenodd" fill="none" stroke="#000000" stroke-width="2" stroke-linecap="round" stroke-linejoin="round" stroke-miterlimit="10" d="
	M563.52,238.12c-4.079,4.4-8.159,8.8-12.239,13.2"/>
<path fill-rule="evenodd" clip-rule="evenodd" fill="none" stroke="#000000" stroke-width="2" stroke-linecap="round" stroke-linejoin="round" stroke-miterlimit="10" d="
	M577.92,227.56c0.125,1.816-1.223,2.613-2.385,3.618c-3.085,2.667-6.096,5.422-9.135,8.142"/>
<path fill-rule="evenodd" clip-rule="evenodd" fill="none" stroke="#000000" stroke-width="2" stroke-linecap="round" stroke-linejoin="round" stroke-miterlimit="10" d="
	M588.48,244.6c-1.2,0.24-2.425,0.396-3.596,0.737c-3.134,0.912-6.245,1.903-9.365,2.863"/>
<path fill-rule="evenodd" clip-rule="evenodd" fill="none" stroke="#000000" stroke-width="2" stroke-linecap="round" stroke-linejoin="round" stroke-miterlimit="10" d="
	M555.84,270.76c-0.35,1.849,0.264,3.446,1.454,4.788c2.029,2.285,4.146,4.493,6.226,6.732"/>
<path fill-rule="evenodd" clip-rule="evenodd" fill="none" stroke="#000000" stroke-width="2" stroke-linecap="round" stroke-linejoin="round" stroke-miterlimit="10" d="
	M511.2,310.84c3.432-0.34,6.808-2.327,10.314-0.469c3.227,1.71,6.457,3.427,9.559,5.345c0.567,0.351,0.526,1.685,0.767,2.564"/>
<path fill-rule="evenodd" clip-rule="evenodd" fill="none" stroke="#000000" stroke-width="2" stroke-linecap="round" stroke-linejoin="round" stroke-miterlimit="10" d="
	M560.16,233.56c-3.44,1.52-6.88,3.041-10.32,4.56"/>
<path fill-rule="evenodd" clip-rule="evenodd" fill="none" stroke="#000000" stroke-width="2" stroke-linecap="round" stroke-linejoin="round" stroke-miterlimit="10" d="
	M572.88,229.24c-1.439,1.68-2.781,3.46-4.351,5.009c-1.289,1.273-2.85,2.271-4.289,3.391"/>
<path fill-rule="evenodd" clip-rule="evenodd" fill="none" stroke="#000000" stroke-width="2" stroke-linecap="round" stroke-linejoin="round" stroke-miterlimit="10" d="
	M566.4,240.28c2.399,2.48,4.558,5.277,7.269,7.35c2.634,2.014,5.209,4.06,7.598,6.344c0.57,0.545,0.881,1.372,1.471,1.886
	c1.86,1.623,2.685,1.59,5.503,0.02"/>
<path fill-rule="evenodd" clip-rule="evenodd" fill="none" stroke="#000000" stroke-width="2" stroke-linecap="round" stroke-linejoin="round" stroke-miterlimit="10" d="
	M597.12,242.44c-2.561,0.56-5.12,1.12-7.68,1.68"/>
<path fill-rule="evenodd" clip-rule="evenodd" fill="none" stroke="#000000" stroke-width="2" stroke-linecap="round" stroke-linejoin="round" stroke-miterlimit="10" d="
	M370.32,499.24c0.701-0.817,1.401-1.634,2.428-2.832c0.194,1.113,0.381,1.849,0.442,2.593c0.189,2.317,0.404,4.638,0.45,6.96
	c0.016,0.795-0.439,1.6-0.68,2.399"/>
<path fill-rule="evenodd" clip-rule="evenodd" fill="none" stroke="#000000" stroke-width="2" stroke-linecap="round" stroke-linejoin="round" stroke-miterlimit="10" d="
	M560.04,290.2c-1.08,0.8-2.193,1.559-3.23,2.412c-1.004,0.826-2.034,1.66-2.87,2.646c-2.324,2.742-5.42,4.511-8.18,6.703"/>
<path fill-rule="evenodd" clip-rule="evenodd" fill="none" stroke="#000000" stroke-width="2" stroke-linecap="round" stroke-linejoin="round" stroke-miterlimit="10" d="
	M539.28,255.64c0.96,0.24,1.912,0.517,2.882,0.71c1.031,0.205,2.078,0.33,3.118,0.49"/>
<path fill-rule="evenodd" clip-rule="evenodd" fill="none" stroke="#000000" stroke-width="2" stroke-linecap="round" stroke-linejoin="round" stroke-miterlimit="10" d="
	M563.52,283.48c-1.52,1.76-3.039,3.52-4.56,5.28"/>
<path fill-rule="evenodd" clip-rule="evenodd" fill="none" stroke="#000000" stroke-width="2" stroke-linecap="round" stroke-linejoin="round" stroke-miterlimit="10" d="
	M597.84,217.72c-1.6,0.8-3.2,1.6-4.8,2.4"/>
<path fill-rule="evenodd" clip-rule="evenodd" fill="none" stroke="#000000" stroke-width="2" stroke-linecap="round" stroke-linejoin="round" stroke-miterlimit="10" d="
	M289.68,472.601c1.04,0.96,2.08,1.92,3.12,2.88"/>
<path fill-rule="evenodd" clip-rule="evenodd" fill="none" stroke="#000000" stroke-width="2" stroke-linecap="round" stroke-linejoin="round" stroke-miterlimit="10" d="
	M373.2,437.08c-1.92,1.36-3.906,2.639-5.732,4.115c-0.881,0.712-1.583,0.573-2.428,0.205"/>
<path fill-rule="evenodd" clip-rule="evenodd" fill="none" stroke="#000000" stroke-width="2" stroke-linecap="round" stroke-linejoin="round" stroke-miterlimit="10" d="
	M503.28,261.88c-1.28,0.08-2.561,0.16-3.84,0.24"/>
<path fill-rule="evenodd" clip-rule="evenodd" fill="none" stroke="#000000" stroke-width="2" stroke-linecap="round" stroke-linejoin="round" stroke-miterlimit="10" d="
	M593.28,263.8c-0.24,0.72-0.338,1.961-0.744,2.072c-2.035,0.555-2.904,3.419-5.496,2.728"/>
<path fill-rule="evenodd" clip-rule="evenodd" fill="none" stroke="#000000" stroke-width="2" stroke-linecap="round" stroke-linejoin="round" stroke-miterlimit="10" d="
	M550.08,299.561c-0.276,3.179-2.41,4.798-5.04,6"/>
<path fill-rule="evenodd" clip-rule="evenodd" fill="none" stroke="#000000" stroke-width="2" stroke-linecap="round" stroke-linejoin="round" stroke-miterlimit="10" d="
	M547.2,254.2c-0.4,0.72-0.81,1.436-1.198,2.161c-0.727,1.356-1.442,2.719-2.162,4.079"/>
<path fill-rule="evenodd" clip-rule="evenodd" fill="none" stroke="#000000" stroke-width="2" stroke-linecap="round" stroke-linejoin="round" stroke-miterlimit="10" d="
	M551.76,253.72c-0.88,2.32-1.76,4.64-2.64,6.96"/>
<path fill-rule="evenodd" clip-rule="evenodd" fill="none" stroke="#000000" stroke-width="2" stroke-linecap="round" stroke-linejoin="round" stroke-miterlimit="10" d="
	M458.4,479.32c0.514,1.117,2.811,1.138,1.92,3.12"/>
<path fill-rule="evenodd" clip-rule="evenodd" fill="none" stroke="#000000" stroke-width="2" stroke-linecap="round" stroke-linejoin="round" stroke-miterlimit="10" d="
	M557.76,289c-0.304,1.154-1.899,1.847-1.2,3.36"/>
<path fill-rule="evenodd" clip-rule="evenodd" fill="none" stroke="#000000" stroke-width="2" stroke-linecap="round" stroke-linejoin="round" stroke-miterlimit="10" d="
	M333.36,477.4c-0.24,0.88-0.48,1.76-0.72,2.64"/>
<path fill-rule="evenodd" clip-rule="evenodd" fill="none" stroke="#000000" stroke-width="2" stroke-linecap="round" stroke-linejoin="round" stroke-miterlimit="10" d="
	M587.76,260.44c-2.576-2.23-3.565-1.893-4.56,1.56"/>
<path fill-rule="evenodd" clip-rule="evenodd" fill="none" stroke="#000000" stroke-width="2" stroke-linecap="round" stroke-linejoin="round" stroke-miterlimit="10" d="
	M536.64,218.92c0.24,0.48,0.48,0.96,0.721,1.44"/>
</svg>
