<?xml version="1.0" encoding="utf-8"?>
<!-- Generator: Adobe Illustrator 16.0.0, SVG Export Plug-In . SVG Version: 6.00 Build 0)  -->
<!DOCTYPE svg PUBLIC "-//W3C//DTD SVG 1.1//EN" "http://www.w3.org/Graphics/SVG/1.1/DTD/svg11.dtd">
<svg version="1.1" id="Layer_1" xmlns="http://www.w3.org/2000/svg" xmlns:xlink="http://www.w3.org/1999/xlink" x="0px" y="0px"
	 width="1200px" height="850px" viewBox="0 0 1200 850" enable-background="new 0 0 1200 850" xml:space="preserve">
<path id="path4947" sodipodi:nodetypes="csssccc" inkscape:connector-curvature="0" fill="none" stroke="#000000" d="
	M996.822,110.547c0,0-17.079,34.149-19.856,62.742c-2.779,28.592-16.845,50.844-25.187,66.329
	c-8.338,15.488-31.374,45.745-43.115,84.57c-19.944,65.941-54.981,121.381-54.981,121.381l-24.839,36.666l-85.827,48.921"/>
<path id="path4949" sodipodi:nodetypes="csssc" inkscape:connector-curvature="0" fill="none" stroke="#000000" d="M797.87,540.61
	c0,0-19.797-13.58-37.325-11.518c-17.528,2.063-84.18,8.244-101.708,9.276c-17.528,1.031-17.528,5.153-32.994,5.153
	c-15.469,0-33.723-5.828-49.855-7.039"/>
<path id="path4951" sodipodi:nodetypes="cscc" inkscape:connector-curvature="0" fill="none" stroke="#000000" d="M606.864,568.804
	c0,0-8.598-29.089-62.346-43.683c-53.75-14.592-61.998-9.435-73.337-15.623c-11.343-6.187-107.35-42.278-124.82-44.338"/>
<path id="path4953" sodipodi:nodetypes="ccszcsc" inkscape:connector-curvature="0" fill="none" stroke="#000000" d="
	M514.487,571.363c0,0-95.142-22.145-112.531-22.415c-17.385-0.268-38.637,7.275-53.683,22.321
	c-4.126,4.127-6.353,24.145-0.322,30.492c6.031,6.353,24.222,8.737,24.222,8.737c1.978-1.269,25.8-4.079,42.979-4.61
	c20.697-0.64,35.406,40.742,78.712,61.364"/>
<path id="path4955" inkscape:connector-curvature="0" fill="none" stroke="#000000" d="M397.973,606.42c0,0,4.65,3.673,9.544,16.787
	c4.894,13.111,18.296,51.264,27.576,58.48c0,0,3.095,9.279,12.375,17.528"/>
<path id="path4957" inkscape:connector-curvature="0" fill="none" stroke="#000000" d="M433.03,621.886
	c0,0,25.777,53.616,43.305,60.833"/>
<path id="path4959" inkscape:connector-curvature="0" fill="none" stroke="#000000" d="M264.966,486.814l11.344,19.592"/>
<path id="path4963" sodipodi:nodetypes="ccsscscscc" inkscape:connector-curvature="0" fill="none" stroke="#000000" d="
	M262.573,497.725l21.841,15.088c0,0,15.52,12.786,23.811,21.748c8.295,8.962,38.617,24.226,36.631,48.448
	c-1.986,24.226-22.717,24.314-22.717,24.314c-20.17-5.918-59.714-23.183-59.714-23.183c-13.433-18.575-43.22-34.362-46-53.857
	c0.795-12.704,5.235-31.097,13.483-39.347c8.249-8.247,31.962-16.495,43.305-21.65c11.344-5.153,23.974-9.858,36.216-10.082"/>
<path id="path4965" sodipodi:nodetypes="cccc" inkscape:connector-curvature="0" fill="none" stroke="#000000" d="M297.917,526.312
	l23.826-135.411c0,0,22.616-8.225,32.924,8.271l-23.713,150.54"/>
<path id="path4969" sodipodi:nodetypes="ccccc" inkscape:connector-curvature="0" fill="none" stroke="#000000" d="M322.14,607.323
	l-18.266,100.405l-19.537,30.884l-16.276-37.334l18.556-107.233"/>
<path id="path4971" sodipodi:nodetypes="csscc" inkscape:connector-curvature="0" fill="none" stroke="#000000" d="M217.052,524.128
	c0,0-3.647,12.856-10.86,24.89c-7.213,12.033,0.003,23.377,8.252,36.779c12.809,20.816,26.684,51.309,26.684,51.309
	c-1.19,2.382,20.841,17.878,33.277,19.515"/>
<path id="path4973" sodipodi:nodetypes="csscc" inkscape:connector-curvature="0" fill="none" stroke="#000000" d="M311.362,666.222
	c0,0,14,13.415,33.808,9.8c19.809-3.614,8.466-31.454,8.466-36.607c0-5.155-13.403-16.497-13.403-16.497l-18.094-15.594"/>
<path id="path4975" sodipodi:nodetypes="csc" inkscape:connector-curvature="0" fill="none" stroke="#000000" d="M223.076,600.851
	c0,0-4.51,36.5,5.801,56.092c4.801,9.124,22.679,23.693,40.21,32.993"/>
<path id="path4977" sodipodi:nodetypes="cc" inkscape:connector-curvature="0" fill="none" stroke="#000000" d="M303.874,707.729
	c0,0,23.753-8.191,15.505-36.03"/>
<path id="path4979" sodipodi:nodetypes="csssc" inkscape:connector-curvature="0" fill="none" stroke="#000000" d="M316.245,700.511
	c0,0,61.841,17.831,108.905,5.693c41.847-10.801,45.179,4.909,59.007-5.166c13.833-10.071,67.931-26.808,84.188-29.782
	c16.251-2.972,25.532,1.151,30.689-10.191"/>
<path id="path4981" inkscape:connector-curvature="0" fill="none" stroke="#000000" d="M345.17,676.021
	c0,0,12.438,39.052-28.925,24.489"/>
<path id="path4983" sodipodi:nodetypes="csc" inkscape:connector-curvature="0" fill="none" stroke="#000000" d="M568.345,671.256
	c0,0,61.698,16.838,116.269,19.711c39.18,2.064,77.184,13.252,77.184,13.252s47.575,34.177,156.868-44.182"/>
</svg>
