<?xml version="1.0" encoding="utf-8"?>
<!-- Generator: Adobe Illustrator 16.0.0, SVG Export Plug-In . SVG Version: 6.00 Build 0)  -->
<!DOCTYPE svg PUBLIC "-//W3C//DTD SVG 1.1//EN" "http://www.w3.org/Graphics/SVG/1.1/DTD/svg11.dtd">
<svg version="1.1" id="Calque_1" xmlns="http://www.w3.org/2000/svg" xmlns:xlink="http://www.w3.org/1999/xlink" x="0px" y="0px"
	 width="470.37px" height="392.592px" viewBox="0 0 470.37 392.592" enable-background="new 0 0 470.37 392.592"
	 xml:space="preserve">
<g>
	<g>
		<path fill="none" stroke="#231F20" stroke-width="0.5" stroke-miterlimit="10" d="M74.883,97.571
			c-0.794-4.793,7.914-13.177,10.662-17.192"/>
		<path fill="none" stroke="#231F20" stroke-width="0.5" stroke-miterlimit="10" d="M79.356,73.843
			c-2.234,4.035,3.405,10.959,5.157,6.536"/>
		<path fill="none" stroke="#231F20" stroke-width="0.5" stroke-miterlimit="10" d="M79.356,76.252
			c4.014-3.644,8.791-8.124,14.598-8.272c6.031-0.153,11.918,3.545,9.413,10.276c-1.428,0.443-2.645-0.264-3.106-1.615
			c-1.117,0.705-2.352,1.794-3.644,1.968c-0.716-2.074-4.167,1.112-6.201,0.679c-2.326-2.967,5.706-2.965,1.367-5.093
			c-4.787-2.354-3.316,4.989-6.238,5.84"/>
		<path fill="none" stroke="#231F20" stroke-width="0.5" stroke-miterlimit="10" d="M77.636,75.908
			c-7.457,6.616-20.174,14.452-22.224,25.057c-2.095,10.813,13.702,12.147,20.957,13.966c4.598,1.15,9.116,2.371,13.304,4.647"/>
		<path fill="none" stroke="#231F20" stroke-width="0.5" stroke-miterlimit="10" d="M91.048,114.422
			c-3.554,8.112-2.508,18.684-3.092,27.532c-0.584,8.776-0.184,17.869,0.335,26.631c0.186,3.158,1.228,9.149,0.002,11.859"/>
		<path fill="none" stroke="#231F20" stroke-width="0.5" stroke-miterlimit="10" d="M88.981,179.417
			c7.516,1.994,14.537,5.016,22.401,5.152c7.558,0.132,15.946,0.854,23.422-0.542c2.281-0.429,4.968-1.277,7.03-2.333
			c1.713-0.877,4.579-3.94,0.502-3.705c-0.019-1.583,1.583-1.81,2.25-3.106c0.83-1.598,0.396-3.087-0.063-4.572
			c-0.17-0.547-1.134-1.306-1.126-1.862c0.012-0.867,1.101-0.834,1.275-1.626c0.337-1.522,0.231-2.993,0.023-4.634
			c-0.441-3.459,1.739-5.359-0.078-8.451c-0.858-1.457-1.845-1.268-1.499-3.21c0.177-0.976,1.815-2.347,2.237-3.309
			c0.825-1.871,0.799-3.186,0.29-5.208c-0.181-0.735-0.99-1.165-0.969-2.178c0.026-0.98,1.141-2.041,1.391-3.059"/>
		<path fill="none" stroke="#231F20" stroke-width="0.5" stroke-miterlimit="10" d="M152.944,107.545
			c1.626,6.828,3.658,14.183,0.208,20.792c-2.901,5.562-8.92,9.818-14.244,12.882c-7.047,4.063-12.102,2.305-16.486-4.275
			c-3.575-5.378-6.509-10.954-9.167-16.822c-2.734-6.02-6.839-10.884-8.494-17.389c1.294-1.131,3.142-1.489,4.657-2.324
			c0.964-0.528,2.592-2.404,3.514-2.578c2.3-0.438,5.322,4.798,6.873,6.712c-3.05,2.223-6.18,3.323-8.814,6.097"/>
		<path fill="none" stroke="#231F20" stroke-width="0.5" stroke-miterlimit="10" d="M119.935,106.169
			c0.198,2.56,4.756,5.477,6.554,7.414c1.596,1.716,3.231,3.318,4.9,4.874c3.976,3.705,8.527,6.354,8.484,12.128"/>
		<path fill="none" stroke="#231F20" stroke-width="0.5" stroke-miterlimit="10" d="M135.063,120.267
			c1.058-2.343,1.079-4.728,2.39-7.038c0.658-1.159,1.409-2.672,2.564-3.44c1.676-1.113,4.153-0.98,5.362-2.588"/>
		<path fill="none" stroke="#231F20" stroke-width="0.5" stroke-miterlimit="10" d="M153.288,108.919
			c-0.561-2.496-2.484-3.613-4.494-4.749c-2.977-1.678-3.448-3.554-4.878-6.712c-1.754-3.875-2.449-2.573-5.68-1.006
			c-2.435,1.181-5.793,1.763-8.449,2.194c-2.56,0.415-7.101,0.193-8.779,2.649c3.927,0.641,7.938-0.24,11.824,0.062
			c2.736,0.207,6.945,3.323,9.451,2.064"/>
		<path fill="none" stroke="#231F20" stroke-width="0.5" stroke-miterlimit="10" d="M104.458,101.012
			c-2.048-2.621-1.096-5.567-3.611-7.358c-1.393-0.99-2.616-0.594-2.576-2.602c0.023-1.08,1.468-2.442,2.342-2.824
			c-0.023-1.4,1.193-1.598,2.425-1.367c-0.125-0.297-0.094-0.99-0.269-1.351c0.328-0.012,0.721-0.325,1.211-0.294
			c-0.161-1.522-2.536-5.473-3.307-6.557"/>
		<path fill="none" stroke="#231F20" stroke-width="0.5" stroke-miterlimit="10" d="M102.05,78.316
			c1.061,2.774,4.28,5.887,6.361,7.905c3.062,2.967,4.285,5.38,4.301,9.976"/>
		<path fill="none" stroke="#231F20" stroke-width="0.5" stroke-miterlimit="10" d="M117.183,72.811
			c-1.242,0.005-2.503-0.023-3.724,0.062c-2.607,7.292,8.206,7.348,6.08,1.022c-1.032,0.193-1.115-0.462-1.668-0.737"/>
		<path fill="none" stroke="#231F20" stroke-width="0.5" stroke-miterlimit="10" d="M125.434,75.564
			c-2.899-1.775-3.849,6.731,2.338,5.185c4.935-1.23,2.09-8.696-1.65-6.217"/>
		<path fill="none" stroke="#231F20" stroke-width="0.5" stroke-miterlimit="10" d="M125.775,77.284
			c0.358-0.4,1.03-0.504,1.72-0.344"/>
		<path fill="none" stroke="#231F20" stroke-width="0.5" stroke-miterlimit="10" d="M116.15,75.564
			c0.4,0.311,0.846,0.424,1.376,0.344"/>
		<path fill="none" stroke="#231F20" stroke-width="0.5" stroke-miterlimit="10" d="M131.281,78.316c2.802,1.259,6.417-0.24,9.286,0
			"/>
		<path fill="none" stroke="#231F20" stroke-width="0.5" stroke-miterlimit="10" d="M114.43,71.781
			c0.686-7.219,3.198-12.79,10.862-14.445c6.769-1.461,13.092,1.645,15.67,8.185c1.515,3.839,1.082,7.817,0.29,11.763"/>
		<path fill="none" stroke="#231F20" stroke-width="0.5" stroke-miterlimit="10" d="M140.22,79.693
			c6.17-1.692-2.906,13.759-3.783,6.875"/>
		<path fill="none" stroke="#231F20" stroke-width="0.5" stroke-miterlimit="10" d="M135.749,87.253
			c-2.932,3.766-5.088,8.317-10.349,9.021c-5.482,0.735-10.327-2.736-11.777-7.944c-0.839-3.024-0.544-6.25-0.226-9.326"/>
		<path fill="none" stroke="#231F20" stroke-width="0.5" stroke-miterlimit="10" d="M117.871,86.567
			c1.694-0.285,2.685,0.896,4.127,0.347"/>
		<path fill="none" stroke="#231F20" stroke-width="0.5" stroke-miterlimit="10" d="M118.212,81.411
			c0.745,1.397,2.128,1.145,3.438,0.344"/>
		<path fill="none" stroke="#231F20" stroke-width="0.5" stroke-miterlimit="10" d="M88.981,180.789
			c-0.019,6.283-1.369,12.317-1.376,18.571c-0.007,5.623-0.184,11.162-0.005,16.822c0.113,3.631,2.286,3.771,3.42,6.609
			c0.804,2.012,0.351,4.963,1.12,7.211c1.866,5.463,2.776,10.338,2.356,16.188c-0.198,2.799,0.521,4.643,0.757,7.188
			c0.148,1.584,0.063,2.092,0.676,3.756c0.533,1.443,1.037,2.998,1.296,4.516c0.302,0.383,0.17-0.146,0.356-0.391"/>
		<path fill="none" stroke="#231F20" stroke-width="0.5" stroke-miterlimit="10" d="M114.083,208.991
			c0.257,3.813,3.403,6.617,3.794,10.289c0.443,4.205-0.021,7.771-0.017,11.887c0.009,3.889,1.173,8.277,0.45,12.209
			c-0.368,1.979-1.355,3.643-0.87,5.59c0.459,1.857,1.306,2.668,1.444,4.896c0.028,0.379-0.764,0.563-0.714,1.184
			c0.033,0.467,0.761,0.807,0.804,1.32c0.073,0.787,0.318,2.135,0.528,2.918c0.608,2.238,3.75,3.199,3.177,5.754"/>
		<path fill="none" stroke="#231F20" stroke-width="0.5" stroke-miterlimit="10" d="M110.645,203.829
			c-0.019,2.904,5.029,6.43,6.512,8.875c2.382,3.936,3.017,8.844,3.881,13.344c0.905,4.738,2.34,8.701,2.333,13.537
			c-0.005,4.074,0.973,7.369,1.694,11.162c0.391,2.07,1.854,12.496,2.776,12.576"/>
		<path fill="none" stroke="#231F20" stroke-width="0.5" stroke-miterlimit="10" d="M144.693,184.918
			c-0.254,1.668,0.573,5.217,0.681,7.575c0.116,2.574-0.169,5.049-0.328,7.537c-0.351,5.52-0.365,11.066-0.693,16.553
			c-0.294,4.926-1.292,10.178-0.683,15.141c0.563,4.605,1.418,9.178,2.069,13.76c0.384,2.691,0.323,5.463,0.323,8.248
			c0,1.408-0.078,2.855,0.004,4.266c0.078,1.301,0.5,3.271,0.344,3.262"/>
		<path fill="none" stroke="#231F20" stroke-width="0.5" stroke-miterlimit="10" d="M90.014,192.139
			c-0.24,0.193-0.53,0.51-0.915,0.66c1.935-2.031,3.467-4.469,5.388-6.505"/>
		<path fill="none" stroke="#231F20" stroke-width="0.5" stroke-miterlimit="10" d="M128.875,190.762
			c-2.109,2.971,10.285,4.111,12.031,4.129"/>
		<path fill="none" stroke="#231F20" stroke-width="0.5" stroke-miterlimit="10" d="M75.227,96.883
			c-1.251,2.752,10.849-0.594,12.543-0.686c2.564-0.139,5.152,0.031,7.718-0.002c2.135-0.023,6.034-1.247,7.594,0.344"/>
		<path fill="none" stroke="#231F20" stroke-width="0.5" stroke-miterlimit="10" d="M115.116,91.382
			c0.29,1.81-0.455,3.608-1.032,5.157"/>
		<path fill="none" stroke="#231F20" stroke-width="0.5" stroke-miterlimit="10" d="M133.343,91.038
			c0.005,2.065-0.334,4.153,1.032,5.845"/>
		<path fill="none" stroke="#231F20" stroke-width="0.5" stroke-miterlimit="10" d="M118.903,60.434
			c-0.238,4.129,12.764,1.588,14.421,4.107c0.538,0.825,0.055,3.062,0.472,4.115c0.358,0.902,1.235,1.638,1.572,2.717
			c0.813,2.602,1.223,5.293,2.1,7.975"/>
	</g>
	<g>
		<path fill="none" stroke="#231F20" stroke-width="0.5" stroke-miterlimit="10" d="M123.372,265.727
			c0.08,0.047,0.275,0.758,0.108,0.014c-6.781-5.354-13.175-8.348-21.607-4.695c-8.022,3.479-15.383,8.967-23.087,13.137
			c-6.998,3.791-16.401,9.23-16.959,18.213c-0.591,9.408,9.63,12.125,17.125,12.172c9.913,0.057,19.667-1.684,29.631-1.357"/>
		<path fill="none" stroke="#231F20" stroke-width="0.5" stroke-miterlimit="10" d="M128.528,265.383
			c-2.352,1.078-6.498,1.701-9.309,2.516c-3.396,0.986-6.512,1.881-9.781,3.518c-5.175,2.582-11.251,4.902-16.657,6.25
			c-4.038,1.014-7.445,2.158-11.707,2.158"/>
		<path fill="none" stroke="#231F20" stroke-width="0.5" stroke-miterlimit="10" d="M127.842,265.038
			c2.717-1.148,5.22-2.488,7.999-3.559c1.322-0.508,2.878-1.418,4.367-0.838c0.936,0.363,1.299,1.777,2.277,2.318
			c1.119,0.623,2.842,0.256,4.023,0.59c1.192,0.344,2.868,1.344,3.921,1.998c1.464,0.914,1.643,1.598,3.545,1.885
			c1.603,0.246,3.267-0.654,4.129,1.047"/>
		<path fill="none" stroke="#231F20" stroke-width="0.5" stroke-miterlimit="10" d="M199.021,215.868
			c-8.312,1.855-17.444,6.32-21.739,14.117c-4.258,7.734-6.045,17.109-9.613,25.207c-1.539,3.502-2.545,7.75-4.751,10.879"/>
		<path fill="none" stroke="#231F20" stroke-width="0.5" stroke-miterlimit="10" d="M186.988,248.536
			c-0.724,4.676-5.131,8.334-8.348,11.426c-2.515,2.424-4.905,5.016-8.338,6.01c-2.948,0.85-6.095,0.656-9.076,1.344
			c-3.86,0.887-7.494,2.645-11.293,3.752c-13.349,3.898-26.919,3.898-34.663,17.352c-3.957,6.867-4.242,15.078-5.654,22.699"/>
		<path fill="none" stroke="#231F20" stroke-width="0.5" stroke-miterlimit="10" d="M137.811,276.389
			c3.448-2.023,8.471-2.207,12.413-3.084c3.769-0.844,7.57-1.334,11.308-2.068c3.615-0.717,7.294-0.396,10.952-1.041
			c4.612-0.816,6.917-3.719,10.035-6.873"/>
		<path fill="none" stroke="#231F20" stroke-width="0.5" stroke-miterlimit="10" d="M175.295,273.975
			c-1.466,0.877-4.004,1.664-5.762,1.994c-1.739,0.32-3.844-0.453-4.899,1.104"/>
		<path fill="none" stroke="#231F20" stroke-width="0.5" stroke-miterlimit="10" d="M182.173,271.571
			c-5.647,7.947-14.125,13.27-19.215,21.631c-2.948,4.85-5.444,9.875-8.439,14.668c-1.393,2.23-2.536,4.645-3.637,7.039
			c-1.513,3.285-4.343,6.701-4.815,10.307"/>
		<path fill="none" stroke="#231F20" stroke-width="0.5" stroke-miterlimit="10" d="M174.605,284.987
			c-3.29,1.918-5.258,10.256-6.187,13.805c-1.306,4.959-2.788,10.055-4.499,14.904c-1.27,3.605-3.243,7.84-5.298,11.016
			c-3.472,5.369-4.94,8.877-4.992,15.635"/>
		<path fill="none" stroke="#231F20" stroke-width="0.5" stroke-miterlimit="10" d="M200.051,214.834
			c9.17-2.205,17.317-2.291,25.246,3.436c7.12,5.143,12.571,12.766,15.672,20.938c3.599,9.484,2.314,18.775,2.388,28.641
			c0.066,10.021,4.19,17.275,7.23,26.467c1.475,4.477,2.621,10.713-0.742,14.668c-4.044,4.756-11.893,2.762-17.125,1.791"/>
		<path fill="none" stroke="#231F20" stroke-width="0.5" stroke-miterlimit="10" d="M234.441,270.543
			c-0.709,4.832-1.202,9.584,0.693,14.211c1.369,3.357,3.761,6.313,5.024,9.715c0.98,2.641,1.518,6.41,1.146,9.23
			c-0.535,4.01-4.209,5.396-7.207,2.258"/>
		<path fill="none" stroke="#231F20" stroke-width="0.5" stroke-miterlimit="10" d="M235.129,297.364
			c0.511,4.732-3.575,10.408-5.692,14.307c-1.355,2.498-2.792,5.061-4.011,7.625c-1.718,3.611-2.338,12.35-5.771,14.18"/>
		<path fill="none" stroke="#231F20" stroke-width="0.5" stroke-miterlimit="10" d="M221.029,280.512
			c-0.955,2.604-0.907,5.752-1.721,8.533c-1.685,5.783-3.375,11.934-5.498,17.604"/>
		<path fill="none" stroke="#231F20" stroke-width="0.5" stroke-miterlimit="10" d="M204.183,286.014
			c0.017,6.48-2.642,13.018-5.162,18.91"/>
		<path fill="none" stroke="#231F20" stroke-width="0.5" stroke-miterlimit="10" d="M196.617,290.831
			c-2.015,3.295-2.656,8.338-3.74,12.146c-0.853,2.998-1.817,6.057-3.292,8.82c-1.852,3.465-5.642,5.627-7.065,9.295"/>
		<path fill="none" stroke="#231F20" stroke-width="0.5" stroke-miterlimit="10" d="M243.725,265.383
			c5.873,4.053,11.164,8.799,16.94,12.951c5.425,3.895,11.649,6.643,16.53,11.281c9.79,9.309,15.951,22.242,4.522,33.055
			c-6.597,6.246-16.818,9.258-24.923,12.863"/>
		<path fill="none" stroke="#231F20" stroke-width="0.5" stroke-miterlimit="10" d="M252.322,294.959
			c0.41,2.508,3.705,4.996,5.159,6.873"/>
		<path fill="none" stroke="#231F20" stroke-width="0.5" stroke-miterlimit="10" d="M253.012,303.553
			c4.421,0,8.152-0.086,12.229,1.211c3.49,1.113,8.746,3.875,12.524,3.602"/>
		<path fill="none" stroke="#231F20" stroke-width="0.5" stroke-miterlimit="10" d="M229.282,335.877
			c2.072-4.049,4.725-7.965,6.894-11.863c2.342-4.209,4.391-9.182,7.207-12.896"/>
		<path fill="none" stroke="#231F20" stroke-width="0.5" stroke-miterlimit="10" d="M119.589,269.168
			c-2.814,3.109-5.871,5.914-7.669,9.916c-0.83,1.848-1.695,4.271-1.954,6.27c-0.49,3.785,1.564,6.684,1.713,10.289"/>
		<path fill="none" stroke="#231F20" stroke-width="0.5" stroke-miterlimit="10" d="M125.087,289.456
			c-2.929,2.889-7.999,7.479-8.593,11.689"/>
		<path fill="none" stroke="#231F20" stroke-width="0.5" stroke-miterlimit="10" d="M116.15,308.366
			c1.202,1.451,3.844,1.682,5.505,2.758c1.753,1.131,3.023,2.719,4.12,4.463"/>
		<path fill="none" stroke="#231F20" stroke-width="0.5" stroke-miterlimit="10" d="M62.159,290.831
			c-5.981,3.805-12.507,6.467-18.164,10.795c-6.604,5.047-9.142,10.219-8.654,18.477c0.294,4.969,0.445,10.195,1.372,15.088"/>
		<path fill="none" stroke="#231F20" stroke-width="0.5" stroke-miterlimit="10" d="M80.73,337.598
			c3.361-0.834,7.346-4.186,10.624-5.723c4.021-1.879,8.579-4.146,13.104-4.939"/>
		<path fill="none" stroke="#231F20" stroke-width="0.5" stroke-miterlimit="10" d="M283.271,294.959
			c4.393-0.641,11.673-6.83,16.344-9.492c5.093-2.904,9.698-6.566,14.949-9.078"/>
	</g>
	<path fill="none" stroke="#231F20" stroke-width="0.5" stroke-miterlimit="10" d="M313.185,276.729
		c3.055-0.072,6.312,1.852,9.269,2.602c3.295,0.828,6.563,1.102,9.904,1.648c8.271,1.354,16.428,3.502,24.564,5.486
		c11.826,2.885,23.492,6.652,35.512,8.654c10.199,1.707,20.393,4.676,30.58,6.109c6.646,0.928,12.676,0.977,19.129,3.012"/>
	<g>
		<path fill="none" stroke="#231F20" stroke-width="0.5" stroke-miterlimit="10" d="M309.747,276.389
			c-7.386-2.16,0.062-9.045-0.082-12.613c-0.13-3.371-0.28-3.662,1.029-6.693c1.129-2.611,0.545-5.346,0.992-8.094
			c0.898-5.543,1.978-11.059,2.647-16.658c0.639-5.273,0.12-11.977,2.557-16.729c3.087-6.033,6.98-7.521,13.494-7.988"/>
		<path fill="none" stroke="#231F20" stroke-width="0.5" stroke-miterlimit="10" d="M329.349,202.795
			c3.289,2.484,0.545,7.801-0.572,10.611c-1.346,3.402-1.559,6.631,0.23,10.021"/>
		<path fill="none" stroke="#231F20" stroke-width="0.5" stroke-miterlimit="10" d="M330.384,222.745
			c8.078-3.678,25.219-24.143,32.168-9.404c1.418,3.002,2.662,6.217,3.961,9.285c-4.561-3.439-11.537-2.992-16.885-3.332
			c-6.475-0.41-11.754,3.178-18.559,3.105"/>
		<path fill="none" stroke="#231F20" stroke-width="0.5" stroke-miterlimit="10" d="M365.454,222.399
			c3.738,5.799,6.682,10.645,7.582,17.596c0.848,6.619,1.324,12.986,0.275,19.613c-0.969,6.186-1.217,11.93-3.359,17.973
			c-0.732,2.07-1.387,7.27-3.117,8.09"/>
		<path fill="none" stroke="#231F20" stroke-width="0.5" stroke-miterlimit="10" d="M321.786,188.015
			c-1.162-0.693-2.917-0.74-3.734-1.984c2.779-4.704,7.982-6.047,8.564-12.062c0.352-3.625-0.732-7.768,3.609-8.975
			c4.195-1.169,9.783,0.387,14.068,0.636c9.531,0.547,19.088,1.819,20.109,13.24c1.064,11.996-8.541,16.695-13.393,26.335"/>
		<path fill="none" stroke="#231F20" stroke-width="0.5" stroke-miterlimit="10" d="M319.718,187.321
			c-1.518,4.478-2.308,10.38,2.447,13.025c4.711,2.619,10.197,1.559,14.746-0.646"/>
		<path fill="none" stroke="#231F20" stroke-width="0.5" stroke-miterlimit="10" d="M329.007,168.755
			c-0.213-0.23-0.465-0.104-0.355-0.58c-0.904,3.686,3.332,3.031,5.242,4.238c0.961,0.608,1.5,2.531,2.279,3.275
			c0.9,0.863,1.764,1.165,2.516,2.31c1.656,2.536-0.066,6.406,0.65,8.762c0.461,1.541,1.152,1.569,0.588,3.828
			c-0.357,1.441-1.234,2.695-0.887,4.256c2.896-1.168,7.313-4.798,9.734-0.99c3.59,5.623-3.082,6.209-6.666,6.129
			c0.201-0.43,0.561-0.693,0.998-0.967"/>
		<path fill="none" stroke="#231F20" stroke-width="0.5" stroke-miterlimit="10" d="M327.632,182.165
			c1.051,1.721,3.301,1.876,4.471,3.437"/>
		<path fill="none" stroke="#231F20" stroke-width="0.5" stroke-miterlimit="10" d="M352.731,246.471
			c-2.799,9.688-6.209,19.246-7.221,29.229"/>
	</g>
</g>
</svg>
