<?xml version="1.0" encoding="utf-8"?>
<!-- Generator: Adobe Illustrator 16.0.0, SVG Export Plug-In . SVG Version: 6.00 Build 0)  -->
<!DOCTYPE svg PUBLIC "-//W3C//DTD SVG 1.1//EN" "http://www.w3.org/Graphics/SVG/1.1/DTD/svg11.dtd">
<svg version="1.1" id="Calque_1" xmlns="http://www.w3.org/2000/svg" xmlns:xlink="http://www.w3.org/1999/xlink" x="0px" y="0px"
	 width="442.593px" height="341.358px" viewBox="0 0 442.593 341.358" enable-background="new 0 0 442.593 341.358"
	 xml:space="preserve">
<g>
	<path fill="none" stroke="#231F20" stroke-width="0.5" stroke-miterlimit="10" d="M211.416,41.324
		c-1.366-6.23-3.441-12.098-9.82-14.648c-5.935-2.373-12.896-1.47-19.049-0.615c-6.255,0.868-13.204,1.967-18.031,6.4
		c-5.046,4.635-7.757,12.17-9.856,18.518c-2.618,7.912-1.814,13.79,2.878,20.624c0.135-0.29,0.233-0.428,0.347-0.782
		c0.47,0.434,0.96,0.974,1.207,1.733c0.164-0.161,0.585-0.377,0.753-0.535c0.074,0.562,0.573,1.137,0.662,1.458"/>
	<path fill="none" stroke="#231F20" stroke-width="0.5" stroke-miterlimit="10" d="M160.805,72.286
		c1.116-3.538,0.676-7.932,0.893-11.636c0.082-1.418,0.029-3.417,0.578-4.755c0.916-2.231,2.939-1.558,4.186-3.258"/>
	<path fill="none" stroke="#231F20" stroke-width="0.5" stroke-miterlimit="10" d="M196.53,40.729
		c-5.07,4.037-11.49,5.697-17.862,5.655"/>
	<path fill="none" stroke="#231F20" stroke-width="0.5" stroke-miterlimit="10" d="M186.409,44.599
		c-5.446-0.03-9.914,4.618-15.184,4.763"/>
	<path fill="none" stroke="#231F20" stroke-width="0.5" stroke-miterlimit="10" d="M174.798,46.98
		c-3.015,1.677-6.434,5.882-10.123,5.657"/>
	<path fill="none" stroke="#231F20" stroke-width="0.5" stroke-miterlimit="10" d="M206.951,44.897
		c-8.416,1-15.04-8.335-21.435-11.908"/>
	<path fill="none" stroke="#231F20" stroke-width="0.5" stroke-miterlimit="10" d="M206.355,43.705
		c-4.586-0.605-9.461-1.195-12.802-5.062"/>
	<path fill="none" stroke="#231F20" stroke-width="0.5" stroke-miterlimit="10" d="M207.545,41.324
		c-2.12-2.911-5.502-3.833-8.633-5.062"/>
	<path fill="none" stroke="#231F20" stroke-width="0.5" stroke-miterlimit="10" d="M210.821,43.408
		c-0.94,1.464-1.304,2.498-2.753,3.575c-1.323,0.981-2.584,1.112-2.904,2.974"/>
	<path fill="none" stroke="#231F20" stroke-width="0.5" stroke-miterlimit="10" d="M209.034,49.659
		c-0.296,0.464-0.501,0.974-0.596,1.489"/>
	<path fill="none" stroke="#231F20" stroke-width="0.5" stroke-miterlimit="10" d="M209.034,49.659
		c0.765,0.754,1.435,1.503,1.489,2.383"/>
	<path fill="none" stroke="#231F20" stroke-width="0.5" stroke-miterlimit="10" d="M212.011,52.637
		c-0.126,0.413-0.068,0.758,0.298,0.893"/>
	<path fill="none" stroke="#231F20" stroke-width="0.5" stroke-miterlimit="10" d="M212.31,42.216
		c0.243,0.142,0.339,0.432,0.85,0.34c0.414,1.992,2.585,2.971,2.126,5.318"/>
	<path fill="none" stroke="#231F20" stroke-width="0.5" stroke-miterlimit="10" d="M215.584,49.064
		c1.387,4.669,2.956,8.194,2.981,13.242c0.023,4.506-1.323,8.71-3.28,12.66"/>
	<path fill="none" stroke="#231F20" stroke-width="0.5" stroke-miterlimit="10" d="M212.011,55.615
		c2.353,3.268,3.233,6.2,2.975,10.577c-0.218,3.693-1.521,7.412-1.188,11.154"/>
	<path fill="none" stroke="#231F20" stroke-width="0.5" stroke-miterlimit="10" d="M154.255,66.927
		c-4.2-1.404-5.817,6.292-5.96,9.205c-0.209,4.301,1.07,9.256,4.807,11.884c2.113,1.483,5.295,1.827,5.62-1.439"/>
	<path fill="none" stroke="#231F20" stroke-width="0.5" stroke-miterlimit="10" d="M159.912,88.66
		c-0.931,8.077,5.353,14.55,12.504,16.97"/>
	<path fill="none" stroke="#231F20" stroke-width="0.5" stroke-miterlimit="10" d="M176.882,106.821
		c6.463,5.138,12.718,7.188,20.169,2.833c3.04-1.777,6.655-3.275,9.397-5.479c2.889-2.325,3.536-5.66,4.15-9.141
		c0.744-4.214,1.534-8.417,2.307-12.625"/>
	<path fill="none" stroke="#231F20" stroke-width="0.5" stroke-miterlimit="10" d="M216.477,74.966
		c1.911,3.345,0.918,8.408,0.144,11.976c-0.293,1.349-3.24,11.972-5.799,7.077"/>
	<path fill="none" stroke="#231F20" stroke-width="0.5" stroke-miterlimit="10" d="M149.492,74.073
		c1.028-1.309,1.652-2.966,2.679-4.17"/>
	<path fill="none" stroke="#231F20" stroke-width="0.5" stroke-miterlimit="10" d="M152.171,74.667
		c2.794-2.311,4.307,1.933,3.825,4.116c-1.346,0.136-2.018,1.417-1.443,2.433"/>
	<path fill="none" stroke="#231F20" stroke-width="0.5" stroke-miterlimit="10" d="M169.737,62.461
		c0.751-2.661,2.807-2.645,5.061-2.679"/>
	<path fill="none" stroke="#231F20" stroke-width="0.5" stroke-miterlimit="10" d="M176.584,59.484
		c0.469,0.434,1.33,0.806,2.084,0.894"/>
	<path fill="none" stroke="#231F20" stroke-width="0.5" stroke-miterlimit="10" d="M178.965,59.783
		c0.822,0.262,1.574,0.797,2.381,1.19"/>
	<path fill="none" stroke="#231F20" stroke-width="0.5" stroke-miterlimit="10" d="M182.538,60.081
		c0.274,0.439,0.957,0.889,1.25,1.45c0.228,0.051,0.407-0.035,0.536-0.26"/>
	<path fill="none" stroke="#231F20" stroke-width="0.5" stroke-miterlimit="10" d="M184.919,60.675
		c0.553,0.432,1.255,1.108,1.787,1.487"/>
	<path fill="none" stroke="#231F20" stroke-width="0.5" stroke-miterlimit="10" d="M200.698,62.163
		c1.3-1.094,1.767-0.301,2.902,0.007c0.328,0.089,0.763,0.814,1.194,0.963c0.49,0.17,0.818-0.429,1.114-0.358
		c1.854,0.448,4.114,0.74,5.209,2.366"/>
	<path fill="none" stroke="#231F20" stroke-width="0.5" stroke-miterlimit="10" d="M173.011,69.011
		c1.493,0.483,3.745-0.818,5.542-0.896c2.374-0.103,4.215,1.257,5.77,2.981"/>
	<path fill="none" stroke="#231F20" stroke-width="0.5" stroke-miterlimit="10" d="M175.393,68.713
		c2.469,0.418,5.146,3.452,7.443,0.595"/>
	<path fill="none" stroke="#231F20" stroke-width="0.5" stroke-miterlimit="10" d="M179.859,68.416
		c0.556,0.6,0.25,1.117-0.596,1.487"/>
	<path fill="none" stroke="#231F20" stroke-width="0.5" stroke-miterlimit="10" d="M198.913,71.691
		c4.119-0.659,7.244-1.094,11.015,0.892"/>
	<path fill="none" stroke="#231F20" stroke-width="0.5" stroke-miterlimit="10" d="M199.21,71.691c2.378,1.122,7.568,2.82,9.229,0"
		/>
	<path fill="none" stroke="#231F20" stroke-width="0.5" stroke-miterlimit="10" d="M205.164,71.096
		c-0.023,0.735-0.458,1.162-1.19,1.19"/>
	<path fill="none" stroke="#231F20" stroke-width="0.5" stroke-miterlimit="10" d="M184.622,81.216
		c-0.667,3.354,4.484-0.602,5.023,2.033c-0.403,0.108-0.734,0.014-1.13,0.007c-0.042-0.233,0.05-0.417,0.275-0.549"/>
	<path fill="none" stroke="#231F20" stroke-width="0.5" stroke-miterlimit="10" d="M194.744,83.004
		c0.777-0.003,1.292-0.057,1.763,0.535c-0.62-0.032-1.594,0.485-1.167,0.358"/>
	<path fill="none" stroke="#231F20" stroke-width="0.5" stroke-miterlimit="10" d="M197.424,84.492
		c2.261,0.131,3.137-3.92,0.893-4.167"/>
	<path fill="none" stroke="#231F20" stroke-width="0.5" stroke-miterlimit="10" d="M178.668,83.6
		c-0.851,3.215-4.858,5.534-6.252,8.93"/>
	<path fill="none" stroke="#231F20" stroke-width="0.5" stroke-miterlimit="10" d="M176.882,92.53
		c2.104,0.246,4.235-0.584,6.392-0.599c2.293-0.016,3.808,0.492,5.892,1.402c2.259,0.984,2.971,0.715,5.201,0.297
		c2.601-0.485,3.764,0.255,6.034,1.58"/>
	<path fill="none" stroke="#231F20" stroke-width="0.5" stroke-miterlimit="10" d="M176.531,92.746
		c3.326,3.538,9.126,4.625,13.74,5.398c3.056,0.512,9.669-0.094,10.726-3.828"/>
	<path fill="none" stroke="#231F20" stroke-width="0.5" stroke-miterlimit="10" d="M161.996,97.889
		c-0.001,4.87-0.291,9.541-0.295,14.401c-0.002,2.48-0.026,4.83-0.612,7.179c-0.573,2.305-2.808,4.481-3.261,6.703"/>
	<path fill="none" stroke="#231F20" stroke-width="0.5" stroke-miterlimit="10" d="M202.484,107.713
		c-1.135,2.429-1.302,7.9-1.486,11.182c-0.285,5.122,0.666,8.877,2.678,13.528"/>
	<path fill="none" stroke="#231F20" stroke-width="0.5" stroke-miterlimit="10" d="M200.997,123.492
		c5.055,3.272,8.447,7.797,9.775,13.562c0.731,3.176,1.327,6.572,1.521,9.823c0.085,1.422-0.32,3.084,0.391,4.316
		c0.514,0.891,2.408,1.962,3.198,2.666"/>
	<path fill="none" stroke="#231F20" stroke-width="0.5" stroke-miterlimit="10" d="M212.31,142.249
		c-0.549,5.113,4.804,9.716,6.802,13.657c-1.903-2.05-6.575,0.662-7.696-3.534"/>
	<path fill="none" stroke="#231F20" stroke-width="0.5" stroke-miterlimit="10" d="M203.378,131.53
		c-0.846,1.446,1.568,2.992,2.354,4.212c1.118,1.739,1.688,3.567,2.101,5.586c0.66,3.229,1.629,7.313,0.72,10.588
		c-1.055,3.796-5.59,3.934-6.967,7.507c-0.942,2.442,0.793,7.31,1.577,9.681c2.303,6.965,8.319,13.64,8.871,20.936
		c0.298,3.943-0.658,8.18-0.04,12.08c0.301,1.899,1.102,3.279,1.191,5.244c0.081,1.742,0.13,3.576,0.052,5.316
		c-0.242,5.315-0.594,10.555-0.62,15.897c-0.021,4.408,0.635,8.574,1.134,12.836c0.511,4.357,3.188,8.621,2.719,13.061
		c-0.555,5.261-2.154,10.556-2.526,15.969c-0.117,1.701-0.038,3.611-0.443,5.166c-0.542,2.082-1.185,3.454-1.186,5.791
		c-0.001,4.329,1.097,8.477,1.555,12.692c0.231,2.128,0.151,14.547-0.072,14.578"/>
	<path fill="none" stroke="#231F20" stroke-width="0.5" stroke-miterlimit="10" d="M160.803,119.605
		c-4.978-1.177-9.151,7.47-10.056,10.917c-0.751,2.865-0.559,5.462-0.239,8.358c0.286,2.602-1.512,3.336-1.382,7.467"/>
	<path fill="none" stroke="#231F20" stroke-width="0.5" stroke-miterlimit="10" d="M157.828,128.258
		c-3.538,7.018-1.248,12.022-1.281,19.433"/>
	<path fill="none" stroke="#231F20" stroke-width="0.5" stroke-miterlimit="10" d="M186.409,162.792
		c4.902-1.892-2.715-6.064-4.017-6.716c-3.071-1.54-5.694-2.953-9.115-3.796c-6.447-1.586-12.536-3.796-19.133-4.989
		c-3.611-0.653-7.017-1.643-10.713-1.018c-3.395,0.575-6.491,2.209-10.044,2.227c-3.818,0.02-7.359-0.874-11.188-0.196
		c-6.845,1.215-14.622,1.104-20.54,5.148c-6.346,4.336-8.095,11.869-12.435,17.797c-4.503,6.15-10.902,10.503-15.933,16.179
		c-5.552,6.261-9.283,14.025-14.005,20.913"/>
	<path fill="none" stroke="#231F20" stroke-width="0.5" stroke-miterlimit="10" d="M72.979,245.555
		c1.867-4.286,7.397-7.137,10.04-11.329c2.92-4.63,4.149-10.138,6.176-15.178c4.051-10.076,7.624-21.331,13.708-30.389
		c3.063-4.56,8.134-8.938,10.267-13.959"/>
	<path fill="none" stroke="#231F20" stroke-width="0.5" stroke-miterlimit="10" d="M109.896,170.831
		c0.819,1.617,1.916,2.794,3.573,3.573"/>
	<path fill="none" stroke="#231F20" stroke-width="0.5" stroke-miterlimit="10" d="M107.812,172.616
		c0.24,1.505,1.619,2.932,3.275,2.681"/>
	<path fill="none" stroke="#231F20" stroke-width="0.5" stroke-miterlimit="10" d="M113.766,175.296
		c9.977,0.995,20.601-1.604,29.333,5.107c2.357,1.813,5.574,9.994,9.08,8.996c4.716-1.343,1.463-10.085-0.299-12.431
		c-2.682-3.567-6.52-6.553-10.129-9.116"/>
	<path fill="none" stroke="#231F20" stroke-width="0.5" stroke-miterlimit="10" d="M143.835,168.746
		c0.989,2.847,7.566,4.419,9.556,7.146c-0.521,0.549-0.605,1.195-0.922,1.786"/>
	<path fill="none" stroke="#231F20" stroke-width="0.5" stroke-miterlimit="10" d="M153.958,181.25
		c3.514,0.104,4.845-1.174,6.306-4.242c1.076-2.261,2.516-5.468,1.089-7.838c-2.798-4.649-9.083-5.98-13.052-9.058"/>
	<path fill="none" stroke="#231F20" stroke-width="0.5" stroke-miterlimit="10" d="M159.912,177.677
		c5.089,0.54,7.753-8.153,7.25-12.392c-0.489-4.121-6.924-6.997-10.085-8.805c-2.475-1.414-4.633-3.343-6.691-5.299"/>
	<path fill="none" stroke="#231F20" stroke-width="0.5" stroke-miterlimit="10" d="M160.803,158.543
		c2.224-0.852,4.746,0.483,7.072-0.471c2.613,2.448,6.164,1.747,9.135,2.968c1.983,0.811,7.504,3.909,9.399,1.751"/>
	<path fill="none" stroke="#231F20" stroke-width="0.5" stroke-miterlimit="10" d="M58.392,208.044
		c-1.735,4.049-3.069,8.265-4.85,12.294c-1.89,4.276-5.116,8.206-6.102,12.831c-1.961,9.199,3.518,19.182,13.426,18.64
		c5.481-0.301,9.252-2.521,12.113-7.146"/>
	<path fill="none" stroke="#231F20" stroke-width="0.5" stroke-miterlimit="10" d="M58.093,208.937
		c0.942-2.19,2.047-4.29,2.777-6.555c0.384-1.191,0.587-2.431,1.182-3.572c0.644-1.234,1.428-1.408,2.235-2.458
		c1.83-2.376,1.063-5.214,3.126-7.368c1.411-1.472,2.352-2.24,3.481-4.177c2.288-3.92,5.735-7.822,8.564-11.697
		c1.594-2.186,2.748-4.499,4.54-6.531c0.701-0.797,1.494-1.646,2.171-2.479c0.984-1.214,1.861-1.887,2.896-2.981
		c2.21-2.333,1.343-5.145,2.769-7.485c0.799-1.312,2.428-0.852,3.207-1.841c0.687-0.871,0.245-3.042,0.311-4.138
		c2.117,0.264,2.381-2.716,3.639-3.741c1.434-1.169,3.959-1.988,5.685-2.574c2.04-0.694,4.55-0.995,6.661-1.473
		c2.255-0.514,3.558-1.553,5.421-2.362c2.056-0.896,3.749,0.053,5.626-0.312c1.775-0.342,2.714-2.143,4.815-2.396
		c0.94-0.111,1.756,0.455,2.758,0.317c1.552-0.216,1.721-1.087,3.006-1.657c1.718-0.761,4.077-0.729,5.974-0.733
		c3.983-0.007,7.306-1.668,11.15-2.681"/>
	<path fill="none" stroke="#231F20" stroke-width="0.5" stroke-miterlimit="10" d="M165.875,158.434
		c3.375,3.192,3.268,8.857,3.263,13.133c-0.005,4.427,0.669,8.69,0.871,13.07c0.445,9.648-1.4,19.027-0.858,28.66
		c0.576,10.269,0.369,20.576-0.283,30.722c-0.353,5.467-0.34,10.604,0.005,16.103c0.343,5.476-0.041,10.961,0.283,16.43
		c0.696,11.729,0.4,24.228-0.359,35.921c-0.257-0.219-0.44-0.495-0.55-0.824"/>
	<path fill="none" stroke="#231F20" stroke-width="0.5" stroke-miterlimit="10" d="M162.889,177.378
		c-0.455,4.489,0.892,9.422,0.902,14.027c0.009,4.339,0.167,8.74-0.298,13.028c-1.067,9.845-1.594,19.559-2.693,29.337
		c-1.125,10.013,0.844,19.992-0.586,29.883c-1.167,8.069-0.505,17.301,0.005,25.399c0.275,4.371-0.009,8.857-0.011,13.239
		c-0.002,2.132-0.001,4.267,0.009,6.398c0.01,1.877-0.703,3.565-0.601,5.34"/>
	<path fill="none" stroke="#231F20" stroke-width="0.5" stroke-miterlimit="10" d="M166.461,204.471
		c-0.688,0.102-1.34,3.54,0.274,3.826c2.146,0.381,2.204-4.528,0.068-4.681c-0.077,0.31-0.018,0.54-0.045,0.854"/>
	<path fill="none" stroke="#231F20" stroke-width="0.5" stroke-miterlimit="10" d="M166.759,237.22
		c-1.031-0.152-1.562,3.931,0.137,3.905c1.571-0.021,1.64-3.565-0.435-3.311"/>
	<path fill="none" stroke="#231F20" stroke-width="0.5" stroke-miterlimit="10" d="M166.461,275.328
		c-0.144-0.36,0.201-0.503-0.291-0.637c-1.235,0.98-1.459,3.644,0.305,4.265c0.837-1.028,0.795-2.749,0.202-3.925
		c-0.315,0.285-0.141,0.478-0.216,0.892"/>
	<path fill="none" stroke="#231F20" stroke-width="0.5" stroke-miterlimit="10" d="M166.759,308.969
		c-0.13-0.226-0.308-0.311-0.536-0.261c-3.417,3.598,3.195,3.162-0.059,0.558"/>
	<path fill="none" stroke="#231F20" stroke-width="0.5" stroke-miterlimit="10" d="M117.042,188.394
		c1.417,0.935,6.2,0.329,8.044,0.322c2.522-0.011,5.003-0.466,7.601-0.32c2.419,0.136,4.827,0.44,7.287,0.599
		c2.011,0.127,5.918-0.852,7.435,0.593"/>
	<path fill="none" stroke="#231F20" stroke-width="0.5" stroke-miterlimit="10" d="M153.659,190.48
		c-0.48,9.729-0.407,19.422-0.404,29.159c0.004,7.38,0.864,18.622-6.609,22.965c-6.826,3.965-18.155,3.012-25.351,0.648
		c-9.187-3.016-8.835-10.825-7.033-18.968c2.585-11.681,4.654-22.364,3.969-34.401"/>
	<path fill="none" stroke="#231F20" stroke-width="0.5" stroke-miterlimit="10" d="M114.362,179.167
		c0.619,1.533,1.284,3.06,1.19,4.763"/>
	<path fill="none" stroke="#231F20" stroke-width="0.5" stroke-miterlimit="10" d="M109.598,186.014
		c2.374,5.666,3.545,10.475,3.573,16.671"/>
	<path fill="none" stroke="#231F20" stroke-width="0.5" stroke-miterlimit="10" d="M107.514,205.664
		c0.521,2.298,0.921,4.48,0.894,6.846"/>
	<path fill="none" stroke="#231F20" stroke-width="0.5" stroke-miterlimit="10" d="M71.49,246.151
		c2.004,1.969,6.456-1.088,8.295-2.358c5.632-3.888,5.622-10.157,8.973-15.504"/>
	<path fill="none" stroke="#231F20" stroke-width="0.5" stroke-miterlimit="10" d="M85.781,235.134
		c5.884-0.033,9.531-9.21,10.77-13.662c2.663,2.041,2.701-2.467,4.04-3.635c0.689-0.599,2.044-0.324,2.878-0.992
		c0.735-0.589,0.869-2.183,1.622-2.555c1.831-0.901,3.349,0.895,5.414-0.455c2.419-1.583,3.735-4.957,4.453-7.577"/>
	<path fill="none" stroke="#231F20" stroke-width="0.5" stroke-miterlimit="10" d="M108.109,213.702
		c-0.041,4.213-0.409,8.211,0.203,12.382c0.232,1.587,0.219,3.067,1.054,4.494c0.755,1.29,1.879,1.645,1.98,3.219
		c0.159,2.463-1.29,5.767-1.741,8.183c-0.63,3.377-0.847,6.994-1.205,10.46c-1.34,12.973-1.776,26.297-1.787,39.39
		c-0.004,3.718,0.607,7.248,0.598,11.002c-0.008,3.102-0.651,6.729-0.293,9.711"/>
	<path fill="none" stroke="#231F20" stroke-width="0.5" stroke-miterlimit="10" d="M210.821,134.805
		c1.481,1.222,4.509,1.788,6.303,3.219c3.876,3.091,2.858,9.348,6.2,12.264"/>
	<path fill="none" stroke="#231F20" stroke-width="0.5" stroke-miterlimit="10" d="M220.049,141.058
		c2.19,2.412,7.604,3.956,10.691,4.752c1.946,0.503,4.059,0.938,5.702,2.188c1.883,1.435,2.646,3.768,4.149,5.563"/>
	<path fill="none" stroke="#231F20" stroke-width="0.5" stroke-miterlimit="10" d="M237.317,149.096
		c4.868,1.284,9.072,2.578,12.394,6.574c3.082,3.705,6.24,7.629,7.182,12.455c0.996,5.09,0.869,10.312,1.889,15.434
		c1.03,5.171,1.243,10.352,1.194,15.615c-0.054,5.988-1.338,11.425-2.711,17.207"/>
	<path fill="none" stroke="#231F20" stroke-width="0.5" stroke-miterlimit="10" d="M254.883,209.534
		c1.181,2.67,2.485,6.639,4.09,9.518c1.3,2.33,4.32,6.827,3.599,9.483c-0.165,0.035-0.329,0.068-0.493,0.103
		c-0.529,1.771,1.888,2.725,1.725,4.563c-0.157,1.782-1.328,1.834-0.026,3.723c-1.019,0.522-2.166,1.397-2.046,2.67
		c0.148,1.58,1.875,1.01,1.785,2.688"/>
	<path fill="none" stroke="#231F20" stroke-width="0.5" stroke-miterlimit="10" d="M263.218,241.685
		c-11.858,2.279-20.387,16.771-26.974,25.732c-1.621,2.21-5.499,5.91-2.796,8.803"/>
	<path fill="none" stroke="#231F20" stroke-width="0.5" stroke-miterlimit="10" d="M262.623,241.685
		c8.228,0.581,17.019-9.394,22.125-14.783c5.79-6.111,11.724-11.847,17.993-17.466c1.709-1.533,3.451-3.289,5.195-4.853
		c1.823-1.633,3.953-1.953,6.191-2.79"/>
	<path fill="none" stroke="#231F20" stroke-width="0.5" stroke-miterlimit="10" d="M310.256,202.388
		c3.171-3.092,6.102-5.276,10.456-6.296c4.277-1.002,8.697-1.484,12.917-2.732c3.966-1.172,7.567-3.788,11.756-4.166
		c4.386-0.393,6.591,2.6,2.978,5.81c-3.247,2.882-8.036,3.942-11.609,6.492"/>
	<path fill="none" stroke="#231F20" stroke-width="0.5" stroke-miterlimit="10" d="M333.181,200.006
		c2.656,1.437,4.872,2.831,8.048,2.417c1.575-0.205,2.848-0.551,4.461-0.627c1.807-0.083,2.711,0.568,4.337,0.875
		c4.105,0.771,8.279-0.546,12.374-0.788c4.063-0.242,7.852,0.791,11.864,0.802"/>
	<path fill="none" stroke="#231F20" stroke-width="0.5" stroke-miterlimit="10" d="M232.85,272.647
		c4.91,4.101,10.816,12.89,18.07,11.757c6.884-1.073,12.9-9.745,18.259-13.759c6.084-4.556,12.008-9.017,16.659-15.116
		c2.997-3.927,5.833-7.969,8.721-11.974c4.841-6.712,10.19-14.639,16.933-19.589c6.513-4.784,15.656-5.826,23.482-5.8
		c4.512,0.014,7.418,0.122,11.574-1.886c3.542-1.712,7.221-2.962,11.083-3.763c0.975-0.201,12.306-2.253,8.595-4.772"/>
	<path fill="none" stroke="#231F20" stroke-width="0.5" stroke-miterlimit="10" d="M366.523,209.534
		c3.318-0.441,6.179-0.422,9.511-0.312c1.156,0.039,3.455,0.527,4.124-0.686c0.745-1.351-0.794-3.145-2.023-3.47"/>
	<path fill="none" stroke="#231F20" stroke-width="0.5" stroke-miterlimit="10" d="M379.921,207.151
		c2.97,1.135,5.586-1.441,2.539-3.593c-1.631-1.15-6.838-1.043-8.791-0.873"/>
	<path fill="none" stroke="#231F20" stroke-width="0.5" stroke-miterlimit="10" d="M236.719,277.709
		c2.209,0.183,3.427,14.866,4.465,17.719c2.137,5.867,5.42,12.455,5.085,18.81c-0.071-0.189-0.178-0.357-0.321-0.505"/>
	<path fill="none" stroke="#231F20" stroke-width="0.5" stroke-miterlimit="10" d="M217.369,205.069c0,0.389-0.001,2.984,0,4.104
		c0.083-1.459,0.355-2.851,0.297-4.334c0,0.276,0,0.549,0,0.825"/>
	<path fill="none" stroke="#231F20" stroke-width="0.5" stroke-miterlimit="10" d="M218.56,239.901
		c-0.105,1.08-0.55,2.089-0.593,3.184c0.167-0.96,0.503-2.148,0.064-2.876c-0.092,0.577-0.092,1.18-0.065,1.774"/>
	<path fill="none" stroke="#231F20" stroke-width="0.5" stroke-miterlimit="10" d="M217.667,274.733c0-0.331,0-1.42,0-1.261
		c0,1.592,0.008,3.184-0.007,4.775c0.132-1.241,0.465-2.457,0.609-3.698c-0.01,0.357-0.012,0.717-0.007,1.076"/>
	<path fill="none" stroke="#231F20" stroke-width="0.5" stroke-miterlimit="10" d="M218.261,306.885
		c-0.51,1.096-0.649,2.526-0.602,3.792c0.217-0.825,0.361-1.71,0.305-2.574c0,1.444-0.308,3.707,0.297,4.738"/>
	<path fill="none" stroke="#231F20" stroke-width="0.5" stroke-miterlimit="10" d="M247.735,178.869
		c-0.082,8.776,1.043,17.648-0.894,26.21c-1.879,8.299-3.581,16.671-5.667,25.01c-2.366,9.462-4.425,18.807-6.271,28.268
		c-1.608,8.254-4.116,16.326-5.631,24.663c-0.909,5.003-1.586,9.979-2.707,14.939c-0.521,2.312-0.94,4.6-1.202,6.954
		c-0.236,2.125,0.078,6.15-0.849,7.929"/>
	<path fill="none" stroke="#231F20" stroke-width="0.5" stroke-miterlimit="10" d="M141.452,135.701
		c-5.261,3.647-14.542,2.503-18.161,10.12"/>
	<path fill="none" stroke="#231F20" stroke-width="0.5" stroke-miterlimit="10" d="M203.079,133.318
		c1.741,5.769,0.959,11.754-2.651,16.703c-1.63,2.232-3.528,4.421-5.403,6.444c-1.699,1.832-4.991,2.81-6.236,4.839"/>
	<path fill="none" stroke="#231F20" stroke-width="0.5" stroke-miterlimit="10" d="M184.024,164.578
		c-3.231,3.693-5.599,6.059-5.656,11.163c-0.056,5.005,0.843,9.537,2.353,14.298c0.813,2.561,1.981,5.118,2.157,7.838
		c3.492,0.425,3.678-1.055,3.556-4.136c-0.092-2.304-0.465-4.632-0.989-6.876c-0.953-4.098-2.661-9.554-0.901-13.617
		c3.507-8.093,12.5-13.681,18.188-20.097c1.442-1.629,3.007-3.628,3.865-5.645c0.742-1.744,1.549-6.212,0.648-7.936"/>
	<path fill="none" stroke="#231F20" stroke-width="0.5" stroke-miterlimit="10" d="M166.47,159.063
		c3.766,3.057,10.583,5.687,13.684,9.683"/>
	<path fill="none" stroke="#231F20" stroke-width="0.5" stroke-miterlimit="10" d="M169.139,165.769
		c0.928,1.601,3.384,2.47,4.774,3.574c1.356,1.08,2.822,2.752,4.455,3.274"/>
	<path fill="none" stroke="#231F20" stroke-width="0.5" stroke-miterlimit="10" d="M182.537,170.831
		c-0.166-0.227-0.382-0.085-0.348-0.545c-1.269-0.082-1.385,1.254-1.03,2.285c2.205,0.753,2.618-2.026,0.769-2.312
		c-0.344,0.401-0.271,0.671-0.284,1.166"/>
	<path fill="none" stroke="#231F20" stroke-width="0.5" stroke-miterlimit="10" d="M181.643,182.442
		c-1.219-0.089-1.924,1.845-0.937,2.599c1.362,1.041,1.332-1.516,1.003-2.119c-0.214-0.115,0.042,0.207-0.066,0.413"/>
	<path fill="none" stroke="#231F20" stroke-width="0.5" stroke-miterlimit="10" d="M196.529,264.907
		c1.94,3.12,4.432,6.119,6.859,8.931c2.61,3.023,4.785,8.28,8.234,10.314c-0.469-0.449-0.911-0.95-1.399-1.381"/>
	<path fill="none" stroke="#231F20" stroke-width="0.5" stroke-miterlimit="10" d="M210.521,258.059
		c2.322,1.508,3.718,4.38,5.657,6.253"/>
	<path fill="none" stroke="#231F20" stroke-width="0.5" stroke-miterlimit="10" d="M209.926,207.747
		c0.047,1.376,1.5,2.282,2.381,3.274"/>
	<path fill="none" stroke="#231F20" stroke-width="0.5" stroke-miterlimit="10" d="M171.819,303.015
		c3.079,3.289,12.73,4.676,17.565,5.358"/>
	<path fill="none" stroke="#231F20" stroke-width="0.5" stroke-miterlimit="10" d="M168.543,162.196
		c1.529,0.293,2.051,0.22,2.583,1.757c0.433,1.248,0.167,2.729-1.392,2.711"/>
	<path fill="none" stroke="#231F20" stroke-width="0.5" stroke-miterlimit="10" d="M203.573,92.239c0.846,0.848,0.797,3.269,0,4.044
		"/>
</g>
</svg>
