<?xml version="1.0" encoding="utf-8"?>
<!-- Generator: Adobe Illustrator 22.0.1, SVG Export Plug-In . SVG Version: 6.00 Build 0)  -->
<svg version="1.1" id="Calque_1" xmlns="http://www.w3.org/2000/svg" xmlns:xlink="http://www.w3.org/1999/xlink" x="0px" y="0px"
	 viewBox="0 0 1200 850" style="enable-background:new 0 0 1200 850;" xml:space="preserve">
<style type="text/css">
	.st0{enable-background:new    ;}
</style>
<g class="st0">
	<path d="M266.7,233.1c0-4.3,1.3-7.7,3.8-10.1c2.5-2.5,6.2-3.7,10.8-3.7c4.5,0,8.1,1.2,10.7,3.7c2.6,2.5,3.9,5.9,3.9,10.1
		c0,4.3-1.3,7.7-3.9,10.1c-2.6,2.5-6.2,3.7-10.7,3.7c-4.7,0-8.3-1.2-10.8-3.7C268,240.8,266.7,237.4,266.7,233.1z M269.5,264.4h23.7
		v97.7h-23.7V264.4z"/>
	<path d="M420,283.1c6.3-14,17.3-21.1,33.1-21.1c11.6,0,20.7,3.9,27.1,11.8c6.2,7.5,9.2,17.9,9.2,31.3v57h-23.9v-57
		c0-7.2-1.7-12.7-5.2-16.4c-3.5-3.7-8.4-5.5-14.6-5.5c-6.3,0-11.4,2.7-15.4,8.2c-4,5.5-6.2,13.8-6.4,24.9v45.7h-23.7v-57
		c0-7.2-1.7-12.7-5.2-16.4c-3.5-3.7-8.4-5.5-14.6-5.5c-6.3,0-11.7,2.8-16.2,8.4c-4.5,5.6-6.9,14-7.1,25.3v45.1h-23.7v-97.5H354
		l2.6,16.9c6.4-13,16.7-19.5,30.9-19.5c8.2,0,14.9,1.9,20.4,5.6C413.3,271.4,417.3,276.5,420,283.1z"/>
	<path d="M555.9,305.2c7.8,0,16.7,1.3,26.9,3.8v-9.6c0-6.8-1.4-11.9-4.1-15.1c-2.7-3.3-7.2-4.9-13.4-4.9c-6.2,0-11,1.2-14.3,3.7
		c-3.3,2.5-5,6-5,10.5h-25.9c0-11.1,3.9-19.1,11.7-24.1c7.8-4.9,18.8-7.4,32.8-7.4c20.1,0,33,7,38.9,21.1c2,4.8,3,10.5,3,17.1v62
		h-20.7l-1.8-13c-6.3,10.6-15.9,15.9-28.9,15.9c-12.6,0-22.3-3.1-29.3-9.2c-6.4-5.9-9.6-13.3-9.6-22.4c0-9,3.5-16,10.6-20.9
		C533.9,307.6,543.6,305.2,555.9,305.2z M582.7,324c-7.9-2.1-15.2-3.2-22.1-3.2c-12.8,0-19.3,4.3-19.3,12.8c0,3.6,1.5,6.7,4.4,9.3
		c2.9,2.6,7.7,3.9,14.1,3.9c6.5,0,11.8-2.2,16.1-6.5C580.2,336,582.5,330.6,582.7,324z"/>
	<path d="M649.4,322.2c-7.9-6.7-11.8-15-11.8-25.1c0-10.6,4.1-19.1,12.4-25.7c8-6.3,17.2-9.4,27.6-9.4c10.4,0,19,1.9,26,5.8
		c0.8-7.6,4.1-13.8,9.8-18.5c5.6-4.7,12.2-7,19.9-7L732,265c-11.5,0-17.5,3.8-17.9,11.4c4.9,6.2,7.4,12.4,7.4,18.9
		s-1.1,11.8-3.4,16.2c-2.3,4.3-5.4,8-9.2,10.9c-8,6.4-17.8,9.6-29.3,9.6c-6.6,0-12.5-1-17.9-3c-5.4,1.6-8,4.8-8,9.6
		c0,6,5.1,9,15.2,9h32.7c22.2,0,33.3,7.8,33.3,23.3c0,5.2-1.3,10.3-3.9,15.3c-2.6,5-6.4,9.5-11.3,13.3c-11,8.6-24.7,12.8-41.3,12.8
		c-16.1,0-29.1-3.3-39.1-9.8c-9.4-6.3-14-14-14-23.1c0-6,1.8-10.8,5.5-14.3c3.7-3.5,8.5-5.8,14.5-6.7c-7.9-4.8-11.8-10.8-11.8-17.9
		c0-4.7,1.5-8.6,4.4-11.7C640.9,325.8,644.7,323.6,649.4,322.2z M667.4,364.4c-12.6,0.5-18.9,5.3-18.9,14.2c0,4.5,2.6,8.2,7.9,10.9
		c5.3,2.7,11.5,4.1,18.8,4.1c7.2,0,12.9-0.6,17-1.8c4.1-1.2,7.5-2.8,10.3-4.8c6-4,9-8.8,9-14.4c0-2.4-0.8-4.4-2.5-5.9
		c-1.7-1.5-4.1-2.3-7.3-2.3H667.4z M698.1,296.8c0-5.4-1.5-9.8-4.5-13.2c-3-3.4-7.6-5.1-13.7-5.1c-6.2,0-10.8,1.7-14,5.1
		c-3.2,3.4-4.8,7.8-4.8,13.2c0,5.4,1.6,9.9,4.8,13.3c3.2,3.5,7.9,5.2,14,5.2c6.2,0,10.7-1.7,13.7-5.2
		C696.6,306.7,698.1,302.3,698.1,296.8z"/>
	<path d="M833.2,291.1c1.7,5.6,2.5,10.8,2.5,15.5c0,4.7-0.3,8.9-0.8,12.6h-63c0.3,7.9,2.2,14.3,5.8,19.3c3.6,5,9.1,7.4,16.5,7.4
		c9.8,0,15.6-4.3,17.5-12.8h23.9c-1.6,9.8-6.1,17.5-13.4,23.1c-7.6,5.9-16.9,8.8-27.9,8.8c-12.8,0-23.6-4.7-32.3-14
		c-9-9.8-13.4-22.3-13.4-37.5c0-15.7,4.5-28.2,13.4-37.7c8.6-9.1,19.3-13.6,32.3-13.6c13.5,0,24,4.7,31.5,14.2
		C829.1,280.6,831.6,285.5,833.2,291.1z M794.4,280.9c-6.7,0-11.9,2.2-15.7,6.5c-3.7,4.3-6,9.9-6.6,16.8h41.5
		c0-10.6-3.3-17.7-10-21.3C801.1,281.6,798,280.9,794.4,280.9z"/>
	<path d="M877.3,332.5c0.3,9.2,7,13.8,20.3,13.8c5.1,0,9.3-1.1,12.5-3.3c3.3-2.2,4.9-4.8,4.9-7.7c0-2.9-1-5.2-3-6.8
		c-2-1.6-5.2-3.1-9.4-4.4l-21.3-7.6c-15.8-5.5-23.7-14.4-23.7-26.9c0-8.3,3.7-14.9,11.1-20c7.4-5,17.4-7.5,29.9-7.5
		c12.5,0,22.1,2.7,28.9,8.2c6.8,5.5,10.3,12.4,10.5,20.7h-22.3c-0.3-3.2-1.8-5.8-4.6-7.6c-2.8-1.9-6.8-2.8-12-2.8s-9.3,1-12.1,3.1
		c-2.9,2.1-4.3,4.4-4.3,7.1c0,4.7,3.9,8.2,11.8,10.4l23.1,8.6c7.6,2.5,13.5,5.8,17.6,9.7c4.1,3.9,6.1,9.1,6.1,15.3
		c0,8-3.8,15-11.4,20.9c-7.9,6.2-18.3,9.2-31.3,9.2c-13,0-23.4-2.8-31.3-8.5c-7.9-5.7-11.9-13.7-12-24H877.3z"/>
</g>
<g class="st0">
	<path d="M95.1,563c-7.9-6.7-11.8-15-11.8-25.1c0-10.6,4.1-19.1,12.4-25.7c8-6.3,17.2-9.4,27.6-9.4c10.4,0,19,1.9,26,5.8
		c0.8-7.6,4.1-13.8,9.8-18.5c5.6-4.7,12.2-7,19.9-7l-1.2,22.7c-11.5,0-17.5,3.8-17.9,11.4c4.9,6.2,7.4,12.4,7.4,18.9
		s-1.1,11.8-3.4,16.2c-2.3,4.3-5.4,8-9.2,10.9c-8,6.4-17.8,9.6-29.3,9.6c-6.6,0-12.5-1-17.9-3c-5.4,1.6-8,4.8-8,9.6
		c0,6,5.1,9,15.2,9h32.7c22.2,0,33.3,7.8,33.3,23.3c0,5.2-1.3,10.3-3.9,15.3c-2.6,5-6.4,9.5-11.3,13.3c-11,8.6-24.7,12.8-41.3,12.8
		c-16.1,0-29.1-3.3-39.1-9.8c-9.4-6.3-14-14-14-23.1c0-6,1.8-10.8,5.5-14.3c3.7-3.5,8.5-5.8,14.5-6.7c-7.9-4.8-11.8-10.8-11.8-17.9
		c0-4.7,1.5-8.6,4.4-11.7C86.6,566.6,90.4,564.4,95.1,563z M113.1,605.2c-12.6,0.5-18.9,5.3-18.9,14.2c0,4.5,2.6,8.2,7.9,10.9
		c5.3,2.7,11.5,4.1,18.8,4.1s12.9-0.6,17-1.8c4.1-1.2,7.5-2.8,10.3-4.8c6-4,9-8.8,9-14.4c0-2.4-0.8-4.4-2.5-5.9
		c-1.7-1.5-4.1-2.3-7.3-2.3H113.1z M143.8,537.6c0-5.4-1.5-9.8-4.5-13.2c-3-3.4-7.6-5.1-13.7-5.1c-6.2,0-10.8,1.7-14,5.1
		c-3.2,3.4-4.8,7.8-4.8,13.2c0,5.4,1.6,9.9,4.8,13.3c3.2,3.5,7.9,5.2,14,5.2c6.2,0,10.7-1.7,13.7-5.2
		C142.3,547.5,143.8,543.1,143.8,537.6z"/>
	<path d="M281.3,573.9c-1.6,9.8-6.1,17.5-13.4,23.1c-7.6,5.9-16.9,8.8-27.9,8.8c-12.8,0-23.6-4.7-32.3-14
		c-9-9.8-13.4-22.3-13.4-37.5c0-15.7,4.5-28.2,13.4-37.7c8.6-9.1,19.3-13.6,32.3-13.6c13.5,0,24,4.7,31.5,14.2
		c3.3,4.3,5.9,9.2,7.5,14.8c1.7,5.6,2.5,10.8,2.5,15.5c0,4.7-0.3,8.9-0.8,12.6h-63c0.3,7.9,2.2,14.3,5.8,19.3
		c3.6,5,9.1,7.4,16.5,7.4c9.8,0,15.6-4.3,17.5-12.8H281.3z M260.6,447.6L207,474.1l6,14.8l56-20.9L260.6,447.6z M254.8,528.2
		c-3.1-4.3-8-6.5-14.6-6.5c-6.7,0-11.9,2.2-15.7,6.5c-3.7,4.3-6,9.9-6.6,16.8h41.5C259.4,538.1,257.9,532.6,254.8,528.2z"/>
	<path d="M333,522.3c6.4-13,16.7-19.5,30.9-19.5c12,0,21.1,3.9,27.2,11.8c6.1,7.9,9.1,18.3,9.1,31.3v57h-23.7v-57
		c0-7.2-1.7-12.7-5.2-16.4c-3.5-3.7-8.4-5.5-14.6-5.5c-6.3,0-11.7,2.8-16.2,8.4c-4.5,5.6-6.9,14-7.1,25.3v45.1h-23.7v-97.5h20.7
		L333,522.3z"/>
	<path d="M512.6,573.9c-1.6,9.8-6.1,17.5-13.4,23.1c-7.6,5.9-16.9,8.8-27.9,8.8c-12.8,0-23.6-4.7-32.3-14
		c-9-9.8-13.4-22.3-13.4-37.5c0-15.7,4.5-28.2,13.4-37.7c8.6-9.1,19.3-13.6,32.3-13.6c13.5,0,24,4.7,31.5,14.2
		c3.3,4.3,5.9,9.2,7.5,14.8c1.7,5.6,2.5,10.8,2.5,15.5c0,4.7-0.3,8.9-0.8,12.6h-63c0.3,7.9,2.2,14.3,5.8,19.3
		c3.6,5,9.1,7.4,16.5,7.4c9.8,0,15.6-4.3,17.5-12.8H512.6z M491.9,447.6l-53.6,26.5l6,14.8l56-20.9L491.9,447.6z M486.1,528.2
		c-3.1-4.3-8-6.5-14.6-6.5c-6.7,0-11.9,2.2-15.7,6.5c-3.7,4.3-6,9.9-6.6,16.8h41.5C490.7,538.1,489.2,532.6,486.1,528.2z"/>
	<path d="M564.8,524.7c5.9-14,14.7-21.1,26.5-21.1c2.3,0,5.1,0.5,8.6,1.4l-0.4,23.7c-3.7-0.8-7.4-1.2-11-1.2
		c-15.8,0-23.7,10.9-23.7,32.7v42.7h-23.7v-97.7h23.7V524.7z"/>
	<path d="M623.8,473.9c0-4.3,1.3-7.7,3.8-10.1c2.5-2.5,6.2-3.7,10.8-3.7c4.5,0,8.1,1.2,10.7,3.7c2.6,2.5,3.9,5.9,3.9,10.1
		c0,4.3-1.3,7.7-3.9,10.1c-2.6,2.5-6.2,3.7-10.7,3.7c-4.7,0-8.3-1.2-10.8-3.7C625,481.6,623.8,478.2,623.8,473.9z M626.6,505.2h23.7
		v97.7h-23.7V505.2z"/>
	<path d="M751.6,590.3c-4.8,10.3-13.1,15.4-24.9,15.4c-12.6,0-23.1-4.5-31.7-13.6c-9.2-9.6-13.8-22.3-13.8-37.9
		c0-15.4,4.5-28,13.4-37.7c8.4-9.1,18.7-13.6,30.9-13.6c6,0,11.6,1.4,16.8,4.3c5.1,2.9,9.3,7.3,12.5,13.3l5.2-15h15.5V618
		c0,5.8,0.7,9.6,2.1,11.4c1.4,1.9,3,3.2,4.7,4.1c1.7,0.9,3.9,1.7,6.4,2.5l-6.8,17.3c-11-2.7-18.8-7-23.4-12.8
		c-4.6-5.9-6.9-14-6.9-24.3V590.3z M745.1,530.1c-4.3-4-9.7-6-16.4-6c-6.6,0-12.2,2.7-16.9,8c-4.6,5.4-6.9,12.7-6.9,22.1
		c0,9.5,2.7,17.1,8,22.7c4.7,5,10.4,7.4,17.1,7.4c5.5,0,10.3-1.7,14.4-5c4.4-3.7,6.8-8.6,7-14.6v-17.5
		C751.6,539.8,749.4,534.1,745.1,530.1z"/>
	<path d="M877.6,585.3c-6.2,13-16.1,19.5-29.7,19.5c-17.3,0-28.6-6.8-34.1-20.3c-2-4.7-3-10.4-3-17.1v-62.2h23.7V565
		c0,6.4,1.5,11.2,4.6,14.3c3.1,3.1,6.9,4.7,11.3,4.7c4.5,0,8.3-0.6,11.3-1.9c3.1-1.3,5.8-3.2,8-5.7c4.9-5.7,7.6-13.4,7.8-23.1v-48.2
		h23.7v97.7h-23.7V585.3z"/>
	<path d="M1014.1,531.9c1.7,5.6,2.5,10.8,2.5,15.5c0,4.7-0.3,8.9-0.8,12.6h-63c0.3,7.9,2.2,14.3,5.8,19.3c3.6,5,9.1,7.4,16.5,7.4
		c9.8,0,15.6-4.3,17.5-12.8h23.9c-1.6,9.8-6.1,17.5-13.4,23.1c-7.6,5.9-16.9,8.8-27.9,8.8c-12.8,0-23.6-4.7-32.3-14
		c-9-9.8-13.4-22.3-13.4-37.5c0-15.7,4.5-28.2,13.4-37.7c8.6-9.1,19.3-13.6,32.3-13.6c13.5,0,24,4.7,31.5,14.2
		C1009.9,521.4,1012.4,526.3,1014.1,531.9z M975.3,521.7c-6.7,0-11.9,2.2-15.7,6.5c-3.7,4.3-6,9.9-6.6,16.8h41.5
		c0-10.6-3.3-17.7-10-21.3C982,522.4,978.9,521.7,975.3,521.7z"/>
	<path d="M1058.1,573.3c0.3,9.2,7,13.8,20.3,13.8c5.1,0,9.3-1.1,12.5-3.3c3.3-2.2,4.9-4.8,4.9-7.7c0-2.9-1-5.2-3-6.8
		c-2-1.6-5.2-3.1-9.4-4.4l-21.3-7.6c-15.8-5.5-23.7-14.4-23.7-26.9c0-8.3,3.7-14.9,11.1-20c7.4-5,17.4-7.5,29.9-7.5
		c12.5,0,22.1,2.7,28.9,8.2c6.8,5.5,10.3,12.4,10.5,20.7h-22.3c-0.3-3.2-1.8-5.8-4.6-7.6c-2.8-1.9-6.8-2.8-12-2.8s-9.3,1-12.1,3.1
		c-2.9,2.1-4.3,4.4-4.3,7.1c0,4.7,3.9,8.2,11.8,10.4l23.1,8.6c7.6,2.5,13.5,5.8,17.6,9.7c4.1,3.9,6.1,9.1,6.1,15.3
		c0,8-3.8,15-11.4,20.9c-7.9,6.2-18.3,9.2-31.3,9.2c-13,0-23.4-2.8-31.3-8.5c-7.9-5.7-11.9-13.7-12-24H1058.1z"/>
</g>
</svg>
