<?xml version="1.0" encoding="utf-8"?>
<!-- Generator: Adobe Illustrator 16.0.0, SVG Export Plug-In . SVG Version: 6.00 Build 0)  -->
<!DOCTYPE svg PUBLIC "-//W3C//DTD SVG 1.1//EN" "http://www.w3.org/Graphics/SVG/1.1/DTD/svg11.dtd">
<svg version="1.1" id="Calque_1" xmlns="http://www.w3.org/2000/svg" xmlns:xlink="http://www.w3.org/1999/xlink" x="0px" y="0px"
	 width="846px" height="591px" viewBox="0 0 846 591" enable-background="new 0 0 846 591" xml:space="preserve">
<g>
	<defs>
		<rect id="SVGID_1_" x="128" y="-124.92" width="590.4" height="841.92"/>
	</defs>
	<clipPath id="SVGID_2_">
		<use xlink:href="#SVGID_1_"  overflow="visible"/>
	</clipPath>
	<g clip-path="url(#SVGID_2_)">
		<g>
			
				<path fill-rule="evenodd" clip-rule="evenodd" fill="none" stroke="#000000" stroke-width="2" stroke-linecap="round" stroke-linejoin="round" stroke-miterlimit="10" d="
				M382.16,237.72c2.083,0.212,4.1,0.793,6.24,0.757c4.78-0.082,9.465,0.816,14.167,1.601c3.83,0.64,7.564,1.566,11.278,2.665
				c2.622,0.775,5.017,2.109,6.884,3.931c2.403,2.344,2.198,6.429-0.424,9.516c-3.093,3.642-7.271,5.782-11.521,7.657
				c-9.474,4.179-19.38,6.987-29.487,9.235c-4.729,1.052-9.469,2.113-14.188,3.236c-0.96,0.229-1.202,0.54-1.477,1.469
				c-1.992,6.747-4.104,13.457-6.195,20.173c-2.167,6.961-4.5,13.883-7.282,20.605c-2.321,5.609-5.206,11.015-8.584,16.097
				c-1.317,1.983-3.07,3.671-5.026,5.036c-3.822,2.667-8.549,1.61-11.019-2.382c-2.047-3.309-3.149-6.899-3.663-10.788
				c-0.746-5.661-0.418-11.211,0.457-16.82c0.32-2.05,0.608-4.142,0.8-6.228"/>
			
				<path fill-rule="evenodd" clip-rule="evenodd" fill="none" stroke="#000000" stroke-width="2" stroke-linecap="round" stroke-linejoin="round" stroke-miterlimit="10" d="
				M547.521,226.44c0.45,10.548-4.749,17.009-14.093,21.5c-9.376,4.507-18.095,2.386-25.847-2.294
				c-8.727-5.269-12.55-17.588-8.202-28.384c3.227-8.011,8.559-13.425,15.98-17.225c3.501-1.793,7.222-1.333,10.787-0.646
				c5.063,0.976,9.87,3.211,13.805,6.332c3.316,2.631,6.181,6.181,6.464,11.111c0.178,3.111,1.113,6.187,0.865,9.365"/>
			
				<path fill-rule="evenodd" clip-rule="evenodd" fill="none" stroke="#000000" stroke-width="2" stroke-linecap="round" stroke-linejoin="round" stroke-miterlimit="10" d="
				M408.561,413.64c-2.322-0.819-4.258,0.692-5.684,1.781c-9.086,6.94-19.671,11.334-29.223,17.495
				c-5.403,3.485-11.369,6.343-17.416,8.8c-5.173,2.103-9.753,5.309-14.585,8.019c-7.244,4.063-14.668,7.633-22.353,10.757
				c-4.243,1.726-8.191,4.123-12.021,6.669"/>
			
				<path fill-rule="evenodd" clip-rule="evenodd" fill="none" stroke="#000000" stroke-width="2" stroke-linecap="round" stroke-linejoin="round" stroke-miterlimit="10" d="
				M268.88,306.12c-3.479,0.655-6.559,2.403-9.833,3.617c-7.787,2.887-15.42,6.169-23.27,8.911
				c-5.956,2.08-11.961,3.952-18.001,5.765c-10.952,3.287-21.37,2.559-31.202-3.437c-5.859-3.572-8.233-9.064-8.458-15.815
				c-0.26-7.793,2.205-14.714,6.313-21.103c5.833-9.069,12.903-16.996,22.297-22.568c5.028-2.983,10.321-5.237,16.313-5.291
				c5.208-0.046,9.829,1.775,13.898,4.829c9.045,6.787,16.155,15.454,22.765,24.493c4.46,6.101,8.377,12.599,12.537,18.918"/>
			
				<path fill-rule="evenodd" clip-rule="evenodd" fill="none" stroke="#000000" stroke-width="2" stroke-linecap="round" stroke-linejoin="round" stroke-miterlimit="10" d="
				M346.88,229.56c1.797-1.694,2.087-4.123,2.814-6.263c1.727-5.071,3.125-10.3,3.789-15.592c0.551-4.397,0.592-8.992-1.566-13.184
				c-1.672-3.247-4.807-4.352-8.395-4.051c-3.794,0.318-7.11,2.07-10.052,4.329c-3.822,2.937-6.726,6.726-9.437,10.729
				c-5.047,7.452-7.981,15.865-11.455,24.039c-0.382,0.9-0.499,1.912-0.739,2.872"/>
			
				<path fill-rule="evenodd" clip-rule="evenodd" fill="none" stroke="#000000" stroke-width="2" stroke-linecap="round" stroke-linejoin="round" stroke-miterlimit="10" d="
				M344.48,434.52c0.189-1.692,0.477-3.327-0.184-5.062c-0.588-1.545,0.602-3.139,0.429-4.778c-0.48-4.559,0.479-9.075,0.146-13.69
				c-0.441-6.125-0.983-12.296-0.63-18.47c0.04-0.7-0.185-0.945-0.938-1.259c-2.857-1.189-5.451-2.851-8.646-3.406
				c-2.636-0.457-5.156-1.73-7.461-3.251c-4.267-2.814-9.163-4.161-13.936-5.706c-4.486-1.453-8.646-3.489-12.703-5.815
				c-4.48-2.567-9.158-4.769-13.953-6.635c-2.113-0.821-3.734-2.489-5.965-2.968"/>
			
				<path fill-rule="evenodd" clip-rule="evenodd" fill="none" stroke="#000000" stroke-width="2" stroke-linecap="round" stroke-linejoin="round" stroke-miterlimit="10" d="
				M669.44,284.76c-0.32,3.92-0.591,7.845-0.972,11.759c-0.593,6.085,0.296,12.165-0.012,18.24
				c-0.28,5.546-0.688,11.104-2.874,16.314c-0.968,2.31-2.344,4.451-4.329,5.973c-3.854,2.957-7.289,2.688-12.174-1.454
				c-4.088-3.467-6.14-8.284-7.478-13.393c-1.771-6.766-1.711-13.788-2.865-20.643c-0.689-4.1-1.5-8.204-3.206-11.965
				c-2.058-4.536-6.178-6.223-11.442-4.326c-6.333,2.281-10.706,7.022-14.643,12.219c-3.822,5.046-5.863,10.721-6.854,17.016
				c-0.736,4.688,0.257,9.142,0.438,13.697c0.028,0.689,0.039,1.448,0.17,2.162"/>
			
				<path fill-rule="evenodd" clip-rule="evenodd" fill="none" stroke="#000000" stroke-width="2" stroke-linecap="round" stroke-linejoin="round" stroke-miterlimit="10" d="
				M635.12,445.56c-0.424,2.515-2.704,3.439-4.358,4.751c-6.778,5.373-14.78,7.375-23.243,7.705
				c-9.305,0.362-18.375-1.039-27.113-4.31c-4.815-1.803-9.328-4.099-12.178-8.886c-0.847,1.01-1.722,1.741-2.195,2.676
				c-2.312,4.552-6.313,7.339-10.364,10.045c-4.294,2.869-9.232,3.15-14.145,2.847c-5.237-0.322-10.482-0.883-15.599-2.128
				c-8.045-1.959-14.788-5.88-19.222-13.17c-0.828-1.361-1.876-2.591-2.851-3.921c-1.683,0.457-2.954,1.514-4.364,2.42
				c-5.357,3.445-10.465,7.263-16.021,10.417c-3.796,2.154-7.691,4.018-11.793,5.458c-2.586,0.908-5.264,0.49-7.914,0.256"/>
			
				<path fill-rule="evenodd" clip-rule="evenodd" fill="none" stroke="#000000" stroke-width="2" stroke-linecap="round" stroke-linejoin="round" stroke-miterlimit="10" d="
				M710.96,412.439c-5.24,0.908-10.514,1.441-15.84,1.447c-8.403,0.008-16.504-1.442-24.243-4.8c-5.33-2.312-8.7-7.151-8.331-12.963
				c0.3-4.715,2.37-8.622,6.894-10.806c2.605-1.258,4.746-0.181,4.765,2.642c0.042,6.133-1.321,11.742-6.679,15.607
				c-0.361,0.262-0.646,0.633-0.965,0.952"/>
			
				<path fill-rule="evenodd" clip-rule="evenodd" fill="none" stroke="#000000" stroke-width="2" stroke-linecap="round" stroke-linejoin="round" stroke-miterlimit="10" d="
				M215.12,391.32c2.685-1.578,4.355-4.302,6.925-6.053c1.495-1.019,2.031-0.951,2.727,0.751c0.734,1.798,2.131,2.156,3.216,0.673
				c1.08-1.478,2.797-1.264,4.028-2.475c3.437-3.379,3.714-8.754,0.551-12.516c-3.545-4.216-7.962-7.82-13.4-9.029
				c-4.192-0.932-8.593-0.063-12.696,1.744c-8.678,3.821-14.354,10.357-17.189,19.249c-1.109,3.479-0.749,7.241,0.433,10.764
				c0.588,1.75,1.184,3.403,0.752,5.306c-0.084,0.371,0,1.534,1.136,1.306"/>
			
				<path fill-rule="evenodd" clip-rule="evenodd" fill="none" stroke="#000000" stroke-width="2" stroke-linecap="round" stroke-linejoin="round" stroke-miterlimit="10" d="
				M665.36,405.479c-10.99,7.056-23.15,9.555-35.995,8.805c-5.068-0.296-10.092-1.306-14.432-4.447
				c-2.458-1.78-3.994-4.124-5.254-6.757"/>
			
				<path fill-rule="evenodd" clip-rule="evenodd" fill="none" stroke="#000000" stroke-width="2" stroke-linecap="round" stroke-linejoin="round" stroke-miterlimit="10" d="
				M516.08,402.12c-3.449,2.961-6.746,6.148-11.043,7.913c-8.198,3.367-16.563,4.265-24.668,0.148
				c-4.383-2.226-7.583-5.831-7.282-11.424c0.106-1.983,0.636-3.563,2.434-4.558"/>
			
				<path fill-rule="evenodd" clip-rule="evenodd" fill="none" stroke="#000000" stroke-width="2" stroke-linecap="round" stroke-linejoin="round" stroke-miterlimit="10" d="
				M292.88,445.32c-0.916-0.967-1.956-0.729-3.128-0.533c-1.213,0.203-2.409,0.141-3.406-1.104
				c-1.007-1.256-2.674-0.287-4.029-0.497c-0.213-0.033-0.347,0.406-0.713,0.472c-2.227,0.394-4.297,1.118-6.738,0.82
				c-3.625-0.442-7.362-0.292-11.019,0.173c-1.24,0.158-2.529,0.846-3.557,1.471c-4.172,2.537-8.857,4.243-12.532,7.596
				c-1.027,0.938-1.971,1.025-3.143,0.031c-1.783-1.513-3.475-3.035-4.301-5.307c-0.607-1.672-1.477-3.169-2.604-4.587
				c-3.331-4.189-5.417-9.266-9.162-13.164c-3.51-3.654-7.258-7.209-11.588-9.713c-4.215-2.438-9.129-2.135-13.852-0.656
				c-0.755,0.236-1.406,1.265-2.389,0.518"/>
			
				<path fill-rule="evenodd" clip-rule="evenodd" fill="none" stroke="#000000" stroke-width="2" stroke-linecap="round" stroke-linejoin="round" stroke-miterlimit="10" d="
				M396.32,403.8c-1.029,2.097-3.313,2.371-5.072,3.299c-3.368,1.775-7.107,2.619-10.743,3.741
				c-4.345,1.341-8.481,3.345-12.764,4.908c-0.918,0.335-1.932,0.779-3.113,0.324c-4.776-1.835-9.843-2.762-14.634-4.577
				c-1.547-0.586-2.914-1.579-4.554-1.936"/>
			
				<path fill-rule="evenodd" clip-rule="evenodd" fill="none" stroke="#000000" stroke-width="2" stroke-linecap="round" stroke-linejoin="round" stroke-miterlimit="10" d="
				M195.68,413.16c-5.876,7.719-8.813,16.696-11.319,25.909c-2.018,7.417-2.818,14.937-2.555,22.569
				c0.113,3.278,0.637,6.546,0.675,9.841"/>
			
				<path fill-rule="evenodd" clip-rule="evenodd" fill="none" stroke="#000000" stroke-width="2" stroke-linecap="round" stroke-linejoin="round" stroke-miterlimit="10" d="
				M309.2,237.96c-1.704-0.091-2.805,1.246-4.032,1.998c-8.973,5.487-17.913,11.05-26.421,17.24
				c-6.619,4.815-13.168,9.754-18.987,15.563"/>
			
				<path fill-rule="evenodd" clip-rule="evenodd" fill="none" stroke="#000000" stroke-width="2" stroke-linecap="round" stroke-linejoin="round" stroke-miterlimit="10" d="
				M344.48,237.48c-6.243,16.095-13.261,31.912-17.521,48.72"/>
			
				<path fill-rule="evenodd" clip-rule="evenodd" fill="none" stroke="#000000" stroke-width="2" stroke-linecap="round" stroke-linejoin="round" stroke-miterlimit="10" d="
				M557.601,303c-0.786,1.94-2.89,1.917-4.345,2.843c-9.628,6.129-19.04,12.511-27.366,20.404
				c-4.067,3.857-7.928,7.915-11.97,11.793"/>
			
				<path fill-rule="evenodd" clip-rule="evenodd" fill="none" stroke="#000000" stroke-width="2" stroke-linecap="round" stroke-linejoin="round" stroke-miterlimit="10" d="
				M547.28,279.48c-2.944,2.058-5.321,4.771-8.143,6.982c-5.103,4-9.984,8.289-15.168,12.176
				c-5.562,4.171-10.698,8.831-16.027,13.268c-1.017,0.846-2.16,1.499-3.142,2.374"/>
			
				<path fill-rule="evenodd" clip-rule="evenodd" fill="none" stroke="#000000" stroke-width="2" stroke-linecap="round" stroke-linejoin="round" stroke-miterlimit="10" d="
				M277.76,402.6c-4.64,2.24-9.226,4.601-13.932,6.693c-7.956,3.538-15.981,6.922-23.996,10.328
				c-1.048,0.445-2.07,0.867-2.993,1.817c1.41,1.696,2.046,4.063,4.215,5.135c1.484,0.734,0.573,2.188,1.187,3.146"/>
			
				<path fill-rule="evenodd" clip-rule="evenodd" fill="none" stroke="#000000" stroke-width="2" stroke-linecap="round" stroke-linejoin="round" stroke-miterlimit="10" d="
				M610.16,402.6c4.127-2.656,8.156-5.4,10.335-10.072c0.58-1.244,0.636-2.589,0.645-3.848c0.017-2.701-2.038-3.73-4.749-2.912
				c-5.193,1.569-6.519,5.779-7.432,10.352c-0.471,2.356-0.295,4.614,0.961,6.721"/>
			
				<path fill-rule="evenodd" clip-rule="evenodd" fill="none" stroke="#000000" stroke-width="2" stroke-linecap="round" stroke-linejoin="round" stroke-miterlimit="10" d="
				M304.4,340.68c-0.4,0.007-0.685,0.448-1.218,0.022c-5.504-4.396-10.862-8.896-15.39-14.384
				c-5.577-6.763-10.35-14.054-15.073-21.398"/>
			
				<path fill-rule="evenodd" clip-rule="evenodd" fill="none" stroke="#000000" stroke-width="2" stroke-linecap="round" stroke-linejoin="round" stroke-miterlimit="10" d="
				M698.479,451.32c0.188-2.361-1.338-1.406-2.135-0.921c-3.316,2.02-6.782,3.739-10.354,5.22
				c-8.146,3.376-16.713,4.417-25.427,3.801c-6.214-0.439-12.437-1-18.272-3.72c-3.855-1.798-6.227-4.623-7.651-8.46"/>
			
				<path fill-rule="evenodd" clip-rule="evenodd" fill="none" stroke="#000000" stroke-width="2" stroke-linecap="round" stroke-linejoin="round" stroke-miterlimit="10" d="
				M364.4,276.12c0.191-3.505,1.718-6.628,2.902-9.832c3.423-9.254,8.186-17.833,13.37-26.197c0.256-0.411,0.791-0.97,0.527-1.651"
				/>
			
				<path fill-rule="evenodd" clip-rule="evenodd" fill="none" stroke="#000000" stroke-width="2" stroke-linecap="round" stroke-linejoin="round" stroke-miterlimit="10" d="
				M560.72,404.04c3.249-2.743,6.488-5.505,7.664-9.845c0.295-1.087,0.531-2.194,0.516-3.355c-0.022-1.729-0.953-2.938-2.436-3.291
				c-1.773-0.421-3.271,0.502-4.561,1.835c-3.165,3.271-4.666,9.016-1.424,14.896"/>
			
				<path fill-rule="evenodd" clip-rule="evenodd" fill="none" stroke="#000000" stroke-width="2" stroke-linecap="round" stroke-linejoin="round" stroke-miterlimit="10" d="
				M411.68,206.76c-5.162,1.617-9.22,5.027-12.883,8.716c-3.665,3.69-7.099,7.682-10.129,11.943
				c-2.506,3.523-4.771,7.219-7.104,10.78c-3.244-0.246-6.37-0.739-9.483-0.668c-7.312,0.166-14.55-0.929-21.841-1.02
				c-1.609-0.02-3.126-1.054-4.8-0.472"/>
			
				<path fill-rule="evenodd" clip-rule="evenodd" fill="none" stroke="#000000" stroke-width="2" stroke-linecap="round" stroke-linejoin="round" stroke-miterlimit="10" d="
				M253.521,278.76c-7.822,8.433-15.688,16.826-23.04,25.68c-1.809,2.177-3.451,4.481-4.738,6.992
				c-0.287,0.561-0.565,0.745-1.022,0.928"/>
			
				<path fill-rule="evenodd" clip-rule="evenodd" fill="none" stroke="#000000" stroke-width="2" stroke-linecap="round" stroke-linejoin="round" stroke-miterlimit="10" d="
				M516.801,400.68c3.04-3.067,4.345-6.976,5.257-11.045c0.323-1.441-1.635-3.176-3.338-3.115c-3.296,0.118-5.09,1.692-4.974,5.038
				c0.109,3.122,0.284,6.341,2.095,9.122"/>
			
				<path fill-rule="evenodd" clip-rule="evenodd" fill="none" stroke="#000000" stroke-width="2" stroke-linecap="round" stroke-linejoin="round" stroke-miterlimit="10" d="
				M445.521,131.16c-3.31,0.857-3.461-2.233-4.964-3.892c-2.177,0.916-4.408,2.146-7.037,1.982
				c-1.987-0.123-2.617-0.975-1.654-2.636c0.956-1.647,1.996-3.251,2.596-5.061c0.607-1.831,0.138-3.355-1.577-4.413
				c-2.014,0.586-2.243,2.83-3.804,3.699"/>
			
				<path fill-rule="evenodd" clip-rule="evenodd" fill="none" stroke="#000000" stroke-width="2" stroke-linecap="round" stroke-linejoin="round" stroke-miterlimit="10" d="
				M345.68,235.56c0.418-2.463,1.337-4.819,0.77-7.451c-0.649-3.012-1.63-4.086-4.609-4.066c-5.851,0.039-11.141,2.204-16.289,4.622
				c-2.476,1.163-5.268,1.883-7.23,4.015"/>
			
				<path fill-rule="evenodd" clip-rule="evenodd" fill="none" stroke="#000000" stroke-width="2" stroke-linecap="round" stroke-linejoin="round" stroke-miterlimit="10" d="
				M384.8,383.16c-1.112,1.991-3.305,1.799-5.054,2.355c-6.766,2.152-13.344,4.765-19.62,8.053c-1.279,0.67-2.13,2.383-2.884,3.774
				c-0.915,1.689-2.154,1.642-3.642,1.177"/>
			
				<path fill-rule="evenodd" clip-rule="evenodd" fill="none" stroke="#000000" stroke-width="2" stroke-linecap="round" stroke-linejoin="round" stroke-miterlimit="10" d="
				M311.12,232.92c-8.208-1.065-16.467-1.568-24.717-1.134c-8.52,0.448-17.046,1.117-25.444,2.811
				c-5.571,1.123-11.079,2.385-16.095,5.256c-1.987,1.137-3.65,2.638-4.976,4.384c-2.16,2.849-2.08,6.129-0.748,9.314
				c2.335,5.586,6.506,9.681,11.269,13.196c11.539,8.517,24.26,15.095,36.758,22.008c3.948,2.184,8.181,4.102,12.476,5.47
				c3.904,1.243,7.621,2.91,11.446,4.3c4.039,1.468,8.074,3.006,12.031,4.715"/>
			
				<path fill-rule="evenodd" clip-rule="evenodd" fill="none" stroke="#000000" stroke-width="2" stroke-linecap="round" stroke-linejoin="round" stroke-miterlimit="10" d="
				M355.04,393.96c3.376-1.646,4.12-3.31,3.156-6.73c-0.135-0.479-0.271-1.137,0.197-1.676c2.51-2.888,2.532-6.787,4.029-10.1
				c0.602-1.329,1.184-2.699,1.798-4.026c0.334-0.723,1.164-1.432,0.143-1.86c-0.653-0.274-1.823-0.603-2.414,0.852
				c-1.202,2.96-2.445,5.9-3.562,8.896c-0.944,2.533-1.854,5.134-5.025,5.773c-1.672,0.337-1.453,2.073-2.126,3.134
				c-1.51,2.384-1.603,5.221-1.882,7.905c-0.229,2.201,1.47,3.684,3.046,5.032"/>
			
				<path fill-rule="evenodd" clip-rule="evenodd" fill="none" stroke="#000000" stroke-width="2" stroke-linecap="round" stroke-linejoin="round" stroke-miterlimit="10" d="
				M253.28,119.64c0.013-1.626-0.961-1.408-1.914-0.948c-3.865,1.86-5.641,5.832-4.751,10.297c0.424,2.125,2.323,3.266,4.278,3.802
				c2.325,0.638,3.817-1.149,3.077-3.542c-0.239-0.777-0.258-1.449-0.053-2.139c1.338-0.495,2.643-0.175,3.922-0.27"/>
			
				<path fill-rule="evenodd" clip-rule="evenodd" fill="none" stroke="#000000" stroke-width="2" stroke-linecap="round" stroke-linejoin="round" stroke-miterlimit="10" d="
				M305.36,341.399c-3.243-4.878-4.512-10.405-5.564-16.071c-1.45-7.803-1.376-15.656-1.442-23.527
				c-0.017-2.02,1.056-3.967,0.287-6.001"/>
			
				<path fill-rule="evenodd" clip-rule="evenodd" fill="none" stroke="#000000" stroke-width="2" stroke-linecap="round" stroke-linejoin="round" stroke-miterlimit="10" d="
				M299.36,294.6c-0.24,0.32-0.43,0.86-0.728,0.928c-8.357,1.908-16.088,5.661-24.203,8.285c-1.76,0.569-3.572,1.125-5.31,1.827"/>
			
				<path fill-rule="evenodd" clip-rule="evenodd" fill="none" stroke="#000000" stroke-width="2" stroke-linecap="round" stroke-linejoin="round" stroke-miterlimit="10" d="
				M496.881,497.88c-5.041,1.103-8.899,4.369-12.933,7.239c-3.1,2.204-5.971,4.733-8.895,7.177c-0.946,0.79-1.828,1.597-3.134,1.664
				"/>
			
				<path fill-rule="evenodd" clip-rule="evenodd" fill="none" stroke="#000000" stroke-width="2" stroke-linecap="round" stroke-linejoin="round" stroke-miterlimit="10" d="
				M303.68,119.64c0.072-1.032-0.427-1.609-1.436-1.42c-2.425,0.455-4.884,0.898-6.527,2.912c0.245,1.802,1.589,2.692,2.73,3.204
				c1.26,0.564,2.164,1.377,3.063,2.274c2.36,2.356,1.754,4.722-1.44,5.47c-0.661,0.155-1.578,0.387-2.15-0.439"/>
			
				<path fill-rule="evenodd" clip-rule="evenodd" fill="none" stroke="#000000" stroke-width="2" stroke-linecap="round" stroke-linejoin="round" stroke-miterlimit="10" d="
				M283.521,413.88c-1.2-6.027-1.665-12.151-2.425-18.237c-0.788-6.302-1.043-12.651-1.273-18.968
				c-0.165-4.517-0.322-9.149,0.578-13.675"/>
			
				<path fill-rule="evenodd" clip-rule="evenodd" fill="none" stroke="#000000" stroke-width="2" stroke-linecap="round" stroke-linejoin="round" stroke-miterlimit="10" d="
				M363.44,277.08c-2.827,0.04-5.466,1.002-8.159,1.685c-6.884,1.745-13.815,3.33-20.624,5.333
				c-5.533,1.628-11.111,3.103-16.603,4.905c-5.19,1.703-10.537,2.934-15.574,5.117"/>
			
				<path fill-rule="evenodd" clip-rule="evenodd" fill="none" stroke="#000000" stroke-width="2" stroke-linecap="round" stroke-linejoin="round" stroke-miterlimit="10" d="
				M667.76,223.56c-2.901-0.693-5.761,0.398-8.639,0.222c-5.37-0.329-10.708,1.043-16.081,0.258"/>
			
				<path fill-rule="evenodd" clip-rule="evenodd" fill="none" stroke="#000000" stroke-width="2" stroke-linecap="round" stroke-linejoin="round" stroke-miterlimit="10" d="
				M469.28,122.52c0.066,2.744-0.328,5.546,1.661,7.936c1.829,2.2,4.219,2.254,6.021-0.015c1.958-2.465,2.759-5.287,2.639-8.401"/>
			
				<path fill-rule="evenodd" clip-rule="evenodd" fill="none" stroke="#000000" stroke-width="2" stroke-linecap="round" stroke-linejoin="round" stroke-miterlimit="10" d="
				M602.96,494.52c-5.232,2.664-9.534,6.452-13.483,10.761c-1.987,2.169-3.85,4.461-5.981,6.493
				c-0.396,0.379-0.047,0.688-0.215,0.986"/>
			
				<path fill-rule="evenodd" clip-rule="evenodd" fill="none" stroke="#000000" stroke-width="2" stroke-linecap="round" stroke-linejoin="round" stroke-miterlimit="10" d="
				M202.16,373.08c-5.233,6.519-8.418,14.096-11.28,21.84"/>
			
				<path fill-rule="evenodd" clip-rule="evenodd" fill="none" stroke="#000000" stroke-width="2" stroke-linecap="round" stroke-linejoin="round" stroke-miterlimit="10" d="
				M638.96,492.12c-6.076,4.506-11.993,9.188-17.06,14.861c-1.138,1.274-2.223,2.723-4.06,3.139"/>
			
				<path fill-rule="evenodd" clip-rule="evenodd" fill="none" stroke="#000000" stroke-width="2" stroke-linecap="round" stroke-linejoin="round" stroke-miterlimit="10" d="
				M565.521,495.72c-3.049,1.354-5.571,3.49-8.155,5.526c-4.635,3.653-8.73,7.918-13.205,11.754"/>
			
				<path fill-rule="evenodd" clip-rule="evenodd" fill="none" stroke="#000000" stroke-width="2" stroke-linecap="round" stroke-linejoin="round" stroke-miterlimit="10" d="
				M263.12,444.359c-6.186-5.186-12.262-10.507-18.737-15.336c-0.608-0.454-1.248-1.057-2.143-0.983"/>
			
				<path fill-rule="evenodd" clip-rule="evenodd" fill="none" stroke="#000000" stroke-width="2" stroke-linecap="round" stroke-linejoin="round" stroke-miterlimit="10" d="
				M315.2,233.4c-1.013-1.175-2.39-0.534-3.538-0.762c-2.973,7.38-4.911,15.033-6.921,22.629
				c-1.765,6.672-2.945,13.537-3.822,20.389c-0.445,3.483-0.735,7.038-1.18,10.532c-0.313,2.476,0.234,5.124-1.099,7.453"/>
			
				<path fill-rule="evenodd" clip-rule="evenodd" fill="none" stroke="#000000" stroke-width="2" stroke-linecap="round" stroke-linejoin="round" stroke-miterlimit="10" d="
				M238.88,425.16c-0.628-0.172-1.223,0.251-1.941-0.207c-5.992-3.816-12.326-7-18.818-9.873"/>
			
				<path fill-rule="evenodd" clip-rule="evenodd" fill="none" stroke="#000000" stroke-width="2" stroke-linecap="round" stroke-linejoin="round" stroke-miterlimit="10" d="
				M515.601,119.16c-0.181-0.932-0.715-1.371-1.681-1.198c-0.4,0.071-0.84,0.077-1.192,0.252c-1.559,0.774-3.993,0.725-4.226,2.877
				c-0.209,1.938,1.784,2.738,3.266,3.576c1.062,0.601,1.911,1.455,2.854,2.39c-0.593,1.978-2.604,2.492-4.302,3.383"/>
			
				<path fill-rule="evenodd" clip-rule="evenodd" fill="none" stroke="#000000" stroke-width="2" stroke-linecap="round" stroke-linejoin="round" stroke-miterlimit="10" d="
				M644.72,194.52c-0.634,5.262-0.988,10.551-1.169,15.841c-0.25,7.299-0.895,14.565-1.397,21.844
				c-0.335,4.853-0.64,9.755-0.073,14.635"/>
			
				<path fill-rule="evenodd" clip-rule="evenodd" fill="none" stroke="#000000" stroke-width="2" stroke-linecap="round" stroke-linejoin="round" stroke-miterlimit="10" d="
				M215.12,416.28c3.633-1.045,5.586-3.805,7.218-6.951c0.828-1.597,2.112-2.546,4.06-2.689c2.286-0.168,2.809-0.983,2.14-3.072
				c-0.556-1.735-0.799-3.522-1.177-5.287"/>
			
				<path fill-rule="evenodd" clip-rule="evenodd" fill="none" stroke="#000000" stroke-width="2" stroke-linecap="round" stroke-linejoin="round" stroke-miterlimit="10" d="
				M670.88,206.76c-6.56,0.4-13.116,0.901-19.682,1.148c-2.478,0.093-4.934,0.974-7.438,0.292"/>
			
				<path fill-rule="evenodd" clip-rule="evenodd" fill="none" stroke="#000000" stroke-width="2" stroke-linecap="round" stroke-linejoin="round" stroke-miterlimit="10" d="
				M293.36,446.76c0.561,0.399,1.121,0.798,1.896,1.349c-1.607,2.404-2.425,5.204-6.203,5.708c-5.51,0.736-10.88,2.341-15.815,5.012
				c-0.719,0.39-1.683,0.362-2.197,1.132"/>
			
				<path fill-rule="evenodd" clip-rule="evenodd" fill="none" stroke="#000000" stroke-width="2" stroke-linecap="round" stroke-linejoin="round" stroke-miterlimit="10" d="
				M686.72,492.84c-6.2,6.282-12.964,11.986-18.96,18.48"/>
			
				<path fill-rule="evenodd" clip-rule="evenodd" fill="none" stroke="#000000" stroke-width="2" stroke-linecap="round" stroke-linejoin="round" stroke-miterlimit="10" d="
				M403.76,119.4c-1.474,0.263-1.191,1.415-1.195,2.4c-0.007,1.975-0.059,3.934-0.961,5.762c-0.688,1.391-1.591,1.454-2.897,0.744
				c-2.142-1.165-3.288-3.184-4.475-5.11c-0.381-0.619-0.834-1.102-1.271-1.635"/>
			
				<path fill-rule="evenodd" clip-rule="evenodd" fill="none" stroke="#000000" stroke-width="2" stroke-linecap="round" stroke-linejoin="round" stroke-miterlimit="10" d="
				M643.28,208.44c-9.04,0.72-18.084,1.396-27.119,2.177c-5.062,0.438-10.115,0.993-15.121,1.903"/>
			
				<path fill-rule="evenodd" clip-rule="evenodd" fill="none" stroke="#000000" stroke-width="2" stroke-linecap="round" stroke-linejoin="round" stroke-miterlimit="10" d="
				M384.8,375.96c-0.34,0.384-0.11,1-0.945,1.248c-5.068,1.504-10.043,3.354-15.155,4.67c-2.682,0.689-5.521,1.232-8.379,0.802"/>
			
				<path fill-rule="evenodd" clip-rule="evenodd" fill="none" stroke="#000000" stroke-width="2" stroke-linecap="round" stroke-linejoin="round" stroke-miterlimit="10" d="
				M520.641,500.52c-4.844,2.591-9.348,5.659-13.186,9.614c-1.43,1.474-3.371,2.354-4.574,4.066"/>
			
				<path fill-rule="evenodd" clip-rule="evenodd" fill="none" stroke="#000000" stroke-width="2" stroke-linecap="round" stroke-linejoin="round" stroke-miterlimit="10" d="
				M458.72,128.28c0.246,0.878,0.764,1.683,0.728,2.633c-2.563,2.284-5.014,2.284-6.728,0.007c-1.501-1.997,0.662-7.76,3.126-8.126
				c1.104-0.165,1.574,0.529,1.194,1.646"/>
			
				<path fill-rule="evenodd" clip-rule="evenodd" fill="none" stroke="#000000" stroke-width="2" stroke-linecap="round" stroke-linejoin="round" stroke-miterlimit="10" d="
				M323.12,303c1.091-5.146,2.074-10.316,3.582-15.366c0.06-0.198-0.142-0.475-0.222-0.714"/>
			
				<path fill-rule="evenodd" clip-rule="evenodd" fill="none" stroke="#000000" stroke-width="2" stroke-linecap="round" stroke-linejoin="round" stroke-miterlimit="10" d="
				M619.28,240.6c-0.815-6.97,0.645-13.91,0.268-20.881c-0.164-3.031-0.027-6.078-0.027-9.119"/>
			
				<path fill-rule="evenodd" clip-rule="evenodd" fill="none" stroke="#000000" stroke-width="2" stroke-linecap="round" stroke-linejoin="round" stroke-miterlimit="10" d="
				M367.76,124.68c-2.983-0.535-3.693,0.033-3.6,2.88c0.067,2.06-1.796,3.691-3.84,3.36c-2.396-0.389-4.151-2.556-4.08-5.04
				c0.112-3.935,3.209-7.473,6.72-7.68"/>
			
				<path fill-rule="evenodd" clip-rule="evenodd" fill="none" stroke="#000000" stroke-width="2" stroke-linecap="round" stroke-linejoin="round" stroke-miterlimit="10" d="
				M305.84,465.72c-1.294,0.589-1.743-0.733-2.354-1.253c-3.265-2.771-7.052-4.869-10.108-7.884
				c-0.884-0.871-2.046-1.546-2.417-2.863"/>
			
				<path fill-rule="evenodd" clip-rule="evenodd" fill="none" stroke="#000000" stroke-width="2" stroke-linecap="round" stroke-linejoin="round" stroke-miterlimit="10" d="
				M312.32,426.6c0.854,0.629,1.25,1.623,1.909,2.409c0.741,0.884,1.483,1.238,2.66,0.732c3.032-1.302,5.604-3.224,8.454-5.476
				c-1.751-0.984-3.067-1.726-4.384-2.466"/>
			
				<path fill-rule="evenodd" clip-rule="evenodd" fill="none" stroke="#000000" stroke-width="2" stroke-linecap="round" stroke-linejoin="round" stroke-miterlimit="10" d="
				M496.16,118.68c-0.96,0-1.92,0-2.88,0c-3.707,0-4.953,1.239-5.037,5.04c-0.057,2.481,0.241,4.973-0.243,7.44"/>
			
				<path fill-rule="evenodd" clip-rule="evenodd" fill="none" stroke="#000000" stroke-width="2" stroke-linecap="round" stroke-linejoin="round" stroke-miterlimit="10" d="
				M307.04,415.08c-1.701-1.12-3.464-1.941-5.48-2.533c-2.059-0.604-4.027-1.813-6.026-2.775c-1.069-0.515-2.208-0.737-3.107-0.171
				c-3.442,2.164-6.857,4.39-9.857,7.168c-0.32,0.296-0.549,0.703-0.488,1.191"/>
			
				<path fill-rule="evenodd" clip-rule="evenodd" fill="none" stroke="#000000" stroke-width="2" stroke-linecap="round" stroke-linejoin="round" stroke-miterlimit="10" d="
				M619.28,195.96c0.516,4.712,0.112,9.441,0.24,14.16"/>
			
				<path fill-rule="evenodd" clip-rule="evenodd" fill="none" stroke="#000000" stroke-width="2" stroke-linecap="round" stroke-linejoin="round" stroke-miterlimit="10" d="
				M202.641,133.08c-0.993-4.115-0.852-8.542-3.012-12.745c-2.417,2.02-4.371,3.675-6.354,5.298c-0.96,0.787-1.909,1.118-3.132,0.27
				c-2.989-2.073-6.063-4.024-9.104-6.024"/>
			
				<path fill-rule="evenodd" clip-rule="evenodd" fill="none" stroke="#000000" stroke-width="2" stroke-linecap="round" stroke-linejoin="round" stroke-miterlimit="10" d="
				M459.32,129.48c1.602-1.842,1.898-5.522,0.6-7.44c-1.582-2.337-1.871-2.402-4.319-0.96"/>
			
				<path fill-rule="evenodd" clip-rule="evenodd" fill="none" stroke="#000000" stroke-width="2" stroke-linecap="round" stroke-linejoin="round" stroke-miterlimit="10" d="
				M642.32,224.28c-10.08,0.96-20.171,1.828-30.233,2.936c-3.041,0.335-6.085,0.758-9.127,1.144"/>
			
				<path fill-rule="evenodd" clip-rule="evenodd" fill="none" stroke="#000000" stroke-width="2" stroke-linecap="round" stroke-linejoin="round" stroke-miterlimit="10" d="
				M283.521,119.16c-1.546-2.523-3.538-0.233-5.289-0.341c-0.884-0.054-2.646,0.548-2.606,2.261c0.022,0.963,0.304,1.919,0.453,2.88
				c0.326,2.079,0.642,4.16,0.962,6.24"/>
			
				<path fill-rule="evenodd" clip-rule="evenodd" fill="none" stroke="#000000" stroke-width="2" stroke-linecap="round" stroke-linejoin="round" stroke-miterlimit="10" d="
				M212.96,392.76c-0.289-1.128-0.747-2.175-1.438-3.122c-1.493-2.049-3.088-2.277-4.77-0.447c-0.855,0.931-1.636,2.021-1.956,3.329
				c-0.688,2.814-1.733,4.63-3.889,6.771c-0.805-1.278-1.876-2.43-1.388-4.131"/>
			
				<path fill-rule="evenodd" clip-rule="evenodd" fill="none" stroke="#000000" stroke-width="2" stroke-linecap="round" stroke-linejoin="round" stroke-miterlimit="10" d="
				M181.521,120.84c-0.671,3.92,0.295,7.84,0,11.76"/>
			
				<path fill-rule="evenodd" clip-rule="evenodd" fill="none" stroke="#000000" stroke-width="2" stroke-linecap="round" stroke-linejoin="round" stroke-miterlimit="10" d="
				M491.36,559.8c-0.133-1.804-1.802-2.373-2.923-3.05c-5.426-3.275-10.994-6.315-16.527-9.413c-0.243-0.136-0.63-0.017-0.95-0.017"
				/>
			
				<path fill-rule="evenodd" clip-rule="evenodd" fill="none" stroke="#000000" stroke-width="2" stroke-linecap="round" stroke-linejoin="round" stroke-miterlimit="10" d="
				M195.92,411.72c-1.4-1.159-2.909-2.111-3.898-3.806c-1.29-2.208-1.765-4.345-0.901-6.754"/>
			
				<path fill-rule="evenodd" clip-rule="evenodd" fill="none" stroke="#000000" stroke-width="2" stroke-linecap="round" stroke-linejoin="round" stroke-miterlimit="10" d="
				M420.08,117.96c-1.838-0.698-3.574-0.01-5.271,0.511c-1.799,0.552-1.634,2.238-1.393,3.559c0.325,1.78,0.589,3.509,0.184,5.291"
				/>
			
				<path fill-rule="evenodd" clip-rule="evenodd" fill="none" stroke="#000000" stroke-width="2" stroke-linecap="round" stroke-linejoin="round" stroke-miterlimit="10" d="
				M227.36,393.24c-0.24,0-0.48-0.001-0.72,0c-1.261,0.002-2.576-0.263-3.151,1.429c-0.337,0.991-0.188,1.62,0.474,2.44
				c1.092,1.354,2.347,0.817,3.639,0.715c0.689-0.054,1.133-0.547,1.642-0.814c0.996-0.524,1.576-1.652,1.199-2.798
				c-0.46-1.396-1.631-1.405-2.842-0.972"/>
			
				<path fill-rule="evenodd" clip-rule="evenodd" fill="none" stroke="#000000" stroke-width="2" stroke-linecap="round" stroke-linejoin="round" stroke-miterlimit="10" d="
				M663.44,555.96c1.783-3.784,5.372-6,8.097-9.148c-2.794-2.159-5.49-4.23-8.577-5.731"/>
			
				<path fill-rule="evenodd" clip-rule="evenodd" fill="none" stroke="#000000" stroke-width="2" stroke-linecap="round" stroke-linejoin="round" stroke-miterlimit="10" d="
				M379.76,119.64c-0.794-0.189-1.507-0.651-2.402-0.495c-1.693,0.295-3.152,0.377-3.216,2.893c-0.071,2.811-0.172,5.603,0.15,8.495
				c2.206,0.545,4.308-0.213,6.428-0.813"/>
			
				<path fill-rule="evenodd" clip-rule="evenodd" fill="none" stroke="#000000" stroke-width="2" stroke-linecap="round" stroke-linejoin="round" stroke-miterlimit="10" d="
				M535.28,556.439c0.291-1.385-0.878-1.558-1.688-1.9c-2.356-0.995-4.738-1.92-6.712-3.619"/>
			
				<path fill-rule="evenodd" clip-rule="evenodd" fill="none" stroke="#000000" stroke-width="2" stroke-linecap="round" stroke-linejoin="round" stroke-miterlimit="10" d="
				M283.76,423.479c0.063-1.907-1.62-3.34-0.846-5.345c-3.311,0.361-8.632,5.108-9.481,8.012c3.489,1.709,6.67,4.196,10.987,4.262
				c1.762-3.709,4.869-2.264,7.184-1.025c2.044,1.093,3.455-0.128,5.108-0.255c0.688-0.054,1.747-0.18,2.408-0.848"/>
			
				<path fill-rule="evenodd" clip-rule="evenodd" fill="none" stroke="#000000" stroke-width="2" stroke-linecap="round" stroke-linejoin="round" stroke-miterlimit="10" d="
				M587.12,555.479c-4.155-4.28-8.858-7.754-14.369-10.149c-0.874-0.38-1.627-0.266-2.431-0.41"/>
			
				<path fill-rule="evenodd" clip-rule="evenodd" fill="none" stroke="#000000" stroke-width="2" stroke-linecap="round" stroke-linejoin="round" stroke-miterlimit="10" d="
				M355.76,384.359c0.041,2.218-0.011,4.317-1.888,6.035c-1.935,1.771-2.32,4.832-0.911,7.115c0.352,0.569,0.571,1.088,0.363,1.471
				c-1.067,1.963-0.246,4.023-0.46,6.018c-0.134,1.249,0.3,1.896,1.664,1.924c-0.161-2.623,1.854-4.95,0.992-7.682"/>
			
				<path fill-rule="evenodd" clip-rule="evenodd" fill="none" stroke="#000000" stroke-width="2" stroke-linecap="round" stroke-linejoin="round" stroke-miterlimit="10" d="
				M420.561,127.8c-2.08,0.8-4.127,1.712-6.257,2.345c-0.862,0.257-1.933,0.247-2.863-0.185"/>
			
				<path fill-rule="evenodd" clip-rule="evenodd" fill="none" stroke="#000000" stroke-width="2" stroke-linecap="round" stroke-linejoin="round" stroke-miterlimit="10" d="
				M319.28,422.28c-0.39,0.421-0.874,0.585-1.433,0.747c-2.432,0.708-4.892,1.404-6.728,3.332"/>
			
				<path fill-rule="evenodd" clip-rule="evenodd" fill="none" stroke="#000000" stroke-width="2" stroke-linecap="round" stroke-linejoin="round" stroke-miterlimit="10" d="
				M633.2,554.52c-2.83-2.338-5.889-4.363-8.88-6.479"/>
			
				<path fill-rule="evenodd" clip-rule="evenodd" fill="none" stroke="#000000" stroke-width="2" stroke-linecap="round" stroke-linejoin="round" stroke-miterlimit="10" d="
				M162.32,135c-2.72,0.08-5.44,0.16-8.16,0.24"/>
			
				<path fill-rule="evenodd" clip-rule="evenodd" fill="none" stroke="#000000" stroke-width="2" stroke-linecap="round" stroke-linejoin="round" stroke-miterlimit="10" d="
				M211.04,400.2c-0.35,1.445-1.246,2.64-2.648,2.802c-1.431,0.165-2.145-1.162-2.909-2.296c-1.008-1.494-0.479-3.438-1.643-4.826"
				/>
			
				<path fill-rule="evenodd" clip-rule="evenodd" fill="none" stroke="#000000" stroke-width="2" stroke-linecap="round" stroke-linejoin="round" stroke-miterlimit="10" d="
				M310.88,417.96c-0.72-0.86-1.703-1.358-2.642-1.918c-2.309,0.933-4.579,1.822-7.21,1.255c-1.221-0.264-2.621-0.319-3.828,0.423"
				/>
			
				<path fill-rule="evenodd" clip-rule="evenodd" fill="none" stroke="#000000" stroke-width="2" stroke-linecap="round" stroke-linejoin="round" stroke-miterlimit="10" d="
				M230,393.24c0.334-1.906,1.373-3.722,0.524-5.778c-0.214-0.519,0.116-1.262,0.195-1.902"/>
			
				<path fill-rule="evenodd" clip-rule="evenodd" fill="none" stroke="#000000" stroke-width="2" stroke-linecap="round" stroke-linejoin="round" stroke-miterlimit="10" d="
				M392.48,118.68c0.302,1.226,0.38,2.308-0.153,3.635c-0.871,2.164-0.03,4.631-0.567,6.925"/>
			
				<path fill-rule="evenodd" clip-rule="evenodd" fill="none" stroke="#000000" stroke-width="2" stroke-linecap="round" stroke-linejoin="round" stroke-miterlimit="10" d="
				M284.24,129.72c-2.785,1.178-5.607,2.011-8.64,0.96"/>
			
				<path fill-rule="evenodd" clip-rule="evenodd" fill="none" stroke="#000000" stroke-width="2" stroke-linecap="round" stroke-linejoin="round" stroke-miterlimit="10" d="
				M157.04,134.04c-1.348-3.742-0.76-7.685-1.204-11.52c-0.047-0.404-0.156-0.801-0.235-1.201"/>
			
				<path fill-rule="evenodd" clip-rule="evenodd" fill="none" stroke="#000000" stroke-width="2" stroke-linecap="round" stroke-linejoin="round" stroke-miterlimit="10" d="
				M678.801,551.88c-2.589-1.407-4.486-3.724-7.386-5.019c2.288-2.703,4.512-4.81,6.665-6.981"/>
			
				<path fill-rule="evenodd" clip-rule="evenodd" fill="none" stroke="#000000" stroke-width="2" stroke-linecap="round" stroke-linejoin="round" stroke-miterlimit="10" d="
				M283.28,123.72c-2.32,0.08-4.64,0.16-6.96,0.24"/>
			
				<path fill-rule="evenodd" clip-rule="evenodd" fill="none" stroke="#000000" stroke-width="2" stroke-linecap="round" stroke-linejoin="round" stroke-miterlimit="10" d="
				M428.96,132.12c0.46-4.184,0.262-8.342-0.48-12.48"/>
			
				<path fill-rule="evenodd" clip-rule="evenodd" fill="none" stroke="#000000" stroke-width="2" stroke-linecap="round" stroke-linejoin="round" stroke-miterlimit="10" d="
				M495.439,125.64c-3.014,0.562-6.024,1.161-9.119,0.96"/>
			
				<path fill-rule="evenodd" clip-rule="evenodd" fill="none" stroke="#000000" stroke-width="2" stroke-linecap="round" stroke-linejoin="round" stroke-miterlimit="10" d="
				M526.16,550.92c-2.333-1.207-4.104-3.339-6.72-4.08"/>
			
				<path fill-rule="evenodd" clip-rule="evenodd" fill="none" stroke="#000000" stroke-width="2" stroke-linecap="round" stroke-linejoin="round" stroke-miterlimit="10" d="
				M479.841,552.84c-1.844,2.033-3.72,4.041-5.04,6.48"/>
			
				<path fill-rule="evenodd" clip-rule="evenodd" fill="none" stroke="#000000" stroke-width="2" stroke-linecap="round" stroke-linejoin="round" stroke-miterlimit="10" d="
				M227.12,127.56c-1.65,1.367-3.62,0.991-5.238,0.37c-1.248-0.479-1.751-0.115-2.441,0.59"/>
			
				<path fill-rule="evenodd" clip-rule="evenodd" fill="none" stroke="#000000" stroke-width="2" stroke-linecap="round" stroke-linejoin="round" stroke-miterlimit="10" d="
				M486.561,546.12c-2.609,1.339-3.872,3.969-5.76,6"/>
			
				<path fill-rule="evenodd" clip-rule="evenodd" fill="none" stroke="#000000" stroke-width="2" stroke-linecap="round" stroke-linejoin="round" stroke-miterlimit="10" d="
				M623.36,548.04c-2.09-2.008-4.675-2.99-7.44-3.601"/>
			
				<path fill-rule="evenodd" clip-rule="evenodd" fill="none" stroke="#000000" stroke-width="2" stroke-linecap="round" stroke-linejoin="round" stroke-miterlimit="10" d="
				M585.2,542.52c-2.441,1.36-3.932,3.755-6,5.521"/>
			
				<path fill-rule="evenodd" clip-rule="evenodd" fill="none" stroke="#000000" stroke-width="2" stroke-linecap="round" stroke-linejoin="round" stroke-miterlimit="10" d="
				M578.24,548.76c-1.893,1.957-4.45,3.19-6,5.521"/>
			
				<path fill-rule="evenodd" clip-rule="evenodd" fill="none" stroke="#000000" stroke-width="2" stroke-linecap="round" stroke-linejoin="round" stroke-miterlimit="10" d="
				M497.841,130.68c-3.408,0.674-6.852,0.958-10.32,0.949c-0.4-0.001-0.8-0.149-1.2-0.229"/>
			
				<path fill-rule="evenodd" clip-rule="evenodd" fill="none" stroke="#000000" stroke-width="2" stroke-linecap="round" stroke-linejoin="round" stroke-miterlimit="10" d="
				M161.601,119.64c-0.482,1.301-1.597,0.493-2.401,0.716c-2.435,0.677-4.944,0.896-7.439,1.204"/>
			
				<path fill-rule="evenodd" clip-rule="evenodd" fill="none" stroke="#000000" stroke-width="2" stroke-linecap="round" stroke-linejoin="round" stroke-miterlimit="10" d="
				M630.32,543.24c-3.415,1.638-6.04,4.33-8.851,6.754c-1.229,1.059-3.023,1.662-3.39,3.565"/>
			
				<path fill-rule="evenodd" clip-rule="evenodd" fill="none" stroke="#000000" stroke-width="2" stroke-linecap="round" stroke-linejoin="round" stroke-miterlimit="10" d="
				M304.641,438.84c-3.358,3.065-4.377,1.694-8.072-1.309c-1.049-0.853-2.035-1.557-3.217-1.763
				c-2.453-0.428-4.374-2.032-6.688-2.766c-0.716-0.227-1.144-1.363-1.704-2.083"/>
			
				<path fill-rule="evenodd" clip-rule="evenodd" fill="none" stroke="#000000" stroke-width="2" stroke-linecap="round" stroke-linejoin="round" stroke-miterlimit="10" d="
				M230.24,132.6c-2.052-4.002-3.802-8.186-6.96-11.52"/>
			
				<path fill-rule="evenodd" clip-rule="evenodd" fill="none" stroke="#000000" stroke-width="2" stroke-linecap="round" stroke-linejoin="round" stroke-miterlimit="10" d="
				M290.48,417.24c-2.561,0.479-5.12,0.96-7.681,1.439"/>
			
				<path fill-rule="evenodd" clip-rule="evenodd" fill="none" stroke="#000000" stroke-width="2" stroke-linecap="round" stroke-linejoin="round" stroke-miterlimit="10" d="
				M288.08,448.439c2.069-0.688,4.436-0.863,5.544-3.229c0.059-0.125,0.456-0.091,0.696-0.131"/>
			
				<path fill-rule="evenodd" clip-rule="evenodd" fill="none" stroke="#000000" stroke-width="2" stroke-linecap="round" stroke-linejoin="round" stroke-miterlimit="10" d="
				M422.24,107.88c-2.498,0.303-4.026,1.748-4.8,4.08"/>
			
				<path fill-rule="evenodd" clip-rule="evenodd" fill="none" stroke="#000000" stroke-width="2" stroke-linecap="round" stroke-linejoin="round" stroke-miterlimit="10" d="
				M292.16,423.479c-1.724-1.809-3.667-1.975-5.757-0.715c-2.114,1.274-4.301,1.909-6.724,0.955"/>
			
				<path fill-rule="evenodd" clip-rule="evenodd" fill="none" stroke="#000000" stroke-width="2" stroke-linecap="round" stroke-linejoin="round" stroke-miterlimit="10" d="
				M316.641,437.399c-1.031-1.739-1.236-3.838-2.4-5.52"/>
			
				<path fill-rule="evenodd" clip-rule="evenodd" fill="none" stroke="#000000" stroke-width="2" stroke-linecap="round" stroke-linejoin="round" stroke-miterlimit="10" d="
				M223.28,121.8c-1.365,1.608-1.943,3.592-2.64,5.52"/>
			
				<path fill-rule="evenodd" clip-rule="evenodd" fill="none" stroke="#000000" stroke-width="2" stroke-linecap="round" stroke-linejoin="round" stroke-miterlimit="10" d="
				M351.68,401.64c-0.509,0.582-1.104,1.352-1.893,0.913c-0.799-0.445-1.336-1.35-1.199-2.35c0.091-0.66,0.452-1.283,0.692-1.923"/>
			
				<path fill-rule="evenodd" clip-rule="evenodd" fill="none" stroke="#000000" stroke-width="2" stroke-linecap="round" stroke-linejoin="round" stroke-miterlimit="10" d="
				M304.88,429.96c-1.833-0.213-3.338-1.629-5.279-1.44"/>
			
				<path fill-rule="evenodd" clip-rule="evenodd" fill="none" stroke="#000000" stroke-width="2" stroke-linecap="round" stroke-linejoin="round" stroke-miterlimit="10" d="
				M319.521,421.56c-1.412-1.643-3.787-1.902-5.16-3.6"/>
			
				<path fill-rule="evenodd" clip-rule="evenodd" fill="none" stroke="#000000" stroke-width="2" stroke-linecap="round" stroke-linejoin="round" stroke-miterlimit="10" d="
				M259.28,273c-1.601,1.6-3.2,3.2-4.8,4.8"/>
			
				<path fill-rule="evenodd" clip-rule="evenodd" fill="none" stroke="#000000" stroke-width="2" stroke-linecap="round" stroke-linejoin="round" stroke-miterlimit="10" d="
				M531.44,545.88c-2.959,3.057-6.223,5.88-7.681,10.08"/>
			
				<path fill-rule="evenodd" clip-rule="evenodd" fill="none" stroke="#000000" stroke-width="2" stroke-linecap="round" stroke-linejoin="round" stroke-miterlimit="10" d="
				M463.28,135.72c-2.147-0.572-2.829-2.61-4.08-4.08"/>
			
				<path fill-rule="evenodd" clip-rule="evenodd" fill="none" stroke="#000000" stroke-width="2" stroke-linecap="round" stroke-linejoin="round" stroke-miterlimit="10" d="
				M282.561,424.68c-0.673,1.758-2.982,2.207-3.36,4.2"/>
			
				<path fill-rule="evenodd" clip-rule="evenodd" fill="none" stroke="#000000" stroke-width="2" stroke-linecap="round" stroke-linejoin="round" stroke-miterlimit="10" d="
				M295.521,411.479c0.079,0.32,0.185,0.637,0.236,0.961c0.729,4.573,0.112,5.158-4.797,4.56"/>
			
				<path fill-rule="evenodd" clip-rule="evenodd" fill="none" stroke="#000000" stroke-width="2" stroke-linecap="round" stroke-linejoin="round" stroke-miterlimit="10" d="
				M199.28,396.84c-1.323,1.216-1.603,3.156-2.897,4.412c-1.046-0.935-1.061-2.312-1.856-3.226
				c-1.504-0.004-1.285,1.654-2.206,2.174"/>
			
				<path fill-rule="evenodd" clip-rule="evenodd" fill="none" stroke="#000000" stroke-width="2" stroke-linecap="round" stroke-linejoin="round" stroke-miterlimit="10" d="
				M380.24,125.4c-0.894-1.47-2.362-0.786-3.601-0.956c-0.717-0.099-1.439,0.581-2.159-0.004"/>
			
				<path fill-rule="evenodd" clip-rule="evenodd" fill="none" stroke="#000000" stroke-width="2" stroke-linecap="round" stroke-linejoin="round" stroke-miterlimit="10" d="
				M307.76,435.72c-1.566-1.345-3.324-0.688-5.04-0.481c-1.62,0.195-1.156,1.812-1.078,2.385c0.187,1.364-0.229,2.787,0.358,4.097"
				/>
			
				<path fill-rule="evenodd" clip-rule="evenodd" fill="none" stroke="#000000" stroke-width="2" stroke-linecap="round" stroke-linejoin="round" stroke-miterlimit="10" d="
				M302.96,417.24c0.053-0.693-0.082-1.351-0.484-1.917c-1.134-1.595-0.914-3.021,0.484-4.323"/>
			
				<path fill-rule="evenodd" clip-rule="evenodd" fill="none" stroke="#000000" stroke-width="2" stroke-linecap="round" stroke-linejoin="round" stroke-miterlimit="10" d="
				M289.521,421.56c2.073-4.196,1.724-5.519-2.16-8.16"/>
			
				<path fill-rule="evenodd" clip-rule="evenodd" fill="none" stroke="#000000" stroke-width="2" stroke-linecap="round" stroke-linejoin="round" stroke-miterlimit="10" d="
				M383.12,111c-1.663,0.644-3.11,1.569-4.08,3.12"/>
			
				<path fill-rule="evenodd" clip-rule="evenodd" fill="none" stroke="#000000" stroke-width="2" stroke-linecap="round" stroke-linejoin="round" stroke-miterlimit="10" d="
				M307.28,439.32c-1.76-0.961-3.521-1.921-5.28-2.881"/>
			
				<path fill-rule="evenodd" clip-rule="evenodd" fill="none" stroke="#000000" stroke-width="2" stroke-linecap="round" stroke-linejoin="round" stroke-miterlimit="10" d="
				M300.561,432.84c0-0.08,0.034-0.194-0.006-0.235c-1.544-1.566-0.274-3.972-1.491-5.479c-1.199-1.487-3.523-1.763-4.503-3.646"/>
			
				<path fill-rule="evenodd" clip-rule="evenodd" fill="none" stroke="#000000" stroke-width="2" stroke-linecap="round" stroke-linejoin="round" stroke-miterlimit="10" d="
				M313.28,429c-0.672,0.375-1.496,0.782-2.139,0.44c-1.899-1.011-3.701-0.25-5.541,0.039"/>
			
				<path fill-rule="evenodd" clip-rule="evenodd" fill="none" stroke="#000000" stroke-width="2" stroke-linecap="round" stroke-linejoin="round" stroke-miterlimit="10" d="
				M309.92,420.359c-1.183,0.801-2.895,0.927-3.359,2.641"/>
			
				<path fill-rule="evenodd" clip-rule="evenodd" fill="none" stroke="#000000" stroke-width="2" stroke-linecap="round" stroke-linejoin="round" stroke-miterlimit="10" d="
				M310.16,434.28c-0.957-0.975-1.824-2.087-3.36-2.16"/>
			
				<path fill-rule="evenodd" clip-rule="evenodd" fill="none" stroke="#000000" stroke-width="2" stroke-linecap="round" stroke-linejoin="round" stroke-miterlimit="10" d="
				M311.12,423.24c-1.68-0.012-3.348,1.082-5.056,0.024c-0.215-0.134-0.612-0.05-0.96,0.193c-1.564,1.091-3.185,2.102-4.784,3.142"
				/>
			
				<path fill-rule="evenodd" clip-rule="evenodd" fill="none" stroke="#000000" stroke-width="2" stroke-linecap="round" stroke-linejoin="round" stroke-miterlimit="10" d="
				M420.08,122.52c-2.033-0.04-3.991,0.553-6,0.72"/>
			
				<path fill-rule="evenodd" clip-rule="evenodd" fill="none" stroke="#000000" stroke-width="2" stroke-linecap="round" stroke-linejoin="round" stroke-miterlimit="10" d="
				M218.96,128.28c1.361,1.609-0.595,2.85-0.479,4.32"/>
			
				<path fill-rule="evenodd" clip-rule="evenodd" fill="none" stroke="#000000" stroke-width="2" stroke-linecap="round" stroke-linejoin="round" stroke-miterlimit="10" d="
				M302.96,422.28c-1.373,1.167-3.124-0.055-4.56,0.72"/>
			
				<path fill-rule="evenodd" clip-rule="evenodd" fill="none" stroke="#000000" stroke-width="2" stroke-linecap="round" stroke-linejoin="round" stroke-miterlimit="10" d="
				M297.68,434.52c-0.833-1.379-2.24-1.977-3.6-2.64"/>
			
				<path fill-rule="evenodd" clip-rule="evenodd" fill="none" stroke="#000000" stroke-width="2" stroke-linecap="round" stroke-linejoin="round" stroke-miterlimit="10" d="
				M287.601,420.84c-0.667-1.259-2.456-0.897-3.12-2.16"/>
			
				<path fill-rule="evenodd" clip-rule="evenodd" fill="none" stroke="#000000" stroke-width="2" stroke-linecap="round" stroke-linejoin="round" stroke-miterlimit="10" d="
				M353.601,397.08c1.062-2.206,1.888-4.453,1.199-6.96"/>
			
				<path fill-rule="evenodd" clip-rule="evenodd" fill="none" stroke="#000000" stroke-width="2" stroke-linecap="round" stroke-linejoin="round" stroke-miterlimit="10" d="
				M300.32,412.68c-1.106,0.877-2.271,1.654-3.601,2.16"/>
			
				<path fill-rule="evenodd" clip-rule="evenodd" fill="none" stroke="#000000" stroke-width="2" stroke-linecap="round" stroke-linejoin="round" stroke-miterlimit="10" d="
				M304.16,430.439c-2.056,3.007-5.443,4.068-8.4,5.761"/>
			
				<path fill-rule="evenodd" clip-rule="evenodd" fill="none" stroke="#000000" stroke-width="2" stroke-linecap="round" stroke-linejoin="round" stroke-miterlimit="10" d="
				M315.44,415.8c0.032,1.472-0.693,2.101-2.159,2.18c-2.926,0.157-3.191,0.885-2.238,3.845c0.33,1.025,0.891,1.664,1.518,2.376"/>
			
				<path fill-rule="evenodd" clip-rule="evenodd" fill="none" stroke="#000000" stroke-width="2" stroke-linecap="round" stroke-linejoin="round" stroke-miterlimit="10" d="
				M304.88,423.479c-0.827-1.936-3.307-1.887-4.319-3.6"/>
			
				<path fill-rule="evenodd" clip-rule="evenodd" fill="none" stroke="#000000" stroke-width="2" stroke-linecap="round" stroke-linejoin="round" stroke-miterlimit="10" d="
				M298.4,426.12c0.522-1.423,0.147-2.678-0.641-3.851c-1.705,0.011-3.057,1.051-4.64,1.205c-0.268,0.025-0.684-0.052-0.699,0.246
				c-0.127,2.521-2.905,2.767-3.86,4.56"/>
			
				<path fill-rule="evenodd" clip-rule="evenodd" fill="none" stroke="#000000" stroke-width="2" stroke-linecap="round" stroke-linejoin="round" stroke-miterlimit="10" d="
				M303.68,421.56c0.559-1.079,0.042-1.979-0.479-2.88"/>
			
				<path fill-rule="evenodd" clip-rule="evenodd" fill="none" stroke="#000000" stroke-width="2" stroke-linecap="round" stroke-linejoin="round" stroke-miterlimit="10" d="
				M293.601,435.479c0.077-0.999-0.054-1.964-0.48-2.88"/>
			
				<path fill-rule="evenodd" clip-rule="evenodd" fill="none" stroke="#000000" stroke-width="2" stroke-linecap="round" stroke-linejoin="round" stroke-miterlimit="10" d="
				M314.96,430.2c-0.421,1.887-2.523,2.559-3.12,4.319"/>
			
				<path fill-rule="evenodd" clip-rule="evenodd" fill="none" stroke="#000000" stroke-width="2" stroke-linecap="round" stroke-linejoin="round" stroke-miterlimit="10" d="
				M293.601,430.439c0.101,0.999,0.015,2.065-1.202,2.109c-1.16,0.043-1.428,1.026-2.158,1.491"/>
			
				<path fill-rule="evenodd" clip-rule="evenodd" fill="none" stroke="#000000" stroke-width="2" stroke-linecap="round" stroke-linejoin="round" stroke-miterlimit="10" d="
				M445.521,115.56c-0.342,0.906-1.272,1.545-1.2,2.64"/>
			
				<path fill-rule="evenodd" clip-rule="evenodd" fill="none" stroke="#000000" stroke-width="2" stroke-linecap="round" stroke-linejoin="round" stroke-miterlimit="10" d="
				M314,435c-1.769,0.063-3.558-1.208-5.325,0.432c-0.958,0.89-1.759,1.798-2.354,2.928"/>
			
				<path fill-rule="evenodd" clip-rule="evenodd" fill="none" stroke="#000000" stroke-width="2" stroke-linecap="round" stroke-linejoin="round" stroke-miterlimit="10" d="
				M297.44,422.16c1.188-2.511,1.131-2.729-1.44-5.4"/>
			
				<path fill-rule="evenodd" clip-rule="evenodd" fill="none" stroke="#000000" stroke-width="2" stroke-linecap="round" stroke-linejoin="round" stroke-miterlimit="10" d="
				M527.36,200.04c-0.341,0.522-0.214,1.112-0.24,1.68"/>
		</g>
	</g>
</g>
</svg>
