<?xml version="1.0" encoding="utf-8"?>
<!-- Generator: Adobe Illustrator 16.0.0, SVG Export Plug-In . SVG Version: 6.00 Build 0)  -->
<!DOCTYPE svg PUBLIC "-//W3C//DTD SVG 1.1//EN" "http://www.w3.org/Graphics/SVG/1.1/DTD/svg11.dtd">
<svg version="1.1" id="Calque_1" xmlns="http://www.w3.org/2000/svg" xmlns:xlink="http://www.w3.org/1999/xlink" x="0px" y="0px"
	 width="843px" height="596px" viewBox="0 0 843 596" enable-background="new 0 0 843 596" xml:space="preserve">
<g>
	<g>
		
			<path fill-rule="evenodd" clip-rule="evenodd" fill="none" stroke="#000000" stroke-width="2" stroke-linecap="round" stroke-linejoin="round" stroke-miterlimit="10" d="
			M200,405.5c1.344,5.021-1.82,9.183-3.26,13.411c-2.668,7.835-0.635,15.414-0.661,23.089c-0.002,0.531,0.983,1.043,0.947,2.001
			c-0.655,17.326,1.046,34.681-0.866,52.017c-0.409,3.713-1.47,7.562-0.231,11.505c1.52,4.841-2.408,6.998-5.239,9.545
			c-2.201-0.101-3.875-1.768-6.247-0.694c-1.677,0.759-4.152-0.059-4.784-1.927c-0.472-1.395-0.076-4.059,0.938-4.817
			c5.795-4.342,4.876-9.492,3.61-15.671c-1.834-8.953-2.583-18.101-5.005-27.013c-0.95-3.494-0.441-7.592,0.211-11.46
			c0.894-5.297,0.827-10.604-0.297-16.01c-1.47-7.068-1.639-14.417-3.229-21.45c-2.253-9.966-3.312-19.994-1.687-29.993
			c0.815-5.014,1.735-9.915,1.907-15.028c0.166-4.928-1.391-8.52-5.6-11.015c-0.712-0.423-1.348-0.979-2.005-1.491
			c-4.868-3.785-6.356-8.507-4.546-14.512c2.684-8.901,5.07-17.885,7.154-26.961c1.277-5.563,5.183-9.47,10.375-12.058
			c3.352-1.671,7.167-2.729,9.491-5.985c1.338-1.875,2.265-4.067-0.987-4.937c-3.997-1.068-5.021-3.9-5.541-7.538
			c-0.945-6.619-0.771-12.988,2.543-19.013c3.249-5.906,12.215-10.069,18.508-8.491c4.008,1.006,10.24,9.821,10.599,14.488
			c0.591,7.685-2.87,12.769-9.402,16.473c3.433,5.521,7.591,8.573,14.198,10.417c9.94,2.772,14.251,11.23,14.103,21.618
			c-0.115,8.067,1.501,16.037,1.722,24.008c0.183,6.603,0.195,13.342-0.308,19.985c-0.234,3.091-0.16,5.934,0.429,9.037
			c1.319,6.957-0.556,14.011-1.199,20.937c-0.381,4.105-5.118,7.416-8.794,9.796c-1.963,1.27-2.069,2.404-1.776,3.722
			c1.965,8.863,0.978,17.719-0.137,26.507c-1.711,13.492-0.789,27.003-0.976,40.508c-0.06,4.338-0.501,8.682-0.987,12.997
			c-0.641,5.686,0.833,10.514,5.015,14.521c2.533,2.428,5.168,5.834,2.785,8.798c-2.22,2.76-6.528,2.992-10.267,1.678
			c-6.763-2.377-9.862-7.759-10.646-14.977c-1.125-10.351-1.348-20.726-0.661-31.003c0.71-10.608-1.928-20.434-3.976-30.558
			c-0.935-4.619-0.458-9.655-1.23-14.453c-0.811-5.036-0.492-10.302-2.989-15.002"/>
		
			<path fill-rule="evenodd" clip-rule="evenodd" fill="none" stroke="#000000" stroke-width="2" stroke-linecap="round" stroke-linejoin="round" stroke-miterlimit="10" d="
			M348.5,328.5c0-18.167,0-36.333,0-54.555c-3.433-1.898-7.391-1.861-10.997-1.793c-11.037,0.208-22.008-0.786-32.999-1.241
			c-21.504-0.89-43.029-1.278-64.509-2.836c-8.633-0.625-17.328-0.408-25.995-0.575"/>
		
			<path fill-rule="evenodd" clip-rule="evenodd" fill="none" stroke="#000000" stroke-width="2" stroke-linecap="round" stroke-linejoin="round" stroke-miterlimit="10" d="
			M188,266.5c-10.491-0.572-20.982-1.145-31.75-1.731c0,40.731,0,80.731,0,120.929c6.037,0.956,11.972-0.491,17.75,0.803"/>
		
			<path fill-rule="evenodd" clip-rule="evenodd" fill="none" stroke="#000000" stroke-width="2" stroke-linecap="round" stroke-linejoin="round" stroke-miterlimit="10" d="
			M409.5,385.5c-8.319-0.886-16.665-0.461-25-0.492c-9.5-0.035-19-0.021-28.5,0.004c-1.837,0.005-3.673,0.157-5.87,0.259
			c2.218,4.527,6.271,7.013,9.054,10.586c5.192,6.666,11.535,12.429,17.273,18.683c1.215,1.324,2.477,1.477,4.042,1.477
			c32.833-0.021,65.666-0.011,98.5-0.036c1.167-0.001,2.334-0.311,4.095-0.562C475.023,404.782,465.162,396.125,457,386"/>
		
			<path fill-rule="evenodd" clip-rule="evenodd" fill="none" stroke="#000000" stroke-width="2" stroke-linecap="round" stroke-linejoin="round" stroke-miterlimit="10" d="
			M339.5,381c10.051,12.389,21.272,23.734,31.74,35.728c3.471,3.977,6.607,4.276,10.76,4.275c35.5-0.005,71-0.002,106.5-0.006
			c2.012,0,4.045,0.21,6.63-0.81c-11.295-12.322-22.462-24.505-33.63-36.688"/>
		
			<path fill-rule="evenodd" clip-rule="evenodd" fill="none" stroke="#000000" stroke-width="2" stroke-linecap="round" stroke-linejoin="round" stroke-miterlimit="10" d="
			M154.5,130c1.667-0.333,3.469-0.366,4.978-1.049c10.376-4.686,20.567-3.94,30.46,1.168c1.684,0.869,3.54,1.771,5.057,1.726
			c5.169-0.156,9.722,2.099,14.545,2.918c7.75,1.317,10.685,6.039,12.501,12.727c3.458,12.731,4.762,25.944,8.828,38.553
			c0.74,2.294,1.368,4.385,3.145,5.942c4.805,4.211,1.649,9.06,0.848,13.49c-0.703,3.888-4.232,5.832-7.877,6.428
			c-3.979,0.65-7.128-0.795-9.076-4.858C216.365,203.825,214,201,212,198"/>
		
			<path fill-rule="evenodd" clip-rule="evenodd" fill="none" stroke="#000000" stroke-width="2" stroke-linecap="round" stroke-linejoin="round" stroke-miterlimit="10" d="
			M353.5,120c0-9.333,0-18.667,0-28.363c-4.869-1.451-10.023-0.686-15.009-0.995c-14.475-0.899-28.989-1.236-43.493-1.588
			c-4.838-0.118-9.609-2.003-14.499-0.554"/>
		
			<path fill-rule="evenodd" clip-rule="evenodd" fill="none" stroke="#000000" stroke-width="2" stroke-linecap="round" stroke-linejoin="round" stroke-miterlimit="10" d="
			M444.5,170.5c-2.97-9.108-11.176-14.194-16.583-21.438c-2.276-3.05-4.503-6.093-5.855-9.586
			c-2.232-5.766-6.059-9.923-11.003-13.556c-8.381-6.159-14.203-4.69-20.225,3.963c-5.036,7.237-4.141,14.537-2.716,22.094
			c0.485,2.572,0.102,4.784-0.661,7.008c-1.499,4.369-0.18,6.704,4.543,7.515"/>
		
			<path fill-rule="evenodd" clip-rule="evenodd" fill="none" stroke="#000000" stroke-width="2" stroke-linecap="round" stroke-linejoin="round" stroke-miterlimit="10" d="
			M264.5,87.5c-5.333,0-10.667,0-16.25,0c0,21.667,0,43.333,0,65.101c3.327,1.084,6.683-0.378,9.75,0.899"/>
		
			<path fill-rule="evenodd" clip-rule="evenodd" fill="none" stroke="#000000" stroke-width="2" stroke-linecap="round" stroke-linejoin="round" stroke-miterlimit="10" d="
			M459,472.5c-9.349-1.524-18.316-0.297-27.018,3.46c-3.436,1.484-4.93,5.412-8.492,6.51c-11.129,3.427-17.477,13.271-26.466,19.565
			c-4.474,3.133-8.618,6.733-13.053,9.925c-2.452,1.764-5.367,1.59-7.385-0.541c-1.797-1.898-0.987-4.387,0.432-6.406
			c1.429-2.033,2.255-4.644,5.43-5.152c0.258,1.053,3.656,0.679,2.076,3.652c-1.741,3.277-3.729,6.021-8.024,5.487"/>
		
			<path fill-rule="evenodd" clip-rule="evenodd" fill="none" stroke="#000000" stroke-width="2" stroke-linecap="round" stroke-linejoin="round" stroke-miterlimit="10" d="
			M312.5,385c-24.833,0.167-49.667,0.333-74.5,0.5"/>
		
			<path fill-rule="evenodd" clip-rule="evenodd" fill="none" stroke="#000000" stroke-width="2" stroke-linecap="round" stroke-linejoin="round" stroke-miterlimit="10" d="
			M272,163.5c2.727,9.993,3.85,20.26,4.918,30.509c0.481,4.616,0.323,9.341,0.006,13.986c-0.257,3.779,0.859,7.333,1.223,10.99
			c0.481,4.828,5.582,6.474,10.918,3.984c-0.368-1.117,0.564-2.578-0.587-3.441c-3.641-2.732-3.54-6.567-3.508-10.528
			c0.087-10.855-0.15-21.714,1.466-32.51c0.29-1.935,0.05-3.975-0.326-6.011c-0.418-2.262-0.813-4.966,1.893-6.473
			c4.919-2.737,4.645-7.781,4.329-11.994c-0.864-11.5,0.52-23.052-1.255-34.524c-0.838-5.421-3.176-9.039-8.078-10.488
			c-3.969-1.173-3.969-1.173-6.667-5.252c1.686-2.069,4.256-3.657,4.694-6.744c0.612-4.326-2.67-9.489-6.527-10.004
			c-5.24-0.7-10.049,2.227-10.394,7.008c-0.349,4.821-2.091,10.37,4.832,14.424c-0.813,0.356-1.595,0.824-2.442,1.051
			c-9.267,2.481-10.755,10.412-12.381,18.042c-0.416,1.951-0.707,4.248-1.354,5.881c-1.273,3.21-0.684,5.649,1.799,6.985
			c5.554,2.989,5.08,8.068,4.272,12.579c-1.274,7.113-1.2,14.09,0.249,21.014c1.423,6.801,2.443,13.621,1.831,20.509
			c-0.524,5.896,1.426,11.39,2.367,16.961c0.869,5.143,0.631,9.379-2.77,13.353c7.48,2.959,9.244,1.72,9.554-5.303
			c0.389-8.833,1.194-17.652,0.903-26.502c-0.132-4.007-0.414-8.035-1.026-11.991c-0.642-4.149,0.158-7.892,2.06-11.51"/>
		
			<path fill-rule="evenodd" clip-rule="evenodd" fill="none" stroke="#000000" stroke-width="2" stroke-linecap="round" stroke-linejoin="round" stroke-miterlimit="10" d="
			M469,97c-1.334,1-2.658,2.011-4.002,2.998c-4.785,3.521-9.242,6.975-9.217,14.003c0.011,2.661-2.896,5.208-3.681,8.027
			c-1.313,4.73-0.386,9.676-0.485,14.464c-0.188,9.061,4.797,16.759,4.885,25.508"/>
		
			<path fill-rule="evenodd" clip-rule="evenodd" fill="none" stroke="#000000" stroke-width="2" stroke-linecap="round" stroke-linejoin="round" stroke-miterlimit="10" d="
			M523.5,118.5c1.167,0.167,2.336,0.495,3.5,0.476c19.512-0.315,38.981,1.765,58.501,1.051c0.992-0.036,1.999,0.307,2.999,0.474"/>
		
			<path fill-rule="evenodd" clip-rule="evenodd" fill="none" stroke="#000000" stroke-width="2" stroke-linecap="round" stroke-linejoin="round" stroke-miterlimit="10" d="
			M466,321c3.572-2.638,8.197-3.551,11.047-7.466c7.8-10.712,2.273-24.881-5.014-30.08c-11.156-7.959-26.679-2.478-31.408,8.102
			c-3.857,8.629-1.922,19.36,6.187,24.729c6.091,4.033,12.542,2.977,18.688,4.716"/>
		
			<path fill-rule="evenodd" clip-rule="evenodd" fill="none" stroke="#000000" stroke-width="2" stroke-linecap="round" stroke-linejoin="round" stroke-miterlimit="10" d="
			M367,192c-0.844,1.76-2.096,3.284-3.108,4.934c-4.43,7.224-3.125,13.428,4.115,17.053c5.66,2.833,11.92,3.58,17.976,5.084
			c6.993,1.736,13.166,5.673,19.896,8.249c7.688,2.943,14.352,0.93,19.399-3.099c9.088-7.253,18.904-12.481,29.723-16.221"/>
		
			<path fill-rule="evenodd" clip-rule="evenodd" fill="none" stroke="#000000" stroke-width="2" stroke-linecap="round" stroke-linejoin="round" stroke-miterlimit="10" d="
			M526,354c3.586,10.437,5.363,21.327,7.906,32.022c0.513,2.159,1.84,4.139,1.128,5.978c9.14,0,17.803,0,26.466,0"/>
		
			<path fill-rule="evenodd" clip-rule="evenodd" fill="none" stroke="#000000" stroke-width="2" stroke-linecap="round" stroke-linejoin="round" stroke-miterlimit="10" d="
			M503,466c-3.539,7.831-10.691,11.16-18.026,13.93c-9.3,3.511-17.499,8.264-24.109,15.953c-2.85,3.314-6.028,7.251-11.364,7.117"/>
		
			<path fill-rule="evenodd" clip-rule="evenodd" fill="none" stroke="#000000" stroke-width="2" stroke-linecap="round" stroke-linejoin="round" stroke-miterlimit="10" d="
			M324,154c-4.482,4.026-7.739,9.038-10.902,14.062c-0.865,1.374-1.575,2.245-3.042,3.042c-2.623,1.425-4.206,4.127-4.938,6.928
			c-0.458,1.754-0.812,4.074,1.376,5.477c2.025,1.299,4.222,1.561,5.954-0.063c2.541-2.381,6.329-2.627,8.629-5.381
			c0.26-0.311,1.607-0.34,2.452,0.401c1.488,1.307-0.958,1.582-0.53,2.534"/>
		
			<path fill-rule="evenodd" clip-rule="evenodd" fill="none" stroke="#000000" stroke-width="2" stroke-linecap="round" stroke-linejoin="round" stroke-miterlimit="10" d="
			M529,266.5c1.893,10.598,5.627,20.785,7.013,31.498c0.339,2.626,2.187,3.009,4.486,3.045c4.334,0.068,8.699-0.542,13.001,0.457"/>
		
			<path fill-rule="evenodd" clip-rule="evenodd" fill="none" stroke="#000000" stroke-width="2" stroke-linecap="round" stroke-linejoin="round" stroke-miterlimit="10" d="
			M314,196c-3.691,4.276-9.474,3.649-14.029,5.943c-1.996,1.005-4.351,1.27-6.461,2.082c-4.405,1.694-5.589,4.386-3.455,8.949
			c2.811,6.012,6.08,11.793,11.445,16.025"/>
		
			<path fill-rule="evenodd" clip-rule="evenodd" fill="none" stroke="#000000" stroke-width="2" stroke-linecap="round" stroke-linejoin="round" stroke-miterlimit="10" d="
			M421,461c-2,1.833-3.838,3.897-6.041,5.441c-2.775,1.945-5.548,3.391-9.465,3.277c-5.962-0.173-12.099,0.604-17.942,1.586
			c-5.699,0.958-11.399,2.999-17.026,4.774c-5.619,1.773-11.013,4.109-16.083,7.33c-6.201,3.939-12.907,3.366-16.486-0.367
			c-1.365-1.424-0.961-2.375,0.044-3.542"/>
		
			<path fill-rule="evenodd" clip-rule="evenodd" fill="none" stroke="#000000" stroke-width="2" stroke-linecap="round" stroke-linejoin="round" stroke-miterlimit="10" d="
			M558,202c-8.391,3.197-17.305,4.146-26.014,5.934c-5.762,1.184-11.653,1.733-17.486,2.566"/>
		
			<path fill-rule="evenodd" clip-rule="evenodd" fill="none" stroke="#000000" stroke-width="2" stroke-linecap="round" stroke-linejoin="round" stroke-miterlimit="10" d="
			M395.5,452c-4.569,0.688-8.908,2.337-13.445,3.268c-5.213,1.069-9.932,4.239-14.655,7.065c-4.204,2.515-9.024,4.98-14.4,2.667"/>
		
			<path fill-rule="evenodd" clip-rule="evenodd" fill="none" stroke="#000000" stroke-width="2" stroke-linecap="round" stroke-linejoin="round" stroke-miterlimit="10" d="
			M193.5,131c1.89-5.948,7.859-8.508,11.238-13.333c1.655-2.364,2.449-4.821,3.06-7.219c0.536-2.102,1.356-5.076-1.298-6.948
			c2.788-1.789,1.727-4.647,0.846-6.424c-1.785-3.595-1.037-7.678-4.107-11.279c-5.179-6.077-10.374-9.131-18.735-9.199
			c-6.083-0.051-11.305-0.166-16.619,3.221c-2.074,1.322-3.119,2.868-3.815,4.708c-2.172,5.739-5.045,11.174-7.341,16.864
			c-1.515,3.753-0.809,6.859,0.947,8.964c3.962,4.749,5.443,10.701,8.825,15.646"/>
		
			<path fill-rule="evenodd" clip-rule="evenodd" fill="none" stroke="#000000" stroke-width="2" stroke-linecap="round" stroke-linejoin="round" stroke-miterlimit="10" d="
			M402,365c-6.738,2.128-12.457,5.384-16.172,11.901c-1.206,2.115-3.997,3.274-7.329,3.256c-12.996-0.074-26.011-0.786-39.001,0.314
			c-0.648,0.055-1.331-0.305-1.998-0.472"/>
		
			<path fill-rule="evenodd" clip-rule="evenodd" fill="none" stroke="#000000" stroke-width="2" stroke-linecap="round" stroke-linejoin="round" stroke-miterlimit="10" d="
			M583.5,135.5c-10.667-0.167-21.333-0.351-32-0.482c-1.712-0.021-3.559-0.478-5,0.982"/>
		
			<path fill-rule="evenodd" clip-rule="evenodd" fill="none" stroke="#000000" stroke-width="2" stroke-linecap="round" stroke-linejoin="round" stroke-miterlimit="10" d="
			M465,160c-12.785,1.936-21.492,10.454-29.906,19.091c-4.658,4.781-7.534,11.057-11.441,16.519
			c-4.41,6.168-9.835,11.063-16.741,13.087c-4.699,1.377-10.305,0.936-15.383-0.311c-1.047-0.257-2.07-0.431-3.023-0.335
			c-3.807,0.383-6.639-0.729-8.007-4.55c-1.02-2.85-3.654-4.343-5.498-6.501"/>
		
			<path fill-rule="evenodd" clip-rule="evenodd" fill="none" stroke="#000000" stroke-width="2" stroke-linecap="round" stroke-linejoin="round" stroke-miterlimit="10" d="
			M586.5,92c-7.786,0.661-14.946,3.92-22.515,5.425c-3.808,0.757-7.332,3.246-11.485,2.075"/>
		
			<path fill-rule="evenodd" clip-rule="evenodd" fill="none" stroke="#000000" stroke-width="2" stroke-linecap="round" stroke-linejoin="round" stroke-miterlimit="10" d="
			M362.5,177.5c0.573-4.815,4.727-8.532,3.65-14.029c-0.797-4.072-1.503-7.396-6.141-8.511c-3.911-0.94-5.62-4.351-7.269-7.442
			c2.057-4.114,4.254-8.271,6.235-12.528c2.487-5.345,0.409-11.927-4.49-14.462c-1.154-0.598-2.294-0.116-3.508,0.422
			c-4.587,2.03-9.146,2.381-11.062,9.391c-1.662,6.084-0.636,10.448,0.918,15.709c0.687,2.327,2.115,2.377,3.108,1.843
			c2.661-1.431,5.36-0.813,8.059-0.892"/>
		
			<path fill-rule="evenodd" clip-rule="evenodd" fill="none" stroke="#000000" stroke-width="2" stroke-linecap="round" stroke-linejoin="round" stroke-miterlimit="10" d="
			M386,161.5c-8.422,4.196-14.174,10.566-15.911,20.017c-0.19,1.033-0.823,1.615-1.145,2.462c-2.712,7.161-2.754,7.146,4.056,11.021
			"/>
		
			<path fill-rule="evenodd" clip-rule="evenodd" fill="none" stroke="#000000" stroke-width="2" stroke-linecap="round" stroke-linejoin="round" stroke-miterlimit="10" d="
			M548,191c3.833,3.5,7.68,6.985,11.493,10.507c1.458,1.348,1.903,2.707,1.683,5.01c-0.539,5.615-0.176,11.316-0.176,16.688
			c-5.193,1.359-9.847,2.577-14.5,3.795"/>
		
			<path fill-rule="evenodd" clip-rule="evenodd" fill="none" stroke="#000000" stroke-width="2" stroke-linecap="round" stroke-linejoin="round" stroke-miterlimit="10" d="
			M593.5,204.5c-10.5,0.167-21,0.333-31.5,0.5"/>
		
			<path fill-rule="evenodd" clip-rule="evenodd" fill="none" stroke="#000000" stroke-width="2" stroke-linecap="round" stroke-linejoin="round" stroke-miterlimit="10" d="
			M293,152.5c6.142,1.083,12.379,0.8,18.488,0.344c6.526-0.486,13.028,0.34,19.51-0.356c3.664-0.395,7.432-0.671,9.501-4.487"/>
		
			<path fill-rule="evenodd" clip-rule="evenodd" fill="none" stroke="#000000" stroke-width="2" stroke-linecap="round" stroke-linejoin="round" stroke-miterlimit="10" d="
			M466,463.5c-2.343,6.618-7.406,10.714-12.957,14.563c-5.279,3.662-11.215,6.446-15.56,11.423
			c-4.47,5.119-3.423,11.765,2.54,14.971c0.318,0.172,0.977-0.289,1.477-0.456"/>
		
			<path fill-rule="evenodd" clip-rule="evenodd" fill="none" stroke="#000000" stroke-width="2" stroke-linecap="round" stroke-linejoin="round" stroke-miterlimit="10" d="
			M407.5,470.5c-3.348,3.653-5.865,7.993-9.962,11.051c-6.077,4.535-9.587,11.383-14.538,16.949"/>
		
			<path fill-rule="evenodd" clip-rule="evenodd" fill="none" stroke="#000000" stroke-width="2" stroke-linecap="round" stroke-linejoin="round" stroke-miterlimit="10" d="
			M208.5,182.5c2.583,3.135,1.969,7.18,1.749,10.483c-0.418,6.264,0.834,12.343,0.751,18.517"/>
		
			<path fill-rule="evenodd" clip-rule="evenodd" fill="none" stroke="#000000" stroke-width="2" stroke-linecap="round" stroke-linejoin="round" stroke-miterlimit="10" d="
			M567.5,138.5c7.313,1.104,14.67,0.203,22,0.505c1.84,0.076,3.729-0.349,5.5,0.495"/>
		
			<path fill-rule="evenodd" clip-rule="evenodd" fill="none" stroke="#000000" stroke-width="2" stroke-linecap="round" stroke-linejoin="round" stroke-miterlimit="10" d="
			M377,450c-5,2.167-10.389,3.733-14.897,6.658c-5.134,3.331-10.197,6.996-12.737,13.288c-1.936,4.795-7.077,6.485-11.366,8.804"/>
		
			<path fill-rule="evenodd" clip-rule="evenodd" fill="none" stroke="#000000" stroke-width="2" stroke-linecap="round" stroke-linejoin="round" stroke-miterlimit="10" d="
			M598.5,394.5c-7,1.833-13.964,3.831-21.026,5.381c-1.704,0.374-3.156,1.181-3.88,2.187c-6.181,8.58-13.603,16.067-20.594,23.933"
			/>
		
			<path fill-rule="evenodd" clip-rule="evenodd" fill="none" stroke="#000000" stroke-width="2" stroke-linecap="round" stroke-linejoin="round" stroke-miterlimit="10" d="
			M427,371c-4.229,4.411-9.344,6.265-15.45,7.295c-5.027,0.848-10.081,0.759-15.06,1.651c-2.712,0.485-4.267,2.306-5.99,4.054"/>
		
			<path fill-rule="evenodd" clip-rule="evenodd" fill="none" stroke="#000000" stroke-width="2" stroke-linecap="round" stroke-linejoin="round" stroke-miterlimit="10" d="
			M437,385.5c-3.166-0.333-6.332-0.68-9.5-0.996c-2.305-0.229-3.883,0.954-5.543,2.448c-3.866,3.482-8.007,6.658-11.921,10.089
			c-0.941,0.825-1.98,1.299-3.042,1.404c-2.925,0.291-4.01-0.746-1.995-3.445"/>
		
			<path fill-rule="evenodd" clip-rule="evenodd" fill="none" stroke="#000000" stroke-width="2" stroke-linecap="round" stroke-linejoin="round" stroke-miterlimit="10" d="
			M540.5,136c-2.202-1.988-5.053-1.026-7.521-1.338C527.546,133.974,522,134.167,516.5,134"/>
		
			<path fill-rule="evenodd" clip-rule="evenodd" fill="none" stroke="#000000" stroke-width="2" stroke-linecap="round" stroke-linejoin="round" stroke-miterlimit="10" d="
			M573,402c-8.244,0.772-16.323,1.699-22.067,8.946c-2.692,3.397-6.104,6.225-9.041,9.162c0.936,3.727,1.772,7.059,2.608,10.392"/>
		
			<path fill-rule="evenodd" clip-rule="evenodd" fill="none" stroke="#000000" stroke-width="2" stroke-linecap="round" stroke-linejoin="round" stroke-miterlimit="10" d="
			M460,258c-4.764,5.873-6.983,12.896-8.951,20.014c-0.201,0.731,0.285,1.653,0.451,2.486"/>
		
			<path fill-rule="evenodd" clip-rule="evenodd" fill="none" stroke="#000000" stroke-width="2" stroke-linecap="round" stroke-linejoin="round" stroke-miterlimit="10" d="
			M413.5,365.5c-6.1,1.449-12.22,2.796-17.525,6.463c-1.44,0.995-3.263,0.818-4.975,0.537"/>
		
			<path fill-rule="evenodd" clip-rule="evenodd" fill="none" stroke="#000000" stroke-width="2" stroke-linecap="round" stroke-linejoin="round" stroke-miterlimit="10" d="
			M592.5,303c-10.662,2.686-21.268,5.59-31.943,8.229c-7.437,1.839-12.638,8.15-17.319,13.962C541.664,327.145,544,331.074,545,334"
			/>
		
			<path fill-rule="evenodd" clip-rule="evenodd" fill="none" stroke="#000000" stroke-width="2" stroke-linecap="round" stroke-linejoin="round" stroke-miterlimit="10" d="
			M570.5,310c-3.345,5.996-8.812,10.212-13.005,15.496c-1.472,1.855-2.995,3.671-4.495,5.504"/>
		
			<path fill-rule="evenodd" clip-rule="evenodd" fill="none" stroke="#000000" stroke-width="2" stroke-linecap="round" stroke-linejoin="round" stroke-miterlimit="10" d="
			M310,228c-0.667-1.333-1.556-2.603-1.962-4.011c-1.829-6.344-6.008-9.271-12.538-8.989"/>
		
			<path fill-rule="evenodd" clip-rule="evenodd" fill="none" stroke="#000000" stroke-width="2" stroke-linecap="round" stroke-linejoin="round" stroke-miterlimit="10" d="
			M578,113c-8.406,4.929-16.941,3.456-25.496,0.488c-0.698-0.242-1.833-0.55-1.93-1.004c-1.396-6.567-6.539-5.391-11.074-5.482
			c-0.666-0.014-1.333-0.002-2-0.002"/>
		
			<path fill-rule="evenodd" clip-rule="evenodd" fill="none" stroke="#000000" stroke-width="2" stroke-linecap="round" stroke-linejoin="round" stroke-miterlimit="10" d="
			M388.5,190c-0.886,3.675-3.529,5.736-6.989,5.388c-7.605-0.768-13.486,1.482-17.523,8.104c-0.239,0.392-0.654,0.675-0.988,1.008"
			/>
		
			<path fill-rule="evenodd" clip-rule="evenodd" fill="none" stroke="#000000" stroke-width="2" stroke-linecap="round" stroke-linejoin="round" stroke-miterlimit="10" d="
			M394.5,472c-0.835,3.432-3.361,5.508-5.998,7.503c-2.264,1.712-4.818,2.903-7.463,1.428c-2.984-1.663,0.109-4.301-0.539-6.431"/>
		
			<path fill-rule="evenodd" clip-rule="evenodd" fill="none" stroke="#000000" stroke-width="2" stroke-linecap="round" stroke-linejoin="round" stroke-miterlimit="10" d="
			M444.5,213c3.152,5.418,3.117,11.563,4,17.5"/>
		
			<path fill-rule="evenodd" clip-rule="evenodd" fill="none" stroke="#000000" stroke-width="2" stroke-linecap="round" stroke-linejoin="round" stroke-miterlimit="10" d="
			M458,143c2,3.333,4.183,6.573,5.949,10.025c1.822,3.563,3.125,7.361,3.051,11.475"/>
		
			<path fill-rule="evenodd" clip-rule="evenodd" fill="none" stroke="#000000" stroke-width="2" stroke-linecap="round" stroke-linejoin="round" stroke-miterlimit="10" d="
			M569,479c-3.328-2.305-6.013-1.61-8.53,1.476c-4.261,5.224-4.55,8.35-0.984,14.533c0.443,0.77,0.682,1.658,1.015,2.491"/>
		
			<path fill-rule="evenodd" clip-rule="evenodd" fill="none" stroke="#000000" stroke-width="2" stroke-linecap="round" stroke-linejoin="round" stroke-miterlimit="10" d="
			M405,210c-3.664,5.037-1.539,10.616-1.5,16"/>
		
			<path fill-rule="evenodd" clip-rule="evenodd" fill="none" stroke="#000000" stroke-width="2" stroke-linecap="round" stroke-linejoin="round" stroke-miterlimit="10" d="
			M474,374c-2.756,4.959-7.822,6.901-12.555,8.867c-4.316,1.793-7.918,4.074-11.012,7.574c-2.432,2.752-4.836,5.114-9.538,2.497
			c-5.884-3.275-6.392-4.195-1.466-8.519c1.638-1.437,5.004-1.513,4.57-4.92"/>
		
			<path fill-rule="evenodd" clip-rule="evenodd" fill="none" stroke="#000000" stroke-width="2" stroke-linecap="round" stroke-linejoin="round" stroke-miterlimit="10" d="
			M453.5,371.5c-2.284,7.932-8.864,7.438-15,7.443c-4.312,0.004-7.728,1.269-10,5.057"/>
		
			<path fill-rule="evenodd" clip-rule="evenodd" fill="none" stroke="#000000" stroke-width="2" stroke-linecap="round" stroke-linejoin="round" stroke-miterlimit="10" d="
			M538,87c-3.642,6.453-5.277,13.688-8,20.5"/>
		
			<path fill-rule="evenodd" clip-rule="evenodd" fill="none" stroke="#000000" stroke-width="2" stroke-linecap="round" stroke-linejoin="round" stroke-miterlimit="10" d="
			M466,321.5c2.542,4.321,2.309,9.436,4,14"/>
		
			<path fill-rule="evenodd" clip-rule="evenodd" fill="none" stroke="#000000" stroke-width="2" stroke-linecap="round" stroke-linejoin="round" stroke-miterlimit="10" d="
			M561,79c-2.33,6.476-6.621,12.061-8.225,18.948c-0.429,1.841-1.043,5.136-4.275,5.552"/>
		
			<path fill-rule="evenodd" clip-rule="evenodd" fill="none" stroke="#000000" stroke-width="2" stroke-linecap="round" stroke-linejoin="round" stroke-miterlimit="10" d="
			M445,492.5c-1.711,0.454-3.063,1.523-4.543,2.429c-2.176,1.33-1.626,2.87-0.932,4.562c0.164,0.402,0.696,0.638,0.965,1.017
			c1.426,2.008,0.67,5.896,5.555,4.674c4.167-1.043,3.793-4.224,4.309-6.711c0.695-3.354-1.73-5.184-4.854-5.97"/>
		
			<path fill-rule="evenodd" clip-rule="evenodd" fill="none" stroke="#000000" stroke-width="2" stroke-linecap="round" stroke-linejoin="round" stroke-miterlimit="10" d="
			M552,477c-1.729,4.706-0.792,9.688-1.042,14.936c-3.626,0.258-5.81-1.254-6.9-3.959c-1.879-4.657-1.961-9.299,1.474-13.874
			c4.786,3.794,11.327,0.298,15.969,4.397"/>
		
			<path fill-rule="evenodd" clip-rule="evenodd" fill="none" stroke="#000000" stroke-width="2" stroke-linecap="round" stroke-linejoin="round" stroke-miterlimit="10" d="
			M544,475.5c-3.428-2.697-7.855-0.24-11.6-2.321c-1.456-0.809-2.399,1.46-2.432,3.32c-0.06,3.502-0.302,7.001-0.469,10.501"/>
		
			<path fill-rule="evenodd" clip-rule="evenodd" fill="none" stroke="#000000" stroke-width="2" stroke-linecap="round" stroke-linejoin="round" stroke-miterlimit="10" d="
			M536.5,475c-4.047,6.752-3.458,11.457,2,16c1.992,0.44,2.781-1.826,4.5-2"/>
		
			<path fill-rule="evenodd" clip-rule="evenodd" fill="none" stroke="#000000" stroke-width="2" stroke-linecap="round" stroke-linejoin="round" stroke-miterlimit="10" d="
			M394.5,157.5c-0.417,1.833-0.697,3.712-1.28,5.49c-1.017,3.098-0.189,5.976,2.36,7.363c2.727,1.484,3.534,3.446,3.952,6.142
			c0.643,4.146,2.348,7.556,7.178,8.331c2.842,0.65,1.505-7.023,6.291-3.326"/>
		
			<path fill-rule="evenodd" clip-rule="evenodd" fill="none" stroke="#000000" stroke-width="2" stroke-linecap="round" stroke-linejoin="round" stroke-miterlimit="10" d="
			M571.5,495.5c-3.789-0.845-7.508-2.489-11.5-1"/>
		
			<path fill-rule="evenodd" clip-rule="evenodd" fill="none" stroke="#000000" stroke-width="2" stroke-linecap="round" stroke-linejoin="round" stroke-miterlimit="10" d="
			M534,93c-3.92-0.665-7.606,1.356-11.5,1"/>
		
			<path fill-rule="evenodd" clip-rule="evenodd" fill="none" stroke="#000000" stroke-width="2" stroke-linecap="round" stroke-linejoin="round" stroke-miterlimit="10" d="
			M552,378c-3.136,3.146-6.226,6.35-10.5,8"/>
		
			<path fill-rule="evenodd" clip-rule="evenodd" fill="none" stroke="#000000" stroke-width="2" stroke-linecap="round" stroke-linejoin="round" stroke-miterlimit="10" d="
			M530.5,96.5c-1.667,3.333-3.333,6.667-5,10"/>
		
			<path fill-rule="evenodd" clip-rule="evenodd" fill="none" stroke="#000000" stroke-width="2" stroke-linecap="round" stroke-linejoin="round" stroke-miterlimit="10" d="
			M547.5,361.5c-3.428,2.186-6.683,4.565-9,8"/>
		
			<path fill-rule="evenodd" clip-rule="evenodd" fill="none" stroke="#000000" stroke-width="2" stroke-linecap="round" stroke-linejoin="round" stroke-miterlimit="10" d="
			M563.5,138.5c-3.288-1.068-6.671-0.243-10-0.5"/>
		
			<path fill-rule="evenodd" clip-rule="evenodd" fill="none" stroke="#000000" stroke-width="2" stroke-linecap="round" stroke-linejoin="round" stroke-miterlimit="10" d="
			M552,288c-2.787,3.258-6.99,4.933-9.5,8.5"/>
		
			<path fill-rule="evenodd" clip-rule="evenodd" fill="none" stroke="#000000" stroke-width="2" stroke-linecap="round" stroke-linejoin="round" stroke-miterlimit="10" d="
			M554.5,393c-1.887,3.127-5.125,4.59-8,6.5"/>
		
			<path fill-rule="evenodd" clip-rule="evenodd" fill="none" stroke="#000000" stroke-width="2" stroke-linecap="round" stroke-linejoin="round" stroke-miterlimit="10" d="
			M415,378.5c-0.157,1.614,1.433,3.395-1.451,4.615c-4.228,1.789-5.156,6.73-7.996,9.932c-0.226,0.254-0.649,1.795,0.947,1.453"/>
		
			<path fill-rule="evenodd" clip-rule="evenodd" fill="none" stroke="#000000" stroke-width="2" stroke-linecap="round" stroke-linejoin="round" stroke-miterlimit="10" d="
			M537,412c-2.386,2.935-5.976,4.807-7.5,8.5"/>
		
			<path fill-rule="evenodd" clip-rule="evenodd" fill="none" stroke="#000000" stroke-width="2" stroke-linecap="round" stroke-linejoin="round" stroke-miterlimit="10" d="
			M547.5,272.5c-2.5,2.5-5,5-7.5,7.5"/>
		
			<path fill-rule="evenodd" clip-rule="evenodd" fill="none" stroke="#000000" stroke-width="2" stroke-linecap="round" stroke-linejoin="round" stroke-miterlimit="10" d="
			M536.5,464.5c-2.167,1.833-4.406,3.589-6.477,5.525c-1.603,1.498-3.354,2.232-5.523,1.975"/>
		
			<path fill-rule="evenodd" clip-rule="evenodd" fill="none" stroke="#000000" stroke-width="2" stroke-linecap="round" stroke-linejoin="round" stroke-miterlimit="10" d="
			M179,339.5c-0.333,4.333-0.667,8.667-1,13"/>
		
			<path fill-rule="evenodd" clip-rule="evenodd" fill="none" stroke="#000000" stroke-width="2" stroke-linecap="round" stroke-linejoin="round" stroke-miterlimit="10" d="
			M260.5,127.5c0,2.667,0,5.333,0,8"/>
		
			<path fill-rule="evenodd" clip-rule="evenodd" fill="none" stroke="#000000" stroke-width="2" stroke-linecap="round" stroke-linejoin="round" stroke-miterlimit="10" d="
			M430.5,179c-2.695,2.768-4.955-1.005-7.756-0.449c-0.538,2.469-1.66,4.824-3.244,6.949"/>
		
			<path fill-rule="evenodd" clip-rule="evenodd" fill="none" stroke="#000000" stroke-width="2" stroke-linecap="round" stroke-linejoin="round" stroke-miterlimit="10" d="
			M538.5,317.5c-1.296,3.255-4.384,4.956-6.5,7.5"/>
		
			<path fill-rule="evenodd" clip-rule="evenodd" fill="none" stroke="#000000" stroke-width="2" stroke-linecap="round" stroke-linejoin="round" stroke-miterlimit="10" d="
			M311.5,214.5c-2.646-0.959-4.796,0.396-7,1.5"/>
		
			<path fill-rule="evenodd" clip-rule="evenodd" fill="none" stroke="#000000" stroke-width="2" stroke-linecap="round" stroke-linejoin="round" stroke-miterlimit="10" d="
			M560.5,300.5c-5.723-0.825-9.008,3.035-12.5,6.5"/>
		
			<path fill-rule="evenodd" clip-rule="evenodd" fill="none" stroke="#000000" stroke-width="2" stroke-linecap="round" stroke-linejoin="round" stroke-miterlimit="10" d="
			M522.5,486.5c3.833,0.5,7.667,1,11.5,1.5"/>
		
			<path fill-rule="evenodd" clip-rule="evenodd" fill="none" stroke="#000000" stroke-width="2" stroke-linecap="round" stroke-linejoin="round" stroke-miterlimit="10" d="
			M415,177.5c1.333,2.167,2.667,4.333,4,6.5"/>
		
			<path fill-rule="evenodd" clip-rule="evenodd" fill="none" stroke="#000000" stroke-width="2" stroke-linecap="round" stroke-linejoin="round" stroke-miterlimit="10" d="
			M451.5,320c0.082,2.833-1.182,5.667,0,8.5"/>
		
			<path fill-rule="evenodd" clip-rule="evenodd" fill="none" stroke="#000000" stroke-width="2" stroke-linecap="round" stroke-linejoin="round" stroke-miterlimit="10" d="
			M553.5,92.5c-1.869-1.743-4.013-0.18-6-0.5"/>
	</g>
</g>
</svg>
