<?xml version="1.0" encoding="utf-8"?>
<!-- Generator: Adobe Illustrator 16.0.0, SVG Export Plug-In . SVG Version: 6.00 Build 0)  -->
<!DOCTYPE svg PUBLIC "-//W3C//DTD SVG 1.1//EN" "http://www.w3.org/Graphics/SVG/1.1/DTD/svg11.dtd">
<svg version="1.1" id="Calque_1" xmlns="http://www.w3.org/2000/svg" xmlns:xlink="http://www.w3.org/1999/xlink" x="0px" y="0px"
	 width="843px" height="596px" viewBox="0 0 843 596" enable-background="new 0 0 843 596" xml:space="preserve">
<g>
	<g>
		
			<path fill-rule="evenodd" clip-rule="evenodd" fill="none" stroke="#000000" stroke-width="2" stroke-linecap="round" stroke-linejoin="round" stroke-miterlimit="10" d="
			M33,292.5c7.147-1.415,13.863-4.089,20.502-6.996c3.518-1.54,6.827-3.07,11.044-1.639c4.042,1.372,8.505-0.151,12.4-1.089
			c10.605-2.552,20.1,0.907,29.484,4.41c5.073,1.894,11.124,2.633,14.57,7.813c4.362-0.557,8.205,2.168,12.5,1.995
			c11.28-0.454,21.792,2.69,31.968,7.078c2.964,1.278,6.071,0.822,9.062,1.84c11.502,3.912,18.292,11.349,20.629,23.557
			c1.88,9.817,4.775,19.499,7.997,28.978c1.806,5.314,1.743,10.755,2.633,16.088c1.021,6.119,2.445,12.066,4.23,17.959
			c1.983,6.546,1.072,13.62,3.94,20.023c2.7,6.027,3.822,12.515,5.136,18.963c0.919,4.508,3.043,8.971,6.5,11.908
			c8.429,7.161,8.492,15.845,5.266,25.063c-1.167,3.334-2.44,6.628-3.365,10.048c-2.601,9.61-14.947,14.482-22.998,14.032
			c-10.007-0.561-14.984-7.451-19.497-15.032c-3.172-5.329-5.958-10.94-9.596-15.93c-4.627-6.349-4-13.033-2.957-20.077
			c1.045-7.061,2.688-14.297-3.877-20.073c-1.521-1.339-2.913-1.395-5.145-1.421c1.567,10.314-0.144,20.653,2.333,31.06
			c2.437,10.237,3.097,20.924,4.121,31.454c0.293,3.016,1.877,5.867,1.12,8.988"/>
		
			<path fill-rule="evenodd" clip-rule="evenodd" fill="none" stroke="#000000" stroke-width="2" stroke-linecap="round" stroke-linejoin="round" stroke-miterlimit="10" d="
			M540,407.5c2.717-6.313,4.282-13.056,7.927-19.045c4.406-7.241,1.06-14.673-0.459-21.948c-1.487-7.13-6.37-11.188-12.969-13.505
			c-0.994-0.349-1.991-0.694-3-0.998c-7.542-2.268-11.508-7.776-13.482-15.009c-1.398-5.119,1.297-9.679,3.713-13.344
			c4.361-6.617,8.427-13.367,11.118-20.707c2.621-7.149,3.861-14.936-1.927-21.373c-4.161-4.629-7.01-10.723-13.257-12.835
			c0.121-1.896,0.32-3.566,0.322-5.236c0.021-20.333,0.02-40.667,0.01-61c-0.003-5.471-0.027-5.372-5.496-5.518
			c-23.682-0.629-47.342-1.788-71.008-2.796c-10.982-0.467-21.993-0.882-32.99-1.262c-21.509-0.743-43.001-1.944-64.504-2.893
			c-1.99-0.088-4.06-0.434-5.999,0.468"/>
		
			<path fill-rule="evenodd" clip-rule="evenodd" fill="none" stroke="#000000" stroke-width="2" stroke-linecap="round" stroke-linejoin="round" stroke-miterlimit="10" d="
			M739.5,391.5c-2.34-4.756-3.72-9.895-6.398-14.558c-2.896-5.042-5.943-9.809-10.061-13.983
			c-10.111-10.253-21.089-19.706-29.095-31.924c-4.137-6.313-7.793-12.75-10.002-20.019c-1.291-4.248-3.425-8.257-6.49-11.473
			c-8.001-8.396-16.382-16.356-25.905-23.112c-7.85-5.568-21.092-5.553-27.59,1.531c-3.983,4.342-9.824,6.605-13.025,11.998
			c-4.369,7.361-7.673,15.169-11.007,23.008c-1.854,4.358-1.785,9.159-0.62,12.937c2.247,7.287,2.521,14.853,4.555,22.134
			c1.72,6.153-1.38,12.19-3.186,17.857c-1.336,4.191-0.452,7.259,1.453,10.014c3.287,4.754,7.213,8.931,12.258,12.262
			c5.146,3.396,7.594,8.809,5.613,15.328"/>
		
			<path fill-rule="evenodd" clip-rule="evenodd" fill="none" stroke="#000000" stroke-width="2" stroke-linecap="round" stroke-linejoin="round" stroke-miterlimit="10" d="
			M303.5,189.5c-2.196-2.021-5.184-1.324-7.498-1.3c-11.515,0.117-22.995-1.049-34.752-1.368c0,54.335,0,108.001,0,161.872
			c8.057,1.219,15.949-1.393,23.75,0.296"/>
		
			<path fill-rule="evenodd" clip-rule="evenodd" fill="none" stroke="#000000" stroke-width="2" stroke-linecap="round" stroke-linejoin="round" stroke-miterlimit="10" d="
			M321,380c2.313,3.491,2.374,7.633,2.9,11.514c1.305,9.625,1.857,19.354,3.186,28.975c0.883,6.396,2.376,12.73,3.979,18.995
			c1.315,5.138,1.741,10.323,1.376,15.513c-0.915,13.001-0.391,26.007-0.332,39.004c0.025,5.669,1.179,11.34,1.912,16.997
			c0.349,2.694,3.165,3.521,4.477,5.505c4.392,6.639,10.923,7.301,18.004,6.504c5.04-0.567,7.251-4.818,4.468-8.984
			c-2.517-3.768-4.997-7.643-8.082-10.914c-1.864-1.978-1.899-3.877-1.888-6.107c0.04-7.846,0.205-15.665,0.872-23.511
			c0.776-9.14-0.771-18.354-0.661-27.486c0.141-11.678,2.279-23.321,2.641-35.008c0.305-9.808,1.221-19.713-0.792-29.507
			c-0.251-1.223-0.716-2.984,1.44-3.499c5.559-1.326,7.417-6.939,11.481-10.017c1.569-1.188,1.986-3.399,1.898-4.966
			c-0.567-10.014,2.862-19.959,0.25-30.04c-0.678-2.614,0.348-5.634,0.343-8.467c-0.01-5.668-0.308-11.488-0.002-16.974
			c0.368-6.61,0.062-13.104-0.628-19.509c-1.166-10.827-0.589-21.749-2.701-32.545c-2.08-10.637-11.415-17.739-20.193-19.139
			c-7.768-1.238-10.984-6.733-15.363-11.412c-1.148-1.227-1.506-3.081,1.387-4.015c7.333-2.365,9.171-8.575,10.062-15.403
			c1.263-9.683-3.866-16.459-10.652-21.853c-4.791-3.807-11.039-2.386-16.335-0.526c-9.553,3.353-14.875,12.694-15.2,23.37
			c-0.133,4.362-0.093,8.665,0.113,13.007c0.154,3.235,0.874,6.271,4.082,7.386c2.654,0.923,5.708,0.921,5.933,4.614
			c0.256,4.198-2.956,5.865-5.984,7.475c-3.948,2.097-8.422,3.463-11.889,6.15c-5.7,4.419-8.791,10.261-10.436,17.8
			c-2.489,11.408-5.909,22.671-8.831,34.03c-2.075,8.067,0.352,13.537,6.665,18.048c1.356,0.969,2.613,2.085,4.014,2.979
			c4.059,2.586,5.211,6.373,5.591,11.008c0.726,8.837-1.788,17.069-3.482,25.533c-1.868,9.326,0.479,18.653,1.295,27.983
			c0.839,9.589,3.605,18.832,4.259,28.48c0.52,7.675,3.585,15.117,2.821,23.012c-0.307,3.169-0.667,6.333-0.995,9.5
			c-0.953,9.217,0.595,18.279,3.193,26.941c2.335,7.783,0.984,15.97,3.748,23.58c0.356,0.979,0.765,2.116,0.91,3.003
			c0.798,4.878,2.07,9.922-3.284,13.575c-1.971,1.344-3.249,3.566-3.707,6.378c-0.598,3.669,0.398,5.841,4.14,5.994
			c3.328,0.136,6.67,0.139,9.998,0c3.971-0.166,9.401-7.992,7.896-11.932c-1.504-3.938-0.73-7.678-0.407-11.541
			c0.544-6.496,1.356-12.994,1.444-19.5c0.211-15.664,0.329-31.339-0.043-46.996c-0.183-7.705-1.252-15.413-2.829-23.016
			c-0.398-1.917-0.657-4.236,0.054-5.94c2.028-4.863,2.092-10.14,3.561-15.143c1.339-4.56,4.715-9.102,2.826-14.404"/>
		
			<path fill-rule="evenodd" clip-rule="evenodd" fill="none" stroke="#000000" stroke-width="2" stroke-linecap="round" stroke-linejoin="round" stroke-miterlimit="10" d="
			M801.5,211.5c-9.475,7.495-20.313,13.27-28.055,22.956c-4.527,5.663-4.92,12.607-6.17,19.097
			c-0.816,4.24-2.321,8.188-4.483,11.303c-5.056,7.281-5.74,15.554-6.628,23.662c-1.156,10.568,2.222,20.97,2.688,31.489
			c0.371,8.391,1.369,16.693,5.343,23.886c4.798,8.683,4.616,17.874,5.306,27.107"/>
		
			<path fill-rule="evenodd" clip-rule="evenodd" fill="none" stroke="#000000" stroke-width="2" stroke-linecap="round" stroke-linejoin="round" stroke-miterlimit="10" d="
			M127.5,295c1.573-2.078,1.45-5.569,5.151-5.719c-0.597-3.421-2.955-7.204,3.34-7.48c1.836-0.08,3.749-2.174,5.117-4.229
			c1.444-2.169,2.68-5.199,6.4-4.623c1.117,0.173,1.325-0.883,1.537-1.939c1.082-5.384,4.537-9.506,9.066-11.787
			c3.596-1.812,2.207-4.969,2.515-6.785c0.813-4.777,1.798-9.639,2.667-14.383c0.915-4.995-0.266-7.798-4.844-10.102
			c4.119-3.31,5.014-6.928,3.797-12.011c-1.109-4.633-0.237-9.518-4.056-13.618c-1.286-1.382,0.063-4.795-0.06-7.329
			c-0.219-4.475-1.949-7.979-6.163-8.829c-4.638-0.936-5.363-4.943-6.779-7.76c-5.629-11.196-15.457-14.374-26.692-15.354
			c-1.447-0.126-2.691-0.537-4.02-0.98c-0.875-0.291-1.396-1.669-2.464-1.05c-6.019,3.484-12.529-2.973-18.538,0.938
			c-0.469,0.305-1.444,0.285-1.953,0.002c-4.432-2.472-7.286,0.044-9.655,3.215c-4.888-2.355-9.907-1.294-13.39,2.3
			c-3.307,3.412-8.728,4.048-11.076,8.976c-1.966,4.126-4.176,8.109-5.412,12.545c-0.424,1.521-0.644,3.266-1.551,4.455
			c-2.98,3.905-2.487,9.691-7.24,12.846c-0.682,0.452-1.458,4.323-1.679,6.704c-0.384,4.144-2.515,7.583-4.577,10.962
			c-2.47,4.047-3.622,7.837-0.488,12.071c0.915,1.236,1.896,2.682,1.548,4.465c-0.321,1.641,0.635,3.325,1.571,3.878
			c3.22,1.902,3.795,5.844,5.742,7.812c6.954,7.027,6.723,17.832,14.077,24.432c1.512,1.357,2.897,3.781,2.609,6.379"/>
		
			<path fill-rule="evenodd" clip-rule="evenodd" fill="none" stroke="#000000" stroke-width="2" stroke-linecap="round" stroke-linejoin="round" stroke-miterlimit="10" d="
			M716,419c-2.63-2.89-3.666,0.554-4.387,1.58c-3.743,5.328-6.938,11.041-10.649,16.395c-7.853,11.33-15.499,22.941-25.565,32.417
			c-9.959,9.374-22.031,14.949-35.897,16.119c-10.646,0.898-21.095,0.637-31.562-2.295c-4.332-1.213-9.282-0.387-13.956-1.107
			c-3.251-0.501-5.932-1.79-6.885-4.642c-3.521-10.534-11.143-17.291-20.509-23.04c-2.489,2.642-5.939,2.961-9.591,2.583
			c-3.063-0.316-5.298,1.706-5.808,4.032c-0.68,3.102-1.902,5.037-4.66,6.517c-3.446,1.85-3.924,5.804-5.531,8.941
			c-1.567,3.058,0.621,5.901,0.625,8.5c0.009,7.321,5.396,8.431,9.866,11.015c9.516,5.503,19.966,8.596,30.544,10.815
			c9.148,1.92,18.271,3.709,26.946,7.215c3.444,1.393,6.786,3.115,9.997,4.991c6.464,3.776,13.338,6.467,20.517,8.48
			c2.333,0.654,2.308,0.743,0.005,2.983"/>
		
			<path fill-rule="evenodd" clip-rule="evenodd" fill="none" stroke="#000000" stroke-width="2" stroke-linecap="round" stroke-linejoin="round" stroke-miterlimit="10" d="
			M450,350c-7.242,4.425-13.311,9.651-17.77,17.344c-3.803,6.56-9.096,12.29-12.897,19.063c-2.339,4.167-7.057,6.558-10.841,9.584
			c-6.446,5.154-8.12,12.395-8.387,20.014c-0.134,3.811,1.745,7.302,5.425,8.928c4.457,1.969,9.53,1.586,12.817-1.59
			c5.656-5.463,13.604-6.982,19.162-12.331c0.256-0.247,0.648-0.466,0.992-0.491c2.332-0.173,4.75-3.039,6.916-0.451
			c1.793,2.14-0.328,4.073-1.404,5.939c-0.258,0.447-0.348,0.992-0.514,1.492"/>
		
			<path fill-rule="evenodd" clip-rule="evenodd" fill="none" stroke="#000000" stroke-width="2" stroke-linecap="round" stroke-linejoin="round" stroke-miterlimit="10" d="
			M422,453c-5.676,6.981-13.954,8.798-22.005,10.979c-11.344,3.074-22.505,6.679-32.966,12.076
			c-6.066,3.129-8.101,11.164-4.46,18.41c6.189,12.316,13.7,23.837,22.43,34.535c1.622,1.987,3.705,3.694,4.001,6.499"/>
		
			<path fill-rule="evenodd" clip-rule="evenodd" fill="none" stroke="#000000" stroke-width="2" stroke-linecap="round" stroke-linejoin="round" stroke-miterlimit="10" d="
			M767.5,482.5c-2.689,1.321-5.456,2.089-8.469,2.663c-7.646,1.456-14.156,5.877-21.052,9.295
			c-10.655,5.282-21.431,10.221-31.104,17.374c-3.475,2.569-6.222,5.813-9.771,8.317c-9.473,6.686-19.803,10.907-31.113,12.805
			c-7.728,1.296-14.759-2.067-21.994-3.948c-0.821-0.213-1.665-0.339-2.498-0.506"/>
		
			<path fill-rule="evenodd" clip-rule="evenodd" fill="none" stroke="#000000" stroke-width="2" stroke-linecap="round" stroke-linejoin="round" stroke-miterlimit="10" d="
			M599,368c-18.902,9.742-33.835,23.267-39.31,44.549c-2.375,9.232-5.885,17.847-10.137,26.972
			c7.195,7.648,15.754,12.23,26.446,12.463c4.498,0.099,9.004-0.095,13.499,0.045c5.749,0.178,9.802-2.185,11.987-7.534
			c1.077-2.635,2.014-5.327,3.014-7.994"/>
		
			<path fill-rule="evenodd" clip-rule="evenodd" fill="none" stroke="#000000" stroke-width="2" stroke-linecap="round" stroke-linejoin="round" stroke-miterlimit="10" d="
			M517,268.5c-7.606,1.483-14.501,4.98-21.449,8.113c-9.197,4.146-9.447,5.288-8.597,15.391c0.095,1.127,0.57,2.452-0.384,3.474
			c-7.173,2.294-8.173,3.472-5.036,11.008c0.96,2.305,1.402,4.741,0.878,6.994c-1.37,5.888-0.183,11.269,3.186,15.95
			c2.431,3.377,1.24,5.82-0.593,8.573c-5.677,8.523-15.022,8.117-23.521,9.394c-5.416,0.813-10.979,0.283-16.485,0.247
			C420.001,347.482,395,347.833,370,348"/>
		
			<path fill-rule="evenodd" clip-rule="evenodd" fill="none" stroke="#000000" stroke-width="2" stroke-linecap="round" stroke-linejoin="round" stroke-miterlimit="10" d="
			M772,320.5c0.479,5.729,3.958,10.29,7.172,14.364c9.731,12.337,15.185,26.07,16.328,41.636"/>
		
			<path fill-rule="evenodd" clip-rule="evenodd" fill="none" stroke="#000000" stroke-width="2" stroke-linecap="round" stroke-linejoin="round" stroke-miterlimit="10" d="
			M618.5,361c2.048,3.685,0.926,7.679,0.912,11.5c-0.021,6.259,0.542,11.988,4.984,17.09c3.712,4.261,6.011,9.442,6.238,15.405
			c0.053,1.379-0.216,3.365,1.365,4.505"/>
		
			<path fill-rule="evenodd" clip-rule="evenodd" fill="none" stroke="#000000" stroke-width="2" stroke-linecap="round" stroke-linejoin="round" stroke-miterlimit="10" d="
			M739.5,495c5.558,7.407,8.452,15.811,8.402,24.999c-0.031,5.6,1.73,10.943,1.598,16.501"/>
		
			<path fill-rule="evenodd" clip-rule="evenodd" fill="none" stroke="#000000" stroke-width="2" stroke-linecap="round" stroke-linejoin="round" stroke-miterlimit="10" d="
			M646.5,485.5c0,0.333,0.139,0.859-0.02,0.973c-10.471,7.526-7.431,18.358-6.955,28.526c0.179,3.841,0.642,7.668,0.975,11.501"/>
		
			<path fill-rule="evenodd" clip-rule="evenodd" fill="none" stroke="#000000" stroke-width="2" stroke-linecap="round" stroke-linejoin="round" stroke-miterlimit="10" d="
			M552,443c-5.474,7.438-10.914,14.896-14.501,23.5c-1.613,3.87-3.599,7.631-3.499,12"/>
		
			<path fill-rule="evenodd" clip-rule="evenodd" fill="none" stroke="#000000" stroke-width="2" stroke-linecap="round" stroke-linejoin="round" stroke-miterlimit="10" d="
			M517,334.5c-6.167-2.885-12.325-1.556-18.503-0.013c-3.77,0.942-7.507,2.48-11.497,1.013"/>
		
			<path fill-rule="evenodd" clip-rule="evenodd" fill="none" stroke="#000000" stroke-width="2" stroke-linecap="round" stroke-linejoin="round" stroke-miterlimit="10" d="
			M790.5,366c-15.714,3.456-31.141,7.251-43.107,19.395c-5.538,5.619-12.425,9.883-18.335,15.17
			c-5.561,4.975-10.604,10.519-14.558,16.936"/>
		
			<path fill-rule="evenodd" clip-rule="evenodd" fill="none" stroke="#000000" stroke-width="2" stroke-linecap="round" stroke-linejoin="round" stroke-miterlimit="10" d="
			M396.5,503c0.012,1.956,1.583,3.08,2.542,4.471c4.072,5.899,8.491,11.542,9.555,19.016c0.295,2.077,1.992,3.81,3.903,5.014"/>
		
			<path fill-rule="evenodd" clip-rule="evenodd" fill="none" stroke="#000000" stroke-width="2" stroke-linecap="round" stroke-linejoin="round" stroke-miterlimit="10" d="
			M618,356.5c0.847,1.763,0.723,3.196-0.968,4.541c-1.481,1.18-2.395,3.009-3.63,4.37c-5.069,5.587-3.528,11.362-0.773,17.026
			c0.816,1.679,1.973,3.089,1.871,5.063"/>
		
			<path fill-rule="evenodd" clip-rule="evenodd" fill="none" stroke="#000000" stroke-width="2" stroke-linecap="round" stroke-linejoin="round" stroke-miterlimit="10" d="
			M683,425c2.968-5.104,2.742-10.981,3.653-17.046c7.901,5.107,15.653,8.788,24.847,6.046"/>
		
			<path fill-rule="evenodd" clip-rule="evenodd" fill="none" stroke="#000000" stroke-width="2" stroke-linecap="round" stroke-linejoin="round" stroke-miterlimit="10" d="
			M378,498.5c-0.355,1.651,0.868,2.2,2.008,2.466c5.42,1.267,11.211,1.143,16.473,0.962c4.298-0.147,9.702-1.109,13.946-3.555
			c1.466-0.845,2.707-0.672,4.073-0.873"/>
		
			<path fill-rule="evenodd" clip-rule="evenodd" fill="none" stroke="#000000" stroke-width="2" stroke-linecap="round" stroke-linejoin="round" stroke-miterlimit="10" d="
			M291.5,286.5c-0.333,6-0.667,12-1,18"/>
		
			<path fill-rule="evenodd" clip-rule="evenodd" fill="none" stroke="#000000" stroke-width="2" stroke-linecap="round" stroke-linejoin="round" stroke-miterlimit="10" d="
			M666,425.5c-1.699-5.422,1.395-10.045,2.744-15.529c6.423,3.668,5.823,11.189,9.577,16.174c1.3,0.087,3.264-1.168,4.179,1.355"/>
		
			<path fill-rule="evenodd" clip-rule="evenodd" fill="none" stroke="#000000" stroke-width="2" stroke-linecap="round" stroke-linejoin="round" stroke-miterlimit="10" d="
			M715,414c-4.032-4.946-6.009-11.738-12.969-14.094c-1.107-0.375-2.479-1.603-2.031-3.406"/>
		
			<path fill-rule="evenodd" clip-rule="evenodd" fill="none" stroke="#000000" stroke-width="2" stroke-linecap="round" stroke-linejoin="round" stroke-miterlimit="10" d="
			M665,421.5c-3.712-1.732-4.15-6.944-8.569-8.137c-3.282,4.592-2.875,11.122-7.931,14.637"/>
		
			<path fill-rule="evenodd" clip-rule="evenodd" fill="none" stroke="#000000" stroke-width="2" stroke-linecap="round" stroke-linejoin="round" stroke-miterlimit="10" d="
			M702,401c-0.892,5.486,2.473,9.172,5.5,13"/>
		
			<path fill-rule="evenodd" clip-rule="evenodd" fill="none" stroke="#000000" stroke-width="2" stroke-linecap="round" stroke-linejoin="round" stroke-miterlimit="10" d="
			M769.5,372c2.069,4.497,4.331,8.792,10,9.5"/>
		
			<path fill-rule="evenodd" clip-rule="evenodd" fill="none" stroke="#000000" stroke-width="2" stroke-linecap="round" stroke-linejoin="round" stroke-miterlimit="10" d="
			M633,413c2.595,3.401,2.781,8.025,0.503,12.002c-0.853,1.488-1.67,2.998-2.503,4.498"/>
		
			<path fill-rule="evenodd" clip-rule="evenodd" fill="none" stroke="#000000" stroke-width="2" stroke-linecap="round" stroke-linejoin="round" stroke-miterlimit="10" d="
			M632.5,410.5c-0.833,3.667-1.667,7.333-2.5,11"/>
		
			<path fill-rule="evenodd" clip-rule="evenodd" fill="none" stroke="#000000" stroke-width="2" stroke-linecap="round" stroke-linejoin="round" stroke-miterlimit="10" d="
			M647.5,430.5c1.627-3.503-1.19-6.304-0.954-10.276c-4.852,3.027-6.788,7.084-8.546,11.276"/>
		
			<path fill-rule="evenodd" clip-rule="evenodd" fill="none" stroke="#000000" stroke-width="2" stroke-linecap="round" stroke-linejoin="round" stroke-miterlimit="10" d="
			M640,417.5c-2.478,0.233-1.578,4.266-4.5,4"/>
		
			<path fill-rule="evenodd" clip-rule="evenodd" fill="none" stroke="#000000" stroke-width="2" stroke-linecap="round" stroke-linejoin="round" stroke-miterlimit="10" d="
			M641,414.5c-1.013,3.149-0.412,6.12,1,9"/>
	</g>
</g>
</svg>
