<?xml version="1.0" encoding="utf-8"?>
<!-- Generator: Adobe Illustrator 16.0.0, SVG Export Plug-In . SVG Version: 6.00 Build 0)  -->
<!DOCTYPE svg PUBLIC "-//W3C//DTD SVG 1.1//EN" "http://www.w3.org/Graphics/SVG/1.1/DTD/svg11.dtd">
<svg version="1.1" id="Calque_1" xmlns="http://www.w3.org/2000/svg" xmlns:xlink="http://www.w3.org/1999/xlink" x="0px" y="0px"
	 width="843px" height="596px" viewBox="0 0 843 596" enable-background="new 0 0 843 596" xml:space="preserve">
<g>
	<g>
		
			<path fill-rule="evenodd" clip-rule="evenodd" fill="none" stroke="#000000" stroke-width="2" stroke-linecap="round" stroke-linejoin="round" stroke-miterlimit="10" d="
			M533,239c7.185,1.372,14.028,3.615,19.992,8.01c2.582,1.902,5.525,3.31,8.526,3.895c16.483,3.214,26.833,13.114,32.515,28.584
			c3.504,9.54,7.545,18.756,12.662,27.687c4.728,8.25,7.397,17.768,9.386,27.309c1.905,9.139,4.001,18.225,7.307,27.059
			c5.071,13.554,8.438,27.687,10.374,41.99c0.874,6.467,0.808,13.274-0.563,20.009c-0.941,4.624,0.879,9.508,0.465,14.473
			c-0.846,10.135-1.354,20.25-4.609,30.005c-0.4,1.199-0.162,2.658-0.037,3.979c0.848,8.955-4.667,13.526-13.984,10.885
			c-4.69-1.329-8.938-4.159-13.579-5.749c-1.888-0.646-2.592-1.837-2.883-3.149c-1.836-8.28-7.75-13.313-14.092-17.957
			c-6.317-4.627-9.382-10.786-9.478-18.527c-0.027-2.216-0.769-4.363-1.22-6.453c-0.398-1.842-1.874-3.505-4.726-4.262
			c-8.26-2.193-16.817-2.054-25.024-3.927c-6.479-1.478-13.281-0.806-19.532-3.358"/>
		
			<path fill-rule="evenodd" clip-rule="evenodd" fill="none" stroke="#000000" stroke-width="2" stroke-linecap="round" stroke-linejoin="round" stroke-miterlimit="10" d="
			M71.5,303c-0.987,5.304,1.542,10.108,2.704,14.951c5.544,23.109,11.881,46.027,17.68,69.078c0.67,2.664,1.8,4.059,4.112,4.979
			c10.008,3.981,19.942,8.158,30.046,11.877c2.569,0.945,5.519,1.212,8.458,1.188c17.332-0.146,34.667-0.189,51.999-0.029
			c10.76,0.1,21.458-0.122,32-2.543c1.46-1.333-0.183-2.667,0-4"/>
		
			<path fill-rule="evenodd" clip-rule="evenodd" fill="none" stroke="#000000" stroke-width="2" stroke-linecap="round" stroke-linejoin="round" stroke-miterlimit="10" d="
			M373.5,260.5c-1.539-2.804-2.866-5.509-2.589-9.007c0.648-8.172-1.691-15.699-6.978-21.937c-4.994-5.893-7.211-12.81-8.941-20.055
			c-1.633-6.842-2.932-13.796-5.082-20.473c-3.5-10.868-9.546-20.217-18.959-26.961c-2.725-1.952-5.887-3.049-9.543-1.256
			c-0.88,0.432-2.321,1.283-4.511,0.464c-8.626-3.226-16.746-1.105-23.902,4.717c-12.836,10.444-19.74,24.427-24.011,40.025
			c2.604,2.409,5.667,0.76,8.514,1.012c4.177,0.371,8.258-0.998,12.526-0.144c3.947,0.789,1.991-4.359,4.841-5.532
			c6.54,7.604,15.656,5.303,24.137,5.605c5.81,0.208,7.336,1.596,8.029,7.536c0.889,7.619-0.58,14.606-3.779,21.618
			c-1.114,2.441-4.432,5.355-1.751,8.886"/>
		
			<path fill-rule="evenodd" clip-rule="evenodd" fill="none" stroke="#000000" stroke-width="2" stroke-linecap="round" stroke-linejoin="round" stroke-miterlimit="10" d="
			M266,317.5c-1.728-3.065-6.124-3.64-6.823-8.415c1.354-3.113,4.12-4.19,7.792-2.032c1.987,1.168,3.991,0.97,6.031,0.929
			c7.167-0.144,14.437-0.701,21.48-0.197c9.914,0.709,19.763,3.058,29.493,5.334c6.163,1.441,12.122,2.126,18.516,2.305
			c8.954,0.25,18.032,0.244,27.048,1.248c4.551,0.507,9.697-0.061,14.442-0.808c6.088-0.958,11.969-0.4,18.033-0.077
			c11.119,0.594,21.621-1.631,31.093-8.646c10.894-8.065,21.175-16.795,31.407-25.626c3.804-3.282,8.629-2.933,12.964-2.336
			c4.543,0.624,9.439,0.553,13.396,3.619c3.95-2.64,5.309-6.885,7.534-10.358c7.435-11.599,13.307-23.931,16.829-37.378
			c0.467-1.781,0.591-3.051-0.296-4.006c-3.841-4.139-2.809-8.898-1.894-13.547c1.451-7.367,0.399-14.653,0.282-22.014
			c-0.17-10.668-5.189-18.62-11.47-25.873c-7.695-8.887-17.771-13.668-29.847-14.754c-16.274-1.464-28.656,6.651-40.986,15.168
			c-10.064,6.95-14.78,18.053-21.09,27.923c-1.897,2.969-0.223,4.406,1.583,6.02c1.063,0.95,2.314,1.688,3.481,2.521"/>
		
			<path fill-rule="evenodd" clip-rule="evenodd" fill="none" stroke="#000000" stroke-width="2" stroke-linecap="round" stroke-linejoin="round" stroke-miterlimit="10" d="
			M69.5,302c10,2.667,19.993,5.362,30.004,7.982c2.973,0.778,4.775,2.528,5.505,5.516c3.323,13.592,7.057,27.07,10.915,40.523
			c4.133,14.413,7.674,28.996,11.598,43.979c1.633,0,3.305,0,4.977,0c25.167,0,50.333,0.006,75.5-0.01
			c2.585-0.001,4.977-0.274,7.572-1.311c4.86-1.938,9.957-0.156,14.933,0.798c11.653,2.236,23.333,4.335,34.993,6.537
			c3.019,0.57,6.002,1.324,9.003,1.984c7.256,1.597,14.335-0.356,21.511-0.841c7.857-0.53,15.663-1.425,23.486-2.19
			c8.846-0.865,17.705-1.561,26.524-2.82c4.826-0.69,9.833-0.118,14.479-2.147"/>
		
			<path fill-rule="evenodd" clip-rule="evenodd" fill="none" stroke="#000000" stroke-width="2" stroke-linecap="round" stroke-linejoin="round" stroke-miterlimit="10" d="
			M416,200.5c-0.833,8.333-1.748,16.66-2.451,25.004c-0.215,2.557-0.936,5.547,2.938,6.548c2.104,0.544,2.904,2.47,2.464,4.438
			c-1.199,5.362-2.638,10.672-4.282,17.197c0.409,0.23,1.505,0.622,2.307,1.342c2.307,2.072,6.918,0.649,7.727,3.071
			c1.072,3.22,2.4,5.622,5.33,6.824c2.457,1.008,0.594,3.48,1.988,4.551c4.553,3.498,6.107,8.938,9.082,13.458
			c2.604,3.956,4.624,3.876,9.411,1.594c4.421-2.108,8.561-5.353,13.987-4.026"/>
		
			<path fill-rule="evenodd" clip-rule="evenodd" fill="none" stroke="#000000" stroke-width="2" stroke-linecap="round" stroke-linejoin="round" stroke-miterlimit="10" d="
			M591.5,330.5c-10.431,9.917-18.883,21.741-29.97,31.036c-1.585,1.329-1.881,3.549-2.526,5.465
			c-1.567,4.65-3.375,9.057-8.492,11.028c-2.636,1.015-3.863,3.023-3.535,5.974c0.38,3.417-0.809,6.271-3.473,8.501
			c-4.279,3.583-7.439,7.884-8.496,13.498c-0.061,0.321,0.138,0.814-0.029,0.977c-4.728,4.605-8.234,10.378-13.913,14.121
			c-1.621,1.069-3.271,1.242-4.522,0.783c-3.336-1.222-6.731-1.132-10.035-0.806c-8.933,0.883-17.312-2.303-25.989-3.245
			c-8.086-0.879-16.054-3.018-24.005-4.891c-4.369-1.028-8.459-3.06-11.44-6.505c-1.563-1.807-2.177-4.277-0.071-6.435
			c1.826-1.869,3.451-3.892,5.094-5.925c2.438-3.018,4.965-5.611,9.918-5.326c5.223,0.3,9.935-3.276,14.897-5.006
			c4.023-1.401,8.282,0.497,12.256-2.526c3.41-2.594,7.619-3.495,7-9.236c-0.245-2.271,1.518-4.721,3.353-6.462
			c7.206-6.84,9.395-16.146,12.48-25.021"/>
		
			<path fill-rule="evenodd" clip-rule="evenodd" fill="none" stroke="#000000" stroke-width="2" stroke-linecap="round" stroke-linejoin="round" stroke-miterlimit="10" d="
			M374.5,383c4.153,3.064,7.438,6.747,8.499,12c0.95,4.704-0.888,6.553-5.497,5.494c-3.788-0.869-7.715-2.226-11.469-1.354
			c-4.988,1.16-8.792-2.252-13.521-2.438c-5.62-0.222-11.787,0.261-16.94-2.344c-6.536-3.305-12.811-3.139-19.612-1.529
			c-1.976,0.468-5.236,1.751-6.627-2.271c-0.581-1.68-3.35-1.688-5.317-2.126c-3.022-0.672-3.696-2.553-1.497-4.916
			c3.005-3.23,6.686-5.416,10.982-6.517"/>
		
			<path fill-rule="evenodd" clip-rule="evenodd" fill="none" stroke="#000000" stroke-width="2" stroke-linecap="round" stroke-linejoin="round" stroke-miterlimit="10" d="
			M262.5,331.5c-1.039,5.469,1.554,10.38,2.623,15.475c2.196,10.47,5.088,20.797,5.86,31.526c0.12,1.675,0.017,3.365,0.017,5.341
			c-12.015,0.065-23.416,2.352-35.003,1.718c-1.507-0.083-2.613-0.399-3.497-1.56"/>
		
			<path fill-rule="evenodd" clip-rule="evenodd" fill="none" stroke="#000000" stroke-width="2" stroke-linecap="round" stroke-linejoin="round" stroke-miterlimit="10" d="
			M322.5,363.5c0.333-5.833,0.789-11.663,0.937-17.502c0.056-2.187,0.904-3.844,2.167-5.682c4.069,1.939,8.289,3.01,11.104,7.555
			c2.74,4.424,8.658,4.844,13.327,6.531c7.031,2.542,14.347,4.286,21.447,6.652c4.27,1.423,8.787,0.711,13.011,1.968
			c7.643,2.275,15.322-0.992,23.023,0.384c6.108,1.091,12.262-0.987,17.364-3.637c11.343-5.892,23.135-10.738,34.605-16.297
			c4.114-1.994,8.707-3.405,11.036-7.961c0.683-1.335,2.165-1.601,3.478-2.012"/>
		
			<path fill-rule="evenodd" clip-rule="evenodd" fill="none" stroke="#000000" stroke-width="2" stroke-linecap="round" stroke-linejoin="round" stroke-miterlimit="10" d="
			M586,315c-2.717-4.118-2.229-8.986-2.899-13.515c-1.613-10.885-4.878-20.953-12.095-29.49c-7.56-8.943-15.156-11.021-27.506-3.495
			"/>
		
			<path fill-rule="evenodd" clip-rule="evenodd" fill="none" stroke="#000000" stroke-width="2" stroke-linecap="round" stroke-linejoin="round" stroke-miterlimit="10" d="
			M346,280c2.827-8.519,10.426-14.339,12.848-23.837c6.439,5.307,14.396,4.453,21.245,7.638c9.111,4.235,15.646,9.904,19.04,19.653
			C402.717,293.75,406.098,303.96,406,315"/>
		
			<path fill-rule="evenodd" clip-rule="evenodd" fill="none" stroke="#000000" stroke-width="2" stroke-linecap="round" stroke-linejoin="round" stroke-miterlimit="10" d="
			M273.5,208c0.399,3.183,1.941,6.186,1.5,9.5c-1.089,8.17,2.455,15.648,3.525,23.497c0.238,1.746,0.218,3.182-0.344,5.057
			c-2.733,9.123-7.984,16.454-15.494,23.13c1.385,0.738,2.365,1.261,3.64,1.941c0.852-0.434,2.512-1.279,4.173-2.125"/>
		
			<path fill-rule="evenodd" clip-rule="evenodd" fill="none" stroke="#000000" stroke-width="2" stroke-linecap="round" stroke-linejoin="round" stroke-miterlimit="10" d="
			M279,208c1.479,2.873,0.806,5.98,1.018,8.999c0.855,12.131,4.754,23.377,12.121,32.894c7.269,9.389,10.252,9.609,20.361,5.107"/>
		
			<path fill-rule="evenodd" clip-rule="evenodd" fill="none" stroke="#000000" stroke-width="2" stroke-linecap="round" stroke-linejoin="round" stroke-miterlimit="10" d="
			M214.5,398c-3.223-1.609-6.582-2.852-9.955-4.12c-3.697-1.392-7.409-2.733-10.67-5.482c-4.127-3.479-9.81-3.395-14.86-2.773
			c-12.689,1.56-25.335,0.773-38.017,0.444c-5.319-0.139-10.693-0.638-15.998,0.432"/>
		
			<path fill-rule="evenodd" clip-rule="evenodd" fill="none" stroke="#000000" stroke-width="2" stroke-linecap="round" stroke-linejoin="round" stroke-miterlimit="10" d="
			M471,280.5c-1.257,7.459-1.361,14.97-0.999,22.5c0.584,12.122,3.216,23.84,6.396,35.528c2.838,10.437,5.764,20.732,11.581,29.986
			c1.539,2.448,2.819,5.055,5.522,6.485"/>
		
			<path fill-rule="evenodd" clip-rule="evenodd" fill="none" stroke="#000000" stroke-width="2" stroke-linecap="round" stroke-linejoin="round" stroke-miterlimit="10" d="
			M311,360.5c9.956,0.752,17.909,6.896,26.956,10.125c9.082,3.242,18.183,6.515,27.178,10.034c3.269,1.278,7.636,2.026,11.891,1.555
			c4.162-0.462,8.575,0.655,11.976,3.786"/>
		
			<path fill-rule="evenodd" clip-rule="evenodd" fill="none" stroke="#000000" stroke-width="2" stroke-linecap="round" stroke-linejoin="round" stroke-miterlimit="10" d="
			M265,273.5c-7.458,1.49-10.305,8.166-12.697,13.633c-4.576,10.458-9.467,20.798-13.771,31.381
			c-0.571,1.403-0.699,2.986-1.033,4.486"/>
		
			<path fill-rule="evenodd" clip-rule="evenodd" fill="none" stroke="#000000" stroke-width="2" stroke-linecap="round" stroke-linejoin="round" stroke-miterlimit="10" d="
			M326.5,241.5c1.408,4.833-0.342,9.65-0.068,14.504c0.407,7.203-1.508,14.19-3.646,20.928c-0.897,2.826-0.452,4.901,0.214,7.318"/>
		
			<path fill-rule="evenodd" clip-rule="evenodd" fill="none" stroke="#000000" stroke-width="2" stroke-linecap="round" stroke-linejoin="round" stroke-miterlimit="10" d="
			M281.5,344c-3.52,14.259-0.224,28.112,2.5,42"/>
		
			<path fill-rule="evenodd" clip-rule="evenodd" fill="none" stroke="#000000" stroke-width="2" stroke-linecap="round" stroke-linejoin="round" stroke-miterlimit="10" d="
			M405.5,364c-1.696,7.699-3.173,15.437-5.296,23.057c-0.746,2.676-1.167,6.103,1.615,9.111c1.764,1.906,2.833,5.188,2.181,8.332"/>
		
			<path fill-rule="evenodd" clip-rule="evenodd" fill="none" stroke="#000000" stroke-width="2" stroke-linecap="round" stroke-linejoin="round" stroke-miterlimit="10" d="
			M225.5,384.5c0.794-8.143,0.995-16.162-5.509-22.49c-4.925-4.792-11.204-5.258-17.004-1.53c-2.955,1.899-6.045,3.589-9.344,5.532
			c-4.198-1.393-6.59-6.319-11.61-7.2c-1.066-0.188-2.556-1.205-3.491-0.729c-5.382,2.742-11.49,1.991-17.067,3.844
			c-5.193,1.726-9.737,10.222-7.516,14.595c1.424,2.803,5.374,2.013,6.541,4.979"/>
		
			<path fill-rule="evenodd" clip-rule="evenodd" fill="none" stroke="#000000" stroke-width="2" stroke-linecap="round" stroke-linejoin="round" stroke-miterlimit="10" d="
			M262,352.5c-3.916,7.938-7.264,16.281-14.513,21.983c-8.506,6.69-17.78,11.654-28.986,11.488
			c-7.953-0.118-15.843,0.043-23.5,2.528"/>
		
			<path fill-rule="evenodd" clip-rule="evenodd" fill="none" stroke="#000000" stroke-width="2" stroke-linecap="round" stroke-linejoin="round" stroke-miterlimit="10" d="
			M266.5,278c4.003-0.678,8-1.372,11.084-4.95c-0.508,5.11,3.332,10.075-1.393,14.254c1.94,1.215,3.377,1.169,4.828-0.285
			c2.626-2.632,4.777-5.094,9.449-5.444c3.884-0.291,8.05-3.653,10.03-8.075c0.861-1.925,2.086-3.517,4.85-5.156
			c0.517,6.281-2.435,11.079-3.871,16.15c-2.087,7.369-3.6,14.79-2.978,22.507"/>
		
			<path fill-rule="evenodd" clip-rule="evenodd" fill="none" stroke="#000000" stroke-width="2" stroke-linecap="round" stroke-linejoin="round" stroke-miterlimit="10" d="
			M318,340.5c-3.916-1.497-7.098,0.413-9.967,2.545c-8.691,6.459-19.425,5.787-27.601-1.469c-3.279-2.911-7.614-4.228-9.646-8.985
			c-1.643-3.846-1.51-5.563,2.142-7.713c3.228-1.898,6.469-3.941,9.143-6.812c2.849-3.057,5.94-2.827,9.429-0.066"/>
		
			<path fill-rule="evenodd" clip-rule="evenodd" fill="none" stroke="#000000" stroke-width="2" stroke-linecap="round" stroke-linejoin="round" stroke-miterlimit="10" d="
			M339.5,316c5.701,7.273,3.468,21.419-4.5,28.5"/>
		
			<path fill-rule="evenodd" clip-rule="evenodd" fill="none" stroke="#000000" stroke-width="2" stroke-linecap="round" stroke-linejoin="round" stroke-miterlimit="10" d="
			M323.5,340c-1.5-1.9-3.682-1.108-4.391,0.066c-5.088,8.431-11.819,15.667-17.09,23.945C301.868,364.249,302,364.667,302,365"/>
		
			<path fill-rule="evenodd" clip-rule="evenodd" fill="none" stroke="#000000" stroke-width="2" stroke-linecap="round" stroke-linejoin="round" stroke-miterlimit="10" d="
			M287,341.5c1.117-7.576,3.697-11.346,13-19c1.851,0.693,4.333,0.335,5.095,3.38c-4.775,4.441-8.964,9.536-9.595,16.62"/>
		
			<path fill-rule="evenodd" clip-rule="evenodd" fill="none" stroke="#000000" stroke-width="2" stroke-linecap="round" stroke-linejoin="round" stroke-miterlimit="10" d="
			M284.5,316c-1.137-5.65-4.593-6.801-9-3.001c-2.58,2.225-3.869,6.445-8.5,5.501"/>
		
			<path fill-rule="evenodd" clip-rule="evenodd" fill="none" stroke="#000000" stroke-width="2" stroke-linecap="round" stroke-linejoin="round" stroke-miterlimit="10" d="
			M172,361c-2.354,6.839-3.837,13.762-2,21"/>
		
			<path fill-rule="evenodd" clip-rule="evenodd" fill="none" stroke="#000000" stroke-width="2" stroke-linecap="round" stroke-linejoin="round" stroke-miterlimit="10" d="
			M330,292c2.037,6.555-1.32,12.387-2.604,18.479c-0.177,0.839-0.229,1.688-0.396,2.521"/>
		
			<path fill-rule="evenodd" clip-rule="evenodd" fill="none" stroke="#000000" stroke-width="2" stroke-linecap="round" stroke-linejoin="round" stroke-miterlimit="10" d="
			M531,244c1.819-2.5,1.475-5.056-0.028-7.482c-1.191-1.922-2.446-3.87-4.009-5.482c-4.369-4.509-5.82-5.646-11.963-1.535"/>
		
			<path fill-rule="evenodd" clip-rule="evenodd" fill="none" stroke="#000000" stroke-width="2" stroke-linecap="round" stroke-linejoin="round" stroke-miterlimit="10" d="
			M306,372c-5.323,3.551-10.38,7.219-13.926,12.89c-1.546,2.474-6.032,2.31-7.574,5.61"/>
		
			<path fill-rule="evenodd" clip-rule="evenodd" fill="none" stroke="#000000" stroke-width="2" stroke-linecap="round" stroke-linejoin="round" stroke-miterlimit="10" d="
			M182,365c-6.948,2.894-5.253,9.064-5.525,14.492c5.234,1.6,10.024-1.006,15.025-1.492"/>
		
			<path fill-rule="evenodd" clip-rule="evenodd" fill="none" stroke="#000000" stroke-width="2" stroke-linecap="round" stroke-linejoin="round" stroke-miterlimit="10" d="
			M323,345.5c-4.185,4.022-8.141,8.258-11.481,13.014c-2.306,3.282-5.241,5.535-8.993,7.052c-4.268,1.726-8.025,4.407-11.539,7.42
			c-4.238,3.635-5.315,7.913-2.988,13.015"/>
		
			<path fill-rule="evenodd" clip-rule="evenodd" fill="none" stroke="#000000" stroke-width="2" stroke-linecap="round" stroke-linejoin="round" stroke-miterlimit="10" d="
			M161,366.5c0,9.273,3.523,14.211,10.458,16.148c2.793,0.779,3.415-0.642,4.542-2.148"/>
		
			<path fill-rule="evenodd" clip-rule="evenodd" fill="none" stroke="#000000" stroke-width="2" stroke-linecap="round" stroke-linejoin="round" stroke-miterlimit="10" d="
			M299.5,322.5c0.017-1.521,1.636-3.628-0.547-4.36c-1.625-0.545-3.267-1.81-5.492-0.719c-5.52,2.708-8.719,7.636-12.466,12.075
			c-1.143,1.354-1.528,3.371-3.495,4.004"/>
		
			<path fill-rule="evenodd" clip-rule="evenodd" fill="none" stroke="#000000" stroke-width="2" stroke-linecap="round" stroke-linejoin="round" stroke-miterlimit="10" d="
			M291,211.5c0,2.667,0.755,5.649-0.194,7.919c-1.145,2.735,0.005,5.566-1.423,8.086c3.117,2.627,6.117,2.727,9.117-0.005"/>
		
			<path fill-rule="evenodd" clip-rule="evenodd" fill="none" stroke="#000000" stroke-width="2" stroke-linecap="round" stroke-linejoin="round" stroke-miterlimit="10" d="
			M306,270c4.03,4.004,6.346,9.11,9,14"/>
		
			<path fill-rule="evenodd" clip-rule="evenodd" fill="none" stroke="#000000" stroke-width="2" stroke-linecap="round" stroke-linejoin="round" stroke-miterlimit="10" d="
			M189,369c-2.898,3.788-6.932,5.203-11.5,5.5"/>
		
			<path fill-rule="evenodd" clip-rule="evenodd" fill="none" stroke="#000000" stroke-width="2" stroke-linecap="round" stroke-linejoin="round" stroke-miterlimit="10" d="
			M304,259c1.235,3.243,0.992,6.634,1,10"/>
		
			<path fill-rule="evenodd" clip-rule="evenodd" fill="none" stroke="#000000" stroke-width="2" stroke-linecap="round" stroke-linejoin="round" stroke-miterlimit="10" d="
			M262.5,324.5c0.905,3.307,2.667,5.5,6.5,5"/>
		
			<path fill-rule="evenodd" clip-rule="evenodd" fill="none" stroke="#000000" stroke-width="2" stroke-linecap="round" stroke-linejoin="round" stroke-miterlimit="10" d="
			M344,282c-0.833,1.5-1.612,3.034-2.513,4.492c-1.431,2.315-3.216,3.083-5.487,1.008"/>
		
			<path fill-rule="evenodd" clip-rule="evenodd" fill="none" stroke="#000000" stroke-width="2" stroke-linecap="round" stroke-linejoin="round" stroke-miterlimit="10" d="
			M495,378c1.897,1.926,0.606,4.343,1,6.5"/>
		
			<path fill-rule="evenodd" clip-rule="evenodd" fill="none" stroke="#000000" stroke-width="2" stroke-linecap="round" stroke-linejoin="round" stroke-miterlimit="10" d="
			M327.5,236.5c-0.037,1.565,0.523,3.602-1.036,4.433c-6.321,3.369-6.898,9.706-8.464,15.567"/>
		
			<path fill-rule="evenodd" clip-rule="evenodd" fill="none" stroke="#000000" stroke-width="2" stroke-linecap="round" stroke-linejoin="round" stroke-miterlimit="10" d="
			M326.5,283c1.394,1.96-0.714,4.729,1.5,6.5"/>
		
			<path fill-rule="evenodd" clip-rule="evenodd" fill="none" stroke="#000000" stroke-width="2" stroke-linecap="round" stroke-linejoin="round" stroke-miterlimit="10" d="
			M301,386.5c-2.349-0.051-4.41,3.926-7,0.5"/>
		
			<path fill-rule="evenodd" clip-rule="evenodd" fill="none" stroke="#000000" stroke-width="2" stroke-linecap="round" stroke-linejoin="round" stroke-miterlimit="10" d="
			M160.5,382.5c0.524-1.715,1.642-1.26,2.461-0.46c0.771,0.753,1.511,1.112,2.539,0.96"/>
		
			<path fill-rule="evenodd" clip-rule="evenodd" fill="none" stroke="#000000" stroke-width="2" stroke-linecap="round" stroke-linejoin="round" stroke-miterlimit="10" d="
			M326,279.5c0.479,1.271,1.047,2.209-0.949,3.113c-2.238,1.015-2.897,3.396-2.551,5.887"/>
	</g>
</g>
</svg>
