<?xml version="1.0" encoding="utf-8"?>
<!-- Generator: Adobe Illustrator 16.0.0, SVG Export Plug-In . SVG Version: 6.00 Build 0)  -->
<!DOCTYPE svg PUBLIC "-//W3C//DTD SVG 1.1//EN" "http://www.w3.org/Graphics/SVG/1.1/DTD/svg11.dtd">
<svg version="1.1" id="Calque_1" xmlns="http://www.w3.org/2000/svg" xmlns:xlink="http://www.w3.org/1999/xlink" x="0px" y="0px"
	 width="842px" height="596px" viewBox="0 0 842 596" enable-background="new 0 0 842 596" xml:space="preserve">
<g>
	<g>
		
			<path fill-rule="evenodd" clip-rule="evenodd" fill="none" stroke="#000000" stroke-width="2" stroke-linecap="round" stroke-linejoin="round" stroke-miterlimit="10" d="
			M262.5,505.5c5.087-1.326,10.346-0.687,15.526-1.267c12.419-1.39,25.013-1.154,37.464-2.335c16.653-1.579,33.398-1.78,50.022-3.8
			c5.442-0.661,10.989-0.53,16.499-0.962c17.471-1.369,35.011-1.853,52.483-3.212c19.656-1.529,39.321-2.821,59.001-4.009
			c21.522-1.298,42.997-3.353,64.508-4.877c12.484-0.884,25.009-1.206,37.494-2.08c16.679-1.168,33.328-2.75,50.008-3.887
			c5.329-0.363,10.665-0.422,16.006-0.969c7.291-0.747,14.654-0.81,21.99-1.079c2.139-0.078,4.075,0.067,4.031-3.024
			c-0.102-7.003-0.032-14.008-0.032-21.476c-21.016,1.57-41.536,2.497-62.008,4.396c-11.959,1.108-24.001,1.291-35.99,2.114
			c-12.344,0.847-24.662,2.053-37.005,2.925c-5.163,0.364-10.326,0.382-15.513,0.874c-12.451,1.183-24.996,1.334-37.481,2.208
			c-16.679,1.168-33.331,2.694-50.006,3.918c-5.161,0.379-10.326,0.382-15.513,0.874c-12.451,1.183-24.996,1.334-37.481,2.208
			c-16.678,1.168-33.33,2.717-50.007,3.905c-5.162,0.367-10.33,0.464-15.508,0.917c-12.463,1.089-25.006,1.237-37.483,2.208
			c-10.667,0.829-21.325,1.776-32.628,2.108c0.848,8.319-1.207,16.365,1.123,24.32"/>
		
			<path fill-rule="evenodd" clip-rule="evenodd" fill="none" stroke="#000000" stroke-width="2" stroke-linecap="round" stroke-linejoin="round" stroke-miterlimit="10" d="
			M135.5,98.5c10,33.833,20.033,67.657,29.991,101.503c10.54,35.821,20.949,71.682,31.537,107.489
			c4.499,15.216,9.718,30.232,13.761,45.563c1.534,5.816,3.22,11.656,4.937,17.377c3.85,12.829,7.573,25.692,11.332,38.551
			c7.811,26.722,15.967,53.343,23.928,80.021c2.428,8.139,4.681,16.329,7.015,24.496"/>
		
			<path fill-rule="evenodd" clip-rule="evenodd" fill="none" stroke="#000000" stroke-width="2" stroke-linecap="round" stroke-linejoin="round" stroke-miterlimit="10" d="
			M524.5,157c-8.333-2-16.579-4.668-25.029-5.775c-6.085-0.798-12.299-1.494-18.473-1.667c-18.695-0.525-37.262-3.649-55.996-2.987
			c-10.805,0.381-21.353-0.855-32.054-2.138c-7.25-0.868-14.357-3.025-21.96-2.75c-7.603,0.274-12.911,3.973-18.461,7.856
			c-6.727,4.707-13.53,9.777-21.568,11.238c-10.662,1.938-20.845,5.211-30.907,8.866c-5.836,2.12-10.702,6.417-16.506,8.961
			c-7.567,3.317-15.08,6.757-22.158,11.217c-4.66,2.937-8.025,6.677-10.276,11.233c-4.903,9.925-9.479,19.892-15.93,29.073
			c-7.341,10.447-10.57,23.037-15.201,34.864c-2.4,6.129-4.382,12.496-8.98,17.508"/>
		
			<path fill-rule="evenodd" clip-rule="evenodd" fill="none" stroke="#000000" stroke-width="2" stroke-linecap="round" stroke-linejoin="round" stroke-miterlimit="10" d="
			M683.5,371.5c-7.454,0.66-14.73-0.573-22.003-1.986c-8.741-1.699-17.219-4.195-25.536-7.412c-3.323-1.285-6.369,1.369-9.443,2.447
			c-9.624,3.376-19.316,6.281-29.509,7.526c-7.454,0.91-13.248,5.518-19.004,9.931C563.072,393.456,546.892,403.007,531,413
			c-12.402,2.443-22.865,9.663-34.496,14.01c-8.583,3.209-25.563,0.547-30.104-9.465c-1.379-3.04-2.026-8.684,0.606-11.539
			c0.958-1.038,1.851-2.229,3.015-2.972c12.482-7.968,21.998-19.403,33.481-28.531c7.152-5.685,14.458-11.185,21.457-17.051
			c5.697-4.774,11.301-9.72,15.54-15.952"/>
		
			<path fill-rule="evenodd" clip-rule="evenodd" fill="none" stroke="#000000" stroke-width="2" stroke-linecap="round" stroke-linejoin="round" stroke-miterlimit="10" d="
			M40.5,336.5c11.833,9.5,23.681,18.982,35.497,28.504c19.012,15.318,38.041,30.616,56.99,46.012
			c13.233,10.752,26.303,21.704,39.523,32.472c19.293,15.716,38.743,31.241,57.95,47.061c8.603,7.085,16.908,14.527,26.04,20.952"/>
		
			<path fill-rule="evenodd" clip-rule="evenodd" fill="none" stroke="#000000" stroke-width="2" stroke-linecap="round" stroke-linejoin="round" stroke-miterlimit="10" d="
			M595,268c-4.5-2.846-8.978,0.363-13.506,0.269c-5.644-0.118-11.299,1.962-17,2.683c-11.319,1.431-22.262,4.275-32.995,8.047
			c-5.427,1.907-10.998,3.393-16.445,5.167c-8.85,2.884-16.851,7.75-22.488,15.384c-7.618,10.314-16.582,19.43-25.153,28.871
			c-9.901,10.906-16.643,23.821-24.346,36.122c-6.296,10.055-12.758,19.914-21.047,28.477c-2.954,3.051-5.979,6.105-8.438,9.54
			c-2.482,3.468-3.715,7.689-2.488,11.914c1.109,3.822,7.35,6.041,11.37,3.958c8.201-4.251,14.249-10.75,17.407-19.478
			c0.853-2.358,0.389-5.319,0.061-7.944c-0.372-2.971-2.994-3.587-5.438-3.971c-1.533-0.241-3.213,0.281-4.494-1.038"/>
		
			<path fill-rule="evenodd" clip-rule="evenodd" fill="none" stroke="#000000" stroke-width="2" stroke-linecap="round" stroke-linejoin="round" stroke-miterlimit="10" d="
			M656.5,116c-7.358,0.206-13.939,3.119-20.492,6.019c-19.821,8.771-40.42,15.216-61.539,19.841
			c-8.479,1.856-17.327,1.961-25.962,3.188c-9.868,1.402-19.525,3.56-27.007,10.953"/>
		
			<path fill-rule="evenodd" clip-rule="evenodd" fill="none" stroke="#000000" stroke-width="2" stroke-linecap="round" stroke-linejoin="round" stroke-miterlimit="10" d="
			M676.5,225.5c-1.44-2.177-3.931-2.162-6.01-2.422c-10.961-1.365-21.749-3.382-32.591-5.585
			c-13.924-2.829-27.673-8.329-42.405-6.544c-3.604,0.438-6.855-1.735-10.485-2.054c-8.193-0.717-15.909,1.217-21.839,6.303
			c-7.028,6.027-14.968,11.269-20.252,19.247c-0.918,1.386-2.875,2.127-4.425,3.044c-14.582,8.631-29.935,15.788-44.969,23.558
			c-7.691,3.974-14.389,9.668-22.478,13.066c-2.494,1.048-4.996,1.994-7.531,2.931c-9.271,3.424-16.172,10.071-21.396,18.035
			c-9.169,13.979-21.516,24.535-34.63,34.407c-10.047,7.563-19.151,16.117-27.504,25.501c-1.564,1.757-3.661,3.121-4.927,5.051
			c-6.168,9.392-15.398,10.801-25.56,10.535c-5.502-0.145-11.023,0.456-16.748,1.271c3.819,5.109,8.378,8.953,14.756,10.121
			c1.798,0.33,3.722-0.31,5.494,0.534"/>
		
			<path fill-rule="evenodd" clip-rule="evenodd" fill="none" stroke="#000000" stroke-width="2" stroke-linecap="round" stroke-linejoin="round" stroke-miterlimit="10" d="
			M438,217c-4.859,3.545-10.027,6.724-15.143,9.759c-5.706,3.386-12.671,4.42-19.364,5.186c-7.852,0.899-14.987,1.834-21.286,8.27
			c-5.426,5.544-13.188,8.973-20.252,12.701c-10.071,5.316-19.259,11.639-26.969,20.072c-6.418,7.021-13.107,14.079-21.59,18.305
			c-9.213,4.589-12.186,13.915-18.375,20.727C294.855,312.201,295,312.667,295,313"/>
		
			<path fill-rule="evenodd" clip-rule="evenodd" fill="none" stroke="#000000" stroke-width="2" stroke-linecap="round" stroke-linejoin="round" stroke-miterlimit="10" d="
			M606.5,311c-5.295,0.534-9.016,4.569-13.957,6.137c-10.442,3.312-21.278,5.6-31.038,10.872c-2.364,1.276-4.979,2.31-6.951,4.052
			c-8.385,7.401-19.965,8.96-28.565,15.926c-9.951,8.06-20.082,15.899-29.96,24.048c-8.739,7.209-17.371,14.58-25.003,22.988
			c-7.295,8.037-14.047,16.562-21.996,24.009c-2.583,2.419-5.339,4.496-8.535,5.955c-5.262,2.4-10.117,0.123-14.984-1.515
			c-1.656-0.558-3.084-1.834-5.01-1.472"/>
		
			<path fill-rule="evenodd" clip-rule="evenodd" fill="none" stroke="#000000" stroke-width="2" stroke-linecap="round" stroke-linejoin="round" stroke-miterlimit="10" d="
			M305.5,232.5c-6.323,0.529-12.629,1.38-19,1.001c-2.025-0.12-3.178,1.293-4.513,2.484c-6.584,5.88-10.967,13.268-15.068,20.972
			c-3.385,6.356-6.46,12.893-11.761,18.201c-2.582,2.586-3.758,6.742-5.105,10.361c-3.328,8.94-6.662,17.896-9.456,27.011
			c-1.854,6.05-6.518,9.806-10.097,14.47"/>
		
			<path fill-rule="evenodd" clip-rule="evenodd" fill="none" stroke="#000000" stroke-width="2" stroke-linecap="round" stroke-linejoin="round" stroke-miterlimit="10" d="
			M469,234c-6.087,4.156-12.857,7.428-17.053,13.966c-1.426,2.222-2.337,4.591-2.895,7.046c-1.726,7.589-7.483,10.382-14.042,12.521
			c-5.761,1.88-11.368,4.045-16.552,7.403c-12.123,7.854-24.567,15.278-33.936,26.583C374.262,313.9,374.207,332.84,388,343"/>
		
			<path fill-rule="evenodd" clip-rule="evenodd" fill="none" stroke="#000000" stroke-width="2" stroke-linecap="round" stroke-linejoin="round" stroke-miterlimit="10" d="
			M365,184c-9,6-18.573,11.31-26.846,18.185c-9.126,7.584-18.229,15.296-26.26,24.221c-9.393,10.438-16.089,22.629-23.842,34.13
			c-7.13,10.575-15.503,20.083-24.079,29.44c-3.159,3.447-6.271,6.858-7.43,11.535c-0.146,0.589,0.291,1.322,0.457,1.989"/>
		
			<path fill-rule="evenodd" clip-rule="evenodd" fill="none" stroke="#000000" stroke-width="2" stroke-linecap="round" stroke-linejoin="round" stroke-miterlimit="10" d="
			M419,319.5c-2.212-1.691-0.82-4.348-1.823-6.579c-4.169-9.28-8.452-11.854-17.649-8.836c-3.384,1.11-6.548,2.888-9.998,4.008
			c-3.127,1.015-5.286,5.653-4.502,8.9c1.965,8.142,4.707,15.908,11.472,21.507"/>
		
			<path fill-rule="evenodd" clip-rule="evenodd" fill="none" stroke="#000000" stroke-width="2" stroke-linecap="round" stroke-linejoin="round" stroke-miterlimit="10" d="
			M439,369c-2.676-1.979-3.243,1.339-4.393,2.151c-7.611,5.38-15.672,10.003-23.563,14.92c-8.292,5.166-16.033,11.141-23.598,17.363
			c-6.444,5.3-14.352,7.319-22.409,5.861c-5.867-1.062-10.712-4.879-13.521-10.554c-0.829-1.675-1.469-3.444-2.363-5.567
			c6.444-3.166,10.117-9.243,15.276-13.756c2.474-2.163,5.202-3.686,8.097-4.854c6.102-2.463,9.925,2.021,8.887,6.917
			c-2.02,9.525-7.491,16.927-15.424,22.502C364.402,405.098,362.667,406,361,407"/>
		
			<path fill-rule="evenodd" clip-rule="evenodd" fill="none" stroke="#000000" stroke-width="2" stroke-linecap="round" stroke-linejoin="round" stroke-miterlimit="10" d="
			M215.5,366c9.672-0.396,19.345-0.791,28.886-1.181c0.494-1.863-0.232-2.938-1.394-3.809c-0.107-0.08-0.394,0.063-0.482-0.021
			c-8.919-8.385-19.529-8.128-30.51-5.989"/>
		
			<path fill-rule="evenodd" clip-rule="evenodd" fill="none" stroke="#000000" stroke-width="2" stroke-linecap="round" stroke-linejoin="round" stroke-miterlimit="10" d="
			M296,170.5c-5.283-1.772-9.714,1.441-14.492,2.535c-8.511,1.948-16.697,5.088-25.484,6.158c-3.708,0.451-7.598,2.164-10.063,5.78
			c-2.208,3.239-5.081,5.467-8.88,7.202c-8.582,3.92-16.401,9.329-24.022,14.903c-1.792,1.312-3.66,2.357-5.559,3.42
			c-3.355,1.878-6.616,3.471-9.208,6.84c-2.9,3.769-7.438,6.239-12.791,5.661"/>
		
			<path fill-rule="evenodd" clip-rule="evenodd" fill="none" stroke="#000000" stroke-width="2" stroke-linecap="round" stroke-linejoin="round" stroke-miterlimit="10" d="
			M265.5,406c0.833-0.333,1.683-0.991,2.498-0.95c9.369,0.467,18.696-0.44,27.994-1.164c9.459-0.737,16.391,2.942,22.063,10.071
			c0.777,0.977,2.223,1.807,3.456,1.971c6.207,0.825,9.999,5.725,14.962,8.62c0.218,0.127,0.028,0.952,0.028,2.143
			c-11.491,0.586-23.046,1.176-34.601,1.766c-0.031,0.456-0.063,0.912-0.093,1.368c5.137,4.66,10.613,8.755,17.694,10.176"/>
		
			<path fill-rule="evenodd" clip-rule="evenodd" fill="none" stroke="#000000" stroke-width="2" stroke-linecap="round" stroke-linejoin="round" stroke-miterlimit="10" d="
			M314.5,327c0.833-0.333,1.656-0.927,2.501-0.96c9.998-0.396,20.039-0.265,29.986-1.172c8.911-0.812,14.414,4.216,20.18,9.279
			c-0.024,0.471-0.048,0.941-0.072,1.412c-11.377,0.583-22.754,1.167-35.113,1.802c4.293,5.705,9.015,10.24,15.023,10.386
			c13.147,0.317,26.328-0.747,39.494-1.247"/>
		
			<path fill-rule="evenodd" clip-rule="evenodd" fill="none" stroke="#000000" stroke-width="2" stroke-linecap="round" stroke-linejoin="round" stroke-miterlimit="10" d="
			M245.5,365c7.2,1.956,13.561,5.155,18.083,11.44c0.715,0.993,2.467,1.245,3.885,1.668c5.721,1.706,10.215,5.369,14.465,9.286
			c-0.123,0.431-0.246,0.861-0.368,1.292c-11.555,0.59-23.11,1.18-35.608,1.817c4.068,5.396,9.422,6.848,13.065,10.474
			c0.334,0.333,0.986,0.522,1.477,0.498c12.834-0.636,25.667-1.309,38.501-1.976"/>
		
			<path fill-rule="evenodd" clip-rule="evenodd" fill="none" stroke="#000000" stroke-width="2" stroke-linecap="round" stroke-linejoin="round" stroke-miterlimit="10" d="
			M331.5,371c-7.01-1.538-12.591-5.46-17.693-10.178c0.027-0.471,0.054-0.941,0.082-1.413c11.745-0.634,23.489-1.268,35.234-1.901
			c0.014-0.459,0.028-0.919,0.042-1.378c-6.359-4.994-12.266-10.323-21.681-9.285c-9.422,1.039-18.984,0.799-28.481,1.195
			c-0.846,0.035-1.668,0.627-2.501,0.96"/>
		
			<path fill-rule="evenodd" clip-rule="evenodd" fill="none" stroke="#000000" stroke-width="2" stroke-linecap="round" stroke-linejoin="round" stroke-miterlimit="10" d="
			M350.5,321.5c-1.897,0.462-2.825-0.918-4.019-1.979c-5.686-5.05-11.763-8.2-19.993-7.741c-9.474,0.529-18.949,1.744-28.491,1.286
			c-2.911-0.14-5.141,0.88-7.186,3.802c-3.483,4.979-7.801,9.529-12.409,13.519c-4.529,3.921-10.042,6.208-16.407,5.674
			c-2.469-0.207-4.995,0.272-7.495,0.439"/>
		
			<path fill-rule="evenodd" clip-rule="evenodd" fill="none" stroke="#000000" stroke-width="2" stroke-linecap="round" stroke-linejoin="round" stroke-miterlimit="10" d="
			M340.5,387c-4.333-2.833-8.725-5.584-12.961-8.555c-1.138-0.798-2.131-1.261-3.508-1.578c-1.789-0.412-3.253-1.613-4.814-3.062
			c-4.003-3.716-8.33-7.825-14.226-8.75c-1.39-0.218-2.772-0.767-3.414-1.614c-4.262-5.635-10.011-8.639-16.485-11.177
			c-3.389-1.328-5.831-5.024-9.002-7.386c-4.539-3.38-9.033-4.202-14.609-3.54c-8.092,0.961-16.313,0.876-24.482,1.127
			c-2.008,0.062-3.851,0.354-5.499,1.534"/>
		
			<path fill-rule="evenodd" clip-rule="evenodd" fill="none" stroke="#000000" stroke-width="2" stroke-linecap="round" stroke-linejoin="round" stroke-miterlimit="10" d="
			M268,366.5c2.25,6.079,8.345,7.537,13.125,10.283c2.174,1.249,4.05,2.507,6.06,3.962c5.503,3.985,10.373,9.546,18.85,7.938
			c10.155-1.925,20.742,0.18,30.965-2.184"/>
		
			<path fill-rule="evenodd" clip-rule="evenodd" fill="none" stroke="#000000" stroke-width="2" stroke-linecap="round" stroke-linejoin="round" stroke-miterlimit="10" d="
			M365.5,433c-0.229,1.597,0.662,2.33,1.982,3.032c4.807,2.556,8.648,6.578,14.466,7.728c3.033,0.6,4.485,4.838,7.447,6.891
			c5.193,3.599,10.298,4.834,16.625,4.016c7.911-1.023,15.977-0.891,23.98-1.121c1.774-0.052,3.369-0.524,4.998-1.045"/>
		
			<path fill-rule="evenodd" clip-rule="evenodd" fill="none" stroke="#000000" stroke-width="2" stroke-linecap="round" stroke-linejoin="round" stroke-miterlimit="10" d="
			M332.5,343.5c-1.416,0.08-2.405-0.283-3.568-1.431c-7.057-6.969-15.634-9.183-25.44-8.15C295.033,334.81,286.5,335,278,335.5"/>
		
			<path fill-rule="evenodd" clip-rule="evenodd" fill="none" stroke="#000000" stroke-width="2" stroke-linecap="round" stroke-linejoin="round" stroke-miterlimit="10" d="
			M274.5,334c1.667,1.5,3.47,2.875,4.977,4.521c6.809,7.438,15.741,7.193,24.512,6.354c7.68-0.733,15.333-0.823,23.012-0.897
			c0.668-0.006,1.333-0.312,2-0.479"/>
		
			<path fill-rule="evenodd" clip-rule="evenodd" fill="none" stroke="#000000" stroke-width="2" stroke-linecap="round" stroke-linejoin="round" stroke-miterlimit="10" d="
			M295,314c3.23,3.649,7.922,5.328,11.474,8.529c0.687,0.618,1.342,0.447,2.026,0.459c12.861,0.234,25.667-0.977,38.5-1.488"/>
		
			<path fill-rule="evenodd" clip-rule="evenodd" fill="none" stroke="#000000" stroke-width="2" stroke-linecap="round" stroke-linejoin="round" stroke-miterlimit="10" d="
			M355,438.5c-9.5,0.5-19,0.992-28.5,1.506c-2.004,0.108-4.061-0.392-5.984,0.472c-0.235,1.695,0.585,2.493,1.906,3.614
			c6.593,5.596,13.922,7.817,22.587,7.005c9.794-0.919,19.658-1.097,29.491-1.597"/>
		
			<path fill-rule="evenodd" clip-rule="evenodd" fill="none" stroke="#000000" stroke-width="2" stroke-linecap="round" stroke-linejoin="round" stroke-miterlimit="10" d="
			M263,376.5c-9.5,0.5-19,0.992-28.5,1.506c-2.004,0.108-4.061-0.392-6.763,0.82c5.216,5.928,11.284,9.655,18.763,11.174"/>
		
			<path fill-rule="evenodd" clip-rule="evenodd" fill="none" stroke="#000000" stroke-width="2" stroke-linecap="round" stroke-linejoin="round" stroke-miterlimit="10" d="
			M318,414.5c-9.5,0.5-19,0.992-28.5,1.506c-2.004,0.108-4.061-0.392-6.763,0.82c5.216,5.928,11.284,9.655,18.763,11.174"/>
		
			<path fill-rule="evenodd" clip-rule="evenodd" fill="none" stroke="#000000" stroke-width="2" stroke-linecap="round" stroke-linejoin="round" stroke-miterlimit="10" d="
			M484,393.5c3,0.833,6.11,1.395,8.975,2.563c4.517,1.842,5.08,4.394,2.546,8.45c-3.302,5.285-7.668,9.616-12.001,14.007
			c-2.165,2.194-4.591,1.849-7.008,0.947c-4.02-1.499-7.188-4.369-10.512-6.967"/>
		
			<path fill-rule="evenodd" clip-rule="evenodd" fill="none" stroke="#000000" stroke-width="2" stroke-linecap="round" stroke-linejoin="round" stroke-miterlimit="10" d="
			M240.5,191.5c-3.478,9.928-9.705,18.476-14.033,27.985c-3.902,8.572-9.201,16.49-11.028,26.003
			c-2.136,11.124-5.412,22.195-5.089,33.502c0.143,4.998-0.166,8.694-3.189,12.633c-1.217,1.586-2.412,4.544-0.161,6.877"/>
		
			<path fill-rule="evenodd" clip-rule="evenodd" fill="none" stroke="#000000" stroke-width="2" stroke-linecap="round" stroke-linejoin="round" stroke-miterlimit="10" d="
			M310.5,396c7.079,7.195,15.103,10.882,25.539,8.149c3.587-0.939,7.628-0.174,11.461-0.139c1.908,0.017,3.802,0.066,5.5-1.011"/>
		
			<path fill-rule="evenodd" clip-rule="evenodd" fill="none" stroke="#000000" stroke-width="2" stroke-linecap="round" stroke-linejoin="round" stroke-miterlimit="10" d="
			M206.5,328c2.732-0.283,4.919,0.987,6.992,2.511c1.047,0.771,2.025,1.636,3.005,2.492c5.663,4.948,11.803,7.171,19.548,5.173
			c3.907-1.008,8.288-0.147,12.455-0.189c1.714-0.018,3.559,0.474,5-0.986"/>
		
			<path fill-rule="evenodd" clip-rule="evenodd" fill="none" stroke="#000000" stroke-width="2" stroke-linecap="round" stroke-linejoin="round" stroke-miterlimit="10" d="
			M244,330.5c8.087-2.129,13.856-7.338,18.49-14.007c2.69-3.872,1.454-8.324,1.366-12.49c-0.047-2.258-4.718-2.517-6.791,0.05
			c-5.526,6.845-11.124,13.697-15.834,21.095c-1.475,2.316-2.578,3.058-4.727,2.815c-5.873-0.662-11.675,0.15-17.507,0.492
			c-1.999,0.117-3.85,0.365-5.498,1.545"/>
		
			<path fill-rule="evenodd" clip-rule="evenodd" fill="none" stroke="#000000" stroke-width="2" stroke-linecap="round" stroke-linejoin="round" stroke-miterlimit="10" d="
			M420,229c-0.235,0.95,0.334,1.576,1.01,1.982c6.054,3.636,8.151,9.519,8.896,16.028c0.152,1.329,0.517,2.437,1.119,3.475
			c2.627,4.52,4.551,9.134,3.02,14.527c-0.163,0.573,0.289,1.32,0.455,1.987"/>
		
			<path fill-rule="evenodd" clip-rule="evenodd" fill="none" stroke="#000000" stroke-width="2" stroke-linecap="round" stroke-linejoin="round" stroke-miterlimit="10" d="
			M206.5,320c6.909-2.35,11.461-8.48,11.498-15.5c0.012-2.333-0.108-4.674,0.034-6.998c0.131-2.13-0.359-3.9-2.546-4.446
			c-1.802-0.45-3.59-0.014-4.991,1.439c-3.281,3.403-4.508,7.914-6.451,12.025c-0.761,1.609-2.196,2.985-2.044,4.979"/>
		
			<path fill-rule="evenodd" clip-rule="evenodd" fill="none" stroke="#000000" stroke-width="2" stroke-linecap="round" stroke-linejoin="round" stroke-miterlimit="10" d="
			M349,393.5c-10.5,0.333-21.002,0.609-31.499,1.033c-3.333,0.135-6.598,1.714-10.001,0.467"/>
		
			<path fill-rule="evenodd" clip-rule="evenodd" fill="none" stroke="#000000" stroke-width="2" stroke-linecap="round" stroke-linejoin="round" stroke-miterlimit="10" d="
			M199,215c-5.664-0.25-9.883,2.846-13.407,6.587c-3.036,3.223-2.079,7.723,1.938,10.366c8.247,5.426,17.133,7.148,26.406,2.91
			c1.453-0.665,2.696-0.662,4.063-0.863"/>
		
			<path fill-rule="evenodd" clip-rule="evenodd" fill="none" stroke="#000000" stroke-width="2" stroke-linecap="round" stroke-linejoin="round" stroke-miterlimit="10" d="
			M380.5,418c-9.115,1.447-18.348,0.723-27.501,1.486c-1.875,0.157-3.862-0.4-5.499,1.014"/>
		
			<path fill-rule="evenodd" clip-rule="evenodd" fill="none" stroke="#000000" stroke-width="2" stroke-linecap="round" stroke-linejoin="round" stroke-miterlimit="10" d="
			M282.5,351.5c-4.842,2.084-10.015,0.814-15.017,1.343c-5.95,0.629-12.021,0.159-17.983,1.157"/>
		
			<path fill-rule="evenodd" clip-rule="evenodd" fill="none" stroke="#000000" stroke-width="2" stroke-linecap="round" stroke-linejoin="round" stroke-miterlimit="10" d="
			M438.5,453c-3.318-0.438-4.598-3.848-7.475-5.06c-3.771-1.588-6.941-4.216-10.914-5.732c-3.372-1.288-5.886-4.933-9.025-7.322
			c-5.844-4.448-12.261-4.86-19.088-4.409c-6.66,0.44-13.397,0.218-19.984,1.13c-10.835,1.502-18.845-2.47-25.07-11.066
			c-0.582-0.803-1.912-1.386-2.95-1.483c-6.601-0.623-10.735-5.356-15.495-9.057"/>
		
			<path fill-rule="evenodd" clip-rule="evenodd" fill="none" stroke="#000000" stroke-width="2" stroke-linecap="round" stroke-linejoin="round" stroke-miterlimit="10" d="
			M417.5,442c-9.115,1.447-18.348,0.723-27.501,1.486c-1.875,0.156-3.862-0.4-5.499,1.014"/>
		
			<path fill-rule="evenodd" clip-rule="evenodd" fill="none" stroke="#000000" stroke-width="2" stroke-linecap="round" stroke-linejoin="round" stroke-miterlimit="10" d="
			M319.5,375.5c-4.842,2.084-10.015,0.814-15.017,1.343c-5.95,0.629-12.021,0.159-17.983,1.157"/>
		
			<path fill-rule="evenodd" clip-rule="evenodd" fill="none" stroke="#000000" stroke-width="2" stroke-linecap="round" stroke-linejoin="round" stroke-miterlimit="10" d="
			M301,363.5c-4.357,1.784-9.011,1.125-13.506,1.389c-6.495,0.381-13.004,0.352-19.503,1.014c-3.198,0.326-6.201-1.082-9.021-2.853
			c-4.367-2.742-7.767-7.307-12.126-9.186c-5.704-2.458-10.55-5.74-15.311-9.405c-1.264-0.973-2.496-1.498-4.032-1.459"/>
		
			<path fill-rule="evenodd" clip-rule="evenodd" fill="none" stroke="#000000" stroke-width="2" stroke-linecap="round" stroke-linejoin="round" stroke-miterlimit="10" d="
			M307,329.5c-8.958,1.466-17.943,2.196-27,1"/>
		
			<path fill-rule="evenodd" clip-rule="evenodd" fill="none" stroke="#000000" stroke-width="2" stroke-linecap="round" stroke-linejoin="round" stroke-miterlimit="10" d="
			M355.5,407c-0.917,1.208-2.241,1.039-3.5,0.993c-7.885-0.288-15.699,0.465-23.505,1.467c-0.963,0.124-1.995-0.293-2.995-0.46"/>
		
			<path fill-rule="evenodd" clip-rule="evenodd" fill="none" stroke="#000000" stroke-width="2" stroke-linecap="round" stroke-linejoin="round" stroke-miterlimit="10" d="
			M373.5,410c5.906,6.807,14.43,9.86,21.557,14.92c1.803,1.28,3.856,1.973,3.943,4.58"/>
		
			<path fill-rule="evenodd" clip-rule="evenodd" fill="none" stroke="#000000" stroke-width="2" stroke-linecap="round" stroke-linejoin="round" stroke-miterlimit="10" d="
			M337.5,427c7.2,1.956,13.577,5.143,18.039,11.473c1.379,1.956,4.159,0.952,5.935,2.069c4.148,2.61,8.64,4.759,12.026,8.458"/>
		
			<path fill-rule="evenodd" clip-rule="evenodd" fill="none" stroke="#000000" stroke-width="2" stroke-linecap="round" stroke-linejoin="round" stroke-miterlimit="10" d="
			M290,319.5c7.116-0.066,11.866,4.656,16.94,8.578c1.147,0.887,2.304,1.411,3.56,1.922"/>
		
			<path fill-rule="evenodd" clip-rule="evenodd" fill="none" stroke="#000000" stroke-width="2" stroke-linecap="round" stroke-linejoin="round" stroke-miterlimit="10" d="
			M294.5,348.5c2.776,0.465,3.828,3.182,5.929,4.605c4.063,2.755,8.234,4.986,13.071,5.895"/>
		
			<path fill-rule="evenodd" clip-rule="evenodd" fill="none" stroke="#000000" stroke-width="2" stroke-linecap="round" stroke-linejoin="round" stroke-miterlimit="10" d="
			M385,345c-5.338-3.962-10.601-8.073-17.5-9"/>
		
			<path fill-rule="evenodd" clip-rule="evenodd" fill="none" stroke="#000000" stroke-width="2" stroke-linecap="round" stroke-linejoin="round" stroke-miterlimit="10" d="
			M302.5,399.5c-2.944,0.579-3.645-2.385-5.521-3.465c-4.655-2.682-8.872-6.305-14.479-7.035"/>
		
			<path fill-rule="evenodd" clip-rule="evenodd" fill="none" stroke="#000000" stroke-width="2" stroke-linecap="round" stroke-linejoin="round" stroke-miterlimit="10" d="
			M311.5,326.5c3.106-0.73,3.994,2.381,5.937,3.6c4.472,2.805,8.688,5.983,14.063,6.9"/>
		
			<path fill-rule="evenodd" clip-rule="evenodd" fill="none" stroke="#000000" stroke-width="2" stroke-linecap="round" stroke-linejoin="round" stroke-miterlimit="10" d="
			M366,367c-4.831-4.227-9.955-7.917-16.5-9"/>
		
			<path fill-rule="evenodd" clip-rule="evenodd" fill="none" stroke="#000000" stroke-width="2" stroke-linecap="round" stroke-linejoin="round" stroke-miterlimit="10" d="
			M449,237c-4.909,3.813-11.09,6.448-12.5,13.5"/>
		
			<path fill-rule="evenodd" clip-rule="evenodd" fill="none" stroke="#000000" stroke-width="2" stroke-linecap="round" stroke-linejoin="round" stroke-miterlimit="10" d="
			M262.5,405.5c2.93-0.557,3.619,2.433,5.519,3.466c4.715,2.565,8.792,6.474,14.481,7.034"/>
		
			<path fill-rule="evenodd" clip-rule="evenodd" fill="none" stroke="#000000" stroke-width="2" stroke-linecap="round" stroke-linejoin="round" stroke-miterlimit="10" d="
			M362.5,371c-0.277,4.364-4.473,5.891-6.546,8.969c-2.303,3.422-5.825,6.211-4.954,11.031"/>
		
			<path fill-rule="evenodd" clip-rule="evenodd" fill="none" stroke="#000000" stroke-width="2" stroke-linecap="round" stroke-linejoin="round" stroke-miterlimit="10" d="
			M438,228c-2.727,3.032-2.523,7.599-5.5,10.5"/>
		
			<path fill-rule="evenodd" clip-rule="evenodd" fill="none" stroke="#000000" stroke-width="2" stroke-linecap="round" stroke-linejoin="round" stroke-miterlimit="10" d="
			M241,327.5c2.738,4.935,7.833,6.403,12.5,8.5"/>
		
			<path fill-rule="evenodd" clip-rule="evenodd" fill="none" stroke="#000000" stroke-width="2" stroke-linecap="round" stroke-linejoin="round" stroke-miterlimit="10" d="
			M549.5,232.5c-1.949,0.074-3.066,3.201-5.5,1.5"/>
		
			<path fill-rule="evenodd" clip-rule="evenodd" fill="none" stroke="#000000" stroke-width="2" stroke-linecap="round" stroke-linejoin="round" stroke-miterlimit="10" d="
			M218.5,375c3,1,6,2,9,3"/>
	</g>
</g>
</svg>
