<?xml version="1.0" encoding="utf-8"?>
<!-- Generator: Adobe Illustrator 16.0.0, SVG Export Plug-In . SVG Version: 6.00 Build 0)  -->
<!DOCTYPE svg PUBLIC "-//W3C//DTD SVG 1.1//EN" "http://www.w3.org/Graphics/SVG/1.1/DTD/svg11.dtd">
<svg version="1.1" id="Calque_1" xmlns="http://www.w3.org/2000/svg" xmlns:xlink="http://www.w3.org/1999/xlink" x="0px" y="0px"
	 width="843px" height="596px" viewBox="0 0 843 596" enable-background="new 0 0 843 596" xml:space="preserve">
<g>
	<g>
		
			<path fill-rule="evenodd" clip-rule="evenodd" fill="none" stroke="#000000" stroke-width="2" stroke-linecap="round" stroke-linejoin="round" stroke-miterlimit="10" d="
			M315,121.5c-4.037-0.844-7.034,1.592-9.917,3.619c-1.635,1.149-2.754,1.537-4.606,0.953c-1.212-0.383-2.644-0.072-3.977-0.072
			c-30.333,0-60.667-0.001-91,0.003c-2.012,0-4.045-0.21-6.305,0.681c2.789,3.296,5.403,6.691,8.329,9.794
			c15.554,16.487,30.253,33.746,45.605,50.403c8.152,8.846,16.419,17.585,24.402,26.592c2.809,3.17,6.677,5.601,8.802,9.128
			c3.148,5.225,7.45,5.476,12.667,5.47c93.833-0.097,187.667-0.07,281.5-0.073c2.012,0,4.045,0.21,6.36-0.703
			c-6.322-7.138-12.485-14.313-18.881-21.274c-16.438-17.891-33.218-35.475-49.346-53.638c-5.404-6.086-11.93-11.238-16.134-18.382"
			/>
		
			<path fill-rule="evenodd" clip-rule="evenodd" fill="none" stroke="#000000" stroke-width="2" stroke-linecap="round" stroke-linejoin="round" stroke-miterlimit="10" d="
			M378,139.5c-1.603-0.801-3.326-0.486-5-0.488c-15.167-0.021-30.333-0.012-45.5-0.012c-31.333,0-62.667-0.003-94,0.009
			c-1.676,0.001-3.4-0.344-5.088,0.853c1.761,3.152,4.741,5.73,7.216,8.525c11.883,13.418,24.276,26.383,36.347,39.637
			c7.473,8.206,14.74,16.603,21.986,25.011c1.444,1.677,3.017,1.995,5.04,1.994c84.833-0.033,169.666-0.027,254.5-0.04
			c1.172,0,2.345-0.17,4.555-0.341c-22.884-25.117-45.22-49.633-67.555-74.147"/>
		
			<path fill-rule="evenodd" clip-rule="evenodd" fill="none" stroke="#000000" stroke-width="2" stroke-linecap="round" stroke-linejoin="round" stroke-miterlimit="10" d="
			M497.5,500.5c-7.5,0.333-14.997,0.782-22.5,0.973c-10.831,0.274-21.689-0.031-32.495,0.613
			c-19.324,1.152-38.664,1.497-57.995,2.194c-13.332,0.48-26.704-0.004-40.01,1.22"/>
		
			<path fill-rule="evenodd" clip-rule="evenodd" fill="none" stroke="#000000" stroke-width="2" stroke-linecap="round" stroke-linejoin="round" stroke-miterlimit="10" d="
			M363.5,331c-2.289-1.459-4.979-1.754-7.505-1.923c-12.488-0.836-25.001-1.308-37.493-2.107
			c-11.34-0.726-22.663-1.708-34.174-2.591c-1.669,3.107-1.153,4.453,2.669,4.678c20.674,1.214,41.348,2.459,61.995,4.052
			c5.024,0.388,9.968,1.438,15.008,0.392"/>
		
			<path fill-rule="evenodd" clip-rule="evenodd" fill="none" stroke="#000000" stroke-width="2" stroke-linecap="round" stroke-linejoin="round" stroke-miterlimit="10" d="
			M234,384c-5.272-2.754-8.073-7.747-10.935-12.539c-2.803-4.692-5.871-9.184-10.63-11.844c-3.379-1.888-5.217-4.887-7.387-7.654
			c-5.243-6.687-13.335-9.888-19.058-15.953c-2.102-2.228-4.265-4.405-6.503-6.495c-3.134-2.926-7.632-3.327-9.986-1.015
			c-2.27,2.229-2.037,6.138,0.495,9.504c9.404,12.498,19.522,24.385,29.62,36.321c6.212,7.343,10.467,16.689,15.945,24.966
			c3.373,5.096,2.198,13.091,3.527,19.691c0.838,4.164,0.75,7.924-1.588,11.518"/>
		
			<path fill-rule="evenodd" clip-rule="evenodd" fill="none" stroke="#000000" stroke-width="2" stroke-linecap="round" stroke-linejoin="round" stroke-miterlimit="10" d="
			M502,492.5c-8.526,2.49-17.342,1.402-26.008,1.861c-13.139,0.696-26.328,0.364-39.492,0.666c-17.002,0.389-33.999,1.021-51,1.455
			c-10.331,0.264-20.667,0.323-30.999,0.532c-3.835,0.077-7.703,0.721-11.491,0.383c-4.651-0.415-5.63,1.685-5.012,5.603
			c0.184,1.164,0.336,2.333,0.502,3.5"/>
		
			<path fill-rule="evenodd" clip-rule="evenodd" fill="none" stroke="#000000" stroke-width="2" stroke-linecap="round" stroke-linejoin="round" stroke-miterlimit="10" d="
			M479,482c1.722-5.654-0.006-9.065-5.988-12.521c-8.105-4.683-15.34-10.3-21.139-17.883c-3.267-4.271-6.237-9.082-12.326-10.765
			c-4.935-1.363-9.744-0.759-14.54-0.61c-2.169,0.067-4.755,0.438-5.888-0.828c-6.506-7.265-14.067-4.764-21.616-2.883
			c-8.723,2.173-17.691,2.92-26.473,4.64c-5.161,1.01-10.686,2.589-14.882,5.559c-7.01,4.959-14.535,4.172-22.147,4.283
			c-3.201,0.047-6.404,0.008-9.688,0.008c0.941,4.798,4.717,7.635,3.688,12"/>
		
			<path fill-rule="evenodd" clip-rule="evenodd" fill="none" stroke="#000000" stroke-width="2" stroke-linecap="round" stroke-linejoin="round" stroke-miterlimit="10" d="
			M234.5,304.5c-5.271,1.639-6.702-2.703-9.014-5.739c-1.488-1.953-2.267-4.063-5.398-5.041c-4.076-1.273-4.888-6.528-7.548-9.752
			c-1.618-1.962-2.413-5.488-5.502-4.802c-3.362,0.747-4.901,3.609-5.118,7.329c-0.302,5.188,0.291,10.181,3.143,14.464
			c6.224,9.347,8.681,20.102,11.725,30.603c0.437,1.508,0.715,3.766,1.394,4.823c2.97,4.625,1.811,9.343,1.32,14.115"/>
		
			<path fill-rule="evenodd" clip-rule="evenodd" fill="none" stroke="#000000" stroke-width="2" stroke-linecap="round" stroke-linejoin="round" stroke-miterlimit="10" d="
			M178,416c-1.245,1.368-0.141,2.582,0.546,3.464c4.214,5.407,7.851,11.143,13.316,15.701c7.764,6.475,12.645,15.392,16.054,24.865
			c2.387,6.633,5.571,12.759,9.628,18.438c2.113,2.958,5.159,4.971,8.455,6.532"/>
		
			<path fill-rule="evenodd" clip-rule="evenodd" fill="none" stroke="#000000" stroke-width="2" stroke-linecap="round" stroke-linejoin="round" stroke-miterlimit="10" d="
			M382,92c-13.524,3.637-27.676,5.552-39.075,14.908c-1.622,1.331-4.257,1.429-6.425,2.091c-8.512,2.602-15.908,6.682-21.632,13.896
			c-2.898,3.653-5.97,8.142-11.868,7.604"/>
		
			<path fill-rule="evenodd" clip-rule="evenodd" fill="none" stroke="#000000" stroke-width="2" stroke-linecap="round" stroke-linejoin="round" stroke-miterlimit="10" d="
			M445,139.5c-5.472-1.103-11.014-0.095-16.497-0.539c-4-0.323-7.951,0.314-12.075-0.656c-2.692-0.634-6.302,0.05-9.033,3.102
			c-11.782,13.166-25.999,23.516-40.409,33.574c-4.037,2.817-7.422,2.707-9.986,0.02c-2.167-2.271-1.849-6.384,0.466-10.021
			c1.887-2.967,4.596-5.137,7.101-7.404c7.437-6.733,11.254-16.56,19.452-22.549c6.875-5.022,10.573-13.071,17.481-18.025"/>
		
			<path fill-rule="evenodd" clip-rule="evenodd" fill="none" stroke="#000000" stroke-width="2" stroke-linecap="round" stroke-linejoin="round" stroke-miterlimit="10" d="
			M517,393c-1.833,7.5-3.687,14.995-5.495,22.501c-2.008,8.332-3.975,16.673-6.125,25.702c-5.533-1.323-11.208-1.197-16.88-1.203"/>
		
			<path fill-rule="evenodd" clip-rule="evenodd" fill="none" stroke="#000000" stroke-width="2" stroke-linecap="round" stroke-linejoin="round" stroke-miterlimit="10" d="
			M351,308c-4.791-2.176-10.584-2.613-13.529-7.984c-0.721-1.314-2.211-1.038-3.471-1.008c-1.134,0.028-2.407,0.233-2.978-1.018
			c-2.101-4.605-6.539-6.179-10.474-8.569c-4.54-2.759-9.631-4.679-13.541-8.429c-4.384-4.205-9.012-0.615-13.505-0.422
			c-2.683,0.115-5.336,0.93-8.003,1.43"/>
		
			<path fill-rule="evenodd" clip-rule="evenodd" fill="none" stroke="#000000" stroke-width="2" stroke-linecap="round" stroke-linejoin="round" stroke-miterlimit="10" d="
			M375,295c1.726-3.731,3.244-7.516,2.984-11.931c-5.172-0.705-9.823-2.305-13.08-7.003c-1.597-2.304-4.801-2.614-7.401-3.574
			c-4.355-1.609-8.991-2.512-12.995-5.005c-2.778-1.73-5.828-0.709-8.483-0.32c-6.991,1.023-14.281,1.86-20.986,1.341
			c-7.675-0.595-15.848-2.198-23.006-6.067c-0.916-0.495-1.699-0.272-2.532-0.44"/>
		
			<path fill-rule="evenodd" clip-rule="evenodd" fill="none" stroke="#000000" stroke-width="2" stroke-linecap="round" stroke-linejoin="round" stroke-miterlimit="10" d="
			M478.5,355.5c-4.5,16.5-9.009,32.998-13.473,49.507c-0.211,0.777-0.027,1.66-0.027,2.493"/>
		
			<path fill-rule="evenodd" clip-rule="evenodd" fill="none" stroke="#000000" stroke-width="2" stroke-linecap="round" stroke-linejoin="round" stroke-miterlimit="10" d="
			M229.5,440.5c-1.645-3.362-5.615-3.43-8.131-5.864c-5.743-5.558-10.744-11.474-14.431-18.604
			c-2.637-5.101-6.724-9.177-10.958-13.01c-2.801-2.535-6.732-4.071-9.877-2.773c-3.936,1.625-8.552,3.887-8.13,9.753
			c0.119,1.653-1.835,3.902,0.094,4.866c2.982,1.489,4.522,4.998,8.428,5.238c3.131,0.192,4.523-1.864,5.91-3.68
			c1.262-1.652,1.073-4.02,0.053-5.903c-1.259-2.324-2.714-4.599-5.619-5.571c-2.719,1.81-5.528,3.679-8.338,5.548"/>
		
			<path fill-rule="evenodd" clip-rule="evenodd" fill="none" stroke="#000000" stroke-width="2" stroke-linecap="round" stroke-linejoin="round" stroke-miterlimit="10" d="
			M226,301.5c0.304,4.805,1.59,9.541,4.124,13.419c6.061,9.273,9.303,19.483,12.045,30.037c0.51,1.965-0.064,4.453,1.831,6.044"/>
		
			<path fill-rule="evenodd" clip-rule="evenodd" fill="none" stroke="#000000" stroke-width="2" stroke-linecap="round" stroke-linejoin="round" stroke-miterlimit="10" d="
			M439.5,464c-4.086,2.579-7.764-0.672-11.457-1.267c-8.534-1.374-16.823-3.974-25.554-1.269c-4.06,1.258-8.61,0.266-12.489,2.535"
			/>
		
			<path fill-rule="evenodd" clip-rule="evenodd" fill="none" stroke="#000000" stroke-width="2" stroke-linecap="round" stroke-linejoin="round" stroke-miterlimit="10" d="
			M383,490c-5.291,3.865-11.479,2.35-16.967,1.715c-6.996-0.809-14.217-0.842-20.991-2.855c-4.211-1.252-8.473-0.049-12.542-1.359"
			/>
		
			<path fill-rule="evenodd" clip-rule="evenodd" fill="none" stroke="#000000" stroke-width="2" stroke-linecap="round" stroke-linejoin="round" stroke-miterlimit="10" d="
			M584,404c6.021-3.885,10.063-9.292,12.529-15.989c0.907-2.464,0.695-4.419-1.523-6.019c-2.028-1.464-3.866-1.236-6.042-0.06
			c-2.578,1.395-4.867,3.074-6.959,5.072c-1.193,1.14-2.146,2.707-3.545,3.415c-2.82,1.428-5.372,3.335-4.305,6.528
			c1.17,3.503,2.693,6.864,7.285,8.249c5.285,1.594,11.73,1.43,15.124,7.266c0.168,0.289,1.269,0.037,1.936,0.037"/>
		
			<path fill-rule="evenodd" clip-rule="evenodd" fill="none" stroke="#000000" stroke-width="2" stroke-linecap="round" stroke-linejoin="round" stroke-miterlimit="10" d="
			M319.5,314.5c0.833,0.167,1.689,0.268,2.487,0.537c0.26,0.088,0.373,0.615,0.645,1.106c-1.201,2.924-2.834,3.941-6.174,2.452
			c-3.304-1.474-6.557-2.997-9.429-5.134c-5.586-4.153-11.425-6.653-18.545-4.518c-1.561,0.469-3.38-0.245-4.983,0.556"/>
		
			<path fill-rule="evenodd" clip-rule="evenodd" fill="none" stroke="#000000" stroke-width="2" stroke-linecap="round" stroke-linejoin="round" stroke-miterlimit="10" d="
			M456,164.5c0.41-1.313,1.078-2.414,1.941-3.544c3.992-5.228,2.24-11.364-3.971-12.834c-4.299-1.018-6.924,2.621-9.412,5.43
			c-1.814,2.046-0.151,4.205,1.008,5.903c1.356,1.988,3.887,3.188,3.934,6.045"/>
		
			<path fill-rule="evenodd" clip-rule="evenodd" fill="none" stroke="#000000" stroke-width="2" stroke-linecap="round" stroke-linejoin="round" stroke-miterlimit="10" d="
			M404.5,302.5c-8.5,6.833-17.018,13.645-25.492,20.51c-4.045,3.277-8.066,6.591-11.97,10.033c-1.082,0.954-1.704-0.028-2.538-0.043
			"/>
		
			<path fill-rule="evenodd" clip-rule="evenodd" fill="none" stroke="#000000" stroke-width="2" stroke-linecap="round" stroke-linejoin="round" stroke-miterlimit="10" d="
			M352.25,305.5c0.211,6.173-4.082,11.896-9.75,13c-3.411,0.664-8.602-1.968-10.007-4.996c-3.377-7.277-8.387-13.66-14.224-18.738
			c-4.561-3.97-11.423-4.65-17.769-4.766"/>
		
			<path fill-rule="evenodd" clip-rule="evenodd" fill="none" stroke="#000000" stroke-width="2" stroke-linecap="round" stroke-linejoin="round" stroke-miterlimit="10" d="
			M615.5,482.5c-4.667-0.103-9.283-0.597-14.018-0.219c-3.247,0.259-5.934,1.602-8.389,2.896
			c-5.201,2.743-10.331,1.816-15.594,1.322"/>
		
			<path fill-rule="evenodd" clip-rule="evenodd" fill="none" stroke="#000000" stroke-width="2" stroke-linecap="round" stroke-linejoin="round" stroke-miterlimit="10" d="
			M472,120.5c-6.42-3.289-13.135-1.394-19.441-0.194c-3.324,0.632-6.793,0.742-10.119,1.383c-5.008,0.963-8.883,3.272-12.375,6.384
			c-3.888,3.462-8.09,6.356-12.564,8.928"/>
		
			<path fill-rule="evenodd" clip-rule="evenodd" fill="none" stroke="#000000" stroke-width="2" stroke-linecap="round" stroke-linejoin="round" stroke-miterlimit="10" d="
			M360,124c-8.305,1.437-16.999,1.566-24.455,6.074c-4.351,2.631-9.452,4.056-13.045,7.926"/>
		
			<path fill-rule="evenodd" clip-rule="evenodd" fill="none" stroke="#000000" stroke-width="2" stroke-linecap="round" stroke-linejoin="round" stroke-miterlimit="10" d="
			M616.5,305c-6.837,1.846-12.573,6.482-19.511,7.951c-12.313,2.607-17.322-2.42-18.489-12.951"/>
		
			<path fill-rule="evenodd" clip-rule="evenodd" fill="none" stroke="#000000" stroke-width="2" stroke-linecap="round" stroke-linejoin="round" stroke-miterlimit="10" d="
			M559.5,405c-0.5,0.667-1.555,1.755-1.417,1.937c2.173,2.859,5.632,4.011,8.372,6.121c1.756,1.353,3.26,0.648,5.051,0.532
			c6.151-0.4,12.328-0.399,18.494-0.604c1.868-0.062,3.888,0.563,5.5-0.985"/>
		
			<path fill-rule="evenodd" clip-rule="evenodd" fill="none" stroke="#000000" stroke-width="2" stroke-linecap="round" stroke-linejoin="round" stroke-miterlimit="10" d="
			M364.5,441c-1.441-1.46-3.288-1.004-5-0.982c-10.667,0.133-21.333,0.315-32,0.482"/>
		
			<path fill-rule="evenodd" clip-rule="evenodd" fill="none" stroke="#000000" stroke-width="2" stroke-linecap="round" stroke-linejoin="round" stroke-miterlimit="10" d="
			M441,460c-7.926,0.482-14.605-2.587-19.912-8.085c-4.356-4.514-9.124-4.487-14.598-3.468c-6.989,1.302-14.042,1.882-20.99-0.447"
			/>
		
			<path fill-rule="evenodd" clip-rule="evenodd" fill="none" stroke="#000000" stroke-width="2" stroke-linecap="round" stroke-linejoin="round" stroke-miterlimit="10" d="
			M431,411c-11.335-0.274-22.675-0.363-34.009-0.7c-12.452-0.371-24.205-3.038-35.986-6.319c-2.869-0.799-6.124-1.521-8.419,0.139
			c-6.577,4.752-12.746,3.497-19.102-0.092C333.105,403.813,332.5,404,332,404"/>
		
			<path fill-rule="evenodd" clip-rule="evenodd" fill="none" stroke="#000000" stroke-width="2" stroke-linecap="round" stroke-linejoin="round" stroke-miterlimit="10" d="
			M497.5,299c-0.167-0.167-0.396-0.304-0.491-0.504c-3.396-7.207-3.856-9.999-15.021-5.525c-3.682,1.476-4.765,3.792-3.522,7.541
			c1.265,3.815,2.781,7.407,6.034,9.988"/>
		
			<path fill-rule="evenodd" clip-rule="evenodd" fill="none" stroke="#000000" stroke-width="2" stroke-linecap="round" stroke-linejoin="round" stroke-miterlimit="10" d="
			M533.5,110.5c-2.14,7.935-8.798,11.575-15.035,15.442c-5.732,3.554-12.386,5.217-18.435,8.12
			c-8.925,4.284-17.86,9.063-23.845,17.076c-4.486,6.008-10.682,9.496-16.329,13.667c-5.464,4.035-15.808,0.65-19.926-4.753
			c-3.417-4.483-2.018-11.442,1.571-15.552c4.633-5.308,10.563-8.88,16.444-12.586c2.274-1.433,5.13-2.282,6.554-4.915"/>
		
			<path fill-rule="evenodd" clip-rule="evenodd" fill="none" stroke="#000000" stroke-width="2" stroke-linecap="round" stroke-linejoin="round" stroke-miterlimit="10" d="
			M466.5,378.5c-5.02,6.224-11.719,10.608-17.527,15.971c-5.205,4.806-10.631,9.373-15.977,14.025
			c-2.557,2.226-0.84,5.021-0.92,7.507c-0.215,6.658-0.079,6.707,6.428,8.484c6.316,1.726,12.662,3.346,18.996,5.013"/>
		
			<path fill-rule="evenodd" clip-rule="evenodd" fill="none" stroke="#000000" stroke-width="2" stroke-linecap="round" stroke-linejoin="round" stroke-miterlimit="10" d="
			M517,435c-0.064,6.156-1.992,12.011-3.102,17.981c-2.333,12.562-5.053,25.062-8.009,37.492c-0.872,3.669-2.31,7.162-1.89,11.026"
			/>
		
			<path fill-rule="evenodd" clip-rule="evenodd" fill="none" stroke="#000000" stroke-width="2" stroke-linecap="round" stroke-linejoin="round" stroke-miterlimit="10" d="
			M269,426c7.167,4,14.366,7.943,21.489,12.019c5.311,3.039,8.601,7.744,10.511,13.481"/>
		
			<path fill-rule="evenodd" clip-rule="evenodd" fill="none" stroke="#000000" stroke-width="2" stroke-linecap="round" stroke-linejoin="round" stroke-miterlimit="10" d="
			M399.5,476.5c5.478,4.127,12.132,5.112,18.529,6.349c4.703,0.908,9.034,3.202,13.967,3.32c1.193,0.029,2.338,2.164,3.504,3.331"/>
		
			<path fill-rule="evenodd" clip-rule="evenodd" fill="none" stroke="#000000" stroke-width="2" stroke-linecap="round" stroke-linejoin="round" stroke-miterlimit="10" d="
			M573.5,395.5c-3.167-0.873-6.314-0.281-9.504-0.055c-7.154,0.508-14.329,0.722-21.496,1.055"/>
		
			<path fill-rule="evenodd" clip-rule="evenodd" fill="none" stroke="#000000" stroke-width="2" stroke-linecap="round" stroke-linejoin="round" stroke-miterlimit="10" d="
			M332,283c6.209-1.023,10.482,3.135,14.888,6.163c3.034,2.085,5.729,4.893,8.762,7.201c-0.577,2.32-1.113,4.479-1.649,6.636"/>
		
			<path fill-rule="evenodd" clip-rule="evenodd" fill="none" stroke="#000000" stroke-width="2" stroke-linecap="round" stroke-linejoin="round" stroke-miterlimit="10" d="
			M461.5,442c5.985-0.022,11.424,2.257,17.016,3.949c1.748,0.53,2.479,1.712,3.56,2.987c8.313,9.813,16.318,19.921,25.925,28.563"/>
		
			<path fill-rule="evenodd" clip-rule="evenodd" fill="none" stroke="#000000" stroke-width="2" stroke-linecap="round" stroke-linejoin="round" stroke-miterlimit="10" d="
			M435,125.5c6.143,1.083,12.338,0.197,18.5,0.512c3.499,0.179,7.016-0.449,10.516,0.427c1.134,0.284,2.299,0.09,3.543-0.862
			c6.338-4.851,11.721-10.374,14.441-18.076"/>
		
			<path fill-rule="evenodd" clip-rule="evenodd" fill="none" stroke="#000000" stroke-width="2" stroke-linecap="round" stroke-linejoin="round" stroke-miterlimit="10" d="
			M216.5,333.5c-1-0.167-2.218-0.029-2.958-0.559c-1.958-1.404-3.838-1.644-5.508,0.092c-1.83,1.903-1.391,4.32-0.49,6.448
			c1.473,3.476,3.435,7.199,7.005,8.366c7.447,2.433,6.435,8.736,7.376,14.165c0.304,1.752-0.26,3.654-0.426,5.487"/>
		
			<path fill-rule="evenodd" clip-rule="evenodd" fill="none" stroke="#000000" stroke-width="2" stroke-linecap="round" stroke-linejoin="round" stroke-miterlimit="10" d="
			M432.5,486c0.227-3.82-3.198-6.292-3.637-9.983c-0.207-1.739-2.639-0.509-3.84-1.066c-8.221-3.813-16.104-1.207-24.023,1.05"/>
		
			<path fill-rule="evenodd" clip-rule="evenodd" fill="none" stroke="#000000" stroke-width="2" stroke-linecap="round" stroke-linejoin="round" stroke-miterlimit="10" d="
			M564,390.5c-9.167,0.5-18.333,1-27.5,1.5"/>
		
			<path fill-rule="evenodd" clip-rule="evenodd" fill="none" stroke="#000000" stroke-width="2" stroke-linecap="round" stroke-linejoin="round" stroke-miterlimit="10" d="
			M358,88c-9.345,5.695-20.079,8.473-29.491,14.015c-4.326,2.547-10.16,3.066-12.032,8.978c-0.811,2.561-0.816,4.89,1.023,7.008"/>
		
			<path fill-rule="evenodd" clip-rule="evenodd" fill="none" stroke="#000000" stroke-width="2" stroke-linecap="round" stroke-linejoin="round" stroke-miterlimit="10" d="
			M364,297.5c1.363-3.118-1.189-5.103-2.612-6.912c-4.943-6.285-10.595-11.923-17.888-15.588"/>
		
			<path fill-rule="evenodd" clip-rule="evenodd" fill="none" stroke="#000000" stroke-width="2" stroke-linecap="round" stroke-linejoin="round" stroke-miterlimit="10" d="
			M602.5,279.5c-5.979,6.063-11.618,12.789-19.113,16.788c-6.546,3.491-11.099,9.032-16.842,13.273
			c-3.41,2.519-6.626,3.396-10.562,1.473c-3.083-1.505-6.403-2.531-9.456-4.087c-2.507-1.277-2.159-6.872,0.479-9.942
			C551.317,291.986,555.667,287,560,282"/>
		
			<path fill-rule="evenodd" clip-rule="evenodd" fill="none" stroke="#000000" stroke-width="2" stroke-linecap="round" stroke-linejoin="round" stroke-miterlimit="10" d="
			M500,465.5c-0.392-2.701,2.898-5.802,0.389-7.864c-4.125-3.39-6.86-8.878-12.896-9.571c-1.819-0.209-3.501-2.131-5.492-0.564"/>
		
			<path fill-rule="evenodd" clip-rule="evenodd" fill="none" stroke="#000000" stroke-width="2" stroke-linecap="round" stroke-linejoin="round" stroke-miterlimit="10" d="
			M434,409c5.493,2.071,11.197,3.227,16.998,4.017c3.369,0.459,6.503,2.145,10.002,1.983"/>
		
			<path fill-rule="evenodd" clip-rule="evenodd" fill="none" stroke="#000000" stroke-width="2" stroke-linecap="round" stroke-linejoin="round" stroke-miterlimit="10" d="
			M521.5,276c-5.205,2.123-9.077,6.096-11.864,10.584c-5.176,8.337-12.809,13.945-20.222,19.807c-2.062,1.63-4.04,3.308-5.887,5.137
			c-1.438,1.425-2.883,2.596-5.027,2.473"/>
		
			<path fill-rule="evenodd" clip-rule="evenodd" fill="none" stroke="#000000" stroke-width="2" stroke-linecap="round" stroke-linejoin="round" stroke-miterlimit="10" d="
			M224.5,294c3.77-1.783,4.785-1.176,7.514,3.993c5.159,9.772,9.531,19.91,13.903,30.043c0.409,0.947,0.805,1.242,1.583,1.464"/>
		
			<path fill-rule="evenodd" clip-rule="evenodd" fill="none" stroke="#000000" stroke-width="2" stroke-linecap="round" stroke-linejoin="round" stroke-miterlimit="10" d="
			M329,480c1.001-0.665,1.982-1.462,2.891-2.146c2.895-2.179,3.072-6.223,1.835-8.719c-1.356-2.74-3.75-5.997-7.727-6.099
			c-3.28-0.084-6.163,0.758-8.031,3.944c-3.634,6.201-2.747,9.26,4.532,14.519"/>
		
			<path fill-rule="evenodd" clip-rule="evenodd" fill="none" stroke="#000000" stroke-width="2" stroke-linecap="round" stroke-linejoin="round" stroke-miterlimit="10" d="
			M492,278c-4.351,2.925-8.808,5.702-12.505,9.495c-6.101,6.259-7.364,13.458-3.403,21.46c0.574,1.16-0.077,1.712-0.092,2.545"/>
		
			<path fill-rule="evenodd" clip-rule="evenodd" fill="none" stroke="#000000" stroke-width="2" stroke-linecap="round" stroke-linejoin="round" stroke-miterlimit="10" d="
			M350.5,390.5c-5.75,1.086-11.479,2.632-16.392,5.675c-2.988,1.851-6.459,0.771-9.108,2.825"/>
		
			<path fill-rule="evenodd" clip-rule="evenodd" fill="none" stroke="#000000" stroke-width="2" stroke-linecap="round" stroke-linejoin="round" stroke-miterlimit="10" d="
			M557,287c6.701,2.369,8.197,7.71,3.44,13.45c-2.396,2.892-5.048,5.684-8.44,7.55"/>
		
			<path fill-rule="evenodd" clip-rule="evenodd" fill="none" stroke="#000000" stroke-width="2" stroke-linecap="round" stroke-linejoin="round" stroke-miterlimit="10" d="
			M355,390c7.93,2.824,15.634,6.762,24.5,5"/>
		
			<path fill-rule="evenodd" clip-rule="evenodd" fill="none" stroke="#000000" stroke-width="2" stroke-linecap="round" stroke-linejoin="round" stroke-miterlimit="10" d="
			M279,390.5c0.75,10.766,18,20.517,28.5,16.5"/>
		
			<path fill-rule="evenodd" clip-rule="evenodd" fill="none" stroke="#000000" stroke-width="2" stroke-linecap="round" stroke-linejoin="round" stroke-miterlimit="10" d="
			M568.5,489.5c-5.342,0.604-10.684,1.207-16.377,1.85c1.27,4.176,3.991,5.507,7.875,5.698c6.551,0.324,13.005-0.65,19.502-1.048"/>
		
			<path fill-rule="evenodd" clip-rule="evenodd" fill="none" stroke="#000000" stroke-width="2" stroke-linecap="round" stroke-linejoin="round" stroke-miterlimit="10" d="
			M299,298c6.62,2.437,12.762,5.671,18.021,10.478c1.904,1.741,4.531,2.859,4.479,6.022"/>
		
			<path fill-rule="evenodd" clip-rule="evenodd" fill="none" stroke="#000000" stroke-width="2" stroke-linecap="round" stroke-linejoin="round" stroke-miterlimit="10" d="
			M320.5,487.5c-2.132,2.426-5.284,2.234-8.017,2.933c-5.576,1.426-10.545,4.347-15.983,6.067"/>
		
			<path fill-rule="evenodd" clip-rule="evenodd" fill="none" stroke="#000000" stroke-width="2" stroke-linecap="round" stroke-linejoin="round" stroke-miterlimit="10" d="
			M420,103c-2,2-3.856,4.174-6.029,5.965c-5.054,4.166-9.927,8.385-17.499,7.213c-3.887-0.603-8.091,0.442-11.973,1.821
			c-1.165,0.414-2.239,0.29-3.516,0.13c-5.886-0.739-11.634,0.055-16.986,2.866c-2.681,1.408-4.542,6.461-2.946,8.972
			c1.842,2.9,4.532,3.988,7.953,2.543c6.342-2.679,10.586-7.419,13.496-13.51"/>
		
			<path fill-rule="evenodd" clip-rule="evenodd" fill="none" stroke="#000000" stroke-width="2" stroke-linecap="round" stroke-linejoin="round" stroke-miterlimit="10" d="
			M386,258.5c-2.017,7.763-4.05,15.521-7,23"/>
		
			<path fill-rule="evenodd" clip-rule="evenodd" fill="none" stroke="#000000" stroke-width="2" stroke-linecap="round" stroke-linejoin="round" stroke-miterlimit="10" d="
			M585,376c-5.258-5.31-11.217-8.053-19.019-6.597c-7.398,1.38-14.98,0.461-22.481,0.597"/>
		
			<path fill-rule="evenodd" clip-rule="evenodd" fill="none" stroke="#000000" stroke-width="2" stroke-linecap="round" stroke-linejoin="round" stroke-miterlimit="10" d="
			M598,278c-5.167,4.833-10.325,9.676-15.505,14.495c-1.759,1.637-3.349,3.328-2.995,6.005"/>
		
			<path fill-rule="evenodd" clip-rule="evenodd" fill="none" stroke="#000000" stroke-width="2" stroke-linecap="round" stroke-linejoin="round" stroke-miterlimit="10" d="
			M477.5,313.5c-4.039-3.453-8.621-5.085-14.003-4.526c-5.987,0.621-11.997,1.042-17.997,0.026"/>
		
			<path fill-rule="evenodd" clip-rule="evenodd" fill="none" stroke="#000000" stroke-width="2" stroke-linecap="round" stroke-linejoin="round" stroke-miterlimit="10" d="
			M381.5,488.5c8.161,0.59,16.436-0.274,24.489,1.55c5.996,1.357,12.465,0.572,18.011,3.95"/>
		
			<path fill-rule="evenodd" clip-rule="evenodd" fill="none" stroke="#000000" stroke-width="2" stroke-linecap="round" stroke-linejoin="round" stroke-miterlimit="10" d="
			M612,394c-6.623,4.819-12.635,10.566-20.5,13.5"/>
		
			<path fill-rule="evenodd" clip-rule="evenodd" fill="none" stroke="#000000" stroke-width="2" stroke-linecap="round" stroke-linejoin="round" stroke-miterlimit="10" d="
			M369,310.5c1.829,2.791,0.056,5.354-0.496,8.001c-1.068,5.131-3.921,9.724-4.504,14.999"/>
		
			<path fill-rule="evenodd" clip-rule="evenodd" fill="none" stroke="#000000" stroke-width="2" stroke-linecap="round" stroke-linejoin="round" stroke-miterlimit="10" d="
			M343,424.5c-7.347,2.623-13.219,7.645-19.5,12"/>
		
			<path fill-rule="evenodd" clip-rule="evenodd" fill="none" stroke="#000000" stroke-width="2" stroke-linecap="round" stroke-linejoin="round" stroke-miterlimit="10" d="
			M365,158.5c1.789,0.646,3.255,1.66,4.175,3.818c-3.314,4.3-5.479,10.135-12.675,9.682"/>
		
			<path fill-rule="evenodd" clip-rule="evenodd" fill="none" stroke="#000000" stroke-width="2" stroke-linecap="round" stroke-linejoin="round" stroke-miterlimit="10" d="
			M605.5,476c-6.57-0.018-13.126,0.108-19.5,2"/>
		
			<path fill-rule="evenodd" clip-rule="evenodd" fill="none" stroke="#000000" stroke-width="2" stroke-linecap="round" stroke-linejoin="round" stroke-miterlimit="10" d="
			M598,365c-4.715,4.113-8.199,9.592-13.982,12.535c-0.666,0.339-1.075,1.229-2.017,0.96c-5.556-1.594-11.009,0.445-16.492,0.692
			c-6.946,0.313-11.98-2.865-16.978-6.728c-0.242-0.188-0.031-0.96-0.031-1.46"/>
		
			<path fill-rule="evenodd" clip-rule="evenodd" fill="none" stroke="#000000" stroke-width="2" stroke-linecap="round" stroke-linejoin="round" stroke-miterlimit="10" d="
			M357,424.5c1.526,5.825,5.914,9.307,10.563,12.404c1.185,0.789,3.297,0.159,4.366-0.971c1.088-1.15,0.746-2.686-0.405-3.956
			c-0.482-0.532-0.691-1.311-1.025-1.978"/>
		
			<path fill-rule="evenodd" clip-rule="evenodd" fill="none" stroke="#000000" stroke-width="2" stroke-linecap="round" stroke-linejoin="round" stroke-miterlimit="10" d="
			M330.5,102c0.828,4.617-2.426,8.165-8.508,8.933c-1.431,0.181-3.097,0.683-4.492-0.433"/>
		
			<path fill-rule="evenodd" clip-rule="evenodd" fill="none" stroke="#000000" stroke-width="2" stroke-linecap="round" stroke-linejoin="round" stroke-miterlimit="10" d="
			M577,403.5c-6.124,1.756-12.33,1.268-18.488,0.414c-1.682-0.233-3.337-0.324-5.012-0.414"/>
		
			<path fill-rule="evenodd" clip-rule="evenodd" fill="none" stroke="#000000" stroke-width="2" stroke-linecap="round" stroke-linejoin="round" stroke-miterlimit="10" d="
			M557,280c-5.483,3.95-11.841,6.549-17,11"/>
		
			<path fill-rule="evenodd" clip-rule="evenodd" fill="none" stroke="#000000" stroke-width="2" stroke-linecap="round" stroke-linejoin="round" stroke-miterlimit="10" d="
			M321,487.5c2.513,1.914,4.822,1.013,6.41-1.068c1.093-1.434,2.407-3.845,0.506-5.323c-2.021-1.571-4.23-0.451-5.925,1.383
			c-1.233,1.334-0.964,2.94-0.991,4.509"/>
		
			<path fill-rule="evenodd" clip-rule="evenodd" fill="none" stroke="#000000" stroke-width="2" stroke-linecap="round" stroke-linejoin="round" stroke-miterlimit="10" d="
			M297.5,452.5c-5.525-0.023-10.98,0.328-16,3"/>
		
			<path fill-rule="evenodd" clip-rule="evenodd" fill="none" stroke="#000000" stroke-width="2" stroke-linecap="round" stroke-linejoin="round" stroke-miterlimit="10" d="
			M172,328.5c0.36,5.257,4.684,7.652,8.118,10.351c2,1.571,2.683-1.672,3.882-2.851"/>
		
			<path fill-rule="evenodd" clip-rule="evenodd" fill="none" stroke="#000000" stroke-width="2" stroke-linecap="round" stroke-linejoin="round" stroke-miterlimit="10" d="
			M561,485c3.136-2.272,6.328-4.399,7.558-8.482c0.825-2.739,0.36-4.394-2.558-5.018"/>
		
			<path fill-rule="evenodd" clip-rule="evenodd" fill="none" stroke="#000000" stroke-width="2" stroke-linecap="round" stroke-linejoin="round" stroke-miterlimit="10" d="
			M349.5,409c3.018,1.735,5.517,4.044,8.131,6.352c5.93,5.235,12.97,6.776,20.909,4.277c3.611-1.137,7.494-1.679,11.435-1.969
			c3.108-0.229,4.753,2.698,7.525,1.84"/>
		
			<path fill-rule="evenodd" clip-rule="evenodd" fill="none" stroke="#000000" stroke-width="2" stroke-linecap="round" stroke-linejoin="round" stroke-miterlimit="10" d="
			M500.5,481c-1.354,0-2.708,0-5.584,0c3.525,4.851,6.305,8.676,9.084,12.5"/>
		
			<path fill-rule="evenodd" clip-rule="evenodd" fill="none" stroke="#000000" stroke-width="2" stroke-linecap="round" stroke-linejoin="round" stroke-miterlimit="10" d="
			M560,468c-2.664,5.087-3.769,10.93-7.5,15.5"/>
		
			<path fill-rule="evenodd" clip-rule="evenodd" fill="none" stroke="#000000" stroke-width="2" stroke-linecap="round" stroke-linejoin="round" stroke-miterlimit="10" d="
			M430,476c5.285-0.094,10.064,1.937,13.297,5.676c2.006,2.32,3.086,5.448,6.203,6.824"/>
		
			<path fill-rule="evenodd" clip-rule="evenodd" fill="none" stroke="#000000" stroke-width="2" stroke-linecap="round" stroke-linejoin="round" stroke-miterlimit="10" d="
			M379.5,392.5c0.142,4.214,2.625,5.989,6.46,7.135c2.364,0.707,5.322,0.429,7.027,2.975c-0.306,2.255-0.956,4.492-2.487,6.391"/>
		
			<path fill-rule="evenodd" clip-rule="evenodd" fill="none" stroke="#000000" stroke-width="2" stroke-linecap="round" stroke-linejoin="round" stroke-miterlimit="10" d="
			M370.5,282c-1.661,3.068,0.851,5.637,1.067,8.495c0.153,2.026,0.933,4.005,1.433,6.005"/>
		
			<path fill-rule="evenodd" clip-rule="evenodd" fill="none" stroke="#000000" stroke-width="2" stroke-linecap="round" stroke-linejoin="round" stroke-miterlimit="10" d="
			M562.5,380c2.605,5.494,7.64,6.78,13,7.5"/>
		
			<path fill-rule="evenodd" clip-rule="evenodd" fill="none" stroke="#000000" stroke-width="2" stroke-linecap="round" stroke-linejoin="round" stroke-miterlimit="10" d="
			M591,291.5c0.98,1.835,3.046,1.208,4.515,1.972c2.916,1.516,3.561,3.985,1.475,6.52c-1.274,1.548-2.752,2.935-3.971,4.522
			c-3.539,4.61-4.146,4.788-9.528,2.508c-0.766-0.324-1.657-0.354-2.49-0.521"/>
		
			<path fill-rule="evenodd" clip-rule="evenodd" fill="none" stroke="#000000" stroke-width="2" stroke-linecap="round" stroke-linejoin="round" stroke-miterlimit="10" d="
			M463,411.5c-2.169,8.711-3.887,17.543-7,26"/>
		
			<path fill-rule="evenodd" clip-rule="evenodd" fill="none" stroke="#000000" stroke-width="2" stroke-linecap="round" stroke-linejoin="round" stroke-miterlimit="10" d="
			M605.5,494c-5.5-2.032-11.004,0.11-16.499,0.149c-5.419,0.038-9.618-1.568-13.093-5.246c1.235-5.328,4.053-8.669,9.092-9.903"/>
		
			<path fill-rule="evenodd" clip-rule="evenodd" fill="none" stroke="#000000" stroke-width="2" stroke-linecap="round" stroke-linejoin="round" stroke-miterlimit="10" d="
			M331.5,290c2.692,1.795,5.385,3.59,7.99,5.327c0.11,1.873-0.808,3.233-1.49,4.673"/>
		
			<path fill-rule="evenodd" clip-rule="evenodd" fill="none" stroke="#000000" stroke-width="2" stroke-linecap="round" stroke-linejoin="round" stroke-miterlimit="10" d="
			M561,489.5c-1.764-4.414-4.561-6.344-8.984-5.425c-4.003,0.832-7.989,0.905-12.016,0.925"/>
		
			<path fill-rule="evenodd" clip-rule="evenodd" fill="none" stroke="#000000" stroke-width="2" stroke-linecap="round" stroke-linejoin="round" stroke-miterlimit="10" d="
			M374,296.25c-3.21,10.424-11.441,12.889-21,13.25"/>
		
			<path fill-rule="evenodd" clip-rule="evenodd" fill="none" stroke="#000000" stroke-width="2" stroke-linecap="round" stroke-linejoin="round" stroke-miterlimit="10" d="
			M570.5,462.5c-4.791,7.085-8.87,14.635-14,21.5"/>
		
			<path fill-rule="evenodd" clip-rule="evenodd" fill="none" stroke="#000000" stroke-width="2" stroke-linecap="round" stroke-linejoin="round" stroke-miterlimit="10" d="
			M591,466.5c-0.456,2.706-2.648,4.368-4.072,6.45c-2.814,4.115-2.859,4.934,1.066,8.057c1.202,0.956,2.339,1.993,3.506,2.993"/>
		
			<path fill-rule="evenodd" clip-rule="evenodd" fill="none" stroke="#000000" stroke-width="2" stroke-linecap="round" stroke-linejoin="round" stroke-miterlimit="10" d="
			M379.5,125.5c3.739,1.42,7.758-0.385,11.5,1"/>
		
			<path fill-rule="evenodd" clip-rule="evenodd" fill="none" stroke="#000000" stroke-width="2" stroke-linecap="round" stroke-linejoin="round" stroke-miterlimit="10" d="
			M461,462.5c-0.333,2.5-1.635,5.683,0.139,7.354c3.379,3.185,4.203,8.324,9.301,10.304c5.964,2.316,12.404,3.226,18.061,6.343"/>
		
			<path fill-rule="evenodd" clip-rule="evenodd" fill="none" stroke="#000000" stroke-width="2" stroke-linecap="round" stroke-linejoin="round" stroke-miterlimit="10" d="
			M565.5,418c-4.337-0.771-6.663-5.229-11-6"/>
		
			<path fill-rule="evenodd" clip-rule="evenodd" fill="none" stroke="#000000" stroke-width="2" stroke-linecap="round" stroke-linejoin="round" stroke-miterlimit="10" d="
			M563.5,360.5c1.001,2.518,3.695,2.965,5.527,4.467c1.061,0.869,2.838,1.034,2.473,3.033"/>
		
			<path fill-rule="evenodd" clip-rule="evenodd" fill="none" stroke="#000000" stroke-width="2" stroke-linecap="round" stroke-linejoin="round" stroke-miterlimit="10" d="
			M466.5,483c-4.565,0.089-9.201,0.061-13.46-1.603c-2.989-1.167-5.449-0.779-8.04,0.603"/>
		
			<path fill-rule="evenodd" clip-rule="evenodd" fill="none" stroke="#000000" stroke-width="2" stroke-linecap="round" stroke-linejoin="round" stroke-miterlimit="10" d="
			M423.5,441c6.39,3.943,10.089,10.578,15.5,15.5"/>
		
			<path fill-rule="evenodd" clip-rule="evenodd" fill="none" stroke="#000000" stroke-width="2" stroke-linecap="round" stroke-linejoin="round" stroke-miterlimit="10" d="
			M324.5,451.5c-2.978,0.051-6.547-2.41-8.5,2"/>
		
			<path fill-rule="evenodd" clip-rule="evenodd" fill="none" stroke="#000000" stroke-width="2" stroke-linecap="round" stroke-linejoin="round" stroke-miterlimit="10" d="
			M442.5,451c-0.334,1.667-0.205,3.653-1.094,4.936c-2.016,2.909-0.287,4.658,1.637,6.004c4.428,3.096,6.992,8.018,11.42,11.113
			c2.393,1.674,0.998,4.699,1.271,6.979c0.206,1.728,0.211,3.645,0.516,5.468"/>
		
			<path fill-rule="evenodd" clip-rule="evenodd" fill="none" stroke="#000000" stroke-width="2" stroke-linecap="round" stroke-linejoin="round" stroke-miterlimit="10" d="
			M331.5,425.5c-3.357,0.648-6.737,1.237-9.5,3.5"/>
		
			<path fill-rule="evenodd" clip-rule="evenodd" fill="none" stroke="#000000" stroke-width="2" stroke-linecap="round" stroke-linejoin="round" stroke-miterlimit="10" d="
			M339,319.5c-0.992,2.528-3.163,4.101-5.516,4.344c-2.352,0.243-2.673,1.741-3.484,3.156"/>
		
			<path fill-rule="evenodd" clip-rule="evenodd" fill="none" stroke="#000000" stroke-width="2" stroke-linecap="round" stroke-linejoin="round" stroke-miterlimit="10" d="
			M582.5,379c-0.392,3.658-3.803,5.234-5.557,7.964c-0.855,1.331-2.062,2.34-0.943,4.036"/>
		
			<path fill-rule="evenodd" clip-rule="evenodd" fill="none" stroke="#000000" stroke-width="2" stroke-linecap="round" stroke-linejoin="round" stroke-miterlimit="10" d="
			M338.5,417.5c0.667,0.333,1.341,0.652,1.999,1.003c2.646,1.41,0.506,6.859,4.991,6.393c3.548-0.369,6.432,1.001,9.525,2.063
			c0.396,0.136,0.986-0.292,1.486-0.459"/>
		
			<path fill-rule="evenodd" clip-rule="evenodd" fill="none" stroke="#000000" stroke-width="2" stroke-linecap="round" stroke-linejoin="round" stroke-miterlimit="10" d="
			M497.5,407.5c2.833,2.167,5.667,4.333,8.5,6.5"/>
		
			<path fill-rule="evenodd" clip-rule="evenodd" fill="none" stroke="#000000" stroke-width="2" stroke-linecap="round" stroke-linejoin="round" stroke-miterlimit="10" d="
			M324,402.5c-0.667,0.167-1.587,0.7-1.96,0.442c-3.423-2.362-5.957-0.361-8.54,1.558"/>
		
			<path fill-rule="evenodd" clip-rule="evenodd" fill="none" stroke="#000000" stroke-width="2" stroke-linecap="round" stroke-linejoin="round" stroke-miterlimit="10" d="
			M339,489c1.042,5.462,1.53,11.08,4.5,16"/>
		
			<path fill-rule="evenodd" clip-rule="evenodd" fill="none" stroke="#000000" stroke-width="2" stroke-linecap="round" stroke-linejoin="round" stroke-miterlimit="10" d="
			M557,384c3.885,1.545,5.962,6.011,10.5,6.5"/>
		
			<path fill-rule="evenodd" clip-rule="evenodd" fill="none" stroke="#000000" stroke-width="2" stroke-linecap="round" stroke-linejoin="round" stroke-miterlimit="10" d="
			M576.5,495.5c-0.951-3.593-4.722-3.598-7-5.5"/>
		
			<path fill-rule="evenodd" clip-rule="evenodd" fill="none" stroke="#000000" stroke-width="2" stroke-linecap="round" stroke-linejoin="round" stroke-miterlimit="10" d="
			M436,444c1.801,2.533,2.996,5.671,6.71,6.324c1.286-0.996,2.788-2.16,4.29-3.324"/>
		
			<path fill-rule="evenodd" clip-rule="evenodd" fill="none" stroke="#000000" stroke-width="2" stroke-linecap="round" stroke-linejoin="round" stroke-miterlimit="10" d="
			M505,389c2.5,1.5,5,3,7.5,4.5"/>
		
			<path fill-rule="evenodd" clip-rule="evenodd" fill="none" stroke="#000000" stroke-width="2" stroke-linecap="round" stroke-linejoin="round" stroke-miterlimit="10" d="
			M370.5,422c-0.943,2.107-0.508,4.339-0.442,6.498c0.049,1.605-0.951,0.829-1.558,1.002"/>
		
			<path fill-rule="evenodd" clip-rule="evenodd" fill="none" stroke="#000000" stroke-width="2" stroke-linecap="round" stroke-linejoin="round" stroke-miterlimit="10" d="
			M507,379c2.172,2.28,4.64,4.158,7.5,5.5"/>
		
			<path fill-rule="evenodd" clip-rule="evenodd" fill="none" stroke="#000000" stroke-width="2" stroke-linecap="round" stroke-linejoin="round" stroke-miterlimit="10" d="
			M493.5,430.5c3.147,0.95,4.362,4.536,7.5,5.5"/>
		
			<path fill-rule="evenodd" clip-rule="evenodd" fill="none" stroke="#000000" stroke-width="2" stroke-linecap="round" stroke-linejoin="round" stroke-miterlimit="10" d="
			M463.5,479c-2.424-0.296-4.69,0.501-7,1"/>
		
			<path fill-rule="evenodd" clip-rule="evenodd" fill="none" stroke="#000000" stroke-width="2" stroke-linecap="round" stroke-linejoin="round" stroke-miterlimit="10" d="
			M302.5,127c-0.504,3.88-1.242,7.802,2,11"/>
		
			<path fill-rule="evenodd" clip-rule="evenodd" fill="none" stroke="#000000" stroke-width="2" stroke-linecap="round" stroke-linejoin="round" stroke-miterlimit="10" d="
			M323.5,316.5c1.654,0.037,3.359-0.327,4.532,1.479c1.012,1.559,2.301,1.479,3.468,0.021"/>
		
			<path fill-rule="evenodd" clip-rule="evenodd" fill="none" stroke="#000000" stroke-width="2" stroke-linecap="round" stroke-linejoin="round" stroke-miterlimit="10" d="
			M346.5,312c-2.333-0.167-4.667-0.333-7-0.5"/>
		
			<path fill-rule="evenodd" clip-rule="evenodd" fill="none" stroke="#000000" stroke-width="2" stroke-linecap="round" stroke-linejoin="round" stroke-miterlimit="10" d="
			M463.5,484c-0.496,2.455,0.079,4.092,3,4.007c1.332-0.039,2.666-0.007,4-0.007"/>
		
			<path fill-rule="evenodd" clip-rule="evenodd" fill="none" stroke="#000000" stroke-width="2" stroke-linecap="round" stroke-linejoin="round" stroke-miterlimit="10" d="
			M451.5,435.5c1.89,0.418,2.988,1.57,3.233,3.507c-2.344,0.863-5.165,0.063-7.233,1.993"/>
		
			<path fill-rule="evenodd" clip-rule="evenodd" fill="none" stroke="#000000" stroke-width="2" stroke-linecap="round" stroke-linejoin="round" stroke-miterlimit="10" d="
			M461,303c1.555,1.974,5.401,1.425,5.5,5"/>
		
			<path fill-rule="evenodd" clip-rule="evenodd" fill="none" stroke="#000000" stroke-width="2" stroke-linecap="round" stroke-linejoin="round" stroke-miterlimit="10" d="
			M575.5,487.5c-2.134-0.037-4.173,0.309-6,1.5"/>
		
			<path fill-rule="evenodd" clip-rule="evenodd" fill="none" stroke="#000000" stroke-width="2" stroke-linecap="round" stroke-linejoin="round" stroke-miterlimit="10" d="
			M586.5,495c-0.48,3.449,3.679,2.723,4.5,5"/>
		
			<path fill-rule="evenodd" clip-rule="evenodd" fill="none" stroke="#000000" stroke-width="2" stroke-linecap="round" stroke-linejoin="round" stroke-miterlimit="10" d="
			M386.5,393.5c-1.65,1.173-4.034-0.347-5.5,1.5"/>
		
			<path fill-rule="evenodd" clip-rule="evenodd" fill="none" stroke="#000000" stroke-width="2" stroke-linecap="round" stroke-linejoin="round" stroke-miterlimit="10" d="
			M364.5,406.5c-1.759,3.494-6.264,2.744-8.5,5.5"/>
		
			<path fill-rule="evenodd" clip-rule="evenodd" fill="none" stroke="#000000" stroke-width="2" stroke-linecap="round" stroke-linejoin="round" stroke-miterlimit="10" d="
			M322.5,416.5c-0.117,2.789,3.644,2.132,4.022,4.596c-0.388,1.499-2.255,1.292-3.022,2.404"/>
		
			<path fill-rule="evenodd" clip-rule="evenodd" fill="none" stroke="#000000" stroke-width="2" stroke-linecap="round" stroke-linejoin="round" stroke-miterlimit="10" d="
			M382,419.5c0.763,1.607,1.56,3.211,0.5,5"/>
		
			<path fill-rule="evenodd" clip-rule="evenodd" fill="none" stroke="#000000" stroke-width="2" stroke-linecap="round" stroke-linejoin="round" stroke-miterlimit="10" d="
			M323.5,283.5c1.833,1,3.667,1.999,5.238,2.855c4.111-1.279,1.186-4.64,2.262-6.855"/>
		
			<path fill-rule="evenodd" clip-rule="evenodd" fill="none" stroke="#000000" stroke-width="2" stroke-linecap="round" stroke-linejoin="round" stroke-miterlimit="10" d="
			M489.5,487c1.167,1,2.333,2,3.5,3"/>
		
			<path fill-rule="evenodd" clip-rule="evenodd" fill="none" stroke="#000000" stroke-width="2" stroke-linecap="round" stroke-linejoin="round" stroke-miterlimit="10" d="
			M595.5,486c2.417,1.673,4.637,3.513,5.5,6.5"/>
		
			<path fill-rule="evenodd" clip-rule="evenodd" fill="none" stroke="#000000" stroke-width="2" stroke-linecap="round" stroke-linejoin="round" stroke-miterlimit="10" d="
			M433,493c0.898-3.747,3.91-2.918,6.5-3"/>
		
			<path fill-rule="evenodd" clip-rule="evenodd" fill="none" stroke="#000000" stroke-width="2" stroke-linecap="round" stroke-linejoin="round" stroke-miterlimit="10" d="
			M456,440c3.344,3.438,3.344,3.438,0.5,4.5"/>
	</g>
</g>
</svg>
