<?xml version="1.0" encoding="utf-8"?>
<!-- Generator: Adobe Illustrator 16.0.0, SVG Export Plug-In . SVG Version: 6.00 Build 0)  -->
<!DOCTYPE svg PUBLIC "-//W3C//DTD SVG 1.1//EN" "http://www.w3.org/Graphics/SVG/1.1/DTD/svg11.dtd">
<svg version="1.1" id="Layer_1" xmlns="http://www.w3.org/2000/svg" xmlns:xlink="http://www.w3.org/1999/xlink" x="0px" y="0px"
	 width="841.89px" height="595.28px" viewBox="0 0 841.89 595.28" enable-background="new 0 0 841.89 595.28" xml:space="preserve">
<path fill-rule="evenodd" clip-rule="evenodd" fill="none" stroke="#000000" stroke-width="2" stroke-linecap="round" stroke-linejoin="round" stroke-miterlimit="10" d="
	M330.72,328.12c-5.6,2.641-11.267,5.148-16.778,7.964c-4.112,2.1-7.949,4.736-12.045,6.872c-3.327,1.736-6.913,2.971-10.287,4.625
	c-11.307,5.545-22.621,11.081-33.832,16.814c-7.137,3.65-14.092,7.656-21.14,11.481c-6.952,3.774-14.055,7.294-20.843,11.342
	c-8.307,4.954-16.304,10.424-24.533,15.513c-5.424,3.354-11.087,6.322-16.521,9.662c-4.42,2.717-8.597,5.828-12.993,8.586
	c-9.798,6.146-19.694,12.138-29.493,18.283c-3.606,2.262-6.978,4.9-10.59,7.151c-6.823,4.251-13.686,8.445-20.641,12.476
	c-5.915,3.428-11.95,6.651-18.003,9.831c-1.706,0.896-3.66,1.319-5.5,1.96"/>
<path fill-rule="evenodd" clip-rule="evenodd" fill="none" stroke="#000000" stroke-width="2" stroke-linecap="round" stroke-linejoin="round" stroke-miterlimit="10" d="
	M587.76,213.88c-0.479,0.24-1.141,0.355-1.407,0.742c-1.015,1.468-2.44,1.909-4.084,2.462c-5.516,1.857-10.887,4.133-16.354,6.142
	c-9.102,3.345-17.684,7.812-26.415,11.97c-7.984,3.802-16.167,7.184-24.208,10.87c-3.672,1.684-7.259,3.57-10.774,5.561
	c-0.74,0.419-1.596,1.922-1.362,2.529c0.631,1.645-0.084,4.266,2.761,4.632c0.188,0.024,0.284,0.494,0.49,0.686
	c4.312,4.008,8.656,7.982,12.941,12.02c1.439,1.356,2.675,2.927,4.104,4.295c4.29,4.111,8.611,8.19,12.961,12.239
	c1.121,1.044,2.379,1.944,3.589,2.891c6.558,5.124,13.146,10.208,19.671,15.373c5.799,4.59,11.536,9.26,17.286,13.912
	c6.809,5.509,13.627,11.007,20.394,16.567c4.605,3.785,9.141,7.654,13.686,11.514c7.051,5.986,14.236,11.827,21.08,18.043
	c6.993,6.353,14.519,12.135,20.733,19.35c2.164,2.513,5.013,4.421,7.368,6.785c4.95,4.97,9.734,10.104,14.672,15.088
	c8.281,8.358,16.553,16.729,24.987,24.932c3.37,3.276,7.34,5.936,10.714,9.208c3.652,3.542,6.951,7.45,10.363,11.235
	c5.356,5.944,11.127,11.445,17.275,16.566c4.927,4.104,9.943,8.125,14.596,12.525c3.939,3.727,7.316,8.04,11.128,11.91
	c2.539,2.578,5.407,4.832,8.125,7.234c1.443,1.276,2.948,2.492,4.308,3.853c3.559,3.561,7.054,7.187,10.573,10.786"/>
<path fill-rule="evenodd" clip-rule="evenodd" fill="none" stroke="#000000" stroke-width="2" stroke-linecap="round" stroke-linejoin="round" stroke-miterlimit="10" d="
	M632.88,45.16c-1.76,0.24-3.515,0.527-5.281,0.712c-6.317,0.661-12.665,1.099-18.952,1.975c-8.451,1.178-16.758,3.085-24.981,5.42
	c-5.762,1.636-11.671,2.748-17.504,4.14c-7.605,1.814-15.219,3.605-22.796,5.535c-6.187,1.575-12.327,3.332-18.484,5.021
	c-8.723,2.393-17.471,4.697-26.147,7.244c-3.998,1.174-7.828,2.91-11.78,4.255c-4.933,1.68-9.917,3.207-14.872,4.824
	c-3.366,1.098-6.721,2.235-10.081,3.355"/>
<path fill-rule="evenodd" clip-rule="evenodd" fill="none" stroke="#000000" stroke-width="2" stroke-linecap="round" stroke-linejoin="round" stroke-miterlimit="10" d="
	M585.84,214.84c-4.16-1.12-8.288-2.381-12.488-3.321c-4.361-0.976-8.783-1.686-13.193-2.426c-4.631-0.777-9.265-1.561-13.922-2.147
	c-6.547-0.823-13.107-1.562-19.68-2.146c-3.42-0.304-6.892-0.027-10.313-0.318c-5.932-0.502-11.846-1.221-17.763-1.889
	c-3.924-0.442-7.836-0.995-11.762-1.424c-8.294-0.908-16.605-1.337-24.955-1.572c-6.978-0.197-13.921-1.499-20.885-2.269
	c-4.715-0.521-9.45-0.877-14.156-1.472c-5.532-0.699-11.043-1.572-16.563-2.377c-5.441-0.794-10.89-1.542-16.317-2.416
	c-4.973-0.801-9.916-1.788-14.885-2.609c-3.828-0.632-7.666-1.235-11.52-1.671c-6.391-0.724-12.849-0.989-19.185-2.023
	c-7.735-1.263-15.358-3.194-23.058-4.692c-4.852-0.945-9.74-1.737-14.639-2.398c-5.664-0.764-11.378-1.162-17.028-2.004
	c-3.325-0.496-6.56-1.584-9.855-2.311c-0.67-0.148-1.433,0.127-2.153,0.207"/>
<path fill-rule="evenodd" clip-rule="evenodd" fill="none" stroke="#000000" stroke-width="2" stroke-linecap="round" stroke-linejoin="round" stroke-miterlimit="10" d="
	M502.8,254.2c-1.649-0.584-3.062-0.215-4.579,0.687c-9.211,5.476-18.791,10.127-28.995,13.549
	c-5.661,1.898-11.115,4.455-16.573,6.912c-6.852,3.084-13.579,6.445-20.423,9.55c-5.71,2.59-11.52,4.959-17.268,7.467
	c-11.551,5.041-23.792,8.35-35.059,14.123c-5.825,2.984-11.75,5.804-17.762,8.39c-7.845,3.374-15.832,6.417-23.735,9.658
	c-2.283,0.937-4.487,2.064-6.727,3.104"/>
<path fill-rule="evenodd" clip-rule="evenodd" fill="none" stroke="#000000" stroke-width="2" stroke-linecap="round" stroke-linejoin="round" stroke-miterlimit="10" d="
	M218.16,161.56c-7.44-1.52-14.897-2.962-22.315-4.582c-7.222-1.578-14.391-3.399-21.61-4.993c-3.889-0.859-7.844-1.417-11.752-2.197
	c-4.97-0.991-9.963-1.907-14.874-3.142c-9.39-2.362-18.683-5.12-28.106-7.333c-5.748-1.351-11.697-1.826-17.492-3.005
	c-4.613-0.938-9.112-2.426-13.698-3.516c-2.438-0.579-4.957-0.807-7.43-1.245c-0.895-0.159-1.762-0.467-2.642-0.707"/>
<path fill-rule="evenodd" clip-rule="evenodd" fill="none" stroke="#000000" stroke-width="2" stroke-linecap="round" stroke-linejoin="round" stroke-miterlimit="10" d="
	M761.52,88.36c-0.72,0.48-1.474,0.917-2.154,1.447c-5.529,4.308-11.281,8.368-16.509,13.016
	c-7.567,6.727-16.659,11.114-24.838,16.889c-3.141,2.218-7.066,3.288-10.478,5.166c-4.962,2.732-9.855,5.604-14.635,8.644
	c-3.179,2.021-5.994,4.614-9.168,6.645c-8.805,5.633-15.733,13.354-23.333,20.353c-4.391,4.044-9.533,7.27-14.32,10.888
	c-1.314,0.994-2.564,2.073-3.845,3.113"/>
<path fill-rule="evenodd" clip-rule="evenodd" fill="none" stroke="#000000" stroke-width="2" stroke-linecap="round" stroke-linejoin="round" stroke-miterlimit="10" d="
	M362.16,315.16c1.92,3.92,3.669,7.937,5.807,11.733c2.272,4.037,5.108,7.759,7.345,11.813c2.969,5.381,7.175,9.786,10.836,14.622
	c2.144,2.832,4.09,5.814,6.27,8.617c4.018,5.168,8.063,10.32,12.241,15.358c6.083,7.335,12.311,14.505,17.638,22.484
	c4.2,6.294,9.636,11.761,14.5,17.614c4.82,5.801,9.712,11.508,13.797,17.925c2.936,4.611,6.907,8.568,10.457,12.783
	c1.129,1.34,2.39,2.569,3.589,3.849"/>
<path fill-rule="evenodd" clip-rule="evenodd" fill="none" stroke="#000000" stroke-width="2" stroke-linecap="round" stroke-linejoin="round" stroke-miterlimit="10" d="
	M529.92,296.92c-0.8,0-1.719,0.26-2.381-0.042c-4.202-1.915-8.199-0.127-12.259,0.525c-2.883,0.463-5.757,1.298-8.642,1.327
	c-2.229,0.021-3.226,0.918-3.561,2.757c-0.402,2.21-0.706,4.473-0.714,6.713c-0.013,3.279,0.416,6.561,0.401,9.84
	c-0.02,4.32-0.496,8.646-0.383,12.959c0.102,3.848,0.948,7.674,1.076,11.523c0.122,3.671-0.073,7.378-0.462,11.033
	c-0.588,5.521-0.463,10.925,0.939,16.341c0.617,2.383,0.667,4.939,0.754,7.425c0.119,3.436,0.029,6.879,0.029,10.319
	c0,3.359-0.176,6.731,0.042,10.077c0.318,4.891,1.023,9.755,1.366,14.645c0.295,4.199,0.936,8.293,2.43,12.239
	c1.211,3.195,2.192,6.498,3.646,9.578c3.076,6.517,7.733,11.926,12.99,16.741c1.608,1.474,4.2,1.813,6.145,2.996
	c4.809,2.926,8.443,7.089,11.524,11.735c1.227,1.849,2.258,3.828,3.378,5.748"/>
<path fill-rule="evenodd" clip-rule="evenodd" fill="none" stroke="#000000" stroke-width="2" stroke-linecap="round" stroke-linejoin="round" stroke-miterlimit="10" d="
	M641.28,175c-1.601,1.36-3.224,2.693-4.796,4.084c-8.459,7.482-17.697,13.872-27.352,19.696c-1.609,0.971-3.064,2.203-4.57,3.342
	c-3.688,2.79-7.398,5.551-11.023,8.421c-1.321,1.046-2.425,2.369-4.108,4.042c1.564,0.63,2.553,1.23,3.614,1.423
	c7.848,1.422,15.406,3.694,22.837,6.645c4.654,1.848,9.695,2.761,14.604,3.918c4.932,1.163,9.904,2.154,14.877,3.129
	c2.941,0.577,5.924,0.94,8.875,1.466c5.686,1.012,11.39,1.939,17.035,3.145c7.628,1.629,15.238,3.363,22.799,5.277
	c10.59,2.681,21.162,5.448,31.677,8.409c8.307,2.339,16.548,4.938,24.482,8.38c2.294,0.995,4.489,2.22,6.725,3.349
	c0.032,0.017,0.032,0.169-0.003,0.229c-0.056,0.094-0.153,0.164-0.233,0.244"/>
<path fill-rule="evenodd" clip-rule="evenodd" fill="none" stroke="#000000" stroke-width="2" stroke-linecap="round" stroke-linejoin="round" stroke-miterlimit="10" d="
	M630.96,301.48c-0.32-0.24-0.847-0.746-0.93-0.682c-2.723,2.115-5.653,1.197-8.416,0.393c-4.611-1.342-9.271-2.681-13.647-4.616
	c-3.119-1.379-5.862-3.658-8.667-5.683c-1.787-1.291-3.542-2.704-5.024-4.325c-2.673-2.922-6.23-4.51-9.396-6.688
	c-5.119-3.521-10.293-6.966-15.343-10.583c-4.083-2.925-7.986-6.099-12.027-9.083c-3.25-2.401-6.688-3.796-10.818-1.999
	c-1.009,0.439-2.481,0.381-3.552,0.009c-3.831-1.333-7.771-2.034-11.78-2.058c-4.959-0.03-9.945,0.022-14.87,0.523
	c-3.327,0.338-6.569,1.512-9.85,2.312"/>
<path fill-rule="evenodd" clip-rule="evenodd" fill="none" stroke="#000000" stroke-width="2" stroke-linecap="round" stroke-linejoin="round" stroke-miterlimit="10" d="
	M737.76,106.36c-3.28-3.92-6.506-7.887-9.852-11.75c-5.717-6.598-11.3-13.33-17.324-19.637
	c-6.718-7.035-13.342-14.181-21.021-20.268c-5.502-4.36-10.59-9.242-15.893-13.855c-1.46-1.27-2.998-2.457-4.573-3.579
	C668.688,36.98,668,37.08,667.44,37"/>
<path fill-rule="evenodd" clip-rule="evenodd" fill="none" stroke="#000000" stroke-width="2" stroke-linecap="round" stroke-linejoin="round" stroke-miterlimit="10" d="
	M587.52,470.681c-4.189,3.545-9.117,5.914-13.947,8.344c-10.229,5.144-20.578,10.049-30.949,14.9
	c-4.22,1.975-8.526,3.871-12.968,5.236c-5.713,1.756-10.726,4.656-15.583,7.988c-4.056,2.784-8.35,5.107-13.192,6.251"/>
<path fill-rule="evenodd" clip-rule="evenodd" fill="none" stroke="#000000" stroke-width="2" stroke-linecap="round" stroke-linejoin="round" stroke-miterlimit="10" d="
	M595.92,109.96c-0.479-0.24-1.01-0.754-1.433-0.678c-4.492,0.812-9.143,1.217-13.407,2.711c-7.026,2.462-14.063,5.158-20.599,8.678
	c-5.42,2.92-11.104,5.852-14.779,11.33c-1.533,2.285-2.106,4.707-2.044,7.237c0.107,4.325,0.463,8.655,0.935,12.958
	c0.493,4.496,1.25,8.963,1.882,13.444c0.044,0.313,0.006,0.639,0.006,0.959"/>
<path fill-rule="evenodd" clip-rule="evenodd" fill="none" stroke="#000000" stroke-width="2" stroke-linecap="round" stroke-linejoin="round" stroke-miterlimit="10" d="
	M290.88,217.96c3.84,4.08,7.582,8.259,11.546,12.213c4.446,4.435,8.957,8.823,13.689,12.945c5.527,4.815,11.324,9.322,17.005,13.96
	c0.484,0.395,0.979,0.777,1.083,0.86c-0.62,6.719-1.348,13.121-1.766,19.543c-0.416,6.389-0.542,12.796-0.75,19.198
	c-0.127,3.918-0.136,7.841-0.29,11.758c-0.02,0.492-0.599,0.962-0.919,1.441"/>
<path fill-rule="evenodd" clip-rule="evenodd" fill="none" stroke="#000000" stroke-width="2" stroke-linecap="round" stroke-linejoin="round" stroke-miterlimit="10" d="
	M497.04,262.12c1.407,1.955-0.697,2.819-1.507,3.523c-5.876,5.104-11.912,10.022-17.943,14.944c-2.255,1.84-4.496,3.756-6.98,5.241
	c-3.851,2.301-5.146,6.538-7.894,9.648c-2.208,2.5-2.27,5.683-2.294,8.644c-0.029,3.597,0.654,7.204,1.107,10.798
	c0.848,6.725,1.366,13.521,2.725,20.143c1.845,8.997,1.263,18.105,1.984,27.146c0.381,4.763,0.326,9.642-0.242,14.383
	c-1.194,9.979,0.409,19.851,0.536,29.771c0.028,2.237-0.409,4.479-0.431,6.72c-0.062,6.56,0.04,13.121-0.041,19.68
	c-0.066,5.441,0.271,10.981-0.668,16.284c-0.593,3.343,0.446,5.434,2.134,7.711c4.102,5.536,8.088,11.114,12.869,16.166
	c7.283,7.693,13.996,15.926,20.98,23.905c0.516,0.589,1.264,0.974,1.904,1.454"/>
<path fill-rule="evenodd" clip-rule="evenodd" fill="none" stroke="#000000" stroke-width="2" stroke-linecap="round" stroke-linejoin="round" stroke-miterlimit="10" d="
	M561.12,225.64c0.24,0.32,0.423,0.714,0.729,0.949c8.722,6.732,16.978,14.104,26.861,19.23c5.655,2.933,11.138,6.206,16.835,9.051
	c4.032,2.014,8.318,3.516,12.441,5.359c1.365,0.61,2.572,1.572,3.804,2.344c1.876-1.042,3.723-2.068,5.57-3.094"/>
<path fill-rule="evenodd" clip-rule="evenodd" fill="none" stroke="#000000" stroke-width="2" stroke-linecap="round" stroke-linejoin="round" stroke-miterlimit="10" d="
	M540.48,166.84c-1.633,1.024-3.468,1.042-5.279,0.944c-4.803-0.26-9.342,0.916-13.938,2.11c-3.997,1.038-8.143,1.509-12.223,2.225
	c-2.319,0.407-4.649,0.755-6.95,1.246c-0.388,0.083-0.838,0.712-0.94,1.162c-1.068,4.67-0.746,9.277,0.409,13.924
	c1.208,4.861,2.551,9.753,1.722,14.87"/>
<path fill-rule="evenodd" clip-rule="evenodd" fill="none" stroke="#000000" stroke-width="2" stroke-linecap="round" stroke-linejoin="round" stroke-miterlimit="10" d="
	M501.6,260.2c3.22,5.712,5.518,11.92,10.473,16.652c2.73,2.607,4.429,6.26,6.84,9.242c3.668,4.535,8.148,8.2,12.911,11.569
	c10.11,7.154,19.8,14.843,26.845,25.212c4.184,6.158,10.278,9.719,16.375,13.399c0.458,0.276,0.965,0.47,1.436,0.728
	c1.444,0.792,2.959,1.486,4.301,2.427c1.477,1.036,0.404,2.919,1.17,4.318c0.717,1.311,1.121,2.826,1.471,4.297
	c1.329,5.589,2.577,11.196,3.861,16.795c0.954,4.161,1.657,8.402,2.938,12.462c2.171,6.888,3.903,14.039,7.918,20.142
	c5.759,8.756,12.307,16.747,21.972,21.737c4.005,2.067,7.811,4.831,10.132,9.02"/>
<path fill-rule="evenodd" clip-rule="evenodd" fill="none" stroke="#000000" stroke-width="2" stroke-linecap="round" stroke-linejoin="round" stroke-miterlimit="10" d="
	M512.16,508.84c3.92,4.721,7.75,9.52,11.783,14.14c4.618,5.289,9.431,10.408,14.133,15.624c6.335,7.027,12.625,14.094,18.977,21.105
	c1.594,1.759,3.297,3.428,5.059,5.017c0.517,0.466,1.408,0.515,2.129,0.755"/>
<path fill-rule="evenodd" clip-rule="evenodd" fill="none" stroke="#000000" stroke-width="2" stroke-linecap="round" stroke-linejoin="round" stroke-miterlimit="10" d="
	M412.08,47.561c2,2.72,3.979,5.455,6.007,8.154c1.403,1.868,2.65,3.931,4.354,5.48c5.327,4.844,10.844,9.479,16.277,14.207
	c5.047,4.392,10.122,8.753,15.107,13.214c3.669,3.282,7.25,6.667,10.805,10.075c4.041,3.876,7.985,7.854,12.015,11.744
	c5.577,5.383,11.077,10.855,16.827,16.05c5.934,5.361,12.064,10.512,18.233,15.604c3.13,2.583,6.688,4.651,9.779,7.273
	c5.009,4.248,9.846,8.705,14.656,13.179c2.98,2.772,5.75,5.769,8.675,8.603c0.936,0.907,2.073,1.605,3.099,2.423
	c0.352,0.28,0.76,0.578,0.947,0.962c2.38,4.887,7.382,7.197,10.804,11.044c5.731,6.445,13.15,10.985,19.165,17.076
	c3.185,3.225,6.733,6.232,8.696,10.509c0.456,0.995,1.165,1.676,2.393,1.443"/>
<path fill-rule="evenodd" clip-rule="evenodd" fill="none" stroke="#000000" stroke-width="2" stroke-linecap="round" stroke-linejoin="round" stroke-miterlimit="10" d="
	M291,45.4c1.752,1.287,1.06,3.151,1.057,4.8c-0.01,4.24,0.162,8.512-0.28,12.713c-0.851,8.073,0.529,16.18-0.79,24.264
	c-0.623,3.818-0.07,7.823-0.129,11.742c-0.018,1.202-0.391,2.396-0.443,3.601c-0.349,8.079-0.679,16.159-0.967,24.24
	c-0.202,5.678-0.506,11.362-0.435,17.039c0.063,4.963,0.609,9.919,0.898,14.881c0.201,3.438,0.358,6.878,0.476,10.32
	c0.066,1.917,0.012,3.839,0.012,5.759"/>
<path fill-rule="evenodd" clip-rule="evenodd" fill="none" stroke="#000000" stroke-width="2" stroke-linecap="round" stroke-linejoin="round" stroke-miterlimit="10" d="
	M461.76,88.36c4.16,3.76,8.437,7.4,12.454,11.307c6.894,6.703,13.756,13.45,20.378,20.419c4.021,4.231,7.505,8.97,11.353,13.373
	c2.268,2.596,4.814,4.946,7.148,7.486c0.582,0.633,0.827,1.575,1.228,2.375"/>
<path fill-rule="evenodd" clip-rule="evenodd" fill="none" stroke="#000000" stroke-width="2" stroke-linecap="round" stroke-linejoin="round" stroke-miterlimit="10" d="
	M301.92,230.68c-2.8,0.8-5.596,1.615-8.401,2.397c-4.637,1.292-9.236,2.764-13.935,3.77c-2.956,0.632-6.061,0.632-9.105,0.773
	c-3.596,0.167-7.199,0.184-10.799,0.258c-0.88,0.018-1.761-0.02-2.64,0.006c-5.28,0.153-10.563,0.496-15.839,0.423
	c-4.724-0.065-9.44-0.592-14.161-0.905c-7.916-0.525-15.009-3.883-22.318-6.488c-7.771-2.77-15.521-5.598-23.283-8.392
	c-4.476-1.61-8.989-3.126-13.427-4.834c-2.173-0.836-4.723-1.375-5.339-4.278c-0.034-0.158-0.753-0.17-1.153-0.25"/>
<path fill-rule="evenodd" clip-rule="evenodd" fill="none" stroke="#000000" stroke-width="2" stroke-linecap="round" stroke-linejoin="round" stroke-miterlimit="10" d="
	M673.68,301.24c0.149,1.053,0.299,2.105,0.498,3.512c-5.122,7.04-11.159,13.758-18.697,19.106c-3.245,2.303-6.09,5.189-9.886,6.647
	c-3.033,1.165-5.424,3.026-7.233,5.749c-0.639,0.96-1.732,1.614-2.6,2.428c-2.558,2.399-5.047,4.852-5.92,8.336
	c-0.718-0.064-1.375-0.239-1.999-0.159c-4.085,0.522-8.168,1.067-12.238,1.689c-0.83,0.126-1.604,0.611-2.404,0.932"/>
<path fill-rule="evenodd" clip-rule="evenodd" fill="none" stroke="#000000" stroke-width="2" stroke-linecap="round" stroke-linejoin="round" stroke-miterlimit="10" d="
	M757.2,259.48c3.416-0.336,2.486-0.798,4.813,2.63c1.932,2.846,4.045,5.57,5.972,8.419c2.461,3.639,4.769,7.381,7.229,11.02
	c1.927,2.85,3.923,5.657,6,8.399c3.063,4.043,6.227,8.01,9.345,12.012c1.683,2.158,3.36,4.319,5.04,6.479"/>
<path fill-rule="evenodd" clip-rule="evenodd" fill="none" stroke="#000000" stroke-width="2" stroke-linecap="round" stroke-linejoin="round" stroke-miterlimit="10" d="
	M634.56,168.76c5.521,4.4,10.992,8.862,16.575,13.182c4.972,3.848,10.287,7.282,15.027,11.388c3.171,2.747,4.772,6.764,5.597,10.95
	c0.725,3.679,1.467,7.355,2.145,11.043c0.188,1.021,0.241,2.077,0.246,3.117c0.024,4.959,0.015,9.92,0,14.88
	c-0.001,0.32-0.149,0.64-0.229,0.96"/>
<path fill-rule="evenodd" clip-rule="evenodd" fill="none" stroke="#000000" stroke-width="2" stroke-linecap="round" stroke-linejoin="round" stroke-miterlimit="10" d="
	M189.84,225.88c-1.76,1.6-3.439,3.301-5.297,4.778c-3.63,2.886-6.103,6.722-8.885,10.325c-3.385,4.382-7.4,8.268-10.098,13.195
	c-0.693,1.266-1.784,2.367-2.862,3.358c-1.8,1.656-1.555,3.777-1.381,5.78c0.537,6.169,1.392,12.313,1.837,18.487
	c0.38,5.264,0.424,10.556,0.468,15.837c0.007,0.877-0.743,1.76-1.143,2.64"/>
<path fill-rule="evenodd" clip-rule="evenodd" fill="none" stroke="#000000" stroke-width="2" stroke-linecap="round" stroke-linejoin="round" stroke-miterlimit="10" d="
	M290.64,257.32c-0.723,0.953-0.537,1.735,0.221,2.656c5.635,6.851,11.315,13.669,16.769,20.664c1.993,2.556,3.158,5.757,5.15,8.314
	c2.886,3.703,6.175,7.091,9.305,10.602c0.526,0.591,1.116,1.125,1.675,1.685"/>
<path fill-rule="evenodd" clip-rule="evenodd" fill="none" stroke="#000000" stroke-width="2" stroke-linecap="round" stroke-linejoin="round" stroke-miterlimit="10" d="
	M420,48.521c5.011,6.896,11.355,12.447,17.705,18.062c7.672,6.784,15.97,12.912,22.635,20.802c0.245,0.291,0.78,0.336,1.18,0.497"/>
<path fill-rule="evenodd" clip-rule="evenodd" fill="none" stroke="#000000" stroke-width="2" stroke-linecap="round" stroke-linejoin="round" stroke-miterlimit="10" d="
	M631.44,428.681c-7.28-0.4-14.557-0.938-21.842-1.159c-6.474-0.196-12.959,0.009-19.438-0.089c-1.116-0.017-1.718,0.149-1.921,1.248
	"/>
<path fill-rule="evenodd" clip-rule="evenodd" fill="none" stroke="#000000" stroke-width="2" stroke-linecap="round" stroke-linejoin="round" stroke-miterlimit="10" d="
	M303.6,230.92c2.56-1.04,5.095-2.148,7.685-3.107c7.035-2.604,14.575-4.054,20.609-8.925c0.905-0.73,2.12-1.947,2.039-2.834
	c-0.134-1.473-1.237-2.367-3.207-2.501c-7.295-0.499-14.556-1.489-21.85-2.021c-4.348-0.316-8.515,1.161-12.716,2.112
	c-0.965,0.218-1.92,0.477-2.881,0.717"/>
<path fill-rule="evenodd" clip-rule="evenodd" fill="none" stroke="#000000" stroke-width="2" stroke-linecap="round" stroke-linejoin="round" stroke-miterlimit="10" d="
	M248.16,131.08c6.471,9.303,13.017,18.543,20.103,27.406c3.371,4.215,6.231,8.855,9.116,13.433c0.799,1.268,0.944,2.985,1.247,4.524
	c1.511,7.695,2.717,15.447,7.885,21.876c2.146,2.669,3.339,5.939,4.16,9.313c0.38,1.563,1.247,3.01,1.616,4.575
	c0.774,3.283,0.275,4.375-3.096,4.698c-4.122,0.395-8.313,0.188-12.47,0.069c-4.483-0.128-8.959-0.496-13.441-0.684
	c-4.958-0.208-9.919-0.431-14.879-0.448c-2.399-0.008-4.806,0.39-7.199,0.687c-4.884,0.607-9.748,1.408-14.645,1.87
	c-4.542,0.429-9.125,0.795-13.673,0.657c-2.701-0.083-5.53,0.33-8.206-1.012c-1.156-0.579-2.187-0.813-2.669-2.22
	c-0.215-0.625-1.151-1.276-1.858-1.415c-3.418-0.67-6.856-1.5-10.313-1.651c-5.107-0.222-10.238,0.043-15.356,0.176
	c-3.122,0.082-6.243,0.271-9.358,0.494c-0.654,0.047-1.282,0.452-1.922,0.692"/>
<path fill-rule="evenodd" clip-rule="evenodd" fill="none" stroke="#000000" stroke-width="2" stroke-linecap="round" stroke-linejoin="round" stroke-miterlimit="10" d="
	M759.6,131.56c4.665,2.568,8.615,5.899,12.076,10.017c3.079,3.663,6.719,6.877,10.267,10.12c4.305,3.934,7.718,8.78,12.625,12.13
	c0.76,0.519,0.553,2.454,0.793,3.733"/>
<path fill-rule="evenodd" clip-rule="evenodd" fill="none" stroke="#000000" stroke-width="2" stroke-linecap="round" stroke-linejoin="round" stroke-miterlimit="10" d="
	M418.56,57.16c-0.08,1.52-0.211,3.04-0.231,4.56c-0.099,7.52-0.134,15.041-0.259,22.56c-0.111,6.721-0.363,13.439-0.454,20.16
	c-0.078,5.759-0.026,11.52-0.012,17.28c0.007,3.051-0.564,6.143,0.596,9.12"/>
<path fill-rule="evenodd" clip-rule="evenodd" fill="none" stroke="#000000" stroke-width="2" stroke-linecap="round" stroke-linejoin="round" stroke-miterlimit="10" d="
	M599.28,109.96c6.292,0.786,11.559,3.851,16.848,7.122c4.487,2.776,9.301,5.087,14.145,7.204c3.18,1.39,4.4,3.517,4.557,6.793
	c0.393,8.244,0.896,16.483,1.442,24.719c0.102,1.534,0.551,3.057,0.94,4.559c0.744,2.863-0.055,5.134-2.13,7.245
	c-1.565,1.593-2.745,3.564-4.097,5.366c0.157,0.157,0.313,0.314,0.469,0.472c-0.964,0.12-1.929,0.339-2.895,0.345
	c-5.919,0.032-11.84-0.034-17.759,0.048c-1.648,0.023-1.554-0.986-1.417-1.949c0.5-3.529,1.138-7.038,1.644-10.565
	c0.458-3.191,0.813-6.398,1.213-9.598"/>
<path fill-rule="evenodd" clip-rule="evenodd" fill="none" stroke="#000000" stroke-width="2" stroke-linecap="round" stroke-linejoin="round" stroke-miterlimit="10" d="
	M546.24,312.761c2.002,5.547,0.989,11.177,0.491,16.801c-0.376,4.234-0.656,8.479-0.971,12.719
	c-0.325,4.399-0.628,8.801-0.966,13.199c-0.215,2.803-0.488,5.6-0.712,8.401c-0.332,4.158-0.79,8.315-0.914,12.48
	c-0.091,3.033,0.347,6.077,0.417,9.119c0.2,8.72,0.634,17.448,0.385,26.157c-0.156,5.435,0.582,10.63,1.783,15.844
	c0.534,2.318,1.24,2.991,3.604,2.855c2.326-0.133,4.639-0.492,6.963-0.676c0.71-0.056,1.438,0.14,2.159,0.219"/>
<path fill-rule="evenodd" clip-rule="evenodd" fill="none" stroke="#000000" stroke-width="2" stroke-linecap="round" stroke-linejoin="round" stroke-miterlimit="10" d="
	M502.08,481.96c-0.08,0.08-0.2,0.146-0.234,0.242c-2.725,7.584-10.144,9.938-15.887,14.102c-3.295,2.39-7.11,4.052-10.489,6.341
	c-3.73,2.526-7.204,5.431-10.841,8.101c-1.733,1.272-3.585,2.385-5.424,3.596c-2.962-2.369-2.727-5.355-1.704-8.118
	c2.367-6.392,4.747-12.813,7.72-18.934c2.295-4.725,5.499-9.009,8.299-13.489"/>
<path fill-rule="evenodd" clip-rule="evenodd" fill="none" stroke="#000000" stroke-width="2" stroke-linecap="round" stroke-linejoin="round" stroke-miterlimit="10" d="
	M564.24,224.44c1.68,1.04,3.294,2.21,5.052,3.097c6.771,3.417,13.518,6.896,20.406,10.064c8.469,3.896,15.77,9.515,23.34,14.807
	c3.839,2.684,7.976,5.199,13.105,5.601c1.697,0.133,3.57,0.019,5.297,0.511"/>
<path fill-rule="evenodd" clip-rule="evenodd" fill="none" stroke="#000000" stroke-width="2" stroke-linecap="round" stroke-linejoin="round" stroke-miterlimit="10" d="
	M419.76,130.84c-1.715-0.48-2.208,0.428-2.157,1.92c0.068,2,0.325,4.01,0.208,5.999c-0.49,8.324-1.174,16.637-1.619,24.963
	c-0.256,4.791-0.282,9.599-0.245,14.398c0.033,4.321,0.293,8.64,0.453,12.96"/>
<path fill-rule="evenodd" clip-rule="evenodd" fill="none" stroke="#000000" stroke-width="2" stroke-linecap="round" stroke-linejoin="round" stroke-miterlimit="10" d="
	M227.76,162.521c-2.24-0.24-4.481-0.466-6.719-0.729c-0.729-0.085-1.448-0.267-1.986-0.369c-2.88,3.029-5.738,6.012-8.571,9.021
	c-1.94,2.061-3.958,4.064-5.732,6.262c-1.78,2.208-1.54,5.087-1.636,7.657c-0.353,9.433-0.38,18.877-0.586,28.316
	c-0.017,0.805-0.45,1.601-0.69,2.4"/>
<path fill-rule="evenodd" clip-rule="evenodd" fill="none" stroke="#000000" stroke-width="2" stroke-linecap="round" stroke-linejoin="round" stroke-miterlimit="10" d="
	M631.44,130.6c-1.28,3.6-2.244,7.355-3.919,10.761c-2.16,4.391-6.533,4.698-10.714,4.281c-3.397-0.338-6.722-1.392-10.093-2.059
	c-0.72-0.142-1.721-0.989-2.155,0.457"/>
<path fill-rule="evenodd" clip-rule="evenodd" fill="none" stroke="#000000" stroke-width="2" stroke-linecap="round" stroke-linejoin="round" stroke-miterlimit="10" d="
	M585.6,430.601c0.24,2.399,0.432,4.806,0.735,7.198c0.245,1.929,0.883,3.84,0.897,5.762c0.047,6.239-0.274,12.483-0.125,18.718
	c0.077,3.213-0.266,6.576,1.373,9.602"/>
<path fill-rule="evenodd" clip-rule="evenodd" fill="none" stroke="#000000" stroke-width="2" stroke-linecap="round" stroke-linejoin="round" stroke-miterlimit="10" d="
	M247.2,131.32c-4.88,4.8-9.996,9.387-14.574,14.46c-4.554,5.047-9.945,9.376-13.506,15.3"/>
<path fill-rule="evenodd" clip-rule="evenodd" fill="none" stroke="#000000" stroke-width="2" stroke-linecap="round" stroke-linejoin="round" stroke-miterlimit="10" d="
	M206.64,36.04c-0.993,4.993-1.25,10.04-1.213,15.12c0.051,7.04,0.013,14.08,0.013,21.12c0,5.12,0.123,10.244-0.032,15.359
	c-0.186,6.164-0.652,12.319-0.912,18.482c-0.166,3.917-0.201,7.839-0.251,11.759c-0.098,7.6-0.399,15.207-0.169,22.797
	c0.176,5.772,1.047,11.522,1.591,17.284c0.021,0.23-0.147,0.479-0.227,0.719"/>
<path fill-rule="evenodd" clip-rule="evenodd" fill="none" stroke="#000000" stroke-width="2" stroke-linecap="round" stroke-linejoin="round" stroke-miterlimit="10" d="
	M197.52,265.96c-7.12,7.12-14.331,14.153-21.304,21.414c-2.045,2.13-3.417,4.906-5.096,7.386"/>
<path fill-rule="evenodd" clip-rule="evenodd" fill="none" stroke="#000000" stroke-width="2" stroke-linecap="round" stroke-linejoin="round" stroke-miterlimit="10" d="
	M588.48,427.721c-1.12-0.24-2.24-0.684-3.36-0.685c-4.479-0.007-8.974-0.065-13.436,0.263c-3.701,0.272-7.37,1.029-11.04,1.65
	c-0.675,0.114-1.414,0.477-1.905,0.951c-6.589,6.37-13.127,12.792-19.707,19.172c-1.869,1.813-3.832,3.528-5.752,5.288"/>
<path fill-rule="evenodd" clip-rule="evenodd" fill="none" stroke="#000000" stroke-width="2" stroke-linecap="round" stroke-linejoin="round" stroke-miterlimit="10" d="
	M532.32,455.32c-3.521,2.4-7.01,4.847-10.57,7.186c-2.912,1.912-5.831,3.841-8.893,5.492c-2.904,1.565-5.765,3.337-9.339,3.279
	c-0.707-0.012-1.438,1.483-2.158,2.283"/>
<path fill-rule="evenodd" clip-rule="evenodd" fill="none" stroke="#000000" stroke-width="2" stroke-linecap="round" stroke-linejoin="round" stroke-miterlimit="10" d="
	M552.72,229.48c0.4,4,0.942,7.992,1.155,12.002c0.166,3.133,0.173,3.452,3.877,4.351c3.298,0.8,6.649,1.181,9.899,2.478
	c3.813,1.521,6.772,3.771,9.321,6.839c2.572,3.095,5.735,5.481,9.07,7.746c4.628,3.142,9.046,6.603,13.449,10.061
	c1.459,1.145,2.558,1.244,4.131,0.241c3.688-2.352,7.515-4.488,11.237-6.788c0.54-0.333,0.819-1.088,1.22-1.648"/>
<path fill-rule="evenodd" clip-rule="evenodd" fill="none" stroke="#000000" stroke-width="2" stroke-linecap="round" stroke-linejoin="round" stroke-miterlimit="10" d="
	M503.52,203.8c0,6.64-0.452,13.319,0.114,19.91c0.718,8.35-0.325,16.654,0.141,24.969c0.05,0.887,0.306,1.761,0.466,2.641"/>
<path fill-rule="evenodd" clip-rule="evenodd" fill="none" stroke="#000000" stroke-width="2" stroke-linecap="round" stroke-linejoin="round" stroke-miterlimit="10" d="
	M657.36,277.48c-5.681,4.48-11.482,8.816-16.996,13.492c-3.439,2.917-6.444,6.348-9.645,9.548"/>
<path fill-rule="evenodd" clip-rule="evenodd" fill="none" stroke="#000000" stroke-width="2" stroke-linecap="round" stroke-linejoin="round" stroke-miterlimit="10" d="
	M620.88,262.84c-3.534,3.027-7.265,1.106-10.782,0.175c-6.381-1.69-12.604-3.982-18.995-5.628c-4.958-1.277-9.531-3.235-13.93-5.779
	c-0.849-0.491-2.053-0.368-3.093-0.528"/>
<path fill-rule="evenodd" clip-rule="evenodd" fill="none" stroke="#000000" stroke-width="2" stroke-linecap="round" stroke-linejoin="round" stroke-miterlimit="10" d="
	M325.2,299.561c-0.08,0.56-0.418,1.261-0.201,1.658c2.546,4.654,3.194,9.845,4.256,14.906c0.767,3.654,1.604,7.334,1.867,11.041
	c0.311,4.371,1.04,8.581,2.402,12.739c0.284,0.868-0.404,2.055-0.644,3.095"/>
<path fill-rule="evenodd" clip-rule="evenodd" fill="none" stroke="#000000" stroke-width="2" stroke-linecap="round" stroke-linejoin="round" stroke-miterlimit="10" d="
	M738.72,107.32c5.2,6.16,10.382,12.335,15.612,18.469c1.357,1.591,2.865,3.053,4.309,4.57c1.232,1.295,0.181,2.72,0.239,4.081"/>
<path fill-rule="evenodd" clip-rule="evenodd" fill="none" stroke="#000000" stroke-width="2" stroke-linecap="round" stroke-linejoin="round" stroke-miterlimit="10" d="
	M289.92,258.28c-2.91-1.307-6.029-1.413-9.12-1.414c-7.6-0.001-15.2,0.097-22.8,0.23c-3.281,0.058-6.56,0.303-9.84,0.463"/>
<path fill-rule="evenodd" clip-rule="evenodd" fill="none" stroke="#000000" stroke-width="2" stroke-linecap="round" stroke-linejoin="round" stroke-miterlimit="10" d="
	M657.84,277.72c3.893,2.853,5.34,7.374,7.67,11.286c2.366,3.973,4.645,7.997,6.984,11.986c0.131,0.224,0.466,0.328,0.706,0.488"/>
<path fill-rule="evenodd" clip-rule="evenodd" fill="none" stroke="#000000" stroke-width="2" stroke-linecap="round" stroke-linejoin="round" stroke-miterlimit="10" d="
	M582,340.601c2.4,1.359,4.711,2.92,7.223,4.029c3.188,1.408,6.465,2.755,9.839,3.562c3.1,0.74,6.375,0.777,9.581,1.016
	c0.823,0.062,1.678-0.287,2.518-0.446"/>
<path fill-rule="evenodd" clip-rule="evenodd" fill="none" stroke="#000000" stroke-width="2" stroke-linecap="round" stroke-linejoin="round" stroke-miterlimit="10" d="
	M567.12,155.56c5.737,4.847,11.014,10.262,17.518,14.164c3.979,2.387,7.255,2.274,11.035-0.493c1.007-0.736,1.931-1.586,2.887-2.391
	c2.562-2.157,5.15-4.285,7.662-6.5c0.757-0.667,1.298-1.58,1.938-2.379"/>
<path fill-rule="evenodd" clip-rule="evenodd" fill="none" stroke="#000000" stroke-width="2" stroke-linecap="round" stroke-linejoin="round" stroke-miterlimit="10" d="
	M548.4,471.88c-1.4,0.012-2.708,0.189-4.117,0.589c-2.508,0.709-5.24,0.769-7.884,0.822c-7.998,0.161-16,0.176-23.999,0.275
	c-3.44,0.043-6.886,0.312-10.319,0.19c-3.606-0.127-7.195-0.718-10.803-0.882c-3.513-0.159-7.038-0.035-10.559-0.035"/>
<path fill-rule="evenodd" clip-rule="evenodd" fill="none" stroke="#000000" stroke-width="2" stroke-linecap="round" stroke-linejoin="round" stroke-miterlimit="10" d="
	M169.2,294.28c-1.52,6.96-3.065,13.915-4.552,20.882c-1.16,5.432-2.395,10.854-3.323,16.326c-0.78,4.603-1.155,9.273-1.732,13.911
	c-0.146,1.173,0.02,2.072,1.447,2.161"/>
<path fill-rule="evenodd" clip-rule="evenodd" fill="none" stroke="#000000" stroke-width="2" stroke-linecap="round" stroke-linejoin="round" stroke-miterlimit="10" d="
	M673.92,235.24c0.08,0.88,0.168,1.759,0.238,2.64c0.165,2.08,0.545,4.171,0.438,6.238c-0.266,5.127-0.741,10.243-1.183,15.36
	c-0.036,0.417-0.413,0.833-0.699,1.198c-4.588,5.853-9.095,11.781-14.874,16.564"/>
<path fill-rule="evenodd" clip-rule="evenodd" fill="none" stroke="#000000" stroke-width="2" stroke-linecap="round" stroke-linejoin="round" stroke-miterlimit="10" d="
	M562.08,224.44c-0.8-0.8-1.526-1.694-2.413-2.383c-3.247-2.522-6.607-4.902-9.8-7.49c-1.492-1.209-2.662-2.829-4.827-2.847"/>
<path fill-rule="evenodd" clip-rule="evenodd" fill="none" stroke="#000000" stroke-width="2" stroke-linecap="round" stroke-linejoin="round" stroke-miterlimit="10" d="
	M460.08,469c5.84,1.04,11.679,2.088,17.523,3.102c0.375,0.064,0.797-0.142,1.196-0.222"/>
<path fill-rule="evenodd" clip-rule="evenodd" fill="none" stroke="#000000" stroke-width="2" stroke-linecap="round" stroke-linejoin="round" stroke-miterlimit="10" d="
	M549.12,230.92c1.447,1.981,0.844,4.163,0.441,6.232c-0.567,2.91-1.536,5.742-2.082,8.655c-0.493,2.632-1.41,4.789-4.482,5.705
	c1.225,2.379,2.354,4.574,3.483,6.768"/>
<path fill-rule="evenodd" clip-rule="evenodd" fill="none" stroke="#000000" stroke-width="2" stroke-linecap="round" stroke-linejoin="round" stroke-miterlimit="10" d="
	M501.6,474.28c0.16,1.6,0.303,3.202,0.486,4.799c0.129,1.124,0.311,2.241,0.475,3.361c0.398,2.72,0.976,5.429,1.148,8.163
	c0.16,2.545-0.597,5.22-0.084,7.654c0.977,4.643-0.691,8.729-1.758,12.989c-0.118,0.471,0.133,1.033,0.213,1.553"/>
<path fill-rule="evenodd" clip-rule="evenodd" fill="none" stroke="#000000" stroke-width="2" stroke-linecap="round" stroke-linejoin="round" stroke-miterlimit="10" d="
	M604.56,143.32c-5.159-4.12-10.319-8.24-15.479-12.36"/>
<path fill-rule="evenodd" clip-rule="evenodd" fill="none" stroke="#000000" stroke-width="2" stroke-linecap="round" stroke-linejoin="round" stroke-miterlimit="10" d="
	M465.84,455.32c-0.88,2.64-1.68,5.311-2.666,7.91c-0.748,1.97-1.733,3.85-2.614,5.77"/>
<path fill-rule="evenodd" clip-rule="evenodd" fill="none" stroke="#000000" stroke-width="2" stroke-linecap="round" stroke-linejoin="round" stroke-miterlimit="10" d="
	M547.2,297.64c-0.542,1.288-1.084,2.576-1.71,4.06c-3.896-1.905-7.748-3.851-12.21-3.58"/>
<path fill-rule="evenodd" clip-rule="evenodd" fill="none" stroke="#000000" stroke-width="2" stroke-linecap="round" stroke-linejoin="round" stroke-miterlimit="10" d="
	M548.4,217c0.399,0,0.934-0.169,1.18,0.025c3.39,2.682,6.74,5.415,10.1,8.134"/>
<path fill-rule="evenodd" clip-rule="evenodd" fill="none" stroke="#000000" stroke-width="2" stroke-linecap="round" stroke-linejoin="round" stroke-miterlimit="10" d="
	M201.12,217c-3.36,2.72-6.72,5.44-10.08,8.16"/>
<path fill-rule="evenodd" clip-rule="evenodd" fill="none" stroke="#000000" stroke-width="2" stroke-linecap="round" stroke-linejoin="round" stroke-miterlimit="10" d="
	M254.64,167.8c-4.702-1.418-9.39-2.818-14.401-2.693c-1.271,0.032-2.559-0.587-3.839-0.907"/>
<path fill-rule="evenodd" clip-rule="evenodd" fill="none" stroke="#000000" stroke-width="2" stroke-linecap="round" stroke-linejoin="round" stroke-miterlimit="10" d="
	M254.16,168.521c0.96-0.16,2.008-0.653,2.866-0.426c5.79,1.532,11.625,2.828,17.539,3.758c0.768,0.121,1.596-0.132,2.396-0.212"/>
<path fill-rule="evenodd" clip-rule="evenodd" fill="none" stroke="#000000" stroke-width="2" stroke-linecap="round" stroke-linejoin="round" stroke-miterlimit="10" d="
	M417.6,45.64c0.451,0.155,1.378-0.469,1.198,0.72c-0.395,2.601-0.798,5.201-1.198,7.8"/>
<path fill-rule="evenodd" clip-rule="evenodd" fill="none" stroke="#000000" stroke-width="2" stroke-linecap="round" stroke-linejoin="round" stroke-miterlimit="10" d="
	M504.48,500.92c2.319,2.561,4.64,5.12,6.96,7.681"/>
<path fill-rule="evenodd" clip-rule="evenodd" fill="none" stroke="#000000" stroke-width="2" stroke-linecap="round" stroke-linejoin="round" stroke-miterlimit="10" d="
	M204.96,256.84c0.542,1.008,0.74,1.777-0.444,2.686c-1.97,1.511-3.715,3.314-5.556,4.994"/>
<path fill-rule="evenodd" clip-rule="evenodd" fill="none" stroke="#000000" stroke-width="2" stroke-linecap="round" stroke-linejoin="round" stroke-miterlimit="10" d="
	M552.72,228.521c-0.639-2.404-1.444-4.711-3.6-6.24"/>
<path fill-rule="evenodd" clip-rule="evenodd" fill="none" stroke="#000000" stroke-width="2" stroke-linecap="round" stroke-linejoin="round" stroke-miterlimit="10" d="
	M547.2,167.32c0.24,2,0.479,4,0.72,6"/>
<path fill-rule="evenodd" clip-rule="evenodd" fill="none" stroke="#000000" stroke-width="2" stroke-linecap="round" stroke-linejoin="round" stroke-miterlimit="10" d="
	M324.72,301.24c-1.04,0.8-2.285,1.44-3.066,2.442c-0.9,1.153-0.048,1.955,1.146,2.357"/>
<path fill-rule="evenodd" clip-rule="evenodd" fill="none" stroke="#000000" stroke-width="2" stroke-linecap="round" stroke-linejoin="round" stroke-miterlimit="10" d="
	M235.92,163.96c-2.56-0.4-5.12-0.8-7.68-1.2"/>
<path fill-rule="evenodd" clip-rule="evenodd" fill="none" stroke="#000000" stroke-width="2" stroke-linecap="round" stroke-linejoin="round" stroke-miterlimit="10" d="
	M546.24,215.68c0.479,0.2,1.31,0.313,1.384,0.614c0.507,2.054,1.617,4.373,1.082,6.174c-0.85,2.858-0.129,5.211,0.654,7.732"/>
<path fill-rule="evenodd" clip-rule="evenodd" fill="none" stroke="#000000" stroke-width="2" stroke-linecap="round" stroke-linejoin="round" stroke-miterlimit="10" d="
	M557.52,173.8c-2.475,1.491-5.119,1.857-7.92,1.2"/>
<path fill-rule="evenodd" clip-rule="evenodd" fill="none" stroke="#000000" stroke-width="2" stroke-linecap="round" stroke-linejoin="round" stroke-miterlimit="10" d="
	M502.8,300.761c-1.439-0.24-2.88-0.48-4.319-0.721"/>
<path fill-rule="evenodd" clip-rule="evenodd" fill="none" stroke="#000000" stroke-width="2" stroke-linecap="round" stroke-linejoin="round" stroke-miterlimit="10" d="
	M547.92,167.08c-1.76,0.08-3.52,0.16-5.28,0.24"/>
<path fill-rule="evenodd" clip-rule="evenodd" fill="none" stroke="#000000" stroke-width="2" stroke-linecap="round" stroke-linejoin="round" stroke-miterlimit="10" d="
	M497.28,301.96c-0.646,1.948-2.071,0.518-3.12,0.721"/>
<path fill-rule="evenodd" clip-rule="evenodd" fill="none" stroke="#000000" stroke-width="2" stroke-linecap="round" stroke-linejoin="round" stroke-miterlimit="10" d="
	M534,296.2c-1.12,0.08-2.24,0.16-3.36,0.24"/>
<path fill-rule="evenodd" clip-rule="evenodd" fill="none" stroke="#000000" stroke-width="2" stroke-linecap="round" stroke-linejoin="round" stroke-miterlimit="10" d="
	M282,174.28c-0.992-1.247-2.277-1.715-3.84-1.44"/>
<path fill-rule="evenodd" clip-rule="evenodd" fill="none" stroke="#000000" stroke-width="2" stroke-linecap="round" stroke-linejoin="round" stroke-miterlimit="10" d="
	M460.32,87.64c-1.44,0.48-2.88,0.96-4.32,1.44"/>
<path fill-rule="evenodd" clip-rule="evenodd" fill="none" stroke="#000000" stroke-width="2" stroke-linecap="round" stroke-linejoin="round" stroke-miterlimit="10" d="
	M506.16,256.36c-0.451-1.059-1.175-1.729-2.4-1.68"/>
<path fill-rule="evenodd" clip-rule="evenodd" fill="none" stroke="#000000" stroke-width="2" stroke-linecap="round" stroke-linejoin="round" stroke-miterlimit="10" d="
	M546.72,168.76c-0.72,0.16-1.439,0.32-2.16,0.48"/>
<path fill-rule="evenodd" clip-rule="evenodd" fill="none" stroke="#000000" stroke-width="2" stroke-linecap="round" stroke-linejoin="round" stroke-miterlimit="10" d="
	M630.24,258.521c-0.08,0.56-0.16,1.12-0.24,1.68"/>
</svg>
